<?xml version="1.0" encoding="utf-8"?>
<!-- Generator: Adobe Illustrator 22.0.0, SVG Export Plug-In . SVG Version: 6.00 Build 0)  -->
<svg version="1.1"
	 id="svg8" inkscape:version="0.92.2 (5c3e80d, 2017-08-06)" sodipodi:docname="ClockAnalogSVG.svg" xmlns:cc="http://creativecommons.org/ns#" xmlns:dc="http://purl.org/dc/elements/1.1/" xmlns:inkscape="http://www.inkscape.org/namespaces/inkscape" xmlns:rdf="http://www.w3.org/1999/02/22-rdf-syntax-ns#" xmlns:sodipodi="http://sodipodi.sourceforge.net/DTD/sodipodi-0.dtd" xmlns:svg="http://www.w3.org/2000/svg"
	 xmlns="http://www.w3.org/2000/svg" xmlns:xlink="http://www.w3.org/1999/xlink" x="0px" y="0px" viewBox="0 0 400 400"
	 style="enable-background:new 0 0 400 400;" xml:space="preserve">
<path id="path817" style="fill:#DF9600" d="M200,0c110.5,0,200,89.5,200,200s-89.5,200-200,200S0,310.5,0,200S89.5,0,200,0z"/>
<path id="path819" style="fill:#41E8DF" d="M200,56.3c2.6,0,4.7,2.1,4.7,4.7c0,2.6-2.1,4.7-4.7,4.7c-2.6,0-4.7-2.1-4.7-4.7
	C195.3,58.4,197.4,56.3,200,56.3z"/>
<path id="path860-2" style="fill:#00FF40" d="M278.5,348.2c5.7-3,10.9-8.1,13.9-13.7c2.1-4,2.5-5.8,2.5-12.6c0-6.8-0.4-8.6-2.5-12.6
	c-3-5.6-8.1-10.7-13.9-13.7l-4.2-2.2H200h-74.3l-4.2,2.2c-5.7,3-10.9,8.1-13.9,13.7c-2.1,4-2.5,5.8-2.5,12.6c0,6.5,0.4,8.7,2.2,12.1
	c3.9,7.6,11,13.9,18.8,16.4c1.3,0.4,35.1,0.1,75.2,0h72.9L278.5,348.2z M127.1,348.5c-7.8-2.4-14-8.1-17.9-15.4
	c-3.2-6.2-3.1-16.5,0.3-22.9c2.9-5.6,7.2-9.7,12.9-12.7l4.2-2.2H200h73.4l4.2,2.2c5.7,3,10,7.2,12.9,12.7c2,3.8,2.5,5.9,2.5,11.7
	s-0.4,7.8-2.5,11.7c-2.9,5.6-7.2,9.7-12.9,12.7l-4.2,2.2h-72C161.8,348.6,128.4,348.9,127.1,348.5L127.1,348.5z"/>
<path id="path6626" style="fill:#FFFFFF" d="M167.5,313v6.3c0.6-0.6,1.2-1,1.9-1.3s1.4-0.4,2.2-0.4c1.7,0,3.1,0.6,4.2,1.9
	c1.2,1.3,1.7,2.9,1.7,4.8s-0.6,3.5-1.8,4.8s-2.6,1.9-4.3,1.9c-0.7,0-1.4-0.1-2-0.4s-1.3-0.7-1.9-1.3v1.3h-3.2V313H167.5z
	 M170.9,320.5c-1,0-1.8,0.3-2.5,1s-1,1.6-1,2.7s0.3,2,1,2.7s1.5,1,2.5,1s1.8-0.4,2.5-1.1s1-1.6,1-2.7s-0.3-2-1-2.7
	C172.7,320.9,171.9,320.5,170.9,320.5L170.9,320.5z"/>
<path id="path6628" style="fill:#FFFFFF" d="M180.2,317.9h3.2v6.1c0,1.2,0.1,2,0.2,2.5c0.2,0.5,0.4,0.8,0.8,1.1c0.4,0.3,0.8,0.4,1.3,0.4
	s1-0.1,1.3-0.4c0.4-0.3,0.7-0.6,0.8-1.1c0.1-0.4,0.2-1.2,0.2-2.4v-6.2h3.2v5.4c0,2.2-0.2,3.7-0.5,4.6c-0.4,1-1.1,1.8-1.9,2.3
	c-0.8,0.5-1.9,0.8-3.2,0.8c-1.4,0-2.5-0.3-3.4-0.9s-1.5-1.5-1.8-2.6c-0.2-0.8-0.4-2.2-0.4-4.2L180.2,317.9z"/>
<path id="path6630" style="fill:#FFFFFF" d="M195,313.2h3.2v4.7h1.9v2.7h-1.9v10H195v-10h-1.6v-2.7h1.6V313.2z"/>
<path id="path6632" style="fill:#FFFFFF" d="M202.2,313.2h3.2v4.7h1.9v2.7h-1.9v10h-3.2v-10h-1.6v-2.7h1.6V313.2z"/>
<path id="path6634" style="fill:#FFFFFF" d="M215,317.6c1.2,0,2.3,0.3,3.4,0.9c1.1,0.6,1.9,1.4,2.5,2.4s0.9,2.1,0.9,3.3
	c0,1.2-0.3,2.3-0.9,3.4c-0.6,1-1.4,1.9-2.4,2.5s-2.2,0.9-3.4,0.9c-1.8,0-3.4-0.6-4.7-1.9s-1.9-2.9-1.9-4.7c0-2,0.7-3.6,2.2-5
	C211.8,318.2,213.3,317.6,215,317.6L215,317.6z M215,320.6c-1,0-1.8,0.3-2.5,1s-1,1.6-1,2.6c0,1.1,0.3,2,1,2.7s1.5,1,2.5,1
	s1.8-0.3,2.5-1s1-1.6,1-2.7s-0.3-2-1-2.7C216.9,321,216,320.6,215,320.6L215,320.6z"/>
<path id="path6636" style="fill:#FFFFFF" d="M224.3,317.9h3.2v1.3c0.7-0.6,1.4-1,2-1.3c0.6-0.2,1.2-0.4,1.8-0.4c1.3,0,2.3,0.4,3.2,1.3
	c0.7,0.7,1.1,1.9,1.1,3.3v8.4h-3.2v-5.6c0-1.5-0.1-2.5-0.2-3c-0.1-0.5-0.4-0.9-0.7-1.1c-0.3-0.3-0.8-0.4-1.3-0.4
	c-0.6,0-1.2,0.2-1.7,0.7c-0.5,0.4-0.8,1-1,1.8c-0.1,0.4-0.1,1.3-0.1,2.6v5.1h-3.2L224.3,317.9z"/>
<path id="path6669" style="fill:#DFFDFF" d="M20.1,190.4c1.3,0,2.4,0.3,3.3,0.9c0.9,0.6,1.7,1.6,2.2,2.9c0.5,1.3,0.8,3.1,0.8,5.4
	c0,2.3-0.3,4.2-0.8,5.5s-1.2,2.3-2.1,2.9c-0.9,0.6-2,0.9-3.3,0.9s-2.4-0.3-3.4-0.9c-0.9-0.6-1.6-1.6-2.1-2.8c-0.5-1.3-0.8-3-0.8-5.4
	c0-3.2,0.5-5.6,1.5-7.1C16.5,191.2,18.1,190.4,20.1,190.4L20.1,190.4z M20.2,193.6c-0.6,0-1.1,0.2-1.5,0.6c-0.4,0.4-0.8,1-1,1.9
	s-0.3,2.2-0.3,3.9c0,2.2,0.3,3.8,0.8,4.6s1.2,1.3,2.1,1.3c0.8,0,1.5-0.4,1.9-1.2c0.6-1,0.9-2.6,0.9-4.9c0-2.3-0.3-3.9-0.8-4.8
	C21.7,194,21,193.6,20.2,193.6L20.2,193.6z"/>
<path id="path6671" style="fill:#DFFDFF" d="M33.7,208.9l-2.9-1.4l3.1-6c-1.5,0-2.8-0.5-3.8-1.6s-1.6-2.4-1.6-4c0-1.5,0.5-2.9,1.6-3.9
	c1.1-1.1,2.4-1.6,3.9-1.6c1.6,0,2.9,0.6,4,1.7c1.1,1.1,1.6,2.4,1.6,3.8c0,0.5-0.1,1.1-0.3,1.6s-0.5,1.4-1.1,2.5L33.7,208.9z
	 M34.1,198.3c0.6,0,1.1-0.2,1.6-0.7c0.4-0.5,0.6-1,0.6-1.7s-0.2-1.3-0.7-1.7c-0.4-0.5-1-0.7-1.6-0.7s-1.2,0.2-1.6,0.7
	c-0.4,0.5-0.7,1-0.7,1.7s0.2,1.3,0.6,1.7C32.9,198.1,33.4,198.3,34.1,198.3L34.1,198.3z"/>
<path id="path6664" style="fill:#DFFDFF" d="M40.8,106.8h5v17.7h-3.3V110h-3.6L40.8,106.8z"/>
<path id="path6666" style="fill:#DFFDFF" d="M57.4,106.3c1.3,0,2.4,0.3,3.3,0.9c0.9,0.6,1.7,1.6,2.2,2.9s0.8,3.1,0.8,5.4s-0.3,4.2-0.8,5.5
	s-1.2,2.3-2.1,2.9c-0.9,0.6-2,0.9-3.3,0.9s-2.4-0.3-3.4-0.9c-0.9-0.6-1.6-1.6-2.1-2.8c-0.5-1.3-0.8-3-0.8-5.4c0-3.2,0.5-5.6,1.5-7.1
	C53.9,107.1,55.4,106.3,57.4,106.3z M57.5,109.5c-0.6,0-1.1,0.2-1.5,0.6s-0.8,1-1,1.9s-0.3,2.2-0.3,3.9c0,2.2,0.3,3.8,0.8,4.6
	c0.5,0.8,1.2,1.3,2.1,1.3c0.8,0,1.5-0.4,1.9-1.2c0.6-1,0.9-2.6,0.9-4.9s-0.3-3.9-0.8-4.8C59,110,58.3,109.5,57.5,109.5L57.5,109.5z"
	/>
<path id="path6659" style="fill:#DFFDFF" d="M98.4,48.1h5v17.7h-3.3V51.2h-3.6L98.4,48.1z"/>
<path id="path6661" style="fill:#DFFDFF" d="M112.2,48.1h5v17.7h-3.3V51.2h-3.6L112.2,48.1z"/>
<path id="path6654" style="fill:#DFFDFF" d="M189.9,21.6h5v17.7h-3.3V24.7H188L189.9,21.6z"/>
<path id="path6656" style="fill:#DFFDFF" d="M203.9,27.3h-3.3c0.1-1.9,0.7-3.4,1.8-4.5s2.5-1.6,4.3-1.6c1.1,0,2,0.2,2.8,0.7
	c0.8,0.4,1.5,1.1,2,2c0.5,0.8,0.7,1.7,0.7,2.6c0,1-0.3,2.2-0.9,3.4c-0.6,1.2-1.7,2.6-3.3,4.3l-2,2.1h6.3v3.1h-12.2v-1.6l5.5-5.6
	c1.3-1.3,2.2-2.4,2.6-3.2c0.4-0.8,0.7-1.6,0.7-2.2c0-0.7-0.2-1.2-0.7-1.7c-0.4-0.4-1-0.7-1.7-0.7s-1.3,0.3-1.8,0.8
	C204.2,25.6,203.9,26.3,203.9,27.3L203.9,27.3z"/>
<path id="path6649" style="fill:#DFFDFF" d="M289.3,47.2c1.3,0,2.4,0.3,3.3,0.9c0.9,0.6,1.7,1.6,2.2,2.9c0.5,1.3,0.8,3.1,0.8,5.4
	c0,2.3-0.3,4.2-0.8,5.5s-1.2,2.3-2.1,2.9s-2,0.9-3.3,0.9s-2.4-0.3-3.4-0.9c-0.9-0.6-1.6-1.6-2.1-2.8c-0.5-1.3-0.8-3-0.8-5.4
	c0-3.2,0.5-5.6,1.5-7.1C285.7,48,287.3,47.2,289.3,47.2z M289.3,50.4c-0.6,0-1.1,0.2-1.5,0.6c-0.4,0.4-0.8,1-1,1.9s-0.3,2.2-0.3,3.9
	c0,2.2,0.3,3.8,0.8,4.6s1.2,1.3,2.1,1.3c0.8,0,1.5-0.4,1.9-1.2c0.6-1,0.9-2.6,0.9-4.9c0-2.3-0.3-3.9-0.8-4.8
	C290.9,50.8,290.2,50.4,289.3,50.4L289.3,50.4z"/>
<path id="path6651" style="fill:#DFFDFF" d="M300.3,47.6h5v17.7H302V50.8h-3.6L300.3,47.6z"/>
<path id="path6644" style="fill:#DFFDFF" d="M342,106.3c1.3,0,2.4,0.3,3.3,0.9s1.7,1.6,2.2,2.9s0.8,3.1,0.8,5.4s-0.3,4.2-0.8,5.5
	s-1.2,2.3-2.1,2.9s-2,0.9-3.3,0.9s-2.4-0.3-3.4-0.9c-0.9-0.6-1.6-1.6-2.1-2.8c-0.5-1.3-0.8-3-0.8-5.4c0-3.2,0.5-5.6,1.5-7.1
	C338.4,107.1,340,106.3,342,106.3z M342,109.5c-0.6,0-1.1,0.2-1.5,0.6s-0.8,1-1,1.9s-0.3,2.2-0.3,3.9c0,2.2,0.3,3.8,0.8,4.6
	c0.5,0.8,1.2,1.3,2.1,1.3c0.8,0,1.5-0.4,1.9-1.2c0.6-1,0.9-2.6,0.9-4.9s-0.3-3.9-0.8-4.8S342.9,109.5,342,109.5L342,109.5z"/>
<path id="path6646" style="fill:#DFFDFF" d="M353.2,112.5h-3.3c0.1-1.9,0.7-3.4,1.8-4.5c1.1-1.1,2.5-1.6,4.3-1.6c1.1,0,2,0.2,2.8,0.7
	c0.8,0.4,1.5,1.1,2,2c0.5,0.8,0.7,1.7,0.7,2.6c0,1-0.3,2.2-0.9,3.4c-0.6,1.2-1.7,2.6-3.3,4.3l-2,2.1h6.3v3.1h-12.2V123l5.5-5.6
	c1.3-1.3,2.2-2.4,2.6-3.2c0.4-0.8,0.7-1.6,0.7-2.2c0-0.7-0.2-1.2-0.7-1.7c-0.4-0.4-1-0.7-1.7-0.7s-1.3,0.3-1.8,0.8
	C353.5,110.8,353.2,111.6,353.2,112.5L353.2,112.5z"/>
<path id="path6639" style="fill:#DFFDFF" d="M364.8,190.4c1.3,0,2.4,0.3,3.3,0.9c0.9,0.6,1.7,1.6,2.2,2.9c0.5,1.3,0.8,3.1,0.8,5.4
	c0,2.3-0.3,4.2-0.8,5.5s-1.2,2.3-2.1,2.9c-0.9,0.6-2,0.9-3.3,0.9s-2.4-0.3-3.4-0.9c-0.9-0.6-1.6-1.6-2.1-2.8c-0.5-1.3-0.8-3-0.8-5.4
	c0-3.2,0.5-5.6,1.5-7.1C361.3,191.2,362.8,190.4,364.8,190.4L364.8,190.4z M364.9,193.6c-0.6,0-1.1,0.2-1.5,0.6
	c-0.4,0.4-0.8,1-1,1.9s-0.3,2.2-0.3,3.9c0,2.2,0.3,3.8,0.8,4.6s1.2,1.3,2.1,1.3c0.8,0,1.5-0.4,1.9-1.2c0.6-1,0.9-2.6,0.9-4.9
	c0-2.3-0.3-3.9-0.8-4.8C366.4,194,365.7,193.6,364.9,193.6L364.9,193.6z"/>
<path id="path6641" style="fill:#DFFDFF" d="M376.4,195.2h-3.2c0.2-1.3,0.6-2.4,1.4-3.1c1.1-1.1,2.4-1.7,4.1-1.7c1.5,0,2.7,0.5,3.6,1.4
	c1,0.9,1.5,2,1.5,3.3c0,0.8-0.2,1.5-0.6,2.2c-0.4,0.6-1,1.2-1.9,1.6c1.1,0.3,1.9,0.9,2.5,1.7s0.9,1.7,0.9,2.8c0,1.6-0.6,2.9-1.8,4
	c-1.2,1.1-2.7,1.6-4.5,1.6c-1.7,0-3.1-0.5-4.2-1.6c-1.1-1-1.7-2.5-1.8-4.2h3.3c0.1,0.9,0.5,1.6,0.9,2c0.5,0.4,1.1,0.7,1.9,0.7
	s1.4-0.3,1.9-0.8s0.8-1.1,0.8-1.9c0-0.8-0.3-1.5-1-2c-0.7-0.6-1.7-0.8-3-0.9v-2.9c0.8-0.1,1.4-0.2,1.8-0.4s0.7-0.5,0.9-0.8
	c0.2-0.3,0.3-0.7,0.3-1c0-0.5-0.2-0.9-0.5-1.2s-0.8-0.5-1.3-0.5s-0.9,0.1-1.3,0.4C376.8,194.3,376.6,194.7,376.4,195.2L376.4,195.2z
	"/>
<path id="path1373" style="fill:#DFFDFF" d="M121.1,243.7h3.7l4.7,13.3l4.8-13.3h3.7l-6.7,18.7h-3.4L121.1,243.7z"/>
<path id="path1375" style="fill:#DFFDFF" d="M158,246.8l-2.5,2.5c-1.6-1.7-3.4-2.5-5.5-2.5c-1.8,0-3.4,0.6-4.6,1.8c-1.2,1.2-1.9,2.7-1.9,4.4
	c0,1.8,0.6,3.3,1.9,4.6s2.9,1.9,4.8,1.9c1.2,0,2.3-0.3,3.1-0.8s1.5-1.3,2-2.4h-5.4V253h9.4v0.8c0,1.6-0.4,3.2-1.3,4.6
	c-0.8,1.5-1.9,2.6-3.3,3.3c-1.3,0.8-2.9,1.2-4.7,1.2c-1.9,0-3.7-0.4-5.2-1.3c-1.5-0.8-2.7-2-3.6-3.6c-0.9-1.6-1.3-3.2-1.3-5
	c0-2.5,0.8-4.6,2.4-6.4c1.9-2.2,4.5-3.3,7.6-3.3c1.6,0,3.1,0.3,4.6,0.9C155.7,244.7,156.9,245.5,158,246.8L158,246.8z"/>
<path id="path1377" style="fill:#DFFDFF" d="M169.8,243.7h3.6V259h5.2v3.4h-8.7L169.8,243.7z"/>
<path id="path1379" style="fill:#DFFDFF" d="M181,243.7h3.5v18.7H181V243.7z"/>
<path id="path1381" style="fill:#DFFDFF" d="M186.7,243.7H197v3.5h-3.4v15.2H190v-15.2h-3.3V243.7z"/>
<path id="path1383" style="fill:#DFFDFF" d="M199.4,243.7h10.2v3.5H203v3.4h6.7v3.4H203v4.9h6.7v3.5h-10.2v-18.7H199.4z"/>
<path id="path1385" style="fill:#DFFDFF" d="M229.9,246.3l-2.6,2.3c-0.9-1.3-1.9-1.9-2.8-1.9c-0.5,0-0.8,0.1-1.1,0.4
	c-0.3,0.2-0.4,0.5-0.4,0.8s0.1,0.6,0.3,0.9c0.3,0.4,1.2,1.2,2.6,2.4c1.4,1.1,2.2,1.8,2.5,2.1c0.7,0.7,1.2,1.4,1.5,2.1
	c0.3,0.7,0.5,1.4,0.5,2.2c0,1.5-0.5,2.8-1.6,3.8s-2.4,1.5-4.1,1.5c-1.3,0-2.5-0.3-3.5-1s-1.8-1.7-2.5-3.1l3-1.8
	c0.9,1.6,1.9,2.5,3.1,2.5c0.6,0,1.1-0.2,1.5-0.5c0.4-0.4,0.6-0.8,0.6-1.2c0-0.4-0.2-0.8-0.5-1.3c-0.3-0.4-1-1.1-2.1-1.9
	c-2-1.7-3.3-2.9-3.9-3.8c-0.6-0.9-0.9-1.8-0.9-2.7c0-1.3,0.5-2.4,1.5-3.3c1-0.9,2.2-1.4,3.7-1.4c0.9,0,1.8,0.2,2.7,0.6
	C228.1,244.3,229,245.1,229.9,246.3L229.9,246.3z"/>
<path id="path1387" style="fill:#DFFDFF" d="M233.6,243.7h3.8c2,0,3.5,0.2,4.4,0.6c0.9,0.4,1.6,1,2.1,1.8s0.8,1.8,0.8,3c0,1.3-0.3,2.4-1,3.2
	c-0.7,0.9-1.6,1.5-2.8,1.8c-0.7,0.2-1.9,0.3-3.7,0.3v7.9h-3.6V243.7z M237.2,251h1.1c0.9,0,1.5-0.1,1.9-0.2c0.3-0.1,0.6-0.3,0.8-0.6
	s0.3-0.7,0.3-1.1c0-0.7-0.3-1.2-0.8-1.6c-0.4-0.2-1.2-0.4-2.3-0.4h-1V251z"/>
<path id="path1389" style="fill:#DFFDFF" d="M248.2,243.7h10.2v3.5h-6.7v3.4h6.7v3.4h-6.7v4.9h6.7v3.5h-10.2V243.7z"/>
<path id="path1391" style="fill:#DFFDFF" d="M278.9,247l-2.5,2.4c-1.7-1.8-3.6-2.7-5.7-2.7c-1.8,0-3.3,0.6-4.5,1.8s-1.8,2.7-1.8,4.5
	c0,1.2,0.3,2.3,0.8,3.3c0.5,1,1.3,1.7,2.3,2.3c1,0.5,2.1,0.8,3.3,0.8c1,0,2-0.2,2.8-0.6c0.9-0.4,1.8-1.1,2.8-2.1l2.4,2.5
	c-1.4,1.3-2.7,2.3-3.9,2.8c-1.2,0.5-2.6,0.8-4.2,0.8c-2.9,0-5.3-0.9-7.1-2.8c-1.8-1.8-2.8-4.2-2.8-7.1c0-1.9,0.4-3.5,1.3-5
	c0.8-1.4,2.1-2.6,3.6-3.5c1.6-0.9,3.3-1.3,5.1-1.3c1.5,0,3,0.3,4.4,1C276.6,244.9,277.8,245.8,278.9,247L278.9,247z"/>
<path id="path819-1" inkscape:connector-curvature="0" style="fill:#41E8DF" d="M127,80.3c2.6,0,4.7,2.1,4.7,4.7s-2.1,4.7-4.7,4.7
	c-2.6,0-4.7-2.1-4.7-4.7S124.4,80.3,127,80.3z"/>
<path id="path819-9" inkscape:connector-curvature="0" style="fill:#41E8DF" d="M85,130.3c2.6,0,4.7,2.1,4.7,4.7c0,2.6-2.1,4.7-4.7,4.7
	s-4.7-2.1-4.7-4.7C80.3,132.4,82.4,130.3,85,130.3z"/>
<path id="path819-3" inkscape:connector-curvature="0" style="fill:#41E8DF" d="M61,191.8c2.6,0,4.7,2.1,4.7,4.7c0,2.6-2.1,4.7-4.7,4.7
	c-2.6,0-4.7-2.1-4.7-4.7C56.3,193.9,58.4,191.8,61,191.8z"/>
<path id="path819-3-9" inkscape:connector-curvature="0" style="fill:#41E8DF" d="M339,191.8c2.6,0,4.7,2.1,4.7,4.7c0,2.6-2.1,4.7-4.7,4.7
	s-4.7-2.1-4.7-4.7C334.3,193.9,336.4,191.8,339,191.8z"/>
<path id="path819-9-9" inkscape:connector-curvature="0" style="fill:#41E8DF" d="M315,130.3c2.6,0,4.7,2.1,4.7,4.7c0,2.6-2.1,4.7-4.7,4.7
	s-4.7-2.1-4.7-4.7C310.3,132.4,312.4,130.3,315,130.3z"/>
<path id="path819-1-7" inkscape:connector-curvature="0" style="fill:#41E8DF" d="M273,80.3c2.6,0,4.7,2.1,4.7,4.7s-2.1,4.7-4.7,4.7
	s-4.7-2.1-4.7-4.7S270.4,80.3,273,80.3z"/>
</svg>
