<?xml version="1.0" encoding="UTF-8" standalone="no"?>
<svg
   xmlns:dc="http://purl.org/dc/elements/1.1/"
   xmlns:cc="http://creativecommons.org/ns#"
   xmlns:rdf="http://www.w3.org/1999/02/22-rdf-syntax-ns#"
   xmlns:svg="http://www.w3.org/2000/svg"
   xmlns="http://www.w3.org/2000/svg"
   xmlns:sodipodi="http://sodipodi.sourceforge.net/DTD/sodipodi-0.dtd"
   xmlns:inkscape="http://www.inkscape.org/namespaces/inkscape"
   height="400"
   width="400"
   xml:space="preserve"
   viewBox="0 0 400.00001 399.99999"
   y="0px"
   x="0px"
   id="svg8"
   version="1.1"
   sodipodi:docname="HourNeedle.svg"
   inkscape:version="1.0.1 (3bc2e813f5, 2020-09-07)"><sodipodi:namedview
     pagecolor="#ffffff"
     bordercolor="#666666"
     borderopacity="1"
     objecttolerance="10"
     gridtolerance="10"
     guidetolerance="10"
     inkscape:pageopacity="0"
     inkscape:pageshadow="2"
     inkscape:window-width="1920"
     inkscape:window-height="1017"
     id="namedview17"
     showgrid="false"
     inkscape:snap-grids="true"
     inkscape:zoom="4"
     inkscape:cx="73.429569"
     inkscape:cy="84.868339"
     inkscape:window-x="-8"
     inkscape:window-y="-8"
     inkscape:window-maximized="1"
     inkscape:current-layer="svg8" /><metadata
     id="metadata858"><rdf:RDF><cc:Work
         rdf:about=""><dc:format>image/svg+xml</dc:format><dc:type
           rdf:resource="http://purl.org/dc/dcmitype/StillImage" /><dc:title /></cc:Work></rdf:RDF></metadata><defs
     id="defs856" />
<path
     style="fill:#8a3523;fill-opacity:1;stroke:none"
     d="m -0.25676,115.57432 c -2.1,0 -4.1,-2 -5.2,-6.1 V 10.874324 c 1.6,0.8 3.5,1.3 5.2,1.3 1.9,0 3.6,-0.4 5.2,-1.3 v 98.599996 c -1.1,4.1 -3.2,6.1 -5.2,6.1 z"
     id="path826-3" />
<path
     style="fill:#0b0d31;stroke:none"
     id="path848"
     d="m -0.25676,11.774324 c 6.2,0 11.4,-5.1 11.4,-11.50000001 0,-6.29999999 -5,-11.49999999 -11.4,-11.49999999 -6.4,0 -11.4,5.2 -11.4,11.49999999 0,6.30000001 5,11.50000001 11.4,11.50000001 z"
     />
<path
     style="fill:#41e8df;stroke:none"
     id="path851"
     d="m -0.25676,4.774324 c 2.7,0 4.8,-2.1 4.8,-4.80000001 0,-2.69999999 -2.3,-4.69999999 -4.8,-4.69999999 -2.5,0 -4.8,2 -4.8,4.69999999 0,2.70000001 2.1,4.80000001 4.8,4.80000001 z"
     />
</svg>
