<?xml version="1.0" encoding="utf-8"?>
<!-- Generator: Adobe Illustrator 22.0.1, SVG Export Plug-In . SVG Version: 6.00 Build 0)  -->
<svg version="1.1" id="Layer_1" xmlns="http://www.w3.org/2000/svg" xmlns:xlink="http://www.w3.org/1999/xlink" x="0px" y="0px"
	 viewBox="0 0 120 82" style="enable-background:new 0 0 120 82;" xml:space="preserve">
<style type="text/css">
	.st0{fill:#666666;}
</style>
<path class="st0" d="M120,82H0V0h120V82z M2,80h116V2H2V80z"/>
<g>
	<path class="st0" d="M37.5,43.3c0.1,0,0.1,0,0.2,0.1l0.5,0.6c-0.4,0.5-0.9,0.8-1.5,1.1c-0.6,0.3-1.3,0.4-2.1,0.4
		c-0.7,0-1.4-0.1-2-0.4c-0.6-0.2-1.1-0.6-1.5-1c-0.4-0.5-0.7-1-1-1.6c-0.2-0.6-0.3-1.3-0.3-2.1c0-0.8,0.1-1.4,0.4-2.1
		c0.2-0.6,0.6-1.2,1-1.6s0.9-0.8,1.6-1.1c0.6-0.2,1.3-0.4,2-0.4s1.3,0.1,1.9,0.3c0.5,0.2,1,0.5,1.4,0.9L37.7,37l-0.1,0.1
		c0,0-0.1,0-0.2,0c-0.1,0-0.2,0-0.3-0.1s-0.3-0.2-0.5-0.3c-0.2-0.1-0.4-0.2-0.7-0.3c-0.3-0.1-0.7-0.1-1.1-0.1c-0.5,0-1,0.1-1.4,0.3
		c-0.4,0.2-0.8,0.4-1.1,0.8c-0.3,0.3-0.6,0.8-0.7,1.2c-0.2,0.5-0.3,1-0.3,1.7c0,0.6,0.1,1.2,0.3,1.7s0.4,0.9,0.7,1.2
		c0.3,0.3,0.7,0.6,1.1,0.8c0.4,0.2,0.9,0.3,1.4,0.3c0.3,0,0.6,0,0.8-0.1c0.2,0,0.5-0.1,0.7-0.2s0.4-0.2,0.6-0.3
		C37.1,43.6,37.2,43.4,37.5,43.3C37.4,43.4,37.4,43.3,37.5,43.3z"/>
	<path class="st0" d="M42.4,38.2c0.5,0,1,0.1,1.4,0.3c0.4,0.2,0.8,0.4,1.1,0.7s0.5,0.7,0.7,1.2s0.2,1,0.2,1.5c0,0.6-0.1,1.1-0.2,1.5
		c-0.2,0.4-0.4,0.8-0.7,1.1c-0.3,0.3-0.6,0.6-1.1,0.7c-0.4,0.2-0.9,0.3-1.4,0.3s-1-0.1-1.4-0.3c-0.4-0.2-0.8-0.4-1.1-0.7
		c-0.3-0.3-0.5-0.7-0.7-1.1s-0.2-1-0.2-1.5c0-0.6,0.1-1.1,0.2-1.5c0.2-0.5,0.4-0.8,0.7-1.2s0.7-0.6,1.1-0.7
		C41.4,38.3,41.9,38.2,42.4,38.2z M42.4,44.5c0.7,0,1.2-0.2,1.6-0.7c0.3-0.5,0.5-1.1,0.5-2c0-0.8-0.2-1.5-0.5-2s-0.9-0.7-1.6-0.7
		c-0.4,0-0.7,0.1-0.9,0.2c-0.3,0.1-0.5,0.3-0.7,0.5s-0.3,0.5-0.4,0.8c-0.1,0.3-0.1,0.7-0.1,1.1c0,0.8,0.2,1.5,0.5,2
		C41.1,44.3,41.7,44.5,42.4,44.5z"/>
	<path class="st0" d="M48.5,39.3c0.2-0.2,0.3-0.3,0.5-0.5c0.2-0.1,0.4-0.3,0.5-0.4c0.2-0.1,0.4-0.2,0.6-0.2s0.5-0.1,0.7-0.1
		c0.4,0,0.7,0.1,1,0.2s0.5,0.3,0.7,0.5s0.3,0.5,0.5,0.9c0.1,0.3,0.2,0.7,0.2,1.1v4.5H52v-4.5c0-0.5-0.1-1-0.4-1.2s-0.6-0.4-1.1-0.4
		c-0.4,0-0.7,0.1-1,0.3c-0.3,0.2-0.6,0.4-0.9,0.7v5.2h-1.3v-7.1H48c0.2,0,0.3,0.1,0.3,0.3L48.5,39.3z"/>
	<path class="st0" d="M57.2,45.5c-0.6,0-1-0.2-1.3-0.5s-0.5-0.8-0.5-1.4v-4.2h-0.9c-0.1,0-0.1,0-0.2-0.1c-0.1,0-0.1-0.1-0.1-0.2
		v-0.5l1.2-0.1l0.3-2.2c0-0.1,0-0.1,0.1-0.2c0,0,0.1-0.1,0.2-0.1h0.6v2.4h2.1v0.9h-2.1v4.3c0,0.3,0.1,0.5,0.2,0.7s0.3,0.2,0.6,0.2
		c0.1,0,0.2,0,0.3-0.1c0.1,0,0.2-0.1,0.2-0.1c0.1,0,0.1-0.1,0.2-0.1l0.1-0.1c0.1,0,0.1,0,0.2,0.1l0.4,0.6c-0.2,0.2-0.5,0.4-0.8,0.5
		C57.9,45.5,57.5,45.5,57.2,45.5z"/>
	<path class="st0" d="M61.2,39.7c0.2-0.5,0.5-0.9,0.8-1.1c0.3-0.3,0.7-0.4,1.2-0.4c0.1,0,0.3,0,0.4,0s0.3,0.1,0.4,0.2l-0.1,0.9
		c0,0.1-0.1,0.2-0.2,0.2c-0.1,0-0.2,0-0.3,0s-0.3,0-0.4,0c-0.2,0-0.4,0-0.6,0.1s-0.3,0.2-0.5,0.3c-0.1,0.1-0.3,0.3-0.4,0.5
		c-0.1,0.2-0.2,0.4-0.3,0.6v4.5h-1.3v-7.1h0.7c0.1,0,0.2,0,0.3,0.1s0.1,0.1,0.1,0.3L61.2,39.7z"/>
	<path class="st0" d="M67.9,38.2c0.5,0,1,0.1,1.4,0.3c0.4,0.2,0.8,0.4,1.1,0.7s0.5,0.7,0.7,1.2s0.2,1,0.2,1.5c0,0.6-0.1,1.1-0.2,1.5
		c-0.2,0.4-0.4,0.8-0.7,1.1c-0.3,0.3-0.6,0.6-1.1,0.7c-0.4,0.2-0.9,0.3-1.4,0.3s-1-0.1-1.4-0.3c-0.4-0.2-0.8-0.4-1.1-0.7
		c-0.3-0.3-0.5-0.7-0.7-1.1s-0.2-1-0.2-1.5c0-0.6,0.1-1.1,0.2-1.5c0.2-0.5,0.4-0.8,0.7-1.2s0.6-0.6,1.1-0.7
		C66.9,38.3,67.3,38.2,67.9,38.2z M67.9,44.5c0.7,0,1.2-0.2,1.6-0.7c0.3-0.5,0.5-1.1,0.5-2c0-0.8-0.2-1.5-0.5-2s-0.9-0.7-1.6-0.7
		c-0.4,0-0.7,0.1-0.9,0.2c-0.3,0.1-0.5,0.3-0.7,0.5s-0.3,0.5-0.4,0.8c-0.1,0.3-0.1,0.7-0.1,1.1c0,0.8,0.2,1.5,0.5,2
		C66.6,44.3,67.1,44.5,67.9,44.5z"/>
	<path class="st0" d="M74.1,35.1v10.3h-1.2V35.1H74.1z"/>
	<path class="st0" d="M77.4,35.1v10.3h-1.2V35.1H77.4z"/>
	<path class="st0" d="M85.2,44.4c-0.2,0.2-0.3,0.3-0.6,0.5s-0.4,0.3-0.7,0.3s-0.5,0.2-0.8,0.2s-0.5,0.1-0.8,0.1
		c-0.5,0-0.9-0.1-1.4-0.2s-0.8-0.4-1.1-0.7s-0.5-0.7-0.7-1.2s-0.3-1-0.3-1.6c0-0.5,0.1-1,0.2-1.4c0.2-0.4,0.4-0.8,0.7-1.1
		c0.3-0.3,0.6-0.6,1-0.7c0.4-0.2,0.9-0.3,1.4-0.3c0.4,0,0.8,0.1,1.2,0.2s0.7,0.3,0.9,0.6c0.3,0.3,0.5,0.6,0.6,1s0.2,0.8,0.2,1.3
		c0,0.2,0,0.3-0.1,0.4c0,0.1-0.1,0.1-0.2,0.1H80c0,0.4,0.1,0.8,0.2,1.2c0.1,0.3,0.3,0.6,0.5,0.8c0.2,0.2,0.4,0.4,0.7,0.5
		s0.6,0.2,0.9,0.2c0.3,0,0.6,0,0.8-0.1s0.4-0.2,0.6-0.2c0.2-0.1,0.3-0.2,0.4-0.2s0.2-0.1,0.3-0.1s0.2,0,0.2,0.1L85.2,44.4z
		 M84.2,41.1c0-0.3,0-0.6-0.1-0.8c-0.1-0.2-0.2-0.4-0.4-0.6s-0.3-0.3-0.6-0.4c-0.2-0.1-0.5-0.1-0.8-0.1c-0.6,0-1.1,0.2-1.4,0.5
		s-0.6,0.8-0.6,1.4H84.2z"/>
	<path class="st0" d="M88,39.7c0.2-0.5,0.5-0.9,0.8-1.1c0.3-0.3,0.7-0.4,1.2-0.4c0.1,0,0.3,0,0.4,0s0.3,0.1,0.4,0.2l-0.1,0.9
		c0,0.1-0.1,0.2-0.2,0.2c-0.1,0-0.2,0-0.3,0s-0.3,0-0.4,0c-0.2,0-0.4,0-0.6,0.1c-0.2,0.1-0.3,0.2-0.5,0.3s-0.3,0.3-0.4,0.5
		S88.1,40.8,88,41v4.5h-1.3v-7.1h0.7c0.1,0,0.2,0,0.3,0.1s0.1,0.1,0.1,0.3L88,39.7z"/>
</g>
</svg>
