<?xml version="1.0" encoding="utf-8"?>
<!-- Generator: Adobe Illustrator 22.0.1, SVG Export Plug-In . SVG Version: 6.00 Build 0)  -->
<svg version="1.1" id="Layer_1" xmlns="http://www.w3.org/2000/svg" xmlns:xlink="http://www.w3.org/1999/xlink" x="0px" y="0px"
	 viewBox="0 0 100 40" style="enable-background:new 0 0 100 40;" xml:space="preserve">
<style type="text/css">
	.st0{fill:#666666;}
</style>
<g>
	<path class="st0" d="M30.2,22c0.1,0,0.1,0,0.2,0.1l0.5,0.6c-0.4,0.5-0.9,0.8-1.5,1.1c-0.6,0.3-1.3,0.4-2.1,0.4
		c-0.7,0-1.4-0.1-2-0.4c-0.6-0.2-1.1-0.6-1.5-1s-0.7-1-1-1.6s-0.3-1.3-0.3-2.1c0-0.8,0.1-1.4,0.4-2.1c0.2-0.6,0.6-1.2,1-1.6
		s0.9-0.8,1.6-1.1c0.6-0.2,1.3-0.4,2-0.4s1.3,0.1,1.9,0.3c0.5,0.2,1,0.5,1.4,0.9l-0.4,0.6l-0.1,0.1c0,0-0.1,0-0.2,0
		c-0.1,0-0.2,0-0.3-0.1s-0.3-0.2-0.5-0.3c-0.2-0.1-0.4-0.2-0.7-0.3C28.3,15,27.9,15,27.5,15c-0.5,0-1,0.1-1.4,0.3s-0.8,0.4-1.1,0.8
		s-0.6,0.8-0.7,1.2c-0.2,0.5-0.3,1-0.3,1.7c0,0.6,0.1,1.2,0.3,1.7s0.4,0.9,0.7,1.2c0.3,0.3,0.7,0.6,1.1,0.8c0.4,0.2,0.9,0.3,1.4,0.3
		c0.3,0,0.6,0,0.8-0.1c0.2,0,0.5-0.1,0.7-0.2s0.4-0.2,0.6-0.3C29.8,22.3,29.9,22.1,30.2,22C30,22.1,30.1,22,30.2,22z"/>
	<path class="st0" d="M38.2,23v1.1h-5.7v-10h1.4V23H38.2z"/>
	<path class="st0" d="M41.1,18.5h0.5c0.2,0,0.3,0,0.4-0.1c0.1,0,0.2-0.1,0.3-0.2l3.3-3.8c0.1-0.1,0.2-0.2,0.3-0.3s0.2-0.1,0.4-0.1
		h1.1l-3.8,4.3c-0.1,0.1-0.2,0.2-0.3,0.3c-0.1,0.1-0.2,0.1-0.3,0.2c0.1,0,0.2,0.1,0.3,0.2s0.2,0.2,0.3,0.3l4,4.8h-1.2
		c-0.1,0-0.2,0-0.2,0c-0.1,0-0.1,0-0.2-0.1l-0.1-0.1l-0.1-0.1l-3.5-4c-0.1-0.1-0.2-0.2-0.3-0.2s-0.3-0.1-0.5-0.1h-0.6v4.6h-1.4v-10
		h1.4v4.4H41.1z"/>
	<path class="st0" d="M53.7,25.3v0.8h-5.5v-0.8H53.7z"/>
	<path class="st0" d="M64.1,19.1c0,0.8-0.1,1.4-0.4,2.1c-0.2,0.6-0.6,1.1-1,1.6c-0.4,0.4-1,0.8-1.6,1s-1.3,0.4-2,0.4h-3.7v-10h3.7
		c0.7,0,1.4,0.1,2,0.4c0.6,0.2,1.1,0.6,1.6,1c0.4,0.4,0.8,1,1,1.6S64.1,18.3,64.1,19.1z M62.7,19.1c0-0.6-0.1-1.2-0.3-1.7
		s-0.4-0.9-0.7-1.2s-0.7-0.6-1.1-0.8s-0.9-0.3-1.5-0.3h-2.4v7.8h2.4c0.5,0,1-0.1,1.5-0.3c0.4-0.2,0.8-0.4,1.1-0.8
		c0.3-0.3,0.5-0.7,0.7-1.2S62.7,19.7,62.7,19.1z"/>
	<path class="st0" d="M67.4,24.1H66v-10h1.4V24.1z"/>
	<path class="st0" d="M78.1,14.1l-4.1,10h-1.2l-4.1-10h1.1c0.1,0,0.2,0,0.3,0.1s0.1,0.1,0.2,0.2l2.8,7.1c0.1,0.2,0.1,0.3,0.2,0.5
		c0.1,0.2,0.1,0.4,0.2,0.6c0-0.2,0.1-0.4,0.1-0.6c0.1-0.2,0.1-0.4,0.2-0.5l2.8-7.1c0-0.1,0.1-0.2,0.2-0.2c0.1-0.1,0.2-0.1,0.3-0.1
		H78.1z"/>
</g>
<path class="st0" d="M100,40H0V0h100V40z M2,38h96V2H2V38z"/>
</svg>
