<?xml version="1.0" encoding="utf-8"?>
<!-- Generator: Adobe Illustrator 22.0.1, SVG Export Plug-In . SVG Version: 6.00 Build 0)  -->
<svg version="1.1" id="Layer_1" xmlns="http://www.w3.org/2000/svg" xmlns:xlink="http://www.w3.org/1999/xlink" x="0px" y="0px"
	 viewBox="0 0 120 82" style="enable-background:new 0 0 120 82;" xml:space="preserve">
<style type="text/css">
	.st0{fill:#676767;}
</style>
<path class="st0" d="M120,82H0V0h120V82z M2,80h116V2H2V80z"/>
<g>
	<path class="st0" d="M43.3,33.3c0.1,0,0.1,0,0.2,0.1L44,34c-0.4,0.5-0.9,0.8-1.5,1.1s-1.3,0.4-2.1,0.4c-0.7,0-1.4-0.1-2-0.4
		c-0.6-0.2-1.1-0.6-1.5-1c-0.4-0.5-0.7-1-1-1.6c-0.2-0.6-0.3-1.3-0.3-2.1c0-0.8,0.1-1.4,0.4-2.1c0.2-0.6,0.6-1.2,1-1.6
		s0.9-0.8,1.6-1.1c0.6-0.2,1.3-0.4,2-0.4s1.3,0.1,1.9,0.3c0.5,0.2,1,0.5,1.4,0.9L43.5,27l-0.1,0.1c0,0-0.1,0-0.2,0s-0.2,0-0.3-0.1
		c-0.1-0.1-0.3-0.2-0.5-0.3c-0.2-0.1-0.4-0.2-0.7-0.3c-0.3-0.1-0.7-0.1-1.1-0.1c-0.5,0-1,0.1-1.4,0.3c-0.4,0.2-0.8,0.4-1.1,0.8
		c-0.3,0.3-0.6,0.8-0.7,1.2c-0.2,0.5-0.3,1-0.3,1.7c0,0.6,0.1,1.2,0.3,1.7c0.2,0.5,0.4,0.9,0.7,1.2c0.3,0.3,0.7,0.6,1.1,0.8
		c0.4,0.2,0.9,0.3,1.4,0.3c0.3,0,0.6,0,0.8-0.1c0.2,0,0.5-0.1,0.7-0.2s0.4-0.2,0.6-0.3c0.2-0.1,0.3-0.3,0.5-0.4
		C43.1,33.4,43.2,33.3,43.3,33.3z"/>
	<path class="st0" d="M48.2,28.2c0.5,0,1,0.1,1.4,0.3c0.4,0.2,0.8,0.4,1.1,0.7s0.5,0.7,0.7,1.2s0.2,1,0.2,1.5c0,0.6-0.1,1.1-0.2,1.5
		c-0.2,0.4-0.4,0.8-0.7,1.1c-0.3,0.3-0.6,0.6-1.1,0.7c-0.4,0.2-0.9,0.3-1.4,0.3s-1-0.1-1.4-0.3c-0.4-0.2-0.8-0.4-1.1-0.7
		c-0.3-0.3-0.5-0.7-0.7-1.1s-0.2-1-0.2-1.5c0-0.6,0.1-1.1,0.2-1.5c0.2-0.5,0.4-0.8,0.7-1.2s0.6-0.6,1.1-0.7
		C47.2,28.3,47.6,28.2,48.2,28.2z M48.2,34.5c0.7,0,1.2-0.2,1.6-0.7c0.3-0.5,0.5-1.1,0.5-2c0-0.8-0.2-1.5-0.5-2s-0.9-0.7-1.6-0.7
		c-0.4,0-0.7,0.1-0.9,0.2c-0.3,0.1-0.5,0.3-0.7,0.5s-0.3,0.5-0.4,0.8s-0.1,0.7-0.1,1.1c0,0.8,0.2,1.5,0.5,2
		C46.9,34.3,47.5,34.5,48.2,34.5z"/>
	<path class="st0" d="M58.9,28.3v7.1h-0.7c-0.2,0-0.3-0.1-0.3-0.3l-0.1-0.8c-0.3,0.3-0.7,0.6-1,0.8c-0.4,0.2-0.8,0.3-1.3,0.3
		c-0.4,0-0.7-0.1-1-0.2s-0.5-0.3-0.7-0.5s-0.4-0.5-0.5-0.8s-0.2-0.7-0.2-1.1v-4.5h1.2v4.5c0,0.5,0.1,1,0.4,1.2
		c0.2,0.3,0.6,0.4,1.1,0.4c0.4,0,0.7-0.1,1-0.3c0.3-0.2,0.6-0.4,0.9-0.7v-5.2h1.2V28.3z"/>
	<path class="st0" d="M62.1,29.3c0.2-0.2,0.3-0.3,0.5-0.5c0.2-0.1,0.4-0.3,0.5-0.4c0.2-0.1,0.4-0.2,0.6-0.2c0.2-0.1,0.5-0.1,0.7-0.1
		c0.4,0,0.7,0.1,1,0.2s0.5,0.3,0.7,0.5s0.3,0.5,0.5,0.9c0.1,0.3,0.2,0.7,0.2,1.1v4.5h-1.3v-4.5c0-0.5-0.1-1-0.4-1.2
		s-0.6-0.4-1.1-0.4c-0.4,0-0.7,0.1-1,0.3s-0.6,0.4-0.9,0.7v5.2h-1.3v-7.1h0.7c0.2,0,0.3,0.1,0.3,0.3L62.1,29.3z"/>
	<path class="st0" d="M70.8,35.5c-0.6,0-1-0.2-1.3-0.5S69,34.2,69,33.6v-4.2h-0.9c-0.1,0-0.1,0-0.2-0.1c-0.1,0-0.1-0.1-0.1-0.2v-0.5
		l1.2-0.1l0.3-2.2c0-0.1,0-0.1,0.1-0.2c0,0,0.1-0.1,0.2-0.1h0.6v2.4h2.1v0.9h-2.1v4.3c0,0.3,0.1,0.5,0.2,0.7
		c0.1,0.1,0.3,0.2,0.6,0.2c0.1,0,0.2,0,0.3-0.1c0.1,0,0.2-0.1,0.2-0.1c0.1,0,0.1-0.1,0.2-0.1l0.1-0.1c0.1,0,0.1,0,0.2,0.1l0.4,0.6
		c-0.2,0.2-0.5,0.4-0.8,0.5S71.1,35.5,70.8,35.5z"/>
	<path class="st0" d="M79.4,34.4c-0.2,0.2-0.3,0.3-0.6,0.5s-0.4,0.3-0.7,0.3s-0.5,0.2-0.8,0.2s-0.5,0.1-0.8,0.1
		c-0.5,0-0.9-0.1-1.4-0.2s-0.8-0.4-1.1-0.7c-0.3-0.3-0.5-0.7-0.7-1.2s-0.3-1-0.3-1.6c0-0.5,0.1-1,0.2-1.4c0.2-0.4,0.4-0.8,0.7-1.1
		s0.6-0.6,1-0.7s0.9-0.3,1.4-0.3c0.4,0,0.8,0.1,1.2,0.2s0.7,0.3,0.9,0.6c0.3,0.3,0.5,0.6,0.6,1s0.2,0.8,0.2,1.3c0,0.2,0,0.3-0.1,0.4
		c0,0.1-0.1,0.1-0.2,0.1h-4.7c0,0.4,0.1,0.8,0.2,1.2c0.1,0.3,0.3,0.6,0.5,0.8s0.4,0.4,0.7,0.5s0.6,0.2,0.9,0.2c0.3,0,0.6,0,0.8-0.1
		s0.4-0.2,0.6-0.2s0.3-0.2,0.4-0.2c0.1-0.1,0.2-0.1,0.3-0.1s0.2,0,0.2,0.1L79.4,34.4z M78.4,31.1c0-0.3,0-0.6-0.1-0.8
		c-0.1-0.2-0.2-0.4-0.4-0.6s-0.3-0.3-0.6-0.4s-0.5-0.1-0.8-0.1c-0.6,0-1.1,0.2-1.4,0.5s-0.6,0.8-0.6,1.4H78.4z"/>
	<path class="st0" d="M82.2,29.7c0.2-0.5,0.5-0.9,0.8-1.1s0.7-0.4,1.2-0.4c0.1,0,0.3,0,0.4,0s0.3,0.1,0.4,0.2l-0.1,0.9
		c0,0.1-0.1,0.2-0.2,0.2c-0.1,0-0.2,0-0.3,0s-0.3,0-0.4,0c-0.2,0-0.4,0-0.6,0.1c-0.2,0.1-0.3,0.2-0.5,0.3c-0.1,0.1-0.3,0.3-0.4,0.5
		c-0.1,0.2-0.2,0.4-0.3,0.6v4.5H81v-7.1h0.7c0.1,0,0.2,0,0.3,0.1s0.1,0.1,0.1,0.3L82.2,29.7z"/>
	<path class="st0" d="M39.1,47.8c0,1,0.1,2,0.4,2.9s0.6,1.8,1.1,2.7c0.1,0.1,0.1,0.3,0.1,0.3c0,0.1-0.1,0.1-0.2,0.2l-0.6,0.3
		c-0.4-0.5-0.6-1.1-0.9-1.6s-0.4-1.1-0.6-1.6s-0.3-1.1-0.3-1.6C38,48.9,38,48.3,38,47.7s0-1.1,0.1-1.7c0.1-0.5,0.2-1.1,0.3-1.6
		c0.2-0.5,0.4-1.1,0.6-1.6s0.5-1.1,0.9-1.6l0.6,0.3c0.1,0,0.1,0.1,0.2,0.2c0,0.1,0,0.2-0.1,0.3c-0.5,0.8-0.9,1.7-1.1,2.7
		C39.2,45.8,39.1,46.8,39.1,47.8z"/>
	<path class="st0" d="M48.2,51.2v1h-5.4v-1h2.1v-6.8c0-0.2,0-0.4,0-0.6l-1.8,1.5c-0.1,0.1-0.1,0.1-0.2,0.1s-0.1,0-0.2,0
		s-0.1,0-0.1-0.1l-0.1-0.1l-0.4-0.5l3-2.6h1v9.1H48.2z"/>
	<path class="st0" d="M52.5,45.9c-0.1,0.1-0.2,0.2-0.3,0.3S52,46.4,52,46.5c0.2-0.2,0.5-0.3,0.8-0.4s0.6-0.1,0.9-0.1
		c0.4,0,0.8,0.1,1.1,0.2c0.4,0.1,0.7,0.3,0.9,0.6c0.3,0.3,0.5,0.6,0.6,0.9c0.2,0.4,0.2,0.8,0.2,1.3s-0.1,0.9-0.3,1.3
		c-0.2,0.4-0.4,0.7-0.7,1c-0.3,0.3-0.7,0.5-1.1,0.7s-0.9,0.3-1.4,0.3s-1-0.1-1.4-0.2s-0.8-0.4-1-0.7c-0.3-0.3-0.5-0.7-0.7-1.1
		s-0.2-0.9-0.2-1.4c0-0.4,0.1-0.9,0.3-1.4c0.2-0.5,0.5-1,0.9-1.6l2.5-3.4c0.1-0.1,0.2-0.2,0.3-0.2c0.1-0.1,0.2-0.1,0.4-0.1h1.1
		L52.5,45.9z M53.2,51.3c0.3,0,0.6-0.1,0.9-0.2s0.5-0.3,0.7-0.4c0.2-0.2,0.3-0.4,0.4-0.7s0.2-0.5,0.2-0.9c0-0.3-0.1-0.6-0.2-0.9
		s-0.2-0.5-0.4-0.7c-0.2-0.2-0.4-0.3-0.7-0.4C53.8,47,53.6,47,53.2,47c-0.3,0-0.6,0.1-0.9,0.2s-0.5,0.3-0.7,0.5s-0.3,0.4-0.4,0.7
		c-0.1,0.3-0.2,0.5-0.2,0.8s0,0.6,0.1,0.9s0.2,0.5,0.4,0.7s0.4,0.3,0.7,0.4C52.6,51.2,52.9,51.3,53.2,51.3z"/>
	<path class="st0" d="M58.2,47.5h3.5v1.1h-3.5V47.5z"/>
	<path class="st0" d="M64.8,46.1c0.3-0.3,0.6-0.6,1-0.8c0.4-0.2,0.8-0.3,1.3-0.3c0.4,0,0.8,0.1,1.1,0.2c0.3,0.2,0.6,0.4,0.9,0.7
		c0.2,0.3,0.4,0.7,0.5,1.1s0.2,0.9,0.2,1.4c0,0.6-0.1,1.1-0.2,1.6c-0.1,0.5-0.3,0.9-0.6,1.2c-0.3,0.3-0.6,0.6-1,0.8
		c-0.4,0.2-0.8,0.3-1.3,0.3s-0.9-0.1-1.2-0.3c-0.3-0.2-0.6-0.4-0.8-0.7l-0.1,0.6c0,0.2-0.1,0.3-0.3,0.3h-0.8V41.9h1.3L64.8,46.1
		L64.8,46.1z M64.8,50.5c0.2,0.3,0.5,0.5,0.8,0.7s0.6,0.2,0.9,0.2c0.7,0,1.2-0.2,1.5-0.7c0.4-0.5,0.5-1.2,0.5-2.1s-0.2-1.5-0.5-1.9
		s-0.8-0.6-1.3-0.6c-0.4,0-0.8,0.1-1.1,0.3c-0.3,0.2-0.6,0.5-0.8,0.8L64.8,50.5L64.8,50.5z"/>
	<path class="st0" d="M72.9,42.9c0,0.1,0,0.2-0.1,0.3c0,0.1-0.1,0.2-0.2,0.3c-0.1,0.1-0.2,0.1-0.3,0.2c-0.1,0-0.2,0.1-0.3,0.1
		s-0.2,0-0.3-0.1c-0.1,0-0.2-0.1-0.3-0.2s-0.1-0.2-0.2-0.3c0-0.1-0.1-0.2-0.1-0.3c0-0.1,0-0.2,0.1-0.3c0-0.1,0.1-0.2,0.2-0.3
		c0.1-0.1,0.2-0.1,0.3-0.2c0.1,0,0.2-0.1,0.3-0.1s0.2,0,0.3,0.1c0.1,0,0.2,0.1,0.3,0.2s0.1,0.2,0.2,0.3
		C72.9,42.6,72.9,42.8,72.9,42.9z M72.7,45.1v7.1h-1.2v-7.1H72.7z"/>
	<path class="st0" d="M76.9,52.3c-0.6,0-1-0.2-1.3-0.5s-0.5-0.8-0.5-1.4v-4.3h-0.9c-0.1,0-0.1,0-0.2-0.1c-0.1,0-0.1-0.1-0.1-0.2
		v-0.4l1.2-0.1l0.3-2.2c0-0.1,0-0.1,0.1-0.2c0,0,0.1-0.1,0.2-0.1h0.6v2.4h2.1v0.9h-2.1v4.3c0,0.3,0.1,0.5,0.2,0.7
		c0.1,0.1,0.3,0.2,0.6,0.2c0.1,0,0.2,0,0.3-0.1c0.1,0,0.2-0.1,0.2-0.1c0.1,0,0.1-0.1,0.2-0.1l0.1-0.1c0.1,0,0.1,0,0.2,0.1l0.4,0.6
		c-0.2,0.2-0.5,0.4-0.8,0.5S77.2,52.3,76.9,52.3z"/>
	<path class="st0" d="M80.8,47.8c0-1-0.1-2-0.4-2.9s-0.6-1.8-1.1-2.7c0-0.1-0.1-0.1-0.1-0.2s0-0.1,0-0.1s0-0.1,0.1-0.1
		s0.1-0.1,0.1-0.1l0.6-0.3c0.4,0.5,0.6,1.1,0.9,1.6c0.2,0.5,0.4,1.1,0.6,1.6s0.3,1.1,0.3,1.6c0.1,0.5,0.1,1.1,0.1,1.7s0,1.1-0.1,1.7
		c-0.1,0.5-0.2,1.1-0.3,1.6c-0.2,0.5-0.4,1.1-0.6,1.6c-0.2,0.5-0.5,1.1-0.9,1.6l-0.6-0.3c0,0-0.1,0-0.1-0.1l-0.1-0.1v-0.1
		c0-0.1,0-0.1,0.1-0.2c0.5-0.8,0.9-1.7,1.1-2.7C80.6,49.8,80.8,48.8,80.8,47.8z"/>
</g>
</svg>
