<?xml version="1.0" encoding="utf-8"?>
<!-- Generator: Adobe Illustrator 22.0.1, SVG Export Plug-In . SVG Version: 6.00 Build 0)  -->
<svg version="1.1" id="Layer_1" xmlns="http://www.w3.org/2000/svg" xmlns:xlink="http://www.w3.org/1999/xlink" x="0px" y="0px"
	 viewBox="0 0 120 82" style="enable-background:new 0 0 120 82;" xml:space="preserve">
<style type="text/css">
	.st0{fill:#666666;}
</style>
<path class="st0" d="M120,82H0V0h120V82z M2,80h116V2H2V80z"/>
<g>
	<path class="st0" d="M16.5,29.4h-1.4v-10h1.4V29.4z"/>
	<path class="st0" d="M27.2,19.4v10h-0.7c-0.1,0-0.2,0-0.3-0.1c-0.1,0-0.1-0.1-0.2-0.2l-5.8-7.6c0,0.1,0,0.2,0,0.3
		c0,0.1,0,0.2,0,0.3v7.1H19v-10h0.7c0.1,0,0.1,0,0.2,0s0.1,0,0.1,0s0.1,0,0.1,0.1l0.1,0.1L26,27c0-0.1,0-0.2,0-0.4s0-0.2,0-0.3v-6.9
		H27.2z"/>
	<path class="st0" d="M36.6,20.5h-3.2v8.9H32v-8.9h-3.3v-1.1h7.9V20.5z"/>
	<path class="st0" d="M46.9,22.6v0.5c0,0.2-0.1,0.3-0.3,0.3l-0.8,0.1c0.2,0.3,0.2,0.6,0.2,1c0,0.3-0.1,0.7-0.2,0.9
		c-0.1,0.3-0.3,0.5-0.5,0.7s-0.5,0.4-0.8,0.5s-0.7,0.2-1.1,0.2c-0.3,0-0.6,0-0.9-0.1c-0.1,0.1-0.3,0.2-0.3,0.3
		c-0.1,0.1-0.1,0.2-0.1,0.3c0,0.2,0.1,0.3,0.2,0.4s0.3,0.1,0.5,0.2c0.2,0,0.5,0.1,0.8,0.1s0.6,0,0.9,0s0.6,0.1,0.9,0.1
		c0.3,0.1,0.5,0.1,0.8,0.3c0.2,0.1,0.4,0.3,0.5,0.5s0.2,0.5,0.2,0.8s-0.1,0.6-0.2,0.9c-0.2,0.3-0.4,0.5-0.7,0.8
		c-0.3,0.2-0.6,0.4-1,0.5s-0.9,0.2-1.4,0.2s-1-0.1-1.4-0.2s-0.7-0.2-1-0.4c-0.3-0.2-0.4-0.4-0.6-0.6c-0.1-0.2-0.2-0.5-0.2-0.7
		c0-0.3,0.1-0.6,0.3-0.9c0.2-0.2,0.5-0.4,0.9-0.6c-0.2-0.1-0.4-0.2-0.5-0.4s-0.2-0.4-0.2-0.6c0-0.1,0-0.2,0.1-0.3
		c0-0.1,0.1-0.2,0.2-0.3c0.1-0.1,0.2-0.2,0.3-0.3c0.1-0.1,0.2-0.2,0.4-0.3c-0.3-0.2-0.6-0.5-0.8-0.8s-0.3-0.7-0.3-1.1
		c0-0.3,0.1-0.7,0.2-0.9c0.1-0.3,0.3-0.5,0.6-0.7c0.2-0.2,0.5-0.4,0.9-0.5s0.7-0.2,1.1-0.2c0.3,0,0.6,0,0.9,0.1s0.5,0.2,0.7,0.3
		L46.9,22.6L46.9,22.6z M45.6,29.8c0-0.2,0-0.3-0.1-0.4s-0.2-0.2-0.4-0.3C44.9,29,44.7,29,44.5,29s-0.5,0-0.7-0.1
		c-0.2,0-0.5,0-0.7,0c-0.3,0-0.5,0-0.7-0.1c-0.3,0.1-0.5,0.3-0.6,0.5s-0.2,0.4-0.2,0.6s0,0.3,0.1,0.4s0.2,0.3,0.4,0.4
		s0.4,0.2,0.6,0.2C43,31,43.3,31,43.6,31s0.6,0,0.9-0.1s0.5-0.1,0.7-0.3c0.2-0.1,0.3-0.2,0.4-0.4C45.6,30.1,45.6,30,45.6,29.8z
		 M43.4,25.9c0.3,0,0.5,0,0.7-0.1s0.4-0.2,0.5-0.3s0.2-0.3,0.3-0.5c0.1-0.2,0.1-0.4,0.1-0.6c0-0.4-0.1-0.8-0.4-1
		C44.3,23.1,44,23,43.5,23s-0.9,0.1-1.2,0.4c-0.3,0.3-0.4,0.6-0.4,1c0,0.2,0,0.4,0.1,0.6s0.2,0.3,0.3,0.5c0.1,0.1,0.3,0.2,0.5,0.3
		S43.1,25.9,43.4,25.9z"/>
	<path class="st0" d="M53.8,28.4c-0.2,0.2-0.3,0.3-0.6,0.5s-0.4,0.3-0.7,0.3s-0.5,0.2-0.8,0.2s-0.5,0.1-0.8,0.1
		c-0.5,0-0.9-0.1-1.4-0.2c-0.4-0.2-0.8-0.4-1.1-0.7c-0.3-0.3-0.5-0.7-0.7-1.2s-0.3-1-0.3-1.6c0-0.5,0.1-1,0.2-1.4
		c0.2-0.4,0.4-0.8,0.7-1.1c0.3-0.3,0.6-0.6,1-0.7s0.9-0.3,1.4-0.3c0.4,0,0.8,0.1,1.2,0.2c0.4,0.1,0.7,0.3,0.9,0.6
		c0.3,0.3,0.5,0.6,0.6,1s0.2,0.8,0.2,1.3c0,0.2,0,0.3-0.1,0.4c0,0.1-0.1,0.1-0.2,0.1h-4.7c0,0.4,0.1,0.8,0.2,1.2
		c0.1,0.3,0.3,0.6,0.5,0.8s0.4,0.4,0.7,0.5c0.3,0.1,0.6,0.2,0.9,0.2s0.6,0,0.8-0.1c0.2-0.1,0.4-0.2,0.6-0.2s0.3-0.2,0.4-0.2
		C52.8,28,52.9,28,53,28c0.1,0,0.2,0,0.2,0.1L53.8,28.4z M52.8,25.1c0-0.3,0-0.6-0.1-0.8c-0.1-0.2-0.2-0.4-0.4-0.6
		c-0.2-0.2-0.3-0.3-0.6-0.4s-0.5-0.1-0.8-0.1c-0.6,0-1.1,0.2-1.4,0.5s-0.6,0.8-0.6,1.4H52.8z"/>
	<path class="st0" d="M56.7,23.3c0.2-0.2,0.3-0.3,0.5-0.5c0.2-0.1,0.4-0.3,0.5-0.4c0.2-0.1,0.4-0.2,0.6-0.2c0.2-0.1,0.5-0.1,0.7-0.1
		c0.4,0,0.7,0.1,1,0.2s0.5,0.3,0.7,0.5s0.3,0.5,0.5,0.9c0.1,0.3,0.2,0.7,0.2,1.1v4.5h-1.3v-4.5c0-0.5-0.1-1-0.4-1.2
		c-0.2-0.3-0.6-0.4-1.1-0.4c-0.4,0-0.7,0.1-1,0.3c-0.3,0.2-0.6,0.4-0.9,0.7v5.2h-1.3v-7.1h0.7c0.2,0,0.3,0.1,0.3,0.3L56.7,23.3z"/>
	<path class="st0" d="M69,28.4c-0.2,0.2-0.3,0.3-0.6,0.5s-0.4,0.3-0.7,0.3s-0.5,0.2-0.8,0.2s-0.5,0.1-0.8,0.1
		c-0.5,0-0.9-0.1-1.4-0.2c-0.4-0.2-0.8-0.4-1.1-0.7c-0.3-0.3-0.5-0.7-0.7-1.2s-0.3-1-0.3-1.6c0-0.5,0.1-1,0.2-1.4
		c0.2-0.4,0.4-0.8,0.7-1.1c0.3-0.3,0.6-0.6,1-0.7s0.9-0.3,1.4-0.3c0.4,0,0.8,0.1,1.2,0.2s0.7,0.3,0.9,0.6c0.3,0.3,0.5,0.6,0.6,1
		s0.2,0.8,0.2,1.3c0,0.2,0,0.3-0.1,0.4c0,0.1-0.1,0.1-0.2,0.1h-4.7c0,0.4,0.1,0.8,0.2,1.2c0.1,0.3,0.3,0.6,0.5,0.8s0.4,0.4,0.7,0.5
		s0.6,0.2,0.9,0.2c0.3,0,0.6,0,0.8-0.1s0.4-0.2,0.6-0.2s0.3-0.2,0.4-0.2C68,28,68.1,28,68.2,28s0.2,0,0.2,0.1L69,28.4z M68,25.1
		c0-0.3,0-0.6-0.1-0.8c-0.1-0.2-0.2-0.4-0.4-0.6s-0.3-0.3-0.6-0.4s-0.5-0.1-0.8-0.1c-0.6,0-1.1,0.2-1.4,0.5s-0.6,0.8-0.6,1.4H68z"/>
	<path class="st0" d="M71.9,23.7c0.2-0.5,0.5-0.9,0.8-1.1c0.3-0.3,0.7-0.4,1.2-0.4c0.1,0,0.3,0,0.4,0c0.1,0,0.3,0.1,0.4,0.2
		l-0.1,0.9c0,0.1-0.1,0.2-0.2,0.2c-0.1,0-0.2,0-0.3,0s-0.3,0-0.4,0c-0.2,0-0.4,0-0.6,0.1c-0.2,0.1-0.3,0.2-0.5,0.3
		c-0.1,0.1-0.3,0.3-0.4,0.5c-0.1,0.2-0.2,0.4-0.3,0.6v4.5h-1.3v-7.1h0.7c0.1,0,0.2,0,0.3,0.1s0.1,0.1,0.1,0.3L71.9,23.7z"/>
	<path class="st0" d="M75.5,23.3c0.4-0.4,0.8-0.7,1.3-0.8s1-0.3,1.5-0.3c0.4,0,0.7,0.1,1.1,0.2c0.3,0.1,0.6,0.3,0.8,0.5
		s0.4,0.5,0.5,0.8s0.2,0.7,0.2,1.1v4.5h-0.6c-0.1,0-0.2,0-0.3-0.1c-0.1,0-0.1-0.1-0.2-0.2l-0.1-0.7c-0.2,0.2-0.4,0.3-0.5,0.5
		s-0.4,0.2-0.6,0.3c-0.2,0.1-0.4,0.2-0.6,0.2s-0.5,0.1-0.7,0.1c-0.3,0-0.5,0-0.8-0.1S76,29.1,75.9,29c-0.2-0.2-0.3-0.3-0.4-0.6
		s-0.2-0.5-0.2-0.8s0.1-0.5,0.2-0.8c0.2-0.3,0.4-0.5,0.7-0.7s0.8-0.4,1.4-0.5c0.6-0.1,1.2-0.2,2-0.2v-0.6c0-0.6-0.1-1-0.4-1.3
		c-0.2-0.3-0.6-0.4-1-0.4c-0.3,0-0.6,0-0.8,0.1s-0.4,0.2-0.5,0.3c-0.2,0.1-0.3,0.2-0.4,0.3c-0.1,0.1-0.2,0.1-0.3,0.1s-0.2,0-0.2-0.1
		c-0.1,0-0.1-0.1-0.2-0.2L75.5,23.3z M79.5,26.2c-0.6,0-1.1,0.1-1.5,0.1c-0.4,0.1-0.7,0.2-1,0.3c-0.3,0.1-0.4,0.3-0.6,0.4
		c-0.1,0.2-0.2,0.3-0.2,0.5s0,0.3,0.1,0.5c0.1,0.1,0.1,0.2,0.2,0.3s0.2,0.1,0.4,0.2c0.1,0,0.3,0.1,0.5,0.1s0.4,0,0.6-0.1
		c0.2,0,0.4-0.1,0.5-0.2s0.3-0.2,0.5-0.3c0.1-0.1,0.3-0.3,0.4-0.4L79.5,26.2L79.5,26.2z"/>
	<path class="st0" d="M89.1,29.4h-1.2v-6h-3.7v4.3c0,0.3,0.1,0.5,0.2,0.7c0.1,0.1,0.3,0.2,0.6,0.2c0.1,0,0.2,0,0.3-0.1
		c0.1,0,0.2-0.1,0.2-0.1c0.1,0,0.1-0.1,0.2-0.1l0.1-0.1c0.1,0,0.1,0,0.2,0.1l0.4,0.6c-0.2,0.2-0.5,0.4-0.8,0.5s-0.6,0.2-0.9,0.2
		c-0.6,0-1-0.2-1.3-0.5s-0.5-0.8-0.5-1.4v-4.3H82c-0.1,0-0.1,0-0.2-0.1c-0.1,0-0.1-0.1-0.1-0.2v-0.5l1.2-0.2l0.3-2.2
		c0-0.1,0-0.1,0.1-0.2c0,0,0.1-0.1,0.2-0.1h0.6v2.4H89v7.1H89.1z M89.4,20c0,0.1,0,0.2-0.1,0.3c0,0.1-0.1,0.2-0.2,0.3
		s-0.2,0.1-0.3,0.2c-0.1,0-0.2,0.1-0.3,0.1s-0.2,0-0.3-0.1c-0.1,0-0.2-0.1-0.3-0.2s-0.1-0.2-0.2-0.3c0-0.1-0.1-0.2-0.1-0.3
		s0-0.2,0.1-0.3c0-0.1,0.1-0.2,0.2-0.3c0.1-0.1,0.2-0.1,0.3-0.2s0.2-0.1,0.3-0.1s0.2,0,0.3,0.1s0.2,0.1,0.3,0.2s0.1,0.2,0.2,0.3
		C89.4,19.8,89.4,19.9,89.4,20z"/>
	<path class="st0" d="M94.1,22.2c0.5,0,1,0.1,1.4,0.3s0.8,0.4,1.1,0.7s0.5,0.7,0.7,1.2s0.2,1,0.2,1.5c0,0.6-0.1,1.1-0.2,1.5
		c-0.2,0.4-0.4,0.8-0.7,1.1c-0.3,0.3-0.6,0.6-1.1,0.7c-0.4,0.2-0.9,0.3-1.4,0.3s-1-0.1-1.4-0.3c-0.4-0.2-0.8-0.4-1.1-0.7
		c-0.3-0.3-0.5-0.7-0.7-1.1s-0.2-1-0.2-1.5c0-0.6,0.1-1.1,0.2-1.5c0.2-0.5,0.4-0.8,0.7-1.2s0.6-0.6,1.1-0.7S93.6,22.2,94.1,22.2z
		 M94.1,28.5c0.7,0,1.2-0.2,1.6-0.7c0.3-0.5,0.5-1.1,0.5-2c0-0.8-0.2-1.5-0.5-2s-0.9-0.7-1.6-0.7c-0.4,0-0.7,0.1-0.9,0.2
		s-0.5,0.3-0.7,0.5s-0.3,0.5-0.4,0.8C92,24.9,92,25.3,92,25.7c0,0.8,0.2,1.5,0.5,2C92.9,28.3,93.4,28.5,94.1,28.5z"/>
	<path class="st0" d="M100.3,23.3c0.2-0.2,0.3-0.3,0.5-0.5c0.2-0.1,0.4-0.3,0.5-0.4c0.2-0.1,0.4-0.2,0.6-0.2
		c0.2-0.1,0.5-0.1,0.7-0.1c0.4,0,0.7,0.1,1,0.2s0.5,0.3,0.7,0.5s0.3,0.5,0.5,0.9c0.1,0.3,0.2,0.7,0.2,1.1v4.5h-1.3v-4.5
		c0-0.5-0.1-1-0.4-1.2c-0.2-0.3-0.6-0.4-1.1-0.4c-0.4,0-0.7,0.1-1,0.3c-0.3,0.2-0.6,0.4-0.9,0.7v5.2H99v-7.1h0.7
		c0.2,0,0.3,0.1,0.3,0.3L100.3,23.3z"/>
	<path class="st0" d="M28.4,36.9c0,0.1,0,0.2-0.1,0.3c0,0.1-0.1,0.2-0.2,0.3c-0.1,0.1-0.2,0.1-0.3,0.2c-0.1,0-0.2,0.1-0.3,0.1
		c-0.1,0-0.2,0-0.3-0.1c-0.1,0-0.2-0.1-0.3-0.2c-0.1-0.1-0.1-0.2-0.2-0.3c0-0.1-0.1-0.2-0.1-0.3s0-0.2,0.1-0.3
		c0-0.1,0.1-0.2,0.2-0.3c0.1-0.1,0.2-0.1,0.3-0.2c0.1,0,0.2-0.1,0.3-0.1c0.1,0,0.2,0,0.3,0.1c0.1,0,0.2,0.1,0.3,0.2
		c0.1,0.1,0.1,0.2,0.2,0.3C28.3,36.6,28.4,36.8,28.4,36.9z M28.1,39.1v7.1h-1.2v-7.1H28.1z"/>
	<path class="st0" d="M31.3,40.1c0.2-0.2,0.3-0.3,0.5-0.5c0.2-0.1,0.4-0.3,0.5-0.4c0.2-0.1,0.4-0.2,0.6-0.2c0.2-0.1,0.5-0.1,0.7-0.1
		c0.4,0,0.7,0.1,1,0.2s0.5,0.3,0.7,0.5s0.3,0.5,0.5,0.9c0.1,0.3,0.2,0.7,0.2,1.1v4.5h-1.3v-4.5c0-0.5-0.1-1-0.4-1.2
		c-0.2-0.3-0.6-0.4-1.1-0.4c-0.4,0-0.7,0.1-1,0.3c-0.3,0.2-0.6,0.4-0.9,0.7v5.2H30v-7.1h0.7c0.2,0,0.3,0.1,0.3,0.3L31.3,40.1z"/>
	<path class="st0" d="M47.5,45.1v1.1h-5.7v-10h1.4v8.9H47.5z"/>
	<path class="st0" d="M52,36.2c0.6,0,1.2,0.1,1.7,0.2s0.9,0.4,1.2,0.6c0.3,0.3,0.5,0.6,0.7,1s0.2,0.8,0.2,1.3s-0.1,0.9-0.2,1.3
		c-0.2,0.4-0.4,0.7-0.7,1c-0.3,0.3-0.7,0.5-1.2,0.7s-1,0.2-1.6,0.2h-1.6v3.8H49v-10h3V36.2z M52,41.4c0.4,0,0.7-0.1,1-0.2
		s0.5-0.2,0.7-0.4c0.2-0.2,0.4-0.4,0.5-0.7c0.1-0.3,0.2-0.5,0.2-0.8c0-0.6-0.2-1.1-0.6-1.5s-1-0.5-1.8-0.5h-1.6v4.1H52z"/>
	<path class="st0" d="M60.3,46.2v-7.1H61c0.2,0,0.3,0.1,0.3,0.3l0.1,0.7c0.3-0.3,0.6-0.6,0.9-0.8c0.3-0.2,0.7-0.3,1.1-0.3
		c0.5,0,0.9,0.1,1.2,0.4s0.5,0.6,0.6,1.1c0.1-0.3,0.2-0.5,0.4-0.7s0.3-0.3,0.5-0.5c0.2-0.1,0.4-0.2,0.6-0.3c0.2-0.1,0.5-0.1,0.7-0.1
		c0.4,0,0.7,0.1,1,0.2s0.5,0.3,0.7,0.5s0.4,0.5,0.5,0.8s0.2,0.7,0.2,1.1V46h-1.3v-4.5c0-0.6-0.1-1-0.4-1.3c-0.2-0.3-0.6-0.4-1-0.4
		c-0.2,0-0.4,0-0.6,0.1c-0.2,0.1-0.3,0.2-0.5,0.3c-0.1,0.1-0.3,0.3-0.3,0.5c-0.1,0.2-0.1,0.5-0.1,0.7v4.5h-1.3v-4.5
		c0-0.6-0.1-1-0.3-1.3s-0.6-0.4-1-0.4c-0.3,0-0.6,0.1-0.9,0.2c-0.3,0.2-0.5,0.4-0.7,0.7v5.3h-1.1V46.2z"/>
	<path class="st0" d="M74.8,39c0.5,0,1,0.1,1.4,0.3s0.8,0.4,1.1,0.7s0.5,0.7,0.7,1.2s0.2,1,0.2,1.5c0,0.6-0.1,1.1-0.2,1.5
		c-0.2,0.4-0.4,0.8-0.7,1.1c-0.3,0.3-0.6,0.6-1.1,0.7c-0.4,0.2-0.9,0.3-1.4,0.3s-1-0.1-1.4-0.3c-0.4-0.2-0.8-0.4-1.1-0.7
		c-0.3-0.3-0.5-0.7-0.7-1.1s-0.2-1-0.2-1.5c0-0.6,0.1-1.1,0.2-1.5c0.2-0.5,0.4-0.8,0.7-1.2s0.6-0.6,1.1-0.7S74.3,39,74.8,39z
		 M74.8,45.3c0.7,0,1.2-0.2,1.6-0.7c0.3-0.5,0.5-1.1,0.5-2c0-0.8-0.2-1.5-0.5-2s-0.9-0.7-1.6-0.7c-0.4,0-0.7,0.1-0.9,0.2
		s-0.5,0.3-0.7,0.5s-0.3,0.5-0.4,0.8c-0.1,0.3-0.1,0.7-0.1,1.1c0,0.8,0.2,1.5,0.5,2C73.6,45.1,74.1,45.3,74.8,45.3z"/>
	<path class="st0" d="M85.6,35.9v10.3h-0.7c-0.2,0-0.3-0.1-0.3-0.3L84.5,45c-0.3,0.4-0.6,0.7-1,0.9s-0.8,0.3-1.3,0.3
		c-0.4,0-0.8-0.1-1.1-0.2c-0.3-0.2-0.6-0.4-0.8-0.7s-0.4-0.7-0.5-1.1c-0.1-0.5-0.2-1-0.2-1.6c0-0.5,0.1-1,0.2-1.5s0.3-0.8,0.6-1.2
		s0.6-0.6,1-0.8c0.4-0.2,0.8-0.3,1.3-0.3c0.4,0,0.8,0.1,1.1,0.2s0.6,0.4,0.8,0.6v-3.9h1V35.9z M84.4,40.8c-0.2-0.3-0.5-0.5-0.8-0.7
		c-0.3-0.1-0.6-0.2-0.9-0.2c-0.7,0-1.2,0.2-1.5,0.7s-0.5,1.1-0.5,2c0,0.5,0,0.9,0.1,1.2c0.1,0.3,0.2,0.6,0.4,0.8
		c0.2,0.2,0.3,0.4,0.6,0.5c0.2,0.1,0.5,0.1,0.8,0.1c0.4,0,0.8-0.1,1.1-0.3s0.6-0.5,0.8-0.8L84.4,40.8L84.4,40.8z"/>
	<path class="st0" d="M93.4,45.2c-0.2,0.2-0.3,0.3-0.6,0.5S92.4,46,92.1,46s-0.5,0.2-0.8,0.2s-0.5,0.1-0.8,0.1
		c-0.5,0-0.9-0.1-1.4-0.2c-0.4-0.2-0.8-0.4-1.1-0.7c-0.3-0.3-0.5-0.7-0.7-1.2s-0.3-1-0.3-1.6c0-0.5,0.1-1,0.2-1.4
		c0.2-0.4,0.4-0.8,0.7-1.1c0.3-0.3,0.6-0.6,1-0.7s0.9-0.3,1.4-0.3c0.4,0,0.8,0.1,1.2,0.2s0.7,0.3,0.9,0.6c0.3,0.3,0.5,0.6,0.6,1
		s0.2,0.8,0.2,1.3c0,0.2,0,0.3-0.1,0.4c0,0.1-0.1,0.1-0.2,0.1h-4.7c0,0.4,0.1,0.8,0.2,1.2c0.1,0.3,0.3,0.6,0.5,0.8s0.4,0.4,0.7,0.5
		s0.6,0.2,0.9,0.2c0.3,0,0.6,0,0.8-0.1s0.4-0.2,0.6-0.2s0.3-0.2,0.4-0.2c0.1-0.1,0.2-0.1,0.3-0.1s0.2,0,0.2,0.1L93.4,45.2z
		 M92.4,41.9c0-0.3,0-0.6-0.1-0.8c-0.1-0.2-0.2-0.4-0.4-0.6s-0.3-0.3-0.6-0.4S90.8,40,90.5,40c-0.6,0-1.1,0.2-1.4,0.5
		s-0.6,0.8-0.6,1.4H92.4z"/>
	<path class="st0" d="M21.1,58.6c0,1,0.1,2,0.4,2.9s0.6,1.8,1.1,2.7c0.1,0.1,0.1,0.3,0.1,0.3c0,0.1-0.1,0.1-0.2,0.2L21.9,65
		c-0.4-0.5-0.6-1.1-0.9-1.6s-0.4-1.1-0.6-1.6s-0.3-1.1-0.3-1.6C20,59.7,20,59.1,20,58.5s0-1.1,0.1-1.7c0.1-0.5,0.2-1.1,0.3-1.6
		c0.2-0.5,0.4-1.1,0.6-1.6s0.5-1.1,0.9-1.6l0.6,0.3c0.1,0,0.1,0.1,0.2,0.2c0,0.1,0,0.2-0.1,0.3c-0.5,0.8-0.9,1.7-1.1,2.7
		C21.2,56.6,21.1,57.6,21.1,58.6z"/>
	<path class="st0" d="M25.7,53.7c0,0.1,0,0.2-0.1,0.3c0,0.1-0.1,0.2-0.2,0.3s-0.2,0.1-0.3,0.2c-0.1,0-0.2,0.1-0.3,0.1
		c-0.1,0-0.2,0-0.3-0.1s-0.2-0.1-0.3-0.2c-0.1-0.1-0.1-0.2-0.2-0.3c0-0.1-0.1-0.2-0.1-0.3c0-0.1,0-0.2,0.1-0.3
		c0-0.1,0.1-0.2,0.2-0.3c0.1-0.1,0.2-0.1,0.3-0.2s0.2-0.1,0.3-0.1c0.1,0,0.2,0,0.3,0.1c0.1,0,0.2,0.1,0.3,0.2s0.1,0.2,0.2,0.3
		C25.6,53.4,25.7,53.6,25.7,53.7z M25.4,55.9V63h-1.2v-7.1H25.4z"/>
	<path class="st0" d="M27.9,63v-6l-0.8-0.1c-0.1,0-0.2-0.1-0.2-0.1s-0.1-0.1-0.1-0.2v-0.5h1.1v-0.7c0-0.4,0.1-0.8,0.2-1.1
		c0.1-0.3,0.3-0.6,0.5-0.8c0.2-0.2,0.5-0.4,0.8-0.5s0.6-0.2,1-0.2c0.3,0,0.6,0,0.9,0.1v0.6c0,0.1-0.1,0.2-0.2,0.2s-0.3,0-0.5,0
		s-0.4,0-0.6,0.1s-0.3,0.1-0.5,0.3c-0.1,0.1-0.2,0.3-0.3,0.5c-0.1,0.2-0.1,0.5-0.1,0.8v0.7h2V57h-2v6H27.9z"/>
	<path class="st0" d="M40.6,57.2c0,0.1-0.1,0.1-0.1,0.1s-0.1,0-0.2,0s-0.1,0-0.2-0.1s-0.2-0.1-0.3-0.2c-0.1-0.1-0.3-0.1-0.5-0.2
		s-0.4-0.1-0.7-0.1c-0.4,0-0.7,0.1-0.9,0.2c-0.3,0.1-0.5,0.3-0.7,0.5s-0.3,0.5-0.4,0.8s-0.1,0.7-0.1,1.1s0,0.8,0.1,1.1
		c0.1,0.3,0.2,0.6,0.4,0.8s0.4,0.4,0.7,0.5c0.3,0.1,0.5,0.2,0.9,0.2c0.3,0,0.6,0,0.7-0.1c0.2-0.1,0.4-0.2,0.5-0.2s0.2-0.2,0.3-0.2
		c0.1-0.1,0.2-0.1,0.3-0.1c0.1,0,0.2,0,0.2,0.1l0.4,0.5c-0.2,0.2-0.3,0.4-0.5,0.5s-0.4,0.2-0.6,0.3c-0.2,0.1-0.5,0.2-0.7,0.2
		S38.7,63,38.4,63c-0.4,0-0.9-0.1-1.2-0.2s-0.7-0.4-1-0.7c-0.3-0.3-0.5-0.7-0.7-1.1c-0.2-0.5-0.2-1-0.2-1.5s0.1-1,0.2-1.5
		s0.4-0.8,0.6-1.2c0.3-0.3,0.6-0.6,1-0.8s0.9-0.3,1.4-0.3s0.9,0.1,1.3,0.2s0.7,0.4,1,0.7L40.6,57.2z"/>
	<path class="st0" d="M43.5,56.9c0.2-0.2,0.3-0.3,0.5-0.5c0.2-0.1,0.4-0.3,0.5-0.4c0.2-0.1,0.4-0.2,0.6-0.2c0.2-0.1,0.5-0.1,0.7-0.1
		c0.4,0,0.7,0.1,1,0.2s0.5,0.3,0.7,0.5s0.3,0.5,0.5,0.9c0.1,0.3,0.2,0.7,0.2,1.1v4.5H47v-4.5c0-0.5-0.1-1-0.4-1.3
		c-0.2-0.3-0.6-0.4-1.1-0.4c-0.4,0-0.7,0.1-1,0.3c-0.3,0.2-0.6,0.4-0.9,0.7v5.2h-1.3v-7.1H43c0.2,0,0.3,0.1,0.3,0.3L43.5,56.9z"/>
	<path class="st0" d="M52.3,63.1c-0.6,0-1-0.2-1.3-0.5s-0.5-0.8-0.5-1.4v-4.3h-0.9c-0.1,0-0.1,0-0.2-0.1s-0.1-0.1-0.1-0.2v-0.5
		l1.2-0.1l0.3-2.2c0-0.1,0-0.1,0.1-0.2c0,0,0.1-0.1,0.2-0.1h0.6v2.4h2.1v0.9h-2.1v4.3c0,0.3,0.1,0.5,0.2,0.7
		c0.1,0.1,0.3,0.2,0.6,0.2c0.1,0,0.2,0,0.3-0.1c0.1,0,0.2-0.1,0.2-0.1c0.1,0,0.1-0.1,0.2-0.1s0.1-0.1,0.1-0.1c0.1,0,0.1,0,0.2,0.1
		l0.4,0.6c-0.2,0.2-0.5,0.4-0.8,0.5S52.6,63.1,52.3,63.1z"/>
	<path class="st0" d="M60.8,58.1c-0.1,0-0.2,0.1-0.3,0.1s-0.2,0.1-0.3,0.1c0.1,0,0.2,0.1,0.3,0.1s0.2,0.1,0.3,0.1l3.1,1.6
		c0.1,0,0.2,0.1,0.2,0.2s0.1,0.1,0.1,0.2v0.9l-5.4-2.8v-0.5l5.4-2.8v0.9c0,0.1,0,0.1-0.1,0.2c0,0.1-0.1,0.1-0.2,0.2L60.8,58.1z"/>
	<path class="st0" d="M77,54.1h-3.2V63h-1.4v-8.9h-3.3V53H77V54.1z"/>
	<path class="st0" d="M86.7,53v10h-1.4v-4.6h-5.4V63h-1.4V53h1.4v4.5h5.4V53H86.7z"/>
	<path class="st0" d="M96.6,63h-1.2c-0.2,0-0.4-0.1-0.5-0.3l-2.6-3.6c-0.1-0.1-0.2-0.2-0.3-0.2s-0.2-0.1-0.4-0.1h-1V63h-1.4V53H92
		c0.6,0,1.2,0.1,1.6,0.2c0.5,0.1,0.8,0.3,1.1,0.6c0.3,0.2,0.5,0.5,0.7,0.9c0.1,0.3,0.2,0.7,0.2,1.2c0,0.4-0.1,0.7-0.2,1
		s-0.3,0.6-0.5,0.8c-0.2,0.2-0.5,0.5-0.8,0.6s-0.7,0.3-1,0.4c0.2,0.1,0.3,0.2,0.4,0.4L96.6,63z M92,57.8c0.4,0,0.7,0,1-0.1
		s0.6-0.2,0.8-0.4c0.2-0.2,0.4-0.4,0.5-0.6s0.2-0.5,0.2-0.8c0-0.6-0.2-1-0.6-1.4c-0.4-0.3-1-0.5-1.8-0.5h-1.5v3.8H92z"/>
	<path class="st0" d="M98.7,58.6c0-1-0.1-2-0.4-2.9c-0.3-0.9-0.6-1.8-1.1-2.7c0-0.1-0.1-0.1-0.1-0.2s0-0.1,0-0.1s0-0.1,0.1-0.1
		s0.1-0.1,0.1-0.1l0.6-0.3c0.4,0.5,0.6,1.1,0.9,1.6c0.2,0.5,0.4,1.1,0.6,1.6c0.2,0.5,0.3,1.1,0.3,1.6c0.1,0.5,0.1,1.1,0.1,1.7
		s0,1.1-0.1,1.7c-0.1,0.5-0.2,1.1-0.3,1.6s-0.4,1.1-0.6,1.6c-0.2,0.5-0.5,1.1-0.9,1.6l-0.6-0.3c0,0-0.1,0-0.1-0.1s-0.1-0.1-0.1-0.1
		v-0.1c0-0.1,0-0.1,0.1-0.2c0.5-0.8,0.9-1.7,1.1-2.7C98.6,60.6,98.7,59.6,98.7,58.6z"/>
</g>
</svg>
