<?xml version="1.0" encoding="utf-8"?>
<!-- Generator: Adobe Illustrator 22.0.1, SVG Export Plug-In . SVG Version: 6.00 Build 0)  -->
<svg version="1.1" id="Layer_1" xmlns="http://www.w3.org/2000/svg" xmlns:xlink="http://www.w3.org/1999/xlink" x="0px" y="0px"
	 viewBox="0 0 70 70" style="enable-background:new 0 0 70 70;" xml:space="preserve">
<style type="text/css">
	.st0{fill:#676767;}
</style>
<path class="st0" d="M35,70C15.7,70,0,54.3,0,35S15.7,0,35,0s35,15.7,35,35S54.3,70,35,70z M35,2C16.8,2,2,16.8,2,35s14.8,33,33,33
	s33-14.8,33-33S53.2,2,35,2z"/>
<path class="st0" d="M44.8,46c-5.9,0-9.6-3.7-10.8-10.8c-1-6.1-4-9.2-9-9.2c-4.9,0-8.9,4-9,9l-2,0c0.1-6.1,5-11,11-11
	c5.9,0,9.8,3.8,11,10.8c1,6.2,4,9.2,9,9.2c5-0.1,9-4.1,9-9h2c0,6-4.9,10.9-11,11C44.9,46,44.9,46,44.8,46z"/>
</svg>
