<?xml version="1.0" encoding="utf-8"?>
<!-- Generator: Adobe Illustrator 22.0.1, SVG Export Plug-In . SVG Version: 6.00 Build 0)  -->
<svg version="1.1" id="Layer_1" xmlns="http://www.w3.org/2000/svg" xmlns:xlink="http://www.w3.org/1999/xlink" x="0px" y="0px"
	 viewBox="0 0 100 80" style="enable-background:new 0 0 100 80;" xml:space="preserve">
<style type="text/css">
	.st0{fill:#666666;}
</style>
<g>
	<path class="st0" d="M31.2,45.5H30c-0.2,0-0.4-0.1-0.5-0.3l-2.6-3.6c-0.1-0.1-0.2-0.2-0.3-0.2s-0.2-0.1-0.4-0.1h-1v4.2h-1.4v-10
		h2.8c0.6,0,1.2,0.1,1.6,0.2c0.5,0.1,0.8,0.3,1.1,0.6c0.3,0.2,0.5,0.5,0.7,0.9c0.1,0.3,0.2,0.7,0.2,1.2c0,0.4-0.1,0.7-0.2,1
		c-0.1,0.3-0.3,0.6-0.5,0.8s-0.5,0.5-0.8,0.6c-0.3,0.2-0.7,0.3-1,0.4c0.2,0.1,0.3,0.2,0.4,0.4L31.2,45.5z M26.6,40.3
		c0.4,0,0.7,0,1-0.1s0.6-0.2,0.8-0.4s0.4-0.4,0.5-0.6s0.2-0.5,0.2-0.8c0-0.6-0.2-1-0.6-1.4c-0.4-0.3-1-0.5-1.8-0.5h-1.5v3.8H26.6z"
		/>
	<path class="st0" d="M37.6,44.5c-0.2,0.2-0.3,0.3-0.6,0.5s-0.4,0.3-0.7,0.3s-0.5,0.2-0.8,0.2s-0.5,0.1-0.8,0.1
		c-0.5,0-0.9-0.1-1.4-0.2s-0.8-0.4-1.1-0.7s-0.5-0.7-0.7-1.2s-0.3-1-0.3-1.6c0-0.5,0.1-1,0.2-1.4c0.2-0.4,0.4-0.8,0.7-1.1
		s0.6-0.6,1-0.7c0.4-0.2,0.9-0.3,1.4-0.3c0.4,0,0.8,0.1,1.2,0.2c0.4,0.1,0.7,0.3,0.9,0.6c0.3,0.3,0.5,0.6,0.6,1s0.2,0.8,0.2,1.3
		c0,0.2,0,0.3-0.1,0.4c0,0.1-0.1,0.1-0.2,0.1h-4.7c0,0.4,0.1,0.8,0.2,1.2c0.1,0.3,0.3,0.6,0.5,0.8s0.4,0.4,0.7,0.5s0.6,0.2,0.9,0.2
		c0.3,0,0.6,0,0.8-0.1s0.4-0.2,0.6-0.2c0.2-0.1,0.3-0.2,0.4-0.2s0.2-0.1,0.3-0.1s0.2,0,0.2,0.1L37.6,44.5z M36.6,41.2
		c0-0.3,0-0.6-0.1-0.8s-0.2-0.4-0.4-0.6c-0.2-0.2-0.3-0.3-0.6-0.4c-0.2-0.1-0.5-0.1-0.8-0.1c-0.6,0-1.1,0.2-1.4,0.5
		s-0.6,0.8-0.6,1.4L36.6,41.2L36.6,41.2z"/>
	<path class="st0" d="M45.2,38.7v0.5c0,0.2-0.1,0.3-0.3,0.3l-0.8,0.1c0.2,0.3,0.2,0.6,0.2,1c0,0.3-0.1,0.7-0.2,0.9
		c-0.1,0.3-0.3,0.5-0.5,0.7s-0.5,0.4-0.8,0.5s-0.7,0.2-1.1,0.2c-0.3,0-0.6,0-0.9-0.1c-0.1,0.1-0.3,0.2-0.3,0.3
		c-0.1,0.1-0.1,0.2-0.1,0.3c0,0.2,0.1,0.3,0.2,0.4c0.1,0.1,0.3,0.1,0.5,0.2c0.2,0,0.5,0.1,0.8,0.1s0.6,0,0.9,0
		c0.3,0,0.6,0.1,0.9,0.1s0.5,0.1,0.8,0.3c0.2,0.1,0.4,0.3,0.5,0.5s0.2,0.5,0.2,0.8s-0.1,0.6-0.2,0.9c-0.2,0.3-0.4,0.5-0.7,0.8
		c-0.3,0.2-0.6,0.4-1,0.5s-0.9,0.2-1.4,0.2s-1-0.1-1.4-0.2c-0.4-0.1-0.7-0.2-1-0.4s-0.4-0.4-0.6-0.6c-0.1-0.2-0.2-0.5-0.2-0.7
		c0-0.4,0.1-0.6,0.3-0.9c0.2-0.2,0.5-0.4,0.9-0.6c-0.2-0.1-0.4-0.2-0.5-0.4s-0.2-0.4-0.2-0.6c0-0.1,0-0.2,0.1-0.3
		c0-0.1,0.1-0.2,0.2-0.3c0.1-0.1,0.2-0.2,0.3-0.3s0.2-0.2,0.4-0.3c-0.3-0.2-0.6-0.5-0.8-0.8s-0.3-0.7-0.3-1.1c0-0.3,0.1-0.7,0.2-0.9
		c0.1-0.3,0.3-0.5,0.6-0.7s0.5-0.4,0.9-0.5s0.7-0.2,1.1-0.2c0.3,0,0.6,0,0.9,0.1c0.3,0.1,0.5,0.2,0.7,0.3h1.7V38.7z M44,45.9
		c0-0.2,0-0.3-0.1-0.4c-0.1-0.1-0.2-0.2-0.4-0.3s-0.4-0.1-0.6-0.1c-0.2,0-0.5,0-0.7-0.1s-0.5,0-0.7,0s-0.5,0-0.7-0.1
		c-0.3,0.1-0.5,0.3-0.6,0.5C40,45.6,40,45.8,40,46c0,0.2,0,0.3,0.1,0.4c0.1,0.1,0.2,0.3,0.4,0.4c0.2,0.1,0.4,0.2,0.6,0.2
		c0.3,0.1,0.6,0.1,0.9,0.1c0.3,0,0.6,0,0.9-0.1c0.3-0.1,0.5-0.1,0.7-0.3c0.2-0.1,0.3-0.2,0.4-0.4C43.9,46.2,44,46.1,44,45.9z
		 M41.7,42c0.3,0,0.5,0,0.7-0.1s0.4-0.2,0.5-0.3s0.2-0.3,0.3-0.5s0.1-0.4,0.1-0.6c0-0.4-0.1-0.8-0.4-1c-0.3-0.3-0.6-0.4-1.1-0.4
		s-0.9,0.1-1.2,0.4c-0.3,0.3-0.4,0.6-0.4,1c0,0.2,0,0.4,0.1,0.6c0.1,0.2,0.2,0.3,0.3,0.5c0.1,0.1,0.3,0.2,0.5,0.3
		C41.2,42,41.5,42,41.7,42z"/>
	<path class="st0" d="M48.1,36.2c0,0.1,0,0.2-0.1,0.3s-0.1,0.2-0.2,0.3c-0.1,0.1-0.2,0.1-0.3,0.2c-0.1,0-0.2,0.1-0.3,0.1
		s-0.2,0-0.3-0.1c-0.1,0-0.2-0.1-0.3-0.2c-0.1-0.1-0.1-0.2-0.2-0.3c0-0.1-0.1-0.2-0.1-0.3s0-0.2,0.1-0.3c0-0.1,0.1-0.2,0.2-0.3
		c0.1-0.1,0.2-0.1,0.3-0.2c0.1,0,0.2-0.1,0.3-0.1s0.2,0,0.3,0.1c0.1,0,0.2,0.1,0.3,0.2c0.1,0.1,0.1,0.2,0.2,0.3
		C48.1,35.9,48.1,36.1,48.1,36.2z M47.8,38.4v7.1h-1.2v-7.1H47.8z"/>
	<path class="st0" d="M54,39.6c-0.1,0.1-0.1,0.2-0.3,0.2c-0.1,0-0.1,0-0.2-0.1c-0.1-0.1-0.2-0.1-0.3-0.2c-0.1-0.1-0.3-0.1-0.5-0.2
		c-0.2-0.1-0.4-0.1-0.6-0.1c-0.2,0-0.4,0-0.6,0.1s-0.3,0.1-0.4,0.2c-0.1,0.1-0.2,0.2-0.3,0.3s-0.1,0.3-0.1,0.4
		c0,0.2,0.1,0.3,0.2,0.5c0.1,0.1,0.2,0.2,0.4,0.3s0.4,0.2,0.6,0.2c0.2,0.1,0.4,0.1,0.7,0.2s0.5,0.2,0.7,0.3s0.4,0.2,0.6,0.4
		s0.3,0.3,0.4,0.5c0.1,0.2,0.2,0.4,0.2,0.7s-0.1,0.6-0.2,0.9c-0.1,0.3-0.3,0.5-0.5,0.7s-0.5,0.4-0.8,0.5s-0.7,0.2-1.1,0.2
		c-0.5,0-0.9-0.1-1.3-0.2s-0.7-0.4-1-0.6l0.3-0.5c0-0.1,0.1-0.1,0.1-0.1c0.1,0,0.1,0,0.2,0c0.1,0,0.2,0,0.3,0.1s0.2,0.1,0.3,0.2
		c0.1,0.1,0.3,0.2,0.5,0.2s0.4,0.1,0.7,0.1c0.2,0,0.5,0,0.6-0.1s0.3-0.1,0.5-0.3s0.2-0.2,0.3-0.4c0.1-0.1,0.1-0.3,0.1-0.4
		c0-0.2-0.1-0.4-0.2-0.5c-0.1-0.1-0.2-0.2-0.4-0.3s-0.4-0.2-0.6-0.2c-0.2-0.1-0.4-0.1-0.7-0.2c-0.2-0.1-0.5-0.2-0.7-0.3
		s-0.4-0.2-0.6-0.4s-0.3-0.3-0.4-0.5c-0.1-0.2-0.2-0.5-0.2-0.8s0.1-0.5,0.2-0.8c0.1-0.3,0.3-0.5,0.5-0.7s0.5-0.3,0.8-0.5
		c0.3-0.1,0.7-0.2,1.1-0.2c0.5,0,0.9,0.1,1.3,0.2s0.7,0.3,1,0.6L54,39.6z"/>
	<path class="st0" d="M58.1,45.6c-0.6,0-1-0.2-1.3-0.5s-0.5-0.8-0.5-1.4v-4.2h-0.8c-0.1,0-0.1,0-0.2-0.1c-0.1,0-0.1-0.1-0.1-0.2
		v-0.5l1.2-0.1l0.3-2.2c0-0.1,0-0.1,0.1-0.2c0,0,0.1-0.1,0.2-0.1h0.6v2.4h2.1v0.9h-2.1v4.3c0,0.3,0.1,0.5,0.2,0.7s0.3,0.2,0.6,0.2
		c0.1,0,0.2,0,0.3-0.1c0.1,0,0.2-0.1,0.2-0.1c0.1,0,0.1-0.1,0.2-0.1l0.1-0.1c0.1,0,0.1,0,0.2,0.1l0.4,0.6c-0.2,0.2-0.5,0.4-0.8,0.5
		C58.8,45.6,58.4,45.6,58.1,45.6z"/>
	<path class="st0" d="M66.7,44.5c-0.2,0.2-0.3,0.3-0.6,0.5s-0.4,0.3-0.7,0.3s-0.5,0.2-0.8,0.2s-0.5,0.1-0.8,0.1
		c-0.5,0-0.9-0.1-1.4-0.2s-0.8-0.4-1.1-0.7s-0.5-0.7-0.7-1.2s-0.3-1-0.3-1.6c0-0.5,0.1-1,0.2-1.4c0.2-0.4,0.4-0.8,0.7-1.1
		s0.6-0.6,1-0.7c0.4-0.2,0.9-0.3,1.4-0.3c0.4,0,0.8,0.1,1.2,0.2c0.4,0.1,0.7,0.3,0.9,0.6c0.3,0.3,0.5,0.6,0.6,1s0.2,0.8,0.2,1.3
		c0,0.2,0,0.3-0.1,0.4c0,0.1-0.1,0.1-0.2,0.1h-4.7c0,0.4,0.1,0.8,0.2,1.2c0.1,0.3,0.3,0.6,0.5,0.8s0.4,0.4,0.7,0.5s0.6,0.2,0.9,0.2
		c0.3,0,0.6,0,0.8-0.1s0.4-0.2,0.6-0.2c0.2-0.1,0.3-0.2,0.4-0.2s0.2-0.1,0.3-0.1s0.2,0,0.2,0.1L66.7,44.5z M65.7,41.2
		c0-0.3,0-0.6-0.1-0.8s-0.2-0.4-0.4-0.6c-0.2-0.2-0.3-0.3-0.6-0.4c-0.2-0.1-0.5-0.1-0.8-0.1c-0.6,0-1.1,0.2-1.4,0.5
		s-0.6,0.8-0.6,1.4L65.7,41.2L65.7,41.2z"/>
	<path class="st0" d="M69.5,39.8c0.2-0.5,0.5-0.9,0.8-1.1c0.3-0.3,0.7-0.4,1.2-0.4c0.1,0,0.3,0,0.4,0s0.3,0.1,0.4,0.2l-0.1,0.9
		c0,0.1-0.1,0.2-0.2,0.2c-0.1,0-0.2,0-0.3,0s-0.3,0-0.4,0c-0.2,0-0.4,0-0.6,0.1c-0.2,0.1-0.3,0.2-0.5,0.3s-0.3,0.3-0.4,0.5
		s-0.2,0.4-0.3,0.6v4.5h-1.3v-7.1h0.7c0.1,0,0.2,0,0.3,0.1s0.1,0.1,0.1,0.3L69.5,39.8z"/>
	<path class="st0" d="M77.5,39.6c-0.1,0.1-0.1,0.2-0.3,0.2c-0.1,0-0.1,0-0.2-0.1c-0.1-0.1-0.2-0.1-0.3-0.2c-0.1-0.1-0.3-0.1-0.5-0.2
		c-0.2-0.1-0.4-0.1-0.6-0.1c-0.2,0-0.4,0-0.6,0.1s-0.3,0.1-0.4,0.2c-0.1,0.1-0.2,0.2-0.3,0.3s-0.1,0.3-0.1,0.4
		c0,0.2,0.1,0.3,0.2,0.5c0.1,0.1,0.2,0.2,0.4,0.3s0.4,0.2,0.6,0.2c0.2,0.1,0.4,0.1,0.7,0.2s0.5,0.2,0.7,0.3s0.4,0.2,0.6,0.4
		s0.3,0.3,0.4,0.5c0.1,0.2,0.2,0.4,0.2,0.7s-0.1,0.6-0.2,0.9c-0.1,0.3-0.3,0.5-0.5,0.7s-0.5,0.4-0.8,0.5s-0.7,0.2-1.1,0.2
		c-0.5,0-0.9-0.1-1.3-0.2s-0.7-0.4-1-0.6l0.3-0.5c0-0.1,0.1-0.1,0.1-0.1c0.1,0,0.1,0,0.2,0c0.1,0,0.2,0,0.3,0.1s0.2,0.1,0.3,0.2
		c0.1,0.1,0.3,0.2,0.5,0.2s0.4,0.1,0.7,0.1c0.2,0,0.5,0,0.6-0.1s0.3-0.1,0.5-0.3s0.2-0.2,0.3-0.4c0.1-0.1,0.1-0.3,0.1-0.4
		c0-0.2-0.1-0.4-0.2-0.5c-0.1-0.1-0.2-0.2-0.4-0.3s-0.4-0.2-0.6-0.2c-0.2-0.1-0.4-0.1-0.7-0.2c-0.2-0.1-0.5-0.2-0.7-0.3
		s-0.4-0.2-0.6-0.4s-0.3-0.3-0.4-0.5c-0.1-0.2-0.2-0.5-0.2-0.8s0.1-0.5,0.2-0.8c0.1-0.3,0.3-0.5,0.5-0.7s0.5-0.3,0.8-0.5
		c0.3-0.1,0.7-0.2,1.1-0.2c0.5,0,0.9,0.1,1.3,0.2s0.7,0.3,1,0.6L77.5,39.6z"/>
</g>
<path class="st0" d="M100,80H0V0h100V80z M2,78h96V2H2V78z"/>
</svg>
