<?xml version="1.0" encoding="utf-8"?>
<!-- Generator: Adobe Illustrator 22.0.1, SVG Export Plug-In . SVG Version: 6.00 Build 0)  -->
<svg version="1.1" id="Layer_1" xmlns="http://www.w3.org/2000/svg" xmlns:xlink="http://www.w3.org/1999/xlink" x="0px" y="0px"
	 viewBox="0 0 22 60" style="enable-background:new 0 0 22 60;" xml:space="preserve">
<style type="text/css">
	.st0{fill:#676767;}
	.st1{enable-background:new    ;}
</style>
<path class="st0" d="M22,60L0,53.6V6.5L22,0V60z M1.9,52.1L20,57.4V2.7L1.9,8V52.1z"/>
<g class="st1">
	<path class="st0" d="M13.4,19.6c0,0.8-0.1,1.4-0.2,2s-0.4,1-0.7,1.4s-0.6,0.6-1,0.8c-0.4,0.2-0.8,0.3-1.2,0.3S9.5,24,9.1,23.8
		s-0.7-0.4-1-0.8s-0.5-0.8-0.7-1.4c-0.2-0.5-0.2-1.2-0.2-2s0.1-1.4,0.2-2c0.2-0.6,0.4-1,0.7-1.4c0.3-0.4,0.6-0.6,1-0.8
		s0.8-0.3,1.2-0.3s0.8,0.1,1.2,0.3s0.7,0.4,1,0.8c0.3,0.4,0.5,0.8,0.7,1.4S13.4,18.9,13.4,19.6z M12.3,19.6c0-0.7-0.1-1.2-0.2-1.7
		c-0.1-0.4-0.3-0.8-0.4-1.1c-0.2-0.3-0.4-0.5-0.6-0.6c-0.2-0.1-0.5-0.2-0.8-0.2s-0.5,0.1-0.8,0.2c-0.2,0.1-0.5,0.3-0.6,0.6
		c-0.2,0.3-0.3,0.6-0.4,1.1c-0.1,0.4-0.2,1-0.2,1.7s0.1,1.2,0.2,1.6c0.1,0.4,0.3,0.8,0.4,1.1c0.2,0.3,0.4,0.5,0.6,0.6
		c0.2,0.1,0.5,0.2,0.8,0.2s0.5-0.1,0.8-0.2c0.2-0.1,0.5-0.3,0.6-0.6c0.2-0.3,0.3-0.6,0.4-1.1C12.3,20.8,12.3,20.3,12.3,19.6z"/>
</g>
<g class="st1">
	<path class="st0" d="M12.9,43.1v0.8H8.3v-0.8h1.8v-5.9c0-0.2,0-0.4,0-0.5L8.7,38c-0.1,0-0.1,0.1-0.2,0.1c-0.1,0-0.1,0-0.1,0H8.3
		c0,0-0.1,0-0.1-0.1l-0.3-0.5l2.6-2.2h0.9v7.8H12.9z"/>
</g>
</svg>
