<?xml version="1.0" encoding="utf-8"?>
<!-- Generator: Adobe Illustrator 22.0.1, SVG Export Plug-In . SVG Version: 6.00 Build 0)  -->
<svg version="1.1" id="Layer_1" xmlns="http://www.w3.org/2000/svg" xmlns:xlink="http://www.w3.org/1999/xlink" x="0px" y="0px"
	 viewBox="0 0 40 190" style="enable-background:new 0 0 40 190;" xml:space="preserve">
<style type="text/css">
	.st0{fill:#397DC0;}
	.st1{fill:#676767;}
	.st2{enable-background:new    ;}
</style>
<path class="st0" d="M-51.1,83.5c-19.3,0-35-15.7-35-35s15.7-35,35-35s35,15.7,35,35S-31.8,83.5-51.1,83.5z M-51.1,15.5
	c-18.2,0-33,14.8-33,33s14.8,33,33,33s33-14.8,33-33S-32.9,15.5-51.1,15.5z"/>
<path class="st0" d="M-41.3,59.6c-5.9,0-9.6-3.7-10.8-10.8c-1-6.1-4-9.2-9-9.2c-4.9,0-8.9,4-9,9l-2,0c0.1-6.1,5-11,11-11
	c5.9,0,9.8,3.8,11,10.8c1,6.2,4,9.2,9,9.2c5-0.1,9-4.1,9-9h2c0,6-4.9,10.9-11,11C-41.2,59.6-41.2,59.6-41.3,59.6z"/>
<path class="st1" d="M0,190V0l40,16.7v156.6L0,190z M2,3v184l36-15v-154L2,3z"/>
<g class="st2">
	<path class="st1" d="M18.1,23.5c0,0.8-0.1,1.4-0.2,2s-0.4,1-0.7,1.4c-0.3,0.4-0.6,0.6-1,0.8c-0.4,0.2-0.8,0.3-1.2,0.3
		c-0.4,0-0.8-0.1-1.2-0.3s-0.7-0.4-1-0.8c-0.3-0.4-0.5-0.8-0.7-1.4c-0.2-0.5-0.2-1.2-0.2-2c0-0.8,0.1-1.4,0.2-2
		c0.2-0.6,0.4-1,0.7-1.4c0.3-0.4,0.6-0.6,1-0.8c0.4-0.2,0.8-0.3,1.2-0.3c0.4,0,0.8,0.1,1.2,0.3c0.4,0.2,0.7,0.4,1,0.8
		c0.3,0.4,0.5,0.8,0.7,1.4S18.1,22.7,18.1,23.5z M17,23.5c0-0.7-0.1-1.2-0.2-1.7c-0.1-0.4-0.3-0.8-0.4-1.1c-0.2-0.3-0.4-0.5-0.6-0.6
		C15.5,20.1,15.3,20,15,20c-0.3,0-0.5,0.1-0.8,0.2c-0.2,0.1-0.5,0.3-0.6,0.6c-0.2,0.3-0.3,0.6-0.4,1.1s-0.2,1-0.2,1.7
		c0,0.7,0.1,1.2,0.2,1.6s0.3,0.8,0.4,1.1c0.2,0.3,0.4,0.5,0.6,0.6c0.2,0.1,0.5,0.2,0.8,0.2c0.3,0,0.5-0.1,0.8-0.2
		c0.2-0.1,0.5-0.3,0.6-0.6c0.2-0.3,0.3-0.6,0.4-1.1C17,24.7,17,24.1,17,23.5z"/>
</g>
<g class="st2">
	<path class="st1" d="M17.6,47v0.8H13V47h1.8v-5.9c0-0.2,0-0.4,0-0.5l-1.5,1.3c-0.1,0-0.1,0.1-0.2,0.1c-0.1,0-0.1,0-0.1,0
		c0,0-0.1,0-0.1,0c0,0-0.1-0.1-0.1-0.1l-0.3-0.5l2.6-2.2h0.9V47H17.6z"/>
</g>
<g class="st2">
	<path class="st1" d="M17.4,66.8c0.1,0,0.2,0,0.3,0.1c0.1,0.1,0.1,0.2,0.1,0.3v0.6h-5.7v-0.4c0-0.1,0-0.2,0-0.2
		c0-0.1,0.1-0.2,0.2-0.2l2.8-2.8c0.2-0.2,0.4-0.5,0.6-0.7s0.3-0.4,0.5-0.6c0.1-0.2,0.2-0.4,0.3-0.7c0.1-0.2,0.1-0.5,0.1-0.7
		s0-0.5-0.1-0.7c-0.1-0.2-0.2-0.3-0.3-0.5c-0.1-0.1-0.3-0.2-0.5-0.3C15.4,60,15.2,60,15,60c-0.2,0-0.4,0-0.6,0.1
		c-0.2,0.1-0.3,0.2-0.5,0.3s-0.3,0.2-0.4,0.4c-0.1,0.2-0.2,0.3-0.2,0.5c0,0.1-0.1,0.2-0.2,0.3s-0.2,0.1-0.3,0l-0.6-0.1
		c0.1-0.4,0.2-0.7,0.3-1c0.2-0.3,0.4-0.6,0.6-0.8c0.2-0.2,0.5-0.4,0.8-0.5c0.3-0.1,0.7-0.2,1-0.2c0.4,0,0.7,0.1,1,0.2
		c0.3,0.1,0.6,0.3,0.8,0.5c0.2,0.2,0.4,0.5,0.5,0.8c0.1,0.3,0.2,0.6,0.2,1c0,0.3,0,0.6-0.1,0.9c-0.1,0.3-0.2,0.5-0.4,0.8
		c-0.2,0.2-0.4,0.5-0.6,0.7c-0.2,0.2-0.4,0.5-0.7,0.7l-2.3,2.3c0.2,0,0.3-0.1,0.5-0.1c0.2,0,0.3,0,0.5,0H17.4z"/>
</g>
<g class="st2">
	<path class="st1" d="M12.3,81.5c0.1-0.4,0.2-0.7,0.3-1c0.2-0.3,0.4-0.6,0.6-0.8s0.5-0.4,0.8-0.5c0.3-0.1,0.7-0.2,1-0.2
		c0.4,0,0.7,0.1,1,0.2c0.3,0.1,0.6,0.3,0.8,0.4c0.2,0.2,0.4,0.4,0.5,0.7c0.1,0.3,0.2,0.6,0.2,0.9c0,0.3,0,0.5-0.1,0.7
		c-0.1,0.2-0.2,0.4-0.3,0.6s-0.3,0.3-0.5,0.4c-0.2,0.1-0.4,0.2-0.6,0.3c0.6,0.1,1,0.4,1.3,0.7c0.3,0.4,0.4,0.8,0.4,1.3
		c0,0.4-0.1,0.8-0.2,1.1c-0.1,0.3-0.4,0.6-0.6,0.8c-0.3,0.2-0.6,0.4-0.9,0.5c-0.3,0.1-0.7,0.2-1.1,0.2c-0.5,0-0.8-0.1-1.2-0.2
		c-0.3-0.1-0.6-0.3-0.8-0.5c-0.2-0.2-0.4-0.4-0.6-0.7c-0.1-0.3-0.3-0.6-0.4-0.9l0.5-0.2c0.1-0.1,0.2-0.1,0.4,0
		c0.1,0,0.2,0.1,0.2,0.2c0.1,0.1,0.1,0.2,0.2,0.4c0.1,0.2,0.2,0.3,0.3,0.5c0.1,0.1,0.3,0.3,0.5,0.4c0.2,0.1,0.5,0.2,0.8,0.2
		c0.3,0,0.6,0,0.8-0.1c0.2-0.1,0.4-0.2,0.6-0.4c0.1-0.2,0.3-0.3,0.3-0.5c0.1-0.2,0.1-0.4,0.1-0.6c0-0.2,0-0.4-0.1-0.6
		c-0.1-0.2-0.2-0.4-0.3-0.5c-0.2-0.1-0.4-0.3-0.7-0.3c-0.3-0.1-0.7-0.1-1.1-0.1V83c0.4,0,0.7,0,0.9-0.1s0.5-0.2,0.6-0.3
		c0.2-0.1,0.3-0.3,0.4-0.5c0.1-0.2,0.1-0.4,0.1-0.6c0-0.2,0-0.5-0.1-0.6s-0.2-0.3-0.3-0.5c-0.1-0.1-0.3-0.2-0.5-0.3
		C15.5,80,15.3,80,15,80c-0.2,0-0.4,0-0.6,0.1c-0.2,0.1-0.4,0.2-0.5,0.3c-0.1,0.1-0.3,0.2-0.4,0.4c-0.1,0.2-0.2,0.3-0.2,0.5
		c-0.1,0.1-0.1,0.2-0.2,0.3c-0.1,0-0.2,0.1-0.3,0L12.3,81.5z"/>
</g>
<g class="st2">
	<path class="st1" d="M18.1,104.6v0.6c0,0.1,0,0.1-0.1,0.2s-0.1,0.1-0.2,0.1h-1.1v2.3h-0.9v-2.3h-3.8c-0.1,0-0.1,0-0.2-0.1
		s-0.1-0.1-0.1-0.2l-0.1-0.5l4.2-5.5h1v5.5H18.1z M15.9,104.6v-3.5c0-0.1,0-0.2,0-0.3c0-0.1,0-0.3,0-0.4l-3.1,4.3H15.9z"/>
</g>
<g class="st2">
	<path class="st1" d="M13.7,122.4c0.4-0.1,0.9-0.1,1.2-0.1c0.4,0,0.8,0.1,1.2,0.2c0.3,0.1,0.6,0.3,0.9,0.5c0.2,0.2,0.4,0.5,0.5,0.8
		c0.1,0.3,0.2,0.7,0.2,1c0,0.5-0.1,0.9-0.2,1.2s-0.4,0.7-0.7,0.9c-0.3,0.3-0.6,0.5-1,0.6c-0.4,0.1-0.8,0.2-1.2,0.2
		c-0.3,0-0.5,0-0.7-0.1c-0.2,0-0.4-0.1-0.7-0.2s-0.4-0.2-0.6-0.3s-0.3-0.2-0.5-0.3l0.3-0.5c0.1-0.1,0.2-0.2,0.3-0.2
		c0.1,0,0.2,0,0.3,0.1c0.1,0.1,0.2,0.1,0.4,0.2s0.3,0.1,0.5,0.2c0.2,0.1,0.4,0.1,0.7,0.1c0.3,0,0.6,0,0.8-0.1
		c0.2-0.1,0.4-0.2,0.6-0.4s0.3-0.4,0.4-0.6c0.1-0.2,0.1-0.5,0.1-0.8c0-0.3,0-0.5-0.1-0.7c-0.1-0.2-0.2-0.4-0.4-0.6
		c-0.2-0.2-0.4-0.3-0.6-0.4s-0.5-0.1-0.8-0.1c-0.2,0-0.4,0-0.7,0.1s-0.5,0.1-0.7,0.2l-0.7-0.2l0.7-4h4.1v0.5c0,0.2,0,0.3-0.1,0.4
		c-0.1,0.1-0.3,0.1-0.5,0.1h-2.7L13.7,122.4z"/>
</g>
<g class="st2">
	<path class="st1" d="M14.4,142.4c-0.1,0.1-0.1,0.2-0.2,0.3c-0.1,0.1-0.1,0.2-0.2,0.3c0.2-0.1,0.4-0.2,0.7-0.3
		c0.2-0.1,0.5-0.1,0.8-0.1c0.3,0,0.7,0.1,1,0.2c0.3,0.1,0.6,0.3,0.8,0.5s0.4,0.5,0.5,0.8c0.1,0.3,0.2,0.7,0.2,1.1
		c0,0.4-0.1,0.8-0.2,1.1c-0.1,0.3-0.3,0.6-0.6,0.9c-0.3,0.3-0.6,0.5-0.9,0.6c-0.4,0.1-0.8,0.2-1.2,0.2c-0.4,0-0.8-0.1-1.2-0.2
		c-0.4-0.1-0.7-0.3-0.9-0.6s-0.4-0.6-0.6-0.9c-0.1-0.4-0.2-0.8-0.2-1.2c0-0.4,0.1-0.8,0.2-1.2s0.4-0.9,0.8-1.4l2.2-2.9
		c0.1-0.1,0.1-0.1,0.2-0.2s0.2-0.1,0.3-0.1h0.9L14.4,142.4z M15,146.9c0.3,0,0.5,0,0.8-0.1s0.4-0.2,0.6-0.4s0.3-0.4,0.4-0.6
		c0.1-0.2,0.1-0.5,0.1-0.7c0-0.3,0-0.5-0.1-0.8c-0.1-0.2-0.2-0.4-0.4-0.6c-0.2-0.2-0.4-0.3-0.6-0.4c-0.2-0.1-0.5-0.1-0.7-0.1
		c-0.3,0-0.5,0-0.8,0.1s-0.4,0.2-0.6,0.4c-0.2,0.2-0.3,0.4-0.4,0.6c-0.1,0.2-0.1,0.4-0.1,0.7c0,0.3,0,0.5,0.1,0.8
		c0.1,0.2,0.2,0.4,0.4,0.6c0.2,0.2,0.3,0.3,0.6,0.4S14.7,146.9,15,146.9z"/>
</g>
<g class="st2">
	<path class="st1" d="M18,159.1v0.5c0,0.1,0,0.2,0,0.3c0,0.1-0.1,0.2-0.1,0.2l-3.6,7.2c-0.1,0.1-0.1,0.2-0.2,0.3
		c-0.1,0.1-0.2,0.1-0.4,0.1H13l3.6-7.1c0.1-0.1,0.1-0.2,0.2-0.3s0.1-0.2,0.2-0.2h-4.5c-0.1,0-0.1,0-0.2-0.1
		c-0.1-0.1-0.1-0.1-0.1-0.2v-0.7H18z"/>
</g>
</svg>
