<?xml version="1.0" encoding="utf-8"?>
<!-- Generator: Adobe Illustrator 22.0.1, SVG Export Plug-In . SVG Version: 6.00 Build 0)  -->
<svg version="1.1" id="Layer_1" xmlns="http://www.w3.org/2000/svg" xmlns:xlink="http://www.w3.org/1999/xlink" x="0px" y="0px"
	 viewBox="0 0 14 14" style="enable-background:new 0 0 14 14;" xml:space="preserve">
<style type="text/css">
	.st0{fill:#5CCE13;}
</style>
<g>
	<path class="st0" d="M7,14c-3.9,0-7-3.1-7-7s3.1-7,7-7s7,3.1,7,7S10.9,14,7,14z M7,1C3.7,1,1,3.7,1,7s2.7,6,6,6s6-2.7,6-6
		S10.3,1,7,1z"/>
	<path class="st0" d="M5.6,10.5c-0.1,0-0.3-0.1-0.4-0.2l-2-2C3,8.1,3,7.8,3.2,7.6c0.2-0.2,0.5-0.2,0.7,0l1.6,1.6L9.5,4
		c0.2-0.2,0.5-0.3,0.7-0.1c0.2,0.2,0.3,0.5,0.1,0.7L6,10.3C5.9,10.4,5.8,10.5,5.6,10.5C5.6,10.5,5.6,10.5,5.6,10.5z"/>
</g>
</svg>
