<?xml version="1.0" encoding="utf-8"?>
<!-- Generator: Adobe Illustrator 22.0.1, SVG Export Plug-In . SVG Version: 6.00 Build 0)  -->
<svg version="1.1" id="Layer_1" xmlns="http://www.w3.org/2000/svg" xmlns:xlink="http://www.w3.org/1999/xlink" x="0px" y="0px"
	 viewBox="0 0 40 40" style="enable-background:new 0 0 40 40;" xml:space="preserve">
<style type="text/css">
	.st0{fill:url(#SVGID_1_);}
	.st1{fill:#FFFFFF;}
</style>
<linearGradient id="SVGID_1_" gradientUnits="userSpaceOnUse" x1="0" y1="20" x2="40" y2="20">
	<stop  offset="0" style="stop-color:#00A6FF"/>
	<stop  offset="1" style="stop-color:#0A87EF"/>
</linearGradient>
<path class="st0" d="M20,40L20,40C9,40,0,31,0,20v0C0,9,9,0,20,0h0c11,0,20,9,20,20v0C40,31,31,40,20,40z"/>
<g>
	<g>
		<path class="st1" d="M27.7,19.9c-0.2-0.4-0.6-0.7-1-0.7c-0.3,0-0.8,0-1.2,0.2c-0.1-0.2-0.7-1.8-2.7-0.8c0,0-0.3-0.3-0.6-0.5
			c-0.7-0.4-1.2-0.3-1.9,0.3c0-0.4,0-2,0-2.3c0-1,0-1.9,0-2.9c0-0.7-0.5-1.2-1.2-1.3c-0.6-0.1-1.3,0.3-1.5,0.9
			c-0.1,0.2-0.1,0.5-0.1,0.7c0,3.5,0,7,0,10.5c0,0.1,0,0.2,0,0.4c-0.1-0.2-0.2-0.2-0.2-0.3c-0.8-1-1.5-2-2.3-3
			c-0.4-0.6-1.1-0.8-1.8-0.5c-0.8,0.4-1,1.4-0.5,2.1c1.5,1.9,2.9,3.9,4.4,5.8c0.5,0.6,0.9,1.3,1.4,1.8c0.2,0.3,0.3,0.5,0.3,0.8
			c0,0.6,0,1.2,0,1.8c0,0.6,0.3,1,1,1c1.7,0,3.4,0,5.1,0c0.6,0,0.9-0.4,1-1c0-0.5,0-1,0-1.5c0-0.1,0.1-0.3,0.2-0.4
			c1.3-1.1,1.9-2.4,1.9-4.1C28,25.1,27.9,20.3,27.7,19.9z"/>
	</g>
	<g>
		<path class="st1" d="M23.6,10.1c0.8,0,1.4-0.6,1.4-1.4c0-0.8-0.6-1.4-1.4-1.4c-0.8,0-1.4,0.6-1.4,1.4
			C22.2,9.5,22.8,10.1,23.6,10.1z"/>
	</g>
	<g>
		<path class="st1" d="M18.6,10.1c0.8,0,1.4-0.6,1.4-1.4c0-0.8-0.6-1.4-1.4-1.4c-0.8,0-1.5,0.6-1.5,1.4
			C17.1,9.5,17.8,10.1,18.6,10.1z"/>
	</g>
	<g>
		<path class="st1" d="M23.5,14.7c0.8,0,1.4-0.6,1.5-1.4c0-0.8-0.6-1.5-1.4-1.5c-0.8,0-1.4,0.6-1.5,1.4C22.1,14,22.8,14.6,23.5,14.7
			z"/>
	</g>
	<g>
		<path class="st1" d="M13.6,10.1c0.8,0,1.4-0.6,1.4-1.4c0-0.8-0.6-1.4-1.4-1.4c-0.8,0-1.4,0.6-1.4,1.4
			C12.1,9.5,12.8,10.1,13.6,10.1z"/>
	</g>
	<g>
		<path class="st1" d="M13.6,19.2c0.8,0,1.4-0.7,1.4-1.4c0-0.8-0.7-1.4-1.5-1.4c-0.8,0-1.4,0.6-1.4,1.4
			C12.1,18.6,12.8,19.2,13.6,19.2z"/>
	</g>
	<g>
		<path class="st1" d="M13.6,14.7c0.8,0,1.4-0.6,1.4-1.4c0-0.8-0.6-1.4-1.4-1.4c-0.8,0-1.4,0.6-1.4,1.4C12.1,14,12.8,14.7,13.6,14.7
			z"/>
	</g>
</g>
</svg>
