<?xml version="1.0" encoding="utf-8"?>
<!-- Generator: Adobe Illustrator 22.0.1, SVG Export Plug-In . SVG Version: 6.00 Build 0)  -->
<svg version="1.1" id="Layer_1" xmlns="http://www.w3.org/2000/svg" xmlns:xlink="http://www.w3.org/1999/xlink" x="0px" y="0px"
	 viewBox="0 0 150 80" style="enable-background:new 0 0 150 80;" xml:space="preserve">
<style type="text/css">
	.st0{fill:url(#SVGID_1_);}
	.st1{fill:url(#SVGID_2_);}
	.st2{fill:url(#SVGID_3_);}
	.st3{fill:url(#SVGID_4_);}
	.st4{fill:url(#SVGID_5_);}
	.st5{fill:url(#SVGID_6_);}
	.st6{fill:url(#SVGID_7_);}
	.st7{fill:#606060;}
</style>
<g>
	<g>
		<polygon points="33.7,3.9 0,3.9 3.8,9 13.9,9 13.9,28.8 18.9,35.3 18.9,9 30.5,9 		"/>
	</g>
	<path d="M84,3.9v18c0,1.2-0.2,2.3-0.7,3.3c-0.4,1-1,1.9-1.8,2.7c-0.8,0.8-1.6,1.4-2.7,1.8c-1,0.4-2.1,0.7-3.3,0.7
		c-1.2,0-2.2-0.2-3.3-0.7c-1-0.5-1.9-1.1-2.6-1.8c-0.7-0.8-1.3-1.7-1.8-2.7c-0.4-1-0.7-2.1-0.7-3.3v-18h-5v18c0,3.7,1.3,6.9,3.9,9.6
		c2.6,2.7,5.7,4,9.4,4c1.2,0,2.4-0.2,3.5-0.5c1.1-0.3,2.2-0.8,3.2-1.4c1-0.6,1.9-1.3,2.7-2.1c0.8-0.8,1.5-1.7,2.1-2.7
		c0.6-1,1-2.1,1.3-3.2c0.3-1.1,0.5-2.3,0.5-3.6v-18H84z"/>
	<path d="M116.9,30.5c0,0-9.7,0-10.3,0c-8.6,0-10.2-7.5-10.2-11.4c0-3.9,2-10.1,10.2-10.1c1.6,0,10.3,0,10.3,0v-5
		c-4.1,0-6.2,0-10.3,0c-7.2,0-15.2,3.7-15.2,15.2c0,11.7,8.4,16.4,15.2,16.4c4.2,0,5.7,0,10.3,0V30.5z"/>
	<polygon points="141.9,4.5 141.9,17.2 125.2,17.2 125.2,3.9 120.2,3.9 120.2,35.5 125.2,35.5 125.2,22.2 141.9,22.2 141.9,35.5 
		146.9,35.5 146.9,11 	"/>
	
		<linearGradient id="SVGID_1_" gradientUnits="userSpaceOnUse" x1="-77.9349" y1="61.5871" x2="-35.165" y2="36.8939" gradientTransform="matrix(0.866 -0.5 0.5 0.866 71.8731 -41.7661)">
		<stop  offset="0" style="stop-color:#00A6FF"/>
		<stop  offset="1" style="stop-color:#0A87EF"/>
	</linearGradient>
	<path class="st0" d="M43.9,17.7c-1.3,0.1-2.3,1.4-2.3,2.7l0,32c0,0.2,0.3,0.4,0.5,0.2h0c1.2-1,2.6-1.6,4.1-2
		c0.3-0.1,0.5-0.2,0.5-0.6V20.3C46.7,18.8,45.4,17.6,43.9,17.7z"/>
	
		<linearGradient id="SVGID_2_" gradientUnits="userSpaceOnUse" x1="-77.0491" y1="70.0463" x2="-29.9" y2="42.8248" gradientTransform="matrix(0.866 -0.5 0.5 0.866 71.8731 -41.7661)">
		<stop  offset="0" style="stop-color:#00A6FF"/>
		<stop  offset="1" style="stop-color:#0A87EF"/>
	</linearGradient>
	<path class="st1" d="M49.9,29.5c-1.4,0-2.6,1.2-2.6,2.6v17.2c0,0.9,0.7,1.5,1.5,1.5l2.1,0c0.8,0,1.5-0.7,1.5-1.5l0-17.2
		C52.5,30.7,51.3,29.5,49.9,29.5z"/>
	
		<linearGradient id="SVGID_3_" gradientUnits="userSpaceOnUse" x1="-81.2808" y1="62.5699" x2="-34.1036" y2="35.3321" gradientTransform="matrix(0.866 -0.5 0.5 0.866 71.8731 -41.7661)">
		<stop  offset="0" style="stop-color:#00A6FF"/>
		<stop  offset="1" style="stop-color:#0A87EF"/>
	</linearGradient>
	<path class="st2" d="M38.4,34c-1.4,0-2.6,1.2-2.6,2.6v9.1c0,2.9,2.3,5.2,5.1,5.2V36.6C40.9,35.1,39.8,34,38.4,34z"/>
	
		<linearGradient id="SVGID_4_" gradientUnits="userSpaceOnUse" x1="-74.4737" y1="74.5819" x2="-27.3421" y2="47.3705" gradientTransform="matrix(0.866 -0.5 0.5 0.866 71.8731 -41.7661)">
		<stop  offset="0" style="stop-color:#00A6FF"/>
		<stop  offset="1" style="stop-color:#0A87EF"/>
	</linearGradient>
	<path class="st3" d="M56,31.5h-0.8c-1.2,0-2.2,1-2.2,2.2v14.9c0,0.6,0.5,1.1,1.1,1.1h2.9c0.6,0,1.1-0.5,1.1-1.1V33.7
		C58.2,32.5,57.2,31.5,56,31.5z"/>
	
		<linearGradient id="SVGID_5_" gradientUnits="userSpaceOnUse" x1="-72.1252" y1="78.7186" x2="-25.0117" y2="51.5176" gradientTransform="matrix(0.866 -0.5 0.5 0.866 71.8731 -41.7661)">
		<stop  offset="0" style="stop-color:#00A6FF"/>
		<stop  offset="1" style="stop-color:#0A87EF"/>
	</linearGradient>
	<path class="st4" d="M61,35h-0.5c-0.9,0-1.6,0.7-1.6,1.7v11.1c0,0.5,0.5,0.9,1,0.8c2.4-0.5,4.1-2.6,4.1-5.1v-5.4
		C64,36.4,62.6,35,61,35z"/>
	
		<linearGradient id="SVGID_6_" gradientUnits="userSpaceOnUse" x1="-84.2505" y1="57.1919" x2="-37.2658" y2="30.0653" gradientTransform="matrix(0.866 -0.5 0.5 0.866 71.8731 -41.7661)">
		<stop  offset="0" style="stop-color:#00A6FF"/>
		<stop  offset="1" style="stop-color:#0A87EF"/>
	</linearGradient>
	<path class="st5" d="M54.5,28.5c0.2-0.1,0.3-0.1,0.5-0.2c0.4-0.2,0.7-0.5,0.9-0.9c1.1-2.1,1.6-4.5,1.5-6.8
		c-0.2-3.6-1.7-6.9-4.3-9.4l0,0c-2.6-2.4-6-3.7-9.5-3.5C40,7.8,36.7,9.4,34.3,12c-2.4,2.7-3.6,6.1-3.5,9.7c0.2,3.6,1.7,6.9,4.3,9.4
		c0.4,0.4,1,0.6,1.6,0.6c0.6,0,1.2-0.3,1.6-0.7c0.8-0.9,0.8-2.4-0.1-3.3c-1.7-1.6-2.7-3.8-2.8-6.1c-0.2-4.9,3.5-9,8.3-9.2
		c2.3-0.1,4.5,0.7,6.3,2.3c1.7,1.6,2.7,3.8,2.8,6.1c0.1,1.6-0.3,3.1-1,4.5c-0.3,0.5-0.3,1.2-0.2,1.8c0.2,0.6,0.6,1.1,1.1,1.4
		C53.3,28.6,53.9,28.7,54.5,28.5z"/>
	
		<linearGradient id="SVGID_7_" gradientUnits="userSpaceOnUse" x1="-84.2439" y1="57.1771" x2="-37.2663" y2="30.0546" gradientTransform="matrix(0.866 -0.5 0.5 0.866 71.8731 -41.7661)">
		<stop  offset="0" style="stop-color:#00A6FF"/>
		<stop  offset="1" style="stop-color:#0A87EF"/>
	</linearGradient>
	<path class="st6" d="M59.6,31.7c0.5,0.3,1.2,0.3,1.7,0.1c0.2-0.1,0.3-0.1,0.4-0.2c0.4-0.2,0.7-0.5,0.9-1c1.6-3.2,2.4-6.9,2.2-10.5
		c-0.1-2.8-0.8-5.6-2-8.1c-1.2-2.5-2.7-4.7-4.7-6.5c-2-1.9-4.3-3.3-6.8-4.2c-2.6-1-5.3-1.4-8.2-1.3c-2.8,0.1-5.5,0.8-8,2
		c-2.4,1.2-4.6,2.8-6.4,4.8c-1.8,2-3.2,4.3-4.2,6.9c-1,2.7-1.4,5.4-1.3,8.3c0.2,5.4,2.5,10.5,6.3,14.2c0.4,0.4,1.1,0.7,1.7,0.7
		c0.1,0,0.1,0,0.2,0l0.1-5.3c-2.2-2.8-3.5-6.2-3.7-9.8c-0.2-4.4,1.3-8.6,4.3-11.9c2.9-3.3,6.9-5.2,11.2-5.3C47.7,4.5,51.9,6,55.1,9
		c3.2,3,5.1,7,5.3,11.4c0.1,2.8-0.5,5.7-1.7,8.2C58,29.7,58.5,31.1,59.6,31.7z"/>
</g>
<g>
	<path class="st7" d="M34.7,66.4v10.9h-0.4c-0.1,0-0.2-0.1-0.2-0.2L34,75.9c-0.3,0.4-0.7,0.8-1.1,1.1c-0.4,0.3-0.9,0.4-1.5,0.4
		c-0.9,0-1.6-0.3-2.1-0.9c-0.5-0.6-0.7-1.6-0.7-2.8c0-0.5,0.1-1,0.2-1.5c0.1-0.5,0.3-0.9,0.6-1.2c0.3-0.3,0.6-0.6,1-0.8
		c0.4-0.2,0.8-0.3,1.4-0.3c0.5,0,0.9,0.1,1.3,0.3c0.4,0.2,0.7,0.5,0.9,0.8v-4.4H34.7z M34,71.4c-0.3-0.4-0.6-0.7-0.9-0.9
		c-0.3-0.2-0.7-0.3-1.2-0.3c-0.4,0-0.8,0.1-1.1,0.2c-0.3,0.2-0.6,0.4-0.8,0.7c-0.2,0.3-0.4,0.6-0.5,1c-0.1,0.4-0.2,0.9-0.2,1.3
		c0,1.1,0.2,1.9,0.6,2.4c0.4,0.5,1,0.8,1.7,0.8c0.5,0,0.9-0.1,1.3-0.4c0.4-0.3,0.7-0.6,1-1.1V71.4z"/>
	<path class="st7" d="M37.3,73.2v0.1c0,0.6,0.1,1,0.2,1.5c0.1,0.4,0.3,0.8,0.5,1.1c0.2,0.3,0.5,0.5,0.9,0.6c0.3,0.1,0.7,0.2,1.1,0.2
		c0.4,0,0.7,0,1-0.1c0.3-0.1,0.5-0.2,0.7-0.3c0.2-0.1,0.3-0.2,0.4-0.3c0.1-0.1,0.2-0.1,0.2-0.1c0.1,0,0.1,0,0.1,0.1l0.2,0.2
		c-0.1,0.1-0.3,0.3-0.5,0.4c-0.2,0.1-0.4,0.2-0.6,0.3c-0.2,0.1-0.5,0.2-0.8,0.2c-0.3,0.1-0.5,0.1-0.8,0.1c-0.5,0-1-0.1-1.4-0.3
		c-0.4-0.2-0.8-0.4-1.1-0.8C37.3,76,37,75.5,36.9,75c-0.2-0.5-0.2-1.1-0.2-1.7c0-0.5,0.1-1,0.2-1.5c0.1-0.5,0.4-0.8,0.6-1.2
		c0.3-0.3,0.6-0.6,1-0.8c0.4-0.2,0.9-0.3,1.4-0.3c0.4,0,0.8,0.1,1.1,0.2c0.4,0.1,0.7,0.4,0.9,0.6c0.3,0.3,0.5,0.6,0.6,1
		c0.1,0.4,0.2,0.9,0.2,1.4c0,0.1,0,0.2,0,0.2c0,0-0.1,0.1-0.1,0.1H37.3z M42.2,72.8c0-0.4-0.1-0.8-0.2-1.1c-0.1-0.3-0.3-0.6-0.5-0.8
		c-0.2-0.2-0.4-0.4-0.7-0.5c-0.3-0.1-0.6-0.2-0.9-0.2c-0.4,0-0.7,0.1-1,0.2s-0.6,0.3-0.8,0.5c-0.2,0.2-0.4,0.5-0.5,0.8
		c-0.1,0.3-0.2,0.7-0.3,1.1H42.2z"/>
	<path class="st7" d="M48.7,70.7c0,0.1-0.1,0.1-0.2,0.1c-0.1,0-0.1,0-0.2-0.1c-0.1-0.1-0.2-0.1-0.3-0.2c-0.1-0.1-0.3-0.1-0.5-0.2
		c-0.2-0.1-0.5-0.1-0.7-0.1c-0.3,0-0.5,0-0.7,0.1c-0.2,0.1-0.4,0.2-0.6,0.3c-0.2,0.1-0.3,0.3-0.4,0.5c-0.1,0.2-0.1,0.4-0.1,0.5
		c0,0.2,0.1,0.4,0.2,0.6s0.3,0.3,0.5,0.4c0.2,0.1,0.4,0.2,0.6,0.3c0.2,0.1,0.5,0.2,0.7,0.2c0.3,0.1,0.5,0.2,0.7,0.3s0.5,0.2,0.6,0.4
		c0.2,0.1,0.3,0.3,0.5,0.5c0.1,0.2,0.2,0.5,0.2,0.8c0,0.3-0.1,0.6-0.2,0.9c-0.1,0.3-0.3,0.5-0.5,0.7c-0.2,0.2-0.5,0.4-0.8,0.5
		c-0.3,0.1-0.7,0.2-1.1,0.2c-0.5,0-1-0.1-1.3-0.2c-0.4-0.2-0.7-0.4-1-0.7l0.2-0.3c0,0,0.1-0.1,0.1-0.1c0,0,0.1,0,0.1,0
		c0.1,0,0.1,0,0.2,0.1c0.1,0.1,0.2,0.2,0.4,0.3c0.2,0.1,0.3,0.2,0.6,0.3c0.2,0.1,0.5,0.1,0.8,0.1c0.3,0,0.6,0,0.8-0.1
		c0.2-0.1,0.4-0.2,0.6-0.4s0.3-0.3,0.4-0.5c0.1-0.2,0.1-0.4,0.1-0.6c0-0.2-0.1-0.5-0.2-0.6c-0.1-0.2-0.3-0.3-0.5-0.4
		c-0.2-0.1-0.4-0.2-0.6-0.3c-0.2-0.1-0.5-0.2-0.7-0.2c-0.3-0.1-0.5-0.2-0.7-0.3c-0.2-0.1-0.5-0.2-0.6-0.4c-0.2-0.1-0.3-0.3-0.5-0.5
		c-0.1-0.2-0.2-0.5-0.2-0.8c0-0.3,0.1-0.5,0.2-0.8c0.1-0.2,0.3-0.5,0.5-0.6c0.2-0.2,0.5-0.3,0.8-0.4c0.3-0.1,0.6-0.2,1-0.2
		c0.4,0,0.8,0.1,1.2,0.2c0.3,0.1,0.7,0.3,0.9,0.6L48.7,70.7z"/>
	<path class="st7" d="M52,67.2c0,0.1,0,0.2-0.1,0.3c0,0.1-0.1,0.1-0.1,0.2c-0.1,0.1-0.1,0.1-0.2,0.1c-0.1,0-0.2,0.1-0.2,0.1
		c-0.1,0-0.2,0-0.2-0.1c-0.1,0-0.1-0.1-0.2-0.1c-0.1-0.1-0.1-0.1-0.1-0.2c0-0.1-0.1-0.2-0.1-0.3c0-0.1,0-0.2,0.1-0.3
		c0-0.1,0.1-0.2,0.1-0.2c0.1-0.1,0.1-0.1,0.2-0.1c0.1,0,0.2-0.1,0.2-0.1c0.1,0,0.2,0,0.2,0.1c0.1,0,0.1,0.1,0.2,0.1
		c0.1,0.1,0.1,0.1,0.1,0.2C52,67.1,52,67.2,52,67.2z M51.7,69.8v7.4H51v-7.4H51.7z"/>
	<path class="st7" d="M60.1,70.1v0.2c0,0.1-0.1,0.2-0.2,0.2l-1.1,0.1c0.1,0.2,0.2,0.4,0.3,0.6c0.1,0.2,0.1,0.5,0.1,0.8
		c0,0.4-0.1,0.7-0.2,1c-0.1,0.3-0.3,0.5-0.5,0.7c-0.2,0.2-0.5,0.4-0.8,0.5c-0.3,0.1-0.7,0.2-1.1,0.2c-0.4,0-0.8-0.1-1.1-0.2
		c-0.2,0.1-0.4,0.3-0.5,0.4c-0.1,0.2-0.2,0.3-0.2,0.5c0,0.2,0.1,0.4,0.2,0.5c0.1,0.1,0.3,0.2,0.6,0.3c0.2,0.1,0.5,0.1,0.8,0.1
		c0.3,0,0.6,0,0.9,0c0.3,0,0.6,0,1,0.1c0.3,0,0.6,0.1,0.8,0.2c0.2,0.1,0.4,0.3,0.6,0.5c0.1,0.2,0.2,0.5,0.2,0.8
		c0,0.3-0.1,0.6-0.2,0.9c-0.2,0.3-0.4,0.5-0.7,0.8c-0.3,0.2-0.6,0.4-1,0.5S57.2,80,56.7,80c-0.5,0-1-0.1-1.4-0.2
		c-0.4-0.1-0.7-0.3-1-0.4c-0.3-0.2-0.5-0.4-0.6-0.6c-0.1-0.2-0.2-0.5-0.2-0.8c0-0.4,0.1-0.7,0.4-1c0.3-0.3,0.6-0.5,1-0.7
		c-0.2-0.1-0.4-0.2-0.6-0.4c-0.1-0.2-0.2-0.4-0.2-0.7c0-0.1,0-0.2,0.1-0.3c0-0.1,0.1-0.2,0.2-0.3c0.1-0.1,0.2-0.2,0.3-0.3
		c0.1-0.1,0.2-0.2,0.4-0.3c-0.3-0.2-0.6-0.5-0.8-0.8c-0.2-0.3-0.3-0.7-0.3-1.2c0-0.4,0.1-0.7,0.2-1c0.1-0.3,0.3-0.5,0.5-0.8
		c0.2-0.2,0.5-0.4,0.8-0.5c0.3-0.1,0.7-0.2,1.1-0.2c0.3,0,0.6,0,0.9,0.1c0.3,0.1,0.5,0.2,0.7,0.3H60.1z M59.3,77.7
		c0-0.2-0.1-0.4-0.2-0.6c-0.1-0.1-0.3-0.3-0.5-0.3c-0.2-0.1-0.4-0.1-0.7-0.2c-0.3,0-0.5-0.1-0.8-0.1c-0.3,0-0.6,0-0.9,0
		c-0.3,0-0.6,0-0.8-0.1c-0.2,0.1-0.4,0.2-0.5,0.3c-0.2,0.1-0.3,0.2-0.4,0.3c-0.1,0.1-0.2,0.3-0.3,0.4c-0.1,0.1-0.1,0.3-0.1,0.5
		c0,0.2,0.1,0.4,0.2,0.6c0.1,0.2,0.3,0.3,0.5,0.5c0.2,0.1,0.5,0.2,0.8,0.3c0.3,0.1,0.7,0.1,1.1,0.1c0.4,0,0.7,0,1-0.1
		c0.3-0.1,0.6-0.2,0.8-0.4c0.2-0.2,0.4-0.3,0.6-0.6C59.3,78.2,59.3,78,59.3,77.7z M56.6,73.9c0.3,0,0.6,0,0.8-0.1
		c0.2-0.1,0.5-0.2,0.6-0.4c0.2-0.2,0.3-0.4,0.4-0.6c0.1-0.2,0.1-0.5,0.1-0.8c0-0.3,0-0.5-0.1-0.8c-0.1-0.2-0.2-0.4-0.4-0.6
		c-0.2-0.2-0.4-0.3-0.6-0.4c-0.2-0.1-0.5-0.1-0.8-0.1c-0.3,0-0.6,0-0.8,0.1c-0.2,0.1-0.4,0.2-0.6,0.4c-0.2,0.2-0.3,0.4-0.4,0.6
		c-0.1,0.2-0.1,0.5-0.1,0.8c0,0.3,0,0.5,0.1,0.8c0.1,0.2,0.2,0.4,0.4,0.6c0.2,0.2,0.4,0.3,0.6,0.4C56,73.9,56.3,73.9,56.6,73.9z"/>
	<path class="st7" d="M62.4,71.1c0.3-0.4,0.7-0.8,1.2-1c0.4-0.3,0.9-0.4,1.5-0.4c0.4,0,0.8,0.1,1.1,0.2c0.3,0.1,0.6,0.3,0.8,0.6
		c0.2,0.2,0.4,0.5,0.5,0.9c0.1,0.3,0.2,0.7,0.2,1.2v4.7h-0.7v-4.7c0-0.7-0.2-1.2-0.5-1.6c-0.3-0.4-0.8-0.6-1.4-0.6
		c-0.5,0-0.9,0.1-1.3,0.4c-0.4,0.2-0.8,0.6-1.1,1v5.6h-0.7v-7.4h0.4c0.1,0,0.2,0.1,0.2,0.2L62.4,71.1z"/>
	<path class="st7" d="M70,73.2v0.1c0,0.6,0.1,1,0.2,1.5c0.1,0.4,0.3,0.8,0.5,1.1c0.2,0.3,0.5,0.5,0.9,0.6c0.3,0.1,0.7,0.2,1.1,0.2
		c0.4,0,0.7,0,1-0.1c0.3-0.1,0.5-0.2,0.7-0.3c0.2-0.1,0.3-0.2,0.4-0.3C74.9,76,75,76,75.1,76c0.1,0,0.1,0,0.1,0.1l0.2,0.2
		c-0.1,0.1-0.3,0.3-0.5,0.4c-0.2,0.1-0.4,0.2-0.6,0.3c-0.2,0.1-0.5,0.2-0.8,0.2c-0.3,0.1-0.5,0.1-0.8,0.1c-0.5,0-1-0.1-1.4-0.3
		c-0.4-0.2-0.8-0.4-1.1-0.8C70,76,69.8,75.5,69.6,75c-0.2-0.5-0.2-1.1-0.2-1.7c0-0.5,0.1-1,0.2-1.5c0.1-0.5,0.4-0.8,0.6-1.2
		c0.3-0.3,0.6-0.6,1-0.8c0.4-0.2,0.9-0.3,1.4-0.3c0.4,0,0.8,0.1,1.1,0.2c0.4,0.1,0.7,0.4,0.9,0.6c0.3,0.3,0.5,0.6,0.6,1
		c0.1,0.4,0.2,0.9,0.2,1.4c0,0.1,0,0.2,0,0.2c0,0-0.1,0.1-0.1,0.1H70z M74.9,72.8c0-0.4-0.1-0.8-0.2-1.1c-0.1-0.3-0.3-0.6-0.5-0.8
		c-0.2-0.2-0.4-0.4-0.7-0.5c-0.3-0.1-0.6-0.2-0.9-0.2c-0.4,0-0.7,0.1-1,0.2c-0.3,0.1-0.6,0.3-0.8,0.5c-0.2,0.2-0.4,0.5-0.5,0.8
		c-0.1,0.3-0.2,0.7-0.3,1.1H74.9z"/>
	<path class="st7" d="M83.1,66.4v10.9h-0.4c-0.1,0-0.2-0.1-0.2-0.2l-0.1-1.2c-0.3,0.4-0.7,0.8-1.1,1.1c-0.4,0.3-0.9,0.4-1.5,0.4
		c-0.9,0-1.6-0.3-2.1-0.9c-0.5-0.6-0.7-1.6-0.7-2.8c0-0.5,0.1-1,0.2-1.5c0.1-0.5,0.3-0.9,0.6-1.2c0.3-0.3,0.6-0.6,1-0.8
		c0.4-0.2,0.8-0.3,1.4-0.3c0.5,0,0.9,0.1,1.3,0.3c0.4,0.2,0.7,0.5,0.9,0.8v-4.4H83.1z M82.4,71.4c-0.3-0.4-0.6-0.7-0.9-0.9
		c-0.3-0.2-0.7-0.3-1.2-0.3c-0.4,0-0.8,0.1-1.1,0.2c-0.3,0.2-0.6,0.4-0.8,0.7c-0.2,0.3-0.4,0.6-0.5,1c-0.1,0.4-0.2,0.9-0.2,1.3
		c0,1.1,0.2,1.9,0.6,2.4c0.4,0.5,1,0.8,1.7,0.8c0.5,0,0.9-0.1,1.3-0.4c0.4-0.3,0.7-0.6,1-1.1V71.4z"/>
	<path class="st7" d="M90.2,71.1c0.3-0.4,0.7-0.8,1.1-1c0.4-0.3,0.9-0.4,1.5-0.4c0.4,0,0.8,0.1,1.2,0.2c0.3,0.2,0.6,0.4,0.9,0.7
		c0.2,0.3,0.4,0.7,0.6,1.1c0.1,0.4,0.2,1,0.2,1.5c0,0.6-0.1,1.1-0.2,1.6c-0.1,0.5-0.3,0.9-0.6,1.3c-0.3,0.4-0.6,0.6-1,0.8
		c-0.4,0.2-0.8,0.3-1.3,0.3c-0.5,0-1-0.1-1.3-0.3c-0.4-0.2-0.7-0.5-0.9-0.9L90.1,77c0,0.1-0.1,0.2-0.2,0.2h-0.4V66.4h0.7V71.1z
		 M90.2,75.6c0.3,0.4,0.6,0.7,0.9,0.9c0.3,0.2,0.7,0.3,1.1,0.3c0.4,0,0.8-0.1,1.1-0.2c0.3-0.2,0.6-0.4,0.8-0.7
		c0.2-0.3,0.4-0.7,0.5-1.1c0.1-0.4,0.2-0.9,0.2-1.4c0-1-0.2-1.8-0.6-2.3c-0.4-0.5-1-0.8-1.7-0.8c-0.5,0-1,0.1-1.4,0.4
		c-0.4,0.3-0.7,0.6-1,1.1V75.6z"/>
	<path class="st7" d="M103.3,69.8l-4.2,9.8c0,0.1-0.1,0.1-0.1,0.2s-0.1,0.1-0.2,0.1h-0.5l1.3-2.9l-3.1-7.1h0.6c0.1,0,0.1,0,0.2,0.1
		c0,0,0.1,0.1,0.1,0.1l2.5,5.8c0,0.1,0.1,0.2,0.1,0.2c0,0.1,0,0.2,0.1,0.2c0-0.1,0.1-0.2,0.1-0.2c0-0.1,0.1-0.2,0.1-0.2l2.4-5.8
		c0-0.1,0.1-0.1,0.1-0.1c0,0,0.1,0,0.1,0H103.3z"/>
</g>
<g>
	<polygon class="st7" points="133.5,64.1 132.7,64.1 129.8,68.9 126.8,64.1 126,64.1 126,78.5 126.8,78.5 129.8,73.7 132.7,78.5 
		133.5,78.5 133.5,78.5 	"/>
	<polygon class="st7" points="126,64.1 121.7,64.1 126,71.3 121.7,78.5 126,78.5 	"/>
	<polygon class="st7" points="137.9,64.1 133.5,64.1 133.5,78.5 133.5,78.5 137.9,78.5 133.5,71.3 	"/>
	<polygon class="st7" points="125.2,71.3 120.9,64.1 120.9,64.1 120.9,72.8 113.5,64.1 109.1,64.1 109.1,78.5 113.5,78.5 
		113.5,69.8 120.9,78.5 	"/>
	<path class="st7" d="M145.9,69.9c0,0.9-0.4,1.8-1.4,1.8h-5.9v-4.1h5.5c1.3,0,1.8,0.6,1.8,1.5V69.9z M144.8,64.1h-6.2l-4.4,7.2
		l4.4,7.2h0l0-3.2h7.4c3.1,0,4-2.5,4-4.6V69C150,66.2,149,64.1,144.8,64.1"/>
</g>
</svg>
