<?xml version="1.0" encoding="utf-8"?>
<!-- Generator: Adobe Illustrator 22.0.1, SVG Export Plug-In . SVG Version: 6.00 Build 0)  -->
<svg version="1.1" id="Layer_1" xmlns="http://www.w3.org/2000/svg" xmlns:xlink="http://www.w3.org/1999/xlink" x="0px" y="0px"
	 viewBox="0 0 40 40" style="enable-background:new 0 0 40 40;" xml:space="preserve">
<style type="text/css">
	.st0{fill:url(#SVGID_1_);}
	.st1{fill:#FFFFFF;}
	.st2{fill:none;stroke:#FFFFFF;stroke-miterlimit:10;}
</style>
<linearGradient id="SVGID_1_" gradientUnits="userSpaceOnUse" x1="0" y1="22" x2="40" y2="22" gradientTransform="matrix(1 0 0 -1 0 42)">
	<stop  offset="0" style="stop-color:#00A6FF"/>
	<stop  offset="1" style="stop-color:#0A87EF"/>
</linearGradient>
<path class="st0" d="M20,40L20,40C9,40,0,31,0,20l0,0C0,9,9,0,20,0l0,0c11,0,20,9,20,20l0,0C40,31,31,40,20,40z"/>
<g>
	<path class="st1" d="M20,11.5c0.8,0,1.5,0.7,1.5,1.5s-0.7,1.5-1.5,1.5s-1.5-0.7-1.5-1.5S19.2,11.5,20,11.5 M20,10.5
		c-1.4,0-2.5,1.1-2.5,2.5s1.1,2.5,2.5,2.5s2.5-1.1,2.5-2.5S21.4,10.5,20,10.5L20,10.5z"/>
</g>
<g>
	<path class="st1" d="M12.5,11.5c0.8,0,1.5,0.7,1.5,1.5s-0.7,1.5-1.5,1.5S11,13.8,11,13S11.7,11.5,12.5,11.5 M12.5,10.5
		c-1.4,0-2.5,1.1-2.5,2.5s1.1,2.5,2.5,2.5S15,14.4,15,13S13.9,10.5,12.5,10.5L12.5,10.5z"/>
</g>
<g>
	<path class="st1" d="M27.5,11.5c0.8,0,1.5,0.7,1.5,1.5s-0.7,1.5-1.5,1.5S26,13.8,26,13S26.7,11.5,27.5,11.5 M27.5,10.5
		c-1.4,0-2.5,1.1-2.5,2.5s1.1,2.5,2.5,2.5S30,14.4,30,13S28.9,10.5,27.5,10.5L27.5,10.5z"/>
</g>
<line class="st2" x1="22.1" y1="13" x2="25.4" y2="13"/>
<g>
	<path class="st1" d="M12.5,18.5c0.8,0,1.5,0.7,1.5,1.5s-0.7,1.5-1.5,1.5S11,20.8,11,20S11.7,18.5,12.5,18.5 M12.5,17.5
		c-1.4,0-2.5,1.1-2.5,2.5s1.1,2.5,2.5,2.5S15,21.4,15,20S13.9,17.5,12.5,17.5L12.5,17.5z"/>
</g>
<g>
	<path class="st1" d="M20,18.5c0.8,0,1.5,0.7,1.5,1.5s-0.7,1.5-1.5,1.5s-1.5-0.7-1.5-1.5S19.2,18.5,20,18.5 M20,17.5
		c-1.4,0-2.5,1.1-2.5,2.5s1.1,2.5,2.5,2.5s2.5-1.1,2.5-2.5S21.4,17.5,20,17.5L20,17.5z"/>
</g>
<g>
	<path class="st1" d="M27.5,18.5c0.8,0,1.5,0.7,1.5,1.5s-0.7,1.5-1.5,1.5S26,20.8,26,20S26.7,18.5,27.5,18.5 M27.5,17.5
		c-1.4,0-2.5,1.1-2.5,2.5s1.1,2.5,2.5,2.5S30,21.4,30,20S28.9,17.5,27.5,17.5L27.5,17.5z"/>
</g>
<line class="st2" x1="14.8" y1="20" x2="17.8" y2="20"/>
<g>
	<path class="st1" d="M12.5,25.5c0.8,0,1.5,0.7,1.5,1.5s-0.7,1.5-1.5,1.5S11,27.8,11,27S11.7,25.5,12.5,25.5 M12.5,24.5
		c-1.4,0-2.5,1.1-2.5,2.5s1.1,2.5,2.5,2.5S15,28.4,15,27S13.9,24.5,12.5,24.5L12.5,24.5z"/>
</g>
<g>
	<path class="st1" d="M20,25.5c0.8,0,1.5,0.7,1.5,1.5s-0.7,1.5-1.5,1.5s-1.5-0.7-1.5-1.5S19.2,25.5,20,25.5 M20,24.5
		c-1.4,0-2.5,1.1-2.5,2.5s1.1,2.5,2.5,2.5s2.5-1.1,2.5-2.5S21.4,24.5,20,24.5L20,24.5z"/>
</g>
<g>
	<path class="st1" d="M27.5,25.5c0.8,0,1.5,0.7,1.5,1.5s-0.7,1.5-1.5,1.5S26,27.8,26,27S26.7,25.5,27.5,25.5 M27.5,24.5
		c-1.4,0-2.5,1.1-2.5,2.5s1.1,2.5,2.5,2.5S30,28.4,30,27S28.9,24.5,27.5,24.5L27.5,24.5z"/>
</g>
<line class="st2" x1="22.1" y1="27" x2="25.4" y2="27"/>
<circle class="st1" cx="15.7" cy="13" r="0.5"/>
<circle class="st1" cx="16.8" cy="13" r="0.5"/>
<circle class="st1" cx="15.7" cy="27" r="0.5"/>
<circle class="st1" cx="16.8" cy="27" r="0.5"/>
<circle class="st1" cx="23.2" cy="20" r="0.5"/>
<circle class="st1" cx="14.9" cy="24.6" r="0.5"/>
<circle class="st1" cx="15.7" cy="23.8" r="0.5"/>
<circle class="st1" cx="16.6" cy="23" r="0.5"/>
<circle class="st1" cx="17.5" cy="22.1" r="0.5"/>
<circle class="st1" cx="24.3" cy="20" r="0.5"/>
</svg>
