<?xml version="1.0" encoding="utf-8"?>
<!-- Generator: Adobe Illustrator 22.0.1, SVG Export Plug-In . SVG Version: 6.00 Build 0)  -->
<svg version="1.1" id="Layer_1" xmlns="http://www.w3.org/2000/svg" xmlns:xlink="http://www.w3.org/1999/xlink" x="0px" y="0px"
	 viewBox="0 0 30 22" style="enable-background:new 0 0 30 22;" xml:space="preserve">
<style type="text/css">
	.st0{fill:url(#SVGID_1_);}
</style>
<linearGradient id="SVGID_1_" gradientUnits="userSpaceOnUse" x1="3.637979e-12" y1="11" x2="30" y2="11">
	<stop  offset="0" style="stop-color:#00A6FF"/>
	<stop  offset="1" style="stop-color:#0A87EF"/>
</linearGradient>
<path class="st0" d="M26.7,17.1c1-4.2-0.1-8.8-2.8-12c-3-3.8-8-5.6-12.5-5C9.1,0.4,7,1.3,5.2,2.6C3.4,4,1.9,5.7,1.1,7.7
	c-1.8,3.9-1.3,8.7,1.2,12c-2.1-3.6-2-8.1,0-11.4c0.9-1.7,2.4-3.1,4-4.1c1.7-1,3.5-1.5,5.4-1.6c3.8-0.1,7.4,1.8,9.2,4.7
	c1.6,2.4,2,5.5,1.2,8.1L18.1,14l3.7,8l8.2-3.6L26.7,17.1z"/>
</svg>
