<?xml version="1.0" encoding="utf-8"?>
<!-- Generator: Adobe Illustrator 22.0.1, SVG Export Plug-In . SVG Version: 6.00 Build 0)  -->
<svg version="1.1" id="Layer_1" xmlns="http://www.w3.org/2000/svg" xmlns:xlink="http://www.w3.org/1999/xlink" x="0px" y="0px"
	 viewBox="0 0 40 40" style="enable-background:new 0 0 40 40;" xml:space="preserve">
<style type="text/css">
	.st0{fill:url(#SVGID_1_);}
	.st1{fill:#FFFFFF;}
	.st2{fill:none;stroke:#FFFFFF;stroke-width:0.3;stroke-linecap:round;stroke-miterlimit:10;}
</style>
<linearGradient id="SVGID_1_" gradientUnits="userSpaceOnUse" x1="0" y1="22" x2="40" y2="22" gradientTransform="matrix(1 0 0 -1 0 42)">
	<stop  offset="0" style="stop-color:#00A6FF"/>
	<stop  offset="1" style="stop-color:#0A87EF"/>
</linearGradient>
<path class="st0" d="M20,40L20,40C9,40,0,31,0,20l0,0C0,9,9,0,20,0l0,0c11,0,20,9,20,20l0,0C40,31,31,40,20,40z"/>
<path class="st1" d="M28.9,11.4c-0.7-1.1-1.9-0.7-2.9,0.2c-2.6,2.3-7.3,6.4-10,9.1c-1.9,2-2.6,2.8-3.8,3.3c-0.5,0.2-0.7,0.9-0.3,1.3
	c0.8,0.8,2.1,0.7,2.9-0.1c0,0,2.3-2,3.4-3.1c0.4-0.4,2.2-2,3-3c0.2-0.2,0,0.2,0,0.2l-2,2c0,0,0.2,1.5,0.4,3.6s0.9,2.2,3,3.2
	c0.6,0.3,0.9,0.7,1.3,0.9c0.6,0.3,1.4-0.2,1.3-0.9c0-0.8-0.4-1.5-1.1-1.9l-1.9-1.2c0,0-0.2-0.1-0.1-0.4L22,20.2
	c0-0.5,0.1-0.9,0.4-1.3l1.4-1.8l0.1,0.1l-1.3,1.8c-0.3,0.4-0.4,0.8-0.4,1.3c0,0.2,0,0.4,0,0.6l0.4,3.3c0.1,0.6,0.6,1,1.2,0.9
	c1-0.2,1.4-0.9,1.3-1.9c0,0,0.1-1.5,0.2-2c0.2-1,1.1-1.6,1.8-2c0.8-0.4,1.4-1.1,1.9-1.8l1.2-2c0.4-0.7,0.4-1.5,0-2.1L28.9,11.4z"/>
<path class="st2" d="M7.8,17.6c0,0-0.9,12.8,12.8,15.5"/>
<path class="st2" d="M12.4,27.2c1.9,2.2,4.7,4.2,9.3,4.9"/>
<path class="st2" d="M9,16.6c0,0-0.5,3.8,1.5,7.8"/>
<path class="st2" d="M15.4,28.3c1.7,1.2,4,2.3,7.1,2.8"/>
<path class="st2" d="M10.4,16.2c0,0-0.6,2.7,0.6,5.8"/>
</svg>
