<?xml version="1.0" encoding="utf-8"?>
<!-- Generator: Adobe Illustrator 22.0.1, SVG Export Plug-In . SVG Version: 6.00 Build 0)  -->
<svg version="1.1" id="Layer_1" xmlns="http://www.w3.org/2000/svg" xmlns:xlink="http://www.w3.org/1999/xlink" x="0px" y="0px"
	 viewBox="0 0 40 40" style="enable-background:new 0 0 40 40;" xml:space="preserve">
<style type="text/css">
	.st0{fill:#FFFFFF;}
	.st1{fill:url(#SVGID_1_);}
</style>
<g>
	<g>
		<path class="st0" d="M27.8,19.9c-0.2-0.4-0.6-0.7-1-0.7c-0.3,0-0.8,0-1.2,0.2c-0.1-0.2-0.7-1.8-2.7-0.8c0,0-0.3-0.3-0.6-0.5
			c-0.7-0.4-1.2-0.3-1.9,0.3c0-0.4,0-2,0-2.3c0-1,0-1.9,0-2.9c0-0.7-0.5-1.2-1.2-1.3c-0.6-0.1-1.3,0.3-1.5,0.9
			c-0.1,0.2-0.1,0.5-0.1,0.7c0,3.5,0,7,0,10.5c0,0.1,0,0.2,0,0.4c-0.1-0.2-0.2-0.2-0.2-0.3c-0.8-1-1.5-2-2.3-3
			c-0.4-0.6-1.1-0.8-1.8-0.5c-0.8,0.4-1,1.4-0.5,2.1c1.5,1.9,2.9,3.9,4.4,5.8c0.5,0.6,0.9,1.3,1.4,1.8c0.2,0.3,0.3,0.5,0.3,0.8
			c0,0.6,0,1.2,0,1.8c0,0.6,0.3,1,1,1c1.7,0,3.4,0,5.1,0c0.6,0,0.9-0.4,1-1c0-0.5,0-1,0-1.5c0-0.1,0.1-0.3,0.2-0.4
			c1.3-1.1,1.9-2.4,1.9-4.1C28.1,25.1,28,20.3,27.8,19.9z"/>
	</g>
	<g>
		<path class="st0" d="M23.7,10.1c0.8,0,1.4-0.6,1.4-1.4c0-0.8-0.6-1.4-1.4-1.4c-0.8,0-1.4,0.6-1.4,1.4
			C22.3,9.5,22.9,10.1,23.7,10.1z"/>
	</g>
	<g>
		<path class="st0" d="M18.7,10.1c0.8,0,1.4-0.6,1.4-1.4c0-0.8-0.6-1.4-1.4-1.4c-0.8,0-1.5,0.6-1.5,1.4
			C17.2,9.5,17.9,10.1,18.7,10.1z"/>
	</g>
	<g>
		<path class="st0" d="M23.6,14.7c0.8,0,1.4-0.6,1.5-1.4c0-0.8-0.6-1.5-1.4-1.5c-0.8,0-1.4,0.6-1.5,1.4C22.2,14,22.9,14.6,23.6,14.7
			z"/>
	</g>
	<g>
		<path class="st0" d="M13.7,10.1c0.8,0,1.4-0.6,1.4-1.4c0-0.8-0.6-1.4-1.4-1.4c-0.8,0-1.4,0.6-1.4,1.4
			C12.2,9.5,12.9,10.1,13.7,10.1z"/>
	</g>
	<g>
		<path class="st0" d="M13.7,19.2c0.8,0,1.4-0.7,1.4-1.4c0-0.8-0.7-1.4-1.5-1.4c-0.8,0-1.4,0.6-1.4,1.4
			C12.2,18.6,12.9,19.2,13.7,19.2z"/>
	</g>
	<g>
		<path class="st0" d="M13.6,14.7c0.8,0,1.4-0.6,1.4-1.4c0-0.8-0.6-1.4-1.4-1.4c-0.8,0-1.4,0.6-1.4,1.4C12.2,14,12.9,14.7,13.6,14.7
			z"/>
	</g>
</g>
<linearGradient id="SVGID_1_" gradientUnits="userSpaceOnUse" x1="8.003553e-11" y1="20" x2="40" y2="20">
	<stop  offset="0" style="stop-color:#00A6FF"/>
	<stop  offset="1" style="stop-color:#0A87EF"/>
</linearGradient>
<path class="st1" d="M20,40L20,40C9,40,0,31,0,20v0C0,9,9,0,20,0h0c11,0,20,9,20,20v0C40,31,31,40,20,40z"/>
<g>
	<g>
		<path class="st0" d="M32,16.7c-0.5-1.4-1.2-2.8-2.2-4c-1-1.2-2.2-2.2-3.6-2.9c-1.4-0.7-2.9-1.2-4.5-1.4c-1.6-0.2-3.2,0-4.8,0.4
			c-1.6,0.4-3,1.2-4.3,2.2c-1.3,1-2.4,2.3-3.2,3.8c-0.8,1.5-1.4,3.1-1.6,4.8C7.5,21.3,7.6,23,8,24.7c0.4,1.7,1.2,3.3,2.2,4.7
			l5.2-4.2c-1.2-1.3-2-3.2-1.9-5.1c0-1.9,0.9-3.9,2.3-5.3c1.4-1.4,3.5-2.3,5.6-2.3c2.1,0,4.3,0.8,5.9,2.4c0.8,0.8,1.5,1.7,1.9,2.8
			c0.5,1,0.7,2.2,0.8,3.4c0,1.2-0.1,2.4-0.6,3.5c-0.4,1.1-1.1,2.2-1.9,3.1c-1.6,1.8-4.1,3-6.6,3.1c-1.3,0.1-2.6-0.1-3.8-0.5
			c-1.2-0.4-2.4-1.1-3.4-1.9c0.9,1,2,1.8,3.3,2.3c1.2,0.6,2.6,0.9,4,1c2.8,0.1,5.6-0.9,7.8-2.8c1.1-1,2-2.1,2.6-3.4
			c0.7-1.3,1-2.8,1.1-4.3C32.7,19.7,32.5,18.2,32,16.7z"/>
	</g>
	<g>
		<path class="st0" d="M22.4,22c0.3-0.3,0.4-0.7,0.3-1.1l-1.1-7l-1.1,7c-0.1,0.4,0,0.8,0.3,1.1C21.3,22.4,22,22.4,22.4,22z"/>
	</g>
</g>
</svg>
