<?xml version="1.0" encoding="utf-8"?>
<!-- Generator: Adobe Illustrator 22.0.1, SVG Export Plug-In . SVG Version: 6.00 Build 0)  -->
<svg version="1.1" id="Layer_1" xmlns="http://www.w3.org/2000/svg" xmlns:xlink="http://www.w3.org/1999/xlink" x="0px" y="0px"
	 viewBox="0 0 40 40" style="enable-background:new 0 0 40 40;" xml:space="preserve">
<style type="text/css">
	.st0{fill:url(#SVGID_1_);}
	.st1{fill:#FFFFFF;}
</style>
<g>
	<linearGradient id="SVGID_1_" gradientUnits="userSpaceOnUse" x1="8.003553e-11" y1="20" x2="40" y2="20">
		<stop  offset="0" style="stop-color:#00A6FF"/>
		<stop  offset="1" style="stop-color:#0A87EF"/>
	</linearGradient>
	<path class="st0" d="M20,40L20,40C9,40,0,31,0,20v0C0,9,9,0,20,0h0c11,0,20,9,20,20v0C40,31,31,40,20,40z"/>
	<g>
		<g>
			<path class="st1" d="M16.1,25.2c1.7,0,3.4,0,5.1,0c0.2,0,0.3,0,0.3-0.2c0.4-1,1.3-1.6,2.4-1.6c1,0,2,0.6,2.4,1.6
				c0.1,0.1,0.1,0.2,0.3,0.2c0.8,0,1.6,0,2.4,0c0.5,0,0.8,0.3,0.9,0.8c0,0.5-0.3,0.8-0.8,0.8c-0.8,0-1.6,0-2.4,0
				c-0.2,0-0.2,0-0.3,0.2c-0.5,1-1.2,1.6-2.4,1.6c-1.1,0-1.9-0.6-2.4-1.6c-0.1-0.2-0.1-0.2-0.3-0.2c-3.4,0-6.8,0-10.2,0
				c-0.3,0-0.6-0.1-0.8-0.3c-0.2-0.3-0.2-0.5-0.1-0.8c0.1-0.3,0.4-0.4,0.7-0.4c1.2,0,2.4,0,3.7,0C15.1,25.2,15.6,25.2,16.1,25.2
				C16.1,25.2,16.1,25.2,16.1,25.2z"/>
		</g>
		<g>
			<path class="st1" d="M16.1,13.3c1.7,0,3.4,0,5.1,0c0.2,0,0.2,0,0.3-0.2c0.5-1,1.2-1.6,2.4-1.6c1.1,0,1.9,0.5,2.4,1.6
				c0.1,0.2,0.2,0.2,0.3,0.2c0.8,0,1.6,0,2.4,0c0.3,0,0.6,0.1,0.7,0.4c0.2,0.3,0.2,0.5,0,0.8c-0.1,0.3-0.4,0.4-0.7,0.4
				c-0.8,0-1.7,0-2.5,0c-0.2,0-0.2,0.1-0.3,0.2c-0.4,1-1.4,1.6-2.4,1.6c-1,0-2-0.7-2.3-1.6c-0.1-0.1-0.1-0.2-0.3-0.2
				c-3.4,0-6.8,0-10.2,0c-0.1,0-0.2,0-0.3,0c-0.4-0.1-0.6-0.4-0.6-0.7c0-0.4,0.2-0.7,0.6-0.8c0.4,0,0.8,0,1.1,0
				C13.3,13.3,14.7,13.3,16.1,13.3C16.1,13.3,16.1,13.3,16.1,13.3z"/>
		</g>
		<g>
			<path class="st1" d="M23.3,20.8c-1.9,0-3.9,0-5.8,0c-0.1,0-0.2,0-0.3,0.2c-0.4,1-1.3,1.6-2.4,1.6c-1.1,0-2-0.6-2.4-1.6
				c-0.1-0.1-0.1-0.2-0.3-0.2c-0.4,0-0.8,0-1.2,0c-0.5,0-0.8-0.3-0.8-0.8c0-0.4,0.3-0.8,0.8-0.8c0.4,0,0.8,0,1.3,0
				c0.1,0,0.2,0,0.2-0.2c0.4-1,1.3-1.6,2.4-1.6c1,0,1.9,0.6,2.4,1.6c0.1,0.1,0.1,0.2,0.3,0.2c3.9,0,7.7,0,11.6,0
				c0.4,0,0.7,0.2,0.8,0.5c0.2,0.5-0.2,1-0.7,1.1c-0.7,0-1.3,0-2,0C25.8,20.8,24.6,20.8,23.3,20.8z"/>
		</g>
	</g>
</g>
</svg>
