<?xml version="1.0" encoding="utf-8"?>
<!-- Generator: Adobe Illustrator 22.0.1, SVG Export Plug-In . SVG Version: 6.00 Build 0)  -->
<svg version="1.1" id="Layer_1" xmlns="http://www.w3.org/2000/svg" xmlns:xlink="http://www.w3.org/1999/xlink" x="0px" y="0px"
	 viewBox="0 0 14 14" style="enable-background:new 0 0 14 14;" xml:space="preserve">
<style type="text/css">
	.st0{fill:#CC1534;}
	.st1{fill:#FFFFFF;}
</style>
<path class="st0" d="M7,14c-3.9,0-7-3.1-7-7s3.1-7,7-7s7,3.1,7,7S10.9,14,7,14z"/>
<path class="st1" d="M7.7,7L10,4.7c0.3-0.3,0.3-0.6,0.1-0.8c-0.2-0.2-0.5-0.2-0.7,0L7,6.3L4.6,3.9c-0.2-0.2-0.5-0.2-0.7,0
	c-0.2,0.2-0.2,0.5,0,0.7L6.3,7L3.9,9.4c-0.2,0.2-0.2,0.5,0,0.7c0.2,0.2,0.5,0.2,0.7,0L7,7.7L9.3,10c0.2,0.2,0.5,0.2,0.7,0
	s0.2-0.5,0-0.7L7.7,7z"/>
</svg>
