<?xml version="1.0" encoding="utf-8"?>
<!-- Generator: Adobe Illustrator 22.0.1, SVG Export Plug-In . SVG Version: 6.00 Build 0)  -->
<svg version="1.1" id="Layer_1" xmlns="http://www.w3.org/2000/svg" xmlns:xlink="http://www.w3.org/1999/xlink" x="0px" y="0px"
	 viewBox="0 0 14 14" style="enable-background:new 0 0 14 14;" xml:space="preserve">
<style type="text/css">
	.st0{fill:#CC1534;}
</style>
<path class="st0" d="M7,14c-3.9,0-7-3.1-7-7s3.1-7,7-7s7,3.1,7,7S10.9,14,7,14z M7,1C3.7,1,1,3.7,1,7s2.7,6,6,6s6-2.7,6-6
	S10.3,1,7,1z"/>
<path class="st0" d="M10.1,3.9c-0.2-0.2-0.5-0.2-0.7,0L3.9,9.4c-0.2,0.2-0.2,0.5,0,0.7c0.2,0.2,0.5,0.2,0.7,0l5.4-5.4
	C10.3,4.4,10.3,4.1,10.1,3.9z"/>
<path class="st0" d="M3.9,3.9c-0.2,0.2-0.2,0.5,0,0.7l5.4,5.4c0.2,0.2,0.5,0.2,0.7,0c0.2-0.2,0.2-0.5,0-0.7L4.6,3.9
	C4.4,3.7,4.1,3.7,3.9,3.9z"/>
</svg>
