<?xml version="1.0" encoding="UTF-8" standalone="no"?>
<!DOCTYPE svg PUBLIC "-//W3C//DTD SVG 1.1//EN"
 "http://www.w3.org/Graphics/SVG/1.1/DTD/svg11.dtd">
<!-- Generated by graphviz version 2.38.0 (20140413.2041)
 -->
<!-- Title: erpc::RPMsgTransport Pages: 1 -->
<svg width="508pt" height="138pt"
 viewBox="0.00 0.00 508.00 138.00" xmlns="http://www.w3.org/2000/svg" xmlns:xlink="http://www.w3.org/1999/xlink">
<g id="graph0" class="graph" transform="scale(1 1) rotate(0) translate(4 134)">
<title>erpc::RPMsgTransport</title>
<polygon fill="white" stroke="none" points="-4,4 -4,-134 504,-134 504,4 -4,4"/>
<!-- Node1 -->
<g id="node1" class="node"><title>Node1</title>
<polygon fill="#bfbfbf" stroke="black" points="386,-55.5 386,-74.5 500,-74.5 500,-55.5 386,-55.5"/>
<text text-anchor="middle" x="443" y="-62.5" font-family="Helvetica,sans-Serif" font-size="10.00">erpc::RPMsgTransport</text>
</g>
<!-- Node2 -->
<g id="node2" class="node"><title>Node2</title>
<g id="a_node2"><a xlink:href="classerpc_1_1_r_p_msg_base_transport.html" target="_top" xlink:title="Transport that other RPMsg transports inherits. ">
<polygon fill="white" stroke="black" points="123.5,-110.5 123.5,-129.5 260.5,-129.5 260.5,-110.5 123.5,-110.5"/>
<text text-anchor="middle" x="192" y="-117.5" font-family="Helvetica,sans-Serif" font-size="10.00">erpc::RPMsgBaseTransport</text>
</a>
</g>
</g>
<!-- Node2&#45;&gt;Node1 -->
<g id="edge1" class="edge"><title>Node2&#45;&gt;Node1</title>
<path fill="none" stroke="midnightblue" d="M246.055,-108.281C291.513,-98.24 356.181,-83.956 398.605,-74.5853"/>
<polygon fill="midnightblue" stroke="midnightblue" points="245.098,-104.908 236.088,-110.483 246.608,-111.743 245.098,-104.908"/>
</g>
<!-- Node3 -->
<g id="node3" class="node"><title>Node3</title>
<g id="a_node3"><a xlink:href="classerpc_1_1_transport.html" target="_top" xlink:title="Abstract interface for transport layer. ">
<polygon fill="white" stroke="black" points="0,-110.5 0,-129.5 82,-129.5 82,-110.5 0,-110.5"/>
<text text-anchor="middle" x="41" y="-117.5" font-family="Helvetica,sans-Serif" font-size="10.00">erpc::Transport</text>
</a>
</g>
</g>
<!-- Node3&#45;&gt;Node2 -->
<g id="edge2" class="edge"><title>Node3&#45;&gt;Node2</title>
<path fill="none" stroke="midnightblue" d="M92.4217,-120C102.37,-120 112.96,-120 123.369,-120"/>
<polygon fill="midnightblue" stroke="midnightblue" points="92.3216,-116.5 82.3215,-120 92.3215,-123.5 92.3216,-116.5"/>
</g>
<!-- Node4 -->
<g id="node4" class="node"><title>Node4</title>
<g id="a_node4"><a xlink:href="classerpc_1_1_static_queue.html" target="_top" xlink:title="erpc::StaticQueue\&lt;\l erpc::MessageBuffer,\l ERPC_DEFAULT_BUFFERS\l_COUNT \&gt;">
<polygon fill="white" stroke="black" points="119,-39 119,-91 265,-91 265,-39 119,-39"/>
<text text-anchor="start" x="127" y="-79" font-family="Helvetica,sans-Serif" font-size="10.00">erpc::StaticQueue&lt;</text>
<text text-anchor="start" x="127" y="-68" font-family="Helvetica,sans-Serif" font-size="10.00"> erpc::MessageBuffer,</text>
<text text-anchor="start" x="127" y="-57" font-family="Helvetica,sans-Serif" font-size="10.00"> ERPC_DEFAULT_BUFFERS</text>
<text text-anchor="middle" x="192" y="-46" font-family="Helvetica,sans-Serif" font-size="10.00">_COUNT &gt;</text>
</a>
</g>
</g>
<!-- Node4&#45;&gt;Node1 -->
<g id="edge3" class="edge"><title>Node4&#45;&gt;Node1</title>
<path fill="none" stroke="#9a32cd" stroke-dasharray="5,2" d="M275.115,-65C311.458,-65 353.272,-65 385.955,-65"/>
<polygon fill="#9a32cd" stroke="#9a32cd" points="275.021,-61.5001 265.021,-65 275.021,-68.5001 275.021,-61.5001"/>
<text text-anchor="middle" x="325.5" y="-68" font-family="Helvetica,sans-Serif" font-size="10.00"> m_messageQueue</text>
</g>
<!-- Node5 -->
<g id="node5" class="node"><title>Node5</title>
<g id="a_node5"><a xlink:href="classerpc_1_1_crc16.html" target="_top" xlink:title="Class for compute crc16. ">
<polygon fill="white" stroke="black" points="158.5,-0.5 158.5,-19.5 225.5,-19.5 225.5,-0.5 158.5,-0.5"/>
<text text-anchor="middle" x="192" y="-7.5" font-family="Helvetica,sans-Serif" font-size="10.00">erpc::Crc16</text>
</a>
</g>
</g>
<!-- Node5&#45;&gt;Node1 -->
<g id="edge4" class="edge"><title>Node5&#45;&gt;Node1</title>
<path fill="none" stroke="#9a32cd" stroke-dasharray="5,2" d="M235.393,-19.364C280.859,-29.4066 352.689,-45.2727 398.556,-55.404"/>
<polygon fill="#9a32cd" stroke="#9a32cd" points="236.072,-15.9296 225.552,-17.1903 234.562,-22.7648 236.072,-15.9296"/>
<text text-anchor="middle" x="325.5" y="-51" font-family="Helvetica,sans-Serif" font-size="10.00"> m_crcImpl</text>
</g>
</g>
</svg>
