<?xml version="1.0" encoding="UTF-8" standalone="no"?>
<!DOCTYPE svg PUBLIC "-//W3C//DTD SVG 1.1//EN"
 "http://www.w3.org/Graphics/SVG/1.1/DTD/svg11.dtd">
<!-- Generated by graphviz version 2.38.0 (20140413.2041)
 -->
<!-- Title: erpc::FramedTransport Pages: 1 -->
<svg width="417pt" height="370pt"
 viewBox="0.00 0.00 417.00 370.00" xmlns="http://www.w3.org/2000/svg" xmlns:xlink="http://www.w3.org/1999/xlink">
<g id="graph0" class="graph" transform="scale(1 1) rotate(0) translate(4 366)">
<title>erpc::FramedTransport</title>
<polygon fill="white" stroke="none" points="-4,4 -4,-366 413,-366 413,4 -4,4"/>
<!-- Node1 -->
<g id="node1" class="node"><title>Node1</title>
<polygon fill="#bfbfbf" stroke="black" points="118,-171.5 118,-190.5 233,-190.5 233,-171.5 118,-171.5"/>
<text text-anchor="middle" x="175.5" y="-178.5" font-family="Helvetica,sans-Serif" font-size="10.00">erpc::FramedTransport</text>
</g>
<!-- Node3 -->
<g id="node3" class="node"><title>Node3</title>
<g id="a_node3"><a xlink:href="classerpc_1_1_dspi_master_transport.html" target="_top" xlink:title="Very basic transport to send/receive messages via DSPI. ">
<polygon fill="white" stroke="black" points="273.5,-342.5 273.5,-361.5 404.5,-361.5 404.5,-342.5 273.5,-342.5"/>
<text text-anchor="middle" x="339" y="-349.5" font-family="Helvetica,sans-Serif" font-size="10.00">erpc::DspiMasterTransport</text>
</a>
</g>
</g>
<!-- Node1&#45;&gt;Node3 -->
<g id="edge2" class="edge"><title>Node1&#45;&gt;Node3</title>
<path fill="none" stroke="midnightblue" d="M182.842,-200.189C194.554,-232.6 222.697,-298.062 269,-333 274.158,-336.892 280.067,-339.986 286.209,-342.447"/>
<polygon fill="midnightblue" stroke="midnightblue" points="186.084,-198.855 179.497,-190.557 179.471,-201.151 186.084,-198.855"/>
</g>
<!-- Node4 -->
<g id="node4" class="node"><title>Node4</title>
<g id="a_node4"><a xlink:href="classerpc_1_1_dspi_slave_transport.html" target="_top" xlink:title="Very basic transport to send/receive messages via DSPI. ">
<polygon fill="white" stroke="black" points="276.5,-304.5 276.5,-323.5 401.5,-323.5 401.5,-304.5 276.5,-304.5"/>
<text text-anchor="middle" x="339" y="-311.5" font-family="Helvetica,sans-Serif" font-size="10.00">erpc::DspiSlaveTransport</text>
</a>
</g>
</g>
<!-- Node1&#45;&gt;Node4 -->
<g id="edge3" class="edge"><title>Node1&#45;&gt;Node4</title>
<path fill="none" stroke="midnightblue" d="M186.59,-199.625C201.325,-225.043 231.143,-270.256 269,-295 274.928,-298.875 281.637,-301.966 288.486,-304.431"/>
<polygon fill="midnightblue" stroke="midnightblue" points="189.491,-197.642 181.536,-190.644 183.39,-201.075 189.491,-197.642"/>
</g>
<!-- Node5 -->
<g id="node5" class="node"><title>Node5</title>
<g id="a_node5"><a xlink:href="classerpc_1_1_i2c_slave_transport.html" target="_top" xlink:title="Very basic transport to send/receive messages via I2C. ">
<polygon fill="white" stroke="black" points="280,-266.5 280,-285.5 398,-285.5 398,-266.5 280,-266.5"/>
<text text-anchor="middle" x="339" y="-273.5" font-family="Helvetica,sans-Serif" font-size="10.00">erpc::I2cSlaveTransport</text>
</a>
</g>
</g>
<!-- Node1&#45;&gt;Node5 -->
<g id="edge4" class="edge"><title>Node1&#45;&gt;Node5</title>
<path fill="none" stroke="midnightblue" d="M192.612,-197.895C209.947,-215.133 239.077,-241.488 269,-257 276.391,-260.831 284.639,-263.958 292.79,-266.488"/>
<polygon fill="midnightblue" stroke="midnightblue" points="195.027,-195.359 185.517,-190.689 190.039,-200.27 195.027,-195.359"/>
</g>
<!-- Node6 -->
<g id="node6" class="node"><title>Node6</title>
<g id="a_node6"><a xlink:href="classerpc_1_1_serial_transport.html" target="_top" xlink:title="Serial transport layer for host PC. ">
<polygon fill="white" stroke="black" points="285.5,-228.5 285.5,-247.5 392.5,-247.5 392.5,-228.5 285.5,-228.5"/>
<text text-anchor="middle" x="339" y="-235.5" font-family="Helvetica,sans-Serif" font-size="10.00">erpc::SerialTransport</text>
</a>
</g>
</g>
<!-- Node1&#45;&gt;Node6 -->
<g id="edge5" class="edge"><title>Node1&#45;&gt;Node6</title>
<path fill="none" stroke="midnightblue" d="M207.227,-194.718C225.061,-202.403 248.069,-211.848 269,-219 278.994,-222.415 289.958,-225.657 300.147,-228.464"/>
<polygon fill="midnightblue" stroke="midnightblue" points="208.464,-191.44 197.898,-190.656 205.67,-197.858 208.464,-191.44"/>
</g>
<!-- Node7 -->
<g id="node7" class="node"><title>Node7</title>
<g id="a_node7"><a xlink:href="classerpc_1_1_spidev_master_transport.html" target="_top" xlink:title="Very basic transport to send/receive messages via SPIdev. ">
<polygon fill="white" stroke="black" points="269,-190.5 269,-209.5 409,-209.5 409,-190.5 269,-190.5"/>
<text text-anchor="middle" x="339" y="-197.5" font-family="Helvetica,sans-Serif" font-size="10.00">erpc::SpidevMasterTransport</text>
</a>
</g>
</g>
<!-- Node1&#45;&gt;Node7 -->
<g id="edge6" class="edge"><title>Node1&#45;&gt;Node7</title>
<path fill="none" stroke="midnightblue" d="M243.512,-188.884C251.874,-189.867 260.437,-190.875 268.83,-191.862"/>
<polygon fill="midnightblue" stroke="midnightblue" points="243.779,-185.391 233.439,-187.699 242.961,-192.343 243.779,-185.391"/>
</g>
<!-- Node8 -->
<g id="node8" class="node"><title>Node8</title>
<g id="a_node8"><a xlink:href="classerpc_1_1_spi_master_transport.html" target="_top" xlink:title="Very basic transport to send/receive messages via SPI. ">
<polygon fill="white" stroke="black" points="276,-152.5 276,-171.5 402,-171.5 402,-152.5 276,-152.5"/>
<text text-anchor="middle" x="339" y="-159.5" font-family="Helvetica,sans-Serif" font-size="10.00">erpc::SpiMasterTransport</text>
</a>
</g>
</g>
<!-- Node1&#45;&gt;Node8 -->
<g id="edge7" class="edge"><title>Node1&#45;&gt;Node8</title>
<path fill="none" stroke="midnightblue" d="M243.554,-173.111C254.236,-171.855 265.247,-170.559 275.81,-169.316"/>
<polygon fill="midnightblue" stroke="midnightblue" points="242.961,-169.657 233.439,-174.301 243.779,-176.609 242.961,-169.657"/>
</g>
<!-- Node9 -->
<g id="node9" class="node"><title>Node9</title>
<g id="a_node9"><a xlink:href="classerpc_1_1_spi_slave_transport.html" target="_top" xlink:title="Very basic transport to send/receive messages via SPI. ">
<polygon fill="white" stroke="black" points="279.5,-114.5 279.5,-133.5 398.5,-133.5 398.5,-114.5 279.5,-114.5"/>
<text text-anchor="middle" x="339" y="-121.5" font-family="Helvetica,sans-Serif" font-size="10.00">erpc::SpiSlaveTransport</text>
</a>
</g>
</g>
<!-- Node1&#45;&gt;Node9 -->
<g id="edge8" class="edge"><title>Node1&#45;&gt;Node9</title>
<path fill="none" stroke="midnightblue" d="M207.227,-167.282C225.061,-159.597 248.069,-150.152 269,-143 278.994,-139.585 289.958,-136.343 300.147,-133.536"/>
<polygon fill="midnightblue" stroke="midnightblue" points="205.67,-164.142 197.898,-171.344 208.464,-170.56 205.67,-164.142"/>
</g>
<!-- Node10 -->
<g id="node10" class="node"><title>Node10</title>
<g id="a_node10"><a xlink:href="classerpc_1_1_t_c_p_transport.html" target="_top" xlink:title="Client side of TCP/IP transport. ">
<polygon fill="white" stroke="black" points="288.5,-76.5 288.5,-95.5 389.5,-95.5 389.5,-76.5 288.5,-76.5"/>
<text text-anchor="middle" x="339" y="-83.5" font-family="Helvetica,sans-Serif" font-size="10.00">erpc::TCPTransport</text>
</a>
</g>
</g>
<!-- Node1&#45;&gt;Node10 -->
<g id="edge9" class="edge"><title>Node1&#45;&gt;Node10</title>
<path fill="none" stroke="midnightblue" d="M192.612,-164.105C209.947,-146.867 239.077,-120.512 269,-105 276.391,-101.169 284.639,-98.0415 292.79,-95.5122"/>
<polygon fill="midnightblue" stroke="midnightblue" points="190.039,-161.73 185.517,-171.311 195.027,-166.641 190.039,-161.73"/>
</g>
<!-- Node11 -->
<g id="node11" class="node"><title>Node11</title>
<g id="a_node11"><a xlink:href="classerpc_1_1_uart_transport.html" target="_top" xlink:title="Very basic transport to send/receive messages via UART. ">
<polygon fill="white" stroke="black" points="289,-38.5 289,-57.5 389,-57.5 389,-38.5 289,-38.5"/>
<text text-anchor="middle" x="339" y="-45.5" font-family="Helvetica,sans-Serif" font-size="10.00">erpc::UartTransport</text>
</a>
</g>
</g>
<!-- Node1&#45;&gt;Node11 -->
<g id="edge10" class="edge"><title>Node1&#45;&gt;Node11</title>
<path fill="none" stroke="midnightblue" d="M186.59,-162.375C201.325,-136.957 231.143,-91.7441 269,-67 275.032,-63.0572 281.873,-59.9256 288.846,-57.4402"/>
<polygon fill="midnightblue" stroke="midnightblue" points="183.39,-160.925 181.536,-171.356 189.491,-164.358 183.39,-160.925"/>
</g>
<!-- Node12 -->
<g id="node12" class="node"><title>Node12</title>
<g id="a_node12"><a xlink:href="classerpc_1_1_usb_cdc_transport.html" target="_top" xlink:title="Very basic transport to send/receive messages via virtual USB CDC port. ">
<polygon fill="white" stroke="black" points="281,-0.5 281,-19.5 397,-19.5 397,-0.5 281,-0.5"/>
<text text-anchor="middle" x="339" y="-7.5" font-family="Helvetica,sans-Serif" font-size="10.00">erpc::UsbCdcTransport</text>
</a>
</g>
</g>
<!-- Node1&#45;&gt;Node12 -->
<g id="edge11" class="edge"><title>Node1&#45;&gt;Node12</title>
<path fill="none" stroke="midnightblue" d="M182.842,-161.811C194.554,-129.4 222.697,-63.938 269,-29 274.158,-25.1084 280.067,-22.0138 286.209,-19.553"/>
<polygon fill="midnightblue" stroke="midnightblue" points="179.471,-160.849 179.497,-171.443 186.084,-163.145 179.471,-160.849"/>
</g>
<!-- Node2 -->
<g id="node2" class="node"><title>Node2</title>
<g id="a_node2"><a xlink:href="classerpc_1_1_transport.html" target="_top" xlink:title="Abstract interface for transport layer. ">
<polygon fill="white" stroke="black" points="0,-171.5 0,-190.5 82,-190.5 82,-171.5 0,-171.5"/>
<text text-anchor="middle" x="41" y="-178.5" font-family="Helvetica,sans-Serif" font-size="10.00">erpc::Transport</text>
</a>
</g>
</g>
<!-- Node2&#45;&gt;Node1 -->
<g id="edge1" class="edge"><title>Node2&#45;&gt;Node1</title>
<path fill="none" stroke="midnightblue" d="M92.1515,-181C100.563,-181 109.343,-181 117.903,-181"/>
<polygon fill="midnightblue" stroke="midnightblue" points="92.114,-177.5 82.1139,-181 92.1139,-184.5 92.114,-177.5"/>
</g>
</g>
</svg>
