<?xml version="1.0" encoding="UTF-8" standalone="no"?>
<!DOCTYPE svg PUBLIC "-//W3C//DTD SVG 1.1//EN"
 "http://www.w3.org/Graphics/SVG/1.1/DTD/svg11.dtd">
<!-- Generated by graphviz version 2.38.0 (20140413.2041)
 -->
<!-- Title: erpc::FramedTransport Pages: 1 -->
<svg width="417pt" height="332pt"
 viewBox="0.00 0.00 417.00 332.00" xmlns="http://www.w3.org/2000/svg" xmlns:xlink="http://www.w3.org/1999/xlink">
<g id="graph0" class="graph" transform="scale(1 1) rotate(0) translate(4 328)">
<title>erpc::FramedTransport</title>
<polygon fill="white" stroke="none" points="-4,4 -4,-328 413,-328 413,4 -4,4"/>
<!-- Node1 -->
<g id="node1" class="node"><title>Node1</title>
<polygon fill="#bfbfbf" stroke="black" points="118,-152.5 118,-171.5 233,-171.5 233,-152.5 118,-152.5"/>
<text text-anchor="middle" x="175.5" y="-159.5" font-family="Helvetica,sans-Serif" font-size="10.00">erpc::FramedTransport</text>
</g>
<!-- Node3 -->
<g id="node3" class="node"><title>Node3</title>
<g id="a_node3"><a xlink:href="classerpc_1_1_dspi_master_transport.html" target="_top" xlink:title="Very basic transport to send/receive messages via DSPI. ">
<polygon fill="white" stroke="black" points="273.5,-304.5 273.5,-323.5 404.5,-323.5 404.5,-304.5 273.5,-304.5"/>
<text text-anchor="middle" x="339" y="-311.5" font-family="Helvetica,sans-Serif" font-size="10.00">erpc::DspiMasterTransport</text>
</a>
</g>
</g>
<!-- Node1&#45;&gt;Node3 -->
<g id="edge2" class="edge"><title>Node1&#45;&gt;Node3</title>
<path fill="none" stroke="midnightblue" d="M184.618,-181.225C197.907,-210.333 227.084,-265.335 269,-295 274.477,-298.876 280.713,-301.962 287.145,-304.419"/>
<polygon fill="midnightblue" stroke="midnightblue" points="187.685,-179.504 180.447,-171.767 181.28,-182.329 187.685,-179.504"/>
</g>
<!-- Node4 -->
<g id="node4" class="node"><title>Node4</title>
<g id="a_node4"><a xlink:href="classerpc_1_1_dspi_slave_transport.html" target="_top" xlink:title="Very basic transport to send/receive messages via DSPI. ">
<polygon fill="white" stroke="black" points="276.5,-266.5 276.5,-285.5 401.5,-285.5 401.5,-266.5 276.5,-266.5"/>
<text text-anchor="middle" x="339" y="-273.5" font-family="Helvetica,sans-Serif" font-size="10.00">erpc::DspiSlaveTransport</text>
</a>
</g>
</g>
<!-- Node1&#45;&gt;Node4 -->
<g id="edge3" class="edge"><title>Node1&#45;&gt;Node4</title>
<path fill="none" stroke="midnightblue" d="M189.219,-179.983C205.355,-201.471 235.185,-237.018 269,-257 275.525,-260.856 282.858,-263.953 290.244,-266.434"/>
<polygon fill="midnightblue" stroke="midnightblue" points="191.902,-177.723 183.17,-171.721 186.254,-181.858 191.902,-177.723"/>
</g>
<!-- Node5 -->
<g id="node5" class="node"><title>Node5</title>
<g id="a_node5"><a xlink:href="classerpc_1_1_serial_transport.html" target="_top" xlink:title="Serial transport layer for host PC. ">
<polygon fill="white" stroke="black" points="285.5,-228.5 285.5,-247.5 392.5,-247.5 392.5,-228.5 285.5,-228.5"/>
<text text-anchor="middle" x="339" y="-235.5" font-family="Helvetica,sans-Serif" font-size="10.00">erpc::SerialTransport</text>
</a>
</g>
</g>
<!-- Node1&#45;&gt;Node5 -->
<g id="edge4" class="edge"><title>Node1&#45;&gt;Node5</title>
<path fill="none" stroke="midnightblue" d="M197.955,-177.665C216.113,-190.309 243.225,-207.782 269,-219 277.431,-222.669 286.753,-225.805 295.747,-228.408"/>
<polygon fill="midnightblue" stroke="midnightblue" points="199.513,-174.479 189.33,-171.552 195.465,-180.19 199.513,-174.479"/>
</g>
<!-- Node6 -->
<g id="node6" class="node"><title>Node6</title>
<g id="a_node6"><a xlink:href="classerpc_1_1_spidev_master_transport.html" target="_top" xlink:title="Very basic transport to send/receive messages via SPIdev. ">
<polygon fill="white" stroke="black" points="269,-190.5 269,-209.5 409,-209.5 409,-190.5 269,-190.5"/>
<text text-anchor="middle" x="339" y="-197.5" font-family="Helvetica,sans-Serif" font-size="10.00">erpc::SpidevMasterTransport</text>
</a>
</g>
</g>
<!-- Node1&#45;&gt;Node6 -->
<g id="edge5" class="edge"><title>Node1&#45;&gt;Node6</title>
<path fill="none" stroke="midnightblue" d="M227.058,-173.896C249.759,-179.237 276.178,-185.454 297.54,-190.48"/>
<polygon fill="midnightblue" stroke="midnightblue" points="227.789,-170.473 217.253,-171.589 226.186,-177.286 227.789,-170.473"/>
</g>
<!-- Node7 -->
<g id="node7" class="node"><title>Node7</title>
<g id="a_node7"><a xlink:href="classerpc_1_1_spi_master_transport.html" target="_top" xlink:title="Very basic transport to send/receive messages via SPI. ">
<polygon fill="white" stroke="black" points="276,-152.5 276,-171.5 402,-171.5 402,-152.5 276,-152.5"/>
<text text-anchor="middle" x="339" y="-159.5" font-family="Helvetica,sans-Serif" font-size="10.00">erpc::SpiMasterTransport</text>
</a>
</g>
</g>
<!-- Node1&#45;&gt;Node7 -->
<g id="edge6" class="edge"><title>Node1&#45;&gt;Node7</title>
<path fill="none" stroke="midnightblue" d="M243.554,-162C254.236,-162 265.247,-162 275.81,-162"/>
<polygon fill="midnightblue" stroke="midnightblue" points="243.439,-158.5 233.439,-162 243.439,-165.5 243.439,-158.5"/>
</g>
<!-- Node8 -->
<g id="node8" class="node"><title>Node8</title>
<g id="a_node8"><a xlink:href="classerpc_1_1_spi_slave_transport.html" target="_top" xlink:title="Very basic transport to send/receive messages via SPI. ">
<polygon fill="white" stroke="black" points="279.5,-114.5 279.5,-133.5 398.5,-133.5 398.5,-114.5 279.5,-114.5"/>
<text text-anchor="middle" x="339" y="-121.5" font-family="Helvetica,sans-Serif" font-size="10.00">erpc::SpiSlaveTransport</text>
</a>
</g>
</g>
<!-- Node1&#45;&gt;Node8 -->
<g id="edge7" class="edge"><title>Node1&#45;&gt;Node8</title>
<path fill="none" stroke="midnightblue" d="M227.058,-150.104C249.759,-144.763 276.178,-138.546 297.54,-133.52"/>
<polygon fill="midnightblue" stroke="midnightblue" points="226.186,-146.714 217.253,-152.411 227.789,-153.527 226.186,-146.714"/>
</g>
<!-- Node9 -->
<g id="node9" class="node"><title>Node9</title>
<g id="a_node9"><a xlink:href="classerpc_1_1_t_c_p_transport.html" target="_top" xlink:title="Client side of TCP/IP transport. ">
<polygon fill="white" stroke="black" points="288.5,-76.5 288.5,-95.5 389.5,-95.5 389.5,-76.5 288.5,-76.5"/>
<text text-anchor="middle" x="339" y="-83.5" font-family="Helvetica,sans-Serif" font-size="10.00">erpc::TCPTransport</text>
</a>
</g>
</g>
<!-- Node1&#45;&gt;Node9 -->
<g id="edge8" class="edge"><title>Node1&#45;&gt;Node9</title>
<path fill="none" stroke="midnightblue" d="M197.955,-146.335C216.113,-133.691 243.225,-116.218 269,-105 277.431,-101.331 286.753,-98.1955 295.747,-95.5917"/>
<polygon fill="midnightblue" stroke="midnightblue" points="195.465,-143.81 189.33,-152.448 199.513,-149.521 195.465,-143.81"/>
</g>
<!-- Node10 -->
<g id="node10" class="node"><title>Node10</title>
<g id="a_node10"><a xlink:href="classerpc_1_1_uart_transport.html" target="_top" xlink:title="Very basic transport to send/receive messages via UART. ">
<polygon fill="white" stroke="black" points="289,-38.5 289,-57.5 389,-57.5 389,-38.5 289,-38.5"/>
<text text-anchor="middle" x="339" y="-45.5" font-family="Helvetica,sans-Serif" font-size="10.00">erpc::UartTransport</text>
</a>
</g>
</g>
<!-- Node1&#45;&gt;Node10 -->
<g id="edge9" class="edge"><title>Node1&#45;&gt;Node10</title>
<path fill="none" stroke="midnightblue" d="M189.219,-144.017C205.355,-122.529 235.185,-86.982 269,-67 275.525,-63.1441 282.858,-60.0471 290.244,-57.5661"/>
<polygon fill="midnightblue" stroke="midnightblue" points="186.254,-142.142 183.17,-152.279 191.902,-146.277 186.254,-142.142"/>
</g>
<!-- Node11 -->
<g id="node11" class="node"><title>Node11</title>
<g id="a_node11"><a xlink:href="classerpc_1_1_usb_cdc_transport.html" target="_top" xlink:title="Very basic transport to send/receive messages via virtual USB CDC port. ">
<polygon fill="white" stroke="black" points="281,-0.5 281,-19.5 397,-19.5 397,-0.5 281,-0.5"/>
<text text-anchor="middle" x="339" y="-7.5" font-family="Helvetica,sans-Serif" font-size="10.00">erpc::UsbCdcTransport</text>
</a>
</g>
</g>
<!-- Node1&#45;&gt;Node11 -->
<g id="edge10" class="edge"><title>Node1&#45;&gt;Node11</title>
<path fill="none" stroke="midnightblue" d="M184.618,-142.775C197.907,-113.667 227.084,-58.6655 269,-29 274.477,-25.1239 280.713,-22.0377 287.145,-19.5805"/>
<polygon fill="midnightblue" stroke="midnightblue" points="181.28,-141.671 180.447,-152.233 187.685,-144.496 181.28,-141.671"/>
</g>
<!-- Node2 -->
<g id="node2" class="node"><title>Node2</title>
<g id="a_node2"><a xlink:href="classerpc_1_1_transport.html" target="_top" xlink:title="Abstract interface for transport layer. ">
<polygon fill="white" stroke="black" points="0,-152.5 0,-171.5 82,-171.5 82,-152.5 0,-152.5"/>
<text text-anchor="middle" x="41" y="-159.5" font-family="Helvetica,sans-Serif" font-size="10.00">erpc::Transport</text>
</a>
</g>
</g>
<!-- Node2&#45;&gt;Node1 -->
<g id="edge1" class="edge"><title>Node2&#45;&gt;Node1</title>
<path fill="none" stroke="midnightblue" d="M92.1515,-162C100.563,-162 109.343,-162 117.903,-162"/>
<polygon fill="midnightblue" stroke="midnightblue" points="92.114,-158.5 82.1139,-162 92.1139,-165.5 92.114,-158.5"/>
</g>
</g>
</svg>
