<?xml version="1.0" encoding="UTF-8" standalone="no"?>
<!DOCTYPE svg PUBLIC "-//W3C//DTD SVG 1.1//EN"
 "http://www.w3.org/Graphics/SVG/1.1/DTD/svg11.dtd">
<!-- Generated by graphviz version 2.38.0 (20140413.2041)
 -->
<!-- Title: erpc::Transport Pages: 1 -->
<svg width="475pt" height="541pt"
 viewBox="0.00 0.00 475.00 541.00" xmlns="http://www.w3.org/2000/svg" xmlns:xlink="http://www.w3.org/1999/xlink">
<g id="graph0" class="graph" transform="scale(1 1) rotate(0) translate(4 537)">
<title>erpc::Transport</title>
<polygon fill="white" stroke="none" points="-4,4 -4,-537 471,-537 471,4 -4,4"/>
<!-- Node1 -->
<g id="node1" class="node"><title>Node1</title>
<polygon fill="#bfbfbf" stroke="black" points="0,-133.5 0,-152.5 82,-152.5 82,-133.5 0,-133.5"/>
<text text-anchor="middle" x="41" y="-140.5" font-family="Helvetica,sans-Serif" font-size="10.00">erpc::Transport</text>
</g>
<!-- Node2 -->
<g id="node2" class="node"><title>Node2</title>
<g id="a_node2"><a xlink:href="classerpc_1_1_framed_transport.html" target="_top" xlink:title="Base class for framed transport layers. ">
<polygon fill="white" stroke="black" points="138,-266.5 138,-285.5 253,-285.5 253,-266.5 138,-266.5"/>
<text text-anchor="middle" x="195.5" y="-273.5" font-family="Helvetica,sans-Serif" font-size="10.00">erpc::FramedTransport</text>
</a>
</g>
</g>
<!-- Node1&#45;&gt;Node2 -->
<g id="edge1" class="edge"><title>Node1&#45;&gt;Node2</title>
<path fill="none" stroke="midnightblue" d="M49.4717,-162.095C60.5056,-187.724 83.6324,-232.82 118,-257 123.932,-261.173 130.686,-264.433 137.669,-266.979"/>
<polygon fill="midnightblue" stroke="midnightblue" points="52.6514,-160.625 45.602,-152.715 46.1805,-163.294 52.6514,-160.625"/>
</g>
<!-- Node16 -->
<g id="node16" class="node"><title>Node16</title>
<g id="a_node16"><a xlink:href="classerpc_1_1_inter_thread_buffer_transport.html" target="_top" xlink:title="Very basic transport to send/receive messages between threads. ">
<polygon fill="white" stroke="black" points="118,-228.5 118,-247.5 273,-247.5 273,-228.5 118,-228.5"/>
<text text-anchor="middle" x="195.5" y="-235.5" font-family="Helvetica,sans-Serif" font-size="10.00">erpc::InterThreadBufferTransport</text>
</a>
</g>
</g>
<!-- Node1&#45;&gt;Node16 -->
<g id="edge16" class="edge"><title>Node1&#45;&gt;Node16</title>
<path fill="none" stroke="midnightblue" d="M55.0575,-160.819C68.7916,-178.265 91.9931,-204.302 118,-219 124.91,-222.905 132.616,-226.016 140.402,-228.492"/>
<polygon fill="midnightblue" stroke="midnightblue" points="57.6227,-158.411 48.7737,-152.585 52.0579,-162.658 57.6227,-158.411"/>
</g>
<!-- Node17 -->
<g id="node17" class="node"><title>Node17</title>
<g id="a_node17"><a xlink:href="classerpc_1_1_m_b_o_x_transport.html" target="_top" xlink:title="Transport to send/receive messages via MBOX. ">
<polygon fill="white" stroke="black" points="140.5,-190.5 140.5,-209.5 250.5,-209.5 250.5,-190.5 140.5,-190.5"/>
<text text-anchor="middle" x="195.5" y="-197.5" font-family="Helvetica,sans-Serif" font-size="10.00">erpc::MBOXTransport</text>
</a>
</g>
</g>
<!-- Node1&#45;&gt;Node17 -->
<g id="edge17" class="edge"><title>Node1&#45;&gt;Node17</title>
<path fill="none" stroke="midnightblue" d="M67.2873,-157.406C81.7816,-165.21 100.517,-174.548 118,-181 127.886,-184.648 138.745,-187.821 149.099,-190.474"/>
<polygon fill="midnightblue" stroke="midnightblue" points="68.8811,-154.288 58.4307,-152.545 65.5129,-160.425 68.8811,-154.288"/>
</g>
<!-- Node18 -->
<g id="node18" class="node"><title>Node18</title>
<g id="a_node18"><a xlink:href="classerpc_1_1_m_u_transport.html" target="_top" xlink:title="Transport that uses Messaging Unit (MU) for interprocessor messaging. ">
<polygon fill="white" stroke="black" points="147,-152.5 147,-171.5 244,-171.5 244,-152.5 147,-152.5"/>
<text text-anchor="middle" x="195.5" y="-159.5" font-family="Helvetica,sans-Serif" font-size="10.00">erpc::MUTransport</text>
</a>
</g>
</g>
<!-- Node1&#45;&gt;Node18 -->
<g id="edge18" class="edge"><title>Node1&#45;&gt;Node18</title>
<path fill="none" stroke="midnightblue" d="M92.151,-149.248C109.748,-151.441 129.453,-153.896 146.839,-156.062"/>
<polygon fill="midnightblue" stroke="midnightblue" points="92.4236,-145.755 82.0676,-147.992 91.5581,-152.702 92.4236,-145.755"/>
</g>
<!-- Node19 -->
<g id="node19" class="node"><title>Node19</title>
<g id="a_node19"><a xlink:href="classerpc_1_1_r_p_msg_linux_transport.html" target="_top" xlink:title="RPMSG Linux transport to send/receive messages through RPMSG endpoints based on github.com/nxp&#45;mcuxpresso/rpmsg&#45;sysfs/tree/0aa1817545a765c200b1b2f9b6680a420dcf9171 implementation. ">
<polygon fill="white" stroke="black" points="127,-114.5 127,-133.5 264,-133.5 264,-114.5 127,-114.5"/>
<text text-anchor="middle" x="195.5" y="-121.5" font-family="Helvetica,sans-Serif" font-size="10.00">erpc::RPMsgLinuxTransport</text>
</a>
</g>
</g>
<!-- Node1&#45;&gt;Node19 -->
<g id="edge19" class="edge"><title>Node1&#45;&gt;Node19</title>
<path fill="none" stroke="midnightblue" d="M92.0524,-136.764C103.221,-135.372 115.244,-133.874 126.987,-132.411"/>
<polygon fill="midnightblue" stroke="midnightblue" points="91.5581,-133.298 82.0676,-138.008 92.4236,-140.245 91.5581,-133.298"/>
</g>
<!-- Node20 -->
<g id="node20" class="node"><title>Node20</title>
<g id="a_node20"><a xlink:href="classerpc_1_1_r_p_msg_r_t_o_s_transport.html" target="_top" xlink:title="Transport that uses RPMsg zero copy RTOS API for interprocessor messaging. ">
<polygon fill="white" stroke="black" points="125.5,-76.5 125.5,-95.5 265.5,-95.5 265.5,-76.5 125.5,-76.5"/>
<text text-anchor="middle" x="195.5" y="-83.5" font-family="Helvetica,sans-Serif" font-size="10.00">erpc::RPMsgRTOSTransport</text>
</a>
</g>
</g>
<!-- Node1&#45;&gt;Node20 -->
<g id="edge20" class="edge"><title>Node1&#45;&gt;Node20</title>
<path fill="none" stroke="midnightblue" d="M67.2873,-128.594C81.7816,-120.79 100.517,-111.452 118,-105 127.886,-101.352 138.745,-98.1792 149.099,-95.5263"/>
<polygon fill="midnightblue" stroke="midnightblue" points="65.5129,-125.575 58.4307,-133.455 68.8811,-131.712 65.5129,-125.575"/>
</g>
<!-- Node21 -->
<g id="node21" class="node"><title>Node21</title>
<g id="a_node21"><a xlink:href="classerpc_1_1_r_p_msg_transport.html" target="_top" xlink:title="Transport that uses RPMsg zero copy API for interprocessor messaging. ">
<polygon fill="white" stroke="black" points="138.5,-38.5 138.5,-57.5 252.5,-57.5 252.5,-38.5 138.5,-38.5"/>
<text text-anchor="middle" x="195.5" y="-45.5" font-family="Helvetica,sans-Serif" font-size="10.00">erpc::RPMsgTransport</text>
</a>
</g>
</g>
<!-- Node1&#45;&gt;Node21 -->
<g id="edge21" class="edge"><title>Node1&#45;&gt;Node21</title>
<path fill="none" stroke="midnightblue" d="M55.0575,-125.181C68.7916,-107.735 91.9931,-81.6984 118,-67 124.91,-63.0947 132.616,-59.9837 140.402,-57.5075"/>
<polygon fill="midnightblue" stroke="midnightblue" points="52.0579,-123.342 48.7737,-133.415 57.6227,-127.589 52.0579,-123.342"/>
</g>
<!-- Node22 -->
<g id="node22" class="node"><title>Node22</title>
<g id="a_node22"><a xlink:href="classerpc_1_1_transport_arbitrator.html" target="_top" xlink:title="Interposer to share transport between client and server. ">
<polygon fill="white" stroke="black" points="134.5,-0.5 134.5,-19.5 256.5,-19.5 256.5,-0.5 134.5,-0.5"/>
<text text-anchor="middle" x="195.5" y="-7.5" font-family="Helvetica,sans-Serif" font-size="10.00">erpc::TransportArbitrator</text>
</a>
</g>
</g>
<!-- Node1&#45;&gt;Node22 -->
<g id="edge22" class="edge"><title>Node1&#45;&gt;Node22</title>
<path fill="none" stroke="midnightblue" d="M49.4717,-123.905C60.5056,-98.2756 83.6324,-53.18 118,-29 123.484,-25.1415 129.672,-22.064 136.092,-19.6099"/>
<polygon fill="midnightblue" stroke="midnightblue" points="46.1805,-122.706 45.602,-133.285 52.6514,-125.375 46.1805,-122.706"/>
</g>
<!-- Node3 -->
<g id="node3" class="node"><title>Node3</title>
<g id="a_node3"><a xlink:href="classerpc_1_1_dspi_master_transport.html" target="_top" xlink:title="Very basic transport to send/receive messages via DSPI. ">
<polygon fill="white" stroke="black" points="322.5,-513.5 322.5,-532.5 453.5,-532.5 453.5,-513.5 322.5,-513.5"/>
<text text-anchor="middle" x="388" y="-520.5" font-family="Helvetica,sans-Serif" font-size="10.00">erpc::DspiMasterTransport</text>
</a>
</g>
</g>
<!-- Node2&#45;&gt;Node3 -->
<g id="edge2" class="edge"><title>Node2&#45;&gt;Node3</title>
<path fill="none" stroke="midnightblue" d="M200.327,-295.669C210.037,-340.097 239.93,-448.638 309,-504 313.785,-507.835 319.23,-510.914 324.965,-513.382"/>
<polygon fill="midnightblue" stroke="midnightblue" points="203.697,-294.682 198.237,-285.602 196.843,-296.104 203.697,-294.682"/>
</g>
<!-- Node4 -->
<g id="node4" class="node"><title>Node4</title>
<g id="a_node4"><a xlink:href="classerpc_1_1_dspi_slave_transport.html" target="_top" xlink:title="Very basic transport to send/receive messages via DSPI. ">
<polygon fill="white" stroke="black" points="325.5,-475.5 325.5,-494.5 450.5,-494.5 450.5,-475.5 325.5,-475.5"/>
<text text-anchor="middle" x="388" y="-482.5" font-family="Helvetica,sans-Serif" font-size="10.00">erpc::DspiSlaveTransport</text>
</a>
</g>
</g>
<!-- Node2&#45;&gt;Node4 -->
<g id="edge3" class="edge"><title>Node2&#45;&gt;Node4</title>
<path fill="none" stroke="midnightblue" d="M202.268,-295.28C214.889,-334.01 248.745,-421.365 309,-466 314.264,-469.899 320.224,-473.007 326.447,-475.483"/>
<polygon fill="midnightblue" stroke="midnightblue" points="205.602,-294.214 199.268,-285.721 198.924,-296.31 205.602,-294.214"/>
</g>
<!-- Node5 -->
<g id="node5" class="node"><title>Node5</title>
<g id="a_node5"><a xlink:href="classerpc_1_1_i2c_slave_transport.html" target="_top" xlink:title="Very basic transport to send/receive messages via I2C. ">
<polygon fill="white" stroke="black" points="329,-437.5 329,-456.5 447,-456.5 447,-437.5 329,-437.5"/>
<text text-anchor="middle" x="388" y="-444.5" font-family="Helvetica,sans-Serif" font-size="10.00">erpc::I2cSlaveTransport</text>
</a>
</g>
</g>
<!-- Node2&#45;&gt;Node5 -->
<g id="edge4" class="edge"><title>Node2&#45;&gt;Node5</title>
<path fill="none" stroke="midnightblue" d="M205.065,-294.942C220.785,-327.47 257.425,-393.744 309,-428 315.037,-432.01 321.84,-435.175 328.848,-437.672"/>
<polygon fill="midnightblue" stroke="midnightblue" points="208.121,-293.215 200.704,-285.65 201.784,-296.19 208.121,-293.215"/>
</g>
<!-- Node6 -->
<g id="node6" class="node"><title>Node6</title>
<g id="a_node6"><a xlink:href="classerpc_1_1_l_p_i2c_slave_transport.html" target="_top" xlink:title="Very basic transport to send/receive messages via LPI2C. ">
<polygon fill="white" stroke="black" points="323,-399.5 323,-418.5 453,-418.5 453,-399.5 323,-399.5"/>
<text text-anchor="middle" x="388" y="-406.5" font-family="Helvetica,sans-Serif" font-size="10.00">erpc::LPI2cSlaveTransport</text>
</a>
</g>
</g>
<!-- Node2&#45;&gt;Node6 -->
<g id="edge5" class="edge"><title>Node2&#45;&gt;Node6</title>
<path fill="none" stroke="midnightblue" d="M209.152,-294.07C227.941,-319.497 265.691,-365.462 309,-390 315.791,-393.848 323.343,-396.921 330.999,-399.375"/>
<polygon fill="midnightblue" stroke="midnightblue" points="211.806,-291.767 203.113,-285.71 206.132,-295.866 211.806,-291.767"/>
</g>
<!-- Node7 -->
<g id="node7" class="node"><title>Node7</title>
<g id="a_node7"><a xlink:href="classerpc_1_1_l_p_spi_slave_transport.html" target="_top" xlink:title="Very basic transport to send/receive messages via LPSPI. ">
<polygon fill="white" stroke="black" points="322.5,-361.5 322.5,-380.5 453.5,-380.5 453.5,-361.5 322.5,-361.5"/>
<text text-anchor="middle" x="388" y="-368.5" font-family="Helvetica,sans-Serif" font-size="10.00">erpc::LPSpiSlaveTransport</text>
</a>
</g>
</g>
<!-- Node2&#45;&gt;Node7 -->
<g id="edge6" class="edge"><title>Node2&#45;&gt;Node7</title>
<path fill="none" stroke="midnightblue" d="M215.809,-292.22C237.265,-309.452 273.573,-336.326 309,-352 317.54,-355.778 326.952,-358.88 336.196,-361.401"/>
<polygon fill="midnightblue" stroke="midnightblue" points="217.787,-289.316 207.828,-285.701 213.359,-294.737 217.787,-289.316"/>
</g>
<!-- Node8 -->
<g id="node8" class="node"><title>Node8</title>
<g id="a_node8"><a xlink:href="classerpc_1_1_r_p_msg_t_t_y_r_t_o_s_transport.html" target="_top" xlink:title="Transport that uses RPMsg zero copy RTOS API for interprocessor messaging. ">
<polygon fill="white" stroke="black" points="309,-323.5 309,-342.5 467,-342.5 467,-323.5 309,-323.5"/>
<text text-anchor="middle" x="388" y="-330.5" font-family="Helvetica,sans-Serif" font-size="10.00">erpc::RPMsgTTYRTOSTransport</text>
</a>
</g>
</g>
<!-- Node2&#45;&gt;Node8 -->
<g id="edge7" class="edge"><title>Node2&#45;&gt;Node8</title>
<path fill="none" stroke="midnightblue" d="M232.249,-288.96C254.236,-296.71 283.074,-306.479 309,-314 320.512,-317.339 333.092,-320.579 344.723,-323.41"/>
<polygon fill="midnightblue" stroke="midnightblue" points="233.258,-285.605 222.664,-285.557 230.916,-292.201 233.258,-285.605"/>
</g>
<!-- Node9 -->
<g id="node9" class="node"><title>Node9</title>
<g id="a_node9"><a xlink:href="classerpc_1_1_serial_transport.html" target="_top" xlink:title="Serial transport layer for host PC. ">
<polygon fill="white" stroke="black" points="334.5,-285.5 334.5,-304.5 441.5,-304.5 441.5,-285.5 334.5,-285.5"/>
<text text-anchor="middle" x="388" y="-292.5" font-family="Helvetica,sans-Serif" font-size="10.00">erpc::SerialTransport</text>
</a>
</g>
</g>
<!-- Node2&#45;&gt;Node9 -->
<g id="edge8" class="edge"><title>Node2&#45;&gt;Node9</title>
<path fill="none" stroke="midnightblue" d="M263.314,-282.664C286.646,-284.991 312.484,-287.568 334.485,-289.762"/>
<polygon fill="midnightblue" stroke="midnightblue" points="263.439,-279.159 253.141,-281.649 262.744,-286.124 263.439,-279.159"/>
</g>
<!-- Node10 -->
<g id="node10" class="node"><title>Node10</title>
<g id="a_node10"><a xlink:href="classerpc_1_1_spidev_master_transport.html" target="_top" xlink:title="Very basic transport to send/receive messages via SPIdev. ">
<polygon fill="white" stroke="black" points="318,-247.5 318,-266.5 458,-266.5 458,-247.5 318,-247.5"/>
<text text-anchor="middle" x="388" y="-254.5" font-family="Helvetica,sans-Serif" font-size="10.00">erpc::SpidevMasterTransport</text>
</a>
</g>
</g>
<!-- Node2&#45;&gt;Node10 -->
<g id="edge9" class="edge"><title>Node2&#45;&gt;Node10</title>
<path fill="none" stroke="midnightblue" d="M263.334,-269.334C280.961,-267.576 300.018,-265.675 317.769,-263.905"/>
<polygon fill="midnightblue" stroke="midnightblue" points="262.744,-265.876 253.141,-270.351 263.439,-272.841 262.744,-265.876"/>
</g>
<!-- Node11 -->
<g id="node11" class="node"><title>Node11</title>
<g id="a_node11"><a xlink:href="classerpc_1_1_spi_master_transport.html" target="_top" xlink:title="Very basic transport to send/receive messages via SPI. ">
<polygon fill="white" stroke="black" points="325,-209.5 325,-228.5 451,-228.5 451,-209.5 325,-209.5"/>
<text text-anchor="middle" x="388" y="-216.5" font-family="Helvetica,sans-Serif" font-size="10.00">erpc::SpiMasterTransport</text>
</a>
</g>
</g>
<!-- Node2&#45;&gt;Node11 -->
<g id="edge10" class="edge"><title>Node2&#45;&gt;Node11</title>
<path fill="none" stroke="midnightblue" d="M252.807,-263.676C259.687,-261.685 266.557,-259.458 273,-257 289.903,-250.55 292.083,-244.412 309,-238 318.775,-234.295 329.517,-231.131 339.821,-228.507"/>
<polygon fill="midnightblue" stroke="midnightblue" points="251.489,-260.408 242.768,-266.424 253.338,-267.16 251.489,-260.408"/>
</g>
<!-- Node12 -->
<g id="node12" class="node"><title>Node12</title>
<g id="a_node12"><a xlink:href="classerpc_1_1_spi_slave_transport.html" target="_top" xlink:title="Very basic transport to send/receive messages via SPI. ">
<polygon fill="white" stroke="black" points="328.5,-171.5 328.5,-190.5 447.5,-190.5 447.5,-171.5 328.5,-171.5"/>
<text text-anchor="middle" x="388" y="-178.5" font-family="Helvetica,sans-Serif" font-size="10.00">erpc::SpiSlaveTransport</text>
</a>
</g>
</g>
<!-- Node2&#45;&gt;Node12 -->
<g id="edge11" class="edge"><title>Node2&#45;&gt;Node12</title>
<path fill="none" stroke="midnightblue" d="M262.489,-263.255C266.185,-261.439 269.724,-259.366 273,-257 297.291,-239.458 284.67,-217.488 309,-200 314.772,-195.851 321.34,-192.602 328.157,-190.057"/>
<polygon fill="midnightblue" stroke="midnightblue" points="260.877,-260.137 253.034,-267.261 263.608,-266.582 260.877,-260.137"/>
</g>
<!-- Node13 -->
<g id="node13" class="node"><title>Node13</title>
<g id="a_node13"><a xlink:href="classerpc_1_1_t_c_p_transport.html" target="_top" xlink:title="Client side of TCP/IP transport. ">
<polygon fill="white" stroke="black" points="337.5,-133.5 337.5,-152.5 438.5,-152.5 438.5,-133.5 337.5,-133.5"/>
<text text-anchor="middle" x="388" y="-140.5" font-family="Helvetica,sans-Serif" font-size="10.00">erpc::TCPTransport</text>
</a>
</g>
</g>
<!-- Node2&#45;&gt;Node13 -->
<g id="edge12" class="edge"><title>Node2&#45;&gt;Node13</title>
<path fill="none" stroke="midnightblue" d="M262.373,-264.395C266.188,-262.307 269.776,-259.862 273,-257 306.766,-227.024 275.166,-191.9 309,-162 316.937,-154.986 327.036,-150.461 337.314,-147.567"/>
<polygon fill="midnightblue" stroke="midnightblue" points="260.75,-261.289 253.126,-268.646 263.674,-267.649 260.75,-261.289"/>
</g>
<!-- Node14 -->
<g id="node14" class="node"><title>Node14</title>
<g id="a_node14"><a xlink:href="classerpc_1_1_uart_transport.html" target="_top" xlink:title="Very basic transport to send/receive messages via UART. ">
<polygon fill="white" stroke="black" points="338,-95.5 338,-114.5 438,-114.5 438,-95.5 338,-95.5"/>
<text text-anchor="middle" x="388" y="-102.5" font-family="Helvetica,sans-Serif" font-size="10.00">erpc::UartTransport</text>
</a>
</g>
</g>
<!-- Node2&#45;&gt;Node14 -->
<g id="edge13" class="edge"><title>Node2&#45;&gt;Node14</title>
<path fill="none" stroke="midnightblue" d="M242.452,-264.039C253.647,-260.888 264.757,-256.072 273,-248 316.752,-205.153 265.151,-157.748 309,-115 316.784,-107.411 327.066,-102.683 337.601,-100.031"/>
<polygon fill="midnightblue" stroke="midnightblue" points="241.552,-260.656 232.662,-266.419 243.206,-267.457 241.552,-260.656"/>
</g>
<!-- Node2&#45;&gt;Node14 -->
<g id="edge14" class="edge"><title>Node2&#45;&gt;Node14</title>
<path fill="none" stroke="midnightblue" d="M262.504,-273.849C266.316,-271.669 269.865,-269.07 273,-266 316.752,-223.153 265.151,-175.748 309,-133 319.678,-122.59 335.057,-117.562 349.341,-114.58"/>
<polygon fill="midnightblue" stroke="midnightblue" points="260.781,-270.791 253.209,-278.201 263.749,-277.131 260.781,-270.791"/>
</g>
<!-- Node15 -->
<g id="node15" class="node"><title>Node15</title>
<g id="a_node15"><a xlink:href="classerpc_1_1_usb_cdc_transport.html" target="_top" xlink:title="Very basic transport to send/receive messages via virtual USB CDC port. ">
<polygon fill="white" stroke="black" points="330,-57.5 330,-76.5 446,-76.5 446,-57.5 330,-57.5"/>
<text text-anchor="middle" x="388" y="-64.5" font-family="Helvetica,sans-Serif" font-size="10.00">erpc::UsbCdcTransport</text>
</a>
</g>
</g>
<!-- Node2&#45;&gt;Node15 -->
<g id="edge15" class="edge"><title>Node2&#45;&gt;Node15</title>
<path fill="none" stroke="midnightblue" d="M262.189,-265.375C266.15,-263.066 269.814,-260.302 273,-257 326.922,-201.104 254.952,-141.775 309,-86 314.723,-80.0946 321.95,-75.9021 329.686,-72.9465"/>
<polygon fill="midnightblue" stroke="midnightblue" points="260.608,-262.251 253.109,-269.735 263.639,-268.561 260.608,-262.251"/>
</g>
</g>
</svg>
