<?xml version="1.0" encoding="UTF-8" standalone="no"?>
<!DOCTYPE svg PUBLIC "-//W3C//DTD SVG 1.1//EN"
 "http://www.w3.org/Graphics/SVG/1.1/DTD/svg11.dtd">
<!-- Generated by graphviz version 2.38.0 (20140413.2041)
 -->
<!-- Title: erpc::ClientManager Pages: 1 -->
<svg width="377pt" height="142pt"
 viewBox="0.00 0.00 377.00 142.00" xmlns="http://www.w3.org/2000/svg" xmlns:xlink="http://www.w3.org/1999/xlink">
<g id="graph0" class="graph" transform="scale(1 1) rotate(0) translate(4 138)">
<title>erpc::ClientManager</title>
<polygon fill="white" stroke="none" points="-4,4 -4,-138 373,-138 373,4 -4,4"/>
<!-- Node1 -->
<g id="node1" class="node"><title>Node1</title>
<polygon fill="#bfbfbf" stroke="black" points="265,-57.5 265,-76.5 369,-76.5 369,-57.5 265,-57.5"/>
<text text-anchor="middle" x="317" y="-64.5" font-family="Helvetica,sans-Serif" font-size="10.00">erpc::ClientManager</text>
</g>
<!-- Node2 -->
<g id="node2" class="node"><title>Node2</title>
<g id="a_node2"><a xlink:href="classerpc_1_1_client_server_common.html" target="_top" xlink:title="Common class inheritand by client and server class. ">
<polygon fill="white" stroke="black" points="3.5,-114.5 3.5,-133.5 135.5,-133.5 135.5,-114.5 3.5,-114.5"/>
<text text-anchor="middle" x="69.5" y="-121.5" font-family="Helvetica,sans-Serif" font-size="10.00">erpc::ClientServerCommon</text>
</a>
</g>
</g>
<!-- Node2&#45;&gt;Node1 -->
<g id="edge1" class="edge"><title>Node2&#45;&gt;Node1</title>
<path fill="none" stroke="midnightblue" d="M145.741,-113.954C177.314,-108.923 214.236,-101.966 247,-93 263.052,-88.6075 280.594,-81.9714 293.974,-76.5031"/>
<polygon fill="midnightblue" stroke="midnightblue" points="145.032,-110.522 135.69,-115.519 146.109,-117.438 145.032,-110.522"/>
</g>
<!-- Node3 -->
<g id="node3" class="node"><title>Node3</title>
<g id="a_node3"><a xlink:href="classerpc_1_1_codec_factory.html" target="_top" xlink:title="Abstract interface for codec factory. ">
<polygon fill="white" stroke="black" points="18.5,-76.5 18.5,-95.5 120.5,-95.5 120.5,-76.5 18.5,-76.5"/>
<text text-anchor="middle" x="69.5" y="-83.5" font-family="Helvetica,sans-Serif" font-size="10.00">erpc::CodecFactory</text>
</a>
</g>
</g>
<!-- Node3&#45;&gt;Node1 -->
<g id="edge2" class="edge"><title>Node3&#45;&gt;Node1</title>
<path fill="none" stroke="#9a32cd" stroke-dasharray="5,2" d="M130.944,-81.3221C172.093,-78.1374 225.955,-73.9689 264.951,-70.9509"/>
<polygon fill="#9a32cd" stroke="#9a32cd" points="130.473,-77.8479 120.773,-82.1092 131.013,-84.8271 130.473,-77.8479"/>
<text text-anchor="middle" x="202" y="-81" font-family="Helvetica,sans-Serif" font-size="10.00"> m_codecFactory</text>
</g>
<!-- Node4 -->
<g id="node4" class="node"><title>Node4</title>
<g id="a_node4"><a xlink:href="classerpc_1_1_transport.html" target="_top" xlink:title="Abstract interface for transport layer. ">
<polygon fill="white" stroke="black" points="28.5,-38.5 28.5,-57.5 110.5,-57.5 110.5,-38.5 28.5,-38.5"/>
<text text-anchor="middle" x="69.5" y="-45.5" font-family="Helvetica,sans-Serif" font-size="10.00">erpc::Transport</text>
</a>
</g>
</g>
<!-- Node4&#45;&gt;Node1 -->
<g id="edge3" class="edge"><title>Node4&#45;&gt;Node1</title>
<path fill="none" stroke="#9a32cd" stroke-dasharray="5,2" d="M120.61,-49.3148C155.99,-50.5459 204.477,-52.8435 247,-57 252.783,-57.5652 258.822,-58.27 264.82,-59.0422"/>
<polygon fill="#9a32cd" stroke="#9a32cd" points="120.645,-45.8141 110.535,-48.9806 120.413,-52.8102 120.645,-45.8141"/>
<text text-anchor="middle" x="202" y="-60" font-family="Helvetica,sans-Serif" font-size="10.00"> m_transport</text>
</g>
<!-- Node5 -->
<g id="node5" class="node"><title>Node5</title>
<g id="a_node5"><a xlink:href="classerpc_1_1_message_buffer_factory.html" target="_top" xlink:title="Abstract interface for message buffer factory. ">
<polygon fill="white" stroke="black" points="0,-0.5 0,-19.5 139,-19.5 139,-0.5 0,-0.5"/>
<text text-anchor="middle" x="69.5" y="-7.5" font-family="Helvetica,sans-Serif" font-size="10.00">erpc::MessageBufferFactory</text>
</a>
</g>
</g>
<!-- Node5&#45;&gt;Node1 -->
<g id="edge4" class="edge"><title>Node5&#45;&gt;Node1</title>
<path fill="none" stroke="#9a32cd" stroke-dasharray="5,2" d="M149.652,-16.2038C180.467,-19.9121 215.803,-25.7762 247,-35 265.488,-40.4662 285.331,-50.1057 298.97,-57.3804"/>
<polygon fill="#9a32cd" stroke="#9a32cd" points="149.721,-12.6889 139.387,-15.0272 148.923,-19.6433 149.721,-12.6889"/>
<text text-anchor="middle" x="202" y="-38" font-family="Helvetica,sans-Serif" font-size="10.00"> m_messageFactory</text>
</g>
</g>
</svg>
