<?xml version="1.0" encoding="UTF-8" standalone="no"?>
<!DOCTYPE svg PUBLIC "-//W3C//DTD SVG 1.1//EN"
 "http://www.w3.org/Graphics/SVG/1.1/DTD/svg11.dtd">
<!-- Generated by graphviz version 2.38.0 (20140413.2041)
 -->
<!-- Title: erpc::RPMsgTransport Pages: 1 -->
<svg width="508pt" height="100pt"
 viewBox="0.00 0.00 508.00 99.50" xmlns="http://www.w3.org/2000/svg" xmlns:xlink="http://www.w3.org/1999/xlink">
<g id="graph0" class="graph" transform="scale(1 1) rotate(0) translate(4 95.5)">
<title>erpc::RPMsgTransport</title>
<polygon fill="white" stroke="none" points="-4,4 -4,-95.5 504,-95.5 504,4 -4,4"/>
<!-- Node1 -->
<g id="node1" class="node"><title>Node1</title>
<polygon fill="#bfbfbf" stroke="black" points="386,-37 386,-56 500,-56 500,-37 386,-37"/>
<text text-anchor="middle" x="443" y="-44" font-family="Helvetica,sans-Serif" font-size="10.00">erpc::RPMsgTransport</text>
</g>
<!-- Node2 -->
<g id="node2" class="node"><title>Node2</title>
<g id="a_node2"><a xlink:href="classerpc_1_1_r_p_msg_base_transport.html" target="_top" xlink:title="Transport that other RPMsg transports inherits. ">
<polygon fill="white" stroke="black" points="123.5,-72 123.5,-91 260.5,-91 260.5,-72 123.5,-72"/>
<text text-anchor="middle" x="192" y="-79" font-family="Helvetica,sans-Serif" font-size="10.00">erpc::RPMsgBaseTransport</text>
</a>
</g>
</g>
<!-- Node2&#45;&gt;Node1 -->
<g id="edge1" class="edge"><title>Node2&#45;&gt;Node1</title>
<path fill="none" stroke="midnightblue" d="M271.008,-70.535C308.17,-65.3115 351.784,-59.181 385.663,-54.4188"/>
<polygon fill="midnightblue" stroke="midnightblue" points="270.127,-67.1244 260.711,-71.9823 271.101,-74.0562 270.127,-67.1244"/>
</g>
<!-- Node3 -->
<g id="node3" class="node"><title>Node3</title>
<g id="a_node3"><a xlink:href="classerpc_1_1_transport.html" target="_top" xlink:title="Abstract interface for transport layer. ">
<polygon fill="white" stroke="black" points="0,-72 0,-91 82,-91 82,-72 0,-72"/>
<text text-anchor="middle" x="41" y="-79" font-family="Helvetica,sans-Serif" font-size="10.00">erpc::Transport</text>
</a>
</g>
</g>
<!-- Node3&#45;&gt;Node2 -->
<g id="edge2" class="edge"><title>Node3&#45;&gt;Node2</title>
<path fill="none" stroke="midnightblue" d="M92.4217,-81.5C102.37,-81.5 112.96,-81.5 123.369,-81.5"/>
<polygon fill="midnightblue" stroke="midnightblue" points="92.3216,-78.0001 82.3215,-81.5 92.3215,-85.0001 92.3216,-78.0001"/>
</g>
<!-- Node4 -->
<g id="node4" class="node"><title>Node4</title>
<g id="a_node4"><a xlink:href="classerpc_1_1_static_queue.html" target="_top" xlink:title="erpc::StaticQueue\&lt;\l erpc::MessageBuffer,\l ERPC_DEFAULT_BUFFERS\l_COUNT \&gt;">
<polygon fill="white" stroke="black" points="119,-0.5 119,-52.5 265,-52.5 265,-0.5 119,-0.5"/>
<text text-anchor="start" x="127" y="-40.5" font-family="Helvetica,sans-Serif" font-size="10.00">erpc::StaticQueue&lt;</text>
<text text-anchor="start" x="127" y="-29.5" font-family="Helvetica,sans-Serif" font-size="10.00"> erpc::MessageBuffer,</text>
<text text-anchor="start" x="127" y="-18.5" font-family="Helvetica,sans-Serif" font-size="10.00"> ERPC_DEFAULT_BUFFERS</text>
<text text-anchor="middle" x="192" y="-7.5" font-family="Helvetica,sans-Serif" font-size="10.00">_COUNT &gt;</text>
</a>
</g>
</g>
<!-- Node4&#45;&gt;Node1 -->
<g id="edge3" class="edge"><title>Node4&#45;&gt;Node1</title>
<path fill="none" stroke="#9a32cd" stroke-dasharray="5,2" d="M275.115,-33.0955C311.458,-36.0147 353.272,-39.3733 385.955,-41.9984"/>
<polygon fill="#9a32cd" stroke="#9a32cd" points="275.269,-29.5968 265.021,-32.2848 274.709,-36.5743 275.269,-29.5968"/>
<text text-anchor="middle" x="325.5" y="-43.5" font-family="Helvetica,sans-Serif" font-size="10.00"> m_messageQueue</text>
</g>
</g>
</svg>
