<?xml version="1.0" encoding="UTF-8" standalone="no"?>
<!DOCTYPE svg PUBLIC "-//W3C//DTD SVG 1.1//EN"
 "http://www.w3.org/Graphics/SVG/1.1/DTD/svg11.dtd">
<!-- Generated by graphviz version 2.38.0 (20140413.2041)
 -->
<!-- Title: erpc::ArbitratedClientManager Pages: 1 -->
<svg width="1162pt" height="343pt"
 viewBox="0.00 0.00 1162.00 342.50" xmlns="http://www.w3.org/2000/svg" xmlns:xlink="http://www.w3.org/1999/xlink">
<g id="graph0" class="graph" transform="scale(1 1) rotate(0) translate(4 338.5)">
<title>erpc::ArbitratedClientManager</title>
<polygon fill="white" stroke="none" points="-4,4 -4,-338.5 1158,-338.5 1158,4 -4,4"/>
<!-- Node1 -->
<g id="node1" class="node"><title>Node1</title>
<polygon fill="#bfbfbf" stroke="black" points="1008,-202 1008,-221 1154,-221 1154,-202 1008,-202"/>
<text text-anchor="middle" x="1081" y="-209" font-family="Helvetica,sans-Serif" font-size="10.00">erpc::ArbitratedClientManager</text>
</g>
<!-- Node2 -->
<g id="node2" class="node"><title>Node2</title>
<g id="a_node2"><a xlink:href="classerpc_1_1_client_manager.html" target="_top" xlink:title="Base client implementation. ">
<polygon fill="white" stroke="black" points="804,-241 804,-260 908,-260 908,-241 804,-241"/>
<text text-anchor="middle" x="856" y="-248" font-family="Helvetica,sans-Serif" font-size="10.00">erpc::ClientManager</text>
</a>
</g>
</g>
<!-- Node2&#45;&gt;Node1 -->
<g id="edge1" class="edge"><title>Node2&#45;&gt;Node1</title>
<path fill="none" stroke="midnightblue" d="M918.317,-239.776C951.894,-233.904 993.144,-226.69 1025.57,-221.018"/>
<polygon fill="midnightblue" stroke="midnightblue" points="917.408,-236.382 908.161,-241.553 918.614,-243.277 917.408,-236.382"/>
</g>
<!-- Node3 -->
<g id="node3" class="node"><title>Node3</title>
<g id="a_node3"><a xlink:href="classerpc_1_1_client_server_common.html" target="_top" xlink:title="Common class inheritand by client and server class. ">
<polygon fill="white" stroke="black" points="533.5,-315 533.5,-334 665.5,-334 665.5,-315 533.5,-315"/>
<text text-anchor="middle" x="599.5" y="-322" font-family="Helvetica,sans-Serif" font-size="10.00">erpc::ClientServerCommon</text>
</a>
</g>
</g>
<!-- Node3&#45;&gt;Node2 -->
<g id="edge2" class="edge"><title>Node3&#45;&gt;Node2</title>
<path fill="none" stroke="midnightblue" d="M675.953,-315.473C707.713,-310.378 744.716,-302.717 777,-291.5 800.122,-283.467 824.81,-269.459 840.075,-260.084"/>
<polygon fill="midnightblue" stroke="midnightblue" points="675.186,-312.05 665.839,-317.038 676.256,-318.968 675.186,-312.05"/>
</g>
<!-- Node4 -->
<g id="node4" class="node"><title>Node4</title>
<g id="a_node4"><a xlink:href="classerpc_1_1_codec_factory.html" target="_top" xlink:title="Abstract interface for codec factory. ">
<polygon fill="white" stroke="black" points="548.5,-277 548.5,-296 650.5,-296 650.5,-277 548.5,-277"/>
<text text-anchor="middle" x="599.5" y="-284" font-family="Helvetica,sans-Serif" font-size="10.00">erpc::CodecFactory</text>
</a>
</g>
</g>
<!-- Node4&#45;&gt;Node2 -->
<g id="edge3" class="edge"><title>Node4&#45;&gt;Node2</title>
<path fill="none" stroke="#9a32cd" stroke-dasharray="5,2" d="M661.085,-279.761C695.197,-275.763 738.543,-270.344 777,-264.5 785.841,-263.157 795.221,-261.593 804.297,-260.007"/>
<polygon fill="#9a32cd" stroke="#9a32cd" points="660.34,-276.324 650.811,-280.955 661.148,-283.277 660.34,-276.324"/>
<text text-anchor="middle" x="732" y="-279.5" font-family="Helvetica,sans-Serif" font-size="10.00"> m_codecFactory</text>
</g>
<!-- Node5 -->
<g id="node5" class="node"><title>Node5</title>
<g id="a_node5"><a xlink:href="classerpc_1_1_transport.html" target="_top" xlink:title="Abstract interface for transport layer. ">
<polygon fill="white" stroke="black" points="558.5,-174 558.5,-193 640.5,-193 640.5,-174 558.5,-174"/>
<text text-anchor="middle" x="599.5" y="-181" font-family="Helvetica,sans-Serif" font-size="10.00">erpc::Transport</text>
</a>
</g>
</g>
<!-- Node5&#45;&gt;Node2 -->
<g id="edge4" class="edge"><title>Node5&#45;&gt;Node2</title>
<path fill="none" stroke="#9a32cd" stroke-dasharray="5,2" d="M646.472,-195.603C695.813,-208.592 773.191,-228.963 818.519,-240.896"/>
<polygon fill="#9a32cd" stroke="#9a32cd" points="647.255,-192.19 636.693,-193.028 645.473,-198.959 647.255,-192.19"/>
<text text-anchor="middle" x="732" y="-232.5" font-family="Helvetica,sans-Serif" font-size="10.00"> m_transport</text>
</g>
<!-- Node7 -->
<g id="node7" class="node"><title>Node7</title>
<g id="a_node7"><a xlink:href="classerpc_1_1_transport_arbitrator.html" target="_top" xlink:title="Interposer to share transport between client and server. ">
<polygon fill="white" stroke="black" points="795,-127 795,-146 917,-146 917,-127 795,-127"/>
<text text-anchor="middle" x="856" y="-134" font-family="Helvetica,sans-Serif" font-size="10.00">erpc::TransportArbitrator</text>
</a>
</g>
</g>
<!-- Node5&#45;&gt;Node7 -->
<g id="edge7" class="edge"><title>Node5&#45;&gt;Node7</title>
<path fill="none" stroke="midnightblue" d="M650.849,-183.769C686.532,-182.932 735.283,-179.695 777,-169.5 798.425,-164.264 821.522,-153.834 836.976,-146.095"/>
<polygon fill="midnightblue" stroke="midnightblue" points="650.619,-180.273 640.684,-183.952 650.745,-187.272 650.619,-180.273"/>
</g>
<!-- Node5&#45;&gt;Node7 -->
<g id="edge12" class="edge"><title>Node5&#45;&gt;Node7</title>
<path fill="none" stroke="#9a32cd" stroke-dasharray="5,2" d="M636.333,-170.689C651.753,-165.602 670.089,-160.114 687,-156.5 722.331,-148.95 762.494,-144.038 794.689,-140.972"/>
<polygon fill="#9a32cd" stroke="#9a32cd" points="635.022,-167.437 626.665,-173.95 637.259,-174.07 635.022,-167.437"/>
<text text-anchor="middle" x="732" y="-159.5" font-family="Helvetica,sans-Serif" font-size="10.00"> m_sharedTransport</text>
</g>
<!-- Node6 -->
<g id="node6" class="node"><title>Node6</title>
<g id="a_node6"><a xlink:href="classerpc_1_1_message_buffer_factory.html" target="_top" xlink:title="Abstract interface for message buffer factory. ">
<polygon fill="white" stroke="black" points="530,-239 530,-258 669,-258 669,-239 530,-239"/>
<text text-anchor="middle" x="599.5" y="-246" font-family="Helvetica,sans-Serif" font-size="10.00">erpc::MessageBufferFactory</text>
</a>
</g>
</g>
<!-- Node6&#45;&gt;Node2 -->
<g id="edge5" class="edge"><title>Node6&#45;&gt;Node2</title>
<path fill="none" stroke="#9a32cd" stroke-dasharray="5,2" d="M679.165,-249.118C719.712,-249.437 768.003,-249.816 803.709,-250.097"/>
<polygon fill="#9a32cd" stroke="#9a32cd" points="679.063,-245.617 669.036,-249.039 679.008,-252.617 679.063,-245.617"/>
<text text-anchor="middle" x="732" y="-253.5" font-family="Helvetica,sans-Serif" font-size="10.00"> m_messageFactory</text>
</g>
<!-- Node7&#45;&gt;Node1 -->
<g id="edge6" class="edge"><title>Node7&#45;&gt;Node1</title>
<path fill="none" stroke="#9a32cd" stroke-dasharray="5,2" d="M895.257,-149.367C939.601,-164.281 1011.66,-188.517 1051.41,-201.886"/>
<polygon fill="#9a32cd" stroke="#9a32cd" points="896.291,-146.022 885.697,-146.151 894.059,-152.657 896.291,-146.022"/>
<text text-anchor="middle" x="962.5" y="-184.5" font-family="Helvetica,sans-Serif" font-size="10.00"> m_arbitrator</text>
</g>
<!-- Node8 -->
<g id="node8" class="node"><title>Node8</title>
<g id="a_node8"><a xlink:href="classerpc_1_1_mutex.html" target="_top" xlink:title="Mutex. ">
<polygon fill="white" stroke="black" points="565.5,-117 565.5,-136 633.5,-136 633.5,-117 565.5,-117"/>
<text text-anchor="middle" x="599.5" y="-124" font-family="Helvetica,sans-Serif" font-size="10.00">erpc::Mutex</text>
</a>
</g>
</g>
<!-- Node8&#45;&gt;Node7 -->
<g id="edge8" class="edge"><title>Node8&#45;&gt;Node7</title>
<path fill="none" stroke="#9a32cd" stroke-dasharray="5,2" d="M643.832,-123.898C679.604,-122.256 731.67,-121.033 777,-124.5 784.514,-125.075 792.399,-125.956 800.15,-126.986"/>
<polygon fill="#9a32cd" stroke="#9a32cd" points="643.554,-120.407 633.737,-124.392 643.896,-127.399 643.554,-120.407"/>
<text text-anchor="middle" x="732" y="-127.5" font-family="Helvetica,sans-Serif" font-size="10.00"> m_clientListMutex</text>
</g>
<!-- Node9 -->
<g id="node9" class="node"><title>Node9</title>
<g id="a_node9"><a xlink:href="classerpc_1_1_codec.html" target="_top" xlink:title="Abstract serialization encoder/decoder interface. ">
<polygon fill="white" stroke="black" points="186,-53 186,-72 255,-72 255,-53 186,-53"/>
<text text-anchor="middle" x="220.5" y="-60" font-family="Helvetica,sans-Serif" font-size="10.00">erpc::Codec</text>
</a>
</g>
</g>
<!-- Node9&#45;&gt;Node7 -->
<g id="edge9" class="edge"><title>Node9&#45;&gt;Node7</title>
<path fill="none" stroke="#9a32cd" stroke-dasharray="5,2" d="M265.394,-66.8951C345.562,-74.9266 521.048,-92.5265 669,-107.5 717.003,-112.358 729.4,-110.616 777,-118.5 790.437,-120.726 805.016,-123.885 817.895,-126.937"/>
<polygon fill="#9a32cd" stroke="#9a32cd" points="265.483,-63.3866 255.184,-65.8723 264.785,-70.3517 265.483,-63.3866"/>
<text text-anchor="middle" x="487.5" y="-94.5" font-family="Helvetica,sans-Serif" font-size="10.00"> m_codec</text>
</g>
<!-- Node14 -->
<g id="node14" class="node"><title>Node14</title>
<g id="a_node14"><a xlink:href="classerpc_1_1_request_context.html" target="_top" xlink:title="Encapsulates all information about a request. ">
<polygon fill="white" stroke="black" points="334,-3 334,-22 445,-22 445,-3 334,-3"/>
<text text-anchor="middle" x="389.5" y="-10" font-family="Helvetica,sans-Serif" font-size="10.00">erpc::RequestContext</text>
</a>
</g>
</g>
<!-- Node9&#45;&gt;Node14 -->
<g id="edge17" class="edge"><title>Node9&#45;&gt;Node14</title>
<path fill="none" stroke="#9a32cd" stroke-dasharray="5,2" d="M263.121,-50.0387C292.033,-41.3822 329.985,-30.0193 356.53,-22.0719"/>
<polygon fill="#9a32cd" stroke="#9a32cd" points="261.88,-46.7565 253.305,-52.9777 263.888,-53.4624 261.88,-46.7565"/>
<text text-anchor="middle" x="294.5" y="-49.5" font-family="Helvetica,sans-Serif" font-size="10.00"> m_codec</text>
</g>
<!-- Node10 -->
<g id="node10" class="node"><title>Node10</title>
<g id="a_node10"><a xlink:href="classerpc_1_1_message_buffer_1_1_cursor.html" target="_top" xlink:title="Cursor within a MessageBuffer. ">
<polygon fill="white" stroke="black" points="0,-69.5 0,-99.5 106,-99.5 106,-69.5 0,-69.5"/>
<text text-anchor="start" x="8" y="-87.5" font-family="Helvetica,sans-Serif" font-size="10.00">erpc::MessageBuffer</text>
<text text-anchor="middle" x="53" y="-76.5" font-family="Helvetica,sans-Serif" font-size="10.00">::Cursor</text>
</a>
</g>
</g>
<!-- Node10&#45;&gt;Node9 -->
<g id="edge10" class="edge"><title>Node10&#45;&gt;Node9</title>
<path fill="none" stroke="#9a32cd" stroke-dasharray="5,2" d="M116.288,-76.22C139.836,-73.0898 165.742,-69.6461 185.709,-66.9918"/>
<polygon fill="#9a32cd" stroke="#9a32cd" points="115.817,-72.7518 106.365,-77.5391 116.739,-79.6907 115.817,-72.7518"/>
<text text-anchor="middle" x="146" y="-78.5" font-family="Helvetica,sans-Serif" font-size="10.00"> m_cursor</text>
</g>
<!-- Node11 -->
<g id="node11" class="node"><title>Node11</title>
<g id="a_node11"><a xlink:href="classerpc_1_1_message_buffer.html" target="_top" xlink:title="Represents a memory buffer containing a message. ">
<polygon fill="white" stroke="black" points="0,-31 0,-50 106,-50 106,-31 0,-31"/>
<text text-anchor="middle" x="53" y="-38" font-family="Helvetica,sans-Serif" font-size="10.00">erpc::MessageBuffer</text>
</a>
</g>
</g>
<!-- Node11&#45;&gt;Node9 -->
<g id="edge11" class="edge"><title>Node11&#45;&gt;Node9</title>
<path fill="none" stroke="#9a32cd" stroke-dasharray="5,2" d="M116.446,-48.6677C133.192,-50.8713 151.287,-53.2646 168,-55.5 173.813,-56.2775 179.995,-57.1115 185.982,-57.9231"/>
<polygon fill="#9a32cd" stroke="#9a32cd" points="116.589,-45.1565 106.218,-47.3233 115.677,-52.0968 116.589,-45.1565"/>
<text text-anchor="middle" x="146" y="-58.5" font-family="Helvetica,sans-Serif" font-size="10.00"> m_buffer</text>
</g>
<!-- Node12 -->
<g id="node12" class="node"><title>Node12</title>
<g id="a_node12"><a xlink:href="structerpc_1_1_transport_arbitrator_1_1_pending_client_info.html" target="_top" xlink:title="Request info for a client trying to receive a response. ">
<polygon fill="white" stroke="black" points="538.5,-0.5 538.5,-30.5 660.5,-30.5 660.5,-0.5 538.5,-0.5"/>
<text text-anchor="start" x="546.5" y="-18.5" font-family="Helvetica,sans-Serif" font-size="10.00">erpc::TransportArbitrator</text>
<text text-anchor="middle" x="599.5" y="-7.5" font-family="Helvetica,sans-Serif" font-size="10.00">::PendingClientInfo</text>
</a>
</g>
</g>
<!-- Node12&#45;&gt;Node7 -->
<g id="edge13" class="edge"><title>Node12&#45;&gt;Node7</title>
<path fill="none" stroke="#9a32cd" stroke-dasharray="5,2" d="M670.806,-20.2821C704.647,-24.9957 744.767,-34.278 777,-52.5 810.263,-71.3041 837.506,-109.152 849.049,-126.901"/>
<polygon fill="#9a32cd" stroke="#9a32cd" points="670.886,-16.7637 660.521,-18.9612 669.994,-23.7066 670.886,-16.7637"/>
<text text-anchor="middle" x="732" y="-66.5" font-family="Helvetica,sans-Serif" font-size="10.00"> m_clientFreeList</text>
<text text-anchor="middle" x="732" y="-55.5" font-family="Helvetica,sans-Serif" font-size="10.00">m_clientList</text>
</g>
<!-- Node12&#45;&gt;Node12 -->
<g id="edge15" class="edge"><title>Node12&#45;&gt;Node12</title>
<path fill="none" stroke="#9a32cd" stroke-dasharray="5,2" d="M579.599,-40.9579C582.069,-45.679 588.703,-49 599.5,-49 617.219,-49 623.725,-40.0566 619.018,-30.659"/>
<polygon fill="#9a32cd" stroke="#9a32cd" points="583.108,-40.7821 579.982,-30.659 576.113,-40.5221 583.108,-40.7821"/>
<text text-anchor="middle" x="599.5" y="-52" font-family="Helvetica,sans-Serif" font-size="10.00"> m_next</text>
</g>
<!-- Node13 -->
<g id="node13" class="node"><title>Node13</title>
<g id="a_node13"><a xlink:href="classerpc_1_1_semaphore.html" target="_top" xlink:title="Simple semaphore class. ">
<polygon fill="white" stroke="black" points="344,-41 344,-60 435,-60 435,-41 344,-41"/>
<text text-anchor="middle" x="389.5" y="-48" font-family="Helvetica,sans-Serif" font-size="10.00">erpc::Semaphore</text>
</a>
</g>
</g>
<!-- Node13&#45;&gt;Node12 -->
<g id="edge14" class="edge"><title>Node13&#45;&gt;Node12</title>
<path fill="none" stroke="#9a32cd" stroke-dasharray="5,2" d="M445.327,-41.2743C473.878,-36.4701 508.851,-30.5852 538.168,-25.6521"/>
<polygon fill="#9a32cd" stroke="#9a32cd" points="444.402,-37.8807 435.121,-42.9916 445.563,-44.7837 444.402,-37.8807"/>
<text text-anchor="middle" x="487.5" y="-41.5" font-family="Helvetica,sans-Serif" font-size="10.00"> m_sem</text>
</g>
<!-- Node14&#45;&gt;Node12 -->
<g id="edge16" class="edge"><title>Node14&#45;&gt;Node12</title>
<path fill="none" stroke="#9a32cd" stroke-dasharray="5,2" d="M455.469,-13.4371C481.956,-13.8191 512.394,-14.2581 538.364,-14.6327"/>
<polygon fill="#9a32cd" stroke="#9a32cd" points="455.199,-9.93289 445.15,-13.2882 455.098,-16.9322 455.199,-9.93289"/>
<text text-anchor="middle" x="487.5" y="-17.5" font-family="Helvetica,sans-Serif" font-size="10.00"> m_request</text>
</g>
</g>
</svg>
