<?xml version="1.0" encoding="UTF-8" standalone="no"?>
<!DOCTYPE svg PUBLIC "-//W3C//DTD SVG 1.1//EN"
 "http://www.w3.org/Graphics/SVG/1.1/DTD/svg11.dtd">
<!-- Generated by graphviz version 2.38.0 (20140413.2041)
 -->
<!-- Title: erpc::RPMsgLinuxTransport Pages: 1 -->
<svg width="145pt" height="84pt"
 viewBox="0.00 0.00 145.00 84.00" xmlns="http://www.w3.org/2000/svg" xmlns:xlink="http://www.w3.org/1999/xlink">
<g id="graph0" class="graph" transform="scale(1 1) rotate(0) translate(4 80)">
<title>erpc::RPMsgLinuxTransport</title>
<polygon fill="white" stroke="none" points="-4,4 -4,-80 141,-80 141,4 -4,4"/>
<!-- Node1 -->
<g id="node1" class="node"><title>Node1</title>
<polygon fill="#bfbfbf" stroke="black" points="0,-0.5 0,-19.5 137,-19.5 137,-0.5 0,-0.5"/>
<text text-anchor="middle" x="68.5" y="-7.5" font-family="Helvetica,sans-Serif" font-size="10.00">erpc::RPMsgLinuxTransport</text>
</g>
<!-- Node2 -->
<g id="node2" class="node"><title>Node2</title>
<g id="a_node2"><a xlink:href="classerpc_1_1_transport.html" target="_top" xlink:title="Abstract interface for transport layer. ">
<polygon fill="white" stroke="black" points="27.5,-56.5 27.5,-75.5 109.5,-75.5 109.5,-56.5 27.5,-56.5"/>
<text text-anchor="middle" x="68.5" y="-63.5" font-family="Helvetica,sans-Serif" font-size="10.00">erpc::Transport</text>
</a>
</g>
</g>
<!-- Node2&#45;&gt;Node1 -->
<g id="edge1" class="edge"><title>Node2&#45;&gt;Node1</title>
<path fill="none" stroke="midnightblue" d="M49.2125,-46.6897C47.1294,-37.589 48.4276,-27.0141 53.107,-19.7511"/>
<polygon fill="midnightblue" stroke="midnightblue" points="46.0146,-48.1181 53.001,-56.083 52.5064,-45.4997 46.0146,-48.1181"/>
</g>
<!-- Node2&#45;&gt;Node1 -->
<g id="edge2" class="edge"><title>Node2&#45;&gt;Node1</title>
<path fill="none" stroke="midnightblue" d="M62.0276,-46.1005C61.3956,-37.1357 61.8427,-26.8579 63.369,-19.7511"/>
<polygon fill="midnightblue" stroke="midnightblue" points="58.5658,-46.6216 63.3337,-56.083 65.5067,-45.7134 58.5658,-46.6216"/>
</g>
<!-- Node2&#45;&gt;Node1 -->
<g id="edge3" class="edge"><title>Node2&#45;&gt;Node1</title>
<path fill="none" stroke="midnightblue" d="M74.9724,-46.1005C75.6044,-37.1357 75.1573,-26.8579 73.631,-19.7511"/>
<polygon fill="midnightblue" stroke="midnightblue" points="71.4933,-45.7134 73.6663,-56.083 78.4342,-46.6216 71.4933,-45.7134"/>
</g>
<!-- Node2&#45;&gt;Node1 -->
<g id="edge4" class="edge"><title>Node2&#45;&gt;Node1</title>
<path fill="none" stroke="midnightblue" d="M87.7875,-46.6897C89.8706,-37.589 88.5724,-27.0141 83.893,-19.7511"/>
<polygon fill="midnightblue" stroke="midnightblue" points="84.4936,-45.4997 83.999,-56.083 90.9854,-48.1181 84.4936,-45.4997"/>
</g>
</g>
</svg>
