<?xml version="1.0" encoding="UTF-8" standalone="no"?>
<!DOCTYPE svg PUBLIC "-//W3C//DTD SVG 1.1//EN"
 "http://www.w3.org/Graphics/SVG/1.1/DTD/svg11.dtd">
<!-- Generated by graphviz version 2.38.0 (20140413.2041)
 -->
<!-- Title: erpc::SimpleServer Pages: 1 -->
<svg width="476pt" height="209pt"
 viewBox="0.00 0.00 476.00 209.00" xmlns="http://www.w3.org/2000/svg" xmlns:xlink="http://www.w3.org/1999/xlink">
<g id="graph0" class="graph" transform="scale(1 1) rotate(0) translate(4 205)">
<title>erpc::SimpleServer</title>
<polygon fill="white" stroke="none" points="-4,4 -4,-205 472,-205 472,4 -4,4"/>
<!-- Node1 -->
<g id="node1" class="node"><title>Node1</title>
<polygon fill="#bfbfbf" stroke="black" points="370,-105.5 370,-124.5 468,-124.5 468,-105.5 370,-105.5"/>
<text text-anchor="middle" x="419" y="-112.5" font-family="Helvetica,sans-Serif" font-size="10.00">erpc::SimpleServer</text>
</g>
<!-- Node2 -->
<g id="node2" class="node"><title>Node2</title>
<g id="a_node2"><a xlink:href="classerpc_1_1_server.html" target="_top" xlink:title="Based server functionality. ">
<polygon fill="white" stroke="black" points="265,-105.5 265,-124.5 333,-124.5 333,-105.5 265,-105.5"/>
<text text-anchor="middle" x="299" y="-112.5" font-family="Helvetica,sans-Serif" font-size="10.00">erpc::Server</text>
</a>
</g>
</g>
<!-- Node2&#45;&gt;Node1 -->
<g id="edge1" class="edge"><title>Node2&#45;&gt;Node1</title>
<path fill="none" stroke="midnightblue" d="M343.339,-115C351.901,-115 360.937,-115 369.652,-115"/>
<polygon fill="midnightblue" stroke="midnightblue" points="343.184,-111.5 333.184,-115 343.184,-118.5 343.184,-111.5"/>
</g>
<!-- Node3 -->
<g id="node3" class="node"><title>Node3</title>
<g id="a_node3"><a xlink:href="classerpc_1_1_client_server_common.html" target="_top" xlink:title="Common class inheritand by client and server class. ">
<polygon fill="white" stroke="black" points="3.5,-181.5 3.5,-200.5 135.5,-200.5 135.5,-181.5 3.5,-181.5"/>
<text text-anchor="middle" x="69.5" y="-188.5" font-family="Helvetica,sans-Serif" font-size="10.00">erpc::ClientServerCommon</text>
</a>
</g>
</g>
<!-- Node3&#45;&gt;Node2 -->
<g id="edge2" class="edge"><title>Node3&#45;&gt;Node2</title>
<path fill="none" stroke="midnightblue" d="M145.824,-186.221C178.187,-181.957 215.684,-173.958 247,-159 264.305,-150.734 280.369,-135.001 289.679,-124.761"/>
<polygon fill="midnightblue" stroke="midnightblue" points="145.014,-182.794 135.511,-187.478 145.861,-189.742 145.014,-182.794"/>
</g>
<!-- Node4 -->
<g id="node4" class="node"><title>Node4</title>
<g id="a_node4"><a xlink:href="classerpc_1_1_codec_factory.html" target="_top" xlink:title="Abstract interface for codec factory. ">
<polygon fill="white" stroke="black" points="18.5,-143.5 18.5,-162.5 120.5,-162.5 120.5,-143.5 18.5,-143.5"/>
<text text-anchor="middle" x="69.5" y="-150.5" font-family="Helvetica,sans-Serif" font-size="10.00">erpc::CodecFactory</text>
</a>
</g>
</g>
<!-- Node4&#45;&gt;Node2 -->
<g id="edge3" class="edge"><title>Node4&#45;&gt;Node2</title>
<path fill="none" stroke="#9a32cd" stroke-dasharray="5,2" d="M131.001,-147.483C165.259,-143.769 208.774,-138.06 247,-130 254.044,-128.515 261.53,-126.542 268.535,-124.517"/>
<polygon fill="#9a32cd" stroke="#9a32cd" points="130.26,-144.041 120.683,-148.571 130.995,-151.003 130.26,-144.041"/>
<text text-anchor="middle" x="202" y="-147" font-family="Helvetica,sans-Serif" font-size="10.00"> m_codecFactory</text>
</g>
<!-- Node5 -->
<g id="node5" class="node"><title>Node5</title>
<g id="a_node5"><a xlink:href="classerpc_1_1_transport.html" target="_top" xlink:title="Abstract interface for transport layer. ">
<polygon fill="white" stroke="black" points="28.5,-105.5 28.5,-124.5 110.5,-124.5 110.5,-105.5 28.5,-105.5"/>
<text text-anchor="middle" x="69.5" y="-112.5" font-family="Helvetica,sans-Serif" font-size="10.00">erpc::Transport</text>
</a>
</g>
</g>
<!-- Node5&#45;&gt;Node2 -->
<g id="edge4" class="edge"><title>Node5&#45;&gt;Node2</title>
<path fill="none" stroke="#9a32cd" stroke-dasharray="5,2" d="M120.82,-115C164.687,-115 227.053,-115 264.897,-115"/>
<polygon fill="#9a32cd" stroke="#9a32cd" points="120.649,-111.5 110.649,-115 120.649,-118.5 120.649,-111.5"/>
<text text-anchor="middle" x="202" y="-118" font-family="Helvetica,sans-Serif" font-size="10.00"> m_transport</text>
</g>
<!-- Node6 -->
<g id="node6" class="node"><title>Node6</title>
<g id="a_node6"><a xlink:href="classerpc_1_1_message_buffer_factory.html" target="_top" xlink:title="Abstract interface for message buffer factory. ">
<polygon fill="white" stroke="black" points="0,-67.5 0,-86.5 139,-86.5 139,-67.5 0,-67.5"/>
<text text-anchor="middle" x="69.5" y="-74.5" font-family="Helvetica,sans-Serif" font-size="10.00">erpc::MessageBufferFactory</text>
</a>
</g>
</g>
<!-- Node6&#45;&gt;Node2 -->
<g id="edge5" class="edge"><title>Node6&#45;&gt;Node2</title>
<path fill="none" stroke="#9a32cd" stroke-dasharray="5,2" d="M149.434,-84.6136C180.078,-88.2654 215.352,-93.3267 247,-100 254.044,-101.485 261.53,-103.458 268.535,-105.483"/>
<polygon fill="#9a32cd" stroke="#9a32cd" points="149.568,-81.1057 139.231,-83.4289 148.761,-88.059 149.568,-81.1057"/>
<text text-anchor="middle" x="202" y="-103" font-family="Helvetica,sans-Serif" font-size="10.00"> m_messageFactory</text>
</g>
<!-- Node7 -->
<g id="node7" class="node"><title>Node7</title>
<g id="a_node7"><a xlink:href="classerpc_1_1_service.html" target="_top" xlink:title="Abstract interface for service, which can be executed on server side. ">
<polygon fill="white" stroke="black" points="33,-0.5 33,-19.5 106,-19.5 106,-0.5 33,-0.5"/>
<text text-anchor="middle" x="69.5" y="-7.5" font-family="Helvetica,sans-Serif" font-size="10.00">erpc::Service</text>
</a>
</g>
</g>
<!-- Node7&#45;&gt;Node2 -->
<g id="edge6" class="edge"><title>Node7&#45;&gt;Node2</title>
<path fill="none" stroke="#9a32cd" stroke-dasharray="5,2" d="M116.05,-20.1849C152.988,-29.6608 205.538,-45.9657 247,-70 263.55,-79.5933 279.577,-95.0654 289.115,-105.134"/>
<polygon fill="#9a32cd" stroke="#9a32cd" points="116.617,-16.7193 106.067,-17.6926 114.922,-23.5108 116.617,-16.7193"/>
<text text-anchor="middle" x="202" y="-73" font-family="Helvetica,sans-Serif" font-size="10.00"> m_firstService</text>
</g>
<!-- Node7&#45;&gt;Node7 -->
<g id="edge7" class="edge"><title>Node7&#45;&gt;Node7</title>
<path fill="none" stroke="#9a32cd" stroke-dasharray="5,2" d="M44.9465,-29.0292C46.2858,-34.128 54.4703,-38 69.5,-38 92.9609,-38 99.7426,-28.5653 89.845,-19.7571"/>
<polygon fill="#9a32cd" stroke="#9a32cd" points="48.209,-30.3096 49.155,-19.7571 41.8348,-27.4164 48.209,-30.3096"/>
<text text-anchor="middle" x="69.5" y="-41" font-family="Helvetica,sans-Serif" font-size="10.00"> m_next</text>
</g>
</g>
</svg>
