<?xml version="1.0" encoding="UTF-8" standalone="no"?>
<!DOCTYPE svg PUBLIC "-//W3C//DTD SVG 1.1//EN"
 "http://www.w3.org/Graphics/SVG/1.1/DTD/svg11.dtd">
<!-- Generated by graphviz version 2.38.0 (20140413.2041)
 -->
<!-- Title: codec.h Pages: 1 -->
<svg width="292pt" height="252pt"
 viewBox="0.00 0.00 292.23 252.00" xmlns="http://www.w3.org/2000/svg" xmlns:xlink="http://www.w3.org/1999/xlink">
<g id="graph0" class="graph" transform="scale(1 1) rotate(0) translate(4 248)">
<title>codec.h</title>
<polygon fill="white" stroke="none" points="-4,4 -4,-248 288.234,-248 288.234,4 -4,4"/>
<!-- Node1 -->
<g id="node1" class="node"><title>Node1</title>
<polygon fill="#bfbfbf" stroke="black" points="108.734,-224.5 108.734,-243.5 159.734,-243.5 159.734,-224.5 108.734,-224.5"/>
<text text-anchor="middle" x="134.234" y="-231.5" font-family="Helvetica,sans-Serif" font-size="10.00">codec.h</text>
</g>
<!-- Node2 -->
<g id="node2" class="node"><title>Node2</title>
<g id="a_node2"><a xlink:href="erpc__common_8h_source.html" target="_top" xlink:title="erpc_common.h">
<polygon fill="white" stroke="black" points="101.234,-56.5 101.234,-75.5 187.234,-75.5 187.234,-56.5 101.234,-56.5"/>
<text text-anchor="middle" x="144.234" y="-63.5" font-family="Helvetica,sans-Serif" font-size="10.00">erpc_common.h</text>
</a>
</g>
</g>
<!-- Node1&#45;&gt;Node2 -->
<g id="edge1" class="edge"><title>Node1&#45;&gt;Node2</title>
<path fill="none" stroke="midnightblue" d="M134.771,-224.075C136.345,-197.945 140.968,-121.211 143.115,-85.577"/>
<polygon fill="midnightblue" stroke="midnightblue" points="146.61,-85.7605 143.718,-75.5681 139.622,-85.3395 146.61,-85.7605"/>
</g>
<!-- Node3 -->
<g id="node3" class="node"><title>Node3</title>
<polygon fill="white" stroke="#bfbfbf" points="50.7337,-0.5 50.7337,-19.5 99.7337,-19.5 99.7337,-0.5 50.7337,-0.5"/>
<text text-anchor="middle" x="75.2337" y="-7.5" font-family="Helvetica,sans-Serif" font-size="10.00">stdint.h</text>
</g>
<!-- Node1&#45;&gt;Node3 -->
<g id="edge14" class="edge"><title>Node1&#45;&gt;Node3</title>
<path fill="none" stroke="midnightblue" d="M113.758,-224.435C83.0891,-210.336 26.3599,-179.032 3.23372,-132 -7.29579,-110.586 14.6713,-64.3095 20.2337,-56 28.465,-43.7036 41.0559,-33.0517 52.1146,-25.2024"/>
<polygon fill="midnightblue" stroke="midnightblue" points="54.2005,-28.0174 60.5424,-19.5304 50.2921,-22.2101 54.2005,-28.0174"/>
</g>
<!-- Node4 -->
<g id="node4" class="node"><title>Node4</title>
<g id="a_node4"><a xlink:href="message__buffer_8h.html" target="_top" xlink:title="message_buffer.h">
<polygon fill="white" stroke="black" points="12.7337,-112.5 12.7337,-131.5 105.734,-131.5 105.734,-112.5 12.7337,-112.5"/>
<text text-anchor="middle" x="59.2337" y="-119.5" font-family="Helvetica,sans-Serif" font-size="10.00">message_buffer.h</text>
</a>
</g>
</g>
<!-- Node1&#45;&gt;Node4 -->
<g id="edge3" class="edge"><title>Node1&#45;&gt;Node4</title>
<path fill="none" stroke="midnightblue" d="M128.349,-224.368C115.971,-206.215 87.0529,-163.802 70.8179,-139.99"/>
<polygon fill="midnightblue" stroke="midnightblue" points="73.6167,-137.882 65.0915,-131.591 67.8331,-141.825 73.6167,-137.882"/>
</g>
<!-- Node6 -->
<g id="node6" class="node"><title>Node6</title>
<g id="a_node6"><a xlink:href="transport_8h.html" target="_top" xlink:title="transport.h">
<polygon fill="white" stroke="black" points="162.734,-168.5 162.734,-187.5 225.734,-187.5 225.734,-168.5 162.734,-168.5"/>
<text text-anchor="middle" x="194.234" y="-175.5" font-family="Helvetica,sans-Serif" font-size="10.00">transport.h</text>
</a>
</g>
</g>
<!-- Node1&#45;&gt;Node6 -->
<g id="edge7" class="edge"><title>Node1&#45;&gt;Node6</title>
<path fill="none" stroke="midnightblue" d="M143.874,-224.324C152.743,-216.341 166.108,-204.313 176.842,-194.653"/>
<polygon fill="midnightblue" stroke="midnightblue" points="179.327,-197.125 184.418,-187.834 174.644,-191.922 179.327,-197.125"/>
</g>
<!-- Node8 -->
<g id="node8" class="node"><title>Node8</title>
<polygon fill="white" stroke="#bfbfbf" points="238.234,-112.5 238.234,-131.5 284.234,-131.5 284.234,-112.5 238.234,-112.5"/>
<text text-anchor="middle" x="261.234" y="-119.5" font-family="Helvetica,sans-Serif" font-size="10.00">cstring</text>
</g>
<!-- Node1&#45;&gt;Node8 -->
<g id="edge13" class="edge"><title>Node1&#45;&gt;Node8</title>
<path fill="none" stroke="midnightblue" d="M159.916,-227.155C182.184,-220.887 213.94,-208.895 234.234,-188 246.594,-175.273 253.619,-156.075 257.385,-141.84"/>
<polygon fill="midnightblue" stroke="midnightblue" points="260.885,-142.239 259.745,-131.705 254.068,-140.65 260.885,-142.239"/>
</g>
<!-- Node2&#45;&gt;Node3 -->
<g id="edge2" class="edge"><title>Node2&#45;&gt;Node3</title>
<path fill="none" stroke="midnightblue" d="M133.148,-56.324C122.748,-48.1849 106.973,-35.8395 94.5121,-26.0874"/>
<polygon fill="midnightblue" stroke="midnightblue" points="96.5536,-23.2407 86.5215,-19.8339 92.2395,-28.7533 96.5536,-23.2407"/>
</g>
<!-- Node4&#45;&gt;Node2 -->
<g id="edge4" class="edge"><title>Node4&#45;&gt;Node2</title>
<path fill="none" stroke="midnightblue" d="M72.8904,-112.324C86.15,-103.9 106.502,-90.9709 122.08,-81.0741"/>
<polygon fill="midnightblue" stroke="midnightblue" points="124.047,-83.9711 130.611,-75.6545 120.293,-78.0626 124.047,-83.9711"/>
</g>
<!-- Node4&#45;&gt;Node3 -->
<g id="edge6" class="edge"><title>Node4&#45;&gt;Node3</title>
<path fill="none" stroke="midnightblue" d="M49.3863,-112.318C36.6661,-99.9929 17.1723,-76.6245 26.2337,-56 31.6237,-43.732 42.1918,-33.3414 52.1378,-25.6461"/>
<polygon fill="midnightblue" stroke="midnightblue" points="54.4853,-28.2697 60.5723,-19.598 50.4061,-22.5811 54.4853,-28.2697"/>
</g>
<!-- Node5 -->
<g id="node5" class="node"><title>Node5</title>
<polygon fill="white" stroke="#bfbfbf" points="35.2337,-56.5 35.2337,-75.5 83.2337,-75.5 83.2337,-56.5 35.2337,-56.5"/>
<text text-anchor="middle" x="59.2337" y="-63.5" font-family="Helvetica,sans-Serif" font-size="10.00">cstddef</text>
</g>
<!-- Node4&#45;&gt;Node5 -->
<g id="edge5" class="edge"><title>Node4&#45;&gt;Node5</title>
<path fill="none" stroke="midnightblue" d="M59.2337,-112.083C59.2337,-105.006 59.2337,-94.8611 59.2337,-85.9865"/>
<polygon fill="midnightblue" stroke="midnightblue" points="62.7338,-85.751 59.2337,-75.7511 55.7338,-85.7511 62.7338,-85.751"/>
</g>
<!-- Node6&#45;&gt;Node2 -->
<g id="edge8" class="edge"><title>Node6&#45;&gt;Node2</title>
<path fill="none" stroke="midnightblue" d="M190.31,-168.368C182.168,-150.456 163.29,-108.923 152.392,-84.9482"/>
<polygon fill="midnightblue" stroke="midnightblue" points="155.463,-83.2468 148.139,-75.5914 149.091,-86.1434 155.463,-83.2468"/>
</g>
<!-- Node6&#45;&gt;Node4 -->
<g id="edge11" class="edge"><title>Node6&#45;&gt;Node4</title>
<path fill="none" stroke="midnightblue" d="M172.843,-168.444C150.526,-159.517 115.331,-145.439 90.0258,-135.317"/>
<polygon fill="midnightblue" stroke="midnightblue" points="91.1095,-131.981 80.5248,-131.516 88.5097,-138.48 91.1095,-131.981"/>
</g>
<!-- Node7 -->
<g id="node7" class="node"><title>Node7</title>
<g id="a_node7"><a xlink:href="crc16_8h.html" target="_top" xlink:title="crc16.h">
<polygon fill="white" stroke="black" points="205.734,-56.5 205.734,-75.5 254.734,-75.5 254.734,-56.5 205.734,-56.5"/>
<text text-anchor="middle" x="230.234" y="-63.5" font-family="Helvetica,sans-Serif" font-size="10.00">crc16.h</text>
</a>
</g>
</g>
<!-- Node6&#45;&gt;Node7 -->
<g id="edge9" class="edge"><title>Node6&#45;&gt;Node7</title>
<path fill="none" stroke="midnightblue" d="M197.059,-168.368C202.894,-150.537 216.392,-109.295 224.254,-85.2717"/>
<polygon fill="midnightblue" stroke="midnightblue" points="227.638,-86.1841 227.422,-75.5914 220.985,-84.0067 227.638,-86.1841"/>
</g>
<!-- Node6&#45;&gt;Node8 -->
<g id="edge12" class="edge"><title>Node6&#45;&gt;Node8</title>
<path fill="none" stroke="midnightblue" d="M204.998,-168.324C215,-160.263 230.12,-148.077 242.164,-138.369"/>
<polygon fill="midnightblue" stroke="midnightblue" points="244.684,-140.834 250.273,-131.834 240.291,-135.384 244.684,-140.834"/>
</g>
<!-- Node7&#45;&gt;Node3 -->
<g id="edge10" class="edge"><title>Node7&#45;&gt;Node3</title>
<path fill="none" stroke="midnightblue" d="M205.674,-56.4435C179.711,-47.3986 138.566,-33.064 109.437,-22.9158"/>
<polygon fill="midnightblue" stroke="midnightblue" points="110.274,-19.5013 99.679,-19.5164 107.971,-26.1116 110.274,-19.5013"/>
</g>
</g>
</svg>
