<?xml version="1.0" encoding="UTF-8" standalone="no"?>
<!DOCTYPE svg PUBLIC "-//W3C//DTD SVG 1.1//EN"
 "http://www.w3.org/Graphics/SVG/1.1/DTD/svg11.dtd">
<!-- Generated by graphviz version 2.38.0 (20140413.2041)
 -->
<!-- Title: crc16.h Pages: 1 -->
<svg width="1757pt" height="263pt"
 viewBox="0.00 0.00 1757.00 263.00" xmlns="http://www.w3.org/2000/svg" xmlns:xlink="http://www.w3.org/1999/xlink">
<g id="graph0" class="graph" transform="scale(1 1) rotate(0) translate(4 259)">
<title>crc16.h</title>
<polygon fill="white" stroke="none" points="-4,4 -4,-259 1753,-259 1753,4 -4,4"/>
<!-- Node1 -->
<g id="node1" class="node"><title>Node1</title>
<polygon fill="#bfbfbf" stroke="black" points="1087.5,-235.5 1087.5,-254.5 1136.5,-254.5 1136.5,-235.5 1087.5,-235.5"/>
<text text-anchor="middle" x="1112" y="-242.5" font-family="Helvetica,sans-Serif" font-size="10.00">crc16.h</text>
</g>
<!-- Node2 -->
<g id="node2" class="node"><title>Node2</title>
<g id="a_node2"><a xlink:href="transport_8h.html" target="_top" xlink:title="transport.h">
<polygon fill="white" stroke="black" points="697.5,-179.5 697.5,-198.5 760.5,-198.5 760.5,-179.5 697.5,-179.5"/>
<text text-anchor="middle" x="729" y="-186.5" font-family="Helvetica,sans-Serif" font-size="10.00">transport.h</text>
</a>
</g>
</g>
<!-- Node1&#45;&gt;Node2 -->
<g id="edge1" class="edge"><title>Node1&#45;&gt;Node2</title>
<path fill="none" stroke="midnightblue" d="M1077.3,-239.107C1003.46,-228.696 831.726,-204.484 760.662,-194.464"/>
<polygon fill="midnightblue" stroke="midnightblue" points="1077.07,-242.609 1087.46,-240.54 1078.05,-235.678 1077.07,-242.609"/>
</g>
<!-- Node26 -->
<g id="node26" class="node"><title>Node26</title>
<g id="a_node26"><a xlink:href="rpmsg__tty__rtos__transport_8h.html" target="_top" xlink:title="rpmsg_tty_rtos_transport.h">
<polygon fill="white" stroke="black" points="1615,-56.5 1615,-75.5 1749,-75.5 1749,-56.5 1615,-56.5"/>
<text text-anchor="middle" x="1682" y="-63.5" font-family="Helvetica,sans-Serif" font-size="10.00">rpmsg_tty_rtos_transport.h</text>
</a>
</g>
</g>
<!-- Node1&#45;&gt;Node26 -->
<g id="edge28" class="edge"><title>Node1&#45;&gt;Node26</title>
<path fill="none" stroke="midnightblue" d="M1146.87,-237.936C1218.62,-224.915 1387.43,-191.477 1523,-143 1577.74,-123.426 1638.81,-91.0433 1666.66,-75.6468"/>
<polygon fill="midnightblue" stroke="midnightblue" points="1145.82,-234.567 1136.6,-239.779 1147.06,-241.457 1145.82,-234.567"/>
</g>
<!-- Node3 -->
<g id="node3" class="node"><title>Node3</title>
<g id="a_node3"><a xlink:href="codec_8h.html" target="_top" xlink:title="codec.h">
<polygon fill="white" stroke="black" points="267.5,-118 267.5,-137 318.5,-137 318.5,-118 267.5,-118"/>
<text text-anchor="middle" x="293" y="-125" font-family="Helvetica,sans-Serif" font-size="10.00">codec.h</text>
</a>
</g>
</g>
<!-- Node2&#45;&gt;Node3 -->
<g id="edge2" class="edge"><title>Node2&#45;&gt;Node3</title>
<path fill="none" stroke="midnightblue" d="M687.271,-182.305C598.103,-170.137 391.221,-141.904 318.687,-132.005"/>
<polygon fill="midnightblue" stroke="midnightblue" points="686.911,-185.789 697.293,-183.673 687.858,-178.853 686.911,-185.789"/>
</g>
<!-- Node6 -->
<g id="node6" class="node"><title>Node6</title>
<g id="a_node6"><a xlink:href="transport__arbitrator_8h.html" target="_top" xlink:title="transport_arbitrator.h">
<polygon fill="white" stroke="black" points="376.5,-0.5 376.5,-19.5 483.5,-19.5 483.5,-0.5 376.5,-0.5"/>
<text text-anchor="middle" x="430" y="-7.5" font-family="Helvetica,sans-Serif" font-size="10.00">transport_arbitrator.h</text>
</a>
</g>
</g>
<!-- Node2&#45;&gt;Node6 -->
<g id="edge11" class="edge"><title>Node2&#45;&gt;Node6</title>
<path fill="none" stroke="midnightblue" d="M687.042,-187.356C616.236,-185.33 477.542,-177.006 445,-143 411.832,-108.34 422.66,-42.8618 427.886,-19.5261"/>
<polygon fill="midnightblue" stroke="midnightblue" points="687.3,-190.864 697.386,-187.621 687.479,-183.866 687.3,-190.864"/>
</g>
<!-- Node11 -->
<g id="node11" class="node"><title>Node11</title>
<g id="a_node11"><a xlink:href="framed__transport_8h.html" target="_top" xlink:title="framed_transport.h">
<polygon fill="white" stroke="black" points="928,-118 928,-137 1026,-137 1026,-118 928,-118"/>
<text text-anchor="middle" x="977" y="-125" font-family="Helvetica,sans-Serif" font-size="10.00">framed_transport.h</text>
</a>
</g>
</g>
<!-- Node2&#45;&gt;Node11 -->
<g id="edge12" class="edge"><title>Node2&#45;&gt;Node11</title>
<path fill="none" stroke="midnightblue" d="M770.553,-178.198C808.861,-169.139 867.29,-155.268 918,-143 925.894,-141.09 934.377,-139.017 942.381,-137.053"/>
<polygon fill="midnightblue" stroke="midnightblue" points="769.712,-174.8 760.786,-180.506 771.322,-181.612 769.712,-174.8"/>
</g>
<!-- Node19 -->
<g id="node19" class="node"><title>Node19</title>
<g id="a_node19"><a xlink:href="message__loggers_8h.html" target="_top" xlink:title="message_loggers.h">
<polygon fill="white" stroke="black" points="454.5,-118 454.5,-137 555.5,-137 555.5,-118 454.5,-118"/>
<text text-anchor="middle" x="505" y="-125" font-family="Helvetica,sans-Serif" font-size="10.00">message_loggers.h</text>
</a>
</g>
</g>
<!-- Node2&#45;&gt;Node19 -->
<g id="edge20" class="edge"><title>Node2&#45;&gt;Node19</title>
<path fill="none" stroke="midnightblue" d="M687.693,-177.028C644.258,-165.49 576.831,-147.58 537.183,-137.049"/>
<polygon fill="midnightblue" stroke="midnightblue" points="686.818,-180.417 697.381,-179.601 688.615,-173.651 686.818,-180.417"/>
</g>
<!-- Node20 -->
<g id="node20" class="node"><title>Node20</title>
<g id="a_node20"><a xlink:href="inter__thread__buffer__transport_8h.html" target="_top" xlink:title="inter_thread_buffer\l_transport.h">
<polygon fill="white" stroke="black" points="574,-112.5 574,-142.5 670,-142.5 670,-112.5 574,-112.5"/>
<text text-anchor="start" x="582" y="-130.5" font-family="Helvetica,sans-Serif" font-size="10.00">inter_thread_buffer</text>
<text text-anchor="middle" x="622" y="-119.5" font-family="Helvetica,sans-Serif" font-size="10.00">_transport.h</text>
</a>
</g>
</g>
<!-- Node2&#45;&gt;Node20 -->
<g id="edge21" class="edge"><title>Node2&#45;&gt;Node20</title>
<path fill="none" stroke="midnightblue" d="M704.799,-174.542C687.622,-164.991 664.619,-152.199 647.218,-142.523"/>
<polygon fill="midnightblue" stroke="midnightblue" points="703.229,-177.674 713.67,-179.475 706.631,-171.556 703.229,-177.674"/>
</g>
<!-- Node21 -->
<g id="node21" class="node"><title>Node21</title>
<g id="a_node21"><a xlink:href="mu__transport_8h.html" target="_top" xlink:title="mu_transport.h">
<polygon fill="white" stroke="black" points="688,-118 688,-137 770,-137 770,-118 688,-118"/>
<text text-anchor="middle" x="729" y="-125" font-family="Helvetica,sans-Serif" font-size="10.00">mu_transport.h</text>
</a>
</g>
</g>
<!-- Node2&#45;&gt;Node21 -->
<g id="edge22" class="edge"><title>Node2&#45;&gt;Node21</title>
<path fill="none" stroke="midnightblue" d="M729,-169.317C729,-158.496 729,-145.398 729,-137.009"/>
<polygon fill="midnightblue" stroke="midnightblue" points="725.5,-169.475 729,-179.475 732.5,-169.475 725.5,-169.475"/>
</g>
<!-- Node22 -->
<g id="node22" class="node"><title>Node22</title>
<g id="a_node22"><a xlink:href="rpmsg__linux__transport_8h_source.html" target="_top" xlink:title="rpmsg_linux_transport.h">
<polygon fill="white" stroke="black" points="788.5,-118 788.5,-137 909.5,-137 909.5,-118 788.5,-118"/>
<text text-anchor="middle" x="849" y="-125" font-family="Helvetica,sans-Serif" font-size="10.00">rpmsg_linux_transport.h</text>
</a>
</g>
</g>
<!-- Node2&#45;&gt;Node22 -->
<g id="edge23" class="edge"><title>Node2&#45;&gt;Node22</title>
<path fill="none" stroke="midnightblue" d="M755.177,-175.021C778.449,-163.482 811.803,-146.943 831.839,-137.009"/>
<polygon fill="midnightblue" stroke="midnightblue" points="753.597,-171.897 746.193,-179.475 756.707,-178.169 753.597,-171.897"/>
</g>
<!-- Node23 -->
<g id="node23" class="node"><title>Node23</title>
<g id="a_node23"><a xlink:href="rpmsg__lite__base__transport_8h.html" target="_top" xlink:title="rpmsg_lite_base_transport.h">
<polygon fill="white" stroke="black" points="1374,-118 1374,-137 1514,-137 1514,-118 1374,-118"/>
<text text-anchor="middle" x="1444" y="-125" font-family="Helvetica,sans-Serif" font-size="10.00">rpmsg_lite_base_transport.h</text>
</a>
</g>
</g>
<!-- Node2&#45;&gt;Node23 -->
<g id="edge24" class="edge"><title>Node2&#45;&gt;Node23</title>
<path fill="none" stroke="midnightblue" d="M770.727,-184.528C888.825,-174.7 1226.36,-146.611 1373.74,-134.347"/>
<polygon fill="midnightblue" stroke="midnightblue" points="770.32,-181.049 760.645,-185.367 770.901,-188.025 770.32,-181.049"/>
</g>
<!-- Node4 -->
<g id="node4" class="node"><title>Node4</title>
<g id="a_node4"><a xlink:href="client__manager_8h.html" target="_top" xlink:title="client_manager.h">
<polygon fill="white" stroke="black" points="247.5,-56.5 247.5,-75.5 338.5,-75.5 338.5,-56.5 247.5,-56.5"/>
<text text-anchor="middle" x="293" y="-63.5" font-family="Helvetica,sans-Serif" font-size="10.00">client_manager.h</text>
</a>
</g>
</g>
<!-- Node3&#45;&gt;Node4 -->
<g id="edge3" class="edge"><title>Node3&#45;&gt;Node4</title>
<path fill="none" stroke="midnightblue" d="M293,-107.817C293,-96.9962 293,-83.898 293,-75.5091"/>
<polygon fill="midnightblue" stroke="midnightblue" points="289.5,-107.975 293,-117.975 296.5,-107.975 289.5,-107.975"/>
</g>
<!-- Node3&#45;&gt;Node6 -->
<g id="edge7" class="edge"><title>Node3&#45;&gt;Node6</title>
<path fill="none" stroke="midnightblue" d="M311.051,-111.282C340.113,-86.7806 396.361,-39.3596 419.583,-19.782"/>
<polygon fill="midnightblue" stroke="midnightblue" points="308.687,-108.697 303.297,-117.819 313.199,-114.049 308.687,-108.697"/>
</g>
<!-- Node8 -->
<g id="node8" class="node"><title>Node8</title>
<g id="a_node8"><a xlink:href="basic__codec_8h.html" target="_top" xlink:title="basic_codec.h">
<polygon fill="white" stroke="black" points="81,-56.5 81,-75.5 161,-75.5 161,-56.5 81,-56.5"/>
<text text-anchor="middle" x="121" y="-63.5" font-family="Helvetica,sans-Serif" font-size="10.00">basic_codec.h</text>
</a>
</g>
</g>
<!-- Node3&#45;&gt;Node8 -->
<g id="edge8" class="edge"><title>Node3&#45;&gt;Node8</title>
<path fill="none" stroke="midnightblue" d="M258.55,-114.583C225.116,-103.017 175.209,-85.7524 145.598,-75.5091"/>
<polygon fill="midnightblue" stroke="midnightblue" points="257.762,-118.013 268.357,-117.975 260.05,-111.398 257.762,-118.013"/>
</g>
<!-- Node9 -->
<g id="node9" class="node"><title>Node9</title>
<g id="a_node9"><a xlink:href="server_8h.html" target="_top" xlink:title="server.h">
<polygon fill="white" stroke="black" points="179,-56.5 179,-75.5 229,-75.5 229,-56.5 179,-56.5"/>
<text text-anchor="middle" x="204" y="-63.5" font-family="Helvetica,sans-Serif" font-size="10.00">server.h</text>
</a>
</g>
</g>
<!-- Node3&#45;&gt;Node9 -->
<g id="edge9" class="edge"><title>Node3&#45;&gt;Node9</title>
<path fill="none" stroke="midnightblue" d="M271.48,-112.113C254.362,-100.669 230.993,-85.046 216.728,-75.5091"/>
<polygon fill="midnightblue" stroke="midnightblue" points="269.99,-115.327 280.248,-117.975 273.88,-109.508 269.99,-115.327"/>
</g>
<!-- Node5 -->
<g id="node5" class="node"><title>Node5</title>
<g id="a_node5"><a xlink:href="arbitrated__client__manager_8h.html" target="_top" xlink:title="arbitrated_client_manager.h">
<polygon fill="white" stroke="black" points="221.5,-0.5 221.5,-19.5 358.5,-19.5 358.5,-0.5 221.5,-0.5"/>
<text text-anchor="middle" x="290" y="-7.5" font-family="Helvetica,sans-Serif" font-size="10.00">arbitrated_client_manager.h</text>
</a>
</g>
</g>
<!-- Node4&#45;&gt;Node5 -->
<g id="edge4" class="edge"><title>Node4&#45;&gt;Node5</title>
<path fill="none" stroke="midnightblue" d="M291.934,-45.8045C291.439,-36.9102 290.877,-26.7798 290.486,-19.7511"/>
<polygon fill="midnightblue" stroke="midnightblue" points="288.455,-46.2926 292.505,-56.083 295.444,-45.9042 288.455,-46.2926"/>
</g>
<!-- Node4&#45;&gt;Node6 -->
<g id="edge5" class="edge"><title>Node4&#45;&gt;Node6</title>
<path fill="none" stroke="midnightblue" d="M324.023,-52.772C349.757,-42.6287 385.686,-28.4669 408.394,-19.5164"/>
<polygon fill="midnightblue" stroke="midnightblue" points="322.728,-49.5203 314.708,-56.4435 325.295,-56.0326 322.728,-49.5203"/>
</g>
<!-- Node7 -->
<g id="node7" class="node"><title>Node7</title>
<g id="a_node7"><a xlink:href="erpc__client__setup_8h.html" target="_top" xlink:title="erpc_client_setup.h">
<polygon fill="white" stroke="black" points="102.5,-0.5 102.5,-19.5 203.5,-19.5 203.5,-0.5 102.5,-0.5"/>
<text text-anchor="middle" x="153" y="-7.5" font-family="Helvetica,sans-Serif" font-size="10.00">erpc_client_setup.h</text>
</a>
</g>
</g>
<!-- Node4&#45;&gt;Node7 -->
<g id="edge6" class="edge"><title>Node4&#45;&gt;Node7</title>
<path fill="none" stroke="midnightblue" d="M261.298,-52.772C235,-42.6287 198.284,-28.4669 175.08,-19.5164"/>
<polygon fill="midnightblue" stroke="midnightblue" points="260.227,-56.1103 270.817,-56.4435 262.746,-49.5792 260.227,-56.1103"/>
</g>
<!-- Node10 -->
<g id="node10" class="node"><title>Node10</title>
<g id="a_node10"><a xlink:href="simple__server_8h.html" target="_top" xlink:title="simple_server.h">
<polygon fill="white" stroke="black" points="0,-0.5 0,-19.5 84,-19.5 84,-0.5 0,-0.5"/>
<text text-anchor="middle" x="42" y="-7.5" font-family="Helvetica,sans-Serif" font-size="10.00">simple_server.h</text>
</a>
</g>
</g>
<!-- Node9&#45;&gt;Node10 -->
<g id="edge10" class="edge"><title>Node9&#45;&gt;Node10</title>
<path fill="none" stroke="midnightblue" d="M168.889,-53.2963C138.41,-43.1366 94.9938,-28.6646 67.6694,-19.5565"/>
<polygon fill="midnightblue" stroke="midnightblue" points="168.094,-56.7205 178.688,-56.5625 170.307,-50.0798 168.094,-56.7205"/>
</g>
<!-- Node12 -->
<g id="node12" class="node"><title>Node12</title>
<g id="a_node12"><a xlink:href="dspi__master__transport_8h.html" target="_top" xlink:title="dspi_master_transport.h">
<polygon fill="white" stroke="black" points="454,-56.5 454,-75.5 576,-75.5 576,-56.5 454,-56.5"/>
<text text-anchor="middle" x="515" y="-63.5" font-family="Helvetica,sans-Serif" font-size="10.00">dspi_master_transport.h</text>
</a>
</g>
</g>
<!-- Node11&#45;&gt;Node12 -->
<g id="edge13" class="edge"><title>Node11&#45;&gt;Node12</title>
<path fill="none" stroke="midnightblue" d="M935.801,-115.635C929.855,-114.283 923.79,-113.02 918,-112 771.394,-86.1789 732.831,-93.4925 585,-76 582.08,-75.6544 579.092,-75.2946 576.074,-74.9261"/>
<polygon fill="midnightblue" stroke="midnightblue" points="935.089,-119.063 945.627,-117.967 936.705,-112.252 935.089,-119.063"/>
</g>
<!-- Node13 -->
<g id="node13" class="node"><title>Node13</title>
<g id="a_node13"><a xlink:href="dspi__slave__transport_8h.html" target="_top" xlink:title="dspi_slave_transport.h">
<polygon fill="white" stroke="black" points="594.5,-56.5 594.5,-75.5 707.5,-75.5 707.5,-56.5 594.5,-56.5"/>
<text text-anchor="middle" x="651" y="-63.5" font-family="Helvetica,sans-Serif" font-size="10.00">dspi_slave_transport.h</text>
</a>
</g>
</g>
<!-- Node11&#45;&gt;Node13 -->
<g id="edge14" class="edge"><title>Node11&#45;&gt;Node13</title>
<path fill="none" stroke="midnightblue" d="M933.895,-115.516C928.556,-114.271 923.161,-113.068 918,-112 845.843,-97.0739 761.947,-83.5552 707.741,-75.3164"/>
<polygon fill="midnightblue" stroke="midnightblue" points="933.481,-119.016 944.021,-117.938 935.11,-112.208 933.481,-119.016"/>
</g>
<!-- Node14 -->
<g id="node14" class="node"><title>Node14</title>
<g id="a_node14"><a xlink:href="serial__transport_8h.html" target="_top" xlink:title="serial_transport.h">
<polygon fill="white" stroke="black" points="726,-56.5 726,-75.5 818,-75.5 818,-56.5 726,-56.5"/>
<text text-anchor="middle" x="772" y="-63.5" font-family="Helvetica,sans-Serif" font-size="10.00">serial_transport.h</text>
</a>
</g>
</g>
<!-- Node11&#45;&gt;Node14 -->
<g id="edge15" class="edge"><title>Node11&#45;&gt;Node14</title>
<path fill="none" stroke="midnightblue" d="M937.984,-115.176C898.151,-103.614 837.218,-85.929 801.317,-75.5091"/>
<polygon fill="midnightblue" stroke="midnightblue" points="937.049,-118.549 947.628,-117.975 939,-111.826 937.049,-118.549"/>
</g>
<!-- Node15 -->
<g id="node15" class="node"><title>Node15</title>
<g id="a_node15"><a xlink:href="spi__master__transport_8h.html" target="_top" xlink:title="spi_master_transport.h">
<polygon fill="white" stroke="black" points="836,-56.5 836,-75.5 952,-75.5 952,-56.5 836,-56.5"/>
<text text-anchor="middle" x="894" y="-63.5" font-family="Helvetica,sans-Serif" font-size="10.00">spi_master_transport.h</text>
</a>
</g>
</g>
<!-- Node11&#45;&gt;Node15 -->
<g id="edge16" class="edge"><title>Node11&#45;&gt;Node15</title>
<path fill="none" stroke="midnightblue" d="M956.93,-112.113C940.967,-100.669 919.173,-85.046 905.87,-75.5091"/>
<polygon fill="midnightblue" stroke="midnightblue" points="954.941,-114.993 965.108,-117.975 959.02,-109.304 954.941,-114.993"/>
</g>
<!-- Node16 -->
<g id="node16" class="node"><title>Node16</title>
<g id="a_node16"><a xlink:href="spi__slave__transport_8h.html" target="_top" xlink:title="spi_slave_transport.h">
<polygon fill="white" stroke="black" points="970,-56.5 970,-75.5 1078,-75.5 1078,-56.5 970,-56.5"/>
<text text-anchor="middle" x="1024" y="-63.5" font-family="Helvetica,sans-Serif" font-size="10.00">spi_slave_transport.h</text>
</a>
</g>
</g>
<!-- Node11&#45;&gt;Node16 -->
<g id="edge17" class="edge"><title>Node11&#45;&gt;Node16</title>
<path fill="none" stroke="midnightblue" d="M990.162,-109.838C998.984,-98.6694 1010.23,-84.4278 1017.28,-75.5091"/>
<polygon fill="midnightblue" stroke="midnightblue" points="987.186,-107.958 983.734,-117.975 992.679,-112.297 987.186,-107.958"/>
</g>
<!-- Node17 -->
<g id="node17" class="node"><title>Node17</title>
<g id="a_node17"><a xlink:href="tcp__transport_8h.html" target="_top" xlink:title="tcp_transport.h">
<polygon fill="white" stroke="black" points="1096,-56.5 1096,-75.5 1178,-75.5 1178,-56.5 1096,-56.5"/>
<text text-anchor="middle" x="1137" y="-63.5" font-family="Helvetica,sans-Serif" font-size="10.00">tcp_transport.h</text>
</a>
</g>
</g>
<!-- Node11&#45;&gt;Node17 -->
<g id="edge18" class="edge"><title>Node11&#45;&gt;Node17</title>
<path fill="none" stroke="midnightblue" d="M1009.45,-114.433C1040.55,-102.868 1086.69,-85.7083 1114.12,-75.5091"/>
<polygon fill="midnightblue" stroke="midnightblue" points="1008.08,-111.209 999.924,-117.975 1010.52,-117.77 1008.08,-111.209"/>
</g>
<!-- Node18 -->
<g id="node18" class="node"><title>Node18</title>
<g id="a_node18"><a xlink:href="uart__cmsis__transport_8h.html" target="_top" xlink:title="uart_cmsis_transport.h">
<polygon fill="white" stroke="black" points="1196,-56.5 1196,-75.5 1312,-75.5 1312,-56.5 1196,-56.5"/>
<text text-anchor="middle" x="1254" y="-63.5" font-family="Helvetica,sans-Serif" font-size="10.00">uart_cmsis_transport.h</text>
</a>
</g>
</g>
<!-- Node11&#45;&gt;Node18 -->
<g id="edge19" class="edge"><title>Node11&#45;&gt;Node18</title>
<path fill="none" stroke="midnightblue" d="M1026.67,-115.83C1080.39,-104.292 1164.95,-86.1277 1214.39,-75.5091"/>
<polygon fill="midnightblue" stroke="midnightblue" points="1025.73,-112.453 1016.69,-117.975 1027.2,-119.297 1025.73,-112.453"/>
</g>
<!-- Node24 -->
<g id="node24" class="node"><title>Node24</title>
<g id="a_node24"><a xlink:href="rpmsg__lite__rtos__transport_8h.html" target="_top" xlink:title="rpmsg_lite_rtos_transport.h">
<polygon fill="white" stroke="black" points="1330.5,-56.5 1330.5,-75.5 1465.5,-75.5 1465.5,-56.5 1330.5,-56.5"/>
<text text-anchor="middle" x="1398" y="-63.5" font-family="Helvetica,sans-Serif" font-size="10.00">rpmsg_lite_rtos_transport.h</text>
</a>
</g>
</g>
<!-- Node23&#45;&gt;Node24 -->
<g id="edge25" class="edge"><title>Node23&#45;&gt;Node24</title>
<path fill="none" stroke="midnightblue" d="M1431.12,-109.838C1422.48,-98.6694 1411.47,-84.4278 1404.58,-75.5091"/>
<polygon fill="midnightblue" stroke="midnightblue" points="1428.52,-112.204 1437.41,-117.975 1434.06,-107.923 1428.52,-112.204"/>
</g>
<!-- Node25 -->
<g id="node25" class="node"><title>Node25</title>
<g id="a_node25"><a xlink:href="rpmsg__lite__transport_8h.html" target="_top" xlink:title="rpmsg_lite_transport.h">
<polygon fill="white" stroke="black" points="1483.5,-56.5 1483.5,-75.5 1596.5,-75.5 1596.5,-56.5 1483.5,-56.5"/>
<text text-anchor="middle" x="1540" y="-63.5" font-family="Helvetica,sans-Serif" font-size="10.00">rpmsg_lite_transport.h</text>
</a>
</g>
</g>
<!-- Node23&#45;&gt;Node25 -->
<g id="edge26" class="edge"><title>Node23&#45;&gt;Node25</title>
<path fill="none" stroke="midnightblue" d="M1466.45,-112.587C1484.97,-101.104 1510.67,-85.1784 1526.27,-75.5091"/>
<polygon fill="midnightblue" stroke="midnightblue" points="1464.41,-109.732 1457.75,-117.975 1468.1,-115.682 1464.41,-109.732"/>
</g>
<!-- Node23&#45;&gt;Node26 -->
<g id="edge27" class="edge"><title>Node23&#45;&gt;Node26</title>
<path fill="none" stroke="midnightblue" d="M1487.84,-115.541C1534.04,-103.99 1605.84,-86.0394 1647.96,-75.5091"/>
<polygon fill="midnightblue" stroke="midnightblue" points="1486.95,-112.154 1478.1,-117.975 1488.65,-118.945 1486.95,-112.154"/>
</g>
</g>
</svg>
