<?xml version="1.0" encoding="UTF-8" standalone="no"?>
<!DOCTYPE svg PUBLIC "-//W3C//DTD SVG 1.1//EN"
 "http://www.w3.org/Graphics/SVG/1.1/DTD/svg11.dtd">
<!-- Generated by graphviz version 2.38.0 (20140413.2041)
 -->
<!-- Title: erpc_arbitrated_client_setup.h Pages: 1 -->
<svg width="766pt" height="386pt"
 viewBox="0.00 0.00 766.00 386.00" xmlns="http://www.w3.org/2000/svg" xmlns:xlink="http://www.w3.org/1999/xlink">
<g id="graph0" class="graph" transform="scale(1 1) rotate(0) translate(4 382)">
<title>erpc_arbitrated_client_setup.h</title>
<polygon fill="white" stroke="none" points="-4,4 -4,-382 762,-382 762,4 -4,4"/>
<!-- Node1 -->
<g id="node1" class="node"><title>Node1</title>
<polygon fill="#bfbfbf" stroke="black" points="143,-347.5 143,-377.5 253,-377.5 253,-347.5 143,-347.5"/>
<text text-anchor="start" x="151" y="-365.5" font-family="Helvetica,sans-Serif" font-size="10.00">erpc_arbitrated_client</text>
<text text-anchor="middle" x="198" y="-354.5" font-family="Helvetica,sans-Serif" font-size="10.00">_setup.h</text>
</g>
<!-- Node2 -->
<g id="node2" class="node"><title>Node2</title>
<g id="a_node2"><a xlink:href="erpc__common_8h_source.html" target="_top" xlink:title="erpc_common.h">
<polygon fill="white" stroke="black" points="302,-56.5 302,-75.5 388,-75.5 388,-56.5 302,-56.5"/>
<text text-anchor="middle" x="345" y="-63.5" font-family="Helvetica,sans-Serif" font-size="10.00">erpc_common.h</text>
</a>
</g>
</g>
<!-- Node1&#45;&gt;Node2 -->
<g id="edge1" class="edge"><title>Node1&#45;&gt;Node2</title>
<path fill="none" stroke="midnightblue" d="M205.508,-347.424C216.582,-325.311 236,-280.794 236,-240.5 236,-240.5 236,-240.5 236,-177 236,-131.119 284.437,-97.5267 316.734,-80.2277"/>
<polygon fill="midnightblue" stroke="midnightblue" points="318.471,-83.2701 325.764,-75.5849 315.27,-77.0447 318.471,-83.2701"/>
</g>
<!-- Node3 -->
<g id="node3" class="node"><title>Node3</title>
<polygon fill="white" stroke="#bfbfbf" points="284.5,-0.5 284.5,-19.5 333.5,-19.5 333.5,-0.5 284.5,-0.5"/>
<text text-anchor="middle" x="309" y="-7.5" font-family="Helvetica,sans-Serif" font-size="10.00">stdint.h</text>
</g>
<!-- Node1&#45;&gt;Node3 -->
<g id="edge30" class="edge"><title>Node1&#45;&gt;Node3</title>
<path fill="none" stroke="midnightblue" d="M198,-347.342C198,-324.751 198,-279.153 198,-240.5 198,-240.5 198,-240.5 198,-121 198,-74.8239 247.063,-41.4259 279.952,-24.2256"/>
<polygon fill="midnightblue" stroke="midnightblue" points="281.786,-27.221 289.155,-19.6087 278.648,-20.9641 281.786,-27.221"/>
</g>
<!-- Node4 -->
<g id="node4" class="node"><title>Node4</title>
<g id="a_node4"><a xlink:href="erpc__config__internal_8h_source.html" target="_top" xlink:title="erpc_config_internal.h">
<polygon fill="white" stroke="black" points="561.5,-168.5 561.5,-187.5 672.5,-187.5 672.5,-168.5 561.5,-168.5"/>
<text text-anchor="middle" x="617" y="-175.5" font-family="Helvetica,sans-Serif" font-size="10.00">erpc_config_internal.h</text>
</a>
</g>
</g>
<!-- Node1&#45;&gt;Node4 -->
<g id="edge3" class="edge"><title>Node1&#45;&gt;Node4</title>
<path fill="none" stroke="midnightblue" d="M253.184,-360.571C317,-357.703 424.034,-347.288 508,-311 545.536,-294.778 555.307,-286.811 581,-255 595.012,-237.651 605.12,-213.947 610.994,-197.649"/>
<polygon fill="midnightblue" stroke="midnightblue" points="614.465,-198.313 614.38,-187.718 607.84,-196.054 614.465,-198.313"/>
</g>
<!-- Node7 -->
<g id="node7" class="node"><title>Node7</title>
<g id="a_node7"><a xlink:href="erpc__mbf__setup_8h.html" target="_top" xlink:title="erpc_mbf_setup.h">
<polygon fill="white" stroke="black" points="0,-291.5 0,-310.5 94,-310.5 94,-291.5 0,-291.5"/>
<text text-anchor="middle" x="47" y="-298.5" font-family="Helvetica,sans-Serif" font-size="10.00">erpc_mbf_setup.h</text>
</a>
</g>
</g>
<!-- Node1&#45;&gt;Node7 -->
<g id="edge6" class="edge"><title>Node1&#45;&gt;Node7</title>
<path fill="none" stroke="midnightblue" d="M162.215,-347.399C136.767,-337.372 102.903,-324.028 78.4816,-314.405"/>
<polygon fill="midnightblue" stroke="midnightblue" points="79.5588,-311.068 68.9718,-310.658 76.9925,-317.58 79.5588,-311.068"/>
</g>
<!-- Node8 -->
<g id="node8" class="node"><title>Node8</title>
<g id="a_node8"><a xlink:href="erpc__transport__setup_8h.html" target="_top" xlink:title="erpc_transport_setup.h">
<polygon fill="white" stroke="black" points="16,-230 16,-249 132,-249 132,-230 16,-230"/>
<text text-anchor="middle" x="74" y="-237" font-family="Helvetica,sans-Serif" font-size="10.00">erpc_transport_setup.h</text>
</a>
</g>
</g>
<!-- Node1&#45;&gt;Node8 -->
<g id="edge28" class="edge"><title>Node1&#45;&gt;Node8</title>
<path fill="none" stroke="midnightblue" d="M183.415,-347.367C172.983,-337.25 158.614,-323.3 146,-311 126.766,-292.244 104.7,-270.622 90.1202,-256.321"/>
<polygon fill="midnightblue" stroke="midnightblue" points="92.4454,-253.699 82.856,-249.194 87.543,-258.696 92.4454,-253.699"/>
</g>
<!-- Node9 -->
<g id="node9" class="node"><title>Node9</title>
<polygon fill="white" stroke="#bfbfbf" points="111,-168.5 111,-187.5 167,-187.5 167,-168.5 111,-168.5"/>
<text text-anchor="middle" x="139" y="-175.5" font-family="Helvetica,sans-Serif" font-size="10.00">stdbool.h</text>
</g>
<!-- Node1&#45;&gt;Node9 -->
<g id="edge29" class="edge"><title>Node1&#45;&gt;Node9</title>
<path fill="none" stroke="midnightblue" d="M193.468,-347.483C182.953,-314.957 156.892,-234.343 145.04,-197.683"/>
<polygon fill="midnightblue" stroke="midnightblue" points="148.257,-196.257 141.851,-187.819 141.597,-198.411 148.257,-196.257"/>
</g>
<!-- Node10 -->
<g id="node10" class="node"><title>Node10</title>
<g id="a_node10"><a xlink:href="erpc__client__manager_8h.html" target="_top" xlink:title="erpc_client_manager.h">
<polygon fill="white" stroke="black" points="384.5,-291.5 384.5,-310.5 499.5,-310.5 499.5,-291.5 384.5,-291.5"/>
<text text-anchor="middle" x="442" y="-298.5" font-family="Helvetica,sans-Serif" font-size="10.00">erpc_client_manager.h</text>
</a>
</g>
</g>
<!-- Node1&#45;&gt;Node10 -->
<g id="edge10" class="edge"><title>Node1&#45;&gt;Node10</title>
<path fill="none" stroke="midnightblue" d="M253.063,-348.073C296.6,-337.456 356.61,-322.822 397.227,-312.918"/>
<polygon fill="midnightblue" stroke="midnightblue" points="398.228,-316.277 407.114,-310.507 396.569,-309.476 398.228,-316.277"/>
</g>
<!-- Node2&#45;&gt;Node3 -->
<g id="edge2" class="edge"><title>Node2&#45;&gt;Node3</title>
<path fill="none" stroke="midnightblue" d="M339.055,-56.083C334.023,-48.5341 326.663,-37.4948 320.487,-28.2298"/>
<polygon fill="midnightblue" stroke="midnightblue" points="323.293,-26.1301 314.834,-19.7511 317.469,-30.0131 323.293,-26.1301"/>
</g>
<!-- Node5 -->
<g id="node5" class="node"><title>Node5</title>
<g id="a_node5"><a xlink:href="erpc__config_8h.html" target="_top" xlink:title="erpc_config.h">
<polygon fill="white" stroke="black" points="684,-112.5 684,-131.5 758,-131.5 758,-112.5 684,-112.5"/>
<text text-anchor="middle" x="721" y="-119.5" font-family="Helvetica,sans-Serif" font-size="10.00">erpc_config.h</text>
</a>
</g>
</g>
<!-- Node4&#45;&gt;Node5 -->
<g id="edge4" class="edge"><title>Node4&#45;&gt;Node5</title>
<path fill="none" stroke="midnightblue" d="M633.709,-168.324C650.312,-159.703 676.002,-146.364 695.22,-136.386"/>
<polygon fill="midnightblue" stroke="midnightblue" points="697.07,-139.369 704.332,-131.655 693.844,-133.156 697.07,-139.369"/>
</g>
<!-- Node6 -->
<g id="node6" class="node"><title>Node6</title>
<polygon fill="white" stroke="#bfbfbf" points="616.5,-112.5 616.5,-131.5 665.5,-131.5 665.5,-112.5 616.5,-112.5"/>
<text text-anchor="middle" x="641" y="-119.5" font-family="Helvetica,sans-Serif" font-size="10.00">cassert</text>
</g>
<!-- Node4&#45;&gt;Node6 -->
<g id="edge5" class="edge"><title>Node4&#45;&gt;Node6</title>
<path fill="none" stroke="midnightblue" d="M620.963,-168.083C624.213,-160.77 628.919,-150.181 632.954,-141.103"/>
<polygon fill="midnightblue" stroke="midnightblue" points="636.248,-142.311 637.111,-131.751 629.851,-139.468 636.248,-142.311"/>
</g>
<!-- Node7&#45;&gt;Node8 -->
<g id="edge7" class="edge"><title>Node7&#45;&gt;Node8</title>
<path fill="none" stroke="midnightblue" d="M50.8684,-291.475C54.7982,-282.815 60.9998,-269.149 65.9929,-258.145"/>
<polygon fill="midnightblue" stroke="midnightblue" points="69.1936,-259.562 70.1387,-249.009 62.8192,-256.669 69.1936,-259.562"/>
</g>
<!-- Node8&#45;&gt;Node3 -->
<g id="edge9" class="edge"><title>Node8&#45;&gt;Node3</title>
<path fill="none" stroke="midnightblue" d="M76.6596,-229.622C86.0113,-199.984 120.307,-103.639 184,-56 210.904,-35.877 247.662,-24.0847 274.349,-17.6579"/>
<polygon fill="midnightblue" stroke="midnightblue" points="275.421,-21.0035 284.397,-15.3752 273.87,-14.1774 275.421,-21.0035"/>
</g>
<!-- Node8&#45;&gt;Node9 -->
<g id="edge8" class="edge"><title>Node8&#45;&gt;Node9</title>
<path fill="none" stroke="midnightblue" d="M83.3129,-229.975C93.4491,-220.697 109.864,-205.671 122.252,-194.331"/>
<polygon fill="midnightblue" stroke="midnightblue" points="124.691,-196.843 129.704,-187.509 119.965,-191.68 124.691,-196.843"/>
</g>
<!-- Node10&#45;&gt;Node4 -->
<g id="edge27" class="edge"><title>Node10&#45;&gt;Node4</title>
<path fill="none" stroke="midnightblue" d="M472.273,-291.477C495.021,-284.141 526.22,-272.031 550,-255 572.925,-238.581 593.412,-212.922 605.524,-196.035"/>
<polygon fill="midnightblue" stroke="midnightblue" points="608.508,-197.875 611.354,-187.67 602.765,-193.873 608.508,-197.875"/>
</g>
<!-- Node11 -->
<g id="node11" class="node"><title>Node11</title>
<g id="a_node11"><a xlink:href="erpc__client__server__common_8h.html" target="_top" xlink:title="erpc_client_server\l_common.h">
<polygon fill="white" stroke="black" points="446.5,-224.5 446.5,-254.5 541.5,-254.5 541.5,-224.5 446.5,-224.5"/>
<text text-anchor="start" x="454.5" y="-242.5" font-family="Helvetica,sans-Serif" font-size="10.00">erpc_client_server</text>
<text text-anchor="middle" x="494" y="-231.5" font-family="Helvetica,sans-Serif" font-size="10.00">_common.h</text>
</a>
</g>
</g>
<!-- Node10&#45;&gt;Node11 -->
<g id="edge11" class="edge"><title>Node10&#45;&gt;Node11</title>
<path fill="none" stroke="midnightblue" d="M449.45,-291.475C456.098,-283.869 466.122,-272.399 474.979,-262.265"/>
<polygon fill="midnightblue" stroke="midnightblue" points="477.799,-264.356 481.745,-254.523 472.529,-259.749 477.799,-264.356"/>
</g>
<!-- Node12 -->
<g id="node12" class="node"><title>Node12</title>
<g id="a_node12"><a xlink:href="erpc__codec_8h.html" target="_top" xlink:title="erpc_codec.h">
<polygon fill="white" stroke="black" points="352.5,-230 352.5,-249 427.5,-249 427.5,-230 352.5,-230"/>
<text text-anchor="middle" x="390" y="-237" font-family="Helvetica,sans-Serif" font-size="10.00">erpc_codec.h</text>
</a>
</g>
</g>
<!-- Node10&#45;&gt;Node12 -->
<g id="edge13" class="edge"><title>Node10&#45;&gt;Node12</title>
<path fill="none" stroke="midnightblue" d="M434.55,-291.475C426.672,-282.462 414.055,-268.025 404.256,-256.812"/>
<polygon fill="midnightblue" stroke="midnightblue" points="406.653,-254.236 397.437,-249.009 401.382,-258.842 406.653,-254.236"/>
</g>
<!-- Node11&#45;&gt;Node4 -->
<g id="edge12" class="edge"><title>Node11&#45;&gt;Node4</title>
<path fill="none" stroke="midnightblue" d="M523.149,-224.399C543.418,-214.595 570.241,-201.619 590.019,-192.052"/>
<polygon fill="midnightblue" stroke="midnightblue" points="591.624,-195.163 599.102,-187.658 588.576,-188.862 591.624,-195.163"/>
</g>
<!-- Node12&#45;&gt;Node2 -->
<g id="edge14" class="edge"><title>Node12&#45;&gt;Node2</title>
<path fill="none" stroke="midnightblue" d="M386.287,-229.85C378.761,-211.945 361.687,-169.368 353,-132 349.416,-116.582 347.364,-98.7101 346.238,-85.6129"/>
<polygon fill="midnightblue" stroke="midnightblue" points="349.718,-85.2205 345.471,-75.5141 342.738,-85.7504 349.718,-85.2205"/>
</g>
<!-- Node12&#45;&gt;Node3 -->
<g id="edge26" class="edge"><title>Node12&#45;&gt;Node3</title>
<path fill="none" stroke="midnightblue" d="M382.404,-229.792C362.838,-206.71 310.993,-141.247 293,-76 288.661,-60.2645 293.899,-42.2297 299.512,-29.1551"/>
<polygon fill="midnightblue" stroke="midnightblue" points="302.792,-30.4066 303.918,-19.8717 296.468,-27.4053 302.792,-30.4066"/>
</g>
<!-- Node13 -->
<g id="node13" class="node"><title>Node13</title>
<g id="a_node13"><a xlink:href="erpc__message__buffer_8h.html" target="_top" xlink:title="erpc_message_buffer.h">
<polygon fill="white" stroke="black" points="378.5,-112.5 378.5,-131.5 495.5,-131.5 495.5,-112.5 378.5,-112.5"/>
<text text-anchor="middle" x="437" y="-119.5" font-family="Helvetica,sans-Serif" font-size="10.00">erpc_message_buffer.h</text>
</a>
</g>
</g>
<!-- Node12&#45;&gt;Node13 -->
<g id="edge15" class="edge"><title>Node12&#45;&gt;Node13</title>
<path fill="none" stroke="midnightblue" d="M391.266,-229.963C393.475,-216.405 398.709,-189.306 408,-168 412.265,-158.22 418.536,-148.162 424.157,-140.043"/>
<polygon fill="midnightblue" stroke="midnightblue" points="427.078,-141.976 430.085,-131.817 421.399,-137.883 427.078,-141.976"/>
</g>
<!-- Node15 -->
<g id="node15" class="node"><title>Node15</title>
<g id="a_node15"><a xlink:href="erpc__transport_8h.html" target="_top" xlink:title="erpc_transport.h">
<polygon fill="white" stroke="black" points="417.5,-168.5 417.5,-187.5 504.5,-187.5 504.5,-168.5 417.5,-168.5"/>
<text text-anchor="middle" x="461" y="-175.5" font-family="Helvetica,sans-Serif" font-size="10.00">erpc_transport.h</text>
</a>
</g>
</g>
<!-- Node12&#45;&gt;Node15 -->
<g id="edge19" class="edge"><title>Node12&#45;&gt;Node15</title>
<path fill="none" stroke="midnightblue" d="M400.173,-229.975C411.35,-220.608 429.517,-205.384 443.091,-194.008"/>
<polygon fill="midnightblue" stroke="midnightblue" points="445.43,-196.615 450.846,-187.509 440.934,-191.25 445.43,-196.615"/>
</g>
<!-- Node17 -->
<g id="node17" class="node"><title>Node17</title>
<polygon fill="white" stroke="#bfbfbf" points="552,-112.5 552,-131.5 598,-131.5 598,-112.5 552,-112.5"/>
<text text-anchor="middle" x="575" y="-119.5" font-family="Helvetica,sans-Serif" font-size="10.00">cstring</text>
</g>
<!-- Node12&#45;&gt;Node17 -->
<g id="edge25" class="edge"><title>Node12&#45;&gt;Node17</title>
<path fill="none" stroke="midnightblue" d="M414.14,-229.954C444.968,-218.808 496.322,-199.393 513,-188 532.622,-174.596 550.851,-154.12 562.393,-139.74"/>
<polygon fill="midnightblue" stroke="midnightblue" points="565.28,-141.73 568.669,-131.692 559.759,-137.426 565.28,-141.73"/>
</g>
<!-- Node13&#45;&gt;Node2 -->
<g id="edge16" class="edge"><title>Node13&#45;&gt;Node2</title>
<path fill="none" stroke="midnightblue" d="M422.219,-112.324C407.733,-103.822 385.427,-90.7288 368.507,-80.7975"/>
<polygon fill="midnightblue" stroke="midnightblue" points="370.141,-77.6981 359.745,-75.6545 366.597,-83.735 370.141,-77.6981"/>
</g>
<!-- Node13&#45;&gt;Node3 -->
<g id="edge18" class="edge"><title>Node13&#45;&gt;Node3</title>
<path fill="none" stroke="midnightblue" d="M445.587,-112.283C457.529,-99.0856 476.268,-73.6996 463,-56 448.707,-36.9324 384.723,-23.2507 343.859,-16.2733"/>
<polygon fill="midnightblue" stroke="midnightblue" points="344.198,-12.7819 333.761,-14.6045 343.056,-19.6882 344.198,-12.7819"/>
</g>
<!-- Node14 -->
<g id="node14" class="node"><title>Node14</title>
<polygon fill="white" stroke="#bfbfbf" points="406,-56.5 406,-75.5 454,-75.5 454,-56.5 406,-56.5"/>
<text text-anchor="middle" x="430" y="-63.5" font-family="Helvetica,sans-Serif" font-size="10.00">cstddef</text>
</g>
<!-- Node13&#45;&gt;Node14 -->
<g id="edge17" class="edge"><title>Node13&#45;&gt;Node14</title>
<path fill="none" stroke="midnightblue" d="M435.844,-112.083C434.916,-104.927 433.582,-94.6353 432.423,-85.6911"/>
<polygon fill="midnightblue" stroke="midnightblue" points="435.891,-85.2181 431.134,-75.7511 428.949,-86.1181 435.891,-85.2181"/>
</g>
<!-- Node15&#45;&gt;Node2 -->
<g id="edge20" class="edge"><title>Node15&#45;&gt;Node2</title>
<path fill="none" stroke="midnightblue" d="M429.994,-168.434C410.164,-161.521 385.212,-149.942 369,-132 357.291,-119.041 351.144,-99.8744 348.016,-85.7092"/>
<polygon fill="midnightblue" stroke="midnightblue" points="351.407,-84.8085 346.106,-75.6354 344.53,-86.1124 351.407,-84.8085"/>
</g>
<!-- Node15&#45;&gt;Node13 -->
<g id="edge23" class="edge"><title>Node15&#45;&gt;Node13</title>
<path fill="none" stroke="midnightblue" d="M457.037,-168.083C453.787,-160.77 449.081,-150.181 445.046,-141.103"/>
<polygon fill="midnightblue" stroke="midnightblue" points="448.149,-139.468 440.889,-131.751 441.752,-142.311 448.149,-139.468"/>
</g>
<!-- Node16 -->
<g id="node16" class="node"><title>Node16</title>
<g id="a_node16"><a xlink:href="erpc__crc16_8h.html" target="_top" xlink:title="erpc_crc16.h">
<polygon fill="white" stroke="black" points="510.5,-56.5 510.5,-75.5 583.5,-75.5 583.5,-56.5 510.5,-56.5"/>
<text text-anchor="middle" x="547" y="-63.5" font-family="Helvetica,sans-Serif" font-size="10.00">erpc_crc16.h</text>
</a>
</g>
</g>
<!-- Node15&#45;&gt;Node16 -->
<g id="edge21" class="edge"><title>Node15&#45;&gt;Node16</title>
<path fill="none" stroke="midnightblue" d="M470.056,-168.463C479.115,-159.713 493.215,-145.513 504,-132 516.225,-116.682 528.381,-97.8896 536.634,-84.4581"/>
<polygon fill="midnightblue" stroke="midnightblue" points="539.719,-86.12 541.898,-75.7516 533.729,-82.4983 539.719,-86.12"/>
</g>
<!-- Node15&#45;&gt;Node17 -->
<g id="edge24" class="edge"><title>Node15&#45;&gt;Node17</title>
<path fill="none" stroke="midnightblue" d="M479.064,-168.444C497.575,-159.675 526.581,-145.935 547.855,-135.858"/>
<polygon fill="midnightblue" stroke="midnightblue" points="549.482,-138.96 557.021,-131.516 546.485,-132.634 549.482,-138.96"/>
</g>
<!-- Node16&#45;&gt;Node3 -->
<g id="edge22" class="edge"><title>Node16&#45;&gt;Node3</title>
<path fill="none" stroke="midnightblue" d="M510.334,-56.6808C464.85,-46.3608 387.888,-28.899 343.453,-18.8172"/>
<polygon fill="midnightblue" stroke="midnightblue" points="344.219,-15.4019 333.692,-16.6024 342.67,-22.2284 344.219,-15.4019"/>
</g>
</g>
</svg>
