<?xml version="1.0" encoding="UTF-8" standalone="no"?>
<!DOCTYPE svg PUBLIC "-//W3C//DTD SVG 1.1//EN"
 "http://www.w3.org/Graphics/SVG/1.1/DTD/svg11.dtd">
<!-- Generated by graphviz version 2.38.0 (20140413.2041)
 -->
<!-- Title: erpc_server.h Pages: 1 -->
<svg width="420pt" height="308pt"
 viewBox="0.00 0.00 420.00 308.00" xmlns="http://www.w3.org/2000/svg" xmlns:xlink="http://www.w3.org/1999/xlink">
<g id="graph0" class="graph" transform="scale(1 1) rotate(0) translate(4 304)">
<title>erpc_server.h</title>
<polygon fill="white" stroke="none" points="-4,4 -4,-304 416,-304 416,4 -4,4"/>
<!-- Node1 -->
<g id="node1" class="node"><title>Node1</title>
<polygon fill="#bfbfbf" stroke="black" points="218,-280.5 218,-299.5 292,-299.5 292,-280.5 218,-280.5"/>
<text text-anchor="middle" x="255" y="-287.5" font-family="Helvetica,sans-Serif" font-size="10.00">erpc_server.h</text>
</g>
<!-- Node2 -->
<g id="node2" class="node"><title>Node2</title>
<g id="a_node2"><a xlink:href="erpc__codec_8h.html" target="_top" xlink:title="erpc_codec.h">
<polygon fill="white" stroke="black" points="130.5,-224.5 130.5,-243.5 205.5,-243.5 205.5,-224.5 130.5,-224.5"/>
<text text-anchor="middle" x="168" y="-231.5" font-family="Helvetica,sans-Serif" font-size="10.00">erpc_codec.h</text>
</a>
</g>
</g>
<!-- Node1&#45;&gt;Node2 -->
<g id="edge1" class="edge"><title>Node1&#45;&gt;Node2</title>
<path fill="none" stroke="midnightblue" d="M241.022,-280.324C227.45,-271.9 206.62,-258.971 190.675,-249.074"/>
<polygon fill="midnightblue" stroke="midnightblue" points="192.286,-245.954 181.943,-243.655 188.594,-251.902 192.286,-245.954"/>
</g>
<!-- Node10 -->
<g id="node10" class="node"><title>Node10</title>
<g id="a_node10"><a xlink:href="erpc__config__internal_8h_source.html" target="_top" xlink:title="erpc_config_internal.h">
<polygon fill="white" stroke="black" points="287.5,-224.5 287.5,-243.5 398.5,-243.5 398.5,-224.5 287.5,-224.5"/>
<text text-anchor="middle" x="343" y="-231.5" font-family="Helvetica,sans-Serif" font-size="10.00">erpc_config_internal.h</text>
</a>
</g>
</g>
<!-- Node1&#45;&gt;Node10 -->
<g id="edge16" class="edge"><title>Node1&#45;&gt;Node10</title>
<path fill="none" stroke="midnightblue" d="M269.139,-280.324C282.866,-271.9 303.936,-258.971 320.064,-249.074"/>
<polygon fill="midnightblue" stroke="midnightblue" points="322.204,-251.868 328.896,-243.655 318.543,-245.902 322.204,-251.868"/>
</g>
<!-- Node3 -->
<g id="node3" class="node"><title>Node3</title>
<g id="a_node3"><a xlink:href="erpc__common_8h_source.html" target="_top" xlink:title="erpc_common.h">
<polygon fill="white" stroke="black" points="0,-56.5 0,-75.5 86,-75.5 86,-56.5 0,-56.5"/>
<text text-anchor="middle" x="43" y="-63.5" font-family="Helvetica,sans-Serif" font-size="10.00">erpc_common.h</text>
</a>
</g>
</g>
<!-- Node2&#45;&gt;Node3 -->
<g id="edge2" class="edge"><title>Node2&#45;&gt;Node3</title>
<path fill="none" stroke="midnightblue" d="M136.624,-224.398C97.7953,-211.71 34.423,-183.693 15,-132 8.74969,-115.365 18.4979,-96.7804 28.1631,-83.7581"/>
<polygon fill="midnightblue" stroke="midnightblue" points="31.0896,-85.7047 34.6435,-75.7236 25.641,-81.31 31.0896,-85.7047"/>
</g>
<!-- Node4 -->
<g id="node4" class="node"><title>Node4</title>
<polygon fill="white" stroke="#bfbfbf" points="148.5,-0.5 148.5,-19.5 197.5,-19.5 197.5,-0.5 148.5,-0.5"/>
<text text-anchor="middle" x="173" y="-7.5" font-family="Helvetica,sans-Serif" font-size="10.00">stdint.h</text>
</g>
<!-- Node2&#45;&gt;Node4 -->
<g id="edge15" class="edge"><title>Node2&#45;&gt;Node4</title>
<path fill="none" stroke="midnightblue" d="M186.316,-224.345C214.632,-209.821 268.058,-177.589 290,-132 300.796,-109.57 290.778,-100.892 291,-76 291.079,-67.1115 296.043,-63.3201 291,-56 272.471,-29.1029 235.549,-18.2713 207.915,-13.9157"/>
<polygon fill="midnightblue" stroke="midnightblue" points="208.217,-10.4247 197.836,-12.5435 207.273,-17.3607 208.217,-10.4247"/>
</g>
<!-- Node5 -->
<g id="node5" class="node"><title>Node5</title>
<g id="a_node5"><a xlink:href="erpc__message__buffer_8h.html" target="_top" xlink:title="erpc_message_buffer.h">
<polygon fill="white" stroke="black" points="164.5,-112.5 164.5,-131.5 281.5,-131.5 281.5,-112.5 164.5,-112.5"/>
<text text-anchor="middle" x="223" y="-119.5" font-family="Helvetica,sans-Serif" font-size="10.00">erpc_message_buffer.h</text>
</a>
</g>
</g>
<!-- Node2&#45;&gt;Node5 -->
<g id="edge4" class="edge"><title>Node2&#45;&gt;Node5</title>
<path fill="none" stroke="midnightblue" d="M172.316,-224.368C181.312,-206.376 202.225,-164.55 214.187,-140.627"/>
<polygon fill="midnightblue" stroke="midnightblue" points="217.363,-142.101 218.704,-131.591 211.102,-138.97 217.363,-142.101"/>
</g>
<!-- Node7 -->
<g id="node7" class="node"><title>Node7</title>
<g id="a_node7"><a xlink:href="erpc__transport_8h.html" target="_top" xlink:title="erpc_transport.h">
<polygon fill="white" stroke="black" points="92.5,-168.5 92.5,-187.5 179.5,-187.5 179.5,-168.5 92.5,-168.5"/>
<text text-anchor="middle" x="136" y="-175.5" font-family="Helvetica,sans-Serif" font-size="10.00">erpc_transport.h</text>
</a>
</g>
</g>
<!-- Node2&#45;&gt;Node7 -->
<g id="edge8" class="edge"><title>Node2&#45;&gt;Node7</title>
<path fill="none" stroke="midnightblue" d="M162.716,-224.083C158.289,-216.613 151.837,-205.724 146.382,-196.52"/>
<polygon fill="midnightblue" stroke="midnightblue" points="149.295,-194.57 141.186,-187.751 143.273,-198.138 149.295,-194.57"/>
</g>
<!-- Node9 -->
<g id="node9" class="node"><title>Node9</title>
<polygon fill="white" stroke="#bfbfbf" points="24,-112.5 24,-131.5 70,-131.5 70,-112.5 24,-112.5"/>
<text text-anchor="middle" x="47" y="-119.5" font-family="Helvetica,sans-Serif" font-size="10.00">cstring</text>
</g>
<!-- Node2&#45;&gt;Node9 -->
<g id="edge14" class="edge"><title>Node2&#45;&gt;Node9</title>
<path fill="none" stroke="midnightblue" d="M143.282,-224.367C124.911,-216.974 100.162,-204.84 83,-188 69.4997,-174.752 59.6544,-155.357 53.706,-141.202"/>
<polygon fill="midnightblue" stroke="midnightblue" points="56.8409,-139.61 49.9209,-131.588 50.3275,-142.175 56.8409,-139.61"/>
</g>
<!-- Node3&#45;&gt;Node4 -->
<g id="edge3" class="edge"><title>Node3&#45;&gt;Node4</title>
<path fill="none" stroke="midnightblue" d="M63.5989,-56.4435C84.9934,-47.5566 118.681,-33.5632 143.024,-23.4514"/>
<polygon fill="midnightblue" stroke="midnightblue" points="144.605,-26.5848 152.497,-19.5164 141.92,-20.1203 144.605,-26.5848"/>
</g>
<!-- Node5&#45;&gt;Node3 -->
<g id="edge5" class="edge"><title>Node5&#45;&gt;Node3</title>
<path fill="none" stroke="midnightblue" d="M194.478,-112.444C163.934,-103.28 115.292,-88.6876 81.3973,-78.5192"/>
<polygon fill="midnightblue" stroke="midnightblue" points="81.9721,-75.0376 71.3881,-75.5164 79.9606,-81.7424 81.9721,-75.0376"/>
</g>
<!-- Node5&#45;&gt;Node4 -->
<g id="edge7" class="edge"><title>Node5&#45;&gt;Node4</title>
<path fill="none" stroke="midnightblue" d="M219.077,-112.368C210.935,-94.4563 192.056,-52.9233 181.158,-28.9482"/>
<polygon fill="midnightblue" stroke="midnightblue" points="184.23,-27.2468 176.905,-19.5914 177.857,-30.1434 184.23,-27.2468"/>
</g>
<!-- Node6 -->
<g id="node6" class="node"><title>Node6</title>
<polygon fill="white" stroke="#bfbfbf" points="234,-56.5 234,-75.5 282,-75.5 282,-56.5 234,-56.5"/>
<text text-anchor="middle" x="258" y="-63.5" font-family="Helvetica,sans-Serif" font-size="10.00">cstddef</text>
</g>
<!-- Node5&#45;&gt;Node6 -->
<g id="edge6" class="edge"><title>Node5&#45;&gt;Node6</title>
<path fill="none" stroke="midnightblue" d="M228.78,-112.083C233.672,-104.534 240.827,-93.4948 246.833,-84.2298"/>
<polygon fill="midnightblue" stroke="midnightblue" points="249.826,-86.0463 252.328,-75.7511 243.952,-82.239 249.826,-86.0463"/>
</g>
<!-- Node7&#45;&gt;Node3 -->
<g id="edge9" class="edge"><title>Node7&#45;&gt;Node3</title>
<path fill="none" stroke="midnightblue" d="M128.702,-168.368C113.219,-150.055 76.8596,-107.049 56.8337,-83.3624"/>
<polygon fill="midnightblue" stroke="midnightblue" points="59.3928,-80.9682 50.2637,-75.5914 54.0472,-85.4877 59.3928,-80.9682"/>
</g>
<!-- Node7&#45;&gt;Node5 -->
<g id="edge12" class="edge"><title>Node7&#45;&gt;Node5</title>
<path fill="none" stroke="midnightblue" d="M149.978,-168.324C163.55,-159.9 184.38,-146.971 200.325,-137.074"/>
<polygon fill="midnightblue" stroke="midnightblue" points="202.406,-139.902 209.057,-131.655 198.714,-133.954 202.406,-139.902"/>
</g>
<!-- Node8 -->
<g id="node8" class="node"><title>Node8</title>
<g id="a_node8"><a xlink:href="erpc__crc16_8h.html" target="_top" xlink:title="erpc_crc16.h">
<polygon fill="white" stroke="black" points="104.5,-56.5 104.5,-75.5 177.5,-75.5 177.5,-56.5 104.5,-56.5"/>
<text text-anchor="middle" x="141" y="-63.5" font-family="Helvetica,sans-Serif" font-size="10.00">erpc_crc16.h</text>
</a>
</g>
</g>
<!-- Node7&#45;&gt;Node8 -->
<g id="edge10" class="edge"><title>Node7&#45;&gt;Node8</title>
<path fill="none" stroke="midnightblue" d="M136.392,-168.368C137.199,-150.617 139.061,-109.666 140.155,-85.5974"/>
<polygon fill="midnightblue" stroke="midnightblue" points="143.652,-85.7401 140.609,-75.5914 136.659,-85.4221 143.652,-85.7401"/>
</g>
<!-- Node7&#45;&gt;Node9 -->
<g id="edge13" class="edge"><title>Node7&#45;&gt;Node9</title>
<path fill="none" stroke="midnightblue" d="M121.701,-168.324C107.817,-159.9 86.5076,-146.971 70.1963,-137.074"/>
<polygon fill="midnightblue" stroke="midnightblue" points="71.6289,-133.85 61.2639,-131.655 67.9978,-139.834 71.6289,-133.85"/>
</g>
<!-- Node8&#45;&gt;Node4 -->
<g id="edge11" class="edge"><title>Node8&#45;&gt;Node4</title>
<path fill="none" stroke="midnightblue" d="M146.284,-56.083C150.711,-48.6127 157.163,-37.7244 162.618,-28.5199"/>
<polygon fill="midnightblue" stroke="midnightblue" points="165.727,-30.1383 167.814,-19.7511 159.705,-26.5697 165.727,-30.1383"/>
</g>
<!-- Node11 -->
<g id="node11" class="node"><title>Node11</title>
<g id="a_node11"><a xlink:href="erpc__config_8h.html" target="_top" xlink:title="erpc_config.h">
<polygon fill="white" stroke="black" points="338,-168.5 338,-187.5 412,-187.5 412,-168.5 338,-168.5"/>
<text text-anchor="middle" x="375" y="-175.5" font-family="Helvetica,sans-Serif" font-size="10.00">erpc_config.h</text>
</a>
</g>
</g>
<!-- Node10&#45;&gt;Node11 -->
<g id="edge17" class="edge"><title>Node10&#45;&gt;Node11</title>
<path fill="none" stroke="midnightblue" d="M348.284,-224.083C352.711,-216.613 359.163,-205.724 364.618,-196.52"/>
<polygon fill="midnightblue" stroke="midnightblue" points="367.727,-198.138 369.814,-187.751 361.705,-194.57 367.727,-198.138"/>
</g>
</g>
</svg>
