<?xml version="1.0" encoding="UTF-8" standalone="no"?>
<!DOCTYPE svg PUBLIC "-//W3C//DTD SVG 1.1//EN"
 "http://www.w3.org/Graphics/SVG/1.1/DTD/svg11.dtd">
<!-- Generated by graphviz version 2.38.0 (20140413.2041)
 -->
<!-- Title: erpc_i2c_slave_transport.h Pages: 1 -->
<svg width="501pt" height="308pt"
 viewBox="0.00 0.00 500.50 308.00" xmlns="http://www.w3.org/2000/svg" xmlns:xlink="http://www.w3.org/1999/xlink">
<g id="graph0" class="graph" transform="scale(1 1) rotate(0) translate(4 304)">
<title>erpc_i2c_slave_transport.h</title>
<polygon fill="white" stroke="none" points="-4,4 -4,-304 496.5,-304 496.5,4 -4,4"/>
<!-- Node1 -->
<g id="node1" class="node"><title>Node1</title>
<polygon fill="#bfbfbf" stroke="black" points="205.5,-280.5 205.5,-299.5 337.5,-299.5 337.5,-280.5 205.5,-280.5"/>
<text text-anchor="middle" x="271.5" y="-287.5" font-family="Helvetica,sans-Serif" font-size="10.00">erpc_i2c_slave_transport.h</text>
</g>
<!-- Node2 -->
<g id="node2" class="node"><title>Node2</title>
<g id="a_node2"><a xlink:href="erpc__config__internal_8h_source.html" target="_top" xlink:title="erpc_config_internal.h">
<polygon fill="white" stroke="black" points="0,-112.5 0,-131.5 111,-131.5 111,-112.5 0,-112.5"/>
<text text-anchor="middle" x="55.5" y="-119.5" font-family="Helvetica,sans-Serif" font-size="10.00">erpc_config_internal.h</text>
</a>
</g>
</g>
<!-- Node1&#45;&gt;Node2 -->
<g id="edge1" class="edge"><title>Node1&#45;&gt;Node2</title>
<path fill="none" stroke="midnightblue" d="M228.634,-280.46C200.01,-273.511 162.297,-261.88 132.5,-244 101.775,-225.563 93.0351,-218.666 74.5,-188 65.8528,-173.693 60.9499,-155.227 58.2996,-141.635"/>
<polygon fill="midnightblue" stroke="midnightblue" points="61.7121,-140.827 56.5704,-131.563 54.813,-142.011 61.7121,-140.827"/>
</g>
<!-- Node4 -->
<g id="node4" class="node"><title>Node4</title>
<g id="a_node4"><a xlink:href="erpc__threading_8h.html" target="_top" xlink:title="erpc_threading.h">
<polygon fill="white" stroke="black" points="84,-168.5 84,-187.5 173,-187.5 173,-168.5 84,-168.5"/>
<text text-anchor="middle" x="128.5" y="-175.5" font-family="Helvetica,sans-Serif" font-size="10.00">erpc_threading.h</text>
</a>
</g>
</g>
<!-- Node1&#45;&gt;Node4 -->
<g id="edge3" class="edge"><title>Node1&#45;&gt;Node4</title>
<path fill="none" stroke="midnightblue" d="M216.172,-280.481C192.14,-274.142 165.442,-263.123 147.5,-244 135.821,-231.551 131.278,-212.316 129.533,-197.996"/>
<polygon fill="midnightblue" stroke="midnightblue" points="132.999,-197.45 128.651,-187.789 126.025,-198.053 132.999,-197.45"/>
</g>
<!-- Node6 -->
<g id="node6" class="node"><title>Node6</title>
<g id="a_node6"><a xlink:href="erpc__framed__transport_8h.html" target="_top" xlink:title="erpc_framed_transport.h">
<polygon fill="white" stroke="black" points="156.5,-224.5 156.5,-243.5 278.5,-243.5 278.5,-224.5 156.5,-224.5"/>
<text text-anchor="middle" x="217.5" y="-231.5" font-family="Helvetica,sans-Serif" font-size="10.00">erpc_framed_transport.h</text>
</a>
</g>
</g>
<!-- Node1&#45;&gt;Node6 -->
<g id="edge6" class="edge"><title>Node1&#45;&gt;Node6</title>
<path fill="none" stroke="midnightblue" d="M262.583,-280.083C254.72,-272.22 243.069,-260.569 233.581,-251.081"/>
<polygon fill="midnightblue" stroke="midnightblue" points="235.797,-248.347 226.251,-243.751 230.847,-253.297 235.797,-248.347"/>
</g>
<!-- Node13 -->
<g id="node13" class="node"><title>Node13</title>
<polygon fill="white" stroke="#bfbfbf" points="296.5,-224.5 296.5,-243.5 354.5,-243.5 354.5,-224.5 296.5,-224.5"/>
<text text-anchor="middle" x="325.5" y="-231.5" font-family="Helvetica,sans-Serif" font-size="10.00">fsl_gpio.h</text>
</g>
<!-- Node1&#45;&gt;Node13 -->
<g id="edge21" class="edge"><title>Node1&#45;&gt;Node13</title>
<path fill="none" stroke="midnightblue" d="M280.417,-280.083C288.28,-272.22 299.931,-260.569 309.419,-251.081"/>
<polygon fill="midnightblue" stroke="midnightblue" points="312.153,-253.297 316.749,-243.751 307.203,-248.347 312.153,-253.297"/>
</g>
<!-- Node14 -->
<g id="node14" class="node"><title>Node14</title>
<polygon fill="white" stroke="#bfbfbf" points="373,-224.5 373,-243.5 426,-243.5 426,-224.5 373,-224.5"/>
<text text-anchor="middle" x="399.5" y="-231.5" font-family="Helvetica,sans-Serif" font-size="10.00">fsl_i2c.h</text>
</g>
<!-- Node1&#45;&gt;Node14 -->
<g id="edge22" class="edge"><title>Node1&#45;&gt;Node14</title>
<path fill="none" stroke="midnightblue" d="M291.782,-280.444C312.847,-271.557 346.017,-257.563 369.986,-247.451"/>
<polygon fill="midnightblue" stroke="midnightblue" points="371.46,-250.628 379.313,-243.516 368.739,-244.179 371.46,-250.628"/>
</g>
<!-- Node15 -->
<g id="node15" class="node"><title>Node15</title>
<polygon fill="white" stroke="#bfbfbf" points="444.5,-224.5 444.5,-243.5 492.5,-243.5 492.5,-224.5 444.5,-224.5"/>
<text text-anchor="middle" x="468.5" y="-231.5" font-family="Helvetica,sans-Serif" font-size="10.00">stdlib.h</text>
</g>
<!-- Node1&#45;&gt;Node15 -->
<g id="edge23" class="edge"><title>Node1&#45;&gt;Node15</title>
<path fill="none" stroke="midnightblue" d="M302.715,-280.444C338.615,-270.603 397.355,-254.502 434.42,-244.342"/>
<polygon fill="midnightblue" stroke="midnightblue" points="435.543,-247.663 444.262,-241.644 433.693,-240.912 435.543,-247.663"/>
</g>
<!-- Node3 -->
<g id="node3" class="node"><title>Node3</title>
<g id="a_node3"><a xlink:href="erpc__config_8h.html" target="_top" xlink:title="erpc_config.h">
<polygon fill="white" stroke="black" points="18.5,-56.5 18.5,-75.5 92.5,-75.5 92.5,-56.5 18.5,-56.5"/>
<text text-anchor="middle" x="55.5" y="-63.5" font-family="Helvetica,sans-Serif" font-size="10.00">erpc_config.h</text>
</a>
</g>
</g>
<!-- Node2&#45;&gt;Node3 -->
<g id="edge2" class="edge"><title>Node2&#45;&gt;Node3</title>
<path fill="none" stroke="midnightblue" d="M55.5,-112.083C55.5,-105.006 55.5,-94.8611 55.5,-85.9865"/>
<polygon fill="midnightblue" stroke="midnightblue" points="59.0001,-85.751 55.5,-75.7511 52.0001,-85.7511 59.0001,-85.751"/>
</g>
<!-- Node4&#45;&gt;Node2 -->
<g id="edge4" class="edge"><title>Node4&#45;&gt;Node2</title>
<path fill="none" stroke="midnightblue" d="M116.771,-168.324C105.663,-160.107 88.7578,-147.602 75.5167,-137.807"/>
<polygon fill="midnightblue" stroke="midnightblue" points="77.5631,-134.967 67.4421,-131.834 73.4001,-140.595 77.5631,-134.967"/>
</g>
<!-- Node5 -->
<g id="node5" class="node"><title>Node5</title>
<polygon fill="white" stroke="#bfbfbf" points="221,-0.5 221,-19.5 270,-19.5 270,-0.5 221,-0.5"/>
<text text-anchor="middle" x="245.5" y="-7.5" font-family="Helvetica,sans-Serif" font-size="10.00">stdint.h</text>
</g>
<!-- Node4&#45;&gt;Node5 -->
<g id="edge5" class="edge"><title>Node4&#45;&gt;Node5</title>
<path fill="none" stroke="midnightblue" d="M131.457,-168.347C138.909,-147.406 160.057,-93.0029 190.5,-56 200.025,-44.4227 212.899,-33.6972 223.798,-25.6233"/>
<polygon fill="midnightblue" stroke="midnightblue" points="225.913,-28.4138 232.013,-19.7511 221.842,-22.7191 225.913,-28.4138"/>
</g>
<!-- Node6&#45;&gt;Node2 -->
<g id="edge7" class="edge"><title>Node6&#45;&gt;Node2</title>
<path fill="none" stroke="midnightblue" d="M214.852,-224.113C210.275,-210.221 199.593,-183.364 181.5,-168 162.134,-151.555 136.317,-140.948 113.095,-134.192"/>
<polygon fill="midnightblue" stroke="midnightblue" points="113.897,-130.783 103.328,-131.527 112.054,-137.536 113.897,-130.783"/>
</g>
<!-- Node6&#45;&gt;Node4 -->
<g id="edge20" class="edge"><title>Node6&#45;&gt;Node4</title>
<path fill="none" stroke="midnightblue" d="M203.201,-224.324C189.317,-215.9 168.008,-202.971 151.696,-193.074"/>
<polygon fill="midnightblue" stroke="midnightblue" points="153.129,-189.85 142.764,-187.655 149.498,-195.834 153.129,-189.85"/>
</g>
<!-- Node7 -->
<g id="node7" class="node"><title>Node7</title>
<g id="a_node7"><a xlink:href="erpc__message__buffer_8h.html" target="_top" xlink:title="erpc_message_buffer.h">
<polygon fill="white" stroke="black" points="170,-112.5 170,-131.5 287,-131.5 287,-112.5 170,-112.5"/>
<text text-anchor="middle" x="228.5" y="-119.5" font-family="Helvetica,sans-Serif" font-size="10.00">erpc_message_buffer.h</text>
</a>
</g>
</g>
<!-- Node6&#45;&gt;Node7 -->
<g id="edge8" class="edge"><title>Node6&#45;&gt;Node7</title>
<path fill="none" stroke="midnightblue" d="M218.363,-224.368C220.138,-206.617 224.233,-165.666 226.64,-141.597"/>
<polygon fill="midnightblue" stroke="midnightblue" points="230.128,-141.89 227.641,-131.591 223.163,-141.193 230.128,-141.89"/>
</g>
<!-- Node10 -->
<g id="node10" class="node"><title>Node10</title>
<g id="a_node10"><a xlink:href="erpc__transport_8h.html" target="_top" xlink:title="erpc_transport.h">
<polygon fill="white" stroke="black" points="272,-168.5 272,-187.5 359,-187.5 359,-168.5 272,-168.5"/>
<text text-anchor="middle" x="315.5" y="-175.5" font-family="Helvetica,sans-Serif" font-size="10.00">erpc_transport.h</text>
</a>
</g>
</g>
<!-- Node6&#45;&gt;Node10 -->
<g id="edge13" class="edge"><title>Node6&#45;&gt;Node10</title>
<path fill="none" stroke="midnightblue" d="M233.245,-224.324C248.819,-215.743 272.877,-202.486 290.959,-192.522"/>
<polygon fill="midnightblue" stroke="midnightblue" points="292.724,-195.546 299.794,-187.655 289.346,-189.415 292.724,-195.546"/>
</g>
<!-- Node12 -->
<g id="node12" class="node"><title>Node12</title>
<polygon fill="white" stroke="#bfbfbf" points="381.5,-112.5 381.5,-131.5 427.5,-131.5 427.5,-112.5 381.5,-112.5"/>
<text text-anchor="middle" x="404.5" y="-119.5" font-family="Helvetica,sans-Serif" font-size="10.00">cstring</text>
</g>
<!-- Node6&#45;&gt;Node12 -->
<g id="edge19" class="edge"><title>Node6&#45;&gt;Node12</title>
<path fill="none" stroke="midnightblue" d="M278.65,-225.445C307.996,-219.292 342.188,-208.152 367.5,-188 382.705,-175.895 392.778,-155.726 398.522,-141.06"/>
<polygon fill="midnightblue" stroke="midnightblue" points="401.853,-142.142 401.952,-131.548 395.268,-139.768 401.853,-142.142"/>
</g>
<!-- Node7&#45;&gt;Node5 -->
<g id="edge12" class="edge"><title>Node7&#45;&gt;Node5</title>
<path fill="none" stroke="midnightblue" d="M218.89,-112.283C206.483,-99.9158 187.494,-76.4979 196.5,-56 201.89,-43.732 212.458,-33.3414 222.404,-25.6461"/>
<polygon fill="midnightblue" stroke="midnightblue" points="224.752,-28.2697 230.839,-19.598 220.672,-22.5811 224.752,-28.2697"/>
</g>
<!-- Node8 -->
<g id="node8" class="node"><title>Node8</title>
<g id="a_node8"><a xlink:href="erpc__common_8h_source.html" target="_top" xlink:title="erpc_common.h">
<polygon fill="white" stroke="black" points="271.5,-56.5 271.5,-75.5 357.5,-75.5 357.5,-56.5 271.5,-56.5"/>
<text text-anchor="middle" x="314.5" y="-63.5" font-family="Helvetica,sans-Serif" font-size="10.00">erpc_common.h</text>
</a>
</g>
</g>
<!-- Node7&#45;&gt;Node8 -->
<g id="edge9" class="edge"><title>Node7&#45;&gt;Node8</title>
<path fill="none" stroke="midnightblue" d="M242.317,-112.324C255.733,-103.9 276.324,-90.9709 292.086,-81.0741"/>
<polygon fill="midnightblue" stroke="midnightblue" points="294.109,-83.9364 300.717,-75.6545 290.387,-78.0081 294.109,-83.9364"/>
</g>
<!-- Node9 -->
<g id="node9" class="node"><title>Node9</title>
<polygon fill="white" stroke="#bfbfbf" points="205.5,-56.5 205.5,-75.5 253.5,-75.5 253.5,-56.5 205.5,-56.5"/>
<text text-anchor="middle" x="229.5" y="-63.5" font-family="Helvetica,sans-Serif" font-size="10.00">cstddef</text>
</g>
<!-- Node7&#45;&gt;Node9 -->
<g id="edge11" class="edge"><title>Node7&#45;&gt;Node9</title>
<path fill="none" stroke="midnightblue" d="M228.665,-112.083C228.796,-105.006 228.984,-94.8611 229.148,-85.9865"/>
<polygon fill="midnightblue" stroke="midnightblue" points="232.652,-85.8142 229.338,-75.7511 225.653,-85.6845 232.652,-85.8142"/>
</g>
<!-- Node8&#45;&gt;Node5 -->
<g id="edge10" class="edge"><title>Node8&#45;&gt;Node5</title>
<path fill="none" stroke="midnightblue" d="M303.414,-56.324C293.014,-48.1849 277.239,-35.8395 264.778,-26.0874"/>
<polygon fill="midnightblue" stroke="midnightblue" points="266.82,-23.2407 256.788,-19.8339 262.506,-28.7533 266.82,-23.2407"/>
</g>
<!-- Node10&#45;&gt;Node7 -->
<g id="edge17" class="edge"><title>Node10&#45;&gt;Node7</title>
<path fill="none" stroke="midnightblue" d="M301.522,-168.324C287.95,-159.9 267.12,-146.971 251.175,-137.074"/>
<polygon fill="midnightblue" stroke="midnightblue" points="252.786,-133.954 242.443,-131.655 249.094,-139.902 252.786,-133.954"/>
</g>
<!-- Node10&#45;&gt;Node8 -->
<g id="edge14" class="edge"><title>Node10&#45;&gt;Node8</title>
<path fill="none" stroke="midnightblue" d="M315.422,-168.368C315.26,-150.617 314.888,-109.666 314.669,-85.5974"/>
<polygon fill="midnightblue" stroke="midnightblue" points="318.169,-85.5592 314.578,-75.5914 311.169,-85.6229 318.169,-85.5592"/>
</g>
<!-- Node11 -->
<g id="node11" class="node"><title>Node11</title>
<g id="a_node11"><a xlink:href="erpc__crc16_8h.html" target="_top" xlink:title="erpc_crc16.h">
<polygon fill="white" stroke="black" points="376,-56.5 376,-75.5 449,-75.5 449,-56.5 376,-56.5"/>
<text text-anchor="middle" x="412.5" y="-63.5" font-family="Helvetica,sans-Serif" font-size="10.00">erpc_crc16.h</text>
</a>
</g>
</g>
<!-- Node10&#45;&gt;Node11 -->
<g id="edge15" class="edge"><title>Node10&#45;&gt;Node11</title>
<path fill="none" stroke="midnightblue" d="M323.226,-168.152C334.168,-155.629 354.818,-132.027 372.5,-112 380.906,-102.479 390.343,-91.8596 397.939,-83.3284"/>
<polygon fill="midnightblue" stroke="midnightblue" points="400.775,-85.4061 404.814,-75.6115 395.549,-80.7493 400.775,-85.4061"/>
</g>
<!-- Node10&#45;&gt;Node12 -->
<g id="edge18" class="edge"><title>Node10&#45;&gt;Node12</title>
<path fill="none" stroke="midnightblue" d="M329.799,-168.324C343.683,-159.9 364.992,-146.971 381.304,-137.074"/>
<polygon fill="midnightblue" stroke="midnightblue" points="383.502,-139.834 390.236,-131.655 379.871,-133.85 383.502,-139.834"/>
</g>
<!-- Node11&#45;&gt;Node5 -->
<g id="edge16" class="edge"><title>Node11&#45;&gt;Node5</title>
<path fill="none" stroke="midnightblue" d="M386.038,-56.4435C357.324,-47.1586 311.371,-32.2996 279.88,-22.117"/>
<polygon fill="midnightblue" stroke="midnightblue" points="280.796,-18.7348 270.205,-18.9883 278.643,-25.3953 280.796,-18.7348"/>
</g>
</g>
</svg>
