<?xml version="1.0" encoding="UTF-8" standalone="no"?>
<!DOCTYPE svg PUBLIC "-//W3C//DTD SVG 1.1//EN"
 "http://www.w3.org/Graphics/SVG/1.1/DTD/svg11.dtd">
<!-- Generated by graphviz version 2.38.0 (20140413.2041)
 -->
<!-- Title: erpc_codec.h Pages: 1 -->
<svg width="333pt" height="252pt"
 viewBox="0.00 0.00 332.67 252.00" xmlns="http://www.w3.org/2000/svg" xmlns:xlink="http://www.w3.org/1999/xlink">
<g id="graph0" class="graph" transform="scale(1 1) rotate(0) translate(4 248)">
<title>erpc_codec.h</title>
<polygon fill="white" stroke="none" points="-4,4 -4,-248 328.67,-248 328.67,4 -4,4"/>
<!-- Node1 -->
<g id="node1" class="node"><title>Node1</title>
<polygon fill="#bfbfbf" stroke="black" points="123.17,-224.5 123.17,-243.5 198.17,-243.5 198.17,-224.5 123.17,-224.5"/>
<text text-anchor="middle" x="160.67" y="-231.5" font-family="Helvetica,sans-Serif" font-size="10.00">erpc_codec.h</text>
</g>
<!-- Node2 -->
<g id="node2" class="node"><title>Node2</title>
<g id="a_node2"><a xlink:href="erpc__common_8h_source.html" target="_top" xlink:title="erpc_common.h">
<polygon fill="white" stroke="black" points="117.67,-56.5 117.67,-75.5 203.67,-75.5 203.67,-56.5 117.67,-56.5"/>
<text text-anchor="middle" x="160.67" y="-63.5" font-family="Helvetica,sans-Serif" font-size="10.00">erpc_common.h</text>
</a>
</g>
</g>
<!-- Node1&#45;&gt;Node2 -->
<g id="edge1" class="edge"><title>Node1&#45;&gt;Node2</title>
<path fill="none" stroke="midnightblue" d="M160.67,-224.075C160.67,-197.945 160.67,-121.211 160.67,-85.577"/>
<polygon fill="midnightblue" stroke="midnightblue" points="164.17,-85.5681 160.67,-75.5681 157.17,-85.5681 164.17,-85.5681"/>
</g>
<!-- Node3 -->
<g id="node3" class="node"><title>Node3</title>
<polygon fill="white" stroke="#bfbfbf" points="67.1697,-0.5 67.1697,-19.5 116.17,-19.5 116.17,-0.5 67.1697,-0.5"/>
<text text-anchor="middle" x="91.6697" y="-7.5" font-family="Helvetica,sans-Serif" font-size="10.00">stdint.h</text>
</g>
<!-- Node1&#45;&gt;Node3 -->
<g id="edge14" class="edge"><title>Node1&#45;&gt;Node3</title>
<path fill="none" stroke="midnightblue" d="M133.547,-224.473C96.8448,-211.295 32.8339,-182.123 5.6697,-132 -16.6673,-90.7842 36.1571,-47.0504 68.6096,-25.1854"/>
<polygon fill="midnightblue" stroke="midnightblue" points="70.6801,-28.0136 77.1433,-19.6185 66.8555,-22.1508 70.6801,-28.0136"/>
</g>
<!-- Node4 -->
<g id="node4" class="node"><title>Node4</title>
<g id="a_node4"><a xlink:href="erpc__message__buffer_8h.html" target="_top" xlink:title="erpc_message_buffer.h">
<polygon fill="white" stroke="black" points="15.1697,-112.5 15.1697,-131.5 132.17,-131.5 132.17,-112.5 15.1697,-112.5"/>
<text text-anchor="middle" x="73.6697" y="-119.5" font-family="Helvetica,sans-Serif" font-size="10.00">erpc_message_buffer.h</text>
</a>
</g>
</g>
<!-- Node1&#45;&gt;Node4 -->
<g id="edge3" class="edge"><title>Node1&#45;&gt;Node4</title>
<path fill="none" stroke="midnightblue" d="M153.843,-224.368C139.422,-206.135 105.643,-163.426 86.8583,-139.675"/>
<polygon fill="midnightblue" stroke="midnightblue" points="89.4133,-137.264 80.4647,-131.591 83.923,-141.606 89.4133,-137.264"/>
</g>
<!-- Node6 -->
<g id="node6" class="node"><title>Node6</title>
<g id="a_node6"><a xlink:href="erpc__transport_8h.html" target="_top" xlink:title="erpc_transport.h">
<polygon fill="white" stroke="black" points="189.17,-168.5 189.17,-187.5 276.17,-187.5 276.17,-168.5 189.17,-168.5"/>
<text text-anchor="middle" x="232.67" y="-175.5" font-family="Helvetica,sans-Serif" font-size="10.00">erpc_transport.h</text>
</a>
</g>
</g>
<!-- Node1&#45;&gt;Node6 -->
<g id="edge7" class="edge"><title>Node1&#45;&gt;Node6</title>
<path fill="none" stroke="midnightblue" d="M172.238,-224.324C183.09,-216.185 199.55,-203.839 212.553,-194.087"/>
<polygon fill="midnightblue" stroke="midnightblue" points="214.991,-196.634 220.891,-187.834 210.791,-191.034 214.991,-196.634"/>
</g>
<!-- Node8 -->
<g id="node8" class="node"><title>Node8</title>
<polygon fill="white" stroke="#bfbfbf" points="278.67,-112.5 278.67,-131.5 324.67,-131.5 324.67,-112.5 278.67,-112.5"/>
<text text-anchor="middle" x="301.67" y="-119.5" font-family="Helvetica,sans-Serif" font-size="10.00">cstring</text>
</g>
<!-- Node1&#45;&gt;Node8 -->
<g id="edge13" class="edge"><title>Node1&#45;&gt;Node8</title>
<path fill="none" stroke="midnightblue" d="M198.347,-228.691C225.994,-223.562 262.451,-212.37 284.67,-188 296.079,-175.485 300.015,-156.259 301.285,-141.959"/>
<polygon fill="midnightblue" stroke="midnightblue" points="304.791,-141.94 301.823,-131.769 297.8,-141.57 304.791,-141.94"/>
</g>
<!-- Node2&#45;&gt;Node3 -->
<g id="edge2" class="edge"><title>Node2&#45;&gt;Node3</title>
<path fill="none" stroke="midnightblue" d="M149.584,-56.324C139.184,-48.1849 123.409,-35.8395 110.948,-26.0874"/>
<polygon fill="midnightblue" stroke="midnightblue" points="112.99,-23.2407 102.957,-19.8339 108.675,-28.7533 112.99,-23.2407"/>
</g>
<!-- Node4&#45;&gt;Node2 -->
<g id="edge4" class="edge"><title>Node4&#45;&gt;Node2</title>
<path fill="none" stroke="midnightblue" d="M87.6478,-112.324C101.219,-103.9 122.05,-90.9709 137.995,-81.0741"/>
<polygon fill="midnightblue" stroke="midnightblue" points="140.076,-83.9019 146.726,-75.6545 136.384,-77.9544 140.076,-83.9019"/>
</g>
<!-- Node4&#45;&gt;Node3 -->
<g id="edge6" class="edge"><title>Node4&#45;&gt;Node3</title>
<path fill="none" stroke="midnightblue" d="M64.2968,-112.249C52.2021,-99.8406 33.7181,-76.3746 42.6697,-56 48.0597,-43.732 58.6278,-33.3414 68.5738,-25.6461"/>
<polygon fill="midnightblue" stroke="midnightblue" points="70.9212,-28.2697 77.0083,-19.598 66.8421,-22.5811 70.9212,-28.2697"/>
</g>
<!-- Node5 -->
<g id="node5" class="node"><title>Node5</title>
<polygon fill="white" stroke="#bfbfbf" points="51.6697,-56.5 51.6697,-75.5 99.6697,-75.5 99.6697,-56.5 51.6697,-56.5"/>
<text text-anchor="middle" x="75.6697" y="-63.5" font-family="Helvetica,sans-Serif" font-size="10.00">cstddef</text>
</g>
<!-- Node4&#45;&gt;Node5 -->
<g id="edge5" class="edge"><title>Node4&#45;&gt;Node5</title>
<path fill="none" stroke="midnightblue" d="M74,-112.083C74.2621,-105.006 74.6378,-94.8611 74.9665,-85.9865"/>
<polygon fill="midnightblue" stroke="midnightblue" points="78.473,-85.8738 75.3456,-75.7511 71.4778,-85.6147 78.473,-85.8738"/>
</g>
<!-- Node6&#45;&gt;Node2 -->
<g id="edge8" class="edge"><title>Node6&#45;&gt;Node2</title>
<path fill="none" stroke="midnightblue" d="M227.02,-168.368C215.138,-150.215 187.376,-107.802 171.791,-83.9902"/>
<polygon fill="midnightblue" stroke="midnightblue" points="174.698,-82.0416 166.293,-75.5914 168.841,-85.8753 174.698,-82.0416"/>
</g>
<!-- Node6&#45;&gt;Node4 -->
<g id="edge11" class="edge"><title>Node6&#45;&gt;Node4</title>
<path fill="none" stroke="midnightblue" d="M207.476,-168.444C180.727,-159.359 138.267,-144.939 108.365,-134.783"/>
<polygon fill="midnightblue" stroke="midnightblue" points="109.34,-131.418 98.7459,-131.516 107.089,-138.046 109.34,-131.418"/>
</g>
<!-- Node7 -->
<g id="node7" class="node"><title>Node7</title>
<g id="a_node7"><a xlink:href="erpc__crc16_8h.html" target="_top" xlink:title="erpc_crc16.h">
<polygon fill="white" stroke="black" points="222.17,-56.5 222.17,-75.5 295.17,-75.5 295.17,-56.5 222.17,-56.5"/>
<text text-anchor="middle" x="258.67" y="-63.5" font-family="Helvetica,sans-Serif" font-size="10.00">erpc_crc16.h</text>
</a>
</g>
</g>
<!-- Node6&#45;&gt;Node7 -->
<g id="edge9" class="edge"><title>Node6&#45;&gt;Node7</title>
<path fill="none" stroke="midnightblue" d="M234.71,-168.368C238.906,-150.617 248.585,-109.666 254.274,-85.5974"/>
<polygon fill="midnightblue" stroke="midnightblue" points="257.745,-86.1284 256.639,-75.5914 250.933,-84.5182 257.745,-86.1284"/>
</g>
<!-- Node6&#45;&gt;Node8 -->
<g id="edge12" class="edge"><title>Node6&#45;&gt;Node8</title>
<path fill="none" stroke="midnightblue" d="M243.756,-168.324C254.156,-160.185 269.93,-147.839 282.391,-138.087"/>
<polygon fill="midnightblue" stroke="midnightblue" points="284.664,-140.753 290.382,-131.834 280.35,-135.241 284.664,-140.753"/>
</g>
<!-- Node7&#45;&gt;Node3 -->
<g id="edge10" class="edge"><title>Node7&#45;&gt;Node3</title>
<path fill="none" stroke="midnightblue" d="M232.208,-56.4435C203.494,-47.1586 157.541,-32.2996 126.05,-22.117"/>
<polygon fill="midnightblue" stroke="midnightblue" points="126.966,-18.7348 116.374,-18.9883 124.812,-25.3953 126.966,-18.7348"/>
</g>
</g>
</svg>
