<?xml version="1.0" encoding="UTF-8" standalone="no"?>
<!DOCTYPE svg PUBLIC "-//W3C//DTD SVG 1.1//EN"
 "http://www.w3.org/Graphics/SVG/1.1/DTD/svg11.dtd">
<!-- Generated by graphviz version 2.38.0 (20140413.2041)
 -->
<!-- Title: erpc_threading.h Pages: 1 -->
<svg width="1453pt" height="162pt"
 viewBox="0.00 0.00 1453.00 162.00" xmlns="http://www.w3.org/2000/svg" xmlns:xlink="http://www.w3.org/1999/xlink">
<g id="graph0" class="graph" transform="scale(1 1) rotate(0) translate(4 158)">
<title>erpc_threading.h</title>
<polygon fill="white" stroke="none" points="-4,4 -4,-158 1449,-158 1449,4 -4,4"/>
<!-- Node1 -->
<g id="node1" class="node"><title>Node1</title>
<polygon fill="#bfbfbf" stroke="black" points="910,-134.5 910,-153.5 999,-153.5 999,-134.5 910,-134.5"/>
<text text-anchor="middle" x="954.5" y="-141.5" font-family="Helvetica,sans-Serif" font-size="10.00">erpc_threading.h</text>
</g>
<!-- Node2 -->
<g id="node2" class="node"><title>Node2</title>
<g id="a_node2"><a xlink:href="erpc__transport__arbitrator_8h.html" target="_top" xlink:title="erpc_transport_arbitrator.h">
<polygon fill="white" stroke="black" points="534,-73 534,-92 665,-92 665,-73 534,-73"/>
<text text-anchor="middle" x="599.5" y="-80" font-family="Helvetica,sans-Serif" font-size="10.00">erpc_transport_arbitrator.h</text>
</a>
</g>
</g>
<!-- Node1&#45;&gt;Node2 -->
<g id="edge1" class="edge"><title>Node1&#45;&gt;Node2</title>
<path fill="none" stroke="midnightblue" d="M899.709,-134.317C844.174,-125.45 755.798,-111.156 679.5,-98 668.65,-96.1292 656.985,-94.0523 646.009,-92.0686"/>
<polygon fill="midnightblue" stroke="midnightblue" points="899.26,-137.79 909.686,-135.908 900.362,-130.877 899.26,-137.79"/>
</g>
<!-- Node3 -->
<g id="node3" class="node"><title>Node3</title>
<g id="a_node3"><a xlink:href="erpc__framed__transport_8h.html" target="_top" xlink:title="erpc_framed_transport.h">
<polygon fill="white" stroke="black" points="759.5,-73 759.5,-92 881.5,-92 881.5,-73 759.5,-73"/>
<text text-anchor="middle" x="820.5" y="-80" font-family="Helvetica,sans-Serif" font-size="10.00">erpc_framed_transport.h</text>
</a>
</g>
</g>
<!-- Node1&#45;&gt;Node3 -->
<g id="edge2" class="edge"><title>Node1&#45;&gt;Node3</title>
<path fill="none" stroke="midnightblue" d="M925.96,-130.327C899.945,-118.776 862.235,-102.032 839.663,-92.0091"/>
<polygon fill="midnightblue" stroke="midnightblue" points="924.741,-133.616 935.301,-134.475 927.582,-127.218 924.741,-133.616"/>
</g>
<!-- Node5 -->
<g id="node5" class="node"><title>Node5</title>
<g id="a_node5"><a xlink:href="erpc__dspi__slave__transport_8h.html" target="_top" xlink:title="erpc_dspi_slave_transport.h">
<polygon fill="white" stroke="black" points="0,-6 0,-25 137,-25 137,-6 0,-6"/>
<text text-anchor="middle" x="68.5" y="-13" font-family="Helvetica,sans-Serif" font-size="10.00">erpc_dspi_slave_transport.h</text>
</a>
</g>
</g>
<!-- Node1&#45;&gt;Node5 -->
<g id="edge13" class="edge"><title>Node1&#45;&gt;Node5</title>
<path fill="none" stroke="midnightblue" d="M899.798,-141.641C847.864,-138.414 768.839,-128.371 707.5,-98 689.174,-88.9263 692.305,-75.0337 673.5,-67 565.554,-20.8843 262.953,-45.7516 146.5,-31 134.475,-29.4768 121.501,-27.2874 109.65,-25.0698"/>
<polygon fill="midnightblue" stroke="midnightblue" points="899.631,-145.137 909.811,-142.199 900.021,-138.148 899.631,-145.137"/>
</g>
<!-- Node6 -->
<g id="node6" class="node"><title>Node6</title>
<g id="a_node6"><a xlink:href="erpc__i2c__slave__transport_8h.html" target="_top" xlink:title="erpc_i2c_slave_transport.h">
<polygon fill="white" stroke="black" points="155.5,-6 155.5,-25 287.5,-25 287.5,-6 155.5,-6"/>
<text text-anchor="middle" x="221.5" y="-13" font-family="Helvetica,sans-Serif" font-size="10.00">erpc_i2c_slave_transport.h</text>
</a>
</g>
</g>
<!-- Node1&#45;&gt;Node6 -->
<g id="edge14" class="edge"><title>Node1&#45;&gt;Node6</title>
<path fill="none" stroke="midnightblue" d="M899.809,-137.079C857.604,-131.075 798.513,-119.492 750.5,-98 728.996,-88.3745 729.582,-75.2113 707.5,-67 535.631,-3.09151 478.093,-56.4372 296.5,-31 285.074,-29.3994 272.752,-27.2121 261.462,-25.0216"/>
<polygon fill="midnightblue" stroke="midnightblue" points="899.507,-140.57 909.888,-138.453 900.453,-133.635 899.507,-140.57"/>
</g>
<!-- Node9 -->
<g id="node9" class="node"><title>Node9</title>
<g id="a_node9"><a xlink:href="erpc__spi__slave__transport_8h.html" target="_top" xlink:title="erpc_spi_slave_transport.h">
<polygon fill="white" stroke="black" points="883.5,-6 883.5,-25 1015.5,-25 1015.5,-6 883.5,-6"/>
<text text-anchor="middle" x="949.5" y="-13" font-family="Helvetica,sans-Serif" font-size="10.00">erpc_spi_slave_transport.h</text>
</a>
</g>
</g>
<!-- Node1&#45;&gt;Node9 -->
<g id="edge17" class="edge"><title>Node1&#45;&gt;Node9</title>
<path fill="none" stroke="midnightblue" d="M953.761,-124.306C952.665,-96.5761 950.651,-45.6279 949.846,-25.2557"/>
<polygon fill="midnightblue" stroke="midnightblue" points="950.264,-124.451 954.156,-134.305 957.259,-124.175 950.264,-124.451"/>
</g>
<!-- Node11 -->
<g id="node11" class="node"><title>Node11</title>
<g id="a_node11"><a xlink:href="erpc__tcp__transport_8h.html" target="_top" xlink:title="erpc_tcp_transport.h">
<polygon fill="white" stroke="black" points="1033.5,-6 1033.5,-25 1139.5,-25 1139.5,-6 1033.5,-6"/>
<text text-anchor="middle" x="1086.5" y="-13" font-family="Helvetica,sans-Serif" font-size="10.00">erpc_tcp_transport.h</text>
</a>
</g>
</g>
<!-- Node1&#45;&gt;Node11 -->
<g id="edge18" class="edge"><title>Node1&#45;&gt;Node11</title>
<path fill="none" stroke="midnightblue" d="M961.652,-124.357C968.758,-107.734 980.978,-83.542 997.5,-67 1016.71,-47.7682 1044.75,-33.4861 1064.2,-25.1068"/>
<polygon fill="midnightblue" stroke="midnightblue" points="958.243,-123.448 957.727,-134.03 964.73,-126.08 958.243,-123.448"/>
</g>
<!-- Node12 -->
<g id="node12" class="node"><title>Node12</title>
<g id="a_node12"><a xlink:href="erpc__uart__cmsis__transport_8h.html" target="_top" xlink:title="erpc_uart_cmsis_transport.h">
<polygon fill="white" stroke="black" points="1157.5,-6 1157.5,-25 1297.5,-25 1297.5,-6 1157.5,-6"/>
<text text-anchor="middle" x="1227.5" y="-13" font-family="Helvetica,sans-Serif" font-size="10.00">erpc_uart_cmsis_transport.h</text>
</a>
</g>
</g>
<!-- Node1&#45;&gt;Node12 -->
<g id="edge19" class="edge"><title>Node1&#45;&gt;Node12</title>
<path fill="none" stroke="midnightblue" d="M969.582,-127.111C988.667,-107.322 1020.82,-75.1233 1035.5,-67 1061.06,-52.8579 1136.94,-35.3044 1185.31,-25.0567"/>
<polygon fill="midnightblue" stroke="midnightblue" points="966.906,-124.844 962.517,-134.488 971.961,-129.686 966.906,-124.844"/>
</g>
<!-- Node13 -->
<g id="node13" class="node"><title>Node13</title>
<g id="a_node13"><a xlink:href="erpc__usb__cdc__transport_8h.html" target="_top" xlink:title="erpc_usb_cdc_transport.h">
<polygon fill="white" stroke="black" points="1316,-6 1316,-25 1445,-25 1445,-6 1316,-6"/>
<text text-anchor="middle" x="1380.5" y="-13" font-family="Helvetica,sans-Serif" font-size="10.00">erpc_usb_cdc_transport.h</text>
</a>
</g>
</g>
<!-- Node1&#45;&gt;Node13 -->
<g id="edge20" class="edge"><title>Node1&#45;&gt;Node13</title>
<path fill="none" stroke="midnightblue" d="M980.534,-129.577C996.065,-121.184 1015.92,-109.762 1032.5,-98 1049.72,-85.7817 1049.31,-75.812 1068.5,-67 1165.72,-22.3526 1201.09,-49.29 1306.5,-31 1316.95,-29.1871 1328.19,-27.0697 1338.68,-25.0222"/>
<polygon fill="midnightblue" stroke="midnightblue" points="978.676,-126.601 971.492,-134.388 981.964,-132.781 978.676,-126.601"/>
</g>
<!-- Node14 -->
<g id="node14" class="node"><title>Node14</title>
<g id="a_node14"><a xlink:href="erpc__inter__thread__buffer__transport_8h.html" target="_top" xlink:title="erpc_inter_thread_buffer\l_transport.h">
<polygon fill="white" stroke="black" points="1077.5,-67.5 1077.5,-97.5 1197.5,-97.5 1197.5,-67.5 1077.5,-67.5"/>
<text text-anchor="start" x="1085.5" y="-85.5" font-family="Helvetica,sans-Serif" font-size="10.00">erpc_inter_thread_buffer</text>
<text text-anchor="middle" x="1137.5" y="-74.5" font-family="Helvetica,sans-Serif" font-size="10.00">_transport.h</text>
</a>
</g>
</g>
<!-- Node1&#45;&gt;Node14 -->
<g id="edge15" class="edge"><title>Node1&#45;&gt;Node14</title>
<path fill="none" stroke="midnightblue" d="M990.31,-131.357C1020.13,-121.662 1062.68,-107.826 1094.37,-97.523"/>
<polygon fill="midnightblue" stroke="midnightblue" points="989.147,-128.055 980.719,-134.475 991.312,-134.711 989.147,-128.055"/>
</g>
<!-- Node15 -->
<g id="node15" class="node"><title>Node15</title>
<g id="a_node15"><a xlink:href="erpc__mu__transport_8h.html" target="_top" xlink:title="erpc_mu_transport.h">
<polygon fill="white" stroke="black" points="1215.5,-73 1215.5,-92 1321.5,-92 1321.5,-73 1215.5,-73"/>
<text text-anchor="middle" x="1268.5" y="-80" font-family="Helvetica,sans-Serif" font-size="10.00">erpc_mu_transport.h</text>
</a>
</g>
</g>
<!-- Node1&#45;&gt;Node15 -->
<g id="edge16" class="edge"><title>Node1&#45;&gt;Node15</title>
<path fill="none" stroke="midnightblue" d="M1009.42,-134.055C1060.58,-125.52 1138.9,-111.93 1206.5,-98 1215.27,-96.1928 1224.7,-94.0776 1233.49,-92.0302"/>
<polygon fill="midnightblue" stroke="midnightblue" points="1008.54,-130.654 999.247,-135.746 1009.69,-137.559 1008.54,-130.654"/>
</g>
<!-- Node4 -->
<g id="node4" class="node"><title>Node4</title>
<g id="a_node4"><a xlink:href="erpc__dspi__master__transport_8h.html" target="_top" xlink:title="erpc_dspi_master_transport.h">
<polygon fill="white" stroke="black" points="585.5,-6 585.5,-25 731.5,-25 731.5,-6 585.5,-6"/>
<text text-anchor="middle" x="658.5" y="-13" font-family="Helvetica,sans-Serif" font-size="10.00">erpc_dspi_master_transport.h</text>
</a>
</g>
</g>
<!-- Node3&#45;&gt;Node4 -->
<g id="edge3" class="edge"><title>Node3&#45;&gt;Node4</title>
<path fill="none" stroke="midnightblue" d="M789.606,-69.1041C757.441,-56.1984 707.915,-36.3272 679.843,-25.0637"/>
<polygon fill="midnightblue" stroke="midnightblue" points="788.403,-72.3929 798.988,-72.8685 791.01,-65.8964 788.403,-72.3929"/>
</g>
<!-- Node3&#45;&gt;Node5 -->
<g id="edge4" class="edge"><title>Node3&#45;&gt;Node5</title>
<path fill="none" stroke="midnightblue" d="M749.571,-71.6983C735.641,-69.9713 721.125,-68.31 707.5,-67 458.801,-43.0883 394.43,-61.887 146.5,-31 134.335,-29.4845 121.202,-27.2703 109.243,-25.0262"/>
<polygon fill="midnightblue" stroke="midnightblue" points="749.229,-75.1829 759.589,-72.9634 750.106,-68.2381 749.229,-75.1829"/>
</g>
<!-- Node3&#45;&gt;Node6 -->
<g id="edge5" class="edge"><title>Node3&#45;&gt;Node6</title>
<path fill="none" stroke="midnightblue" d="M770.83,-71.0944C762.403,-69.5597 753.721,-68.1207 745.5,-67 547.139,-39.9579 494.861,-58.0421 296.5,-31 284.936,-29.4236 272.461,-27.2176 261.066,-25.0011"/>
<polygon fill="midnightblue" stroke="midnightblue" points="770.459,-74.586 780.934,-72.9989 771.755,-67.7071 770.459,-74.586"/>
</g>
<!-- Node7 -->
<g id="node7" class="node"><title>Node7</title>
<g id="a_node7"><a xlink:href="erpc__serial__transport_8h.html" target="_top" xlink:title="erpc_serial_transport.h">
<polygon fill="white" stroke="black" points="749.5,-6 749.5,-25 865.5,-25 865.5,-6 749.5,-6"/>
<text text-anchor="middle" x="807.5" y="-13" font-family="Helvetica,sans-Serif" font-size="10.00">erpc_serial_transport.h</text>
</a>
</g>
</g>
<!-- Node3&#45;&gt;Node7 -->
<g id="edge6" class="edge"><title>Node3&#45;&gt;Node7</title>
<path fill="none" stroke="midnightblue" d="M816.783,-62.9145C814.298,-50.4883 811.143,-34.7166 809.225,-25.1273"/>
<polygon fill="midnightblue" stroke="midnightblue" points="813.353,-63.6144 818.747,-72.7338 820.218,-62.2416 813.353,-63.6144"/>
</g>
<!-- Node8 -->
<g id="node8" class="node"><title>Node8</title>
<g id="a_node8"><a xlink:href="erpc__spi__master__transport_8h.html" target="_top" xlink:title="erpc_spi_master_transport.h">
<polygon fill="white" stroke="black" points="305.5,-6 305.5,-25 445.5,-25 445.5,-6 305.5,-6"/>
<text text-anchor="middle" x="375.5" y="-13" font-family="Helvetica,sans-Serif" font-size="10.00">erpc_spi_master_transport.h</text>
</a>
</g>
</g>
<!-- Node3&#45;&gt;Node8 -->
<g id="edge7" class="edge"><title>Node3&#45;&gt;Node8</title>
<path fill="none" stroke="midnightblue" d="M769.085,-71.0813C761.201,-69.6224 753.144,-68.2104 745.5,-67 616.784,-46.6198 583.311,-50.7716 454.5,-31 443.06,-29.2441 430.734,-27.1025 419.299,-25.01"/>
<polygon fill="midnightblue" stroke="midnightblue" points="768.458,-74.5248 778.934,-72.9427 769.758,-67.6466 768.458,-74.5248"/>
</g>
<!-- Node3&#45;&gt;Node9 -->
<g id="edge8" class="edge"><title>Node3&#45;&gt;Node9</title>
<path fill="none" stroke="midnightblue" d="M846.749,-68.2739C872.299,-55.3999 910.386,-36.2086 932.299,-25.1672"/>
<polygon fill="midnightblue" stroke="midnightblue" points="844.986,-65.243 837.63,-72.8685 848.136,-71.4943 844.986,-65.243"/>
</g>
<!-- Node10 -->
<g id="node10" class="node"><title>Node10</title>
<g id="a_node10"><a xlink:href="erpc__spidev__master__transport_8h.html" target="_top" xlink:title="erpc_spidev_master\l_transport.h">
<polygon fill="white" stroke="black" points="464,-0.5 464,-30.5 567,-30.5 567,-0.5 464,-0.5"/>
<text text-anchor="start" x="472" y="-18.5" font-family="Helvetica,sans-Serif" font-size="10.00">erpc_spidev_master</text>
<text text-anchor="middle" x="515.5" y="-7.5" font-family="Helvetica,sans-Serif" font-size="10.00">_transport.h</text>
</a>
</g>
</g>
<!-- Node3&#45;&gt;Node10 -->
<g id="edge9" class="edge"><title>Node3&#45;&gt;Node10</title>
<path fill="none" stroke="midnightblue" d="M767.381,-70.9725C717.889,-61.0533 642.081,-45.5777 576.5,-31 573.418,-30.315 570.252,-29.5992 567.06,-28.8682"/>
<polygon fill="midnightblue" stroke="midnightblue" points="766.732,-74.4118 777.224,-72.9414 768.105,-67.5478 766.732,-74.4118"/>
</g>
<!-- Node3&#45;&gt;Node11 -->
<g id="edge10" class="edge"><title>Node3&#45;&gt;Node11</title>
<path fill="none" stroke="midnightblue" d="M865.58,-70.4841C918.049,-57.6627 1003.59,-36.7605 1051.37,-25.0834"/>
<polygon fill="midnightblue" stroke="midnightblue" points="864.432,-67.1617 855.548,-72.9355 866.093,-73.9617 864.432,-67.1617"/>
</g>
<!-- Node3&#45;&gt;Node12 -->
<g id="edge11" class="edge"><title>Node3&#45;&gt;Node12</title>
<path fill="none" stroke="midnightblue" d="M889.17,-71.5143C955.597,-61.7163 1059.07,-46.0891 1148.5,-31 1159.5,-29.1441 1171.34,-27.0321 1182.42,-25.0053"/>
<polygon fill="midnightblue" stroke="midnightblue" points="888.623,-68.057 879.24,-72.9763 889.643,-74.9824 888.623,-68.057"/>
</g>
<!-- Node3&#45;&gt;Node13 -->
<g id="edge12" class="edge"><title>Node3&#45;&gt;Node13</title>
<path fill="none" stroke="midnightblue" d="M891.779,-76.1136C986.726,-68.4776 1159.79,-52.9511 1306.5,-31 1317.51,-29.3534 1329.36,-27.2017 1340.29,-25.0619"/>
<polygon fill="midnightblue" stroke="midnightblue" points="891.406,-72.6321 881.716,-76.9168 891.963,-79.6099 891.406,-72.6321"/>
</g>
</g>
</svg>
