<?xml version="1.0" encoding="UTF-8" standalone="no"?>
<!DOCTYPE svg PUBLIC "-//W3C//DTD SVG 1.1//EN"
 "http://www.w3.org/Graphics/SVG/1.1/DTD/svg11.dtd">
<!-- Generated by graphviz version 2.38.0 (20140413.2041)
 -->
<!-- Title: erpc_config.h Pages: 1 -->
<svg width="2187pt" height="285pt"
 viewBox="0.00 0.00 2186.50 285.00" xmlns="http://www.w3.org/2000/svg" xmlns:xlink="http://www.w3.org/1999/xlink">
<g id="graph0" class="graph" transform="scale(1 1) rotate(0) translate(4 281)">
<title>erpc_config.h</title>
<polygon fill="white" stroke="none" points="-4,4 -4,-281 2182.5,-281 2182.5,4 -4,4"/>
<!-- Node1 -->
<g id="node1" class="node"><title>Node1</title>
<polygon fill="#bfbfbf" stroke="black" points="1456,-257.5 1456,-276.5 1530,-276.5 1530,-257.5 1456,-257.5"/>
<text text-anchor="middle" x="1493" y="-264.5" font-family="Helvetica,sans-Serif" font-size="10.00">erpc_config.h</text>
</g>
<!-- Node2 -->
<g id="node2" class="node"><title>Node2</title>
<g id="a_node2"><a xlink:href="erpc__config__internal_8h_source.html" target="_top" xlink:title="erpc_config_internal.h">
<polygon fill="white" stroke="black" points="1437.5,-201.5 1437.5,-220.5 1548.5,-220.5 1548.5,-201.5 1437.5,-201.5"/>
<text text-anchor="middle" x="1493" y="-208.5" font-family="Helvetica,sans-Serif" font-size="10.00">erpc_config_internal.h</text>
</a>
</g>
</g>
<!-- Node1&#45;&gt;Node2 -->
<g id="edge1" class="edge"><title>Node1&#45;&gt;Node2</title>
<path fill="none" stroke="midnightblue" d="M1493,-246.805C1493,-237.91 1493,-227.78 1493,-220.751"/>
<polygon fill="midnightblue" stroke="midnightblue" points="1489.5,-247.083 1493,-257.083 1496.5,-247.083 1489.5,-247.083"/>
</g>
<!-- Node3 -->
<g id="node3" class="node"><title>Node3</title>
<g id="a_node3"><a xlink:href="erpc__client__server__common_8h.html" target="_top" xlink:title="erpc_client_server\l_common.h">
<polygon fill="white" stroke="black" points="1540.5,-134.5 1540.5,-164.5 1635.5,-164.5 1635.5,-134.5 1540.5,-134.5"/>
<text text-anchor="start" x="1548.5" y="-152.5" font-family="Helvetica,sans-Serif" font-size="10.00">erpc_client_server</text>
<text text-anchor="middle" x="1588" y="-141.5" font-family="Helvetica,sans-Serif" font-size="10.00">_common.h</text>
</a>
</g>
</g>
<!-- Node2&#45;&gt;Node3 -->
<g id="edge2" class="edge"><title>Node2&#45;&gt;Node3</title>
<path fill="none" stroke="midnightblue" d="M1515.34,-196.008C1530.49,-186.518 1550.45,-174.02 1565.61,-164.523"/>
<polygon fill="midnightblue" stroke="midnightblue" points="1513.23,-193.201 1506.61,-201.475 1516.94,-199.133 1513.23,-193.201"/>
</g>
<!-- Node4 -->
<g id="node4" class="node"><title>Node4</title>
<g id="a_node4"><a xlink:href="erpc__client__manager_8h.html" target="_top" xlink:title="erpc_client_manager.h">
<polygon fill="white" stroke="black" points="1460.5,-73 1460.5,-92 1575.5,-92 1575.5,-73 1460.5,-73"/>
<text text-anchor="middle" x="1518" y="-80" font-family="Helvetica,sans-Serif" font-size="10.00">erpc_client_manager.h</text>
</a>
</g>
</g>
<!-- Node2&#45;&gt;Node4 -->
<g id="edge10" class="edge"><title>Node2&#45;&gt;Node4</title>
<path fill="none" stroke="midnightblue" d="M1492.62,-191.097C1492.7,-175.577 1493.7,-153.121 1498,-134 1501.44,-118.728 1508.83,-102.028 1513.6,-92.1737"/>
<polygon fill="midnightblue" stroke="midnightblue" points="1489.13,-191.47 1492.71,-201.442 1496.13,-191.415 1489.13,-191.47"/>
</g>
<!-- Node7 -->
<g id="node7" class="node"><title>Node7</title>
<g id="a_node7"><a xlink:href="erpc__arbitrated__client__setup_8h.html" target="_top" xlink:title="erpc_arbitrated_client\l_setup.h">
<polygon fill="white" stroke="black" points="1463,-0.5 1463,-30.5 1573,-30.5 1573,-0.5 1463,-0.5"/>
<text text-anchor="start" x="1471" y="-18.5" font-family="Helvetica,sans-Serif" font-size="10.00">erpc_arbitrated_client</text>
<text text-anchor="middle" x="1518" y="-7.5" font-family="Helvetica,sans-Serif" font-size="10.00">_setup.h</text>
</a>
</g>
</g>
<!-- Node2&#45;&gt;Node7 -->
<g id="edge32" class="edge"><title>Node2&#45;&gt;Node7</title>
<path fill="none" stroke="midnightblue" d="M1480.2,-193.024C1461.11,-165.489 1429.63,-109.859 1451,-67 1458.86,-51.2264 1474.26,-39.0819 1488.31,-30.6598"/>
<polygon fill="midnightblue" stroke="midnightblue" points="1477.42,-195.152 1486.1,-201.225 1483.1,-191.064 1477.42,-195.152"/>
</g>
<!-- Node8 -->
<g id="node8" class="node"><title>Node8</title>
<g id="a_node8"><a xlink:href="erpc__client__setup_8h.html" target="_top" xlink:title="erpc_client_setup.h">
<polygon fill="white" stroke="black" points="1719.5,-6 1719.5,-25 1820.5,-25 1820.5,-6 1719.5,-6"/>
<text text-anchor="middle" x="1770" y="-13" font-family="Helvetica,sans-Serif" font-size="10.00">erpc_client_setup.h</text>
</a>
</g>
</g>
<!-- Node2&#45;&gt;Node8 -->
<g id="edge33" class="edge"><title>Node2&#45;&gt;Node8</title>
<path fill="none" stroke="midnightblue" d="M1499.14,-191.631C1505.3,-175.194 1516.02,-151.12 1531,-134 1549.75,-112.571 1561.06,-114.871 1584,-98 1601.84,-84.8813 1603.58,-77.6399 1623,-67 1658.85,-47.3551 1703.75,-33.2755 1734.44,-25.0542"/>
<polygon fill="midnightblue" stroke="midnightblue" points="1495.8,-190.585 1495.75,-201.179 1502.39,-192.924 1495.8,-190.585"/>
</g>
<!-- Node9 -->
<g id="node9" class="node"><title>Node9</title>
<g id="a_node9"><a xlink:href="erpc__server_8h.html" target="_top" xlink:title="erpc_server.h">
<polygon fill="white" stroke="black" points="1632,-73 1632,-92 1706,-92 1706,-73 1632,-73"/>
<text text-anchor="middle" x="1669" y="-80" font-family="Helvetica,sans-Serif" font-size="10.00">erpc_server.h</text>
</a>
</g>
</g>
<!-- Node2&#45;&gt;Node9 -->
<g id="edge21" class="edge"><title>Node2&#45;&gt;Node9</title>
<path fill="none" stroke="midnightblue" d="M1558.61,-204.447C1588.16,-198.75 1621.41,-187.414 1644,-165 1664.28,-144.883 1668.19,-108.776 1668.89,-92.2231"/>
<polygon fill="midnightblue" stroke="midnightblue" points="1558,-201.001 1548.75,-206.171 1559.2,-207.896 1558,-201.001"/>
</g>
<!-- Node11 -->
<g id="node11" class="node"><title>Node11</title>
<g id="a_node11"><a xlink:href="erpc__framed__transport_8h.html" target="_top" xlink:title="erpc_framed_transport.h">
<polygon fill="white" stroke="black" points="775,-73 775,-92 897,-92 897,-73 775,-73"/>
<text text-anchor="middle" x="836" y="-80" font-family="Helvetica,sans-Serif" font-size="10.00">erpc_framed_transport.h</text>
</a>
</g>
</g>
<!-- Node2&#45;&gt;Node11 -->
<g id="edge11" class="edge"><title>Node2&#45;&gt;Node11</title>
<path fill="none" stroke="midnightblue" d="M1427.21,-205.206C1352.48,-199.03 1227.12,-186.451 1121,-165 1023.14,-145.219 909.93,-108.615 860.833,-92.0448"/>
<polygon fill="midnightblue" stroke="midnightblue" points="1427.16,-208.714 1437.41,-206.035 1427.73,-201.737 1427.16,-208.714"/>
</g>
<!-- Node19 -->
<g id="node19" class="node"><title>Node19</title>
<g id="a_node19"><a xlink:href="erpc__uart__cmsis__transport_8h.html" target="_top" xlink:title="erpc_uart_cmsis_transport.h">
<polygon fill="white" stroke="black" points="0,-6 0,-25 140,-25 140,-6 0,-6"/>
<text text-anchor="middle" x="70" y="-13" font-family="Helvetica,sans-Serif" font-size="10.00">erpc_uart_cmsis_transport.h</text>
</a>
</g>
</g>
<!-- Node2&#45;&gt;Node19 -->
<g id="edge37" class="edge"><title>Node2&#45;&gt;Node19</title>
<path fill="none" stroke="midnightblue" d="M1427.29,-206.118C1259.63,-195.561 802.647,-162.685 427,-98 306.082,-77.1785 164.576,-41.4294 102.252,-25.0951"/>
<polygon fill="midnightblue" stroke="midnightblue" points="1427.24,-209.622 1437.44,-206.752 1427.68,-202.636 1427.24,-209.622"/>
</g>
<!-- Node20 -->
<g id="node20" class="node"><title>Node20</title>
<g id="a_node20"><a xlink:href="erpc__usb__cdc__transport_8h.html" target="_top" xlink:title="erpc_usb_cdc_transport.h">
<polygon fill="white" stroke="black" points="1166.5,-6 1166.5,-25 1295.5,-25 1295.5,-6 1166.5,-6"/>
<text text-anchor="middle" x="1231" y="-13" font-family="Helvetica,sans-Serif" font-size="10.00">erpc_usb_cdc_transport.h</text>
</a>
</g>
</g>
<!-- Node2&#45;&gt;Node20 -->
<g id="edge38" class="edge"><title>Node2&#45;&gt;Node20</title>
<path fill="none" stroke="midnightblue" d="M1475.84,-194.481C1466.89,-186.082 1455.97,-175.334 1447,-165 1411.57,-124.19 1418.44,-99.1564 1375,-67 1345.72,-45.3267 1306.35,-32.3667 1276.18,-25.0125"/>
<polygon fill="midnightblue" stroke="midnightblue" points="1473.67,-197.242 1483.39,-201.456 1478.42,-192.1 1473.67,-197.242"/>
</g>
<!-- Node21 -->
<g id="node21" class="node"><title>Node21</title>
<g id="a_node21"><a xlink:href="erpc__port_8h.html" target="_top" xlink:title="erpc_port.h">
<polygon fill="white" stroke="black" points="1692.5,-140 1692.5,-159 1757.5,-159 1757.5,-140 1692.5,-140"/>
<text text-anchor="middle" x="1725" y="-147" font-family="Helvetica,sans-Serif" font-size="10.00">erpc_port.h</text>
</a>
</g>
</g>
<!-- Node2&#45;&gt;Node21 -->
<g id="edge22" class="edge"><title>Node2&#45;&gt;Node21</title>
<path fill="none" stroke="midnightblue" d="M1541.21,-199.117C1578.67,-190.459 1631.83,-177.724 1678,-165 1684.59,-163.185 1691.65,-161.088 1698.24,-159.063"/>
<polygon fill="midnightblue" stroke="midnightblue" points="1540.05,-195.794 1531.08,-201.447 1541.62,-202.616 1540.05,-195.794"/>
</g>
<!-- Node22 -->
<g id="node22" class="node"><title>Node22</title>
<g id="a_node22"><a xlink:href="erpc__setup__extensions_8h.html" target="_top" xlink:title="erpc_setup_extensions.h">
<polygon fill="white" stroke="black" points="1775.5,-140 1775.5,-159 1900.5,-159 1900.5,-140 1775.5,-140"/>
<text text-anchor="middle" x="1838" y="-147" font-family="Helvetica,sans-Serif" font-size="10.00">erpc_setup_extensions.h</text>
</a>
</g>
</g>
<!-- Node2&#45;&gt;Node22 -->
<g id="edge23" class="edge"><title>Node2&#45;&gt;Node22</title>
<path fill="none" stroke="midnightblue" d="M1558.29,-199.903C1613.67,-191.179 1695.16,-177.967 1766,-165 1776.03,-163.163 1786.83,-161.058 1796.93,-159.032"/>
<polygon fill="midnightblue" stroke="midnightblue" points="1557.6,-196.468 1548.26,-201.478 1558.69,-203.383 1557.6,-196.468"/>
</g>
<!-- Node23 -->
<g id="node23" class="node"><title>Node23</title>
<g id="a_node23"><a xlink:href="erpc__threading_8h.html" target="_top" xlink:title="erpc_threading.h">
<polygon fill="white" stroke="black" points="1130.5,-140 1130.5,-159 1219.5,-159 1219.5,-140 1130.5,-140"/>
<text text-anchor="middle" x="1175" y="-147" font-family="Helvetica,sans-Serif" font-size="10.00">erpc_threading.h</text>
</a>
</g>
</g>
<!-- Node2&#45;&gt;Node23 -->
<g id="edge24" class="edge"><title>Node2&#45;&gt;Node23</title>
<path fill="none" stroke="midnightblue" d="M1437.46,-199.609C1375.6,-188.034 1276.8,-169.548 1219.71,-158.865"/>
<polygon fill="midnightblue" stroke="midnightblue" points="1436.97,-203.076 1447.44,-201.475 1438.25,-196.196 1436.97,-203.076"/>
</g>
<!-- Node25 -->
<g id="node25" class="node"><title>Node25</title>
<g id="a_node25"><a xlink:href="erpc__mu__transport_8h.html" target="_top" xlink:title="erpc_mu_transport.h">
<polygon fill="white" stroke="black" points="1260,-73 1260,-92 1366,-92 1366,-73 1260,-73"/>
<text text-anchor="middle" x="1313" y="-80" font-family="Helvetica,sans-Serif" font-size="10.00">erpc_mu_transport.h</text>
</a>
</g>
</g>
<!-- Node2&#45;&gt;Node25 -->
<g id="edge35" class="edge"><title>Node2&#45;&gt;Node25</title>
<path fill="none" stroke="midnightblue" d="M1449.54,-198.38C1427.37,-191.099 1400.78,-180.175 1380,-165 1351.6,-144.256 1328.11,-108.784 1318.14,-92.345"/>
<polygon fill="midnightblue" stroke="midnightblue" points="1448.79,-201.813 1459.38,-201.472 1450.89,-195.135 1448.79,-201.813"/>
</g>
<!-- Node26 -->
<g id="node26" class="node"><title>Node26</title>
<g id="a_node26"><a xlink:href="erpc__server__setup_8h.html" target="_top" xlink:title="erpc_server_setup.h">
<polygon fill="white" stroke="black" points="1919,-140 1919,-159 2023,-159 2023,-140 1919,-140"/>
<text text-anchor="middle" x="1971" y="-147" font-family="Helvetica,sans-Serif" font-size="10.00">erpc_server_setup.h</text>
</a>
</g>
</g>
<!-- Node2&#45;&gt;Node26 -->
<g id="edge34" class="edge"><title>Node2&#45;&gt;Node26</title>
<path fill="none" stroke="midnightblue" d="M1559.03,-205.358C1641.36,-198.996 1786.24,-185.914 1909,-165 1918.48,-163.385 1928.68,-161.193 1938.01,-159.003"/>
<polygon fill="midnightblue" stroke="midnightblue" points="1558.52,-201.887 1548.81,-206.138 1559.05,-208.866 1558.52,-201.887"/>
</g>
<!-- Node27 -->
<g id="node27" class="node"><title>Node27</title>
<g id="a_node27"><a xlink:href="erpc__rpmsg__lite__transport_8h.html" target="_top" xlink:title="erpc_rpmsg_lite_transport.h">
<polygon fill="white" stroke="black" points="2041.5,-140 2041.5,-159 2178.5,-159 2178.5,-140 2041.5,-140"/>
<text text-anchor="middle" x="2110" y="-147" font-family="Helvetica,sans-Serif" font-size="10.00">erpc_rpmsg_lite_transport.h</text>
</a>
</g>
</g>
<!-- Node2&#45;&gt;Node27 -->
<g id="edge36" class="edge"><title>Node2&#45;&gt;Node27</title>
<path fill="none" stroke="midnightblue" d="M1558.81,-206.643C1660.58,-200.97 1862.17,-187.816 2032,-165 2043.88,-163.404 2056.69,-161.219 2068.43,-159.028"/>
<polygon fill="midnightblue" stroke="midnightblue" points="1558.47,-203.156 1548.68,-207.201 1558.86,-210.145 1558.47,-203.156"/>
</g>
<!-- Node3&#45;&gt;Node4 -->
<g id="edge3" class="edge"><title>Node3&#45;&gt;Node4</title>
<path fill="none" stroke="midnightblue" d="M1565.21,-127.335C1552.35,-115.401 1536.99,-101.136 1527.36,-92.1945"/>
<polygon fill="midnightblue" stroke="midnightblue" points="1563.1,-130.156 1572.81,-134.396 1567.86,-125.027 1563.1,-130.156"/>
</g>
<!-- Node3&#45;&gt;Node9 -->
<g id="edge8" class="edge"><title>Node3&#45;&gt;Node9</title>
<path fill="none" stroke="midnightblue" d="M1613.54,-128.008C1628.57,-115.941 1646.81,-101.305 1658.17,-92.1945"/>
<polygon fill="midnightblue" stroke="midnightblue" points="1611.18,-125.407 1605.58,-134.396 1615.57,-130.867 1611.18,-125.407"/>
</g>
<!-- Node5 -->
<g id="node5" class="node"><title>Node5</title>
<g id="a_node5"><a xlink:href="erpc__arbitrated__client__manager_8h.html" target="_top" xlink:title="erpc_arbitrated_client\l_manager.h">
<polygon fill="white" stroke="black" points="1591,-0.5 1591,-30.5 1701,-30.5 1701,-0.5 1591,-0.5"/>
<text text-anchor="start" x="1599" y="-18.5" font-family="Helvetica,sans-Serif" font-size="10.00">erpc_arbitrated_client</text>
<text text-anchor="middle" x="1646" y="-7.5" font-family="Helvetica,sans-Serif" font-size="10.00">_manager.h</text>
</a>
</g>
</g>
<!-- Node4&#45;&gt;Node5 -->
<g id="edge4" class="edge"><title>Node4&#45;&gt;Node5</title>
<path fill="none" stroke="midnightblue" d="M1544.2,-68.1944C1565.73,-57.2607 1596.16,-41.8102 1618.13,-30.6516"/>
<polygon fill="midnightblue" stroke="midnightblue" points="1542.33,-65.22 1535,-72.8685 1545.5,-71.4614 1542.33,-65.22"/>
</g>
<!-- Node6 -->
<g id="node6" class="node"><title>Node6</title>
<g id="a_node6"><a xlink:href="erpc__transport__arbitrator_8h.html" target="_top" xlink:title="erpc_transport_arbitrator.h">
<polygon fill="white" stroke="black" points="1313.5,-6 1313.5,-25 1444.5,-25 1444.5,-6 1313.5,-6"/>
<text text-anchor="middle" x="1379" y="-13" font-family="Helvetica,sans-Serif" font-size="10.00">erpc_transport_arbitrator.h</text>
</a>
</g>
</g>
<!-- Node4&#45;&gt;Node6 -->
<g id="edge5" class="edge"><title>Node4&#45;&gt;Node6</title>
<path fill="none" stroke="midnightblue" d="M1490.44,-68.6127C1462.91,-55.7387 1421.35,-36.3059 1397.53,-25.1672"/>
<polygon fill="midnightblue" stroke="midnightblue" points="1489,-71.8029 1499.54,-72.8685 1491.97,-65.462 1489,-71.8029"/>
</g>
<!-- Node4&#45;&gt;Node7 -->
<g id="edge6" class="edge"><title>Node4&#45;&gt;Node7</title>
<path fill="none" stroke="midnightblue" d="M1518,-62.4107C1518,-52.222 1518,-39.901 1518,-30.589"/>
<polygon fill="midnightblue" stroke="midnightblue" points="1514.5,-62.7338 1518,-72.7338 1521.5,-62.7338 1514.5,-62.7338"/>
</g>
<!-- Node4&#45;&gt;Node8 -->
<g id="edge7" class="edge"><title>Node4&#45;&gt;Node8</title>
<path fill="none" stroke="midnightblue" d="M1561.02,-70.4039C1610.75,-57.5757 1691.55,-36.7361 1736.72,-25.0834"/>
<polygon fill="midnightblue" stroke="midnightblue" points="1560.01,-67.0488 1551.2,-72.9355 1561.76,-73.8269 1560.01,-67.0488"/>
</g>
<!-- Node10 -->
<g id="node10" class="node"><title>Node10</title>
<g id="a_node10"><a xlink:href="erpc__simple__server_8h.html" target="_top" xlink:title="erpc_simple_server.h">
<polygon fill="white" stroke="black" points="1839,-6 1839,-25 1947,-25 1947,-6 1839,-6"/>
<text text-anchor="middle" x="1893" y="-13" font-family="Helvetica,sans-Serif" font-size="10.00">erpc_simple_server.h</text>
</a>
</g>
</g>
<!-- Node9&#45;&gt;Node10 -->
<g id="edge9" class="edge"><title>Node9&#45;&gt;Node10</title>
<path fill="none" stroke="midnightblue" d="M1708.6,-70.0101C1752.93,-57.1454 1823.75,-36.5942 1863.49,-25.0637"/>
<polygon fill="midnightblue" stroke="midnightblue" points="1707.37,-66.7203 1698.75,-72.8685 1709.32,-73.4429 1707.37,-66.7203"/>
</g>
<!-- Node12 -->
<g id="node12" class="node"><title>Node12</title>
<g id="a_node12"><a xlink:href="erpc__dspi__master__transport_8h.html" target="_top" xlink:title="erpc_dspi_master_transport.h">
<polygon fill="white" stroke="black" points="158,-6 158,-25 304,-25 304,-6 158,-6"/>
<text text-anchor="middle" x="231" y="-13" font-family="Helvetica,sans-Serif" font-size="10.00">erpc_dspi_master_transport.h</text>
</a>
</g>
</g>
<!-- Node11&#45;&gt;Node12 -->
<g id="edge12" class="edge"><title>Node11&#45;&gt;Node12</title>
<path fill="none" stroke="midnightblue" d="M764.549,-76.3934C663.653,-68.7752 473.783,-52.9433 313,-31 300.824,-29.3383 287.694,-27.1815 275.585,-25.0416"/>
<polygon fill="midnightblue" stroke="midnightblue" points="764.391,-79.8913 774.625,-77.1492 764.915,-72.9109 764.391,-79.8913"/>
</g>
<!-- Node13 -->
<g id="node13" class="node"><title>Node13</title>
<g id="a_node13"><a xlink:href="erpc__dspi__slave__transport_8h.html" target="_top" xlink:title="erpc_dspi_slave_transport.h">
<polygon fill="white" stroke="black" points="322.5,-6 322.5,-25 459.5,-25 459.5,-6 322.5,-6"/>
<text text-anchor="middle" x="391" y="-13" font-family="Helvetica,sans-Serif" font-size="10.00">erpc_dspi_slave_transport.h</text>
</a>
</g>
</g>
<!-- Node11&#45;&gt;Node13 -->
<g id="edge13" class="edge"><title>Node11&#45;&gt;Node13</title>
<path fill="none" stroke="midnightblue" d="M764.684,-72.6965C690.627,-63.3181 571.48,-47.5668 469,-31 457.986,-29.2196 446.133,-27.1142 435.075,-25.0677"/>
<polygon fill="midnightblue" stroke="midnightblue" points="764.469,-76.197 774.828,-73.977 765.345,-69.2521 764.469,-76.197"/>
</g>
<!-- Node14 -->
<g id="node14" class="node"><title>Node14</title>
<g id="a_node14"><a xlink:href="erpc__serial__transport_8h.html" target="_top" xlink:title="erpc_serial_transport.h">
<polygon fill="white" stroke="black" points="478,-6 478,-25 594,-25 594,-6 478,-6"/>
<text text-anchor="middle" x="536" y="-13" font-family="Helvetica,sans-Serif" font-size="10.00">erpc_serial_transport.h</text>
</a>
</g>
</g>
<!-- Node11&#45;&gt;Node14 -->
<g id="edge14" class="edge"><title>Node11&#45;&gt;Node14</title>
<path fill="none" stroke="midnightblue" d="M786.629,-70.803C727.593,-58.0117 629.959,-36.8578 575.616,-25.0834"/>
<polygon fill="midnightblue" stroke="midnightblue" points="785.957,-74.2386 796.472,-72.9355 787.44,-67.3973 785.957,-74.2386"/>
</g>
<!-- Node15 -->
<g id="node15" class="node"><title>Node15</title>
<g id="a_node15"><a xlink:href="erpc__spi__master__transport_8h.html" target="_top" xlink:title="erpc_spi_master_transport.h">
<polygon fill="white" stroke="black" points="612,-6 612,-25 752,-25 752,-6 612,-6"/>
<text text-anchor="middle" x="682" y="-13" font-family="Helvetica,sans-Serif" font-size="10.00">erpc_spi_master_transport.h</text>
</a>
</g>
</g>
<!-- Node11&#45;&gt;Node15 -->
<g id="edge15" class="edge"><title>Node11&#45;&gt;Node15</title>
<path fill="none" stroke="midnightblue" d="M806.263,-68.9485C775.771,-56.0787 729.155,-36.4032 702.535,-25.1672"/>
<polygon fill="midnightblue" stroke="midnightblue" points="804.976,-72.2044 815.55,-72.8685 807.698,-65.7553 804.976,-72.2044"/>
</g>
<!-- Node16 -->
<g id="node16" class="node"><title>Node16</title>
<g id="a_node16"><a xlink:href="erpc__spi__slave__transport_8h.html" target="_top" xlink:title="erpc_spi_slave_transport.h">
<polygon fill="white" stroke="black" points="770,-6 770,-25 902,-25 902,-6 770,-6"/>
<text text-anchor="middle" x="836" y="-13" font-family="Helvetica,sans-Serif" font-size="10.00">erpc_spi_slave_transport.h</text>
</a>
</g>
</g>
<!-- Node11&#45;&gt;Node16 -->
<g id="edge16" class="edge"><title>Node11&#45;&gt;Node16</title>
<path fill="none" stroke="midnightblue" d="M836,-62.537C836,-50.1703 836,-34.6198 836,-25.1273"/>
<polygon fill="midnightblue" stroke="midnightblue" points="832.5,-62.7338 836,-72.7338 839.5,-62.7338 832.5,-62.7338"/>
</g>
<!-- Node17 -->
<g id="node17" class="node"><title>Node17</title>
<g id="a_node17"><a xlink:href="erpc__spidev__master__transport_8h.html" target="_top" xlink:title="erpc_spidev_master\l_transport.h">
<polygon fill="white" stroke="black" points="920.5,-0.5 920.5,-30.5 1023.5,-30.5 1023.5,-0.5 920.5,-0.5"/>
<text text-anchor="start" x="928.5" y="-18.5" font-family="Helvetica,sans-Serif" font-size="10.00">erpc_spidev_master</text>
<text text-anchor="middle" x="972" y="-7.5" font-family="Helvetica,sans-Serif" font-size="10.00">_transport.h</text>
</a>
</g>
</g>
<!-- Node11&#45;&gt;Node17 -->
<g id="edge17" class="edge"><title>Node11&#45;&gt;Node17</title>
<path fill="none" stroke="midnightblue" d="M863.255,-68.4738C886.247,-57.485 919.083,-41.791 942.649,-30.5281"/>
<polygon fill="midnightblue" stroke="midnightblue" points="861.573,-65.3984 854.06,-72.8685 864.592,-71.7141 861.573,-65.3984"/>
</g>
<!-- Node18 -->
<g id="node18" class="node"><title>Node18</title>
<g id="a_node18"><a xlink:href="erpc__tcp__transport_8h.html" target="_top" xlink:title="erpc_tcp_transport.h">
<polygon fill="white" stroke="black" points="1042,-6 1042,-25 1148,-25 1148,-6 1042,-6"/>
<text text-anchor="middle" x="1095" y="-13" font-family="Helvetica,sans-Serif" font-size="10.00">erpc_tcp_transport.h</text>
</a>
</g>
</g>
<!-- Node11&#45;&gt;Node18 -->
<g id="edge18" class="edge"><title>Node11&#45;&gt;Node18</title>
<path fill="none" stroke="midnightblue" d="M879.894,-70.4841C930.982,-57.6627 1014.27,-36.7605 1060.8,-25.0834"/>
<polygon fill="midnightblue" stroke="midnightblue" points="878.973,-67.1066 870.126,-72.9355 880.677,-73.896 878.973,-67.1066"/>
</g>
<!-- Node11&#45;&gt;Node19 -->
<g id="edge19" class="edge"><title>Node11&#45;&gt;Node19</title>
<path fill="none" stroke="midnightblue" d="M764.719,-77.2427C613.867,-68.0719 266.553,-46.0637 149,-31 136.828,-29.4403 123.69,-27.2395 111.687,-25.0227"/>
<polygon fill="midnightblue" stroke="midnightblue" points="764.608,-80.7422 774.801,-77.8542 765.032,-73.7551 764.608,-80.7422"/>
</g>
<!-- Node11&#45;&gt;Node20 -->
<g id="edge20" class="edge"><title>Node11&#45;&gt;Node20</title>
<path fill="none" stroke="midnightblue" d="M904.524,-71.4795C969.599,-61.7835 1070.12,-46.3403 1157,-31 1167.31,-29.1789 1178.41,-27.08 1188.79,-25.0547"/>
<polygon fill="midnightblue" stroke="midnightblue" points="903.768,-68.0532 894.391,-72.9854 904.797,-74.9772 903.768,-68.0532"/>
</g>
<!-- Node23&#45;&gt;Node6 -->
<g id="edge25" class="edge"><title>Node23&#45;&gt;Node6</title>
<path fill="none" stroke="midnightblue" d="M1188.84,-132.013C1206.67,-111.078 1237.02,-76.5258 1251,-67 1280.52,-46.8919 1319.21,-33.047 1346.3,-25.0077"/>
<polygon fill="midnightblue" stroke="midnightblue" points="1186.05,-129.895 1182.26,-139.79 1191.39,-134.416 1186.05,-129.895"/>
</g>
<!-- Node23&#45;&gt;Node11 -->
<g id="edge26" class="edge"><title>Node23&#45;&gt;Node11</title>
<path fill="none" stroke="midnightblue" d="M1120.43,-138.037C1053.76,-125.253 942.226,-103.868 880.496,-92.0317"/>
<polygon fill="midnightblue" stroke="midnightblue" points="1119.85,-141.49 1130.33,-139.936 1121.17,-134.615 1119.85,-141.49"/>
</g>
<!-- Node23&#45;&gt;Node18 -->
<g id="edge29" class="edge"><title>Node23&#45;&gt;Node18</title>
<path fill="none" stroke="midnightblue" d="M1168.06,-130.221C1161.25,-113.23 1150.01,-87.5278 1137,-67 1126.99,-51.2053 1112.57,-34.9223 1103.49,-25.2588"/>
<polygon fill="midnightblue" stroke="midnightblue" points="1164.81,-131.509 1171.71,-139.551 1171.33,-128.963 1164.81,-131.509"/>
</g>
<!-- Node23&#45;&gt;Node19 -->
<g id="edge30" class="edge"><title>Node23&#45;&gt;Node19</title>
<path fill="none" stroke="midnightblue" d="M1120.24,-143.542C966.619,-129.35 518.673,-86.0296 149,-31 137.414,-29.2754 124.926,-27.1214 113.375,-25.0055"/>
<polygon fill="midnightblue" stroke="midnightblue" points="1120.08,-147.042 1130.36,-144.474 1120.72,-140.071 1120.08,-147.042"/>
</g>
<!-- Node23&#45;&gt;Node20 -->
<g id="edge31" class="edge"><title>Node23&#45;&gt;Node20</title>
<path fill="none" stroke="midnightblue" d="M1182.62,-130.54C1194.85,-101.717 1218.39,-46.2241 1227.38,-25.0212"/>
<polygon fill="midnightblue" stroke="midnightblue" points="1179.36,-129.266 1178.67,-139.839 1185.8,-132 1179.36,-129.266"/>
</g>
<!-- Node24 -->
<g id="node24" class="node"><title>Node24</title>
<g id="a_node24"><a xlink:href="erpc__inter__thread__buffer__transport_8h.html" target="_top" xlink:title="erpc_inter_thread_buffer\l_transport.h">
<polygon fill="white" stroke="black" points="1008,-67.5 1008,-97.5 1128,-97.5 1128,-67.5 1008,-67.5"/>
<text text-anchor="start" x="1016" y="-85.5" font-family="Helvetica,sans-Serif" font-size="10.00">erpc_inter_thread_buffer</text>
<text text-anchor="middle" x="1068" y="-74.5" font-family="Helvetica,sans-Serif" font-size="10.00">_transport.h</text>
</a>
</g>
</g>
<!-- Node23&#45;&gt;Node24 -->
<g id="edge27" class="edge"><title>Node23&#45;&gt;Node24</title>
<path fill="none" stroke="midnightblue" d="M1151.88,-134.454C1133.93,-123.551 1109.16,-108.503 1091.19,-97.589"/>
<polygon fill="midnightblue" stroke="midnightblue" points="1150.21,-137.533 1160.57,-139.734 1153.84,-131.551 1150.21,-137.533"/>
</g>
<!-- Node23&#45;&gt;Node25 -->
<g id="edge28" class="edge"><title>Node23&#45;&gt;Node25</title>
<path fill="none" stroke="midnightblue" d="M1202.72,-135.444C1230.05,-122.569 1271.05,-103.257 1294.6,-92.1672"/>
<polygon fill="midnightblue" stroke="midnightblue" points="1200.88,-132.441 1193.33,-139.869 1203.86,-138.774 1200.88,-132.441"/>
</g>
</g>
</svg>
