<?xml version="1.0" encoding="UTF-8" standalone="no"?>
<!DOCTYPE svg PUBLIC "-//W3C//DTD SVG 1.1//EN"
 "http://www.w3.org/Graphics/SVG/1.1/DTD/svg11.dtd">
<!-- Generated by graphviz version 2.38.0 (20140413.2041)
 -->
<!-- Title: erpc_config.h Pages: 1 -->
<svg width="2105pt" height="285pt"
 viewBox="0.00 0.00 2104.50 285.00" xmlns="http://www.w3.org/2000/svg" xmlns:xlink="http://www.w3.org/1999/xlink">
<g id="graph0" class="graph" transform="scale(1 1) rotate(0) translate(4 281)">
<title>erpc_config.h</title>
<polygon fill="white" stroke="none" points="-4,4 -4,-281 2100.5,-281 2100.5,4 -4,4"/>
<!-- Node1 -->
<g id="node1" class="node"><title>Node1</title>
<polygon fill="#bfbfbf" stroke="black" points="1032,-257.5 1032,-276.5 1106,-276.5 1106,-257.5 1032,-257.5"/>
<text text-anchor="middle" x="1069" y="-264.5" font-family="Helvetica,sans-Serif" font-size="10.00">erpc_config.h</text>
</g>
<!-- Node2 -->
<g id="node2" class="node"><title>Node2</title>
<g id="a_node2"><a xlink:href="erpc__config__internal_8h_source.html" target="_top" xlink:title="erpc_config_internal.h">
<polygon fill="white" stroke="black" points="1013.5,-201.5 1013.5,-220.5 1124.5,-220.5 1124.5,-201.5 1013.5,-201.5"/>
<text text-anchor="middle" x="1069" y="-208.5" font-family="Helvetica,sans-Serif" font-size="10.00">erpc_config_internal.h</text>
</a>
</g>
</g>
<!-- Node1&#45;&gt;Node2 -->
<g id="edge1" class="edge"><title>Node1&#45;&gt;Node2</title>
<path fill="none" stroke="midnightblue" d="M1069,-246.805C1069,-237.91 1069,-227.78 1069,-220.751"/>
<polygon fill="midnightblue" stroke="midnightblue" points="1065.5,-247.083 1069,-257.083 1072.5,-247.083 1065.5,-247.083"/>
</g>
<!-- Node3 -->
<g id="node3" class="node"><title>Node3</title>
<g id="a_node3"><a xlink:href="erpc__client__server__common_8h.html" target="_top" xlink:title="erpc_client_server\l_common.h">
<polygon fill="white" stroke="black" points="493.5,-134.5 493.5,-164.5 588.5,-164.5 588.5,-134.5 493.5,-134.5"/>
<text text-anchor="start" x="501.5" y="-152.5" font-family="Helvetica,sans-Serif" font-size="10.00">erpc_client_server</text>
<text text-anchor="middle" x="541" y="-141.5" font-family="Helvetica,sans-Serif" font-size="10.00">_common.h</text>
</a>
</g>
</g>
<!-- Node2&#45;&gt;Node3 -->
<g id="edge2" class="edge"><title>Node2&#45;&gt;Node3</title>
<path fill="none" stroke="midnightblue" d="M1003.34,-206.43C912.793,-200.877 744.709,-188.306 603,-165 598.31,-164.229 593.446,-163.307 588.599,-162.308"/>
<polygon fill="midnightblue" stroke="midnightblue" points="1003.26,-209.931 1013.46,-207.041 1003.68,-202.944 1003.26,-209.931"/>
</g>
<!-- Node4 -->
<g id="node4" class="node"><title>Node4</title>
<g id="a_node4"><a xlink:href="erpc__client__manager_8h.html" target="_top" xlink:title="erpc_client_manager.h">
<polygon fill="white" stroke="black" points="272.5,-73 272.5,-92 387.5,-92 387.5,-73 272.5,-73"/>
<text text-anchor="middle" x="330" y="-80" font-family="Helvetica,sans-Serif" font-size="10.00">erpc_client_manager.h</text>
</a>
</g>
</g>
<!-- Node2&#45;&gt;Node4 -->
<g id="edge10" class="edge"><title>Node2&#45;&gt;Node4</title>
<path fill="none" stroke="midnightblue" d="M1003.18,-210.453C861.266,-210.615 531.014,-206.373 428,-165 387.753,-148.835 351.688,-109.649 336.994,-92.1684"/>
<polygon fill="midnightblue" stroke="midnightblue" points="1003.48,-213.953 1013.47,-210.434 1003.47,-206.953 1003.48,-213.953"/>
</g>
<!-- Node7 -->
<g id="node7" class="node"><title>Node7</title>
<g id="a_node7"><a xlink:href="erpc__arbitrated__client__setup_8h.html" target="_top" xlink:title="erpc_arbitrated_client\l_setup.h">
<polygon fill="white" stroke="black" points="0,-0.5 0,-30.5 110,-30.5 110,-0.5 0,-0.5"/>
<text text-anchor="start" x="8" y="-18.5" font-family="Helvetica,sans-Serif" font-size="10.00">erpc_arbitrated_client</text>
<text text-anchor="middle" x="55" y="-7.5" font-family="Helvetica,sans-Serif" font-size="10.00">_setup.h</text>
</a>
</g>
</g>
<!-- Node2&#45;&gt;Node7 -->
<g id="edge37" class="edge"><title>Node2&#45;&gt;Node7</title>
<path fill="none" stroke="midnightblue" d="M1002.98,-208.779C853.731,-205.522 494.235,-194.751 377,-165 257.959,-134.791 128.903,-61.4808 77.735,-30.5929"/>
<polygon fill="midnightblue" stroke="midnightblue" points="1003.28,-212.286 1013.36,-209.001 1003.43,-205.288 1003.28,-212.286"/>
</g>
<!-- Node8 -->
<g id="node8" class="node"><title>Node8</title>
<g id="a_node8"><a xlink:href="erpc__client__setup_8h.html" target="_top" xlink:title="erpc_client_setup.h">
<polygon fill="white" stroke="black" points="256.5,-6 256.5,-25 357.5,-25 357.5,-6 256.5,-6"/>
<text text-anchor="middle" x="307" y="-13" font-family="Helvetica,sans-Serif" font-size="10.00">erpc_client_setup.h</text>
</a>
</g>
</g>
<!-- Node2&#45;&gt;Node8 -->
<g id="edge38" class="edge"><title>Node2&#45;&gt;Node8</title>
<path fill="none" stroke="midnightblue" d="M1003.03,-207.684C859.815,-202.262 529.599,-187.475 484,-165 431.493,-139.12 441.606,-103.7 396,-67 373.993,-49.2909 344.991,-34.0991 326.172,-25.129"/>
<polygon fill="midnightblue" stroke="midnightblue" points="1003.3,-211.197 1013.42,-208.074 1003.56,-204.202 1003.3,-211.197"/>
</g>
<!-- Node9 -->
<g id="node9" class="node"><title>Node9</title>
<g id="a_node9"><a xlink:href="erpc__server_8h.html" target="_top" xlink:title="erpc_server.h">
<polygon fill="white" stroke="black" points="542,-73 542,-92 616,-92 616,-73 542,-73"/>
<text text-anchor="middle" x="579" y="-80" font-family="Helvetica,sans-Serif" font-size="10.00">erpc_server.h</text>
</a>
</g>
</g>
<!-- Node2&#45;&gt;Node9 -->
<g id="edge23" class="edge"><title>Node2&#45;&gt;Node9</title>
<path fill="none" stroke="midnightblue" d="M1003.26,-209.745C897.821,-208.259 696.591,-200.666 636,-165 606.835,-147.833 588.917,-109.179 582.119,-92.0031"/>
<polygon fill="midnightblue" stroke="midnightblue" points="1003.42,-213.247 1013.47,-209.874 1003.51,-206.248 1003.42,-213.247"/>
</g>
<!-- Node11 -->
<g id="node11" class="node"><title>Node11</title>
<g id="a_node11"><a xlink:href="erpc__manually__constructed_8h.html" target="_top" xlink:title="erpc_manually_constructed.h">
<polygon fill="white" stroke="black" points="645,-140 645,-159 789,-159 789,-140 645,-140"/>
<text text-anchor="middle" x="717" y="-147" font-family="Helvetica,sans-Serif" font-size="10.00">erpc_manually_constructed.h</text>
</a>
</g>
</g>
<!-- Node2&#45;&gt;Node11 -->
<g id="edge11" class="edge"><title>Node2&#45;&gt;Node11</title>
<path fill="none" stroke="midnightblue" d="M1008.42,-199.759C940.303,-188.246 830.942,-169.76 767.339,-159.009"/>
<polygon fill="midnightblue" stroke="midnightblue" points="1008.12,-203.259 1018.57,-201.475 1009.29,-196.357 1008.12,-203.259"/>
</g>
<!-- Node12 -->
<g id="node12" class="node"><title>Node12</title>
<g id="a_node12"><a xlink:href="erpc__framed__transport_8h.html" target="_top" xlink:title="erpc_framed_transport.h">
<polygon fill="white" stroke="black" points="1211,-73 1211,-92 1333,-92 1333,-73 1211,-73"/>
<text text-anchor="middle" x="1272" y="-80" font-family="Helvetica,sans-Serif" font-size="10.00">erpc_framed_transport.h</text>
</a>
</g>
</g>
<!-- Node2&#45;&gt;Node12 -->
<g id="edge12" class="edge"><title>Node2&#45;&gt;Node12</title>
<path fill="none" stroke="midnightblue" d="M1091.7,-195.856C1134.03,-169.477 1223.84,-113.511 1258.22,-92.0884"/>
<polygon fill="midnightblue" stroke="midnightblue" points="1089.59,-193.046 1082.95,-201.305 1093.29,-198.987 1089.59,-193.046"/>
</g>
<!-- Node14 -->
<g id="node14" class="node"><title>Node14</title>
<g id="a_node14"><a xlink:href="erpc__dspi__slave__transport_8h.html" target="_top" xlink:title="erpc_dspi_slave_transport.h">
<polygon fill="white" stroke="black" points="651.5,-6 651.5,-25 788.5,-25 788.5,-6 651.5,-6"/>
<text text-anchor="middle" x="720" y="-13" font-family="Helvetica,sans-Serif" font-size="10.00">erpc_dspi_slave_transport.h</text>
</a>
</g>
</g>
<!-- Node2&#45;&gt;Node14 -->
<g id="edge40" class="edge"><title>Node2&#45;&gt;Node14</title>
<path fill="none" stroke="midnightblue" d="M1038.72,-197.451C1018.66,-188.877 991.925,-176.944 969,-165 876.153,-116.627 769.803,-48.8267 733.186,-25.1025"/>
<polygon fill="midnightblue" stroke="midnightblue" points="1037.41,-200.697 1047.98,-201.376 1040.14,-194.252 1037.41,-200.697"/>
</g>
<!-- Node15 -->
<g id="node15" class="node"><title>Node15</title>
<g id="a_node15"><a xlink:href="erpc__i2c__slave__transport_8h.html" target="_top" xlink:title="erpc_i2c_slave_transport.h">
<polygon fill="white" stroke="black" points="807,-6 807,-25 939,-25 939,-6 807,-6"/>
<text text-anchor="middle" x="873" y="-13" font-family="Helvetica,sans-Serif" font-size="10.00">erpc_i2c_slave_transport.h</text>
</a>
</g>
</g>
<!-- Node2&#45;&gt;Node15 -->
<g id="edge41" class="edge"><title>Node2&#45;&gt;Node15</title>
<path fill="none" stroke="midnightblue" d="M1045.45,-196.004C1032.36,-187.73 1016.11,-176.619 1003,-165 949.658,-117.734 897.176,-49.2422 879.371,-25.2193"/>
<polygon fill="midnightblue" stroke="midnightblue" points="1043.99,-199.215 1054.33,-201.494 1047.67,-193.26 1043.99,-199.215"/>
</g>
<!-- Node18 -->
<g id="node18" class="node"><title>Node18</title>
<g id="a_node18"><a xlink:href="erpc__spi__slave__transport_8h.html" target="_top" xlink:title="erpc_spi_slave_transport.h">
<polygon fill="white" stroke="black" points="1817,-6 1817,-25 1949,-25 1949,-6 1817,-6"/>
<text text-anchor="middle" x="1883" y="-13" font-family="Helvetica,sans-Serif" font-size="10.00">erpc_spi_slave_transport.h</text>
</a>
</g>
</g>
<!-- Node2&#45;&gt;Node18 -->
<g id="edge48" class="edge"><title>Node2&#45;&gt;Node18</title>
<path fill="none" stroke="midnightblue" d="M1100.58,-197.831C1140.41,-182.564 1211.06,-155.748 1272,-134 1318.86,-117.276 1331.31,-115.194 1378,-98 1413.01,-85.1087 1419.77,-75.8712 1456,-67 1608.75,-29.6025 1652.42,-53.9482 1808,-31 1819.15,-29.355 1831.17,-27.2039 1842.24,-25.064"/>
<polygon fill="midnightblue" stroke="midnightblue" points="1099.23,-194.602 1091.15,-201.453 1101.74,-201.137 1099.23,-194.602"/>
</g>
<!-- Node21 -->
<g id="node21" class="node"><title>Node21</title>
<g id="a_node21"><a xlink:href="erpc__uart__cmsis__transport_8h.html" target="_top" xlink:title="erpc_uart_cmsis_transport.h">
<polygon fill="white" stroke="black" points="957,-6 957,-25 1097,-25 1097,-6 957,-6"/>
<text text-anchor="middle" x="1027" y="-13" font-family="Helvetica,sans-Serif" font-size="10.00">erpc_uart_cmsis_transport.h</text>
</a>
</g>
</g>
<!-- Node2&#45;&gt;Node21 -->
<g id="edge49" class="edge"><title>Node2&#45;&gt;Node21</title>
<path fill="none" stroke="midnightblue" d="M1043.82,-196C1032.81,-188.401 1021.04,-177.906 1015,-165 992.181,-116.279 1014.36,-48.6966 1023.49,-25.0659"/>
<polygon fill="midnightblue" stroke="midnightblue" points="1042.06,-199.025 1052.37,-201.464 1045.83,-193.128 1042.06,-199.025"/>
</g>
<!-- Node22 -->
<g id="node22" class="node"><title>Node22</title>
<g id="a_node22"><a xlink:href="erpc__usb__cdc__transport_8h.html" target="_top" xlink:title="erpc_usb_cdc_transport.h">
<polygon fill="white" stroke="black" points="1967.5,-6 1967.5,-25 2096.5,-25 2096.5,-6 1967.5,-6"/>
<text text-anchor="middle" x="2032" y="-13" font-family="Helvetica,sans-Serif" font-size="10.00">erpc_usb_cdc_transport.h</text>
</a>
</g>
</g>
<!-- Node2&#45;&gt;Node22 -->
<g id="edge50" class="edge"><title>Node2&#45;&gt;Node22</title>
<path fill="none" stroke="midnightblue" d="M1134.94,-208.88C1243.47,-206.138 1454.37,-196.767 1521,-165 1576.32,-138.627 1562.76,-93.5462 1618,-67 1754.96,-1.17718 1807.74,-53.6316 1958,-31 1969,-29.3427 1980.86,-27.1874 1991.79,-25.0475"/>
<polygon fill="midnightblue" stroke="midnightblue" points="1134.67,-205.385 1124.76,-209.125 1134.84,-212.383 1134.67,-205.385"/>
</g>
<!-- Node23 -->
<g id="node23" class="node"><title>Node23</title>
<g id="a_node23"><a xlink:href="erpc__port_8h.html" target="_top" xlink:title="erpc_port.h">
<polygon fill="white" stroke="black" points="1281.5,-140 1281.5,-159 1346.5,-159 1346.5,-140 1281.5,-140"/>
<text text-anchor="middle" x="1314" y="-147" font-family="Helvetica,sans-Serif" font-size="10.00">erpc_port.h</text>
</a>
</g>
</g>
<!-- Node2&#45;&gt;Node23 -->
<g id="edge24" class="edge"><title>Node2&#45;&gt;Node23</title>
<path fill="none" stroke="midnightblue" d="M1120.76,-199.359C1160.87,-190.844 1217.71,-178.184 1267,-165 1273.6,-163.235 1280.66,-161.157 1287.26,-159.134"/>
<polygon fill="midnightblue" stroke="midnightblue" points="1120,-195.942 1110.94,-201.432 1121.45,-202.791 1120,-195.942"/>
</g>
<!-- Node24 -->
<g id="node24" class="node"><title>Node24</title>
<g id="a_node24"><a xlink:href="erpc__setup__extensions_8h.html" target="_top" xlink:title="erpc_setup_extensions.h">
<polygon fill="white" stroke="black" points="1364.5,-140 1364.5,-159 1489.5,-159 1489.5,-140 1364.5,-140"/>
<text text-anchor="middle" x="1427" y="-147" font-family="Helvetica,sans-Serif" font-size="10.00">erpc_setup_extensions.h</text>
</a>
</g>
</g>
<!-- Node2&#45;&gt;Node24 -->
<g id="edge25" class="edge"><title>Node2&#45;&gt;Node24</title>
<path fill="none" stroke="midnightblue" d="M1134.89,-200.449C1192.94,-191.839 1279.74,-178.493 1355,-165 1365.17,-163.177 1376.11,-161.057 1386.31,-159.009"/>
<polygon fill="midnightblue" stroke="midnightblue" points="1134.13,-197.023 1124.75,-201.948 1135.15,-203.948 1134.13,-197.023"/>
</g>
<!-- Node25 -->
<g id="node25" class="node"><title>Node25</title>
<g id="a_node25"><a xlink:href="erpc__threading_8h.html" target="_top" xlink:title="erpc_threading.h">
<polygon fill="white" stroke="black" points="1024.5,-140 1024.5,-159 1113.5,-159 1113.5,-140 1024.5,-140"/>
<text text-anchor="middle" x="1069" y="-147" font-family="Helvetica,sans-Serif" font-size="10.00">erpc_threading.h</text>
</a>
</g>
</g>
<!-- Node2&#45;&gt;Node25 -->
<g id="edge26" class="edge"><title>Node2&#45;&gt;Node25</title>
<path fill="none" stroke="midnightblue" d="M1069,-191.317C1069,-180.496 1069,-167.398 1069,-159.009"/>
<polygon fill="midnightblue" stroke="midnightblue" points="1065.5,-191.475 1069,-201.475 1072.5,-191.475 1065.5,-191.475"/>
</g>
<!-- Node27 -->
<g id="node27" class="node"><title>Node27</title>
<g id="a_node27"><a xlink:href="erpc__mu__transport_8h.html" target="_top" xlink:title="erpc_mu_transport.h">
<polygon fill="white" stroke="black" points="1465,-73 1465,-92 1571,-92 1571,-73 1465,-73"/>
<text text-anchor="middle" x="1518" y="-80" font-family="Helvetica,sans-Serif" font-size="10.00">erpc_mu_transport.h</text>
</a>
</g>
</g>
<!-- Node2&#45;&gt;Node27 -->
<g id="edge42" class="edge"><title>Node2&#45;&gt;Node27</title>
<path fill="none" stroke="midnightblue" d="M1134.81,-207.217C1248.28,-201.82 1471.22,-188.362 1498,-165 1519.3,-146.42 1519.8,-109.196 1518.8,-92.2562"/>
<polygon fill="midnightblue" stroke="midnightblue" points="1134.34,-203.735 1124.51,-207.699 1134.67,-210.728 1134.34,-203.735"/>
</g>
<!-- Node28 -->
<g id="node28" class="node"><title>Node28</title>
<g id="a_node28"><a xlink:href="erpc__server__setup_8h.html" target="_top" xlink:title="erpc_server_setup.h">
<polygon fill="white" stroke="black" points="1627,-140 1627,-159 1731,-159 1731,-140 1627,-140"/>
<text text-anchor="middle" x="1679" y="-147" font-family="Helvetica,sans-Serif" font-size="10.00">erpc_server_setup.h</text>
</a>
</g>
</g>
<!-- Node2&#45;&gt;Node28 -->
<g id="edge39" class="edge"><title>Node2&#45;&gt;Node28</title>
<path fill="none" stroke="midnightblue" d="M1135.11,-207.385C1237.83,-202.681 1441.77,-190.774 1613,-165 1623.21,-163.463 1634.2,-161.27 1644.22,-159.053"/>
<polygon fill="midnightblue" stroke="midnightblue" points="1134.72,-203.899 1124.89,-207.845 1135.03,-210.892 1134.72,-203.899"/>
</g>
<!-- Node29 -->
<g id="node29" class="node"><title>Node29</title>
<g id="a_node29"><a xlink:href="erpc__rpmsg__lite__base__transport_8h.html" target="_top" xlink:title="erpc_rpmsg_lite_base\l_transport.h">
<polygon fill="white" stroke="black" points="1749,-134.5 1749,-164.5 1861,-164.5 1861,-134.5 1749,-134.5"/>
<text text-anchor="start" x="1757" y="-152.5" font-family="Helvetica,sans-Serif" font-size="10.00">erpc_rpmsg_lite_base</text>
<text text-anchor="middle" x="1805" y="-141.5" font-family="Helvetica,sans-Serif" font-size="10.00">_transport.h</text>
</a>
</g>
</g>
<!-- Node2&#45;&gt;Node29 -->
<g id="edge43" class="edge"><title>Node2&#45;&gt;Node29</title>
<path fill="none" stroke="midnightblue" d="M1134.7,-208.913C1255.25,-206.183 1519.64,-196.779 1740,-165 1742.86,-164.587 1745.78,-164.117 1748.73,-163.604"/>
<polygon fill="midnightblue" stroke="midnightblue" points="1134.45,-205.417 1124.53,-209.135 1134.61,-212.416 1134.45,-205.417"/>
</g>
<!-- Node31 -->
<g id="node31" class="node"><title>Node31</title>
<g id="a_node31"><a xlink:href="erpc__rpmsg__lite__transport_8h.html" target="_top" xlink:title="erpc_rpmsg_lite_transport.h">
<polygon fill="white" stroke="black" points="1877.5,-73 1877.5,-92 2014.5,-92 2014.5,-73 1877.5,-73"/>
<text text-anchor="middle" x="1946" y="-80" font-family="Helvetica,sans-Serif" font-size="10.00">erpc_rpmsg_lite_transport.h</text>
</a>
</g>
</g>
<!-- Node2&#45;&gt;Node31 -->
<g id="edge47" class="edge"><title>Node2&#45;&gt;Node31</title>
<path fill="none" stroke="midnightblue" d="M1134.83,-209.107C1314.49,-206.277 1804.27,-195.799 1870,-165 1904.34,-148.91 1930.65,-109.684 1941.09,-92.1807"/>
<polygon fill="midnightblue" stroke="midnightblue" points="1134.66,-205.609 1124.72,-209.263 1134.77,-212.608 1134.66,-205.609"/>
</g>
<!-- Node3&#45;&gt;Node4 -->
<g id="edge3" class="edge"><title>Node3&#45;&gt;Node4</title>
<path fill="none" stroke="midnightblue" d="M485.848,-131.51C444.671,-118.825 390.125,-102.022 357.685,-92.0287"/>
<polygon fill="midnightblue" stroke="midnightblue" points="484.889,-134.877 495.476,-134.476 486.95,-128.187 484.889,-134.877"/>
</g>
<!-- Node3&#45;&gt;Node9 -->
<g id="edge8" class="edge"><title>Node3&#45;&gt;Node9</title>
<path fill="none" stroke="midnightblue" d="M554.369,-125.632C561.13,-114.067 568.936,-100.714 573.917,-92.1945"/>
<polygon fill="midnightblue" stroke="midnightblue" points="551.271,-123.997 549.245,-134.396 557.314,-127.529 551.271,-123.997"/>
</g>
<!-- Node5 -->
<g id="node5" class="node"><title>Node5</title>
<g id="a_node5"><a xlink:href="erpc__arbitrated__client__manager_8h.html" target="_top" xlink:title="erpc_arbitrated_client\l_manager.h">
<polygon fill="white" stroke="black" points="128,-0.5 128,-30.5 238,-30.5 238,-0.5 128,-0.5"/>
<text text-anchor="start" x="136" y="-18.5" font-family="Helvetica,sans-Serif" font-size="10.00">erpc_arbitrated_client</text>
<text text-anchor="middle" x="183" y="-7.5" font-family="Helvetica,sans-Serif" font-size="10.00">_manager.h</text>
</a>
</g>
</g>
<!-- Node4&#45;&gt;Node5 -->
<g id="edge4" class="edge"><title>Node4&#45;&gt;Node5</title>
<path fill="none" stroke="midnightblue" d="M301.204,-68.767C276.324,-57.7656 240.424,-41.8916 214.725,-30.5281"/>
<polygon fill="midnightblue" stroke="midnightblue" points="299.918,-72.0254 310.48,-72.8685 302.749,-65.6234 299.918,-72.0254"/>
</g>
<!-- Node6 -->
<g id="node6" class="node"><title>Node6</title>
<g id="a_node6"><a xlink:href="erpc__transport__arbitrator_8h.html" target="_top" xlink:title="erpc_transport_arbitrator.h">
<polygon fill="white" stroke="black" points="375.5,-6 375.5,-25 506.5,-25 506.5,-6 375.5,-6"/>
<text text-anchor="middle" x="441" y="-13" font-family="Helvetica,sans-Serif" font-size="10.00">erpc_transport_arbitrator.h</text>
</a>
</g>
</g>
<!-- Node4&#45;&gt;Node6 -->
<g id="edge5" class="edge"><title>Node4&#45;&gt;Node6</title>
<path fill="none" stroke="midnightblue" d="M353.711,-67.6151C375.703,-54.737 407.741,-35.9758 426.267,-25.1273"/>
<polygon fill="midnightblue" stroke="midnightblue" points="351.831,-64.6603 344.97,-72.7338 355.368,-70.7008 351.831,-64.6603"/>
</g>
<!-- Node4&#45;&gt;Node7 -->
<g id="edge6" class="edge"><title>Node4&#45;&gt;Node7</title>
<path fill="none" stroke="midnightblue" d="M283.976,-70.6217C236.087,-59.3023 161.1,-41.5782 110.091,-29.5215"/>
<polygon fill="midnightblue" stroke="midnightblue" points="283.229,-74.0414 293.766,-72.9355 284.839,-67.2291 283.229,-74.0414"/>
</g>
<!-- Node4&#45;&gt;Node8 -->
<g id="edge7" class="edge"><title>Node4&#45;&gt;Node8</title>
<path fill="none" stroke="midnightblue" d="M323.556,-63.29C319.14,-50.8076 313.48,-34.8135 310.053,-25.1273"/>
<polygon fill="midnightblue" stroke="midnightblue" points="320.263,-64.4741 326.898,-72.7338 326.862,-62.139 320.263,-64.4741"/>
</g>
<!-- Node10 -->
<g id="node10" class="node"><title>Node10</title>
<g id="a_node10"><a xlink:href="erpc__simple__server_8h.html" target="_top" xlink:title="erpc_simple_server.h">
<polygon fill="white" stroke="black" points="525,-6 525,-25 633,-25 633,-6 525,-6"/>
<text text-anchor="middle" x="579" y="-13" font-family="Helvetica,sans-Serif" font-size="10.00">erpc_simple_server.h</text>
</a>
</g>
</g>
<!-- Node9&#45;&gt;Node10 -->
<g id="edge9" class="edge"><title>Node9&#45;&gt;Node10</title>
<path fill="none" stroke="midnightblue" d="M579,-62.537C579,-50.1703 579,-34.6198 579,-25.1273"/>
<polygon fill="midnightblue" stroke="midnightblue" points="575.5,-62.7338 579,-72.7338 582.5,-62.7338 575.5,-62.7338"/>
</g>
<!-- Node13 -->
<g id="node13" class="node"><title>Node13</title>
<g id="a_node13"><a xlink:href="erpc__dspi__master__transport_8h.html" target="_top" xlink:title="erpc_dspi_master_transport.h">
<polygon fill="white" stroke="black" points="1519,-6 1519,-25 1665,-25 1665,-6 1519,-6"/>
<text text-anchor="middle" x="1592" y="-13" font-family="Helvetica,sans-Serif" font-size="10.00">erpc_dspi_master_transport.h</text>
</a>
</g>
</g>
<!-- Node12&#45;&gt;Node13 -->
<g id="edge13" class="edge"><title>Node12&#45;&gt;Node13</title>
<path fill="none" stroke="midnightblue" d="M1324.29,-70.8792C1387.31,-58.0772 1491.97,-36.8191 1550,-25.0317"/>
<polygon fill="midnightblue" stroke="midnightblue" points="1323.27,-67.5149 1314.16,-72.9355 1324.66,-74.3748 1323.27,-67.5149"/>
</g>
<!-- Node12&#45;&gt;Node14 -->
<g id="edge14" class="edge"><title>Node12&#45;&gt;Node14</title>
<path fill="none" stroke="midnightblue" d="M1224.87,-70.9647C1217.25,-69.4843 1209.43,-68.0964 1202,-67 1023.67,-40.6738 976.594,-55.501 798,-31 786.265,-29.39 773.611,-27.2254 761.981,-25.0604"/>
<polygon fill="midnightblue" stroke="midnightblue" points="1224.23,-74.4052 1234.72,-72.9473 1225.61,-67.5428 1224.23,-74.4052"/>
</g>
<!-- Node12&#45;&gt;Node15 -->
<g id="edge15" class="edge"><title>Node12&#45;&gt;Node15</title>
<path fill="none" stroke="midnightblue" d="M1222.78,-70.8945C1215.81,-69.5139 1208.74,-68.1738 1202,-67 1089.68,-47.4267 1060.45,-49.8272 948,-31 937.274,-29.2043 925.725,-27.0713 914.98,-25.0012"/>
<polygon fill="midnightblue" stroke="midnightblue" points="1222.34,-74.3778 1232.84,-72.9313 1223.73,-67.517 1222.34,-74.3778"/>
</g>
<!-- Node16 -->
<g id="node16" class="node"><title>Node16</title>
<g id="a_node16"><a xlink:href="erpc__serial__transport_8h.html" target="_top" xlink:title="erpc_serial_transport.h">
<polygon fill="white" stroke="black" points="1683,-6 1683,-25 1799,-25 1799,-6 1683,-6"/>
<text text-anchor="middle" x="1741" y="-13" font-family="Helvetica,sans-Serif" font-size="10.00">erpc_serial_transport.h</text>
</a>
</g>
</g>
<!-- Node12&#45;&gt;Node16 -->
<g id="edge16" class="edge"><title>Node12&#45;&gt;Node16</title>
<path fill="none" stroke="midnightblue" d="M1322.83,-71.0941C1330.9,-69.6099 1339.16,-68.1869 1347,-67 1491.56,-45.1051 1529.69,-54.4948 1674,-31 1684.1,-29.3553 1694.98,-27.1793 1704.97,-25.0145"/>
<polygon fill="midnightblue" stroke="midnightblue" points="1321.94,-67.6997 1312.77,-72.9937 1323.24,-74.5782 1321.94,-67.6997"/>
</g>
<!-- Node17 -->
<g id="node17" class="node"><title>Node17</title>
<g id="a_node17"><a xlink:href="erpc__spi__master__transport_8h.html" target="_top" xlink:title="erpc_spi_master_transport.h">
<polygon fill="white" stroke="black" points="1239,-6 1239,-25 1379,-25 1379,-6 1239,-6"/>
<text text-anchor="middle" x="1309" y="-13" font-family="Helvetica,sans-Serif" font-size="10.00">erpc_spi_master_transport.h</text>
</a>
</g>
</g>
<!-- Node12&#45;&gt;Node17 -->
<g id="edge17" class="edge"><title>Node12&#45;&gt;Node17</title>
<path fill="none" stroke="midnightblue" d="M1281.94,-64.0347C1289.11,-51.4499 1298.47,-35.0072 1304.09,-25.1273"/>
<polygon fill="midnightblue" stroke="midnightblue" points="1278.9,-62.3117 1276.99,-72.7338 1284.98,-65.7746 1278.9,-62.3117"/>
</g>
<!-- Node12&#45;&gt;Node18 -->
<g id="edge18" class="edge"><title>Node12&#45;&gt;Node18</title>
<path fill="none" stroke="midnightblue" d="M1321.67,-71.0798C1330.1,-69.5468 1338.78,-68.1122 1347,-67 1550.66,-39.451 1604.34,-58.549 1808,-31 1819.57,-29.4356 1832.04,-27.2333 1843.44,-25.0166"/>
<polygon fill="midnightblue" stroke="midnightblue" points="1320.74,-67.6924 1311.56,-72.9834 1322.04,-74.5714 1320.74,-67.6924"/>
</g>
<!-- Node19 -->
<g id="node19" class="node"><title>Node19</title>
<g id="a_node19"><a xlink:href="erpc__spidev__master__transport_8h.html" target="_top" xlink:title="erpc_spidev_master\l_transport.h">
<polygon fill="white" stroke="black" points="1397.5,-0.5 1397.5,-30.5 1500.5,-30.5 1500.5,-0.5 1397.5,-0.5"/>
<text text-anchor="start" x="1405.5" y="-18.5" font-family="Helvetica,sans-Serif" font-size="10.00">erpc_spidev_master</text>
<text text-anchor="middle" x="1449" y="-7.5" font-family="Helvetica,sans-Serif" font-size="10.00">_transport.h</text>
</a>
</g>
</g>
<!-- Node12&#45;&gt;Node19 -->
<g id="edge19" class="edge"><title>Node12&#45;&gt;Node19</title>
<path fill="none" stroke="midnightblue" d="M1305.09,-69.3465C1335.1,-58.3289 1379.31,-42.0927 1410.8,-30.5281"/>
<polygon fill="midnightblue" stroke="midnightblue" points="1303.68,-66.1357 1295.5,-72.8685 1306.1,-72.7067 1303.68,-66.1357"/>
</g>
<!-- Node20 -->
<g id="node20" class="node"><title>Node20</title>
<g id="a_node20"><a xlink:href="erpc__tcp__transport_8h.html" target="_top" xlink:title="erpc_tcp_transport.h">
<polygon fill="white" stroke="black" points="1115,-6 1115,-25 1221,-25 1221,-6 1115,-6"/>
<text text-anchor="middle" x="1168" y="-13" font-family="Helvetica,sans-Serif" font-size="10.00">erpc_tcp_transport.h</text>
</a>
</g>
</g>
<!-- Node12&#45;&gt;Node20 -->
<g id="edge20" class="edge"><title>Node12&#45;&gt;Node20</title>
<path fill="none" stroke="midnightblue" d="M1249.23,-67.2687C1228.64,-54.4026 1199.01,-35.879 1181.8,-25.1273"/>
<polygon fill="midnightblue" stroke="midnightblue" points="1247.64,-70.4018 1257.97,-72.7338 1251.35,-64.4658 1247.64,-70.4018"/>
</g>
<!-- Node12&#45;&gt;Node21 -->
<g id="edge21" class="edge"><title>Node12&#45;&gt;Node21</title>
<path fill="none" stroke="midnightblue" d="M1229.87,-70.3234C1181.5,-57.4887 1103.18,-36.7118 1059.35,-25.0834"/>
<polygon fill="midnightblue" stroke="midnightblue" points="1229.16,-73.7541 1239.72,-72.9355 1230.95,-66.9882 1229.16,-73.7541"/>
</g>
<!-- Node12&#45;&gt;Node22 -->
<g id="edge22" class="edge"><title>Node12&#45;&gt;Node22</title>
<path fill="none" stroke="midnightblue" d="M1342.68,-71.7139C1356.69,-69.9773 1371.3,-68.3084 1385,-67 1639.01,-42.7489 1704.92,-63.6028 1958,-31 1969.56,-29.5113 1982.02,-27.3052 1993.37,-25.0604"/>
<polygon fill="midnightblue" stroke="midnightblue" points="1342.1,-68.2601 1332.62,-72.9861 1342.98,-75.2049 1342.1,-68.2601"/>
</g>
<!-- Node25&#45;&gt;Node6 -->
<g id="edge27" class="edge"><title>Node25&#45;&gt;Node6</title>
<path fill="none" stroke="midnightblue" d="M1018.14,-137.81C896.733,-112.291 591.915,-48.221 481.629,-25.0398"/>
<polygon fill="midnightblue" stroke="midnightblue" points="1017.77,-141.309 1028.28,-139.941 1019.21,-134.459 1017.77,-141.309"/>
</g>
<!-- Node25&#45;&gt;Node12 -->
<g id="edge28" class="edge"><title>Node25&#45;&gt;Node12</title>
<path fill="none" stroke="midnightblue" d="M1105.65,-136.765C1145.87,-123.886 1209.47,-103.521 1245.25,-92.0637"/>
<polygon fill="midnightblue" stroke="midnightblue" points="1104.41,-133.486 1095.96,-139.869 1106.55,-140.152 1104.41,-133.486"/>
</g>
<!-- Node25&#45;&gt;Node14 -->
<g id="edge29" class="edge"><title>Node25&#45;&gt;Node14</title>
<path fill="none" stroke="midnightblue" d="M1036.76,-136.306C966.836,-109.859 802.698,-47.7783 742.579,-25.0398"/>
<polygon fill="midnightblue" stroke="midnightblue" points="1035.78,-139.677 1046.37,-139.941 1038.25,-133.129 1035.78,-139.677"/>
</g>
<!-- Node25&#45;&gt;Node15 -->
<g id="edge30" class="edge"><title>Node25&#45;&gt;Node15</title>
<path fill="none" stroke="midnightblue" d="M1047.73,-134.173C1006.86,-106.651 918.517,-47.154 885.653,-25.0212"/>
<polygon fill="midnightblue" stroke="midnightblue" points="1045.89,-137.156 1056.14,-139.839 1049.8,-131.35 1045.89,-137.156"/>
</g>
<!-- Node25&#45;&gt;Node18 -->
<g id="edge33" class="edge"><title>Node25&#45;&gt;Node18</title>
<path fill="none" stroke="midnightblue" d="M1123.93,-145.434C1180.56,-140.67 1270.44,-128.575 1342,-98 1363.67,-88.7436 1362.91,-75.184 1385,-67 1561.93,-1.45772 1621.11,-56.9439 1808,-31 1819.43,-29.4135 1831.75,-27.2307 1843.04,-25.0401"/>
<polygon fill="midnightblue" stroke="midnightblue" points="1123.44,-141.962 1113.75,-146.242 1124,-148.94 1123.44,-141.962"/>
</g>
<!-- Node25&#45;&gt;Node20 -->
<g id="edge34" class="edge"><title>Node25&#45;&gt;Node20</title>
<path fill="none" stroke="midnightblue" d="M1062.15,-130.217C1056.81,-112.638 1052.1,-86.0048 1064,-67 1077.9,-44.7988 1104.65,-32.1094 1127.54,-25.0035"/>
<polygon fill="midnightblue" stroke="midnightblue" points="1058.89,-131.497 1065.42,-139.844 1065.52,-129.25 1058.89,-131.497"/>
</g>
<!-- Node25&#45;&gt;Node21 -->
<g id="edge35" class="edge"><title>Node25&#45;&gt;Node21</title>
<path fill="none" stroke="midnightblue" d="M1052.81,-132.279C1044.69,-123.049 1035.63,-110.798 1031,-98 1021.94,-72.9552 1024.03,-40.7415 1025.78,-25.395"/>
<polygon fill="midnightblue" stroke="midnightblue" points="1050.46,-134.898 1059.84,-139.835 1055.59,-130.13 1050.46,-134.898"/>
</g>
<!-- Node25&#45;&gt;Node22 -->
<g id="edge36" class="edge"><title>Node25&#45;&gt;Node22</title>
<path fill="none" stroke="midnightblue" d="M1123.67,-143.182C1186.03,-136.287 1290.66,-122.185 1378,-98 1413.95,-88.0445 1419.64,-75.3207 1456,-67 1674.05,-17.1072 1736.28,-60.5609 1958,-31 1969.42,-29.4775 1981.73,-27.2883 1992.97,-25.0708"/>
<polygon fill="midnightblue" stroke="midnightblue" points="1123.22,-139.71 1113.66,-144.267 1123.97,-146.669 1123.22,-139.71"/>
</g>
<!-- Node26 -->
<g id="node26" class="node"><title>Node26</title>
<g id="a_node26"><a xlink:href="erpc__inter__thread__buffer__transport_8h.html" target="_top" xlink:title="erpc_inter_thread_buffer\l_transport.h">
<polygon fill="white" stroke="black" points="1073,-67.5 1073,-97.5 1193,-97.5 1193,-67.5 1073,-67.5"/>
<text text-anchor="start" x="1081" y="-85.5" font-family="Helvetica,sans-Serif" font-size="10.00">erpc_inter_thread_buffer</text>
<text text-anchor="middle" x="1133" y="-74.5" font-family="Helvetica,sans-Serif" font-size="10.00">_transport.h</text>
</a>
</g>
</g>
<!-- Node25&#45;&gt;Node26 -->
<g id="edge31" class="edge"><title>Node25&#45;&gt;Node26</title>
<path fill="none" stroke="midnightblue" d="M1084.95,-132.304C1095.45,-121.635 1109.07,-107.802 1119.13,-97.589"/>
<polygon fill="midnightblue" stroke="midnightblue" points="1082.15,-130.152 1077.63,-139.734 1087.14,-135.064 1082.15,-130.152"/>
</g>
<!-- Node25&#45;&gt;Node27 -->
<g id="edge32" class="edge"><title>Node25&#45;&gt;Node27</title>
<path fill="none" stroke="midnightblue" d="M1123.61,-140.594C1210.46,-128.022 1378.97,-103.627 1464.87,-91.191"/>
<polygon fill="midnightblue" stroke="midnightblue" points="1123.09,-137.133 1113.69,-142.03 1124.09,-144.061 1123.09,-137.133"/>
</g>
<!-- Node30 -->
<g id="node30" class="node"><title>Node30</title>
<g id="a_node30"><a xlink:href="erpc__rpmsg__lite__rtos__transport_8h.html" target="_top" xlink:title="erpc_rpmsg_lite_rtos\l_transport.h">
<polygon fill="white" stroke="black" points="1627.5,-67.5 1627.5,-97.5 1734.5,-97.5 1734.5,-67.5 1627.5,-67.5"/>
<text text-anchor="start" x="1635.5" y="-85.5" font-family="Helvetica,sans-Serif" font-size="10.00">erpc_rpmsg_lite_rtos</text>
<text text-anchor="middle" x="1681" y="-74.5" font-family="Helvetica,sans-Serif" font-size="10.00">_transport.h</text>
</a>
</g>
</g>
<!-- Node29&#45;&gt;Node30 -->
<g id="edge44" class="edge"><title>Node29&#45;&gt;Node30</title>
<path fill="none" stroke="midnightblue" d="M1769.16,-129.714C1749.61,-119.463 1725.8,-106.983 1707.85,-97.5765"/>
<polygon fill="midnightblue" stroke="midnightblue" points="1767.61,-132.853 1778.09,-134.396 1770.86,-126.653 1767.61,-132.853"/>
</g>
<!-- Node29&#45;&gt;Node31 -->
<g id="edge45" class="edge"><title>Node29&#45;&gt;Node31</title>
<path fill="none" stroke="midnightblue" d="M1844.85,-130.131C1871.98,-117.62 1906.65,-101.64 1927.55,-92.007"/>
<polygon fill="midnightblue" stroke="midnightblue" points="1843.21,-127.031 1835.59,-134.396 1846.14,-133.388 1843.21,-127.031"/>
</g>
<!-- Node32 -->
<g id="node32" class="node"><title>Node32</title>
<g id="a_node32"><a xlink:href="erpc__rpmsg__tty__rtos__transport_8h.html" target="_top" xlink:title="erpc_rpmsg_tty_rtos\l_transport.h">
<polygon fill="white" stroke="black" points="1753,-67.5 1753,-97.5 1859,-97.5 1859,-67.5 1753,-67.5"/>
<text text-anchor="start" x="1761" y="-85.5" font-family="Helvetica,sans-Serif" font-size="10.00">erpc_rpmsg_tty_rtos</text>
<text text-anchor="middle" x="1806" y="-74.5" font-family="Helvetica,sans-Serif" font-size="10.00">_transport.h</text>
</a>
</g>
</g>
<!-- Node29&#45;&gt;Node32 -->
<g id="edge46" class="edge"><title>Node29&#45;&gt;Node32</title>
<path fill="none" stroke="midnightblue" d="M1805.38,-124.108C1805.51,-115.154 1805.66,-105.323 1805.78,-97.5765"/>
<polygon fill="midnightblue" stroke="midnightblue" points="1801.87,-124.343 1805.22,-134.396 1808.87,-124.451 1801.87,-124.343"/>
</g>
</g>
</svg>
