<?xml version="1.0" encoding="UTF-8" standalone="no"?>
<!DOCTYPE svg PUBLIC "-//W3C//DTD SVG 1.1//EN"
 "http://www.w3.org/Graphics/SVG/1.1/DTD/svg11.dtd">
<!-- Generated by graphviz version 2.38.0 (20140413.2041)
 -->
<!-- Title: erpc_tcp_transport.h Pages: 1 -->
<svg width="418pt" height="308pt"
 viewBox="0.00 0.00 417.68 308.00" xmlns="http://www.w3.org/2000/svg" xmlns:xlink="http://www.w3.org/1999/xlink">
<g id="graph0" class="graph" transform="scale(1 1) rotate(0) translate(4 304)">
<title>erpc_tcp_transport.h</title>
<polygon fill="white" stroke="none" points="-4,4 -4,-304 413.685,-304 413.685,4 -4,4"/>
<!-- Node1 -->
<g id="node1" class="node"><title>Node1</title>
<polygon fill="#bfbfbf" stroke="black" points="248,-280.5 248,-299.5 354,-299.5 354,-280.5 248,-280.5"/>
<text text-anchor="middle" x="301" y="-287.5" font-family="Helvetica,sans-Serif" font-size="10.00">erpc_tcp_transport.h</text>
</g>
<!-- Node2 -->
<g id="node2" class="node"><title>Node2</title>
<g id="a_node2"><a xlink:href="erpc__framed__transport_8h.html" target="_top" xlink:title="erpc_framed_transport.h">
<polygon fill="white" stroke="black" points="190,-224.5 190,-243.5 312,-243.5 312,-224.5 190,-224.5"/>
<text text-anchor="middle" x="251" y="-231.5" font-family="Helvetica,sans-Serif" font-size="10.00">erpc_framed_transport.h</text>
</a>
</g>
</g>
<!-- Node1&#45;&gt;Node2 -->
<g id="edge1" class="edge"><title>Node1&#45;&gt;Node2</title>
<path fill="none" stroke="midnightblue" d="M292.744,-280.083C285.535,-272.298 274.89,-260.801 266.154,-251.367"/>
<polygon fill="midnightblue" stroke="midnightblue" points="268.465,-248.711 259.103,-243.751 263.329,-253.467 268.465,-248.711"/>
</g>
<!-- Node12 -->
<g id="node12" class="node"><title>Node12</title>
<g id="a_node12"><a xlink:href="erpc__threading_8h.html" target="_top" xlink:title="erpc_threading.h">
<polygon fill="white" stroke="black" points="312.5,-168.5 312.5,-187.5 401.5,-187.5 401.5,-168.5 312.5,-168.5"/>
<text text-anchor="middle" x="357" y="-175.5" font-family="Helvetica,sans-Serif" font-size="10.00">erpc_threading.h</text>
</a>
</g>
</g>
<!-- Node1&#45;&gt;Node12 -->
<g id="edge19" class="edge"><title>Node1&#45;&gt;Node12</title>
<path fill="none" stroke="midnightblue" d="M305.394,-280.368C314.554,-262.376 335.847,-220.55 348.026,-196.627"/>
<polygon fill="midnightblue" stroke="midnightblue" points="351.208,-198.091 352.626,-187.591 344.97,-194.915 351.208,-198.091"/>
</g>
<!-- Node3 -->
<g id="node3" class="node"><title>Node3</title>
<g id="a_node3"><a xlink:href="erpc__config__internal_8h_source.html" target="_top" xlink:title="erpc_config_internal.h">
<polygon fill="white" stroke="black" points="287.5,-112.5 287.5,-131.5 398.5,-131.5 398.5,-112.5 287.5,-112.5"/>
<text text-anchor="middle" x="343" y="-119.5" font-family="Helvetica,sans-Serif" font-size="10.00">erpc_config_internal.h</text>
</a>
</g>
</g>
<!-- Node2&#45;&gt;Node3 -->
<g id="edge2" class="edge"><title>Node2&#45;&gt;Node3</title>
<path fill="none" stroke="midnightblue" d="M257.593,-224.473C267.334,-211.941 286.228,-187.884 303,-168 311.188,-158.292 320.614,-147.663 328.259,-139.173"/>
<polygon fill="midnightblue" stroke="midnightblue" points="331.08,-141.272 335.197,-131.51 325.891,-136.574 331.08,-141.272"/>
</g>
<!-- Node5 -->
<g id="node5" class="node"><title>Node5</title>
<g id="a_node5"><a xlink:href="erpc__message__buffer_8h.html" target="_top" xlink:title="erpc_message_buffer.h">
<polygon fill="white" stroke="black" points="11.5,-112.5 11.5,-131.5 128.5,-131.5 128.5,-112.5 11.5,-112.5"/>
<text text-anchor="middle" x="70" y="-119.5" font-family="Helvetica,sans-Serif" font-size="10.00">erpc_message_buffer.h</text>
</a>
</g>
</g>
<!-- Node2&#45;&gt;Node5 -->
<g id="edge4" class="edge"><title>Node2&#45;&gt;Node5</title>
<path fill="none" stroke="midnightblue" d="M207.114,-224.436C180.431,-217.694 146.67,-206.302 121,-188 103.54,-175.551 89.0795,-155.475 80.07,-140.925"/>
<polygon fill="midnightblue" stroke="midnightblue" points="82.8351,-138.725 74.7337,-131.897 76.809,-142.286 82.8351,-138.725"/>
</g>
<!-- Node9 -->
<g id="node9" class="node"><title>Node9</title>
<g id="a_node9"><a xlink:href="erpc__transport_8h.html" target="_top" xlink:title="erpc_transport.h">
<polygon fill="white" stroke="black" points="130.5,-168.5 130.5,-187.5 217.5,-187.5 217.5,-168.5 130.5,-168.5"/>
<text text-anchor="middle" x="174" y="-175.5" font-family="Helvetica,sans-Serif" font-size="10.00">erpc_transport.h</text>
</a>
</g>
</g>
<!-- Node2&#45;&gt;Node9 -->
<g id="edge9" class="edge"><title>Node2&#45;&gt;Node9</title>
<path fill="none" stroke="midnightblue" d="M238.629,-224.324C226.842,-216.058 208.868,-203.453 194.864,-193.632"/>
<polygon fill="midnightblue" stroke="midnightblue" points="196.538,-190.531 186.341,-187.655 192.518,-196.262 196.538,-190.531"/>
</g>
<!-- Node11 -->
<g id="node11" class="node"><title>Node11</title>
<polygon fill="white" stroke="#bfbfbf" points="223,-112.5 223,-131.5 269,-131.5 269,-112.5 223,-112.5"/>
<text text-anchor="middle" x="246" y="-119.5" font-family="Helvetica,sans-Serif" font-size="10.00">cstring</text>
</g>
<!-- Node2&#45;&gt;Node11 -->
<g id="edge15" class="edge"><title>Node2&#45;&gt;Node11</title>
<path fill="none" stroke="midnightblue" d="M250.608,-224.368C249.801,-206.617 247.939,-165.666 246.845,-141.597"/>
<polygon fill="midnightblue" stroke="midnightblue" points="250.341,-141.422 246.391,-131.591 243.348,-141.74 250.341,-141.422"/>
</g>
<!-- Node2&#45;&gt;Node12 -->
<g id="edge16" class="edge"><title>Node2&#45;&gt;Node12</title>
<path fill="none" stroke="midnightblue" d="M268.031,-224.324C285.03,-215.664 311.376,-202.242 330.993,-192.249"/>
<polygon fill="midnightblue" stroke="midnightblue" points="332.69,-195.312 340.012,-187.655 329.512,-189.075 332.69,-195.312"/>
</g>
<!-- Node4 -->
<g id="node4" class="node"><title>Node4</title>
<g id="a_node4"><a xlink:href="erpc__config_8h.html" target="_top" xlink:title="erpc_config.h">
<polygon fill="white" stroke="black" points="306,-56.5 306,-75.5 380,-75.5 380,-56.5 306,-56.5"/>
<text text-anchor="middle" x="343" y="-63.5" font-family="Helvetica,sans-Serif" font-size="10.00">erpc_config.h</text>
</a>
</g>
</g>
<!-- Node3&#45;&gt;Node4 -->
<g id="edge3" class="edge"><title>Node3&#45;&gt;Node4</title>
<path fill="none" stroke="midnightblue" d="M343,-112.083C343,-105.006 343,-94.8611 343,-85.9865"/>
<polygon fill="midnightblue" stroke="midnightblue" points="346.5,-85.751 343,-75.7511 339.5,-85.7511 346.5,-85.751"/>
</g>
<!-- Node6 -->
<g id="node6" class="node"><title>Node6</title>
<g id="a_node6"><a xlink:href="erpc__common_8h_source.html" target="_top" xlink:title="erpc_common.h">
<polygon fill="white" stroke="black" points="104,-56.5 104,-75.5 190,-75.5 190,-56.5 104,-56.5"/>
<text text-anchor="middle" x="147" y="-63.5" font-family="Helvetica,sans-Serif" font-size="10.00">erpc_common.h</text>
</a>
</g>
</g>
<!-- Node5&#45;&gt;Node6 -->
<g id="edge5" class="edge"><title>Node5&#45;&gt;Node6</title>
<path fill="none" stroke="midnightblue" d="M82.3714,-112.324C94.1585,-104.058 112.132,-91.4527 126.136,-81.6322"/>
<polygon fill="midnightblue" stroke="midnightblue" points="128.482,-84.2619 134.659,-75.6545 124.462,-78.5307 128.482,-84.2619"/>
</g>
<!-- Node7 -->
<g id="node7" class="node"><title>Node7</title>
<polygon fill="white" stroke="#bfbfbf" points="171.5,-0.5 171.5,-19.5 220.5,-19.5 220.5,-0.5 171.5,-0.5"/>
<text text-anchor="middle" x="196" y="-7.5" font-family="Helvetica,sans-Serif" font-size="10.00">stdint.h</text>
</g>
<!-- Node5&#45;&gt;Node7 -->
<g id="edge8" class="edge"><title>Node5&#45;&gt;Node7</title>
<path fill="none" stroke="midnightblue" d="M71.1855,-112.296C73.4693,-98.6546 79.6832,-72.1342 95,-56 112.799,-37.251 139.822,-25.7749 161.439,-19.1084"/>
<polygon fill="midnightblue" stroke="midnightblue" points="162.598,-22.4169 171.244,-16.2931 160.667,-15.6887 162.598,-22.4169"/>
</g>
<!-- Node8 -->
<g id="node8" class="node"><title>Node8</title>
<polygon fill="white" stroke="#bfbfbf" points="0,-56.5 0,-75.5 48,-75.5 48,-56.5 0,-56.5"/>
<text text-anchor="middle" x="24" y="-63.5" font-family="Helvetica,sans-Serif" font-size="10.00">cstddef</text>
</g>
<!-- Node5&#45;&gt;Node8 -->
<g id="edge7" class="edge"><title>Node5&#45;&gt;Node8</title>
<path fill="none" stroke="midnightblue" d="M62.404,-112.083C55.7725,-104.298 45.979,-92.8015 37.9419,-83.3665"/>
<polygon fill="midnightblue" stroke="midnightblue" points="40.6037,-81.0939 31.4546,-75.7511 35.275,-85.6332 40.6037,-81.0939"/>
</g>
<!-- Node6&#45;&gt;Node7 -->
<g id="edge6" class="edge"><title>Node6&#45;&gt;Node7</title>
<path fill="none" stroke="midnightblue" d="M155.091,-56.083C162.155,-48.2982 172.588,-36.8015 181.149,-27.3665"/>
<polygon fill="midnightblue" stroke="midnightblue" points="183.931,-29.5087 188.059,-19.7511 178.747,-24.8047 183.931,-29.5087"/>
</g>
<!-- Node9&#45;&gt;Node5 -->
<g id="edge13" class="edge"><title>Node9&#45;&gt;Node5</title>
<path fill="none" stroke="midnightblue" d="M157.291,-168.324C140.688,-159.703 114.998,-146.364 95.7795,-136.386"/>
<polygon fill="midnightblue" stroke="midnightblue" points="97.1558,-133.156 86.6679,-131.655 93.93,-139.369 97.1558,-133.156"/>
</g>
<!-- Node9&#45;&gt;Node6 -->
<g id="edge10" class="edge"><title>Node9&#45;&gt;Node6</title>
<path fill="none" stroke="midnightblue" d="M171.881,-168.368C167.524,-150.617 157.473,-109.666 151.565,-85.5974"/>
<polygon fill="midnightblue" stroke="midnightblue" points="154.892,-84.4688 149.109,-75.5914 148.094,-86.1375 154.892,-84.4688"/>
</g>
<!-- Node10 -->
<g id="node10" class="node"><title>Node10</title>
<g id="a_node10"><a xlink:href="erpc__crc16_8h.html" target="_top" xlink:title="erpc_crc16.h">
<polygon fill="white" stroke="black" points="208.5,-56.5 208.5,-75.5 281.5,-75.5 281.5,-56.5 208.5,-56.5"/>
<text text-anchor="middle" x="245" y="-63.5" font-family="Helvetica,sans-Serif" font-size="10.00">erpc_crc16.h</text>
</a>
</g>
</g>
<!-- Node9&#45;&gt;Node10 -->
<g id="edge11" class="edge"><title>Node9&#45;&gt;Node10</title>
<path fill="none" stroke="midnightblue" d="M179.041,-168.499C186.494,-156 200.98,-131.983 214,-112 220.161,-102.544 227.291,-92.1579 233.158,-83.7489"/>
<polygon fill="midnightblue" stroke="midnightblue" points="236.042,-85.7328 238.924,-75.5376 230.313,-81.7102 236.042,-85.7328"/>
</g>
<!-- Node9&#45;&gt;Node11 -->
<g id="edge14" class="edge"><title>Node9&#45;&gt;Node11</title>
<path fill="none" stroke="midnightblue" d="M185.568,-168.324C196.42,-160.185 212.881,-147.839 225.883,-138.087"/>
<polygon fill="midnightblue" stroke="midnightblue" points="228.321,-140.634 234.221,-131.834 224.121,-135.034 228.321,-140.634"/>
</g>
<!-- Node10&#45;&gt;Node7 -->
<g id="edge12" class="edge"><title>Node10&#45;&gt;Node7</title>
<path fill="none" stroke="midnightblue" d="M236.909,-56.083C229.845,-48.2982 219.412,-36.8015 210.851,-27.3665"/>
<polygon fill="midnightblue" stroke="midnightblue" points="213.253,-24.8047 203.941,-19.7511 208.069,-29.5087 213.253,-24.8047"/>
</g>
<!-- Node12&#45;&gt;Node3 -->
<g id="edge17" class="edge"><title>Node12&#45;&gt;Node3</title>
<path fill="none" stroke="midnightblue" d="M354.688,-168.083C352.833,-160.927 350.165,-150.635 347.846,-141.691"/>
<polygon fill="midnightblue" stroke="midnightblue" points="351.166,-140.553 345.269,-131.751 344.391,-142.309 351.166,-140.553"/>
</g>
<!-- Node12&#45;&gt;Node7 -->
<g id="edge18" class="edge"><title>Node12&#45;&gt;Node7</title>
<path fill="none" stroke="midnightblue" d="M371.952,-168.474C383.932,-160.702 399.873,-148.002 407,-132 417.394,-108.661 392.85,-59.5471 389,-56 366.192,-34.9877 279.801,-21.2539 230.686,-14.9674"/>
<polygon fill="midnightblue" stroke="midnightblue" points="230.872,-11.4637 220.516,-13.704 230.008,-18.4103 230.872,-11.4637"/>
</g>
</g>
</svg>
