<?xml version="1.0" encoding="UTF-8" standalone="no"?>
<!DOCTYPE svg PUBLIC "-//W3C//DTD SVG 1.1//EN"
 "http://www.w3.org/Graphics/SVG/1.1/DTD/svg11.dtd">
<!-- Generated by graphviz version 2.38.0 (20140413.2041)
 -->
<!-- Title: erpc_spidev_master_transport.h Pages: 1 -->
<svg width="502pt" height="319pt"
 viewBox="0.00 0.00 502.22 319.00" xmlns="http://www.w3.org/2000/svg" xmlns:xlink="http://www.w3.org/1999/xlink">
<g id="graph0" class="graph" transform="scale(1 1) rotate(0) translate(4 315)">
<title>erpc_spidev_master_transport.h</title>
<polygon fill="white" stroke="none" points="-4,4 -4,-315 498.224,-315 498.224,4 -4,4"/>
<!-- Node1 -->
<g id="node1" class="node"><title>Node1</title>
<polygon fill="#bfbfbf" stroke="black" points="189.724,-280.5 189.724,-310.5 292.724,-310.5 292.724,-280.5 189.724,-280.5"/>
<text text-anchor="start" x="197.724" y="-298.5" font-family="Helvetica,sans-Serif" font-size="10.00">erpc_spidev_master</text>
<text text-anchor="middle" x="241.224" y="-287.5" font-family="Helvetica,sans-Serif" font-size="10.00">_transport.h</text>
</g>
<!-- Node2 -->
<g id="node2" class="node"><title>Node2</title>
<g id="a_node2"><a xlink:href="erpc__framed__transport_8h.html" target="_top" xlink:title="erpc_framed_transport.h">
<polygon fill="white" stroke="black" points="180.224,-224.5 180.224,-243.5 302.224,-243.5 302.224,-224.5 180.224,-224.5"/>
<text text-anchor="middle" x="241.224" y="-231.5" font-family="Helvetica,sans-Serif" font-size="10.00">erpc_framed_transport.h</text>
</a>
</g>
</g>
<!-- Node1&#45;&gt;Node2 -->
<g id="edge1" class="edge"><title>Node1&#45;&gt;Node2</title>
<path fill="none" stroke="midnightblue" d="M241.224,-280.399C241.224,-272.466 241.224,-262.458 241.224,-253.858"/>
<polygon fill="midnightblue" stroke="midnightblue" points="244.724,-253.658 241.224,-243.658 237.724,-253.658 244.724,-253.658"/>
</g>
<!-- Node3 -->
<g id="node3" class="node"><title>Node3</title>
<g id="a_node3"><a xlink:href="erpc__config__internal_8h_source.html" target="_top" xlink:title="erpc_config_internal.h">
<polygon fill="white" stroke="black" points="53.724,-112.5 53.724,-131.5 164.724,-131.5 164.724,-112.5 53.724,-112.5"/>
<text text-anchor="middle" x="109.224" y="-119.5" font-family="Helvetica,sans-Serif" font-size="10.00">erpc_config_internal.h</text>
</a>
</g>
</g>
<!-- Node2&#45;&gt;Node3 -->
<g id="edge2" class="edge"><title>Node2&#45;&gt;Node3</title>
<path fill="none" stroke="midnightblue" d="M230.866,-224.368C208.504,-205.733 155.463,-161.532 127.385,-138.134"/>
<polygon fill="midnightblue" stroke="midnightblue" points="129.457,-135.305 119.534,-131.591 124.975,-140.682 129.457,-135.305"/>
</g>
<!-- Node6 -->
<g id="node6" class="node"><title>Node6</title>
<g id="a_node6"><a xlink:href="erpc__message__buffer_8h.html" target="_top" xlink:title="erpc_message_buffer.h">
<polygon fill="white" stroke="black" points="182.724,-112.5 182.724,-131.5 299.724,-131.5 299.724,-112.5 182.724,-112.5"/>
<text text-anchor="middle" x="241.224" y="-119.5" font-family="Helvetica,sans-Serif" font-size="10.00">erpc_message_buffer.h</text>
</a>
</g>
</g>
<!-- Node2&#45;&gt;Node6 -->
<g id="edge5" class="edge"><title>Node2&#45;&gt;Node6</title>
<path fill="none" stroke="midnightblue" d="M241.224,-224.368C241.224,-206.617 241.224,-165.666 241.224,-141.597"/>
<polygon fill="midnightblue" stroke="midnightblue" points="244.724,-141.591 241.224,-131.591 237.724,-141.591 244.724,-141.591"/>
</g>
<!-- Node10 -->
<g id="node10" class="node"><title>Node10</title>
<g id="a_node10"><a xlink:href="erpc__transport_8h.html" target="_top" xlink:title="erpc_transport.h">
<polygon fill="white" stroke="black" points="284.724,-168.5 284.724,-187.5 371.724,-187.5 371.724,-168.5 284.724,-168.5"/>
<text text-anchor="middle" x="328.224" y="-175.5" font-family="Helvetica,sans-Serif" font-size="10.00">erpc_transport.h</text>
</a>
</g>
</g>
<!-- Node2&#45;&gt;Node10 -->
<g id="edge10" class="edge"><title>Node2&#45;&gt;Node10</title>
<path fill="none" stroke="midnightblue" d="M255.202,-224.324C268.774,-215.9 289.604,-202.971 305.549,-193.074"/>
<polygon fill="midnightblue" stroke="midnightblue" points="307.63,-195.902 314.281,-187.655 303.938,-189.954 307.63,-195.902"/>
</g>
<!-- Node12 -->
<g id="node12" class="node"><title>Node12</title>
<polygon fill="white" stroke="#bfbfbf" points="448.224,-112.5 448.224,-131.5 494.224,-131.5 494.224,-112.5 448.224,-112.5"/>
<text text-anchor="middle" x="471.224" y="-119.5" font-family="Helvetica,sans-Serif" font-size="10.00">cstring</text>
</g>
<!-- Node2&#45;&gt;Node12 -->
<g id="edge16" class="edge"><title>Node2&#45;&gt;Node12</title>
<path fill="none" stroke="midnightblue" d="M277.841,-224.444C306.591,-216.955 347.151,-204.662 380.224,-188 407.641,-174.188 435.907,-152.639 453.513,-138.182"/>
<polygon fill="midnightblue" stroke="midnightblue" points="455.819,-140.816 461.249,-131.719 451.331,-135.444 455.819,-140.816"/>
</g>
<!-- Node13 -->
<g id="node13" class="node"><title>Node13</title>
<g id="a_node13"><a xlink:href="erpc__threading_8h.html" target="_top" xlink:title="erpc_threading.h">
<polygon fill="white" stroke="black" points="64.724,-168.5 64.724,-187.5 153.724,-187.5 153.724,-168.5 64.724,-168.5"/>
<text text-anchor="middle" x="109.224" y="-175.5" font-family="Helvetica,sans-Serif" font-size="10.00">erpc_threading.h</text>
</a>
</g>
</g>
<!-- Node2&#45;&gt;Node13 -->
<g id="edge17" class="edge"><title>Node2&#45;&gt;Node13</title>
<path fill="none" stroke="midnightblue" d="M220.308,-224.444C198.488,-215.517 164.074,-201.439 139.332,-191.317"/>
<polygon fill="midnightblue" stroke="midnightblue" points="140.623,-188.063 130.042,-187.516 137.972,-194.542 140.623,-188.063"/>
</g>
<!-- Node4 -->
<g id="node4" class="node"><title>Node4</title>
<g id="a_node4"><a xlink:href="erpc__config_8h.html" target="_top" xlink:title="erpc_config.h">
<polygon fill="white" stroke="black" points="86.224,-56.5 86.224,-75.5 160.224,-75.5 160.224,-56.5 86.224,-56.5"/>
<text text-anchor="middle" x="123.224" y="-63.5" font-family="Helvetica,sans-Serif" font-size="10.00">erpc_config.h</text>
</a>
</g>
</g>
<!-- Node3&#45;&gt;Node4 -->
<g id="edge3" class="edge"><title>Node3&#45;&gt;Node4</title>
<path fill="none" stroke="midnightblue" d="M111.536,-112.083C113.391,-104.927 116.059,-94.6353 118.378,-85.6911"/>
<polygon fill="midnightblue" stroke="midnightblue" points="121.833,-86.3094 120.955,-75.7511 115.057,-84.5527 121.833,-86.3094"/>
</g>
<!-- Node5 -->
<g id="node5" class="node"><title>Node5</title>
<polygon fill="white" stroke="#bfbfbf" points="18.724,-56.5 18.724,-75.5 67.724,-75.5 67.724,-56.5 18.724,-56.5"/>
<text text-anchor="middle" x="43.224" y="-63.5" font-family="Helvetica,sans-Serif" font-size="10.00">cassert</text>
</g>
<!-- Node3&#45;&gt;Node5 -->
<g id="edge4" class="edge"><title>Node3&#45;&gt;Node5</title>
<path fill="none" stroke="midnightblue" d="M98.6199,-112.324C88.7678,-104.263 73.873,-92.0765 62.0089,-82.3695"/>
<polygon fill="midnightblue" stroke="midnightblue" points="63.9769,-79.4575 54.021,-75.8339 59.5442,-84.8752 63.9769,-79.4575"/>
</g>
<!-- Node7 -->
<g id="node7" class="node"><title>Node7</title>
<g id="a_node7"><a xlink:href="erpc__common_8h_source.html" target="_top" xlink:title="erpc_common.h">
<polygon fill="white" stroke="black" points="282.224,-56.5 282.224,-75.5 368.224,-75.5 368.224,-56.5 282.224,-56.5"/>
<text text-anchor="middle" x="325.224" y="-63.5" font-family="Helvetica,sans-Serif" font-size="10.00">erpc_common.h</text>
</a>
</g>
</g>
<!-- Node6&#45;&gt;Node7 -->
<g id="edge6" class="edge"><title>Node6&#45;&gt;Node7</title>
<path fill="none" stroke="midnightblue" d="M254.72,-112.324C267.824,-103.9 287.936,-90.9709 303.331,-81.0741"/>
<polygon fill="midnightblue" stroke="midnightblue" points="305.242,-84.0063 311.761,-75.6545 301.457,-78.118 305.242,-84.0063"/>
</g>
<!-- Node8 -->
<g id="node8" class="node"><title>Node8</title>
<polygon fill="white" stroke="#bfbfbf" points="264.724,-0.5 264.724,-19.5 313.724,-19.5 313.724,-0.5 264.724,-0.5"/>
<text text-anchor="middle" x="289.224" y="-7.5" font-family="Helvetica,sans-Serif" font-size="10.00">stdint.h</text>
</g>
<!-- Node6&#45;&gt;Node8 -->
<g id="edge9" class="edge"><title>Node6&#45;&gt;Node8</title>
<path fill="none" stroke="midnightblue" d="M244.99,-112.368C252.807,-94.4563 270.93,-52.9233 281.392,-28.9482"/>
<polygon fill="midnightblue" stroke="midnightblue" points="284.683,-30.1566 285.475,-19.5914 278.268,-27.357 284.683,-30.1566"/>
</g>
<!-- Node9 -->
<g id="node9" class="node"><title>Node9</title>
<polygon fill="white" stroke="#bfbfbf" points="178.224,-56.5 178.224,-75.5 226.224,-75.5 226.224,-56.5 178.224,-56.5"/>
<text text-anchor="middle" x="202.224" y="-63.5" font-family="Helvetica,sans-Serif" font-size="10.00">cstddef</text>
</g>
<!-- Node6&#45;&gt;Node9 -->
<g id="edge8" class="edge"><title>Node6&#45;&gt;Node9</title>
<path fill="none" stroke="midnightblue" d="M234.784,-112.083C229.275,-104.455 221.193,-93.2645 214.459,-83.9408"/>
<polygon fill="midnightblue" stroke="midnightblue" points="217.237,-81.8087 208.544,-75.7511 211.562,-85.9071 217.237,-81.8087"/>
</g>
<!-- Node7&#45;&gt;Node8 -->
<g id="edge7" class="edge"><title>Node7&#45;&gt;Node8</title>
<path fill="none" stroke="midnightblue" d="M319.279,-56.083C314.247,-48.5341 306.887,-37.4948 300.71,-28.2298"/>
<polygon fill="midnightblue" stroke="midnightblue" points="303.517,-26.1301 295.058,-19.7511 297.693,-30.0131 303.517,-26.1301"/>
</g>
<!-- Node10&#45;&gt;Node6 -->
<g id="edge14" class="edge"><title>Node10&#45;&gt;Node6</title>
<path fill="none" stroke="midnightblue" d="M314.246,-168.324C300.674,-159.9 279.844,-146.971 263.899,-137.074"/>
<polygon fill="midnightblue" stroke="midnightblue" points="265.51,-133.954 255.167,-131.655 261.818,-139.902 265.51,-133.954"/>
</g>
<!-- Node10&#45;&gt;Node7 -->
<g id="edge11" class="edge"><title>Node10&#45;&gt;Node7</title>
<path fill="none" stroke="midnightblue" d="M327.989,-168.368C327.504,-150.617 326.388,-109.666 325.731,-85.5974"/>
<polygon fill="midnightblue" stroke="midnightblue" points="329.23,-85.4922 325.458,-75.5914 322.232,-85.6832 329.23,-85.4922"/>
</g>
<!-- Node11 -->
<g id="node11" class="node"><title>Node11</title>
<g id="a_node11"><a xlink:href="erpc__crc16_8h.html" target="_top" xlink:title="erpc_crc16.h">
<polygon fill="white" stroke="black" points="356.724,-112.5 356.724,-131.5 429.724,-131.5 429.724,-112.5 356.724,-112.5"/>
<text text-anchor="middle" x="393.224" y="-119.5" font-family="Helvetica,sans-Serif" font-size="10.00">erpc_crc16.h</text>
</a>
</g>
</g>
<!-- Node10&#45;&gt;Node11 -->
<g id="edge12" class="edge"><title>Node10&#45;&gt;Node11</title>
<path fill="none" stroke="midnightblue" d="M338.667,-168.324C348.37,-160.263 363.039,-148.077 374.724,-138.369"/>
<polygon fill="midnightblue" stroke="midnightblue" points="377.135,-140.916 382.591,-131.834 372.662,-135.532 377.135,-140.916"/>
</g>
<!-- Node10&#45;&gt;Node12 -->
<g id="edge15" class="edge"><title>Node10&#45;&gt;Node12</title>
<path fill="none" stroke="midnightblue" d="M350.883,-168.444C374.626,-159.478 412.133,-145.314 438.962,-135.183"/>
<polygon fill="midnightblue" stroke="midnightblue" points="440.552,-138.324 448.671,-131.516 438.08,-131.775 440.552,-138.324"/>
</g>
<!-- Node11&#45;&gt;Node8 -->
<g id="edge13" class="edge"><title>Node11&#45;&gt;Node8</title>
<path fill="none" stroke="midnightblue" d="M393.289,-112.446C392.956,-99.0092 390.498,-72.7646 377.224,-56 363.68,-38.8949 341.882,-27.6803 323.369,-20.7245"/>
<polygon fill="midnightblue" stroke="midnightblue" points="324.369,-17.3662 313.774,-17.3773 322.063,-23.9756 324.369,-17.3662"/>
</g>
<!-- Node13&#45;&gt;Node3 -->
<g id="edge18" class="edge"><title>Node13&#45;&gt;Node3</title>
<path fill="none" stroke="midnightblue" d="M109.224,-168.083C109.224,-161.006 109.224,-150.861 109.224,-141.986"/>
<polygon fill="midnightblue" stroke="midnightblue" points="112.724,-141.751 109.224,-131.751 105.724,-141.751 112.724,-141.751"/>
</g>
<!-- Node13&#45;&gt;Node8 -->
<g id="edge19" class="edge"><title>Node13&#45;&gt;Node8</title>
<path fill="none" stroke="midnightblue" d="M92.4403,-168.418C55.6051,-148.508 -26.3039,-97.6936 9.22397,-56 40.3689,-19.45 186.619,-12.4731 254.477,-11.2225"/>
<polygon fill="midnightblue" stroke="midnightblue" points="254.72,-14.7193 264.666,-11.0673 254.613,-7.72013 254.72,-14.7193"/>
</g>
</g>
</svg>
