<?xml version="1.0" encoding="UTF-8" standalone="no"?>
<!DOCTYPE svg PUBLIC "-//W3C//DTD SVG 1.1//EN"
 "http://www.w3.org/Graphics/SVG/1.1/DTD/svg11.dtd">
<!-- Generated by graphviz version 2.38.0 (20140413.2041)
 -->
<!-- Title: erpc_message_buffer.hpp Pages: 1 -->
<svg width="2811pt" height="341pt"
 viewBox="0.00 0.00 2810.50 341.00" xmlns="http://www.w3.org/2000/svg" xmlns:xlink="http://www.w3.org/1999/xlink">
<g id="graph0" class="graph" transform="scale(1 1) rotate(0) translate(4 337)">
<title>erpc_message_buffer.hpp</title>
<polygon fill="white" stroke="none" points="-4,4 -4,-337 2806.5,-337 2806.5,4 -4,4"/>
<!-- Node1 -->
<g id="node1" class="node"><title>Node1</title>
<polygon fill="#bfbfbf" stroke="black" points="1883.5,-313.5 1883.5,-332.5 2011.5,-332.5 2011.5,-313.5 1883.5,-313.5"/>
<text text-anchor="middle" x="1947.5" y="-320.5" font-family="Helvetica,sans-Serif" font-size="10.00">erpc_message_buffer.hpp</text>
</g>
<!-- Node2 -->
<g id="node2" class="node"><title>Node2</title>
<g id="a_node2"><a xlink:href="erpc__codec_8hpp.html" target="_top" xlink:title="erpc_codec.hpp">
<polygon fill="white" stroke="black" points="457.5,-196 457.5,-215 543.5,-215 543.5,-196 457.5,-196"/>
<text text-anchor="middle" x="500.5" y="-203" font-family="Helvetica,sans-Serif" font-size="10.00">erpc_codec.hpp</text>
</a>
</g>
</g>
<!-- Node1&#45;&gt;Node2 -->
<g id="edge1" class="edge"><title>Node1&#45;&gt;Node2</title>
<path fill="none" stroke="midnightblue" d="M1872.93,-320.29C1718.1,-316.3 1350.64,-304.539 1043.5,-277 856.739,-260.254 635.41,-227.459 543.66,-213.289"/>
<polygon fill="midnightblue" stroke="midnightblue" points="1873.17,-323.798 1883.26,-320.553 1873.35,-316.8 1873.17,-323.798"/>
</g>
<!-- Node12 -->
<g id="node12" class="node"><title>Node12</title>
<g id="a_node12"><a xlink:href="erpc__transport_8hpp.html" target="_top" xlink:title="erpc_transport.hpp">
<polygon fill="white" stroke="black" points="1983.5,-257.5 1983.5,-276.5 2081.5,-276.5 2081.5,-257.5 1983.5,-257.5"/>
<text text-anchor="middle" x="2032.5" y="-264.5" font-family="Helvetica,sans-Serif" font-size="10.00">erpc_transport.hpp</text>
</a>
</g>
</g>
<!-- Node1&#45;&gt;Node12 -->
<g id="edge12" class="edge"><title>Node1&#45;&gt;Node12</title>
<path fill="none" stroke="midnightblue" d="M1969.69,-307.901C1985.28,-297.999 2005.63,-285.071 2018.88,-276.655"/>
<polygon fill="midnightblue" stroke="midnightblue" points="1967.72,-305.007 1961.16,-313.324 1971.47,-310.916 1967.72,-305.007"/>
</g>
<!-- Node13 -->
<g id="node13" class="node"><title>Node13</title>
<g id="a_node13"><a xlink:href="erpc__framed__transport_8hpp.html" target="_top" xlink:title="erpc_framed_transport.hpp">
<polygon fill="white" stroke="black" points="1560.5,-196 1560.5,-215 1692.5,-215 1692.5,-196 1560.5,-196"/>
<text text-anchor="middle" x="1626.5" y="-203" font-family="Helvetica,sans-Serif" font-size="10.00">erpc_framed_transport.hpp</text>
</a>
</g>
</g>
<!-- Node1&#45;&gt;Node13 -->
<g id="edge37" class="edge"><title>Node1&#45;&gt;Node13</title>
<path fill="none" stroke="midnightblue" d="M1913.87,-309.901C1848.8,-286.487 1707.09,-235.497 1650.52,-215.143"/>
<polygon fill="midnightblue" stroke="midnightblue" points="1913.04,-313.321 1923.64,-313.413 1915.41,-306.734 1913.04,-313.321"/>
</g>
<!-- Node19 -->
<g id="node19" class="node"><title>Node19</title>
<g id="a_node19"><a xlink:href="erpc__rpmsg__tty__rtos__transport_8hpp.html" target="_top" xlink:title="erpc_rpmsg_tty_rtos\l_transport.hpp">
<polygon fill="white" stroke="black" points="528.5,-123.5 528.5,-153.5 634.5,-153.5 634.5,-123.5 528.5,-123.5"/>
<text text-anchor="start" x="536.5" y="-141.5" font-family="Helvetica,sans-Serif" font-size="10.00">erpc_rpmsg_tty_rtos</text>
<text text-anchor="middle" x="581.5" y="-130.5" font-family="Helvetica,sans-Serif" font-size="10.00">_transport.hpp</text>
</a>
</g>
</g>
<!-- Node1&#45;&gt;Node19 -->
<g id="edge42" class="edge"><title>Node1&#45;&gt;Node19</title>
<path fill="none" stroke="midnightblue" d="M1873.29,-315.107C1673.54,-295.981 1108.24,-238.057 643.5,-154 640.563,-153.469 637.556,-152.888 634.526,-152.275"/>
<polygon fill="midnightblue" stroke="midnightblue" points="1873.09,-318.604 1883.37,-316.07 1873.75,-311.636 1873.09,-318.604"/>
</g>
<!-- Node29 -->
<g id="node29" class="node"><title>Node29</title>
<g id="a_node29"><a xlink:href="erpc__inter__thread__buffer__transport_8hpp.html" target="_top" xlink:title="erpc_inter_thread_buffer\l_transport.hpp">
<polygon fill="white" stroke="black" points="1710.5,-190.5 1710.5,-220.5 1830.5,-220.5 1830.5,-190.5 1710.5,-190.5"/>
<text text-anchor="start" x="1718.5" y="-208.5" font-family="Helvetica,sans-Serif" font-size="10.00">erpc_inter_thread_buffer</text>
<text text-anchor="middle" x="1770.5" y="-197.5" font-family="Helvetica,sans-Serif" font-size="10.00">_transport.hpp</text>
</a>
</g>
</g>
<!-- Node1&#45;&gt;Node29 -->
<g id="edge38" class="edge"><title>Node1&#45;&gt;Node29</title>
<path fill="none" stroke="midnightblue" d="M1925.43,-307.599C1891.24,-285.287 1825.88,-242.639 1792.02,-220.545"/>
<polygon fill="midnightblue" stroke="midnightblue" points="1923.91,-310.785 1934.2,-313.319 1927.73,-304.923 1923.91,-310.785"/>
</g>
<!-- Node31 -->
<g id="node31" class="node"><title>Node31</title>
<g id="a_node31"><a xlink:href="erpc__mu__transport_8hpp.html" target="_top" xlink:title="erpc_mu_transport.hpp">
<polygon fill="white" stroke="black" points="2394.5,-196 2394.5,-215 2510.5,-215 2510.5,-196 2394.5,-196"/>
<text text-anchor="middle" x="2452.5" y="-203" font-family="Helvetica,sans-Serif" font-size="10.00">erpc_mu_transport.hpp</text>
</a>
</g>
</g>
<!-- Node1&#45;&gt;Node31 -->
<g id="edge39" class="edge"><title>Node1&#45;&gt;Node31</title>
<path fill="none" stroke="midnightblue" d="M1994.85,-311.17C2094.61,-288.353 2324.65,-235.74 2415.05,-215.065"/>
<polygon fill="midnightblue" stroke="midnightblue" points="1994.01,-307.772 1985.04,-313.413 1995.57,-314.595 1994.01,-307.772"/>
</g>
<!-- Node33 -->
<g id="node33" class="node"><title>Node33</title>
<g id="a_node33"><a xlink:href="erpc__rpmsg__lite__rtos__transport_8hpp.html" target="_top" xlink:title="erpc_rpmsg_lite_rtos\l_transport.hpp">
<polygon fill="white" stroke="black" points="2529,-190.5 2529,-220.5 2636,-220.5 2636,-190.5 2529,-190.5"/>
<text text-anchor="start" x="2537" y="-208.5" font-family="Helvetica,sans-Serif" font-size="10.00">erpc_rpmsg_lite_rtos</text>
<text text-anchor="middle" x="2582.5" y="-197.5" font-family="Helvetica,sans-Serif" font-size="10.00">_transport.hpp</text>
</a>
</g>
</g>
<!-- Node1&#45;&gt;Node33 -->
<g id="edge40" class="edge"><title>Node1&#45;&gt;Node33</title>
<path fill="none" stroke="midnightblue" d="M2011.19,-311.901C2117.05,-294.86 2335.73,-258.563 2519.5,-221 2522.58,-220.371 2525.74,-219.706 2528.92,-219.02"/>
<polygon fill="midnightblue" stroke="midnightblue" points="2010.63,-308.447 2001.31,-313.489 2011.74,-315.358 2010.63,-308.447"/>
</g>
<!-- Node34 -->
<g id="node34" class="node"><title>Node34</title>
<g id="a_node34"><a xlink:href="erpc__rpmsg__lite__transport_8hpp.html" target="_top" xlink:title="erpc_rpmsg_lite_transport.hpp">
<polygon fill="white" stroke="black" points="2654.5,-196 2654.5,-215 2802.5,-215 2802.5,-196 2654.5,-196"/>
<text text-anchor="middle" x="2728.5" y="-203" font-family="Helvetica,sans-Serif" font-size="10.00">erpc_rpmsg_lite_transport.hpp</text>
</a>
</g>
</g>
<!-- Node1&#45;&gt;Node34 -->
<g id="edge41" class="edge"><title>Node1&#45;&gt;Node34</title>
<path fill="none" stroke="midnightblue" d="M2021.71,-312.829C2091.24,-304.104 2198.01,-290.36 2290.5,-277 2448.59,-254.165 2487.93,-247.189 2645.5,-221 2656.76,-219.129 2668.86,-217.052 2680.24,-215.069"/>
<polygon fill="midnightblue" stroke="midnightblue" points="2021.22,-309.363 2011.73,-314.079 2022.09,-316.309 2021.22,-309.363"/>
</g>
<!-- Node3 -->
<g id="node3" class="node"><title>Node3</title>
<g id="a_node3"><a xlink:href="erpc__client__server__common_8hpp.html" target="_top" xlink:title="erpc_client_server\l_common.hpp">
<polygon fill="white" stroke="black" points="377,-123.5 377,-153.5 472,-153.5 472,-123.5 377,-123.5"/>
<text text-anchor="start" x="385" y="-141.5" font-family="Helvetica,sans-Serif" font-size="10.00">erpc_client_server</text>
<text text-anchor="middle" x="424.5" y="-130.5" font-family="Helvetica,sans-Serif" font-size="10.00">_common.hpp</text>
</a>
</g>
</g>
<!-- Node2&#45;&gt;Node3 -->
<g id="edge2" class="edge"><title>Node2&#45;&gt;Node3</title>
<path fill="none" stroke="midnightblue" d="M482.293,-188.928C469.724,-178.179 453.149,-164.002 440.973,-153.589"/>
<polygon fill="midnightblue" stroke="midnightblue" points="480.376,-191.894 490.25,-195.734 484.926,-186.574 480.376,-191.894"/>
</g>
<!-- Node6 -->
<g id="node6" class="node"><title>Node6</title>
<g id="a_node6"><a xlink:href="erpc__transport__arbitrator_8hpp.html" target="_top" xlink:title="erpc_transport_arbitrator.hpp">
<polygon fill="white" stroke="black" points="513,-6 513,-25 654,-25 654,-6 513,-6"/>
<text text-anchor="middle" x="583.5" y="-13" font-family="Helvetica,sans-Serif" font-size="10.00">erpc_transport_arbitrator.hpp</text>
</a>
</g>
</g>
<!-- Node2&#45;&gt;Node6 -->
<g id="edge10" class="edge"><title>Node2&#45;&gt;Node6</title>
<path fill="none" stroke="midnightblue" d="M503.211,-185.459C506.011,-168.607 511.164,-143.567 519.5,-123 535.3,-84.0163 564.164,-42.6289 577.022,-25.1186"/>
<polygon fill="midnightblue" stroke="midnightblue" points="499.703,-185.245 501.638,-195.662 506.621,-186.312 499.703,-185.245"/>
</g>
<!-- Node11 -->
<g id="node11" class="node"><title>Node11</title>
<g id="a_node11"><a xlink:href="erpc__basic__codec_8hpp.html" target="_top" xlink:title="erpc_basic_codec.hpp">
<polygon fill="white" stroke="black" points="244.5,-129 244.5,-148 358.5,-148 358.5,-129 244.5,-129"/>
<text text-anchor="middle" x="301.5" y="-136" font-family="Helvetica,sans-Serif" font-size="10.00">erpc_basic_codec.hpp</text>
</a>
</g>
</g>
<!-- Node2&#45;&gt;Node11 -->
<g id="edge11" class="edge"><title>Node2&#45;&gt;Node11</title>
<path fill="none" stroke="midnightblue" d="M464.323,-192.683C424.88,-179.8 362.722,-159.497 327.718,-148.064"/>
<polygon fill="midnightblue" stroke="midnightblue" points="463.482,-196.091 474.074,-195.869 465.655,-189.437 463.482,-196.091"/>
</g>
<!-- Node4 -->
<g id="node4" class="node"><title>Node4</title>
<g id="a_node4"><a xlink:href="erpc__client__manager_8h.html" target="_top" xlink:title="erpc_client_manager.h">
<polygon fill="white" stroke="black" points="245,-67.5 245,-86.5 360,-86.5 360,-67.5 245,-67.5"/>
<text text-anchor="middle" x="302.5" y="-74.5" font-family="Helvetica,sans-Serif" font-size="10.00">erpc_client_manager.h</text>
</a>
</g>
</g>
<!-- Node3&#45;&gt;Node4 -->
<g id="edge3" class="edge"><title>Node3&#45;&gt;Node4</title>
<path fill="none" stroke="midnightblue" d="M386.444,-118.94C364.34,-108.159 337.53,-95.0843 320.252,-86.6578"/>
<polygon fill="midnightblue" stroke="midnightblue" points="385.065,-122.162 395.588,-123.399 388.134,-115.87 385.065,-122.162"/>
</g>
<!-- Node9 -->
<g id="node9" class="node"><title>Node9</title>
<g id="a_node9"><a xlink:href="erpc__server_8hpp.html" target="_top" xlink:title="erpc_server.hpp">
<polygon fill="white" stroke="black" points="385,-67.5 385,-86.5 470,-86.5 470,-67.5 385,-67.5"/>
<text text-anchor="middle" x="427.5" y="-74.5" font-family="Helvetica,sans-Serif" font-size="10.00">erpc_server.hpp</text>
</a>
</g>
</g>
<!-- Node3&#45;&gt;Node9 -->
<g id="edge8" class="edge"><title>Node3&#45;&gt;Node9</title>
<path fill="none" stroke="midnightblue" d="M425.721,-113.289C426.196,-103.857 426.711,-93.6548 427.063,-86.6578"/>
<polygon fill="midnightblue" stroke="midnightblue" points="422.219,-113.236 425.211,-123.399 429.21,-113.588 422.219,-113.236"/>
</g>
<!-- Node5 -->
<g id="node5" class="node"><title>Node5</title>
<g id="a_node5"><a xlink:href="erpc__arbitrated__client__manager_8hpp.html" target="_top" xlink:title="erpc_arbitrated_client\l_manager.hpp">
<polygon fill="white" stroke="black" points="119.5,-0.5 119.5,-30.5 229.5,-30.5 229.5,-0.5 119.5,-0.5"/>
<text text-anchor="start" x="127.5" y="-18.5" font-family="Helvetica,sans-Serif" font-size="10.00">erpc_arbitrated_client</text>
<text text-anchor="middle" x="174.5" y="-7.5" font-family="Helvetica,sans-Serif" font-size="10.00">_manager.hpp</text>
</a>
</g>
</g>
<!-- Node4&#45;&gt;Node5 -->
<g id="edge4" class="edge"><title>Node4&#45;&gt;Node5</title>
<path fill="none" stroke="midnightblue" d="M274.965,-63.2003C254.278,-53.5845 225.965,-40.4232 204.667,-30.523"/>
<polygon fill="midnightblue" stroke="midnightblue" points="273.617,-66.4336 284.161,-67.4751 276.568,-60.0859 273.617,-66.4336"/>
</g>
<!-- Node4&#45;&gt;Node6 -->
<g id="edge5" class="edge"><title>Node4&#45;&gt;Node6</title>
<path fill="none" stroke="midnightblue" d="M352.55,-65.4023C407.027,-53.8671 493.062,-35.6498 543.314,-25.0091"/>
<polygon fill="midnightblue" stroke="midnightblue" points="351.818,-61.9794 342.76,-67.4751 353.269,-68.8276 351.818,-61.9794"/>
</g>
<!-- Node7 -->
<g id="node7" class="node"><title>Node7</title>
<g id="a_node7"><a xlink:href="erpc__arbitrated__client__setup_8h.html" target="_top" xlink:title="erpc_arbitrated_client\l_setup.h">
<polygon fill="white" stroke="black" points="247.5,-0.5 247.5,-30.5 357.5,-30.5 357.5,-0.5 247.5,-0.5"/>
<text text-anchor="start" x="255.5" y="-18.5" font-family="Helvetica,sans-Serif" font-size="10.00">erpc_arbitrated_client</text>
<text text-anchor="middle" x="302.5" y="-7.5" font-family="Helvetica,sans-Serif" font-size="10.00">_setup.h</text>
</a>
</g>
</g>
<!-- Node4&#45;&gt;Node7 -->
<g id="edge6" class="edge"><title>Node4&#45;&gt;Node7</title>
<path fill="none" stroke="midnightblue" d="M302.5,-57.2349C302.5,-48.5864 302.5,-38.4969 302.5,-30.523"/>
<polygon fill="midnightblue" stroke="midnightblue" points="299,-57.4751 302.5,-67.4751 306,-57.4751 299,-57.4751"/>
</g>
<!-- Node8 -->
<g id="node8" class="node"><title>Node8</title>
<g id="a_node8"><a xlink:href="erpc__client__setup_8h.html" target="_top" xlink:title="erpc_client_setup.h">
<polygon fill="white" stroke="black" points="0,-6 0,-25 101,-25 101,-6 0,-6"/>
<text text-anchor="middle" x="50.5" y="-13" font-family="Helvetica,sans-Serif" font-size="10.00">erpc_client_setup.h</text>
</a>
</g>
</g>
<!-- Node4&#45;&gt;Node8 -->
<g id="edge7" class="edge"><title>Node4&#45;&gt;Node8</title>
<path fill="none" stroke="midnightblue" d="M255.695,-65.1252C216.806,-56.0666 160.03,-42.789 110.5,-31 102.473,-29.0893 93.8459,-27.0162 85.7068,-25.0513"/>
<polygon fill="midnightblue" stroke="midnightblue" points="255.141,-68.5898 265.675,-67.4485 256.729,-61.7721 255.141,-68.5898"/>
</g>
<!-- Node10 -->
<g id="node10" class="node"><title>Node10</title>
<g id="a_node10"><a xlink:href="erpc__simple__server_8hpp.html" target="_top" xlink:title="erpc_simple_server.hpp">
<polygon fill="white" stroke="black" points="376,-6 376,-25 495,-25 495,-6 376,-6"/>
<text text-anchor="middle" x="435.5" y="-13" font-family="Helvetica,sans-Serif" font-size="10.00">erpc_simple_server.hpp</text>
</a>
</g>
</g>
<!-- Node9&#45;&gt;Node10 -->
<g id="edge9" class="edge"><title>Node9&#45;&gt;Node10</title>
<path fill="none" stroke="midnightblue" d="M430.012,-57.3165C431.467,-46.4962 433.228,-33.398 434.356,-25.0091"/>
<polygon fill="midnightblue" stroke="midnightblue" points="426.51,-57.0979 428.646,-67.4751 433.448,-58.0307 426.51,-57.0979"/>
</g>
<!-- Node12&#45;&gt;Node2 -->
<g id="edge13" class="edge"><title>Node12&#45;&gt;Node2</title>
<path fill="none" stroke="midnightblue" d="M1972.92,-263.686C1722.66,-253.966 759.457,-216.557 543.595,-208.174"/>
<polygon fill="midnightblue" stroke="midnightblue" points="1973.13,-267.197 1983.26,-264.088 1973.41,-260.202 1973.13,-267.197"/>
</g>
<!-- Node12&#45;&gt;Node6 -->
<g id="edge14" class="edge"><title>Node12&#45;&gt;Node6</title>
<path fill="none" stroke="midnightblue" d="M2031.44,-247.213C2031.56,-229.506 2034.9,-203.703 2051.5,-190 2165.18,-96.1438 2813.1,-229.815 2711.5,-123 2639,-46.7815 1014.8,-21.9224 654.055,-17.332"/>
<polygon fill="midnightblue" stroke="midnightblue" points="2027.94,-247.335 2031.69,-257.242 2034.94,-247.156 2027.94,-247.335"/>
</g>
<!-- Node12&#45;&gt;Node13 -->
<g id="edge15" class="edge"><title>Node12&#45;&gt;Node13</title>
<path fill="none" stroke="midnightblue" d="M1973.04,-258.932C1906.67,-250.806 1796.15,-236.571 1701.5,-221 1690.77,-219.235 1679.22,-217.113 1668.47,-215.043"/>
<polygon fill="midnightblue" stroke="midnightblue" points="1972.95,-262.447 1983.3,-260.183 1973.8,-255.498 1972.95,-262.447"/>
</g>
<!-- Node28 -->
<g id="node28" class="node"><title>Node28</title>
<g id="a_node28"><a xlink:href="erpc__message__loggers_8hpp.html" target="_top" xlink:title="erpc_message_loggers.hpp">
<polygon fill="white" stroke="black" points="2060.5,-196 2060.5,-215 2196.5,-215 2196.5,-196 2060.5,-196"/>
<text text-anchor="middle" x="2128.5" y="-203" font-family="Helvetica,sans-Serif" font-size="10.00">erpc_message_loggers.hpp</text>
</a>
</g>
</g>
<!-- Node12&#45;&gt;Node28 -->
<g id="edge30" class="edge"><title>Node12&#45;&gt;Node28</title>
<path fill="none" stroke="midnightblue" d="M2054.95,-252.087C2073.47,-240.604 2099.17,-224.678 2114.77,-215.009"/>
<polygon fill="midnightblue" stroke="midnightblue" points="2052.91,-249.232 2046.25,-257.475 2056.6,-255.182 2052.91,-249.232"/>
</g>
<!-- Node12&#45;&gt;Node29 -->
<g id="edge31" class="edge"><title>Node12&#45;&gt;Node29</title>
<path fill="none" stroke="midnightblue" d="M1984.97,-255.207C1941.7,-245.379 1877.59,-230.821 1830.74,-220.18"/>
<polygon fill="midnightblue" stroke="midnightblue" points="1984.43,-258.674 1994.96,-257.475 1985.99,-251.847 1984.43,-258.674"/>
</g>
<!-- Node30 -->
<g id="node30" class="node"><title>Node30</title>
<g id="a_node30"><a xlink:href="erpc__mbox__zephyr__transport_8hpp.html" target="_top" xlink:title="erpc_mbox_zephyr_transport.hpp">
<polygon fill="white" stroke="black" points="2215,-196 2215,-215 2376,-215 2376,-196 2215,-196"/>
<text text-anchor="middle" x="2295.5" y="-203" font-family="Helvetica,sans-Serif" font-size="10.00">erpc_mbox_zephyr_transport.hpp</text>
</a>
</g>
</g>
<!-- Node12&#45;&gt;Node30 -->
<g id="edge32" class="edge"><title>Node12&#45;&gt;Node30</title>
<path fill="none" stroke="midnightblue" d="M2079.98,-255.258C2131,-243.716 2211.05,-225.606 2257.89,-215.009"/>
<polygon fill="midnightblue" stroke="midnightblue" points="2079.16,-251.855 2070.18,-257.475 2080.71,-258.682 2079.16,-251.855"/>
</g>
<!-- Node12&#45;&gt;Node31 -->
<g id="edge33" class="edge"><title>Node12&#45;&gt;Node31</title>
<path fill="none" stroke="midnightblue" d="M2091.52,-260.052C2161.8,-252.605 2282.63,-238.654 2385.5,-221 2395.35,-219.309 2405.95,-217.167 2415.75,-215.051"/>
<polygon fill="midnightblue" stroke="midnightblue" points="2091.1,-256.576 2081.52,-261.103 2091.83,-263.538 2091.1,-256.576"/>
</g>
<!-- Node32 -->
<g id="node32" class="node"><title>Node32</title>
<g id="a_node32"><a xlink:href="erpc__rpmsg__linux__transport_8hpp_source.html" target="_top" xlink:title="erpc_rpmsg_linux_transport.hpp">
<polygon fill="white" stroke="black" points="1849,-196 1849,-215 2004,-215 2004,-196 1849,-196"/>
<text text-anchor="middle" x="1926.5" y="-203" font-family="Helvetica,sans-Serif" font-size="10.00">erpc_rpmsg_linux_transport.hpp</text>
</a>
</g>
</g>
<!-- Node12&#45;&gt;Node32 -->
<g id="edge34" class="edge"><title>Node12&#45;&gt;Node32</title>
<path fill="none" stroke="midnightblue" d="M2008.55,-252.556C1988.04,-241.042 1959.12,-224.811 1941.66,-215.009"/>
<polygon fill="midnightblue" stroke="midnightblue" points="2006.88,-255.632 2017.31,-257.475 2010.31,-249.528 2006.88,-255.632"/>
</g>
<!-- Node12&#45;&gt;Node33 -->
<g id="edge35" class="edge"><title>Node12&#45;&gt;Node33</title>
<path fill="none" stroke="midnightblue" d="M2091.73,-263.093C2183.73,-258.002 2366.33,-245.59 2519.5,-221 2522.6,-220.502 2525.78,-219.939 2528.98,-219.332"/>
<polygon fill="midnightblue" stroke="midnightblue" points="2091.3,-259.612 2081.5,-263.65 2091.68,-266.601 2091.3,-259.612"/>
</g>
<!-- Node12&#45;&gt;Node34 -->
<g id="edge36" class="edge"><title>Node12&#45;&gt;Node34</title>
<path fill="none" stroke="midnightblue" d="M2091.72,-263.617C2201.34,-258.771 2443.14,-246.041 2645.5,-221 2658.13,-219.437 2671.76,-217.262 2684.26,-215.071"/>
<polygon fill="midnightblue" stroke="midnightblue" points="2091.37,-260.129 2081.53,-264.062 2091.67,-267.123 2091.37,-260.129"/>
</g>
<!-- Node14 -->
<g id="node14" class="node"><title>Node14</title>
<g id="a_node14"><a xlink:href="erpc__dspi__master__transport_8hpp.html" target="_top" xlink:title="erpc_dspi_master_transport.hpp">
<polygon fill="white" stroke="black" points="2050.5,-129 2050.5,-148 2206.5,-148 2206.5,-129 2050.5,-129"/>
<text text-anchor="middle" x="2128.5" y="-136" font-family="Helvetica,sans-Serif" font-size="10.00">erpc_dspi_master_transport.hpp</text>
</a>
</g>
</g>
<!-- Node13&#45;&gt;Node14 -->
<g id="edge16" class="edge"><title>Node13&#45;&gt;Node14</title>
<path fill="none" stroke="midnightblue" d="M1677.33,-194.065C1685.39,-192.585 1693.66,-191.171 1701.5,-190 1851.79,-167.557 1890.93,-174.5 2041.5,-154 2054.09,-152.285 2067.67,-150.158 2080.26,-148.067"/>
<polygon fill="midnightblue" stroke="midnightblue" points="1676.44,-190.671 1667.26,-195.963 1677.74,-197.55 1676.44,-190.671"/>
</g>
<!-- Node15 -->
<g id="node15" class="node"><title>Node15</title>
<g id="a_node15"><a xlink:href="erpc__dspi__slave__transport_8hpp.html" target="_top" xlink:title="erpc_dspi_slave_transport.hpp">
<polygon fill="white" stroke="black" points="2224.5,-129 2224.5,-148 2372.5,-148 2372.5,-129 2224.5,-129"/>
<text text-anchor="middle" x="2298.5" y="-136" font-family="Helvetica,sans-Serif" font-size="10.00">erpc_dspi_slave_transport.hpp</text>
</a>
</g>
</g>
<!-- Node13&#45;&gt;Node15 -->
<g id="edge17" class="edge"><title>Node13&#45;&gt;Node15</title>
<path fill="none" stroke="midnightblue" d="M1675.59,-194.126C1684.2,-192.561 1693.09,-191.104 1701.5,-190 1928.56,-160.211 1988.18,-181.742 2215.5,-154 2228.28,-152.441 2242.08,-150.24 2254.69,-148.023"/>
<polygon fill="midnightblue" stroke="midnightblue" points="1674.85,-190.706 1665.67,-195.999 1676.14,-197.584 1674.85,-190.706"/>
</g>
<!-- Node16 -->
<g id="node16" class="node"><title>Node16</title>
<g id="a_node16"><a xlink:href="erpc__i2c__slave__transport_8hpp.html" target="_top" xlink:title="erpc_i2c_slave_transport.hpp">
<polygon fill="white" stroke="black" points="2391,-129 2391,-148 2534,-148 2534,-129 2391,-129"/>
<text text-anchor="middle" x="2462.5" y="-136" font-family="Helvetica,sans-Serif" font-size="10.00">erpc_i2c_slave_transport.hpp</text>
</a>
</g>
</g>
<!-- Node13&#45;&gt;Node16 -->
<g id="edge18" class="edge"><title>Node13&#45;&gt;Node16</title>
<path fill="none" stroke="midnightblue" d="M1675.29,-194.058C1683.98,-192.485 1692.98,-191.043 1701.5,-190 2001.9,-153.188 2080.85,-188.732 2381.5,-154 2394.27,-152.524 2408.08,-150.294 2420.61,-148.022"/>
<polygon fill="midnightblue" stroke="midnightblue" points="1674.44,-190.655 1665.26,-195.948 1675.74,-197.534 1674.44,-190.655"/>
</g>
<!-- Node17 -->
<g id="node17" class="node"><title>Node17</title>
<g id="a_node17"><a xlink:href="erpc__lpi2c__slave__transport_8hpp.html" target="_top" xlink:title="erpc_lpi2c_slave_transport.hpp">
<polygon fill="white" stroke="black" points="2552.5,-129 2552.5,-148 2702.5,-148 2702.5,-129 2552.5,-129"/>
<text text-anchor="middle" x="2627.5" y="-136" font-family="Helvetica,sans-Serif" font-size="10.00">erpc_lpi2c_slave_transport.hpp</text>
</a>
</g>
</g>
<!-- Node13&#45;&gt;Node17 -->
<g id="edge19" class="edge"><title>Node13&#45;&gt;Node17</title>
<path fill="none" stroke="midnightblue" d="M1674.7,-194.089C1683.58,-192.484 1692.79,-191.022 1701.5,-190 2073.51,-146.331 2171.07,-193.939 2543.5,-154 2556.89,-152.564 2571.38,-150.317 2584.48,-148.016"/>
<polygon fill="midnightblue" stroke="midnightblue" points="1674.05,-190.651 1664.87,-195.948 1675.35,-197.53 1674.05,-190.651"/>
</g>
<!-- Node18 -->
<g id="node18" class="node"><title>Node18</title>
<g id="a_node18"><a xlink:href="erpc__lpspi__slave__transport_8hpp.html" target="_top" xlink:title="erpc_lpspi_slave_transport.hpp">
<polygon fill="white" stroke="black" points="652.5,-129 652.5,-148 802.5,-148 802.5,-129 652.5,-129"/>
<text text-anchor="middle" x="727.5" y="-136" font-family="Helvetica,sans-Serif" font-size="10.00">erpc_lpspi_slave_transport.hpp</text>
</a>
</g>
</g>
<!-- Node13&#45;&gt;Node18 -->
<g id="edge20" class="edge"><title>Node13&#45;&gt;Node18</title>
<path fill="none" stroke="midnightblue" d="M1550.16,-202.546C1405.58,-198.231 1082.04,-185.636 811.5,-154 798.418,-152.47 784.279,-150.252 771.4,-148.008"/>
<polygon fill="midnightblue" stroke="midnightblue" points="1550.16,-206.048 1560.26,-202.843 1550.36,-199.051 1550.16,-206.048"/>
</g>
<!-- Node13&#45;&gt;Node19 -->
<g id="edge21" class="edge"><title>Node13&#45;&gt;Node19</title>
<path fill="none" stroke="midnightblue" d="M1550.15,-202.341C1350.84,-196.422 818.228,-178.718 643.5,-154 640.654,-153.597 637.747,-153.127 634.82,-152.607"/>
<polygon fill="midnightblue" stroke="midnightblue" points="1550.14,-205.842 1560.24,-202.639 1550.35,-198.845 1550.14,-205.842"/>
</g>
<!-- Node20 -->
<g id="node20" class="node"><title>Node20</title>
<g id="a_node20"><a xlink:href="erpc__serial__transport_8hpp.html" target="_top" xlink:title="erpc_serial_transport.hpp">
<polygon fill="white" stroke="black" points="820.5,-129 820.5,-148 946.5,-148 946.5,-129 820.5,-129"/>
<text text-anchor="middle" x="883.5" y="-136" font-family="Helvetica,sans-Serif" font-size="10.00">erpc_serial_transport.hpp</text>
</a>
</g>
</g>
<!-- Node13&#45;&gt;Node20 -->
<g id="edge22" class="edge"><title>Node13&#45;&gt;Node20</title>
<path fill="none" stroke="midnightblue" d="M1549.92,-201.74C1425.13,-196.568 1170.37,-183.192 956.5,-154 945.234,-152.462 933.087,-150.268 921.997,-148.051"/>
<polygon fill="midnightblue" stroke="midnightblue" points="1549.99,-205.246 1560.13,-202.157 1550.28,-198.252 1549.99,-205.246"/>
</g>
<!-- Node21 -->
<g id="node21" class="node"><title>Node21</title>
<g id="a_node21"><a xlink:href="erpc__spi__master__transport_8hpp.html" target="_top" xlink:title="erpc_spi_master_transport.hpp">
<polygon fill="white" stroke="black" points="965,-129 965,-148 1116,-148 1116,-129 965,-129"/>
<text text-anchor="middle" x="1040.5" y="-136" font-family="Helvetica,sans-Serif" font-size="10.00">erpc_spi_master_transport.hpp</text>
</a>
</g>
</g>
<!-- Node13&#45;&gt;Node21 -->
<g id="edge23" class="edge"><title>Node13&#45;&gt;Node21</title>
<path fill="none" stroke="midnightblue" d="M1550.13,-198.44C1451.73,-190.256 1275.47,-174.326 1125.5,-154 1113.04,-152.311 1099.6,-150.169 1087.18,-148.054"/>
<polygon fill="midnightblue" stroke="midnightblue" points="1550.02,-201.943 1560.28,-199.279 1550.6,-194.967 1550.02,-201.943"/>
</g>
<!-- Node22 -->
<g id="node22" class="node"><title>Node22</title>
<g id="a_node22"><a xlink:href="erpc__spi__slave__transport_8hpp.html" target="_top" xlink:title="erpc_spi_slave_transport.hpp">
<polygon fill="white" stroke="black" points="1134,-129 1134,-148 1277,-148 1277,-129 1134,-129"/>
<text text-anchor="middle" x="1205.5" y="-136" font-family="Helvetica,sans-Serif" font-size="10.00">erpc_spi_slave_transport.hpp</text>
</a>
</g>
</g>
<!-- Node13&#45;&gt;Node22 -->
<g id="edge24" class="edge"><title>Node13&#45;&gt;Node22</title>
<path fill="none" stroke="midnightblue" d="M1555.01,-194.51C1486.14,-184.738 1379.07,-169.156 1286.5,-154 1275.22,-152.153 1263.08,-150.045 1251.72,-148.018"/>
<polygon fill="midnightblue" stroke="midnightblue" points="1554.91,-198.031 1565.3,-195.968 1555.89,-191.101 1554.91,-198.031"/>
</g>
<!-- Node23 -->
<g id="node23" class="node"><title>Node23</title>
<g id="a_node23"><a xlink:href="erpc__spidev__master__transport_8hpp.html" target="_top" xlink:title="erpc_spidev_master\l_transport.hpp">
<polygon fill="white" stroke="black" points="1295,-123.5 1295,-153.5 1398,-153.5 1398,-123.5 1295,-123.5"/>
<text text-anchor="start" x="1303" y="-141.5" font-family="Helvetica,sans-Serif" font-size="10.00">erpc_spidev_master</text>
<text text-anchor="middle" x="1346.5" y="-130.5" font-family="Helvetica,sans-Serif" font-size="10.00">_transport.hpp</text>
</a>
</g>
</g>
<!-- Node13&#45;&gt;Node23 -->
<g id="edge25" class="edge"><title>Node13&#45;&gt;Node23</title>
<path fill="none" stroke="midnightblue" d="M1579.37,-193.728C1535,-183.566 1466.71,-167.864 1407.5,-154 1404.43,-153.28 1401.27,-152.538 1398.08,-151.786"/>
<polygon fill="midnightblue" stroke="midnightblue" points="1578.75,-197.178 1589.28,-195.998 1580.32,-190.355 1578.75,-197.178"/>
</g>
<!-- Node24 -->
<g id="node24" class="node"><title>Node24</title>
<g id="a_node24"><a xlink:href="erpc__tcp__transport_8hpp.html" target="_top" xlink:title="erpc_tcp_transport.hpp">
<polygon fill="white" stroke="black" points="1416.5,-129 1416.5,-148 1532.5,-148 1532.5,-129 1416.5,-129"/>
<text text-anchor="middle" x="1474.5" y="-136" font-family="Helvetica,sans-Serif" font-size="10.00">erpc_tcp_transport.hpp</text>
</a>
</g>
</g>
<!-- Node13&#45;&gt;Node24 -->
<g id="edge26" class="edge"><title>Node13&#45;&gt;Node24</title>
<path fill="none" stroke="midnightblue" d="M1596.76,-191.781C1566.66,-178.909 1520.93,-159.355 1494.77,-148.167"/>
<polygon fill="midnightblue" stroke="midnightblue" points="1595.74,-195.155 1606.32,-195.869 1598.5,-188.718 1595.74,-195.155"/>
</g>
<!-- Node25 -->
<g id="node25" class="node"><title>Node25</title>
<g id="a_node25"><a xlink:href="erpc__uart__cmsis__transport_8hpp.html" target="_top" xlink:title="erpc_uart_cmsis_transport.hpp">
<polygon fill="white" stroke="black" points="1551,-129 1551,-148 1702,-148 1702,-129 1551,-129"/>
<text text-anchor="middle" x="1626.5" y="-136" font-family="Helvetica,sans-Serif" font-size="10.00">erpc_uart_cmsis_transport.hpp</text>
</a>
</g>
</g>
<!-- Node13&#45;&gt;Node25 -->
<g id="edge27" class="edge"><title>Node13&#45;&gt;Node25</title>
<path fill="none" stroke="midnightblue" d="M1626.5,-185.537C1626.5,-173.17 1626.5,-157.62 1626.5,-148.127"/>
<polygon fill="midnightblue" stroke="midnightblue" points="1623,-185.734 1626.5,-195.734 1630,-185.734 1623,-185.734"/>
</g>
<!-- Node26 -->
<g id="node26" class="node"><title>Node26</title>
<g id="a_node26"><a xlink:href="erpc__uart__zephyr__transport_8hpp.html" target="_top" xlink:title="erpc_uart_zephyr_transport.hpp">
<polygon fill="white" stroke="black" points="1720.5,-129 1720.5,-148 1874.5,-148 1874.5,-129 1720.5,-129"/>
<text text-anchor="middle" x="1797.5" y="-136" font-family="Helvetica,sans-Serif" font-size="10.00">erpc_uart_zephyr_transport.hpp</text>
</a>
</g>
</g>
<!-- Node13&#45;&gt;Node26 -->
<g id="edge28" class="edge"><title>Node13&#45;&gt;Node26</title>
<path fill="none" stroke="midnightblue" d="M1658.67,-192.271C1692.61,-179.37 1745.21,-159.376 1774.97,-148.064"/>
<polygon fill="midnightblue" stroke="midnightblue" points="1657.31,-189.044 1649.21,-195.869 1659.8,-195.587 1657.31,-189.044"/>
</g>
<!-- Node27 -->
<g id="node27" class="node"><title>Node27</title>
<g id="a_node27"><a xlink:href="erpc__usb__cdc__transport_8hpp.html" target="_top" xlink:title="erpc_usb_cdc_transport.hpp">
<polygon fill="white" stroke="black" points="1892.5,-129 1892.5,-148 2032.5,-148 2032.5,-129 1892.5,-129"/>
<text text-anchor="middle" x="1962.5" y="-136" font-family="Helvetica,sans-Serif" font-size="10.00">erpc_usb_cdc_transport.hpp</text>
</a>
</g>
</g>
<!-- Node13&#45;&gt;Node27 -->
<g id="edge29" class="edge"><title>Node13&#45;&gt;Node27</title>
<path fill="none" stroke="midnightblue" d="M1680.99,-193.958C1747.12,-181.165 1857.34,-159.843 1918.4,-148.032"/>
<polygon fill="midnightblue" stroke="midnightblue" points="1679.92,-190.6 1670.77,-195.936 1681.25,-197.472 1679.92,-190.6"/>
</g>
</g>
</svg>
