<?xml version="1.0" encoding="UTF-8" standalone="no"?>
<!DOCTYPE svg PUBLIC "-//W3C//DTD SVG 1.1//EN"
 "http://www.w3.org/Graphics/SVG/1.1/DTD/svg11.dtd">
<!-- Generated by graphviz version 2.38.0 (20140413.2041)
 -->
<!-- Title: erpc_client_setup.h Pages: 1 -->
<svg width="726pt" height="375pt"
 viewBox="0.00 0.00 725.50 375.00" xmlns="http://www.w3.org/2000/svg" xmlns:xlink="http://www.w3.org/1999/xlink">
<g id="graph0" class="graph" transform="scale(1 1) rotate(0) translate(4 371)">
<title>erpc_client_setup.h</title>
<polygon fill="white" stroke="none" points="-4,4 -4,-371 721.5,-371 721.5,4 -4,4"/>
<!-- Node1 -->
<g id="node1" class="node"><title>Node1</title>
<polygon fill="#bfbfbf" stroke="black" points="137.5,-347.5 137.5,-366.5 238.5,-366.5 238.5,-347.5 137.5,-347.5"/>
<text text-anchor="middle" x="188" y="-354.5" font-family="Helvetica,sans-Serif" font-size="10.00">erpc_client_setup.h</text>
</g>
<!-- Node2 -->
<g id="node2" class="node"><title>Node2</title>
<g id="a_node2"><a xlink:href="erpc__common_8h_source.html" target="_top" xlink:title="erpc_common.h">
<polygon fill="white" stroke="black" points="422,-56.5 422,-75.5 508,-75.5 508,-56.5 422,-56.5"/>
<text text-anchor="middle" x="465" y="-63.5" font-family="Helvetica,sans-Serif" font-size="10.00">erpc_common.h</text>
</a>
</g>
</g>
<!-- Node1&#45;&gt;Node2 -->
<g id="edge1" class="edge"><title>Node1&#45;&gt;Node2</title>
<path fill="none" stroke="midnightblue" d="M192.968,-347.337C203.268,-328.532 226,-282.297 226,-240.5 226,-240.5 226,-240.5 226,-177 226,-95.6969 341.542,-74.2753 411.954,-68.7692"/>
<polygon fill="midnightblue" stroke="midnightblue" points="412.264,-72.2562 421.996,-68.0671 411.776,-65.2732 412.264,-72.2562"/>
</g>
<!-- Node3 -->
<g id="node3" class="node"><title>Node3</title>
<polygon fill="white" stroke="#bfbfbf" points="404.5,-0.5 404.5,-19.5 453.5,-19.5 453.5,-0.5 404.5,-0.5"/>
<text text-anchor="middle" x="429" y="-7.5" font-family="Helvetica,sans-Serif" font-size="10.00">stdint.h</text>
</g>
<!-- Node1&#45;&gt;Node3 -->
<g id="edge29" class="edge"><title>Node1&#45;&gt;Node3</title>
<path fill="none" stroke="midnightblue" d="M137.619,-347.479C81.9316,-334.837 0,-305.238 0,-240.5 0,-240.5 0,-240.5 0,-121 0,-39.7775 292.191,-17.6979 394.29,-12.462"/>
<polygon fill="midnightblue" stroke="midnightblue" points="394.577,-15.9522 404.394,-11.9675 394.235,-8.96061 394.577,-15.9522"/>
</g>
<!-- Node4 -->
<g id="node4" class="node"><title>Node4</title>
<g id="a_node4"><a xlink:href="erpc__config__internal_8h_source.html" target="_top" xlink:title="erpc_config_internal.h">
<polygon fill="white" stroke="black" points="254.5,-168.5 254.5,-187.5 365.5,-187.5 365.5,-168.5 254.5,-168.5"/>
<text text-anchor="middle" x="310" y="-175.5" font-family="Helvetica,sans-Serif" font-size="10.00">erpc_config_internal.h</text>
</a>
</g>
</g>
<!-- Node1&#45;&gt;Node4 -->
<g id="edge3" class="edge"><title>Node1&#45;&gt;Node4</title>
<path fill="none" stroke="midnightblue" d="M200.831,-347.188C212.22,-338.875 228.753,-325.544 240,-311 266.385,-276.88 262.332,-261.857 283,-224 288.083,-214.689 294.128,-204.538 299.208,-196.238"/>
<polygon fill="midnightblue" stroke="midnightblue" points="302.326,-197.851 304.613,-187.506 296.374,-194.167 302.326,-197.851"/>
</g>
<!-- Node6 -->
<g id="node6" class="node"><title>Node6</title>
<g id="a_node6"><a xlink:href="erpc__mbf__setup_8h.html" target="_top" xlink:title="erpc_mbf_setup.h">
<polygon fill="white" stroke="black" points="66,-291.5 66,-310.5 160,-310.5 160,-291.5 66,-291.5"/>
<text text-anchor="middle" x="113" y="-298.5" font-family="Helvetica,sans-Serif" font-size="10.00">erpc_mbf_setup.h</text>
</a>
</g>
</g>
<!-- Node1&#45;&gt;Node6 -->
<g id="edge5" class="edge"><title>Node1&#45;&gt;Node6</title>
<path fill="none" stroke="midnightblue" d="M175.95,-347.324C164.537,-339.107 147.169,-326.602 133.565,-316.807"/>
<polygon fill="midnightblue" stroke="midnightblue" points="135.43,-313.837 125.269,-310.834 131.34,-319.517 135.43,-313.837"/>
</g>
<!-- Node7 -->
<g id="node7" class="node"><title>Node7</title>
<g id="a_node7"><a xlink:href="erpc__transport__setup_8h.html" target="_top" xlink:title="erpc_transport_setup.h">
<polygon fill="white" stroke="black" points="44,-230 44,-249 160,-249 160,-230 44,-230"/>
<text text-anchor="middle" x="102" y="-237" font-family="Helvetica,sans-Serif" font-size="10.00">erpc_transport_setup.h</text>
</a>
</g>
</g>
<!-- Node1&#45;&gt;Node7 -->
<g id="edge27" class="edge"><title>Node1&#45;&gt;Node7</title>
<path fill="none" stroke="midnightblue" d="M137.235,-352.519C108.661,-347.651 75.1631,-336.444 57,-311 43.7325,-292.414 63.7484,-270.058 81.1614,-255.577"/>
<polygon fill="midnightblue" stroke="midnightblue" points="83.6399,-258.081 89.3433,-249.153 79.3167,-252.576 83.6399,-258.081"/>
</g>
<!-- Node8 -->
<g id="node8" class="node"><title>Node8</title>
<polygon fill="white" stroke="#bfbfbf" points="139,-168.5 139,-187.5 195,-187.5 195,-168.5 139,-168.5"/>
<text text-anchor="middle" x="167" y="-175.5" font-family="Helvetica,sans-Serif" font-size="10.00">stdbool.h</text>
</g>
<!-- Node1&#45;&gt;Node8 -->
<g id="edge28" class="edge"><title>Node1&#45;&gt;Node8</title>
<path fill="none" stroke="midnightblue" d="M186.987,-347.463C183.78,-320.428 173.791,-236.239 169.267,-198.109"/>
<polygon fill="midnightblue" stroke="midnightblue" points="172.706,-197.386 168.052,-187.868 165.755,-198.211 172.706,-197.386"/>
</g>
<!-- Node9 -->
<g id="node9" class="node"><title>Node9</title>
<g id="a_node9"><a xlink:href="erpc__client__manager_8h.html" target="_top" xlink:title="erpc_client_manager.h">
<polygon fill="white" stroke="black" points="325.5,-291.5 325.5,-310.5 440.5,-310.5 440.5,-291.5 325.5,-291.5"/>
<text text-anchor="middle" x="383" y="-298.5" font-family="Helvetica,sans-Serif" font-size="10.00">erpc_client_manager.h</text>
</a>
</g>
</g>
<!-- Node1&#45;&gt;Node9 -->
<g id="edge9" class="edge"><title>Node1&#45;&gt;Node9</title>
<path fill="none" stroke="midnightblue" d="M218.898,-347.444C252.274,-338.201 305.594,-323.436 342.349,-313.257"/>
<polygon fill="midnightblue" stroke="midnightblue" points="343.543,-316.558 352.246,-310.516 341.675,-309.812 343.543,-316.558"/>
</g>
<!-- Node2&#45;&gt;Node3 -->
<g id="edge2" class="edge"><title>Node2&#45;&gt;Node3</title>
<path fill="none" stroke="midnightblue" d="M459.055,-56.083C454.023,-48.5341 446.663,-37.4948 440.487,-28.2298"/>
<polygon fill="midnightblue" stroke="midnightblue" points="443.293,-26.1301 434.834,-19.7511 437.469,-30.0131 443.293,-26.1301"/>
</g>
<!-- Node5 -->
<g id="node5" class="node"><title>Node5</title>
<g id="a_node5"><a xlink:href="erpc__config_8h.html" target="_top" xlink:title="erpc_config.h">
<polygon fill="white" stroke="black" points="273,-112.5 273,-131.5 347,-131.5 347,-112.5 273,-112.5"/>
<text text-anchor="middle" x="310" y="-119.5" font-family="Helvetica,sans-Serif" font-size="10.00">erpc_config.h</text>
</a>
</g>
</g>
<!-- Node4&#45;&gt;Node5 -->
<g id="edge4" class="edge"><title>Node4&#45;&gt;Node5</title>
<path fill="none" stroke="midnightblue" d="M310,-168.083C310,-161.006 310,-150.861 310,-141.986"/>
<polygon fill="midnightblue" stroke="midnightblue" points="313.5,-141.751 310,-131.751 306.5,-141.751 313.5,-141.751"/>
</g>
<!-- Node6&#45;&gt;Node7 -->
<g id="edge6" class="edge"><title>Node6&#45;&gt;Node7</title>
<path fill="none" stroke="midnightblue" d="M111.424,-291.475C109.872,-283.08 107.45,-269.981 105.45,-259.163"/>
<polygon fill="midnightblue" stroke="midnightblue" points="108.833,-258.206 103.573,-249.009 101.949,-259.479 108.833,-258.206"/>
</g>
<!-- Node7&#45;&gt;Node3 -->
<g id="edge8" class="edge"><title>Node7&#45;&gt;Node3</title>
<path fill="none" stroke="midnightblue" d="M103.703,-229.859C106.85,-215.676 114.696,-187.126 130,-168 199.919,-80.6193 331.795,-36.2612 394.368,-19.3472"/>
<polygon fill="midnightblue" stroke="midnightblue" points="395.37,-22.7027 404.152,-16.7748 393.59,-15.9328 395.37,-22.7027"/>
</g>
<!-- Node7&#45;&gt;Node8 -->
<g id="edge7" class="edge"><title>Node7&#45;&gt;Node8</title>
<path fill="none" stroke="midnightblue" d="M111.313,-229.975C121.449,-220.697 137.864,-205.671 150.252,-194.331"/>
<polygon fill="midnightblue" stroke="midnightblue" points="152.691,-196.843 157.704,-187.509 147.965,-191.68 152.691,-196.843"/>
</g>
<!-- Node9&#45;&gt;Node4 -->
<g id="edge26" class="edge"><title>Node9&#45;&gt;Node4</title>
<path fill="none" stroke="midnightblue" d="M388.023,-291.319C395.913,-276.424 409.033,-245.528 396,-224 386.59,-208.455 369.847,-198.022 353.62,-191.151"/>
<polygon fill="midnightblue" stroke="midnightblue" points="354.774,-187.845 344.184,-187.507 352.251,-194.375 354.774,-187.845"/>
</g>
<!-- Node10 -->
<g id="node10" class="node"><title>Node10</title>
<g id="a_node10"><a xlink:href="erpc__client__server__common_8h.html" target="_top" xlink:title="erpc_client_server\l_common.h">
<polygon fill="white" stroke="black" points="292.5,-224.5 292.5,-254.5 387.5,-254.5 387.5,-224.5 292.5,-224.5"/>
<text text-anchor="start" x="300.5" y="-242.5" font-family="Helvetica,sans-Serif" font-size="10.00">erpc_client_server</text>
<text text-anchor="middle" x="340" y="-231.5" font-family="Helvetica,sans-Serif" font-size="10.00">_common.h</text>
</a>
</g>
</g>
<!-- Node9&#45;&gt;Node10 -->
<g id="edge10" class="edge"><title>Node9&#45;&gt;Node10</title>
<path fill="none" stroke="midnightblue" d="M376.839,-291.475C371.451,-284.019 363.38,-272.852 356.165,-262.869"/>
<polygon fill="midnightblue" stroke="midnightblue" points="358.828,-260.578 350.134,-254.523 353.155,-264.678 358.828,-260.578"/>
</g>
<!-- Node11 -->
<g id="node11" class="node"><title>Node11</title>
<g id="a_node11"><a xlink:href="erpc__codec_8h.html" target="_top" xlink:title="erpc_codec.h">
<polygon fill="white" stroke="black" points="444.5,-230 444.5,-249 519.5,-249 519.5,-230 444.5,-230"/>
<text text-anchor="middle" x="482" y="-237" font-family="Helvetica,sans-Serif" font-size="10.00">erpc_codec.h</text>
</a>
</g>
</g>
<!-- Node9&#45;&gt;Node11 -->
<g id="edge12" class="edge"><title>Node9&#45;&gt;Node11</title>
<path fill="none" stroke="midnightblue" d="M397.184,-291.475C413.358,-281.755 440.026,-265.727 459.143,-254.237"/>
<polygon fill="midnightblue" stroke="midnightblue" points="461.074,-257.16 467.842,-249.009 457.468,-251.161 461.074,-257.16"/>
</g>
<!-- Node10&#45;&gt;Node4 -->
<g id="edge11" class="edge"><title>Node10&#45;&gt;Node4</title>
<path fill="none" stroke="midnightblue" d="M332.89,-224.399C328.711,-216.11 323.389,-205.554 318.928,-196.708"/>
<polygon fill="midnightblue" stroke="midnightblue" points="321.993,-195.011 314.365,-187.658 315.742,-198.163 321.993,-195.011"/>
</g>
<!-- Node11&#45;&gt;Node2 -->
<g id="edge13" class="edge"><title>Node11&#45;&gt;Node2</title>
<path fill="none" stroke="midnightblue" d="M477.377,-229.714C467.177,-209.291 444.172,-156.934 451,-112 452.368,-103.001 455.19,-93.3251 457.945,-85.2601"/>
<polygon fill="midnightblue" stroke="midnightblue" points="461.265,-86.3722 461.4,-75.7782 454.688,-83.9759 461.265,-86.3722"/>
</g>
<!-- Node11&#45;&gt;Node3 -->
<g id="edge25" class="edge"><title>Node11&#45;&gt;Node3</title>
<path fill="none" stroke="midnightblue" d="M475.89,-229.896C469.136,-220.104 458.256,-203.459 451,-188 428.667,-140.416 421.559,-127.863 413,-76 411.553,-67.2297 411.489,-64.7595 413,-56 414.568,-46.9098 417.795,-37.2219 420.943,-29.1726"/>
<polygon fill="midnightblue" stroke="midnightblue" points="424.265,-30.2993 424.889,-19.7229 417.806,-27.6018 424.265,-30.2993"/>
</g>
<!-- Node12 -->
<g id="node12" class="node"><title>Node12</title>
<g id="a_node12"><a xlink:href="erpc__message__buffer_8h.html" target="_top" xlink:title="erpc_message_buffer.h">
<polygon fill="white" stroke="black" points="600.5,-112.5 600.5,-131.5 717.5,-131.5 717.5,-112.5 600.5,-112.5"/>
<text text-anchor="middle" x="659" y="-119.5" font-family="Helvetica,sans-Serif" font-size="10.00">erpc_message_buffer.h</text>
</a>
</g>
</g>
<!-- Node11&#45;&gt;Node12 -->
<g id="edge14" class="edge"><title>Node11&#45;&gt;Node12</title>
<path fill="none" stroke="midnightblue" d="M515.949,-229.925C542.536,-222.056 579.497,-208.477 607,-188 624.496,-174.973 639.437,-154.712 648.754,-140.275"/>
<polygon fill="midnightblue" stroke="midnightblue" points="651.737,-142.107 654.035,-131.764 645.789,-138.416 651.737,-142.107"/>
</g>
<!-- Node14 -->
<g id="node14" class="node"><title>Node14</title>
<g id="a_node14"><a xlink:href="erpc__transport_8h.html" target="_top" xlink:title="erpc_transport.h">
<polygon fill="white" stroke="black" points="510.5,-168.5 510.5,-187.5 597.5,-187.5 597.5,-168.5 510.5,-168.5"/>
<text text-anchor="middle" x="554" y="-175.5" font-family="Helvetica,sans-Serif" font-size="10.00">erpc_transport.h</text>
</a>
</g>
</g>
<!-- Node11&#45;&gt;Node14 -->
<g id="edge18" class="edge"><title>Node11&#45;&gt;Node14</title>
<path fill="none" stroke="midnightblue" d="M492.316,-229.975C503.651,-220.608 522.073,-205.384 535.839,-194.008"/>
<polygon fill="midnightblue" stroke="midnightblue" points="538.224,-196.577 543.703,-187.509 533.765,-191.181 538.224,-196.577"/>
</g>
<!-- Node16 -->
<g id="node16" class="node"><title>Node16</title>
<polygon fill="white" stroke="#bfbfbf" points="460,-112.5 460,-131.5 506,-131.5 506,-112.5 460,-112.5"/>
<text text-anchor="middle" x="483" y="-119.5" font-family="Helvetica,sans-Serif" font-size="10.00">cstring</text>
</g>
<!-- Node11&#45;&gt;Node16 -->
<g id="edge24" class="edge"><title>Node11&#45;&gt;Node16</title>
<path fill="none" stroke="midnightblue" d="M482.075,-229.819C482.236,-211.257 482.616,-167.339 482.836,-141.973"/>
<polygon fill="midnightblue" stroke="midnightblue" points="486.337,-141.812 482.924,-131.782 479.337,-141.751 486.337,-141.812"/>
</g>
<!-- Node12&#45;&gt;Node2 -->
<g id="edge15" class="edge"><title>Node12&#45;&gt;Node2</title>
<path fill="none" stroke="midnightblue" d="M628.26,-112.444C595.056,-103.201 542.009,-88.4356 505.443,-78.2572"/>
<polygon fill="midnightblue" stroke="midnightblue" points="506.168,-74.8262 495.596,-75.5164 504.291,-81.5699 506.168,-74.8262"/>
</g>
<!-- Node12&#45;&gt;Node3 -->
<g id="edge17" class="edge"><title>Node12&#45;&gt;Node3</title>
<path fill="none" stroke="midnightblue" d="M665.334,-112.365C674.437,-98.818 688.693,-72.4247 675,-56 648.522,-24.2389 525.253,-14.829 463.89,-12.0928"/>
<polygon fill="midnightblue" stroke="midnightblue" points="464.028,-8.59556 453.892,-11.6818 463.74,-15.5897 464.028,-8.59556"/>
</g>
<!-- Node13 -->
<g id="node13" class="node"><title>Node13</title>
<polygon fill="white" stroke="#bfbfbf" points="618,-56.5 618,-75.5 666,-75.5 666,-56.5 618,-56.5"/>
<text text-anchor="middle" x="642" y="-63.5" font-family="Helvetica,sans-Serif" font-size="10.00">cstddef</text>
</g>
<!-- Node12&#45;&gt;Node13 -->
<g id="edge16" class="edge"><title>Node12&#45;&gt;Node13</title>
<path fill="none" stroke="midnightblue" d="M656.193,-112.083C653.915,-104.849 650.629,-94.4087 647.792,-85.3968"/>
<polygon fill="midnightblue" stroke="midnightblue" points="651.096,-84.2385 644.755,-75.7511 644.419,-86.3406 651.096,-84.2385"/>
</g>
<!-- Node14&#45;&gt;Node2 -->
<g id="edge19" class="edge"><title>Node14&#45;&gt;Node2</title>
<path fill="none" stroke="midnightblue" d="M549.926,-168.48C543.517,-155.54 530.231,-130.485 515,-112 506.039,-101.125 494.418,-90.5053 484.635,-82.3155"/>
<polygon fill="midnightblue" stroke="midnightblue" points="486.59,-79.3941 476.624,-75.7987 482.173,-84.8243 486.59,-79.3941"/>
</g>
<!-- Node14&#45;&gt;Node12 -->
<g id="edge22" class="edge"><title>Node14&#45;&gt;Node12</title>
<path fill="none" stroke="midnightblue" d="M570.87,-168.324C587.709,-159.664 613.807,-146.242 633.238,-136.249"/>
<polygon fill="midnightblue" stroke="midnightblue" points="634.88,-139.341 642.172,-131.655 631.678,-133.116 634.88,-139.341"/>
</g>
<!-- Node15 -->
<g id="node15" class="node"><title>Node15</title>
<g id="a_node15"><a xlink:href="erpc__crc16_8h.html" target="_top" xlink:title="erpc_crc16.h">
<polygon fill="white" stroke="black" points="526.5,-56.5 526.5,-75.5 599.5,-75.5 599.5,-56.5 526.5,-56.5"/>
<text text-anchor="middle" x="563" y="-63.5" font-family="Helvetica,sans-Serif" font-size="10.00">erpc_crc16.h</text>
</a>
</g>
</g>
<!-- Node14&#45;&gt;Node15 -->
<g id="edge20" class="edge"><title>Node14&#45;&gt;Node15</title>
<path fill="none" stroke="midnightblue" d="M554.706,-168.368C556.159,-150.617 559.509,-109.666 561.478,-85.5974"/>
<polygon fill="midnightblue" stroke="midnightblue" points="564.97,-85.8436 562.297,-75.5914 557.993,-85.2727 564.97,-85.8436"/>
</g>
<!-- Node14&#45;&gt;Node16 -->
<g id="edge23" class="edge"><title>Node14&#45;&gt;Node16</title>
<path fill="none" stroke="midnightblue" d="M542.593,-168.324C531.891,-160.185 515.659,-147.839 502.837,-138.087"/>
<polygon fill="midnightblue" stroke="midnightblue" points="504.693,-135.102 494.615,-131.834 500.456,-140.673 504.693,-135.102"/>
</g>
<!-- Node15&#45;&gt;Node3 -->
<g id="edge21" class="edge"><title>Node15&#45;&gt;Node3</title>
<path fill="none" stroke="midnightblue" d="M541.767,-56.4435C519.616,-47.5171 484.681,-33.4387 459.564,-23.3168"/>
<polygon fill="midnightblue" stroke="midnightblue" points="460.717,-20.0079 450.133,-19.5164 458.1,-26.5006 460.717,-20.0079"/>
</g>
</g>
</svg>
