<?xml version="1.0" encoding="UTF-8" standalone="no"?>
<!DOCTYPE svg PUBLIC "-//W3C//DTD SVG 1.1//EN"
 "http://www.w3.org/Graphics/SVG/1.1/DTD/svg11.dtd">
<!-- Generated by graphviz version 2.38.0 (20140413.2041)
 -->
<!-- Title: erpc_transport.h Pages: 1 -->
<svg width="2353pt" height="229pt"
 viewBox="0.00 0.00 2352.50 229.00" xmlns="http://www.w3.org/2000/svg" xmlns:xlink="http://www.w3.org/1999/xlink">
<g id="graph0" class="graph" transform="scale(1 1) rotate(0) translate(4 225)">
<title>erpc_transport.h</title>
<polygon fill="white" stroke="none" points="-4,4 -4,-225 2348.5,-225 2348.5,4 -4,4"/>
<!-- Node1 -->
<g id="node1" class="node"><title>Node1</title>
<polygon fill="#bfbfbf" stroke="black" points="1337,-201.5 1337,-220.5 1424,-220.5 1424,-201.5 1337,-201.5"/>
<text text-anchor="middle" x="1380.5" y="-208.5" font-family="Helvetica,sans-Serif" font-size="10.00">erpc_transport.h</text>
</g>
<!-- Node2 -->
<g id="node2" class="node"><title>Node2</title>
<g id="a_node2"><a xlink:href="erpc__codec_8h.html" target="_top" xlink:title="erpc_codec.h">
<polygon fill="white" stroke="black" points="295,-140 295,-159 370,-159 370,-140 295,-140"/>
<text text-anchor="middle" x="332.5" y="-147" font-family="Helvetica,sans-Serif" font-size="10.00">erpc_codec.h</text>
</a>
</g>
</g>
<!-- Node1&#45;&gt;Node2 -->
<g id="edge1" class="edge"><title>Node1&#45;&gt;Node2</title>
<path fill="none" stroke="midnightblue" d="M1326.73,-206.947C1140.91,-196.397 528.616,-161.634 370.191,-152.64"/>
<polygon fill="midnightblue" stroke="midnightblue" points="1326.62,-210.447 1336.8,-207.519 1327.02,-203.458 1326.62,-210.447"/>
</g>
<!-- Node5 -->
<g id="node5" class="node"><title>Node5</title>
<g id="a_node5"><a xlink:href="erpc__transport__arbitrator_8h.html" target="_top" xlink:title="erpc_transport_arbitrator.h">
<polygon fill="white" stroke="black" points="0,-6 0,-25 131,-25 131,-6 0,-6"/>
<text text-anchor="middle" x="65.5" y="-13" font-family="Helvetica,sans-Serif" font-size="10.00">erpc_transport_arbitrator.h</text>
</a>
</g>
</g>
<!-- Node1&#45;&gt;Node5 -->
<g id="edge11" class="edge"><title>Node1&#45;&gt;Node5</title>
<path fill="none" stroke="midnightblue" d="M1326.78,-209.938C1135.52,-209.382 488.358,-204.552 285.5,-165 198.847,-148.105 162.184,-159.144 98.5,-98 77.358,-77.7012 69.3665,-42.0068 66.6921,-25.4283"/>
<polygon fill="midnightblue" stroke="midnightblue" points="1326.86,-213.438 1336.87,-209.964 1326.88,-206.438 1326.86,-213.438"/>
</g>
<!-- Node11 -->
<g id="node11" class="node"><title>Node11</title>
<g id="a_node11"><a xlink:href="erpc__framed__transport_8h.html" target="_top" xlink:title="erpc_framed_transport.h">
<polygon fill="white" stroke="black" points="1107.5,-140 1107.5,-159 1229.5,-159 1229.5,-140 1107.5,-140"/>
<text text-anchor="middle" x="1168.5" y="-147" font-family="Helvetica,sans-Serif" font-size="10.00">erpc_framed_transport.h</text>
</a>
</g>
</g>
<!-- Node1&#45;&gt;Node11 -->
<g id="edge12" class="edge"><title>Node1&#45;&gt;Node11</title>
<path fill="none" stroke="midnightblue" d="M1340.41,-198.749C1299.23,-187.189 1236.02,-169.451 1198.82,-159.009"/>
<polygon fill="midnightblue" stroke="midnightblue" points="1339.55,-202.143 1350.13,-201.475 1341.44,-195.403 1339.55,-202.143"/>
</g>
<!-- Node22 -->
<g id="node22" class="node"><title>Node22</title>
<g id="a_node22"><a xlink:href="erpc__message__loggers_8h.html" target="_top" xlink:title="erpc_message_loggers.h">
<polygon fill="white" stroke="black" points="1248,-140 1248,-159 1373,-159 1373,-140 1248,-140"/>
<text text-anchor="middle" x="1310.5" y="-147" font-family="Helvetica,sans-Serif" font-size="10.00">erpc_message_loggers.h</text>
</a>
</g>
</g>
<!-- Node1&#45;&gt;Node22 -->
<g id="edge23" class="edge"><title>Node1&#45;&gt;Node22</title>
<path fill="none" stroke="midnightblue" d="M1362.82,-194.973C1349.43,-183.593 1331.52,-168.369 1320.51,-159.009"/>
<polygon fill="midnightblue" stroke="midnightblue" points="1360.58,-197.665 1370.47,-201.475 1365.12,-192.332 1360.58,-197.665"/>
</g>
<!-- Node23 -->
<g id="node23" class="node"><title>Node23</title>
<g id="a_node23"><a xlink:href="erpc__inter__thread__buffer__transport_8h.html" target="_top" xlink:title="erpc_inter_thread_buffer\l_transport.h">
<polygon fill="white" stroke="black" points="1391.5,-134.5 1391.5,-164.5 1511.5,-164.5 1511.5,-134.5 1391.5,-134.5"/>
<text text-anchor="start" x="1399.5" y="-152.5" font-family="Helvetica,sans-Serif" font-size="10.00">erpc_inter_thread_buffer</text>
<text text-anchor="middle" x="1451.5" y="-141.5" font-family="Helvetica,sans-Serif" font-size="10.00">_transport.h</text>
</a>
</g>
</g>
<!-- Node1&#45;&gt;Node23 -->
<g id="edge24" class="edge"><title>Node1&#45;&gt;Node23</title>
<path fill="none" stroke="midnightblue" d="M1398.49,-194.921C1409.64,-185.579 1423.86,-173.662 1434.77,-164.523"/>
<polygon fill="midnightblue" stroke="midnightblue" points="1396.09,-192.369 1390.67,-201.475 1400.59,-197.735 1396.09,-192.369"/>
</g>
<!-- Node24 -->
<g id="node24" class="node"><title>Node24</title>
<g id="a_node24"><a xlink:href="erpc__mu__transport_8h.html" target="_top" xlink:title="erpc_mu_transport.h">
<polygon fill="white" stroke="black" points="1529.5,-140 1529.5,-159 1635.5,-159 1635.5,-140 1529.5,-140"/>
<text text-anchor="middle" x="1582.5" y="-147" font-family="Helvetica,sans-Serif" font-size="10.00">erpc_mu_transport.h</text>
</a>
</g>
</g>
<!-- Node1&#45;&gt;Node24 -->
<g id="edge25" class="edge"><title>Node1&#45;&gt;Node24</title>
<path fill="none" stroke="midnightblue" d="M1419.19,-198.602C1458.45,-187.04 1518.31,-169.407 1553.61,-159.009"/>
<polygon fill="midnightblue" stroke="midnightblue" points="1418.05,-195.292 1409.44,-201.475 1420.02,-202.007 1418.05,-195.292"/>
</g>
<!-- Node25 -->
<g id="node25" class="node"><title>Node25</title>
<g id="a_node25"><a xlink:href="erpc__rpmsg__linux__transport_8h_source.html" target="_top" xlink:title="erpc_rpmsg_linux_transport.h">
<polygon fill="white" stroke="black" points="1654,-140 1654,-159 1799,-159 1799,-140 1654,-140"/>
<text text-anchor="middle" x="1726.5" y="-147" font-family="Helvetica,sans-Serif" font-size="10.00">erpc_rpmsg_linux_transport.h</text>
</a>
</g>
</g>
<!-- Node1&#45;&gt;Node25 -->
<g id="edge26" class="edge"><title>Node1&#45;&gt;Node25</title>
<path fill="none" stroke="midnightblue" d="M1434.35,-200.922C1487.71,-191.902 1571.77,-177.629 1644.5,-165 1655.47,-163.096 1667.26,-161.025 1678.38,-159.06"/>
<polygon fill="midnightblue" stroke="midnightblue" points="1433.7,-197.481 1424.42,-202.598 1434.87,-204.383 1433.7,-197.481"/>
</g>
<!-- Node26 -->
<g id="node26" class="node"><title>Node26</title>
<g id="a_node26"><a xlink:href="erpc__rpmsg__lite__base__transport_8h.html" target="_top" xlink:title="erpc_rpmsg_lite_base\l_transport.h">
<polygon fill="white" stroke="black" points="2025.5,-134.5 2025.5,-164.5 2137.5,-164.5 2137.5,-134.5 2025.5,-134.5"/>
<text text-anchor="start" x="2033.5" y="-152.5" font-family="Helvetica,sans-Serif" font-size="10.00">erpc_rpmsg_lite_base</text>
<text text-anchor="middle" x="2081.5" y="-141.5" font-family="Helvetica,sans-Serif" font-size="10.00">_transport.h</text>
</a>
</g>
</g>
<!-- Node1&#45;&gt;Node26 -->
<g id="edge27" class="edge"><title>Node1&#45;&gt;Node26</title>
<path fill="none" stroke="midnightblue" d="M1434.17,-205.444C1563.8,-194.441 1893.02,-166.498 2025.25,-155.274"/>
<polygon fill="midnightblue" stroke="midnightblue" points="1433.75,-201.967 1424.09,-206.3 1434.35,-208.942 1433.75,-201.967"/>
</g>
<!-- Node3 -->
<g id="node3" class="node"><title>Node3</title>
<g id="a_node3"><a xlink:href="erpc__client__manager_8h.html" target="_top" xlink:title="erpc_client_manager.h">
<polygon fill="white" stroke="black" points="147,-73 147,-92 262,-92 262,-73 147,-73"/>
<text text-anchor="middle" x="204.5" y="-80" font-family="Helvetica,sans-Serif" font-size="10.00">erpc_client_manager.h</text>
</a>
</g>
</g>
<!-- Node2&#45;&gt;Node3 -->
<g id="edge2" class="edge"><title>Node2&#45;&gt;Node3</title>
<path fill="none" stroke="midnightblue" d="M306.455,-135.274C281.103,-122.4 243.311,-103.209 221.568,-92.1672"/>
<polygon fill="midnightblue" stroke="midnightblue" points="305.002,-138.461 315.503,-139.869 308.171,-132.22 305.002,-138.461"/>
</g>
<!-- Node2&#45;&gt;Node5 -->
<g id="edge7" class="edge"><title>Node2&#45;&gt;Node5</title>
<path fill="none" stroke="midnightblue" d="M284.623,-144.044C243.145,-138.407 182.841,-125.818 137.5,-98 106.28,-78.8459 81.0299,-41.9184 70.6303,-25.1552"/>
<polygon fill="midnightblue" stroke="midnightblue" points="284.38,-147.541 294.742,-145.332 285.264,-140.597 284.38,-147.541"/>
</g>
<!-- Node8 -->
<g id="node8" class="node"><title>Node8</title>
<g id="a_node8"><a xlink:href="erpc__basic__codec_8h.html" target="_top" xlink:title="erpc_basic_codec.h">
<polygon fill="white" stroke="black" points="280.5,-73 280.5,-92 384.5,-92 384.5,-73 280.5,-73"/>
<text text-anchor="middle" x="332.5" y="-80" font-family="Helvetica,sans-Serif" font-size="10.00">erpc_basic_codec.h</text>
</a>
</g>
</g>
<!-- Node2&#45;&gt;Node8 -->
<g id="edge8" class="edge"><title>Node2&#45;&gt;Node8</title>
<path fill="none" stroke="midnightblue" d="M332.5,-129.537C332.5,-117.17 332.5,-101.62 332.5,-92.1273"/>
<polygon fill="midnightblue" stroke="midnightblue" points="329,-129.734 332.5,-139.734 336,-129.734 329,-129.734"/>
</g>
<!-- Node9 -->
<g id="node9" class="node"><title>Node9</title>
<g id="a_node9"><a xlink:href="erpc__server_8h.html" target="_top" xlink:title="erpc_server.h">
<polygon fill="white" stroke="black" points="402.5,-73 402.5,-92 476.5,-92 476.5,-73 402.5,-73"/>
<text text-anchor="middle" x="439.5" y="-80" font-family="Helvetica,sans-Serif" font-size="10.00">erpc_server.h</text>
</a>
</g>
</g>
<!-- Node2&#45;&gt;Node9 -->
<g id="edge9" class="edge"><title>Node2&#45;&gt;Node9</title>
<path fill="none" stroke="midnightblue" d="M355.641,-134.442C376.831,-121.57 407.519,-102.927 425.298,-92.1273"/>
<polygon fill="midnightblue" stroke="midnightblue" points="353.66,-131.551 346.93,-139.734 357.294,-137.533 353.66,-131.551"/>
</g>
<!-- Node4 -->
<g id="node4" class="node"><title>Node4</title>
<g id="a_node4"><a xlink:href="erpc__arbitrated__client__manager_8h.html" target="_top" xlink:title="erpc_arbitrated_client\l_manager.h">
<polygon fill="white" stroke="black" points="149.5,-0.5 149.5,-30.5 259.5,-30.5 259.5,-0.5 149.5,-0.5"/>
<text text-anchor="start" x="157.5" y="-18.5" font-family="Helvetica,sans-Serif" font-size="10.00">erpc_arbitrated_client</text>
<text text-anchor="middle" x="204.5" y="-7.5" font-family="Helvetica,sans-Serif" font-size="10.00">_manager.h</text>
</a>
</g>
</g>
<!-- Node3&#45;&gt;Node4 -->
<g id="edge3" class="edge"><title>Node3&#45;&gt;Node4</title>
<path fill="none" stroke="midnightblue" d="M204.5,-62.4107C204.5,-52.222 204.5,-39.901 204.5,-30.589"/>
<polygon fill="midnightblue" stroke="midnightblue" points="201,-62.7338 204.5,-72.7338 208,-62.7338 201,-62.7338"/>
</g>
<!-- Node3&#45;&gt;Node5 -->
<g id="edge4" class="edge"><title>Node3&#45;&gt;Node5</title>
<path fill="none" stroke="midnightblue" d="M176.941,-68.6127C149.41,-55.7387 107.854,-36.3059 84.0345,-25.1672"/>
<polygon fill="midnightblue" stroke="midnightblue" points="175.501,-71.8029 186.042,-72.8685 178.466,-65.462 175.501,-71.8029"/>
</g>
<!-- Node6 -->
<g id="node6" class="node"><title>Node6</title>
<g id="a_node6"><a xlink:href="erpc__arbitrated__client__setup_8h.html" target="_top" xlink:title="erpc_arbitrated_client\l_setup.h">
<polygon fill="white" stroke="black" points="277.5,-0.5 277.5,-30.5 387.5,-30.5 387.5,-0.5 277.5,-0.5"/>
<text text-anchor="start" x="285.5" y="-18.5" font-family="Helvetica,sans-Serif" font-size="10.00">erpc_arbitrated_client</text>
<text text-anchor="middle" x="332.5" y="-7.5" font-family="Helvetica,sans-Serif" font-size="10.00">_setup.h</text>
</a>
</g>
</g>
<!-- Node3&#45;&gt;Node6 -->
<g id="edge5" class="edge"><title>Node3&#45;&gt;Node6</title>
<path fill="none" stroke="midnightblue" d="M230.702,-68.1944C252.233,-57.2607 282.658,-41.8102 304.632,-30.6516"/>
<polygon fill="midnightblue" stroke="midnightblue" points="228.829,-65.22 221.497,-72.8685 231.998,-71.4614 228.829,-65.22"/>
</g>
<!-- Node7 -->
<g id="node7" class="node"><title>Node7</title>
<g id="a_node7"><a xlink:href="erpc__client__setup_8h.html" target="_top" xlink:title="erpc_client_setup.h">
<polygon fill="white" stroke="black" points="406,-6 406,-25 507,-25 507,-6 406,-6"/>
<text text-anchor="middle" x="456.5" y="-13" font-family="Helvetica,sans-Serif" font-size="10.00">erpc_client_setup.h</text>
</a>
</g>
</g>
<!-- Node3&#45;&gt;Node7 -->
<g id="edge6" class="edge"><title>Node3&#45;&gt;Node7</title>
<path fill="none" stroke="midnightblue" d="M247.519,-70.4039C297.253,-57.5757 378.046,-36.7361 423.223,-25.0834"/>
<polygon fill="midnightblue" stroke="midnightblue" points="246.513,-67.0488 237.704,-72.9355 248.261,-73.8269 246.513,-67.0488"/>
</g>
<!-- Node10 -->
<g id="node10" class="node"><title>Node10</title>
<g id="a_node10"><a xlink:href="erpc__simple__server_8h.html" target="_top" xlink:title="erpc_simple_server.h">
<polygon fill="white" stroke="black" points="525.5,-6 525.5,-25 633.5,-25 633.5,-6 525.5,-6"/>
<text text-anchor="middle" x="579.5" y="-13" font-family="Helvetica,sans-Serif" font-size="10.00">erpc_simple_server.h</text>
</a>
</g>
</g>
<!-- Node9&#45;&gt;Node10 -->
<g id="edge10" class="edge"><title>Node9&#45;&gt;Node10</title>
<path fill="none" stroke="midnightblue" d="M467.257,-68.6127C494.986,-55.7387 536.841,-36.3059 560.832,-25.1672"/>
<polygon fill="midnightblue" stroke="midnightblue" points="465.687,-65.4828 458.091,-72.8685 468.635,-71.8319 465.687,-65.4828"/>
</g>
<!-- Node12 -->
<g id="node12" class="node"><title>Node12</title>
<g id="a_node12"><a xlink:href="erpc__dspi__master__transport_8h.html" target="_top" xlink:title="erpc_dspi_master_transport.h">
<polygon fill="white" stroke="black" points="494.5,-73 494.5,-92 640.5,-92 640.5,-73 494.5,-73"/>
<text text-anchor="middle" x="567.5" y="-80" font-family="Helvetica,sans-Serif" font-size="10.00">erpc_dspi_master_transport.h</text>
</a>
</g>
</g>
<!-- Node11&#45;&gt;Node12 -->
<g id="edge13" class="edge"><title>Node11&#45;&gt;Node12</title>
<path fill="none" stroke="midnightblue" d="M1097.19,-143.332C996.961,-135.666 808.84,-119.806 649.5,-98 637.325,-96.3338 624.195,-94.1755 612.086,-92.0356"/>
<polygon fill="midnightblue" stroke="midnightblue" points="1096.96,-146.825 1107.2,-144.093 1097.49,-139.845 1096.96,-146.825"/>
</g>
<!-- Node13 -->
<g id="node13" class="node"><title>Node13</title>
<g id="a_node13"><a xlink:href="erpc__dspi__slave__transport_8h.html" target="_top" xlink:title="erpc_dspi_slave_transport.h">
<polygon fill="white" stroke="black" points="659,-73 659,-92 796,-92 796,-73 659,-73"/>
<text text-anchor="middle" x="727.5" y="-80" font-family="Helvetica,sans-Serif" font-size="10.00">erpc_dspi_slave_transport.h</text>
</a>
</g>
</g>
<!-- Node11&#45;&gt;Node13 -->
<g id="edge14" class="edge"><title>Node11&#45;&gt;Node13</title>
<path fill="none" stroke="midnightblue" d="M1097.31,-139.571C1024.02,-130.15 906.572,-114.416 805.5,-98 794.488,-96.2114 782.635,-94.103 771.577,-92.0562"/>
<polygon fill="midnightblue" stroke="midnightblue" points="1096.99,-143.059 1107.36,-140.858 1097.88,-136.115 1096.99,-143.059"/>
</g>
<!-- Node14 -->
<g id="node14" class="node"><title>Node14</title>
<g id="a_node14"><a xlink:href="erpc__i2c__slave__transport_8h.html" target="_top" xlink:title="erpc_i2c_slave_transport.h">
<polygon fill="white" stroke="black" points="814.5,-73 814.5,-92 946.5,-92 946.5,-73 814.5,-73"/>
<text text-anchor="middle" x="880.5" y="-80" font-family="Helvetica,sans-Serif" font-size="10.00">erpc_i2c_slave_transport.h</text>
</a>
</g>
</g>
<!-- Node11&#45;&gt;Node14 -->
<g id="edge15" class="edge"><title>Node11&#45;&gt;Node14</title>
<path fill="none" stroke="midnightblue" d="M1120.75,-137.724C1064.04,-124.924 970.593,-103.833 918.531,-92.0834"/>
<polygon fill="midnightblue" stroke="midnightblue" points="1120.03,-141.148 1130.55,-139.936 1121.57,-134.32 1120.03,-141.148"/>
</g>
<!-- Node15 -->
<g id="node15" class="node"><title>Node15</title>
<g id="a_node15"><a xlink:href="erpc__serial__transport_8h.html" target="_top" xlink:title="erpc_serial_transport.h">
<polygon fill="white" stroke="black" points="964.5,-73 964.5,-92 1080.5,-92 1080.5,-73 964.5,-73"/>
<text text-anchor="middle" x="1022.5" y="-80" font-family="Helvetica,sans-Serif" font-size="10.00">erpc_serial_transport.h</text>
</a>
</g>
</g>
<!-- Node11&#45;&gt;Node15 -->
<g id="edge16" class="edge"><title>Node11&#45;&gt;Node15</title>
<path fill="none" stroke="midnightblue" d="M1139.93,-135.781C1111.02,-122.909 1067.1,-103.355 1041.97,-92.1672"/>
<polygon fill="midnightblue" stroke="midnightblue" points="1138.55,-138.999 1149.11,-139.869 1141.4,-132.604 1138.55,-138.999"/>
</g>
<!-- Node16 -->
<g id="node16" class="node"><title>Node16</title>
<g id="a_node16"><a xlink:href="erpc__spi__master__transport_8h.html" target="_top" xlink:title="erpc_spi_master_transport.h">
<polygon fill="white" stroke="black" points="1098.5,-73 1098.5,-92 1238.5,-92 1238.5,-73 1098.5,-73"/>
<text text-anchor="middle" x="1168.5" y="-80" font-family="Helvetica,sans-Serif" font-size="10.00">erpc_spi_master_transport.h</text>
</a>
</g>
</g>
<!-- Node11&#45;&gt;Node16 -->
<g id="edge17" class="edge"><title>Node11&#45;&gt;Node16</title>
<path fill="none" stroke="midnightblue" d="M1168.5,-129.537C1168.5,-117.17 1168.5,-101.62 1168.5,-92.1273"/>
<polygon fill="midnightblue" stroke="midnightblue" points="1165,-129.734 1168.5,-139.734 1172,-129.734 1165,-129.734"/>
</g>
<!-- Node17 -->
<g id="node17" class="node"><title>Node17</title>
<g id="a_node17"><a xlink:href="erpc__spi__slave__transport_8h.html" target="_top" xlink:title="erpc_spi_slave_transport.h">
<polygon fill="white" stroke="black" points="1256.5,-73 1256.5,-92 1388.5,-92 1388.5,-73 1256.5,-73"/>
<text text-anchor="middle" x="1322.5" y="-80" font-family="Helvetica,sans-Serif" font-size="10.00">erpc_spi_slave_transport.h</text>
</a>
</g>
</g>
<!-- Node11&#45;&gt;Node17 -->
<g id="edge18" class="edge"><title>Node11&#45;&gt;Node17</title>
<path fill="none" stroke="midnightblue" d="M1198.24,-135.948C1228.73,-123.079 1275.34,-103.403 1301.97,-92.1672"/>
<polygon fill="midnightblue" stroke="midnightblue" points="1196.8,-132.755 1188.95,-139.869 1199.52,-139.204 1196.8,-132.755"/>
</g>
<!-- Node18 -->
<g id="node18" class="node"><title>Node18</title>
<g id="a_node18"><a xlink:href="erpc__spidev__master__transport_8h.html" target="_top" xlink:title="erpc_spidev_master\l_transport.h">
<polygon fill="white" stroke="black" points="1407,-67.5 1407,-97.5 1510,-97.5 1510,-67.5 1407,-67.5"/>
<text text-anchor="start" x="1415" y="-85.5" font-family="Helvetica,sans-Serif" font-size="10.00">erpc_spidev_master</text>
<text text-anchor="middle" x="1458.5" y="-74.5" font-family="Helvetica,sans-Serif" font-size="10.00">_transport.h</text>
</a>
</g>
</g>
<!-- Node11&#45;&gt;Node18 -->
<g id="edge19" class="edge"><title>Node11&#45;&gt;Node18</title>
<path fill="none" stroke="midnightblue" d="M1218.06,-137.815C1264.48,-127.749 1335.76,-112.145 1397.5,-98 1400.58,-97.2951 1403.74,-96.5638 1406.93,-95.8211"/>
<polygon fill="midnightblue" stroke="midnightblue" points="1217.29,-134.4 1208.26,-139.938 1218.77,-141.242 1217.29,-134.4"/>
</g>
<!-- Node19 -->
<g id="node19" class="node"><title>Node19</title>
<g id="a_node19"><a xlink:href="erpc__tcp__transport_8h.html" target="_top" xlink:title="erpc_tcp_transport.h">
<polygon fill="white" stroke="black" points="1528.5,-73 1528.5,-92 1634.5,-92 1634.5,-73 1528.5,-73"/>
<text text-anchor="middle" x="1581.5" y="-80" font-family="Helvetica,sans-Serif" font-size="10.00">erpc_tcp_transport.h</text>
</a>
</g>
</g>
<!-- Node11&#45;&gt;Node19 -->
<g id="edge20" class="edge"><title>Node11&#45;&gt;Node19</title>
<path fill="none" stroke="midnightblue" d="M1217.2,-137.914C1224.33,-136.51 1231.59,-135.158 1238.5,-134 1362.24,-113.26 1394.99,-120.098 1518.5,-98 1527.89,-96.3198 1537.99,-94.1568 1547.29,-92.0169"/>
<polygon fill="midnightblue" stroke="midnightblue" points="1216.02,-134.582 1206.91,-139.993 1217.41,-141.443 1216.02,-134.582"/>
</g>
<!-- Node20 -->
<g id="node20" class="node"><title>Node20</title>
<g id="a_node20"><a xlink:href="erpc__uart__cmsis__transport_8h.html" target="_top" xlink:title="erpc_uart_cmsis_transport.h">
<polygon fill="white" stroke="black" points="1652.5,-73 1652.5,-92 1792.5,-92 1792.5,-73 1652.5,-73"/>
<text text-anchor="middle" x="1722.5" y="-80" font-family="Helvetica,sans-Serif" font-size="10.00">erpc_uart_cmsis_transport.h</text>
</a>
</g>
</g>
<!-- Node11&#45;&gt;Node20 -->
<g id="edge21" class="edge"><title>Node11&#45;&gt;Node20</title>
<path fill="none" stroke="midnightblue" d="M1215.63,-137.963C1223.25,-136.483 1231.07,-135.096 1238.5,-134 1417.28,-107.629 1464.44,-122.338 1643.5,-98 1655.38,-96.3849 1668.2,-94.2186 1679.98,-92.0536"/>
<polygon fill="midnightblue" stroke="midnightblue" points="1214.89,-134.541 1205.78,-139.946 1216.27,-141.404 1214.89,-134.541"/>
</g>
<!-- Node21 -->
<g id="node21" class="node"><title>Node21</title>
<g id="a_node21"><a xlink:href="erpc__usb__cdc__transport_8h.html" target="_top" xlink:title="erpc_usb_cdc_transport.h">
<polygon fill="white" stroke="black" points="1811,-73 1811,-92 1940,-92 1940,-73 1811,-73"/>
<text text-anchor="middle" x="1875.5" y="-80" font-family="Helvetica,sans-Serif" font-size="10.00">erpc_usb_cdc_transport.h</text>
</a>
</g>
</g>
<!-- Node11&#45;&gt;Node21 -->
<g id="edge22" class="edge"><title>Node11&#45;&gt;Node21</title>
<path fill="none" stroke="midnightblue" d="M1214.55,-138.005C1222.5,-136.466 1230.72,-135.05 1238.5,-134 1486.98,-100.488 1552.84,-130.174 1801.5,-98 1813.06,-96.5049 1825.52,-94.2968 1836.87,-92.0522"/>
<polygon fill="midnightblue" stroke="midnightblue" points="1213.77,-134.59 1204.66,-139.999 1215.16,-141.452 1213.77,-134.59"/>
</g>
<!-- Node27 -->
<g id="node27" class="node"><title>Node27</title>
<g id="a_node27"><a xlink:href="erpc__rpmsg__lite__rtos__transport_8h.html" target="_top" xlink:title="erpc_rpmsg_lite_rtos\l_transport.h">
<polygon fill="white" stroke="black" points="1958,-67.5 1958,-97.5 2065,-97.5 2065,-67.5 1958,-67.5"/>
<text text-anchor="start" x="1966" y="-85.5" font-family="Helvetica,sans-Serif" font-size="10.00">erpc_rpmsg_lite_rtos</text>
<text text-anchor="middle" x="2011.5" y="-74.5" font-family="Helvetica,sans-Serif" font-size="10.00">_transport.h</text>
</a>
</g>
</g>
<!-- Node26&#45;&gt;Node27 -->
<g id="edge28" class="edge"><title>Node26&#45;&gt;Node27</title>
<path fill="none" stroke="midnightblue" d="M2058.68,-127.311C2048.18,-117.561 2036.01,-106.259 2026.66,-97.5765"/>
<polygon fill="midnightblue" stroke="midnightblue" points="2056.6,-130.156 2066.31,-134.396 2061.36,-125.027 2056.6,-130.156"/>
</g>
<!-- Node28 -->
<g id="node28" class="node"><title>Node28</title>
<g id="a_node28"><a xlink:href="erpc__rpmsg__lite__transport_8h.html" target="_top" xlink:title="erpc_rpmsg_lite_transport.h">
<polygon fill="white" stroke="black" points="2083,-73 2083,-92 2220,-92 2220,-73 2083,-73"/>
<text text-anchor="middle" x="2151.5" y="-80" font-family="Helvetica,sans-Serif" font-size="10.00">erpc_rpmsg_lite_transport.h</text>
</a>
</g>
</g>
<!-- Node26&#45;&gt;Node28 -->
<g id="edge29" class="edge"><title>Node26&#45;&gt;Node28</title>
<path fill="none" stroke="midnightblue" d="M2104.29,-127.335C2117.15,-115.401 2132.51,-101.136 2142.14,-92.1945"/>
<polygon fill="midnightblue" stroke="midnightblue" points="2101.64,-125.027 2096.69,-134.396 2106.4,-130.156 2101.64,-125.027"/>
</g>
<!-- Node29 -->
<g id="node29" class="node"><title>Node29</title>
<g id="a_node29"><a xlink:href="erpc__rpmsg__tty__rtos__transport_8h.html" target="_top" xlink:title="erpc_rpmsg_tty_rtos\l_transport.h">
<polygon fill="white" stroke="black" points="2238.5,-67.5 2238.5,-97.5 2344.5,-97.5 2344.5,-67.5 2238.5,-67.5"/>
<text text-anchor="start" x="2246.5" y="-85.5" font-family="Helvetica,sans-Serif" font-size="10.00">erpc_rpmsg_tty_rtos</text>
<text text-anchor="middle" x="2291.5" y="-74.5" font-family="Helvetica,sans-Serif" font-size="10.00">_transport.h</text>
</a>
</g>
</g>
<!-- Node26&#45;&gt;Node29 -->
<g id="edge30" class="edge"><title>Node26&#45;&gt;Node29</title>
<path fill="none" stroke="midnightblue" d="M2136.6,-131.444C2170.64,-120.908 2213.8,-107.549 2245.91,-97.6109"/>
<polygon fill="midnightblue" stroke="midnightblue" points="2135.33,-128.176 2126.81,-134.476 2137.4,-134.863 2135.33,-128.176"/>
</g>
</g>
</svg>
