<?xml version="1.0" encoding="UTF-8" standalone="no"?>
<!DOCTYPE svg PUBLIC "-//W3C//DTD SVG 1.1//EN"
 "http://www.w3.org/Graphics/SVG/1.1/DTD/svg11.dtd">
<!-- Generated by graphviz version 2.38.0 (20140413.2041)
 -->
<!-- Title: erpc_framed_transport.h Pages: 1 -->
<svg width="1304pt" height="95pt"
 viewBox="0.00 0.00 1303.50 95.00" xmlns="http://www.w3.org/2000/svg" xmlns:xlink="http://www.w3.org/1999/xlink">
<g id="graph0" class="graph" transform="scale(1 1) rotate(0) translate(4 91)">
<title>erpc_framed_transport.h</title>
<polygon fill="white" stroke="none" points="-4,4 -4,-91 1299.5,-91 1299.5,4 -4,4"/>
<!-- Node1 -->
<g id="node1" class="node"><title>Node1</title>
<polygon fill="#bfbfbf" stroke="black" points="617,-67.5 617,-86.5 739,-86.5 739,-67.5 617,-67.5"/>
<text text-anchor="middle" x="678" y="-74.5" font-family="Helvetica,sans-Serif" font-size="10.00">erpc_framed_transport.h</text>
</g>
<!-- Node2 -->
<g id="node2" class="node"><title>Node2</title>
<g id="a_node2"><a xlink:href="erpc__dspi__master__transport_8h.html" target="_top" xlink:title="erpc_dspi_master_transport.h">
<polygon fill="white" stroke="black" points="0,-6 0,-25 146,-25 146,-6 0,-6"/>
<text text-anchor="middle" x="73" y="-13" font-family="Helvetica,sans-Serif" font-size="10.00">erpc_dspi_master_transport.h</text>
</a>
</g>
</g>
<!-- Node1&#45;&gt;Node2 -->
<g id="edge1" class="edge"><title>Node1&#45;&gt;Node2</title>
<path fill="none" stroke="midnightblue" d="M606.538,-71.8772C505.628,-65.5954 315.742,-52.0845 155,-31 142.673,-29.383 129.374,-27.2161 117.147,-25.0511"/>
<polygon fill="midnightblue" stroke="midnightblue" points="606.419,-75.3764 616.615,-72.4988 606.85,-68.3897 606.419,-75.3764"/>
</g>
<!-- Node3 -->
<g id="node3" class="node"><title>Node3</title>
<g id="a_node3"><a xlink:href="erpc__dspi__slave__transport_8h.html" target="_top" xlink:title="erpc_dspi_slave_transport.h">
<polygon fill="white" stroke="black" points="164.5,-6 164.5,-25 301.5,-25 301.5,-6 164.5,-6"/>
<text text-anchor="middle" x="233" y="-13" font-family="Helvetica,sans-Serif" font-size="10.00">erpc_dspi_slave_transport.h</text>
</a>
</g>
</g>
<!-- Node1&#45;&gt;Node3 -->
<g id="edge2" class="edge"><title>Node1&#45;&gt;Node3</title>
<path fill="none" stroke="midnightblue" d="M606.653,-68.5725C532.57,-60.551 413.403,-46.7809 311,-31 299.701,-29.2588 287.53,-27.1224 276.239,-25.0302"/>
<polygon fill="midnightblue" stroke="midnightblue" points="606.483,-72.0744 616.8,-69.6658 607.233,-65.1146 606.483,-72.0744"/>
</g>
<!-- Node4 -->
<g id="node4" class="node"><title>Node4</title>
<g id="a_node4"><a xlink:href="erpc__serial__transport_8h.html" target="_top" xlink:title="erpc_serial_transport.h">
<polygon fill="white" stroke="black" points="320,-6 320,-25 436,-25 436,-6 320,-6"/>
<text text-anchor="middle" x="378" y="-13" font-family="Helvetica,sans-Serif" font-size="10.00">erpc_serial_transport.h</text>
</a>
</g>
</g>
<!-- Node1&#45;&gt;Node4 -->
<g id="edge3" class="edge"><title>Node1&#45;&gt;Node4</title>
<path fill="none" stroke="midnightblue" d="M621.933,-65.5353C574.693,-56.6312 505.352,-43.357 445,-31 435.789,-29.1141 425.883,-27.0113 416.587,-25.0051"/>
<polygon fill="midnightblue" stroke="midnightblue" points="621.487,-69.0128 631.962,-67.4227 622.782,-62.1336 621.487,-69.0128"/>
</g>
<!-- Node5 -->
<g id="node5" class="node"><title>Node5</title>
<g id="a_node5"><a xlink:href="erpc__spi__master__transport_8h.html" target="_top" xlink:title="erpc_spi_master_transport.h">
<polygon fill="white" stroke="black" points="454,-6 454,-25 594,-25 594,-6 454,-6"/>
<text text-anchor="middle" x="524" y="-13" font-family="Helvetica,sans-Serif" font-size="10.00">erpc_spi_master_transport.h</text>
</a>
</g>
</g>
<!-- Node1&#45;&gt;Node5 -->
<g id="edge4" class="edge"><title>Node1&#45;&gt;Node5</title>
<path fill="none" stroke="midnightblue" d="M646.378,-63.7824C616.451,-52.2199 572.307,-35.1641 546.024,-25.0091"/>
<polygon fill="midnightblue" stroke="midnightblue" points="645.346,-67.1358 655.936,-67.4751 647.869,-60.6062 645.346,-67.1358"/>
</g>
<!-- Node6 -->
<g id="node6" class="node"><title>Node6</title>
<g id="a_node6"><a xlink:href="erpc__spi__slave__transport_8h.html" target="_top" xlink:title="erpc_spi_slave_transport.h">
<polygon fill="white" stroke="black" points="612,-6 612,-25 744,-25 744,-6 612,-6"/>
<text text-anchor="middle" x="678" y="-13" font-family="Helvetica,sans-Serif" font-size="10.00">erpc_spi_slave_transport.h</text>
</a>
</g>
</g>
<!-- Node1&#45;&gt;Node6 -->
<g id="edge5" class="edge"><title>Node1&#45;&gt;Node6</title>
<path fill="none" stroke="midnightblue" d="M678,-57.3165C678,-46.4962 678,-33.398 678,-25.0091"/>
<polygon fill="midnightblue" stroke="midnightblue" points="674.5,-57.4751 678,-67.4751 681.5,-57.4751 674.5,-57.4751"/>
</g>
<!-- Node7 -->
<g id="node7" class="node"><title>Node7</title>
<g id="a_node7"><a xlink:href="erpc__spidev__master__transport_8h.html" target="_top" xlink:title="erpc_spidev_master\l_transport.h">
<polygon fill="white" stroke="black" points="762.5,-0.5 762.5,-30.5 865.5,-30.5 865.5,-0.5 762.5,-0.5"/>
<text text-anchor="start" x="770.5" y="-18.5" font-family="Helvetica,sans-Serif" font-size="10.00">erpc_spidev_master</text>
<text text-anchor="middle" x="814" y="-7.5" font-family="Helvetica,sans-Serif" font-size="10.00">_transport.h</text>
</a>
</g>
</g>
<!-- Node1&#45;&gt;Node7 -->
<g id="edge6" class="edge"><title>Node1&#45;&gt;Node7</title>
<path fill="none" stroke="midnightblue" d="M706.662,-63.4605C728.69,-53.823 759.114,-40.5127 781.947,-30.523"/>
<polygon fill="midnightblue" stroke="midnightblue" points="705.244,-60.2603 697.485,-67.4751 708.05,-66.6734 705.244,-60.2603"/>
</g>
<!-- Node8 -->
<g id="node8" class="node"><title>Node8</title>
<g id="a_node8"><a xlink:href="erpc__tcp__transport_8h.html" target="_top" xlink:title="erpc_tcp_transport.h">
<polygon fill="white" stroke="black" points="884,-6 884,-25 990,-25 990,-6 884,-6"/>
<text text-anchor="middle" x="937" y="-13" font-family="Helvetica,sans-Serif" font-size="10.00">erpc_tcp_transport.h</text>
</a>
</g>
</g>
<!-- Node1&#45;&gt;Node8 -->
<g id="edge7" class="edge"><title>Node1&#45;&gt;Node8</title>
<path fill="none" stroke="midnightblue" d="M725.763,-65.1622C765.669,-56.09 824.061,-42.7744 875,-31 883.293,-29.0831 892.207,-27.0075 900.617,-25.0421"/>
<polygon fill="midnightblue" stroke="midnightblue" points="724.755,-61.802 715.78,-67.4311 726.307,-68.6279 724.755,-61.802"/>
</g>
<!-- Node9 -->
<g id="node9" class="node"><title>Node9</title>
<g id="a_node9"><a xlink:href="erpc__uart__cmsis__transport_8h.html" target="_top" xlink:title="erpc_uart_cmsis_transport.h">
<polygon fill="white" stroke="black" points="1008,-6 1008,-25 1148,-25 1148,-6 1008,-6"/>
<text text-anchor="middle" x="1078" y="-13" font-family="Helvetica,sans-Serif" font-size="10.00">erpc_uart_cmsis_transport.h</text>
</a>
</g>
</g>
<!-- Node1&#45;&gt;Node9 -->
<g id="edge8" class="edge"><title>Node1&#45;&gt;Node9</title>
<path fill="none" stroke="midnightblue" d="M749.212,-66.8944C814.347,-58.3576 913.313,-44.8635 999,-31 1010.15,-29.196 1022.15,-27.082 1033.35,-25.0347"/>
<polygon fill="midnightblue" stroke="midnightblue" points="748.518,-63.4552 739.056,-68.2212 749.425,-70.3962 748.518,-63.4552"/>
</g>
<!-- Node10 -->
<g id="node10" class="node"><title>Node10</title>
<g id="a_node10"><a xlink:href="erpc__usb__cdc__transport_8h.html" target="_top" xlink:title="erpc_usb_cdc_transport.h">
<polygon fill="white" stroke="black" points="1166.5,-6 1166.5,-25 1295.5,-25 1295.5,-6 1166.5,-6"/>
<text text-anchor="middle" x="1231" y="-13" font-family="Helvetica,sans-Serif" font-size="10.00">erpc_usb_cdc_transport.h</text>
</a>
</g>
</g>
<!-- Node1&#45;&gt;Node10 -->
<g id="edge9" class="edge"><title>Node1&#45;&gt;Node10</title>
<path fill="none" stroke="midnightblue" d="M749.325,-71.5319C843.14,-65.1448 1012.98,-51.8221 1157,-31 1168.14,-29.389 1180.15,-27.224 1191.18,-25.059"/>
<polygon fill="midnightblue" stroke="midnightblue" points="748.842,-68.0564 739.1,-72.221 749.313,-75.0405 748.842,-68.0564"/>
</g>
</g>
</svg>
