<?xml version="1.0" encoding="UTF-8" standalone="no"?>
<!DOCTYPE svg PUBLIC "-//W3C//DTD SVG 1.1//EN"
 "http://www.w3.org/Graphics/SVG/1.1/DTD/svg11.dtd">
<!-- Generated by graphviz version 2.38.0 (20140413.2041)
 -->
<!-- Title: erpc_mu_transport.h Pages: 1 -->
<svg width="597pt" height="252pt"
 viewBox="0.00 0.00 596.50 252.00" xmlns="http://www.w3.org/2000/svg" xmlns:xlink="http://www.w3.org/1999/xlink">
<g id="graph0" class="graph" transform="scale(1 1) rotate(0) translate(4 248)">
<title>erpc_mu_transport.h</title>
<polygon fill="white" stroke="none" points="-4,4 -4,-248 592.5,-248 592.5,4 -4,4"/>
<!-- Node1 -->
<g id="node1" class="node"><title>Node1</title>
<polygon fill="#bfbfbf" stroke="black" points="256,-224.5 256,-243.5 362,-243.5 362,-224.5 256,-224.5"/>
<text text-anchor="middle" x="309" y="-231.5" font-family="Helvetica,sans-Serif" font-size="10.00">erpc_mu_transport.h</text>
</g>
<!-- Node2 -->
<g id="node2" class="node"><title>Node2</title>
<g id="a_node2"><a xlink:href="erpc__config__internal_8h_source.html" target="_top" xlink:title="erpc_config_internal.h">
<polygon fill="white" stroke="black" points="45.5,-112.5 45.5,-131.5 156.5,-131.5 156.5,-112.5 45.5,-112.5"/>
<text text-anchor="middle" x="101" y="-119.5" font-family="Helvetica,sans-Serif" font-size="10.00">erpc_config_internal.h</text>
</a>
</g>
</g>
<!-- Node1&#45;&gt;Node2 -->
<g id="edge1" class="edge"><title>Node1&#45;&gt;Node2</title>
<path fill="none" stroke="midnightblue" d="M255.665,-231.419C217.139,-227.674 165.944,-217.018 131,-188 116.828,-176.231 109.01,-156.301 104.939,-141.605"/>
<polygon fill="midnightblue" stroke="midnightblue" points="108.273,-140.502 102.513,-131.609 101.47,-142.153 108.273,-140.502"/>
</g>
<!-- Node5 -->
<g id="node5" class="node"><title>Node5</title>
<g id="a_node5"><a xlink:href="erpc__threading_8h.html" target="_top" xlink:title="erpc_threading.h">
<polygon fill="white" stroke="black" points="140.5,-168.5 140.5,-187.5 229.5,-187.5 229.5,-168.5 140.5,-168.5"/>
<text text-anchor="middle" x="185" y="-175.5" font-family="Helvetica,sans-Serif" font-size="10.00">erpc_threading.h</text>
</a>
</g>
</g>
<!-- Node1&#45;&gt;Node5 -->
<g id="edge4" class="edge"><title>Node1&#45;&gt;Node5</title>
<path fill="none" stroke="midnightblue" d="M289.352,-224.444C269.035,-215.596 237.097,-201.687 213.902,-191.586"/>
<polygon fill="midnightblue" stroke="midnightblue" points="215.122,-188.3 204.556,-187.516 212.327,-194.718 215.122,-188.3"/>
</g>
<!-- Node7 -->
<g id="node7" class="node"><title>Node7</title>
<g id="a_node7"><a xlink:href="erpc__message__buffer_8h.html" target="_top" xlink:title="erpc_message_buffer.h">
<polygon fill="white" stroke="black" points="214.5,-112.5 214.5,-131.5 331.5,-131.5 331.5,-112.5 214.5,-112.5"/>
<text text-anchor="middle" x="273" y="-119.5" font-family="Helvetica,sans-Serif" font-size="10.00">erpc_message_buffer.h</text>
</a>
</g>
</g>
<!-- Node1&#45;&gt;Node7 -->
<g id="edge7" class="edge"><title>Node1&#45;&gt;Node7</title>
<path fill="none" stroke="midnightblue" d="M305.543,-224.444C301.959,-215.443 296.292,-200.831 292,-188 286.814,-172.495 281.655,-154.655 278.025,-141.592"/>
<polygon fill="midnightblue" stroke="midnightblue" points="281.387,-140.617 275.368,-131.898 274.636,-142.468 281.387,-140.617"/>
</g>
<!-- Node10 -->
<g id="node10" class="node"><title>Node10</title>
<g id="a_node10"><a xlink:href="erpc__transport_8h.html" target="_top" xlink:title="erpc_transport.h">
<polygon fill="white" stroke="black" points="301.5,-168.5 301.5,-187.5 388.5,-187.5 388.5,-168.5 301.5,-168.5"/>
<text text-anchor="middle" x="345" y="-175.5" font-family="Helvetica,sans-Serif" font-size="10.00">erpc_transport.h</text>
</a>
</g>
</g>
<!-- Node1&#45;&gt;Node10 -->
<g id="edge12" class="edge"><title>Node1&#45;&gt;Node10</title>
<path fill="none" stroke="midnightblue" d="M314.945,-224.083C319.977,-216.534 327.337,-205.495 333.513,-196.23"/>
<polygon fill="midnightblue" stroke="midnightblue" points="336.531,-198.013 339.166,-187.751 330.707,-194.13 336.531,-198.013"/>
</g>
<!-- Node13 -->
<g id="node13" class="node"><title>Node13</title>
<polygon fill="white" stroke="#bfbfbf" points="407,-168.5 407,-187.5 517,-187.5 517,-168.5 407,-168.5"/>
<text text-anchor="middle" x="462" y="-175.5" font-family="Helvetica,sans-Serif" font-size="10.00">fsl_device_registers.h</text>
</g>
<!-- Node1&#45;&gt;Node13 -->
<g id="edge18" class="edge"><title>Node1&#45;&gt;Node13</title>
<path fill="none" stroke="midnightblue" d="M333.243,-224.444C358.871,-215.399 399.485,-201.064 428.238,-190.916"/>
<polygon fill="midnightblue" stroke="midnightblue" points="429.605,-194.145 437.87,-187.516 427.275,-187.544 429.605,-194.145"/>
</g>
<!-- Node14 -->
<g id="node14" class="node"><title>Node14</title>
<polygon fill="white" stroke="#bfbfbf" points="535.5,-168.5 535.5,-187.5 588.5,-187.5 588.5,-168.5 535.5,-168.5"/>
<text text-anchor="middle" x="562" y="-175.5" font-family="Helvetica,sans-Serif" font-size="10.00">fsl_mu.h</text>
</g>
<!-- Node1&#45;&gt;Node14 -->
<g id="edge19" class="edge"><title>Node1&#45;&gt;Node14</title>
<path fill="none" stroke="midnightblue" d="M352.755,-224.467C394.517,-216.203 459.448,-203.04 525.168,-188.116"/>
<polygon fill="midnightblue" stroke="midnightblue" points="526.323,-191.443 535.293,-185.805 524.764,-184.619 526.323,-191.443"/>
</g>
<!-- Node3 -->
<g id="node3" class="node"><title>Node3</title>
<g id="a_node3"><a xlink:href="erpc__config_8h.html" target="_top" xlink:title="erpc_config.h">
<polygon fill="white" stroke="black" points="0,-56.5 0,-75.5 74,-75.5 74,-56.5 0,-56.5"/>
<text text-anchor="middle" x="37" y="-63.5" font-family="Helvetica,sans-Serif" font-size="10.00">erpc_config.h</text>
</a>
</g>
</g>
<!-- Node2&#45;&gt;Node3 -->
<g id="edge2" class="edge"><title>Node2&#45;&gt;Node3</title>
<path fill="none" stroke="midnightblue" d="M90.7173,-112.324C81.1637,-104.263 66.7203,-92.0765 55.2157,-82.3695"/>
<polygon fill="midnightblue" stroke="midnightblue" points="57.3698,-79.6076 47.4698,-75.8339 52.8557,-84.9577 57.3698,-79.6076"/>
</g>
<!-- Node4 -->
<g id="node4" class="node"><title>Node4</title>
<polygon fill="white" stroke="#bfbfbf" points="92.5,-56.5 92.5,-75.5 141.5,-75.5 141.5,-56.5 92.5,-56.5"/>
<text text-anchor="middle" x="117" y="-63.5" font-family="Helvetica,sans-Serif" font-size="10.00">cassert</text>
</g>
<!-- Node2&#45;&gt;Node4 -->
<g id="edge3" class="edge"><title>Node2&#45;&gt;Node4</title>
<path fill="none" stroke="midnightblue" d="M103.642,-112.083C105.786,-104.849 108.879,-94.4087 111.549,-85.3968"/>
<polygon fill="midnightblue" stroke="midnightblue" points="114.922,-86.3334 114.407,-75.7511 108.21,-84.3447 114.922,-86.3334"/>
</g>
<!-- Node5&#45;&gt;Node2 -->
<g id="edge5" class="edge"><title>Node5&#45;&gt;Node2</title>
<path fill="none" stroke="midnightblue" d="M171.504,-168.324C158.4,-159.9 138.288,-146.971 122.893,-137.074"/>
<polygon fill="midnightblue" stroke="midnightblue" points="124.767,-134.118 114.463,-131.655 120.982,-140.006 124.767,-134.118"/>
</g>
<!-- Node6 -->
<g id="node6" class="node"><title>Node6</title>
<polygon fill="white" stroke="#bfbfbf" points="266.5,-0.5 266.5,-19.5 315.5,-19.5 315.5,-0.5 266.5,-0.5"/>
<text text-anchor="middle" x="291" y="-7.5" font-family="Helvetica,sans-Serif" font-size="10.00">stdint.h</text>
</g>
<!-- Node5&#45;&gt;Node6 -->
<g id="edge6" class="edge"><title>Node5&#45;&gt;Node6</title>
<path fill="none" stroke="midnightblue" d="M186.77,-168.471C191.511,-147.343 206.207,-91.7088 236,-56 245.604,-44.4886 258.483,-33.7664 269.364,-25.6778"/>
<polygon fill="midnightblue" stroke="midnightblue" points="271.48,-28.467 277.561,-19.7908 267.397,-22.7814 271.48,-28.467"/>
</g>
<!-- Node7&#45;&gt;Node6 -->
<g id="edge11" class="edge"><title>Node7&#45;&gt;Node6</title>
<path fill="none" stroke="midnightblue" d="M263.627,-112.249C251.532,-99.8406 233.048,-76.3746 242,-56 247.39,-43.732 257.958,-33.3414 267.904,-25.6461"/>
<polygon fill="midnightblue" stroke="midnightblue" points="270.252,-28.2697 276.339,-19.598 266.172,-22.5811 270.252,-28.2697"/>
</g>
<!-- Node8 -->
<g id="node8" class="node"><title>Node8</title>
<g id="a_node8"><a xlink:href="erpc__common_8h_source.html" target="_top" xlink:title="erpc_common.h">
<polygon fill="white" stroke="black" points="317,-56.5 317,-75.5 403,-75.5 403,-56.5 317,-56.5"/>
<text text-anchor="middle" x="360" y="-63.5" font-family="Helvetica,sans-Serif" font-size="10.00">erpc_common.h</text>
</a>
</g>
</g>
<!-- Node7&#45;&gt;Node8 -->
<g id="edge8" class="edge"><title>Node7&#45;&gt;Node8</title>
<path fill="none" stroke="midnightblue" d="M286.978,-112.324C300.55,-103.9 321.38,-90.9709 337.325,-81.0741"/>
<polygon fill="midnightblue" stroke="midnightblue" points="339.406,-83.9019 346.057,-75.6545 335.714,-77.9544 339.406,-83.9019"/>
</g>
<!-- Node9 -->
<g id="node9" class="node"><title>Node9</title>
<polygon fill="white" stroke="#bfbfbf" points="251,-56.5 251,-75.5 299,-75.5 299,-56.5 251,-56.5"/>
<text text-anchor="middle" x="275" y="-63.5" font-family="Helvetica,sans-Serif" font-size="10.00">cstddef</text>
</g>
<!-- Node7&#45;&gt;Node9 -->
<g id="edge10" class="edge"><title>Node7&#45;&gt;Node9</title>
<path fill="none" stroke="midnightblue" d="M273.33,-112.083C273.592,-105.006 273.968,-94.8611 274.297,-85.9865"/>
<polygon fill="midnightblue" stroke="midnightblue" points="277.803,-85.8738 274.676,-75.7511 270.808,-85.6147 277.803,-85.8738"/>
</g>
<!-- Node8&#45;&gt;Node6 -->
<g id="edge9" class="edge"><title>Node8&#45;&gt;Node6</title>
<path fill="none" stroke="midnightblue" d="M348.914,-56.324C338.514,-48.1849 322.739,-35.8395 310.278,-26.0874"/>
<polygon fill="midnightblue" stroke="midnightblue" points="312.32,-23.2407 302.288,-19.8339 308.006,-28.7533 312.32,-23.2407"/>
</g>
<!-- Node10&#45;&gt;Node7 -->
<g id="edge16" class="edge"><title>Node10&#45;&gt;Node7</title>
<path fill="none" stroke="midnightblue" d="M333.432,-168.324C322.58,-160.185 306.119,-147.839 293.117,-138.087"/>
<polygon fill="midnightblue" stroke="midnightblue" points="294.879,-135.034 284.779,-131.834 290.679,-140.634 294.879,-135.034"/>
</g>
<!-- Node10&#45;&gt;Node8 -->
<g id="edge13" class="edge"><title>Node10&#45;&gt;Node8</title>
<path fill="none" stroke="midnightblue" d="M346.177,-168.368C348.598,-150.617 354.182,-109.666 357.464,-85.5974"/>
<polygon fill="midnightblue" stroke="midnightblue" points="360.945,-85.9726 358.828,-75.5914 354.009,-85.0268 360.945,-85.9726"/>
</g>
<!-- Node11 -->
<g id="node11" class="node"><title>Node11</title>
<g id="a_node11"><a xlink:href="erpc__crc16_8h.html" target="_top" xlink:title="erpc_crc16.h">
<polygon fill="white" stroke="black" points="388.5,-112.5 388.5,-131.5 461.5,-131.5 461.5,-112.5 388.5,-112.5"/>
<text text-anchor="middle" x="425" y="-119.5" font-family="Helvetica,sans-Serif" font-size="10.00">erpc_crc16.h</text>
</a>
</g>
</g>
<!-- Node10&#45;&gt;Node11 -->
<g id="edge14" class="edge"><title>Node10&#45;&gt;Node11</title>
<path fill="none" stroke="midnightblue" d="M357.853,-168.324C370.216,-159.979 389.13,-147.212 403.737,-137.352"/>
<polygon fill="midnightblue" stroke="midnightblue" points="405.848,-140.15 412.179,-131.655 401.932,-134.348 405.848,-140.15"/>
</g>
<!-- Node12 -->
<g id="node12" class="node"><title>Node12</title>
<polygon fill="white" stroke="#bfbfbf" points="480,-112.5 480,-131.5 526,-131.5 526,-112.5 480,-112.5"/>
<text text-anchor="middle" x="503" y="-119.5" font-family="Helvetica,sans-Serif" font-size="10.00">cstring</text>
</g>
<!-- Node10&#45;&gt;Node12 -->
<g id="edge17" class="edge"><title>Node10&#45;&gt;Node12</title>
<path fill="none" stroke="midnightblue" d="M370.036,-168.444C397.163,-159.172 440.553,-144.343 470.343,-134.161"/>
<polygon fill="midnightblue" stroke="midnightblue" points="471.55,-137.448 479.881,-130.902 469.286,-130.824 471.55,-137.448"/>
</g>
<!-- Node11&#45;&gt;Node6 -->
<g id="edge15" class="edge"><title>Node11&#45;&gt;Node6</title>
<path fill="none" stroke="midnightblue" d="M425.754,-112.291C426.444,-98.6424 425.739,-72.1125 412,-56 390.465,-30.7458 353.357,-19.651 325.898,-14.7848"/>
<polygon fill="midnightblue" stroke="midnightblue" points="326.322,-11.3085 315.899,-13.2081 325.232,-18.223 326.322,-11.3085"/>
</g>
</g>
</svg>
