<?xml version="1.0" encoding="UTF-8" standalone="no"?>
<!DOCTYPE svg PUBLIC "-//W3C//DTD SVG 1.1//EN"
 "http://www.w3.org/Graphics/SVG/1.1/DTD/svg11.dtd">
<!-- Generated by graphviz version 2.38.0 (20140413.2041)
 -->
<!-- Title: erpc_rpmsg_lite_rtos_transport.h Pages: 1 -->
<svg width="357pt" height="330pt"
 viewBox="0.00 0.00 356.50 330.00" xmlns="http://www.w3.org/2000/svg" xmlns:xlink="http://www.w3.org/1999/xlink">
<g id="graph0" class="graph" transform="scale(1 1) rotate(0) translate(4 326)">
<title>erpc_rpmsg_lite_rtos_transport.h</title>
<polygon fill="white" stroke="none" points="-4,4 -4,-326 352.5,-326 352.5,4 -4,4"/>
<!-- Node1 -->
<g id="node1" class="node"><title>Node1</title>
<polygon fill="#bfbfbf" stroke="black" points="141.5,-291.5 141.5,-321.5 248.5,-321.5 248.5,-291.5 141.5,-291.5"/>
<text text-anchor="start" x="149.5" y="-309.5" font-family="Helvetica,sans-Serif" font-size="10.00">erpc_rpmsg_lite_rtos</text>
<text text-anchor="middle" x="195" y="-298.5" font-family="Helvetica,sans-Serif" font-size="10.00">_transport.h</text>
</g>
<!-- Node2 -->
<g id="node2" class="node"><title>Node2</title>
<g id="a_node2"><a xlink:href="erpc__message__buffer_8h.html" target="_top" xlink:title="erpc_message_buffer.h">
<polygon fill="white" stroke="black" points="1.5,-112.5 1.5,-131.5 118.5,-131.5 118.5,-112.5 1.5,-112.5"/>
<text text-anchor="middle" x="60" y="-119.5" font-family="Helvetica,sans-Serif" font-size="10.00">erpc_message_buffer.h</text>
</a>
</g>
</g>
<!-- Node1&#45;&gt;Node2 -->
<g id="edge1" class="edge"><title>Node1&#45;&gt;Node2</title>
<path fill="none" stroke="midnightblue" d="M142.036,-291.5C122.374,-283.777 101.575,-272.155 88,-255 61.797,-221.887 58.6119,-169.964 59.0212,-142.135"/>
<polygon fill="midnightblue" stroke="midnightblue" points="62.5301,-141.918 59.36,-131.808 55.5339,-141.688 62.5301,-141.918"/>
</g>
<!-- Node6 -->
<g id="node6" class="node"><title>Node6</title>
<g id="a_node6"><a xlink:href="erpc__rpmsg__lite__base__transport_8h.html" target="_top" xlink:title="erpc_rpmsg_lite_base\l_transport.h">
<polygon fill="white" stroke="black" points="97,-224.5 97,-254.5 209,-254.5 209,-224.5 97,-224.5"/>
<text text-anchor="start" x="105" y="-242.5" font-family="Helvetica,sans-Serif" font-size="10.00">erpc_rpmsg_lite_base</text>
<text text-anchor="middle" x="153" y="-231.5" font-family="Helvetica,sans-Serif" font-size="10.00">_transport.h</text>
</a>
</g>
</g>
<!-- Node1&#45;&gt;Node6 -->
<g id="edge6" class="edge"><title>Node1&#45;&gt;Node6</title>
<path fill="none" stroke="midnightblue" d="M185.887,-291.396C180.548,-283.134 173.681,-272.507 167.604,-263.102"/>
<polygon fill="midnightblue" stroke="midnightblue" points="170.463,-261.076 162.096,-254.577 164.583,-264.875 170.463,-261.076"/>
</g>
<!-- Node10 -->
<g id="node10" class="node"><title>Node10</title>
<polygon fill="white" stroke="#bfbfbf" points="209,-168.5 209,-187.5 279,-187.5 279,-168.5 209,-168.5"/>
<text text-anchor="middle" x="244" y="-175.5" font-family="Helvetica,sans-Serif" font-size="10.00">rpmsg_lite.h</text>
</g>
<!-- Node1&#45;&gt;Node10 -->
<g id="edge14" class="edge"><title>Node1&#45;&gt;Node10</title>
<path fill="none" stroke="midnightblue" d="M202.024,-291.077C206.788,-281.063 213.087,-267.354 218,-255 225.713,-235.605 233.294,-212.911 238.262,-197.404"/>
<polygon fill="midnightblue" stroke="midnightblue" points="241.705,-198.123 241.381,-187.533 235.03,-196.014 241.705,-198.123"/>
</g>
<!-- Node11 -->
<g id="node11" class="node"><title>Node11</title>
<polygon fill="white" stroke="#bfbfbf" points="265.5,-230 265.5,-249 348.5,-249 348.5,-230 265.5,-230"/>
<text text-anchor="middle" x="307" y="-237" font-family="Helvetica,sans-Serif" font-size="10.00">rpmsg_queue.h</text>
</g>
<!-- Node1&#45;&gt;Node11 -->
<g id="edge15" class="edge"><title>Node1&#45;&gt;Node11</title>
<path fill="none" stroke="midnightblue" d="M219.302,-291.396C238.345,-280.344 264.68,-265.061 283.511,-254.132"/>
<polygon fill="midnightblue" stroke="midnightblue" points="285.45,-257.054 292.342,-249.007 281.936,-250.999 285.45,-257.054"/>
</g>
<!-- Node3 -->
<g id="node3" class="node"><title>Node3</title>
<g id="a_node3"><a xlink:href="erpc__common_8h_source.html" target="_top" xlink:title="erpc_common.h">
<polygon fill="white" stroke="black" points="104,-56.5 104,-75.5 190,-75.5 190,-56.5 104,-56.5"/>
<text text-anchor="middle" x="147" y="-63.5" font-family="Helvetica,sans-Serif" font-size="10.00">erpc_common.h</text>
</a>
</g>
</g>
<!-- Node2&#45;&gt;Node3 -->
<g id="edge2" class="edge"><title>Node2&#45;&gt;Node3</title>
<path fill="none" stroke="midnightblue" d="M73.9781,-112.324C87.5496,-103.9 108.38,-90.9709 124.325,-81.0741"/>
<polygon fill="midnightblue" stroke="midnightblue" points="126.406,-83.9019 133.057,-75.6545 122.714,-77.9544 126.406,-83.9019"/>
</g>
<!-- Node4 -->
<g id="node4" class="node"><title>Node4</title>
<polygon fill="white" stroke="#bfbfbf" points="122.5,-0.5 122.5,-19.5 171.5,-19.5 171.5,-0.5 122.5,-0.5"/>
<text text-anchor="middle" x="147" y="-7.5" font-family="Helvetica,sans-Serif" font-size="10.00">stdint.h</text>
</g>
<!-- Node2&#45;&gt;Node4 -->
<g id="edge5" class="edge"><title>Node2&#45;&gt;Node4</title>
<path fill="none" stroke="midnightblue" d="M63.4257,-112.409C68.8755,-99.3755 80.4109,-74.201 95,-56 104.1,-44.6466 116.321,-33.9043 126.629,-25.7643"/>
<polygon fill="midnightblue" stroke="midnightblue" points="128.902,-28.4324 134.727,-19.5826 124.655,-22.8683 128.902,-28.4324"/>
</g>
<!-- Node5 -->
<g id="node5" class="node"><title>Node5</title>
<polygon fill="white" stroke="#bfbfbf" points="0,-56.5 0,-75.5 48,-75.5 48,-56.5 0,-56.5"/>
<text text-anchor="middle" x="24" y="-63.5" font-family="Helvetica,sans-Serif" font-size="10.00">cstddef</text>
</g>
<!-- Node2&#45;&gt;Node5 -->
<g id="edge4" class="edge"><title>Node2&#45;&gt;Node5</title>
<path fill="none" stroke="midnightblue" d="M54.0553,-112.083C49.0227,-104.534 41.6632,-93.4948 35.4865,-84.2298"/>
<polygon fill="midnightblue" stroke="midnightblue" points="38.2933,-82.1301 29.8341,-75.7511 32.4689,-86.0131 38.2933,-82.1301"/>
</g>
<!-- Node3&#45;&gt;Node4 -->
<g id="edge3" class="edge"><title>Node3&#45;&gt;Node4</title>
<path fill="none" stroke="midnightblue" d="M147,-56.083C147,-49.0059 147,-38.8611 147,-29.9865"/>
<polygon fill="midnightblue" stroke="midnightblue" points="150.5,-29.751 147,-19.7511 143.5,-29.7511 150.5,-29.751"/>
</g>
<!-- Node7 -->
<g id="node7" class="node"><title>Node7</title>
<g id="a_node7"><a xlink:href="erpc__transport_8h.html" target="_top" xlink:title="erpc_transport.h">
<polygon fill="white" stroke="black" points="103.5,-168.5 103.5,-187.5 190.5,-187.5 190.5,-168.5 103.5,-168.5"/>
<text text-anchor="middle" x="147" y="-175.5" font-family="Helvetica,sans-Serif" font-size="10.00">erpc_transport.h</text>
</a>
</g>
</g>
<!-- Node6&#45;&gt;Node7 -->
<g id="edge7" class="edge"><title>Node6&#45;&gt;Node7</title>
<path fill="none" stroke="midnightblue" d="M151.578,-224.399C150.778,-216.466 149.769,-206.458 148.902,-197.858"/>
<polygon fill="midnightblue" stroke="midnightblue" points="152.359,-197.256 147.873,-187.658 145.394,-197.959 152.359,-197.256"/>
</g>
<!-- Node6&#45;&gt;Node10 -->
<g id="edge13" class="edge"><title>Node6&#45;&gt;Node10</title>
<path fill="none" stroke="midnightblue" d="M174.566,-224.399C188.88,-215.04 207.612,-202.792 222.011,-193.377"/>
<polygon fill="midnightblue" stroke="midnightblue" points="224.304,-196.06 230.759,-187.658 220.474,-190.201 224.304,-196.06"/>
</g>
<!-- Node7&#45;&gt;Node2 -->
<g id="edge11" class="edge"><title>Node7&#45;&gt;Node2</title>
<path fill="none" stroke="midnightblue" d="M133.022,-168.324C119.45,-159.9 98.6198,-146.971 82.675,-137.074"/>
<polygon fill="midnightblue" stroke="midnightblue" points="84.2856,-133.954 73.9434,-131.655 80.594,-139.902 84.2856,-133.954"/>
</g>
<!-- Node7&#45;&gt;Node3 -->
<g id="edge8" class="edge"><title>Node7&#45;&gt;Node3</title>
<path fill="none" stroke="midnightblue" d="M147,-168.368C147,-150.617 147,-109.666 147,-85.5974"/>
<polygon fill="midnightblue" stroke="midnightblue" points="150.5,-85.5914 147,-75.5914 143.5,-85.5915 150.5,-85.5914"/>
</g>
<!-- Node8 -->
<g id="node8" class="node"><title>Node8</title>
<g id="a_node8"><a xlink:href="erpc__crc16_8h.html" target="_top" xlink:title="erpc_crc16.h">
<polygon fill="white" stroke="black" points="210.5,-56.5 210.5,-75.5 283.5,-75.5 283.5,-56.5 210.5,-56.5"/>
<text text-anchor="middle" x="247" y="-63.5" font-family="Helvetica,sans-Serif" font-size="10.00">erpc_crc16.h</text>
</a>
</g>
</g>
<!-- Node7&#45;&gt;Node8 -->
<g id="edge9" class="edge"><title>Node7&#45;&gt;Node8</title>
<path fill="none" stroke="midnightblue" d="M174.751,-168.478C193.015,-161.487 216.044,-149.802 230,-132 240.449,-118.672 244.514,-99.555 246.075,-85.5018"/>
<polygon fill="midnightblue" stroke="midnightblue" points="249.565,-85.7695 246.865,-75.5245 242.586,-85.2172 249.565,-85.7695"/>
</g>
<!-- Node9 -->
<g id="node9" class="node"><title>Node9</title>
<polygon fill="white" stroke="#bfbfbf" points="175,-112.5 175,-131.5 221,-131.5 221,-112.5 175,-112.5"/>
<text text-anchor="middle" x="198" y="-119.5" font-family="Helvetica,sans-Serif" font-size="10.00">cstring</text>
</g>
<!-- Node7&#45;&gt;Node9 -->
<g id="edge12" class="edge"><title>Node7&#45;&gt;Node9</title>
<path fill="none" stroke="midnightblue" d="M155.422,-168.083C162.848,-160.22 173.852,-148.569 182.812,-139.081"/>
<polygon fill="midnightblue" stroke="midnightblue" points="185.413,-141.424 189.735,-131.751 180.324,-136.618 185.413,-141.424"/>
</g>
<!-- Node8&#45;&gt;Node4 -->
<g id="edge10" class="edge"><title>Node8&#45;&gt;Node4</title>
<path fill="none" stroke="midnightblue" d="M230.933,-56.324C215.042,-47.7428 190.493,-34.486 172.042,-24.5224"/>
<polygon fill="midnightblue" stroke="midnightblue" points="173.489,-21.3264 163.027,-19.6545 170.163,-27.4857 173.489,-21.3264"/>
</g>
</g>
</svg>
