<?xml version="1.0" encoding="UTF-8" standalone="no"?>
<!DOCTYPE svg PUBLIC "-//W3C//DTD SVG 1.1//EN"
 "http://www.w3.org/Graphics/SVG/1.1/DTD/svg11.dtd">
<!-- Generated by graphviz version 2.38.0 (20140413.2041)
 -->
<!-- Title: erpc_rpmsg_lite_transport.h Pages: 1 -->
<svg width="619pt" height="319pt"
 viewBox="0.00 0.00 619.00 319.00" xmlns="http://www.w3.org/2000/svg" xmlns:xlink="http://www.w3.org/1999/xlink">
<g id="graph0" class="graph" transform="scale(1 1) rotate(0) translate(4 315)">
<title>erpc_rpmsg_lite_transport.h</title>
<polygon fill="white" stroke="none" points="-4,4 -4,-315 615,-315 615,4 -4,4"/>
<!-- Node1 -->
<g id="node1" class="node"><title>Node1</title>
<polygon fill="#bfbfbf" stroke="black" points="242.5,-291.5 242.5,-310.5 379.5,-310.5 379.5,-291.5 242.5,-291.5"/>
<text text-anchor="middle" x="311" y="-298.5" font-family="Helvetica,sans-Serif" font-size="10.00">erpc_rpmsg_lite_transport.h</text>
</g>
<!-- Node2 -->
<g id="node2" class="node"><title>Node2</title>
<g id="a_node2"><a xlink:href="erpc__config__internal_8h_source.html" target="_top" xlink:title="erpc_config_internal.h">
<polygon fill="white" stroke="black" points="65.5,-168.5 65.5,-187.5 176.5,-187.5 176.5,-168.5 65.5,-168.5"/>
<text text-anchor="middle" x="121" y="-175.5" font-family="Helvetica,sans-Serif" font-size="10.00">erpc_config_internal.h</text>
</a>
</g>
</g>
<!-- Node1&#45;&gt;Node2 -->
<g id="edge1" class="edge"><title>Node1&#45;&gt;Node2</title>
<path fill="none" stroke="midnightblue" d="M280.935,-291.462C257.461,-283.984 224.638,-271.696 199,-255 173.366,-238.307 148.977,-212.356 134.499,-195.518"/>
<polygon fill="midnightblue" stroke="midnightblue" points="136.991,-193.044 127.878,-187.641 131.633,-197.548 136.991,-193.044"/>
</g>
<!-- Node5 -->
<g id="node5" class="node"><title>Node5</title>
<g id="a_node5"><a xlink:href="erpc__message__buffer_8h.html" target="_top" xlink:title="erpc_message_buffer.h">
<polygon fill="white" stroke="black" points="159.5,-112.5 159.5,-131.5 276.5,-131.5 276.5,-112.5 159.5,-112.5"/>
<text text-anchor="middle" x="218" y="-119.5" font-family="Helvetica,sans-Serif" font-size="10.00">erpc_message_buffer.h</text>
</a>
</g>
</g>
<!-- Node1&#45;&gt;Node5 -->
<g id="edge4" class="edge"><title>Node1&#45;&gt;Node5</title>
<path fill="none" stroke="midnightblue" d="M291.459,-291.455C276.682,-283.973 257.101,-271.683 246,-255 222.607,-219.845 218.275,-168.755 217.759,-141.599"/>
<polygon fill="midnightblue" stroke="midnightblue" points="221.259,-141.53 217.728,-131.541 214.259,-141.552 221.259,-141.53"/>
</g>
<!-- Node9 -->
<g id="node9" class="node"><title>Node9</title>
<g id="a_node9"><a xlink:href="erpc__rpmsg__lite__base__transport_8h.html" target="_top" xlink:title="erpc_rpmsg_lite_base\l_transport.h">
<polygon fill="white" stroke="black" points="255,-224.5 255,-254.5 367,-254.5 367,-224.5 255,-224.5"/>
<text text-anchor="start" x="263" y="-242.5" font-family="Helvetica,sans-Serif" font-size="10.00">erpc_rpmsg_lite_base</text>
<text text-anchor="middle" x="311" y="-231.5" font-family="Helvetica,sans-Serif" font-size="10.00">_transport.h</text>
</a>
</g>
</g>
<!-- Node1&#45;&gt;Node9 -->
<g id="edge9" class="edge"><title>Node1&#45;&gt;Node9</title>
<path fill="none" stroke="midnightblue" d="M311,-291.475C311,-284.471 311,-274.192 311,-264.696"/>
<polygon fill="midnightblue" stroke="midnightblue" points="314.5,-264.523 311,-254.523 307.5,-264.523 314.5,-264.523"/>
</g>
<!-- Node13 -->
<g id="node13" class="node"><title>Node13</title>
<polygon fill="white" stroke="#bfbfbf" points="475,-168.5 475,-187.5 545,-187.5 545,-168.5 475,-168.5"/>
<text text-anchor="middle" x="510" y="-175.5" font-family="Helvetica,sans-Serif" font-size="10.00">rpmsg_lite.h</text>
</g>
<!-- Node1&#45;&gt;Node13 -->
<g id="edge21" class="edge"><title>Node1&#45;&gt;Node13</title>
<path fill="none" stroke="midnightblue" d="M324.993,-291.492C358.88,-270.887 445.607,-218.154 487.148,-192.895"/>
<polygon fill="midnightblue" stroke="midnightblue" points="489.03,-195.847 495.756,-187.661 485.393,-189.866 489.03,-195.847"/>
</g>
<!-- Node15 -->
<g id="node15" class="node"><title>Node15</title>
<g id="a_node15"><a xlink:href="erpc__static__queue_8h.html" target="_top" xlink:title="erpc_static_queue.h">
<polygon fill="white" stroke="black" points="507,-230 507,-249 611,-249 611,-230 507,-230"/>
<text text-anchor="middle" x="559" y="-237" font-family="Helvetica,sans-Serif" font-size="10.00">erpc_static_queue.h</text>
</a>
</g>
</g>
<!-- Node1&#45;&gt;Node15 -->
<g id="edge19" class="edge"><title>Node1&#45;&gt;Node15</title>
<path fill="none" stroke="midnightblue" d="M346.532,-291.475C390.546,-280.915 465.589,-262.911 513.698,-251.369"/>
<polygon fill="midnightblue" stroke="midnightblue" points="514.626,-254.746 523.534,-249.009 512.993,-247.939 514.626,-254.746"/>
</g>
<!-- Node3 -->
<g id="node3" class="node"><title>Node3</title>
<g id="a_node3"><a xlink:href="erpc__config_8h.html" target="_top" xlink:title="erpc_config.h">
<polygon fill="white" stroke="black" points="0,-112.5 0,-131.5 74,-131.5 74,-112.5 0,-112.5"/>
<text text-anchor="middle" x="37" y="-119.5" font-family="Helvetica,sans-Serif" font-size="10.00">erpc_config.h</text>
</a>
</g>
</g>
<!-- Node2&#45;&gt;Node3 -->
<g id="edge2" class="edge"><title>Node2&#45;&gt;Node3</title>
<path fill="none" stroke="midnightblue" d="M107.504,-168.324C94.4004,-159.9 74.2881,-146.971 58.8931,-137.074"/>
<polygon fill="midnightblue" stroke="midnightblue" points="60.767,-134.118 50.4626,-131.655 56.9817,-140.006 60.767,-134.118"/>
</g>
<!-- Node4 -->
<g id="node4" class="node"><title>Node4</title>
<polygon fill="white" stroke="#bfbfbf" points="92.5,-112.5 92.5,-131.5 141.5,-131.5 141.5,-112.5 92.5,-112.5"/>
<text text-anchor="middle" x="117" y="-119.5" font-family="Helvetica,sans-Serif" font-size="10.00">cassert</text>
</g>
<!-- Node2&#45;&gt;Node4 -->
<g id="edge3" class="edge"><title>Node2&#45;&gt;Node4</title>
<path fill="none" stroke="midnightblue" d="M120.339,-168.083C119.815,-161.006 119.064,-150.861 118.406,-141.986"/>
<polygon fill="midnightblue" stroke="midnightblue" points="121.877,-141.465 117.648,-131.751 114.897,-141.982 121.877,-141.465"/>
</g>
<!-- Node6 -->
<g id="node6" class="node"><title>Node6</title>
<g id="a_node6"><a xlink:href="erpc__common_8h_source.html" target="_top" xlink:title="erpc_common.h">
<polygon fill="white" stroke="black" points="246,-56.5 246,-75.5 332,-75.5 332,-56.5 246,-56.5"/>
<text text-anchor="middle" x="289" y="-63.5" font-family="Helvetica,sans-Serif" font-size="10.00">erpc_common.h</text>
</a>
</g>
</g>
<!-- Node5&#45;&gt;Node6 -->
<g id="edge5" class="edge"><title>Node5&#45;&gt;Node6</title>
<path fill="none" stroke="midnightblue" d="M229.407,-112.324C240.109,-104.185 256.341,-91.8395 269.163,-82.0874"/>
<polygon fill="midnightblue" stroke="midnightblue" points="271.544,-84.6734 277.385,-75.8339 267.307,-79.1018 271.544,-84.6734"/>
</g>
<!-- Node7 -->
<g id="node7" class="node"><title>Node7</title>
<polygon fill="white" stroke="#bfbfbf" points="264.5,-0.5 264.5,-19.5 313.5,-19.5 313.5,-0.5 264.5,-0.5"/>
<text text-anchor="middle" x="289" y="-7.5" font-family="Helvetica,sans-Serif" font-size="10.00">stdint.h</text>
</g>
<!-- Node5&#45;&gt;Node7 -->
<g id="edge8" class="edge"><title>Node5&#45;&gt;Node7</title>
<path fill="none" stroke="midnightblue" d="M218.946,-112.359C220.712,-99.2617 225.437,-74.0042 237,-56 244.661,-44.071 256.404,-33.5262 266.793,-25.6482"/>
<polygon fill="midnightblue" stroke="midnightblue" points="269.008,-28.3666 275.082,-19.6861 264.92,-22.6839 269.008,-28.3666"/>
</g>
<!-- Node8 -->
<g id="node8" class="node"><title>Node8</title>
<polygon fill="white" stroke="#bfbfbf" points="142,-56.5 142,-75.5 190,-75.5 190,-56.5 142,-56.5"/>
<text text-anchor="middle" x="166" y="-63.5" font-family="Helvetica,sans-Serif" font-size="10.00">cstddef</text>
</g>
<!-- Node5&#45;&gt;Node8 -->
<g id="edge7" class="edge"><title>Node5&#45;&gt;Node8</title>
<path fill="none" stroke="midnightblue" d="M209.413,-112.083C201.841,-104.22 190.622,-92.5688 181.486,-83.0813"/>
<polygon fill="midnightblue" stroke="midnightblue" points="183.885,-80.5266 174.427,-75.7511 178.842,-85.3821 183.885,-80.5266"/>
</g>
<!-- Node6&#45;&gt;Node7 -->
<g id="edge6" class="edge"><title>Node6&#45;&gt;Node7</title>
<path fill="none" stroke="midnightblue" d="M289,-56.083C289,-49.0059 289,-38.8611 289,-29.9865"/>
<polygon fill="midnightblue" stroke="midnightblue" points="292.5,-29.751 289,-19.7511 285.5,-29.7511 292.5,-29.751"/>
</g>
<!-- Node9&#45;&gt;Node2 -->
<g id="edge16" class="edge"><title>Node9&#45;&gt;Node2</title>
<path fill="none" stroke="midnightblue" d="M265.973,-224.399C233.141,-214.118 189.179,-200.351 158.303,-190.682"/>
<polygon fill="midnightblue" stroke="midnightblue" points="158.958,-187.219 148.369,-187.571 156.866,-193.9 158.958,-187.219"/>
</g>
<!-- Node10 -->
<g id="node10" class="node"><title>Node10</title>
<g id="a_node10"><a xlink:href="erpc__transport_8h.html" target="_top" xlink:title="erpc_transport.h">
<polygon fill="white" stroke="black" points="241.5,-168.5 241.5,-187.5 328.5,-187.5 328.5,-168.5 241.5,-168.5"/>
<text text-anchor="middle" x="285" y="-175.5" font-family="Helvetica,sans-Serif" font-size="10.00">erpc_transport.h</text>
</a>
</g>
</g>
<!-- Node9&#45;&gt;Node10 -->
<g id="edge10" class="edge"><title>Node9&#45;&gt;Node10</title>
<path fill="none" stroke="midnightblue" d="M304.838,-224.399C301.255,-216.199 296.703,-205.781 292.863,-196.994"/>
<polygon fill="midnightblue" stroke="midnightblue" points="295.995,-195.42 288.783,-187.658 289.58,-198.223 295.995,-195.42"/>
</g>
<!-- Node9&#45;&gt;Node13 -->
<g id="edge17" class="edge"><title>Node9&#45;&gt;Node13</title>
<path fill="none" stroke="midnightblue" d="M357.908,-224.475C392.69,-214.075 439.503,-200.078 471.965,-190.372"/>
<polygon fill="midnightblue" stroke="midnightblue" points="472.972,-193.724 481.55,-187.506 470.967,-187.018 472.972,-193.724"/>
</g>
<!-- Node14 -->
<g id="node14" class="node"><title>Node14</title>
<polygon fill="white" stroke="#bfbfbf" points="347,-168.5 347,-187.5 457,-187.5 457,-168.5 347,-168.5"/>
<text text-anchor="middle" x="402" y="-175.5" font-family="Helvetica,sans-Serif" font-size="10.00">rpmsg_env_specific.h</text>
</g>
<!-- Node9&#45;&gt;Node14 -->
<g id="edge18" class="edge"><title>Node9&#45;&gt;Node14</title>
<path fill="none" stroke="midnightblue" d="M332.566,-224.399C346.88,-215.04 365.612,-202.792 380.011,-193.377"/>
<polygon fill="midnightblue" stroke="midnightblue" points="382.304,-196.06 388.759,-187.658 378.474,-190.201 382.304,-196.06"/>
</g>
<!-- Node10&#45;&gt;Node5 -->
<g id="edge14" class="edge"><title>Node10&#45;&gt;Node5</title>
<path fill="none" stroke="midnightblue" d="M274.235,-168.324C264.234,-160.263 249.113,-148.077 237.07,-138.369"/>
<polygon fill="midnightblue" stroke="midnightblue" points="238.943,-135.384 228.961,-131.834 234.55,-140.834 238.943,-135.384"/>
</g>
<!-- Node10&#45;&gt;Node6 -->
<g id="edge11" class="edge"><title>Node10&#45;&gt;Node6</title>
<path fill="none" stroke="midnightblue" d="M285.314,-168.368C285.959,-150.617 287.448,-109.666 288.324,-85.5974"/>
<polygon fill="midnightblue" stroke="midnightblue" points="291.822,-85.712 288.688,-75.5914 284.826,-85.4576 291.822,-85.712"/>
</g>
<!-- Node11 -->
<g id="node11" class="node"><title>Node11</title>
<g id="a_node11"><a xlink:href="erpc__crc16_8h.html" target="_top" xlink:title="erpc_crc16.h">
<polygon fill="white" stroke="black" points="350.5,-56.5 350.5,-75.5 423.5,-75.5 423.5,-56.5 350.5,-56.5"/>
<text text-anchor="middle" x="387" y="-63.5" font-family="Helvetica,sans-Serif" font-size="10.00">erpc_crc16.h</text>
</a>
</g>
</g>
<!-- Node10&#45;&gt;Node11 -->
<g id="edge12" class="edge"><title>Node10&#45;&gt;Node11</title>
<path fill="none" stroke="midnightblue" d="M293.004,-168.368C310.06,-149.974 350.214,-106.671 372.116,-83.0519"/>
<polygon fill="midnightblue" stroke="midnightblue" points="374.8,-85.3039 379.033,-75.5914 369.668,-80.5443 374.8,-85.3039"/>
</g>
<!-- Node12 -->
<g id="node12" class="node"><title>Node12</title>
<polygon fill="white" stroke="#bfbfbf" points="458,-112.5 458,-131.5 504,-131.5 504,-112.5 458,-112.5"/>
<text text-anchor="middle" x="481" y="-119.5" font-family="Helvetica,sans-Serif" font-size="10.00">cstring</text>
</g>
<!-- Node10&#45;&gt;Node12 -->
<g id="edge15" class="edge"><title>Node10&#45;&gt;Node12</title>
<path fill="none" stroke="midnightblue" d="M316.057,-168.444C352.07,-158.522 411.187,-142.234 448.005,-132.09"/>
<polygon fill="midnightblue" stroke="midnightblue" points="449.05,-135.433 457.761,-129.403 447.19,-128.685 449.05,-135.433"/>
</g>
<!-- Node11&#45;&gt;Node7 -->
<g id="edge13" class="edge"><title>Node11&#45;&gt;Node7</title>
<path fill="none" stroke="midnightblue" d="M371.255,-56.324C355.681,-47.7428 331.623,-34.486 313.541,-24.5224"/>
<polygon fill="midnightblue" stroke="midnightblue" points="315.154,-21.4152 304.706,-19.6545 311.776,-27.546 315.154,-21.4152"/>
</g>
<!-- Node15&#45;&gt;Node12 -->
<g id="edge20" class="edge"><title>Node15&#45;&gt;Node12</title>
<path fill="none" stroke="midnightblue" d="M560.735,-229.948C563.106,-215.892 565.824,-187.521 554,-168 544.889,-152.958 528.643,-142.216 513.787,-135.009"/>
<polygon fill="midnightblue" stroke="midnightblue" points="514.872,-131.66 504.314,-130.773 512.015,-138.05 514.872,-131.66"/>
</g>
</g>
</svg>
