<?xml version="1.0" encoding="UTF-8" standalone="no"?>
<!DOCTYPE svg PUBLIC "-//W3C//DTD SVG 1.1//EN"
 "http://www.w3.org/Graphics/SVG/1.1/DTD/svg11.dtd">
<!-- Generated by graphviz version 2.38.0 (20140413.2041)
 -->
<!-- Title: erpc_config.h Pages: 1 -->
<svg width="2266pt" height="285pt"
 viewBox="0.00 0.00 2266.00 285.00" xmlns="http://www.w3.org/2000/svg" xmlns:xlink="http://www.w3.org/1999/xlink">
<g id="graph0" class="graph" transform="scale(1 1) rotate(0) translate(4 281)">
<title>erpc_config.h</title>
<polygon fill="white" stroke="none" points="-4,4 -4,-281 2262,-281 2262,4 -4,4"/>
<!-- Node1 -->
<g id="node1" class="node"><title>Node1</title>
<polygon fill="#bfbfbf" stroke="black" points="1478.5,-257.5 1478.5,-276.5 1552.5,-276.5 1552.5,-257.5 1478.5,-257.5"/>
<text text-anchor="middle" x="1515.5" y="-264.5" font-family="Helvetica,sans-Serif" font-size="10.00">erpc_config.h</text>
</g>
<!-- Node2 -->
<g id="node2" class="node"><title>Node2</title>
<g id="a_node2"><a xlink:href="erpc__config__internal_8h_source.html" target="_top" xlink:title="erpc_config_internal.h">
<polygon fill="white" stroke="black" points="1460,-201.5 1460,-220.5 1571,-220.5 1571,-201.5 1460,-201.5"/>
<text text-anchor="middle" x="1515.5" y="-208.5" font-family="Helvetica,sans-Serif" font-size="10.00">erpc_config_internal.h</text>
</a>
</g>
</g>
<!-- Node1&#45;&gt;Node2 -->
<g id="edge1" class="edge"><title>Node1&#45;&gt;Node2</title>
<path fill="none" stroke="midnightblue" d="M1515.5,-246.805C1515.5,-237.91 1515.5,-227.78 1515.5,-220.751"/>
<polygon fill="midnightblue" stroke="midnightblue" points="1512,-247.083 1515.5,-257.083 1519,-247.083 1512,-247.083"/>
</g>
<!-- Node3 -->
<g id="node3" class="node"><title>Node3</title>
<g id="a_node3"><a xlink:href="erpc__client__server__common_8h.html" target="_top" xlink:title="erpc_client_server\l_common.h">
<polygon fill="white" stroke="black" points="1582,-134.5 1582,-164.5 1677,-164.5 1677,-134.5 1582,-134.5"/>
<text text-anchor="start" x="1590" y="-152.5" font-family="Helvetica,sans-Serif" font-size="10.00">erpc_client_server</text>
<text text-anchor="middle" x="1629.5" y="-141.5" font-family="Helvetica,sans-Serif" font-size="10.00">_common.h</text>
</a>
</g>
</g>
<!-- Node2&#45;&gt;Node3 -->
<g id="edge2" class="edge"><title>Node2&#45;&gt;Node3</title>
<path fill="none" stroke="midnightblue" d="M1540.78,-196.807C1559.13,-187.228 1583.92,-174.289 1602.63,-164.523"/>
<polygon fill="midnightblue" stroke="midnightblue" points="1539.08,-193.745 1531.83,-201.475 1542.32,-199.951 1539.08,-193.745"/>
</g>
<!-- Node4 -->
<g id="node4" class="node"><title>Node4</title>
<g id="a_node4"><a xlink:href="erpc__client__manager_8h.html" target="_top" xlink:title="erpc_client_manager.h">
<polygon fill="white" stroke="black" points="1562,-73 1562,-92 1677,-92 1677,-73 1562,-73"/>
<text text-anchor="middle" x="1619.5" y="-80" font-family="Helvetica,sans-Serif" font-size="10.00">erpc_client_manager.h</text>
</a>
</g>
</g>
<!-- Node2&#45;&gt;Node4 -->
<g id="edge10" class="edge"><title>Node2&#45;&gt;Node4</title>
<path fill="none" stroke="midnightblue" d="M1527.35,-193.149C1538.55,-177.483 1556.05,-153.671 1572.5,-134 1585.26,-118.749 1601.23,-102.043 1610.89,-92.1813"/>
<polygon fill="midnightblue" stroke="midnightblue" points="1524.47,-191.158 1521.54,-201.339 1530.18,-195.21 1524.47,-191.158"/>
</g>
<!-- Node7 -->
<g id="node7" class="node"><title>Node7</title>
<g id="a_node7"><a xlink:href="erpc__arbitrated__client__setup_8h.html" target="_top" xlink:title="erpc_arbitrated_client\l_setup.h">
<polygon fill="white" stroke="black" points="1612.5,-0.5 1612.5,-30.5 1722.5,-30.5 1722.5,-0.5 1612.5,-0.5"/>
<text text-anchor="start" x="1620.5" y="-18.5" font-family="Helvetica,sans-Serif" font-size="10.00">erpc_arbitrated_client</text>
<text text-anchor="middle" x="1667.5" y="-7.5" font-family="Helvetica,sans-Serif" font-size="10.00">_setup.h</text>
</a>
</g>
</g>
<!-- Node2&#45;&gt;Node7 -->
<g id="edge36" class="edge"><title>Node2&#45;&gt;Node7</title>
<path fill="none" stroke="midnightblue" d="M1515.37,-191.202C1516.15,-161.408 1521.83,-103.033 1552.5,-67 1567.83,-48.9827 1590.83,-37.1665 1612.23,-29.5315"/>
<polygon fill="midnightblue" stroke="midnightblue" points="1511.87,-191.403 1515.27,-201.437 1518.87,-191.471 1511.87,-191.403"/>
</g>
<!-- Node8 -->
<g id="node8" class="node"><title>Node8</title>
<g id="a_node8"><a xlink:href="erpc__client__setup_8h.html" target="_top" xlink:title="erpc_client_setup.h">
<polygon fill="white" stroke="black" points="1869,-6 1869,-25 1970,-25 1970,-6 1869,-6"/>
<text text-anchor="middle" x="1919.5" y="-13" font-family="Helvetica,sans-Serif" font-size="10.00">erpc_client_setup.h</text>
</a>
</g>
</g>
<!-- Node2&#45;&gt;Node8 -->
<g id="edge37" class="edge"><title>Node2&#45;&gt;Node8</title>
<path fill="none" stroke="midnightblue" d="M1581.31,-206.562C1615.95,-201.585 1657.02,-190.256 1685.5,-165 1720.58,-133.899 1689.34,-98.0066 1724.5,-67 1727.56,-64.3038 1829.65,-38.7339 1884.86,-25.049"/>
<polygon fill="midnightblue" stroke="midnightblue" points="1580.73,-203.108 1571.26,-207.858 1581.63,-210.05 1580.73,-203.108"/>
</g>
<!-- Node9 -->
<g id="node9" class="node"><title>Node9</title>
<g id="a_node9"><a xlink:href="erpc__server_8h.html" target="_top" xlink:title="erpc_server.h">
<polygon fill="white" stroke="black" points="1733.5,-73 1733.5,-92 1807.5,-92 1807.5,-73 1733.5,-73"/>
<text text-anchor="middle" x="1770.5" y="-80" font-family="Helvetica,sans-Serif" font-size="10.00">erpc_server.h</text>
</a>
</g>
</g>
<!-- Node2&#45;&gt;Node9 -->
<g id="edge22" class="edge"><title>Node2&#45;&gt;Node9</title>
<path fill="none" stroke="midnightblue" d="M1581.3,-208.357C1624.07,-204.371 1679.17,-193.452 1719.5,-165 1745.96,-146.334 1761.6,-109.155 1767.63,-92.241"/>
<polygon fill="midnightblue" stroke="midnightblue" points="1580.94,-204.875 1571.26,-209.188 1581.52,-211.851 1580.94,-204.875"/>
</g>
<!-- Node11 -->
<g id="node11" class="node"><title>Node11</title>
<g id="a_node11"><a xlink:href="erpc__framed__transport_8h.html" target="_top" xlink:title="erpc_framed_transport.h">
<polygon fill="white" stroke="black" points="775.5,-73 775.5,-92 897.5,-92 897.5,-73 775.5,-73"/>
<text text-anchor="middle" x="836.5" y="-80" font-family="Helvetica,sans-Serif" font-size="10.00">erpc_framed_transport.h</text>
</a>
</g>
</g>
<!-- Node2&#45;&gt;Node11 -->
<g id="edge11" class="edge"><title>Node2&#45;&gt;Node11</title>
<path fill="none" stroke="midnightblue" d="M1449.38,-209.835C1317.63,-208.7 1027.16,-201.94 935.5,-165 895.029,-148.69 858.497,-109.581 843.596,-92.1444"/>
<polygon fill="midnightblue" stroke="midnightblue" points="1449.7,-213.337 1459.73,-209.915 1449.75,-206.337 1449.7,-213.337"/>
</g>
<!-- Node13 -->
<g id="node13" class="node"><title>Node13</title>
<g id="a_node13"><a xlink:href="erpc__dspi__slave__transport_8h.html" target="_top" xlink:title="erpc_dspi_slave_transport.h">
<polygon fill="white" stroke="black" points="0,-6 0,-25 137,-25 137,-6 0,-6"/>
<text text-anchor="middle" x="68.5" y="-13" font-family="Helvetica,sans-Serif" font-size="10.00">erpc_dspi_slave_transport.h</text>
</a>
</g>
</g>
<!-- Node2&#45;&gt;Node13 -->
<g id="edge39" class="edge"><title>Node2&#45;&gt;Node13</title>
<path fill="none" stroke="midnightblue" d="M1449.22,-209.502C1311.22,-207.76 983.158,-199.95 710.5,-165 561.191,-145.861 525.131,-132.04 378.5,-98 275.236,-74.0273 153.997,-40.6025 98.7166,-25.0677"/>
<polygon fill="midnightblue" stroke="midnightblue" points="1449.58,-213.006 1459.62,-209.626 1449.66,-206.006 1449.58,-213.006"/>
</g>
<!-- Node14 -->
<g id="node14" class="node"><title>Node14</title>
<g id="a_node14"><a xlink:href="erpc__i2c__slave__transport_8h.html" target="_top" xlink:title="erpc_i2c_slave_transport.h">
<polygon fill="white" stroke="black" points="155.5,-6 155.5,-25 287.5,-25 287.5,-6 155.5,-6"/>
<text text-anchor="middle" x="221.5" y="-13" font-family="Helvetica,sans-Serif" font-size="10.00">erpc_i2c_slave_transport.h</text>
</a>
</g>
</g>
<!-- Node2&#45;&gt;Node14 -->
<g id="edge40" class="edge"><title>Node2&#45;&gt;Node14</title>
<path fill="none" stroke="midnightblue" d="M1449.86,-208.539C1334.78,-205.262 1089.39,-195.08 884.5,-165 637.377,-128.72 345.461,-50.8578 251.928,-25.0247"/>
<polygon fill="midnightblue" stroke="midnightblue" points="1449.82,-212.039 1459.91,-208.817 1450.01,-205.042 1449.82,-212.039"/>
</g>
<!-- Node17 -->
<g id="node17" class="node"><title>Node17</title>
<g id="a_node17"><a xlink:href="erpc__spi__slave__transport_8h.html" target="_top" xlink:title="erpc_spi_slave_transport.h">
<polygon fill="white" stroke="black" points="883.5,-6 883.5,-25 1015.5,-25 1015.5,-6 883.5,-6"/>
<text text-anchor="middle" x="949.5" y="-13" font-family="Helvetica,sans-Serif" font-size="10.00">erpc_spi_slave_transport.h</text>
</a>
</g>
</g>
<!-- Node2&#45;&gt;Node17 -->
<g id="edge43" class="edge"><title>Node2&#45;&gt;Node17</title>
<path fill="none" stroke="midnightblue" d="M1449.79,-207.945C1320.84,-203.369 1044.12,-190.659 1009.5,-165 962.138,-129.902 952.072,-51.0952 950.011,-25.0421"/>
<polygon fill="midnightblue" stroke="midnightblue" points="1449.82,-211.448 1459.94,-208.299 1450.06,-204.452 1449.82,-211.448"/>
</g>
<!-- Node20 -->
<g id="node20" class="node"><title>Node20</title>
<g id="a_node20"><a xlink:href="erpc__uart__cmsis__transport_8h.html" target="_top" xlink:title="erpc_uart_cmsis_transport.h">
<polygon fill="white" stroke="black" points="1157.5,-6 1157.5,-25 1297.5,-25 1297.5,-6 1157.5,-6"/>
<text text-anchor="middle" x="1227.5" y="-13" font-family="Helvetica,sans-Serif" font-size="10.00">erpc_uart_cmsis_transport.h</text>
</a>
</g>
</g>
<!-- Node2&#45;&gt;Node20 -->
<g id="edge44" class="edge"><title>Node2&#45;&gt;Node20</title>
<path fill="none" stroke="midnightblue" d="M1503.3,-193.243C1497.25,-184.832 1489.89,-174.447 1483.5,-165 1454.49,-122.112 1462.41,-97.4087 1420.5,-67 1397.58,-50.3718 1325.21,-34.3845 1275.91,-25.0021"/>
<polygon fill="midnightblue" stroke="midnightblue" points="1500.55,-195.406 1509.24,-201.457 1506.22,-191.303 1500.55,-195.406"/>
</g>
<!-- Node21 -->
<g id="node21" class="node"><title>Node21</title>
<g id="a_node21"><a xlink:href="erpc__usb__cdc__transport_8h.html" target="_top" xlink:title="erpc_usb_cdc_transport.h">
<polygon fill="white" stroke="black" points="1316,-6 1316,-25 1445,-25 1445,-6 1316,-6"/>
<text text-anchor="middle" x="1380.5" y="-13" font-family="Helvetica,sans-Serif" font-size="10.00">erpc_usb_cdc_transport.h</text>
</a>
</g>
</g>
<!-- Node2&#45;&gt;Node21 -->
<g id="edge45" class="edge"><title>Node2&#45;&gt;Node21</title>
<path fill="none" stroke="midnightblue" d="M1508.94,-191.526C1496.67,-157.623 1470,-87.0992 1453.5,-67 1438.25,-48.4184 1414.48,-33.7306 1398.23,-25.091"/>
<polygon fill="midnightblue" stroke="midnightblue" points="1505.72,-192.906 1512.39,-201.137 1512.31,-190.543 1505.72,-192.906"/>
</g>
<!-- Node22 -->
<g id="node22" class="node"><title>Node22</title>
<g id="a_node22"><a xlink:href="erpc__port_8h.html" target="_top" xlink:title="erpc_port.h">
<polygon fill="white" stroke="black" points="1772,-140 1772,-159 1837,-159 1837,-140 1772,-140"/>
<text text-anchor="middle" x="1804.5" y="-147" font-family="Helvetica,sans-Serif" font-size="10.00">erpc_port.h</text>
</a>
</g>
</g>
<!-- Node2&#45;&gt;Node22 -->
<g id="edge23" class="edge"><title>Node2&#45;&gt;Node22</title>
<path fill="none" stroke="midnightblue" d="M1581.29,-199.875C1630.21,-191.838 1698.42,-179.554 1757.5,-165 1764.46,-163.284 1771.92,-161.133 1778.79,-159.017"/>
<polygon fill="midnightblue" stroke="midnightblue" points="1580.46,-196.464 1571.15,-201.525 1581.59,-203.373 1580.46,-196.464"/>
</g>
<!-- Node23 -->
<g id="node23" class="node"><title>Node23</title>
<g id="a_node23"><a xlink:href="erpc__setup__extensions_8h.html" target="_top" xlink:title="erpc_setup_extensions.h">
<polygon fill="white" stroke="black" points="1855,-140 1855,-159 1980,-159 1980,-140 1855,-140"/>
<text text-anchor="middle" x="1917.5" y="-147" font-family="Helvetica,sans-Serif" font-size="10.00">erpc_setup_extensions.h</text>
</a>
</g>
</g>
<!-- Node2&#45;&gt;Node23 -->
<g id="edge24" class="edge"><title>Node2&#45;&gt;Node23</title>
<path fill="none" stroke="midnightblue" d="M1581.09,-202.296C1647.81,-194.167 1754.12,-180.416 1845.5,-165 1855.94,-163.239 1867.17,-161.096 1877.6,-159.004"/>
<polygon fill="midnightblue" stroke="midnightblue" points="1580.64,-198.825 1571.13,-203.503 1581.48,-205.774 1580.64,-198.825"/>
</g>
<!-- Node24 -->
<g id="node24" class="node"><title>Node24</title>
<g id="a_node24"><a xlink:href="erpc__threading_8h.html" target="_top" xlink:title="erpc_threading.h">
<polygon fill="white" stroke="black" points="1019,-140 1019,-159 1108,-159 1108,-140 1019,-140"/>
<text text-anchor="middle" x="1063.5" y="-147" font-family="Helvetica,sans-Serif" font-size="10.00">erpc_threading.h</text>
</a>
</g>
</g>
<!-- Node2&#45;&gt;Node24 -->
<g id="edge25" class="edge"><title>Node2&#45;&gt;Node24</title>
<path fill="none" stroke="midnightblue" d="M1449.45,-201.305C1356.08,-189.014 1188,-166.888 1108.06,-156.366"/>
<polygon fill="midnightblue" stroke="midnightblue" points="1449.25,-204.809 1459.62,-202.644 1450.16,-197.869 1449.25,-204.809"/>
</g>
<!-- Node26 -->
<g id="node26" class="node"><title>Node26</title>
<g id="a_node26"><a xlink:href="erpc__mu__transport_8h.html" target="_top" xlink:title="erpc_mu_transport.h">
<polygon fill="white" stroke="black" points="1305.5,-73 1305.5,-92 1411.5,-92 1411.5,-73 1305.5,-73"/>
<text text-anchor="middle" x="1358.5" y="-80" font-family="Helvetica,sans-Serif" font-size="10.00">erpc_mu_transport.h</text>
</a>
</g>
</g>
<!-- Node2&#45;&gt;Node26 -->
<g id="edge41" class="edge"><title>Node2&#45;&gt;Node26</title>
<path fill="none" stroke="midnightblue" d="M1482.64,-197.538C1464.68,-189.79 1442.67,-178.693 1425.5,-165 1398,-143.073 1374.06,-108.193 1363.81,-92.1231"/>
<polygon fill="midnightblue" stroke="midnightblue" points="1481.56,-200.881 1492.14,-201.493 1484.25,-194.419 1481.56,-200.881"/>
</g>
<!-- Node27 -->
<g id="node27" class="node"><title>Node27</title>
<g id="a_node27"><a xlink:href="erpc__server__setup_8h.html" target="_top" xlink:title="erpc_server_setup.h">
<polygon fill="white" stroke="black" points="1998.5,-140 1998.5,-159 2102.5,-159 2102.5,-140 1998.5,-140"/>
<text text-anchor="middle" x="2050.5" y="-147" font-family="Helvetica,sans-Serif" font-size="10.00">erpc_server_setup.h</text>
</a>
</g>
</g>
<!-- Node2&#45;&gt;Node27 -->
<g id="edge38" class="edge"><title>Node2&#45;&gt;Node27</title>
<path fill="none" stroke="midnightblue" d="M1581.4,-206.545C1673.13,-201.097 1844.27,-188.615 1988.5,-165 1998.1,-163.428 2008.43,-161.224 2017.84,-159.007"/>
<polygon fill="midnightblue" stroke="midnightblue" points="1580.93,-203.066 1571.15,-207.144 1581.34,-210.054 1580.93,-203.066"/>
</g>
<!-- Node28 -->
<g id="node28" class="node"><title>Node28</title>
<g id="a_node28"><a xlink:href="erpc__rpmsg__lite__transport_8h.html" target="_top" xlink:title="erpc_rpmsg_lite_transport.h">
<polygon fill="white" stroke="black" points="2121,-140 2121,-159 2258,-159 2258,-140 2121,-140"/>
<text text-anchor="middle" x="2189.5" y="-147" font-family="Helvetica,sans-Serif" font-size="10.00">erpc_rpmsg_lite_transport.h</text>
</a>
</g>
</g>
<!-- Node2&#45;&gt;Node28 -->
<g id="edge42" class="edge"><title>Node2&#45;&gt;Node28</title>
<path fill="none" stroke="midnightblue" d="M1581.46,-207.36C1691.62,-202.427 1919.86,-189.972 2111.5,-165 2123.52,-163.434 2136.49,-161.231 2148.34,-159.014"/>
<polygon fill="midnightblue" stroke="midnightblue" points="1581.01,-203.876 1571.17,-207.814 1581.31,-210.869 1581.01,-203.876"/>
</g>
<!-- Node3&#45;&gt;Node4 -->
<g id="edge3" class="edge"><title>Node3&#45;&gt;Node4</title>
<path fill="none" stroke="midnightblue" d="M1625.77,-124.25C1624.04,-113.017 1622.1,-100.377 1620.84,-92.1945"/>
<polygon fill="midnightblue" stroke="midnightblue" points="1622.35,-125.044 1627.33,-134.396 1629.27,-123.98 1622.35,-125.044"/>
</g>
<!-- Node3&#45;&gt;Node9 -->
<g id="edge8" class="edge"><title>Node3&#45;&gt;Node9</title>
<path fill="none" stroke="midnightblue" d="M1669.35,-130.131C1696.48,-117.62 1731.15,-101.64 1752.05,-92.007"/>
<polygon fill="midnightblue" stroke="midnightblue" points="1667.71,-127.031 1660.09,-134.396 1670.64,-133.388 1667.71,-127.031"/>
</g>
<!-- Node5 -->
<g id="node5" class="node"><title>Node5</title>
<g id="a_node5"><a xlink:href="erpc__arbitrated__client__manager_8h.html" target="_top" xlink:title="erpc_arbitrated_client\l_manager.h">
<polygon fill="white" stroke="black" points="1740.5,-0.5 1740.5,-30.5 1850.5,-30.5 1850.5,-0.5 1740.5,-0.5"/>
<text text-anchor="start" x="1748.5" y="-18.5" font-family="Helvetica,sans-Serif" font-size="10.00">erpc_arbitrated_client</text>
<text text-anchor="middle" x="1795.5" y="-7.5" font-family="Helvetica,sans-Serif" font-size="10.00">_manager.h</text>
</a>
</g>
</g>
<!-- Node4&#45;&gt;Node5 -->
<g id="edge4" class="edge"><title>Node4&#45;&gt;Node5</title>
<path fill="none" stroke="midnightblue" d="M1652.41,-69.3465C1682.24,-58.3289 1726.2,-42.0927 1757.52,-30.5281"/>
<polygon fill="midnightblue" stroke="midnightblue" points="1651.04,-66.1207 1642.87,-72.8685 1653.46,-72.6872 1651.04,-66.1207"/>
</g>
<!-- Node6 -->
<g id="node6" class="node"><title>Node6</title>
<g id="a_node6"><a xlink:href="erpc__transport__arbitrator_8h.html" target="_top" xlink:title="erpc_transport_arbitrator.h">
<polygon fill="white" stroke="black" points="1463,-6 1463,-25 1594,-25 1594,-6 1463,-6"/>
<text text-anchor="middle" x="1528.5" y="-13" font-family="Helvetica,sans-Serif" font-size="10.00">erpc_transport_arbitrator.h</text>
</a>
</g>
</g>
<!-- Node4&#45;&gt;Node6 -->
<g id="edge5" class="edge"><title>Node4&#45;&gt;Node6</title>
<path fill="none" stroke="midnightblue" d="M1599.09,-66.9196C1581.1,-54.0695 1555.49,-35.7821 1540.58,-25.1273"/>
<polygon fill="midnightblue" stroke="midnightblue" points="1597.06,-69.7695 1607.23,-72.7338 1601.12,-64.0733 1597.06,-69.7695"/>
</g>
<!-- Node4&#45;&gt;Node7 -->
<g id="edge6" class="edge"><title>Node4&#45;&gt;Node7</title>
<path fill="none" stroke="midnightblue" d="M1631.93,-64.6729C1639.74,-54.0939 1649.7,-40.6019 1657.1,-30.589"/>
<polygon fill="midnightblue" stroke="midnightblue" points="1629.1,-62.6103 1625.97,-72.7338 1634.73,-66.7686 1629.1,-62.6103"/>
</g>
<!-- Node4&#45;&gt;Node8 -->
<g id="edge7" class="edge"><title>Node4&#45;&gt;Node8</title>
<path fill="none" stroke="midnightblue" d="M1672.06,-70.9096C1720.75,-60.9874 1795.14,-45.5457 1859.5,-31 1867.76,-29.1338 1876.63,-27.0386 1884.96,-25.0334"/>
<polygon fill="midnightblue" stroke="midnightblue" points="1671.17,-67.5179 1662.07,-72.9408 1672.57,-74.3774 1671.17,-67.5179"/>
</g>
<!-- Node10 -->
<g id="node10" class="node"><title>Node10</title>
<g id="a_node10"><a xlink:href="erpc__simple__server_8h.html" target="_top" xlink:title="erpc_simple_server.h">
<polygon fill="white" stroke="black" points="1988.5,-6 1988.5,-25 2096.5,-25 2096.5,-6 1988.5,-6"/>
<text text-anchor="middle" x="2042.5" y="-13" font-family="Helvetica,sans-Serif" font-size="10.00">erpc_simple_server.h</text>
</a>
</g>
</g>
<!-- Node9&#45;&gt;Node10 -->
<g id="edge9" class="edge"><title>Node9&#45;&gt;Node10</title>
<path fill="none" stroke="midnightblue" d="M1816.26,-70.5642C1869.89,-57.7499 1957.62,-36.7848 2006.58,-25.0834"/>
<polygon fill="midnightblue" stroke="midnightblue" points="1815.25,-67.2071 1806.34,-72.9355 1816.88,-74.0154 1815.25,-67.2071"/>
</g>
<!-- Node12 -->
<g id="node12" class="node"><title>Node12</title>
<g id="a_node12"><a xlink:href="erpc__dspi__master__transport_8h.html" target="_top" xlink:title="erpc_dspi_master_transport.h">
<polygon fill="white" stroke="black" points="305.5,-6 305.5,-25 451.5,-25 451.5,-6 305.5,-6"/>
<text text-anchor="middle" x="378.5" y="-13" font-family="Helvetica,sans-Serif" font-size="10.00">erpc_dspi_master_transport.h</text>
</a>
</g>
</g>
<!-- Node11&#45;&gt;Node12 -->
<g id="edge12" class="edge"><title>Node11&#45;&gt;Node12</title>
<path fill="none" stroke="midnightblue" d="M765.274,-72.0113C660.452,-58.0357 475.36,-33.3108 460.5,-31 448.929,-29.2007 436.471,-27.0884 424.846,-25.0413"/>
<polygon fill="midnightblue" stroke="midnightblue" points="765.095,-75.5182 775.469,-73.3704 766.02,-68.5796 765.095,-75.5182"/>
</g>
<!-- Node11&#45;&gt;Node13 -->
<g id="edge13" class="edge"><title>Node11&#45;&gt;Node13</title>
<path fill="none" stroke="midnightblue" d="M765.108,-78.8829C639.572,-73.7002 371.279,-60.0279 146.5,-31 134.479,-29.4476 121.506,-27.2491 109.655,-25.0321"/>
<polygon fill="midnightblue" stroke="midnightblue" points="765.219,-82.3902 775.353,-79.3 765.504,-75.396 765.219,-82.3902"/>
</g>
<!-- Node11&#45;&gt;Node14 -->
<g id="edge14" class="edge"><title>Node11&#45;&gt;Node14</title>
<path fill="none" stroke="midnightblue" d="M766.364,-71.6556C753.452,-69.9897 740.08,-68.3613 727.5,-67 536.393,-46.32 486.917,-57.2817 296.5,-31 285.07,-29.4225 272.747,-27.2425 261.458,-25.0518"/>
<polygon fill="midnightblue" stroke="midnightblue" points="766.226,-75.1673 776.596,-72.9953 767.135,-68.2266 766.226,-75.1673"/>
</g>
<!-- Node15 -->
<g id="node15" class="node"><title>Node15</title>
<g id="a_node15"><a xlink:href="erpc__serial__transport_8h.html" target="_top" xlink:title="erpc_serial_transport.h">
<polygon fill="white" stroke="black" points="469.5,-6 469.5,-25 585.5,-25 585.5,-6 469.5,-6"/>
<text text-anchor="middle" x="527.5" y="-13" font-family="Helvetica,sans-Serif" font-size="10.00">erpc_serial_transport.h</text>
</a>
</g>
</g>
<!-- Node11&#45;&gt;Node15 -->
<g id="edge15" class="edge"><title>Node11&#45;&gt;Node15</title>
<path fill="none" stroke="midnightblue" d="M784.904,-70.8484C735.893,-60.7032 660.149,-44.9533 594.5,-31 585.536,-29.0948 575.903,-27.0239 566.815,-25.0593"/>
<polygon fill="midnightblue" stroke="midnightblue" points="784.441,-74.3268 794.943,-72.9255 785.86,-67.4719 784.441,-74.3268"/>
</g>
<!-- Node16 -->
<g id="node16" class="node"><title>Node16</title>
<g id="a_node16"><a xlink:href="erpc__spi__master__transport_8h.html" target="_top" xlink:title="erpc_spi_master_transport.h">
<polygon fill="white" stroke="black" points="603.5,-6 603.5,-25 743.5,-25 743.5,-6 603.5,-6"/>
<text text-anchor="middle" x="673.5" y="-13" font-family="Helvetica,sans-Serif" font-size="10.00">erpc_spi_master_transport.h</text>
</a>
</g>
</g>
<!-- Node11&#45;&gt;Node16 -->
<g id="edge16" class="edge"><title>Node11&#45;&gt;Node16</title>
<path fill="none" stroke="midnightblue" d="M805.415,-69.1041C773.051,-56.1984 723.22,-36.3272 694.975,-25.0637"/>
<polygon fill="midnightblue" stroke="midnightblue" points="804.27,-72.4154 814.855,-72.8685 806.863,-65.9133 804.27,-72.4154"/>
</g>
<!-- Node11&#45;&gt;Node17 -->
<g id="edge17" class="edge"><title>Node11&#45;&gt;Node17</title>
<path fill="none" stroke="midnightblue" d="M860.638,-67.6151C883.026,-54.737 915.642,-35.9758 934.502,-25.1273"/>
<polygon fill="midnightblue" stroke="midnightblue" points="858.663,-64.7137 851.74,-72.7338 862.153,-70.7815 858.663,-64.7137"/>
</g>
<!-- Node18 -->
<g id="node18" class="node"><title>Node18</title>
<g id="a_node18"><a xlink:href="erpc__spidev__master__transport_8h.html" target="_top" xlink:title="erpc_spidev_master\l_transport.h">
<polygon fill="white" stroke="black" points="762,-0.5 762,-30.5 865,-30.5 865,-0.5 762,-0.5"/>
<text text-anchor="start" x="770" y="-18.5" font-family="Helvetica,sans-Serif" font-size="10.00">erpc_spidev_master</text>
<text text-anchor="middle" x="813.5" y="-7.5" font-family="Helvetica,sans-Serif" font-size="10.00">_transport.h</text>
</a>
</g>
</g>
<!-- Node11&#45;&gt;Node18 -->
<g id="edge18" class="edge"><title>Node11&#45;&gt;Node18</title>
<path fill="none" stroke="midnightblue" d="M829.977,-63.065C826.328,-52.7534 821.851,-40.1012 818.485,-30.589"/>
<polygon fill="midnightblue" stroke="midnightblue" points="826.763,-64.4741 833.398,-72.7338 833.362,-62.139 826.763,-64.4741"/>
</g>
<!-- Node19 -->
<g id="node19" class="node"><title>Node19</title>
<g id="a_node19"><a xlink:href="erpc__tcp__transport_8h.html" target="_top" xlink:title="erpc_tcp_transport.h">
<polygon fill="white" stroke="black" points="1033.5,-6 1033.5,-25 1139.5,-25 1139.5,-6 1033.5,-6"/>
<text text-anchor="middle" x="1086.5" y="-13" font-family="Helvetica,sans-Serif" font-size="10.00">erpc_tcp_transport.h</text>
</a>
</g>
</g>
<!-- Node11&#45;&gt;Node19 -->
<g id="edge19" class="edge"><title>Node11&#45;&gt;Node19</title>
<path fill="none" stroke="midnightblue" d="M879.177,-70.4039C928.517,-57.5757 1008.67,-36.7361 1053.49,-25.0834"/>
<polygon fill="midnightblue" stroke="midnightblue" points="878.238,-67.0318 869.44,-72.9355 879.999,-73.8065 878.238,-67.0318"/>
</g>
<!-- Node11&#45;&gt;Node20 -->
<g id="edge20" class="edge"><title>Node11&#45;&gt;Node20</title>
<path fill="none" stroke="midnightblue" d="M901.437,-71.3974C964.594,-61.4755 1063.22,-45.7265 1148.5,-31 1159.36,-29.1255 1171.03,-27.027 1181.99,-25.0214"/>
<polygon fill="midnightblue" stroke="midnightblue" points="900.565,-67.9914 891.228,-72.9991 901.65,-74.9069 900.565,-67.9914"/>
</g>
<!-- Node11&#45;&gt;Node21 -->
<g id="edge21" class="edge"><title>Node11&#45;&gt;Node21</title>
<path fill="none" stroke="midnightblue" d="M907.619,-75.7869C999.887,-67.9335 1165.72,-52.3148 1306.5,-31 1317.5,-29.3342 1329.36,-27.176 1340.28,-25.0361"/>
<polygon fill="midnightblue" stroke="midnightblue" points="907.227,-72.3074 897.557,-76.6372 907.816,-79.2825 907.227,-72.3074"/>
</g>
<!-- Node24&#45;&gt;Node6 -->
<g id="edge26" class="edge"><title>Node24&#45;&gt;Node6</title>
<path fill="none" stroke="midnightblue" d="M1118.26,-140.251C1158.08,-132.829 1212.48,-119.678 1256.5,-98 1276.68,-88.0629 1276.12,-76.5153 1296.5,-67 1313.35,-59.1307 1421.78,-37.253 1484.26,-25.0331"/>
<polygon fill="midnightblue" stroke="midnightblue" points="1117.43,-136.843 1108.21,-142.061 1118.68,-143.733 1117.43,-136.843"/>
</g>
<!-- Node24&#45;&gt;Node11 -->
<g id="edge27" class="edge"><title>Node24&#45;&gt;Node11</title>
<path fill="none" stroke="midnightblue" d="M1023.66,-137.091C978.749,-124.232 906.76,-103.618 866.407,-92.0637"/>
<polygon fill="midnightblue" stroke="midnightblue" points="1022.78,-140.48 1033.36,-139.869 1024.71,-133.751 1022.78,-140.48"/>
</g>
<!-- Node24&#45;&gt;Node13 -->
<g id="edge28" class="edge"><title>Node24&#45;&gt;Node13</title>
<path fill="none" stroke="midnightblue" d="M1008.72,-142.807C924.533,-133.942 758.299,-115.982 617.5,-98 407.763,-71.2138 355.153,-65.2187 146.5,-31 135.49,-29.1944 123.639,-27.0798 112.581,-25.0325"/>
<polygon fill="midnightblue" stroke="midnightblue" points="1008.51,-146.303 1018.82,-143.868 1009.24,-139.342 1008.51,-146.303"/>
</g>
<!-- Node24&#45;&gt;Node14 -->
<g id="edge29" class="edge"><title>Node24&#45;&gt;Node14</title>
<path fill="none" stroke="midnightblue" d="M1008.91,-139.926C949.234,-130.389 850.868,-114.184 766.5,-98 701.779,-85.5849 686.554,-77.5298 621.5,-67 478.039,-43.7791 440.182,-52.8107 296.5,-31 285.355,-29.3082 273.343,-27.1413 262.268,-25.0013"/>
<polygon fill="midnightblue" stroke="midnightblue" points="1008.44,-143.395 1018.86,-141.513 1009.54,-136.482 1008.44,-143.395"/>
</g>
<!-- Node24&#45;&gt;Node17 -->
<g id="edge32" class="edge"><title>Node24&#45;&gt;Node17</title>
<path fill="none" stroke="midnightblue" d="M1049.28,-132.032C1024.79,-103.675 975.492,-46.596 956.859,-25.0212"/>
<polygon fill="midnightblue" stroke="midnightblue" points="1046.84,-134.559 1056.02,-139.839 1052.13,-129.983 1046.84,-134.559"/>
</g>
<!-- Node24&#45;&gt;Node19 -->
<g id="edge33" class="edge"><title>Node24&#45;&gt;Node19</title>
<path fill="none" stroke="midnightblue" d="M1055.36,-130.074C1049.11,-113.31 1042.62,-88.0431 1049.5,-67 1054.97,-50.2653 1068.34,-34.4877 1077.41,-25.1572"/>
<polygon fill="midnightblue" stroke="midnightblue" points="1052.28,-131.789 1059.29,-139.734 1058.76,-129.152 1052.28,-131.789"/>
</g>
<!-- Node24&#45;&gt;Node20 -->
<g id="edge34" class="edge"><title>Node24&#45;&gt;Node20</title>
<path fill="none" stroke="midnightblue" d="M1062.97,-129.405C1063.5,-111.2 1067.13,-84.0968 1082.5,-67 1097.11,-50.7459 1152.51,-34.5922 1190.44,-25.0809"/>
<polygon fill="midnightblue" stroke="midnightblue" points="1059.47,-129.655 1062.97,-139.655 1066.47,-129.655 1059.47,-129.655"/>
</g>
<!-- Node24&#45;&gt;Node21 -->
<g id="edge35" class="edge"><title>Node24&#45;&gt;Node21</title>
<path fill="none" stroke="midnightblue" d="M1110.93,-137.406C1142.89,-128.941 1185.45,-115.712 1220.5,-98 1241.53,-87.3738 1243.01,-78.6256 1263.5,-67 1294.29,-49.5328 1332.29,-34.173 1356.47,-25.1095"/>
<polygon fill="midnightblue" stroke="midnightblue" points="1109.75,-134.095 1100.95,-139.987 1111.51,-140.873 1109.75,-134.095"/>
</g>
<!-- Node25 -->
<g id="node25" class="node"><title>Node25</title>
<g id="a_node25"><a xlink:href="erpc__inter__thread__buffer__transport_8h.html" target="_top" xlink:title="erpc_inter_thread_buffer\l_transport.h">
<polygon fill="white" stroke="black" points="1091.5,-67.5 1091.5,-97.5 1211.5,-97.5 1211.5,-67.5 1091.5,-67.5"/>
<text text-anchor="start" x="1099.5" y="-85.5" font-family="Helvetica,sans-Serif" font-size="10.00">erpc_inter_thread_buffer</text>
<text text-anchor="middle" x="1151.5" y="-74.5" font-family="Helvetica,sans-Serif" font-size="10.00">_transport.h</text>
</a>
</g>
</g>
<!-- Node24&#45;&gt;Node25 -->
<g id="edge30" class="edge"><title>Node24&#45;&gt;Node25</title>
<path fill="none" stroke="midnightblue" d="M1083.75,-133.544C1098.39,-122.725 1118.06,-108.203 1132.43,-97.589"/>
<polygon fill="midnightblue" stroke="midnightblue" points="1081.33,-130.977 1075.37,-139.734 1085.49,-136.608 1081.33,-130.977"/>
</g>
<!-- Node24&#45;&gt;Node26 -->
<g id="edge31" class="edge"><title>Node24&#45;&gt;Node26</title>
<path fill="none" stroke="midnightblue" d="M1112.41,-137.724C1170.5,-124.924 1266.22,-103.833 1319.54,-92.0834"/>
<polygon fill="midnightblue" stroke="midnightblue" points="1111.38,-134.366 1102.37,-139.936 1112.89,-141.202 1111.38,-134.366"/>
</g>
</g>
</svg>
