<?xml version="1.0" encoding="UTF-8" standalone="no"?>
<!DOCTYPE svg PUBLIC "-//W3C//DTD SVG 1.1//EN"
 "http://www.w3.org/Graphics/SVG/1.1/DTD/svg11.dtd">
<!-- Generated by graphviz version 2.38.0 (20140413.2041)
 -->
<!-- Title: erpc_config.h Pages: 1 -->
<svg width="1820pt" height="263pt"
 viewBox="0.00 0.00 1819.50 263.00" xmlns="http://www.w3.org/2000/svg" xmlns:xlink="http://www.w3.org/1999/xlink">
<g id="graph0" class="graph" transform="scale(1 1) rotate(0) translate(4 259)">
<title>erpc_config.h</title>
<polygon fill="white" stroke="none" points="-4,4 -4,-259 1815.5,-259 1815.5,4 -4,4"/>
<!-- Node1 -->
<g id="node1" class="node"><title>Node1</title>
<polygon fill="#bfbfbf" stroke="black" points="1292,-235.5 1292,-254.5 1366,-254.5 1366,-235.5 1292,-235.5"/>
<text text-anchor="middle" x="1329" y="-242.5" font-family="Helvetica,sans-Serif" font-size="10.00">erpc_config.h</text>
</g>
<!-- Node2 -->
<g id="node2" class="node"><title>Node2</title>
<g id="a_node2"><a xlink:href="erpc__config__internal_8h_source.html" target="_top" xlink:title="erpc_config_internal.h">
<polygon fill="white" stroke="black" points="1273.5,-179.5 1273.5,-198.5 1384.5,-198.5 1384.5,-179.5 1273.5,-179.5"/>
<text text-anchor="middle" x="1329" y="-186.5" font-family="Helvetica,sans-Serif" font-size="10.00">erpc_config_internal.h</text>
</a>
</g>
</g>
<!-- Node1&#45;&gt;Node2 -->
<g id="edge1" class="edge"><title>Node1&#45;&gt;Node2</title>
<path fill="none" stroke="midnightblue" d="M1329,-224.805C1329,-215.91 1329,-205.78 1329,-198.751"/>
<polygon fill="midnightblue" stroke="midnightblue" points="1325.5,-225.083 1329,-235.083 1332.5,-225.083 1325.5,-225.083"/>
</g>
<!-- Node3 -->
<g id="node3" class="node"><title>Node3</title>
<g id="a_node3"><a xlink:href="erpc__client__manager_8h.html" target="_top" xlink:title="erpc_client_manager.h">
<polygon fill="white" stroke="black" points="1166.5,-123.5 1166.5,-142.5 1281.5,-142.5 1281.5,-123.5 1166.5,-123.5"/>
<text text-anchor="middle" x="1224" y="-130.5" font-family="Helvetica,sans-Serif" font-size="10.00">erpc_client_manager.h</text>
</a>
</g>
</g>
<!-- Node2&#45;&gt;Node3 -->
<g id="edge2" class="edge"><title>Node2&#45;&gt;Node3</title>
<path fill="none" stroke="midnightblue" d="M1303.19,-174.726C1283.75,-164.727 1257.65,-151.307 1240.83,-142.655"/>
<polygon fill="midnightblue" stroke="midnightblue" points="1301.64,-177.863 1312.13,-179.324 1304.84,-171.638 1301.64,-177.863"/>
</g>
<!-- Node6 -->
<g id="node6" class="node"><title>Node6</title>
<g id="a_node6"><a xlink:href="erpc__arbitrated__client__setup_8h.html" target="_top" xlink:title="erpc_arbitrated_client\l_setup.h">
<polygon fill="white" stroke="black" points="1276,-56.5 1276,-86.5 1386,-86.5 1386,-56.5 1276,-56.5"/>
<text text-anchor="start" x="1284" y="-74.5" font-family="Helvetica,sans-Serif" font-size="10.00">erpc_arbitrated_client</text>
<text text-anchor="middle" x="1331" y="-63.5" font-family="Helvetica,sans-Serif" font-size="10.00">_setup.h</text>
</a>
</g>
</g>
<!-- Node2&#45;&gt;Node6 -->
<g id="edge24" class="edge"><title>Node2&#45;&gt;Node6</title>
<path fill="none" stroke="midnightblue" d="M1329.33,-169.068C1329.73,-145.904 1330.4,-107.223 1330.76,-86.5453"/>
<polygon fill="midnightblue" stroke="midnightblue" points="1325.82,-169.26 1329.15,-179.319 1332.82,-169.381 1325.82,-169.26"/>
</g>
<!-- Node7 -->
<g id="node7" class="node"><title>Node7</title>
<g id="a_node7"><a xlink:href="erpc__client__setup_8h.html" target="_top" xlink:title="erpc_client_setup.h">
<polygon fill="white" stroke="black" points="1404.5,-62 1404.5,-81 1505.5,-81 1505.5,-62 1404.5,-62"/>
<text text-anchor="middle" x="1455" y="-69" font-family="Helvetica,sans-Serif" font-size="10.00">erpc_client_setup.h</text>
</a>
</g>
</g>
<!-- Node2&#45;&gt;Node7 -->
<g id="edge25" class="edge"><title>Node2&#45;&gt;Node7</title>
<path fill="none" stroke="midnightblue" d="M1336.43,-169.935C1342.91,-155.857 1353.39,-136.498 1367,-123 1386.26,-103.896 1414.19,-89.5017 1433.39,-81.064"/>
<polygon fill="midnightblue" stroke="midnightblue" points="1333.06,-168.921 1332.27,-179.487 1339.47,-171.714 1333.06,-168.921"/>
</g>
<!-- Node8 -->
<g id="node8" class="node"><title>Node8</title>
<g id="a_node8"><a xlink:href="erpc__framed__transport_8h.html" target="_top" xlink:title="erpc_framed_transport.h">
<polygon fill="white" stroke="black" points="558,-62 558,-81 680,-81 680,-62 558,-62"/>
<text text-anchor="middle" x="619" y="-69" font-family="Helvetica,sans-Serif" font-size="10.00">erpc_framed_transport.h</text>
</a>
</g>
</g>
<!-- Node2&#45;&gt;Node8 -->
<g id="edge7" class="edge"><title>Node2&#45;&gt;Node8</title>
<path fill="none" stroke="midnightblue" d="M1263.18,-188.623C1161.56,-188.209 960.935,-181.903 796,-143 734.51,-128.496 666.247,-96.3907 635.546,-81.022"/>
<polygon fill="midnightblue" stroke="midnightblue" points="1263.29,-192.123 1273.3,-188.646 1263.31,-185.123 1263.29,-192.123"/>
</g>
<!-- Node16 -->
<g id="node16" class="node"><title>Node16</title>
<g id="a_node16"><a xlink:href="erpc__server_8h.html" target="_top" xlink:title="erpc_server.h">
<polygon fill="white" stroke="black" points="1376,-123.5 1376,-142.5 1450,-142.5 1450,-123.5 1376,-123.5"/>
<text text-anchor="middle" x="1413" y="-130.5" font-family="Helvetica,sans-Serif" font-size="10.00">erpc_server.h</text>
</a>
</g>
</g>
<!-- Node2&#45;&gt;Node16 -->
<g id="edge15" class="edge"><title>Node2&#45;&gt;Node16</title>
<path fill="none" stroke="midnightblue" d="M1350.93,-173.901C1366.34,-163.999 1386.45,-151.071 1399.54,-142.655"/>
<polygon fill="midnightblue" stroke="midnightblue" points="1349.02,-170.972 1342.5,-179.324 1352.8,-176.86 1349.02,-170.972"/>
</g>
<!-- Node18 -->
<g id="node18" class="node"><title>Node18</title>
<g id="a_node18"><a xlink:href="erpc__port_8h.html" target="_top" xlink:title="erpc_port.h">
<polygon fill="white" stroke="black" points="1468.5,-123.5 1468.5,-142.5 1533.5,-142.5 1533.5,-123.5 1468.5,-123.5"/>
<text text-anchor="middle" x="1501" y="-130.5" font-family="Helvetica,sans-Serif" font-size="10.00">erpc_port.h</text>
</a>
</g>
</g>
<!-- Node2&#45;&gt;Node18 -->
<g id="edge17" class="edge"><title>Node2&#45;&gt;Node18</title>
<path fill="none" stroke="midnightblue" d="M1365.83,-176.436C1398.26,-166.255 1444.74,-151.664 1473.87,-142.516"/>
<polygon fill="midnightblue" stroke="midnightblue" points="1364.75,-173.109 1356.25,-179.444 1366.84,-179.787 1364.75,-173.109"/>
</g>
<!-- Node19 -->
<g id="node19" class="node"><title>Node19</title>
<g id="a_node19"><a xlink:href="erpc__threading_8h.html" target="_top" xlink:title="erpc_threading.h">
<polygon fill="white" stroke="black" points="805.5,-123.5 805.5,-142.5 894.5,-142.5 894.5,-123.5 805.5,-123.5"/>
<text text-anchor="middle" x="850" y="-130.5" font-family="Helvetica,sans-Serif" font-size="10.00">erpc_threading.h</text>
</a>
</g>
</g>
<!-- Node2&#45;&gt;Node19 -->
<g id="edge18" class="edge"><title>Node2&#45;&gt;Node19</title>
<path fill="none" stroke="midnightblue" d="M1262.92,-180.551C1163.8,-169.377 979.253,-148.571 894.565,-139.024"/>
<polygon fill="midnightblue" stroke="midnightblue" points="1262.79,-184.057 1273.12,-181.7 1263.57,-177.102 1262.79,-184.057"/>
</g>
<!-- Node21 -->
<g id="node21" class="node"><title>Node21</title>
<g id="a_node21"><a xlink:href="erpc__mu__transport_8h.html" target="_top" xlink:title="erpc_mu_transport.h">
<polygon fill="white" stroke="black" points="874,-62 874,-81 980,-81 980,-62 874,-62"/>
<text text-anchor="middle" x="927" y="-69" font-family="Helvetica,sans-Serif" font-size="10.00">erpc_mu_transport.h</text>
</a>
</g>
</g>
<!-- Node2&#45;&gt;Node21 -->
<g id="edge27" class="edge"><title>Node2&#45;&gt;Node21</title>
<path fill="none" stroke="midnightblue" d="M1284.76,-176.965C1249.94,-168.148 1200.24,-155.278 1157,-143 1082.88,-121.953 996.129,-94.6245 953.456,-81.001"/>
<polygon fill="midnightblue" stroke="midnightblue" points="1284.07,-180.399 1294.62,-179.453 1285.78,-173.612 1284.07,-180.399"/>
</g>
<!-- Node22 -->
<g id="node22" class="node"><title>Node22</title>
<g id="a_node22"><a xlink:href="erpc__server__setup_8h.html" target="_top" xlink:title="erpc_server_setup.h">
<polygon fill="white" stroke="black" points="1552,-123.5 1552,-142.5 1656,-142.5 1656,-123.5 1552,-123.5"/>
<text text-anchor="middle" x="1604" y="-130.5" font-family="Helvetica,sans-Serif" font-size="10.00">erpc_server_setup.h</text>
</a>
</g>
</g>
<!-- Node2&#45;&gt;Node22 -->
<g id="edge26" class="edge"><title>Node2&#45;&gt;Node22</title>
<path fill="none" stroke="midnightblue" d="M1382.61,-177.473C1434.58,-167.268 1512.44,-151.979 1560.63,-142.516"/>
<polygon fill="midnightblue" stroke="midnightblue" points="1381.71,-174.082 1372.57,-179.444 1383.06,-180.951 1381.71,-174.082"/>
</g>
<!-- Node23 -->
<g id="node23" class="node"><title>Node23</title>
<g id="a_node23"><a xlink:href="erpc__rpmsg__lite__transport_8h.html" target="_top" xlink:title="erpc_rpmsg_lite_transport.h">
<polygon fill="white" stroke="black" points="1674.5,-123.5 1674.5,-142.5 1811.5,-142.5 1811.5,-123.5 1674.5,-123.5"/>
<text text-anchor="middle" x="1743" y="-130.5" font-family="Helvetica,sans-Serif" font-size="10.00">erpc_rpmsg_lite_transport.h</text>
</a>
</g>
</g>
<!-- Node2&#45;&gt;Node23 -->
<g id="edge28" class="edge"><title>Node2&#45;&gt;Node23</title>
<path fill="none" stroke="midnightblue" d="M1394.96,-179.397C1472.44,-169.29 1600.21,-152.625 1677.5,-142.544"/>
<polygon fill="midnightblue" stroke="midnightblue" points="1394.3,-175.953 1384.83,-180.717 1395.2,-182.894 1394.3,-175.953"/>
</g>
<!-- Node4 -->
<g id="node4" class="node"><title>Node4</title>
<g id="a_node4"><a xlink:href="erpc__arbitrated__client__manager_8h.html" target="_top" xlink:title="erpc_arbitrated_client\l_manager.h">
<polygon fill="white" stroke="black" points="1148,-56.5 1148,-86.5 1258,-86.5 1258,-56.5 1148,-56.5"/>
<text text-anchor="start" x="1156" y="-74.5" font-family="Helvetica,sans-Serif" font-size="10.00">erpc_arbitrated_client</text>
<text text-anchor="middle" x="1203" y="-63.5" font-family="Helvetica,sans-Serif" font-size="10.00">_manager.h</text>
</a>
</g>
</g>
<!-- Node3&#45;&gt;Node4 -->
<g id="edge3" class="edge"><title>Node3&#45;&gt;Node4</title>
<path fill="none" stroke="midnightblue" d="M1217.58,-113.816C1214.49,-105.041 1210.83,-94.6761 1207.95,-86.523"/>
<polygon fill="midnightblue" stroke="midnightblue" points="1214.36,-115.21 1220.99,-123.475 1220.96,-112.88 1214.36,-115.21"/>
</g>
<!-- Node5 -->
<g id="node5" class="node"><title>Node5</title>
<g id="a_node5"><a xlink:href="erpc__transport__arbitrator_8h.html" target="_top" xlink:title="erpc_transport_arbitrator.h">
<polygon fill="white" stroke="black" points="998.5,-62 998.5,-81 1129.5,-81 1129.5,-62 998.5,-62"/>
<text text-anchor="middle" x="1064" y="-69" font-family="Helvetica,sans-Serif" font-size="10.00">erpc_transport_arbitrator.h</text>
</a>
</g>
</g>
<!-- Node3&#45;&gt;Node5 -->
<g id="edge4" class="edge"><title>Node3&#45;&gt;Node5</title>
<path fill="none" stroke="midnightblue" d="M1191.55,-119.933C1160.45,-108.368 1114.31,-91.2083 1086.88,-81.0091"/>
<polygon fill="midnightblue" stroke="midnightblue" points="1190.48,-123.27 1201.08,-123.475 1192.92,-116.709 1190.48,-123.27"/>
</g>
<!-- Node3&#45;&gt;Node6 -->
<g id="edge5" class="edge"><title>Node3&#45;&gt;Node6</title>
<path fill="none" stroke="midnightblue" d="M1248.2,-118.542C1265.38,-108.991 1288.38,-96.1992 1305.78,-86.523"/>
<polygon fill="midnightblue" stroke="midnightblue" points="1246.37,-115.556 1239.33,-123.475 1249.77,-121.674 1246.37,-115.556"/>
</g>
<!-- Node3&#45;&gt;Node7 -->
<g id="edge6" class="edge"><title>Node3&#45;&gt;Node7</title>
<path fill="none" stroke="midnightblue" d="M1266.83,-120.968C1311.68,-109.415 1381.17,-91.5173 1421.96,-81.0091"/>
<polygon fill="midnightblue" stroke="midnightblue" points="1265.91,-117.591 1257.1,-123.475 1267.65,-124.37 1265.91,-117.591"/>
</g>
<!-- Node9 -->
<g id="node9" class="node"><title>Node9</title>
<g id="a_node9"><a xlink:href="erpc__dspi__master__transport_8h.html" target="_top" xlink:title="erpc_dspi_master_transport.h">
<polygon fill="white" stroke="black" points="466,-0.5 466,-19.5 612,-19.5 612,-0.5 466,-0.5"/>
<text text-anchor="middle" x="539" y="-7.5" font-family="Helvetica,sans-Serif" font-size="10.00">erpc_dspi_master_transport.h</text>
</a>
</g>
</g>
<!-- Node8&#45;&gt;Node9 -->
<g id="edge8" class="edge"><title>Node8&#45;&gt;Node9</title>
<path fill="none" stroke="midnightblue" d="M599.227,-55.7938C583.881,-44.3803 563.145,-28.9577 550.441,-19.5091"/>
<polygon fill="midnightblue" stroke="midnightblue" points="597.425,-58.8156 607.538,-61.9751 601.603,-53.1988 597.425,-58.8156"/>
</g>
<!-- Node10 -->
<g id="node10" class="node"><title>Node10</title>
<g id="a_node10"><a xlink:href="erpc__dspi__slave__transport_8h.html" target="_top" xlink:title="erpc_dspi_slave_transport.h">
<polygon fill="white" stroke="black" points="630.5,-0.5 630.5,-19.5 767.5,-19.5 767.5,-0.5 630.5,-0.5"/>
<text text-anchor="middle" x="699" y="-7.5" font-family="Helvetica,sans-Serif" font-size="10.00">erpc_dspi_slave_transport.h</text>
</a>
</g>
</g>
<!-- Node8&#45;&gt;Node10 -->
<g id="edge9" class="edge"><title>Node8&#45;&gt;Node10</title>
<path fill="none" stroke="midnightblue" d="M638.773,-55.7938C654.119,-44.3803 674.855,-28.9577 687.559,-19.5091"/>
<polygon fill="midnightblue" stroke="midnightblue" points="636.397,-53.1988 630.462,-61.9751 640.575,-58.8156 636.397,-53.1988"/>
</g>
<!-- Node11 -->
<g id="node11" class="node"><title>Node11</title>
<g id="a_node11"><a xlink:href="erpc__serial__transport_8h.html" target="_top" xlink:title="erpc_serial_transport.h">
<polygon fill="white" stroke="black" points="786,-0.5 786,-19.5 902,-19.5 902,-0.5 786,-0.5"/>
<text text-anchor="middle" x="844" y="-7.5" font-family="Helvetica,sans-Serif" font-size="10.00">erpc_serial_transport.h</text>
</a>
</g>
</g>
<!-- Node8&#45;&gt;Node11 -->
<g id="edge10" class="edge"><title>Node8&#45;&gt;Node11</title>
<path fill="none" stroke="midnightblue" d="M660.992,-59.3956C704.691,-47.8396 772.169,-29.9952 811.823,-19.5091"/>
<polygon fill="midnightblue" stroke="midnightblue" points="660.01,-56.0348 651.237,-61.9751 661.8,-62.8022 660.01,-56.0348"/>
</g>
<!-- Node12 -->
<g id="node12" class="node"><title>Node12</title>
<g id="a_node12"><a xlink:href="erpc__spi__master__transport_8h.html" target="_top" xlink:title="erpc_spi_master_transport.h">
<polygon fill="white" stroke="black" points="0,-0.5 0,-19.5 140,-19.5 140,-0.5 0,-0.5"/>
<text text-anchor="middle" x="70" y="-7.5" font-family="Helvetica,sans-Serif" font-size="10.00">erpc_spi_master_transport.h</text>
</a>
</g>
</g>
<!-- Node8&#45;&gt;Node12 -->
<g id="edge11" class="edge"><title>Node8&#45;&gt;Node12</title>
<path fill="none" stroke="midnightblue" d="M547.728,-62.9855C455.63,-53.2422 290.322,-35.6421 149,-20 146.119,-19.6811 143.179,-19.3539 140.209,-19.022"/>
<polygon fill="midnightblue" stroke="midnightblue" points="547.459,-66.4765 557.772,-64.0476 548.196,-59.5153 547.459,-66.4765"/>
</g>
<!-- Node13 -->
<g id="node13" class="node"><title>Node13</title>
<g id="a_node13"><a xlink:href="erpc__spi__slave__transport_8h.html" target="_top" xlink:title="erpc_spi_slave_transport.h">
<polygon fill="white" stroke="black" points="158,-0.5 158,-19.5 290,-19.5 290,-0.5 158,-0.5"/>
<text text-anchor="middle" x="224" y="-7.5" font-family="Helvetica,sans-Serif" font-size="10.00">erpc_spi_slave_transport.h</text>
</a>
</g>
</g>
<!-- Node8&#45;&gt;Node13 -->
<g id="edge12" class="edge"><title>Node8&#45;&gt;Node13</title>
<path fill="none" stroke="midnightblue" d="M552.422,-60.4711C476.096,-48.9739 352.301,-30.3264 280.489,-19.5091"/>
<polygon fill="midnightblue" stroke="midnightblue" points="551.996,-63.9464 562.406,-61.9751 553.039,-57.0245 551.996,-63.9464"/>
</g>
<!-- Node14 -->
<g id="node14" class="node"><title>Node14</title>
<g id="a_node14"><a xlink:href="erpc__tcp__transport_8h.html" target="_top" xlink:title="erpc_tcp_transport.h">
<polygon fill="white" stroke="black" points="920,-0.5 920,-19.5 1026,-19.5 1026,-0.5 920,-0.5"/>
<text text-anchor="middle" x="973" y="-7.5" font-family="Helvetica,sans-Serif" font-size="10.00">erpc_tcp_transport.h</text>
</a>
</g>
</g>
<!-- Node8&#45;&gt;Node14 -->
<g id="edge13" class="edge"><title>Node8&#45;&gt;Node14</title>
<path fill="none" stroke="midnightblue" d="M668.496,-59.9451C675.373,-58.5669 682.356,-57.2138 689,-56 732.215,-48.105 850.244,-29.7961 919.791,-19.124"/>
<polygon fill="midnightblue" stroke="midnightblue" points="667.649,-56.5456 658.548,-61.969 669.045,-63.4051 667.649,-56.5456"/>
</g>
<!-- Node15 -->
<g id="node15" class="node"><title>Node15</title>
<g id="a_node15"><a xlink:href="erpc__uart__cmsis__transport_8h.html" target="_top" xlink:title="erpc_uart_cmsis_transport.h">
<polygon fill="white" stroke="black" points="308,-0.5 308,-19.5 448,-19.5 448,-0.5 308,-0.5"/>
<text text-anchor="middle" x="378" y="-7.5" font-family="Helvetica,sans-Serif" font-size="10.00">erpc_uart_cmsis_transport.h</text>
</a>
</g>
</g>
<!-- Node8&#45;&gt;Node15 -->
<g id="edge14" class="edge"><title>Node8&#45;&gt;Node15</title>
<path fill="none" stroke="midnightblue" d="M574.612,-59.5412C527.825,-47.99 455.118,-30.0394 412.465,-19.5091"/>
<polygon fill="midnightblue" stroke="midnightblue" points="573.923,-62.9761 584.471,-61.9751 575.601,-56.1801 573.923,-62.9761"/>
</g>
<!-- Node17 -->
<g id="node17" class="node"><title>Node17</title>
<g id="a_node17"><a xlink:href="erpc__simple__server_8h.html" target="_top" xlink:title="erpc_simple_server.h">
<polygon fill="white" stroke="black" points="1524,-62 1524,-81 1632,-81 1632,-62 1524,-62"/>
<text text-anchor="middle" x="1578" y="-69" font-family="Helvetica,sans-Serif" font-size="10.00">erpc_simple_server.h</text>
</a>
</g>
</g>
<!-- Node16&#45;&gt;Node17 -->
<g id="edge16" class="edge"><title>Node16&#45;&gt;Node17</title>
<path fill="none" stroke="midnightblue" d="M1446.05,-120.083C1478.12,-108.517 1526,-91.2524 1554.4,-81.0091"/>
<polygon fill="midnightblue" stroke="midnightblue" points="1444.86,-116.79 1436.64,-123.475 1447.23,-123.375 1444.86,-116.79"/>
</g>
<!-- Node19&#45;&gt;Node5 -->
<g id="edge19" class="edge"><title>Node19&#45;&gt;Node5</title>
<path fill="none" stroke="midnightblue" d="M890.465,-120.749C932.041,-109.189 995.84,-91.4511 1033.4,-81.0091"/>
<polygon fill="midnightblue" stroke="midnightblue" points="889.358,-117.424 880.661,-123.475 891.233,-124.168 889.358,-117.424"/>
</g>
<!-- Node19&#45;&gt;Node8 -->
<g id="edge20" class="edge"><title>Node19&#45;&gt;Node8</title>
<path fill="none" stroke="midnightblue" d="M807.172,-120.968C762.316,-109.415 692.832,-91.5173 652.035,-81.0091"/>
<polygon fill="midnightblue" stroke="midnightblue" points="806.346,-124.37 816.903,-123.475 808.092,-117.591 806.346,-124.37"/>
</g>
<!-- Node19&#45;&gt;Node14 -->
<g id="edge23" class="edge"><title>Node19&#45;&gt;Node14</title>
<path fill="none" stroke="midnightblue" d="M849.001,-113.177C849.111,-96.3976 851.858,-72.0727 865,-56 880.494,-37.0516 905.33,-25.9711 927.281,-19.5498"/>
<polygon fill="midnightblue" stroke="midnightblue" points="845.508,-113.483 849.252,-123.395 852.506,-113.312 845.508,-113.483"/>
</g>
<!-- Node20 -->
<g id="node20" class="node"><title>Node20</title>
<g id="a_node20"><a xlink:href="erpc__inter__thread__buffer__transport_8h.html" target="_top" xlink:title="erpc_inter_thread_buffer\l_transport.h">
<polygon fill="white" stroke="black" points="698,-56.5 698,-86.5 818,-86.5 818,-56.5 698,-56.5"/>
<text text-anchor="start" x="706" y="-74.5" font-family="Helvetica,sans-Serif" font-size="10.00">erpc_inter_thread_buffer</text>
<text text-anchor="middle" x="758" y="-63.5" font-family="Helvetica,sans-Serif" font-size="10.00">_transport.h</text>
</a>
</g>
</g>
<!-- Node19&#45;&gt;Node20 -->
<g id="edge21" class="edge"><title>Node19&#45;&gt;Node20</title>
<path fill="none" stroke="midnightblue" d="M828.366,-118.008C813.692,-108.518 794.367,-96.02 779.683,-86.523"/>
<polygon fill="midnightblue" stroke="midnightblue" points="826.521,-120.983 836.819,-123.475 830.322,-115.106 826.521,-120.983"/>
</g>
<!-- Node19&#45;&gt;Node21 -->
<g id="edge22" class="edge"><title>Node19&#45;&gt;Node21</title>
<path fill="none" stroke="midnightblue" d="M869.032,-117.294C883.802,-105.88 903.761,-90.4577 915.988,-81.0091"/>
<polygon fill="midnightblue" stroke="midnightblue" points="866.805,-114.591 861.032,-123.475 871.085,-120.13 866.805,-114.591"/>
</g>
</g>
</svg>
