<?xml version="1.0" encoding="UTF-8" standalone="no"?>
<!DOCTYPE svg PUBLIC "-//W3C//DTD SVG 1.1//EN"
 "http://www.w3.org/Graphics/SVG/1.1/DTD/svg11.dtd">
<!-- Generated by graphviz version 2.38.0 (20140413.2041)
 -->
<!-- Title: erpc_message_buffer.h Pages: 1 -->
<svg width="2035pt" height="285pt"
 viewBox="0.00 0.00 2035.00 285.00" xmlns="http://www.w3.org/2000/svg" xmlns:xlink="http://www.w3.org/1999/xlink">
<g id="graph0" class="graph" transform="scale(1 1) rotate(0) translate(4 281)">
<title>erpc_message_buffer.h</title>
<polygon fill="white" stroke="none" points="-4,4 -4,-281 2031,-281 2031,4 -4,4"/>
<!-- Node1 -->
<g id="node1" class="node"><title>Node1</title>
<polygon fill="#bfbfbf" stroke="black" points="1310.5,-257.5 1310.5,-276.5 1427.5,-276.5 1427.5,-257.5 1310.5,-257.5"/>
<text text-anchor="middle" x="1369" y="-264.5" font-family="Helvetica,sans-Serif" font-size="10.00">erpc_message_buffer.h</text>
</g>
<!-- Node2 -->
<g id="node2" class="node"><title>Node2</title>
<g id="a_node2"><a xlink:href="erpc__codec_8h.html" target="_top" xlink:title="erpc_codec.h">
<polygon fill="white" stroke="black" points="325.5,-140 325.5,-159 400.5,-159 400.5,-140 325.5,-140"/>
<text text-anchor="middle" x="363" y="-147" font-family="Helvetica,sans-Serif" font-size="10.00">erpc_codec.h</text>
</a>
</g>
</g>
<!-- Node1&#45;&gt;Node2 -->
<g id="edge1" class="edge"><title>Node1&#45;&gt;Node2</title>
<path fill="none" stroke="midnightblue" d="M1300.3,-264.283C1141.58,-259.125 737.953,-239.165 410,-165 402.837,-163.38 395.183,-161.212 388.175,-159.047"/>
<polygon fill="midnightblue" stroke="midnightblue" points="1300.29,-267.784 1310.39,-264.602 1300.51,-260.788 1300.29,-267.784"/>
</g>
<!-- Node11 -->
<g id="node11" class="node"><title>Node11</title>
<g id="a_node11"><a xlink:href="erpc__transport_8h.html" target="_top" xlink:title="erpc_transport.h">
<polygon fill="white" stroke="black" points="1024.5,-201.5 1024.5,-220.5 1111.5,-220.5 1111.5,-201.5 1024.5,-201.5"/>
<text text-anchor="middle" x="1068" y="-208.5" font-family="Helvetica,sans-Serif" font-size="10.00">erpc_transport.h</text>
</a>
</g>
</g>
<!-- Node1&#45;&gt;Node11 -->
<g id="edge11" class="edge"><title>Node1&#45;&gt;Node11</title>
<path fill="none" stroke="midnightblue" d="M1311.15,-255.621C1252.84,-245.161 1164.17,-229.253 1111.56,-219.815"/>
<polygon fill="midnightblue" stroke="midnightblue" points="1310.84,-259.123 1321.31,-257.444 1312.08,-252.233 1310.84,-259.123"/>
</g>
<!-- Node12 -->
<g id="node12" class="node"><title>Node12</title>
<g id="a_node12"><a xlink:href="erpc__framed__transport_8h.html" target="_top" xlink:title="erpc_framed_transport.h">
<polygon fill="white" stroke="black" points="1186,-140 1186,-159 1308,-159 1308,-140 1186,-140"/>
<text text-anchor="middle" x="1247" y="-147" font-family="Helvetica,sans-Serif" font-size="10.00">erpc_framed_transport.h</text>
</a>
</g>
</g>
<!-- Node1&#45;&gt;Node12 -->
<g id="edge32" class="edge"><title>Node1&#45;&gt;Node12</title>
<path fill="none" stroke="midnightblue" d="M1352.25,-250.146C1326.19,-225.469 1276.78,-178.692 1256.28,-159.282"/>
<polygon fill="midnightblue" stroke="midnightblue" points="1350.16,-252.985 1359.83,-257.319 1354.97,-247.902 1350.16,-252.985"/>
</g>
<!-- Node21 -->
<g id="node21" class="node"><title>Node21</title>
<g id="a_node21"><a xlink:href="erpc__inter__thread__buffer__transport_8h.html" target="_top" xlink:title="erpc_inter_thread_buffer\l_transport.h">
<polygon fill="white" stroke="black" points="419,-134.5 419,-164.5 539,-164.5 539,-134.5 419,-134.5"/>
<text text-anchor="start" x="427" y="-152.5" font-family="Helvetica,sans-Serif" font-size="10.00">erpc_inter_thread_buffer</text>
<text text-anchor="middle" x="479" y="-141.5" font-family="Helvetica,sans-Serif" font-size="10.00">_transport.h</text>
</a>
</g>
</g>
<!-- Node1&#45;&gt;Node21 -->
<g id="edge33" class="edge"><title>Node1&#45;&gt;Node21</title>
<path fill="none" stroke="midnightblue" d="M1300.01,-259.507C1158.48,-245.749 825.275,-211.104 548,-165 545.102,-164.518 542.141,-163.999 539.154,-163.454"/>
<polygon fill="midnightblue" stroke="midnightblue" points="1299.98,-263.021 1310.27,-260.501 1300.65,-256.053 1299.98,-263.021"/>
</g>
<!-- Node22 -->
<g id="node22" class="node"><title>Node22</title>
<g id="a_node22"><a xlink:href="erpc__mu__transport_8h.html" target="_top" xlink:title="erpc_mu_transport.h">
<polygon fill="white" stroke="black" points="1508,-140 1508,-159 1614,-159 1614,-140 1508,-140"/>
<text text-anchor="middle" x="1561" y="-147" font-family="Helvetica,sans-Serif" font-size="10.00">erpc_mu_transport.h</text>
</a>
</g>
</g>
<!-- Node1&#45;&gt;Node22 -->
<g id="edge34" class="edge"><title>Node1&#45;&gt;Node22</title>
<path fill="none" stroke="midnightblue" d="M1392,-252.162C1432.1,-228.04 1513.66,-178.975 1546.66,-159.124"/>
<polygon fill="midnightblue" stroke="midnightblue" points="1390.2,-249.165 1383.43,-257.319 1393.8,-255.163 1390.2,-249.165"/>
</g>
<!-- Node25 -->
<g id="node25" class="node"><title>Node25</title>
<g id="a_node25"><a xlink:href="erpc__rpmsg__lite__rtos__transport_8h.html" target="_top" xlink:title="erpc_rpmsg_lite_rtos\l_transport.h">
<polygon fill="white" stroke="black" points="1640.5,-67.5 1640.5,-97.5 1747.5,-97.5 1747.5,-67.5 1640.5,-67.5"/>
<text text-anchor="start" x="1648.5" y="-85.5" font-family="Helvetica,sans-Serif" font-size="10.00">erpc_rpmsg_lite_rtos</text>
<text text-anchor="middle" x="1694" y="-74.5" font-family="Helvetica,sans-Serif" font-size="10.00">_transport.h</text>
</a>
</g>
</g>
<!-- Node1&#45;&gt;Node25 -->
<g id="edge35" class="edge"><title>Node1&#45;&gt;Node25</title>
<path fill="none" stroke="midnightblue" d="M1415.19,-254.78C1468.71,-240.235 1557.88,-211.128 1623,-165 1649.49,-146.235 1672.6,-115.613 1684.8,-97.7284"/>
<polygon fill="midnightblue" stroke="midnightblue" points="1414.06,-251.457 1405.3,-257.411 1415.86,-258.222 1414.06,-251.457"/>
</g>
<!-- Node26 -->
<g id="node26" class="node"><title>Node26</title>
<g id="a_node26"><a xlink:href="erpc__rpmsg__lite__transport_8h.html" target="_top" xlink:title="erpc_rpmsg_lite_transport.h">
<polygon fill="white" stroke="black" points="1765.5,-73 1765.5,-92 1902.5,-92 1902.5,-73 1765.5,-73"/>
<text text-anchor="middle" x="1834" y="-80" font-family="Helvetica,sans-Serif" font-size="10.00">erpc_rpmsg_lite_transport.h</text>
</a>
</g>
</g>
<!-- Node1&#45;&gt;Node26 -->
<g id="edge36" class="edge"><title>Node1&#45;&gt;Node26</title>
<path fill="none" stroke="midnightblue" d="M1426,-255.368C1462.83,-247.695 1511.45,-236.047 1553,-221 1659.22,-182.532 1778.34,-115.803 1819.27,-92.1321"/>
<polygon fill="midnightblue" stroke="midnightblue" points="1425.04,-251.992 1415.95,-257.426 1426.44,-258.85 1425.04,-251.992"/>
</g>
<!-- Node27 -->
<g id="node27" class="node"><title>Node27</title>
<g id="a_node27"><a xlink:href="erpc__rpmsg__tty__rtos__transport_8h.html" target="_top" xlink:title="erpc_rpmsg_tty_rtos\l_transport.h">
<polygon fill="white" stroke="black" points="1921,-67.5 1921,-97.5 2027,-97.5 2027,-67.5 1921,-67.5"/>
<text text-anchor="start" x="1929" y="-85.5" font-family="Helvetica,sans-Serif" font-size="10.00">erpc_rpmsg_tty_rtos</text>
<text text-anchor="middle" x="1974" y="-74.5" font-family="Helvetica,sans-Serif" font-size="10.00">_transport.h</text>
</a>
</g>
</g>
<!-- Node1&#45;&gt;Node27 -->
<g id="edge37" class="edge"><title>Node1&#45;&gt;Node27</title>
<path fill="none" stroke="midnightblue" d="M1431.11,-255.715C1475.49,-247.781 1536.4,-235.693 1589,-221 1721.1,-184.099 1873.15,-124.556 1939.76,-97.5827"/>
<polygon fill="midnightblue" stroke="midnightblue" points="1430.29,-252.305 1421.06,-257.492 1431.51,-259.198 1430.29,-252.305"/>
</g>
<!-- Node3 -->
<g id="node3" class="node"><title>Node3</title>
<g id="a_node3"><a xlink:href="erpc__client__manager_8h.html" target="_top" xlink:title="erpc_client_manager.h">
<polygon fill="white" stroke="black" points="254.5,-73 254.5,-92 369.5,-92 369.5,-73 254.5,-73"/>
<text text-anchor="middle" x="312" y="-80" font-family="Helvetica,sans-Serif" font-size="10.00">erpc_client_manager.h</text>
</a>
</g>
</g>
<!-- Node2&#45;&gt;Node3 -->
<g id="edge2" class="edge"><title>Node2&#45;&gt;Node3</title>
<path fill="none" stroke="midnightblue" d="M349.874,-131.77C339.93,-119.097 326.673,-102.201 318.769,-92.1273"/>
<polygon fill="midnightblue" stroke="midnightblue" points="347.195,-134.027 356.122,-139.734 352.703,-129.706 347.195,-134.027"/>
</g>
<!-- Node5 -->
<g id="node5" class="node"><title>Node5</title>
<g id="a_node5"><a xlink:href="erpc__transport__arbitrator_8h.html" target="_top" xlink:title="erpc_transport_arbitrator.h">
<polygon fill="white" stroke="black" points="502.5,-6 502.5,-25 633.5,-25 633.5,-6 502.5,-6"/>
<text text-anchor="middle" x="568" y="-13" font-family="Helvetica,sans-Serif" font-size="10.00">erpc_transport_arbitrator.h</text>
</a>
</g>
</g>
<!-- Node2&#45;&gt;Node5 -->
<g id="edge7" class="edge"><title>Node2&#45;&gt;Node5</title>
<path fill="none" stroke="midnightblue" d="M370.655,-130.403C379.334,-111.956 395.168,-83.7415 417,-67 445.845,-44.8806 484.899,-32.1605 516.063,-25.0199"/>
<polygon fill="midnightblue" stroke="midnightblue" points="367.365,-129.186 366.478,-139.744 373.756,-132.043 367.365,-129.186"/>
</g>
<!-- Node8 -->
<g id="node8" class="node"><title>Node8</title>
<g id="a_node8"><a xlink:href="erpc__basic__codec_8h.html" target="_top" xlink:title="erpc_basic_codec.h">
<polygon fill="white" stroke="black" points="426,-73 426,-92 530,-92 530,-73 426,-73"/>
<text text-anchor="middle" x="478" y="-80" font-family="Helvetica,sans-Serif" font-size="10.00">erpc_basic_codec.h</text>
</a>
</g>
</g>
<!-- Node2&#45;&gt;Node8 -->
<g id="edge8" class="edge"><title>Node2&#45;&gt;Node8</title>
<path fill="none" stroke="midnightblue" d="M387.261,-134.787C410.053,-121.905 443.457,-103.024 462.736,-92.1273"/>
<polygon fill="midnightblue" stroke="midnightblue" points="385.493,-131.766 378.509,-139.734 388.937,-137.86 385.493,-131.766"/>
</g>
<!-- Node9 -->
<g id="node9" class="node"><title>Node9</title>
<g id="a_node9"><a xlink:href="erpc__server_8h.html" target="_top" xlink:title="erpc_server.h">
<polygon fill="white" stroke="black" points="85,-73 85,-92 159,-92 159,-73 85,-73"/>
<text text-anchor="middle" x="122" y="-80" font-family="Helvetica,sans-Serif" font-size="10.00">erpc_server.h</text>
</a>
</g>
</g>
<!-- Node2&#45;&gt;Node9 -->
<g id="edge9" class="edge"><title>Node2&#45;&gt;Node9</title>
<path fill="none" stroke="midnightblue" d="M321.299,-137.253C273.665,-124.405 196.773,-103.667 153.751,-92.0637"/>
<polygon fill="midnightblue" stroke="midnightblue" points="320.431,-140.644 330.997,-139.869 322.254,-133.885 320.431,-140.644"/>
</g>
<!-- Node4 -->
<g id="node4" class="node"><title>Node4</title>
<g id="a_node4"><a xlink:href="erpc__arbitrated__client__manager_8h.html" target="_top" xlink:title="erpc_arbitrated_client\l_manager.h">
<polygon fill="white" stroke="black" points="246,-0.5 246,-30.5 356,-30.5 356,-0.5 246,-0.5"/>
<text text-anchor="start" x="254" y="-18.5" font-family="Helvetica,sans-Serif" font-size="10.00">erpc_arbitrated_client</text>
<text text-anchor="middle" x="301" y="-7.5" font-family="Helvetica,sans-Serif" font-size="10.00">_manager.h</text>
</a>
</g>
</g>
<!-- Node3&#45;&gt;Node4 -->
<g id="edge3" class="edge"><title>Node3&#45;&gt;Node4</title>
<path fill="none" stroke="midnightblue" d="M308.825,-62.7386C307.09,-52.4873 304.977,-40.0011 303.384,-30.589"/>
<polygon fill="midnightblue" stroke="midnightblue" points="305.397,-63.458 310.516,-72.7338 312.299,-62.29 305.397,-63.458"/>
</g>
<!-- Node3&#45;&gt;Node5 -->
<g id="edge4" class="edge"><title>Node3&#45;&gt;Node5</title>
<path fill="none" stroke="midnightblue" d="M355.702,-70.4039C406.225,-57.5757 488.301,-36.7361 534.195,-25.0834"/>
<polygon fill="midnightblue" stroke="midnightblue" points="354.562,-67.0821 345.731,-72.9355 356.285,-73.8669 354.562,-67.0821"/>
</g>
<!-- Node6 -->
<g id="node6" class="node"><title>Node6</title>
<g id="a_node6"><a xlink:href="erpc__arbitrated__client__setup_8h.html" target="_top" xlink:title="erpc_arbitrated_client\l_setup.h">
<polygon fill="white" stroke="black" points="374,-0.5 374,-30.5 484,-30.5 484,-0.5 374,-0.5"/>
<text text-anchor="start" x="382" y="-18.5" font-family="Helvetica,sans-Serif" font-size="10.00">erpc_arbitrated_client</text>
<text text-anchor="middle" x="429" y="-7.5" font-family="Helvetica,sans-Serif" font-size="10.00">_setup.h</text>
</a>
</g>
</g>
<!-- Node3&#45;&gt;Node6 -->
<g id="edge5" class="edge"><title>Node3&#45;&gt;Node6</title>
<path fill="none" stroke="midnightblue" d="M336.745,-67.7528C356.411,-56.8271 383.814,-41.6031 403.64,-30.589"/>
<polygon fill="midnightblue" stroke="midnightblue" points="334.821,-64.8178 327.779,-72.7338 338.22,-70.9369 334.821,-64.8178"/>
</g>
<!-- Node7 -->
<g id="node7" class="node"><title>Node7</title>
<g id="a_node7"><a xlink:href="erpc__client__setup_8h.html" target="_top" xlink:title="erpc_client_setup.h">
<polygon fill="white" stroke="black" points="126.5,-6 126.5,-25 227.5,-25 227.5,-6 126.5,-6"/>
<text text-anchor="middle" x="177" y="-13" font-family="Helvetica,sans-Serif" font-size="10.00">erpc_client_setup.h</text>
</a>
</g>
</g>
<!-- Node3&#45;&gt;Node7 -->
<g id="edge6" class="edge"><title>Node3&#45;&gt;Node7</title>
<path fill="none" stroke="midnightblue" d="M284.883,-68.4436C258.144,-55.5691 218.034,-36.2573 195.001,-25.1672"/>
<polygon fill="midnightblue" stroke="midnightblue" points="283.545,-71.6838 294.073,-72.8685 286.581,-65.3768 283.545,-71.6838"/>
</g>
<!-- Node10 -->
<g id="node10" class="node"><title>Node10</title>
<g id="a_node10"><a xlink:href="erpc__simple__server_8h.html" target="_top" xlink:title="erpc_simple_server.h">
<polygon fill="white" stroke="black" points="0,-6 0,-25 108,-25 108,-6 0,-6"/>
<text text-anchor="middle" x="54" y="-13" font-family="Helvetica,sans-Serif" font-size="10.00">erpc_simple_server.h</text>
</a>
</g>
</g>
<!-- Node9&#45;&gt;Node10 -->
<g id="edge10" class="edge"><title>Node9&#45;&gt;Node10</title>
<path fill="none" stroke="midnightblue" d="M105.258,-65.4968C91.9226,-52.7496 73.7667,-35.3947 63.0255,-25.1273"/>
<polygon fill="midnightblue" stroke="midnightblue" points="103.182,-68.354 112.829,-72.7338 108.019,-63.2939 103.182,-68.354"/>
</g>
<!-- Node11&#45;&gt;Node2 -->
<g id="edge12" class="edge"><title>Node11&#45;&gt;Node2</title>
<path fill="none" stroke="midnightblue" d="M1014.35,-210.5C901.478,-210.641 631.609,-206.189 410,-165 402.444,-163.596 394.392,-161.387 387.126,-159.112"/>
<polygon fill="midnightblue" stroke="midnightblue" points="1014.46,-213.999 1024.45,-210.474 1014.44,-206.999 1014.46,-213.999"/>
</g>
<!-- Node11&#45;&gt;Node5 -->
<g id="edge13" class="edge"><title>Node11&#45;&gt;Node5</title>
<path fill="none" stroke="midnightblue" d="M1102.6,-196.921C1116.51,-189.747 1131.11,-179.337 1139,-165 1145.64,-152.928 1148.42,-144.054 1139,-134 1054.95,-44.2935 680.747,-177.515 587,-98 565.394,-79.6742 565.679,-41.979 567.042,-25.0555"/>
<polygon fill="midnightblue" stroke="midnightblue" points="1100.71,-193.942 1093.16,-201.378 1103.7,-200.272 1100.71,-193.942"/>
</g>
<!-- Node11&#45;&gt;Node12 -->
<g id="edge14" class="edge"><title>Node11&#45;&gt;Node12</title>
<path fill="none" stroke="midnightblue" d="M1103.4,-198.232C1138.2,-186.666 1190.45,-169.297 1221.4,-159.009"/>
<polygon fill="midnightblue" stroke="midnightblue" points="1102.03,-194.999 1093.65,-201.475 1104.24,-201.642 1102.03,-194.999"/>
</g>
<!-- Node20 -->
<g id="node20" class="node"><title>Node20</title>
<g id="a_node20"><a xlink:href="erpc__message__loggers_8h.html" target="_top" xlink:title="erpc_message_loggers.h">
<polygon fill="white" stroke="black" points="862.5,-140 862.5,-159 987.5,-159 987.5,-140 862.5,-140"/>
<text text-anchor="middle" x="925" y="-147" font-family="Helvetica,sans-Serif" font-size="10.00">erpc_message_loggers.h</text>
</a>
</g>
</g>
<!-- Node11&#45;&gt;Node20 -->
<g id="edge22" class="edge"><title>Node11&#45;&gt;Node20</title>
<path fill="none" stroke="midnightblue" d="M1038.27,-197.631C1010.49,-186.072 969.75,-169.12 945.45,-159.009"/>
<polygon fill="midnightblue" stroke="midnightblue" points="1036.93,-200.865 1047.51,-201.475 1039.62,-194.402 1036.93,-200.865"/>
</g>
<!-- Node11&#45;&gt;Node21 -->
<g id="edge23" class="edge"><title>Node11&#45;&gt;Node21</title>
<path fill="none" stroke="midnightblue" d="M1014.12,-207.487C919.42,-202.591 717.133,-189.996 548,-165 545.094,-164.57 542.126,-164.094 539.134,-163.583"/>
<polygon fill="midnightblue" stroke="midnightblue" points="1014.14,-210.992 1024.31,-208.005 1014.5,-204.001 1014.14,-210.992"/>
</g>
<!-- Node11&#45;&gt;Node22 -->
<g id="edge24" class="edge"><title>Node11&#45;&gt;Node22</title>
<path fill="none" stroke="midnightblue" d="M1121.74,-206.569C1203.58,-200.854 1364.18,-187.711 1499,-165 1508.48,-163.402 1518.68,-161.216 1528.01,-159.026"/>
<polygon fill="midnightblue" stroke="midnightblue" points="1121.42,-203.083 1111.68,-207.262 1121.9,-210.067 1121.42,-203.083"/>
</g>
<!-- Node23 -->
<g id="node23" class="node"><title>Node23</title>
<g id="a_node23"><a xlink:href="erpc__rpmsg__linux__transport_8h_source.html" target="_top" xlink:title="erpc_rpmsg_linux_transport.h">
<polygon fill="white" stroke="black" points="699.5,-140 699.5,-159 844.5,-159 844.5,-140 699.5,-140"/>
<text text-anchor="middle" x="772" y="-147" font-family="Helvetica,sans-Serif" font-size="10.00">erpc_rpmsg_linux_transport.h</text>
</a>
</g>
</g>
<!-- Node11&#45;&gt;Node23 -->
<g id="edge25" class="edge"><title>Node11&#45;&gt;Node23</title>
<path fill="none" stroke="midnightblue" d="M1015.64,-199.474C958.27,-187.943 867.376,-169.672 814.331,-159.009"/>
<polygon fill="midnightblue" stroke="midnightblue" points="1015.1,-202.936 1025.59,-201.475 1016.48,-196.073 1015.1,-202.936"/>
</g>
<!-- Node24 -->
<g id="node24" class="node"><title>Node24</title>
<g id="a_node24"><a xlink:href="erpc__rpmsg__lite__base__transport_8h.html" target="_top" xlink:title="erpc_rpmsg_lite_base\l_transport.h">
<polygon fill="white" stroke="black" points="1378,-134.5 1378,-164.5 1490,-164.5 1490,-134.5 1378,-134.5"/>
<text text-anchor="start" x="1386" y="-152.5" font-family="Helvetica,sans-Serif" font-size="10.00">erpc_rpmsg_lite_base</text>
<text text-anchor="middle" x="1434" y="-141.5" font-family="Helvetica,sans-Serif" font-size="10.00">_transport.h</text>
</a>
</g>
</g>
<!-- Node11&#45;&gt;Node24 -->
<g id="edge26" class="edge"><title>Node11&#45;&gt;Node24</title>
<path fill="none" stroke="midnightblue" d="M1121.94,-201.231C1190.51,-190.084 1308.31,-170.933 1377.9,-159.62"/>
<polygon fill="midnightblue" stroke="midnightblue" points="1121.09,-197.823 1111.78,-202.882 1122.22,-204.732 1121.09,-197.823"/>
</g>
<!-- Node28 -->
<g id="node28" class="node"><title>Node28</title>
<g id="a_node28"><a xlink:href="rpmsg__linux__transport_8h_8_b_a_s_e_8h_source.html" target="_top" xlink:title="rpmsg_linux_transport.h.\lBASE.h">
<polygon fill="white" stroke="black" points="1006,-134.5 1006,-164.5 1130,-164.5 1130,-134.5 1006,-134.5"/>
<text text-anchor="start" x="1014" y="-152.5" font-family="Helvetica,sans-Serif" font-size="10.00">rpmsg_linux_transport.h.</text>
<text text-anchor="middle" x="1068" y="-141.5" font-family="Helvetica,sans-Serif" font-size="10.00">BASE.h</text>
</a>
</g>
</g>
<!-- Node11&#45;&gt;Node28 -->
<g id="edge30" class="edge"><title>Node11&#45;&gt;Node28</title>
<path fill="none" stroke="midnightblue" d="M1068,-191.235C1068,-182.586 1068,-172.497 1068,-164.523"/>
<polygon fill="midnightblue" stroke="midnightblue" points="1064.5,-191.475 1068,-201.475 1071.5,-191.475 1064.5,-191.475"/>
</g>
<!-- Node29 -->
<g id="node29" class="node"><title>Node29</title>
<g id="a_node29"><a xlink:href="rpmsg__linux__transport_8h_8_r_e_m_o_t_e_8h_source.html" target="_top" xlink:title="rpmsg_linux_transport.h.\lREMOTE.h">
<polygon fill="white" stroke="black" points="557,-134.5 557,-164.5 681,-164.5 681,-134.5 557,-134.5"/>
<text text-anchor="start" x="565" y="-152.5" font-family="Helvetica,sans-Serif" font-size="10.00">rpmsg_linux_transport.h.</text>
<text text-anchor="middle" x="619" y="-141.5" font-family="Helvetica,sans-Serif" font-size="10.00">REMOTE.h</text>
</a>
</g>
</g>
<!-- Node11&#45;&gt;Node29 -->
<g id="edge31" class="edge"><title>Node11&#45;&gt;Node29</title>
<path fill="none" stroke="midnightblue" d="M1014.08,-205.002C940.572,-197.864 804.889,-183.537 690,-165 687.143,-164.539 684.227,-164.044 681.284,-163.524"/>
<polygon fill="midnightblue" stroke="midnightblue" points="1014.18,-208.527 1024.47,-206.003 1014.85,-201.56 1014.18,-208.527"/>
</g>
<!-- Node13 -->
<g id="node13" class="node"><title>Node13</title>
<g id="a_node13"><a xlink:href="erpc__dspi__master__transport_8h.html" target="_top" xlink:title="erpc_dspi_master_transport.h">
<polygon fill="white" stroke="black" points="1476,-73 1476,-92 1622,-92 1622,-73 1476,-73"/>
<text text-anchor="middle" x="1549" y="-80" font-family="Helvetica,sans-Serif" font-size="10.00">erpc_dspi_master_transport.h</text>
</a>
</g>
</g>
<!-- Node12&#45;&gt;Node13 -->
<g id="edge15" class="edge"><title>Node12&#45;&gt;Node13</title>
<path fill="none" stroke="midnightblue" d="M1296.7,-137.803C1356.13,-125.012 1454.41,-103.858 1509.12,-92.0834"/>
<polygon fill="midnightblue" stroke="midnightblue" points="1295.83,-134.41 1286.79,-139.936 1297.3,-141.253 1295.83,-134.41"/>
</g>
<!-- Node14 -->
<g id="node14" class="node"><title>Node14</title>
<g id="a_node14"><a xlink:href="erpc__dspi__slave__transport_8h.html" target="_top" xlink:title="erpc_dspi_slave_transport.h">
<polygon fill="white" stroke="black" points="596.5,-73 596.5,-92 733.5,-92 733.5,-73 596.5,-73"/>
<text text-anchor="middle" x="665" y="-80" font-family="Helvetica,sans-Serif" font-size="10.00">erpc_dspi_slave_transport.h</text>
</a>
</g>
</g>
<!-- Node12&#45;&gt;Node14 -->
<g id="edge16" class="edge"><title>Node12&#45;&gt;Node14</title>
<path fill="none" stroke="midnightblue" d="M1197.04,-138.068C1188.7,-136.55 1180.13,-135.123 1172,-134 982.465,-107.803 932.628,-123.517 743,-98 731.124,-96.4019 718.311,-94.2154 706.57,-92.0249"/>
<polygon fill="midnightblue" stroke="midnightblue" points="1196.57,-141.541 1207.04,-139.951 1197.86,-134.661 1196.57,-141.541"/>
</g>
<!-- Node15 -->
<g id="node15" class="node"><title>Node15</title>
<g id="a_node15"><a xlink:href="erpc__serial__transport_8h.html" target="_top" xlink:title="erpc_serial_transport.h">
<polygon fill="white" stroke="black" points="752,-73 752,-92 868,-92 868,-73 752,-73"/>
<text text-anchor="middle" x="810" y="-80" font-family="Helvetica,sans-Serif" font-size="10.00">erpc_serial_transport.h</text>
</a>
</g>
</g>
<!-- Node12&#45;&gt;Node15 -->
<g id="edge17" class="edge"><title>Node12&#45;&gt;Node15</title>
<path fill="none" stroke="midnightblue" d="M1195.59,-138.07C1187.7,-136.613 1179.65,-135.204 1172,-134 1041.52,-113.452 1007.24,-119.992 877,-98 867.025,-96.3156 856.288,-94.1513 846.394,-92.0113"/>
<polygon fill="midnightblue" stroke="midnightblue" points="1194.96,-141.514 1205.44,-139.93 1196.26,-134.635 1194.96,-141.514"/>
</g>
<!-- Node16 -->
<g id="node16" class="node"><title>Node16</title>
<g id="a_node16"><a xlink:href="erpc__spi__master__transport_8h.html" target="_top" xlink:title="erpc_spi_master_transport.h">
<polygon fill="white" stroke="black" points="886,-73 886,-92 1026,-92 1026,-73 886,-73"/>
<text text-anchor="middle" x="956" y="-80" font-family="Helvetica,sans-Serif" font-size="10.00">erpc_spi_master_transport.h</text>
</a>
</g>
</g>
<!-- Node12&#45;&gt;Node16 -->
<g id="edge18" class="edge"><title>Node12&#45;&gt;Node16</title>
<path fill="none" stroke="midnightblue" d="M1198.75,-137.724C1141.45,-124.924 1047.03,-103.833 994.427,-92.0834"/>
<polygon fill="midnightblue" stroke="midnightblue" points="1198.14,-141.171 1208.66,-139.936 1199.66,-134.34 1198.14,-141.171"/>
</g>
<!-- Node17 -->
<g id="node17" class="node"><title>Node17</title>
<g id="a_node17"><a xlink:href="erpc__spi__slave__transport_8h.html" target="_top" xlink:title="erpc_spi_slave_transport.h">
<polygon fill="white" stroke="black" points="1044,-73 1044,-92 1176,-92 1176,-73 1044,-73"/>
<text text-anchor="middle" x="1110" y="-80" font-family="Helvetica,sans-Serif" font-size="10.00">erpc_spi_slave_transport.h</text>
</a>
</g>
</g>
<!-- Node12&#45;&gt;Node17 -->
<g id="edge19" class="edge"><title>Node12&#45;&gt;Node17</title>
<path fill="none" stroke="midnightblue" d="M1219.48,-135.444C1192.35,-122.569 1151.64,-103.257 1128.27,-92.1672"/>
<polygon fill="midnightblue" stroke="midnightblue" points="1218.27,-138.744 1228.81,-139.869 1221.27,-132.42 1218.27,-138.744"/>
</g>
<!-- Node18 -->
<g id="node18" class="node"><title>Node18</title>
<g id="a_node18"><a xlink:href="erpc__tcp__transport_8h.html" target="_top" xlink:title="erpc_tcp_transport.h">
<polygon fill="white" stroke="black" points="1194,-73 1194,-92 1300,-92 1300,-73 1194,-73"/>
<text text-anchor="middle" x="1247" y="-80" font-family="Helvetica,sans-Serif" font-size="10.00">erpc_tcp_transport.h</text>
</a>
</g>
</g>
<!-- Node12&#45;&gt;Node18 -->
<g id="edge20" class="edge"><title>Node12&#45;&gt;Node18</title>
<path fill="none" stroke="midnightblue" d="M1247,-129.537C1247,-117.17 1247,-101.62 1247,-92.1273"/>
<polygon fill="midnightblue" stroke="midnightblue" points="1243.5,-129.734 1247,-139.734 1250.5,-129.734 1243.5,-129.734"/>
</g>
<!-- Node19 -->
<g id="node19" class="node"><title>Node19</title>
<g id="a_node19"><a xlink:href="erpc__uart__cmsis__transport_8h.html" target="_top" xlink:title="erpc_uart_cmsis_transport.h">
<polygon fill="white" stroke="black" points="1318,-73 1318,-92 1458,-92 1458,-73 1318,-73"/>
<text text-anchor="middle" x="1388" y="-80" font-family="Helvetica,sans-Serif" font-size="10.00">erpc_uart_cmsis_transport.h</text>
</a>
</g>
</g>
<!-- Node12&#45;&gt;Node19 -->
<g id="edge21" class="edge"><title>Node12&#45;&gt;Node19</title>
<path fill="none" stroke="midnightblue" d="M1274.96,-135.613C1302.88,-122.739 1345.04,-103.306 1369.2,-92.1672"/>
<polygon fill="midnightblue" stroke="midnightblue" points="1273.34,-132.503 1265.72,-139.869 1276.27,-138.86 1273.34,-132.503"/>
</g>
<!-- Node24&#45;&gt;Node25 -->
<g id="edge27" class="edge"><title>Node24&#45;&gt;Node25</title>
<path fill="none" stroke="midnightblue" d="M1500,-132C1543.42,-121.146 1599.53,-107.118 1640.23,-96.9431"/>
<polygon fill="midnightblue" stroke="midnightblue" points="1498.95,-128.655 1490.1,-134.476 1500.65,-135.446 1498.95,-128.655"/>
</g>
<!-- Node24&#45;&gt;Node26 -->
<g id="edge28" class="edge"><title>Node24&#45;&gt;Node26</title>
<path fill="none" stroke="midnightblue" d="M1500.17,-133.875C1614.62,-113.545 1645.87,-116.206 1757,-98 1767.87,-96.2186 1779.57,-94.1129 1790.49,-92.0664"/>
<polygon fill="midnightblue" stroke="midnightblue" points="1499.54,-130.432 1490.31,-135.645 1500.78,-137.322 1499.54,-130.432"/>
</g>
<!-- Node24&#45;&gt;Node27 -->
<g id="edge29" class="edge"><title>Node24&#45;&gt;Node27</title>
<path fill="none" stroke="midnightblue" d="M1500.22,-133.952C1682.86,-106.609 1733.25,-126.543 1912,-98 1914.95,-97.5294 1917.96,-96.9967 1921,-96.4204"/>
<polygon fill="midnightblue" stroke="midnightblue" points="1499.64,-130.499 1490.28,-135.465 1500.7,-137.419 1499.64,-130.499"/>
</g>
</g>
</svg>
