<?xml version="1.0" encoding="UTF-8" standalone="no"?>
<!DOCTYPE svg PUBLIC "-//W3C//DTD SVG 1.1//EN"
 "http://www.w3.org/Graphics/SVG/1.1/DTD/svg11.dtd">
<!-- Generated by graphviz version 2.38.0 (20140413.2041)
 -->
<!-- Title: erpc_crc16.hpp Pages: 1 -->
<svg width="2572pt" height="341pt"
 viewBox="0.00 0.00 2571.50 341.00" xmlns="http://www.w3.org/2000/svg" xmlns:xlink="http://www.w3.org/1999/xlink">
<g id="graph0" class="graph" transform="scale(1 1) rotate(0) translate(4 337)">
<title>erpc_crc16.hpp</title>
<polygon fill="white" stroke="none" points="-4,4 -4,-337 2567.5,-337 2567.5,4 -4,4"/>
<!-- Node1 -->
<g id="node1" class="node"><title>Node1</title>
<polygon fill="#bfbfbf" stroke="black" points="2251,-313.5 2251,-332.5 2334,-332.5 2334,-313.5 2251,-313.5"/>
<text text-anchor="middle" x="2292.5" y="-320.5" font-family="Helvetica,sans-Serif" font-size="10.00">erpc_crc16.hpp</text>
</g>
<!-- Node2 -->
<g id="node2" class="node"><title>Node2</title>
<g id="a_node2"><a xlink:href="erpc__transport_8hpp.html" target="_top" xlink:title="erpc_transport.hpp">
<polygon fill="white" stroke="black" points="1147.5,-257.5 1147.5,-276.5 1245.5,-276.5 1245.5,-257.5 1147.5,-257.5"/>
<text text-anchor="middle" x="1196.5" y="-264.5" font-family="Helvetica,sans-Serif" font-size="10.00">erpc_transport.hpp</text>
</a>
</g>
</g>
<!-- Node1&#45;&gt;Node2 -->
<g id="edge1" class="edge"><title>Node1&#45;&gt;Node2</title>
<path fill="none" stroke="midnightblue" d="M2240.86,-319.456C2055.78,-310.337 1427.06,-279.36 1245.79,-270.429"/>
<polygon fill="midnightblue" stroke="midnightblue" points="2240.71,-322.953 2250.87,-319.949 2241.06,-315.961 2240.71,-322.953"/>
</g>
<!-- Node29 -->
<g id="node29" class="node"><title>Node29</title>
<g id="a_node29"><a xlink:href="erpc__rpmsg__lite__rtos__transport_8hpp.html" target="_top" xlink:title="erpc_rpmsg_lite_rtos\l_transport.hpp">
<polygon fill="white" stroke="black" points="2166,-123.5 2166,-153.5 2273,-153.5 2273,-123.5 2166,-123.5"/>
<text text-anchor="start" x="2174" y="-141.5" font-family="Helvetica,sans-Serif" font-size="10.00">erpc_rpmsg_lite_rtos</text>
<text text-anchor="middle" x="2219.5" y="-130.5" font-family="Helvetica,sans-Serif" font-size="10.00">_transport.hpp</text>
</a>
</g>
</g>
<!-- Node1&#45;&gt;Node29 -->
<g id="edge33" class="edge"><title>Node1&#45;&gt;Node29</title>
<path fill="none" stroke="midnightblue" d="M2278.4,-305.621C2262.97,-286.652 2238.91,-253.791 2227.5,-221 2219.65,-198.441 2218.66,-170.392 2218.9,-153.773"/>
<polygon fill="midnightblue" stroke="midnightblue" points="2275.72,-307.867 2284.81,-313.309 2281.1,-303.386 2275.72,-307.867"/>
</g>
<!-- Node30 -->
<g id="node30" class="node"><title>Node30</title>
<g id="a_node30"><a xlink:href="erpc__rpmsg__lite__transport_8hpp.html" target="_top" xlink:title="erpc_rpmsg_lite_transport.hpp">
<polygon fill="white" stroke="black" points="2291.5,-129 2291.5,-148 2439.5,-148 2439.5,-129 2291.5,-129"/>
<text text-anchor="middle" x="2365.5" y="-136" font-family="Helvetica,sans-Serif" font-size="10.00">erpc_rpmsg_lite_transport.hpp</text>
</a>
</g>
</g>
<!-- Node1&#45;&gt;Node30 -->
<g id="edge34" class="edge"><title>Node1&#45;&gt;Node30</title>
<path fill="none" stroke="midnightblue" d="M2306.6,-305.621C2322.03,-286.652 2346.09,-253.791 2357.5,-221 2366.28,-195.756 2366.48,-163.636 2365.97,-148.353"/>
<polygon fill="midnightblue" stroke="midnightblue" points="2303.9,-303.386 2300.19,-313.309 2309.28,-307.867 2303.9,-303.386"/>
</g>
<!-- Node31 -->
<g id="node31" class="node"><title>Node31</title>
<g id="a_node31"><a xlink:href="erpc__rpmsg__tty__rtos__transport_8hpp.html" target="_top" xlink:title="erpc_rpmsg_tty_rtos\l_transport.hpp">
<polygon fill="white" stroke="black" points="2457.5,-123.5 2457.5,-153.5 2563.5,-153.5 2563.5,-123.5 2457.5,-123.5"/>
<text text-anchor="start" x="2465.5" y="-141.5" font-family="Helvetica,sans-Serif" font-size="10.00">erpc_rpmsg_tty_rtos</text>
<text text-anchor="middle" x="2510.5" y="-130.5" font-family="Helvetica,sans-Serif" font-size="10.00">_transport.hpp</text>
</a>
</g>
</g>
<!-- Node1&#45;&gt;Node31 -->
<g id="edge35" class="edge"><title>Node1&#45;&gt;Node31</title>
<path fill="none" stroke="midnightblue" d="M2311.31,-307.09C2322.23,-298.386 2336.21,-287.153 2348.5,-277 2402.26,-232.601 2464.94,-178.814 2494.07,-153.701"/>
<polygon fill="midnightblue" stroke="midnightblue" points="2308.95,-304.494 2303.3,-313.458 2313.31,-309.973 2308.95,-304.494"/>
</g>
<!-- Node3 -->
<g id="node3" class="node"><title>Node3</title>
<g id="a_node3"><a xlink:href="erpc__codec_8hpp.html" target="_top" xlink:title="erpc_codec.hpp">
<polygon fill="white" stroke="black" points="464.5,-196 464.5,-215 550.5,-215 550.5,-196 464.5,-196"/>
<text text-anchor="middle" x="507.5" y="-203" font-family="Helvetica,sans-Serif" font-size="10.00">erpc_codec.hpp</text>
</a>
</g>
</g>
<!-- Node2&#45;&gt;Node3 -->
<g id="edge2" class="edge"><title>Node2&#45;&gt;Node3</title>
<path fill="none" stroke="midnightblue" d="M1137.28,-265.29C1024.9,-263.168 773.269,-254.711 564.5,-221 555.428,-219.535 545.689,-217.308 536.875,-215.036"/>
<polygon fill="midnightblue" stroke="midnightblue" points="1137.33,-268.791 1147.39,-265.47 1137.46,-261.792 1137.33,-268.791"/>
</g>
<!-- Node7 -->
<g id="node7" class="node"><title>Node7</title>
<g id="a_node7"><a xlink:href="erpc__transport__arbitrator_8hpp.html" target="_top" xlink:title="erpc_transport_arbitrator.hpp">
<polygon fill="white" stroke="black" points="513,-6 513,-25 654,-25 654,-6 513,-6"/>
<text text-anchor="middle" x="583.5" y="-13" font-family="Helvetica,sans-Serif" font-size="10.00">erpc_transport_arbitrator.hpp</text>
</a>
</g>
</g>
<!-- Node2&#45;&gt;Node7 -->
<g id="edge13" class="edge"><title>Node2&#45;&gt;Node7</title>
<path fill="none" stroke="midnightblue" d="M1136.92,-263.624C1000.13,-256.848 669.751,-232.54 597.5,-154 563.71,-117.269 575.587,-49.4542 581.228,-25.3152"/>
<polygon fill="midnightblue" stroke="midnightblue" points="1137.06,-267.134 1147.21,-264.118 1137.39,-260.142 1137.06,-267.134"/>
</g>
<!-- Node13 -->
<g id="node13" class="node"><title>Node13</title>
<g id="a_node13"><a xlink:href="erpc__framed__transport_8hpp.html" target="_top" xlink:title="erpc_framed_transport.hpp">
<polygon fill="white" stroke="black" points="1130.5,-196 1130.5,-215 1262.5,-215 1262.5,-196 1130.5,-196"/>
<text text-anchor="middle" x="1196.5" y="-203" font-family="Helvetica,sans-Serif" font-size="10.00">erpc_framed_transport.hpp</text>
</a>
</g>
</g>
<!-- Node2&#45;&gt;Node13 -->
<g id="edge14" class="edge"><title>Node2&#45;&gt;Node13</title>
<path fill="none" stroke="midnightblue" d="M1196.5,-247.317C1196.5,-236.496 1196.5,-223.398 1196.5,-215.009"/>
<polygon fill="midnightblue" stroke="midnightblue" points="1193,-247.475 1196.5,-257.475 1200,-247.475 1193,-247.475"/>
</g>
<!-- Node24 -->
<g id="node24" class="node"><title>Node24</title>
<g id="a_node24"><a xlink:href="erpc__message__loggers_8hpp.html" target="_top" xlink:title="erpc_message_loggers.hpp">
<polygon fill="white" stroke="black" points="1280.5,-196 1280.5,-215 1416.5,-215 1416.5,-196 1280.5,-196"/>
<text text-anchor="middle" x="1348.5" y="-203" font-family="Helvetica,sans-Serif" font-size="10.00">erpc_message_loggers.hpp</text>
</a>
</g>
</g>
<!-- Node2&#45;&gt;Node24 -->
<g id="edge25" class="edge"><title>Node2&#45;&gt;Node24</title>
<path fill="none" stroke="midnightblue" d="M1227.71,-253.782C1257.25,-242.22 1300.82,-225.164 1326.76,-215.009"/>
<polygon fill="midnightblue" stroke="midnightblue" points="1226.31,-250.571 1218.28,-257.475 1228.87,-257.089 1226.31,-250.571"/>
</g>
<!-- Node25 -->
<g id="node25" class="node"><title>Node25</title>
<g id="a_node25"><a xlink:href="erpc__inter__thread__buffer__transport_8hpp.html" target="_top" xlink:title="erpc_inter_thread_buffer\l_transport.hpp">
<polygon fill="white" stroke="black" points="1434.5,-190.5 1434.5,-220.5 1554.5,-220.5 1554.5,-190.5 1434.5,-190.5"/>
<text text-anchor="start" x="1442.5" y="-208.5" font-family="Helvetica,sans-Serif" font-size="10.00">erpc_inter_thread_buffer</text>
<text text-anchor="middle" x="1494.5" y="-197.5" font-family="Helvetica,sans-Serif" font-size="10.00">_transport.hpp</text>
</a>
</g>
</g>
<!-- Node2&#45;&gt;Node25 -->
<g id="edge26" class="edge"><title>Node2&#45;&gt;Node25</title>
<path fill="none" stroke="midnightblue" d="M1250.71,-255.554C1297.14,-246.559 1365.76,-233.146 1425.5,-221 1428.38,-220.415 1431.32,-219.812 1434.3,-219.199"/>
<polygon fill="midnightblue" stroke="midnightblue" points="1250.02,-252.124 1240.86,-257.461 1251.35,-258.997 1250.02,-252.124"/>
</g>
<!-- Node26 -->
<g id="node26" class="node"><title>Node26</title>
<g id="a_node26"><a xlink:href="erpc__mu__transport_8hpp.html" target="_top" xlink:title="erpc_mu_transport.hpp">
<polygon fill="white" stroke="black" points="156.5,-196 156.5,-215 272.5,-215 272.5,-196 156.5,-196"/>
<text text-anchor="middle" x="214.5" y="-203" font-family="Helvetica,sans-Serif" font-size="10.00">erpc_mu_transport.hpp</text>
</a>
</g>
</g>
<!-- Node2&#45;&gt;Node26 -->
<g id="edge27" class="edge"><title>Node2&#45;&gt;Node26</title>
<path fill="none" stroke="midnightblue" d="M1137.04,-266.439C990.8,-266.79 602.174,-263.295 281.5,-221 270.763,-219.584 259.193,-217.342 248.74,-215.041"/>
<polygon fill="midnightblue" stroke="midnightblue" points="1137.16,-269.939 1147.15,-266.408 1137.14,-262.939 1137.16,-269.939"/>
</g>
<!-- Node27 -->
<g id="node27" class="node"><title>Node27</title>
<g id="a_node27"><a xlink:href="erpc__rpmsg__linux__transport_8hpp_source.html" target="_top" xlink:title="erpc_rpmsg_linux_transport.hpp">
<polygon fill="white" stroke="black" points="291,-196 291,-215 446,-215 446,-196 291,-196"/>
<text text-anchor="middle" x="368.5" y="-203" font-family="Helvetica,sans-Serif" font-size="10.00">erpc_rpmsg_linux_transport.hpp</text>
</a>
</g>
</g>
<!-- Node2&#45;&gt;Node27 -->
<g id="edge28" class="edge"><title>Node2&#45;&gt;Node27</title>
<path fill="none" stroke="midnightblue" d="M1137.16,-264.501C1011.22,-260.856 708.047,-249.635 455.5,-221 441.959,-219.465 427.318,-217.244 413.978,-215.001"/>
<polygon fill="midnightblue" stroke="midnightblue" points="1137.26,-268.005 1147.36,-264.79 1137.46,-261.008 1137.26,-268.005"/>
</g>
<!-- Node28 -->
<g id="node28" class="node"><title>Node28</title>
<g id="a_node28"><a xlink:href="erpc__rpmsg__lite__base__transport_8hpp.html" target="_top" xlink:title="erpc_rpmsg_lite_base\l_transport.hpp">
<polygon fill="white" stroke="black" points="2236.5,-190.5 2236.5,-220.5 2348.5,-220.5 2348.5,-190.5 2236.5,-190.5"/>
<text text-anchor="start" x="2244.5" y="-208.5" font-family="Helvetica,sans-Serif" font-size="10.00">erpc_rpmsg_lite_base</text>
<text text-anchor="middle" x="2292.5" y="-197.5" font-family="Helvetica,sans-Serif" font-size="10.00">_transport.hpp</text>
</a>
</g>
</g>
<!-- Node2&#45;&gt;Node28 -->
<g id="edge29" class="edge"><title>Node2&#45;&gt;Node28</title>
<path fill="none" stroke="midnightblue" d="M1255.89,-262.776C1447.73,-252.361 2049.17,-219.71 2236.34,-209.549"/>
<polygon fill="midnightblue" stroke="midnightblue" points="1255.52,-259.291 1245.72,-263.328 1255.9,-266.28 1255.52,-259.291"/>
</g>
<!-- Node4 -->
<g id="node4" class="node"><title>Node4</title>
<g id="a_node4"><a xlink:href="erpc__client__server__common_8hpp.html" target="_top" xlink:title="erpc_client_server\l_common.hpp">
<polygon fill="white" stroke="black" points="407,-123.5 407,-153.5 502,-153.5 502,-123.5 407,-123.5"/>
<text text-anchor="start" x="415" y="-141.5" font-family="Helvetica,sans-Serif" font-size="10.00">erpc_client_server</text>
<text text-anchor="middle" x="454.5" y="-130.5" font-family="Helvetica,sans-Serif" font-size="10.00">_common.hpp</text>
</a>
</g>
</g>
<!-- Node3&#45;&gt;Node4 -->
<g id="edge3" class="edge"><title>Node3&#45;&gt;Node4</title>
<path fill="none" stroke="midnightblue" d="M493.779,-187.673C485.153,-177.094 474.152,-163.602 465.988,-153.589"/>
<polygon fill="midnightblue" stroke="midnightblue" points="491.32,-190.195 500.352,-195.734 496.745,-185.772 491.32,-190.195"/>
</g>
<!-- Node3&#45;&gt;Node7 -->
<g id="edge11" class="edge"><title>Node3&#45;&gt;Node7</title>
<path fill="none" stroke="midnightblue" d="M514.773,-186.509C530.745,-146.999 568.389,-53.8807 580.017,-25.1168"/>
<polygon fill="midnightblue" stroke="midnightblue" points="511.466,-185.351 510.963,-195.934 517.956,-187.974 511.466,-185.351"/>
</g>
<!-- Node12 -->
<g id="node12" class="node"><title>Node12</title>
<g id="a_node12"><a xlink:href="erpc__basic__codec_8hpp.html" target="_top" xlink:title="erpc_basic_codec.hpp">
<polygon fill="white" stroke="black" points="274.5,-129 274.5,-148 388.5,-148 388.5,-129 274.5,-129"/>
<text text-anchor="middle" x="331.5" y="-136" font-family="Helvetica,sans-Serif" font-size="10.00">erpc_basic_codec.hpp</text>
</a>
</g>
</g>
<!-- Node3&#45;&gt;Node12 -->
<g id="edge12" class="edge"><title>Node3&#45;&gt;Node12</title>
<path fill="none" stroke="midnightblue" d="M474.387,-192.271C439.455,-179.37 385.317,-159.376 354.688,-148.064"/>
<polygon fill="midnightblue" stroke="midnightblue" points="473.535,-195.687 484.129,-195.869 475.96,-189.121 473.535,-195.687"/>
</g>
<!-- Node5 -->
<g id="node5" class="node"><title>Node5</title>
<g id="a_node5"><a xlink:href="erpc__client__manager_8h.html" target="_top" xlink:title="erpc_client_manager.h">
<polygon fill="white" stroke="black" points="382,-67.5 382,-86.5 497,-86.5 497,-67.5 382,-67.5"/>
<text text-anchor="middle" x="439.5" y="-74.5" font-family="Helvetica,sans-Serif" font-size="10.00">erpc_client_manager.h</text>
</a>
</g>
</g>
<!-- Node4&#45;&gt;Node5 -->
<g id="edge4" class="edge"><title>Node4&#45;&gt;Node5</title>
<path fill="none" stroke="midnightblue" d="M448.473,-113.593C446.074,-104.077 443.466,-93.73 441.683,-86.6578"/>
<polygon fill="midnightblue" stroke="midnightblue" points="445.107,-114.558 450.945,-123.399 451.894,-112.847 445.107,-114.558"/>
</g>
<!-- Node10 -->
<g id="node10" class="node"><title>Node10</title>
<g id="a_node10"><a xlink:href="erpc__server_8hpp.html" target="_top" xlink:title="erpc_server.hpp">
<polygon fill="white" stroke="black" points="148,-67.5 148,-86.5 233,-86.5 233,-67.5 148,-67.5"/>
<text text-anchor="middle" x="190.5" y="-74.5" font-family="Helvetica,sans-Serif" font-size="10.00">erpc_server.hpp</text>
</a>
</g>
</g>
<!-- Node4&#45;&gt;Node10 -->
<g id="edge9" class="edge"><title>Node4&#45;&gt;Node10</title>
<path fill="none" stroke="midnightblue" d="M397.176,-122.971C333.789,-108.121 271.643,-94.8654 231.834,-86.5407"/>
<polygon fill="midnightblue" stroke="midnightblue" points="396.409,-126.386 406.945,-125.27 398.013,-119.572 396.409,-126.386"/>
</g>
<!-- Node6 -->
<g id="node6" class="node"><title>Node6</title>
<g id="a_node6"><a xlink:href="erpc__arbitrated__client__manager_8hpp.html" target="_top" xlink:title="erpc_arbitrated_client\l_manager.hpp">
<polygon fill="white" stroke="black" points="256.5,-0.5 256.5,-30.5 366.5,-30.5 366.5,-0.5 256.5,-0.5"/>
<text text-anchor="start" x="264.5" y="-18.5" font-family="Helvetica,sans-Serif" font-size="10.00">erpc_arbitrated_client</text>
<text text-anchor="middle" x="311.5" y="-7.5" font-family="Helvetica,sans-Serif" font-size="10.00">_manager.hpp</text>
</a>
</g>
</g>
<!-- Node5&#45;&gt;Node6 -->
<g id="edge5" class="edge"><title>Node5&#45;&gt;Node6</title>
<path fill="none" stroke="midnightblue" d="M411.965,-63.2003C391.278,-53.5845 362.965,-40.4232 341.667,-30.523"/>
<polygon fill="midnightblue" stroke="midnightblue" points="410.617,-66.4336 421.161,-67.4751 413.568,-60.0859 410.617,-66.4336"/>
</g>
<!-- Node5&#45;&gt;Node7 -->
<g id="edge6" class="edge"><title>Node5&#45;&gt;Node7</title>
<path fill="none" stroke="midnightblue" d="M469.434,-63.6313C497.41,-52.0717 538.437,-35.12 562.907,-25.0091"/>
<polygon fill="midnightblue" stroke="midnightblue" points="468.037,-60.4215 460.132,-67.4751 470.71,-66.891 468.037,-60.4215"/>
</g>
<!-- Node8 -->
<g id="node8" class="node"><title>Node8</title>
<g id="a_node8"><a xlink:href="erpc__arbitrated__client__setup_8h.html" target="_top" xlink:title="erpc_arbitrated_client\l_setup.h">
<polygon fill="white" stroke="black" points="384.5,-0.5 384.5,-30.5 494.5,-30.5 494.5,-0.5 384.5,-0.5"/>
<text text-anchor="start" x="392.5" y="-18.5" font-family="Helvetica,sans-Serif" font-size="10.00">erpc_arbitrated_client</text>
<text text-anchor="middle" x="439.5" y="-7.5" font-family="Helvetica,sans-Serif" font-size="10.00">_setup.h</text>
</a>
</g>
</g>
<!-- Node5&#45;&gt;Node8 -->
<g id="edge7" class="edge"><title>Node5&#45;&gt;Node8</title>
<path fill="none" stroke="midnightblue" d="M439.5,-57.2349C439.5,-48.5864 439.5,-38.4969 439.5,-30.523"/>
<polygon fill="midnightblue" stroke="midnightblue" points="436,-57.4751 439.5,-67.4751 443,-57.4751 436,-57.4751"/>
</g>
<!-- Node9 -->
<g id="node9" class="node"><title>Node9</title>
<g id="a_node9"><a xlink:href="erpc__client__setup_8h.html" target="_top" xlink:title="erpc_client_setup.h">
<polygon fill="white" stroke="black" points="137,-6 137,-25 238,-25 238,-6 137,-6"/>
<text text-anchor="middle" x="187.5" y="-13" font-family="Helvetica,sans-Serif" font-size="10.00">erpc_client_setup.h</text>
</a>
</g>
</g>
<!-- Node5&#45;&gt;Node9 -->
<g id="edge8" class="edge"><title>Node5&#45;&gt;Node9</title>
<path fill="none" stroke="midnightblue" d="M392.695,-65.1252C353.806,-56.0666 297.03,-42.789 247.5,-31 239.473,-29.0893 230.846,-27.0162 222.707,-25.0513"/>
<polygon fill="midnightblue" stroke="midnightblue" points="392.141,-68.5898 402.675,-67.4485 393.729,-61.7721 392.141,-68.5898"/>
</g>
<!-- Node11 -->
<g id="node11" class="node"><title>Node11</title>
<g id="a_node11"><a xlink:href="erpc__simple__server_8hpp.html" target="_top" xlink:title="erpc_simple_server.hpp">
<polygon fill="white" stroke="black" points="0,-6 0,-25 119,-25 119,-6 0,-6"/>
<text text-anchor="middle" x="59.5" y="-13" font-family="Helvetica,sans-Serif" font-size="10.00">erpc_simple_server.hpp</text>
</a>
</g>
</g>
<!-- Node10&#45;&gt;Node11 -->
<g id="edge10" class="edge"><title>Node10&#45;&gt;Node11</title>
<path fill="none" stroke="midnightblue" d="M162.598,-63.3272C137.167,-51.7761 100.301,-35.0316 78.2343,-25.0091"/>
<polygon fill="midnightblue" stroke="midnightblue" points="161.179,-66.5263 171.731,-67.4751 164.073,-60.1529 161.179,-66.5263"/>
</g>
<!-- Node14 -->
<g id="node14" class="node"><title>Node14</title>
<g id="a_node14"><a xlink:href="erpc__dspi__master__transport_8hpp.html" target="_top" xlink:title="erpc_dspi_master_transport.hpp">
<polygon fill="white" stroke="black" points="1664.5,-129 1664.5,-148 1820.5,-148 1820.5,-129 1664.5,-129"/>
<text text-anchor="middle" x="1742.5" y="-136" font-family="Helvetica,sans-Serif" font-size="10.00">erpc_dspi_master_transport.hpp</text>
</a>
</g>
</g>
<!-- Node13&#45;&gt;Node14 -->
<g id="edge15" class="edge"><title>Node13&#45;&gt;Node14</title>
<path fill="none" stroke="midnightblue" d="M1246.76,-194.084C1255,-192.577 1263.47,-191.149 1271.5,-190 1441.18,-165.702 1485.52,-176.104 1655.5,-154 1668.41,-152.322 1682.33,-150.159 1695.18,-148.019"/>
<polygon fill="midnightblue" stroke="midnightblue" points="1246.04,-190.658 1236.86,-195.948 1247.33,-197.537 1246.04,-190.658"/>
</g>
<!-- Node15 -->
<g id="node15" class="node"><title>Node15</title>
<g id="a_node15"><a xlink:href="erpc__dspi__slave__transport_8hpp.html" target="_top" xlink:title="erpc_dspi_slave_transport.hpp">
<polygon fill="white" stroke="black" points="1838.5,-129 1838.5,-148 1986.5,-148 1986.5,-129 1838.5,-129"/>
<text text-anchor="middle" x="1912.5" y="-136" font-family="Helvetica,sans-Serif" font-size="10.00">erpc_dspi_slave_transport.hpp</text>
</a>
</g>
</g>
<!-- Node13&#45;&gt;Node15 -->
<g id="edge16" class="edge"><title>Node13&#45;&gt;Node15</title>
<path fill="none" stroke="midnightblue" d="M1245.59,-194.087C1254.19,-192.526 1263.09,-191.08 1271.5,-190 1517.99,-158.35 1582.73,-183.427 1829.5,-154 1842.28,-152.476 1856.08,-150.286 1868.69,-148.068"/>
<polygon fill="midnightblue" stroke="midnightblue" points="1244.84,-190.666 1235.66,-195.958 1246.14,-197.545 1244.84,-190.666"/>
</g>
<!-- Node16 -->
<g id="node16" class="node"><title>Node16</title>
<g id="a_node16"><a xlink:href="erpc__i2c__slave__transport_8hpp.html" target="_top" xlink:title="erpc_i2c_slave_transport.hpp">
<polygon fill="white" stroke="black" points="2005,-129 2005,-148 2148,-148 2148,-129 2005,-129"/>
<text text-anchor="middle" x="2076.5" y="-136" font-family="Helvetica,sans-Serif" font-size="10.00">erpc_i2c_slave_transport.hpp</text>
</a>
</g>
</g>
<!-- Node13&#45;&gt;Node16 -->
<g id="edge17" class="edge"><title>Node13&#45;&gt;Node16</title>
<path fill="none" stroke="midnightblue" d="M1244.71,-194.139C1253.58,-192.529 1262.79,-191.053 1271.5,-190 1591.35,-151.326 1675.39,-190.459 1995.5,-154 2008.27,-152.545 2022.08,-150.321 2034.61,-148.048"/>
<polygon fill="midnightblue" stroke="midnightblue" points="1244.05,-190.702 1234.88,-195.999 1245.35,-197.58 1244.05,-190.702"/>
</g>
<!-- Node17 -->
<g id="node17" class="node"><title>Node17</title>
<g id="a_node17"><a xlink:href="erpc__serial__transport_8hpp.html" target="_top" xlink:title="erpc_serial_transport.hpp">
<polygon fill="white" stroke="black" points="606.5,-129 606.5,-148 732.5,-148 732.5,-129 606.5,-129"/>
<text text-anchor="middle" x="669.5" y="-136" font-family="Helvetica,sans-Serif" font-size="10.00">erpc_serial_transport.hpp</text>
</a>
</g>
</g>
<!-- Node13&#45;&gt;Node17 -->
<g id="edge18" class="edge"><title>Node13&#45;&gt;Node17</title>
<path fill="none" stroke="midnightblue" d="M1120.14,-198.098C1029.53,-190.023 874.016,-174.656 741.5,-154 730.791,-152.331 719.256,-150.171 708.624,-148.031"/>
<polygon fill="midnightblue" stroke="midnightblue" points="1120.06,-201.604 1130.33,-198.999 1120.67,-194.632 1120.06,-201.604"/>
</g>
<!-- Node18 -->
<g id="node18" class="node"><title>Node18</title>
<g id="a_node18"><a xlink:href="erpc__spi__master__transport_8hpp.html" target="_top" xlink:title="erpc_spi_master_transport.hpp">
<polygon fill="white" stroke="black" points="751,-129 751,-148 902,-148 902,-129 751,-129"/>
<text text-anchor="middle" x="826.5" y="-136" font-family="Helvetica,sans-Serif" font-size="10.00">erpc_spi_master_transport.hpp</text>
</a>
</g>
</g>
<!-- Node13&#45;&gt;Node18 -->
<g id="edge19" class="edge"><title>Node13&#45;&gt;Node18</title>
<path fill="none" stroke="midnightblue" d="M1137.84,-194.194C1065.17,-181.429 942.716,-159.916 875.065,-148.032"/>
<polygon fill="midnightblue" stroke="midnightblue" points="1137.29,-197.652 1147.75,-195.936 1138.5,-190.758 1137.29,-197.652"/>
</g>
<!-- Node19 -->
<g id="node19" class="node"><title>Node19</title>
<g id="a_node19"><a xlink:href="erpc__spi__slave__transport_8hpp.html" target="_top" xlink:title="erpc_spi_slave_transport.hpp">
<polygon fill="white" stroke="black" points="920,-129 920,-148 1063,-148 1063,-129 920,-129"/>
<text text-anchor="middle" x="991.5" y="-136" font-family="Helvetica,sans-Serif" font-size="10.00">erpc_spi_slave_transport.hpp</text>
</a>
</g>
</g>
<!-- Node13&#45;&gt;Node19 -->
<g id="edge20" class="edge"><title>Node13&#45;&gt;Node19</title>
<path fill="none" stroke="midnightblue" d="M1159.49,-192.765C1118.87,-179.886 1054.64,-159.521 1018.51,-148.064"/>
<polygon fill="midnightblue" stroke="midnightblue" points="1158.69,-196.182 1169.28,-195.869 1160.8,-189.51 1158.69,-196.182"/>
</g>
<!-- Node20 -->
<g id="node20" class="node"><title>Node20</title>
<g id="a_node20"><a xlink:href="erpc__spidev__master__transport_8hpp.html" target="_top" xlink:title="erpc_spidev_master\l_transport.hpp">
<polygon fill="white" stroke="black" points="1081,-123.5 1081,-153.5 1184,-153.5 1184,-123.5 1081,-123.5"/>
<text text-anchor="start" x="1089" y="-141.5" font-family="Helvetica,sans-Serif" font-size="10.00">erpc_spidev_master</text>
<text text-anchor="middle" x="1132.5" y="-130.5" font-family="Helvetica,sans-Serif" font-size="10.00">_transport.hpp</text>
</a>
</g>
</g>
<!-- Node13&#45;&gt;Node20 -->
<g id="edge21" class="edge"><title>Node13&#45;&gt;Node20</title>
<path fill="none" stroke="midnightblue" d="M1180.55,-188.304C1170.05,-177.635 1156.43,-163.802 1146.37,-153.589"/>
<polygon fill="midnightblue" stroke="midnightblue" points="1178.36,-191.064 1187.87,-195.734 1183.35,-186.152 1178.36,-191.064"/>
</g>
<!-- Node21 -->
<g id="node21" class="node"><title>Node21</title>
<g id="a_node21"><a xlink:href="erpc__tcp__transport_8hpp.html" target="_top" xlink:title="erpc_tcp_transport.hpp">
<polygon fill="white" stroke="black" points="1202.5,-129 1202.5,-148 1318.5,-148 1318.5,-129 1202.5,-129"/>
<text text-anchor="middle" x="1260.5" y="-136" font-family="Helvetica,sans-Serif" font-size="10.00">erpc_tcp_transport.hpp</text>
</a>
</g>
</g>
<!-- Node13&#45;&gt;Node21 -->
<g id="edge22" class="edge"><title>Node13&#45;&gt;Node21</title>
<path fill="none" stroke="midnightblue" d="M1212.26,-188.497C1224.81,-175.75 1241.9,-158.395 1252.01,-148.127"/>
<polygon fill="midnightblue" stroke="midnightblue" points="1209.65,-186.152 1205.13,-195.734 1214.64,-191.064 1209.65,-186.152"/>
</g>
<!-- Node22 -->
<g id="node22" class="node"><title>Node22</title>
<g id="a_node22"><a xlink:href="erpc__uart__cmsis__transport_8hpp.html" target="_top" xlink:title="erpc_uart_cmsis_transport.hpp">
<polygon fill="white" stroke="black" points="1337,-129 1337,-148 1488,-148 1488,-129 1337,-129"/>
<text text-anchor="middle" x="1412.5" y="-136" font-family="Helvetica,sans-Serif" font-size="10.00">erpc_uart_cmsis_transport.hpp</text>
</a>
</g>
</g>
<!-- Node13&#45;&gt;Node22 -->
<g id="edge23" class="edge"><title>Node13&#45;&gt;Node22</title>
<path fill="none" stroke="midnightblue" d="M1234.95,-192.929C1277.72,-180.059 1345.81,-159.57 1384.04,-148.064"/>
<polygon fill="midnightblue" stroke="midnightblue" points="1233.75,-189.635 1225.18,-195.869 1235.77,-196.338 1233.75,-189.635"/>
</g>
<!-- Node23 -->
<g id="node23" class="node"><title>Node23</title>
<g id="a_node23"><a xlink:href="erpc__usb__cdc__transport_8hpp.html" target="_top" xlink:title="erpc_usb_cdc_transport.hpp">
<polygon fill="white" stroke="black" points="1506.5,-129 1506.5,-148 1646.5,-148 1646.5,-129 1506.5,-129"/>
<text text-anchor="middle" x="1576.5" y="-136" font-family="Helvetica,sans-Serif" font-size="10.00">erpc_usb_cdc_transport.hpp</text>
</a>
</g>
</g>
<!-- Node13&#45;&gt;Node23 -->
<g id="edge24" class="edge"><title>Node13&#45;&gt;Node23</title>
<path fill="none" stroke="midnightblue" d="M1249.32,-194.067C1256.76,-192.661 1264.32,-191.269 1271.5,-190 1371.23,-172.386 1396.67,-171.032 1496.5,-154 1507.49,-152.125 1519.32,-150.026 1530.42,-148.02"/>
<polygon fill="midnightblue" stroke="midnightblue" points="1248.46,-190.668 1239.29,-195.98 1249.77,-197.543 1248.46,-190.668"/>
</g>
<!-- Node28&#45;&gt;Node29 -->
<g id="edge30" class="edge"><title>Node28&#45;&gt;Node29</title>
<path fill="none" stroke="midnightblue" d="M2269.03,-183.598C2258,-173.783 2245.16,-162.344 2235.31,-153.577"/>
<polygon fill="midnightblue" stroke="midnightblue" points="2266.86,-186.36 2276.66,-190.396 2271.52,-181.132 2266.86,-186.36"/>
</g>
<!-- Node28&#45;&gt;Node30 -->
<g id="edge31" class="edge"><title>Node28&#45;&gt;Node30</title>
<path fill="none" stroke="midnightblue" d="M2315.89,-183.672C2329.37,-171.671 2345.6,-157.22 2355.74,-148.195"/>
<polygon fill="midnightblue" stroke="midnightblue" points="2313.48,-181.132 2308.34,-190.396 2318.14,-186.36 2313.48,-181.132"/>
</g>
<!-- Node28&#45;&gt;Node31 -->
<g id="edge32" class="edge"><title>Node28&#45;&gt;Node31</title>
<path fill="none" stroke="midnightblue" d="M2349.25,-187.58C2384.66,-177.022 2429.7,-163.592 2463.17,-153.611"/>
<polygon fill="midnightblue" stroke="midnightblue" points="2348.12,-184.264 2339.53,-190.476 2350.12,-190.973 2348.12,-184.264"/>
</g>
</g>
</svg>
