<?xml version="1.0" encoding="UTF-8" standalone="no"?>
<!DOCTYPE svg PUBLIC "-//W3C//DTD SVG 1.1//EN"
 "http://www.w3.org/Graphics/SVG/1.1/DTD/svg11.dtd">
<!-- Generated by graphviz version 2.38.0 (20140413.2041)
 -->
<!-- Title: erpc_rpmsg_lite_transport.h Pages: 1 -->
<svg width="557pt" height="319pt"
 viewBox="0.00 0.00 557.00 319.00" xmlns="http://www.w3.org/2000/svg" xmlns:xlink="http://www.w3.org/1999/xlink">
<g id="graph0" class="graph" transform="scale(1 1) rotate(0) translate(4 315)">
<title>erpc_rpmsg_lite_transport.h</title>
<polygon fill="white" stroke="none" points="-4,4 -4,-315 553,-315 553,4 -4,4"/>
<!-- Node1 -->
<g id="node1" class="node"><title>Node1</title>
<polygon fill="#bfbfbf" stroke="black" points="180.5,-291.5 180.5,-310.5 317.5,-310.5 317.5,-291.5 180.5,-291.5"/>
<text text-anchor="middle" x="249" y="-298.5" font-family="Helvetica,sans-Serif" font-size="10.00">erpc_rpmsg_lite_transport.h</text>
</g>
<!-- Node2 -->
<g id="node2" class="node"><title>Node2</title>
<g id="a_node2"><a xlink:href="erpc__config__internal_8h_source.html" target="_top" xlink:title="erpc_config_internal.h">
<polygon fill="white" stroke="black" points="11.5,-168.5 11.5,-187.5 122.5,-187.5 122.5,-168.5 11.5,-168.5"/>
<text text-anchor="middle" x="67" y="-175.5" font-family="Helvetica,sans-Serif" font-size="10.00">erpc_config_internal.h</text>
</a>
</g>
</g>
<!-- Node1&#45;&gt;Node2 -->
<g id="edge1" class="edge"><title>Node1&#45;&gt;Node2</title>
<path fill="none" stroke="midnightblue" d="M217.213,-291.389C193.717,-284.071 161.66,-272.025 137,-255 113.335,-238.661 91.8583,-212.982 79.1095,-196.068"/>
<polygon fill="midnightblue" stroke="midnightblue" points="81.7015,-193.684 72.9663,-187.689 76.056,-197.823 81.7015,-193.684"/>
</g>
<!-- Node4 -->
<g id="node4" class="node"><title>Node4</title>
<g id="a_node4"><a xlink:href="erpc__message__buffer_8h.html" target="_top" xlink:title="erpc_message_buffer.h">
<polygon fill="white" stroke="black" points="92.5,-112.5 92.5,-131.5 209.5,-131.5 209.5,-112.5 92.5,-112.5"/>
<text text-anchor="middle" x="151" y="-119.5" font-family="Helvetica,sans-Serif" font-size="10.00">erpc_message_buffer.h</text>
</a>
</g>
</g>
<!-- Node1&#45;&gt;Node4 -->
<g id="edge3" class="edge"><title>Node1&#45;&gt;Node4</title>
<path fill="none" stroke="midnightblue" d="M229.925,-291.498C215.206,-283.968 195.477,-271.593 184,-255 159.779,-219.982 153.306,-168.836 151.596,-141.634"/>
<polygon fill="midnightblue" stroke="midnightblue" points="155.088,-141.382 151.117,-131.559 148.096,-141.714 155.088,-141.382"/>
</g>
<!-- Node8 -->
<g id="node8" class="node"><title>Node8</title>
<g id="a_node8"><a xlink:href="erpc__rpmsg__lite__base__transport_8h.html" target="_top" xlink:title="erpc_rpmsg_lite_base\l_transport.h">
<polygon fill="white" stroke="black" points="193,-224.5 193,-254.5 305,-254.5 305,-224.5 193,-224.5"/>
<text text-anchor="start" x="201" y="-242.5" font-family="Helvetica,sans-Serif" font-size="10.00">erpc_rpmsg_lite_base</text>
<text text-anchor="middle" x="249" y="-231.5" font-family="Helvetica,sans-Serif" font-size="10.00">_transport.h</text>
</a>
</g>
</g>
<!-- Node1&#45;&gt;Node8 -->
<g id="edge8" class="edge"><title>Node1&#45;&gt;Node8</title>
<path fill="none" stroke="midnightblue" d="M249,-291.475C249,-284.471 249,-274.192 249,-264.696"/>
<polygon fill="midnightblue" stroke="midnightblue" points="252.5,-264.523 249,-254.523 245.5,-264.523 252.5,-264.523"/>
</g>
<!-- Node12 -->
<g id="node12" class="node"><title>Node12</title>
<polygon fill="white" stroke="#bfbfbf" points="413,-168.5 413,-187.5 483,-187.5 483,-168.5 413,-168.5"/>
<text text-anchor="middle" x="448" y="-175.5" font-family="Helvetica,sans-Serif" font-size="10.00">rpmsg_lite.h</text>
</g>
<!-- Node1&#45;&gt;Node12 -->
<g id="edge20" class="edge"><title>Node1&#45;&gt;Node12</title>
<path fill="none" stroke="midnightblue" d="M262.993,-291.492C296.88,-270.887 383.607,-218.154 425.148,-192.895"/>
<polygon fill="midnightblue" stroke="midnightblue" points="427.03,-195.847 433.756,-187.661 423.393,-189.866 427.03,-195.847"/>
</g>
<!-- Node14 -->
<g id="node14" class="node"><title>Node14</title>
<g id="a_node14"><a xlink:href="erpc__static__queue_8h.html" target="_top" xlink:title="erpc_static_queue.h">
<polygon fill="white" stroke="black" points="445,-230 445,-249 549,-249 549,-230 445,-230"/>
<text text-anchor="middle" x="497" y="-237" font-family="Helvetica,sans-Serif" font-size="10.00">erpc_static_queue.h</text>
</a>
</g>
</g>
<!-- Node1&#45;&gt;Node14 -->
<g id="edge18" class="edge"><title>Node1&#45;&gt;Node14</title>
<path fill="none" stroke="midnightblue" d="M284.532,-291.475C328.546,-280.915 403.589,-262.911 451.698,-251.369"/>
<polygon fill="midnightblue" stroke="midnightblue" points="452.626,-254.746 461.534,-249.009 450.993,-247.939 452.626,-254.746"/>
</g>
<!-- Node3 -->
<g id="node3" class="node"><title>Node3</title>
<g id="a_node3"><a xlink:href="erpc__config_8h.html" target="_top" xlink:title="erpc_config.h">
<polygon fill="white" stroke="black" points="0,-112.5 0,-131.5 74,-131.5 74,-112.5 0,-112.5"/>
<text text-anchor="middle" x="37" y="-119.5" font-family="Helvetica,sans-Serif" font-size="10.00">erpc_config.h</text>
</a>
</g>
</g>
<!-- Node2&#45;&gt;Node3 -->
<g id="edge2" class="edge"><title>Node2&#45;&gt;Node3</title>
<path fill="none" stroke="midnightblue" d="M62.0461,-168.083C57.8959,-160.613 51.8469,-149.724 46.7333,-140.52"/>
<polygon fill="midnightblue" stroke="midnightblue" points="49.7777,-138.793 41.8617,-131.751 43.6586,-142.192 49.7777,-138.793"/>
</g>
<!-- Node5 -->
<g id="node5" class="node"><title>Node5</title>
<g id="a_node5"><a xlink:href="erpc__common_8h_source.html" target="_top" xlink:title="erpc_common.h">
<polygon fill="white" stroke="black" points="179,-56.5 179,-75.5 265,-75.5 265,-56.5 179,-56.5"/>
<text text-anchor="middle" x="222" y="-63.5" font-family="Helvetica,sans-Serif" font-size="10.00">erpc_common.h</text>
</a>
</g>
</g>
<!-- Node4&#45;&gt;Node5 -->
<g id="edge4" class="edge"><title>Node4&#45;&gt;Node5</title>
<path fill="none" stroke="midnightblue" d="M162.407,-112.324C173.109,-104.185 189.341,-91.8395 202.163,-82.0874"/>
<polygon fill="midnightblue" stroke="midnightblue" points="204.544,-84.6734 210.385,-75.8339 200.307,-79.1018 204.544,-84.6734"/>
</g>
<!-- Node6 -->
<g id="node6" class="node"><title>Node6</title>
<polygon fill="white" stroke="#bfbfbf" points="197.5,-0.5 197.5,-19.5 246.5,-19.5 246.5,-0.5 197.5,-0.5"/>
<text text-anchor="middle" x="222" y="-7.5" font-family="Helvetica,sans-Serif" font-size="10.00">stdint.h</text>
</g>
<!-- Node4&#45;&gt;Node6 -->
<g id="edge7" class="edge"><title>Node4&#45;&gt;Node6</title>
<path fill="none" stroke="midnightblue" d="M151.946,-112.359C153.712,-99.2617 158.437,-74.0042 170,-56 177.661,-44.071 189.404,-33.5262 199.793,-25.6482"/>
<polygon fill="midnightblue" stroke="midnightblue" points="202.008,-28.3666 208.082,-19.6861 197.92,-22.6839 202.008,-28.3666"/>
</g>
<!-- Node7 -->
<g id="node7" class="node"><title>Node7</title>
<polygon fill="white" stroke="#bfbfbf" points="75,-56.5 75,-75.5 123,-75.5 123,-56.5 75,-56.5"/>
<text text-anchor="middle" x="99" y="-63.5" font-family="Helvetica,sans-Serif" font-size="10.00">cstddef</text>
</g>
<!-- Node4&#45;&gt;Node7 -->
<g id="edge6" class="edge"><title>Node4&#45;&gt;Node7</title>
<path fill="none" stroke="midnightblue" d="M142.413,-112.083C134.841,-104.22 123.622,-92.5688 114.486,-83.0813"/>
<polygon fill="midnightblue" stroke="midnightblue" points="116.885,-80.5266 107.427,-75.7511 111.842,-85.3821 116.885,-80.5266"/>
</g>
<!-- Node5&#45;&gt;Node6 -->
<g id="edge5" class="edge"><title>Node5&#45;&gt;Node6</title>
<path fill="none" stroke="midnightblue" d="M222,-56.083C222,-49.0059 222,-38.8611 222,-29.9865"/>
<polygon fill="midnightblue" stroke="midnightblue" points="225.5,-29.751 222,-19.7511 218.5,-29.7511 225.5,-29.751"/>
</g>
<!-- Node8&#45;&gt;Node2 -->
<g id="edge15" class="edge"><title>Node8&#45;&gt;Node2</title>
<path fill="none" stroke="midnightblue" d="M205.869,-224.399C174.42,-214.118 132.308,-200.351 102.733,-190.682"/>
<polygon fill="midnightblue" stroke="midnightblue" points="103.81,-187.352 93.2169,-187.571 101.634,-194.005 103.81,-187.352"/>
</g>
<!-- Node9 -->
<g id="node9" class="node"><title>Node9</title>
<g id="a_node9"><a xlink:href="erpc__transport_8h.html" target="_top" xlink:title="erpc_transport.h">
<polygon fill="white" stroke="black" points="179.5,-168.5 179.5,-187.5 266.5,-187.5 266.5,-168.5 179.5,-168.5"/>
<text text-anchor="middle" x="223" y="-175.5" font-family="Helvetica,sans-Serif" font-size="10.00">erpc_transport.h</text>
</a>
</g>
</g>
<!-- Node8&#45;&gt;Node9 -->
<g id="edge9" class="edge"><title>Node8&#45;&gt;Node9</title>
<path fill="none" stroke="midnightblue" d="M242.838,-224.399C239.255,-216.199 234.703,-205.781 230.863,-196.994"/>
<polygon fill="midnightblue" stroke="midnightblue" points="233.995,-195.42 226.783,-187.658 227.58,-198.223 233.995,-195.42"/>
</g>
<!-- Node8&#45;&gt;Node12 -->
<g id="edge16" class="edge"><title>Node8&#45;&gt;Node12</title>
<path fill="none" stroke="midnightblue" d="M295.908,-224.475C330.69,-214.075 377.503,-200.078 409.965,-190.372"/>
<polygon fill="midnightblue" stroke="midnightblue" points="410.972,-193.724 419.55,-187.506 408.967,-187.018 410.972,-193.724"/>
</g>
<!-- Node13 -->
<g id="node13" class="node"><title>Node13</title>
<polygon fill="white" stroke="#bfbfbf" points="285,-168.5 285,-187.5 395,-187.5 395,-168.5 285,-168.5"/>
<text text-anchor="middle" x="340" y="-175.5" font-family="Helvetica,sans-Serif" font-size="10.00">rpmsg_env_specific.h</text>
</g>
<!-- Node8&#45;&gt;Node13 -->
<g id="edge17" class="edge"><title>Node8&#45;&gt;Node13</title>
<path fill="none" stroke="midnightblue" d="M270.566,-224.399C284.88,-215.04 303.612,-202.792 318.011,-193.377"/>
<polygon fill="midnightblue" stroke="midnightblue" points="320.304,-196.06 326.759,-187.658 316.474,-190.201 320.304,-196.06"/>
</g>
<!-- Node9&#45;&gt;Node4 -->
<g id="edge13" class="edge"><title>Node9&#45;&gt;Node4</title>
<path fill="none" stroke="midnightblue" d="M211.432,-168.324C200.58,-160.185 184.119,-147.839 171.117,-138.087"/>
<polygon fill="midnightblue" stroke="midnightblue" points="172.879,-135.034 162.779,-131.834 168.679,-140.634 172.879,-135.034"/>
</g>
<!-- Node9&#45;&gt;Node5 -->
<g id="edge10" class="edge"><title>Node9&#45;&gt;Node5</title>
<path fill="none" stroke="midnightblue" d="M222.922,-168.368C222.76,-150.617 222.388,-109.666 222.169,-85.5974"/>
<polygon fill="midnightblue" stroke="midnightblue" points="225.669,-85.5592 222.078,-75.5914 218.669,-85.6229 225.669,-85.5592"/>
</g>
<!-- Node10 -->
<g id="node10" class="node"><title>Node10</title>
<g id="a_node10"><a xlink:href="erpc__crc16_8h.html" target="_top" xlink:title="erpc_crc16.h">
<polygon fill="white" stroke="black" points="283.5,-56.5 283.5,-75.5 356.5,-75.5 356.5,-56.5 283.5,-56.5"/>
<text text-anchor="middle" x="320" y="-63.5" font-family="Helvetica,sans-Serif" font-size="10.00">erpc_crc16.h</text>
</a>
</g>
</g>
<!-- Node9&#45;&gt;Node10 -->
<g id="edge11" class="edge"><title>Node9&#45;&gt;Node10</title>
<path fill="none" stroke="midnightblue" d="M230.611,-168.368C246.761,-150.055 284.684,-107.049 305.571,-83.3624"/>
<polygon fill="midnightblue" stroke="midnightblue" points="308.435,-85.4067 312.424,-75.5914 303.185,-80.7769 308.435,-85.4067"/>
</g>
<!-- Node11 -->
<g id="node11" class="node"><title>Node11</title>
<polygon fill="white" stroke="#bfbfbf" points="396,-112.5 396,-131.5 442,-131.5 442,-112.5 396,-112.5"/>
<text text-anchor="middle" x="419" y="-119.5" font-family="Helvetica,sans-Serif" font-size="10.00">cstring</text>
</g>
<!-- Node9&#45;&gt;Node11 -->
<g id="edge14" class="edge"><title>Node9&#45;&gt;Node11</title>
<path fill="none" stroke="midnightblue" d="M254.057,-168.444C290.07,-158.522 349.187,-142.234 386.005,-132.09"/>
<polygon fill="midnightblue" stroke="midnightblue" points="387.05,-135.433 395.761,-129.403 385.19,-128.685 387.05,-135.433"/>
</g>
<!-- Node10&#45;&gt;Node6 -->
<g id="edge12" class="edge"><title>Node10&#45;&gt;Node6</title>
<path fill="none" stroke="midnightblue" d="M304.255,-56.324C288.681,-47.7428 264.623,-34.486 246.541,-24.5224"/>
<polygon fill="midnightblue" stroke="midnightblue" points="248.154,-21.4152 237.706,-19.6545 244.776,-27.546 248.154,-21.4152"/>
</g>
<!-- Node14&#45;&gt;Node11 -->
<g id="edge19" class="edge"><title>Node14&#45;&gt;Node11</title>
<path fill="none" stroke="midnightblue" d="M498.735,-229.948C501.106,-215.892 503.824,-187.521 492,-168 482.889,-152.958 466.643,-142.216 451.787,-135.009"/>
<polygon fill="midnightblue" stroke="midnightblue" points="452.872,-131.66 442.314,-130.773 450.015,-138.05 452.872,-131.66"/>
</g>
</g>
</svg>
