<?xml version="1.0" encoding="UTF-8" standalone="no"?>
<!DOCTYPE svg PUBLIC "-//W3C//DTD SVG 1.1//EN"
 "http://www.w3.org/Graphics/SVG/1.1/DTD/svg11.dtd">
<!-- Generated by graphviz version 2.38.0 (20140413.2041)
 -->
<!-- Title: erpc_crc16.h Pages: 1 -->
<svg width="1934pt" height="285pt"
 viewBox="0.00 0.00 1933.50 285.00" xmlns="http://www.w3.org/2000/svg" xmlns:xlink="http://www.w3.org/1999/xlink">
<g id="graph0" class="graph" transform="scale(1 1) rotate(0) translate(4 281)">
<title>erpc_crc16.h</title>
<polygon fill="white" stroke="none" points="-4,4 -4,-281 1929.5,-281 1929.5,4 -4,4"/>
<!-- Node1 -->
<g id="node1" class="node"><title>Node1</title>
<polygon fill="#bfbfbf" stroke="black" points="1518,-257.5 1518,-276.5 1591,-276.5 1591,-257.5 1518,-257.5"/>
<text text-anchor="middle" x="1554.5" y="-264.5" font-family="Helvetica,sans-Serif" font-size="10.00">erpc_crc16.h</text>
</g>
<!-- Node2 -->
<g id="node2" class="node"><title>Node2</title>
<g id="a_node2"><a xlink:href="erpc__transport_8h.html" target="_top" xlink:title="erpc_transport.h">
<polygon fill="white" stroke="black" points="1258,-201.5 1258,-220.5 1345,-220.5 1345,-201.5 1258,-201.5"/>
<text text-anchor="middle" x="1301.5" y="-208.5" font-family="Helvetica,sans-Serif" font-size="10.00">erpc_transport.h</text>
</a>
</g>
</g>
<!-- Node1&#45;&gt;Node2 -->
<g id="edge1" class="edge"><title>Node1&#45;&gt;Node2</title>
<path fill="none" stroke="midnightblue" d="M1508.2,-256.117C1460.4,-245.916 1386.62,-230.168 1341.35,-220.505"/>
<polygon fill="midnightblue" stroke="midnightblue" points="1507.47,-259.541 1517.98,-258.206 1508.93,-252.695 1507.47,-259.541"/>
</g>
<!-- Node27 -->
<g id="node27" class="node"><title>Node27</title>
<g id="a_node27"><a xlink:href="erpc__rpmsg__tty__rtos__transport_8h.html" target="_top" xlink:title="erpc_rpmsg_tty_rtos\l_transport.h">
<polygon fill="white" stroke="black" points="1819.5,-67.5 1819.5,-97.5 1925.5,-97.5 1925.5,-67.5 1819.5,-67.5"/>
<text text-anchor="start" x="1827.5" y="-85.5" font-family="Helvetica,sans-Serif" font-size="10.00">erpc_rpmsg_tty_rtos</text>
<text text-anchor="middle" x="1872.5" y="-74.5" font-family="Helvetica,sans-Serif" font-size="10.00">_transport.h</text>
</a>
</g>
</g>
<!-- Node1&#45;&gt;Node27 -->
<g id="edge29" class="edge"><title>Node1&#45;&gt;Node27</title>
<path fill="none" stroke="midnightblue" d="M1594.23,-254.465C1643.52,-239.001 1728.82,-208.383 1792.5,-165 1820.85,-145.689 1847.42,-115.258 1861.66,-97.5562"/>
<polygon fill="midnightblue" stroke="midnightblue" points="1593.1,-251.151 1584.57,-257.444 1595.16,-257.84 1593.1,-251.151"/>
</g>
<!-- Node3 -->
<g id="node3" class="node"><title>Node3</title>
<g id="a_node3"><a xlink:href="erpc__codec_8h.html" target="_top" xlink:title="erpc_codec.h">
<polygon fill="white" stroke="black" points="295,-140 295,-159 370,-159 370,-140 295,-140"/>
<text text-anchor="middle" x="332.5" y="-147" font-family="Helvetica,sans-Serif" font-size="10.00">erpc_codec.h</text>
</a>
</g>
</g>
<!-- Node2&#45;&gt;Node3 -->
<g id="edge2" class="edge"><title>Node2&#45;&gt;Node3</title>
<path fill="none" stroke="midnightblue" d="M1247.97,-206.713C1072.82,-195.958 519.483,-161.981 370.021,-152.804"/>
<polygon fill="midnightblue" stroke="midnightblue" points="1247.79,-210.208 1257.98,-207.328 1248.21,-203.221 1247.79,-210.208"/>
</g>
<!-- Node6 -->
<g id="node6" class="node"><title>Node6</title>
<g id="a_node6"><a xlink:href="erpc__transport__arbitrator_8h.html" target="_top" xlink:title="erpc_transport_arbitrator.h">
<polygon fill="white" stroke="black" points="0,-6 0,-25 131,-25 131,-6 0,-6"/>
<text text-anchor="middle" x="65.5" y="-13" font-family="Helvetica,sans-Serif" font-size="10.00">erpc_transport_arbitrator.h</text>
</a>
</g>
</g>
<!-- Node2&#45;&gt;Node6 -->
<g id="edge12" class="edge"><title>Node2&#45;&gt;Node6</title>
<path fill="none" stroke="midnightblue" d="M1247.75,-209.737C1065.56,-208.513 472.334,-201.737 285.5,-165 198.874,-147.967 162.184,-159.144 98.5,-98 77.358,-77.7012 69.3665,-42.0068 66.6921,-25.4283"/>
<polygon fill="midnightblue" stroke="midnightblue" points="1247.87,-213.237 1257.89,-209.802 1247.92,-206.238 1247.87,-213.237"/>
</g>
<!-- Node12 -->
<g id="node12" class="node"><title>Node12</title>
<g id="a_node12"><a xlink:href="erpc__framed__transport_8h.html" target="_top" xlink:title="erpc_framed_transport.h">
<polygon fill="white" stroke="black" points="957.5,-140 957.5,-159 1079.5,-159 1079.5,-140 957.5,-140"/>
<text text-anchor="middle" x="1018.5" y="-147" font-family="Helvetica,sans-Serif" font-size="10.00">erpc_framed_transport.h</text>
</a>
</g>
</g>
<!-- Node2&#45;&gt;Node12 -->
<g id="edge13" class="edge"><title>Node2&#45;&gt;Node12</title>
<path fill="none" stroke="midnightblue" d="M1251.09,-199.402C1196.23,-187.867 1109.58,-169.65 1058.97,-159.009"/>
<polygon fill="midnightblue" stroke="midnightblue" points="1250.45,-202.843 1260.95,-201.475 1251.89,-195.992 1250.45,-202.843"/>
</g>
<!-- Node20 -->
<g id="node20" class="node"><title>Node20</title>
<g id="a_node20"><a xlink:href="erpc__message__loggers_8h.html" target="_top" xlink:title="erpc_message_loggers.h">
<polygon fill="white" stroke="black" points="1098,-140 1098,-159 1223,-159 1223,-140 1098,-140"/>
<text text-anchor="middle" x="1160.5" y="-147" font-family="Helvetica,sans-Serif" font-size="10.00">erpc_message_loggers.h</text>
</a>
</g>
</g>
<!-- Node2&#45;&gt;Node20 -->
<g id="edge21" class="edge"><title>Node2&#45;&gt;Node20</title>
<path fill="none" stroke="midnightblue" d="M1271.83,-197.48C1244.45,-185.924 1204.52,-169.076 1180.66,-159.009"/>
<polygon fill="midnightblue" stroke="midnightblue" points="1270.72,-200.812 1281.3,-201.475 1273.45,-194.363 1270.72,-200.812"/>
</g>
<!-- Node21 -->
<g id="node21" class="node"><title>Node21</title>
<g id="a_node21"><a xlink:href="erpc__inter__thread__buffer__transport_8h.html" target="_top" xlink:title="erpc_inter_thread_buffer\l_transport.h">
<polygon fill="white" stroke="black" points="1241.5,-134.5 1241.5,-164.5 1361.5,-164.5 1361.5,-134.5 1241.5,-134.5"/>
<text text-anchor="start" x="1249.5" y="-152.5" font-family="Helvetica,sans-Serif" font-size="10.00">erpc_inter_thread_buffer</text>
<text text-anchor="middle" x="1301.5" y="-141.5" font-family="Helvetica,sans-Serif" font-size="10.00">_transport.h</text>
</a>
</g>
</g>
<!-- Node2&#45;&gt;Node21 -->
<g id="edge22" class="edge"><title>Node2&#45;&gt;Node21</title>
<path fill="none" stroke="midnightblue" d="M1301.5,-191.235C1301.5,-182.586 1301.5,-172.497 1301.5,-164.523"/>
<polygon fill="midnightblue" stroke="midnightblue" points="1298,-191.475 1301.5,-201.475 1305,-191.475 1298,-191.475"/>
</g>
<!-- Node22 -->
<g id="node22" class="node"><title>Node22</title>
<g id="a_node22"><a xlink:href="erpc__mu__transport_8h.html" target="_top" xlink:title="erpc_mu_transport.h">
<polygon fill="white" stroke="black" points="1379.5,-140 1379.5,-159 1485.5,-159 1485.5,-140 1379.5,-140"/>
<text text-anchor="middle" x="1432.5" y="-147" font-family="Helvetica,sans-Serif" font-size="10.00">erpc_mu_transport.h</text>
</a>
</g>
</g>
<!-- Node2&#45;&gt;Node22 -->
<g id="edge23" class="edge"><title>Node2&#45;&gt;Node22</title>
<path fill="none" stroke="midnightblue" d="M1329.4,-197.327C1354.83,-185.776 1391.7,-169.032 1413.77,-159.009"/>
<polygon fill="midnightblue" stroke="midnightblue" points="1327.93,-194.153 1320.27,-201.475 1330.82,-200.526 1327.93,-194.153"/>
</g>
<!-- Node23 -->
<g id="node23" class="node"><title>Node23</title>
<g id="a_node23"><a xlink:href="erpc__rpmsg__linux__transport_8h_source.html" target="_top" xlink:title="erpc_rpmsg_linux_transport.h">
<polygon fill="white" stroke="black" points="1504,-140 1504,-159 1649,-159 1649,-140 1504,-140"/>
<text text-anchor="middle" x="1576.5" y="-147" font-family="Helvetica,sans-Serif" font-size="10.00">erpc_rpmsg_linux_transport.h</text>
</a>
</g>
</g>
<!-- Node2&#45;&gt;Node23 -->
<g id="edge24" class="edge"><title>Node2&#45;&gt;Node23</title>
<path fill="none" stroke="midnightblue" d="M1350.81,-199.33C1404.14,-187.792 1488.09,-169.628 1537.17,-159.009"/>
<polygon fill="midnightblue" stroke="midnightblue" points="1349.93,-195.939 1340.9,-201.475 1351.41,-202.781 1349.93,-195.939"/>
</g>
<!-- Node24 -->
<g id="node24" class="node"><title>Node24</title>
<g id="a_node24"><a xlink:href="erpc__rpmsg__lite__base__transport_8h.html" target="_top" xlink:title="erpc_rpmsg_lite_base\l_transport.h">
<polygon fill="white" stroke="black" points="1671.5,-134.5 1671.5,-164.5 1783.5,-164.5 1783.5,-134.5 1671.5,-134.5"/>
<text text-anchor="start" x="1679.5" y="-152.5" font-family="Helvetica,sans-Serif" font-size="10.00">erpc_rpmsg_lite_base</text>
<text text-anchor="middle" x="1727.5" y="-141.5" font-family="Helvetica,sans-Serif" font-size="10.00">_transport.h</text>
</a>
</g>
</g>
<!-- Node2&#45;&gt;Node24 -->
<g id="edge25" class="edge"><title>Node2&#45;&gt;Node24</title>
<path fill="none" stroke="midnightblue" d="M1355.55,-204.504C1425.48,-197.087 1550.97,-182.738 1657.5,-165 1662.03,-164.246 1666.71,-163.407 1671.41,-162.523"/>
<polygon fill="midnightblue" stroke="midnightblue" points="1354.81,-201.063 1345.23,-205.591 1355.54,-208.024 1354.81,-201.063"/>
</g>
<!-- Node4 -->
<g id="node4" class="node"><title>Node4</title>
<g id="a_node4"><a xlink:href="erpc__client__manager_8h.html" target="_top" xlink:title="erpc_client_manager.h">
<polygon fill="white" stroke="black" points="147,-73 147,-92 262,-92 262,-73 147,-73"/>
<text text-anchor="middle" x="204.5" y="-80" font-family="Helvetica,sans-Serif" font-size="10.00">erpc_client_manager.h</text>
</a>
</g>
</g>
<!-- Node3&#45;&gt;Node4 -->
<g id="edge3" class="edge"><title>Node3&#45;&gt;Node4</title>
<path fill="none" stroke="midnightblue" d="M306.455,-135.274C281.103,-122.4 243.311,-103.209 221.568,-92.1672"/>
<polygon fill="midnightblue" stroke="midnightblue" points="305.002,-138.461 315.503,-139.869 308.171,-132.22 305.002,-138.461"/>
</g>
<!-- Node3&#45;&gt;Node6 -->
<g id="edge8" class="edge"><title>Node3&#45;&gt;Node6</title>
<path fill="none" stroke="midnightblue" d="M284.623,-144.044C243.145,-138.407 182.841,-125.818 137.5,-98 106.28,-78.8459 81.0299,-41.9184 70.6303,-25.1552"/>
<polygon fill="midnightblue" stroke="midnightblue" points="284.38,-147.541 294.742,-145.332 285.264,-140.597 284.38,-147.541"/>
</g>
<!-- Node9 -->
<g id="node9" class="node"><title>Node9</title>
<g id="a_node9"><a xlink:href="erpc__basic__codec_8h.html" target="_top" xlink:title="erpc_basic_codec.h">
<polygon fill="white" stroke="black" points="280.5,-73 280.5,-92 384.5,-92 384.5,-73 280.5,-73"/>
<text text-anchor="middle" x="332.5" y="-80" font-family="Helvetica,sans-Serif" font-size="10.00">erpc_basic_codec.h</text>
</a>
</g>
</g>
<!-- Node3&#45;&gt;Node9 -->
<g id="edge9" class="edge"><title>Node3&#45;&gt;Node9</title>
<path fill="none" stroke="midnightblue" d="M332.5,-129.537C332.5,-117.17 332.5,-101.62 332.5,-92.1273"/>
<polygon fill="midnightblue" stroke="midnightblue" points="329,-129.734 332.5,-139.734 336,-129.734 329,-129.734"/>
</g>
<!-- Node10 -->
<g id="node10" class="node"><title>Node10</title>
<g id="a_node10"><a xlink:href="erpc__server_8h.html" target="_top" xlink:title="erpc_server.h">
<polygon fill="white" stroke="black" points="402.5,-73 402.5,-92 476.5,-92 476.5,-73 402.5,-73"/>
<text text-anchor="middle" x="439.5" y="-80" font-family="Helvetica,sans-Serif" font-size="10.00">erpc_server.h</text>
</a>
</g>
</g>
<!-- Node3&#45;&gt;Node10 -->
<g id="edge10" class="edge"><title>Node3&#45;&gt;Node10</title>
<path fill="none" stroke="midnightblue" d="M355.641,-134.442C376.831,-121.57 407.519,-102.927 425.298,-92.1273"/>
<polygon fill="midnightblue" stroke="midnightblue" points="353.66,-131.551 346.93,-139.734 357.294,-137.533 353.66,-131.551"/>
</g>
<!-- Node5 -->
<g id="node5" class="node"><title>Node5</title>
<g id="a_node5"><a xlink:href="erpc__arbitrated__client__manager_8h.html" target="_top" xlink:title="erpc_arbitrated_client\l_manager.h">
<polygon fill="white" stroke="black" points="149.5,-0.5 149.5,-30.5 259.5,-30.5 259.5,-0.5 149.5,-0.5"/>
<text text-anchor="start" x="157.5" y="-18.5" font-family="Helvetica,sans-Serif" font-size="10.00">erpc_arbitrated_client</text>
<text text-anchor="middle" x="204.5" y="-7.5" font-family="Helvetica,sans-Serif" font-size="10.00">_manager.h</text>
</a>
</g>
</g>
<!-- Node4&#45;&gt;Node5 -->
<g id="edge4" class="edge"><title>Node4&#45;&gt;Node5</title>
<path fill="none" stroke="midnightblue" d="M204.5,-62.4107C204.5,-52.222 204.5,-39.901 204.5,-30.589"/>
<polygon fill="midnightblue" stroke="midnightblue" points="201,-62.7338 204.5,-72.7338 208,-62.7338 201,-62.7338"/>
</g>
<!-- Node4&#45;&gt;Node6 -->
<g id="edge5" class="edge"><title>Node4&#45;&gt;Node6</title>
<path fill="none" stroke="midnightblue" d="M176.941,-68.6127C149.41,-55.7387 107.854,-36.3059 84.0345,-25.1672"/>
<polygon fill="midnightblue" stroke="midnightblue" points="175.501,-71.8029 186.042,-72.8685 178.466,-65.462 175.501,-71.8029"/>
</g>
<!-- Node7 -->
<g id="node7" class="node"><title>Node7</title>
<g id="a_node7"><a xlink:href="erpc__arbitrated__client__setup_8h.html" target="_top" xlink:title="erpc_arbitrated_client\l_setup.h">
<polygon fill="white" stroke="black" points="277.5,-0.5 277.5,-30.5 387.5,-30.5 387.5,-0.5 277.5,-0.5"/>
<text text-anchor="start" x="285.5" y="-18.5" font-family="Helvetica,sans-Serif" font-size="10.00">erpc_arbitrated_client</text>
<text text-anchor="middle" x="332.5" y="-7.5" font-family="Helvetica,sans-Serif" font-size="10.00">_setup.h</text>
</a>
</g>
</g>
<!-- Node4&#45;&gt;Node7 -->
<g id="edge6" class="edge"><title>Node4&#45;&gt;Node7</title>
<path fill="none" stroke="midnightblue" d="M230.702,-68.1944C252.233,-57.2607 282.658,-41.8102 304.632,-30.6516"/>
<polygon fill="midnightblue" stroke="midnightblue" points="228.829,-65.22 221.497,-72.8685 231.998,-71.4614 228.829,-65.22"/>
</g>
<!-- Node8 -->
<g id="node8" class="node"><title>Node8</title>
<g id="a_node8"><a xlink:href="erpc__client__setup_8h.html" target="_top" xlink:title="erpc_client_setup.h">
<polygon fill="white" stroke="black" points="406,-6 406,-25 507,-25 507,-6 406,-6"/>
<text text-anchor="middle" x="456.5" y="-13" font-family="Helvetica,sans-Serif" font-size="10.00">erpc_client_setup.h</text>
</a>
</g>
</g>
<!-- Node4&#45;&gt;Node8 -->
<g id="edge7" class="edge"><title>Node4&#45;&gt;Node8</title>
<path fill="none" stroke="midnightblue" d="M247.519,-70.4039C297.253,-57.5757 378.046,-36.7361 423.223,-25.0834"/>
<polygon fill="midnightblue" stroke="midnightblue" points="246.513,-67.0488 237.704,-72.9355 248.261,-73.8269 246.513,-67.0488"/>
</g>
<!-- Node11 -->
<g id="node11" class="node"><title>Node11</title>
<g id="a_node11"><a xlink:href="erpc__simple__server_8h.html" target="_top" xlink:title="erpc_simple_server.h">
<polygon fill="white" stroke="black" points="525.5,-6 525.5,-25 633.5,-25 633.5,-6 525.5,-6"/>
<text text-anchor="middle" x="579.5" y="-13" font-family="Helvetica,sans-Serif" font-size="10.00">erpc_simple_server.h</text>
</a>
</g>
</g>
<!-- Node10&#45;&gt;Node11 -->
<g id="edge11" class="edge"><title>Node10&#45;&gt;Node11</title>
<path fill="none" stroke="midnightblue" d="M467.257,-68.6127C494.986,-55.7387 536.841,-36.3059 560.832,-25.1672"/>
<polygon fill="midnightblue" stroke="midnightblue" points="465.687,-65.4828 458.091,-72.8685 468.635,-71.8319 465.687,-65.4828"/>
</g>
<!-- Node13 -->
<g id="node13" class="node"><title>Node13</title>
<g id="a_node13"><a xlink:href="erpc__dspi__master__transport_8h.html" target="_top" xlink:title="erpc_dspi_master_transport.h">
<polygon fill="white" stroke="black" points="494.5,-73 494.5,-92 640.5,-92 640.5,-73 494.5,-73"/>
<text text-anchor="middle" x="567.5" y="-80" font-family="Helvetica,sans-Serif" font-size="10.00">erpc_dspi_master_transport.h</text>
</a>
</g>
</g>
<!-- Node12&#45;&gt;Node13 -->
<g id="edge14" class="edge"><title>Node12&#45;&gt;Node13</title>
<path fill="none" stroke="midnightblue" d="M947.153,-139.574C872.739,-130.068 752.759,-114.189 649.5,-98 637.931,-96.1862 625.474,-94.0686 613.849,-92.021"/>
<polygon fill="midnightblue" stroke="midnightblue" points="946.982,-143.081 957.345,-140.873 947.867,-136.137 946.982,-143.081"/>
</g>
<!-- Node14 -->
<g id="node14" class="node"><title>Node14</title>
<g id="a_node14"><a xlink:href="erpc__dspi__slave__transport_8h.html" target="_top" xlink:title="erpc_dspi_slave_transport.h">
<polygon fill="white" stroke="black" points="659,-73 659,-92 796,-92 796,-73 659,-73"/>
<text text-anchor="middle" x="727.5" y="-80" font-family="Helvetica,sans-Serif" font-size="10.00">erpc_dspi_slave_transport.h</text>
</a>
</g>
</g>
<!-- Node12&#45;&gt;Node14 -->
<g id="edge15" class="edge"><title>Node12&#45;&gt;Node14</title>
<path fill="none" stroke="midnightblue" d="M970.255,-137.724C912.954,-124.924 818.531,-103.833 765.927,-92.0834"/>
<polygon fill="midnightblue" stroke="midnightblue" points="969.635,-141.171 980.158,-139.936 971.161,-134.34 969.635,-141.171"/>
</g>
<!-- Node15 -->
<g id="node15" class="node"><title>Node15</title>
<g id="a_node15"><a xlink:href="erpc__serial__transport_8h.html" target="_top" xlink:title="erpc_serial_transport.h">
<polygon fill="white" stroke="black" points="814.5,-73 814.5,-92 930.5,-92 930.5,-73 814.5,-73"/>
<text text-anchor="middle" x="872.5" y="-80" font-family="Helvetica,sans-Serif" font-size="10.00">erpc_serial_transport.h</text>
</a>
</g>
</g>
<!-- Node12&#45;&gt;Node15 -->
<g id="edge16" class="edge"><title>Node12&#45;&gt;Node15</title>
<path fill="none" stroke="midnightblue" d="M989.931,-135.781C961.018,-122.909 917.096,-103.355 891.968,-92.1672"/>
<polygon fill="midnightblue" stroke="midnightblue" points="988.553,-138.999 999.112,-139.869 991.4,-132.604 988.553,-138.999"/>
</g>
<!-- Node16 -->
<g id="node16" class="node"><title>Node16</title>
<g id="a_node16"><a xlink:href="erpc__spi__master__transport_8h.html" target="_top" xlink:title="erpc_spi_master_transport.h">
<polygon fill="white" stroke="black" points="948.5,-73 948.5,-92 1088.5,-92 1088.5,-73 948.5,-73"/>
<text text-anchor="middle" x="1018.5" y="-80" font-family="Helvetica,sans-Serif" font-size="10.00">erpc_spi_master_transport.h</text>
</a>
</g>
</g>
<!-- Node12&#45;&gt;Node16 -->
<g id="edge17" class="edge"><title>Node12&#45;&gt;Node16</title>
<path fill="none" stroke="midnightblue" d="M1018.5,-129.537C1018.5,-117.17 1018.5,-101.62 1018.5,-92.1273"/>
<polygon fill="midnightblue" stroke="midnightblue" points="1015,-129.734 1018.5,-139.734 1022,-129.734 1015,-129.734"/>
</g>
<!-- Node17 -->
<g id="node17" class="node"><title>Node17</title>
<g id="a_node17"><a xlink:href="erpc__spi__slave__transport_8h.html" target="_top" xlink:title="erpc_spi_slave_transport.h">
<polygon fill="white" stroke="black" points="1106.5,-73 1106.5,-92 1238.5,-92 1238.5,-73 1106.5,-73"/>
<text text-anchor="middle" x="1172.5" y="-80" font-family="Helvetica,sans-Serif" font-size="10.00">erpc_spi_slave_transport.h</text>
</a>
</g>
</g>
<!-- Node12&#45;&gt;Node17 -->
<g id="edge18" class="edge"><title>Node12&#45;&gt;Node17</title>
<path fill="none" stroke="midnightblue" d="M1048.24,-135.948C1078.73,-123.079 1125.34,-103.403 1151.97,-92.1672"/>
<polygon fill="midnightblue" stroke="midnightblue" points="1046.8,-132.755 1038.95,-139.869 1049.52,-139.204 1046.8,-132.755"/>
</g>
<!-- Node18 -->
<g id="node18" class="node"><title>Node18</title>
<g id="a_node18"><a xlink:href="erpc__tcp__transport_8h.html" target="_top" xlink:title="erpc_tcp_transport.h">
<polygon fill="white" stroke="black" points="1256.5,-73 1256.5,-92 1362.5,-92 1362.5,-73 1256.5,-73"/>
<text text-anchor="middle" x="1309.5" y="-80" font-family="Helvetica,sans-Serif" font-size="10.00">erpc_tcp_transport.h</text>
</a>
</g>
</g>
<!-- Node12&#45;&gt;Node18 -->
<g id="edge19" class="edge"><title>Node12&#45;&gt;Node18</title>
<path fill="none" stroke="midnightblue" d="M1067.63,-137.854C1114.03,-127.755 1185.55,-112.075 1247.5,-98 1255.91,-96.0898 1264.95,-93.9975 1273.45,-92.0114"/>
<polygon fill="midnightblue" stroke="midnightblue" points="1066.87,-134.438 1057.84,-139.984 1068.36,-141.278 1066.87,-134.438"/>
</g>
<!-- Node19 -->
<g id="node19" class="node"><title>Node19</title>
<g id="a_node19"><a xlink:href="erpc__uart__cmsis__transport_8h.html" target="_top" xlink:title="erpc_uart_cmsis_transport.h">
<polygon fill="white" stroke="black" points="1380.5,-73 1380.5,-92 1520.5,-92 1520.5,-73 1380.5,-73"/>
<text text-anchor="middle" x="1450.5" y="-80" font-family="Helvetica,sans-Serif" font-size="10.00">erpc_uart_cmsis_transport.h</text>
</a>
</g>
</g>
<!-- Node12&#45;&gt;Node19 -->
<g id="edge20" class="edge"><title>Node12&#45;&gt;Node19</title>
<path fill="none" stroke="midnightblue" d="M1067.2,-137.906C1074.33,-136.503 1081.59,-135.153 1088.5,-134 1213.56,-113.125 1246.21,-117.452 1371.5,-98 1382.8,-96.2458 1394.97,-94.1276 1406.28,-92.0587"/>
<polygon fill="midnightblue" stroke="midnightblue" points="1066.02,-134.573 1056.91,-139.983 1067.41,-141.435 1066.02,-134.573"/>
</g>
<!-- Node25 -->
<g id="node25" class="node"><title>Node25</title>
<g id="a_node25"><a xlink:href="erpc__rpmsg__lite__rtos__transport_8h.html" target="_top" xlink:title="erpc_rpmsg_lite_rtos\l_transport.h">
<polygon fill="white" stroke="black" points="1539,-67.5 1539,-97.5 1646,-97.5 1646,-67.5 1539,-67.5"/>
<text text-anchor="start" x="1547" y="-85.5" font-family="Helvetica,sans-Serif" font-size="10.00">erpc_rpmsg_lite_rtos</text>
<text text-anchor="middle" x="1592.5" y="-74.5" font-family="Helvetica,sans-Serif" font-size="10.00">_transport.h</text>
</a>
</g>
</g>
<!-- Node24&#45;&gt;Node25 -->
<g id="edge26" class="edge"><title>Node24&#45;&gt;Node25</title>
<path fill="none" stroke="midnightblue" d="M1689.06,-129.992C1667.66,-119.689 1641.45,-107.068 1621.74,-97.5765"/>
<polygon fill="midnightblue" stroke="midnightblue" points="1687.68,-133.211 1698.21,-134.396 1690.72,-126.904 1687.68,-133.211"/>
</g>
<!-- Node26 -->
<g id="node26" class="node"><title>Node26</title>
<g id="a_node26"><a xlink:href="erpc__rpmsg__lite__transport_8h.html" target="_top" xlink:title="erpc_rpmsg_lite_transport.h">
<polygon fill="white" stroke="black" points="1664,-73 1664,-92 1801,-92 1801,-73 1664,-73"/>
<text text-anchor="middle" x="1732.5" y="-80" font-family="Helvetica,sans-Serif" font-size="10.00">erpc_rpmsg_lite_transport.h</text>
</a>
</g>
</g>
<!-- Node24&#45;&gt;Node26 -->
<g id="edge27" class="edge"><title>Node24&#45;&gt;Node26</title>
<path fill="none" stroke="midnightblue" d="M1729.37,-124.25C1730.23,-113.017 1731.2,-100.377 1731.83,-92.1945"/>
<polygon fill="midnightblue" stroke="midnightblue" points="1725.86,-124.157 1728.58,-134.396 1732.84,-124.694 1725.86,-124.157"/>
</g>
<!-- Node24&#45;&gt;Node27 -->
<g id="edge28" class="edge"><title>Node24&#45;&gt;Node27</title>
<path fill="none" stroke="midnightblue" d="M1768.17,-130.269C1791.26,-119.916 1819.74,-107.153 1841.1,-97.5765"/>
<polygon fill="midnightblue" stroke="midnightblue" points="1766.66,-127.112 1758.96,-134.396 1769.52,-133.499 1766.66,-127.112"/>
</g>
</g>
</svg>
