<?xml version="1.0" encoding="UTF-8" standalone="no"?>
<!DOCTYPE svg PUBLIC "-//W3C//DTD SVG 1.1//EN"
 "http://www.w3.org/Graphics/SVG/1.1/DTD/svg11.dtd">
<!-- Generated by graphviz version 2.38.0 (20140413.2041)
 -->
<!-- Title: erpc_threading.h Pages: 1 -->
<svg width="1034pt" height="151pt"
 viewBox="0.00 0.00 1034.00 151.00" xmlns="http://www.w3.org/2000/svg" xmlns:xlink="http://www.w3.org/1999/xlink">
<g id="graph0" class="graph" transform="scale(1 1) rotate(0) translate(4 147)">
<title>erpc_threading.h</title>
<polygon fill="white" stroke="none" points="-4,4 -4,-147 1030,-147 1030,4 -4,4"/>
<!-- Node1 -->
<g id="node1" class="node"><title>Node1</title>
<polygon fill="#bfbfbf" stroke="black" points="645.5,-123.5 645.5,-142.5 734.5,-142.5 734.5,-123.5 645.5,-123.5"/>
<text text-anchor="middle" x="690" y="-130.5" font-family="Helvetica,sans-Serif" font-size="10.00">erpc_threading.h</text>
</g>
<!-- Node2 -->
<g id="node2" class="node"><title>Node2</title>
<g id="a_node2"><a xlink:href="erpc__transport__arbitrator_8h.html" target="_top" xlink:title="erpc_transport_arbitrator.h">
<polygon fill="white" stroke="black" points="390.5,-62 390.5,-81 521.5,-81 521.5,-62 390.5,-62"/>
<text text-anchor="middle" x="456" y="-69" font-family="Helvetica,sans-Serif" font-size="10.00">erpc_transport_arbitrator.h</text>
</a>
</g>
</g>
<!-- Node1&#45;&gt;Node2 -->
<g id="edge1" class="edge"><title>Node1&#45;&gt;Node2</title>
<path fill="none" stroke="midnightblue" d="M646.615,-120.968C601.177,-109.415 530.791,-91.5173 489.464,-81.0091"/>
<polygon fill="midnightblue" stroke="midnightblue" points="645.919,-124.403 656.474,-123.475 647.644,-117.619 645.919,-124.403"/>
</g>
<!-- Node3 -->
<g id="node3" class="node"><title>Node3</title>
<g id="a_node3"><a xlink:href="erpc__framed__transport_8h.html" target="_top" xlink:title="erpc_framed_transport.h">
<polygon fill="white" stroke="black" points="540,-62 540,-81 662,-81 662,-62 540,-62"/>
<text text-anchor="middle" x="601" y="-69" font-family="Helvetica,sans-Serif" font-size="10.00">erpc_framed_transport.h</text>
</a>
</g>
</g>
<!-- Node1&#45;&gt;Node3 -->
<g id="edge2" class="edge"><title>Node1&#45;&gt;Node3</title>
<path fill="none" stroke="midnightblue" d="M668.48,-117.613C651.362,-106.169 627.993,-90.546 613.728,-81.0091"/>
<polygon fill="midnightblue" stroke="midnightblue" points="666.99,-120.827 677.248,-123.475 670.88,-115.008 666.99,-120.827"/>
</g>
<!-- Node9 -->
<g id="node9" class="node"><title>Node9</title>
<g id="a_node9"><a xlink:href="erpc__tcp__transport_8h.html" target="_top" xlink:title="erpc_tcp_transport.h">
<polygon fill="white" stroke="black" points="920,-0.5 920,-19.5 1026,-19.5 1026,-0.5 920,-0.5"/>
<text text-anchor="middle" x="973" y="-7.5" font-family="Helvetica,sans-Serif" font-size="10.00">erpc_tcp_transport.h</text>
</a>
</g>
</g>
<!-- Node1&#45;&gt;Node9 -->
<g id="edge12" class="edge"><title>Node1&#45;&gt;Node9</title>
<path fill="none" stroke="midnightblue" d="M689.296,-113.37C689.717,-95.9708 693.288,-70.5593 709,-56 712.869,-52.4152 843.954,-31.2939 919.922,-19.3042"/>
<polygon fill="midnightblue" stroke="midnightblue" points="685.796,-113.482 689.377,-123.453 692.796,-113.425 685.796,-113.482"/>
</g>
<!-- Node11 -->
<g id="node11" class="node"><title>Node11</title>
<g id="a_node11"><a xlink:href="erpc__inter__thread__buffer__transport_8h.html" target="_top" xlink:title="erpc_inter_thread_buffer\l_transport.h">
<polygon fill="white" stroke="black" points="718,-56.5 718,-86.5 838,-86.5 838,-56.5 718,-56.5"/>
<text text-anchor="start" x="726" y="-74.5" font-family="Helvetica,sans-Serif" font-size="10.00">erpc_inter_thread_buffer</text>
<text text-anchor="middle" x="778" y="-63.5" font-family="Helvetica,sans-Serif" font-size="10.00">_transport.h</text>
</a>
</g>
</g>
<!-- Node1&#45;&gt;Node11 -->
<g id="edge10" class="edge"><title>Node1&#45;&gt;Node11</title>
<path fill="none" stroke="midnightblue" d="M711.092,-117.739C725.078,-108.282 743.347,-95.9304 757.26,-86.523"/>
<polygon fill="midnightblue" stroke="midnightblue" points="708.932,-114.974 702.608,-123.475 712.853,-120.773 708.932,-114.974"/>
</g>
<!-- Node12 -->
<g id="node12" class="node"><title>Node12</title>
<g id="a_node12"><a xlink:href="erpc__mu__transport_8h.html" target="_top" xlink:title="erpc_mu_transport.h">
<polygon fill="white" stroke="black" points="856,-62 856,-81 962,-81 962,-62 856,-62"/>
<text text-anchor="middle" x="909" y="-69" font-family="Helvetica,sans-Serif" font-size="10.00">erpc_mu_transport.h</text>
</a>
</g>
</g>
<!-- Node1&#45;&gt;Node12 -->
<g id="edge11" class="edge"><title>Node1&#45;&gt;Node12</title>
<path fill="none" stroke="midnightblue" d="M731.141,-120.822C773.682,-109.264 839.166,-91.4732 877.681,-81.0091"/>
<polygon fill="midnightblue" stroke="midnightblue" points="730.11,-117.476 721.377,-123.475 731.945,-124.231 730.11,-117.476"/>
</g>
<!-- Node4 -->
<g id="node4" class="node"><title>Node4</title>
<g id="a_node4"><a xlink:href="erpc__dspi__master__transport_8h.html" target="_top" xlink:title="erpc_dspi_master_transport.h">
<polygon fill="white" stroke="black" points="0,-0.5 0,-19.5 146,-19.5 146,-0.5 0,-0.5"/>
<text text-anchor="middle" x="73" y="-7.5" font-family="Helvetica,sans-Serif" font-size="10.00">erpc_dspi_master_transport.h</text>
</a>
</g>
</g>
<!-- Node3&#45;&gt;Node4 -->
<g id="edge3" class="edge"><title>Node3&#45;&gt;Node4</title>
<path fill="none" stroke="midnightblue" d="M552.922,-59.9663C545.278,-58.4982 537.44,-57.1137 530,-56 364.412,-31.2141 321.554,-37.1339 155,-20 152.151,-19.7069 149.246,-19.4046 146.312,-19.0965"/>
<polygon fill="midnightblue" stroke="midnightblue" points="552.32,-63.4149 562.81,-61.9286 553.683,-56.5488 552.32,-63.4149"/>
</g>
<!-- Node5 -->
<g id="node5" class="node"><title>Node5</title>
<g id="a_node5"><a xlink:href="erpc__dspi__slave__transport_8h.html" target="_top" xlink:title="erpc_dspi_slave_transport.h">
<polygon fill="white" stroke="black" points="164.5,-0.5 164.5,-19.5 301.5,-19.5 301.5,-0.5 164.5,-0.5"/>
<text text-anchor="middle" x="233" y="-7.5" font-family="Helvetica,sans-Serif" font-size="10.00">erpc_dspi_slave_transport.h</text>
</a>
</g>
</g>
<!-- Node3&#45;&gt;Node5 -->
<g id="edge4" class="edge"><title>Node3&#45;&gt;Node5</title>
<path fill="none" stroke="midnightblue" d="M550.801,-59.916C543.825,-58.5423 536.741,-57.1982 530,-56 449.258,-41.6481 355.647,-27.9487 295.442,-19.5153"/>
<polygon fill="midnightblue" stroke="midnightblue" points="550.399,-63.405 560.892,-61.9365 551.773,-56.5413 550.399,-63.405"/>
</g>
<!-- Node6 -->
<g id="node6" class="node"><title>Node6</title>
<g id="a_node6"><a xlink:href="erpc__serial__transport_8h.html" target="_top" xlink:title="erpc_serial_transport.h">
<polygon fill="white" stroke="black" points="320,-0.5 320,-19.5 436,-19.5 436,-0.5 320,-0.5"/>
<text text-anchor="middle" x="378" y="-7.5" font-family="Helvetica,sans-Serif" font-size="10.00">erpc_serial_transport.h</text>
</a>
</g>
</g>
<!-- Node3&#45;&gt;Node6 -->
<g id="edge5" class="edge"><title>Node3&#45;&gt;Node6</title>
<path fill="none" stroke="midnightblue" d="M559.382,-59.3956C516.071,-47.8396 449.192,-29.9952 409.891,-19.5091"/>
<polygon fill="midnightblue" stroke="midnightblue" points="558.485,-62.7787 569.05,-61.9751 560.29,-56.0154 558.485,-62.7787"/>
</g>
<!-- Node7 -->
<g id="node7" class="node"><title>Node7</title>
<g id="a_node7"><a xlink:href="erpc__spi__master__transport_8h.html" target="_top" xlink:title="erpc_spi_master_transport.h">
<polygon fill="white" stroke="black" points="454,-0.5 454,-19.5 594,-19.5 594,-0.5 454,-0.5"/>
<text text-anchor="middle" x="524" y="-7.5" font-family="Helvetica,sans-Serif" font-size="10.00">erpc_spi_master_transport.h</text>
</a>
</g>
</g>
<!-- Node3&#45;&gt;Node7 -->
<g id="edge6" class="edge"><title>Node3&#45;&gt;Node7</title>
<path fill="none" stroke="midnightblue" d="M581.968,-55.7938C567.198,-44.3803 547.239,-28.9577 535.012,-19.5091"/>
<polygon fill="midnightblue" stroke="midnightblue" points="579.915,-58.6301 589.968,-61.9751 584.195,-53.0911 579.915,-58.6301"/>
</g>
<!-- Node8 -->
<g id="node8" class="node"><title>Node8</title>
<g id="a_node8"><a xlink:href="erpc__spi__slave__transport_8h.html" target="_top" xlink:title="erpc_spi_slave_transport.h">
<polygon fill="white" stroke="black" points="612,-0.5 612,-19.5 744,-19.5 744,-0.5 612,-0.5"/>
<text text-anchor="middle" x="678" y="-7.5" font-family="Helvetica,sans-Serif" font-size="10.00">erpc_spi_slave_transport.h</text>
</a>
</g>
</g>
<!-- Node3&#45;&gt;Node8 -->
<g id="edge7" class="edge"><title>Node3&#45;&gt;Node8</title>
<path fill="none" stroke="midnightblue" d="M620.032,-55.7938C634.802,-44.3803 654.761,-28.9577 666.988,-19.5091"/>
<polygon fill="midnightblue" stroke="midnightblue" points="617.805,-53.0911 612.032,-61.9751 622.085,-58.6301 617.805,-53.0911"/>
</g>
<!-- Node3&#45;&gt;Node9 -->
<g id="edge8" class="edge"><title>Node3&#45;&gt;Node9</title>
<path fill="none" stroke="midnightblue" d="M653.272,-60.1121C660.887,-58.6808 668.639,-57.2686 676,-56 721.74,-48.1167 847.46,-29.4404 919.825,-18.7914"/>
<polygon fill="midnightblue" stroke="midnightblue" points="652.555,-56.6858 643.385,-61.9941 653.864,-63.5624 652.555,-56.6858"/>
</g>
<!-- Node10 -->
<g id="node10" class="node"><title>Node10</title>
<g id="a_node10"><a xlink:href="erpc__uart__cmsis__transport_8h.html" target="_top" xlink:title="erpc_uart_cmsis_transport.h">
<polygon fill="white" stroke="black" points="762,-0.5 762,-19.5 902,-19.5 902,-0.5 762,-0.5"/>
<text text-anchor="middle" x="832" y="-7.5" font-family="Helvetica,sans-Serif" font-size="10.00">erpc_uart_cmsis_transport.h</text>
</a>
</g>
</g>
<!-- Node3&#45;&gt;Node10 -->
<g id="edge9" class="edge"><title>Node3&#45;&gt;Node10</title>
<path fill="none" stroke="midnightblue" d="M643.828,-59.4685C688.684,-47.9147 758.168,-30.0173 798.965,-19.5091"/>
<polygon fill="midnightblue" stroke="midnightblue" points="642.908,-56.0913 634.097,-61.9751 644.654,-62.8701 642.908,-56.0913"/>
</g>
</g>
</svg>
