<?xml version="1.0" encoding="UTF-8" standalone="no"?>
<!DOCTYPE svg PUBLIC "-//W3C//DTD SVG 1.1//EN"
 "http://www.w3.org/Graphics/SVG/1.1/DTD/svg11.dtd">
<!-- Generated by graphviz version 2.38.0 (20140413.2041)
 -->
<!-- Title: erpc_server_setup.h Pages: 1 -->
<svg width="486pt" height="196pt"
 viewBox="0.00 0.00 486.00 196.00" xmlns="http://www.w3.org/2000/svg" xmlns:xlink="http://www.w3.org/1999/xlink">
<g id="graph0" class="graph" transform="scale(1 1) rotate(0) translate(4 192)">
<title>erpc_server_setup.h</title>
<polygon fill="white" stroke="none" points="-4,4 -4,-192 482,-192 482,4 -4,4"/>
<!-- Node1 -->
<g id="node1" class="node"><title>Node1</title>
<polygon fill="#bfbfbf" stroke="black" points="206,-168.5 206,-187.5 310,-187.5 310,-168.5 206,-168.5"/>
<text text-anchor="middle" x="258" y="-175.5" font-family="Helvetica,sans-Serif" font-size="10.00">erpc_server_setup.h</text>
</g>
<!-- Node2 -->
<g id="node2" class="node"><title>Node2</title>
<g id="a_node2"><a xlink:href="erpc__common_8h_source.html" target="_top" xlink:title="erpc_common.h">
<polygon fill="white" stroke="black" points="0,-56.5 0,-75.5 86,-75.5 86,-56.5 0,-56.5"/>
<text text-anchor="middle" x="43" y="-63.5" font-family="Helvetica,sans-Serif" font-size="10.00">erpc_common.h</text>
</a>
</g>
</g>
<!-- Node1&#45;&gt;Node2 -->
<g id="edge1" class="edge"><title>Node1&#45;&gt;Node2</title>
<path fill="none" stroke="midnightblue" d="M205.826,-169.865C173.449,-163.637 132.055,-152.284 100,-132 80.6483,-119.755 64.1163,-99.0163 53.917,-84.2586"/>
<polygon fill="midnightblue" stroke="midnightblue" points="56.604,-81.9771 48.1632,-75.5737 50.7685,-85.8432 56.604,-81.9771"/>
</g>
<!-- Node3 -->
<g id="node3" class="node"><title>Node3</title>
<polygon fill="white" stroke="#bfbfbf" points="89.5,-0.5 89.5,-19.5 138.5,-19.5 138.5,-0.5 89.5,-0.5"/>
<text text-anchor="middle" x="114" y="-7.5" font-family="Helvetica,sans-Serif" font-size="10.00">stdint.h</text>
</g>
<!-- Node1&#45;&gt;Node3 -->
<g id="edge10" class="edge"><title>Node1&#45;&gt;Node3</title>
<path fill="none" stroke="midnightblue" d="M205.84,-170.75C180.151,-164.93 150.922,-153.693 133,-132 108.932,-102.869 109.123,-55.8768 111.491,-29.8573"/>
<polygon fill="midnightblue" stroke="midnightblue" points="114.981,-30.1365 112.613,-19.8096 108.025,-29.3591 114.981,-30.1365"/>
</g>
<!-- Node4 -->
<g id="node4" class="node"><title>Node4</title>
<g id="a_node4"><a xlink:href="erpc__config__internal_8h_source.html" target="_top" xlink:title="erpc_config_internal.h">
<polygon fill="white" stroke="black" points="142.5,-112.5 142.5,-131.5 253.5,-131.5 253.5,-112.5 142.5,-112.5"/>
<text text-anchor="middle" x="198" y="-119.5" font-family="Helvetica,sans-Serif" font-size="10.00">erpc_config_internal.h</text>
</a>
</g>
</g>
<!-- Node1&#45;&gt;Node4 -->
<g id="edge3" class="edge"><title>Node1&#45;&gt;Node4</title>
<path fill="none" stroke="midnightblue" d="M248.36,-168.324C239.49,-160.341 226.125,-148.313 215.392,-138.653"/>
<polygon fill="midnightblue" stroke="midnightblue" points="217.59,-135.922 207.815,-131.834 212.907,-141.125 217.59,-135.922"/>
</g>
<!-- Node6 -->
<g id="node6" class="node"><title>Node6</title>
<g id="a_node6"><a xlink:href="erpc__mbf__setup_8h.html" target="_top" xlink:title="erpc_mbf_setup.h">
<polygon fill="white" stroke="black" points="272,-112.5 272,-131.5 366,-131.5 366,-112.5 272,-112.5"/>
<text text-anchor="middle" x="319" y="-119.5" font-family="Helvetica,sans-Serif" font-size="10.00">erpc_mbf_setup.h</text>
</a>
</g>
</g>
<!-- Node1&#45;&gt;Node6 -->
<g id="edge5" class="edge"><title>Node1&#45;&gt;Node6</title>
<path fill="none" stroke="midnightblue" d="M267.801,-168.324C276.818,-160.341 290.406,-148.313 301.318,-138.653"/>
<polygon fill="midnightblue" stroke="midnightblue" points="303.853,-141.083 309.021,-131.834 299.213,-135.842 303.853,-141.083"/>
</g>
<!-- Node7 -->
<g id="node7" class="node"><title>Node7</title>
<g id="a_node7"><a xlink:href="erpc__transport__setup_8h.html" target="_top" xlink:title="erpc_transport_setup.h">
<polygon fill="white" stroke="black" points="261,-56.5 261,-75.5 377,-75.5 377,-56.5 261,-56.5"/>
<text text-anchor="middle" x="319" y="-63.5" font-family="Helvetica,sans-Serif" font-size="10.00">erpc_transport_setup.h</text>
</a>
</g>
</g>
<!-- Node1&#45;&gt;Node7 -->
<g id="edge8" class="edge"><title>Node1&#45;&gt;Node7</title>
<path fill="none" stroke="midnightblue" d="M310.063,-170.473C334.026,-164.573 360.338,-153.348 375,-132 388.002,-113.069 365.029,-93.3633 344.698,-80.6832"/>
<polygon fill="midnightblue" stroke="midnightblue" points="346.364,-77.6022 335.971,-75.5407 342.81,-83.633 346.364,-77.6022"/>
</g>
<!-- Node8 -->
<g id="node8" class="node"><title>Node8</title>
<polygon fill="white" stroke="#bfbfbf" points="422,-112.5 422,-131.5 478,-131.5 478,-112.5 422,-112.5"/>
<text text-anchor="middle" x="450" y="-119.5" font-family="Helvetica,sans-Serif" font-size="10.00">stdbool.h</text>
</g>
<!-- Node1&#45;&gt;Node8 -->
<g id="edge9" class="edge"><title>Node1&#45;&gt;Node8</title>
<path fill="none" stroke="midnightblue" d="M288.423,-168.444C321.961,-159.011 375.955,-143.825 412.189,-133.634"/>
<polygon fill="midnightblue" stroke="midnightblue" points="413.227,-136.978 421.906,-130.902 411.332,-130.24 413.227,-136.978"/>
</g>
<!-- Node2&#45;&gt;Node3 -->
<g id="edge2" class="edge"><title>Node2&#45;&gt;Node3</title>
<path fill="none" stroke="midnightblue" d="M54.4074,-56.324C65.1088,-48.1849 81.3407,-35.8395 94.1628,-26.0874"/>
<polygon fill="midnightblue" stroke="midnightblue" points="96.5444,-28.6734 102.385,-19.8339 92.3068,-23.1018 96.5444,-28.6734"/>
</g>
<!-- Node5 -->
<g id="node5" class="node"><title>Node5</title>
<g id="a_node5"><a xlink:href="erpc__config_8h.html" target="_top" xlink:title="erpc_config.h">
<polygon fill="white" stroke="black" points="161,-56.5 161,-75.5 235,-75.5 235,-56.5 161,-56.5"/>
<text text-anchor="middle" x="198" y="-63.5" font-family="Helvetica,sans-Serif" font-size="10.00">erpc_config.h</text>
</a>
</g>
</g>
<!-- Node4&#45;&gt;Node5 -->
<g id="edge4" class="edge"><title>Node4&#45;&gt;Node5</title>
<path fill="none" stroke="midnightblue" d="M198,-112.083C198,-105.006 198,-94.8611 198,-85.9865"/>
<polygon fill="midnightblue" stroke="midnightblue" points="201.5,-85.751 198,-75.7511 194.5,-85.7511 201.5,-85.751"/>
</g>
<!-- Node6&#45;&gt;Node7 -->
<g id="edge6" class="edge"><title>Node6&#45;&gt;Node7</title>
<path fill="none" stroke="midnightblue" d="M319,-112.083C319,-105.006 319,-94.8611 319,-85.9865"/>
<polygon fill="midnightblue" stroke="midnightblue" points="322.5,-85.751 319,-75.7511 315.5,-85.7511 322.5,-85.751"/>
</g>
<!-- Node7&#45;&gt;Node3 -->
<g id="edge7" class="edge"><title>Node7&#45;&gt;Node3</title>
<path fill="none" stroke="midnightblue" d="M286.517,-56.4435C248.793,-46.5064 186.831,-30.1847 148.334,-20.0441"/>
<polygon fill="midnightblue" stroke="midnightblue" points="149.172,-16.6454 138.61,-17.4826 147.389,-23.4145 149.172,-16.6454"/>
</g>
</g>
</svg>
