<?xml version="1.0" encoding="UTF-8" standalone="no"?>
<!DOCTYPE svg PUBLIC "-//W3C//DTD SVG 1.1//EN"
 "http://www.w3.org/Graphics/SVG/1.1/DTD/svg11.dtd">
<!-- Generated by graphviz version 2.38.0 (20140413.2041)
 -->
<!-- Title: erpc_server_setup.h Pages: 1 -->
<svg width="439pt" height="196pt"
 viewBox="0.00 0.00 439.00 196.00" xmlns="http://www.w3.org/2000/svg" xmlns:xlink="http://www.w3.org/1999/xlink">
<g id="graph0" class="graph" transform="scale(1 1) rotate(0) translate(4 192)">
<title>erpc_server_setup.h</title>
<polygon fill="white" stroke="none" points="-4,4 -4,-192 435,-192 435,4 -4,4"/>
<!-- Node1 -->
<g id="node1" class="node"><title>Node1</title>
<polygon fill="#bfbfbf" stroke="black" points="206,-168.5 206,-187.5 310,-187.5 310,-168.5 206,-168.5"/>
<text text-anchor="middle" x="258" y="-175.5" font-family="Helvetica,sans-Serif" font-size="10.00">erpc_server_setup.h</text>
</g>
<!-- Node2 -->
<g id="node2" class="node"><title>Node2</title>
<g id="a_node2"><a xlink:href="erpc__common_8h_source.html" target="_top" xlink:title="erpc_common.h">
<polygon fill="white" stroke="black" points="0,-112.5 0,-131.5 86,-131.5 86,-112.5 0,-112.5"/>
<text text-anchor="middle" x="43" y="-119.5" font-family="Helvetica,sans-Serif" font-size="10.00">erpc_common.h</text>
</a>
</g>
</g>
<!-- Node1&#45;&gt;Node2 -->
<g id="edge1" class="edge"><title>Node1&#45;&gt;Node2</title>
<path fill="none" stroke="midnightblue" d="M223.933,-168.444C186.82,-159.122 127.339,-144.183 86.7853,-133.997"/>
<polygon fill="midnightblue" stroke="midnightblue" points="87.4594,-130.558 76.908,-131.516 85.7542,-137.347 87.4594,-130.558"/>
</g>
<!-- Node3 -->
<g id="node3" class="node"><title>Node3</title>
<polygon fill="white" stroke="#bfbfbf" points="89.5,-0.5 89.5,-19.5 138.5,-19.5 138.5,-0.5 89.5,-0.5"/>
<text text-anchor="middle" x="114" y="-7.5" font-family="Helvetica,sans-Serif" font-size="10.00">stdint.h</text>
</g>
<!-- Node1&#45;&gt;Node3 -->
<g id="edge12" class="edge"><title>Node1&#45;&gt;Node3</title>
<path fill="none" stroke="midnightblue" d="M205.84,-170.75C180.151,-164.93 150.922,-153.693 133,-132 108.932,-102.869 109.123,-55.8768 111.491,-29.8573"/>
<polygon fill="midnightblue" stroke="midnightblue" points="114.981,-30.1365 112.613,-19.8096 108.025,-29.3591 114.981,-30.1365"/>
</g>
<!-- Node4 -->
<g id="node4" class="node"><title>Node4</title>
<g id="a_node4"><a xlink:href="erpc__config__internal_8h_source.html" target="_top" xlink:title="erpc_config_internal.h">
<polygon fill="white" stroke="black" points="142.5,-112.5 142.5,-131.5 253.5,-131.5 253.5,-112.5 142.5,-112.5"/>
<text text-anchor="middle" x="198" y="-119.5" font-family="Helvetica,sans-Serif" font-size="10.00">erpc_config_internal.h</text>
</a>
</g>
</g>
<!-- Node1&#45;&gt;Node4 -->
<g id="edge3" class="edge"><title>Node1&#45;&gt;Node4</title>
<path fill="none" stroke="midnightblue" d="M248.36,-168.324C239.49,-160.341 226.125,-148.313 215.392,-138.653"/>
<polygon fill="midnightblue" stroke="midnightblue" points="217.59,-135.922 207.815,-131.834 212.907,-141.125 217.59,-135.922"/>
</g>
<!-- Node7 -->
<g id="node7" class="node"><title>Node7</title>
<g id="a_node7"><a xlink:href="erpc__mbf__setup_8h.html" target="_top" xlink:title="erpc_mbf_setup.h">
<polygon fill="white" stroke="black" points="272,-112.5 272,-131.5 366,-131.5 366,-112.5 272,-112.5"/>
<text text-anchor="middle" x="319" y="-119.5" font-family="Helvetica,sans-Serif" font-size="10.00">erpc_mbf_setup.h</text>
</a>
</g>
</g>
<!-- Node1&#45;&gt;Node7 -->
<g id="edge6" class="edge"><title>Node1&#45;&gt;Node7</title>
<path fill="none" stroke="midnightblue" d="M267.801,-168.324C276.818,-160.341 290.406,-148.313 301.318,-138.653"/>
<polygon fill="midnightblue" stroke="midnightblue" points="303.853,-141.083 309.021,-131.834 299.213,-135.842 303.853,-141.083"/>
</g>
<!-- Node8 -->
<g id="node8" class="node"><title>Node8</title>
<g id="a_node8"><a xlink:href="erpc__transport__setup_8h.html" target="_top" xlink:title="erpc_transport_setup.h">
<polygon fill="white" stroke="black" points="302,-56.5 302,-75.5 418,-75.5 418,-56.5 302,-56.5"/>
<text text-anchor="middle" x="360" y="-63.5" font-family="Helvetica,sans-Serif" font-size="10.00">erpc_transport_setup.h</text>
</a>
</g>
</g>
<!-- Node1&#45;&gt;Node8 -->
<g id="edge10" class="edge"><title>Node1&#45;&gt;Node8</title>
<path fill="none" stroke="midnightblue" d="M310.063,-170.473C334.026,-164.573 360.338,-153.348 375,-132 384.602,-118.019 378.309,-98.7612 371.164,-84.8402"/>
<polygon fill="midnightblue" stroke="midnightblue" points="374.01,-82.7637 366.027,-75.7983 367.924,-86.2219 374.01,-82.7637"/>
</g>
<!-- Node9 -->
<g id="node9" class="node"><title>Node9</title>
<polygon fill="white" stroke="#bfbfbf" points="375,-0.5 375,-19.5 431,-19.5 431,-0.5 375,-0.5"/>
<text text-anchor="middle" x="403" y="-7.5" font-family="Helvetica,sans-Serif" font-size="10.00">stdbool.h</text>
</g>
<!-- Node1&#45;&gt;Node9 -->
<g id="edge11" class="edge"><title>Node1&#45;&gt;Node9</title>
<path fill="none" stroke="midnightblue" d="M309.086,-168.482C335.927,-161.998 368.112,-150.851 392,-132 421.192,-108.963 436.019,-92.0772 427,-56 424.561,-46.2452 419.563,-36.2896 414.757,-28.231"/>
<polygon fill="midnightblue" stroke="midnightblue" points="417.691,-26.3225 409.367,-19.768 411.787,-30.0828 417.691,-26.3225"/>
</g>
<!-- Node2&#45;&gt;Node3 -->
<g id="edge2" class="edge"><title>Node2&#45;&gt;Node3</title>
<path fill="none" stroke="midnightblue" d="M48.5713,-112.368C60.2364,-94.2957 87.4225,-52.1764 102.829,-28.3074"/>
<polygon fill="midnightblue" stroke="midnightblue" points="105.972,-29.8913 108.455,-19.5914 100.091,-26.0952 105.972,-29.8913"/>
</g>
<!-- Node5 -->
<g id="node5" class="node"><title>Node5</title>
<g id="a_node5"><a xlink:href="erpc__config_8h.html" target="_top" xlink:title="erpc_config.h">
<polygon fill="white" stroke="black" points="142,-56.5 142,-75.5 216,-75.5 216,-56.5 142,-56.5"/>
<text text-anchor="middle" x="179" y="-63.5" font-family="Helvetica,sans-Serif" font-size="10.00">erpc_config.h</text>
</a>
</g>
</g>
<!-- Node4&#45;&gt;Node5 -->
<g id="edge4" class="edge"><title>Node4&#45;&gt;Node5</title>
<path fill="none" stroke="midnightblue" d="M194.863,-112.083C192.317,-104.849 188.644,-94.4087 185.473,-85.3968"/>
<polygon fill="midnightblue" stroke="midnightblue" points="188.7,-84.0225 182.079,-75.7511 182.097,-86.3459 188.7,-84.0225"/>
</g>
<!-- Node6 -->
<g id="node6" class="node"><title>Node6</title>
<polygon fill="white" stroke="#bfbfbf" points="234.5,-56.5 234.5,-75.5 283.5,-75.5 283.5,-56.5 234.5,-56.5"/>
<text text-anchor="middle" x="259" y="-63.5" font-family="Helvetica,sans-Serif" font-size="10.00">cassert</text>
</g>
<!-- Node4&#45;&gt;Node6 -->
<g id="edge5" class="edge"><title>Node4&#45;&gt;Node6</title>
<path fill="none" stroke="midnightblue" d="M207.801,-112.324C216.818,-104.341 230.406,-92.3128 241.318,-82.6529"/>
<polygon fill="midnightblue" stroke="midnightblue" points="243.853,-85.083 249.021,-75.8339 239.213,-79.8416 243.853,-85.083"/>
</g>
<!-- Node7&#45;&gt;Node8 -->
<g id="edge7" class="edge"><title>Node7&#45;&gt;Node8</title>
<path fill="none" stroke="midnightblue" d="M325.77,-112.083C331.562,-104.455 340.058,-93.2645 347.138,-83.9408"/>
<polygon fill="midnightblue" stroke="midnightblue" points="350.096,-85.8321 353.356,-75.7511 344.521,-81.5991 350.096,-85.8321"/>
</g>
<!-- Node8&#45;&gt;Node3 -->
<g id="edge9" class="edge"><title>Node8&#45;&gt;Node3</title>
<path fill="none" stroke="midnightblue" d="M321.021,-56.4435C273.51,-46.0144 193.963,-28.5529 148.554,-18.585"/>
<polygon fill="midnightblue" stroke="midnightblue" points="149.113,-15.1244 138.595,-16.3989 147.612,-21.9616 149.113,-15.1244"/>
</g>
<!-- Node8&#45;&gt;Node9 -->
<g id="edge8" class="edge"><title>Node8&#45;&gt;Node9</title>
<path fill="none" stroke="midnightblue" d="M367.101,-56.083C373.237,-48.3768 382.27,-37.0333 389.739,-27.6531"/>
<polygon fill="midnightblue" stroke="midnightblue" points="392.54,-29.7542 396.032,-19.7511 387.064,-25.3936 392.54,-29.7542"/>
</g>
</g>
</svg>
