<?xml version="1.0" encoding="UTF-8" standalone="no"?>
<!DOCTYPE svg PUBLIC "-//W3C//DTD SVG 1.1//EN"
 "http://www.w3.org/Graphics/SVG/1.1/DTD/svg11.dtd">
<!-- Generated by graphviz version 2.38.0 (20140413.2041)
 -->
<!-- Title: erpc_arbitrated_client_setup.h Pages: 1 -->
<svg width="387pt" height="207pt"
 viewBox="0.00 0.00 387.33 207.00" xmlns="http://www.w3.org/2000/svg" xmlns:xlink="http://www.w3.org/1999/xlink">
<g id="graph0" class="graph" transform="scale(1 1) rotate(0) translate(4 203)">
<title>erpc_arbitrated_client_setup.h</title>
<polygon fill="white" stroke="none" points="-4,4 -4,-203 383.334,-203 383.334,4 -4,4"/>
<!-- Node1 -->
<g id="node1" class="node"><title>Node1</title>
<polygon fill="#bfbfbf" stroke="black" points="143,-168.5 143,-198.5 253,-198.5 253,-168.5 143,-168.5"/>
<text text-anchor="start" x="151" y="-186.5" font-family="Helvetica,sans-Serif" font-size="10.00">erpc_arbitrated_client</text>
<text text-anchor="middle" x="198" y="-175.5" font-family="Helvetica,sans-Serif" font-size="10.00">_setup.h</text>
</g>
<!-- Node2 -->
<g id="node2" class="node"><title>Node2</title>
<g id="a_node2"><a xlink:href="erpc__common_8h_source.html" target="_top" xlink:title="erpc_common.h">
<polygon fill="white" stroke="black" points="0,-56.5 0,-75.5 86,-75.5 86,-56.5 0,-56.5"/>
<text text-anchor="middle" x="43" y="-63.5" font-family="Helvetica,sans-Serif" font-size="10.00">erpc_common.h</text>
</a>
</g>
</g>
<!-- Node1&#45;&gt;Node2 -->
<g id="edge1" class="edge"><title>Node1&#45;&gt;Node2</title>
<path fill="none" stroke="midnightblue" d="M163.016,-168.356C143.421,-159.513 119.153,-146.968 100,-132 82.3439,-118.202 65.8952,-98.3905 55.2506,-84.2724"/>
<polygon fill="midnightblue" stroke="midnightblue" points="57.875,-81.9324 49.1394,-75.9373 52.2298,-86.0715 57.875,-81.9324"/>
</g>
<!-- Node3 -->
<g id="node3" class="node"><title>Node3</title>
<polygon fill="white" stroke="#bfbfbf" points="89.5,-0.5 89.5,-19.5 138.5,-19.5 138.5,-0.5 89.5,-0.5"/>
<text text-anchor="middle" x="114" y="-7.5" font-family="Helvetica,sans-Serif" font-size="10.00">stdint.h</text>
</g>
<!-- Node1&#45;&gt;Node3 -->
<g id="edge9" class="edge"><title>Node1&#45;&gt;Node3</title>
<path fill="none" stroke="midnightblue" d="M171.488,-168.448C157.787,-159.786 142.077,-147.385 133,-132 114.064,-99.9046 112.15,-55.0488 112.826,-29.9435"/>
<polygon fill="midnightblue" stroke="midnightblue" points="116.337,-29.7766 113.285,-19.6308 109.344,-29.4653 116.337,-29.7766"/>
</g>
<!-- Node4 -->
<g id="node4" class="node"><title>Node4</title>
<g id="a_node4"><a xlink:href="erpc__config__internal_8h_source.html" target="_top" xlink:title="erpc_config_internal.h">
<polygon fill="white" stroke="black" points="142.5,-112.5 142.5,-131.5 253.5,-131.5 253.5,-112.5 142.5,-112.5"/>
<text text-anchor="middle" x="198" y="-119.5" font-family="Helvetica,sans-Serif" font-size="10.00">erpc_config_internal.h</text>
</a>
</g>
</g>
<!-- Node1&#45;&gt;Node4 -->
<g id="edge3" class="edge"><title>Node1&#45;&gt;Node4</title>
<path fill="none" stroke="midnightblue" d="M198,-168.399C198,-160.466 198,-150.458 198,-141.858"/>
<polygon fill="midnightblue" stroke="midnightblue" points="201.5,-141.658 198,-131.658 194.5,-141.658 201.5,-141.658"/>
</g>
<!-- Node6 -->
<g id="node6" class="node"><title>Node6</title>
<g id="a_node6"><a xlink:href="erpc__mbf__setup_8h.html" target="_top" xlink:title="erpc_mbf_setup.h">
<polygon fill="white" stroke="black" points="272,-112.5 272,-131.5 366,-131.5 366,-112.5 272,-112.5"/>
<text text-anchor="middle" x="319" y="-119.5" font-family="Helvetica,sans-Serif" font-size="10.00">erpc_mbf_setup.h</text>
</a>
</g>
</g>
<!-- Node1&#45;&gt;Node6 -->
<g id="edge5" class="edge"><title>Node1&#45;&gt;Node6</title>
<path fill="none" stroke="midnightblue" d="M226.675,-168.399C246.524,-158.639 272.761,-145.737 292.192,-136.183"/>
<polygon fill="midnightblue" stroke="midnightblue" points="293.964,-139.211 301.393,-131.658 290.875,-132.93 293.964,-139.211"/>
</g>
<!-- Node7 -->
<g id="node7" class="node"><title>Node7</title>
<g id="a_node7"><a xlink:href="erpc__transport__setup_8h.html" target="_top" xlink:title="erpc_transport_setup.h">
<polygon fill="white" stroke="black" points="261,-56.5 261,-75.5 377,-75.5 377,-56.5 261,-56.5"/>
<text text-anchor="middle" x="319" y="-63.5" font-family="Helvetica,sans-Serif" font-size="10.00">erpc_transport_setup.h</text>
</a>
</g>
</g>
<!-- Node1&#45;&gt;Node7 -->
<g id="edge8" class="edge"><title>Node1&#45;&gt;Node7</title>
<path fill="none" stroke="midnightblue" d="M253.299,-174.111C299.533,-165.834 360.227,-151.577 375,-132 388.912,-113.564 365.427,-93.6155 344.744,-80.7499"/>
<polygon fill="midnightblue" stroke="midnightblue" points="346.27,-77.5866 335.876,-75.5314 342.719,-83.6195 346.27,-77.5866"/>
</g>
<!-- Node2&#45;&gt;Node3 -->
<g id="edge2" class="edge"><title>Node2&#45;&gt;Node3</title>
<path fill="none" stroke="midnightblue" d="M54.4074,-56.324C65.1088,-48.1849 81.3407,-35.8395 94.1628,-26.0874"/>
<polygon fill="midnightblue" stroke="midnightblue" points="96.5444,-28.6734 102.385,-19.8339 92.3068,-23.1018 96.5444,-28.6734"/>
</g>
<!-- Node5 -->
<g id="node5" class="node"><title>Node5</title>
<g id="a_node5"><a xlink:href="erpc__config_8h.html" target="_top" xlink:title="erpc_config.h">
<polygon fill="white" stroke="black" points="161,-56.5 161,-75.5 235,-75.5 235,-56.5 161,-56.5"/>
<text text-anchor="middle" x="198" y="-63.5" font-family="Helvetica,sans-Serif" font-size="10.00">erpc_config.h</text>
</a>
</g>
</g>
<!-- Node4&#45;&gt;Node5 -->
<g id="edge4" class="edge"><title>Node4&#45;&gt;Node5</title>
<path fill="none" stroke="midnightblue" d="M198,-112.083C198,-105.006 198,-94.8611 198,-85.9865"/>
<polygon fill="midnightblue" stroke="midnightblue" points="201.5,-85.751 198,-75.7511 194.5,-85.7511 201.5,-85.751"/>
</g>
<!-- Node6&#45;&gt;Node7 -->
<g id="edge6" class="edge"><title>Node6&#45;&gt;Node7</title>
<path fill="none" stroke="midnightblue" d="M319,-112.083C319,-105.006 319,-94.8611 319,-85.9865"/>
<polygon fill="midnightblue" stroke="midnightblue" points="322.5,-85.751 319,-75.7511 315.5,-85.7511 322.5,-85.751"/>
</g>
<!-- Node7&#45;&gt;Node3 -->
<g id="edge7" class="edge"><title>Node7&#45;&gt;Node3</title>
<path fill="none" stroke="midnightblue" d="M286.517,-56.4435C248.793,-46.5064 186.831,-30.1847 148.334,-20.0441"/>
<polygon fill="midnightblue" stroke="midnightblue" points="149.172,-16.6454 138.61,-17.4826 147.389,-23.4145 149.172,-16.6454"/>
</g>
</g>
</svg>
