<?xml version="1.0" encoding="UTF-8" standalone="no"?>
<!DOCTYPE svg PUBLIC "-//W3C//DTD SVG 1.1//EN"
 "http://www.w3.org/Graphics/SVG/1.1/DTD/svg11.dtd">
<!-- Generated by graphviz version 2.38.0 (20140413.2041)
 -->
<!-- Title: erpc_manually_constructed.h Pages: 1 -->
<svg width="239pt" height="140pt"
 viewBox="0.00 0.00 239.00 140.00" xmlns="http://www.w3.org/2000/svg" xmlns:xlink="http://www.w3.org/1999/xlink">
<g id="graph0" class="graph" transform="scale(1 1) rotate(0) translate(4 136)">
<title>erpc_manually_constructed.h</title>
<polygon fill="white" stroke="none" points="-4,4 -4,-136 235,-136 235,4 -4,4"/>
<!-- Node1 -->
<g id="node1" class="node"><title>Node1</title>
<polygon fill="#bfbfbf" stroke="black" points="74.5,-112.5 74.5,-131.5 218.5,-131.5 218.5,-112.5 74.5,-112.5"/>
<text text-anchor="middle" x="146.5" y="-119.5" font-family="Helvetica,sans-Serif" font-size="10.00">erpc_manually_constructed.h</text>
</g>
<!-- Node2 -->
<g id="node2" class="node"><title>Node2</title>
<g id="a_node2"><a xlink:href="erpc__config__internal_8h_source.html" target="_top" xlink:title="erpc_config_internal.h">
<polygon fill="white" stroke="black" points="0,-56.5 0,-75.5 111,-75.5 111,-56.5 0,-56.5"/>
<text text-anchor="middle" x="55.5" y="-63.5" font-family="Helvetica,sans-Serif" font-size="10.00">erpc_config_internal.h</text>
</a>
</g>
</g>
<!-- Node1&#45;&gt;Node2 -->
<g id="edge1" class="edge"><title>Node1&#45;&gt;Node2</title>
<path fill="none" stroke="midnightblue" d="M131.879,-112.324C117.551,-103.822 95.4875,-90.7288 78.7513,-80.7975"/>
<polygon fill="midnightblue" stroke="midnightblue" points="80.4704,-77.7478 70.0844,-75.6545 76.8982,-83.7677 80.4704,-77.7478"/>
</g>
<!-- Node4 -->
<g id="node4" class="node"><title>Node4</title>
<polygon fill="white" stroke="#bfbfbf" points="129.5,-56.5 129.5,-75.5 163.5,-75.5 163.5,-56.5 129.5,-56.5"/>
<text text-anchor="middle" x="146.5" y="-63.5" font-family="Helvetica,sans-Serif" font-size="10.00">new</text>
</g>
<!-- Node1&#45;&gt;Node4 -->
<g id="edge3" class="edge"><title>Node1&#45;&gt;Node4</title>
<path fill="none" stroke="midnightblue" d="M146.5,-112.083C146.5,-105.006 146.5,-94.8611 146.5,-85.9865"/>
<polygon fill="midnightblue" stroke="midnightblue" points="150,-85.751 146.5,-75.7511 143,-85.7511 150,-85.751"/>
</g>
<!-- Node5 -->
<g id="node5" class="node"><title>Node5</title>
<polygon fill="white" stroke="#bfbfbf" points="182,-56.5 182,-75.5 231,-75.5 231,-56.5 182,-56.5"/>
<text text-anchor="middle" x="206.5" y="-63.5" font-family="Helvetica,sans-Serif" font-size="10.00">stdint.h</text>
</g>
<!-- Node1&#45;&gt;Node5 -->
<g id="edge4" class="edge"><title>Node1&#45;&gt;Node5</title>
<path fill="none" stroke="midnightblue" d="M156.14,-112.324C165.01,-104.341 178.375,-92.3128 189.108,-82.6529"/>
<polygon fill="midnightblue" stroke="midnightblue" points="191.593,-85.1251 196.685,-75.8339 186.91,-79.922 191.593,-85.1251"/>
</g>
<!-- Node3 -->
<g id="node3" class="node"><title>Node3</title>
<g id="a_node3"><a xlink:href="erpc__config_8h.html" target="_top" xlink:title="erpc_config.h">
<polygon fill="white" stroke="black" points="18.5,-0.5 18.5,-19.5 92.5,-19.5 92.5,-0.5 18.5,-0.5"/>
<text text-anchor="middle" x="55.5" y="-7.5" font-family="Helvetica,sans-Serif" font-size="10.00">erpc_config.h</text>
</a>
</g>
</g>
<!-- Node2&#45;&gt;Node3 -->
<g id="edge2" class="edge"><title>Node2&#45;&gt;Node3</title>
<path fill="none" stroke="midnightblue" d="M55.5,-56.083C55.5,-49.0059 55.5,-38.8611 55.5,-29.9865"/>
<polygon fill="midnightblue" stroke="midnightblue" points="59.0001,-29.751 55.5,-19.7511 52.0001,-29.7511 59.0001,-29.751"/>
</g>
</g>
</svg>
