<?xml version="1.0" encoding="UTF-8" standalone="no"?>
<!DOCTYPE svg PUBLIC "-//W3C//DTD SVG 1.1//EN"
 "http://www.w3.org/Graphics/SVG/1.1/DTD/svg11.dtd">
<!-- Generated by graphviz version 2.38.0 (20140413.2041)
 -->
<!-- Title: erpc_arbitrated_client_manager.h Pages: 1 -->
<svg width="444pt" height="386pt"
 viewBox="0.00 0.00 444.15 386.00" xmlns="http://www.w3.org/2000/svg" xmlns:xlink="http://www.w3.org/1999/xlink">
<g id="graph0" class="graph" transform="scale(1 1) rotate(0) translate(4 382)">
<title>erpc_arbitrated_client_manager.h</title>
<polygon fill="white" stroke="none" points="-4,4 -4,-382 440.148,-382 440.148,4 -4,4"/>
<!-- Node1 -->
<g id="node1" class="node"><title>Node1</title>
<polygon fill="#bfbfbf" stroke="black" points="76.5,-347.5 76.5,-377.5 186.5,-377.5 186.5,-347.5 76.5,-347.5"/>
<text text-anchor="start" x="84.5" y="-365.5" font-family="Helvetica,sans-Serif" font-size="10.00">erpc_arbitrated_client</text>
<text text-anchor="middle" x="131.5" y="-354.5" font-family="Helvetica,sans-Serif" font-size="10.00">_manager.h</text>
</g>
<!-- Node2 -->
<g id="node2" class="node"><title>Node2</title>
<g id="a_node2"><a xlink:href="erpc__client__manager_8h.html" target="_top" xlink:title="erpc_client_manager.h">
<polygon fill="white" stroke="black" points="74,-291.5 74,-310.5 189,-310.5 189,-291.5 74,-291.5"/>
<text text-anchor="middle" x="131.5" y="-298.5" font-family="Helvetica,sans-Serif" font-size="10.00">erpc_client_manager.h</text>
</a>
</g>
</g>
<!-- Node1&#45;&gt;Node2 -->
<g id="edge1" class="edge"><title>Node1&#45;&gt;Node2</title>
<path fill="none" stroke="midnightblue" d="M131.5,-347.399C131.5,-339.466 131.5,-329.458 131.5,-320.858"/>
<polygon fill="midnightblue" stroke="midnightblue" points="135,-320.658 131.5,-310.658 128,-320.658 135,-320.658"/>
</g>
<!-- Node3 -->
<g id="node3" class="node"><title>Node3</title>
<g id="a_node3"><a xlink:href="erpc__client__server__common_8h.html" target="_top" xlink:title="erpc_client_server\l_common.h">
<polygon fill="white" stroke="black" points="8,-224.5 8,-254.5 103,-254.5 103,-224.5 8,-224.5"/>
<text text-anchor="start" x="16" y="-242.5" font-family="Helvetica,sans-Serif" font-size="10.00">erpc_client_server</text>
<text text-anchor="middle" x="55.5" y="-231.5" font-family="Helvetica,sans-Serif" font-size="10.00">_common.h</text>
</a>
</g>
</g>
<!-- Node2&#45;&gt;Node3 -->
<g id="edge2" class="edge"><title>Node2&#45;&gt;Node3</title>
<path fill="none" stroke="midnightblue" d="M120.611,-291.475C110.414,-283.492 94.7826,-271.254 81.3915,-260.77"/>
<polygon fill="midnightblue" stroke="midnightblue" points="83.4433,-257.932 73.4117,-254.523 79.1281,-263.443 83.4433,-257.932"/>
</g>
<!-- Node4 -->
<g id="node4" class="node"><title>Node4</title>
<g id="a_node4"><a xlink:href="erpc__config__internal_8h_source.html" target="_top" xlink:title="erpc_config_internal.h">
<polygon fill="white" stroke="black" points="0,-168.5 0,-187.5 111,-187.5 111,-168.5 0,-168.5"/>
<text text-anchor="middle" x="55.5" y="-175.5" font-family="Helvetica,sans-Serif" font-size="10.00">erpc_config_internal.h</text>
</a>
</g>
</g>
<!-- Node2&#45;&gt;Node4 -->
<g id="edge20" class="edge"><title>Node2&#45;&gt;Node4</title>
<path fill="none" stroke="midnightblue" d="M130.972,-291.316C129.704,-276.418 125.462,-245.517 111.5,-224 103.411,-211.534 90.7208,-200.924 79.4648,-193.143"/>
<polygon fill="midnightblue" stroke="midnightblue" points="81.1478,-190.062 70.8605,-187.528 77.3221,-195.924 81.1478,-190.062"/>
</g>
<!-- Node6 -->
<g id="node6" class="node"><title>Node6</title>
<g id="a_node6"><a xlink:href="erpc__codec_8h.html" target="_top" xlink:title="erpc_codec.h">
<polygon fill="white" stroke="black" points="257,-230 257,-249 332,-249 332,-230 257,-230"/>
<text text-anchor="middle" x="294.5" y="-237" font-family="Helvetica,sans-Serif" font-size="10.00">erpc_codec.h</text>
</a>
</g>
</g>
<!-- Node2&#45;&gt;Node6 -->
<g id="edge5" class="edge"><title>Node2&#45;&gt;Node6</title>
<path fill="none" stroke="midnightblue" d="M154.854,-291.475C182.814,-281.269 229.826,-264.108 261.491,-252.549"/>
<polygon fill="midnightblue" stroke="midnightblue" points="262.996,-255.726 271.189,-249.009 260.595,-249.15 262.996,-255.726"/>
</g>
<!-- Node3&#45;&gt;Node4 -->
<g id="edge3" class="edge"><title>Node3&#45;&gt;Node4</title>
<path fill="none" stroke="midnightblue" d="M55.5,-224.399C55.5,-216.466 55.5,-206.458 55.5,-197.858"/>
<polygon fill="midnightblue" stroke="midnightblue" points="59.0001,-197.658 55.5,-187.658 52.0001,-197.658 59.0001,-197.658"/>
</g>
<!-- Node5 -->
<g id="node5" class="node"><title>Node5</title>
<g id="a_node5"><a xlink:href="erpc__config_8h.html" target="_top" xlink:title="erpc_config.h">
<polygon fill="white" stroke="black" points="18.5,-112.5 18.5,-131.5 92.5,-131.5 92.5,-112.5 18.5,-112.5"/>
<text text-anchor="middle" x="55.5" y="-119.5" font-family="Helvetica,sans-Serif" font-size="10.00">erpc_config.h</text>
</a>
</g>
</g>
<!-- Node4&#45;&gt;Node5 -->
<g id="edge4" class="edge"><title>Node4&#45;&gt;Node5</title>
<path fill="none" stroke="midnightblue" d="M55.5,-168.083C55.5,-161.006 55.5,-150.861 55.5,-141.986"/>
<polygon fill="midnightblue" stroke="midnightblue" points="59.0001,-141.751 55.5,-131.751 52.0001,-141.751 59.0001,-141.751"/>
</g>
<!-- Node7 -->
<g id="node7" class="node"><title>Node7</title>
<g id="a_node7"><a xlink:href="erpc__common_8h_source.html" target="_top" xlink:title="erpc_common.h">
<polygon fill="white" stroke="black" points="134.5,-56.5 134.5,-75.5 220.5,-75.5 220.5,-56.5 134.5,-56.5"/>
<text text-anchor="middle" x="177.5" y="-63.5" font-family="Helvetica,sans-Serif" font-size="10.00">erpc_common.h</text>
</a>
</g>
</g>
<!-- Node6&#45;&gt;Node7 -->
<g id="edge6" class="edge"><title>Node6&#45;&gt;Node7</title>
<path fill="none" stroke="midnightblue" d="M279.774,-229.914C254.409,-214.198 203.12,-178.136 181.5,-132 174.753,-117.603 174.212,-99.4096 175.094,-85.9346"/>
<polygon fill="midnightblue" stroke="midnightblue" points="178.584,-86.2034 176.065,-75.9124 171.617,-85.5283 178.584,-86.2034"/>
</g>
<!-- Node8 -->
<g id="node8" class="node"><title>Node8</title>
<polygon fill="white" stroke="#bfbfbf" points="322,-0.5 322,-19.5 371,-19.5 371,-0.5 322,-0.5"/>
<text text-anchor="middle" x="346.5" y="-7.5" font-family="Helvetica,sans-Serif" font-size="10.00">stdint.h</text>
</g>
<!-- Node6&#45;&gt;Node8 -->
<g id="edge19" class="edge"><title>Node6&#45;&gt;Node8</title>
<path fill="none" stroke="midnightblue" d="M324.875,-229.883C348.273,-222.023 380.276,-208.478 402.5,-188 423.581,-168.576 427.142,-159.705 434.5,-132 440.296,-110.175 426.09,-58.2643 424.5,-56 413.862,-40.8477 396.375,-30.0846 380.652,-22.8922"/>
<polygon fill="midnightblue" stroke="midnightblue" points="381.74,-19.5518 371.167,-18.868 379.006,-25.9958 381.74,-19.5518"/>
</g>
<!-- Node9 -->
<g id="node9" class="node"><title>Node9</title>
<g id="a_node9"><a xlink:href="erpc__message__buffer_8h.html" target="_top" xlink:title="erpc_message_buffer.h">
<polygon fill="white" stroke="black" points="206,-112.5 206,-131.5 323,-131.5 323,-112.5 206,-112.5"/>
<text text-anchor="middle" x="264.5" y="-119.5" font-family="Helvetica,sans-Serif" font-size="10.00">erpc_message_buffer.h</text>
</a>
</g>
</g>
<!-- Node6&#45;&gt;Node9 -->
<g id="edge8" class="edge"><title>Node6&#45;&gt;Node9</title>
<path fill="none" stroke="midnightblue" d="M291.144,-229.665C287.435,-219.665 281.463,-202.836 277.5,-188 273.411,-172.693 269.96,-155.051 267.644,-142.013"/>
<polygon fill="midnightblue" stroke="midnightblue" points="271.052,-141.179 265.913,-131.914 264.153,-142.361 271.052,-141.179"/>
</g>
<!-- Node11 -->
<g id="node11" class="node"><title>Node11</title>
<g id="a_node11"><a xlink:href="erpc__transport_8h.html" target="_top" xlink:title="erpc_transport.h">
<polygon fill="white" stroke="black" points="287,-168.5 287,-187.5 374,-187.5 374,-168.5 287,-168.5"/>
<text text-anchor="middle" x="330.5" y="-175.5" font-family="Helvetica,sans-Serif" font-size="10.00">erpc_transport.h</text>
</a>
</g>
</g>
<!-- Node6&#45;&gt;Node11 -->
<g id="edge12" class="edge"><title>Node6&#45;&gt;Node11</title>
<path fill="none" stroke="midnightblue" d="M299.658,-229.975C304.951,-221.227 313.335,-207.369 320.027,-196.309"/>
<polygon fill="midnightblue" stroke="midnightblue" points="323.17,-197.877 325.352,-187.509 317.18,-194.253 323.17,-197.877"/>
</g>
<!-- Node13 -->
<g id="node13" class="node"><title>Node13</title>
<polygon fill="white" stroke="#bfbfbf" points="379.5,-112.5 379.5,-131.5 425.5,-131.5 425.5,-112.5 379.5,-112.5"/>
<text text-anchor="middle" x="402.5" y="-119.5" font-family="Helvetica,sans-Serif" font-size="10.00">cstring</text>
</g>
<!-- Node6&#45;&gt;Node13 -->
<g id="edge18" class="edge"><title>Node6&#45;&gt;Node13</title>
<path fill="none" stroke="midnightblue" d="M319.582,-229.994C339.357,-222.063 366.226,-208.367 382.5,-188 393.201,-174.608 398.197,-155.499 400.517,-141.466"/>
<polygon fill="midnightblue" stroke="midnightblue" points="403.992,-141.884 401.862,-131.505 397.055,-140.947 403.992,-141.884"/>
</g>
<!-- Node7&#45;&gt;Node8 -->
<g id="edge7" class="edge"><title>Node7&#45;&gt;Node8</title>
<path fill="none" stroke="midnightblue" d="M204.279,-56.4435C233.421,-47.1318 280.109,-32.2137 311.984,-22.0289"/>
<polygon fill="midnightblue" stroke="midnightblue" points="313.311,-25.2792 321.771,-18.9015 311.18,-18.6113 313.311,-25.2792"/>
</g>
<!-- Node9&#45;&gt;Node7 -->
<g id="edge9" class="edge"><title>Node9&#45;&gt;Node7</title>
<path fill="none" stroke="midnightblue" d="M250.522,-112.324C236.95,-103.9 216.12,-90.9709 200.175,-81.0741"/>
<polygon fill="midnightblue" stroke="midnightblue" points="201.786,-77.9544 191.443,-75.6545 198.094,-83.9019 201.786,-77.9544"/>
</g>
<!-- Node9&#45;&gt;Node8 -->
<g id="edge11" class="edge"><title>Node9&#45;&gt;Node8</title>
<path fill="none" stroke="midnightblue" d="M270.934,-112.368C284.527,-94.135 316.364,-51.4257 334.069,-27.6752"/>
<polygon fill="midnightblue" stroke="midnightblue" points="336.925,-29.7007 340.095,-19.5914 331.313,-25.5171 336.925,-29.7007"/>
</g>
<!-- Node10 -->
<g id="node10" class="node"><title>Node10</title>
<polygon fill="white" stroke="#bfbfbf" points="238.5,-56.5 238.5,-75.5 286.5,-75.5 286.5,-56.5 238.5,-56.5"/>
<text text-anchor="middle" x="262.5" y="-63.5" font-family="Helvetica,sans-Serif" font-size="10.00">cstddef</text>
</g>
<!-- Node9&#45;&gt;Node10 -->
<g id="edge10" class="edge"><title>Node9&#45;&gt;Node10</title>
<path fill="none" stroke="midnightblue" d="M264.17,-112.083C263.908,-105.006 263.532,-94.8611 263.203,-85.9865"/>
<polygon fill="midnightblue" stroke="midnightblue" points="266.692,-85.6147 262.824,-75.7511 259.697,-85.8738 266.692,-85.6147"/>
</g>
<!-- Node11&#45;&gt;Node7 -->
<g id="edge13" class="edge"><title>Node11&#45;&gt;Node7</title>
<path fill="none" stroke="midnightblue" d="M286.928,-172.804C257.612,-167.747 220.138,-156.593 196.5,-132 184.671,-119.693 180.148,-100.439 178.449,-86.0757"/>
<polygon fill="midnightblue" stroke="midnightblue" points="181.914,-85.5107 177.606,-75.8315 174.938,-86.0849 181.914,-85.5107"/>
</g>
<!-- Node11&#45;&gt;Node9 -->
<g id="edge16" class="edge"><title>Node11&#45;&gt;Node9</title>
<path fill="none" stroke="midnightblue" d="M319.896,-168.324C310.044,-160.263 295.149,-148.077 283.285,-138.369"/>
<polygon fill="midnightblue" stroke="midnightblue" points="285.253,-135.457 275.297,-131.834 280.82,-140.875 285.253,-135.457"/>
</g>
<!-- Node12 -->
<g id="node12" class="node"><title>Node12</title>
<g id="a_node12"><a xlink:href="erpc__crc16_8h.html" target="_top" xlink:title="erpc_crc16.h">
<polygon fill="white" stroke="black" points="343,-56.5 343,-75.5 416,-75.5 416,-56.5 343,-56.5"/>
<text text-anchor="middle" x="379.5" y="-63.5" font-family="Helvetica,sans-Serif" font-size="10.00">erpc_crc16.h</text>
</a>
</g>
</g>
<!-- Node11&#45;&gt;Node12 -->
<g id="edge14" class="edge"><title>Node11&#45;&gt;Node12</title>
<path fill="none" stroke="midnightblue" d="M334.345,-168.368C342.324,-150.456 360.825,-108.923 371.505,-84.9482"/>
<polygon fill="midnightblue" stroke="midnightblue" points="374.801,-86.1503 375.673,-75.5914 368.407,-83.3019 374.801,-86.1503"/>
</g>
<!-- Node11&#45;&gt;Node13 -->
<g id="edge17" class="edge"><title>Node11&#45;&gt;Node13</title>
<path fill="none" stroke="midnightblue" d="M342.068,-168.324C352.92,-160.185 369.381,-147.839 382.383,-138.087"/>
<polygon fill="midnightblue" stroke="midnightblue" points="384.821,-140.634 390.721,-131.834 380.621,-135.034 384.821,-140.634"/>
</g>
<!-- Node12&#45;&gt;Node8 -->
<g id="edge15" class="edge"><title>Node12&#45;&gt;Node8</title>
<path fill="none" stroke="midnightblue" d="M374.051,-56.083C369.486,-48.6127 362.832,-37.7244 357.207,-28.5199"/>
<polygon fill="midnightblue" stroke="midnightblue" points="360.049,-26.4588 351.848,-19.7511 354.076,-30.109 360.049,-26.4588"/>
</g>
</g>
</svg>
