<?xml version="1.0" encoding="UTF-8" standalone="no"?>
<!DOCTYPE svg PUBLIC "-//W3C//DTD SVG 1.1//EN"
 "http://www.w3.org/Graphics/SVG/1.1/DTD/svg11.dtd">
<!-- Generated by graphviz version 2.38.0 (20140413.2041)
 -->
<!-- Title: erpc_transport.h Pages: 1 -->
<svg width="337pt" height="196pt"
 viewBox="0.00 0.00 336.50 196.00" xmlns="http://www.w3.org/2000/svg" xmlns:xlink="http://www.w3.org/1999/xlink">
<g id="graph0" class="graph" transform="scale(1 1) rotate(0) translate(4 192)">
<title>erpc_transport.h</title>
<polygon fill="white" stroke="none" points="-4,4 -4,-192 332.5,-192 332.5,4 -4,4"/>
<!-- Node1 -->
<g id="node1" class="node"><title>Node1</title>
<polygon fill="#bfbfbf" stroke="black" points="118,-168.5 118,-187.5 205,-187.5 205,-168.5 118,-168.5"/>
<text text-anchor="middle" x="161.5" y="-175.5" font-family="Helvetica,sans-Serif" font-size="10.00">erpc_transport.h</text>
</g>
<!-- Node2 -->
<g id="node2" class="node"><title>Node2</title>
<g id="a_node2"><a xlink:href="erpc__common_8h_source.html" target="_top" xlink:title="erpc_common.h">
<polygon fill="white" stroke="black" points="91.5,-56.5 91.5,-75.5 177.5,-75.5 177.5,-56.5 91.5,-56.5"/>
<text text-anchor="middle" x="134.5" y="-63.5" font-family="Helvetica,sans-Serif" font-size="10.00">erpc_common.h</text>
</a>
</g>
</g>
<!-- Node1&#45;&gt;Node2 -->
<g id="edge1" class="edge"><title>Node1&#45;&gt;Node2</title>
<path fill="none" stroke="midnightblue" d="M155.27,-168.196C149.479,-159.47 141.205,-145.49 137.5,-132 133.335,-116.834 132.813,-98.9403 133.203,-85.7704"/>
<polygon fill="midnightblue" stroke="midnightblue" points="136.708,-85.763 133.712,-75.6004 129.716,-85.4128 136.708,-85.763"/>
</g>
<!-- Node4 -->
<g id="node4" class="node"><title>Node4</title>
<g id="a_node4"><a xlink:href="erpc__crc16_8h.html" target="_top" xlink:title="erpc_crc16.h">
<polygon fill="white" stroke="black" points="0,-56.5 0,-75.5 73,-75.5 73,-56.5 0,-56.5"/>
<text text-anchor="middle" x="36.5" y="-63.5" font-family="Helvetica,sans-Serif" font-size="10.00">erpc_crc16.h</text>
</a>
</g>
</g>
<!-- Node1&#45;&gt;Node4 -->
<g id="edge3" class="edge"><title>Node1&#45;&gt;Node4</title>
<path fill="none" stroke="midnightblue" d="M151.691,-168.368C130.607,-149.814 80.7192,-105.913 54.0427,-82.4376"/>
<polygon fill="midnightblue" stroke="midnightblue" points="56.0823,-79.5702 46.263,-75.5914 51.4579,-84.8252 56.0823,-79.5702"/>
</g>
<!-- Node5 -->
<g id="node5" class="node"><title>Node5</title>
<g id="a_node5"><a xlink:href="erpc__message__buffer_8h.html" target="_top" xlink:title="erpc_message_buffer.h">
<polygon fill="white" stroke="black" points="147,-112.5 147,-131.5 264,-131.5 264,-112.5 147,-112.5"/>
<text text-anchor="middle" x="205.5" y="-119.5" font-family="Helvetica,sans-Serif" font-size="10.00">erpc_message_buffer.h</text>
</a>
</g>
</g>
<!-- Node1&#45;&gt;Node5 -->
<g id="edge5" class="edge"><title>Node1&#45;&gt;Node5</title>
<path fill="none" stroke="midnightblue" d="M168.766,-168.083C175.045,-160.377 184.288,-149.033 191.931,-139.653"/>
<polygon fill="midnightblue" stroke="midnightblue" points="194.766,-141.714 198.369,-131.751 189.339,-137.293 194.766,-141.714"/>
</g>
<!-- Node7 -->
<g id="node7" class="node"><title>Node7</title>
<polygon fill="white" stroke="#bfbfbf" points="282.5,-112.5 282.5,-131.5 328.5,-131.5 328.5,-112.5 282.5,-112.5"/>
<text text-anchor="middle" x="305.5" y="-119.5" font-family="Helvetica,sans-Serif" font-size="10.00">cstring</text>
</g>
<!-- Node1&#45;&gt;Node7 -->
<g id="edge9" class="edge"><title>Node1&#45;&gt;Node7</title>
<path fill="none" stroke="midnightblue" d="M184.317,-168.444C208.332,-159.438 246.329,-145.189 273.369,-135.049"/>
<polygon fill="midnightblue" stroke="midnightblue" points="274.655,-138.305 282.79,-131.516 272.197,-131.751 274.655,-138.305"/>
</g>
<!-- Node3 -->
<g id="node3" class="node"><title>Node3</title>
<polygon fill="white" stroke="#bfbfbf" points="110,-0.5 110,-19.5 159,-19.5 159,-0.5 110,-0.5"/>
<text text-anchor="middle" x="134.5" y="-7.5" font-family="Helvetica,sans-Serif" font-size="10.00">stdint.h</text>
</g>
<!-- Node2&#45;&gt;Node3 -->
<g id="edge2" class="edge"><title>Node2&#45;&gt;Node3</title>
<path fill="none" stroke="midnightblue" d="M134.5,-56.083C134.5,-49.0059 134.5,-38.8611 134.5,-29.9865"/>
<polygon fill="midnightblue" stroke="midnightblue" points="138,-29.751 134.5,-19.7511 131,-29.7511 138,-29.751"/>
</g>
<!-- Node4&#45;&gt;Node3 -->
<g id="edge4" class="edge"><title>Node4&#45;&gt;Node3</title>
<path fill="none" stroke="midnightblue" d="M52.2454,-56.324C67.8187,-47.7428 91.8773,-34.486 109.959,-24.5224"/>
<polygon fill="midnightblue" stroke="midnightblue" points="111.724,-27.546 118.794,-19.6545 108.346,-21.4152 111.724,-27.546"/>
</g>
<!-- Node5&#45;&gt;Node2 -->
<g id="edge6" class="edge"><title>Node5&#45;&gt;Node2</title>
<path fill="none" stroke="midnightblue" d="M194.093,-112.324C183.391,-104.185 167.159,-91.8395 154.337,-82.0874"/>
<polygon fill="midnightblue" stroke="midnightblue" points="156.193,-79.1018 146.115,-75.8339 151.956,-84.6734 156.193,-79.1018"/>
</g>
<!-- Node5&#45;&gt;Node3 -->
<g id="edge8" class="edge"><title>Node5&#45;&gt;Node3</title>
<path fill="none" stroke="midnightblue" d="M204.554,-112.359C202.788,-99.2617 198.063,-74.0042 186.5,-56 178.839,-44.071 167.096,-33.5262 156.707,-25.6482"/>
<polygon fill="midnightblue" stroke="midnightblue" points="158.58,-22.6839 148.418,-19.6861 154.492,-28.3666 158.58,-22.6839"/>
</g>
<!-- Node6 -->
<g id="node6" class="node"><title>Node6</title>
<polygon fill="white" stroke="#bfbfbf" points="233.5,-56.5 233.5,-75.5 281.5,-75.5 281.5,-56.5 233.5,-56.5"/>
<text text-anchor="middle" x="257.5" y="-63.5" font-family="Helvetica,sans-Serif" font-size="10.00">cstddef</text>
</g>
<!-- Node5&#45;&gt;Node6 -->
<g id="edge7" class="edge"><title>Node5&#45;&gt;Node6</title>
<path fill="none" stroke="midnightblue" d="M214.087,-112.083C221.659,-104.22 232.878,-92.5688 242.014,-83.0813"/>
<polygon fill="midnightblue" stroke="midnightblue" points="244.658,-85.3821 249.073,-75.7511 239.615,-80.5266 244.658,-85.3821"/>
</g>
</g>
</svg>
