<?xml version="1.0" encoding="UTF-8" standalone="no"?>
<!DOCTYPE svg PUBLIC "-//W3C//DTD SVG 1.1//EN"
 "http://www.w3.org/Graphics/SVG/1.1/DTD/svg11.dtd">
<!-- Generated by graphviz version 2.38.0 (20140413.2041)
 -->
<!-- Title: erpc_message_buffer.h Pages: 1 -->
<svg width="2320pt" height="285pt"
 viewBox="0.00 0.00 2319.92 285.00" xmlns="http://www.w3.org/2000/svg" xmlns:xlink="http://www.w3.org/1999/xlink">
<g id="graph0" class="graph" transform="scale(1 1) rotate(0) translate(4 281)">
<title>erpc_message_buffer.h</title>
<polygon fill="white" stroke="none" points="-4,4 -4,-281 2315.92,-281 2315.92,4 -4,4"/>
<!-- Node1 -->
<g id="node1" class="node"><title>Node1</title>
<polygon fill="#bfbfbf" stroke="black" points="2045.5,-257.5 2045.5,-276.5 2162.5,-276.5 2162.5,-257.5 2045.5,-257.5"/>
<text text-anchor="middle" x="2104" y="-264.5" font-family="Helvetica,sans-Serif" font-size="10.00">erpc_message_buffer.h</text>
</g>
<!-- Node2 -->
<g id="node2" class="node"><title>Node2</title>
<g id="a_node2"><a xlink:href="erpc__codec_8h.html" target="_top" xlink:title="erpc_codec.h">
<polygon fill="white" stroke="black" points="306.5,-140 306.5,-159 381.5,-159 381.5,-140 306.5,-140"/>
<text text-anchor="middle" x="344" y="-147" font-family="Helvetica,sans-Serif" font-size="10.00">erpc_codec.h</text>
</a>
</g>
</g>
<!-- Node1&#45;&gt;Node2 -->
<g id="edge1" class="edge"><title>Node1&#45;&gt;Node2</title>
<path fill="none" stroke="midnightblue" d="M2035.39,-261.498C1742.73,-242.292 603.633,-167.538 381.626,-152.969"/>
<polygon fill="midnightblue" stroke="midnightblue" points="2035.23,-264.995 2045.44,-262.157 2035.69,-258.01 2035.23,-264.995"/>
</g>
<!-- Node11 -->
<g id="node11" class="node"><title>Node11</title>
<g id="a_node11"><a xlink:href="erpc__transport_8h.html" target="_top" xlink:title="erpc_transport.h">
<polygon fill="white" stroke="black" points="1702.5,-201.5 1702.5,-220.5 1789.5,-220.5 1789.5,-201.5 1702.5,-201.5"/>
<text text-anchor="middle" x="1746" y="-208.5" font-family="Helvetica,sans-Serif" font-size="10.00">erpc_transport.h</text>
</a>
</g>
</g>
<!-- Node1&#45;&gt;Node11 -->
<g id="edge11" class="edge"><title>Node1&#45;&gt;Node11</title>
<path fill="none" stroke="midnightblue" d="M2037.34,-255.945C1964.9,-245.019 1851.28,-227.879 1789.51,-218.563"/>
<polygon fill="midnightblue" stroke="midnightblue" points="2036.86,-259.413 2047.27,-257.444 2037.91,-252.491 2036.86,-259.413"/>
</g>
<!-- Node12 -->
<g id="node12" class="node"><title>Node12</title>
<g id="a_node12"><a xlink:href="erpc__framed__transport_8h.html" target="_top" xlink:title="erpc_framed_transport.h">
<polygon fill="white" stroke="black" points="1162,-140 1162,-159 1284,-159 1284,-140 1162,-140"/>
<text text-anchor="middle" x="1223" y="-147" font-family="Helvetica,sans-Serif" font-size="10.00">erpc_framed_transport.h</text>
</a>
</g>
</g>
<!-- Node1&#45;&gt;Node12 -->
<g id="edge32" class="edge"><title>Node1&#45;&gt;Node12</title>
<path fill="none" stroke="midnightblue" d="M2035.05,-259.266C1953.49,-251.109 1813.69,-236.52 1694,-221 1541.69,-201.251 1362.44,-173.045 1275.53,-159.051"/>
<polygon fill="midnightblue" stroke="midnightblue" points="2034.89,-262.768 2045.18,-260.277 2035.58,-255.802 2034.89,-262.768"/>
</g>
<!-- Node23 -->
<g id="node23" class="node"><title>Node23</title>
<g id="a_node23"><a xlink:href="erpc__inter__thread__buffer__transport_8h.html" target="_top" xlink:title="erpc_inter_thread_buffer\l_transport.h">
<polygon fill="white" stroke="black" points="1990,-134.5 1990,-164.5 2110,-164.5 2110,-134.5 1990,-134.5"/>
<text text-anchor="start" x="1998" y="-152.5" font-family="Helvetica,sans-Serif" font-size="10.00">erpc_inter_thread_buffer</text>
<text text-anchor="middle" x="2050" y="-141.5" font-family="Helvetica,sans-Serif" font-size="10.00">_transport.h</text>
</a>
</g>
</g>
<!-- Node1&#45;&gt;Node23 -->
<g id="edge33" class="edge"><title>Node1&#45;&gt;Node23</title>
<path fill="none" stroke="midnightblue" d="M2095.59,-248.011C2084.82,-224.967 2066.37,-185.506 2056.57,-164.545"/>
<polygon fill="midnightblue" stroke="midnightblue" points="2092.54,-249.742 2099.94,-257.319 2098.88,-246.778 2092.54,-249.742"/>
</g>
<!-- Node24 -->
<g id="node24" class="node"><title>Node24</title>
<g id="a_node24"><a xlink:href="erpc__mu__transport_8h.html" target="_top" xlink:title="erpc_mu_transport.h">
<polygon fill="white" stroke="black" points="2128,-140 2128,-159 2234,-159 2234,-140 2128,-140"/>
<text text-anchor="middle" x="2181" y="-147" font-family="Helvetica,sans-Serif" font-size="10.00">erpc_mu_transport.h</text>
</a>
</g>
</g>
<!-- Node1&#45;&gt;Node24 -->
<g id="edge34" class="edge"><title>Node1&#45;&gt;Node24</title>
<path fill="none" stroke="midnightblue" d="M2115.44,-248.844C2132.1,-223.857 2162.43,-178.355 2175.15,-159.282"/>
<polygon fill="midnightblue" stroke="midnightblue" points="2112.42,-247.057 2109.79,-257.319 2118.25,-250.94 2112.42,-247.057"/>
</g>
<!-- Node27 -->
<g id="node27" class="node"><title>Node27</title>
<g id="a_node27"><a xlink:href="erpc__rpmsg__lite__rtos__transport_8h.html" target="_top" xlink:title="erpc_rpmsg_lite_rtos\l_transport.h">
<polygon fill="white" stroke="black" points="1877.5,-67.5 1877.5,-97.5 1984.5,-97.5 1984.5,-67.5 1877.5,-67.5"/>
<text text-anchor="start" x="1885.5" y="-85.5" font-family="Helvetica,sans-Serif" font-size="10.00">erpc_rpmsg_lite_rtos</text>
<text text-anchor="middle" x="1931" y="-74.5" font-family="Helvetica,sans-Serif" font-size="10.00">_transport.h</text>
</a>
</g>
</g>
<!-- Node1&#45;&gt;Node27 -->
<g id="edge35" class="edge"><title>Node1&#45;&gt;Node27</title>
<path fill="none" stroke="midnightblue" d="M2135.82,-253.489C2188.47,-231.031 2284.05,-181.755 2243,-134 2208.28,-93.6023 2058.5,-107.058 2006,-98 1999.07,-96.8049 1991.8,-95.4831 1984.62,-94.1384"/>
<polygon fill="midnightblue" stroke="midnightblue" points="2134.41,-250.284 2126.53,-257.364 2137.11,-256.744 2134.41,-250.284"/>
</g>
<!-- Node28 -->
<g id="node28" class="node"><title>Node28</title>
<g id="a_node28"><a xlink:href="erpc__rpmsg__lite__transport_8h.html" target="_top" xlink:title="erpc_rpmsg_lite_transport.h">
<polygon fill="white" stroke="black" points="2014.5,-73 2014.5,-92 2151.5,-92 2151.5,-73 2014.5,-73"/>
<text text-anchor="middle" x="2083" y="-80" font-family="Helvetica,sans-Serif" font-size="10.00">erpc_rpmsg_lite_transport.h</text>
</a>
</g>
</g>
<!-- Node1&#45;&gt;Node28 -->
<g id="edge36" class="edge"><title>Node1&#45;&gt;Node28</title>
<path fill="none" stroke="midnightblue" d="M2172.55,-256.721C2214.72,-249.45 2263.08,-237.738 2276,-221 2299.63,-190.393 2299.63,-164.607 2276,-134 2266.79,-122.074 2180.94,-103.03 2126.89,-92.0539"/>
<polygon fill="midnightblue" stroke="midnightblue" points="2171.85,-253.29 2162.56,-258.384 2172.99,-260.196 2171.85,-253.29"/>
</g>
<!-- Node29 -->
<g id="node29" class="node"><title>Node29</title>
<g id="a_node29"><a xlink:href="erpc__rpmsg__tty__rtos__transport_8h.html" target="_top" xlink:title="erpc_rpmsg_tty_rtos\l_transport.h">
<polygon fill="white" stroke="black" points="2176,-67.5 2176,-97.5 2282,-97.5 2282,-67.5 2176,-67.5"/>
<text text-anchor="start" x="2184" y="-85.5" font-family="Helvetica,sans-Serif" font-size="10.00">erpc_rpmsg_tty_rtos</text>
<text text-anchor="middle" x="2229" y="-74.5" font-family="Helvetica,sans-Serif" font-size="10.00">_transport.h</text>
</a>
</g>
</g>
<!-- Node1&#45;&gt;Node29 -->
<g id="edge37" class="edge"><title>Node1&#45;&gt;Node29</title>
<path fill="none" stroke="midnightblue" d="M2172.98,-258.55C2221.13,-251.787 2279.46,-239.926 2295,-221 2319.55,-191.111 2314.38,-168.553 2297,-134 2289.01,-118.104 2273.38,-105.953 2259.12,-97.5578"/>
<polygon fill="midnightblue" stroke="midnightblue" points="2172.31,-255.107 2162.87,-259.916 2173.25,-262.044 2172.31,-255.107"/>
</g>
<!-- Node3 -->
<g id="node3" class="node"><title>Node3</title>
<g id="a_node3"><a xlink:href="erpc__client__manager_8h.html" target="_top" xlink:title="erpc_client_manager.h">
<polygon fill="white" stroke="black" points="243.5,-73 243.5,-92 358.5,-92 358.5,-73 243.5,-73"/>
<text text-anchor="middle" x="301" y="-80" font-family="Helvetica,sans-Serif" font-size="10.00">erpc_client_manager.h</text>
</a>
</g>
</g>
<!-- Node2&#45;&gt;Node3 -->
<g id="edge2" class="edge"><title>Node2&#45;&gt;Node3</title>
<path fill="none" stroke="midnightblue" d="M332.446,-131.035C324.121,-118.45 313.243,-102.007 306.707,-92.1273"/>
<polygon fill="midnightblue" stroke="midnightblue" points="329.764,-133.325 338.201,-139.734 335.603,-129.463 329.764,-133.325"/>
</g>
<!-- Node5 -->
<g id="node5" class="node"><title>Node5</title>
<g id="a_node5"><a xlink:href="erpc__transport__arbitrator_8h.html" target="_top" xlink:title="erpc_transport_arbitrator.h">
<polygon fill="white" stroke="black" points="502.5,-6 502.5,-25 633.5,-25 633.5,-6 502.5,-6"/>
<text text-anchor="middle" x="568" y="-13" font-family="Helvetica,sans-Serif" font-size="10.00">erpc_transport_arbitrator.h</text>
</a>
</g>
</g>
<!-- Node2&#45;&gt;Node5 -->
<g id="edge7" class="edge"><title>Node2&#45;&gt;Node5</title>
<path fill="none" stroke="midnightblue" d="M352.932,-131.122C363.293,-112.632 382.059,-83.7796 406,-67 426.385,-52.7124 490.456,-35.2806 531.65,-25.0827"/>
<polygon fill="midnightblue" stroke="midnightblue" points="349.834,-129.493 348.179,-139.958 355.998,-132.809 349.834,-129.493"/>
</g>
<!-- Node8 -->
<g id="node8" class="node"><title>Node8</title>
<g id="a_node8"><a xlink:href="erpc__basic__codec_8h.html" target="_top" xlink:title="erpc_basic_codec.h">
<polygon fill="white" stroke="black" points="29,-73 29,-92 133,-92 133,-73 29,-73"/>
<text text-anchor="middle" x="81" y="-80" font-family="Helvetica,sans-Serif" font-size="10.00">erpc_basic_codec.h</text>
</a>
</g>
</g>
<!-- Node2&#45;&gt;Node8 -->
<g id="edge8" class="edge"><title>Node2&#45;&gt;Node8</title>
<path fill="none" stroke="midnightblue" d="M299.428,-137.484C247.551,-124.663 162.977,-103.76 115.73,-92.0834"/>
<polygon fill="midnightblue" stroke="midnightblue" points="298.799,-140.934 309.347,-139.936 300.479,-134.138 298.799,-140.934"/>
</g>
<!-- Node9 -->
<g id="node9" class="node"><title>Node9</title>
<g id="a_node9"><a xlink:href="erpc__server_8h.html" target="_top" xlink:title="erpc_server.h">
<polygon fill="white" stroke="black" points="151,-73 151,-92 225,-92 225,-73 151,-73"/>
<text text-anchor="middle" x="188" y="-80" font-family="Helvetica,sans-Serif" font-size="10.00">erpc_server.h</text>
</a>
</g>
</g>
<!-- Node2&#45;&gt;Node9 -->
<g id="edge9" class="edge"><title>Node2&#45;&gt;Node9</title>
<path fill="none" stroke="midnightblue" d="M313.876,-135.948C282.989,-123.079 235.768,-103.403 208.801,-92.1672"/>
<polygon fill="midnightblue" stroke="midnightblue" points="312.707,-139.253 323.284,-139.869 315.4,-132.792 312.707,-139.253"/>
</g>
<!-- Node4 -->
<g id="node4" class="node"><title>Node4</title>
<g id="a_node4"><a xlink:href="erpc__arbitrated__client__manager_8h.html" target="_top" xlink:title="erpc_arbitrated_client\l_manager.h">
<polygon fill="white" stroke="black" points="246,-0.5 246,-30.5 356,-30.5 356,-0.5 246,-0.5"/>
<text text-anchor="start" x="254" y="-18.5" font-family="Helvetica,sans-Serif" font-size="10.00">erpc_arbitrated_client</text>
<text text-anchor="middle" x="301" y="-7.5" font-family="Helvetica,sans-Serif" font-size="10.00">_manager.h</text>
</a>
</g>
</g>
<!-- Node3&#45;&gt;Node4 -->
<g id="edge3" class="edge"><title>Node3&#45;&gt;Node4</title>
<path fill="none" stroke="midnightblue" d="M301,-62.4107C301,-52.222 301,-39.901 301,-30.589"/>
<polygon fill="midnightblue" stroke="midnightblue" points="297.5,-62.7338 301,-72.7338 304.5,-62.7338 297.5,-62.7338"/>
</g>
<!-- Node3&#45;&gt;Node5 -->
<g id="edge4" class="edge"><title>Node3&#45;&gt;Node5</title>
<path fill="none" stroke="midnightblue" d="M345.921,-70.5642C398.558,-57.7499 484.676,-36.7848 532.742,-25.0834"/>
<polygon fill="midnightblue" stroke="midnightblue" points="345.068,-67.1694 336.18,-72.9355 346.724,-73.9708 345.068,-67.1694"/>
</g>
<!-- Node6 -->
<g id="node6" class="node"><title>Node6</title>
<g id="a_node6"><a xlink:href="erpc__arbitrated__client__setup_8h.html" target="_top" xlink:title="erpc_arbitrated_client\l_setup.h">
<polygon fill="white" stroke="black" points="374,-0.5 374,-30.5 484,-30.5 484,-0.5 374,-0.5"/>
<text text-anchor="start" x="382" y="-18.5" font-family="Helvetica,sans-Serif" font-size="10.00">erpc_arbitrated_client</text>
<text text-anchor="middle" x="429" y="-7.5" font-family="Helvetica,sans-Serif" font-size="10.00">_setup.h</text>
</a>
</g>
</g>
<!-- Node3&#45;&gt;Node6 -->
<g id="edge5" class="edge"><title>Node3&#45;&gt;Node6</title>
<path fill="none" stroke="midnightblue" d="M327.202,-68.1944C348.733,-57.2607 379.158,-41.8102 401.132,-30.6516"/>
<polygon fill="midnightblue" stroke="midnightblue" points="325.329,-65.22 317.997,-72.8685 328.498,-71.4614 325.329,-65.22"/>
</g>
<!-- Node7 -->
<g id="node7" class="node"><title>Node7</title>
<g id="a_node7"><a xlink:href="erpc__client__setup_8h.html" target="_top" xlink:title="erpc_client_setup.h">
<polygon fill="white" stroke="black" points="126.5,-6 126.5,-25 227.5,-25 227.5,-6 126.5,-6"/>
<text text-anchor="middle" x="177" y="-13" font-family="Helvetica,sans-Serif" font-size="10.00">erpc_client_setup.h</text>
</a>
</g>
</g>
<!-- Node3&#45;&gt;Node7 -->
<g id="edge6" class="edge"><title>Node3&#45;&gt;Node7</title>
<path fill="none" stroke="midnightblue" d="M275.443,-68.1034C250.887,-55.2309 214.505,-36.16 193.534,-25.1672"/>
<polygon fill="midnightblue" stroke="midnightblue" points="274.052,-71.3256 284.534,-72.8685 277.302,-65.1258 274.052,-71.3256"/>
</g>
<!-- Node10 -->
<g id="node10" class="node"><title>Node10</title>
<g id="a_node10"><a xlink:href="erpc__simple__server_8h.html" target="_top" xlink:title="erpc_simple_server.h">
<polygon fill="white" stroke="black" points="0,-6 0,-25 108,-25 108,-6 0,-6"/>
<text text-anchor="middle" x="54" y="-13" font-family="Helvetica,sans-Serif" font-size="10.00">erpc_simple_server.h</text>
</a>
</g>
</g>
<!-- Node9&#45;&gt;Node10 -->
<g id="edge10" class="edge"><title>Node9&#45;&gt;Node10</title>
<path fill="none" stroke="midnightblue" d="M161.084,-68.4436C134.542,-55.5691 94.7303,-36.2573 71.8678,-25.1672"/>
<polygon fill="midnightblue" stroke="midnightblue" points="159.681,-71.6531 170.206,-72.8685 162.736,-65.355 159.681,-71.6531"/>
</g>
<!-- Node11&#45;&gt;Node2 -->
<g id="edge12" class="edge"><title>Node11&#45;&gt;Node2</title>
<path fill="none" stroke="midnightblue" d="M1692.03,-207.71C1463.16,-197.997 575.593,-160.329 381.596,-152.096"/>
<polygon fill="midnightblue" stroke="midnightblue" points="1691.98,-211.21 1702.12,-208.138 1692.27,-204.217 1691.98,-211.21"/>
</g>
<!-- Node11&#45;&gt;Node5 -->
<g id="edge13" class="edge"><title>Node11&#45;&gt;Node5</title>
<path fill="none" stroke="midnightblue" d="M1692.18,-205.494C1638.75,-199.773 1562.26,-187.78 1544,-165 1535.38,-154.25 1535.29,-144.674 1544,-134 1594.48,-72.1446 1669.52,-159.855 1720,-98 1728.71,-87.326 1729.53,-76.9534 1720,-67 1682.26,-27.5674 872.491,-18.6694 633.708,-16.8997"/>
<polygon fill="midnightblue" stroke="midnightblue" points="1691.89,-208.983 1702.2,-206.523 1692.61,-202.019 1691.89,-208.983"/>
</g>
<!-- Node11&#45;&gt;Node12 -->
<g id="edge14" class="edge"><title>Node11&#45;&gt;Node12</title>
<path fill="none" stroke="midnightblue" d="M1692.34,-203.895C1594.5,-192.764 1387.68,-169.235 1284.39,-157.484"/>
<polygon fill="midnightblue" stroke="midnightblue" points="1691.98,-207.377 1702.31,-205.029 1692.77,-200.421 1691.98,-207.377"/>
</g>
<!-- Node22 -->
<g id="node22" class="node"><title>Node22</title>
<g id="a_node22"><a xlink:href="erpc__message__loggers_8h.html" target="_top" xlink:title="erpc_message_loggers.h">
<polygon fill="white" stroke="black" points="1683.5,-140 1683.5,-159 1808.5,-159 1808.5,-140 1683.5,-140"/>
<text text-anchor="middle" x="1746" y="-147" font-family="Helvetica,sans-Serif" font-size="10.00">erpc_message_loggers.h</text>
</a>
</g>
</g>
<!-- Node11&#45;&gt;Node22 -->
<g id="edge24" class="edge"><title>Node11&#45;&gt;Node22</title>
<path fill="none" stroke="midnightblue" d="M1746,-191.317C1746,-180.496 1746,-167.398 1746,-159.009"/>
<polygon fill="midnightblue" stroke="midnightblue" points="1742.5,-191.475 1746,-201.475 1749.5,-191.475 1742.5,-191.475"/>
</g>
<!-- Node11&#45;&gt;Node23 -->
<g id="edge25" class="edge"><title>Node11&#45;&gt;Node23</title>
<path fill="none" stroke="midnightblue" d="M1799.89,-199.966C1847.55,-191.022 1918.96,-177.457 1981,-165 1983.88,-164.422 1986.83,-163.824 1989.8,-163.217"/>
<polygon fill="midnightblue" stroke="midnightblue" points="1798.97,-196.575 1789.79,-201.857 1800.26,-203.456 1798.97,-196.575"/>
</g>
<!-- Node11&#45;&gt;Node24 -->
<g id="edge26" class="edge"><title>Node11&#45;&gt;Node24</title>
<path fill="none" stroke="midnightblue" d="M1799.87,-205.371C1872.63,-198.694 2006.2,-184.932 2119,-165 2128.36,-163.346 2138.43,-161.167 2147.67,-159.002"/>
<polygon fill="midnightblue" stroke="midnightblue" points="1799.23,-201.915 1789.59,-206.305 1799.86,-208.887 1799.23,-201.915"/>
</g>
<!-- Node25 -->
<g id="node25" class="node"><title>Node25</title>
<g id="a_node25"><a xlink:href="erpc__rpmsg__linux__transport_8h_source.html" target="_top" xlink:title="erpc_rpmsg_linux_transport.h">
<polygon fill="white" stroke="black" points="1826.5,-140 1826.5,-159 1971.5,-159 1971.5,-140 1826.5,-140"/>
<text text-anchor="middle" x="1899" y="-147" font-family="Helvetica,sans-Serif" font-size="10.00">erpc_rpmsg_linux_transport.h</text>
</a>
</g>
</g>
<!-- Node11&#45;&gt;Node25 -->
<g id="edge27" class="edge"><title>Node11&#45;&gt;Node25</title>
<path fill="none" stroke="midnightblue" d="M1777.42,-197.782C1807.15,-186.22 1851.01,-169.164 1877.12,-159.009"/>
<polygon fill="midnightblue" stroke="midnightblue" points="1775.97,-194.589 1767.92,-201.475 1778.51,-201.113 1775.97,-194.589"/>
</g>
<!-- Node26 -->
<g id="node26" class="node"><title>Node26</title>
<g id="a_node26"><a xlink:href="erpc__rpmsg__lite__base__transport_8h.html" target="_top" xlink:title="erpc_rpmsg_lite_base\l_transport.h">
<polygon fill="white" stroke="black" points="1553,-134.5 1553,-164.5 1665,-164.5 1665,-134.5 1553,-134.5"/>
<text text-anchor="start" x="1561" y="-152.5" font-family="Helvetica,sans-Serif" font-size="10.00">erpc_rpmsg_lite_base</text>
<text text-anchor="middle" x="1609" y="-141.5" font-family="Helvetica,sans-Serif" font-size="10.00">_transport.h</text>
</a>
</g>
</g>
<!-- Node11&#45;&gt;Node26 -->
<g id="edge28" class="edge"><title>Node11&#45;&gt;Node26</title>
<path fill="none" stroke="midnightblue" d="M1717.13,-197.461C1694.94,-187.823 1664.29,-174.513 1641.29,-164.523"/>
<polygon fill="midnightblue" stroke="midnightblue" points="1715.8,-200.702 1726.37,-201.475 1718.59,-194.281 1715.8,-200.702"/>
</g>
<!-- Node13 -->
<g id="node13" class="node"><title>Node13</title>
<g id="a_node13"><a xlink:href="erpc__dspi__master__transport_8h.html" target="_top" xlink:title="erpc_dspi_master_transport.h">
<polygon fill="white" stroke="black" points="845,-73 845,-92 991,-92 991,-73 845,-73"/>
<text text-anchor="middle" x="918" y="-80" font-family="Helvetica,sans-Serif" font-size="10.00">erpc_dspi_master_transport.h</text>
</a>
</g>
</g>
<!-- Node12&#45;&gt;Node13 -->
<g id="edge15" class="edge"><title>Node12&#45;&gt;Node13</title>
<path fill="none" stroke="midnightblue" d="M1172.81,-137.803C1112.79,-125.012 1013.52,-103.858 958.276,-92.0834"/>
<polygon fill="midnightblue" stroke="midnightblue" points="1172.3,-141.274 1182.81,-139.936 1173.76,-134.428 1172.3,-141.274"/>
</g>
<!-- Node14 -->
<g id="node14" class="node"><title>Node14</title>
<g id="a_node14"><a xlink:href="erpc__dspi__slave__transport_8h.html" target="_top" xlink:title="erpc_dspi_slave_transport.h">
<polygon fill="white" stroke="black" points="1009.5,-73 1009.5,-92 1146.5,-92 1146.5,-73 1009.5,-73"/>
<text text-anchor="middle" x="1078" y="-80" font-family="Helvetica,sans-Serif" font-size="10.00">erpc_dspi_slave_transport.h</text>
</a>
</g>
</g>
<!-- Node12&#45;&gt;Node14 -->
<g id="edge16" class="edge"><title>Node12&#45;&gt;Node14</title>
<path fill="none" stroke="midnightblue" d="M1194.25,-135.613C1165.53,-122.739 1122.18,-103.306 1097.33,-92.1672"/>
<polygon fill="midnightblue" stroke="midnightblue" points="1193.19,-138.972 1203.75,-139.869 1196.05,-132.584 1193.19,-138.972"/>
</g>
<!-- Node15 -->
<g id="node15" class="node"><title>Node15</title>
<g id="a_node15"><a xlink:href="erpc__serial__transport_8h.html" target="_top" xlink:title="erpc_serial_transport.h">
<polygon fill="white" stroke="black" points="1165,-73 1165,-92 1281,-92 1281,-73 1165,-73"/>
<text text-anchor="middle" x="1223" y="-80" font-family="Helvetica,sans-Serif" font-size="10.00">erpc_serial_transport.h</text>
</a>
</g>
</g>
<!-- Node12&#45;&gt;Node15 -->
<g id="edge17" class="edge"><title>Node12&#45;&gt;Node15</title>
<path fill="none" stroke="midnightblue" d="M1223,-129.537C1223,-117.17 1223,-101.62 1223,-92.1273"/>
<polygon fill="midnightblue" stroke="midnightblue" points="1219.5,-129.734 1223,-139.734 1226.5,-129.734 1219.5,-129.734"/>
</g>
<!-- Node16 -->
<g id="node16" class="node"><title>Node16</title>
<g id="a_node16"><a xlink:href="erpc__spi__master__transport_8h.html" target="_top" xlink:title="erpc_spi_master_transport.h">
<polygon fill="white" stroke="black" points="1299,-73 1299,-92 1439,-92 1439,-73 1299,-73"/>
<text text-anchor="middle" x="1369" y="-80" font-family="Helvetica,sans-Serif" font-size="10.00">erpc_spi_master_transport.h</text>
</a>
</g>
</g>
<!-- Node12&#45;&gt;Node16 -->
<g id="edge18" class="edge"><title>Node12&#45;&gt;Node16</title>
<path fill="none" stroke="midnightblue" d="M1251.57,-135.781C1280.48,-122.909 1324.4,-103.355 1349.53,-92.1672"/>
<polygon fill="midnightblue" stroke="midnightblue" points="1250.1,-132.604 1242.39,-139.869 1252.95,-138.999 1250.1,-132.604"/>
</g>
<!-- Node17 -->
<g id="node17" class="node"><title>Node17</title>
<g id="a_node17"><a xlink:href="erpc__spi__slave__transport_8h.html" target="_top" xlink:title="erpc_spi_slave_transport.h">
<polygon fill="white" stroke="black" points="1457,-73 1457,-92 1589,-92 1589,-73 1457,-73"/>
<text text-anchor="middle" x="1523" y="-80" font-family="Helvetica,sans-Serif" font-size="10.00">erpc_spi_slave_transport.h</text>
</a>
</g>
</g>
<!-- Node12&#45;&gt;Node17 -->
<g id="edge19" class="edge"><title>Node12&#45;&gt;Node17</title>
<path fill="none" stroke="midnightblue" d="M1272.37,-137.803C1331.41,-125.012 1429.04,-103.858 1483.38,-92.0834"/>
<polygon fill="midnightblue" stroke="midnightblue" points="1271.56,-134.397 1262.53,-139.936 1273.04,-141.239 1271.56,-134.397"/>
</g>
<!-- Node18 -->
<g id="node18" class="node"><title>Node18</title>
<g id="a_node18"><a xlink:href="erpc__spidev__master__transport_8h.html" target="_top" xlink:title="erpc_spidev_master\l_transport.h">
<polygon fill="white" stroke="black" points="1607.5,-67.5 1607.5,-97.5 1710.5,-97.5 1710.5,-67.5 1607.5,-67.5"/>
<text text-anchor="start" x="1615.5" y="-85.5" font-family="Helvetica,sans-Serif" font-size="10.00">erpc_spidev_master</text>
<text text-anchor="middle" x="1659" y="-74.5" font-family="Helvetica,sans-Serif" font-size="10.00">_transport.h</text>
</a>
</g>
</g>
<!-- Node12&#45;&gt;Node18 -->
<g id="edge20" class="edge"><title>Node12&#45;&gt;Node18</title>
<path fill="none" stroke="midnightblue" d="M1294.39,-141.027C1370.08,-132.604 1492.98,-117.503 1598,-98 1601.1,-97.4236 1604.29,-96.7917 1607.49,-96.1244"/>
<polygon fill="midnightblue" stroke="midnightblue" points="1293.58,-137.595 1284.02,-142.171 1294.35,-144.553 1293.58,-137.595"/>
</g>
<!-- Node19 -->
<g id="node19" class="node"><title>Node19</title>
<g id="a_node19"><a xlink:href="erpc__tcp__transport_8h.html" target="_top" xlink:title="erpc_tcp_transport.h">
<polygon fill="white" stroke="black" points="415,-73 415,-92 521,-92 521,-73 415,-73"/>
<text text-anchor="middle" x="468" y="-80" font-family="Helvetica,sans-Serif" font-size="10.00">erpc_tcp_transport.h</text>
</a>
</g>
</g>
<!-- Node12&#45;&gt;Node19 -->
<g id="edge21" class="edge"><title>Node12&#45;&gt;Node19</title>
<path fill="none" stroke="midnightblue" d="M1151.63,-146.989C1025.53,-143.499 755.318,-132.34 530,-98 520.274,-96.5177 509.817,-94.3135 500.313,-92.0685"/>
<polygon fill="midnightblue" stroke="midnightblue" points="1151.83,-150.495 1161.92,-147.265 1152.02,-143.498 1151.83,-150.495"/>
</g>
<!-- Node20 -->
<g id="node20" class="node"><title>Node20</title>
<g id="a_node20"><a xlink:href="erpc__uart__cmsis__transport_8h.html" target="_top" xlink:title="erpc_uart_cmsis_transport.h">
<polygon fill="white" stroke="black" points="539,-73 539,-92 679,-92 679,-73 539,-73"/>
<text text-anchor="middle" x="609" y="-80" font-family="Helvetica,sans-Serif" font-size="10.00">erpc_uart_cmsis_transport.h</text>
</a>
</g>
</g>
<!-- Node12&#45;&gt;Node20 -->
<g id="edge22" class="edge"><title>Node12&#45;&gt;Node20</title>
<path fill="none" stroke="midnightblue" d="M1151.56,-143.752C1048.76,-136.466 853.282,-120.924 688,-98 676.122,-96.3525 663.308,-94.1755 651.529,-92.0107"/>
<polygon fill="midnightblue" stroke="midnightblue" points="1151.6,-147.263 1161.82,-144.473 1152.09,-140.28 1151.6,-147.263"/>
</g>
<!-- Node21 -->
<g id="node21" class="node"><title>Node21</title>
<g id="a_node21"><a xlink:href="erpc__usb__cdc__transport_8h.html" target="_top" xlink:title="erpc_usb_cdc_transport.h">
<polygon fill="white" stroke="black" points="697.5,-73 697.5,-92 826.5,-92 826.5,-73 697.5,-73"/>
<text text-anchor="middle" x="762" y="-80" font-family="Helvetica,sans-Serif" font-size="10.00">erpc_usb_cdc_transport.h</text>
</a>
</g>
</g>
<!-- Node12&#45;&gt;Node21 -->
<g id="edge23" class="edge"><title>Node12&#45;&gt;Node21</title>
<path fill="none" stroke="midnightblue" d="M1151.66,-140.571C1073.86,-131.603 945.761,-115.896 836,-98 825.276,-96.2514 813.727,-94.1125 803.015,-92.0201"/>
<polygon fill="midnightblue" stroke="midnightblue" points="1151.5,-144.075 1161.83,-141.738 1152.29,-137.121 1151.5,-144.075"/>
</g>
<!-- Node26&#45;&gt;Node27 -->
<g id="edge29" class="edge"><title>Node26&#45;&gt;Node27</title>
<path fill="none" stroke="midnightblue" d="M1674.7,-134.063C1674.8,-134.042 1674.9,-134.021 1675,-134 1744.85,-119.44 1825.65,-103.681 1877.49,-93.7089"/>
<polygon fill="midnightblue" stroke="midnightblue" points="1674.21,-130.588 1665.15,-136.078 1675.66,-137.437 1674.21,-130.588"/>
</g>
<!-- Node26&#45;&gt;Node28 -->
<g id="edge30" class="edge"><title>Node26&#45;&gt;Node28</title>
<path fill="none" stroke="midnightblue" d="M1674.7,-134.051C1674.8,-134.034 1674.9,-134.017 1675,-134 1815.76,-110.661 1852.66,-117.477 1994,-98 2006.72,-96.2476 2020.42,-94.1301 2033.17,-92.0612"/>
<polygon fill="midnightblue" stroke="midnightblue" points="1674.32,-130.562 1665.09,-135.761 1675.55,-137.453 1674.32,-130.562"/>
</g>
<!-- Node26&#45;&gt;Node29 -->
<g id="edge31" class="edge"><title>Node26&#45;&gt;Node29</title>
<path fill="none" stroke="midnightblue" d="M1674.7,-134.045C1674.8,-134.03 1674.9,-134.015 1675,-134 1889.32,-102.683 1946.59,-128.656 2161,-98 2165.78,-97.3166 2170.73,-96.4928 2175.67,-95.5891"/>
<polygon fill="midnightblue" stroke="midnightblue" points="1674.38,-130.55 1665.07,-135.613 1675.5,-137.459 1674.38,-130.55"/>
</g>
</g>
</svg>
