<?xml version="1.0" encoding="UTF-8" standalone="no"?>
<!DOCTYPE svg PUBLIC "-//W3C//DTD SVG 1.1//EN"
 "http://www.w3.org/Graphics/SVG/1.1/DTD/svg11.dtd">
<!-- Generated by graphviz version 2.38.0 (20140413.2041)
 -->
<!-- Title: erpc_message_buffer.h Pages: 1 -->
<svg width="2787pt" height="285pt"
 viewBox="0.00 0.00 2786.73 285.00" xmlns="http://www.w3.org/2000/svg" xmlns:xlink="http://www.w3.org/1999/xlink">
<g id="graph0" class="graph" transform="scale(1 1) rotate(0) translate(4 281)">
<title>erpc_message_buffer.h</title>
<polygon fill="white" stroke="none" points="-4,4 -4,-281 2782.73,-281 2782.73,4 -4,4"/>
<!-- Node1 -->
<g id="node1" class="node"><title>Node1</title>
<polygon fill="#bfbfbf" stroke="black" points="2295.5,-257.5 2295.5,-276.5 2412.5,-276.5 2412.5,-257.5 2295.5,-257.5"/>
<text text-anchor="middle" x="2354" y="-264.5" font-family="Helvetica,sans-Serif" font-size="10.00">erpc_message_buffer.h</text>
</g>
<!-- Node2 -->
<g id="node2" class="node"><title>Node2</title>
<g id="a_node2"><a xlink:href="erpc__codec_8h.html" target="_top" xlink:title="erpc_codec.h">
<polygon fill="white" stroke="black" points="397.5,-140 397.5,-159 472.5,-159 472.5,-140 397.5,-140"/>
<text text-anchor="middle" x="435" y="-147" font-family="Helvetica,sans-Serif" font-size="10.00">erpc_codec.h</text>
</a>
</g>
</g>
<!-- Node1&#45;&gt;Node2 -->
<g id="edge1" class="edge"><title>Node1&#45;&gt;Node2</title>
<path fill="none" stroke="midnightblue" d="M2285.03,-261.849C1974.05,-243.132 707.253,-166.886 472.515,-152.758"/>
<polygon fill="midnightblue" stroke="midnightblue" points="2285.06,-265.357 2295.26,-262.464 2285.49,-258.37 2285.06,-265.357"/>
</g>
<!-- Node11 -->
<g id="node11" class="node"><title>Node11</title>
<g id="a_node11"><a xlink:href="erpc__transport_8h.html" target="_top" xlink:title="erpc_transport.h">
<polygon fill="white" stroke="black" points="2216.5,-201.5 2216.5,-220.5 2303.5,-220.5 2303.5,-201.5 2216.5,-201.5"/>
<text text-anchor="middle" x="2260" y="-208.5" font-family="Helvetica,sans-Serif" font-size="10.00">erpc_transport.h</text>
</a>
</g>
</g>
<!-- Node1&#45;&gt;Node11 -->
<g id="edge11" class="edge"><title>Node1&#45;&gt;Node11</title>
<path fill="none" stroke="midnightblue" d="M2329.94,-252.177C2312.64,-242.241 2289.85,-229.149 2275.07,-220.655"/>
<polygon fill="midnightblue" stroke="midnightblue" points="2328.48,-255.378 2338.9,-257.324 2331.97,-249.308 2328.48,-255.378"/>
</g>
<!-- Node12 -->
<g id="node12" class="node"><title>Node12</title>
<g id="a_node12"><a xlink:href="erpc__framed__transport_8h.html" target="_top" xlink:title="erpc_framed_transport.h">
<polygon fill="white" stroke="black" points="1321,-140 1321,-159 1443,-159 1443,-140 1321,-140"/>
<text text-anchor="middle" x="1382" y="-147" font-family="Helvetica,sans-Serif" font-size="10.00">erpc_framed_transport.h</text>
</a>
</g>
</g>
<!-- Node1&#45;&gt;Node12 -->
<g id="edge33" class="edge"><title>Node1&#45;&gt;Node12</title>
<path fill="none" stroke="midnightblue" d="M2285.45,-257.855C2104.4,-236.341 1615.55,-178.252 1443.18,-157.769"/>
<polygon fill="midnightblue" stroke="midnightblue" points="2285.04,-261.331 2295.39,-259.035 2285.87,-254.379 2285.04,-261.331"/>
</g>
<!-- Node24 -->
<g id="node24" class="node"><title>Node24</title>
<g id="a_node24"><a xlink:href="erpc__inter__thread__buffer__transport_8h.html" target="_top" xlink:title="erpc_inter_thread_buffer\l_transport.h">
<polygon fill="white" stroke="black" points="2504,-134.5 2504,-164.5 2624,-164.5 2624,-134.5 2504,-134.5"/>
<text text-anchor="start" x="2512" y="-152.5" font-family="Helvetica,sans-Serif" font-size="10.00">erpc_inter_thread_buffer</text>
<text text-anchor="middle" x="2564" y="-141.5" font-family="Helvetica,sans-Serif" font-size="10.00">_transport.h</text>
</a>
</g>
</g>
<!-- Node1&#45;&gt;Node24 -->
<g id="edge34" class="edge"><title>Node1&#45;&gt;Node24</title>
<path fill="none" stroke="midnightblue" d="M2378.64,-252.447C2418.76,-230.384 2497.78,-186.922 2538.46,-164.545"/>
<polygon fill="midnightblue" stroke="midnightblue" points="2376.86,-249.433 2369.78,-257.319 2380.23,-255.566 2376.86,-249.433"/>
</g>
<!-- Node25 -->
<g id="node25" class="node"><title>Node25</title>
<g id="a_node25"><a xlink:href="erpc__mu__transport_8h.html" target="_top" xlink:title="erpc_mu_transport.h">
<polygon fill="white" stroke="black" points="2642,-140 2642,-159 2748,-159 2748,-140 2642,-140"/>
<text text-anchor="middle" x="2695" y="-147" font-family="Helvetica,sans-Serif" font-size="10.00">erpc_mu_transport.h</text>
</a>
</g>
</g>
<!-- Node1&#45;&gt;Node25 -->
<g id="edge35" class="edge"><title>Node1&#45;&gt;Node25</title>
<path fill="none" stroke="midnightblue" d="M2388.87,-254.189C2457.61,-230.907 2609.14,-179.581 2669.48,-159.143"/>
<polygon fill="midnightblue" stroke="midnightblue" points="2387.7,-250.89 2379.35,-257.413 2389.95,-257.52 2387.7,-250.89"/>
</g>
<!-- Node28 -->
<g id="node28" class="node"><title>Node28</title>
<g id="a_node28"><a xlink:href="erpc__rpmsg__lite__rtos__transport_8h.html" target="_top" xlink:title="erpc_rpmsg_lite_rtos\l_transport.h">
<polygon fill="white" stroke="black" points="2008.5,-67.5 2008.5,-97.5 2115.5,-97.5 2115.5,-67.5 2008.5,-67.5"/>
<text text-anchor="start" x="2016.5" y="-85.5" font-family="Helvetica,sans-Serif" font-size="10.00">erpc_rpmsg_lite_rtos</text>
<text text-anchor="middle" x="2062" y="-74.5" font-family="Helvetica,sans-Serif" font-size="10.00">_transport.h</text>
</a>
</g>
</g>
<!-- Node1&#45;&gt;Node28 -->
<g id="edge36" class="edge"><title>Node1&#45;&gt;Node28</title>
<path fill="none" stroke="midnightblue" d="M2291.12,-255.735C2204.83,-240.219 2056.77,-207.985 2025,-165 2009.3,-143.756 2030.77,-114.787 2046.96,-97.7207"/>
<polygon fill="midnightblue" stroke="midnightblue" points="2290.61,-259.199 2301.06,-257.498 2291.83,-252.306 2290.61,-259.199"/>
</g>
<!-- Node29 -->
<g id="node29" class="node"><title>Node29</title>
<g id="a_node29"><a xlink:href="erpc__rpmsg__lite__transport_8h.html" target="_top" xlink:title="erpc_rpmsg_lite_transport.h">
<polygon fill="white" stroke="black" points="2326.5,-73 2326.5,-92 2463.5,-92 2463.5,-73 2326.5,-73"/>
<text text-anchor="middle" x="2395" y="-80" font-family="Helvetica,sans-Serif" font-size="10.00">erpc_rpmsg_lite_transport.h</text>
</a>
</g>
</g>
<!-- Node1&#45;&gt;Node29 -->
<g id="edge37" class="edge"><title>Node1&#45;&gt;Node29</title>
<path fill="none" stroke="midnightblue" d="M2422.63,-258.867C2526.6,-246.488 2716.26,-217.212 2757,-165 2765.48,-154.138 2766.04,-144.394 2757,-134 2738.05,-112.219 2563.08,-95.8838 2463.51,-88.2596"/>
<polygon fill="midnightblue" stroke="midnightblue" points="2422.07,-255.41 2412.54,-260.048 2422.88,-262.362 2422.07,-255.41"/>
</g>
<!-- Node30 -->
<g id="node30" class="node"><title>Node30</title>
<g id="a_node30"><a xlink:href="erpc__rpmsg__tty__rtos__transport_8h.html" target="_top" xlink:title="erpc_rpmsg_tty_rtos\l_transport.h">
<polygon fill="white" stroke="black" points="2668,-67.5 2668,-97.5 2774,-97.5 2774,-67.5 2668,-67.5"/>
<text text-anchor="start" x="2676" y="-85.5" font-family="Helvetica,sans-Serif" font-size="10.00">erpc_rpmsg_tty_rtos</text>
<text text-anchor="middle" x="2721" y="-74.5" font-family="Helvetica,sans-Serif" font-size="10.00">_transport.h</text>
</a>
</g>
</g>
<!-- Node1&#45;&gt;Node30 -->
<g id="edge38" class="edge"><title>Node1&#45;&gt;Node30</title>
<path fill="none" stroke="midnightblue" d="M2422.7,-264.69C2490.42,-261.538 2595.97,-251.583 2682,-221 2727.1,-204.966 2750.55,-206.73 2774,-165 2780.75,-152.989 2779.43,-146.664 2774,-134 2767.59,-119.046 2754.34,-106.421 2742.7,-97.5348"/>
<polygon fill="midnightblue" stroke="midnightblue" points="2422.41,-261.199 2412.57,-265.123 2422.71,-268.192 2422.41,-261.199"/>
</g>
<!-- Node3 -->
<g id="node3" class="node"><title>Node3</title>
<g id="a_node3"><a xlink:href="erpc__client__manager_8h.html" target="_top" xlink:title="erpc_client_manager.h">
<polygon fill="white" stroke="black" points="251.5,-73 251.5,-92 366.5,-92 366.5,-73 251.5,-73"/>
<text text-anchor="middle" x="309" y="-80" font-family="Helvetica,sans-Serif" font-size="10.00">erpc_client_manager.h</text>
</a>
</g>
</g>
<!-- Node2&#45;&gt;Node3 -->
<g id="edge2" class="edge"><title>Node2&#45;&gt;Node3</title>
<path fill="none" stroke="midnightblue" d="M409.362,-135.274C384.406,-122.4 347.204,-103.209 325.801,-92.1672"/>
<polygon fill="midnightblue" stroke="midnightblue" points="407.776,-138.394 418.268,-139.869 410.986,-132.173 407.776,-138.394"/>
</g>
<!-- Node5 -->
<g id="node5" class="node"><title>Node5</title>
<g id="a_node5"><a xlink:href="erpc__transport__arbitrator_8h.html" target="_top" xlink:title="erpc_transport_arbitrator.h">
<polygon fill="white" stroke="black" points="501.5,-6 501.5,-25 632.5,-25 632.5,-6 501.5,-6"/>
<text text-anchor="middle" x="567" y="-13" font-family="Helvetica,sans-Serif" font-size="10.00">erpc_transport_arbitrator.h</text>
</a>
</g>
</g>
<!-- Node2&#45;&gt;Node5 -->
<g id="edge7" class="edge"><title>Node2&#45;&gt;Node5</title>
<path fill="none" stroke="midnightblue" d="M422.808,-131.087C412.099,-113.437 400.204,-86.0823 414,-67 426.988,-49.0356 482.544,-33.9578 522.977,-25.0785"/>
<polygon fill="midnightblue" stroke="midnightblue" points="420.076,-133.307 428.464,-139.78 425.943,-129.489 420.076,-133.307"/>
</g>
<!-- Node8 -->
<g id="node8" class="node"><title>Node8</title>
<g id="a_node8"><a xlink:href="erpc__basic__codec_8h.html" target="_top" xlink:title="erpc_basic_codec.h">
<polygon fill="white" stroke="black" points="423,-73 423,-92 527,-92 527,-73 423,-73"/>
<text text-anchor="middle" x="475" y="-80" font-family="Helvetica,sans-Serif" font-size="10.00">erpc_basic_codec.h</text>
</a>
</g>
</g>
<!-- Node2&#45;&gt;Node8 -->
<g id="edge8" class="edge"><title>Node2&#45;&gt;Node8</title>
<path fill="none" stroke="midnightblue" d="M445.748,-131.035C453.492,-118.45 463.611,-102.007 469.691,-92.1273"/>
<polygon fill="midnightblue" stroke="midnightblue" points="442.655,-129.383 440.395,-139.734 448.616,-133.052 442.655,-129.383"/>
</g>
<!-- Node9 -->
<g id="node9" class="node"><title>Node9</title>
<g id="a_node9"><a xlink:href="erpc__server_8h.html" target="_top" xlink:title="erpc_server.h">
<polygon fill="white" stroke="black" points="88,-73 88,-92 162,-92 162,-73 88,-73"/>
<text text-anchor="middle" x="125" y="-80" font-family="Helvetica,sans-Serif" font-size="10.00">erpc_server.h</text>
</a>
</g>
</g>
<!-- Node2&#45;&gt;Node9 -->
<g id="edge9" class="edge"><title>Node2&#45;&gt;Node9</title>
<path fill="none" stroke="midnightblue" d="M387.403,-138.52C325.557,-125.552 218.839,-103.176 162.44,-91.3504"/>
<polygon fill="midnightblue" stroke="midnightblue" points="386.792,-141.968 397.298,-140.595 388.229,-135.117 386.792,-141.968"/>
</g>
<!-- Node4 -->
<g id="node4" class="node"><title>Node4</title>
<g id="a_node4"><a xlink:href="erpc__arbitrated__client__manager_8h.html" target="_top" xlink:title="erpc_arbitrated_client\l_manager.h">
<polygon fill="white" stroke="black" points="126,-0.5 126,-30.5 236,-30.5 236,-0.5 126,-0.5"/>
<text text-anchor="start" x="134" y="-18.5" font-family="Helvetica,sans-Serif" font-size="10.00">erpc_arbitrated_client</text>
<text text-anchor="middle" x="181" y="-7.5" font-family="Helvetica,sans-Serif" font-size="10.00">_manager.h</text>
</a>
</g>
</g>
<!-- Node3&#45;&gt;Node4 -->
<g id="edge3" class="edge"><title>Node3&#45;&gt;Node4</title>
<path fill="none" stroke="midnightblue" d="M282.798,-68.1944C261.267,-57.2607 230.842,-41.8102 208.868,-30.6516"/>
<polygon fill="midnightblue" stroke="midnightblue" points="281.502,-71.4614 292.003,-72.8685 284.671,-65.22 281.502,-71.4614"/>
</g>
<!-- Node3&#45;&gt;Node5 -->
<g id="edge4" class="edge"><title>Node3&#45;&gt;Node5</title>
<path fill="none" stroke="midnightblue" d="M352.725,-70.4841C403.616,-57.6627 486.582,-36.7605 532.93,-25.0834"/>
<polygon fill="midnightblue" stroke="midnightblue" points="351.836,-67.0985 342.994,-72.9355 353.546,-73.8864 351.836,-67.0985"/>
</g>
<!-- Node6 -->
<g id="node6" class="node"><title>Node6</title>
<g id="a_node6"><a xlink:href="erpc__arbitrated__client__setup_8h.html" target="_top" xlink:title="erpc_arbitrated_client\l_setup.h">
<polygon fill="white" stroke="black" points="254,-0.5 254,-30.5 364,-30.5 364,-0.5 254,-0.5"/>
<text text-anchor="start" x="262" y="-18.5" font-family="Helvetica,sans-Serif" font-size="10.00">erpc_arbitrated_client</text>
<text text-anchor="middle" x="309" y="-7.5" font-family="Helvetica,sans-Serif" font-size="10.00">_setup.h</text>
</a>
</g>
</g>
<!-- Node3&#45;&gt;Node6 -->
<g id="edge5" class="edge"><title>Node3&#45;&gt;Node6</title>
<path fill="none" stroke="midnightblue" d="M309,-62.4107C309,-52.222 309,-39.901 309,-30.589"/>
<polygon fill="midnightblue" stroke="midnightblue" points="305.5,-62.7338 309,-72.7338 312.5,-62.7338 305.5,-62.7338"/>
</g>
<!-- Node7 -->
<g id="node7" class="node"><title>Node7</title>
<g id="a_node7"><a xlink:href="erpc__client__setup_8h.html" target="_top" xlink:title="erpc_client_setup.h">
<polygon fill="white" stroke="black" points="382.5,-6 382.5,-25 483.5,-25 483.5,-6 382.5,-6"/>
<text text-anchor="middle" x="433" y="-13" font-family="Helvetica,sans-Serif" font-size="10.00">erpc_client_setup.h</text>
</a>
</g>
</g>
<!-- Node3&#45;&gt;Node7 -->
<g id="edge6" class="edge"><title>Node3&#45;&gt;Node7</title>
<path fill="none" stroke="midnightblue" d="M334.557,-68.1034C359.113,-55.2309 395.495,-36.16 416.466,-25.1672"/>
<polygon fill="midnightblue" stroke="midnightblue" points="332.698,-65.1258 325.466,-72.8685 335.948,-71.3256 332.698,-65.1258"/>
</g>
<!-- Node10 -->
<g id="node10" class="node"><title>Node10</title>
<g id="a_node10"><a xlink:href="erpc__simple__server_8h.html" target="_top" xlink:title="erpc_simple_server.h">
<polygon fill="white" stroke="black" points="0,-6 0,-25 108,-25 108,-6 0,-6"/>
<text text-anchor="middle" x="54" y="-13" font-family="Helvetica,sans-Serif" font-size="10.00">erpc_simple_server.h</text>
</a>
</g>
</g>
<!-- Node9&#45;&gt;Node10 -->
<g id="edge10" class="edge"><title>Node9&#45;&gt;Node10</title>
<path fill="none" stroke="midnightblue" d="M107.912,-65.8564C93.9541,-53.0777 74.7446,-35.4915 63.4237,-25.1273"/>
<polygon fill="midnightblue" stroke="midnightblue" points="105.685,-68.5628 115.425,-72.7338 110.412,-63.3997 105.685,-68.5628"/>
</g>
<!-- Node11&#45;&gt;Node2 -->
<g id="edge12" class="edge"><title>Node11&#45;&gt;Node2</title>
<path fill="none" stroke="midnightblue" d="M2206.18,-208.245C1933.1,-199.342 704.543,-159.288 472.778,-151.732"/>
<polygon fill="midnightblue" stroke="midnightblue" points="2206.13,-211.746 2216.24,-208.573 2206.36,-204.749 2206.13,-211.746"/>
</g>
<!-- Node11&#45;&gt;Node5 -->
<g id="edge13" class="edge"><title>Node11&#45;&gt;Node5</title>
<path fill="none" stroke="midnightblue" d="M2206.18,-205.494C2152.75,-199.773 2076.26,-187.78 2058,-165 2016.19,-112.847 2123.88,-99.8719 2125,-98 2132.07,-86.1747 2134.58,-76.8989 2125,-67 2072.38,-12.6485 922.838,-14.7182 632.926,-16.1109"/>
<polygon fill="midnightblue" stroke="midnightblue" points="2205.89,-208.983 2216.2,-206.523 2206.61,-202.019 2205.89,-208.983"/>
</g>
<!-- Node11&#45;&gt;Node12 -->
<g id="edge14" class="edge"><title>Node11&#45;&gt;Node12</title>
<path fill="none" stroke="midnightblue" d="M2206.27,-206.359C2051.74,-195.887 1606.74,-165.73 1443.22,-154.649"/>
<polygon fill="midnightblue" stroke="midnightblue" points="2206.25,-209.865 2216.46,-207.049 2206.72,-202.881 2206.25,-209.865"/>
</g>
<!-- Node23 -->
<g id="node23" class="node"><title>Node23</title>
<g id="a_node23"><a xlink:href="erpc__message__loggers_8h.html" target="_top" xlink:title="erpc_message_loggers.h">
<polygon fill="white" stroke="black" points="2197.5,-140 2197.5,-159 2322.5,-159 2322.5,-140 2197.5,-140"/>
<text text-anchor="middle" x="2260" y="-147" font-family="Helvetica,sans-Serif" font-size="10.00">erpc_message_loggers.h</text>
</a>
</g>
</g>
<!-- Node11&#45;&gt;Node23 -->
<g id="edge25" class="edge"><title>Node11&#45;&gt;Node23</title>
<path fill="none" stroke="midnightblue" d="M2260,-191.317C2260,-180.496 2260,-167.398 2260,-159.009"/>
<polygon fill="midnightblue" stroke="midnightblue" points="2256.5,-191.475 2260,-201.475 2263.5,-191.475 2256.5,-191.475"/>
</g>
<!-- Node11&#45;&gt;Node24 -->
<g id="edge26" class="edge"><title>Node11&#45;&gt;Node24</title>
<path fill="none" stroke="midnightblue" d="M2313.89,-199.966C2361.55,-191.022 2432.96,-177.457 2495,-165 2497.88,-164.422 2500.83,-163.824 2503.8,-163.217"/>
<polygon fill="midnightblue" stroke="midnightblue" points="2312.97,-196.575 2303.79,-201.857 2314.26,-203.456 2312.97,-196.575"/>
</g>
<!-- Node11&#45;&gt;Node25 -->
<g id="edge27" class="edge"><title>Node11&#45;&gt;Node25</title>
<path fill="none" stroke="midnightblue" d="M2313.87,-205.371C2386.63,-198.694 2520.2,-184.932 2633,-165 2642.36,-163.346 2652.43,-161.167 2661.67,-159.002"/>
<polygon fill="midnightblue" stroke="midnightblue" points="2313.23,-201.915 2303.59,-206.305 2313.86,-208.887 2313.23,-201.915"/>
</g>
<!-- Node26 -->
<g id="node26" class="node"><title>Node26</title>
<g id="a_node26"><a xlink:href="erpc__rpmsg__linux__transport_8h_source.html" target="_top" xlink:title="erpc_rpmsg_linux_transport.h">
<polygon fill="white" stroke="black" points="2340.5,-140 2340.5,-159 2485.5,-159 2485.5,-140 2340.5,-140"/>
<text text-anchor="middle" x="2413" y="-147" font-family="Helvetica,sans-Serif" font-size="10.00">erpc_rpmsg_linux_transport.h</text>
</a>
</g>
</g>
<!-- Node11&#45;&gt;Node26 -->
<g id="edge28" class="edge"><title>Node11&#45;&gt;Node26</title>
<path fill="none" stroke="midnightblue" d="M2291.42,-197.782C2321.15,-186.22 2365.01,-169.164 2391.12,-159.009"/>
<polygon fill="midnightblue" stroke="midnightblue" points="2289.97,-194.589 2281.92,-201.475 2292.51,-201.113 2289.97,-194.589"/>
</g>
<!-- Node27 -->
<g id="node27" class="node"><title>Node27</title>
<g id="a_node27"><a xlink:href="erpc__rpmsg__lite__base__transport_8h.html" target="_top" xlink:title="erpc_rpmsg_lite_base\l_transport.h">
<polygon fill="white" stroke="black" points="2067,-134.5 2067,-164.5 2179,-164.5 2179,-134.5 2067,-134.5"/>
<text text-anchor="start" x="2075" y="-152.5" font-family="Helvetica,sans-Serif" font-size="10.00">erpc_rpmsg_lite_base</text>
<text text-anchor="middle" x="2123" y="-141.5" font-family="Helvetica,sans-Serif" font-size="10.00">_transport.h</text>
</a>
</g>
</g>
<!-- Node11&#45;&gt;Node27 -->
<g id="edge29" class="edge"><title>Node11&#45;&gt;Node27</title>
<path fill="none" stroke="midnightblue" d="M2231.13,-197.461C2208.94,-187.823 2178.29,-174.513 2155.29,-164.523"/>
<polygon fill="midnightblue" stroke="midnightblue" points="2229.8,-200.702 2240.37,-201.475 2232.59,-194.281 2229.8,-200.702"/>
</g>
<!-- Node13 -->
<g id="node13" class="node"><title>Node13</title>
<g id="a_node13"><a xlink:href="erpc__dspi__master__transport_8h.html" target="_top" xlink:title="erpc_dspi_master_transport.h">
<polygon fill="white" stroke="black" points="1689,-73 1689,-92 1835,-92 1835,-73 1689,-73"/>
<text text-anchor="middle" x="1762" y="-80" font-family="Helvetica,sans-Serif" font-size="10.00">erpc_dspi_master_transport.h</text>
</a>
</g>
</g>
<!-- Node12&#45;&gt;Node13 -->
<g id="edge15" class="edge"><title>Node12&#45;&gt;Node13</title>
<path fill="none" stroke="midnightblue" d="M1443,-138.293C1503.25,-128.182 1598.01,-112.196 1680,-98 1690.97,-96.1008 1702.76,-94.0323 1713.88,-92.0682"/>
<polygon fill="midnightblue" stroke="midnightblue" points="1442.19,-134.881 1432.9,-139.988 1443.34,-141.785 1442.19,-134.881"/>
</g>
<!-- Node14 -->
<g id="node14" class="node"><title>Node14</title>
<g id="a_node14"><a xlink:href="erpc__dspi__slave__transport_8h.html" target="_top" xlink:title="erpc_dspi_slave_transport.h">
<polygon fill="white" stroke="black" points="1853.5,-73 1853.5,-92 1990.5,-92 1990.5,-73 1853.5,-73"/>
<text text-anchor="middle" x="1922" y="-80" font-family="Helvetica,sans-Serif" font-size="10.00">erpc_dspi_slave_transport.h</text>
</a>
</g>
</g>
<!-- Node12&#45;&gt;Node14 -->
<g id="edge16" class="edge"><title>Node12&#45;&gt;Node14</title>
<path fill="none" stroke="midnightblue" d="M1453.29,-142.378C1544.22,-134.187 1706.23,-118.307 1844,-98 1855.45,-96.3129 1867.78,-94.1718 1879.18,-92.0563"/>
<polygon fill="midnightblue" stroke="midnightblue" points="1452.74,-138.913 1443.1,-143.291 1453.37,-145.885 1452.74,-138.913"/>
</g>
<!-- Node15 -->
<g id="node15" class="node"><title>Node15</title>
<g id="a_node15"><a xlink:href="erpc__i2c__slave__transport_8h.html" target="_top" xlink:title="erpc_i2c_slave_transport.h">
<polygon fill="white" stroke="black" points="545,-73 545,-92 677,-92 677,-73 545,-73"/>
<text text-anchor="middle" x="611" y="-80" font-family="Helvetica,sans-Serif" font-size="10.00">erpc_i2c_slave_transport.h</text>
</a>
</g>
</g>
<!-- Node12&#45;&gt;Node15 -->
<g id="edge17" class="edge"><title>Node12&#45;&gt;Node15</title>
<path fill="none" stroke="midnightblue" d="M1310.45,-146.108C1184,-141.257 912.918,-128.06 686,-98 674.431,-96.4674 661.953,-94.2751 650.558,-92.0577"/>
<polygon fill="midnightblue" stroke="midnightblue" points="1310.65,-149.617 1320.77,-146.497 1310.91,-142.622 1310.65,-149.617"/>
</g>
<!-- Node16 -->
<g id="node16" class="node"><title>Node16</title>
<g id="a_node16"><a xlink:href="erpc__serial__transport_8h.html" target="_top" xlink:title="erpc_serial_transport.h">
<polygon fill="white" stroke="black" points="695,-73 695,-92 811,-92 811,-73 695,-73"/>
<text text-anchor="middle" x="753" y="-80" font-family="Helvetica,sans-Serif" font-size="10.00">erpc_serial_transport.h</text>
</a>
</g>
</g>
<!-- Node12&#45;&gt;Node16 -->
<g id="edge18" class="edge"><title>Node12&#45;&gt;Node16</title>
<path fill="none" stroke="midnightblue" d="M1310.96,-144.937C1204.01,-138.936 995.436,-124.761 820,-98 809.764,-96.4386 798.748,-94.2639 788.663,-92.0729"/>
<polygon fill="midnightblue" stroke="midnightblue" points="1310.82,-148.434 1320.99,-145.492 1311.2,-141.444 1310.82,-148.434"/>
</g>
<!-- Node17 -->
<g id="node17" class="node"><title>Node17</title>
<g id="a_node17"><a xlink:href="erpc__spi__master__transport_8h.html" target="_top" xlink:title="erpc_spi_master_transport.h">
<polygon fill="white" stroke="black" points="829,-73 829,-92 969,-92 969,-73 829,-73"/>
<text text-anchor="middle" x="899" y="-80" font-family="Helvetica,sans-Serif" font-size="10.00">erpc_spi_master_transport.h</text>
</a>
</g>
</g>
<!-- Node12&#45;&gt;Node17 -->
<g id="edge19" class="edge"><title>Node12&#45;&gt;Node17</title>
<path fill="none" stroke="midnightblue" d="M1310.87,-140.854C1230.04,-131.876 1094.24,-115.917 978,-98 966.561,-96.2368 954.236,-94.0927 942.8,-92.0001"/>
<polygon fill="midnightblue" stroke="midnightblue" points="1310.61,-144.347 1320.93,-141.967 1311.38,-137.389 1310.61,-144.347"/>
</g>
<!-- Node18 -->
<g id="node18" class="node"><title>Node18</title>
<g id="a_node18"><a xlink:href="erpc__spi__slave__transport_8h.html" target="_top" xlink:title="erpc_spi_slave_transport.h">
<polygon fill="white" stroke="black" points="987,-73 987,-92 1119,-92 1119,-73 987,-73"/>
<text text-anchor="middle" x="1053" y="-80" font-family="Helvetica,sans-Serif" font-size="10.00">erpc_spi_slave_transport.h</text>
</a>
</g>
</g>
<!-- Node12&#45;&gt;Node18 -->
<g id="edge20" class="edge"><title>Node12&#45;&gt;Node18</title>
<path fill="none" stroke="midnightblue" d="M1328.64,-137.958C1263.89,-125.165 1155.97,-103.843 1096.18,-92.0317"/>
<polygon fill="midnightblue" stroke="midnightblue" points="1328.16,-141.431 1338.65,-139.936 1329.52,-134.564 1328.16,-141.431"/>
</g>
<!-- Node19 -->
<g id="node19" class="node"><title>Node19</title>
<g id="a_node19"><a xlink:href="erpc__spidev__master__transport_8h.html" target="_top" xlink:title="erpc_spidev_master\l_transport.h">
<polygon fill="white" stroke="black" points="1137.5,-67.5 1137.5,-97.5 1240.5,-97.5 1240.5,-67.5 1137.5,-67.5"/>
<text text-anchor="start" x="1145.5" y="-85.5" font-family="Helvetica,sans-Serif" font-size="10.00">erpc_spidev_master</text>
<text text-anchor="middle" x="1189" y="-74.5" font-family="Helvetica,sans-Serif" font-size="10.00">_transport.h</text>
</a>
</g>
</g>
<!-- Node12&#45;&gt;Node19 -->
<g id="edge21" class="edge"><title>Node12&#45;&gt;Node19</title>
<path fill="none" stroke="midnightblue" d="M1346.76,-136.633C1314.04,-125.612 1265.29,-109.193 1230.65,-97.5281"/>
<polygon fill="midnightblue" stroke="midnightblue" points="1345.78,-139.994 1356.37,-139.869 1348.01,-133.36 1345.78,-139.994"/>
</g>
<!-- Node20 -->
<g id="node20" class="node"><title>Node20</title>
<g id="a_node20"><a xlink:href="erpc__tcp__transport_8h.html" target="_top" xlink:title="erpc_tcp_transport.h">
<polygon fill="white" stroke="black" points="1259,-73 1259,-92 1365,-92 1365,-73 1259,-73"/>
<text text-anchor="middle" x="1312" y="-80" font-family="Helvetica,sans-Serif" font-size="10.00">erpc_tcp_transport.h</text>
</a>
</g>
</g>
<!-- Node12&#45;&gt;Node20 -->
<g id="edge22" class="edge"><title>Node12&#45;&gt;Node20</title>
<path fill="none" stroke="midnightblue" d="M1365.15,-132.856C1351.39,-120.078 1332.45,-102.492 1321.29,-92.1273"/>
<polygon fill="midnightblue" stroke="midnightblue" points="1362.85,-135.494 1372.56,-139.734 1367.61,-130.364 1362.85,-135.494"/>
</g>
<!-- Node21 -->
<g id="node21" class="node"><title>Node21</title>
<g id="a_node21"><a xlink:href="erpc__uart__cmsis__transport_8h.html" target="_top" xlink:title="erpc_uart_cmsis_transport.h">
<polygon fill="white" stroke="black" points="1383,-73 1383,-92 1523,-92 1523,-73 1383,-73"/>
<text text-anchor="middle" x="1453" y="-80" font-family="Helvetica,sans-Serif" font-size="10.00">erpc_uart_cmsis_transport.h</text>
</a>
</g>
</g>
<!-- Node12&#45;&gt;Node21 -->
<g id="edge23" class="edge"><title>Node12&#45;&gt;Node21</title>
<path fill="none" stroke="midnightblue" d="M1399.09,-132.856C1413.05,-120.078 1432.26,-102.492 1443.58,-92.1273"/>
<polygon fill="midnightblue" stroke="midnightblue" points="1396.59,-130.4 1391.58,-139.734 1401.31,-135.563 1396.59,-130.4"/>
</g>
<!-- Node22 -->
<g id="node22" class="node"><title>Node22</title>
<g id="a_node22"><a xlink:href="erpc__usb__cdc__transport_8h.html" target="_top" xlink:title="erpc_usb_cdc_transport.h">
<polygon fill="white" stroke="black" points="1541.5,-73 1541.5,-92 1670.5,-92 1670.5,-73 1541.5,-73"/>
<text text-anchor="middle" x="1606" y="-80" font-family="Helvetica,sans-Serif" font-size="10.00">erpc_usb_cdc_transport.h</text>
</a>
</g>
</g>
<!-- Node12&#45;&gt;Node22 -->
<g id="edge24" class="edge"><title>Node12&#45;&gt;Node22</title>
<path fill="none" stroke="midnightblue" d="M1421.6,-137.01C1465.93,-124.145 1536.75,-103.594 1576.49,-92.0637"/>
<polygon fill="midnightblue" stroke="midnightblue" points="1420.37,-133.72 1411.75,-139.869 1422.32,-140.443 1420.37,-133.72"/>
</g>
<!-- Node27&#45;&gt;Node28 -->
<g id="edge30" class="edge"><title>Node27&#45;&gt;Node28</title>
<path fill="none" stroke="midnightblue" d="M2102.85,-127.024C2093.76,-117.34 2083.28,-106.174 2075.21,-97.5765"/>
<polygon fill="midnightblue" stroke="midnightblue" points="2100.37,-129.499 2109.76,-134.396 2105.47,-124.709 2100.37,-129.499"/>
</g>
<!-- Node27&#45;&gt;Node29 -->
<g id="edge31" class="edge"><title>Node27&#45;&gt;Node29</title>
<path fill="none" stroke="midnightblue" d="M2188.8,-132.776C2242.44,-119.957 2316.16,-102.34 2359.38,-92.0127"/>
<polygon fill="midnightblue" stroke="midnightblue" points="2187.94,-129.382 2179.03,-135.111 2189.57,-136.191 2187.94,-129.382"/>
</g>
<!-- Node27&#45;&gt;Node30 -->
<g id="edge32" class="edge"><title>Node27&#45;&gt;Node30</title>
<path fill="none" stroke="midnightblue" d="M2188.7,-134.048C2188.8,-134.032 2188.9,-134.016 2189,-134 2363.15,-106.708 2571.84,-92.1101 2667.88,-86.397"/>
<polygon fill="midnightblue" stroke="midnightblue" points="2188.35,-130.556 2179.08,-135.693 2189.53,-137.456 2188.35,-130.556"/>
</g>
</g>
</svg>
