<?xml version="1.0" encoding="UTF-8" standalone="no"?>
<!DOCTYPE svg PUBLIC "-//W3C//DTD SVG 1.1//EN"
 "http://www.w3.org/Graphics/SVG/1.1/DTD/svg11.dtd">
<!-- Generated by graphviz version 2.38.0 (20140413.2041)
 -->
<!-- Title: erpc_config.h Pages: 1 -->
<svg width="1224pt" height="274pt"
 viewBox="0.00 0.00 1223.50 274.00" xmlns="http://www.w3.org/2000/svg" xmlns:xlink="http://www.w3.org/1999/xlink">
<g id="graph0" class="graph" transform="scale(1 1) rotate(0) translate(4 270)">
<title>erpc_config.h</title>
<polygon fill="white" stroke="none" points="-4,4 -4,-270 1219.5,-270 1219.5,4 -4,4"/>
<!-- Node1 -->
<g id="node1" class="node"><title>Node1</title>
<polygon fill="#bfbfbf" stroke="black" points="661,-246.5 661,-265.5 735,-265.5 735,-246.5 661,-246.5"/>
<text text-anchor="middle" x="698" y="-253.5" font-family="Helvetica,sans-Serif" font-size="10.00">erpc_config.h</text>
</g>
<!-- Node2 -->
<g id="node2" class="node"><title>Node2</title>
<g id="a_node2"><a xlink:href="erpc__config__internal_8h_source.html" target="_top" xlink:title="erpc_config_internal.h">
<polygon fill="white" stroke="black" points="642.5,-190.5 642.5,-209.5 753.5,-209.5 753.5,-190.5 642.5,-190.5"/>
<text text-anchor="middle" x="698" y="-197.5" font-family="Helvetica,sans-Serif" font-size="10.00">erpc_config_internal.h</text>
</a>
</g>
</g>
<!-- Node1&#45;&gt;Node2 -->
<g id="edge1" class="edge"><title>Node1&#45;&gt;Node2</title>
<path fill="none" stroke="midnightblue" d="M698,-235.805C698,-226.91 698,-216.78 698,-209.751"/>
<polygon fill="midnightblue" stroke="midnightblue" points="694.5,-236.083 698,-246.083 701.5,-236.083 694.5,-236.083"/>
</g>
<!-- Node3 -->
<g id="node3" class="node"><title>Node3</title>
<g id="a_node3"><a xlink:href="client__manager_8h.html" target="_top" xlink:title="client_manager.h">
<polygon fill="white" stroke="black" points="286.5,-129 286.5,-148 377.5,-148 377.5,-129 286.5,-129"/>
<text text-anchor="middle" x="332" y="-136" font-family="Helvetica,sans-Serif" font-size="10.00">client_manager.h</text>
</a>
</g>
</g>
<!-- Node2&#45;&gt;Node3 -->
<g id="edge2" class="edge"><title>Node2&#45;&gt;Node3</title>
<path fill="none" stroke="midnightblue" d="M635.55,-188.848C562.343,-176.946 442.773,-157.508 377.699,-146.929"/>
<polygon fill="midnightblue" stroke="midnightblue" points="635.129,-192.325 645.561,-190.475 636.252,-185.416 635.129,-192.325"/>
</g>
<!-- Node6 -->
<g id="node6" class="node"><title>Node6</title>
<g id="a_node6"><a xlink:href="erpc__client__setup_8h.html" target="_top" xlink:title="erpc_client_setup.h">
<polygon fill="white" stroke="black" points="74.5,-62 74.5,-81 175.5,-81 175.5,-62 74.5,-62"/>
<text text-anchor="middle" x="125" y="-69" font-family="Helvetica,sans-Serif" font-size="10.00">erpc_client_setup.h</text>
</a>
</g>
</g>
<!-- Node2&#45;&gt;Node6 -->
<g id="edge24" class="edge"><title>Node2&#45;&gt;Node6</title>
<path fill="none" stroke="midnightblue" d="M632.3,-199.702C548.112,-198.869 398.535,-191.506 277,-154 221.208,-136.782 162.219,-98.5072 137.275,-81.2442"/>
<polygon fill="midnightblue" stroke="midnightblue" points="632.462,-203.203 642.486,-199.774 632.511,-196.204 632.462,-203.203"/>
</g>
<!-- Node7 -->
<g id="node7" class="node"><title>Node7</title>
<g id="a_node7"><a xlink:href="framed__transport_8h.html" target="_top" xlink:title="framed_transport.h">
<polygon fill="white" stroke="black" points="474,-62 474,-81 572,-81 572,-62 474,-62"/>
<text text-anchor="middle" x="523" y="-69" font-family="Helvetica,sans-Serif" font-size="10.00">framed_transport.h</text>
</a>
</g>
</g>
<!-- Node2&#45;&gt;Node7 -->
<g id="edge6" class="edge"><title>Node2&#45;&gt;Node7</title>
<path fill="none" stroke="midnightblue" d="M632.231,-194.19C601.956,-188.686 567.783,-177.299 545,-154 525.224,-133.776 522.762,-97.7236 522.748,-81.2037"/>
<polygon fill="midnightblue" stroke="midnightblue" points="631.893,-197.681 642.327,-195.84 633.022,-190.773 631.893,-197.681"/>
</g>
<!-- Node15 -->
<g id="node15" class="node"><title>Node15</title>
<g id="a_node15"><a xlink:href="server_8h.html" target="_top" xlink:title="server.h">
<polygon fill="white" stroke="black" points="700,-129 700,-148 750,-148 750,-129 700,-129"/>
<text text-anchor="middle" x="725" y="-136" font-family="Helvetica,sans-Serif" font-size="10.00">server.h</text>
</a>
</g>
</g>
<!-- Node2&#45;&gt;Node15 -->
<g id="edge14" class="edge"><title>Node2&#45;&gt;Node15</title>
<path fill="none" stroke="midnightblue" d="M706.016,-181.335C711.011,-170.328 717.212,-156.663 721.139,-148.009"/>
<polygon fill="midnightblue" stroke="midnightblue" points="702.814,-179.922 701.868,-190.475 709.188,-182.815 702.814,-179.922"/>
</g>
<!-- Node17 -->
<g id="node17" class="node"><title>Node17</title>
<g id="a_node17"><a xlink:href="erpc__port_8h.html" target="_top" xlink:title="erpc_port.h">
<polygon fill="white" stroke="black" points="768.5,-129 768.5,-148 833.5,-148 833.5,-129 768.5,-129"/>
<text text-anchor="middle" x="801" y="-136" font-family="Helvetica,sans-Serif" font-size="10.00">erpc_port.h</text>
</a>
</g>
</g>
<!-- Node2&#45;&gt;Node17 -->
<g id="edge16" class="edge"><title>Node2&#45;&gt;Node17</title>
<path fill="none" stroke="midnightblue" d="M721.542,-185.401C741.458,-173.896 769.379,-157.767 786.27,-148.009"/>
<polygon fill="midnightblue" stroke="midnightblue" points="719.666,-182.442 712.757,-190.475 723.167,-188.504 719.666,-182.442"/>
</g>
<!-- Node18 -->
<g id="node18" class="node"><title>Node18</title>
<g id="a_node18"><a xlink:href="erpc__threading_8h.html" target="_top" xlink:title="erpc_threading.h">
<polygon fill="white" stroke="black" points="554.5,-129 554.5,-148 643.5,-148 643.5,-129 554.5,-129"/>
<text text-anchor="middle" x="599" y="-136" font-family="Helvetica,sans-Serif" font-size="10.00">erpc_threading.h</text>
</a>
</g>
</g>
<!-- Node2&#45;&gt;Node18 -->
<g id="edge17" class="edge"><title>Node2&#45;&gt;Node18</title>
<path fill="none" stroke="midnightblue" d="M675.112,-185.244C655.987,-173.75 629.32,-157.723 613.158,-148.009"/>
<polygon fill="midnightblue" stroke="midnightblue" points="673.442,-188.324 683.816,-190.475 677.048,-182.324 673.442,-188.324"/>
</g>
<!-- Node20 -->
<g id="node20" class="node"><title>Node20</title>
<g id="a_node20"><a xlink:href="mu__transport_8h.html" target="_top" xlink:title="mu_transport.h">
<polygon fill="white" stroke="black" points="742,-62 742,-81 824,-81 824,-62 742,-62"/>
<text text-anchor="middle" x="783" y="-69" font-family="Helvetica,sans-Serif" font-size="10.00">mu_transport.h</text>
</a>
</g>
</g>
<!-- Node2&#45;&gt;Node20 -->
<g id="edge26" class="edge"><title>Node2&#45;&gt;Node20</title>
<path fill="none" stroke="midnightblue" d="M690.625,-180.852C685.265,-164.564 680.592,-140.585 691,-123 703.806,-101.362 729.54,-88.3774 750.542,-81.005"/>
<polygon fill="midnightblue" stroke="midnightblue" points="687.362,-182.119 694.095,-190.299 693.933,-179.706 687.362,-182.119"/>
</g>
<!-- Node21 -->
<g id="node21" class="node"><title>Node21</title>
<g id="a_node21"><a xlink:href="erpc__arbitrated__client__setup_8h.html" target="_top" xlink:title="erpc_arbitrated_client\l_setup.h">
<polygon fill="white" stroke="black" points="852,-123.5 852,-153.5 962,-153.5 962,-123.5 852,-123.5"/>
<text text-anchor="start" x="860" y="-141.5" font-family="Helvetica,sans-Serif" font-size="10.00">erpc_arbitrated_client</text>
<text text-anchor="middle" x="907" y="-130.5" font-family="Helvetica,sans-Serif" font-size="10.00">_setup.h</text>
</a>
</g>
</g>
<!-- Node2&#45;&gt;Node21 -->
<g id="edge23" class="edge"><title>Node2&#45;&gt;Node21</title>
<path fill="none" stroke="midnightblue" d="M737.572,-187.734C771.682,-178.023 821.079,-163.961 857.743,-153.523"/>
<polygon fill="midnightblue" stroke="midnightblue" points="736.604,-184.371 727.945,-190.475 738.521,-191.103 736.604,-184.371"/>
</g>
<!-- Node22 -->
<g id="node22" class="node"><title>Node22</title>
<g id="a_node22"><a xlink:href="erpc__server__setup_8h.html" target="_top" xlink:title="erpc_server_setup.h">
<polygon fill="white" stroke="black" points="980,-129 980,-148 1084,-148 1084,-129 980,-129"/>
<text text-anchor="middle" x="1032" y="-136" font-family="Helvetica,sans-Serif" font-size="10.00">erpc_server_setup.h</text>
</a>
</g>
</g>
<!-- Node2&#45;&gt;Node22 -->
<g id="edge25" class="edge"><title>Node2&#45;&gt;Node22</title>
<path fill="none" stroke="midnightblue" d="M763.673,-189.494C819.118,-181.154 900.509,-168.17 971,-154 979.751,-152.241 989.154,-150.121 997.895,-148.052"/>
<polygon fill="midnightblue" stroke="midnightblue" points="763.003,-186.056 753.631,-190.997 764.039,-192.979 763.003,-186.056"/>
</g>
<!-- Node23 -->
<g id="node23" class="node"><title>Node23</title>
<g id="a_node23"><a xlink:href="rpmsg__lite__transport_8h.html" target="_top" xlink:title="rpmsg_lite_transport.h">
<polygon fill="white" stroke="black" points="1102.5,-129 1102.5,-148 1215.5,-148 1215.5,-129 1102.5,-129"/>
<text text-anchor="middle" x="1159" y="-136" font-family="Helvetica,sans-Serif" font-size="10.00">rpmsg_lite_transport.h</text>
</a>
</g>
</g>
<!-- Node2&#45;&gt;Node23 -->
<g id="edge27" class="edge"><title>Node2&#45;&gt;Node23</title>
<path fill="none" stroke="midnightblue" d="M763.769,-193.592C842.401,-186.646 977.832,-173.159 1093,-154 1102.84,-152.364 1113.42,-150.215 1123.16,-148.075"/>
<polygon fill="midnightblue" stroke="midnightblue" points="763.185,-190.13 753.528,-194.488 763.795,-197.103 763.185,-190.13"/>
</g>
<!-- Node4 -->
<g id="node4" class="node"><title>Node4</title>
<g id="a_node4"><a xlink:href="arbitrated__client__manager_8h.html" target="_top" xlink:title="arbitrated_client_manager.h">
<polygon fill="white" stroke="black" points="193.5,-62 193.5,-81 330.5,-81 330.5,-62 193.5,-62"/>
<text text-anchor="middle" x="262" y="-69" font-family="Helvetica,sans-Serif" font-size="10.00">arbitrated_client_manager.h</text>
</a>
</g>
</g>
<!-- Node3&#45;&gt;Node4 -->
<g id="edge3" class="edge"><title>Node3&#45;&gt;Node4</title>
<path fill="none" stroke="midnightblue" d="M315.153,-121.856C301.391,-109.078 282.452,-91.4915 271.291,-81.1273"/>
<polygon fill="midnightblue" stroke="midnightblue" points="312.85,-124.494 322.559,-128.734 317.613,-119.364 312.85,-124.494"/>
</g>
<!-- Node5 -->
<g id="node5" class="node"><title>Node5</title>
<g id="a_node5"><a xlink:href="transport__arbitrator_8h.html" target="_top" xlink:title="transport_arbitrator.h">
<polygon fill="white" stroke="black" points="348.5,-62 348.5,-81 455.5,-81 455.5,-62 348.5,-62"/>
<text text-anchor="middle" x="402" y="-69" font-family="Helvetica,sans-Serif" font-size="10.00">transport_arbitrator.h</text>
</a>
</g>
</g>
<!-- Node3&#45;&gt;Node5 -->
<g id="edge4" class="edge"><title>Node3&#45;&gt;Node5</title>
<path fill="none" stroke="midnightblue" d="M348.847,-121.856C362.609,-109.078 381.548,-91.4915 392.709,-81.1273"/>
<polygon fill="midnightblue" stroke="midnightblue" points="346.387,-119.364 341.441,-128.734 351.15,-124.494 346.387,-119.364"/>
</g>
<!-- Node3&#45;&gt;Node6 -->
<g id="edge5" class="edge"><title>Node3&#45;&gt;Node6</title>
<path fill="none" stroke="midnightblue" d="M294.89,-125.847C253.889,-112.973 188.838,-92.5456 152.272,-81.0637"/>
<polygon fill="midnightblue" stroke="midnightblue" points="293.923,-129.212 304.512,-128.869 296.02,-122.533 293.923,-129.212"/>
</g>
<!-- Node8 -->
<g id="node8" class="node"><title>Node8</title>
<g id="a_node8"><a xlink:href="dspi__master__transport_8h.html" target="_top" xlink:title="dspi_master_transport.h">
<polygon fill="white" stroke="black" points="394,-0.5 394,-19.5 516,-19.5 516,-0.5 394,-0.5"/>
<text text-anchor="middle" x="455" y="-7.5" font-family="Helvetica,sans-Serif" font-size="10.00">dspi_master_transport.h</text>
</a>
</g>
</g>
<!-- Node7&#45;&gt;Node8 -->
<g id="edge7" class="edge"><title>Node7&#45;&gt;Node8</title>
<path fill="none" stroke="midnightblue" d="M505.457,-55.1496C492.492,-43.8058 475.321,-28.7811 464.725,-19.5091"/>
<polygon fill="midnightblue" stroke="midnightblue" points="503.427,-58.024 513.257,-61.9751 508.036,-52.756 503.427,-58.024"/>
</g>
<!-- Node9 -->
<g id="node9" class="node"><title>Node9</title>
<g id="a_node9"><a xlink:href="dspi__slave__transport_8h.html" target="_top" xlink:title="dspi_slave_transport.h">
<polygon fill="white" stroke="black" points="534.5,-0.5 534.5,-19.5 647.5,-19.5 647.5,-0.5 534.5,-0.5"/>
<text text-anchor="middle" x="591" y="-7.5" font-family="Helvetica,sans-Serif" font-size="10.00">dspi_slave_transport.h</text>
</a>
</g>
</g>
<!-- Node7&#45;&gt;Node9 -->
<g id="edge8" class="edge"><title>Node7&#45;&gt;Node9</title>
<path fill="none" stroke="midnightblue" d="M540.543,-55.1496C553.508,-43.8058 570.679,-28.7811 581.275,-19.5091"/>
<polygon fill="midnightblue" stroke="midnightblue" points="537.964,-52.756 532.743,-61.9751 542.573,-58.024 537.964,-52.756"/>
</g>
<!-- Node10 -->
<g id="node10" class="node"><title>Node10</title>
<g id="a_node10"><a xlink:href="serial__transport_8h.html" target="_top" xlink:title="serial_transport.h">
<polygon fill="white" stroke="black" points="666,-0.5 666,-19.5 758,-19.5 758,-0.5 666,-0.5"/>
<text text-anchor="middle" x="712" y="-7.5" font-family="Helvetica,sans-Serif" font-size="10.00">serial_transport.h</text>
</a>
</g>
</g>
<!-- Node7&#45;&gt;Node10 -->
<g id="edge9" class="edge"><title>Node7&#45;&gt;Node10</title>
<path fill="none" stroke="midnightblue" d="M559.909,-58.8806C596.646,-47.3152 652.153,-29.8407 684.971,-19.5091"/>
<polygon fill="midnightblue" stroke="midnightblue" points="558.567,-55.6337 550.079,-61.9751 560.669,-62.3106 558.567,-55.6337"/>
</g>
<!-- Node11 -->
<g id="node11" class="node"><title>Node11</title>
<g id="a_node11"><a xlink:href="spi__master__transport_8h.html" target="_top" xlink:title="spi_master_transport.h">
<polygon fill="white" stroke="black" points="0,-0.5 0,-19.5 116,-19.5 116,-0.5 0,-0.5"/>
<text text-anchor="middle" x="58" y="-7.5" font-family="Helvetica,sans-Serif" font-size="10.00">spi_master_transport.h</text>
</a>
</g>
</g>
<!-- Node7&#45;&gt;Node11 -->
<g id="edge10" class="edge"><title>Node7&#45;&gt;Node11</title>
<path fill="none" stroke="midnightblue" d="M481.803,-59.6246C475.856,-58.2741 469.791,-57.0142 464,-56 314.758,-29.8601 275.43,-38.0875 125,-20 122.087,-19.6497 119.104,-19.282 116.092,-18.9037"/>
<polygon fill="midnightblue" stroke="midnightblue" points="481.091,-63.0528 491.629,-61.9556 482.707,-56.2418 481.091,-63.0528"/>
</g>
<!-- Node12 -->
<g id="node12" class="node"><title>Node12</title>
<g id="a_node12"><a xlink:href="spi__slave__transport_8h.html" target="_top" xlink:title="spi_slave_transport.h">
<polygon fill="white" stroke="black" points="134,-0.5 134,-19.5 242,-19.5 242,-0.5 134,-0.5"/>
<text text-anchor="middle" x="188" y="-7.5" font-family="Helvetica,sans-Serif" font-size="10.00">spi_slave_transport.h</text>
</a>
</g>
</g>
<!-- Node7&#45;&gt;Node12 -->
<g id="edge11" class="edge"><title>Node7&#45;&gt;Node12</title>
<path fill="none" stroke="midnightblue" d="M480.512,-59.6316C474.972,-58.3401 469.361,-57.0941 464,-56 422.615,-47.5546 309.983,-29.8008 242.074,-19.2938"/>
<polygon fill="midnightblue" stroke="midnightblue" points="479.796,-63.0592 490.336,-61.9825 481.425,-56.2514 479.796,-63.0592"/>
</g>
<!-- Node13 -->
<g id="node13" class="node"><title>Node13</title>
<g id="a_node13"><a xlink:href="tcp__transport_8h.html" target="_top" xlink:title="tcp_transport.h">
<polygon fill="white" stroke="black" points="776,-0.5 776,-19.5 858,-19.5 858,-0.5 776,-0.5"/>
<text text-anchor="middle" x="817" y="-7.5" font-family="Helvetica,sans-Serif" font-size="10.00">tcp_transport.h</text>
</a>
</g>
</g>
<!-- Node7&#45;&gt;Node13 -->
<g id="edge12" class="edge"><title>Node7&#45;&gt;Node13</title>
<path fill="none" stroke="midnightblue" d="M569.279,-59.6605C574.906,-58.3981 580.579,-57.1514 586,-56 652.144,-41.9497 729.311,-27.2586 775.603,-18.6275"/>
<polygon fill="midnightblue" stroke="midnightblue" points="568.244,-56.3064 559.266,-61.9324 569.793,-63.1329 568.244,-56.3064"/>
</g>
<!-- Node14 -->
<g id="node14" class="node"><title>Node14</title>
<g id="a_node14"><a xlink:href="uart__cmsis__transport_8h.html" target="_top" xlink:title="uart_cmsis_transport.h">
<polygon fill="white" stroke="black" points="260,-0.5 260,-19.5 376,-19.5 376,-0.5 260,-0.5"/>
<text text-anchor="middle" x="318" y="-7.5" font-family="Helvetica,sans-Serif" font-size="10.00">uart_cmsis_transport.h</text>
</a>
</g>
</g>
<!-- Node7&#45;&gt;Node14 -->
<g id="edge13" class="edge"><title>Node7&#45;&gt;Node14</title>
<path fill="none" stroke="midnightblue" d="M483.984,-59.1759C444.151,-47.6144 383.218,-29.929 347.317,-19.5091"/>
<polygon fill="midnightblue" stroke="midnightblue" points="483.049,-62.5489 493.628,-61.9751 485,-55.8263 483.049,-62.5489"/>
</g>
<!-- Node16 -->
<g id="node16" class="node"><title>Node16</title>
<g id="a_node16"><a xlink:href="simple__server_8h.html" target="_top" xlink:title="simple_server.h">
<polygon fill="white" stroke="black" points="842,-62 842,-81 926,-81 926,-62 842,-62"/>
<text text-anchor="middle" x="884" y="-69" font-family="Helvetica,sans-Serif" font-size="10.00">simple_server.h</text>
</a>
</g>
</g>
<!-- Node15&#45;&gt;Node16 -->
<g id="edge15" class="edge"><title>Node15&#45;&gt;Node16</title>
<path fill="none" stroke="midnightblue" d="M754.701,-124.794C756.153,-124.185 757.592,-123.584 759,-123 795.099,-108.012 837.294,-91.0882 862.27,-81.1325"/>
<polygon fill="midnightblue" stroke="midnightblue" points="752.957,-121.731 745.109,-128.849 755.683,-128.179 752.957,-121.731"/>
</g>
<!-- Node18&#45;&gt;Node5 -->
<g id="edge18" class="edge"><title>Node18&#45;&gt;Node5</title>
<path fill="none" stroke="midnightblue" d="M562.938,-125.601C523.879,-112.714 462.533,-92.4728 427.955,-81.0637"/>
<polygon fill="midnightblue" stroke="midnightblue" points="562.247,-129.059 572.84,-128.869 564.44,-122.411 562.247,-129.059"/>
</g>
<!-- Node18&#45;&gt;Node7 -->
<g id="edge19" class="edge"><title>Node18&#45;&gt;Node7</title>
<path fill="none" stroke="midnightblue" d="M581.126,-122.213C566.153,-109.407 545.319,-91.5884 533.087,-81.1273"/>
<polygon fill="midnightblue" stroke="midnightblue" points="578.876,-124.894 588.75,-128.734 583.426,-119.574 578.876,-124.894"/>
</g>
<!-- Node18&#45;&gt;Node13 -->
<g id="edge22" class="edge"><title>Node18&#45;&gt;Node13</title>
<path fill="none" stroke="midnightblue" d="M598.31,-118.834C598.69,-100.32 602.308,-72.408 619,-56 624.625,-50.4707 719.187,-30.673 775.564,-19.2636"/>
<polygon fill="midnightblue" stroke="midnightblue" points="594.811,-118.994 598.404,-128.961 601.811,-118.929 594.811,-118.994"/>
</g>
<!-- Node19 -->
<g id="node19" class="node"><title>Node19</title>
<g id="a_node19"><a xlink:href="inter__thread__buffer__transport_8h.html" target="_top" xlink:title="inter_thread_buffer\l_transport.h">
<polygon fill="white" stroke="black" points="628,-56.5 628,-86.5 724,-86.5 724,-56.5 628,-56.5"/>
<text text-anchor="start" x="636" y="-74.5" font-family="Helvetica,sans-Serif" font-size="10.00">inter_thread_buffer</text>
<text text-anchor="middle" x="676" y="-63.5" font-family="Helvetica,sans-Serif" font-size="10.00">_transport.h</text>
</a>
</g>
</g>
<!-- Node18&#45;&gt;Node19 -->
<g id="edge20" class="edge"><title>Node18&#45;&gt;Node19</title>
<path fill="none" stroke="midnightblue" d="M617.081,-122.237C629.857,-111.452 646.856,-97.1025 659.31,-86.589"/>
<polygon fill="midnightblue" stroke="midnightblue" points="614.768,-119.609 609.385,-128.734 619.284,-124.958 614.768,-119.609"/>
</g>
<!-- Node18&#45;&gt;Node20 -->
<g id="edge21" class="edge"><title>Node18&#45;&gt;Node20</title>
<path fill="none" stroke="midnightblue" d="M633.149,-125.436C669.651,-112.542 726.599,-92.4243 758.758,-81.0637"/>
<polygon fill="midnightblue" stroke="midnightblue" points="631.697,-122.237 623.434,-128.869 634.029,-128.838 631.697,-122.237"/>
</g>
</g>
</svg>
