<?xml version="1.0" encoding="UTF-8" standalone="no"?>
<!DOCTYPE svg PUBLIC "-//W3C//DTD SVG 1.1//EN"
 "http://www.w3.org/Graphics/SVG/1.1/DTD/svg11.dtd">
<!-- Generated by graphviz version 2.38.0 (20140413.2041)
 -->
<!-- Title: erpc_threading.h Pages: 1 -->
<svg width="1550pt" height="162pt"
 viewBox="0.00 0.00 1550.00 162.00" xmlns="http://www.w3.org/2000/svg" xmlns:xlink="http://www.w3.org/1999/xlink">
<g id="graph0" class="graph" transform="scale(1 1) rotate(0) translate(4 158)">
<title>erpc_threading.h</title>
<polygon fill="white" stroke="none" points="-4,4 -4,-158 1546,-158 1546,4 -4,4"/>
<!-- Node1 -->
<g id="node1" class="node"><title>Node1</title>
<polygon fill="#bfbfbf" stroke="black" points="967.5,-134.5 967.5,-153.5 1056.5,-153.5 1056.5,-134.5 967.5,-134.5"/>
<text text-anchor="middle" x="1012" y="-141.5" font-family="Helvetica,sans-Serif" font-size="10.00">erpc_threading.h</text>
</g>
<!-- Node2 -->
<g id="node2" class="node"><title>Node2</title>
<g id="a_node2"><a xlink:href="erpc__transport__arbitrator_8hpp.html" target="_top" xlink:title="erpc_transport_arbitrator.hpp">
<polygon fill="white" stroke="black" points="568.5,-73 568.5,-92 709.5,-92 709.5,-73 568.5,-73"/>
<text text-anchor="middle" x="639" y="-80" font-family="Helvetica,sans-Serif" font-size="10.00">erpc_transport_arbitrator.hpp</text>
</a>
</g>
</g>
<!-- Node1&#45;&gt;Node2 -->
<g id="edge1" class="edge"><title>Node1&#45;&gt;Node2</title>
<path fill="none" stroke="midnightblue" d="M957.029,-134.644C899.047,-125.776 805.038,-111.243 724,-98 712.476,-96.1169 700.084,-94.0352 688.422,-92.0507"/>
<polygon fill="midnightblue" stroke="midnightblue" points="956.658,-138.128 967.072,-136.179 957.716,-131.208 956.658,-138.128"/>
</g>
<!-- Node3 -->
<g id="node3" class="node"><title>Node3</title>
<g id="a_node3"><a xlink:href="erpc__framed__transport_8hpp.html" target="_top" xlink:title="erpc_framed_transport.hpp">
<polygon fill="white" stroke="black" points="804,-73 804,-92 936,-92 936,-73 804,-73"/>
<text text-anchor="middle" x="870" y="-80" font-family="Helvetica,sans-Serif" font-size="10.00">erpc_framed_transport.hpp</text>
</a>
</g>
</g>
<!-- Node1&#45;&gt;Node3 -->
<g id="edge2" class="edge"><title>Node1&#45;&gt;Node3</title>
<path fill="none" stroke="midnightblue" d="M982.119,-130.48C954.541,-118.924 914.332,-102.076 890.307,-92.0091"/>
<polygon fill="midnightblue" stroke="midnightblue" points="981.079,-133.839 991.655,-134.475 983.784,-127.382 981.079,-133.839"/>
</g>
<!-- Node5 -->
<g id="node5" class="node"><title>Node5</title>
<g id="a_node5"><a xlink:href="erpc__dspi__slave__transport_8hpp.html" target="_top" xlink:title="erpc_dspi_slave_transport.hpp">
<polygon fill="white" stroke="black" points="0,-6 0,-25 148,-25 148,-6 0,-6"/>
<text text-anchor="middle" x="74" y="-13" font-family="Helvetica,sans-Serif" font-size="10.00">erpc_dspi_slave_transport.hpp</text>
</a>
</g>
</g>
<!-- Node1&#45;&gt;Node5 -->
<g id="edge13" class="edge"><title>Node1&#45;&gt;Node5</title>
<path fill="none" stroke="midnightblue" d="M957.206,-142.345C902.622,-139.717 817.708,-130.173 752,-98 733.634,-89.0073 736.822,-74.995 718,-67 603.02,-18.1594 281.047,-45.771 157,-31 144.218,-29.4779 130.416,-27.2889 117.805,-25.0713"/>
<polygon fill="midnightblue" stroke="midnightblue" points="957.23,-145.849 967.368,-142.771 957.523,-138.856 957.23,-145.849"/>
</g>
<!-- Node6 -->
<g id="node6" class="node"><title>Node6</title>
<g id="a_node6"><a xlink:href="erpc__i2c__slave__transport_8hpp.html" target="_top" xlink:title="erpc_i2c_slave_transport.hpp">
<polygon fill="white" stroke="black" points="166.5,-6 166.5,-25 309.5,-25 309.5,-6 166.5,-6"/>
<text text-anchor="middle" x="238" y="-13" font-family="Helvetica,sans-Serif" font-size="10.00">erpc_i2c_slave_transport.hpp</text>
</a>
</g>
</g>
<!-- Node1&#45;&gt;Node6 -->
<g id="edge14" class="edge"><title>Node1&#45;&gt;Node6</title>
<path fill="none" stroke="midnightblue" d="M956.95,-138.026C911.884,-132.46 847.274,-121.004 795,-98 773.436,-88.5105 774.101,-75.1604 752,-67 570.43,0.0401689 509.892,-56.2888 318,-31 305.825,-29.3955 292.686,-27.2069 280.644,-25.0165"/>
<polygon fill="midnightblue" stroke="midnightblue" points="956.77,-141.529 967.111,-139.222 957.589,-134.577 956.77,-141.529"/>
</g>
<!-- Node9 -->
<g id="node9" class="node"><title>Node9</title>
<g id="a_node9"><a xlink:href="erpc__spi__slave__transport_8hpp.html" target="_top" xlink:title="erpc_spi_slave_transport.hpp">
<polygon fill="white" stroke="black" points="936.5,-6 936.5,-25 1079.5,-25 1079.5,-6 936.5,-6"/>
<text text-anchor="middle" x="1008" y="-13" font-family="Helvetica,sans-Serif" font-size="10.00">erpc_spi_slave_transport.hpp</text>
</a>
</g>
</g>
<!-- Node1&#45;&gt;Node9 -->
<g id="edge17" class="edge"><title>Node1&#45;&gt;Node9</title>
<path fill="none" stroke="midnightblue" d="M1011.41,-124.306C1010.53,-96.5761 1008.92,-45.6279 1008.28,-25.2557"/>
<polygon fill="midnightblue" stroke="midnightblue" points="1007.91,-124.421 1011.73,-134.305 1014.91,-124.199 1007.91,-124.421"/>
</g>
<!-- Node11 -->
<g id="node11" class="node"><title>Node11</title>
<g id="a_node11"><a xlink:href="erpc__tcp__transport_8hpp.html" target="_top" xlink:title="erpc_tcp_transport.hpp">
<polygon fill="white" stroke="black" points="1098,-6 1098,-25 1214,-25 1214,-6 1098,-6"/>
<text text-anchor="middle" x="1156" y="-13" font-family="Helvetica,sans-Serif" font-size="10.00">erpc_tcp_transport.hpp</text>
</a>
</g>
</g>
<!-- Node1&#45;&gt;Node11 -->
<g id="edge18" class="edge"><title>Node1&#45;&gt;Node11</title>
<path fill="none" stroke="midnightblue" d="M1018.73,-124.681C1025.66,-107.903 1037.87,-83.2742 1055,-67 1076.18,-46.8809 1106.92,-33.0743 1128.92,-25.0476"/>
<polygon fill="midnightblue" stroke="midnightblue" points="1015.31,-123.818 1014.94,-134.406 1021.83,-126.36 1015.31,-123.818"/>
</g>
<!-- Node12 -->
<g id="node12" class="node"><title>Node12</title>
<g id="a_node12"><a xlink:href="erpc__uart__cmsis__transport_8hpp.html" target="_top" xlink:title="erpc_uart_cmsis_transport.hpp">
<polygon fill="white" stroke="black" points="1232.5,-6 1232.5,-25 1383.5,-25 1383.5,-6 1232.5,-6"/>
<text text-anchor="middle" x="1308" y="-13" font-family="Helvetica,sans-Serif" font-size="10.00">erpc_uart_cmsis_transport.hpp</text>
</a>
</g>
</g>
<!-- Node1&#45;&gt;Node12 -->
<g id="edge19" class="edge"><title>Node1&#45;&gt;Node12</title>
<path fill="none" stroke="midnightblue" d="M1027.05,-127.05C1046.1,-107.197 1078.21,-74.9281 1093,-67 1121.22,-51.8724 1204.11,-34.9912 1258.34,-25.0819"/>
<polygon fill="midnightblue" stroke="midnightblue" points="1024.36,-124.798 1020,-134.453 1029.43,-129.626 1024.36,-124.798"/>
</g>
<!-- Node13 -->
<g id="node13" class="node"><title>Node13</title>
<g id="a_node13"><a xlink:href="erpc__usb__cdc__transport_8hpp.html" target="_top" xlink:title="erpc_usb_cdc_transport.hpp">
<polygon fill="white" stroke="black" points="1402,-6 1402,-25 1542,-25 1542,-6 1402,-6"/>
<text text-anchor="middle" x="1472" y="-13" font-family="Helvetica,sans-Serif" font-size="10.00">erpc_usb_cdc_transport.hpp</text>
</a>
</g>
</g>
<!-- Node1&#45;&gt;Node13 -->
<g id="edge20" class="edge"><title>Node1&#45;&gt;Node13</title>
<path fill="none" stroke="midnightblue" d="M1038.03,-129.577C1053.56,-121.184 1073.42,-109.762 1090,-98 1107.22,-85.7817 1106.74,-75.6572 1126,-67 1235.21,-17.9051 1274.75,-49.8136 1393,-31 1404.29,-29.2034 1416.46,-27.0701 1427.77,-25"/>
<polygon fill="midnightblue" stroke="midnightblue" points="1036.18,-126.601 1028.99,-134.388 1039.46,-132.781 1036.18,-126.601"/>
</g>
<!-- Node14 -->
<g id="node14" class="node"><title>Node14</title>
<g id="a_node14"><a xlink:href="erpc__inter__thread__buffer__transport_8hpp.html" target="_top" xlink:title="erpc_inter_thread_buffer\l_transport.hpp">
<polygon fill="white" stroke="black" points="1135,-67.5 1135,-97.5 1255,-97.5 1255,-67.5 1135,-67.5"/>
<text text-anchor="start" x="1143" y="-85.5" font-family="Helvetica,sans-Serif" font-size="10.00">erpc_inter_thread_buffer</text>
<text text-anchor="middle" x="1195" y="-74.5" font-family="Helvetica,sans-Serif" font-size="10.00">_transport.hpp</text>
</a>
</g>
</g>
<!-- Node1&#45;&gt;Node14 -->
<g id="edge15" class="edge"><title>Node1&#45;&gt;Node14</title>
<path fill="none" stroke="midnightblue" d="M1047.81,-131.357C1077.63,-121.662 1120.18,-107.826 1151.87,-97.523"/>
<polygon fill="midnightblue" stroke="midnightblue" points="1046.65,-128.055 1038.22,-134.475 1048.81,-134.711 1046.65,-128.055"/>
</g>
<!-- Node15 -->
<g id="node15" class="node"><title>Node15</title>
<g id="a_node15"><a xlink:href="erpc__mu__transport_8hpp.html" target="_top" xlink:title="erpc_mu_transport.hpp">
<polygon fill="white" stroke="black" points="1273,-73 1273,-92 1389,-92 1389,-73 1273,-73"/>
<text text-anchor="middle" x="1331" y="-80" font-family="Helvetica,sans-Serif" font-size="10.00">erpc_mu_transport.hpp</text>
</a>
</g>
</g>
<!-- Node1&#45;&gt;Node15 -->
<g id="edge16" class="edge"><title>Node1&#45;&gt;Node15</title>
<path fill="none" stroke="midnightblue" d="M1066.87,-133.795C1117.99,-125.078 1196.29,-111.368 1264,-98 1273.34,-96.1559 1283.39,-94.0483 1292.78,-92.0221"/>
<polygon fill="midnightblue" stroke="midnightblue" points="1065.97,-130.396 1056.7,-135.523 1067.15,-137.297 1065.97,-130.396"/>
</g>
<!-- Node4 -->
<g id="node4" class="node"><title>Node4</title>
<g id="a_node4"><a xlink:href="erpc__dspi__master__transport_8hpp.html" target="_top" xlink:title="erpc_dspi_master_transport.hpp">
<polygon fill="white" stroke="black" points="618,-6 618,-25 774,-25 774,-6 618,-6"/>
<text text-anchor="middle" x="696" y="-13" font-family="Helvetica,sans-Serif" font-size="10.00">erpc_dspi_master_transport.hpp</text>
</a>
</g>
</g>
<!-- Node3&#45;&gt;Node4 -->
<g id="edge3" class="edge"><title>Node3&#45;&gt;Node4</title>
<path fill="none" stroke="midnightblue" d="M837.263,-69.2706C802.729,-56.3699 749.206,-36.3757 718.924,-25.0637"/>
<polygon fill="midnightblue" stroke="midnightblue" points="836.302,-72.6477 846.894,-72.8685 838.751,-66.0903 836.302,-72.6477"/>
</g>
<!-- Node3&#45;&gt;Node5 -->
<g id="edge4" class="edge"><title>Node3&#45;&gt;Node5</title>
<path fill="none" stroke="midnightblue" d="M796.606,-71.7679C781.853,-70.0129 766.446,-68.3233 752,-67 488.177,-42.8326 420.126,-61.8449 157,-31 144.07,-29.4842 130.098,-27.2699 117.372,-25.0258"/>
<polygon fill="midnightblue" stroke="midnightblue" points="796.347,-75.2619 806.695,-72.9896 797.188,-68.3127 796.347,-75.2619"/>
</g>
<!-- Node3&#45;&gt;Node6 -->
<g id="edge5" class="edge"><title>Node3&#45;&gt;Node6</title>
<path fill="none" stroke="midnightblue" d="M817.281,-71.149C808.207,-69.5957 798.85,-68.1364 790,-67 581.326,-40.2037 526.674,-57.7963 318,-31 305.82,-29.4359 292.679,-27.2603 280.637,-25.0693"/>
<polygon fill="midnightblue" stroke="midnightblue" points="816.907,-74.6371 827.363,-72.9307 818.125,-67.7439 816.907,-74.6371"/>
</g>
<!-- Node7 -->
<g id="node7" class="node"><title>Node7</title>
<g id="a_node7"><a xlink:href="erpc__serial__transport_8hpp.html" target="_top" xlink:title="erpc_serial_transport.hpp">
<polygon fill="white" stroke="black" points="792,-6 792,-25 918,-25 918,-6 792,-6"/>
<text text-anchor="middle" x="855" y="-13" font-family="Helvetica,sans-Serif" font-size="10.00">erpc_serial_transport.hpp</text>
</a>
</g>
</g>
<!-- Node3&#45;&gt;Node7 -->
<g id="edge6" class="edge"><title>Node3&#45;&gt;Node7</title>
<path fill="none" stroke="midnightblue" d="M865.711,-62.9145C862.843,-50.4883 859.204,-34.7166 856.991,-25.1273"/>
<polygon fill="midnightblue" stroke="midnightblue" points="862.318,-63.7769 867.977,-72.7338 869.139,-62.2029 862.318,-63.7769"/>
</g>
<!-- Node8 -->
<g id="node8" class="node"><title>Node8</title>
<g id="a_node8"><a xlink:href="erpc__spi__master__transport_8hpp.html" target="_top" xlink:title="erpc_spi_master_transport.hpp">
<polygon fill="white" stroke="black" points="327.5,-6 327.5,-25 478.5,-25 478.5,-6 327.5,-6"/>
<text text-anchor="middle" x="403" y="-13" font-family="Helvetica,sans-Serif" font-size="10.00">erpc_spi_master_transport.hpp</text>
</a>
</g>
</g>
<!-- Node3&#45;&gt;Node8 -->
<g id="edge7" class="edge"><title>Node3&#45;&gt;Node8</title>
<path fill="none" stroke="midnightblue" d="M815.704,-71.198C807.118,-69.7021 798.328,-68.2482 790,-67 655.884,-46.8977 621.199,-50.541 487,-31 474.991,-29.2514 462.057,-27.1353 450.023,-25.0665"/>
<polygon fill="midnightblue" stroke="midnightblue" points="815.191,-74.6615 825.649,-72.9635 816.415,-67.7693 815.191,-74.6615"/>
</g>
<!-- Node3&#45;&gt;Node9 -->
<g id="edge8" class="edge"><title>Node3&#45;&gt;Node9</title>
<path fill="none" stroke="midnightblue" d="M897.72,-68.4436C925.053,-55.5691 966.054,-36.2573 989.599,-25.1672"/>
<polygon fill="midnightblue" stroke="midnightblue" points="895.881,-65.441 888.325,-72.8685 898.863,-71.7737 895.881,-65.441"/>
</g>
<!-- Node10 -->
<g id="node10" class="node"><title>Node10</title>
<g id="a_node10"><a xlink:href="erpc__spidev__master__transport_8hpp.html" target="_top" xlink:title="erpc_spidev_master\l_transport.hpp">
<polygon fill="white" stroke="black" points="496.5,-0.5 496.5,-30.5 599.5,-30.5 599.5,-0.5 496.5,-0.5"/>
<text text-anchor="start" x="504.5" y="-18.5" font-family="Helvetica,sans-Serif" font-size="10.00">erpc_spidev_master</text>
<text text-anchor="middle" x="548" y="-7.5" font-family="Helvetica,sans-Serif" font-size="10.00">_transport.hpp</text>
</a>
</g>
</g>
<!-- Node3&#45;&gt;Node10 -->
<g id="edge9" class="edge"><title>Node3&#45;&gt;Node10</title>
<path fill="none" stroke="midnightblue" d="M812.844,-71.1597C759.871,-61.406 678.936,-46.0709 609,-31 605.914,-30.335 602.745,-29.6346 599.55,-28.9153"/>
<polygon fill="midnightblue" stroke="midnightblue" points="812.26,-74.6109 822.728,-72.9745 813.524,-67.726 812.26,-74.6109"/>
</g>
<!-- Node3&#45;&gt;Node11 -->
<g id="edge10" class="edge"><title>Node3&#45;&gt;Node11</title>
<path fill="none" stroke="midnightblue" d="M917.766,-70.644C974.117,-57.8371 1066.64,-36.8091 1118.23,-25.0834"/>
<polygon fill="midnightblue" stroke="midnightblue" points="916.659,-67.3063 907.684,-72.9355 918.211,-74.1322 916.659,-67.3063"/>
</g>
<!-- Node3&#45;&gt;Node12 -->
<g id="edge11" class="edge"><title>Node3&#45;&gt;Node12</title>
<path fill="none" stroke="midnightblue" d="M943.451,-71.5778C1014.91,-61.786 1126.52,-46.1272 1223,-31 1234.83,-29.1449 1247.57,-27.0332 1259.49,-25.0065"/>
<polygon fill="midnightblue" stroke="midnightblue" points="942.639,-68.1562 933.205,-72.9791 943.588,-75.0916 942.639,-68.1562"/>
</g>
<!-- Node3&#45;&gt;Node13 -->
<g id="edge12" class="edge"><title>Node3&#45;&gt;Node13</title>
<path fill="none" stroke="midnightblue" d="M946.477,-76.1687C1048.58,-68.5827 1234.91,-53.0998 1393,-31 1404.74,-29.359 1417.39,-27.2092 1429.06,-25.0694"/>
<polygon fill="midnightblue" stroke="midnightblue" points="945.976,-72.6961 936.261,-76.9223 946.491,-79.6771 945.976,-72.6961"/>
</g>
</g>
</svg>
