<?xml version="1.0" encoding="UTF-8" standalone="no"?>
<!DOCTYPE svg PUBLIC "-//W3C//DTD SVG 1.1//EN"
 "http://www.w3.org/Graphics/SVG/1.1/DTD/svg11.dtd">
<!-- Generated by graphviz version 2.38.0 (20140413.2041)
 -->
<!-- Title: erpc_config.h Pages: 1 -->
<svg width="3015pt" height="285pt"
 viewBox="0.00 0.00 3015.00 285.00" xmlns="http://www.w3.org/2000/svg" xmlns:xlink="http://www.w3.org/1999/xlink">
<g id="graph0" class="graph" transform="scale(1 1) rotate(0) translate(4 281)">
<title>erpc_config.h</title>
<polygon fill="white" stroke="none" points="-4,4 -4,-281 3011,-281 3011,4 -4,4"/>
<!-- Node1 -->
<g id="node1" class="node"><title>Node1</title>
<polygon fill="#bfbfbf" stroke="black" points="2006,-257.5 2006,-276.5 2080,-276.5 2080,-257.5 2006,-257.5"/>
<text text-anchor="middle" x="2043" y="-264.5" font-family="Helvetica,sans-Serif" font-size="10.00">erpc_config.h</text>
</g>
<!-- Node2 -->
<g id="node2" class="node"><title>Node2</title>
<g id="a_node2"><a xlink:href="erpc__config__internal_8h_source.html" target="_top" xlink:title="erpc_config_internal.h">
<polygon fill="white" stroke="black" points="1987.5,-201.5 1987.5,-220.5 2098.5,-220.5 2098.5,-201.5 1987.5,-201.5"/>
<text text-anchor="middle" x="2043" y="-208.5" font-family="Helvetica,sans-Serif" font-size="10.00">erpc_config_internal.h</text>
</a>
</g>
</g>
<!-- Node1&#45;&gt;Node2 -->
<g id="edge1" class="edge"><title>Node1&#45;&gt;Node2</title>
<path fill="none" stroke="midnightblue" d="M2043,-246.805C2043,-237.91 2043,-227.78 2043,-220.751"/>
<polygon fill="midnightblue" stroke="midnightblue" points="2039.5,-247.083 2043,-257.083 2046.5,-247.083 2039.5,-247.083"/>
</g>
<!-- Node3 -->
<g id="node3" class="node"><title>Node3</title>
<g id="a_node3"><a xlink:href="erpc__client__server__common_8hpp.html" target="_top" xlink:title="erpc_client_server\l_common.hpp">
<polygon fill="white" stroke="black" points="2207.5,-134.5 2207.5,-164.5 2302.5,-164.5 2302.5,-134.5 2207.5,-134.5"/>
<text text-anchor="start" x="2215.5" y="-152.5" font-family="Helvetica,sans-Serif" font-size="10.00">erpc_client_server</text>
<text text-anchor="middle" x="2255" y="-141.5" font-family="Helvetica,sans-Serif" font-size="10.00">_common.hpp</text>
</a>
</g>
</g>
<!-- Node2&#45;&gt;Node3 -->
<g id="edge2" class="edge"><title>Node2&#45;&gt;Node3</title>
<path fill="none" stroke="midnightblue" d="M2083.35,-198.677C2118.7,-188.754 2170.13,-174.32 2207.47,-163.84"/>
<polygon fill="midnightblue" stroke="midnightblue" points="2082.06,-195.403 2073.37,-201.475 2083.95,-202.143 2082.06,-195.403"/>
</g>
<!-- Node7 -->
<g id="node7" class="node"><title>Node7</title>
<g id="a_node7"><a xlink:href="erpc__arbitrated__client__setup_8h.html" target="_top" xlink:title="erpc_arbitrated_client\l_setup.h">
<polygon fill="white" stroke="black" points="2617,-0.5 2617,-30.5 2727,-30.5 2727,-0.5 2617,-0.5"/>
<text text-anchor="start" x="2625" y="-18.5" font-family="Helvetica,sans-Serif" font-size="10.00">erpc_arbitrated_client</text>
<text text-anchor="middle" x="2672" y="-7.5" font-family="Helvetica,sans-Serif" font-size="10.00">_setup.h</text>
</a>
</g>
</g>
<!-- Node2&#45;&gt;Node7 -->
<g id="edge44" class="edge"><title>Node2&#45;&gt;Node7</title>
<path fill="none" stroke="midnightblue" d="M2108.62,-206.252C2164.08,-201.392 2244.83,-190.288 2311,-165 2363.06,-145.105 2370.65,-128.948 2417,-98 2436.89,-84.7164 2439.2,-76.8491 2461,-67 2468.21,-63.7433 2556.83,-43.0125 2616.9,-29.1449"/>
<polygon fill="midnightblue" stroke="midnightblue" points="2108.24,-202.771 2098.57,-207.089 2108.83,-209.747 2108.24,-202.771"/>
</g>
<!-- Node8 -->
<g id="node8" class="node"><title>Node8</title>
<g id="a_node8"><a xlink:href="erpc__client__setup_8h.html" target="_top" xlink:title="erpc_client_setup.h">
<polygon fill="white" stroke="black" points="2745.5,-6 2745.5,-25 2846.5,-25 2846.5,-6 2745.5,-6"/>
<text text-anchor="middle" x="2796" y="-13" font-family="Helvetica,sans-Serif" font-size="10.00">erpc_client_setup.h</text>
</a>
</g>
</g>
<!-- Node2&#45;&gt;Node8 -->
<g id="edge45" class="edge"><title>Node2&#45;&gt;Node8</title>
<path fill="none" stroke="midnightblue" d="M2108.88,-203.954C2172.28,-197.319 2270.55,-184.884 2354,-165 2519.76,-125.504 2711.77,-50.5563 2774.78,-25.1626"/>
<polygon fill="midnightblue" stroke="midnightblue" points="2108.21,-200.504 2098.62,-205.008 2108.93,-207.467 2108.21,-200.504"/>
</g>
<!-- Node9 -->
<g id="node9" class="node"><title>Node9</title>
<g id="a_node9"><a xlink:href="erpc__server_8hpp.html" target="_top" xlink:title="erpc_server.hpp">
<polygon fill="white" stroke="black" points="2190.5,-73 2190.5,-92 2275.5,-92 2275.5,-73 2190.5,-73"/>
<text text-anchor="middle" x="2233" y="-80" font-family="Helvetica,sans-Serif" font-size="10.00">erpc_server.hpp</text>
</a>
</g>
</g>
<!-- Node2&#45;&gt;Node9 -->
<g id="edge26" class="edge"><title>Node2&#45;&gt;Node9</title>
<path fill="none" stroke="midnightblue" d="M2083.99,-198.215C2106.15,-190.726 2133.32,-179.661 2155,-165 2186.15,-143.932 2214.45,-108.622 2226.65,-92.2842"/>
<polygon fill="midnightblue" stroke="midnightblue" points="2082.63,-194.979 2074.2,-201.404 2084.79,-201.634 2082.63,-194.979"/>
</g>
<!-- Node11 -->
<g id="node11" class="node"><title>Node11</title>
<g id="a_node11"><a xlink:href="erpc__manually__constructed_8hpp.html" target="_top" xlink:title="erpc_manually_constructed.hpp">
<polygon fill="white" stroke="black" points="2503.5,-140 2503.5,-159 2658.5,-159 2658.5,-140 2503.5,-140"/>
<text text-anchor="middle" x="2581" y="-147" font-family="Helvetica,sans-Serif" font-size="10.00">erpc_manually_constructed.hpp</text>
</a>
</g>
</g>
<!-- Node2&#45;&gt;Node11 -->
<g id="edge10" class="edge"><title>Node2&#45;&gt;Node11</title>
<path fill="none" stroke="midnightblue" d="M2108.75,-204.522C2195.86,-196.999 2354.25,-182.403 2489,-165 2502.31,-163.281 2516.66,-161.152 2529.98,-159.061"/>
<polygon fill="midnightblue" stroke="midnightblue" points="2108.4,-201.038 2098.74,-205.382 2109,-208.012 2108.4,-201.038"/>
</g>
<!-- Node12 -->
<g id="node12" class="node"><title>Node12</title>
<g id="a_node12"><a xlink:href="erpc__framed__transport_8hpp.html" target="_top" xlink:title="erpc_framed_transport.hpp">
<polygon fill="white" stroke="black" points="1111,-73 1111,-92 1243,-92 1243,-73 1111,-73"/>
<text text-anchor="middle" x="1177" y="-80" font-family="Helvetica,sans-Serif" font-size="10.00">erpc_framed_transport.hpp</text>
</a>
</g>
</g>
<!-- Node2&#45;&gt;Node12 -->
<g id="edge11" class="edge"><title>Node2&#45;&gt;Node12</title>
<path fill="none" stroke="midnightblue" d="M1977.24,-208.944C1800.07,-205.717 1321.72,-194.364 1257,-165 1221.61,-148.944 1193.52,-109.7 1182.29,-92.1862"/>
<polygon fill="midnightblue" stroke="midnightblue" points="1977.41,-212.447 1987.47,-209.127 1977.53,-205.448 1977.41,-212.447"/>
</g>
<!-- Node14 -->
<g id="node14" class="node"><title>Node14</title>
<g id="a_node14"><a xlink:href="erpc__dspi__slave__transport_8hpp.html" target="_top" xlink:title="erpc_dspi_slave_transport.hpp">
<polygon fill="white" stroke="black" points="292,-6 292,-25 440,-25 440,-6 292,-6"/>
<text text-anchor="middle" x="366" y="-13" font-family="Helvetica,sans-Serif" font-size="10.00">erpc_dspi_slave_transport.hpp</text>
</a>
</g>
</g>
<!-- Node2&#45;&gt;Node14 -->
<g id="edge47" class="edge"><title>Node2&#45;&gt;Node14</title>
<path fill="none" stroke="midnightblue" d="M1977.24,-210.15C1793.54,-210.041 1277.73,-205.985 1114,-165 1064.63,-152.641 956.18,-80.099 907,-67 709.695,-14.4484 651.572,-56.5978 449,-31 436.374,-29.4045 422.744,-27.2188 410.25,-25.0283"/>
<polygon fill="midnightblue" stroke="midnightblue" points="1977.29,-213.65 1987.29,-210.152 1977.29,-206.65 1977.29,-213.65"/>
</g>
<!-- Node15 -->
<g id="node15" class="node"><title>Node15</title>
<g id="a_node15"><a xlink:href="erpc__i2c__slave__transport_8hpp.html" target="_top" xlink:title="erpc_i2c_slave_transport.hpp">
<polygon fill="white" stroke="black" points="458.5,-6 458.5,-25 601.5,-25 601.5,-6 458.5,-6"/>
<text text-anchor="middle" x="530" y="-13" font-family="Helvetica,sans-Serif" font-size="10.00">erpc_i2c_slave_transport.hpp</text>
</a>
</g>
</g>
<!-- Node2&#45;&gt;Node15 -->
<g id="edge48" class="edge"><title>Node2&#45;&gt;Node15</title>
<path fill="none" stroke="midnightblue" d="M1977.23,-208.928C1807.79,-205.766 1359.48,-194.762 1214,-165 1089.34,-139.497 1068.94,-95.8063 945,-67 799.572,-33.1992 758.796,-52.1674 611,-31 599.121,-29.2987 586.317,-27.1527 574.473,-25.037"/>
<polygon fill="midnightblue" stroke="midnightblue" points="1977.2,-212.428 1987.26,-209.112 1977.32,-205.429 1977.2,-212.428"/>
</g>
<!-- Node16 -->
<g id="node16" class="node"><title>Node16</title>
<g id="a_node16"><a xlink:href="erpc__lpi2c__slave__transport_8hpp.html" target="_top" xlink:title="erpc_lpi2c_slave_transport.hpp">
<polygon fill="white" stroke="black" points="1229,-6 1229,-25 1379,-25 1379,-6 1229,-6"/>
<text text-anchor="middle" x="1304" y="-13" font-family="Helvetica,sans-Serif" font-size="10.00">erpc_lpi2c_slave_transport.hpp</text>
</a>
</g>
</g>
<!-- Node2&#45;&gt;Node16 -->
<g id="edge49" class="edge"><title>Node2&#45;&gt;Node16</title>
<path fill="none" stroke="midnightblue" d="M1976.98,-209.041C1815.9,-206.225 1412.1,-196.112 1360,-165 1309.61,-134.91 1304.31,-52.0888 1303.94,-25.1148"/>
<polygon fill="midnightblue" stroke="midnightblue" points="1977.17,-212.545 1987.23,-209.216 1977.29,-205.546 1977.17,-212.545"/>
</g>
<!-- Node17 -->
<g id="node17" class="node"><title>Node17</title>
<g id="a_node17"><a xlink:href="erpc__lpspi__slave__transport_8hpp.html" target="_top" xlink:title="erpc_lpspi_slave_transport.hpp">
<polygon fill="white" stroke="black" points="124,-6 124,-25 274,-25 274,-6 124,-6"/>
<text text-anchor="middle" x="199" y="-13" font-family="Helvetica,sans-Serif" font-size="10.00">erpc_lpspi_slave_transport.hpp</text>
</a>
</g>
</g>
<!-- Node2&#45;&gt;Node17 -->
<g id="edge50" class="edge"><title>Node2&#45;&gt;Node17</title>
<path fill="none" stroke="midnightblue" d="M1977.34,-210.63C1783.79,-211.924 1217.89,-211.513 1040,-165 975.965,-148.257 961.235,-135.939 907,-98 890.511,-86.4655 892.475,-74.9751 874,-67 753.197,-14.8543 413.694,-46.2139 283,-31 269.917,-29.4771 255.778,-27.2605 242.899,-25.0167"/>
<polygon fill="midnightblue" stroke="midnightblue" points="1977.4,-214.13 1987.37,-210.559 1977.35,-207.13 1977.4,-214.13"/>
</g>
<!-- Node21 -->
<g id="node21" class="node"><title>Node21</title>
<g id="a_node21"><a xlink:href="erpc__spi__slave__transport_8hpp.html" target="_top" xlink:title="erpc_spi_slave_transport.hpp">
<polygon fill="white" stroke="black" points="1397.5,-6 1397.5,-25 1540.5,-25 1540.5,-6 1397.5,-6"/>
<text text-anchor="middle" x="1469" y="-13" font-family="Helvetica,sans-Serif" font-size="10.00">erpc_spi_slave_transport.hpp</text>
</a>
</g>
</g>
<!-- Node2&#45;&gt;Node21 -->
<g id="edge58" class="edge"><title>Node2&#45;&gt;Node21</title>
<path fill="none" stroke="midnightblue" d="M1977.32,-210.242C1875.38,-209.334 1673.49,-202.397 1507,-165 1424.12,-146.383 1376.41,-167.804 1328,-98 1301.01,-59.0824 1369.7,-36.2016 1420.42,-25.0328"/>
<polygon fill="midnightblue" stroke="midnightblue" points="1977.44,-213.743 1987.46,-210.315 1977.49,-206.743 1977.44,-213.743"/>
</g>
<!-- Node24 -->
<g id="node24" class="node"><title>Node24</title>
<g id="a_node24"><a xlink:href="erpc__uart__cmsis__transport_8hpp.html" target="_top" xlink:title="erpc_uart_cmsis_transport.hpp">
<polygon fill="white" stroke="black" points="2023.5,-6 2023.5,-25 2174.5,-25 2174.5,-6 2023.5,-6"/>
<text text-anchor="middle" x="2099" y="-13" font-family="Helvetica,sans-Serif" font-size="10.00">erpc_uart_cmsis_transport.hpp</text>
</a>
</g>
</g>
<!-- Node2&#45;&gt;Node24 -->
<g id="edge59" class="edge"><title>Node2&#45;&gt;Node24</title>
<path fill="none" stroke="midnightblue" d="M2079.24,-197.154C2093.67,-190.046 2108.78,-179.622 2117,-165 2143.47,-117.915 2115.05,-49.31 2103.45,-25.2384"/>
<polygon fill="midnightblue" stroke="midnightblue" points="2077.6,-194.051 2069.93,-201.356 2080.48,-200.431 2077.6,-194.051"/>
</g>
<!-- Node25 -->
<g id="node25" class="node"><title>Node25</title>
<g id="a_node25"><a xlink:href="erpc__uart__zephyr__transport_8hpp.html" target="_top" xlink:title="erpc_uart_zephyr_transport.hpp">
<polygon fill="white" stroke="black" points="1693,-6 1693,-25 1847,-25 1847,-6 1693,-6"/>
<text text-anchor="middle" x="1770" y="-13" font-family="Helvetica,sans-Serif" font-size="10.00">erpc_uart_zephyr_transport.hpp</text>
</a>
</g>
</g>
<!-- Node2&#45;&gt;Node25 -->
<g id="edge60" class="edge"><title>Node2&#45;&gt;Node25</title>
<path fill="none" stroke="midnightblue" d="M2050.16,-191.797C2060.57,-161.98 2075.6,-102.504 2046,-67 2044.18,-64.8135 1897.75,-38.8753 1818.95,-25.0519"/>
<polygon fill="midnightblue" stroke="midnightblue" points="2046.82,-190.748 2046.63,-201.341 2053.38,-193.178 2046.82,-190.748"/>
</g>
<!-- Node26 -->
<g id="node26" class="node"><title>Node26</title>
<g id="a_node26"><a xlink:href="erpc__usb__cdc__transport_8hpp.html" target="_top" xlink:title="erpc_usb_cdc_transport.hpp">
<polygon fill="white" stroke="black" points="1865,-6 1865,-25 2005,-25 2005,-6 1865,-6"/>
<text text-anchor="middle" x="1935" y="-13" font-family="Helvetica,sans-Serif" font-size="10.00">erpc_usb_cdc_transport.hpp</text>
</a>
</g>
</g>
<!-- Node2&#45;&gt;Node26 -->
<g id="edge61" class="edge"><title>Node2&#45;&gt;Node26</title>
<path fill="none" stroke="midnightblue" d="M2060.4,-193.819C2067.63,-185.916 2075.21,-175.791 2079,-165 2093.42,-123.9 2104.19,-102.531 2079,-67 2066.66,-49.6025 2012.89,-34.1139 1974.68,-25.0142"/>
<polygon fill="midnightblue" stroke="midnightblue" points="2057.67,-191.6 2053.16,-201.185 2062.67,-196.506 2057.67,-191.6"/>
</g>
<!-- Node27 -->
<g id="node27" class="node"><title>Node27</title>
<g id="a_node27"><a xlink:href="erpc__port_8h.html" target="_top" xlink:title="erpc_port.h">
<polygon fill="white" stroke="black" points="2676.5,-140 2676.5,-159 2741.5,-159 2741.5,-140 2676.5,-140"/>
<text text-anchor="middle" x="2709" y="-147" font-family="Helvetica,sans-Serif" font-size="10.00">erpc_port.h</text>
</a>
</g>
</g>
<!-- Node2&#45;&gt;Node27 -->
<g id="edge27" class="edge"><title>Node2&#45;&gt;Node27</title>
<path fill="none" stroke="midnightblue" d="M2108.77,-210.841C2223.39,-211.072 2466.63,-206.078 2667,-165 2673.8,-163.606 2681.01,-161.4 2687.5,-159.125"/>
<polygon fill="midnightblue" stroke="midnightblue" points="2108.76,-207.341 2098.75,-210.807 2108.74,-214.341 2108.76,-207.341"/>
</g>
<!-- Node28 -->
<g id="node28" class="node"><title>Node28</title>
<g id="a_node28"><a xlink:href="erpc__setup__extensions_8h.html" target="_top" xlink:title="erpc_setup_extensions.h">
<polygon fill="white" stroke="black" points="2759.5,-140 2759.5,-159 2884.5,-159 2884.5,-140 2759.5,-140"/>
<text text-anchor="middle" x="2822" y="-147" font-family="Helvetica,sans-Serif" font-size="10.00">erpc_setup_extensions.h</text>
</a>
</g>
</g>
<!-- Node2&#45;&gt;Node28 -->
<g id="edge28" class="edge"><title>Node2&#45;&gt;Node28</title>
<path fill="none" stroke="midnightblue" d="M2108.9,-208.775C2234.25,-205.788 2515.47,-195.936 2750,-165 2761.25,-163.516 2773.38,-161.311 2784.42,-159.066"/>
<polygon fill="midnightblue" stroke="midnightblue" points="2108.62,-205.28 2098.7,-209.011 2108.78,-212.279 2108.62,-205.28"/>
</g>
<!-- Node29 -->
<g id="node29" class="node"><title>Node29</title>
<g id="a_node29"><a xlink:href="erpc__threading_8h.html" target="_top" xlink:title="erpc_threading.h">
<polygon fill="white" stroke="black" points="1516.5,-140 1516.5,-159 1605.5,-159 1605.5,-140 1516.5,-140"/>
<text text-anchor="middle" x="1561" y="-147" font-family="Helvetica,sans-Serif" font-size="10.00">erpc_threading.h</text>
</a>
</g>
</g>
<!-- Node2&#45;&gt;Node29 -->
<g id="edge29" class="edge"><title>Node2&#45;&gt;Node29</title>
<path fill="none" stroke="midnightblue" d="M1977.29,-201.888C1877.65,-189.588 1690.94,-166.54 1605.61,-156.007"/>
<polygon fill="midnightblue" stroke="midnightblue" points="1976.88,-205.365 1987.24,-203.116 1977.74,-198.418 1976.88,-205.365"/>
</g>
<!-- Node31 -->
<g id="node31" class="node"><title>Node31</title>
<g id="a_node31"><a xlink:href="erpc__mbox__zephyr__transport_8hpp.html" target="_top" xlink:title="erpc_mbox_zephyr_transport.hpp">
<polygon fill="white" stroke="black" points="1741.5,-73 1741.5,-92 1902.5,-92 1902.5,-73 1741.5,-73"/>
<text text-anchor="middle" x="1822" y="-80" font-family="Helvetica,sans-Serif" font-size="10.00">erpc_mbox_zephyr_transport.hpp</text>
</a>
</g>
</g>
<!-- Node2&#45;&gt;Node31 -->
<g id="edge51" class="edge"><title>Node2&#45;&gt;Node31</title>
<path fill="none" stroke="midnightblue" d="M2018.87,-196.186C1973.03,-169.948 1874.59,-113.601 1837,-92.0884"/>
<polygon fill="midnightblue" stroke="midnightblue" points="2017.39,-199.375 2027.81,-201.305 2020.87,-193.3 2017.39,-199.375"/>
</g>
<!-- Node32 -->
<g id="node32" class="node"><title>Node32</title>
<g id="a_node32"><a xlink:href="erpc__mu__transport_8hpp.html" target="_top" xlink:title="erpc_mu_transport.hpp">
<polygon fill="white" stroke="black" points="1921,-73 1921,-92 2037,-92 2037,-73 1921,-73"/>
<text text-anchor="middle" x="1979" y="-80" font-family="Helvetica,sans-Serif" font-size="10.00">erpc_mu_transport.hpp</text>
</a>
</g>
</g>
<!-- Node2&#45;&gt;Node32 -->
<g id="edge52" class="edge"><title>Node2&#45;&gt;Node32</title>
<path fill="none" stroke="midnightblue" d="M2033.91,-192.04C2019.97,-164.484 1993.83,-112.809 1983.43,-92.2557"/>
<polygon fill="midnightblue" stroke="midnightblue" points="2030.96,-193.962 2038.6,-201.305 2037.21,-190.802 2030.96,-193.962"/>
</g>
<!-- Node33 -->
<g id="node33" class="node"><title>Node33</title>
<g id="a_node33"><a xlink:href="erpc__server__setup_8h.html" target="_top" xlink:title="erpc_server_setup.h">
<polygon fill="white" stroke="black" points="2903,-140 2903,-159 3007,-159 3007,-140 2903,-140"/>
<text text-anchor="middle" x="2955" y="-147" font-family="Helvetica,sans-Serif" font-size="10.00">erpc_server_setup.h</text>
</a>
</g>
</g>
<!-- Node2&#45;&gt;Node33 -->
<g id="edge46" class="edge"><title>Node2&#45;&gt;Node33</title>
<path fill="none" stroke="midnightblue" d="M2108.89,-210.463C2252.25,-210.606 2602.9,-206.271 2893,-165 2902.96,-163.583 2913.67,-161.341 2923.34,-159.04"/>
<polygon fill="midnightblue" stroke="midnightblue" points="2108.53,-206.962 2098.52,-210.444 2108.51,-213.962 2108.53,-206.962"/>
</g>
<!-- Node34 -->
<g id="node34" class="node"><title>Node34</title>
<g id="a_node34"><a xlink:href="erpc__rpmsg__lite__base_8hpp.html" target="_top" xlink:title="erpc_rpmsg_lite_base.hpp">
<polygon fill="white" stroke="black" points="621.5,-140 621.5,-159 752.5,-159 752.5,-140 621.5,-140"/>
<text text-anchor="middle" x="687" y="-147" font-family="Helvetica,sans-Serif" font-size="10.00">erpc_rpmsg_lite_base.hpp</text>
</a>
</g>
</g>
<!-- Node2&#45;&gt;Node34 -->
<g id="edge53" class="edge"><title>Node2&#45;&gt;Node34</title>
<path fill="none" stroke="midnightblue" d="M1977.17,-209.494C1792.59,-207.666 1254.5,-199.539 809,-165 789.861,-163.516 769.1,-161.283 750.224,-159.012"/>
<polygon fill="midnightblue" stroke="midnightblue" points="1977.22,-212.994 1987.25,-209.591 1977.29,-205.995 1977.22,-212.994"/>
</g>
<!-- Node36 -->
<g id="node36" class="node"><title>Node36</title>
<g id="a_node36"><a xlink:href="erpc__rpmsg__lite__transport_8hpp.html" target="_top" xlink:title="erpc_rpmsg_lite_transport.hpp">
<polygon fill="white" stroke="black" points="717,-73 717,-92 865,-92 865,-73 717,-73"/>
<text text-anchor="middle" x="791" y="-80" font-family="Helvetica,sans-Serif" font-size="10.00">erpc_rpmsg_lite_transport.hpp</text>
</a>
</g>
</g>
<!-- Node2&#45;&gt;Node36 -->
<g id="edge57" class="edge"><title>Node2&#45;&gt;Node36</title>
<path fill="none" stroke="midnightblue" d="M1976.98,-210.109C1745.65,-210.128 980.315,-206.985 879,-165 841.295,-149.375 809.742,-109.902 797.022,-92.2574"/>
<polygon fill="midnightblue" stroke="midnightblue" points="1977.26,-213.609 1987.26,-210.106 1977.26,-206.609 1977.26,-213.609"/>
</g>
<!-- Node4 -->
<g id="node4" class="node"><title>Node4</title>
<g id="a_node4"><a xlink:href="erpc__client__manager_8h.html" target="_top" xlink:title="erpc_client_manager.h">
<polygon fill="white" stroke="black" points="2293.5,-73 2293.5,-92 2408.5,-92 2408.5,-73 2293.5,-73"/>
<text text-anchor="middle" x="2351" y="-80" font-family="Helvetica,sans-Serif" font-size="10.00">erpc_client_manager.h</text>
</a>
</g>
</g>
<!-- Node3&#45;&gt;Node4 -->
<g id="edge3" class="edge"><title>Node3&#45;&gt;Node4</title>
<path fill="none" stroke="midnightblue" d="M2284.33,-128.641C2302.45,-116.374 2324.77,-101.261 2338.44,-92.007"/>
<polygon fill="midnightblue" stroke="midnightblue" points="2282.15,-125.891 2275.83,-134.396 2286.07,-131.688 2282.15,-125.891"/>
</g>
<!-- Node3&#45;&gt;Node9 -->
<g id="edge8" class="edge"><title>Node3&#45;&gt;Node9</title>
<path fill="none" stroke="midnightblue" d="M2246.91,-124.596C2243.08,-113.278 2238.74,-100.461 2235.94,-92.1945"/>
<polygon fill="midnightblue" stroke="midnightblue" points="2243.71,-126.046 2250.23,-134.396 2250.34,-123.802 2243.71,-126.046"/>
</g>
<!-- Node5 -->
<g id="node5" class="node"><title>Node5</title>
<g id="a_node5"><a xlink:href="erpc__arbitrated__client__manager_8hpp.html" target="_top" xlink:title="erpc_arbitrated_client\l_manager.hpp">
<polygon fill="white" stroke="black" points="2489,-0.5 2489,-30.5 2599,-30.5 2599,-0.5 2489,-0.5"/>
<text text-anchor="start" x="2497" y="-18.5" font-family="Helvetica,sans-Serif" font-size="10.00">erpc_arbitrated_client</text>
<text text-anchor="middle" x="2544" y="-7.5" font-family="Helvetica,sans-Serif" font-size="10.00">_manager.hpp</text>
</a>
</g>
</g>
<!-- Node4&#45;&gt;Node5 -->
<g id="edge4" class="edge"><title>Node4&#45;&gt;Node5</title>
<path fill="none" stroke="midnightblue" d="M2386.24,-69.6327C2418.96,-58.6117 2467.71,-42.1933 2502.35,-30.5281"/>
<polygon fill="midnightblue" stroke="midnightblue" points="2384.99,-66.3598 2376.63,-72.8685 2387.22,-72.9937 2384.99,-66.3598"/>
</g>
<!-- Node6 -->
<g id="node6" class="node"><title>Node6</title>
<g id="a_node6"><a xlink:href="erpc__transport__arbitrator_8hpp.html" target="_top" xlink:title="erpc_transport_arbitrator.hpp">
<polygon fill="white" stroke="black" points="2329.5,-6 2329.5,-25 2470.5,-25 2470.5,-6 2329.5,-6"/>
<text text-anchor="middle" x="2400" y="-13" font-family="Helvetica,sans-Serif" font-size="10.00">erpc_transport_arbitrator.hpp</text>
</a>
</g>
</g>
<!-- Node4&#45;&gt;Node6 -->
<g id="edge5" class="edge"><title>Node4&#45;&gt;Node6</title>
<path fill="none" stroke="midnightblue" d="M2363.89,-64.4037C2373.41,-51.7729 2385.98,-35.1041 2393.5,-25.1273"/>
<polygon fill="midnightblue" stroke="midnightblue" points="2360.83,-62.6417 2357.61,-72.7338 2366.42,-66.8554 2360.83,-62.6417"/>
</g>
<!-- Node4&#45;&gt;Node7 -->
<g id="edge6" class="edge"><title>Node4&#45;&gt;Node7</title>
<path fill="none" stroke="midnightblue" d="M2403.48,-70.8902C2410.05,-69.5737 2416.68,-68.2514 2423,-67 2505.17,-50.7313 2526.03,-48.2564 2608,-31 2610.9,-30.3898 2613.87,-29.7539 2616.87,-29.104"/>
<polygon fill="midnightblue" stroke="midnightblue" points="2402.37,-67.5433 2393.25,-72.9432 2403.74,-74.4064 2402.37,-67.5433"/>
</g>
<!-- Node4&#45;&gt;Node8 -->
<g id="edge7" class="edge"><title>Node4&#45;&gt;Node8</title>
<path fill="none" stroke="midnightblue" d="M2418.7,-72.5657C2432.69,-70.723 2447.32,-68.7968 2461,-67 2583.22,-50.9454 2614.81,-53.5099 2736,-31 2744.96,-29.3366 2754.58,-27.1792 2763.44,-25.0393"/>
<polygon fill="midnightblue" stroke="midnightblue" points="2418.12,-69.1129 2408.66,-73.8897 2419.03,-76.0529 2418.12,-69.1129"/>
</g>
<!-- Node10 -->
<g id="node10" class="node"><title>Node10</title>
<g id="a_node10"><a xlink:href="erpc__simple__server_8hpp.html" target="_top" xlink:title="erpc_simple_server.hpp">
<polygon fill="white" stroke="black" points="2192.5,-6 2192.5,-25 2311.5,-25 2311.5,-6 2192.5,-6"/>
<text text-anchor="middle" x="2252" y="-13" font-family="Helvetica,sans-Serif" font-size="10.00">erpc_simple_server.hpp</text>
</a>
</g>
</g>
<!-- Node9&#45;&gt;Node10 -->
<g id="edge9" class="edge"><title>Node9&#45;&gt;Node10</title>
<path fill="none" stroke="midnightblue" d="M2238.43,-62.9145C2242.06,-50.4883 2246.68,-34.7166 2249.48,-25.1273"/>
<polygon fill="midnightblue" stroke="midnightblue" points="2235.01,-62.1535 2235.56,-72.7338 2241.73,-64.1175 2235.01,-62.1535"/>
</g>
<!-- Node13 -->
<g id="node13" class="node"><title>Node13</title>
<g id="a_node13"><a xlink:href="erpc__dspi__master__transport_8hpp.html" target="_top" xlink:title="erpc_dspi_master_transport.hpp">
<polygon fill="white" stroke="black" points="620,-6 620,-25 776,-25 776,-6 620,-6"/>
<text text-anchor="middle" x="698" y="-13" font-family="Helvetica,sans-Serif" font-size="10.00">erpc_dspi_master_transport.hpp</text>
</a>
</g>
</g>
<!-- Node12&#45;&gt;Node13 -->
<g id="edge12" class="edge"><title>Node12&#45;&gt;Node13</title>
<path fill="none" stroke="midnightblue" d="M1122.71,-71.1731C1114.12,-69.6805 1105.33,-68.2341 1097,-67 958.921,-46.5421 923.221,-50.4801 785,-31 772.567,-29.2477 759.172,-27.1303 746.708,-25.0614"/>
<polygon fill="midnightblue" stroke="midnightblue" points="1122.2,-74.6368 1132.65,-72.9367 1123.42,-67.7443 1122.2,-74.6368"/>
</g>
<!-- Node12&#45;&gt;Node14 -->
<g id="edge13" class="edge"><title>Node12&#45;&gt;Node14</title>
<path fill="none" stroke="midnightblue" d="M1100.71,-73.9503C1075.36,-71.5643 1046.98,-69.0244 1021,-67 767.045,-47.2104 701.957,-60.9635 449,-31 436.072,-29.4686 422.101,-27.2494 409.375,-25.0058"/>
<polygon fill="midnightblue" stroke="midnightblue" points="1100.71,-77.4664 1111,-74.926 1101.37,-70.4976 1100.71,-77.4664"/>
</g>
<!-- Node12&#45;&gt;Node15 -->
<g id="edge14" class="edge"><title>Node12&#45;&gt;Node15</title>
<path fill="none" stroke="midnightblue" d="M1124.89,-71.2369C1115.63,-69.6463 1106.05,-68.1519 1097,-67 882.142,-39.6481 825.887,-58.119 611,-31 598.527,-29.4259 585.058,-27.2206 572.752,-25.0041"/>
<polygon fill="midnightblue" stroke="midnightblue" points="1124.32,-74.6906 1134.78,-72.9888 1125.54,-67.7979 1124.32,-74.6906"/>
</g>
<!-- Node12&#45;&gt;Node16 -->
<g id="edge15" class="edge"><title>Node12&#45;&gt;Node16</title>
<path fill="none" stroke="midnightblue" d="M1202.84,-68.2739C1228,-55.3999 1265.49,-36.2086 1287.07,-25.1672"/>
<polygon fill="midnightblue" stroke="midnightblue" points="1201.17,-65.1968 1193.86,-72.8685 1204.36,-71.428 1201.17,-65.1968"/>
</g>
<!-- Node12&#45;&gt;Node17 -->
<g id="edge16" class="edge"><title>Node12&#45;&gt;Node17</title>
<path fill="none" stroke="midnightblue" d="M1100.25,-75.3515C1064.61,-72.6018 1021.66,-69.4383 983,-67 672.096,-47.3891 592.6,-65.5572 283,-31 269.763,-29.5225 255.451,-27.2917 242.456,-25.0199"/>
<polygon fill="midnightblue" stroke="midnightblue" points="1100.34,-78.8689 1110.58,-76.1526 1100.88,-71.8898 1100.34,-78.8689"/>
</g>
<!-- Node18 -->
<g id="node18" class="node"><title>Node18</title>
<g id="a_node18"><a xlink:href="erpc__rpmsg__tty__rtos__transport_8hpp.html" target="_top" xlink:title="erpc_rpmsg_tty_rtos\l_transport.hpp">
<polygon fill="white" stroke="black" points="0,-0.5 0,-30.5 106,-30.5 106,-0.5 0,-0.5"/>
<text text-anchor="start" x="8" y="-18.5" font-family="Helvetica,sans-Serif" font-size="10.00">erpc_rpmsg_tty_rtos</text>
<text text-anchor="middle" x="53" y="-7.5" font-family="Helvetica,sans-Serif" font-size="10.00">_transport.hpp</text>
</a>
</g>
</g>
<!-- Node12&#45;&gt;Node18 -->
<g id="edge17" class="edge"><title>Node12&#45;&gt;Node18</title>
<path fill="none" stroke="midnightblue" d="M1100.44,-77.8275C1039.18,-74.8909 951.078,-70.6722 874,-67 536.67,-50.9287 449.476,-77.6467 115,-31 112.153,-30.603 109.246,-30.1371 106.318,-29.6203"/>
<polygon fill="midnightblue" stroke="midnightblue" points="1100.64,-81.341 1110.8,-78.3239 1100.98,-74.349 1100.64,-81.341"/>
</g>
<!-- Node19 -->
<g id="node19" class="node"><title>Node19</title>
<g id="a_node19"><a xlink:href="erpc__serial__transport_8hpp.html" target="_top" xlink:title="erpc_serial_transport.hpp">
<polygon fill="white" stroke="black" points="794,-6 794,-25 920,-25 920,-6 794,-6"/>
<text text-anchor="middle" x="857" y="-13" font-family="Helvetica,sans-Serif" font-size="10.00">erpc_serial_transport.hpp</text>
</a>
</g>
</g>
<!-- Node12&#45;&gt;Node19 -->
<g id="edge18" class="edge"><title>Node12&#45;&gt;Node19</title>
<path fill="none" stroke="midnightblue" d="M1124.71,-70.8792C1061.69,-58.0772 957.033,-36.8191 899.002,-25.0317"/>
<polygon fill="midnightblue" stroke="midnightblue" points="1124.34,-74.3748 1134.84,-72.9355 1125.73,-67.5149 1124.34,-74.3748"/>
</g>
<!-- Node20 -->
<g id="node20" class="node"><title>Node20</title>
<g id="a_node20"><a xlink:href="erpc__spi__master__transport_8hpp.html" target="_top" xlink:title="erpc_spi_master_transport.hpp">
<polygon fill="white" stroke="black" points="938.5,-6 938.5,-25 1089.5,-25 1089.5,-6 938.5,-6"/>
<text text-anchor="middle" x="1014" y="-13" font-family="Helvetica,sans-Serif" font-size="10.00">erpc_spi_master_transport.hpp</text>
</a>
</g>
</g>
<!-- Node12&#45;&gt;Node20 -->
<g id="edge19" class="edge"><title>Node12&#45;&gt;Node20</title>
<path fill="none" stroke="midnightblue" d="M1145.92,-69.1041C1113.55,-56.1984 1063.72,-36.3272 1035.48,-25.0637"/>
<polygon fill="midnightblue" stroke="midnightblue" points="1144.77,-72.4154 1155.35,-72.8685 1147.36,-65.9133 1144.77,-72.4154"/>
</g>
<!-- Node12&#45;&gt;Node21 -->
<g id="edge20" class="edge"><title>Node12&#45;&gt;Node21</title>
<path fill="none" stroke="midnightblue" d="M1225.41,-70.7236C1282.91,-57.9244 1377.66,-36.8334 1430.44,-25.0834"/>
<polygon fill="midnightblue" stroke="midnightblue" points="1224.47,-67.3462 1215.47,-72.9355 1226,-74.179 1224.47,-67.3462"/>
</g>
<!-- Node22 -->
<g id="node22" class="node"><title>Node22</title>
<g id="a_node22"><a xlink:href="erpc__spidev__master__transport_8hpp.html" target="_top" xlink:title="erpc_spidev_master\l_transport.hpp">
<polygon fill="white" stroke="black" points="1107.5,-0.5 1107.5,-30.5 1210.5,-30.5 1210.5,-0.5 1107.5,-0.5"/>
<text text-anchor="start" x="1115.5" y="-18.5" font-family="Helvetica,sans-Serif" font-size="10.00">erpc_spidev_master</text>
<text text-anchor="middle" x="1159" y="-7.5" font-family="Helvetica,sans-Serif" font-size="10.00">_transport.hpp</text>
</a>
</g>
</g>
<!-- Node12&#45;&gt;Node22 -->
<g id="edge21" class="edge"><title>Node12&#45;&gt;Node22</title>
<path fill="none" stroke="midnightblue" d="M1171.89,-63.065C1169.04,-52.7534 1165.54,-40.1012 1162.9,-30.589"/>
<polygon fill="midnightblue" stroke="midnightblue" points="1168.53,-64.0306 1174.57,-72.7338 1175.28,-62.1624 1168.53,-64.0306"/>
</g>
<!-- Node23 -->
<g id="node23" class="node"><title>Node23</title>
<g id="a_node23"><a xlink:href="erpc__tcp__transport_8hpp.html" target="_top" xlink:title="erpc_tcp_transport.hpp">
<polygon fill="white" stroke="black" points="1559,-6 1559,-25 1675,-25 1675,-6 1559,-6"/>
<text text-anchor="middle" x="1617" y="-13" font-family="Helvetica,sans-Serif" font-size="10.00">erpc_tcp_transport.hpp</text>
</a>
</g>
</g>
<!-- Node12&#45;&gt;Node23 -->
<g id="edge22" class="edge"><title>Node12&#45;&gt;Node23</title>
<path fill="none" stroke="midnightblue" d="M1253.43,-72.8279C1328.81,-63.8738 1447.2,-48.7373 1549,-31 1558.87,-29.2802 1569.49,-27.1514 1579.33,-25.0596"/>
<polygon fill="midnightblue" stroke="midnightblue" points="1252.6,-69.4009 1243.08,-74.0499 1253.43,-76.3526 1252.6,-69.4009"/>
</g>
<!-- Node12&#45;&gt;Node24 -->
<g id="edge23" class="edge"><title>Node12&#45;&gt;Node24</title>
<path fill="none" stroke="midnightblue" d="M1253.18,-73.5364C1277.11,-71.2091 1303.64,-68.8079 1328,-67 1632.47,-44.403 1710.56,-64.7274 2014,-31 2027.39,-29.5116 2041.87,-27.2776 2055.02,-25.0062"/>
<polygon fill="midnightblue" stroke="midnightblue" points="1252.71,-70.0659 1243.1,-74.5274 1253.39,-77.0323 1252.71,-70.0659"/>
</g>
<!-- Node12&#45;&gt;Node25 -->
<g id="edge24" class="edge"><title>Node12&#45;&gt;Node25</title>
<path fill="none" stroke="midnightblue" d="M1253.32,-74.186C1384.44,-61.578 1642.45,-36.5654 1684,-31 1696.61,-29.3114 1710.2,-27.1698 1722.77,-25.0543"/>
<polygon fill="midnightblue" stroke="midnightblue" points="1252.96,-70.7048 1243.34,-75.1455 1253.63,-77.6726 1252.96,-70.7048"/>
</g>
<!-- Node12&#45;&gt;Node26 -->
<g id="edge25" class="edge"><title>Node12&#45;&gt;Node26</title>
<path fill="none" stroke="midnightblue" d="M1253.2,-73.7688C1277.13,-71.4521 1303.66,-68.9984 1328,-67 1562.42,-47.7566 1622.62,-60.2783 1856,-31 1868.18,-29.4725 1881.32,-27.2818 1893.32,-25.0643"/>
<polygon fill="midnightblue" stroke="midnightblue" points="1252.73,-70.2979 1243.12,-74.7516 1253.41,-77.2649 1252.73,-70.2979"/>
</g>
<!-- Node29&#45;&gt;Node6 -->
<g id="edge30" class="edge"><title>Node29&#45;&gt;Node6</title>
<path fill="none" stroke="midnightblue" d="M1599.98,-136.8C1626.75,-127.974 1662.63,-114.566 1692,-98 1711.59,-86.949 1710.95,-74.9281 1732,-67 1854.51,-20.8552 2190.03,-46.701 2320,-31 2332.47,-29.4933 2345.94,-27.2817 2358.21,-25.0374"/>
<polygon fill="midnightblue" stroke="midnightblue" points="1598.63,-133.555 1590.19,-139.955 1600.78,-140.217 1598.63,-133.555"/>
</g>
<!-- Node29&#45;&gt;Node12 -->
<g id="edge31" class="edge"><title>Node29&#45;&gt;Node12</title>
<path fill="none" stroke="midnightblue" d="M1506.07,-139.203C1431.52,-126.583 1299.35,-104.21 1227.28,-92.0108"/>
<polygon fill="midnightblue" stroke="midnightblue" points="1505.75,-142.698 1516.2,-140.916 1506.92,-135.797 1505.75,-142.698"/>
</g>
<!-- Node29&#45;&gt;Node14 -->
<g id="edge32" class="edge"><title>Node29&#45;&gt;Node14</title>
<path fill="none" stroke="midnightblue" d="M1506.08,-148.488C1412.15,-147.263 1215.24,-139.431 1055,-98 1021.27,-89.2785 1016.87,-75.178 983,-67 751.774,-11.1644 685.158,-59.5077 449,-31 436.22,-29.4573 422.419,-27.2618 409.808,-25.0446"/>
<polygon fill="midnightblue" stroke="midnightblue" points="1506.17,-151.989 1516.21,-148.599 1506.25,-144.989 1506.17,-151.989"/>
</g>
<!-- Node29&#45;&gt;Node15 -->
<g id="edge33" class="edge"><title>Node29&#45;&gt;Node15</title>
<path fill="none" stroke="midnightblue" d="M1506.11,-145.963C1400.84,-140.526 1174.6,-125.916 1102,-98 1080.01,-89.544 1081.11,-75.1319 1059,-67 871.523,1.94689 809.102,-56.6295 611,-31 598.674,-29.4053 585.371,-27.2198 573.178,-25.0293"/>
<polygon fill="midnightblue" stroke="midnightblue" points="1506.05,-149.464 1516.21,-146.476 1506.4,-142.473 1506.05,-149.464"/>
</g>
<!-- Node29&#45;&gt;Node16 -->
<g id="edge35" class="edge"><title>Node29&#45;&gt;Node16</title>
<path fill="none" stroke="midnightblue" d="M1543.24,-133.103C1516.35,-109.819 1468.19,-68.2109 1466,-67 1428.63,-46.3101 1381.62,-32.8568 1347.88,-25.08"/>
<polygon fill="midnightblue" stroke="midnightblue" points="1541.28,-136.042 1551.13,-139.944 1545.87,-130.751 1541.28,-136.042"/>
</g>
<!-- Node29&#45;&gt;Node17 -->
<g id="edge36" class="edge"><title>Node29&#45;&gt;Node17</title>
<path fill="none" stroke="midnightblue" d="M1506.18,-149.131C1402.48,-149.14 1171.13,-143.485 983,-98 947.542,-89.4272 942.581,-75.0485 907,-67 636.051,-5.71002 558.982,-62.6777 283,-31 269.915,-29.4981 255.775,-27.2879 242.896,-25.0435"/>
<polygon fill="midnightblue" stroke="midnightblue" points="1506.41,-152.631 1516.4,-149.112 1506.4,-145.631 1506.41,-152.631"/>
</g>
<!-- Node29&#45;&gt;Node21 -->
<g id="edge39" class="edge"><title>Node29&#45;&gt;Node21</title>
<path fill="none" stroke="midnightblue" d="M1549.01,-131.292C1529.07,-102.693 1489.85,-46.4101 1474.94,-25.0212"/>
<polygon fill="midnightblue" stroke="midnightblue" points="1546.37,-133.636 1554.96,-139.839 1552.12,-129.634 1546.37,-133.636"/>
</g>
<!-- Node29&#45;&gt;Node23 -->
<g id="edge40" class="edge"><title>Node29&#45;&gt;Node23</title>
<path fill="none" stroke="midnightblue" d="M1565.02,-129.436C1568.95,-112.569 1575.7,-87.5208 1585,-67 1592.11,-51.3073 1603.46,-34.7323 1610.55,-25.0175"/>
<polygon fill="midnightblue" stroke="midnightblue" points="1561.51,-129.129 1562.76,-139.65 1568.34,-130.645 1561.51,-129.129"/>
</g>
<!-- Node29&#45;&gt;Node24 -->
<g id="edge41" class="edge"><title>Node29&#45;&gt;Node24</title>
<path fill="none" stroke="midnightblue" d="M1588.04,-135.362C1607.36,-125.682 1633.75,-111.845 1656,-98 1676,-85.5531 1677.03,-75.5023 1699,-67 1830.42,-16.1476 1874.49,-50.8553 2014,-31 2026.3,-29.2492 2039.56,-27.1095 2051.86,-25.0171"/>
<polygon fill="midnightblue" stroke="midnightblue" points="1586.31,-132.311 1578.91,-139.892 1589.43,-138.582 1586.31,-132.311"/>
</g>
<!-- Node29&#45;&gt;Node25 -->
<g id="edge42" class="edge"><title>Node29&#45;&gt;Node25</title>
<path fill="none" stroke="midnightblue" d="M1570.19,-130.969C1580.66,-112.58 1599.42,-84.0335 1623,-67 1652.97,-45.349 1692.96,-32.4085 1723.66,-25.0563"/>
<polygon fill="midnightblue" stroke="midnightblue" points="1567.1,-129.321 1565.36,-139.773 1573.24,-132.685 1567.1,-129.321"/>
</g>
<!-- Node29&#45;&gt;Node26 -->
<g id="edge43" class="edge"><title>Node29&#45;&gt;Node26</title>
<path fill="none" stroke="midnightblue" d="M1579.32,-133.588C1591.66,-123.535 1608.31,-109.973 1623,-98 1639.89,-84.2287 1641.22,-76.151 1661,-67 1661.65,-66.7001 1810.69,-39.3175 1888.65,-25.005"/>
<polygon fill="midnightblue" stroke="midnightblue" points="1577.08,-130.896 1571.53,-139.924 1581.5,-136.324 1577.08,-130.896"/>
</g>
<!-- Node30 -->
<g id="node30" class="node"><title>Node30</title>
<g id="a_node30"><a xlink:href="erpc__inter__thread__buffer__transport_8hpp.html" target="_top" xlink:title="erpc_inter_thread_buffer\l_transport.hpp">
<polygon fill="white" stroke="black" points="1337,-67.5 1337,-97.5 1457,-97.5 1457,-67.5 1337,-67.5"/>
<text text-anchor="start" x="1345" y="-85.5" font-family="Helvetica,sans-Serif" font-size="10.00">erpc_inter_thread_buffer</text>
<text text-anchor="middle" x="1397" y="-74.5" font-family="Helvetica,sans-Serif" font-size="10.00">_transport.hpp</text>
</a>
</g>
</g>
<!-- Node29&#45;&gt;Node30 -->
<g id="edge34" class="edge"><title>Node29&#45;&gt;Node30</title>
<path fill="none" stroke="midnightblue" d="M1529.61,-136.058C1501.83,-125.047 1461.32,-108.992 1432.39,-97.5281"/>
<polygon fill="midnightblue" stroke="midnightblue" points="1528.64,-139.438 1539.22,-139.869 1531.22,-132.93 1528.64,-139.438"/>
</g>
<!-- Node29&#45;&gt;Node31 -->
<g id="edge37" class="edge"><title>Node29&#45;&gt;Node31</title>
<path fill="none" stroke="midnightblue" d="M1605.23,-137.484C1656.72,-124.663 1740.65,-103.76 1787.53,-92.0834"/>
<polygon fill="midnightblue" stroke="midnightblue" points="1604.25,-134.123 1595.39,-139.936 1605.94,-140.915 1604.25,-134.123"/>
</g>
<!-- Node29&#45;&gt;Node32 -->
<g id="edge38" class="edge"><title>Node29&#45;&gt;Node32</title>
<path fill="none" stroke="midnightblue" d="M1615.83,-141.74C1684.89,-132.963 1807.09,-116.553 1911,-98 1920.86,-96.2389 1931.48,-94.0956 1941.32,-92.003"/>
<polygon fill="midnightblue" stroke="midnightblue" points="1615.11,-138.304 1605.63,-143.031 1615.99,-145.249 1615.11,-138.304"/>
</g>
<!-- Node34&#45;&gt;Node18 -->
<g id="edge56" class="edge"><title>Node34&#45;&gt;Node18</title>
<path fill="none" stroke="midnightblue" d="M633.511,-138.016C532.165,-118.04 305.267,-72.7832 115,-31 112.085,-30.3598 109.095,-29.6934 106.078,-29.0133"/>
<polygon fill="midnightblue" stroke="midnightblue" points="633.014,-141.485 643.502,-139.983 634.367,-134.617 633.014,-141.485"/>
</g>
<!-- Node35 -->
<g id="node35" class="node"><title>Node35</title>
<g id="a_node35"><a xlink:href="erpc__rpmsg__lite__rtos__transport_8hpp.html" target="_top" xlink:title="erpc_rpmsg_lite_rtos\l_transport.hpp">
<polygon fill="white" stroke="black" points="591.5,-67.5 591.5,-97.5 698.5,-97.5 698.5,-67.5 591.5,-67.5"/>
<text text-anchor="start" x="599.5" y="-85.5" font-family="Helvetica,sans-Serif" font-size="10.00">erpc_rpmsg_lite_rtos</text>
<text text-anchor="middle" x="645" y="-74.5" font-family="Helvetica,sans-Serif" font-size="10.00">_transport.hpp</text>
</a>
</g>
</g>
<!-- Node34&#45;&gt;Node35 -->
<g id="edge54" class="edge"><title>Node34&#45;&gt;Node35</title>
<path fill="none" stroke="midnightblue" d="M675.715,-131.035C668.944,-120.556 660.444,-107.402 654.104,-97.589"/>
<polygon fill="midnightblue" stroke="midnightblue" points="672.969,-133.234 681.336,-139.734 678.848,-129.435 672.969,-133.234"/>
</g>
<!-- Node34&#45;&gt;Node36 -->
<g id="edge55" class="edge"><title>Node34&#45;&gt;Node36</title>
<path fill="none" stroke="midnightblue" d="M709.77,-134.269C730.356,-121.403 759.994,-102.879 777.196,-92.1273"/>
<polygon fill="midnightblue" stroke="midnightblue" points="707.651,-131.466 701.026,-139.734 711.361,-137.402 707.651,-131.466"/>
</g>
</g>
</svg>
