<?xml version="1.0" encoding="UTF-8" standalone="no"?>
<!DOCTYPE svg PUBLIC "-//W3C//DTD SVG 1.1//EN"
 "http://www.w3.org/Graphics/SVG/1.1/DTD/svg11.dtd">
<!-- Generated by graphviz version 2.38.0 (20140413.2041)
 -->
<!-- Title: erpc_usb_cdc_transport.h Pages: 1 -->
<svg width="479pt" height="319pt"
 viewBox="0.00 0.00 478.50 319.00" xmlns="http://www.w3.org/2000/svg" xmlns:xlink="http://www.w3.org/1999/xlink">
<g id="graph0" class="graph" transform="scale(1 1) rotate(0) translate(4 315)">
<title>erpc_usb_cdc_transport.h</title>
<polygon fill="white" stroke="none" points="-4,4 -4,-315 474.5,-315 474.5,4 -4,4"/>
<!-- Node1 -->
<g id="node1" class="node"><title>Node1</title>
<polygon fill="#bfbfbf" stroke="black" points="153,-291.5 153,-310.5 282,-310.5 282,-291.5 153,-291.5"/>
<text text-anchor="middle" x="217.5" y="-298.5" font-family="Helvetica,sans-Serif" font-size="10.00">erpc_usb_cdc_transport.h</text>
</g>
<!-- Node2 -->
<g id="node2" class="node"><title>Node2</title>
<g id="a_node2"><a xlink:href="erpc__config__internal_8h_source.html" target="_top" xlink:title="erpc_config_internal.h">
<polygon fill="white" stroke="black" points="0,-112.5 0,-131.5 111,-131.5 111,-112.5 0,-112.5"/>
<text text-anchor="middle" x="55.5" y="-119.5" font-family="Helvetica,sans-Serif" font-size="10.00">erpc_config_internal.h</text>
</a>
</g>
</g>
<!-- Node1&#45;&gt;Node2 -->
<g id="edge1" class="edge"><title>Node1&#45;&gt;Node2</title>
<path fill="none" stroke="midnightblue" d="M195.339,-291.452C176.847,-283.665 150.398,-270.959 130.5,-255 100.225,-230.719 92.7748,-222.237 74.5,-188 66.7147,-173.415 61.7494,-155.239 58.8551,-141.82"/>
<polygon fill="midnightblue" stroke="midnightblue" points="62.2582,-140.985 56.8946,-131.849 55.3897,-142.336 62.2582,-140.985"/>
</g>
<!-- Node4 -->
<g id="node4" class="node"><title>Node4</title>
<g id="a_node4"><a xlink:href="erpc__threading_8h.html" target="_top" xlink:title="erpc_threading.h">
<polygon fill="white" stroke="black" points="84,-168.5 84,-187.5 173,-187.5 173,-168.5 84,-168.5"/>
<text text-anchor="middle" x="128.5" y="-175.5" font-family="Helvetica,sans-Serif" font-size="10.00">erpc_threading.h</text>
</a>
</g>
</g>
<!-- Node1&#45;&gt;Node4 -->
<g id="edge3" class="edge"><title>Node1&#45;&gt;Node4</title>
<path fill="none" stroke="midnightblue" d="M195.991,-291.404C180.258,-284.03 159.625,-271.905 147.5,-255 135.392,-238.119 130.968,-214.325 129.37,-197.878"/>
<polygon fill="midnightblue" stroke="midnightblue" points="132.857,-197.566 128.655,-187.84 125.875,-198.064 132.857,-197.566"/>
</g>
<!-- Node6 -->
<g id="node6" class="node"><title>Node6</title>
<g id="a_node6"><a xlink:href="erpc__framed__transport_8h.html" target="_top" xlink:title="erpc_framed_transport.h">
<polygon fill="white" stroke="black" points="156.5,-230 156.5,-249 278.5,-249 278.5,-230 156.5,-230"/>
<text text-anchor="middle" x="217.5" y="-237" font-family="Helvetica,sans-Serif" font-size="10.00">erpc_framed_transport.h</text>
</a>
</g>
</g>
<!-- Node1&#45;&gt;Node6 -->
<g id="edge6" class="edge"><title>Node1&#45;&gt;Node6</title>
<path fill="none" stroke="midnightblue" d="M217.5,-291.475C217.5,-283.08 217.5,-269.981 217.5,-259.163"/>
<polygon fill="midnightblue" stroke="midnightblue" points="221,-259.009 217.5,-249.009 214,-259.009 221,-259.009"/>
</g>
<!-- Node13 -->
<g id="node13" class="node"><title>Node13</title>
<polygon fill="white" stroke="#bfbfbf" points="296.5,-224.5 296.5,-254.5 404.5,-254.5 404.5,-224.5 296.5,-224.5"/>
<text text-anchor="start" x="304.5" y="-242.5" font-family="Helvetica,sans-Serif" font-size="10.00">fsl_component_serial</text>
<text text-anchor="middle" x="350.5" y="-231.5" font-family="Helvetica,sans-Serif" font-size="10.00">_manager.h</text>
</g>
<!-- Node1&#45;&gt;Node13 -->
<g id="edge21" class="edge"><title>Node1&#45;&gt;Node13</title>
<path fill="none" stroke="midnightblue" d="M236.556,-291.475C255.579,-282.965 285.41,-269.619 309.777,-258.718"/>
<polygon fill="midnightblue" stroke="midnightblue" points="311.456,-261.802 319.155,-254.523 308.597,-255.412 311.456,-261.802"/>
</g>
<!-- Node14 -->
<g id="node14" class="node"><title>Node14</title>
<polygon fill="white" stroke="#bfbfbf" points="422.5,-230 422.5,-249 470.5,-249 470.5,-230 422.5,-230"/>
<text text-anchor="middle" x="446.5" y="-237" font-family="Helvetica,sans-Serif" font-size="10.00">stdlib.h</text>
</g>
<!-- Node1&#45;&gt;Node14 -->
<g id="edge22" class="edge"><title>Node1&#45;&gt;Node14</title>
<path fill="none" stroke="midnightblue" d="M266.123,-291.482C306.214,-283.832 364.283,-271.301 413.5,-255 415.371,-254.38 417.282,-253.693 419.193,-252.965"/>
<polygon fill="midnightblue" stroke="midnightblue" points="420.668,-256.143 428.585,-249.103 418.005,-249.67 420.668,-256.143"/>
</g>
<!-- Node3 -->
<g id="node3" class="node"><title>Node3</title>
<g id="a_node3"><a xlink:href="erpc__config_8h.html" target="_top" xlink:title="erpc_config.h">
<polygon fill="white" stroke="black" points="18.5,-56.5 18.5,-75.5 92.5,-75.5 92.5,-56.5 18.5,-56.5"/>
<text text-anchor="middle" x="55.5" y="-63.5" font-family="Helvetica,sans-Serif" font-size="10.00">erpc_config.h</text>
</a>
</g>
</g>
<!-- Node2&#45;&gt;Node3 -->
<g id="edge2" class="edge"><title>Node2&#45;&gt;Node3</title>
<path fill="none" stroke="midnightblue" d="M55.5,-112.083C55.5,-105.006 55.5,-94.8611 55.5,-85.9865"/>
<polygon fill="midnightblue" stroke="midnightblue" points="59.0001,-85.751 55.5,-75.7511 52.0001,-85.7511 59.0001,-85.751"/>
</g>
<!-- Node4&#45;&gt;Node2 -->
<g id="edge4" class="edge"><title>Node4&#45;&gt;Node2</title>
<path fill="none" stroke="midnightblue" d="M116.771,-168.324C105.663,-160.107 88.7578,-147.602 75.5167,-137.807"/>
<polygon fill="midnightblue" stroke="midnightblue" points="77.5631,-134.967 67.4421,-131.834 73.4001,-140.595 77.5631,-134.967"/>
</g>
<!-- Node5 -->
<g id="node5" class="node"><title>Node5</title>
<polygon fill="white" stroke="#bfbfbf" points="221,-0.5 221,-19.5 270,-19.5 270,-0.5 221,-0.5"/>
<text text-anchor="middle" x="245.5" y="-7.5" font-family="Helvetica,sans-Serif" font-size="10.00">stdint.h</text>
</g>
<!-- Node4&#45;&gt;Node5 -->
<g id="edge5" class="edge"><title>Node4&#45;&gt;Node5</title>
<path fill="none" stroke="midnightblue" d="M131.457,-168.347C138.909,-147.406 160.057,-93.0029 190.5,-56 200.025,-44.4227 212.899,-33.6972 223.798,-25.6233"/>
<polygon fill="midnightblue" stroke="midnightblue" points="225.913,-28.4138 232.013,-19.7511 221.842,-22.7191 225.913,-28.4138"/>
</g>
<!-- Node6&#45;&gt;Node2 -->
<g id="edge7" class="edge"><title>Node6&#45;&gt;Node2</title>
<path fill="none" stroke="midnightblue" d="M215.338,-229.829C211.226,-215.08 200.91,-185.053 181.5,-168 162.719,-151.5 137.46,-140.92 114.489,-134.199"/>
<polygon fill="midnightblue" stroke="midnightblue" points="115.379,-130.813 104.81,-131.548 113.53,-137.565 115.379,-130.813"/>
</g>
<!-- Node6&#45;&gt;Node4 -->
<g id="edge20" class="edge"><title>Node6&#45;&gt;Node4</title>
<path fill="none" stroke="midnightblue" d="M204.748,-229.975C190.473,-220.431 167.103,-204.807 149.992,-193.368"/>
<polygon fill="midnightblue" stroke="midnightblue" points="151.486,-190.157 141.228,-187.509 147.596,-195.977 151.486,-190.157"/>
</g>
<!-- Node7 -->
<g id="node7" class="node"><title>Node7</title>
<g id="a_node7"><a xlink:href="erpc__message__buffer_8h.html" target="_top" xlink:title="erpc_message_buffer.h">
<polygon fill="white" stroke="black" points="170,-112.5 170,-131.5 287,-131.5 287,-112.5 170,-112.5"/>
<text text-anchor="middle" x="228.5" y="-119.5" font-family="Helvetica,sans-Serif" font-size="10.00">erpc_message_buffer.h</text>
</a>
</g>
</g>
<!-- Node6&#45;&gt;Node7 -->
<g id="edge8" class="edge"><title>Node6&#45;&gt;Node7</title>
<path fill="none" stroke="midnightblue" d="M218.327,-229.819C220.095,-211.257 224.277,-167.339 226.693,-141.973"/>
<polygon fill="midnightblue" stroke="midnightblue" points="230.2,-142.069 227.664,-131.782 223.231,-141.405 230.2,-142.069"/>
</g>
<!-- Node10 -->
<g id="node10" class="node"><title>Node10</title>
<g id="a_node10"><a xlink:href="erpc__transport_8h.html" target="_top" xlink:title="erpc_transport.h">
<polygon fill="white" stroke="black" points="272,-168.5 272,-187.5 359,-187.5 359,-168.5 272,-168.5"/>
<text text-anchor="middle" x="315.5" y="-175.5" font-family="Helvetica,sans-Serif" font-size="10.00">erpc_transport.h</text>
</a>
</g>
</g>
<!-- Node6&#45;&gt;Node10 -->
<g id="edge13" class="edge"><title>Node6&#45;&gt;Node10</title>
<path fill="none" stroke="midnightblue" d="M231.541,-229.975C247.551,-220.255 273.95,-204.227 292.874,-192.737"/>
<polygon fill="midnightblue" stroke="midnightblue" points="294.754,-195.691 301.485,-187.509 291.121,-189.707 294.754,-195.691"/>
</g>
<!-- Node12 -->
<g id="node12" class="node"><title>Node12</title>
<polygon fill="white" stroke="#bfbfbf" points="381.5,-112.5 381.5,-131.5 427.5,-131.5 427.5,-112.5 381.5,-112.5"/>
<text text-anchor="middle" x="404.5" y="-119.5" font-family="Helvetica,sans-Serif" font-size="10.00">cstring</text>
</g>
<!-- Node6&#45;&gt;Node12 -->
<g id="edge19" class="edge"><title>Node6&#45;&gt;Node12</title>
<path fill="none" stroke="midnightblue" d="M251.83,-229.992C290.3,-219.94 349.631,-202.719 367.5,-188 382.34,-175.776 392.391,-155.949 398.228,-141.403"/>
<polygon fill="midnightblue" stroke="midnightblue" points="401.546,-142.521 401.742,-131.928 394.983,-140.087 401.546,-142.521"/>
</g>
<!-- Node7&#45;&gt;Node5 -->
<g id="edge12" class="edge"><title>Node7&#45;&gt;Node5</title>
<path fill="none" stroke="midnightblue" d="M218.89,-112.283C206.483,-99.9158 187.494,-76.4979 196.5,-56 201.89,-43.732 212.458,-33.3414 222.404,-25.6461"/>
<polygon fill="midnightblue" stroke="midnightblue" points="224.752,-28.2697 230.839,-19.598 220.672,-22.5811 224.752,-28.2697"/>
</g>
<!-- Node8 -->
<g id="node8" class="node"><title>Node8</title>
<g id="a_node8"><a xlink:href="erpc__common_8h_source.html" target="_top" xlink:title="erpc_common.h">
<polygon fill="white" stroke="black" points="271.5,-56.5 271.5,-75.5 357.5,-75.5 357.5,-56.5 271.5,-56.5"/>
<text text-anchor="middle" x="314.5" y="-63.5" font-family="Helvetica,sans-Serif" font-size="10.00">erpc_common.h</text>
</a>
</g>
</g>
<!-- Node7&#45;&gt;Node8 -->
<g id="edge9" class="edge"><title>Node7&#45;&gt;Node8</title>
<path fill="none" stroke="midnightblue" d="M242.317,-112.324C255.733,-103.9 276.324,-90.9709 292.086,-81.0741"/>
<polygon fill="midnightblue" stroke="midnightblue" points="294.109,-83.9364 300.717,-75.6545 290.387,-78.0081 294.109,-83.9364"/>
</g>
<!-- Node9 -->
<g id="node9" class="node"><title>Node9</title>
<polygon fill="white" stroke="#bfbfbf" points="205.5,-56.5 205.5,-75.5 253.5,-75.5 253.5,-56.5 205.5,-56.5"/>
<text text-anchor="middle" x="229.5" y="-63.5" font-family="Helvetica,sans-Serif" font-size="10.00">cstddef</text>
</g>
<!-- Node7&#45;&gt;Node9 -->
<g id="edge11" class="edge"><title>Node7&#45;&gt;Node9</title>
<path fill="none" stroke="midnightblue" d="M228.665,-112.083C228.796,-105.006 228.984,-94.8611 229.148,-85.9865"/>
<polygon fill="midnightblue" stroke="midnightblue" points="232.652,-85.8142 229.338,-75.7511 225.653,-85.6845 232.652,-85.8142"/>
</g>
<!-- Node8&#45;&gt;Node5 -->
<g id="edge10" class="edge"><title>Node8&#45;&gt;Node5</title>
<path fill="none" stroke="midnightblue" d="M303.414,-56.324C293.014,-48.1849 277.239,-35.8395 264.778,-26.0874"/>
<polygon fill="midnightblue" stroke="midnightblue" points="266.82,-23.2407 256.788,-19.8339 262.506,-28.7533 266.82,-23.2407"/>
</g>
<!-- Node10&#45;&gt;Node7 -->
<g id="edge17" class="edge"><title>Node10&#45;&gt;Node7</title>
<path fill="none" stroke="midnightblue" d="M301.522,-168.324C287.95,-159.9 267.12,-146.971 251.175,-137.074"/>
<polygon fill="midnightblue" stroke="midnightblue" points="252.786,-133.954 242.443,-131.655 249.094,-139.902 252.786,-133.954"/>
</g>
<!-- Node10&#45;&gt;Node8 -->
<g id="edge14" class="edge"><title>Node10&#45;&gt;Node8</title>
<path fill="none" stroke="midnightblue" d="M315.422,-168.368C315.26,-150.617 314.888,-109.666 314.669,-85.5974"/>
<polygon fill="midnightblue" stroke="midnightblue" points="318.169,-85.5592 314.578,-75.5914 311.169,-85.6229 318.169,-85.5592"/>
</g>
<!-- Node11 -->
<g id="node11" class="node"><title>Node11</title>
<g id="a_node11"><a xlink:href="erpc__crc16_8h.html" target="_top" xlink:title="erpc_crc16.h">
<polygon fill="white" stroke="black" points="376,-56.5 376,-75.5 449,-75.5 449,-56.5 376,-56.5"/>
<text text-anchor="middle" x="412.5" y="-63.5" font-family="Helvetica,sans-Serif" font-size="10.00">erpc_crc16.h</text>
</a>
</g>
</g>
<!-- Node10&#45;&gt;Node11 -->
<g id="edge15" class="edge"><title>Node10&#45;&gt;Node11</title>
<path fill="none" stroke="midnightblue" d="M323.226,-168.152C334.168,-155.629 354.818,-132.027 372.5,-112 380.906,-102.479 390.343,-91.8596 397.939,-83.3284"/>
<polygon fill="midnightblue" stroke="midnightblue" points="400.775,-85.4061 404.814,-75.6115 395.549,-80.7493 400.775,-85.4061"/>
</g>
<!-- Node10&#45;&gt;Node12 -->
<g id="edge18" class="edge"><title>Node10&#45;&gt;Node12</title>
<path fill="none" stroke="midnightblue" d="M329.799,-168.324C343.683,-159.9 364.992,-146.971 381.304,-137.074"/>
<polygon fill="midnightblue" stroke="midnightblue" points="383.502,-139.834 390.236,-131.655 379.871,-133.85 383.502,-139.834"/>
</g>
<!-- Node11&#45;&gt;Node5 -->
<g id="edge16" class="edge"><title>Node11&#45;&gt;Node5</title>
<path fill="none" stroke="midnightblue" d="M386.038,-56.4435C357.324,-47.1586 311.371,-32.2996 279.88,-22.117"/>
<polygon fill="midnightblue" stroke="midnightblue" points="280.796,-18.7348 270.205,-18.9883 278.643,-25.3953 280.796,-18.7348"/>
</g>
</g>
</svg>
