<?xml version="1.0" encoding="UTF-8" standalone="no"?>
<!DOCTYPE svg PUBLIC "-//W3C//DTD SVG 1.1//EN"
 "http://www.w3.org/Graphics/SVG/1.1/DTD/svg11.dtd">
<!-- Generated by graphviz version 2.38.0 (20140413.2041)
 -->
<!-- Title: erpc_rpmsg_lite_rtos_transport.h Pages: 1 -->
<svg width="479pt" height="330pt"
 viewBox="0.00 0.00 478.50 330.00" xmlns="http://www.w3.org/2000/svg" xmlns:xlink="http://www.w3.org/1999/xlink">
<g id="graph0" class="graph" transform="scale(1 1) rotate(0) translate(4 326)">
<title>erpc_rpmsg_lite_rtos_transport.h</title>
<polygon fill="white" stroke="none" points="-4,4 -4,-326 474.5,-326 474.5,4 -4,4"/>
<!-- Node1 -->
<g id="node1" class="node"><title>Node1</title>
<polygon fill="#bfbfbf" stroke="black" points="256,-291.5 256,-321.5 363,-321.5 363,-291.5 256,-291.5"/>
<text text-anchor="start" x="264" y="-309.5" font-family="Helvetica,sans-Serif" font-size="10.00">erpc_rpmsg_lite_rtos</text>
<text text-anchor="middle" x="309.5" y="-298.5" font-family="Helvetica,sans-Serif" font-size="10.00">_transport.h</text>
</g>
<!-- Node2 -->
<g id="node2" class="node"><title>Node2</title>
<g id="a_node2"><a xlink:href="erpc__message__buffer_8h.html" target="_top" xlink:title="erpc_message_buffer.h">
<polygon fill="white" stroke="black" points="0,-112.5 0,-131.5 117,-131.5 117,-112.5 0,-112.5"/>
<text text-anchor="middle" x="58.5" y="-119.5" font-family="Helvetica,sans-Serif" font-size="10.00">erpc_message_buffer.h</text>
</a>
</g>
</g>
<!-- Node1&#45;&gt;Node2 -->
<g id="edge1" class="edge"><title>Node1&#45;&gt;Node2</title>
<path fill="none" stroke="midnightblue" d="M255.738,-300.427C189.381,-290.959 79.122,-264.037 28.5,-188 18.2331,-172.579 30.0939,-153.078 41.7944,-139.478"/>
<polygon fill="midnightblue" stroke="midnightblue" points="44.625,-141.573 48.8597,-131.861 39.493,-136.812 44.625,-141.573"/>
</g>
<!-- Node6 -->
<g id="node6" class="node"><title>Node6</title>
<g id="a_node6"><a xlink:href="erpc__rpmsg__lite__base__transport_8h.html" target="_top" xlink:title="erpc_rpmsg_lite_base\l_transport.h">
<polygon fill="white" stroke="black" points="211.5,-224.5 211.5,-254.5 323.5,-254.5 323.5,-224.5 211.5,-224.5"/>
<text text-anchor="start" x="219.5" y="-242.5" font-family="Helvetica,sans-Serif" font-size="10.00">erpc_rpmsg_lite_base</text>
<text text-anchor="middle" x="267.5" y="-231.5" font-family="Helvetica,sans-Serif" font-size="10.00">_transport.h</text>
</a>
</g>
</g>
<!-- Node1&#45;&gt;Node6 -->
<g id="edge6" class="edge"><title>Node1&#45;&gt;Node6</title>
<path fill="none" stroke="midnightblue" d="M300.387,-291.396C295.048,-283.134 288.181,-272.507 282.104,-263.102"/>
<polygon fill="midnightblue" stroke="midnightblue" points="284.963,-261.076 276.596,-254.577 279.083,-264.875 284.963,-261.076"/>
</g>
<!-- Node12 -->
<g id="node12" class="node"><title>Node12</title>
<polygon fill="white" stroke="#bfbfbf" points="400.5,-168.5 400.5,-187.5 470.5,-187.5 470.5,-168.5 400.5,-168.5"/>
<text text-anchor="middle" x="435.5" y="-175.5" font-family="Helvetica,sans-Serif" font-size="10.00">rpmsg_lite.h</text>
</g>
<!-- Node1&#45;&gt;Node12 -->
<g id="edge17" class="edge"><title>Node1&#45;&gt;Node12</title>
<path fill="none" stroke="midnightblue" d="M318.012,-291.448C328.832,-274.29 348.739,-244.971 370.5,-224 382.827,-212.121 398.571,-201.135 411.477,-192.992"/>
<polygon fill="midnightblue" stroke="midnightblue" points="413.588,-195.804 420.284,-187.593 409.929,-189.836 413.588,-195.804"/>
</g>
<!-- Node14 -->
<g id="node14" class="node"><title>Node14</title>
<polygon fill="white" stroke="#bfbfbf" points="380,-230 380,-249 463,-249 463,-230 380,-230"/>
<text text-anchor="middle" x="421.5" y="-237" font-family="Helvetica,sans-Serif" font-size="10.00">rpmsg_queue.h</text>
</g>
<!-- Node1&#45;&gt;Node14 -->
<g id="edge18" class="edge"><title>Node1&#45;&gt;Node14</title>
<path fill="none" stroke="midnightblue" d="M333.802,-291.396C352.845,-280.344 379.18,-265.061 398.011,-254.132"/>
<polygon fill="midnightblue" stroke="midnightblue" points="399.95,-257.054 406.842,-249.007 396.436,-250.999 399.95,-257.054"/>
</g>
<!-- Node3 -->
<g id="node3" class="node"><title>Node3</title>
<g id="a_node3"><a xlink:href="erpc__common_8h_source.html" target="_top" xlink:title="erpc_common.h">
<polygon fill="white" stroke="black" points="106.5,-56.5 106.5,-75.5 192.5,-75.5 192.5,-56.5 106.5,-56.5"/>
<text text-anchor="middle" x="149.5" y="-63.5" font-family="Helvetica,sans-Serif" font-size="10.00">erpc_common.h</text>
</a>
</g>
</g>
<!-- Node2&#45;&gt;Node3 -->
<g id="edge2" class="edge"><title>Node2&#45;&gt;Node3</title>
<path fill="none" stroke="midnightblue" d="M73.1207,-112.324C87.4489,-103.822 109.513,-90.7288 126.249,-80.7975"/>
<polygon fill="midnightblue" stroke="midnightblue" points="128.102,-83.7677 134.916,-75.6545 124.53,-77.7478 128.102,-83.7677"/>
</g>
<!-- Node4 -->
<g id="node4" class="node"><title>Node4</title>
<polygon fill="white" stroke="#bfbfbf" points="125,-0.5 125,-19.5 174,-19.5 174,-0.5 125,-0.5"/>
<text text-anchor="middle" x="149.5" y="-7.5" font-family="Helvetica,sans-Serif" font-size="10.00">stdint.h</text>
</g>
<!-- Node2&#45;&gt;Node4 -->
<g id="edge5" class="edge"><title>Node2&#45;&gt;Node4</title>
<path fill="none" stroke="midnightblue" d="M62.5293,-112.442C68.8791,-99.4534 82.0897,-74.3356 97.5,-56 106.862,-44.8612 119.095,-34.129 129.345,-25.941"/>
<polygon fill="midnightblue" stroke="midnightblue" points="131.624,-28.6026 137.381,-19.7083 127.334,-23.0713 131.624,-28.6026"/>
</g>
<!-- Node5 -->
<g id="node5" class="node"><title>Node5</title>
<polygon fill="white" stroke="#bfbfbf" points="2.5,-56.5 2.5,-75.5 50.5,-75.5 50.5,-56.5 2.5,-56.5"/>
<text text-anchor="middle" x="26.5" y="-63.5" font-family="Helvetica,sans-Serif" font-size="10.00">cstddef</text>
</g>
<!-- Node2&#45;&gt;Node5 -->
<g id="edge4" class="edge"><title>Node2&#45;&gt;Node5</title>
<path fill="none" stroke="midnightblue" d="M53.2159,-112.083C48.789,-104.613 42.3367,-93.7244 36.8821,-84.5199"/>
<polygon fill="midnightblue" stroke="midnightblue" points="39.7949,-82.5697 31.6858,-75.7511 33.7729,-86.1383 39.7949,-82.5697"/>
</g>
<!-- Node3&#45;&gt;Node4 -->
<g id="edge3" class="edge"><title>Node3&#45;&gt;Node4</title>
<path fill="none" stroke="midnightblue" d="M149.5,-56.083C149.5,-49.0059 149.5,-38.8611 149.5,-29.9865"/>
<polygon fill="midnightblue" stroke="midnightblue" points="153,-29.751 149.5,-19.7511 146,-29.7511 153,-29.751"/>
</g>
<!-- Node7 -->
<g id="node7" class="node"><title>Node7</title>
<g id="a_node7"><a xlink:href="erpc__transport_8h.html" target="_top" xlink:title="erpc_transport.h">
<polygon fill="white" stroke="black" points="166,-168.5 166,-187.5 253,-187.5 253,-168.5 166,-168.5"/>
<text text-anchor="middle" x="209.5" y="-175.5" font-family="Helvetica,sans-Serif" font-size="10.00">erpc_transport.h</text>
</a>
</g>
</g>
<!-- Node6&#45;&gt;Node7 -->
<g id="edge7" class="edge"><title>Node6&#45;&gt;Node7</title>
<path fill="none" stroke="midnightblue" d="M253.755,-224.399C245.153,-215.575 234.048,-204.183 225.114,-195.018"/>
<polygon fill="midnightblue" stroke="midnightblue" points="227.426,-192.375 217.94,-187.658 222.414,-197.262 227.426,-192.375"/>
</g>
<!-- Node10 -->
<g id="node10" class="node"><title>Node10</title>
<g id="a_node10"><a xlink:href="erpc__config__internal_8h_source.html" target="_top" xlink:title="erpc_config_internal.h">
<polygon fill="white" stroke="black" points="271,-168.5 271,-187.5 382,-187.5 382,-168.5 271,-168.5"/>
<text text-anchor="middle" x="326.5" y="-175.5" font-family="Helvetica,sans-Serif" font-size="10.00">erpc_config_internal.h</text>
</a>
</g>
</g>
<!-- Node6&#45;&gt;Node10 -->
<g id="edge13" class="edge"><title>Node6&#45;&gt;Node10</title>
<path fill="none" stroke="midnightblue" d="M281.482,-224.399C290.232,-215.575 301.529,-204.183 310.617,-195.018"/>
<polygon fill="midnightblue" stroke="midnightblue" points="313.359,-197.223 317.915,-187.658 308.388,-192.294 313.359,-197.223"/>
</g>
<!-- Node6&#45;&gt;Node12 -->
<g id="edge15" class="edge"><title>Node6&#45;&gt;Node12</title>
<path fill="none" stroke="midnightblue" d="M307.314,-224.399C336.005,-214.238 374.31,-200.672 401.555,-191.022"/>
<polygon fill="midnightblue" stroke="midnightblue" points="402.797,-194.296 411.055,-187.658 400.46,-187.697 402.797,-194.296"/>
</g>
<!-- Node13 -->
<g id="node13" class="node"><title>Node13</title>
<polygon fill="white" stroke="#bfbfbf" points="37.5,-168.5 37.5,-187.5 147.5,-187.5 147.5,-168.5 37.5,-168.5"/>
<text text-anchor="middle" x="92.5" y="-175.5" font-family="Helvetica,sans-Serif" font-size="10.00">rpmsg_env_specific.h</text>
</g>
<!-- Node6&#45;&gt;Node13 -->
<g id="edge16" class="edge"><title>Node6&#45;&gt;Node13</title>
<path fill="none" stroke="midnightblue" d="M226.027,-224.399C195.92,-214.163 155.648,-200.47 127.23,-190.808"/>
<polygon fill="midnightblue" stroke="midnightblue" points="128.303,-187.476 117.709,-187.571 126.05,-194.104 128.303,-187.476"/>
</g>
<!-- Node7&#45;&gt;Node2 -->
<g id="edge11" class="edge"><title>Node7&#45;&gt;Node2</title>
<path fill="none" stroke="midnightblue" d="M185.574,-168.444C160.281,-159.399 120.198,-145.064 91.8202,-134.916"/>
<polygon fill="midnightblue" stroke="midnightblue" points="92.9091,-131.588 82.3145,-131.516 90.5519,-138.179 92.9091,-131.588"/>
</g>
<!-- Node7&#45;&gt;Node3 -->
<g id="edge8" class="edge"><title>Node7&#45;&gt;Node3</title>
<path fill="none" stroke="midnightblue" d="M208.21,-168.094C206.045,-155.091 200.862,-130.452 190.5,-112 184.382,-101.106 175.172,-90.6768 167.029,-82.6068"/>
<polygon fill="midnightblue" stroke="midnightblue" points="169.353,-79.9876 159.685,-75.6541 164.541,-85.0709 169.353,-79.9876"/>
</g>
<!-- Node8 -->
<g id="node8" class="node"><title>Node8</title>
<g id="a_node8"><a xlink:href="erpc__crc16_8h.html" target="_top" xlink:title="erpc_crc16.h">
<polygon fill="white" stroke="black" points="211,-56.5 211,-75.5 284,-75.5 284,-56.5 211,-56.5"/>
<text text-anchor="middle" x="247.5" y="-63.5" font-family="Helvetica,sans-Serif" font-size="10.00">erpc_crc16.h</text>
</a>
</g>
</g>
<!-- Node7&#45;&gt;Node8 -->
<g id="edge9" class="edge"><title>Node7&#45;&gt;Node8</title>
<path fill="none" stroke="midnightblue" d="M212.482,-168.368C218.642,-150.537 232.889,-109.295 241.188,-85.2717"/>
<polygon fill="midnightblue" stroke="midnightblue" points="244.575,-86.1862 244.532,-75.5914 237.959,-83.9005 244.575,-86.1862"/>
</g>
<!-- Node9 -->
<g id="node9" class="node"><title>Node9</title>
<polygon fill="white" stroke="#bfbfbf" points="135.5,-112.5 135.5,-131.5 181.5,-131.5 181.5,-112.5 135.5,-112.5"/>
<text text-anchor="middle" x="158.5" y="-119.5" font-family="Helvetica,sans-Serif" font-size="10.00">cstring</text>
</g>
<!-- Node7&#45;&gt;Node9 -->
<g id="edge12" class="edge"><title>Node7&#45;&gt;Node9</title>
<path fill="none" stroke="midnightblue" d="M201.078,-168.083C193.652,-160.22 182.648,-148.569 173.688,-139.081"/>
<polygon fill="midnightblue" stroke="midnightblue" points="176.176,-136.618 166.765,-131.751 171.087,-141.424 176.176,-136.618"/>
</g>
<!-- Node8&#45;&gt;Node4 -->
<g id="edge10" class="edge"><title>Node8&#45;&gt;Node4</title>
<path fill="none" stroke="midnightblue" d="M231.755,-56.324C216.181,-47.7428 192.123,-34.486 174.041,-24.5224"/>
<polygon fill="midnightblue" stroke="midnightblue" points="175.654,-21.4152 165.206,-19.6545 172.276,-27.546 175.654,-21.4152"/>
</g>
<!-- Node11 -->
<g id="node11" class="node"><title>Node11</title>
<g id="a_node11"><a xlink:href="erpc__config_8h.html" target="_top" xlink:title="erpc_config.h">
<polygon fill="white" stroke="black" points="289.5,-112.5 289.5,-131.5 363.5,-131.5 363.5,-112.5 289.5,-112.5"/>
<text text-anchor="middle" x="326.5" y="-119.5" font-family="Helvetica,sans-Serif" font-size="10.00">erpc_config.h</text>
</a>
</g>
</g>
<!-- Node10&#45;&gt;Node11 -->
<g id="edge14" class="edge"><title>Node10&#45;&gt;Node11</title>
<path fill="none" stroke="midnightblue" d="M326.5,-168.083C326.5,-161.006 326.5,-150.861 326.5,-141.986"/>
<polygon fill="midnightblue" stroke="midnightblue" points="330,-141.751 326.5,-131.751 323,-141.751 330,-141.751"/>
</g>
</g>
</svg>
