<?xml version="1.0" encoding="UTF-8" standalone="no"?>
<!DOCTYPE svg PUBLIC "-//W3C//DTD SVG 1.1//EN"
 "http://www.w3.org/Graphics/SVG/1.1/DTD/svg11.dtd">
<!-- Generated by graphviz version 2.38.0 (20140413.2041)
 -->
<!-- Title: erpc_inter_thread_buffer_transport.h Pages: 1 -->
<svg width="418pt" height="263pt"
 viewBox="0.00 0.00 418.38 263.00" xmlns="http://www.w3.org/2000/svg" xmlns:xlink="http://www.w3.org/1999/xlink">
<g id="graph0" class="graph" transform="scale(1 1) rotate(0) translate(4 259)">
<title>erpc_inter_thread_buffer_transport.h</title>
<polygon fill="white" stroke="none" points="-4,4 -4,-259 414.378,-259 414.378,4 -4,4"/>
<!-- Node1 -->
<g id="node1" class="node"><title>Node1</title>
<polygon fill="#bfbfbf" stroke="black" points="116,-224.5 116,-254.5 236,-254.5 236,-224.5 116,-224.5"/>
<text text-anchor="start" x="124" y="-242.5" font-family="Helvetica,sans-Serif" font-size="10.00">erpc_inter_thread_buffer</text>
<text text-anchor="middle" x="176" y="-231.5" font-family="Helvetica,sans-Serif" font-size="10.00">_transport.h</text>
</g>
<!-- Node2 -->
<g id="node2" class="node"><title>Node2</title>
<g id="a_node2"><a xlink:href="erpc__message__buffer_8h.html" target="_top" xlink:title="erpc_message_buffer.h">
<polygon fill="white" stroke="black" points="11.5,-112.5 11.5,-131.5 128.5,-131.5 128.5,-112.5 11.5,-112.5"/>
<text text-anchor="middle" x="70" y="-119.5" font-family="Helvetica,sans-Serif" font-size="10.00">erpc_message_buffer.h</text>
</a>
</g>
</g>
<!-- Node1&#45;&gt;Node2 -->
<g id="edge1" class="edge"><title>Node1&#45;&gt;Node2</title>
<path fill="none" stroke="midnightblue" d="M160.193,-224.407C149.385,-214.541 134.914,-200.871 123,-188 108.535,-172.372 93.2993,-153.386 82.895,-139.98"/>
<polygon fill="midnightblue" stroke="midnightblue" points="85.4008,-137.496 76.5326,-131.699 79.8501,-141.761 85.4008,-137.496"/>
</g>
<!-- Node6 -->
<g id="node6" class="node"><title>Node6</title>
<g id="a_node6"><a xlink:href="erpc__threading_8h.html" target="_top" xlink:title="erpc_threading.h">
<polygon fill="white" stroke="black" points="298.5,-168.5 298.5,-187.5 387.5,-187.5 387.5,-168.5 298.5,-168.5"/>
<text text-anchor="middle" x="343" y="-175.5" font-family="Helvetica,sans-Serif" font-size="10.00">erpc_threading.h</text>
</a>
</g>
</g>
<!-- Node1&#45;&gt;Node6 -->
<g id="edge6" class="edge"><title>Node1&#45;&gt;Node6</title>
<path fill="none" stroke="midnightblue" d="M215.577,-224.399C244.097,-214.238 282.174,-200.672 309.257,-191.022"/>
<polygon fill="midnightblue" stroke="midnightblue" points="310.455,-194.311 318.7,-187.658 308.105,-187.717 310.455,-194.311"/>
</g>
<!-- Node9 -->
<g id="node9" class="node"><title>Node9</title>
<g id="a_node9"><a xlink:href="erpc__transport_8h.html" target="_top" xlink:title="erpc_transport.h">
<polygon fill="white" stroke="black" points="132.5,-168.5 132.5,-187.5 219.5,-187.5 219.5,-168.5 132.5,-168.5"/>
<text text-anchor="middle" x="176" y="-175.5" font-family="Helvetica,sans-Serif" font-size="10.00">erpc_transport.h</text>
</a>
</g>
</g>
<!-- Node1&#45;&gt;Node9 -->
<g id="edge10" class="edge"><title>Node1&#45;&gt;Node9</title>
<path fill="none" stroke="midnightblue" d="M176,-224.399C176,-216.466 176,-206.458 176,-197.858"/>
<polygon fill="midnightblue" stroke="midnightblue" points="179.5,-197.658 176,-187.658 172.5,-197.658 179.5,-197.658"/>
</g>
<!-- Node3 -->
<g id="node3" class="node"><title>Node3</title>
<g id="a_node3"><a xlink:href="erpc__common_8h_source.html" target="_top" xlink:title="erpc_common.h">
<polygon fill="white" stroke="black" points="104,-56.5 104,-75.5 190,-75.5 190,-56.5 104,-56.5"/>
<text text-anchor="middle" x="147" y="-63.5" font-family="Helvetica,sans-Serif" font-size="10.00">erpc_common.h</text>
</a>
</g>
</g>
<!-- Node2&#45;&gt;Node3 -->
<g id="edge2" class="edge"><title>Node2&#45;&gt;Node3</title>
<path fill="none" stroke="midnightblue" d="M82.3714,-112.324C94.1585,-104.058 112.132,-91.4527 126.136,-81.6322"/>
<polygon fill="midnightblue" stroke="midnightblue" points="128.482,-84.2619 134.659,-75.6545 124.462,-78.5307 128.482,-84.2619"/>
</g>
<!-- Node4 -->
<g id="node4" class="node"><title>Node4</title>
<polygon fill="white" stroke="#bfbfbf" points="171.5,-0.5 171.5,-19.5 220.5,-19.5 220.5,-0.5 171.5,-0.5"/>
<text text-anchor="middle" x="196" y="-7.5" font-family="Helvetica,sans-Serif" font-size="10.00">stdint.h</text>
</g>
<!-- Node2&#45;&gt;Node4 -->
<g id="edge5" class="edge"><title>Node2&#45;&gt;Node4</title>
<path fill="none" stroke="midnightblue" d="M71.1855,-112.296C73.4693,-98.6546 79.6832,-72.1342 95,-56 112.799,-37.251 139.822,-25.7749 161.439,-19.1084"/>
<polygon fill="midnightblue" stroke="midnightblue" points="162.598,-22.4169 171.244,-16.2931 160.667,-15.6887 162.598,-22.4169"/>
</g>
<!-- Node5 -->
<g id="node5" class="node"><title>Node5</title>
<polygon fill="white" stroke="#bfbfbf" points="0,-56.5 0,-75.5 48,-75.5 48,-56.5 0,-56.5"/>
<text text-anchor="middle" x="24" y="-63.5" font-family="Helvetica,sans-Serif" font-size="10.00">cstddef</text>
</g>
<!-- Node2&#45;&gt;Node5 -->
<g id="edge4" class="edge"><title>Node2&#45;&gt;Node5</title>
<path fill="none" stroke="midnightblue" d="M62.404,-112.083C55.7725,-104.298 45.979,-92.8015 37.9419,-83.3665"/>
<polygon fill="midnightblue" stroke="midnightblue" points="40.6037,-81.0939 31.4546,-75.7511 35.275,-85.6332 40.6037,-81.0939"/>
</g>
<!-- Node3&#45;&gt;Node4 -->
<g id="edge3" class="edge"><title>Node3&#45;&gt;Node4</title>
<path fill="none" stroke="midnightblue" d="M155.091,-56.083C162.155,-48.2982 172.588,-36.8015 181.149,-27.3665"/>
<polygon fill="midnightblue" stroke="midnightblue" points="183.931,-29.5087 188.059,-19.7511 178.747,-24.8047 183.931,-29.5087"/>
</g>
<!-- Node6&#45;&gt;Node4 -->
<g id="edge9" class="edge"><title>Node6&#45;&gt;Node4</title>
<path fill="none" stroke="midnightblue" d="M364.483,-168.36C379.392,-161.09 398.111,-149.117 407,-132 418.562,-109.737 396.284,-62.7107 389,-56 366.192,-34.9877 279.801,-21.2539 230.686,-14.9674"/>
<polygon fill="midnightblue" stroke="midnightblue" points="230.872,-11.4637 220.516,-13.704 230.008,-18.4103 230.872,-11.4637"/>
</g>
<!-- Node7 -->
<g id="node7" class="node"><title>Node7</title>
<g id="a_node7"><a xlink:href="erpc__config__internal_8h_source.html" target="_top" xlink:title="erpc_config_internal.h">
<polygon fill="white" stroke="black" points="287.5,-112.5 287.5,-131.5 398.5,-131.5 398.5,-112.5 287.5,-112.5"/>
<text text-anchor="middle" x="343" y="-119.5" font-family="Helvetica,sans-Serif" font-size="10.00">erpc_config_internal.h</text>
</a>
</g>
</g>
<!-- Node6&#45;&gt;Node7 -->
<g id="edge7" class="edge"><title>Node6&#45;&gt;Node7</title>
<path fill="none" stroke="midnightblue" d="M343,-168.083C343,-161.006 343,-150.861 343,-141.986"/>
<polygon fill="midnightblue" stroke="midnightblue" points="346.5,-141.751 343,-131.751 339.5,-141.751 346.5,-141.751"/>
</g>
<!-- Node8 -->
<g id="node8" class="node"><title>Node8</title>
<g id="a_node8"><a xlink:href="erpc__config_8h.html" target="_top" xlink:title="erpc_config.h">
<polygon fill="white" stroke="black" points="306,-56.5 306,-75.5 380,-75.5 380,-56.5 306,-56.5"/>
<text text-anchor="middle" x="343" y="-63.5" font-family="Helvetica,sans-Serif" font-size="10.00">erpc_config.h</text>
</a>
</g>
</g>
<!-- Node7&#45;&gt;Node8 -->
<g id="edge8" class="edge"><title>Node7&#45;&gt;Node8</title>
<path fill="none" stroke="midnightblue" d="M343,-112.083C343,-105.006 343,-94.8611 343,-85.9865"/>
<polygon fill="midnightblue" stroke="midnightblue" points="346.5,-85.751 343,-75.7511 339.5,-85.7511 346.5,-85.751"/>
</g>
<!-- Node9&#45;&gt;Node2 -->
<g id="edge14" class="edge"><title>Node9&#45;&gt;Node2</title>
<path fill="none" stroke="midnightblue" d="M158.969,-168.324C141.97,-159.664 115.624,-146.242 96.0074,-136.249"/>
<polygon fill="midnightblue" stroke="midnightblue" points="97.4876,-133.075 86.9885,-131.655 94.3101,-139.312 97.4876,-133.075"/>
</g>
<!-- Node9&#45;&gt;Node3 -->
<g id="edge11" class="edge"><title>Node9&#45;&gt;Node3</title>
<path fill="none" stroke="midnightblue" d="M173.724,-168.368C169.023,-150.537 158.151,-109.295 151.817,-85.2717"/>
<polygon fill="midnightblue" stroke="midnightblue" points="155.199,-84.3688 149.265,-75.5914 148.43,-86.1533 155.199,-84.3688"/>
</g>
<!-- Node10 -->
<g id="node10" class="node"><title>Node10</title>
<g id="a_node10"><a xlink:href="erpc__crc16_8h.html" target="_top" xlink:title="erpc_crc16.h">
<polygon fill="white" stroke="black" points="208.5,-56.5 208.5,-75.5 281.5,-75.5 281.5,-56.5 208.5,-56.5"/>
<text text-anchor="middle" x="245" y="-63.5" font-family="Helvetica,sans-Serif" font-size="10.00">erpc_crc16.h</text>
</a>
</g>
</g>
<!-- Node9&#45;&gt;Node10 -->
<g id="edge12" class="edge"><title>Node9&#45;&gt;Node10</title>
<path fill="none" stroke="midnightblue" d="M180.722,-168.466C187.72,-155.926 201.38,-131.858 214,-112 219.979,-102.592 227,-92.3403 232.847,-84.0013"/>
<polygon fill="midnightblue" stroke="midnightblue" points="235.707,-86.0186 238.626,-75.8337 229.993,-81.9754 235.707,-86.0186"/>
</g>
<!-- Node11 -->
<g id="node11" class="node"><title>Node11</title>
<polygon fill="white" stroke="#bfbfbf" points="223,-112.5 223,-131.5 269,-131.5 269,-112.5 223,-112.5"/>
<text text-anchor="middle" x="246" y="-119.5" font-family="Helvetica,sans-Serif" font-size="10.00">cstring</text>
</g>
<!-- Node9&#45;&gt;Node11 -->
<g id="edge15" class="edge"><title>Node9&#45;&gt;Node11</title>
<path fill="none" stroke="midnightblue" d="M187.247,-168.324C197.797,-160.185 213.801,-147.839 226.442,-138.087"/>
<polygon fill="midnightblue" stroke="midnightblue" points="228.769,-140.713 234.549,-131.834 224.493,-135.171 228.769,-140.713"/>
</g>
<!-- Node10&#45;&gt;Node4 -->
<g id="edge13" class="edge"><title>Node10&#45;&gt;Node4</title>
<path fill="none" stroke="midnightblue" d="M236.909,-56.083C229.845,-48.2982 219.412,-36.8015 210.851,-27.3665"/>
<polygon fill="midnightblue" stroke="midnightblue" points="213.253,-24.8047 203.941,-19.7511 208.069,-29.5087 213.253,-24.8047"/>
</g>
</g>
</svg>
