<?xml version="1.0" encoding="UTF-8" standalone="no"?>
<!DOCTYPE svg PUBLIC "-//W3C//DTD SVG 1.1//EN"
 "http://www.w3.org/Graphics/SVG/1.1/DTD/svg11.dtd">
<!-- Generated by graphviz version 2.38.0 (20140413.2041)
 -->
<!-- Title: erpc_client_setup.h Pages: 1 -->
<svg width="602pt" height="364pt"
 viewBox="0.00 0.00 602.00 364.00" xmlns="http://www.w3.org/2000/svg" xmlns:xlink="http://www.w3.org/1999/xlink">
<g id="graph0" class="graph" transform="scale(1 1) rotate(0) translate(4 360)">
<title>erpc_client_setup.h</title>
<polygon fill="white" stroke="none" points="-4,4 -4,-360 598,-360 598,4 -4,4"/>
<!-- Node1 -->
<g id="node1" class="node"><title>Node1</title>
<polygon fill="#bfbfbf" stroke="black" points="336.5,-336.5 336.5,-355.5 437.5,-355.5 437.5,-336.5 336.5,-336.5"/>
<text text-anchor="middle" x="387" y="-343.5" font-family="Helvetica,sans-Serif" font-size="10.00">erpc_client_setup.h</text>
</g>
<!-- Node2 -->
<g id="node2" class="node"><title>Node2</title>
<g id="a_node2"><a xlink:href="erpc__common_8h_source.html" target="_top" xlink:title="erpc_common.h">
<polygon fill="white" stroke="black" points="126,-56.5 126,-75.5 212,-75.5 212,-56.5 126,-56.5"/>
<text text-anchor="middle" x="169" y="-63.5" font-family="Helvetica,sans-Serif" font-size="10.00">erpc_common.h</text>
</a>
</g>
</g>
<!-- Node1&#45;&gt;Node2 -->
<g id="edge1" class="edge"><title>Node1&#45;&gt;Node2</title>
<path fill="none" stroke="midnightblue" d="M336.407,-341.268C231.506,-332.136 0,-304.15 0,-235 0,-235 0,-235 0,-177 0,-120.831 66.3844,-91.8603 115.941,-78.0588"/>
<polygon fill="midnightblue" stroke="midnightblue" points="117.145,-81.3607 125.917,-75.4184 115.354,-74.5937 117.145,-81.3607"/>
</g>
<!-- Node3 -->
<g id="node3" class="node"><title>Node3</title>
<polygon fill="white" stroke="#bfbfbf" points="359.5,-0.5 359.5,-19.5 408.5,-19.5 408.5,-0.5 359.5,-0.5"/>
<text text-anchor="middle" x="384" y="-7.5" font-family="Helvetica,sans-Serif" font-size="10.00">stdint.h</text>
</g>
<!-- Node1&#45;&gt;Node3 -->
<g id="edge25" class="edge"><title>Node1&#45;&gt;Node3</title>
<path fill="none" stroke="midnightblue" d="M391.958,-336.026C411.47,-299.44 479.704,-158.623 434,-56 428.432,-43.4981 417.484,-33.0124 407.249,-25.3167"/>
<polygon fill="midnightblue" stroke="midnightblue" points="409.156,-22.3794 398.952,-19.5256 405.149,-28.1193 409.156,-22.3794"/>
</g>
<!-- Node4 -->
<g id="node4" class="node"><title>Node4</title>
<g id="a_node4"><a xlink:href="erpc__config__internal_8h_source.html" target="_top" xlink:title="erpc_config_internal.h">
<polygon fill="white" stroke="black" points="138.5,-224.5 138.5,-243.5 249.5,-243.5 249.5,-224.5 138.5,-224.5"/>
<text text-anchor="middle" x="194" y="-231.5" font-family="Helvetica,sans-Serif" font-size="10.00">erpc_config_internal.h</text>
</a>
</g>
</g>
<!-- Node1&#45;&gt;Node4 -->
<g id="edge3" class="edge"><title>Node1&#45;&gt;Node4</title>
<path fill="none" stroke="midnightblue" d="M336.21,-338.437C305.443,-332.448 266.726,-321.144 238,-300 221.414,-287.792 209.077,-267.346 201.752,-252.642"/>
<polygon fill="midnightblue" stroke="midnightblue" points="204.905,-251.121 197.492,-243.552 198.567,-254.092 204.905,-251.121"/>
</g>
<!-- Node6 -->
<g id="node6" class="node"><title>Node6</title>
<g id="a_node6"><a xlink:href="erpc__mbf__setup_8h.html" target="_top" xlink:title="erpc_mbf_setup.h">
<polygon fill="white" stroke="black" points="478,-280.5 478,-299.5 572,-299.5 572,-280.5 478,-280.5"/>
<text text-anchor="middle" x="525" y="-287.5" font-family="Helvetica,sans-Serif" font-size="10.00">erpc_mbf_setup.h</text>
</a>
</g>
</g>
<!-- Node1&#45;&gt;Node6 -->
<g id="edge5" class="edge"><title>Node1&#45;&gt;Node6</title>
<path fill="none" stroke="midnightblue" d="M408.867,-336.444C431.779,-327.478 467.975,-313.314 493.866,-303.183"/>
<polygon fill="midnightblue" stroke="midnightblue" points="495.199,-306.42 503.236,-299.516 492.648,-299.901 495.199,-306.42"/>
</g>
<!-- Node7 -->
<g id="node7" class="node"><title>Node7</title>
<g id="a_node7"><a xlink:href="erpc__transport__setup_8h.html" target="_top" xlink:title="erpc_transport_setup.h">
<polygon fill="white" stroke="black" points="478,-224.5 478,-243.5 594,-243.5 594,-224.5 478,-224.5"/>
<text text-anchor="middle" x="536" y="-231.5" font-family="Helvetica,sans-Serif" font-size="10.00">erpc_transport_setup.h</text>
</a>
</g>
</g>
<!-- Node1&#45;&gt;Node7 -->
<g id="edge24" class="edge"><title>Node1&#45;&gt;Node7</title>
<path fill="none" stroke="midnightblue" d="M437.794,-340.288C489.16,-334.348 563.416,-322.129 581,-300 594.208,-283.378 575.024,-263.111 557.771,-249.673"/>
<polygon fill="midnightblue" stroke="midnightblue" points="559.737,-246.774 549.607,-243.671 555.591,-252.414 559.737,-246.774"/>
</g>
<!-- Node8 -->
<g id="node8" class="node"><title>Node8</title>
<g id="a_node8"><a xlink:href="erpc__client__manager_8h.html" target="_top" xlink:title="erpc_client_manager.h">
<polygon fill="white" stroke="black" points="247.5,-280.5 247.5,-299.5 362.5,-299.5 362.5,-280.5 247.5,-280.5"/>
<text text-anchor="middle" x="305" y="-287.5" font-family="Helvetica,sans-Serif" font-size="10.00">erpc_client_manager.h</text>
</a>
</g>
</g>
<!-- Node1&#45;&gt;Node8 -->
<g id="edge8" class="edge"><title>Node1&#45;&gt;Node8</title>
<path fill="none" stroke="midnightblue" d="M373.825,-336.324C361.153,-327.979 341.767,-315.212 326.794,-305.352"/>
<polygon fill="midnightblue" stroke="midnightblue" points="328.419,-302.231 318.142,-299.655 324.569,-308.078 328.419,-302.231"/>
</g>
<!-- Node2&#45;&gt;Node3 -->
<g id="edge2" class="edge"><title>Node2&#45;&gt;Node3</title>
<path fill="none" stroke="midnightblue" d="M203.067,-56.4435C243.152,-46.3758 309.329,-29.7547 349.57,-19.6476"/>
<polygon fill="midnightblue" stroke="midnightblue" points="350.608,-22.9955 359.455,-17.1649 348.903,-16.2064 350.608,-22.9955"/>
</g>
<!-- Node5 -->
<g id="node5" class="node"><title>Node5</title>
<g id="a_node5"><a xlink:href="erpc__config_8h.html" target="_top" xlink:title="erpc_config.h">
<polygon fill="white" stroke="black" points="28,-168.5 28,-187.5 102,-187.5 102,-168.5 28,-168.5"/>
<text text-anchor="middle" x="65" y="-175.5" font-family="Helvetica,sans-Serif" font-size="10.00">erpc_config.h</text>
</a>
</g>
</g>
<!-- Node4&#45;&gt;Node5 -->
<g id="edge4" class="edge"><title>Node4&#45;&gt;Node5</title>
<path fill="none" stroke="midnightblue" d="M173.56,-224.444C152.33,-215.557 118.901,-201.563 94.745,-191.451"/>
<polygon fill="midnightblue" stroke="midnightblue" points="95.9207,-188.149 85.3448,-187.516 93.2177,-194.606 95.9207,-188.149"/>
</g>
<!-- Node6&#45;&gt;Node7 -->
<g id="edge6" class="edge"><title>Node6&#45;&gt;Node7</title>
<path fill="none" stroke="midnightblue" d="M526.816,-280.083C528.274,-272.927 530.371,-262.635 532.193,-253.691"/>
<polygon fill="midnightblue" stroke="midnightblue" points="535.651,-254.248 534.217,-243.751 528.792,-252.851 535.651,-254.248"/>
</g>
<!-- Node7&#45;&gt;Node3 -->
<g id="edge7" class="edge"><title>Node7&#45;&gt;Node3</title>
<path fill="none" stroke="midnightblue" d="M536.149,-224.43C536.176,-196.588 532.6,-107.51 488,-56 470.244,-35.4928 441.445,-24.0219 418.65,-17.8023"/>
<polygon fill="midnightblue" stroke="midnightblue" points="419.21,-14.3347 408.66,-15.3006 417.51,-21.1251 419.21,-14.3347"/>
</g>
<!-- Node8&#45;&gt;Node4 -->
<g id="edge23" class="edge"><title>Node8&#45;&gt;Node4</title>
<path fill="none" stroke="midnightblue" d="M287.166,-280.324C269.284,-271.625 241.525,-258.12 220.954,-248.113"/>
<polygon fill="midnightblue" stroke="midnightblue" points="222.313,-244.882 211.79,-243.655 219.251,-251.177 222.313,-244.882"/>
</g>
<!-- Node9 -->
<g id="node9" class="node"><title>Node9</title>
<g id="a_node9"><a xlink:href="erpc__codec_8h.html" target="_top" xlink:title="erpc_codec.h">
<polygon fill="white" stroke="black" points="267.5,-224.5 267.5,-243.5 342.5,-243.5 342.5,-224.5 267.5,-224.5"/>
<text text-anchor="middle" x="305" y="-231.5" font-family="Helvetica,sans-Serif" font-size="10.00">erpc_codec.h</text>
</a>
</g>
</g>
<!-- Node8&#45;&gt;Node9 -->
<g id="edge9" class="edge"><title>Node8&#45;&gt;Node9</title>
<path fill="none" stroke="midnightblue" d="M305,-280.083C305,-273.006 305,-262.861 305,-253.986"/>
<polygon fill="midnightblue" stroke="midnightblue" points="308.5,-253.751 305,-243.751 301.5,-253.751 308.5,-253.751"/>
</g>
<!-- Node9&#45;&gt;Node2 -->
<g id="edge10" class="edge"><title>Node9&#45;&gt;Node2</title>
<path fill="none" stroke="midnightblue" d="M268.68,-224.479C226.754,-212.291 160.994,-185.213 141,-132 134.75,-115.365 144.498,-96.7804 154.163,-83.7581"/>
<polygon fill="midnightblue" stroke="midnightblue" points="157.09,-85.7047 160.643,-75.7236 151.641,-81.31 157.09,-85.7047"/>
</g>
<!-- Node9&#45;&gt;Node3 -->
<g id="edge22" class="edge"><title>Node9&#45;&gt;Node3</title>
<path fill="none" stroke="midnightblue" d="M320.875,-224.377C346.472,-209.46 396.01,-176.146 416,-132 429.934,-101.227 427.51,-88.1042 417,-56 413.51,-45.3397 406.427,-35.1174 399.714,-27.1175"/>
<polygon fill="midnightblue" stroke="midnightblue" points="402.305,-24.7633 393.02,-19.66 397.096,-29.4395 402.305,-24.7633"/>
</g>
<!-- Node10 -->
<g id="node10" class="node"><title>Node10</title>
<g id="a_node10"><a xlink:href="erpc__message__buffer_8h.html" target="_top" xlink:title="erpc_message_buffer.h">
<polygon fill="white" stroke="black" points="290.5,-112.5 290.5,-131.5 407.5,-131.5 407.5,-112.5 290.5,-112.5"/>
<text text-anchor="middle" x="349" y="-119.5" font-family="Helvetica,sans-Serif" font-size="10.00">erpc_message_buffer.h</text>
</a>
</g>
</g>
<!-- Node9&#45;&gt;Node10 -->
<g id="edge11" class="edge"><title>Node9&#45;&gt;Node10</title>
<path fill="none" stroke="midnightblue" d="M308.453,-224.368C315.617,-206.456 332.231,-164.923 341.821,-140.948"/>
<polygon fill="midnightblue" stroke="midnightblue" points="345.099,-142.176 345.563,-131.591 338.6,-139.576 345.099,-142.176"/>
</g>
<!-- Node12 -->
<g id="node12" class="node"><title>Node12</title>
<g id="a_node12"><a xlink:href="erpc__transport_8h.html" target="_top" xlink:title="erpc_transport.h">
<polygon fill="white" stroke="black" points="218.5,-168.5 218.5,-187.5 305.5,-187.5 305.5,-168.5 218.5,-168.5"/>
<text text-anchor="middle" x="262" y="-175.5" font-family="Helvetica,sans-Serif" font-size="10.00">erpc_transport.h</text>
</a>
</g>
</g>
<!-- Node9&#45;&gt;Node12 -->
<g id="edge15" class="edge"><title>Node9&#45;&gt;Node12</title>
<path fill="none" stroke="midnightblue" d="M297.899,-224.083C291.763,-216.377 282.73,-205.033 275.261,-195.653"/>
<polygon fill="midnightblue" stroke="midnightblue" points="277.936,-193.394 268.968,-187.751 272.46,-197.754 277.936,-193.394"/>
</g>
<!-- Node14 -->
<g id="node14" class="node"><title>Node14</title>
<polygon fill="white" stroke="#bfbfbf" points="150,-112.5 150,-131.5 196,-131.5 196,-112.5 150,-112.5"/>
<text text-anchor="middle" x="173" y="-119.5" font-family="Helvetica,sans-Serif" font-size="10.00">cstring</text>
</g>
<!-- Node9&#45;&gt;Node14 -->
<g id="edge21" class="edge"><title>Node9&#45;&gt;Node14</title>
<path fill="none" stroke="midnightblue" d="M275.326,-224.494C254.772,-217.406 227.826,-205.597 209,-188 195.182,-175.084 185.383,-155.64 179.532,-141.384"/>
<polygon fill="midnightblue" stroke="midnightblue" points="182.665,-139.778 175.826,-131.686 176.127,-142.277 182.665,-139.778"/>
</g>
<!-- Node10&#45;&gt;Node2 -->
<g id="edge12" class="edge"><title>Node10&#45;&gt;Node2</title>
<path fill="none" stroke="midnightblue" d="M320.478,-112.444C289.934,-103.28 241.292,-88.6876 207.397,-78.5192"/>
<polygon fill="midnightblue" stroke="midnightblue" points="207.972,-75.0376 197.388,-75.5164 205.961,-81.7424 207.972,-75.0376"/>
</g>
<!-- Node10&#45;&gt;Node3 -->
<g id="edge14" class="edge"><title>Node10&#45;&gt;Node3</title>
<path fill="none" stroke="midnightblue" d="M347.674,-112.295C346.081,-99.5433 344.381,-75.214 351,-56 354.653,-45.3947 361.752,-35.1776 368.433,-27.1669"/>
<polygon fill="midnightblue" stroke="midnightblue" points="371.049,-29.4916 375.081,-19.6938 365.819,-24.8388 371.049,-29.4916"/>
</g>
<!-- Node11 -->
<g id="node11" class="node"><title>Node11</title>
<polygon fill="white" stroke="#bfbfbf" points="360,-56.5 360,-75.5 408,-75.5 408,-56.5 360,-56.5"/>
<text text-anchor="middle" x="384" y="-63.5" font-family="Helvetica,sans-Serif" font-size="10.00">cstddef</text>
</g>
<!-- Node10&#45;&gt;Node11 -->
<g id="edge13" class="edge"><title>Node10&#45;&gt;Node11</title>
<path fill="none" stroke="midnightblue" d="M354.78,-112.083C359.672,-104.534 366.827,-93.4948 372.833,-84.2298"/>
<polygon fill="midnightblue" stroke="midnightblue" points="375.826,-86.0463 378.328,-75.7511 369.952,-82.239 375.826,-86.0463"/>
</g>
<!-- Node12&#45;&gt;Node2 -->
<g id="edge16" class="edge"><title>Node12&#45;&gt;Node2</title>
<path fill="none" stroke="midnightblue" d="M254.702,-168.368C239.219,-150.055 202.86,-107.049 182.834,-83.3624"/>
<polygon fill="midnightblue" stroke="midnightblue" points="185.393,-80.9682 176.264,-75.5914 180.047,-85.4877 185.393,-80.9682"/>
</g>
<!-- Node12&#45;&gt;Node10 -->
<g id="edge19" class="edge"><title>Node12&#45;&gt;Node10</title>
<path fill="none" stroke="midnightblue" d="M275.978,-168.324C289.55,-159.9 310.38,-146.971 326.325,-137.074"/>
<polygon fill="midnightblue" stroke="midnightblue" points="328.406,-139.902 335.057,-131.655 324.714,-133.954 328.406,-139.902"/>
</g>
<!-- Node13 -->
<g id="node13" class="node"><title>Node13</title>
<g id="a_node13"><a xlink:href="erpc__crc16_8h.html" target="_top" xlink:title="erpc_crc16.h">
<polygon fill="white" stroke="black" points="230.5,-56.5 230.5,-75.5 303.5,-75.5 303.5,-56.5 230.5,-56.5"/>
<text text-anchor="middle" x="267" y="-63.5" font-family="Helvetica,sans-Serif" font-size="10.00">erpc_crc16.h</text>
</a>
</g>
</g>
<!-- Node12&#45;&gt;Node13 -->
<g id="edge17" class="edge"><title>Node12&#45;&gt;Node13</title>
<path fill="none" stroke="midnightblue" d="M262.392,-168.368C263.199,-150.617 265.061,-109.666 266.155,-85.5974"/>
<polygon fill="midnightblue" stroke="midnightblue" points="269.652,-85.7401 266.609,-75.5914 262.659,-85.4221 269.652,-85.7401"/>
</g>
<!-- Node12&#45;&gt;Node14 -->
<g id="edge20" class="edge"><title>Node12&#45;&gt;Node14</title>
<path fill="none" stroke="midnightblue" d="M247.701,-168.324C233.817,-159.9 212.508,-146.971 196.196,-137.074"/>
<polygon fill="midnightblue" stroke="midnightblue" points="197.629,-133.85 187.264,-131.655 193.998,-139.834 197.629,-133.85"/>
</g>
<!-- Node13&#45;&gt;Node3 -->
<g id="edge18" class="edge"><title>Node13&#45;&gt;Node3</title>
<path fill="none" stroke="midnightblue" d="M285.539,-56.4435C304.623,-47.6356 334.575,-33.8116 356.436,-23.722"/>
<polygon fill="midnightblue" stroke="midnightblue" points="357.935,-26.8849 365.548,-19.5164 355.001,-20.5292 357.935,-26.8849"/>
</g>
</g>
</svg>
