<?xml version="1.0" encoding="UTF-8" standalone="no"?>
<!DOCTYPE svg PUBLIC "-//W3C//DTD SVG 1.1//EN"
 "http://www.w3.org/Graphics/SVG/1.1/DTD/svg11.dtd">
<!-- Generated by graphviz version 2.38.0 (20140413.2041)
 -->
<!-- Title: erpc_rpmsg_tty_rtos_transport.h Pages: 1 -->
<svg width="630pt" height="330pt"
 viewBox="0.00 0.00 629.50 330.00" xmlns="http://www.w3.org/2000/svg" xmlns:xlink="http://www.w3.org/1999/xlink">
<g id="graph0" class="graph" transform="scale(1 1) rotate(0) translate(4 326)">
<title>erpc_rpmsg_tty_rtos_transport.h</title>
<polygon fill="white" stroke="none" points="-4,4 -4,-326 625.5,-326 625.5,4 -4,4"/>
<!-- Node1 -->
<g id="node1" class="node"><title>Node1</title>
<polygon fill="#bfbfbf" stroke="black" points="296.5,-291.5 296.5,-321.5 402.5,-321.5 402.5,-291.5 296.5,-291.5"/>
<text text-anchor="start" x="304.5" y="-309.5" font-family="Helvetica,sans-Serif" font-size="10.00">erpc_rpmsg_tty_rtos</text>
<text text-anchor="middle" x="349.5" y="-298.5" font-family="Helvetica,sans-Serif" font-size="10.00">_transport.h</text>
</g>
<!-- Node2 -->
<g id="node2" class="node"><title>Node2</title>
<g id="a_node2"><a xlink:href="erpc__crc16_8h.html" target="_top" xlink:title="erpc_crc16.h">
<polygon fill="white" stroke="black" points="0,-112.5 0,-131.5 73,-131.5 73,-112.5 0,-112.5"/>
<text text-anchor="middle" x="36.5" y="-119.5" font-family="Helvetica,sans-Serif" font-size="10.00">erpc_crc16.h</text>
</a>
</g>
</g>
<!-- Node1&#45;&gt;Node2 -->
<g id="edge1" class="edge"><title>Node1&#45;&gt;Node2</title>
<path fill="none" stroke="midnightblue" d="M301.791,-291.493C275.024,-282.733 241.488,-270.223 213.5,-255 150.092,-220.511 84.2026,-165.344 53.7865,-138.577"/>
<polygon fill="midnightblue" stroke="midnightblue" points="55.9809,-135.845 46.1798,-131.821 51.3325,-141.079 55.9809,-135.845"/>
</g>
<!-- Node4 -->
<g id="node4" class="node"><title>Node4</title>
<g id="a_node4"><a xlink:href="erpc__message__buffer_8h.html" target="_top" xlink:title="erpc_message_buffer.h">
<polygon fill="white" stroke="black" points="91,-112.5 91,-131.5 208,-131.5 208,-112.5 91,-112.5"/>
<text text-anchor="middle" x="149.5" y="-119.5" font-family="Helvetica,sans-Serif" font-size="10.00">erpc_message_buffer.h</text>
</a>
</g>
</g>
<!-- Node1&#45;&gt;Node4 -->
<g id="edge3" class="edge"><title>Node1&#45;&gt;Node4</title>
<path fill="none" stroke="midnightblue" d="M320.075,-291.436C283.039,-272.463 219.448,-235.504 179.5,-188 168.012,-174.339 159.972,-155.55 155.127,-141.686"/>
<polygon fill="midnightblue" stroke="midnightblue" points="158.339,-140.244 151.922,-131.814 151.681,-142.406 158.339,-140.244"/>
</g>
<!-- Node7 -->
<g id="node7" class="node"><title>Node7</title>
<g id="a_node7"><a xlink:href="erpc__rpmsg__lite__base__transport_8h.html" target="_top" xlink:title="erpc_rpmsg_lite_base\l_transport.h">
<polygon fill="white" stroke="black" points="293.5,-224.5 293.5,-254.5 405.5,-254.5 405.5,-224.5 293.5,-224.5"/>
<text text-anchor="start" x="301.5" y="-242.5" font-family="Helvetica,sans-Serif" font-size="10.00">erpc_rpmsg_lite_base</text>
<text text-anchor="middle" x="349.5" y="-231.5" font-family="Helvetica,sans-Serif" font-size="10.00">_transport.h</text>
</a>
</g>
</g>
<!-- Node1&#45;&gt;Node7 -->
<g id="edge8" class="edge"><title>Node1&#45;&gt;Node7</title>
<path fill="none" stroke="midnightblue" d="M349.5,-291.396C349.5,-283.645 349.5,-273.812 349.5,-264.86"/>
<polygon fill="midnightblue" stroke="midnightblue" points="353,-264.576 349.5,-254.577 346,-264.577 353,-264.576"/>
</g>
<!-- Node13 -->
<g id="node13" class="node"><title>Node13</title>
<polygon fill="white" stroke="#bfbfbf" points="551.5,-168.5 551.5,-187.5 621.5,-187.5 621.5,-168.5 551.5,-168.5"/>
<text text-anchor="middle" x="586.5" y="-175.5" font-family="Helvetica,sans-Serif" font-size="10.00">rpmsg_lite.h</text>
</g>
<!-- Node1&#45;&gt;Node13 -->
<g id="edge19" class="edge"><title>Node1&#45;&gt;Node13</title>
<path fill="none" stroke="midnightblue" d="M367.754,-291.405C380.805,-281.306 398.77,-267.362 414.5,-255 431.91,-241.319 434.057,-234.595 453.5,-224 481.211,-208.9 514.908,-197.564 541.45,-190.047"/>
<polygon fill="midnightblue" stroke="midnightblue" points="542.531,-193.38 551.244,-187.353 540.674,-186.63 542.531,-193.38"/>
</g>
<!-- Node15 -->
<g id="node15" class="node"><title>Node15</title>
<polygon fill="white" stroke="#bfbfbf" points="462,-230 462,-249 545,-249 545,-230 462,-230"/>
<text text-anchor="middle" x="503.5" y="-237" font-family="Helvetica,sans-Serif" font-size="10.00">rpmsg_queue.h</text>
</g>
<!-- Node1&#45;&gt;Node15 -->
<g id="edge20" class="edge"><title>Node1&#45;&gt;Node15</title>
<path fill="none" stroke="midnightblue" d="M382.916,-291.396C410.056,-279.941 447.969,-263.938 473.998,-252.952"/>
<polygon fill="midnightblue" stroke="midnightblue" points="475.493,-256.12 483.345,-249.007 472.771,-249.671 475.493,-256.12"/>
</g>
<!-- Node3 -->
<g id="node3" class="node"><title>Node3</title>
<polygon fill="white" stroke="#bfbfbf" points="125,-0.5 125,-19.5 174,-19.5 174,-0.5 125,-0.5"/>
<text text-anchor="middle" x="149.5" y="-7.5" font-family="Helvetica,sans-Serif" font-size="10.00">stdint.h</text>
</g>
<!-- Node2&#45;&gt;Node3 -->
<g id="edge2" class="edge"><title>Node2&#45;&gt;Node3</title>
<path fill="none" stroke="midnightblue" d="M38.26,-112.41C41.4102,-98.9246 49.1668,-72.6143 64.5,-56 78.2263,-41.1269 98.0099,-30.2498 115.038,-22.9189"/>
<polygon fill="midnightblue" stroke="midnightblue" points="116.727,-26.0108 124.678,-19.009 114.096,-19.524 116.727,-26.0108"/>
</g>
<!-- Node4&#45;&gt;Node3 -->
<g id="edge7" class="edge"><title>Node4&#45;&gt;Node3</title>
<path fill="none" stroke="midnightblue" d="M149.5,-112.368C149.5,-94.617 149.5,-53.6664 149.5,-29.5974"/>
<polygon fill="midnightblue" stroke="midnightblue" points="153,-29.5914 149.5,-19.5914 146,-29.5915 153,-29.5914"/>
</g>
<!-- Node5 -->
<g id="node5" class="node"><title>Node5</title>
<g id="a_node5"><a xlink:href="erpc__common_8h_source.html" target="_top" xlink:title="erpc_common.h">
<polygon fill="white" stroke="black" points="177.5,-56.5 177.5,-75.5 263.5,-75.5 263.5,-56.5 177.5,-56.5"/>
<text text-anchor="middle" x="220.5" y="-63.5" font-family="Helvetica,sans-Serif" font-size="10.00">erpc_common.h</text>
</a>
</g>
</g>
<!-- Node4&#45;&gt;Node5 -->
<g id="edge4" class="edge"><title>Node4&#45;&gt;Node5</title>
<path fill="none" stroke="midnightblue" d="M160.907,-112.324C171.609,-104.185 187.841,-91.8395 200.663,-82.0874"/>
<polygon fill="midnightblue" stroke="midnightblue" points="203.044,-84.6734 208.885,-75.8339 198.807,-79.1018 203.044,-84.6734"/>
</g>
<!-- Node6 -->
<g id="node6" class="node"><title>Node6</title>
<polygon fill="white" stroke="#bfbfbf" points="73.5,-56.5 73.5,-75.5 121.5,-75.5 121.5,-56.5 73.5,-56.5"/>
<text text-anchor="middle" x="97.5" y="-63.5" font-family="Helvetica,sans-Serif" font-size="10.00">cstddef</text>
</g>
<!-- Node4&#45;&gt;Node6 -->
<g id="edge6" class="edge"><title>Node4&#45;&gt;Node6</title>
<path fill="none" stroke="midnightblue" d="M140.913,-112.083C133.341,-104.22 122.122,-92.5688 112.986,-83.0813"/>
<polygon fill="midnightblue" stroke="midnightblue" points="115.385,-80.5266 105.927,-75.7511 110.342,-85.3821 115.385,-80.5266"/>
</g>
<!-- Node5&#45;&gt;Node3 -->
<g id="edge5" class="edge"><title>Node5&#45;&gt;Node3</title>
<path fill="none" stroke="midnightblue" d="M209.093,-56.324C198.391,-48.1849 182.159,-35.8395 169.337,-26.0874"/>
<polygon fill="midnightblue" stroke="midnightblue" points="171.193,-23.1018 161.115,-19.8339 166.956,-28.6734 171.193,-23.1018"/>
</g>
<!-- Node8 -->
<g id="node8" class="node"><title>Node8</title>
<g id="a_node8"><a xlink:href="erpc__transport_8h.html" target="_top" xlink:title="erpc_transport.h">
<polygon fill="white" stroke="black" points="189,-168.5 189,-187.5 276,-187.5 276,-168.5 189,-168.5"/>
<text text-anchor="middle" x="232.5" y="-175.5" font-family="Helvetica,sans-Serif" font-size="10.00">erpc_transport.h</text>
</a>
</g>
</g>
<!-- Node7&#45;&gt;Node8 -->
<g id="edge9" class="edge"><title>Node7&#45;&gt;Node8</title>
<path fill="none" stroke="midnightblue" d="M321.773,-224.399C302.668,-214.684 277.442,-201.855 258.68,-192.314"/>
<polygon fill="midnightblue" stroke="midnightblue" points="260.025,-189.071 249.525,-187.658 256.852,-195.311 260.025,-189.071"/>
</g>
<!-- Node10 -->
<g id="node10" class="node"><title>Node10</title>
<g id="a_node10"><a xlink:href="erpc__config__internal_8h_source.html" target="_top" xlink:title="erpc_config_internal.h">
<polygon fill="white" stroke="black" points="294,-168.5 294,-187.5 405,-187.5 405,-168.5 294,-168.5"/>
<text text-anchor="middle" x="349.5" y="-175.5" font-family="Helvetica,sans-Serif" font-size="10.00">erpc_config_internal.h</text>
</a>
</g>
</g>
<!-- Node7&#45;&gt;Node10 -->
<g id="edge14" class="edge"><title>Node7&#45;&gt;Node10</title>
<path fill="none" stroke="midnightblue" d="M349.5,-224.399C349.5,-216.466 349.5,-206.458 349.5,-197.858"/>
<polygon fill="midnightblue" stroke="midnightblue" points="353,-197.658 349.5,-187.658 346,-197.658 353,-197.658"/>
</g>
<!-- Node7&#45;&gt;Node13 -->
<g id="edge17" class="edge"><title>Node7&#45;&gt;Node13</title>
<path fill="none" stroke="midnightblue" d="M405.366,-224.475C447.324,-213.941 503.985,-199.716 542.694,-189.998"/>
<polygon fill="midnightblue" stroke="midnightblue" points="543.771,-193.336 552.617,-187.506 542.066,-186.547 543.771,-193.336"/>
</g>
<!-- Node14 -->
<g id="node14" class="node"><title>Node14</title>
<polygon fill="white" stroke="#bfbfbf" points="423.5,-168.5 423.5,-187.5 533.5,-187.5 533.5,-168.5 423.5,-168.5"/>
<text text-anchor="middle" x="478.5" y="-175.5" font-family="Helvetica,sans-Serif" font-size="10.00">rpmsg_env_specific.h</text>
</g>
<!-- Node7&#45;&gt;Node14 -->
<g id="edge18" class="edge"><title>Node7&#45;&gt;Node14</title>
<path fill="none" stroke="midnightblue" d="M380.071,-224.399C401.425,-214.55 429.715,-201.501 450.485,-191.922"/>
<polygon fill="midnightblue" stroke="midnightblue" points="452.115,-195.024 459.729,-187.658 449.183,-188.668 452.115,-195.024"/>
</g>
<!-- Node8&#45;&gt;Node2 -->
<g id="edge11" class="edge"><title>Node8&#45;&gt;Node2</title>
<path fill="none" stroke="midnightblue" d="M201.443,-168.444C167.897,-159.201 114.303,-144.436 77.3595,-134.257"/>
<polygon fill="midnightblue" stroke="midnightblue" points="77.982,-130.798 67.4115,-131.516 76.1226,-137.547 77.982,-130.798"/>
</g>
<!-- Node8&#45;&gt;Node4 -->
<g id="edge12" class="edge"><title>Node8&#45;&gt;Node4</title>
<path fill="none" stroke="midnightblue" d="M219.165,-168.324C206.338,-159.979 186.715,-147.212 171.56,-137.352"/>
<polygon fill="midnightblue" stroke="midnightblue" points="173.093,-134.174 162.802,-131.655 169.276,-140.042 173.093,-134.174"/>
</g>
<!-- Node8&#45;&gt;Node5 -->
<g id="edge10" class="edge"><title>Node8&#45;&gt;Node5</title>
<path fill="none" stroke="midnightblue" d="M231.558,-168.368C229.622,-150.617 225.155,-109.666 222.529,-85.5974"/>
<polygon fill="midnightblue" stroke="midnightblue" points="226.001,-85.1528 221.437,-75.5914 219.042,-85.912 226.001,-85.1528"/>
</g>
<!-- Node9 -->
<g id="node9" class="node"><title>Node9</title>
<polygon fill="white" stroke="#bfbfbf" points="264.5,-112.5 264.5,-131.5 310.5,-131.5 310.5,-112.5 264.5,-112.5"/>
<text text-anchor="middle" x="287.5" y="-119.5" font-family="Helvetica,sans-Serif" font-size="10.00">cstring</text>
</g>
<!-- Node8&#45;&gt;Node9 -->
<g id="edge13" class="edge"><title>Node8&#45;&gt;Node9</title>
<path fill="none" stroke="midnightblue" d="M241.582,-168.083C249.671,-160.141 261.695,-148.335 271.41,-138.797"/>
<polygon fill="midnightblue" stroke="midnightblue" points="273.903,-141.254 278.587,-131.751 268.999,-136.26 273.903,-141.254"/>
</g>
<!-- Node11 -->
<g id="node11" class="node"><title>Node11</title>
<g id="a_node11"><a xlink:href="erpc__config_8h.html" target="_top" xlink:title="erpc_config.h">
<polygon fill="white" stroke="black" points="328.5,-112.5 328.5,-131.5 402.5,-131.5 402.5,-112.5 328.5,-112.5"/>
<text text-anchor="middle" x="365.5" y="-119.5" font-family="Helvetica,sans-Serif" font-size="10.00">erpc_config.h</text>
</a>
</g>
</g>
<!-- Node10&#45;&gt;Node11 -->
<g id="edge15" class="edge"><title>Node10&#45;&gt;Node11</title>
<path fill="none" stroke="midnightblue" d="M352.142,-168.083C354.286,-160.849 357.379,-150.409 360.049,-141.397"/>
<polygon fill="midnightblue" stroke="midnightblue" points="363.422,-142.333 362.907,-131.751 356.71,-140.345 363.422,-142.333"/>
</g>
<!-- Node12 -->
<g id="node12" class="node"><title>Node12</title>
<polygon fill="white" stroke="#bfbfbf" points="421,-112.5 421,-131.5 470,-131.5 470,-112.5 421,-112.5"/>
<text text-anchor="middle" x="445.5" y="-119.5" font-family="Helvetica,sans-Serif" font-size="10.00">cassert</text>
</g>
<!-- Node10&#45;&gt;Node12 -->
<g id="edge16" class="edge"><title>Node10&#45;&gt;Node12</title>
<path fill="none" stroke="midnightblue" d="M364.924,-168.324C380.04,-159.822 403.315,-146.729 420.971,-136.797"/>
<polygon fill="midnightblue" stroke="midnightblue" points="423.114,-139.608 430.114,-131.655 419.683,-133.507 423.114,-139.608"/>
</g>
</g>
</svg>
