<?xml version="1.0" encoding="UTF-8" standalone="no"?>
<!DOCTYPE svg PUBLIC "-//W3C//DTD SVG 1.1//EN"
 "http://www.w3.org/Graphics/SVG/1.1/DTD/svg11.dtd">
<!-- Generated by graphviz version 2.38.0 (20140413.2041)
 -->
<!-- Title: erpc_transport_arbitrator.h Pages: 1 -->
<svg width="492pt" height="364pt"
 viewBox="0.00 0.00 492.00 364.00" xmlns="http://www.w3.org/2000/svg" xmlns:xlink="http://www.w3.org/1999/xlink">
<g id="graph0" class="graph" transform="scale(1 1) rotate(0) translate(4 360)">
<title>erpc_transport_arbitrator.h</title>
<polygon fill="white" stroke="none" points="-4,4 -4,-360 488,-360 488,4 -4,4"/>
<!-- Node1 -->
<g id="node1" class="node"><title>Node1</title>
<polygon fill="#bfbfbf" stroke="black" points="211,-336.5 211,-355.5 342,-355.5 342,-336.5 211,-336.5"/>
<text text-anchor="middle" x="276.5" y="-343.5" font-family="Helvetica,sans-Serif" font-size="10.00">erpc_transport_arbitrator.h</text>
</g>
<!-- Node2 -->
<g id="node2" class="node"><title>Node2</title>
<g id="a_node2"><a xlink:href="erpc__client__manager_8h.html" target="_top" xlink:title="erpc_client_manager.h">
<polygon fill="white" stroke="black" points="262,-280.5 262,-299.5 377,-299.5 377,-280.5 262,-280.5"/>
<text text-anchor="middle" x="319.5" y="-287.5" font-family="Helvetica,sans-Serif" font-size="10.00">erpc_client_manager.h</text>
</a>
</g>
</g>
<!-- Node1&#45;&gt;Node2 -->
<g id="edge1" class="edge"><title>Node1&#45;&gt;Node2</title>
<path fill="none" stroke="midnightblue" d="M283.601,-336.083C289.737,-328.377 298.77,-317.033 306.239,-307.653"/>
<polygon fill="midnightblue" stroke="midnightblue" points="309.04,-309.754 312.532,-299.751 303.564,-305.394 309.04,-309.754"/>
</g>
<!-- Node3 -->
<g id="node3" class="node"><title>Node3</title>
<g id="a_node3"><a xlink:href="erpc__codec_8h.html" target="_top" xlink:title="erpc_codec.h">
<polygon fill="white" stroke="black" points="210,-224.5 210,-243.5 285,-243.5 285,-224.5 210,-224.5"/>
<text text-anchor="middle" x="247.5" y="-231.5" font-family="Helvetica,sans-Serif" font-size="10.00">erpc_codec.h</text>
</a>
</g>
</g>
<!-- Node1&#45;&gt;Node3 -->
<g id="edge19" class="edge"><title>Node1&#45;&gt;Node3</title>
<path fill="none" stroke="midnightblue" d="M270.577,-336.5C264.846,-327.779 256.461,-313.602 252.5,-300 248.095,-284.872 247.002,-266.974 246.922,-253.794"/>
<polygon fill="midnightblue" stroke="midnightblue" points="250.424,-253.658 247.054,-243.613 243.424,-253.567 250.424,-253.658"/>
</g>
<!-- Node8 -->
<g id="node8" class="node"><title>Node8</title>
<g id="a_node8"><a xlink:href="erpc__transport_8h.html" target="_top" xlink:title="erpc_transport.h">
<polygon fill="white" stroke="black" points="132,-168.5 132,-187.5 219,-187.5 219,-168.5 132,-168.5"/>
<text text-anchor="middle" x="175.5" y="-175.5" font-family="Helvetica,sans-Serif" font-size="10.00">erpc_transport.h</text>
</a>
</g>
</g>
<!-- Node1&#45;&gt;Node8 -->
<g id="edge23" class="edge"><title>Node1&#45;&gt;Node8</title>
<path fill="none" stroke="midnightblue" d="M268.688,-336.39C253.802,-319.638 221.032,-281.043 200.5,-244 192.257,-229.129 185.527,-210.982 181.134,-197.646"/>
<polygon fill="midnightblue" stroke="midnightblue" points="184.359,-196.235 178.012,-187.752 177.684,-198.342 184.359,-196.235"/>
</g>
<!-- Node13 -->
<g id="node13" class="node"><title>Node13</title>
<g id="a_node13"><a xlink:href="erpc__threading_8h.html" target="_top" xlink:title="erpc_threading.h">
<polygon fill="white" stroke="black" points="395,-280.5 395,-299.5 484,-299.5 484,-280.5 395,-280.5"/>
<text text-anchor="middle" x="439.5" y="-287.5" font-family="Helvetica,sans-Serif" font-size="10.00">erpc_threading.h</text>
</a>
</g>
</g>
<!-- Node1&#45;&gt;Node13 -->
<g id="edge20" class="edge"><title>Node1&#45;&gt;Node13</title>
<path fill="none" stroke="midnightblue" d="M302.328,-336.444C329.749,-327.359 373.277,-312.939 403.932,-302.783"/>
<polygon fill="midnightblue" stroke="midnightblue" points="405.401,-305.984 413.793,-299.516 403.2,-299.339 405.401,-305.984"/>
</g>
<!-- Node2&#45;&gt;Node3 -->
<g id="edge2" class="edge"><title>Node2&#45;&gt;Node3</title>
<path fill="none" stroke="midnightblue" d="M307.932,-280.324C297.08,-272.185 280.619,-259.839 267.617,-250.087"/>
<polygon fill="midnightblue" stroke="midnightblue" points="269.379,-247.034 259.279,-243.834 265.179,-252.634 269.379,-247.034"/>
</g>
<!-- Node11 -->
<g id="node11" class="node"><title>Node11</title>
<g id="a_node11"><a xlink:href="erpc__config__internal_8h_source.html" target="_top" xlink:title="erpc_config_internal.h">
<polygon fill="white" stroke="black" points="314,-224.5 314,-243.5 425,-243.5 425,-224.5 314,-224.5"/>
<text text-anchor="middle" x="369.5" y="-231.5" font-family="Helvetica,sans-Serif" font-size="10.00">erpc_config_internal.h</text>
</a>
</g>
</g>
<!-- Node2&#45;&gt;Node11 -->
<g id="edge17" class="edge"><title>Node2&#45;&gt;Node11</title>
<path fill="none" stroke="midnightblue" d="M327.756,-280.083C334.965,-272.298 345.61,-260.801 354.346,-251.367"/>
<polygon fill="midnightblue" stroke="midnightblue" points="357.171,-253.467 361.397,-243.751 352.035,-248.711 357.171,-253.467"/>
</g>
<!-- Node4 -->
<g id="node4" class="node"><title>Node4</title>
<g id="a_node4"><a xlink:href="erpc__common_8h_source.html" target="_top" xlink:title="erpc_common.h">
<polygon fill="white" stroke="black" points="110.5,-56.5 110.5,-75.5 196.5,-75.5 196.5,-56.5 110.5,-56.5"/>
<text text-anchor="middle" x="153.5" y="-63.5" font-family="Helvetica,sans-Serif" font-size="10.00">erpc_common.h</text>
</a>
</g>
</g>
<!-- Node3&#45;&gt;Node4 -->
<g id="edge3" class="edge"><title>Node3&#45;&gt;Node4</title>
<path fill="none" stroke="midnightblue" d="M252.547,-224.495C264.326,-203.422 290.847,-147.902 266.5,-112 258.072,-99.5714 224.128,-87.0626 195.623,-78.3992"/>
<polygon fill="midnightblue" stroke="midnightblue" points="196.4,-74.9792 185.818,-75.5017 194.416,-81.6922 196.4,-74.9792"/>
</g>
<!-- Node5 -->
<g id="node5" class="node"><title>Node5</title>
<polygon fill="white" stroke="#bfbfbf" points="227,-0.5 227,-19.5 276,-19.5 276,-0.5 227,-0.5"/>
<text text-anchor="middle" x="251.5" y="-7.5" font-family="Helvetica,sans-Serif" font-size="10.00">stdint.h</text>
</g>
<!-- Node3&#45;&gt;Node5 -->
<g id="edge16" class="edge"><title>Node3&#45;&gt;Node5</title>
<path fill="none" stroke="midnightblue" d="M258.177,-224.24C267.428,-215.962 280.277,-202.654 286.5,-188 306.034,-142 294.276,-125.926 296.5,-76 296.896,-67.1199 299.902,-64.2123 296.5,-56 291.58,-44.121 281.833,-33.7428 272.666,-25.9557"/>
<polygon fill="midnightblue" stroke="midnightblue" points="274.583,-23.0101 264.564,-19.5641 270.247,-28.5058 274.583,-23.0101"/>
</g>
<!-- Node6 -->
<g id="node6" class="node"><title>Node6</title>
<g id="a_node6"><a xlink:href="erpc__message__buffer_8h.html" target="_top" xlink:title="erpc_message_buffer.h">
<polygon fill="white" stroke="black" points="0,-112.5 0,-131.5 117,-131.5 117,-112.5 0,-112.5"/>
<text text-anchor="middle" x="58.5" y="-119.5" font-family="Helvetica,sans-Serif" font-size="10.00">erpc_message_buffer.h</text>
</a>
</g>
</g>
<!-- Node3&#45;&gt;Node6 -->
<g id="edge5" class="edge"><title>Node3&#45;&gt;Node6</title>
<path fill="none" stroke="midnightblue" d="M210.794,-224.454C184.78,-217.318 149.794,-205.47 122.5,-188 102.175,-174.991 83.3719,-154.44 71.4793,-139.934"/>
<polygon fill="midnightblue" stroke="midnightblue" points="73.9788,-137.454 65.0157,-131.805 68.4996,-141.811 73.9788,-137.454"/>
</g>
<!-- Node3&#45;&gt;Node8 -->
<g id="edge9" class="edge"><title>Node3&#45;&gt;Node8</title>
<path fill="none" stroke="midnightblue" d="M235.932,-224.324C225.08,-216.185 208.619,-203.839 195.617,-194.087"/>
<polygon fill="midnightblue" stroke="midnightblue" points="197.379,-191.034 187.279,-187.834 193.179,-196.634 197.379,-191.034"/>
</g>
<!-- Node10 -->
<g id="node10" class="node"><title>Node10</title>
<polygon fill="white" stroke="#bfbfbf" points="211.5,-112.5 211.5,-131.5 257.5,-131.5 257.5,-112.5 211.5,-112.5"/>
<text text-anchor="middle" x="234.5" y="-119.5" font-family="Helvetica,sans-Serif" font-size="10.00">cstring</text>
</g>
<!-- Node3&#45;&gt;Node10 -->
<g id="edge15" class="edge"><title>Node3&#45;&gt;Node10</title>
<path fill="none" stroke="midnightblue" d="M246.48,-224.368C244.382,-206.617 239.542,-165.666 236.698,-141.597"/>
<polygon fill="midnightblue" stroke="midnightblue" points="240.165,-141.112 235.515,-131.591 233.213,-141.933 240.165,-141.112"/>
</g>
<!-- Node4&#45;&gt;Node5 -->
<g id="edge4" class="edge"><title>Node4&#45;&gt;Node5</title>
<path fill="none" stroke="midnightblue" d="M169.245,-56.324C184.819,-47.7428 208.877,-34.486 226.959,-24.5224"/>
<polygon fill="midnightblue" stroke="midnightblue" points="228.724,-27.546 235.794,-19.6545 225.346,-21.4152 228.724,-27.546"/>
</g>
<!-- Node6&#45;&gt;Node4 -->
<g id="edge6" class="edge"><title>Node6&#45;&gt;Node4</title>
<path fill="none" stroke="midnightblue" d="M73.7634,-112.324C88.7214,-103.822 111.755,-90.7288 129.227,-80.7975"/>
<polygon fill="midnightblue" stroke="midnightblue" points="131.31,-83.639 138.274,-75.6545 127.851,-77.5534 131.31,-83.639"/>
</g>
<!-- Node6&#45;&gt;Node5 -->
<g id="edge8" class="edge"><title>Node6&#45;&gt;Node5</title>
<path fill="none" stroke="midnightblue" d="M50.4002,-112.083C39.1788,-98.6252 21.7554,-72.9032 35.5,-56 57.9761,-28.3588 161.829,-17.128 216.934,-13.0533"/>
<polygon fill="midnightblue" stroke="midnightblue" points="217.215,-16.5422 226.946,-12.3521 216.726,-9.55935 217.215,-16.5422"/>
</g>
<!-- Node7 -->
<g id="node7" class="node"><title>Node7</title>
<polygon fill="white" stroke="#bfbfbf" points="44.5,-56.5 44.5,-75.5 92.5,-75.5 92.5,-56.5 44.5,-56.5"/>
<text text-anchor="middle" x="68.5" y="-63.5" font-family="Helvetica,sans-Serif" font-size="10.00">cstddef</text>
</g>
<!-- Node6&#45;&gt;Node7 -->
<g id="edge7" class="edge"><title>Node6&#45;&gt;Node7</title>
<path fill="none" stroke="midnightblue" d="M60.1513,-112.083C61.4764,-104.927 63.3824,-94.6353 65.0387,-85.6911"/>
<polygon fill="midnightblue" stroke="midnightblue" points="68.4999,-86.2212 66.8794,-75.7511 61.617,-84.9466 68.4999,-86.2212"/>
</g>
<!-- Node8&#45;&gt;Node4 -->
<g id="edge10" class="edge"><title>Node8&#45;&gt;Node4</title>
<path fill="none" stroke="midnightblue" d="M173.774,-168.368C170.223,-150.617 162.033,-109.666 157.219,-85.5974"/>
<polygon fill="midnightblue" stroke="midnightblue" points="160.612,-84.7108 155.218,-75.5914 153.747,-86.0837 160.612,-84.7108"/>
</g>
<!-- Node8&#45;&gt;Node6 -->
<g id="edge13" class="edge"><title>Node8&#45;&gt;Node6</title>
<path fill="none" stroke="midnightblue" d="M156.961,-168.444C137.877,-159.636 107.925,-145.812 86.0643,-135.722"/>
<polygon fill="midnightblue" stroke="midnightblue" points="87.4986,-132.529 76.9523,-131.516 84.5651,-138.885 87.4986,-132.529"/>
</g>
<!-- Node9 -->
<g id="node9" class="node"><title>Node9</title>
<g id="a_node9"><a xlink:href="erpc__crc16_8h.html" target="_top" xlink:title="erpc_crc16.h">
<polygon fill="white" stroke="black" points="215,-56.5 215,-75.5 288,-75.5 288,-56.5 215,-56.5"/>
<text text-anchor="middle" x="251.5" y="-63.5" font-family="Helvetica,sans-Serif" font-size="10.00">erpc_crc16.h</text>
</a>
</g>
</g>
<!-- Node8&#45;&gt;Node9 -->
<g id="edge11" class="edge"><title>Node8&#45;&gt;Node9</title>
<path fill="none" stroke="midnightblue" d="M177.767,-168.413C181.479,-155.386 189.745,-130.218 202.5,-112 210.39,-100.73 221.546,-90.2061 231.22,-82.1733"/>
<polygon fill="midnightblue" stroke="midnightblue" points="233.58,-84.7679 239.221,-75.7993 229.218,-79.2928 233.58,-84.7679"/>
</g>
<!-- Node8&#45;&gt;Node10 -->
<g id="edge14" class="edge"><title>Node8&#45;&gt;Node10</title>
<path fill="none" stroke="midnightblue" d="M184.979,-168.324C193.701,-160.341 206.843,-148.313 217.398,-138.653"/>
<polygon fill="midnightblue" stroke="midnightblue" points="219.834,-141.167 224.848,-131.834 215.108,-136.004 219.834,-141.167"/>
</g>
<!-- Node9&#45;&gt;Node5 -->
<g id="edge12" class="edge"><title>Node9&#45;&gt;Node5</title>
<path fill="none" stroke="midnightblue" d="M251.5,-56.083C251.5,-49.0059 251.5,-38.8611 251.5,-29.9865"/>
<polygon fill="midnightblue" stroke="midnightblue" points="255,-29.751 251.5,-19.7511 248,-29.7511 255,-29.751"/>
</g>
<!-- Node12 -->
<g id="node12" class="node"><title>Node12</title>
<g id="a_node12"><a xlink:href="erpc__config_8h.html" target="_top" xlink:title="erpc_config.h">
<polygon fill="white" stroke="black" points="351.5,-168.5 351.5,-187.5 425.5,-187.5 425.5,-168.5 351.5,-168.5"/>
<text text-anchor="middle" x="388.5" y="-175.5" font-family="Helvetica,sans-Serif" font-size="10.00">erpc_config.h</text>
</a>
</g>
</g>
<!-- Node11&#45;&gt;Node12 -->
<g id="edge18" class="edge"><title>Node11&#45;&gt;Node12</title>
<path fill="none" stroke="midnightblue" d="M372.637,-224.083C375.183,-216.849 378.856,-206.409 382.027,-197.397"/>
<polygon fill="midnightblue" stroke="midnightblue" points="385.403,-198.346 385.421,-187.751 378.8,-196.023 385.403,-198.346"/>
</g>
<!-- Node13&#45;&gt;Node5 -->
<g id="edge22" class="edge"><title>Node13&#45;&gt;Node5</title>
<path fill="none" stroke="midnightblue" d="M441.33,-280.489C445.125,-262.075 453.5,-217.118 453.5,-179 453.5,-179 453.5,-179 453.5,-121 453.5,-45.8154 344.234,-21.722 286.426,-14.2363"/>
<polygon fill="midnightblue" stroke="midnightblue" points="286.614,-10.7339 276.269,-13.0233 285.784,-17.6845 286.614,-10.7339"/>
</g>
<!-- Node13&#45;&gt;Node11 -->
<g id="edge21" class="edge"><title>Node13&#45;&gt;Node11</title>
<path fill="none" stroke="midnightblue" d="M428.253,-280.324C417.703,-272.185 401.699,-259.839 389.058,-250.087"/>
<polygon fill="midnightblue" stroke="midnightblue" points="391.007,-247.171 380.951,-243.834 386.731,-252.713 391.007,-247.171"/>
</g>
</g>
</svg>
