<?xml version="1.0" encoding="UTF-8" standalone="no"?>
<!DOCTYPE svg PUBLIC "-//W3C//DTD SVG 1.1//EN"
 "http://www.w3.org/Graphics/SVG/1.1/DTD/svg11.dtd">
<!-- Generated by graphviz version 2.38.0 (20140413.2041)
 -->
<!-- Title: erpc_client_server_common.h Pages: 1 -->
<svg width="642pt" height="162pt"
 viewBox="0.00 0.00 642.00 162.00" xmlns="http://www.w3.org/2000/svg" xmlns:xlink="http://www.w3.org/1999/xlink">
<g id="graph0" class="graph" transform="scale(1 1) rotate(0) translate(4 158)">
<title>erpc_client_server_common.h</title>
<polygon fill="white" stroke="none" points="-4,4 -4,-158 638,-158 638,4 -4,4"/>
<!-- Node1 -->
<g id="node1" class="node"><title>Node1</title>
<polygon fill="#bfbfbf" stroke="black" points="375.5,-123.5 375.5,-153.5 470.5,-153.5 470.5,-123.5 375.5,-123.5"/>
<text text-anchor="start" x="383.5" y="-141.5" font-family="Helvetica,sans-Serif" font-size="10.00">erpc_client_server</text>
<text text-anchor="middle" x="423" y="-130.5" font-family="Helvetica,sans-Serif" font-size="10.00">_common.h</text>
</g>
<!-- Node2 -->
<g id="node2" class="node"><title>Node2</title>
<g id="a_node2"><a xlink:href="erpc__client__manager_8h.html" target="_top" xlink:title="erpc_client_manager.h">
<polygon fill="white" stroke="black" points="275.5,-67.5 275.5,-86.5 390.5,-86.5 390.5,-67.5 275.5,-67.5"/>
<text text-anchor="middle" x="333" y="-74.5" font-family="Helvetica,sans-Serif" font-size="10.00">erpc_client_manager.h</text>
</a>
</g>
</g>
<!-- Node1&#45;&gt;Node2 -->
<g id="edge1" class="edge"><title>Node1&#45;&gt;Node2</title>
<path fill="none" stroke="midnightblue" d="M393.166,-117.776C377.216,-107.231 358.387,-94.7834 346.096,-86.6578"/>
<polygon fill="midnightblue" stroke="midnightblue" points="391.399,-120.804 401.671,-123.399 395.26,-114.965 391.399,-120.804"/>
</g>
<!-- Node7 -->
<g id="node7" class="node"><title>Node7</title>
<g id="a_node7"><a xlink:href="erpc__server_8h.html" target="_top" xlink:title="erpc_server.h">
<polygon fill="white" stroke="black" points="476,-67.5 476,-86.5 550,-86.5 550,-67.5 476,-67.5"/>
<text text-anchor="middle" x="513" y="-74.5" font-family="Helvetica,sans-Serif" font-size="10.00">erpc_server.h</text>
</a>
</g>
</g>
<!-- Node1&#45;&gt;Node7 -->
<g id="edge6" class="edge"><title>Node1&#45;&gt;Node7</title>
<path fill="none" stroke="midnightblue" d="M452.834,-117.776C468.784,-107.231 487.613,-94.7834 499.904,-86.6578"/>
<polygon fill="midnightblue" stroke="midnightblue" points="450.74,-114.965 444.329,-123.399 454.601,-120.804 450.74,-114.965"/>
</g>
<!-- Node3 -->
<g id="node3" class="node"><title>Node3</title>
<g id="a_node3"><a xlink:href="erpc__arbitrated__client__manager_8h.html" target="_top" xlink:title="erpc_arbitrated_client\l_manager.h">
<polygon fill="white" stroke="black" points="0,-0.5 0,-30.5 110,-30.5 110,-0.5 0,-0.5"/>
<text text-anchor="start" x="8" y="-18.5" font-family="Helvetica,sans-Serif" font-size="10.00">erpc_arbitrated_client</text>
<text text-anchor="middle" x="55" y="-7.5" font-family="Helvetica,sans-Serif" font-size="10.00">_manager.h</text>
</a>
</g>
</g>
<!-- Node2&#45;&gt;Node3 -->
<g id="edge2" class="edge"><title>Node2&#45;&gt;Node3</title>
<path fill="none" stroke="midnightblue" d="M281.508,-65.4062C238.131,-56.4258 174.456,-43.112 119,-31 116.106,-30.368 113.14,-29.7147 110.146,-29.0511"/>
<polygon fill="midnightblue" stroke="midnightblue" points="281.033,-68.8819 291.534,-67.4796 282.45,-62.0269 281.033,-68.8819"/>
</g>
<!-- Node4 -->
<g id="node4" class="node"><title>Node4</title>
<g id="a_node4"><a xlink:href="erpc__transport__arbitrator_8h.html" target="_top" xlink:title="erpc_transport_arbitrator.h">
<polygon fill="white" stroke="black" points="128.5,-6 128.5,-25 259.5,-25 259.5,-6 128.5,-6"/>
<text text-anchor="middle" x="194" y="-13" font-family="Helvetica,sans-Serif" font-size="10.00">erpc_transport_arbitrator.h</text>
</a>
</g>
</g>
<!-- Node2&#45;&gt;Node4 -->
<g id="edge3" class="edge"><title>Node2&#45;&gt;Node4</title>
<path fill="none" stroke="midnightblue" d="M303.75,-63.4795C276.755,-51.9238 237.396,-35.0758 213.878,-25.0091"/>
<polygon fill="midnightblue" stroke="midnightblue" points="302.514,-66.7574 313.085,-67.4751 305.269,-60.3222 302.514,-66.7574"/>
</g>
<!-- Node5 -->
<g id="node5" class="node"><title>Node5</title>
<g id="a_node5"><a xlink:href="erpc__arbitrated__client__setup_8h.html" target="_top" xlink:title="erpc_arbitrated_client\l_setup.h">
<polygon fill="white" stroke="black" points="278,-0.5 278,-30.5 388,-30.5 388,-0.5 278,-0.5"/>
<text text-anchor="start" x="286" y="-18.5" font-family="Helvetica,sans-Serif" font-size="10.00">erpc_arbitrated_client</text>
<text text-anchor="middle" x="333" y="-7.5" font-family="Helvetica,sans-Serif" font-size="10.00">_setup.h</text>
</a>
</g>
</g>
<!-- Node2&#45;&gt;Node5 -->
<g id="edge4" class="edge"><title>Node2&#45;&gt;Node5</title>
<path fill="none" stroke="midnightblue" d="M333,-57.2349C333,-48.5864 333,-38.4969 333,-30.523"/>
<polygon fill="midnightblue" stroke="midnightblue" points="329.5,-57.4751 333,-67.4751 336.5,-57.4751 329.5,-57.4751"/>
</g>
<!-- Node6 -->
<g id="node6" class="node"><title>Node6</title>
<g id="a_node6"><a xlink:href="erpc__client__setup_8h.html" target="_top" xlink:title="erpc_client_setup.h">
<polygon fill="white" stroke="black" points="406.5,-6 406.5,-25 507.5,-25 507.5,-6 406.5,-6"/>
<text text-anchor="middle" x="457" y="-13" font-family="Helvetica,sans-Serif" font-size="10.00">erpc_client_setup.h</text>
</a>
</g>
</g>
<!-- Node2&#45;&gt;Node6 -->
<g id="edge5" class="edge"><title>Node2&#45;&gt;Node6</title>
<path fill="none" stroke="midnightblue" d="M360.049,-63.0207C384.097,-51.4816 418.563,-34.9433 439.267,-25.0091"/>
<polygon fill="midnightblue" stroke="midnightblue" points="358.268,-59.9934 350.766,-67.4751 361.296,-66.3044 358.268,-59.9934"/>
</g>
<!-- Node8 -->
<g id="node8" class="node"><title>Node8</title>
<g id="a_node8"><a xlink:href="erpc__simple__server_8h.html" target="_top" xlink:title="erpc_simple_server.h">
<polygon fill="white" stroke="black" points="526,-6 526,-25 634,-25 634,-6 526,-6"/>
<text text-anchor="middle" x="580" y="-13" font-family="Helvetica,sans-Serif" font-size="10.00">erpc_simple_server.h</text>
</a>
</g>
</g>
<!-- Node7&#45;&gt;Node8 -->
<g id="edge7" class="edge"><title>Node7&#45;&gt;Node8</title>
<path fill="none" stroke="midnightblue" d="M530.285,-60.6496C543.059,-49.3058 559.978,-34.2811 570.418,-25.0091"/>
<polygon fill="midnightblue" stroke="midnightblue" points="527.753,-58.2179 522.599,-67.4751 532.401,-63.4519 527.753,-58.2179"/>
</g>
</g>
</svg>
