<?xml version="1.0" encoding="UTF-8" standalone="no"?>
<!DOCTYPE svg PUBLIC "-//W3C//DTD SVG 1.1//EN"
 "http://www.w3.org/Graphics/SVG/1.1/DTD/svg11.dtd">
<!-- Generated by graphviz version 2.38.0 (20140413.2041)
 -->
<!-- Title: erpc_mu_transport.h Pages: 1 -->
<svg width="551pt" height="252pt"
 viewBox="0.00 0.00 551.00 252.00" xmlns="http://www.w3.org/2000/svg" xmlns:xlink="http://www.w3.org/1999/xlink">
<g id="graph0" class="graph" transform="scale(1 1) rotate(0) translate(4 248)">
<title>erpc_mu_transport.h</title>
<polygon fill="white" stroke="none" points="-4,4 -4,-248 547,-248 547,4 -4,4"/>
<!-- Node1 -->
<g id="node1" class="node"><title>Node1</title>
<polygon fill="#bfbfbf" stroke="black" points="210.5,-224.5 210.5,-243.5 316.5,-243.5 316.5,-224.5 210.5,-224.5"/>
<text text-anchor="middle" x="263.5" y="-231.5" font-family="Helvetica,sans-Serif" font-size="10.00">erpc_mu_transport.h</text>
</g>
<!-- Node2 -->
<g id="node2" class="node"><title>Node2</title>
<g id="a_node2"><a xlink:href="erpc__config__internal_8h_source.html" target="_top" xlink:title="erpc_config_internal.h">
<polygon fill="white" stroke="black" points="0,-112.5 0,-131.5 111,-131.5 111,-112.5 0,-112.5"/>
<text text-anchor="middle" x="55.5" y="-119.5" font-family="Helvetica,sans-Serif" font-size="10.00">erpc_config_internal.h</text>
</a>
</g>
</g>
<!-- Node1&#45;&gt;Node2 -->
<g id="edge1" class="edge"><title>Node1&#45;&gt;Node2</title>
<path fill="none" stroke="midnightblue" d="M210.165,-231.419C171.639,-227.674 120.444,-217.018 85.5,-188 71.3277,-176.231 63.5098,-156.301 59.439,-141.605"/>
<polygon fill="midnightblue" stroke="midnightblue" points="62.7729,-140.502 57.0132,-131.609 55.9704,-142.153 62.7729,-140.502"/>
</g>
<!-- Node4 -->
<g id="node4" class="node"><title>Node4</title>
<g id="a_node4"><a xlink:href="erpc__threading_8h.html" target="_top" xlink:title="erpc_threading.h">
<polygon fill="white" stroke="black" points="95,-168.5 95,-187.5 184,-187.5 184,-168.5 95,-168.5"/>
<text text-anchor="middle" x="139.5" y="-175.5" font-family="Helvetica,sans-Serif" font-size="10.00">erpc_threading.h</text>
</a>
</g>
</g>
<!-- Node1&#45;&gt;Node4 -->
<g id="edge3" class="edge"><title>Node1&#45;&gt;Node4</title>
<path fill="none" stroke="midnightblue" d="M243.852,-224.444C223.535,-215.596 191.597,-201.687 168.402,-191.586"/>
<polygon fill="midnightblue" stroke="midnightblue" points="169.622,-188.3 159.056,-187.516 166.827,-194.718 169.622,-188.3"/>
</g>
<!-- Node6 -->
<g id="node6" class="node"><title>Node6</title>
<g id="a_node6"><a xlink:href="erpc__message__buffer_8h.html" target="_top" xlink:title="erpc_message_buffer.h">
<polygon fill="white" stroke="black" points="169,-112.5 169,-131.5 286,-131.5 286,-112.5 169,-112.5"/>
<text text-anchor="middle" x="227.5" y="-119.5" font-family="Helvetica,sans-Serif" font-size="10.00">erpc_message_buffer.h</text>
</a>
</g>
</g>
<!-- Node1&#45;&gt;Node6 -->
<g id="edge6" class="edge"><title>Node1&#45;&gt;Node6</title>
<path fill="none" stroke="midnightblue" d="M260.043,-224.444C256.459,-215.443 250.792,-200.831 246.5,-188 241.314,-172.495 236.155,-154.655 232.525,-141.592"/>
<polygon fill="midnightblue" stroke="midnightblue" points="235.887,-140.617 229.868,-131.898 229.136,-142.468 235.887,-140.617"/>
</g>
<!-- Node9 -->
<g id="node9" class="node"><title>Node9</title>
<g id="a_node9"><a xlink:href="erpc__transport_8h.html" target="_top" xlink:title="erpc_transport.h">
<polygon fill="white" stroke="black" points="256,-168.5 256,-187.5 343,-187.5 343,-168.5 256,-168.5"/>
<text text-anchor="middle" x="299.5" y="-175.5" font-family="Helvetica,sans-Serif" font-size="10.00">erpc_transport.h</text>
</a>
</g>
</g>
<!-- Node1&#45;&gt;Node9 -->
<g id="edge11" class="edge"><title>Node1&#45;&gt;Node9</title>
<path fill="none" stroke="midnightblue" d="M269.445,-224.083C274.477,-216.534 281.837,-205.495 288.013,-196.23"/>
<polygon fill="midnightblue" stroke="midnightblue" points="291.031,-198.013 293.666,-187.751 285.207,-194.13 291.031,-198.013"/>
</g>
<!-- Node12 -->
<g id="node12" class="node"><title>Node12</title>
<polygon fill="white" stroke="#bfbfbf" points="361.5,-168.5 361.5,-187.5 471.5,-187.5 471.5,-168.5 361.5,-168.5"/>
<text text-anchor="middle" x="416.5" y="-175.5" font-family="Helvetica,sans-Serif" font-size="10.00">fsl_device_registers.h</text>
</g>
<!-- Node1&#45;&gt;Node12 -->
<g id="edge17" class="edge"><title>Node1&#45;&gt;Node12</title>
<path fill="none" stroke="midnightblue" d="M287.743,-224.444C313.371,-215.399 353.985,-201.064 382.738,-190.916"/>
<polygon fill="midnightblue" stroke="midnightblue" points="384.105,-194.145 392.37,-187.516 381.775,-187.544 384.105,-194.145"/>
</g>
<!-- Node13 -->
<g id="node13" class="node"><title>Node13</title>
<polygon fill="white" stroke="#bfbfbf" points="490,-168.5 490,-187.5 543,-187.5 543,-168.5 490,-168.5"/>
<text text-anchor="middle" x="516.5" y="-175.5" font-family="Helvetica,sans-Serif" font-size="10.00">fsl_mu.h</text>
</g>
<!-- Node1&#45;&gt;Node13 -->
<g id="edge18" class="edge"><title>Node1&#45;&gt;Node13</title>
<path fill="none" stroke="midnightblue" d="M307.255,-224.467C349.017,-216.203 413.948,-203.04 479.668,-188.116"/>
<polygon fill="midnightblue" stroke="midnightblue" points="480.823,-191.443 489.793,-185.805 479.264,-184.619 480.823,-191.443"/>
</g>
<!-- Node3 -->
<g id="node3" class="node"><title>Node3</title>
<g id="a_node3"><a xlink:href="erpc__config_8h.html" target="_top" xlink:title="erpc_config.h">
<polygon fill="white" stroke="black" points="18.5,-56.5 18.5,-75.5 92.5,-75.5 92.5,-56.5 18.5,-56.5"/>
<text text-anchor="middle" x="55.5" y="-63.5" font-family="Helvetica,sans-Serif" font-size="10.00">erpc_config.h</text>
</a>
</g>
</g>
<!-- Node2&#45;&gt;Node3 -->
<g id="edge2" class="edge"><title>Node2&#45;&gt;Node3</title>
<path fill="none" stroke="midnightblue" d="M55.5,-112.083C55.5,-105.006 55.5,-94.8611 55.5,-85.9865"/>
<polygon fill="midnightblue" stroke="midnightblue" points="59.0001,-85.751 55.5,-75.7511 52.0001,-85.7511 59.0001,-85.751"/>
</g>
<!-- Node4&#45;&gt;Node2 -->
<g id="edge4" class="edge"><title>Node4&#45;&gt;Node2</title>
<path fill="none" stroke="midnightblue" d="M126.004,-168.324C112.9,-159.9 92.7881,-146.971 77.3931,-137.074"/>
<polygon fill="midnightblue" stroke="midnightblue" points="79.267,-134.118 68.9626,-131.655 75.4817,-140.006 79.267,-134.118"/>
</g>
<!-- Node5 -->
<g id="node5" class="node"><title>Node5</title>
<polygon fill="white" stroke="#bfbfbf" points="221,-0.5 221,-19.5 270,-19.5 270,-0.5 221,-0.5"/>
<text text-anchor="middle" x="245.5" y="-7.5" font-family="Helvetica,sans-Serif" font-size="10.00">stdint.h</text>
</g>
<!-- Node4&#45;&gt;Node5 -->
<g id="edge5" class="edge"><title>Node4&#45;&gt;Node5</title>
<path fill="none" stroke="midnightblue" d="M141.27,-168.471C146.011,-147.343 160.707,-91.7088 190.5,-56 200.104,-44.4886 212.983,-33.7664 223.864,-25.6778"/>
<polygon fill="midnightblue" stroke="midnightblue" points="225.98,-28.467 232.061,-19.7908 221.897,-22.7814 225.98,-28.467"/>
</g>
<!-- Node6&#45;&gt;Node5 -->
<g id="edge10" class="edge"><title>Node6&#45;&gt;Node5</title>
<path fill="none" stroke="midnightblue" d="M218.127,-112.249C206.032,-99.8406 187.548,-76.3746 196.5,-56 201.89,-43.732 212.458,-33.3414 222.404,-25.6461"/>
<polygon fill="midnightblue" stroke="midnightblue" points="224.752,-28.2697 230.839,-19.598 220.672,-22.5811 224.752,-28.2697"/>
</g>
<!-- Node7 -->
<g id="node7" class="node"><title>Node7</title>
<g id="a_node7"><a xlink:href="erpc__common_8h_source.html" target="_top" xlink:title="erpc_common.h">
<polygon fill="white" stroke="black" points="271.5,-56.5 271.5,-75.5 357.5,-75.5 357.5,-56.5 271.5,-56.5"/>
<text text-anchor="middle" x="314.5" y="-63.5" font-family="Helvetica,sans-Serif" font-size="10.00">erpc_common.h</text>
</a>
</g>
</g>
<!-- Node6&#45;&gt;Node7 -->
<g id="edge7" class="edge"><title>Node6&#45;&gt;Node7</title>
<path fill="none" stroke="midnightblue" d="M241.478,-112.324C255.05,-103.9 275.88,-90.9709 291.825,-81.0741"/>
<polygon fill="midnightblue" stroke="midnightblue" points="293.906,-83.9019 300.557,-75.6545 290.214,-77.9544 293.906,-83.9019"/>
</g>
<!-- Node8 -->
<g id="node8" class="node"><title>Node8</title>
<polygon fill="white" stroke="#bfbfbf" points="205.5,-56.5 205.5,-75.5 253.5,-75.5 253.5,-56.5 205.5,-56.5"/>
<text text-anchor="middle" x="229.5" y="-63.5" font-family="Helvetica,sans-Serif" font-size="10.00">cstddef</text>
</g>
<!-- Node6&#45;&gt;Node8 -->
<g id="edge9" class="edge"><title>Node6&#45;&gt;Node8</title>
<path fill="none" stroke="midnightblue" d="M227.83,-112.083C228.092,-105.006 228.468,-94.8611 228.797,-85.9865"/>
<polygon fill="midnightblue" stroke="midnightblue" points="232.303,-85.8738 229.176,-75.7511 225.308,-85.6147 232.303,-85.8738"/>
</g>
<!-- Node7&#45;&gt;Node5 -->
<g id="edge8" class="edge"><title>Node7&#45;&gt;Node5</title>
<path fill="none" stroke="midnightblue" d="M303.414,-56.324C293.014,-48.1849 277.239,-35.8395 264.778,-26.0874"/>
<polygon fill="midnightblue" stroke="midnightblue" points="266.82,-23.2407 256.788,-19.8339 262.506,-28.7533 266.82,-23.2407"/>
</g>
<!-- Node9&#45;&gt;Node6 -->
<g id="edge15" class="edge"><title>Node9&#45;&gt;Node6</title>
<path fill="none" stroke="midnightblue" d="M287.932,-168.324C277.08,-160.185 260.619,-147.839 247.617,-138.087"/>
<polygon fill="midnightblue" stroke="midnightblue" points="249.379,-135.034 239.279,-131.834 245.179,-140.634 249.379,-135.034"/>
</g>
<!-- Node9&#45;&gt;Node7 -->
<g id="edge12" class="edge"><title>Node9&#45;&gt;Node7</title>
<path fill="none" stroke="midnightblue" d="M300.677,-168.368C303.098,-150.617 308.682,-109.666 311.964,-85.5974"/>
<polygon fill="midnightblue" stroke="midnightblue" points="315.445,-85.9726 313.328,-75.5914 308.509,-85.0268 315.445,-85.9726"/>
</g>
<!-- Node10 -->
<g id="node10" class="node"><title>Node10</title>
<g id="a_node10"><a xlink:href="erpc__crc16_8h.html" target="_top" xlink:title="erpc_crc16.h">
<polygon fill="white" stroke="black" points="376,-56.5 376,-75.5 449,-75.5 449,-56.5 376,-56.5"/>
<text text-anchor="middle" x="412.5" y="-63.5" font-family="Helvetica,sans-Serif" font-size="10.00">erpc_crc16.h</text>
</a>
</g>
</g>
<!-- Node9&#45;&gt;Node10 -->
<g id="edge13" class="edge"><title>Node9&#45;&gt;Node10</title>
<path fill="none" stroke="midnightblue" d="M308.367,-168.368C327.345,-149.894 372.136,-106.293 396.327,-82.7436"/>
<polygon fill="midnightblue" stroke="midnightblue" points="398.95,-85.0747 403.674,-75.5914 394.067,-80.0588 398.95,-85.0747"/>
</g>
<!-- Node11 -->
<g id="node11" class="node"><title>Node11</title>
<polygon fill="white" stroke="#bfbfbf" points="380.5,-112.5 380.5,-131.5 426.5,-131.5 426.5,-112.5 380.5,-112.5"/>
<text text-anchor="middle" x="403.5" y="-119.5" font-family="Helvetica,sans-Serif" font-size="10.00">cstring</text>
</g>
<!-- Node9&#45;&gt;Node11 -->
<g id="edge16" class="edge"><title>Node9&#45;&gt;Node11</title>
<path fill="none" stroke="midnightblue" d="M316.209,-168.324C332.812,-159.703 358.502,-146.364 377.72,-136.386"/>
<polygon fill="midnightblue" stroke="midnightblue" points="379.57,-139.369 386.832,-131.655 376.344,-133.156 379.57,-139.369"/>
</g>
<!-- Node10&#45;&gt;Node5 -->
<g id="edge14" class="edge"><title>Node10&#45;&gt;Node5</title>
<path fill="none" stroke="midnightblue" d="M386.038,-56.4435C357.324,-47.1586 311.371,-32.2996 279.88,-22.117"/>
<polygon fill="midnightblue" stroke="midnightblue" points="280.796,-18.7348 270.205,-18.9883 278.643,-25.3953 280.796,-18.7348"/>
</g>
</g>
</svg>
