<?xml version="1.0" encoding="UTF-8" standalone="no"?>
<!DOCTYPE svg PUBLIC "-//W3C//DTD SVG 1.1//EN"
 "http://www.w3.org/Graphics/SVG/1.1/DTD/svg11.dtd">
<!-- Generated by graphviz version 2.38.0 (20140413.2041)
 -->
<!-- Title: erpc_crc16.hpp Pages: 1 -->
<svg width="2881pt" height="341pt"
 viewBox="0.00 0.00 2881.00 341.00" xmlns="http://www.w3.org/2000/svg" xmlns:xlink="http://www.w3.org/1999/xlink">
<g id="graph0" class="graph" transform="scale(1 1) rotate(0) translate(4 337)">
<title>erpc_crc16.hpp</title>
<polygon fill="white" stroke="none" points="-4,4 -4,-337 2877,-337 2877,4 -4,4"/>
<!-- Node1 -->
<g id="node1" class="node"><title>Node1</title>
<polygon fill="#bfbfbf" stroke="black" points="2251.5,-313.5 2251.5,-332.5 2334.5,-332.5 2334.5,-313.5 2251.5,-313.5"/>
<text text-anchor="middle" x="2293" y="-320.5" font-family="Helvetica,sans-Serif" font-size="10.00">erpc_crc16.hpp</text>
</g>
<!-- Node2 -->
<g id="node2" class="node"><title>Node2</title>
<g id="a_node2"><a xlink:href="erpc__transport_8hpp.html" target="_top" xlink:title="erpc_transport.hpp">
<polygon fill="white" stroke="black" points="1714,-257.5 1714,-276.5 1812,-276.5 1812,-257.5 1714,-257.5"/>
<text text-anchor="middle" x="1763" y="-264.5" font-family="Helvetica,sans-Serif" font-size="10.00">erpc_transport.hpp</text>
</a>
</g>
</g>
<!-- Node1&#45;&gt;Node2 -->
<g id="edge1" class="edge"><title>Node1&#45;&gt;Node2</title>
<path fill="none" stroke="midnightblue" d="M2241.34,-316.736C2139.19,-306.328 1912.61,-283.244 1812.36,-273.029"/>
<polygon fill="midnightblue" stroke="midnightblue" points="2241.11,-320.231 2251.41,-317.763 2241.82,-313.267 2241.11,-320.231"/>
</g>
<!-- Node19 -->
<g id="node19" class="node"><title>Node19</title>
<g id="a_node19"><a xlink:href="erpc__rpmsg__tty__rtos__transport_8hpp.html" target="_top" xlink:title="erpc_rpmsg_tty_rtos\l_transport.hpp">
<polygon fill="white" stroke="black" points="2767,-123.5 2767,-153.5 2873,-153.5 2873,-123.5 2767,-123.5"/>
<text text-anchor="start" x="2775" y="-141.5" font-family="Helvetica,sans-Serif" font-size="10.00">erpc_rpmsg_tty_rtos</text>
<text text-anchor="middle" x="2820" y="-130.5" font-family="Helvetica,sans-Serif" font-size="10.00">_transport.hpp</text>
</a>
</g>
</g>
<!-- Node1&#45;&gt;Node19 -->
<g id="edge38" class="edge"><title>Node1&#45;&gt;Node19</title>
<path fill="none" stroke="midnightblue" d="M2327.23,-310.146C2420.48,-277.855 2678.7,-188.432 2779.22,-153.623"/>
<polygon fill="midnightblue" stroke="midnightblue" points="2326.02,-306.863 2317.71,-313.442 2328.31,-313.477 2326.02,-306.863"/>
</g>
<!-- Node33 -->
<g id="node33" class="node"><title>Node33</title>
<g id="a_node33"><a xlink:href="erpc__rpmsg__lite__rtos__transport_8hpp.html" target="_top" xlink:title="erpc_rpmsg_lite_rtos\l_transport.hpp">
<polygon fill="white" stroke="black" points="2166.5,-190.5 2166.5,-220.5 2273.5,-220.5 2273.5,-190.5 2166.5,-190.5"/>
<text text-anchor="start" x="2174.5" y="-208.5" font-family="Helvetica,sans-Serif" font-size="10.00">erpc_rpmsg_lite_rtos</text>
<text text-anchor="middle" x="2220" y="-197.5" font-family="Helvetica,sans-Serif" font-size="10.00">_transport.hpp</text>
</a>
</g>
</g>
<!-- Node1&#45;&gt;Node33 -->
<g id="edge36" class="edge"><title>Node1&#45;&gt;Node33</title>
<path fill="none" stroke="midnightblue" d="M2282.02,-304.63C2267.52,-281.679 2242.24,-241.695 2228.88,-220.545"/>
<polygon fill="midnightblue" stroke="midnightblue" points="2279.21,-306.736 2287.51,-313.319 2285.13,-302.996 2279.21,-306.736"/>
</g>
<!-- Node34 -->
<g id="node34" class="node"><title>Node34</title>
<g id="a_node34"><a xlink:href="erpc__rpmsg__lite__transport_8hpp.html" target="_top" xlink:title="erpc_rpmsg_lite_transport.hpp">
<polygon fill="white" stroke="black" points="2292,-196 2292,-215 2440,-215 2440,-196 2292,-196"/>
<text text-anchor="middle" x="2366" y="-203" font-family="Helvetica,sans-Serif" font-size="10.00">erpc_rpmsg_lite_transport.hpp</text>
</a>
</g>
</g>
<!-- Node1&#45;&gt;Node34 -->
<g id="edge37" class="edge"><title>Node1&#45;&gt;Node34</title>
<path fill="none" stroke="midnightblue" d="M2303.84,-304.844C2319.64,-279.857 2348.39,-234.355 2360.45,-215.282"/>
<polygon fill="midnightblue" stroke="midnightblue" points="2300.87,-302.996 2298.49,-313.319 2306.79,-306.736 2300.87,-302.996"/>
</g>
<!-- Node3 -->
<g id="node3" class="node"><title>Node3</title>
<g id="a_node3"><a xlink:href="erpc__codec_8hpp.html" target="_top" xlink:title="erpc_codec.hpp">
<polygon fill="white" stroke="black" points="550,-196 550,-215 636,-215 636,-196 550,-196"/>
<text text-anchor="middle" x="593" y="-203" font-family="Helvetica,sans-Serif" font-size="10.00">erpc_codec.hpp</text>
</a>
</g>
</g>
<!-- Node2&#45;&gt;Node3 -->
<g id="edge2" class="edge"><title>Node2&#45;&gt;Node3</title>
<path fill="none" stroke="midnightblue" d="M1703.5,-265.009C1504.33,-261.466 862.056,-248.17 657,-221 646.61,-219.623 635.422,-217.363 625.351,-215.033"/>
<polygon fill="midnightblue" stroke="midnightblue" points="1703.7,-268.513 1713.76,-265.189 1703.82,-261.514 1703.7,-268.513"/>
</g>
<!-- Node7 -->
<g id="node7" class="node"><title>Node7</title>
<g id="a_node7"><a xlink:href="erpc__transport__arbitrator_8hpp.html" target="_top" xlink:title="erpc_transport_arbitrator.hpp">
<polygon fill="white" stroke="black" points="513.5,-6 513.5,-25 654.5,-25 654.5,-6 513.5,-6"/>
<text text-anchor="middle" x="584" y="-13" font-family="Helvetica,sans-Serif" font-size="10.00">erpc_transport_arbitrator.hpp</text>
</a>
</g>
</g>
<!-- Node2&#45;&gt;Node7 -->
<g id="edge13" class="edge"><title>Node2&#45;&gt;Node7</title>
<path fill="none" stroke="midnightblue" d="M1703.54,-265.858C1504.76,-264.458 866.041,-252.245 690,-154 661.837,-138.283 606.687,-52.759 589.349,-25.1195"/>
<polygon fill="midnightblue" stroke="midnightblue" points="1703.76,-269.359 1713.78,-265.923 1703.8,-262.359 1703.76,-269.359"/>
</g>
<!-- Node13 -->
<g id="node13" class="node"><title>Node13</title>
<g id="a_node13"><a xlink:href="erpc__framed__transport_8hpp.html" target="_top" xlink:title="erpc_framed_transport.hpp">
<polygon fill="white" stroke="black" points="1545,-196 1545,-215 1677,-215 1677,-196 1545,-196"/>
<text text-anchor="middle" x="1611" y="-203" font-family="Helvetica,sans-Serif" font-size="10.00">erpc_framed_transport.hpp</text>
</a>
</g>
</g>
<!-- Node2&#45;&gt;Node13 -->
<g id="edge14" class="edge"><title>Node2&#45;&gt;Node13</title>
<path fill="none" stroke="midnightblue" d="M1731.79,-253.782C1702.25,-242.22 1658.68,-225.164 1632.74,-215.009"/>
<polygon fill="midnightblue" stroke="midnightblue" points="1730.63,-257.089 1741.22,-257.475 1733.19,-250.571 1730.63,-257.089"/>
</g>
<!-- Node28 -->
<g id="node28" class="node"><title>Node28</title>
<g id="a_node28"><a xlink:href="erpc__message__loggers_8hpp.html" target="_top" xlink:title="erpc_message_loggers.hpp">
<polygon fill="white" stroke="black" points="1695,-196 1695,-215 1831,-215 1831,-196 1695,-196"/>
<text text-anchor="middle" x="1763" y="-203" font-family="Helvetica,sans-Serif" font-size="10.00">erpc_message_loggers.hpp</text>
</a>
</g>
</g>
<!-- Node2&#45;&gt;Node28 -->
<g id="edge29" class="edge"><title>Node2&#45;&gt;Node28</title>
<path fill="none" stroke="midnightblue" d="M1763,-247.317C1763,-236.496 1763,-223.398 1763,-215.009"/>
<polygon fill="midnightblue" stroke="midnightblue" points="1759.5,-247.475 1763,-257.475 1766.5,-247.475 1759.5,-247.475"/>
</g>
<!-- Node29 -->
<g id="node29" class="node"><title>Node29</title>
<g id="a_node29"><a xlink:href="erpc__inter__thread__buffer__transport_8hpp.html" target="_top" xlink:title="erpc_inter_thread_buffer\l_transport.hpp">
<polygon fill="white" stroke="black" points="1849,-190.5 1849,-220.5 1969,-220.5 1969,-190.5 1849,-190.5"/>
<text text-anchor="start" x="1857" y="-208.5" font-family="Helvetica,sans-Serif" font-size="10.00">erpc_inter_thread_buffer</text>
<text text-anchor="middle" x="1909" y="-197.5" font-family="Helvetica,sans-Serif" font-size="10.00">_transport.hpp</text>
</a>
</g>
</g>
<!-- Node2&#45;&gt;Node29 -->
<g id="edge30" class="edge"><title>Node2&#45;&gt;Node29</title>
<path fill="none" stroke="midnightblue" d="M1793.45,-253.59C1817.12,-243.942 1849.97,-230.558 1874.59,-220.523"/>
<polygon fill="midnightblue" stroke="midnightblue" points="1791.86,-250.46 1783.92,-257.475 1794.5,-256.942 1791.86,-250.46"/>
</g>
<!-- Node30 -->
<g id="node30" class="node"><title>Node30</title>
<g id="a_node30"><a xlink:href="erpc__mbox__zephyr__transport_8hpp.html" target="_top" xlink:title="erpc_mbox_zephyr_transport.hpp">
<polygon fill="white" stroke="black" points="1987.5,-196 1987.5,-215 2148.5,-215 2148.5,-196 1987.5,-196"/>
<text text-anchor="middle" x="2068" y="-203" font-family="Helvetica,sans-Serif" font-size="10.00">erpc_mbox_zephyr_transport.hpp</text>
</a>
</g>
</g>
<!-- Node2&#45;&gt;Node30 -->
<g id="edge31" class="edge"><title>Node2&#45;&gt;Node30</title>
<path fill="none" stroke="midnightblue" d="M1816.59,-255.546C1875.68,-244.018 1969.61,-225.694 2024.38,-215.009"/>
<polygon fill="midnightblue" stroke="midnightblue" points="1815.84,-252.125 1806.7,-257.475 1817.18,-258.996 1815.84,-252.125"/>
</g>
<!-- Node31 -->
<g id="node31" class="node"><title>Node31</title>
<g id="a_node31"><a xlink:href="erpc__mu__transport_8hpp.html" target="_top" xlink:title="erpc_mu_transport.hpp">
<polygon fill="white" stroke="black" points="242,-196 242,-215 358,-215 358,-196 242,-196"/>
<text text-anchor="middle" x="300" y="-203" font-family="Helvetica,sans-Serif" font-size="10.00">erpc_mu_transport.hpp</text>
</a>
</g>
</g>
<!-- Node2&#45;&gt;Node31 -->
<g id="edge32" class="edge"><title>Node2&#45;&gt;Node31</title>
<path fill="none" stroke="midnightblue" d="M1703.63,-265.517C1472.39,-263.413 631.724,-253.64 367,-221 356.015,-219.646 344.169,-217.362 333.538,-215.002"/>
<polygon fill="midnightblue" stroke="midnightblue" points="1703.83,-269.019 1713.86,-265.608 1703.89,-262.019 1703.83,-269.019"/>
</g>
<!-- Node32 -->
<g id="node32" class="node"><title>Node32</title>
<g id="a_node32"><a xlink:href="erpc__rpmsg__linux__transport_8hpp_source.html" target="_top" xlink:title="erpc_rpmsg_linux_transport.hpp">
<polygon fill="white" stroke="black" points="376.5,-196 376.5,-215 531.5,-215 531.5,-196 376.5,-196"/>
<text text-anchor="middle" x="454" y="-203" font-family="Helvetica,sans-Serif" font-size="10.00">erpc_rpmsg_linux_transport.hpp</text>
</a>
</g>
</g>
<!-- Node2&#45;&gt;Node32 -->
<g id="edge33" class="edge"><title>Node2&#45;&gt;Node32</title>
<path fill="none" stroke="midnightblue" d="M1703.81,-266.506C1526.81,-267.443 986.243,-266.113 541,-221 527.137,-219.595 512.136,-217.357 498.559,-215.055"/>
<polygon fill="midnightblue" stroke="midnightblue" points="1703.97,-270.005 1713.95,-266.448 1703.93,-263.005 1703.97,-270.005"/>
</g>
<!-- Node2&#45;&gt;Node33 -->
<g id="edge34" class="edge"><title>Node2&#45;&gt;Node33</title>
<path fill="none" stroke="midnightblue" d="M1822.11,-261.337C1899.44,-254.761 2038.97,-241.257 2157,-221 2160.1,-220.468 2163.27,-219.88 2166.47,-219.253"/>
<polygon fill="midnightblue" stroke="midnightblue" points="1821.75,-257.855 1812.08,-262.181 1822.34,-264.83 1821.75,-257.855"/>
</g>
<!-- Node2&#45;&gt;Node34 -->
<g id="edge35" class="edge"><title>Node2&#45;&gt;Node34</title>
<path fill="none" stroke="midnightblue" d="M1822.32,-262.493C1918.9,-256.414 2116.06,-242.477 2282,-221 2294.62,-219.366 2308.24,-217.194 2320.77,-215.029"/>
<polygon fill="midnightblue" stroke="midnightblue" points="1821.93,-259.01 1812.16,-263.126 1822.36,-265.996 1821.93,-259.01"/>
</g>
<!-- Node4 -->
<g id="node4" class="node"><title>Node4</title>
<g id="a_node4"><a xlink:href="erpc__client__server__common_8hpp.html" target="_top" xlink:title="erpc_client_server\l_common.hpp">
<polygon fill="white" stroke="black" points="377.5,-123.5 377.5,-153.5 472.5,-153.5 472.5,-123.5 377.5,-123.5"/>
<text text-anchor="start" x="385.5" y="-141.5" font-family="Helvetica,sans-Serif" font-size="10.00">erpc_client_server</text>
<text text-anchor="middle" x="425" y="-130.5" font-family="Helvetica,sans-Serif" font-size="10.00">_common.hpp</text>
</a>
</g>
</g>
<!-- Node3&#45;&gt;Node4 -->
<g id="edge3" class="edge"><title>Node3&#45;&gt;Node4</title>
<path fill="none" stroke="midnightblue" d="M561.216,-192.202C532.747,-181.188 491.017,-165.042 461.257,-153.528"/>
<polygon fill="midnightblue" stroke="midnightblue" points="560.102,-195.524 570.691,-195.869 562.628,-188.996 560.102,-195.524"/>
</g>
<!-- Node3&#45;&gt;Node7 -->
<g id="edge11" class="edge"><title>Node3&#45;&gt;Node7</title>
<path fill="none" stroke="midnightblue" d="M561.323,-191.277C545.874,-183.015 528.769,-170.729 520,-154 494.94,-106.192 551.055,-46.7795 574.408,-25.0048"/>
<polygon fill="midnightblue" stroke="midnightblue" points="560.126,-194.591 570.639,-195.906 563.241,-188.322 560.126,-194.591"/>
</g>
<!-- Node12 -->
<g id="node12" class="node"><title>Node12</title>
<g id="a_node12"><a xlink:href="erpc__basic__codec_8hpp.html" target="_top" xlink:title="erpc_basic_codec.hpp">
<polygon fill="white" stroke="black" points="529,-129 529,-148 643,-148 643,-129 529,-129"/>
<text text-anchor="middle" x="586" y="-136" font-family="Helvetica,sans-Serif" font-size="10.00">erpc_basic_codec.hpp</text>
</a>
</g>
</g>
<!-- Node3&#45;&gt;Node12 -->
<g id="edge12" class="edge"><title>Node3&#45;&gt;Node12</title>
<path fill="none" stroke="midnightblue" d="M590.958,-185.537C589.626,-173.17 587.951,-157.62 586.929,-148.127"/>
<polygon fill="midnightblue" stroke="midnightblue" points="587.505,-186.166 592.056,-195.734 594.465,-185.417 587.505,-186.166"/>
</g>
<!-- Node5 -->
<g id="node5" class="node"><title>Node5</title>
<g id="a_node5"><a xlink:href="erpc__client__manager_8h.html" target="_top" xlink:title="erpc_client_manager.h">
<polygon fill="white" stroke="black" points="245.5,-67.5 245.5,-86.5 360.5,-86.5 360.5,-67.5 245.5,-67.5"/>
<text text-anchor="middle" x="303" y="-74.5" font-family="Helvetica,sans-Serif" font-size="10.00">erpc_client_manager.h</text>
</a>
</g>
</g>
<!-- Node4&#45;&gt;Node5 -->
<g id="edge4" class="edge"><title>Node4&#45;&gt;Node5</title>
<path fill="none" stroke="midnightblue" d="M386.944,-118.94C364.84,-108.159 338.03,-95.0843 320.752,-86.6578"/>
<polygon fill="midnightblue" stroke="midnightblue" points="385.565,-122.162 396.088,-123.399 388.634,-115.87 385.565,-122.162"/>
</g>
<!-- Node10 -->
<g id="node10" class="node"><title>Node10</title>
<g id="a_node10"><a xlink:href="erpc__server_8hpp.html" target="_top" xlink:title="erpc_server.hpp">
<polygon fill="white" stroke="black" points="385.5,-67.5 385.5,-86.5 470.5,-86.5 470.5,-67.5 385.5,-67.5"/>
<text text-anchor="middle" x="428" y="-74.5" font-family="Helvetica,sans-Serif" font-size="10.00">erpc_server.hpp</text>
</a>
</g>
</g>
<!-- Node4&#45;&gt;Node10 -->
<g id="edge9" class="edge"><title>Node4&#45;&gt;Node10</title>
<path fill="none" stroke="midnightblue" d="M426.221,-113.289C426.696,-103.857 427.211,-93.6548 427.563,-86.6578"/>
<polygon fill="midnightblue" stroke="midnightblue" points="422.719,-113.236 425.711,-123.399 429.71,-113.588 422.719,-113.236"/>
</g>
<!-- Node6 -->
<g id="node6" class="node"><title>Node6</title>
<g id="a_node6"><a xlink:href="erpc__arbitrated__client__manager_8hpp.html" target="_top" xlink:title="erpc_arbitrated_client\l_manager.hpp">
<polygon fill="white" stroke="black" points="248,-0.5 248,-30.5 358,-30.5 358,-0.5 248,-0.5"/>
<text text-anchor="start" x="256" y="-18.5" font-family="Helvetica,sans-Serif" font-size="10.00">erpc_arbitrated_client</text>
<text text-anchor="middle" x="303" y="-7.5" font-family="Helvetica,sans-Serif" font-size="10.00">_manager.hpp</text>
</a>
</g>
</g>
<!-- Node5&#45;&gt;Node6 -->
<g id="edge5" class="edge"><title>Node5&#45;&gt;Node6</title>
<path fill="none" stroke="midnightblue" d="M303,-57.2349C303,-48.5864 303,-38.4969 303,-30.523"/>
<polygon fill="midnightblue" stroke="midnightblue" points="299.5,-57.4751 303,-67.4751 306.5,-57.4751 299.5,-57.4751"/>
</g>
<!-- Node5&#45;&gt;Node7 -->
<g id="edge6" class="edge"><title>Node5&#45;&gt;Node7</title>
<path fill="none" stroke="midnightblue" d="M353.05,-65.4023C407.527,-53.8671 493.562,-35.6498 543.814,-25.0091"/>
<polygon fill="midnightblue" stroke="midnightblue" points="352.318,-61.9794 343.26,-67.4751 353.769,-68.8276 352.318,-61.9794"/>
</g>
<!-- Node8 -->
<g id="node8" class="node"><title>Node8</title>
<g id="a_node8"><a xlink:href="erpc__arbitrated__client__setup_8h.html" target="_top" xlink:title="erpc_arbitrated_client\l_setup.h">
<polygon fill="white" stroke="black" points="0,-0.5 0,-30.5 110,-30.5 110,-0.5 0,-0.5"/>
<text text-anchor="start" x="8" y="-18.5" font-family="Helvetica,sans-Serif" font-size="10.00">erpc_arbitrated_client</text>
<text text-anchor="middle" x="55" y="-7.5" font-family="Helvetica,sans-Serif" font-size="10.00">_setup.h</text>
</a>
</g>
</g>
<!-- Node5&#45;&gt;Node8 -->
<g id="edge7" class="edge"><title>Node5&#45;&gt;Node8</title>
<path fill="none" stroke="midnightblue" d="M257.621,-65.1127C216.078,-55.1456 154.495,-40.3707 110.133,-29.7275"/>
<polygon fill="midnightblue" stroke="midnightblue" points="256.927,-68.5455 267.468,-67.4751 258.56,-61.7386 256.927,-68.5455"/>
</g>
<!-- Node9 -->
<g id="node9" class="node"><title>Node9</title>
<g id="a_node9"><a xlink:href="erpc__client__setup_8h.html" target="_top" xlink:title="erpc_client_setup.h">
<polygon fill="white" stroke="black" points="128.5,-6 128.5,-25 229.5,-25 229.5,-6 128.5,-6"/>
<text text-anchor="middle" x="179" y="-13" font-family="Helvetica,sans-Serif" font-size="10.00">erpc_client_setup.h</text>
</a>
</g>
</g>
<!-- Node5&#45;&gt;Node9 -->
<g id="edge8" class="edge"><title>Node5&#45;&gt;Node9</title>
<path fill="none" stroke="midnightblue" d="M275.951,-63.0207C251.903,-51.4816 217.437,-34.9433 196.733,-25.0091"/>
<polygon fill="midnightblue" stroke="midnightblue" points="274.704,-66.3044 285.234,-67.4751 277.732,-59.9934 274.704,-66.3044"/>
</g>
<!-- Node11 -->
<g id="node11" class="node"><title>Node11</title>
<g id="a_node11"><a xlink:href="erpc__simple__server_8hpp.html" target="_top" xlink:title="erpc_simple_server.hpp">
<polygon fill="white" stroke="black" points="376.5,-6 376.5,-25 495.5,-25 495.5,-6 376.5,-6"/>
<text text-anchor="middle" x="436" y="-13" font-family="Helvetica,sans-Serif" font-size="10.00">erpc_simple_server.hpp</text>
</a>
</g>
</g>
<!-- Node10&#45;&gt;Node11 -->
<g id="edge10" class="edge"><title>Node10&#45;&gt;Node11</title>
<path fill="none" stroke="midnightblue" d="M430.512,-57.3165C431.967,-46.4962 433.728,-33.398 434.856,-25.0091"/>
<polygon fill="midnightblue" stroke="midnightblue" points="427.01,-57.0979 429.146,-67.4751 433.948,-58.0307 427.01,-57.0979"/>
</g>
<!-- Node14 -->
<g id="node14" class="node"><title>Node14</title>
<g id="a_node14"><a xlink:href="erpc__dspi__master__transport_8hpp.html" target="_top" xlink:title="erpc_dspi_master_transport.hpp">
<polygon fill="white" stroke="black" points="1199,-129 1199,-148 1355,-148 1355,-129 1199,-129"/>
<text text-anchor="middle" x="1277" y="-136" font-family="Helvetica,sans-Serif" font-size="10.00">erpc_dspi_master_transport.hpp</text>
</a>
</g>
</g>
<!-- Node13&#45;&gt;Node14 -->
<g id="edge15" class="edge"><title>Node13&#45;&gt;Node14</title>
<path fill="none" stroke="midnightblue" d="M1556.83,-193.958C1491.09,-181.165 1381.53,-159.843 1320.84,-148.032"/>
<polygon fill="midnightblue" stroke="midnightblue" points="1556.51,-197.461 1566.99,-195.936 1557.84,-190.59 1556.51,-197.461"/>
</g>
<!-- Node15 -->
<g id="node15" class="node"><title>Node15</title>
<g id="a_node15"><a xlink:href="erpc__dspi__slave__transport_8hpp.html" target="_top" xlink:title="erpc_dspi_slave_transport.hpp">
<polygon fill="white" stroke="black" points="1373,-129 1373,-148 1521,-148 1521,-129 1373,-129"/>
<text text-anchor="middle" x="1447" y="-136" font-family="Helvetica,sans-Serif" font-size="10.00">erpc_dspi_slave_transport.hpp</text>
</a>
</g>
</g>
<!-- Node13&#45;&gt;Node15 -->
<g id="edge16" class="edge"><title>Node13&#45;&gt;Node15</title>
<path fill="none" stroke="midnightblue" d="M1579.72,-192.104C1547.16,-179.198 1497.03,-159.327 1468.61,-148.064"/>
<polygon fill="midnightblue" stroke="midnightblue" points="1578.64,-195.438 1589.22,-195.869 1581.22,-188.93 1578.64,-195.438"/>
</g>
<!-- Node16 -->
<g id="node16" class="node"><title>Node16</title>
<g id="a_node16"><a xlink:href="erpc__i2c__slave__transport_8hpp.html" target="_top" xlink:title="erpc_i2c_slave_transport.hpp">
<polygon fill="white" stroke="black" points="1539.5,-129 1539.5,-148 1682.5,-148 1682.5,-129 1539.5,-129"/>
<text text-anchor="middle" x="1611" y="-136" font-family="Helvetica,sans-Serif" font-size="10.00">erpc_i2c_slave_transport.hpp</text>
</a>
</g>
</g>
<!-- Node13&#45;&gt;Node16 -->
<g id="edge17" class="edge"><title>Node13&#45;&gt;Node16</title>
<path fill="none" stroke="midnightblue" d="M1611,-185.537C1611,-173.17 1611,-157.62 1611,-148.127"/>
<polygon fill="midnightblue" stroke="midnightblue" points="1607.5,-185.734 1611,-195.734 1614.5,-185.734 1607.5,-185.734"/>
</g>
<!-- Node17 -->
<g id="node17" class="node"><title>Node17</title>
<g id="a_node17"><a xlink:href="erpc__lpi2c__slave__transport_8hpp.html" target="_top" xlink:title="erpc_lpi2c_slave_transport.hpp">
<polygon fill="white" stroke="black" points="1701,-129 1701,-148 1851,-148 1851,-129 1701,-129"/>
<text text-anchor="middle" x="1776" y="-136" font-family="Helvetica,sans-Serif" font-size="10.00">erpc_lpi2c_slave_transport.hpp</text>
</a>
</g>
</g>
<!-- Node13&#45;&gt;Node17 -->
<g id="edge18" class="edge"><title>Node13&#45;&gt;Node17</title>
<path fill="none" stroke="midnightblue" d="M1642.47,-192.104C1675.23,-179.198 1725.67,-159.327 1754.26,-148.064"/>
<polygon fill="midnightblue" stroke="midnightblue" points="1640.93,-188.947 1632.91,-195.869 1643.5,-195.46 1640.93,-188.947"/>
</g>
<!-- Node18 -->
<g id="node18" class="node"><title>Node18</title>
<g id="a_node18"><a xlink:href="erpc__lpspi__slave__transport_8hpp.html" target="_top" xlink:title="erpc_lpspi_slave_transport.hpp">
<polygon fill="white" stroke="black" points="1869,-129 1869,-148 2019,-148 2019,-129 1869,-129"/>
<text text-anchor="middle" x="1944" y="-136" font-family="Helvetica,sans-Serif" font-size="10.00">erpc_lpspi_slave_transport.hpp</text>
</a>
</g>
</g>
<!-- Node13&#45;&gt;Node18 -->
<g id="edge19" class="edge"><title>Node13&#45;&gt;Node18</title>
<path fill="none" stroke="midnightblue" d="M1665.01,-193.958C1730.55,-181.165 1839.78,-159.843 1900.29,-148.032"/>
<polygon fill="midnightblue" stroke="midnightblue" points="1664.02,-190.585 1654.88,-195.936 1665.36,-197.455 1664.02,-190.585"/>
</g>
<!-- Node13&#45;&gt;Node19 -->
<g id="edge20" class="edge"><title>Node13&#45;&gt;Node19</title>
<path fill="none" stroke="midnightblue" d="M1658.9,-194.076C1667.87,-192.456 1677.19,-190.993 1686,-190 2159.71,-136.59 2285.41,-216.581 2758,-154 2760.85,-153.623 2763.76,-153.172 2766.69,-152.668"/>
<polygon fill="midnightblue" stroke="midnightblue" points="1658.15,-190.656 1648.98,-195.955 1659.45,-197.534 1658.15,-190.656"/>
</g>
<!-- Node20 -->
<g id="node20" class="node"><title>Node20</title>
<g id="a_node20"><a xlink:href="erpc__serial__transport_8hpp.html" target="_top" xlink:title="erpc_serial_transport.hpp">
<polygon fill="white" stroke="black" points="2037,-129 2037,-148 2163,-148 2163,-129 2037,-129"/>
<text text-anchor="middle" x="2100" y="-136" font-family="Helvetica,sans-Serif" font-size="10.00">erpc_serial_transport.hpp</text>
</a>
</g>
</g>
<!-- Node13&#45;&gt;Node20 -->
<g id="edge21" class="edge"><title>Node13&#45;&gt;Node20</title>
<path fill="none" stroke="midnightblue" d="M1661.83,-194.061C1669.89,-192.581 1678.16,-191.168 1686,-190 1837.17,-167.473 1876.92,-177.113 2028,-154 2038.71,-152.361 2050.25,-150.212 2060.88,-148.072"/>
<polygon fill="midnightblue" stroke="midnightblue" points="1660.94,-190.666 1651.76,-195.958 1662.24,-197.545 1660.94,-190.666"/>
</g>
<!-- Node21 -->
<g id="node21" class="node"><title>Node21</title>
<g id="a_node21"><a xlink:href="erpc__spi__master__transport_8hpp.html" target="_top" xlink:title="erpc_spi_master_transport.hpp">
<polygon fill="white" stroke="black" points="2181.5,-129 2181.5,-148 2332.5,-148 2332.5,-129 2181.5,-129"/>
<text text-anchor="middle" x="2257" y="-136" font-family="Helvetica,sans-Serif" font-size="10.00">erpc_spi_master_transport.hpp</text>
</a>
</g>
</g>
<!-- Node13&#45;&gt;Node21 -->
<g id="edge22" class="edge"><title>Node13&#45;&gt;Node21</title>
<path fill="none" stroke="midnightblue" d="M1660.66,-194.052C1669.09,-192.522 1677.78,-191.096 1686,-190 1900.69,-161.394 1957,-180.241 2172,-154 2184.93,-152.422 2198.89,-150.242 2211.68,-148.051"/>
<polygon fill="midnightblue" stroke="midnightblue" points="1659.74,-190.664 1650.56,-195.954 1661.03,-197.543 1659.74,-190.664"/>
</g>
<!-- Node22 -->
<g id="node22" class="node"><title>Node22</title>
<g id="a_node22"><a xlink:href="erpc__spi__slave__transport_8hpp.html" target="_top" xlink:title="erpc_spi_slave_transport.hpp">
<polygon fill="white" stroke="black" points="2350.5,-129 2350.5,-148 2493.5,-148 2493.5,-129 2350.5,-129"/>
<text text-anchor="middle" x="2422" y="-136" font-family="Helvetica,sans-Serif" font-size="10.00">erpc_spi_slave_transport.hpp</text>
</a>
</g>
</g>
<!-- Node13&#45;&gt;Node22 -->
<g id="edge23" class="edge"><title>Node13&#45;&gt;Node22</title>
<path fill="none" stroke="midnightblue" d="M1659.79,-194.072C1668.49,-192.498 1677.49,-191.052 1686,-190 1975.35,-154.246 2051.41,-187.75 2341,-154 2353.77,-152.512 2367.57,-150.278 2380.1,-148.006"/>
<polygon fill="midnightblue" stroke="midnightblue" points="1658.94,-190.67 1649.77,-195.963 1660.24,-197.548 1658.94,-190.67"/>
</g>
<!-- Node23 -->
<g id="node23" class="node"><title>Node23</title>
<g id="a_node23"><a xlink:href="erpc__spidev__master__transport_8hpp.html" target="_top" xlink:title="erpc_spidev_master\l_transport.hpp">
<polygon fill="white" stroke="black" points="2511.5,-123.5 2511.5,-153.5 2614.5,-153.5 2614.5,-123.5 2511.5,-123.5"/>
<text text-anchor="start" x="2519.5" y="-141.5" font-family="Helvetica,sans-Serif" font-size="10.00">erpc_spidev_master</text>
<text text-anchor="middle" x="2563" y="-130.5" font-family="Helvetica,sans-Serif" font-size="10.00">_transport.hpp</text>
</a>
</g>
</g>
<!-- Node13&#45;&gt;Node23 -->
<g id="edge24" class="edge"><title>Node13&#45;&gt;Node23</title>
<path fill="none" stroke="midnightblue" d="M1659.2,-194.099C1668.08,-192.492 1677.29,-191.028 1686,-190 2046.96,-147.389 2143.12,-204.927 2503,-154 2505.76,-153.61 2508.58,-153.149 2511.41,-152.636"/>
<polygon fill="midnightblue" stroke="midnightblue" points="1658.55,-190.661 1649.37,-195.957 1659.85,-197.539 1658.55,-190.661"/>
</g>
<!-- Node24 -->
<g id="node24" class="node"><title>Node24</title>
<g id="a_node24"><a xlink:href="erpc__tcp__transport_8hpp.html" target="_top" xlink:title="erpc_tcp_transport.hpp">
<polygon fill="white" stroke="black" points="2633,-129 2633,-148 2749,-148 2749,-129 2633,-129"/>
<text text-anchor="middle" x="2691" y="-136" font-family="Helvetica,sans-Serif" font-size="10.00">erpc_tcp_transport.hpp</text>
</a>
</g>
</g>
<!-- Node13&#45;&gt;Node24 -->
<g id="edge25" class="edge"><title>Node13&#45;&gt;Node24</title>
<path fill="none" stroke="midnightblue" d="M1658.91,-194.111C1667.87,-192.487 1677.19,-191.014 1686,-190 2100.46,-142.265 2210.1,-206.323 2624,-154 2634.86,-152.627 2646.57,-150.368 2657.11,-148.037"/>
<polygon fill="midnightblue" stroke="midnightblue" points="1658.15,-190.691 1648.98,-195.991 1659.46,-197.569 1658.15,-190.691"/>
</g>
<!-- Node25 -->
<g id="node25" class="node"><title>Node25</title>
<g id="a_node25"><a xlink:href="erpc__uart__cmsis__transport_8hpp.html" target="_top" xlink:title="erpc_uart_cmsis_transport.hpp">
<polygon fill="white" stroke="black" points="699.5,-129 699.5,-148 850.5,-148 850.5,-129 699.5,-129"/>
<text text-anchor="middle" x="775" y="-136" font-family="Helvetica,sans-Serif" font-size="10.00">erpc_uart_cmsis_transport.hpp</text>
</a>
</g>
</g>
<!-- Node13&#45;&gt;Node25 -->
<g id="edge26" class="edge"><title>Node13&#45;&gt;Node25</title>
<path fill="none" stroke="midnightblue" d="M1534.69,-201.937C1398.7,-196.798 1105.67,-183.138 860,-154 846.918,-152.448 832.786,-150.25 819.872,-148.033"/>
<polygon fill="midnightblue" stroke="midnightblue" points="1534.87,-205.446 1544.99,-202.321 1535.13,-198.451 1534.87,-205.446"/>
</g>
<!-- Node26 -->
<g id="node26" class="node"><title>Node26</title>
<g id="a_node26"><a xlink:href="erpc__uart__zephyr__transport_8hpp.html" target="_top" xlink:title="erpc_uart_zephyr_transport.hpp">
<polygon fill="white" stroke="black" points="869,-129 869,-148 1023,-148 1023,-129 869,-129"/>
<text text-anchor="middle" x="946" y="-136" font-family="Helvetica,sans-Serif" font-size="10.00">erpc_uart_zephyr_transport.hpp</text>
</a>
</g>
</g>
<!-- Node13&#45;&gt;Node26 -->
<g id="edge27" class="edge"><title>Node13&#45;&gt;Node26</title>
<path fill="none" stroke="midnightblue" d="M1534.73,-199.801C1423.8,-192.523 1211.56,-176.931 1032,-154 1019.08,-152.35 1005.14,-150.173 992.317,-148.008"/>
<polygon fill="midnightblue" stroke="midnightblue" points="1534.62,-203.3 1544.82,-200.458 1535.07,-196.315 1534.62,-203.3"/>
</g>
<!-- Node27 -->
<g id="node27" class="node"><title>Node27</title>
<g id="a_node27"><a xlink:href="erpc__usb__cdc__transport_8hpp.html" target="_top" xlink:title="erpc_usb_cdc_transport.hpp">
<polygon fill="white" stroke="black" points="1041,-129 1041,-148 1181,-148 1181,-129 1041,-129"/>
<text text-anchor="middle" x="1111" y="-136" font-family="Helvetica,sans-Serif" font-size="10.00">erpc_usb_cdc_transport.hpp</text>
</a>
</g>
</g>
<!-- Node13&#45;&gt;Node27 -->
<g id="edge28" class="edge"><title>Node13&#45;&gt;Node27</title>
<path fill="none" stroke="midnightblue" d="M1534.82,-196.801C1450.34,-187.93 1310.12,-172.21 1190,-154 1178.56,-152.265 1166.23,-150.131 1154.79,-148.039"/>
<polygon fill="midnightblue" stroke="midnightblue" points="1534.53,-200.29 1544.84,-197.849 1535.25,-193.328 1534.53,-200.29"/>
</g>
</g>
</svg>
