<?xml version="1.0" encoding="UTF-8" standalone="no"?>
<!DOCTYPE svg PUBLIC "-//W3C//DTD SVG 1.1//EN"
 "http://www.w3.org/Graphics/SVG/1.1/DTD/svg11.dtd">
<!-- Generated by graphviz version 2.38.0 (20140413.2041)
 -->
<!-- Title: erpc_config.h Pages: 1 -->
<svg width="2223pt" height="285pt"
 viewBox="0.00 0.00 2223.00 285.00" xmlns="http://www.w3.org/2000/svg" xmlns:xlink="http://www.w3.org/1999/xlink">
<g id="graph0" class="graph" transform="scale(1 1) rotate(0) translate(4 281)">
<title>erpc_config.h</title>
<polygon fill="white" stroke="none" points="-4,4 -4,-281 2219,-281 2219,4 -4,4"/>
<!-- Node1 -->
<g id="node1" class="node"><title>Node1</title>
<polygon fill="#bfbfbf" stroke="black" points="1206,-257.5 1206,-276.5 1280,-276.5 1280,-257.5 1206,-257.5"/>
<text text-anchor="middle" x="1243" y="-264.5" font-family="Helvetica,sans-Serif" font-size="10.00">erpc_config.h</text>
</g>
<!-- Node2 -->
<g id="node2" class="node"><title>Node2</title>
<g id="a_node2"><a xlink:href="erpc__config__internal_8h_source.html" target="_top" xlink:title="erpc_config_internal.h">
<polygon fill="white" stroke="black" points="1187.5,-201.5 1187.5,-220.5 1298.5,-220.5 1298.5,-201.5 1187.5,-201.5"/>
<text text-anchor="middle" x="1243" y="-208.5" font-family="Helvetica,sans-Serif" font-size="10.00">erpc_config_internal.h</text>
</a>
</g>
</g>
<!-- Node1&#45;&gt;Node2 -->
<g id="edge1" class="edge"><title>Node1&#45;&gt;Node2</title>
<path fill="none" stroke="midnightblue" d="M1243,-246.805C1243,-237.91 1243,-227.78 1243,-220.751"/>
<polygon fill="midnightblue" stroke="midnightblue" points="1239.5,-247.083 1243,-257.083 1246.5,-247.083 1239.5,-247.083"/>
</g>
<!-- Node3 -->
<g id="node3" class="node"><title>Node3</title>
<g id="a_node3"><a xlink:href="erpc__client__server__common_8hpp.html" target="_top" xlink:title="erpc_client_server\l_common.hpp">
<polygon fill="white" stroke="black" points="547.5,-134.5 547.5,-164.5 642.5,-164.5 642.5,-134.5 547.5,-134.5"/>
<text text-anchor="start" x="555.5" y="-152.5" font-family="Helvetica,sans-Serif" font-size="10.00">erpc_client_server</text>
<text text-anchor="middle" x="595" y="-141.5" font-family="Helvetica,sans-Serif" font-size="10.00">_common.hpp</text>
</a>
</g>
</g>
<!-- Node2&#45;&gt;Node3 -->
<g id="edge2" class="edge"><title>Node2&#45;&gt;Node3</title>
<path fill="none" stroke="midnightblue" d="M1177.29,-208.145C1068.66,-204.364 845.05,-193.556 658,-165 653.007,-164.238 647.823,-163.296 642.669,-162.26"/>
<polygon fill="midnightblue" stroke="midnightblue" points="1177.32,-211.648 1187.44,-208.489 1177.56,-204.652 1177.32,-211.648"/>
</g>
<!-- Node7 -->
<g id="node7" class="node"><title>Node7</title>
<g id="a_node7"><a xlink:href="erpc__arbitrated__client__setup_8h.html" target="_top" xlink:title="erpc_arbitrated_client\l_setup.h">
<polygon fill="white" stroke="black" points="0,-0.5 0,-30.5 110,-30.5 110,-0.5 0,-0.5"/>
<text text-anchor="start" x="8" y="-18.5" font-family="Helvetica,sans-Serif" font-size="10.00">erpc_arbitrated_client</text>
<text text-anchor="middle" x="55" y="-7.5" font-family="Helvetica,sans-Serif" font-size="10.00">_setup.h</text>
</a>
</g>
</g>
<!-- Node2&#45;&gt;Node7 -->
<g id="edge36" class="edge"><title>Node2&#45;&gt;Node7</title>
<path fill="none" stroke="midnightblue" d="M1177.17,-208.744C976.696,-204.655 382.269,-190.501 299,-165 204.168,-135.958 108.585,-61.6569 71.3056,-30.5399"/>
<polygon fill="midnightblue" stroke="midnightblue" points="1177.2,-212.245 1187.27,-208.948 1177.34,-205.246 1177.2,-212.245"/>
</g>
<!-- Node8 -->
<g id="node8" class="node"><title>Node8</title>
<g id="a_node8"><a xlink:href="erpc__client__setup_8h.html" target="_top" xlink:title="erpc_client_setup.h">
<polygon fill="white" stroke="black" points="128.5,-6 128.5,-25 229.5,-25 229.5,-6 128.5,-6"/>
<text text-anchor="middle" x="179" y="-13" font-family="Helvetica,sans-Serif" font-size="10.00">erpc_client_setup.h</text>
</a>
</g>
</g>
<!-- Node2&#45;&gt;Node8 -->
<g id="edge37" class="edge"><title>Node2&#45;&gt;Node8</title>
<path fill="none" stroke="midnightblue" d="M1177.23,-209.187C1052.13,-206.894 771.557,-198.159 538,-165 401.879,-145.674 350.288,-174.423 236,-98 208.155,-79.3803 189.779,-42.1773 182.511,-25.2492"/>
<polygon fill="midnightblue" stroke="midnightblue" points="1177.35,-212.69 1187.4,-209.366 1177.47,-205.691 1177.35,-212.69"/>
</g>
<!-- Node9 -->
<g id="node9" class="node"><title>Node9</title>
<g id="a_node9"><a xlink:href="erpc__server_8hpp.html" target="_top" xlink:title="erpc_server.hpp">
<polygon fill="white" stroke="black" points="552.5,-73 552.5,-92 637.5,-92 637.5,-73 552.5,-73"/>
<text text-anchor="middle" x="595" y="-80" font-family="Helvetica,sans-Serif" font-size="10.00">erpc_server.hpp</text>
</a>
</g>
</g>
<!-- Node2&#45;&gt;Node9 -->
<g id="edge22" class="edge"><title>Node2&#45;&gt;Node9</title>
<path fill="none" stroke="midnightblue" d="M1176.94,-209.592C1050.26,-207.996 778.123,-200.415 692,-165 681.727,-160.776 627.272,-112.474 604.756,-92.2852"/>
<polygon fill="midnightblue" stroke="midnightblue" points="1177.23,-213.095 1187.27,-209.712 1177.31,-206.096 1177.23,-213.095"/>
</g>
<!-- Node11 -->
<g id="node11" class="node"><title>Node11</title>
<g id="a_node11"><a xlink:href="erpc__manually__constructed_8hpp.html" target="_top" xlink:title="erpc_manually_constructed.hpp">
<polygon fill="white" stroke="black" points="701.5,-140 701.5,-159 856.5,-159 856.5,-140 701.5,-140"/>
<text text-anchor="middle" x="779" y="-147" font-family="Helvetica,sans-Serif" font-size="10.00">erpc_manually_constructed.hpp</text>
</a>
</g>
</g>
<!-- Node2&#45;&gt;Node11 -->
<g id="edge10" class="edge"><title>Node2&#45;&gt;Node11</title>
<path fill="none" stroke="midnightblue" d="M1177.3,-202.775C1102.9,-194.425 978.076,-179.91 871,-165 858.028,-163.194 844.054,-161.079 831.012,-159.032"/>
<polygon fill="midnightblue" stroke="midnightblue" points="1177.13,-206.278 1187.46,-203.912 1177.91,-199.321 1177.13,-206.278"/>
</g>
<!-- Node12 -->
<g id="node12" class="node"><title>Node12</title>
<g id="a_node12"><a xlink:href="erpc__framed__transport_8hpp.html" target="_top" xlink:title="erpc_framed_transport.hpp">
<polygon fill="white" stroke="black" points="1279,-73 1279,-92 1411,-92 1411,-73 1279,-73"/>
<text text-anchor="middle" x="1345" y="-80" font-family="Helvetica,sans-Serif" font-size="10.00">erpc_framed_transport.hpp</text>
</a>
</g>
</g>
<!-- Node2&#45;&gt;Node12 -->
<g id="edge11" class="edge"><title>Node2&#45;&gt;Node12</title>
<path fill="none" stroke="midnightblue" d="M1256.33,-193.474C1278.22,-166.315 1321.08,-113.171 1337.94,-92.2557"/>
<polygon fill="midnightblue" stroke="midnightblue" points="1253.56,-191.324 1250.01,-201.305 1259.01,-195.717 1253.56,-191.324"/>
</g>
<!-- Node14 -->
<g id="node14" class="node"><title>Node14</title>
<g id="a_node14"><a xlink:href="erpc__dspi__slave__transport_8hpp.html" target="_top" xlink:title="erpc_dspi_slave_transport.hpp">
<polygon fill="white" stroke="black" points="673,-6 673,-25 821,-25 821,-6 673,-6"/>
<text text-anchor="middle" x="747" y="-13" font-family="Helvetica,sans-Serif" font-size="10.00">erpc_dspi_slave_transport.hpp</text>
</a>
</g>
</g>
<!-- Node2&#45;&gt;Node14 -->
<g id="edge39" class="edge"><title>Node2&#45;&gt;Node14</title>
<path fill="none" stroke="midnightblue" d="M1186.8,-199.372C1149.91,-191.64 1100.91,-179.922 1059,-165 940.321,-122.745 806.401,-49.8872 762.105,-25.0681"/>
<polygon fill="midnightblue" stroke="midnightblue" points="1186.37,-202.857 1196.87,-201.447 1187.78,-196.001 1186.37,-202.857"/>
</g>
<!-- Node15 -->
<g id="node15" class="node"><title>Node15</title>
<g id="a_node15"><a xlink:href="erpc__i2c__slave__transport_8hpp.html" target="_top" xlink:title="erpc_i2c_slave_transport.hpp">
<polygon fill="white" stroke="black" points="839.5,-6 839.5,-25 982.5,-25 982.5,-6 839.5,-6"/>
<text text-anchor="middle" x="911" y="-13" font-family="Helvetica,sans-Serif" font-size="10.00">erpc_i2c_slave_transport.hpp</text>
</a>
</g>
</g>
<!-- Node2&#45;&gt;Node15 -->
<g id="edge40" class="edge"><title>Node2&#45;&gt;Node15</title>
<path fill="none" stroke="midnightblue" d="M1199.63,-198.557C1173.69,-190.853 1140.53,-179.46 1113,-165 1032.08,-122.5 947.99,-49.7992 920.384,-25.0444"/>
<polygon fill="midnightblue" stroke="midnightblue" points="1198.97,-202.009 1209.55,-201.429 1200.91,-195.285 1198.97,-202.009"/>
</g>
<!-- Node18 -->
<g id="node18" class="node"><title>Node18</title>
<g id="a_node18"><a xlink:href="erpc__spi__slave__transport_8hpp.html" target="_top" xlink:title="erpc_spi_slave_transport.hpp">
<polygon fill="white" stroke="black" points="1913.5,-6 1913.5,-25 2056.5,-25 2056.5,-6 1913.5,-6"/>
<text text-anchor="middle" x="1985" y="-13" font-family="Helvetica,sans-Serif" font-size="10.00">erpc_spi_slave_transport.hpp</text>
</a>
</g>
</g>
<!-- Node2&#45;&gt;Node18 -->
<g id="edge47" class="edge"><title>Node2&#45;&gt;Node18</title>
<path fill="none" stroke="midnightblue" d="M1263.64,-195.577C1293.31,-174.909 1345.5,-138.816 1355,-134 1397.5,-112.447 1411.41,-114.803 1456,-98 1490.91,-84.8466 1497.74,-75.7819 1534,-67 1694.58,-28.1049 1740.33,-53.575 1904,-31 1916.03,-29.3408 1929,-27.1849 1940.96,-25.045"/>
<polygon fill="midnightblue" stroke="midnightblue" points="1261.43,-192.852 1255.23,-201.444 1265.43,-198.594 1261.43,-192.852"/>
</g>
<!-- Node21 -->
<g id="node21" class="node"><title>Node21</title>
<g id="a_node21"><a xlink:href="erpc__uart__cmsis__transport_8hpp.html" target="_top" xlink:title="erpc_uart_cmsis_transport.hpp">
<polygon fill="white" stroke="black" points="1000.5,-6 1000.5,-25 1151.5,-25 1151.5,-6 1000.5,-6"/>
<text text-anchor="middle" x="1076" y="-13" font-family="Helvetica,sans-Serif" font-size="10.00">erpc_uart_cmsis_transport.hpp</text>
</a>
</g>
</g>
<!-- Node2&#45;&gt;Node21 -->
<g id="edge48" class="edge"><title>Node2&#45;&gt;Node21</title>
<path fill="none" stroke="midnightblue" d="M1206.62,-197.854C1187.57,-190.339 1164.62,-179.362 1147,-165 1118.2,-141.521 1113.05,-131.511 1097,-98 1085.13,-73.2252 1079.37,-40.8849 1077.15,-25.4521"/>
<polygon fill="midnightblue" stroke="midnightblue" points="1205.58,-201.204 1216.17,-201.468 1208.06,-194.657 1205.58,-201.204"/>
</g>
<!-- Node22 -->
<g id="node22" class="node"><title>Node22</title>
<g id="a_node22"><a xlink:href="erpc__usb__cdc__transport_8hpp.html" target="_top" xlink:title="erpc_usb_cdc_transport.hpp">
<polygon fill="white" stroke="black" points="2075,-6 2075,-25 2215,-25 2215,-6 2075,-6"/>
<text text-anchor="middle" x="2145" y="-13" font-family="Helvetica,sans-Serif" font-size="10.00">erpc_usb_cdc_transport.hpp</text>
</a>
</g>
</g>
<!-- Node2&#45;&gt;Node22 -->
<g id="edge49" class="edge"><title>Node2&#45;&gt;Node22</title>
<path fill="none" stroke="midnightblue" d="M1308.78,-206.76C1398.31,-201.51 1553.22,-189.2 1604,-165 1632.38,-151.478 1677.46,-80.176 1706,-67 1851.99,0.402257 1906.79,-53.5332 2066,-31 2077.74,-29.339 2090.39,-27.1825 2102.05,-25.0426"/>
<polygon fill="midnightblue" stroke="midnightblue" points="1308.51,-203.269 1298.73,-207.335 1308.92,-210.258 1308.51,-203.269"/>
</g>
<!-- Node23 -->
<g id="node23" class="node"><title>Node23</title>
<g id="a_node23"><a xlink:href="erpc__port_8h.html" target="_top" xlink:title="erpc_port.h">
<polygon fill="white" stroke="black" points="1364.5,-140 1364.5,-159 1429.5,-159 1429.5,-140 1364.5,-140"/>
<text text-anchor="middle" x="1397" y="-147" font-family="Helvetica,sans-Serif" font-size="10.00">erpc_port.h</text>
</a>
</g>
</g>
<!-- Node2&#45;&gt;Node23 -->
<g id="edge23" class="edge"><title>Node2&#45;&gt;Node23</title>
<path fill="none" stroke="midnightblue" d="M1274.62,-197.782C1304.55,-186.22 1348.69,-169.164 1374.98,-159.009"/>
<polygon fill="midnightblue" stroke="midnightblue" points="1273.13,-194.606 1265.06,-201.475 1275.65,-201.136 1273.13,-194.606"/>
</g>
<!-- Node24 -->
<g id="node24" class="node"><title>Node24</title>
<g id="a_node24"><a xlink:href="erpc__setup__extensions_8h.html" target="_top" xlink:title="erpc_setup_extensions.h">
<polygon fill="white" stroke="black" points="1447.5,-140 1447.5,-159 1572.5,-159 1572.5,-140 1447.5,-140"/>
<text text-anchor="middle" x="1510" y="-147" font-family="Helvetica,sans-Serif" font-size="10.00">erpc_setup_extensions.h</text>
</a>
</g>
</g>
<!-- Node2&#45;&gt;Node24 -->
<g id="edge24" class="edge"><title>Node2&#45;&gt;Node24</title>
<path fill="none" stroke="midnightblue" d="M1291.2,-199.258C1343,-187.716 1424.27,-169.606 1471.82,-159.009"/>
<polygon fill="midnightblue" stroke="midnightblue" points="1290.25,-195.884 1281.25,-201.475 1291.78,-202.716 1290.25,-195.884"/>
</g>
<!-- Node25 -->
<g id="node25" class="node"><title>Node25</title>
<g id="a_node25"><a xlink:href="erpc__threading_8h.html" target="_top" xlink:title="erpc_threading.h">
<polygon fill="white" stroke="black" points="1156.5,-140 1156.5,-159 1245.5,-159 1245.5,-140 1156.5,-140"/>
<text text-anchor="middle" x="1201" y="-147" font-family="Helvetica,sans-Serif" font-size="10.00">erpc_threading.h</text>
</a>
</g>
</g>
<!-- Node2&#45;&gt;Node25 -->
<g id="edge25" class="edge"><title>Node2&#45;&gt;Node25</title>
<path fill="none" stroke="midnightblue" d="M1231,-193.005C1223.16,-181.888 1213.24,-167.84 1207.01,-159.009"/>
<polygon fill="midnightblue" stroke="midnightblue" points="1228.36,-195.324 1236.98,-201.475 1234.07,-191.287 1228.36,-195.324"/>
</g>
<!-- Node27 -->
<g id="node27" class="node"><title>Node27</title>
<g id="a_node27"><a xlink:href="erpc__mu__transport_8hpp.html" target="_top" xlink:title="erpc_mu_transport.hpp">
<polygon fill="white" stroke="black" points="1543,-73 1543,-92 1659,-92 1659,-73 1543,-73"/>
<text text-anchor="middle" x="1601" y="-80" font-family="Helvetica,sans-Serif" font-size="10.00">erpc_mu_transport.hpp</text>
</a>
</g>
</g>
<!-- Node2&#45;&gt;Node27 -->
<g id="edge41" class="edge"><title>Node2&#45;&gt;Node27</title>
<path fill="none" stroke="midnightblue" d="M1308.57,-209.784C1395.37,-208.105 1542.01,-199.985 1581,-165 1602.04,-146.125 1602.68,-109.054 1601.75,-92.2043"/>
<polygon fill="midnightblue" stroke="midnightblue" points="1308.49,-206.285 1298.55,-209.954 1308.61,-213.284 1308.49,-206.285"/>
</g>
<!-- Node28 -->
<g id="node28" class="node"><title>Node28</title>
<g id="a_node28"><a xlink:href="erpc__server__setup_8h.html" target="_top" xlink:title="erpc_server_setup.h">
<polygon fill="white" stroke="black" points="1715,-140 1715,-159 1819,-159 1819,-140 1715,-140"/>
<text text-anchor="middle" x="1767" y="-147" font-family="Helvetica,sans-Serif" font-size="10.00">erpc_server_setup.h</text>
</a>
</g>
</g>
<!-- Node2&#45;&gt;Node28 -->
<g id="edge38" class="edge"><title>Node2&#45;&gt;Node28</title>
<path fill="none" stroke="midnightblue" d="M1308.86,-205.987C1398.11,-199.989 1562.28,-186.974 1701,-165 1711.08,-163.403 1721.93,-161.217 1731.87,-159.027"/>
<polygon fill="midnightblue" stroke="midnightblue" points="1308.36,-202.512 1298.61,-206.667 1308.82,-209.497 1308.36,-202.512"/>
</g>
<!-- Node29 -->
<g id="node29" class="node"><title>Node29</title>
<g id="a_node29"><a xlink:href="erpc__rpmsg__lite__base__transport_8hpp.html" target="_top" xlink:title="erpc_rpmsg_lite_base\l_transport.hpp">
<polygon fill="white" stroke="black" points="1837,-134.5 1837,-164.5 1949,-164.5 1949,-134.5 1837,-134.5"/>
<text text-anchor="start" x="1845" y="-152.5" font-family="Helvetica,sans-Serif" font-size="10.00">erpc_rpmsg_lite_base</text>
<text text-anchor="middle" x="1893" y="-141.5" font-family="Helvetica,sans-Serif" font-size="10.00">_transport.hpp</text>
</a>
</g>
</g>
<!-- Node2&#45;&gt;Node29 -->
<g id="edge42" class="edge"><title>Node2&#45;&gt;Node29</title>
<path fill="none" stroke="midnightblue" d="M1308.69,-208.003C1417.29,-204.018 1640.85,-192.926 1828,-165 1830.86,-164.573 1833.78,-164.092 1836.72,-163.57"/>
<polygon fill="midnightblue" stroke="midnightblue" points="1308.41,-204.51 1298.54,-208.367 1308.66,-211.506 1308.41,-204.51"/>
</g>
<!-- Node31 -->
<g id="node31" class="node"><title>Node31</title>
<g id="a_node31"><a xlink:href="erpc__rpmsg__lite__transport_8hpp.html" target="_top" xlink:title="erpc_rpmsg_lite_transport.hpp">
<polygon fill="white" stroke="black" points="1965,-73 1965,-92 2113,-92 2113,-73 1965,-73"/>
<text text-anchor="middle" x="2039" y="-80" font-family="Helvetica,sans-Serif" font-size="10.00">erpc_rpmsg_lite_transport.hpp</text>
</a>
</g>
</g>
<!-- Node2&#45;&gt;Node31 -->
<g id="edge46" class="edge"><title>Node2&#45;&gt;Node31</title>
<path fill="none" stroke="midnightblue" d="M1308.82,-208.515C1474.52,-204.401 1899.82,-191.379 1958,-165 1993.61,-148.855 2022.17,-109.658 2033.61,-92.1716"/>
<polygon fill="midnightblue" stroke="midnightblue" points="1308.67,-205.017 1298.76,-208.761 1308.85,-212.015 1308.67,-205.017"/>
</g>
<!-- Node4 -->
<g id="node4" class="node"><title>Node4</title>
<g id="a_node4"><a xlink:href="erpc__client__manager_8h.html" target="_top" xlink:title="erpc_client_manager.h">
<polygon fill="white" stroke="black" points="245.5,-73 245.5,-92 360.5,-92 360.5,-73 245.5,-73"/>
<text text-anchor="middle" x="303" y="-80" font-family="Helvetica,sans-Serif" font-size="10.00">erpc_client_manager.h</text>
</a>
</g>
</g>
<!-- Node3&#45;&gt;Node4 -->
<g id="edge3" class="edge"><title>Node3&#45;&gt;Node4</title>
<path fill="none" stroke="midnightblue" d="M537.667,-135.738C479.564,-122.804 391.305,-103.157 341.225,-92.0091"/>
<polygon fill="midnightblue" stroke="midnightblue" points="536.914,-139.155 547.435,-137.912 538.435,-132.323 536.914,-139.155"/>
</g>
<!-- Node3&#45;&gt;Node9 -->
<g id="edge8" class="edge"><title>Node3&#45;&gt;Node9</title>
<path fill="none" stroke="midnightblue" d="M595,-124.25C595,-113.017 595,-100.377 595,-92.1945"/>
<polygon fill="midnightblue" stroke="midnightblue" points="591.5,-124.396 595,-134.396 598.5,-124.396 591.5,-124.396"/>
</g>
<!-- Node5 -->
<g id="node5" class="node"><title>Node5</title>
<g id="a_node5"><a xlink:href="erpc__arbitrated__client__manager_8hpp.html" target="_top" xlink:title="erpc_arbitrated_client\l_manager.hpp">
<polygon fill="white" stroke="black" points="248,-0.5 248,-30.5 358,-30.5 358,-0.5 248,-0.5"/>
<text text-anchor="start" x="256" y="-18.5" font-family="Helvetica,sans-Serif" font-size="10.00">erpc_arbitrated_client</text>
<text text-anchor="middle" x="303" y="-7.5" font-family="Helvetica,sans-Serif" font-size="10.00">_manager.hpp</text>
</a>
</g>
</g>
<!-- Node4&#45;&gt;Node5 -->
<g id="edge4" class="edge"><title>Node4&#45;&gt;Node5</title>
<path fill="none" stroke="midnightblue" d="M303,-62.4107C303,-52.222 303,-39.901 303,-30.589"/>
<polygon fill="midnightblue" stroke="midnightblue" points="299.5,-62.7338 303,-72.7338 306.5,-62.7338 299.5,-62.7338"/>
</g>
<!-- Node6 -->
<g id="node6" class="node"><title>Node6</title>
<g id="a_node6"><a xlink:href="erpc__transport__arbitrator_8hpp.html" target="_top" xlink:title="erpc_transport_arbitrator.hpp">
<polygon fill="white" stroke="black" points="376.5,-6 376.5,-25 517.5,-25 517.5,-6 376.5,-6"/>
<text text-anchor="middle" x="447" y="-13" font-family="Helvetica,sans-Serif" font-size="10.00">erpc_transport_arbitrator.hpp</text>
</a>
</g>
</g>
<!-- Node4&#45;&gt;Node6 -->
<g id="edge5" class="edge"><title>Node4&#45;&gt;Node6</title>
<path fill="none" stroke="midnightblue" d="M331.55,-68.6127C360.071,-55.7387 403.122,-36.3059 427.799,-25.1672"/>
<polygon fill="midnightblue" stroke="midnightblue" points="329.797,-65.5642 322.122,-72.8685 332.677,-71.9443 329.797,-65.5642"/>
</g>
<!-- Node4&#45;&gt;Node7 -->
<g id="edge6" class="edge"><title>Node4&#45;&gt;Node7</title>
<path fill="none" stroke="midnightblue" d="M260.414,-70.3384C218.42,-59.3319 154.102,-42.4743 108.641,-30.5592"/>
<polygon fill="midnightblue" stroke="midnightblue" points="259.763,-73.7858 270.323,-72.9355 261.537,-67.0145 259.763,-73.7858"/>
</g>
<!-- Node4&#45;&gt;Node8 -->
<g id="edge7" class="edge"><title>Node4&#45;&gt;Node8</title>
<path fill="none" stroke="midnightblue" d="M277.443,-68.1034C252.887,-55.2309 216.505,-36.16 195.534,-25.1672"/>
<polygon fill="midnightblue" stroke="midnightblue" points="276.052,-71.3256 286.534,-72.8685 279.302,-65.1258 276.052,-71.3256"/>
</g>
<!-- Node10 -->
<g id="node10" class="node"><title>Node10</title>
<g id="a_node10"><a xlink:href="erpc__simple__server_8hpp.html" target="_top" xlink:title="erpc_simple_server.hpp">
<polygon fill="white" stroke="black" points="535.5,-6 535.5,-25 654.5,-25 654.5,-6 535.5,-6"/>
<text text-anchor="middle" x="595" y="-13" font-family="Helvetica,sans-Serif" font-size="10.00">erpc_simple_server.hpp</text>
</a>
</g>
</g>
<!-- Node9&#45;&gt;Node10 -->
<g id="edge9" class="edge"><title>Node9&#45;&gt;Node10</title>
<path fill="none" stroke="midnightblue" d="M595,-62.537C595,-50.1703 595,-34.6198 595,-25.1273"/>
<polygon fill="midnightblue" stroke="midnightblue" points="591.5,-62.7338 595,-72.7338 598.5,-62.7338 591.5,-62.7338"/>
</g>
<!-- Node13 -->
<g id="node13" class="node"><title>Node13</title>
<g id="a_node13"><a xlink:href="erpc__dspi__master__transport_8hpp.html" target="_top" xlink:title="erpc_dspi_master_transport.hpp">
<polygon fill="white" stroke="black" points="1595,-6 1595,-25 1751,-25 1751,-6 1595,-6"/>
<text text-anchor="middle" x="1673" y="-13" font-family="Helvetica,sans-Serif" font-size="10.00">erpc_dspi_master_transport.hpp</text>
</a>
</g>
</g>
<!-- Node12&#45;&gt;Node13 -->
<g id="edge12" class="edge"><title>Node12&#45;&gt;Node13</title>
<path fill="none" stroke="midnightblue" d="M1398.2,-70.9583C1462.75,-58.1649 1570.34,-36.8434 1629.95,-25.0317"/>
<polygon fill="midnightblue" stroke="midnightblue" points="1397.35,-67.5583 1388.22,-72.9355 1398.71,-74.4248 1397.35,-67.5583"/>
</g>
<!-- Node12&#45;&gt;Node14 -->
<g id="edge13" class="edge"><title>Node12&#45;&gt;Node14</title>
<path fill="none" stroke="midnightblue" d="M1295.04,-71.0535C1286.7,-69.5371 1278.13,-68.1146 1270,-67 1075.61,-40.3381 1024.62,-55.909 830,-31 817.377,-29.3844 803.747,-27.1922 791.254,-25.002"/>
<polygon fill="midnightblue" stroke="midnightblue" points="1294.57,-74.526 1305.04,-72.9355 1295.86,-67.6467 1294.57,-74.526"/>
</g>
<!-- Node12&#45;&gt;Node15 -->
<g id="edge14" class="edge"><title>Node12&#45;&gt;Node15</title>
<path fill="none" stroke="midnightblue" d="M1293.58,-71.1171C1285.7,-69.6533 1277.64,-68.2304 1270,-67 1146.56,-47.1239 1114.55,-50.1552 991,-31 979.562,-29.2267 967.244,-27.1017 955.782,-25.0323"/>
<polygon fill="midnightblue" stroke="midnightblue" points="1292.95,-74.5604 1303.43,-72.9817 1294.25,-67.6826 1292.95,-74.5604"/>
</g>
<!-- Node16 -->
<g id="node16" class="node"><title>Node16</title>
<g id="a_node16"><a xlink:href="erpc__serial__transport_8hpp.html" target="_top" xlink:title="erpc_serial_transport.hpp">
<polygon fill="white" stroke="black" points="1769,-6 1769,-25 1895,-25 1895,-6 1769,-6"/>
<text text-anchor="middle" x="1832" y="-13" font-family="Helvetica,sans-Serif" font-size="10.00">erpc_serial_transport.hpp</text>
</a>
</g>
</g>
<!-- Node12&#45;&gt;Node16 -->
<g id="edge15" class="edge"><title>Node12&#45;&gt;Node16</title>
<path fill="none" stroke="midnightblue" d="M1398.97,-71.1693C1407.66,-69.6649 1416.57,-68.216 1425,-67 1573.21,-45.6329 1612,-53.8058 1760,-31 1770.71,-29.3494 1782.25,-27.1963 1792.88,-25.0564"/>
<polygon fill="midnightblue" stroke="midnightblue" points="1398.16,-67.7595 1388.92,-72.9501 1399.38,-74.6522 1398.16,-67.7595"/>
</g>
<!-- Node17 -->
<g id="node17" class="node"><title>Node17</title>
<g id="a_node17"><a xlink:href="erpc__spi__master__transport_8hpp.html" target="_top" xlink:title="erpc_spi_master_transport.hpp">
<polygon fill="white" stroke="black" points="1304.5,-6 1304.5,-25 1455.5,-25 1455.5,-6 1304.5,-6"/>
<text text-anchor="middle" x="1380" y="-13" font-family="Helvetica,sans-Serif" font-size="10.00">erpc_spi_master_transport.hpp</text>
</a>
</g>
</g>
<!-- Node12&#45;&gt;Node17 -->
<g id="edge16" class="edge"><title>Node12&#45;&gt;Node17</title>
<path fill="none" stroke="midnightblue" d="M1354.6,-63.6635C1361.35,-51.1281 1370.09,-34.9104 1375.35,-25.1273"/>
<polygon fill="midnightblue" stroke="midnightblue" points="1351.38,-62.2697 1349.72,-72.7338 1357.54,-65.5885 1351.38,-62.2697"/>
</g>
<!-- Node12&#45;&gt;Node18 -->
<g id="edge17" class="edge"><title>Node12&#45;&gt;Node18</title>
<path fill="none" stroke="midnightblue" d="M1397.11,-71.245C1406.37,-69.6536 1415.95,-68.1568 1425,-67 1636.77,-39.9259 1692.21,-57.8446 1904,-31 1916.33,-29.4372 1929.63,-27.2619 1941.83,-25.071"/>
<polygon fill="midnightblue" stroke="midnightblue" points="1396.46,-67.8061 1387.22,-72.9974 1397.68,-74.6987 1396.46,-67.8061"/>
</g>
<!-- Node19 -->
<g id="node19" class="node"><title>Node19</title>
<g id="a_node19"><a xlink:href="erpc__spidev__master__transport_8hpp.html" target="_top" xlink:title="erpc_spidev_master\l_transport.hpp">
<polygon fill="white" stroke="black" points="1473.5,-0.5 1473.5,-30.5 1576.5,-30.5 1576.5,-0.5 1473.5,-0.5"/>
<text text-anchor="start" x="1481.5" y="-18.5" font-family="Helvetica,sans-Serif" font-size="10.00">erpc_spidev_master</text>
<text text-anchor="middle" x="1525" y="-7.5" font-family="Helvetica,sans-Serif" font-size="10.00">_transport.hpp</text>
</a>
</g>
</g>
<!-- Node12&#45;&gt;Node19 -->
<g id="edge18" class="edge"><title>Node12&#45;&gt;Node19</title>
<path fill="none" stroke="midnightblue" d="M1378.66,-69.3465C1409.17,-58.3289 1454.13,-42.0927 1486.15,-30.5281"/>
<polygon fill="midnightblue" stroke="midnightblue" points="1377.12,-66.1801 1368.9,-72.8685 1379.5,-72.7639 1377.12,-66.1801"/>
</g>
<!-- Node20 -->
<g id="node20" class="node"><title>Node20</title>
<g id="a_node20"><a xlink:href="erpc__tcp__transport_8hpp.html" target="_top" xlink:title="erpc_tcp_transport.hpp">
<polygon fill="white" stroke="black" points="1170,-6 1170,-25 1286,-25 1286,-6 1170,-6"/>
<text text-anchor="middle" x="1228" y="-13" font-family="Helvetica,sans-Serif" font-size="10.00">erpc_tcp_transport.hpp</text>
</a>
</g>
</g>
<!-- Node12&#45;&gt;Node20 -->
<g id="edge19" class="edge"><title>Node12&#45;&gt;Node20</title>
<path fill="none" stroke="midnightblue" d="M1320.32,-67.7872C1297.13,-54.9047 1263.14,-36.0243 1243.53,-25.1273"/>
<polygon fill="midnightblue" stroke="midnightblue" points="1318.78,-70.9369 1329.22,-72.7338 1322.18,-64.8178 1318.78,-70.9369"/>
</g>
<!-- Node12&#45;&gt;Node21 -->
<g id="edge20" class="edge"><title>Node12&#45;&gt;Node21</title>
<path fill="none" stroke="midnightblue" d="M1299.74,-70.5642C1246.71,-57.7499 1159.95,-36.7848 1111.52,-25.0834"/>
<polygon fill="midnightblue" stroke="midnightblue" points="1299.01,-73.9888 1309.56,-72.9355 1300.66,-67.1846 1299.01,-73.9888"/>
</g>
<!-- Node12&#45;&gt;Node22 -->
<g id="edge21" class="edge"><title>Node12&#45;&gt;Node22</title>
<path fill="none" stroke="midnightblue" d="M1418.39,-71.7587C1433.15,-70.0045 1448.55,-68.3175 1463,-67 1730.37,-42.6158 1799.47,-63.2939 2066,-31 2078.32,-29.5072 2091.62,-27.2998 2103.73,-25.0551"/>
<polygon fill="midnightblue" stroke="midnightblue" points="1417.81,-68.3036 1408.3,-72.9803 1418.65,-75.2528 1417.81,-68.3036"/>
</g>
<!-- Node25&#45;&gt;Node6 -->
<g id="edge26" class="edge"><title>Node25&#45;&gt;Node6</title>
<path fill="none" stroke="midnightblue" d="M1146.39,-139.169C1031.52,-119.501 756.45,-72.2057 526,-31 515.293,-29.0856 503.777,-26.9916 492.938,-25.0053"/>
<polygon fill="midnightblue" stroke="midnightblue" points="1145.9,-142.636 1156.35,-140.873 1147.08,-135.736 1145.9,-142.636"/>
</g>
<!-- Node25&#45;&gt;Node12 -->
<g id="edge27" class="edge"><title>Node25&#45;&gt;Node12</title>
<path fill="none" stroke="midnightblue" d="M1229.55,-135.613C1258.07,-122.739 1301.12,-103.306 1325.8,-92.1672"/>
<polygon fill="midnightblue" stroke="midnightblue" points="1227.8,-132.564 1220.12,-139.869 1230.68,-138.944 1227.8,-132.564"/>
</g>
<!-- Node25&#45;&gt;Node14 -->
<g id="edge28" class="edge"><title>Node25&#45;&gt;Node14</title>
<path fill="none" stroke="midnightblue" d="M1161.54,-137.058C1126.27,-126.828 1073.19,-111.424 1027,-98 935.601,-71.4348 827.438,-39.9337 776.426,-25.0732"/>
<polygon fill="midnightblue" stroke="midnightblue" points="1160.86,-140.505 1171.44,-139.929 1162.81,-133.782 1160.86,-140.505"/>
</g>
<!-- Node25&#45;&gt;Node15 -->
<g id="edge29" class="edge"><title>Node25&#45;&gt;Node15</title>
<path fill="none" stroke="midnightblue" d="M1172.51,-135.533C1113.48,-108.661 979.163,-47.526 929.721,-25.0212"/>
<polygon fill="midnightblue" stroke="midnightblue" points="1171.42,-138.882 1181.97,-139.839 1174.32,-132.511 1171.42,-138.882"/>
</g>
<!-- Node25&#45;&gt;Node18 -->
<g id="edge32" class="edge"><title>Node25&#45;&gt;Node18</title>
<path fill="none" stroke="midnightblue" d="M1255.85,-142.018C1301.36,-135.212 1366.97,-122.04 1420,-98 1441.46,-88.2722 1440.89,-75.1459 1463,-67 1647.52,0.993486 1708.99,-56.3552 1904,-31 1916.33,-29.3975 1929.63,-27.2095 1941.82,-25.0191"/>
<polygon fill="midnightblue" stroke="midnightblue" points="1255.28,-138.564 1245.88,-143.455 1256.28,-145.493 1255.28,-138.564"/>
</g>
<!-- Node25&#45;&gt;Node20 -->
<g id="edge33" class="edge"><title>Node25&#45;&gt;Node20</title>
<path fill="none" stroke="midnightblue" d="M1171.6,-135.204C1156.84,-126.821 1140.34,-114.445 1132,-98 1125.77,-85.713 1124.88,-78.7941 1132,-67 1145.14,-45.2371 1171.12,-32.3836 1192.74,-25.095"/>
<polygon fill="midnightblue" stroke="midnightblue" points="1170.01,-138.323 1180.49,-139.909 1173.29,-132.136 1170.01,-138.323"/>
</g>
<!-- Node25&#45;&gt;Node21 -->
<g id="edge34" class="edge"><title>Node25&#45;&gt;Node21</title>
<path fill="none" stroke="midnightblue" d="M1173.87,-135.147C1157.71,-126.235 1137.58,-113.351 1123,-98 1101.52,-75.38 1085.93,-41.1458 1079.4,-25.2196"/>
<polygon fill="midnightblue" stroke="midnightblue" points="1172.38,-138.318 1182.85,-139.923 1175.67,-132.138 1172.38,-138.318"/>
</g>
<!-- Node25&#45;&gt;Node22 -->
<g id="edge35" class="edge"><title>Node25&#45;&gt;Node22</title>
<path fill="none" stroke="midnightblue" d="M1255.86,-140.612C1307.98,-132.421 1388.23,-117.995 1456,-98 1491.78,-87.4436 1497.62,-75.2475 1534,-67 1765.12,-14.6054 1830.85,-60.4391 2066,-31 2078.18,-29.4756 2091.32,-27.2859 2103.32,-25.0684"/>
<polygon fill="midnightblue" stroke="midnightblue" points="1255.17,-137.177 1245.82,-142.166 1256.24,-144.094 1255.17,-137.177"/>
</g>
<!-- Node26 -->
<g id="node26" class="node"><title>Node26</title>
<g id="a_node26"><a xlink:href="erpc__inter__thread__buffer__transport_8hpp.html" target="_top" xlink:title="erpc_inter_thread_buffer\l_transport.hpp">
<polygon fill="white" stroke="black" points="1141,-67.5 1141,-97.5 1261,-97.5 1261,-67.5 1141,-67.5"/>
<text text-anchor="start" x="1149" y="-85.5" font-family="Helvetica,sans-Serif" font-size="10.00">erpc_inter_thread_buffer</text>
<text text-anchor="middle" x="1201" y="-74.5" font-family="Helvetica,sans-Serif" font-size="10.00">_transport.hpp</text>
</a>
</g>
</g>
<!-- Node25&#45;&gt;Node26 -->
<g id="edge30" class="edge"><title>Node25&#45;&gt;Node26</title>
<path fill="none" stroke="midnightblue" d="M1201,-129.411C1201,-119.222 1201,-106.901 1201,-97.589"/>
<polygon fill="midnightblue" stroke="midnightblue" points="1197.5,-129.734 1201,-139.734 1204.5,-129.734 1197.5,-129.734"/>
</g>
<!-- Node25&#45;&gt;Node27 -->
<g id="edge31" class="edge"><title>Node25&#45;&gt;Node27</title>
<path fill="none" stroke="midnightblue" d="M1255.73,-139.607C1332.92,-127.062 1472.82,-104.329 1548.68,-92.0012"/>
<polygon fill="midnightblue" stroke="midnightblue" points="1255.03,-136.174 1245.72,-141.233 1256.15,-143.084 1255.03,-136.174"/>
</g>
<!-- Node30 -->
<g id="node30" class="node"><title>Node30</title>
<g id="a_node30"><a xlink:href="erpc__rpmsg__lite__rtos__transport_8hpp.html" target="_top" xlink:title="erpc_rpmsg_lite_rtos\l_transport.hpp">
<polygon fill="white" stroke="black" points="1715.5,-67.5 1715.5,-97.5 1822.5,-97.5 1822.5,-67.5 1715.5,-67.5"/>
<text text-anchor="start" x="1723.5" y="-85.5" font-family="Helvetica,sans-Serif" font-size="10.00">erpc_rpmsg_lite_rtos</text>
<text text-anchor="middle" x="1769" y="-74.5" font-family="Helvetica,sans-Serif" font-size="10.00">_transport.hpp</text>
</a>
</g>
</g>
<!-- Node29&#45;&gt;Node30 -->
<g id="edge43" class="edge"><title>Node29&#45;&gt;Node30</title>
<path fill="none" stroke="midnightblue" d="M1857.16,-129.714C1837.61,-119.463 1813.8,-106.983 1795.85,-97.5765"/>
<polygon fill="midnightblue" stroke="midnightblue" points="1855.61,-132.853 1866.09,-134.396 1858.86,-126.653 1855.61,-132.853"/>
</g>
<!-- Node29&#45;&gt;Node31 -->
<g id="edge44" class="edge"><title>Node29&#45;&gt;Node31</title>
<path fill="none" stroke="midnightblue" d="M1933.89,-130.295C1962.05,-117.76 1998.16,-101.682 2019.89,-92.007"/>
<polygon fill="midnightblue" stroke="midnightblue" points="1932.39,-127.131 1924.68,-134.396 1935.24,-133.526 1932.39,-127.131"/>
</g>
<!-- Node32 -->
<g id="node32" class="node"><title>Node32</title>
<g id="a_node32"><a xlink:href="erpc__rpmsg__tty__rtos__transport_8hpp.html" target="_top" xlink:title="erpc_rpmsg_tty_rtos\l_transport.hpp">
<polygon fill="white" stroke="black" points="1841,-67.5 1841,-97.5 1947,-97.5 1947,-67.5 1841,-67.5"/>
<text text-anchor="start" x="1849" y="-85.5" font-family="Helvetica,sans-Serif" font-size="10.00">erpc_rpmsg_tty_rtos</text>
<text text-anchor="middle" x="1894" y="-74.5" font-family="Helvetica,sans-Serif" font-size="10.00">_transport.hpp</text>
</a>
</g>
</g>
<!-- Node29&#45;&gt;Node32 -->
<g id="edge45" class="edge"><title>Node29&#45;&gt;Node32</title>
<path fill="none" stroke="midnightblue" d="M1893.38,-124.108C1893.51,-115.154 1893.66,-105.323 1893.78,-97.5765"/>
<polygon fill="midnightblue" stroke="midnightblue" points="1889.87,-124.343 1893.22,-134.396 1896.87,-124.451 1889.87,-124.343"/>
</g>
</g>
</svg>
