<?xml version="1.0" encoding="UTF-8" standalone="no"?>
<!DOCTYPE svg PUBLIC "-//W3C//DTD SVG 1.1//EN"
 "http://www.w3.org/Graphics/SVG/1.1/DTD/svg11.dtd">
<!-- Generated by graphviz version 2.38.0 (20140413.2041)
 -->
<!-- Title: erpc_usb_cdc_transport.h Pages: 1 -->
<svg width="529pt" height="319pt"
 viewBox="0.00 0.00 528.50 319.00" xmlns="http://www.w3.org/2000/svg" xmlns:xlink="http://www.w3.org/1999/xlink">
<g id="graph0" class="graph" transform="scale(1 1) rotate(0) translate(4 315)">
<title>erpc_usb_cdc_transport.h</title>
<polygon fill="white" stroke="none" points="-4,4 -4,-315 524.5,-315 524.5,4 -4,4"/>
<!-- Node1 -->
<g id="node1" class="node"><title>Node1</title>
<polygon fill="#bfbfbf" stroke="black" points="192,-291.5 192,-310.5 321,-310.5 321,-291.5 192,-291.5"/>
<text text-anchor="middle" x="256.5" y="-298.5" font-family="Helvetica,sans-Serif" font-size="10.00">erpc_usb_cdc_transport.h</text>
</g>
<!-- Node2 -->
<g id="node2" class="node"><title>Node2</title>
<g id="a_node2"><a xlink:href="erpc__config__internal_8h_source.html" target="_top" xlink:title="erpc_config_internal.h">
<polygon fill="white" stroke="black" points="39,-112.5 39,-131.5 150,-131.5 150,-112.5 39,-112.5"/>
<text text-anchor="middle" x="94.5" y="-119.5" font-family="Helvetica,sans-Serif" font-size="10.00">erpc_config_internal.h</text>
</a>
</g>
</g>
<!-- Node1&#45;&gt;Node2 -->
<g id="edge1" class="edge"><title>Node1&#45;&gt;Node2</title>
<path fill="none" stroke="midnightblue" d="M234.339,-291.452C215.847,-283.665 189.398,-270.959 169.5,-255 139.225,-230.719 131.775,-222.237 113.5,-188 105.715,-173.415 100.749,-155.239 97.8551,-141.82"/>
<polygon fill="midnightblue" stroke="midnightblue" points="101.258,-140.985 95.8946,-131.849 94.3897,-142.336 101.258,-140.985"/>
</g>
<!-- Node5 -->
<g id="node5" class="node"><title>Node5</title>
<g id="a_node5"><a xlink:href="erpc__threading_8h.html" target="_top" xlink:title="erpc_threading.h">
<polygon fill="white" stroke="black" points="123,-168.5 123,-187.5 212,-187.5 212,-168.5 123,-168.5"/>
<text text-anchor="middle" x="167.5" y="-175.5" font-family="Helvetica,sans-Serif" font-size="10.00">erpc_threading.h</text>
</a>
</g>
</g>
<!-- Node1&#45;&gt;Node5 -->
<g id="edge4" class="edge"><title>Node1&#45;&gt;Node5</title>
<path fill="none" stroke="midnightblue" d="M234.991,-291.404C219.258,-284.03 198.625,-271.905 186.5,-255 174.392,-238.119 169.968,-214.325 168.37,-197.878"/>
<polygon fill="midnightblue" stroke="midnightblue" points="171.857,-197.566 167.655,-187.84 164.875,-198.064 171.857,-197.566"/>
</g>
<!-- Node7 -->
<g id="node7" class="node"><title>Node7</title>
<g id="a_node7"><a xlink:href="erpc__framed__transport_8h.html" target="_top" xlink:title="erpc_framed_transport.h">
<polygon fill="white" stroke="black" points="195.5,-230 195.5,-249 317.5,-249 317.5,-230 195.5,-230"/>
<text text-anchor="middle" x="256.5" y="-237" font-family="Helvetica,sans-Serif" font-size="10.00">erpc_framed_transport.h</text>
</a>
</g>
</g>
<!-- Node1&#45;&gt;Node7 -->
<g id="edge7" class="edge"><title>Node1&#45;&gt;Node7</title>
<path fill="none" stroke="midnightblue" d="M256.5,-291.475C256.5,-283.08 256.5,-269.981 256.5,-259.163"/>
<polygon fill="midnightblue" stroke="midnightblue" points="260,-259.009 256.5,-249.009 253,-259.009 260,-259.009"/>
</g>
<!-- Node14 -->
<g id="node14" class="node"><title>Node14</title>
<polygon fill="white" stroke="#bfbfbf" points="335.5,-224.5 335.5,-254.5 443.5,-254.5 443.5,-224.5 335.5,-224.5"/>
<text text-anchor="start" x="343.5" y="-242.5" font-family="Helvetica,sans-Serif" font-size="10.00">fsl_component_serial</text>
<text text-anchor="middle" x="389.5" y="-231.5" font-family="Helvetica,sans-Serif" font-size="10.00">_manager.h</text>
</g>
<!-- Node1&#45;&gt;Node14 -->
<g id="edge22" class="edge"><title>Node1&#45;&gt;Node14</title>
<path fill="none" stroke="midnightblue" d="M275.556,-291.475C294.579,-282.965 324.41,-269.619 348.777,-258.718"/>
<polygon fill="midnightblue" stroke="midnightblue" points="350.456,-261.802 358.155,-254.523 347.597,-255.412 350.456,-261.802"/>
</g>
<!-- Node15 -->
<g id="node15" class="node"><title>Node15</title>
<polygon fill="white" stroke="#bfbfbf" points="461.5,-230 461.5,-249 509.5,-249 509.5,-230 461.5,-230"/>
<text text-anchor="middle" x="485.5" y="-237" font-family="Helvetica,sans-Serif" font-size="10.00">stdlib.h</text>
</g>
<!-- Node1&#45;&gt;Node15 -->
<g id="edge23" class="edge"><title>Node1&#45;&gt;Node15</title>
<path fill="none" stroke="midnightblue" d="M305.123,-291.482C345.214,-283.832 403.283,-271.301 452.5,-255 454.371,-254.38 456.282,-253.693 458.193,-252.965"/>
<polygon fill="midnightblue" stroke="midnightblue" points="459.668,-256.143 467.585,-249.103 457.005,-249.67 459.668,-256.143"/>
</g>
<!-- Node3 -->
<g id="node3" class="node"><title>Node3</title>
<g id="a_node3"><a xlink:href="erpc__config_8h.html" target="_top" xlink:title="erpc_config.h">
<polygon fill="white" stroke="black" points="67.5,-56.5 67.5,-75.5 141.5,-75.5 141.5,-56.5 67.5,-56.5"/>
<text text-anchor="middle" x="104.5" y="-63.5" font-family="Helvetica,sans-Serif" font-size="10.00">erpc_config.h</text>
</a>
</g>
</g>
<!-- Node2&#45;&gt;Node3 -->
<g id="edge2" class="edge"><title>Node2&#45;&gt;Node3</title>
<path fill="none" stroke="midnightblue" d="M96.1513,-112.083C97.4764,-104.927 99.3824,-94.6353 101.039,-85.6911"/>
<polygon fill="midnightblue" stroke="midnightblue" points="104.5,-86.2212 102.879,-75.7511 97.617,-84.9466 104.5,-86.2212"/>
</g>
<!-- Node4 -->
<g id="node4" class="node"><title>Node4</title>
<polygon fill="white" stroke="#bfbfbf" points="0,-56.5 0,-75.5 49,-75.5 49,-56.5 0,-56.5"/>
<text text-anchor="middle" x="24.5" y="-63.5" font-family="Helvetica,sans-Serif" font-size="10.00">cassert</text>
</g>
<!-- Node2&#45;&gt;Node4 -->
<g id="edge3" class="edge"><title>Node2&#45;&gt;Node4</title>
<path fill="none" stroke="midnightblue" d="M83.2533,-112.324C72.7026,-104.185 56.6993,-91.8395 44.0578,-82.0874"/>
<polygon fill="midnightblue" stroke="midnightblue" points="46.007,-79.1707 35.9513,-75.8339 41.7314,-84.7132 46.007,-79.1707"/>
</g>
<!-- Node5&#45;&gt;Node2 -->
<g id="edge5" class="edge"><title>Node5&#45;&gt;Node2</title>
<path fill="none" stroke="midnightblue" d="M155.771,-168.324C144.663,-160.107 127.758,-147.602 114.517,-137.807"/>
<polygon fill="midnightblue" stroke="midnightblue" points="116.563,-134.967 106.442,-131.834 112.4,-140.595 116.563,-134.967"/>
</g>
<!-- Node6 -->
<g id="node6" class="node"><title>Node6</title>
<polygon fill="white" stroke="#bfbfbf" points="260,-0.5 260,-19.5 309,-19.5 309,-0.5 260,-0.5"/>
<text text-anchor="middle" x="284.5" y="-7.5" font-family="Helvetica,sans-Serif" font-size="10.00">stdint.h</text>
</g>
<!-- Node5&#45;&gt;Node6 -->
<g id="edge6" class="edge"><title>Node5&#45;&gt;Node6</title>
<path fill="none" stroke="midnightblue" d="M170.457,-168.347C177.909,-147.406 199.057,-93.0029 229.5,-56 239.025,-44.4227 251.899,-33.6972 262.798,-25.6233"/>
<polygon fill="midnightblue" stroke="midnightblue" points="264.913,-28.4138 271.013,-19.7511 260.842,-22.7191 264.913,-28.4138"/>
</g>
<!-- Node7&#45;&gt;Node2 -->
<g id="edge8" class="edge"><title>Node7&#45;&gt;Node2</title>
<path fill="none" stroke="midnightblue" d="M254.338,-229.829C250.226,-215.08 239.91,-185.053 220.5,-168 201.719,-151.5 176.46,-140.92 153.489,-134.199"/>
<polygon fill="midnightblue" stroke="midnightblue" points="154.379,-130.813 143.81,-131.548 152.53,-137.565 154.379,-130.813"/>
</g>
<!-- Node7&#45;&gt;Node5 -->
<g id="edge21" class="edge"><title>Node7&#45;&gt;Node5</title>
<path fill="none" stroke="midnightblue" d="M243.748,-229.975C229.473,-220.431 206.103,-204.807 188.992,-193.368"/>
<polygon fill="midnightblue" stroke="midnightblue" points="190.486,-190.157 180.228,-187.509 186.596,-195.977 190.486,-190.157"/>
</g>
<!-- Node8 -->
<g id="node8" class="node"><title>Node8</title>
<g id="a_node8"><a xlink:href="erpc__message__buffer_8h.html" target="_top" xlink:title="erpc_message_buffer.h">
<polygon fill="white" stroke="black" points="209,-112.5 209,-131.5 326,-131.5 326,-112.5 209,-112.5"/>
<text text-anchor="middle" x="267.5" y="-119.5" font-family="Helvetica,sans-Serif" font-size="10.00">erpc_message_buffer.h</text>
</a>
</g>
</g>
<!-- Node7&#45;&gt;Node8 -->
<g id="edge9" class="edge"><title>Node7&#45;&gt;Node8</title>
<path fill="none" stroke="midnightblue" d="M257.327,-229.819C259.095,-211.257 263.277,-167.339 265.693,-141.973"/>
<polygon fill="midnightblue" stroke="midnightblue" points="269.2,-142.069 266.664,-131.782 262.231,-141.405 269.2,-142.069"/>
</g>
<!-- Node11 -->
<g id="node11" class="node"><title>Node11</title>
<g id="a_node11"><a xlink:href="erpc__transport_8h.html" target="_top" xlink:title="erpc_transport.h">
<polygon fill="white" stroke="black" points="311,-168.5 311,-187.5 398,-187.5 398,-168.5 311,-168.5"/>
<text text-anchor="middle" x="354.5" y="-175.5" font-family="Helvetica,sans-Serif" font-size="10.00">erpc_transport.h</text>
</a>
</g>
</g>
<!-- Node7&#45;&gt;Node11 -->
<g id="edge14" class="edge"><title>Node7&#45;&gt;Node11</title>
<path fill="none" stroke="midnightblue" d="M270.541,-229.975C286.551,-220.255 312.95,-204.227 331.874,-192.737"/>
<polygon fill="midnightblue" stroke="midnightblue" points="333.754,-195.691 340.485,-187.509 330.121,-189.707 333.754,-195.691"/>
</g>
<!-- Node13 -->
<g id="node13" class="node"><title>Node13</title>
<polygon fill="white" stroke="#bfbfbf" points="474.5,-112.5 474.5,-131.5 520.5,-131.5 520.5,-112.5 474.5,-112.5"/>
<text text-anchor="middle" x="497.5" y="-119.5" font-family="Helvetica,sans-Serif" font-size="10.00">cstring</text>
</g>
<!-- Node7&#45;&gt;Node13 -->
<g id="edge20" class="edge"><title>Node7&#45;&gt;Node13</title>
<path fill="none" stroke="midnightblue" d="M291.322,-229.928C322.495,-221.528 368.943,-207.196 406.5,-188 433.836,-174.028 462.121,-152.517 479.754,-138.112"/>
<polygon fill="midnightblue" stroke="midnightblue" points="482.047,-140.757 487.503,-131.674 477.574,-135.372 482.047,-140.757"/>
</g>
<!-- Node8&#45;&gt;Node6 -->
<g id="edge13" class="edge"><title>Node8&#45;&gt;Node6</title>
<path fill="none" stroke="midnightblue" d="M257.89,-112.283C245.483,-99.9158 226.494,-76.4979 235.5,-56 240.89,-43.732 251.458,-33.3414 261.404,-25.6461"/>
<polygon fill="midnightblue" stroke="midnightblue" points="263.752,-28.2697 269.839,-19.598 259.672,-22.5811 263.752,-28.2697"/>
</g>
<!-- Node9 -->
<g id="node9" class="node"><title>Node9</title>
<g id="a_node9"><a xlink:href="erpc__common_8h_source.html" target="_top" xlink:title="erpc_common.h">
<polygon fill="white" stroke="black" points="310.5,-56.5 310.5,-75.5 396.5,-75.5 396.5,-56.5 310.5,-56.5"/>
<text text-anchor="middle" x="353.5" y="-63.5" font-family="Helvetica,sans-Serif" font-size="10.00">erpc_common.h</text>
</a>
</g>
</g>
<!-- Node8&#45;&gt;Node9 -->
<g id="edge10" class="edge"><title>Node8&#45;&gt;Node9</title>
<path fill="none" stroke="midnightblue" d="M281.317,-112.324C294.733,-103.9 315.324,-90.9709 331.086,-81.0741"/>
<polygon fill="midnightblue" stroke="midnightblue" points="333.109,-83.9364 339.717,-75.6545 329.387,-78.0081 333.109,-83.9364"/>
</g>
<!-- Node10 -->
<g id="node10" class="node"><title>Node10</title>
<polygon fill="white" stroke="#bfbfbf" points="244.5,-56.5 244.5,-75.5 292.5,-75.5 292.5,-56.5 244.5,-56.5"/>
<text text-anchor="middle" x="268.5" y="-63.5" font-family="Helvetica,sans-Serif" font-size="10.00">cstddef</text>
</g>
<!-- Node8&#45;&gt;Node10 -->
<g id="edge12" class="edge"><title>Node8&#45;&gt;Node10</title>
<path fill="none" stroke="midnightblue" d="M267.665,-112.083C267.796,-105.006 267.984,-94.8611 268.148,-85.9865"/>
<polygon fill="midnightblue" stroke="midnightblue" points="271.652,-85.8142 268.338,-75.7511 264.653,-85.6845 271.652,-85.8142"/>
</g>
<!-- Node9&#45;&gt;Node6 -->
<g id="edge11" class="edge"><title>Node9&#45;&gt;Node6</title>
<path fill="none" stroke="midnightblue" d="M342.414,-56.324C332.014,-48.1849 316.239,-35.8395 303.778,-26.0874"/>
<polygon fill="midnightblue" stroke="midnightblue" points="305.82,-23.2407 295.788,-19.8339 301.506,-28.7533 305.82,-23.2407"/>
</g>
<!-- Node11&#45;&gt;Node8 -->
<g id="edge18" class="edge"><title>Node11&#45;&gt;Node8</title>
<path fill="none" stroke="midnightblue" d="M340.522,-168.324C326.95,-159.9 306.12,-146.971 290.175,-137.074"/>
<polygon fill="midnightblue" stroke="midnightblue" points="291.786,-133.954 281.443,-131.655 288.094,-139.902 291.786,-133.954"/>
</g>
<!-- Node11&#45;&gt;Node9 -->
<g id="edge15" class="edge"><title>Node11&#45;&gt;Node9</title>
<path fill="none" stroke="midnightblue" d="M354.422,-168.368C354.26,-150.617 353.888,-109.666 353.669,-85.5974"/>
<polygon fill="midnightblue" stroke="midnightblue" points="357.169,-85.5592 353.578,-75.5914 350.169,-85.6229 357.169,-85.5592"/>
</g>
<!-- Node12 -->
<g id="node12" class="node"><title>Node12</title>
<g id="a_node12"><a xlink:href="erpc__crc16_8h.html" target="_top" xlink:title="erpc_crc16.h">
<polygon fill="white" stroke="black" points="383,-112.5 383,-131.5 456,-131.5 456,-112.5 383,-112.5"/>
<text text-anchor="middle" x="419.5" y="-119.5" font-family="Helvetica,sans-Serif" font-size="10.00">erpc_crc16.h</text>
</a>
</g>
</g>
<!-- Node11&#45;&gt;Node12 -->
<g id="edge16" class="edge"><title>Node11&#45;&gt;Node12</title>
<path fill="none" stroke="midnightblue" d="M364.943,-168.324C374.646,-160.263 389.315,-148.077 401,-138.369"/>
<polygon fill="midnightblue" stroke="midnightblue" points="403.411,-140.916 408.867,-131.834 398.938,-135.532 403.411,-140.916"/>
</g>
<!-- Node11&#45;&gt;Node13 -->
<g id="edge19" class="edge"><title>Node11&#45;&gt;Node13</title>
<path fill="none" stroke="midnightblue" d="M377.159,-168.444C400.902,-159.478 438.409,-145.314 465.238,-135.183"/>
<polygon fill="midnightblue" stroke="midnightblue" points="466.829,-138.324 474.947,-131.516 464.356,-131.775 466.829,-138.324"/>
</g>
<!-- Node12&#45;&gt;Node6 -->
<g id="edge17" class="edge"><title>Node12&#45;&gt;Node6</title>
<path fill="none" stroke="midnightblue" d="M420.099,-112.278C420.551,-98.6128 419.4,-72.0599 405.5,-56 383.78,-30.9053 346.701,-19.7855 319.299,-14.8698"/>
<polygon fill="midnightblue" stroke="midnightblue" points="319.751,-11.3976 309.323,-13.2734 318.645,-18.3096 319.751,-11.3976"/>
</g>
</g>
</svg>
