<?xml version="1.0" encoding="UTF-8" standalone="no"?>
<!DOCTYPE svg PUBLIC "-//W3C//DTD SVG 1.1//EN"
 "http://www.w3.org/Graphics/SVG/1.1/DTD/svg11.dtd">
<!-- Generated by graphviz version 2.38.0 (20140413.2041)
 -->
<!-- Title: erpc_threading.h Pages: 1 -->
<svg width="1304pt" height="162pt"
 viewBox="0.00 0.00 1303.50 162.00" xmlns="http://www.w3.org/2000/svg" xmlns:xlink="http://www.w3.org/1999/xlink">
<g id="graph0" class="graph" transform="scale(1 1) rotate(0) translate(4 158)">
<title>erpc_threading.h</title>
<polygon fill="white" stroke="none" points="-4,4 -4,-158 1299.5,-158 1299.5,4 -4,4"/>
<!-- Node1 -->
<g id="node1" class="node"><title>Node1</title>
<polygon fill="#bfbfbf" stroke="black" points="930.5,-134.5 930.5,-153.5 1019.5,-153.5 1019.5,-134.5 930.5,-134.5"/>
<text text-anchor="middle" x="975" y="-141.5" font-family="Helvetica,sans-Serif" font-size="10.00">erpc_threading.h</text>
</g>
<!-- Node2 -->
<g id="node2" class="node"><title>Node2</title>
<g id="a_node2"><a xlink:href="erpc__transport__arbitrator_8h.html" target="_top" xlink:title="erpc_transport_arbitrator.h">
<polygon fill="white" stroke="black" points="597.5,-73 597.5,-92 728.5,-92 728.5,-73 597.5,-73"/>
<text text-anchor="middle" x="663" y="-80" font-family="Helvetica,sans-Serif" font-size="10.00">erpc_transport_arbitrator.h</text>
</a>
</g>
</g>
<!-- Node1&#45;&gt;Node2 -->
<g id="edge1" class="edge"><title>Node1&#45;&gt;Node2</title>
<path fill="none" stroke="midnightblue" d="M920.56,-132.717C872.517,-123.629 800.594,-109.993 738,-98 727.971,-96.0784 717.19,-94.0009 707.016,-92.0352"/>
<polygon fill="midnightblue" stroke="midnightblue" points="919.961,-136.165 930.437,-134.585 921.262,-129.287 919.961,-136.165"/>
</g>
<!-- Node3 -->
<g id="node3" class="node"><title>Node3</title>
<g id="a_node3"><a xlink:href="erpc__framed__transport_8h.html" target="_top" xlink:title="erpc_framed_transport.h">
<polygon fill="white" stroke="black" points="747,-73 747,-92 869,-92 869,-73 747,-73"/>
<text text-anchor="middle" x="808" y="-80" font-family="Helvetica,sans-Serif" font-size="10.00">erpc_framed_transport.h</text>
</a>
</g>
</g>
<!-- Node1&#45;&gt;Node3 -->
<g id="edge2" class="edge"><title>Node1&#45;&gt;Node3</title>
<path fill="none" stroke="midnightblue" d="M941.552,-131.083C909.09,-119.517 860.633,-102.252 831.883,-92.0091"/>
<polygon fill="midnightblue" stroke="midnightblue" points="940.478,-134.416 951.073,-134.475 942.828,-127.822 940.478,-134.416"/>
</g>
<!-- Node10 -->
<g id="node10" class="node"><title>Node10</title>
<g id="a_node10"><a xlink:href="erpc__tcp__transport_8h.html" target="_top" xlink:title="erpc_tcp_transport.h">
<polygon fill="white" stroke="black" points="884,-6 884,-25 990,-25 990,-6 884,-6"/>
<text text-anchor="middle" x="937" y="-13" font-family="Helvetica,sans-Serif" font-size="10.00">erpc_tcp_transport.h</text>
</a>
</g>
</g>
<!-- Node1&#45;&gt;Node10 -->
<g id="edge14" class="edge"><title>Node1&#45;&gt;Node10</title>
<path fill="none" stroke="midnightblue" d="M969.259,-124.768C966.702,-116.591 963.671,-106.821 961,-98 952.964,-71.4597 943.788,-39.947 939.48,-25.0784"/>
<polygon fill="midnightblue" stroke="midnightblue" points="965.943,-125.892 972.277,-134.385 972.622,-123.796 965.943,-125.892"/>
</g>
<!-- Node11 -->
<g id="node11" class="node"><title>Node11</title>
<g id="a_node11"><a xlink:href="erpc__uart__cmsis__transport_8h.html" target="_top" xlink:title="erpc_uart_cmsis_transport.h">
<polygon fill="white" stroke="black" points="1008,-6 1008,-25 1148,-25 1148,-6 1008,-6"/>
<text text-anchor="middle" x="1078" y="-13" font-family="Helvetica,sans-Serif" font-size="10.00">erpc_uart_cmsis_transport.h</text>
</a>
</g>
</g>
<!-- Node1&#45;&gt;Node11 -->
<g id="edge15" class="edge"><title>Node1&#45;&gt;Node11</title>
<path fill="none" stroke="midnightblue" d="M977.289,-124.07C980.084,-107.589 986.143,-83.775 999,-67 1014.05,-47.3621 1039.08,-33.241 1056.93,-25.0086"/>
<polygon fill="midnightblue" stroke="midnightblue" points="973.801,-123.733 975.831,-134.132 980.729,-124.737 973.801,-123.733"/>
</g>
<!-- Node12 -->
<g id="node12" class="node"><title>Node12</title>
<g id="a_node12"><a xlink:href="erpc__usb__cdc__transport_8h.html" target="_top" xlink:title="erpc_usb_cdc_transport.h">
<polygon fill="white" stroke="black" points="1166.5,-6 1166.5,-25 1295.5,-25 1295.5,-6 1166.5,-6"/>
<text text-anchor="middle" x="1231" y="-13" font-family="Helvetica,sans-Serif" font-size="10.00">erpc_usb_cdc_transport.h</text>
</a>
</g>
</g>
<!-- Node1&#45;&gt;Node12 -->
<g id="edge16" class="edge"><title>Node1&#45;&gt;Node12</title>
<path fill="none" stroke="midnightblue" d="M983.683,-125.291C993.161,-107.827 1009.97,-81.6816 1032,-67 1045.27,-58.1535 1137.28,-36.9885 1191.42,-25.0567"/>
<polygon fill="midnightblue" stroke="midnightblue" points="980.448,-123.927 978.966,-134.418 986.666,-127.141 980.448,-123.927"/>
</g>
<!-- Node13 -->
<g id="node13" class="node"><title>Node13</title>
<g id="a_node13"><a xlink:href="erpc__inter__thread__buffer__transport_8h.html" target="_top" xlink:title="erpc_inter_thread_buffer\l_transport.h">
<polygon fill="white" stroke="black" points="1041,-67.5 1041,-97.5 1161,-97.5 1161,-67.5 1041,-67.5"/>
<text text-anchor="start" x="1049" y="-85.5" font-family="Helvetica,sans-Serif" font-size="10.00">erpc_inter_thread_buffer</text>
<text text-anchor="middle" x="1101" y="-74.5" font-family="Helvetica,sans-Serif" font-size="10.00">_transport.h</text>
</a>
</g>
</g>
<!-- Node1&#45;&gt;Node13 -->
<g id="edge12" class="edge"><title>Node1&#45;&gt;Node13</title>
<path fill="none" stroke="midnightblue" d="M1002.11,-130.2C1022.47,-120.585 1050.34,-107.423 1071.3,-97.523"/>
<polygon fill="midnightblue" stroke="midnightblue" points="1000.6,-127.04 993.053,-134.475 1003.59,-133.37 1000.6,-127.04"/>
</g>
<!-- Node14 -->
<g id="node14" class="node"><title>Node14</title>
<g id="a_node14"><a xlink:href="erpc__mu__transport_8h.html" target="_top" xlink:title="erpc_mu_transport.h">
<polygon fill="white" stroke="black" points="1179,-73 1179,-92 1285,-92 1285,-73 1179,-73"/>
<text text-anchor="middle" x="1232" y="-80" font-family="Helvetica,sans-Serif" font-size="10.00">erpc_mu_transport.h</text>
</a>
</g>
</g>
<!-- Node1&#45;&gt;Node14 -->
<g id="edge13" class="edge"><title>Node1&#45;&gt;Node14</title>
<path fill="none" stroke="midnightblue" d="M1021.91,-132.216C1061.41,-123.124 1119.41,-109.753 1170,-98 1178.29,-96.0738 1187.2,-93.9946 1195.61,-92.0286"/>
<polygon fill="midnightblue" stroke="midnightblue" points="1020.99,-128.836 1012.03,-134.489 1022.56,-135.658 1020.99,-128.836"/>
</g>
<!-- Node4 -->
<g id="node4" class="node"><title>Node4</title>
<g id="a_node4"><a xlink:href="erpc__dspi__master__transport_8h.html" target="_top" xlink:title="erpc_dspi_master_transport.h">
<polygon fill="white" stroke="black" points="430,-6 430,-25 576,-25 576,-6 430,-6"/>
<text text-anchor="middle" x="503" y="-13" font-family="Helvetica,sans-Serif" font-size="10.00">erpc_dspi_master_transport.h</text>
</a>
</g>
</g>
<!-- Node3&#45;&gt;Node4 -->
<g id="edge3" class="edge"><title>Node3&#45;&gt;Node4</title>
<path fill="none" stroke="midnightblue" d="M757.806,-70.803C697.786,-58.0117 598.525,-36.8578 543.276,-25.0834"/>
<polygon fill="midnightblue" stroke="midnightblue" points="757.303,-74.2743 767.813,-72.9355 758.762,-67.428 757.303,-74.2743"/>
</g>
<!-- Node5 -->
<g id="node5" class="node"><title>Node5</title>
<g id="a_node5"><a xlink:href="erpc__dspi__slave__transport_8h.html" target="_top" xlink:title="erpc_dspi_slave_transport.h">
<polygon fill="white" stroke="black" points="594.5,-6 594.5,-25 731.5,-25 731.5,-6 594.5,-6"/>
<text text-anchor="middle" x="663" y="-13" font-family="Helvetica,sans-Serif" font-size="10.00">erpc_dspi_slave_transport.h</text>
</a>
</g>
</g>
<!-- Node3&#45;&gt;Node5 -->
<g id="edge4" class="edge"><title>Node3&#45;&gt;Node5</title>
<path fill="none" stroke="midnightblue" d="M779.251,-68.6127C750.532,-55.7387 707.182,-36.3059 682.335,-25.1672"/>
<polygon fill="midnightblue" stroke="midnightblue" points="778.188,-71.9717 788.745,-72.8685 781.052,-65.5841 778.188,-71.9717"/>
</g>
<!-- Node6 -->
<g id="node6" class="node"><title>Node6</title>
<g id="a_node6"><a xlink:href="erpc__serial__transport_8h.html" target="_top" xlink:title="erpc_serial_transport.h">
<polygon fill="white" stroke="black" points="750,-6 750,-25 866,-25 866,-6 750,-6"/>
<text text-anchor="middle" x="808" y="-13" font-family="Helvetica,sans-Serif" font-size="10.00">erpc_serial_transport.h</text>
</a>
</g>
</g>
<!-- Node3&#45;&gt;Node6 -->
<g id="edge5" class="edge"><title>Node3&#45;&gt;Node6</title>
<path fill="none" stroke="midnightblue" d="M808,-62.537C808,-50.1703 808,-34.6198 808,-25.1273"/>
<polygon fill="midnightblue" stroke="midnightblue" points="804.5,-62.7338 808,-72.7338 811.5,-62.7338 804.5,-62.7338"/>
</g>
<!-- Node7 -->
<g id="node7" class="node"><title>Node7</title>
<g id="a_node7"><a xlink:href="erpc__spi__master__transport_8h.html" target="_top" xlink:title="erpc_spi_master_transport.h">
<polygon fill="white" stroke="black" points="0,-6 0,-25 140,-25 140,-6 0,-6"/>
<text text-anchor="middle" x="70" y="-13" font-family="Helvetica,sans-Serif" font-size="10.00">erpc_spi_master_transport.h</text>
</a>
</g>
</g>
<!-- Node3&#45;&gt;Node7 -->
<g id="edge6" class="edge"><title>Node3&#45;&gt;Node7</title>
<path fill="none" stroke="midnightblue" d="M761.289,-70.9921C753.222,-69.4554 744.893,-68.0423 737,-67 477.431,-32.721 408.898,-62.6906 149,-31 136.681,-29.4979 123.379,-27.2876 111.267,-25.0432"/>
<polygon fill="midnightblue" stroke="midnightblue" points="760.825,-74.4682 771.316,-72.9863 762.19,-67.6027 760.825,-74.4682"/>
</g>
<!-- Node8 -->
<g id="node8" class="node"><title>Node8</title>
<g id="a_node8"><a xlink:href="erpc__spi__slave__transport_8h.html" target="_top" xlink:title="erpc_spi_slave_transport.h">
<polygon fill="white" stroke="black" points="158,-6 158,-25 290,-25 290,-6 158,-6"/>
<text text-anchor="middle" x="224" y="-13" font-family="Helvetica,sans-Serif" font-size="10.00">erpc_spi_slave_transport.h</text>
</a>
</g>
</g>
<!-- Node3&#45;&gt;Node8 -->
<g id="edge7" class="edge"><title>Node3&#45;&gt;Node8</title>
<path fill="none" stroke="midnightblue" d="M760.732,-71.0286C752.835,-69.5147 744.706,-68.0996 737,-67 543.635,-39.4092 492.506,-57.5774 299,-31 287.569,-29.4301 275.246,-27.2525 263.957,-25.0617"/>
<polygon fill="midnightblue" stroke="midnightblue" points="760.071,-74.4656 770.561,-72.9827 761.436,-67.6 760.071,-74.4656"/>
</g>
<!-- Node9 -->
<g id="node9" class="node"><title>Node9</title>
<g id="a_node9"><a xlink:href="erpc__spidev__master__transport_8h.html" target="_top" xlink:title="erpc_spidev_master\l_transport.h">
<polygon fill="white" stroke="black" points="308.5,-0.5 308.5,-30.5 411.5,-30.5 411.5,-0.5 308.5,-0.5"/>
<text text-anchor="start" x="316.5" y="-18.5" font-family="Helvetica,sans-Serif" font-size="10.00">erpc_spidev_master</text>
<text text-anchor="middle" x="360" y="-7.5" font-family="Helvetica,sans-Serif" font-size="10.00">_transport.h</text>
</a>
</g>
</g>
<!-- Node3&#45;&gt;Node9 -->
<g id="edge8" class="edge"><title>Node3&#45;&gt;Node9</title>
<path fill="none" stroke="midnightblue" d="M759.383,-70.9814C751.907,-69.5348 744.261,-68.1527 737,-67 597.395,-44.8365 560.233,-55.3886 421,-31 417.998,-30.4741 414.923,-29.8898 411.826,-29.2662"/>
<polygon fill="midnightblue" stroke="midnightblue" points="758.93,-74.4598 769.421,-72.9785 760.296,-67.5944 758.93,-74.4598"/>
</g>
<!-- Node3&#45;&gt;Node10 -->
<g id="edge9" class="edge"><title>Node3&#45;&gt;Node10</title>
<path fill="none" stroke="midnightblue" d="M834.249,-68.2739C859.799,-55.3999 897.886,-36.2086 919.799,-25.1672"/>
<polygon fill="midnightblue" stroke="midnightblue" points="832.486,-65.243 825.13,-72.8685 835.636,-71.4943 832.486,-65.243"/>
</g>
<!-- Node3&#45;&gt;Node11 -->
<g id="edge10" class="edge"><title>Node3&#45;&gt;Node11</title>
<path fill="none" stroke="midnightblue" d="M853.426,-70.5642C906.654,-57.7499 993.74,-36.7848 1042.35,-25.0834"/>
<polygon fill="midnightblue" stroke="midnightblue" points="852.478,-67.1921 843.575,-72.9355 854.117,-73.9977 852.478,-67.1921"/>
</g>
<!-- Node3&#45;&gt;Node12 -->
<g id="edge11" class="edge"><title>Node3&#45;&gt;Node12</title>
<path fill="none" stroke="midnightblue" d="M879.422,-72.2245C950.077,-62.7994 1061.22,-47.3027 1157,-31 1167.45,-29.2206 1178.7,-27.1156 1189.19,-25.0692"/>
<polygon fill="midnightblue" stroke="midnightblue" points="878.749,-68.783 869.298,-73.5704 879.672,-75.722 878.749,-68.783"/>
</g>
</g>
</svg>
