<?xml version="1.0" encoding="UTF-8" standalone="no"?>
<!DOCTYPE svg PUBLIC "-//W3C//DTD SVG 1.1//EN"
 "http://www.w3.org/Graphics/SVG/1.1/DTD/svg11.dtd">
<!-- Generated by graphviz version 2.38.0 (20140413.2041)
 -->
<!-- Title: erpc_rpmsg_lite_base_transport.h Pages: 1 -->
<svg width="620pt" height="263pt"
 viewBox="0.00 0.00 619.50 263.00" xmlns="http://www.w3.org/2000/svg" xmlns:xlink="http://www.w3.org/1999/xlink">
<g id="graph0" class="graph" transform="scale(1 1) rotate(0) translate(4 259)">
<title>erpc_rpmsg_lite_base_transport.h</title>
<polygon fill="white" stroke="none" points="-4,4 -4,-259 615.5,-259 615.5,4 -4,4"/>
<!-- Node1 -->
<g id="node1" class="node"><title>Node1</title>
<polygon fill="#bfbfbf" stroke="black" points="337.5,-224.5 337.5,-254.5 449.5,-254.5 449.5,-224.5 337.5,-224.5"/>
<text text-anchor="start" x="345.5" y="-242.5" font-family="Helvetica,sans-Serif" font-size="10.00">erpc_rpmsg_lite_base</text>
<text text-anchor="middle" x="393.5" y="-231.5" font-family="Helvetica,sans-Serif" font-size="10.00">_transport.h</text>
</g>
<!-- Node2 -->
<g id="node2" class="node"><title>Node2</title>
<g id="a_node2"><a xlink:href="erpc__transport_8h.html" target="_top" xlink:title="erpc_transport.h">
<polygon fill="white" stroke="black" points="179,-168.5 179,-187.5 266,-187.5 266,-168.5 179,-168.5"/>
<text text-anchor="middle" x="222.5" y="-175.5" font-family="Helvetica,sans-Serif" font-size="10.00">erpc_transport.h</text>
</a>
</g>
</g>
<!-- Node1&#45;&gt;Node2 -->
<g id="edge1" class="edge"><title>Node1&#45;&gt;Node2</title>
<path fill="none" stroke="midnightblue" d="M352.975,-224.399C323.772,-214.238 284.783,-200.672 257.051,-191.022"/>
<polygon fill="midnightblue" stroke="midnightblue" points="257.977,-187.639 247.382,-187.658 255.676,-194.25 257.977,-187.639"/>
</g>
<!-- Node9 -->
<g id="node9" class="node"><title>Node9</title>
<g id="a_node9"><a xlink:href="erpc__config__internal_8h_source.html" target="_top" xlink:title="erpc_config_internal.h">
<polygon fill="white" stroke="black" points="284,-168.5 284,-187.5 395,-187.5 395,-168.5 284,-168.5"/>
<text text-anchor="middle" x="339.5" y="-175.5" font-family="Helvetica,sans-Serif" font-size="10.00">erpc_config_internal.h</text>
</a>
</g>
</g>
<!-- Node1&#45;&gt;Node9 -->
<g id="edge11" class="edge"><title>Node1&#45;&gt;Node9</title>
<path fill="none" stroke="midnightblue" d="M380.703,-224.399C372.775,-215.664 362.564,-204.413 354.29,-195.296"/>
<polygon fill="midnightblue" stroke="midnightblue" points="356.67,-192.711 347.357,-187.658 351.486,-197.415 356.67,-192.711"/>
</g>
<!-- Node11 -->
<g id="node11" class="node"><title>Node11</title>
<polygon fill="white" stroke="#bfbfbf" points="413.5,-168.5 413.5,-187.5 483.5,-187.5 483.5,-168.5 413.5,-168.5"/>
<text text-anchor="middle" x="448.5" y="-175.5" font-family="Helvetica,sans-Serif" font-size="10.00">rpmsg_lite.h</text>
</g>
<!-- Node1&#45;&gt;Node11 -->
<g id="edge13" class="edge"><title>Node1&#45;&gt;Node11</title>
<path fill="none" stroke="midnightblue" d="M406.534,-224.399C414.691,-215.575 425.222,-204.183 433.694,-195.018"/>
<polygon fill="midnightblue" stroke="midnightblue" points="436.279,-197.377 440.497,-187.658 431.139,-192.625 436.279,-197.377"/>
</g>
<!-- Node12 -->
<g id="node12" class="node"><title>Node12</title>
<polygon fill="white" stroke="#bfbfbf" points="501.5,-168.5 501.5,-187.5 611.5,-187.5 611.5,-168.5 501.5,-168.5"/>
<text text-anchor="middle" x="556.5" y="-175.5" font-family="Helvetica,sans-Serif" font-size="10.00">rpmsg_env_specific.h</text>
</g>
<!-- Node1&#45;&gt;Node12 -->
<g id="edge14" class="edge"><title>Node1&#45;&gt;Node12</title>
<path fill="none" stroke="midnightblue" d="M432.129,-224.399C459.844,-214.283 496.805,-200.791 523.217,-191.149"/>
<polygon fill="midnightblue" stroke="midnightblue" points="524.589,-194.375 532.782,-187.658 522.188,-187.799 524.589,-194.375"/>
</g>
<!-- Node3 -->
<g id="node3" class="node"><title>Node3</title>
<g id="a_node3"><a xlink:href="erpc__common_8h_source.html" target="_top" xlink:title="erpc_common.h">
<polygon fill="white" stroke="black" points="195.5,-56.5 195.5,-75.5 281.5,-75.5 281.5,-56.5 195.5,-56.5"/>
<text text-anchor="middle" x="238.5" y="-63.5" font-family="Helvetica,sans-Serif" font-size="10.00">erpc_common.h</text>
</a>
</g>
</g>
<!-- Node2&#45;&gt;Node3 -->
<g id="edge2" class="edge"><title>Node2&#45;&gt;Node3</title>
<path fill="none" stroke="midnightblue" d="M231.52,-168.34C239.572,-159.932 250.798,-146.363 255.5,-132 260.705,-116.099 254.741,-97.6111 248.489,-84.4266"/>
<polygon fill="midnightblue" stroke="midnightblue" points="251.564,-82.7533 243.832,-75.509 245.359,-85.9933 251.564,-82.7533"/>
</g>
<!-- Node5 -->
<g id="node5" class="node"><title>Node5</title>
<g id="a_node5"><a xlink:href="erpc__crc16_8h.html" target="_top" xlink:title="erpc_crc16.h">
<polygon fill="white" stroke="black" points="0,-56.5 0,-75.5 73,-75.5 73,-56.5 0,-56.5"/>
<text text-anchor="middle" x="36.5" y="-63.5" font-family="Helvetica,sans-Serif" font-size="10.00">erpc_crc16.h</text>
</a>
</g>
</g>
<!-- Node2&#45;&gt;Node5 -->
<g id="edge4" class="edge"><title>Node2&#45;&gt;Node5</title>
<path fill="none" stroke="midnightblue" d="M178.726,-176.59C141.22,-173.872 88.2205,-164.035 55.5,-132 43.3028,-120.058 38.8294,-100.755 37.2419,-86.2809"/>
<polygon fill="midnightblue" stroke="midnightblue" points="40.7065,-85.6632 36.4952,-75.9413 33.7247,-86.1675 40.7065,-85.6632"/>
</g>
<!-- Node6 -->
<g id="node6" class="node"><title>Node6</title>
<g id="a_node6"><a xlink:href="erpc__message__buffer_8h.html" target="_top" xlink:title="erpc_message_buffer.h">
<polygon fill="white" stroke="black" points="65,-112.5 65,-131.5 182,-131.5 182,-112.5 65,-112.5"/>
<text text-anchor="middle" x="123.5" y="-119.5" font-family="Helvetica,sans-Serif" font-size="10.00">erpc_message_buffer.h</text>
</a>
</g>
</g>
<!-- Node2&#45;&gt;Node6 -->
<g id="edge6" class="edge"><title>Node2&#45;&gt;Node6</title>
<path fill="none" stroke="midnightblue" d="M206.594,-168.324C190.862,-159.743 166.558,-146.486 148.291,-136.522"/>
<polygon fill="midnightblue" stroke="midnightblue" points="149.822,-133.37 139.367,-131.655 146.47,-139.516 149.822,-133.37"/>
</g>
<!-- Node8 -->
<g id="node8" class="node"><title>Node8</title>
<polygon fill="white" stroke="#bfbfbf" points="200.5,-112.5 200.5,-131.5 246.5,-131.5 246.5,-112.5 200.5,-112.5"/>
<text text-anchor="middle" x="223.5" y="-119.5" font-family="Helvetica,sans-Serif" font-size="10.00">cstring</text>
</g>
<!-- Node2&#45;&gt;Node8 -->
<g id="edge10" class="edge"><title>Node2&#45;&gt;Node8</title>
<path fill="none" stroke="midnightblue" d="M222.665,-168.083C222.796,-161.006 222.984,-150.861 223.148,-141.986"/>
<polygon fill="midnightblue" stroke="midnightblue" points="226.652,-141.814 223.338,-131.751 219.653,-141.685 226.652,-141.814"/>
</g>
<!-- Node4 -->
<g id="node4" class="node"><title>Node4</title>
<polygon fill="white" stroke="#bfbfbf" points="143,-0.5 143,-19.5 192,-19.5 192,-0.5 143,-0.5"/>
<text text-anchor="middle" x="167.5" y="-7.5" font-family="Helvetica,sans-Serif" font-size="10.00">stdint.h</text>
</g>
<!-- Node3&#45;&gt;Node4 -->
<g id="edge3" class="edge"><title>Node3&#45;&gt;Node4</title>
<path fill="none" stroke="midnightblue" d="M227.093,-56.324C216.391,-48.1849 200.159,-35.8395 187.337,-26.0874"/>
<polygon fill="midnightblue" stroke="midnightblue" points="189.193,-23.1018 179.115,-19.8339 184.956,-28.6734 189.193,-23.1018"/>
</g>
<!-- Node5&#45;&gt;Node4 -->
<g id="edge5" class="edge"><title>Node5&#45;&gt;Node4</title>
<path fill="none" stroke="midnightblue" d="M57.2573,-56.4435C78.8164,-47.5566 112.763,-33.5632 137.294,-23.4514"/>
<polygon fill="midnightblue" stroke="midnightblue" points="138.928,-26.5634 146.84,-19.5164 136.261,-20.0917 138.928,-26.5634"/>
</g>
<!-- Node6&#45;&gt;Node3 -->
<g id="edge7" class="edge"><title>Node6&#45;&gt;Node3</title>
<path fill="none" stroke="midnightblue" d="M141.722,-112.444C160.396,-103.675 189.656,-89.9355 211.117,-79.8579"/>
<polygon fill="midnightblue" stroke="midnightblue" points="212.799,-82.935 220.363,-75.5164 209.824,-76.5988 212.799,-82.935"/>
</g>
<!-- Node6&#45;&gt;Node4 -->
<g id="edge9" class="edge"><title>Node6&#45;&gt;Node4</title>
<path fill="none" stroke="midnightblue" d="M129.085,-112.328C134.6,-103.474 142.988,-89.1943 148.5,-76 154.873,-60.7446 159.978,-42.6357 163.285,-29.4114"/>
<polygon fill="midnightblue" stroke="midnightblue" points="166.704,-30.1619 165.628,-19.6218 159.896,-28.5325 166.704,-30.1619"/>
</g>
<!-- Node7 -->
<g id="node7" class="node"><title>Node7</title>
<polygon fill="white" stroke="#bfbfbf" points="91.5,-56.5 91.5,-75.5 139.5,-75.5 139.5,-56.5 91.5,-56.5"/>
<text text-anchor="middle" x="115.5" y="-63.5" font-family="Helvetica,sans-Serif" font-size="10.00">cstddef</text>
</g>
<!-- Node6&#45;&gt;Node7 -->
<g id="edge8" class="edge"><title>Node6&#45;&gt;Node7</title>
<path fill="none" stroke="midnightblue" d="M122.179,-112.083C121.119,-104.927 119.594,-94.6353 118.269,-85.6911"/>
<polygon fill="midnightblue" stroke="midnightblue" points="121.724,-85.1302 116.796,-75.7511 114.8,-86.1561 121.724,-85.1302"/>
</g>
<!-- Node10 -->
<g id="node10" class="node"><title>Node10</title>
<g id="a_node10"><a xlink:href="erpc__config_8h.html" target="_top" xlink:title="erpc_config.h">
<polygon fill="white" stroke="black" points="302.5,-112.5 302.5,-131.5 376.5,-131.5 376.5,-112.5 302.5,-112.5"/>
<text text-anchor="middle" x="339.5" y="-119.5" font-family="Helvetica,sans-Serif" font-size="10.00">erpc_config.h</text>
</a>
</g>
</g>
<!-- Node9&#45;&gt;Node10 -->
<g id="edge12" class="edge"><title>Node9&#45;&gt;Node10</title>
<path fill="none" stroke="midnightblue" d="M339.5,-168.083C339.5,-161.006 339.5,-150.861 339.5,-141.986"/>
<polygon fill="midnightblue" stroke="midnightblue" points="343,-141.751 339.5,-131.751 336,-141.751 343,-141.751"/>
</g>
</g>
</svg>
