<?xml version="1.0" encoding="UTF-8" standalone="no"?>
<!DOCTYPE svg PUBLIC "-//W3C//DTD SVG 1.1//EN"
 "http://www.w3.org/Graphics/SVG/1.1/DTD/svg11.dtd">
<!-- Generated by graphviz version 2.38.0 (20140413.2041)
 -->
<!-- Title: erpc_crc16.h Pages: 1 -->
<svg width="2203pt" height="285pt"
 viewBox="0.00 0.00 2202.50 285.00" xmlns="http://www.w3.org/2000/svg" xmlns:xlink="http://www.w3.org/1999/xlink">
<g id="graph0" class="graph" transform="scale(1 1) rotate(0) translate(4 281)">
<title>erpc_crc16.h</title>
<polygon fill="white" stroke="none" points="-4,4 -4,-281 2198.5,-281 2198.5,4 -4,4"/>
<!-- Node1 -->
<g id="node1" class="node"><title>Node1</title>
<polygon fill="#bfbfbf" stroke="black" points="1672,-257.5 1672,-276.5 1745,-276.5 1745,-257.5 1672,-257.5"/>
<text text-anchor="middle" x="1708.5" y="-264.5" font-family="Helvetica,sans-Serif" font-size="10.00">erpc_crc16.h</text>
</g>
<!-- Node2 -->
<g id="node2" class="node"><title>Node2</title>
<g id="a_node2"><a xlink:href="erpc__transport_8h.html" target="_top" xlink:title="erpc_transport.h">
<polygon fill="white" stroke="black" points="1412,-201.5 1412,-220.5 1499,-220.5 1499,-201.5 1412,-201.5"/>
<text text-anchor="middle" x="1455.5" y="-208.5" font-family="Helvetica,sans-Serif" font-size="10.00">erpc_transport.h</text>
</a>
</g>
</g>
<!-- Node1&#45;&gt;Node2 -->
<g id="edge1" class="edge"><title>Node1&#45;&gt;Node2</title>
<path fill="none" stroke="midnightblue" d="M1662.2,-256.117C1614.4,-245.916 1540.62,-230.168 1495.35,-220.505"/>
<polygon fill="midnightblue" stroke="midnightblue" points="1661.47,-259.541 1671.98,-258.206 1662.93,-252.695 1661.47,-259.541"/>
</g>
<!-- Node29 -->
<g id="node29" class="node"><title>Node29</title>
<g id="a_node29"><a xlink:href="erpc__rpmsg__tty__rtos__transport_8h.html" target="_top" xlink:title="erpc_rpmsg_tty_rtos\l_transport.h">
<polygon fill="white" stroke="black" points="2088.5,-67.5 2088.5,-97.5 2194.5,-97.5 2194.5,-67.5 2088.5,-67.5"/>
<text text-anchor="start" x="2096.5" y="-85.5" font-family="Helvetica,sans-Serif" font-size="10.00">erpc_rpmsg_tty_rtos</text>
<text text-anchor="middle" x="2141.5" y="-74.5" font-family="Helvetica,sans-Serif" font-size="10.00">_transport.h</text>
</a>
</g>
</g>
<!-- Node1&#45;&gt;Node29 -->
<g id="edge31" class="edge"><title>Node1&#45;&gt;Node29</title>
<path fill="none" stroke="midnightblue" d="M1750.39,-254.694C1808.72,-238.288 1917.08,-205.384 2004.5,-165 2047.71,-145.038 2094.7,-115.109 2120.89,-97.6182"/>
<polygon fill="midnightblue" stroke="midnightblue" points="1749.14,-251.411 1740.44,-257.468 1751.02,-258.153 1749.14,-251.411"/>
</g>
<!-- Node3 -->
<g id="node3" class="node"><title>Node3</title>
<g id="a_node3"><a xlink:href="erpc__codec_8h.html" target="_top" xlink:title="erpc_codec.h">
<polygon fill="white" stroke="black" points="295,-140 295,-159 370,-159 370,-140 295,-140"/>
<text text-anchor="middle" x="332.5" y="-147" font-family="Helvetica,sans-Serif" font-size="10.00">erpc_codec.h</text>
</a>
</g>
</g>
<!-- Node2&#45;&gt;Node3 -->
<g id="edge2" class="edge"><title>Node2&#45;&gt;Node3</title>
<path fill="none" stroke="midnightblue" d="M1401.8,-207.155C1206.45,-196.805 536.437,-161.305 370.103,-152.492"/>
<polygon fill="midnightblue" stroke="midnightblue" points="1401.65,-210.652 1411.82,-207.686 1402.02,-203.662 1401.65,-210.652"/>
</g>
<!-- Node6 -->
<g id="node6" class="node"><title>Node6</title>
<g id="a_node6"><a xlink:href="erpc__transport__arbitrator_8h.html" target="_top" xlink:title="erpc_transport_arbitrator.h">
<polygon fill="white" stroke="black" points="0,-6 0,-25 131,-25 131,-6 0,-6"/>
<text text-anchor="middle" x="65.5" y="-13" font-family="Helvetica,sans-Serif" font-size="10.00">erpc_transport_arbitrator.h</text>
</a>
</g>
</g>
<!-- Node2&#45;&gt;Node6 -->
<g id="edge12" class="edge"><title>Node2&#45;&gt;Node6</title>
<path fill="none" stroke="midnightblue" d="M1401.48,-210.103C1201.49,-210.148 503.496,-207.206 285.5,-165 198.825,-148.219 162.184,-159.144 98.5,-98 77.358,-77.7012 69.3665,-42.0068 66.6921,-25.4283"/>
<polygon fill="midnightblue" stroke="midnightblue" points="1401.73,-213.603 1411.73,-210.098 1401.73,-206.603 1401.73,-213.603"/>
</g>
<!-- Node12 -->
<g id="node12" class="node"><title>Node12</title>
<g id="a_node12"><a xlink:href="erpc__framed__transport_8h.html" target="_top" xlink:title="erpc_framed_transport.h">
<polygon fill="white" stroke="black" points="1111.5,-140 1111.5,-159 1233.5,-159 1233.5,-140 1111.5,-140"/>
<text text-anchor="middle" x="1172.5" y="-147" font-family="Helvetica,sans-Serif" font-size="10.00">erpc_framed_transport.h</text>
</a>
</g>
</g>
<!-- Node2&#45;&gt;Node12 -->
<g id="edge13" class="edge"><title>Node2&#45;&gt;Node12</title>
<path fill="none" stroke="midnightblue" d="M1405.09,-199.402C1350.23,-187.867 1263.58,-169.65 1212.97,-159.009"/>
<polygon fill="midnightblue" stroke="midnightblue" points="1404.45,-202.843 1414.95,-201.475 1405.89,-195.992 1404.45,-202.843"/>
</g>
<!-- Node22 -->
<g id="node22" class="node"><title>Node22</title>
<g id="a_node22"><a xlink:href="erpc__message__loggers_8h.html" target="_top" xlink:title="erpc_message_loggers.h">
<polygon fill="white" stroke="black" points="1252,-140 1252,-159 1377,-159 1377,-140 1252,-140"/>
<text text-anchor="middle" x="1314.5" y="-147" font-family="Helvetica,sans-Serif" font-size="10.00">erpc_message_loggers.h</text>
</a>
</g>
</g>
<!-- Node2&#45;&gt;Node22 -->
<g id="edge23" class="edge"><title>Node2&#45;&gt;Node22</title>
<path fill="none" stroke="midnightblue" d="M1425.83,-197.48C1398.45,-185.924 1358.52,-169.076 1334.66,-159.009"/>
<polygon fill="midnightblue" stroke="midnightblue" points="1424.72,-200.812 1435.3,-201.475 1427.45,-194.363 1424.72,-200.812"/>
</g>
<!-- Node23 -->
<g id="node23" class="node"><title>Node23</title>
<g id="a_node23"><a xlink:href="erpc__inter__thread__buffer__transport_8h.html" target="_top" xlink:title="erpc_inter_thread_buffer\l_transport.h">
<polygon fill="white" stroke="black" points="1395.5,-134.5 1395.5,-164.5 1515.5,-164.5 1515.5,-134.5 1395.5,-134.5"/>
<text text-anchor="start" x="1403.5" y="-152.5" font-family="Helvetica,sans-Serif" font-size="10.00">erpc_inter_thread_buffer</text>
<text text-anchor="middle" x="1455.5" y="-141.5" font-family="Helvetica,sans-Serif" font-size="10.00">_transport.h</text>
</a>
</g>
</g>
<!-- Node2&#45;&gt;Node23 -->
<g id="edge24" class="edge"><title>Node2&#45;&gt;Node23</title>
<path fill="none" stroke="midnightblue" d="M1455.5,-191.235C1455.5,-182.586 1455.5,-172.497 1455.5,-164.523"/>
<polygon fill="midnightblue" stroke="midnightblue" points="1452,-191.475 1455.5,-201.475 1459,-191.475 1452,-191.475"/>
</g>
<!-- Node24 -->
<g id="node24" class="node"><title>Node24</title>
<g id="a_node24"><a xlink:href="erpc__mu__transport_8h.html" target="_top" xlink:title="erpc_mu_transport.h">
<polygon fill="white" stroke="black" points="1533.5,-140 1533.5,-159 1639.5,-159 1639.5,-140 1533.5,-140"/>
<text text-anchor="middle" x="1586.5" y="-147" font-family="Helvetica,sans-Serif" font-size="10.00">erpc_mu_transport.h</text>
</a>
</g>
</g>
<!-- Node2&#45;&gt;Node24 -->
<g id="edge25" class="edge"><title>Node2&#45;&gt;Node24</title>
<path fill="none" stroke="midnightblue" d="M1483.4,-197.327C1508.83,-185.776 1545.7,-169.032 1567.77,-159.009"/>
<polygon fill="midnightblue" stroke="midnightblue" points="1481.93,-194.153 1474.27,-201.475 1484.82,-200.526 1481.93,-194.153"/>
</g>
<!-- Node25 -->
<g id="node25" class="node"><title>Node25</title>
<g id="a_node25"><a xlink:href="erpc__rpmsg__linux__transport_8h_source.html" target="_top" xlink:title="erpc_rpmsg_linux_transport.h">
<polygon fill="white" stroke="black" points="1658,-140 1658,-159 1803,-159 1803,-140 1658,-140"/>
<text text-anchor="middle" x="1730.5" y="-147" font-family="Helvetica,sans-Serif" font-size="10.00">erpc_rpmsg_linux_transport.h</text>
</a>
</g>
</g>
<!-- Node2&#45;&gt;Node25 -->
<g id="edge26" class="edge"><title>Node2&#45;&gt;Node25</title>
<path fill="none" stroke="midnightblue" d="M1504.81,-199.33C1558.14,-187.792 1642.09,-169.628 1691.17,-159.009"/>
<polygon fill="midnightblue" stroke="midnightblue" points="1503.93,-195.939 1494.9,-201.475 1505.41,-202.781 1503.93,-195.939"/>
</g>
<!-- Node26 -->
<g id="node26" class="node"><title>Node26</title>
<g id="a_node26"><a xlink:href="erpc__rpmsg__lite__base__transport_8h.html" target="_top" xlink:title="erpc_rpmsg_lite_base\l_transport.h">
<polygon fill="white" stroke="black" points="1883.5,-134.5 1883.5,-164.5 1995.5,-164.5 1995.5,-134.5 1883.5,-134.5"/>
<text text-anchor="start" x="1891.5" y="-152.5" font-family="Helvetica,sans-Serif" font-size="10.00">erpc_rpmsg_lite_base</text>
<text text-anchor="middle" x="1939.5" y="-141.5" font-family="Helvetica,sans-Serif" font-size="10.00">_transport.h</text>
</a>
</g>
</g>
<!-- Node2&#45;&gt;Node26 -->
<g id="edge27" class="edge"><title>Node2&#45;&gt;Node26</title>
<path fill="none" stroke="midnightblue" d="M1509.27,-203.389C1601.59,-192.041 1789.33,-168.962 1883.29,-157.41"/>
<polygon fill="midnightblue" stroke="midnightblue" points="1508.8,-199.921 1499.31,-204.615 1509.66,-206.868 1508.8,-199.921"/>
</g>
<!-- Node4 -->
<g id="node4" class="node"><title>Node4</title>
<g id="a_node4"><a xlink:href="erpc__client__manager_8h.html" target="_top" xlink:title="erpc_client_manager.h">
<polygon fill="white" stroke="black" points="147,-73 147,-92 262,-92 262,-73 147,-73"/>
<text text-anchor="middle" x="204.5" y="-80" font-family="Helvetica,sans-Serif" font-size="10.00">erpc_client_manager.h</text>
</a>
</g>
</g>
<!-- Node3&#45;&gt;Node4 -->
<g id="edge3" class="edge"><title>Node3&#45;&gt;Node4</title>
<path fill="none" stroke="midnightblue" d="M306.455,-135.274C281.103,-122.4 243.311,-103.209 221.568,-92.1672"/>
<polygon fill="midnightblue" stroke="midnightblue" points="305.002,-138.461 315.503,-139.869 308.171,-132.22 305.002,-138.461"/>
</g>
<!-- Node3&#45;&gt;Node6 -->
<g id="edge8" class="edge"><title>Node3&#45;&gt;Node6</title>
<path fill="none" stroke="midnightblue" d="M284.623,-144.044C243.145,-138.407 182.841,-125.818 137.5,-98 106.28,-78.8459 81.0299,-41.9184 70.6303,-25.1552"/>
<polygon fill="midnightblue" stroke="midnightblue" points="284.38,-147.541 294.742,-145.332 285.264,-140.597 284.38,-147.541"/>
</g>
<!-- Node9 -->
<g id="node9" class="node"><title>Node9</title>
<g id="a_node9"><a xlink:href="erpc__basic__codec_8h.html" target="_top" xlink:title="erpc_basic_codec.h">
<polygon fill="white" stroke="black" points="280.5,-73 280.5,-92 384.5,-92 384.5,-73 280.5,-73"/>
<text text-anchor="middle" x="332.5" y="-80" font-family="Helvetica,sans-Serif" font-size="10.00">erpc_basic_codec.h</text>
</a>
</g>
</g>
<!-- Node3&#45;&gt;Node9 -->
<g id="edge9" class="edge"><title>Node3&#45;&gt;Node9</title>
<path fill="none" stroke="midnightblue" d="M332.5,-129.537C332.5,-117.17 332.5,-101.62 332.5,-92.1273"/>
<polygon fill="midnightblue" stroke="midnightblue" points="329,-129.734 332.5,-139.734 336,-129.734 329,-129.734"/>
</g>
<!-- Node10 -->
<g id="node10" class="node"><title>Node10</title>
<g id="a_node10"><a xlink:href="erpc__server_8h.html" target="_top" xlink:title="erpc_server.h">
<polygon fill="white" stroke="black" points="402.5,-73 402.5,-92 476.5,-92 476.5,-73 402.5,-73"/>
<text text-anchor="middle" x="439.5" y="-80" font-family="Helvetica,sans-Serif" font-size="10.00">erpc_server.h</text>
</a>
</g>
</g>
<!-- Node3&#45;&gt;Node10 -->
<g id="edge10" class="edge"><title>Node3&#45;&gt;Node10</title>
<path fill="none" stroke="midnightblue" d="M355.641,-134.442C376.831,-121.57 407.519,-102.927 425.298,-92.1273"/>
<polygon fill="midnightblue" stroke="midnightblue" points="353.66,-131.551 346.93,-139.734 357.294,-137.533 353.66,-131.551"/>
</g>
<!-- Node5 -->
<g id="node5" class="node"><title>Node5</title>
<g id="a_node5"><a xlink:href="erpc__arbitrated__client__manager_8h.html" target="_top" xlink:title="erpc_arbitrated_client\l_manager.h">
<polygon fill="white" stroke="black" points="149.5,-0.5 149.5,-30.5 259.5,-30.5 259.5,-0.5 149.5,-0.5"/>
<text text-anchor="start" x="157.5" y="-18.5" font-family="Helvetica,sans-Serif" font-size="10.00">erpc_arbitrated_client</text>
<text text-anchor="middle" x="204.5" y="-7.5" font-family="Helvetica,sans-Serif" font-size="10.00">_manager.h</text>
</a>
</g>
</g>
<!-- Node4&#45;&gt;Node5 -->
<g id="edge4" class="edge"><title>Node4&#45;&gt;Node5</title>
<path fill="none" stroke="midnightblue" d="M204.5,-62.4107C204.5,-52.222 204.5,-39.901 204.5,-30.589"/>
<polygon fill="midnightblue" stroke="midnightblue" points="201,-62.7338 204.5,-72.7338 208,-62.7338 201,-62.7338"/>
</g>
<!-- Node4&#45;&gt;Node6 -->
<g id="edge5" class="edge"><title>Node4&#45;&gt;Node6</title>
<path fill="none" stroke="midnightblue" d="M176.941,-68.6127C149.41,-55.7387 107.854,-36.3059 84.0345,-25.1672"/>
<polygon fill="midnightblue" stroke="midnightblue" points="175.501,-71.8029 186.042,-72.8685 178.466,-65.462 175.501,-71.8029"/>
</g>
<!-- Node7 -->
<g id="node7" class="node"><title>Node7</title>
<g id="a_node7"><a xlink:href="erpc__arbitrated__client__setup_8h.html" target="_top" xlink:title="erpc_arbitrated_client\l_setup.h">
<polygon fill="white" stroke="black" points="277.5,-0.5 277.5,-30.5 387.5,-30.5 387.5,-0.5 277.5,-0.5"/>
<text text-anchor="start" x="285.5" y="-18.5" font-family="Helvetica,sans-Serif" font-size="10.00">erpc_arbitrated_client</text>
<text text-anchor="middle" x="332.5" y="-7.5" font-family="Helvetica,sans-Serif" font-size="10.00">_setup.h</text>
</a>
</g>
</g>
<!-- Node4&#45;&gt;Node7 -->
<g id="edge6" class="edge"><title>Node4&#45;&gt;Node7</title>
<path fill="none" stroke="midnightblue" d="M230.702,-68.1944C252.233,-57.2607 282.658,-41.8102 304.632,-30.6516"/>
<polygon fill="midnightblue" stroke="midnightblue" points="228.829,-65.22 221.497,-72.8685 231.998,-71.4614 228.829,-65.22"/>
</g>
<!-- Node8 -->
<g id="node8" class="node"><title>Node8</title>
<g id="a_node8"><a xlink:href="erpc__client__setup_8h.html" target="_top" xlink:title="erpc_client_setup.h">
<polygon fill="white" stroke="black" points="406,-6 406,-25 507,-25 507,-6 406,-6"/>
<text text-anchor="middle" x="456.5" y="-13" font-family="Helvetica,sans-Serif" font-size="10.00">erpc_client_setup.h</text>
</a>
</g>
</g>
<!-- Node4&#45;&gt;Node8 -->
<g id="edge7" class="edge"><title>Node4&#45;&gt;Node8</title>
<path fill="none" stroke="midnightblue" d="M247.519,-70.4039C297.253,-57.5757 378.046,-36.7361 423.223,-25.0834"/>
<polygon fill="midnightblue" stroke="midnightblue" points="246.513,-67.0488 237.704,-72.9355 248.261,-73.8269 246.513,-67.0488"/>
</g>
<!-- Node11 -->
<g id="node11" class="node"><title>Node11</title>
<g id="a_node11"><a xlink:href="erpc__simple__server_8h.html" target="_top" xlink:title="erpc_simple_server.h">
<polygon fill="white" stroke="black" points="525.5,-6 525.5,-25 633.5,-25 633.5,-6 525.5,-6"/>
<text text-anchor="middle" x="579.5" y="-13" font-family="Helvetica,sans-Serif" font-size="10.00">erpc_simple_server.h</text>
</a>
</g>
</g>
<!-- Node10&#45;&gt;Node11 -->
<g id="edge11" class="edge"><title>Node10&#45;&gt;Node11</title>
<path fill="none" stroke="midnightblue" d="M467.257,-68.6127C494.986,-55.7387 536.841,-36.3059 560.832,-25.1672"/>
<polygon fill="midnightblue" stroke="midnightblue" points="465.687,-65.4828 458.091,-72.8685 468.635,-71.8319 465.687,-65.4828"/>
</g>
<!-- Node13 -->
<g id="node13" class="node"><title>Node13</title>
<g id="a_node13"><a xlink:href="erpc__dspi__master__transport_8h.html" target="_top" xlink:title="erpc_dspi_master_transport.h">
<polygon fill="white" stroke="black" points="494.5,-73 494.5,-92 640.5,-92 640.5,-73 494.5,-73"/>
<text text-anchor="middle" x="567.5" y="-80" font-family="Helvetica,sans-Serif" font-size="10.00">erpc_dspi_master_transport.h</text>
</a>
</g>
</g>
<!-- Node12&#45;&gt;Node13 -->
<g id="edge14" class="edge"><title>Node12&#45;&gt;Node13</title>
<path fill="none" stroke="midnightblue" d="M1101.05,-143.393C1000.15,-135.775 810.283,-119.943 649.5,-98 637.324,-96.3383 624.194,-94.1815 612.085,-92.0416"/>
<polygon fill="midnightblue" stroke="midnightblue" points="1100.89,-146.891 1111.13,-144.149 1101.42,-139.911 1100.89,-146.891"/>
</g>
<!-- Node14 -->
<g id="node14" class="node"><title>Node14</title>
<g id="a_node14"><a xlink:href="erpc__dspi__slave__transport_8h.html" target="_top" xlink:title="erpc_dspi_slave_transport.h">
<polygon fill="white" stroke="black" points="659,-73 659,-92 796,-92 796,-73 659,-73"/>
<text text-anchor="middle" x="727.5" y="-80" font-family="Helvetica,sans-Serif" font-size="10.00">erpc_dspi_slave_transport.h</text>
</a>
</g>
</g>
<!-- Node12&#45;&gt;Node14 -->
<g id="edge15" class="edge"><title>Node12&#45;&gt;Node14</title>
<path fill="none" stroke="midnightblue" d="M1101.18,-139.697C1027.13,-130.318 907.98,-114.567 805.5,-98 794.486,-96.2196 782.633,-94.1142 771.575,-92.0677"/>
<polygon fill="midnightblue" stroke="midnightblue" points="1100.97,-143.197 1111.33,-140.977 1101.85,-136.252 1100.97,-143.197"/>
</g>
<!-- Node15 -->
<g id="node15" class="node"><title>Node15</title>
<g id="a_node15"><a xlink:href="erpc__serial__transport_8h.html" target="_top" xlink:title="erpc_serial_transport.h">
<polygon fill="white" stroke="black" points="814.5,-73 814.5,-92 930.5,-92 930.5,-73 814.5,-73"/>
<text text-anchor="middle" x="872.5" y="-80" font-family="Helvetica,sans-Serif" font-size="10.00">erpc_serial_transport.h</text>
</a>
</g>
</g>
<!-- Node12&#45;&gt;Node15 -->
<g id="edge16" class="edge"><title>Node12&#45;&gt;Node15</title>
<path fill="none" stroke="midnightblue" d="M1123.13,-137.803C1064.09,-125.012 966.459,-103.858 912.116,-92.0834"/>
<polygon fill="midnightblue" stroke="midnightblue" points="1122.46,-141.239 1132.97,-139.936 1123.94,-134.397 1122.46,-141.239"/>
</g>
<!-- Node16 -->
<g id="node16" class="node"><title>Node16</title>
<g id="a_node16"><a xlink:href="erpc__spi__master__transport_8h.html" target="_top" xlink:title="erpc_spi_master_transport.h">
<polygon fill="white" stroke="black" points="948.5,-73 948.5,-92 1088.5,-92 1088.5,-73 948.5,-73"/>
<text text-anchor="middle" x="1018.5" y="-80" font-family="Helvetica,sans-Serif" font-size="10.00">erpc_spi_master_transport.h</text>
</a>
</g>
</g>
<!-- Node12&#45;&gt;Node16 -->
<g id="edge17" class="edge"><title>Node12&#45;&gt;Node16</title>
<path fill="none" stroke="midnightblue" d="M1142.76,-135.948C1112.27,-123.079 1065.66,-103.403 1039.03,-92.1672"/>
<polygon fill="midnightblue" stroke="midnightblue" points="1141.48,-139.204 1152.05,-139.869 1144.2,-132.755 1141.48,-139.204"/>
</g>
<!-- Node17 -->
<g id="node17" class="node"><title>Node17</title>
<g id="a_node17"><a xlink:href="erpc__spi__slave__transport_8h.html" target="_top" xlink:title="erpc_spi_slave_transport.h">
<polygon fill="white" stroke="black" points="1106.5,-73 1106.5,-92 1238.5,-92 1238.5,-73 1106.5,-73"/>
<text text-anchor="middle" x="1172.5" y="-80" font-family="Helvetica,sans-Serif" font-size="10.00">erpc_spi_slave_transport.h</text>
</a>
</g>
</g>
<!-- Node12&#45;&gt;Node17 -->
<g id="edge18" class="edge"><title>Node12&#45;&gt;Node17</title>
<path fill="none" stroke="midnightblue" d="M1172.5,-129.537C1172.5,-117.17 1172.5,-101.62 1172.5,-92.1273"/>
<polygon fill="midnightblue" stroke="midnightblue" points="1169,-129.734 1172.5,-139.734 1176,-129.734 1169,-129.734"/>
</g>
<!-- Node18 -->
<g id="node18" class="node"><title>Node18</title>
<g id="a_node18"><a xlink:href="erpc__spidev__master__transport_8h.html" target="_top" xlink:title="erpc_spidev_master\l_transport.h">
<polygon fill="white" stroke="black" points="1257,-67.5 1257,-97.5 1360,-97.5 1360,-67.5 1257,-67.5"/>
<text text-anchor="start" x="1265" y="-85.5" font-family="Helvetica,sans-Serif" font-size="10.00">erpc_spidev_master</text>
<text text-anchor="middle" x="1308.5" y="-74.5" font-family="Helvetica,sans-Serif" font-size="10.00">_transport.h</text>
</a>
</g>
</g>
<!-- Node12&#45;&gt;Node18 -->
<g id="edge19" class="edge"><title>Node12&#45;&gt;Node18</title>
<path fill="none" stroke="midnightblue" d="M1199.75,-135.474C1222.75,-124.485 1255.58,-108.791 1279.15,-97.5281"/>
<polygon fill="midnightblue" stroke="midnightblue" points="1198.07,-132.398 1190.56,-139.869 1201.09,-138.714 1198.07,-132.398"/>
</g>
<!-- Node19 -->
<g id="node19" class="node"><title>Node19</title>
<g id="a_node19"><a xlink:href="erpc__tcp__transport_8h.html" target="_top" xlink:title="erpc_tcp_transport.h">
<polygon fill="white" stroke="black" points="1378.5,-73 1378.5,-92 1484.5,-92 1484.5,-73 1378.5,-73"/>
<text text-anchor="middle" x="1431.5" y="-80" font-family="Helvetica,sans-Serif" font-size="10.00">erpc_tcp_transport.h</text>
</a>
</g>
</g>
<!-- Node12&#45;&gt;Node19 -->
<g id="edge20" class="edge"><title>Node12&#45;&gt;Node19</title>
<path fill="none" stroke="midnightblue" d="M1216.39,-137.484C1267.48,-124.663 1350.77,-103.76 1397.3,-92.0834"/>
<polygon fill="midnightblue" stroke="midnightblue" points="1215.47,-134.107 1206.63,-139.936 1217.18,-140.896 1215.47,-134.107"/>
</g>
<!-- Node20 -->
<g id="node20" class="node"><title>Node20</title>
<g id="a_node20"><a xlink:href="erpc__uart__cmsis__transport_8h.html" target="_top" xlink:title="erpc_uart_cmsis_transport.h">
<polygon fill="white" stroke="black" points="1502.5,-73 1502.5,-92 1642.5,-92 1642.5,-73 1502.5,-73"/>
<text text-anchor="middle" x="1572.5" y="-80" font-family="Helvetica,sans-Serif" font-size="10.00">erpc_uart_cmsis_transport.h</text>
</a>
</g>
</g>
<!-- Node12&#45;&gt;Node20 -->
<g id="edge21" class="edge"><title>Node12&#45;&gt;Node20</title>
<path fill="none" stroke="midnightblue" d="M1221.72,-137.905C1228.69,-136.523 1235.76,-135.179 1242.5,-134 1353.51,-114.561 1382.28,-116.176 1493.5,-98 1504.65,-96.1783 1516.65,-94.0578 1527.85,-92.0099"/>
<polygon fill="midnightblue" stroke="midnightblue" points="1220.77,-134.527 1211.66,-139.943 1222.16,-141.388 1220.77,-134.527"/>
</g>
<!-- Node21 -->
<g id="node21" class="node"><title>Node21</title>
<g id="a_node21"><a xlink:href="erpc__usb__cdc__transport_8h.html" target="_top" xlink:title="erpc_usb_cdc_transport.h">
<polygon fill="white" stroke="black" points="1661,-73 1661,-92 1790,-92 1790,-73 1661,-73"/>
<text text-anchor="middle" x="1725.5" y="-80" font-family="Helvetica,sans-Serif" font-size="10.00">erpc_usb_cdc_transport.h</text>
</a>
</g>
</g>
<!-- Node12&#45;&gt;Node21 -->
<g id="edge22" class="edge"><title>Node12&#45;&gt;Node21</title>
<path fill="none" stroke="midnightblue" d="M1219.63,-137.958C1227.25,-136.478 1235.07,-135.092 1242.5,-134 1423.04,-107.448 1470.82,-123.58 1651.5,-98 1662.78,-96.4034 1674.94,-94.2173 1686.07,-92.0268"/>
<polygon fill="midnightblue" stroke="midnightblue" points="1218.89,-134.536 1209.77,-139.94 1220.27,-141.398 1218.89,-134.536"/>
</g>
<!-- Node27 -->
<g id="node27" class="node"><title>Node27</title>
<g id="a_node27"><a xlink:href="erpc__rpmsg__lite__rtos__transport_8h.html" target="_top" xlink:title="erpc_rpmsg_lite_rtos\l_transport.h">
<polygon fill="white" stroke="black" points="1808,-67.5 1808,-97.5 1915,-97.5 1915,-67.5 1808,-67.5"/>
<text text-anchor="start" x="1816" y="-85.5" font-family="Helvetica,sans-Serif" font-size="10.00">erpc_rpmsg_lite_rtos</text>
<text text-anchor="middle" x="1861.5" y="-74.5" font-family="Helvetica,sans-Serif" font-size="10.00">_transport.h</text>
</a>
</g>
</g>
<!-- Node26&#45;&gt;Node27 -->
<g id="edge28" class="edge"><title>Node26&#45;&gt;Node27</title>
<path fill="none" stroke="midnightblue" d="M1914.76,-127.883C1902.91,-118.005 1889.02,-106.429 1878.39,-97.5765"/>
<polygon fill="midnightblue" stroke="midnightblue" points="1912.65,-130.683 1922.58,-134.396 1917.13,-125.305 1912.65,-130.683"/>
</g>
<!-- Node28 -->
<g id="node28" class="node"><title>Node28</title>
<g id="a_node28"><a xlink:href="erpc__rpmsg__lite__transport_8h.html" target="_top" xlink:title="erpc_rpmsg_lite_transport.h">
<polygon fill="white" stroke="black" points="1933,-73 1933,-92 2070,-92 2070,-73 1933,-73"/>
<text text-anchor="middle" x="2001.5" y="-80" font-family="Helvetica,sans-Serif" font-size="10.00">erpc_rpmsg_lite_transport.h</text>
</a>
</g>
</g>
<!-- Node26&#45;&gt;Node28 -->
<g id="edge29" class="edge"><title>Node26&#45;&gt;Node28</title>
<path fill="none" stroke="midnightblue" d="M1960.01,-126.997C1971.33,-115.132 1984.76,-101.052 1993.21,-92.1945"/>
<polygon fill="midnightblue" stroke="midnightblue" points="1957.32,-124.744 1952.95,-134.396 1962.39,-129.576 1957.32,-124.744"/>
</g>
<!-- Node26&#45;&gt;Node29 -->
<g id="edge30" class="edge"><title>Node26&#45;&gt;Node29</title>
<path fill="none" stroke="midnightblue" d="M1993.18,-131.228C2025.85,-120.713 2067.07,-107.451 2097.75,-97.5765"/>
<polygon fill="midnightblue" stroke="midnightblue" points="1991.78,-128.001 1983.33,-134.396 1993.92,-134.665 1991.78,-128.001"/>
</g>
</g>
</svg>
