<?xml version="1.0" encoding="UTF-8" standalone="no"?>
<!DOCTYPE svg PUBLIC "-//W3C//DTD SVG 1.1//EN"
 "http://www.w3.org/Graphics/SVG/1.1/DTD/svg11.dtd">
<!-- Generated by graphviz version 2.38.0 (20140413.2041)
 -->
<!-- Title: erpc_client_setup.h Pages: 1 -->
<svg width="575pt" height="364pt"
 viewBox="0.00 0.00 575.00 364.00" xmlns="http://www.w3.org/2000/svg" xmlns:xlink="http://www.w3.org/1999/xlink">
<g id="graph0" class="graph" transform="scale(1 1) rotate(0) translate(4 360)">
<title>erpc_client_setup.h</title>
<polygon fill="white" stroke="none" points="-4,4 -4,-360 571,-360 571,4 -4,4"/>
<!-- Node1 -->
<g id="node1" class="node"><title>Node1</title>
<polygon fill="#bfbfbf" stroke="black" points="315.5,-336.5 315.5,-355.5 416.5,-355.5 416.5,-336.5 315.5,-336.5"/>
<text text-anchor="middle" x="366" y="-343.5" font-family="Helvetica,sans-Serif" font-size="10.00">erpc_client_setup.h</text>
</g>
<!-- Node2 -->
<g id="node2" class="node"><title>Node2</title>
<g id="a_node2"><a xlink:href="erpc__common_8h_source.html" target="_top" xlink:title="erpc_common.h">
<polygon fill="white" stroke="black" points="123,-56.5 123,-75.5 209,-75.5 209,-56.5 123,-56.5"/>
<text text-anchor="middle" x="166" y="-63.5" font-family="Helvetica,sans-Serif" font-size="10.00">erpc_common.h</text>
</a>
</g>
</g>
<!-- Node1&#45;&gt;Node2 -->
<g id="edge1" class="edge"><title>Node1&#45;&gt;Node2</title>
<path fill="none" stroke="midnightblue" d="M315.494,-340.46C215.09,-330.036 0,-300.105 0,-235 0,-235 0,-235 0,-177 0,-121.368 65.5868,-92.212 114.308,-78.2284"/>
<polygon fill="midnightblue" stroke="midnightblue" points="115.387,-81.5621 124.111,-75.5506 113.542,-74.8095 115.387,-81.5621"/>
</g>
<!-- Node3 -->
<g id="node3" class="node"><title>Node3</title>
<polygon fill="white" stroke="#bfbfbf" points="332.5,-0.5 332.5,-19.5 381.5,-19.5 381.5,-0.5 332.5,-0.5"/>
<text text-anchor="middle" x="357" y="-7.5" font-family="Helvetica,sans-Serif" font-size="10.00">stdint.h</text>
</g>
<!-- Node1&#45;&gt;Node3 -->
<g id="edge25" class="edge"><title>Node1&#45;&gt;Node3</title>
<path fill="none" stroke="midnightblue" d="M370.4,-336.499C388.325,-300.63 452.77,-158.769 407,-56 401.432,-43.4981 390.484,-33.0124 380.249,-25.3167"/>
<polygon fill="midnightblue" stroke="midnightblue" points="382.156,-22.3794 371.952,-19.5256 378.149,-28.1193 382.156,-22.3794"/>
</g>
<!-- Node4 -->
<g id="node4" class="node"><title>Node4</title>
<g id="a_node4"><a xlink:href="erpc__config__internal_8h_source.html" target="_top" xlink:title="erpc_config_internal.h">
<polygon fill="white" stroke="black" points="141.5,-224.5 141.5,-243.5 252.5,-243.5 252.5,-224.5 141.5,-224.5"/>
<text text-anchor="middle" x="197" y="-231.5" font-family="Helvetica,sans-Serif" font-size="10.00">erpc_config_internal.h</text>
</a>
</g>
</g>
<!-- Node1&#45;&gt;Node4 -->
<g id="edge3" class="edge"><title>Node1&#45;&gt;Node4</title>
<path fill="none" stroke="midnightblue" d="M322.466,-336.476C296.785,-329.803 264.767,-318.47 241,-300 224.914,-287.499 212.61,-267.431 205.157,-252.898"/>
<polygon fill="midnightblue" stroke="midnightblue" points="208.298,-251.353 200.785,-243.882 201.999,-254.407 208.298,-251.353"/>
</g>
<!-- Node6 -->
<g id="node6" class="node"><title>Node6</title>
<g id="a_node6"><a xlink:href="erpc__mbf__setup_8h.html" target="_top" xlink:title="erpc_mbf_setup.h">
<polygon fill="white" stroke="black" points="451,-280.5 451,-299.5 545,-299.5 545,-280.5 451,-280.5"/>
<text text-anchor="middle" x="498" y="-287.5" font-family="Helvetica,sans-Serif" font-size="10.00">erpc_mbf_setup.h</text>
</a>
</g>
</g>
<!-- Node1&#45;&gt;Node6 -->
<g id="edge5" class="edge"><title>Node1&#45;&gt;Node6</title>
<path fill="none" stroke="midnightblue" d="M386.916,-336.444C408.736,-327.517 443.15,-313.439 467.892,-303.317"/>
<polygon fill="midnightblue" stroke="midnightblue" points="469.252,-306.542 477.182,-299.516 466.601,-300.063 469.252,-306.542"/>
</g>
<!-- Node7 -->
<g id="node7" class="node"><title>Node7</title>
<g id="a_node7"><a xlink:href="erpc__transport__setup_8h.html" target="_top" xlink:title="erpc_transport_setup.h">
<polygon fill="white" stroke="black" points="451,-224.5 451,-243.5 567,-243.5 567,-224.5 451,-224.5"/>
<text text-anchor="middle" x="509" y="-231.5" font-family="Helvetica,sans-Serif" font-size="10.00">erpc_transport_setup.h</text>
</a>
</g>
</g>
<!-- Node1&#45;&gt;Node7 -->
<g id="edge8" class="edge"><title>Node1&#45;&gt;Node7</title>
<path fill="none" stroke="midnightblue" d="M416.618,-339.887C466.351,-333.694 537.163,-321.343 554,-300 567.15,-283.331 547.978,-263.074 530.744,-249.651"/>
<polygon fill="midnightblue" stroke="midnightblue" points="532.719,-246.76 522.589,-243.656 528.573,-252.4 532.719,-246.76"/>
</g>
<!-- Node8 -->
<g id="node8" class="node"><title>Node8</title>
<g id="a_node8"><a xlink:href="client__manager_8h.html" target="_top" xlink:title="client_manager.h">
<polygon fill="white" stroke="black" points="250.5,-280.5 250.5,-299.5 341.5,-299.5 341.5,-280.5 250.5,-280.5"/>
<text text-anchor="middle" x="296" y="-287.5" font-family="Helvetica,sans-Serif" font-size="10.00">client_manager.h</text>
</a>
</g>
</g>
<!-- Node1&#45;&gt;Node8 -->
<g id="edge9" class="edge"><title>Node1&#45;&gt;Node8</title>
<path fill="none" stroke="midnightblue" d="M354.753,-336.324C344.203,-328.185 328.199,-315.839 315.558,-306.087"/>
<polygon fill="midnightblue" stroke="midnightblue" points="317.507,-303.171 307.451,-299.834 313.231,-308.713 317.507,-303.171"/>
</g>
<!-- Node2&#45;&gt;Node3 -->
<g id="edge2" class="edge"><title>Node2&#45;&gt;Node3</title>
<path fill="none" stroke="midnightblue" d="M196.265,-56.4435C230.539,-46.7534 286.287,-30.9921 322.296,-20.8115"/>
<polygon fill="midnightblue" stroke="midnightblue" points="323.673,-24.0596 332.343,-17.971 321.768,-17.3236 323.673,-24.0596"/>
</g>
<!-- Node5 -->
<g id="node5" class="node"><title>Node5</title>
<g id="a_node5"><a xlink:href="erpc__config_8h.html" target="_top" xlink:title="erpc_config.h">
<polygon fill="white" stroke="black" points="28,-168.5 28,-187.5 102,-187.5 102,-168.5 28,-168.5"/>
<text text-anchor="middle" x="65" y="-175.5" font-family="Helvetica,sans-Serif" font-size="10.00">erpc_config.h</text>
</a>
</g>
</g>
<!-- Node4&#45;&gt;Node5 -->
<g id="edge4" class="edge"><title>Node4&#45;&gt;Node5</title>
<path fill="none" stroke="midnightblue" d="M176.084,-224.444C154.264,-215.517 119.85,-201.439 95.1078,-191.317"/>
<polygon fill="midnightblue" stroke="midnightblue" points="96.3987,-188.063 85.8179,-187.516 93.7482,-194.542 96.3987,-188.063"/>
</g>
<!-- Node6&#45;&gt;Node7 -->
<g id="edge6" class="edge"><title>Node6&#45;&gt;Node7</title>
<path fill="none" stroke="midnightblue" d="M499.816,-280.083C501.274,-272.927 503.371,-262.635 505.193,-253.691"/>
<polygon fill="midnightblue" stroke="midnightblue" points="508.651,-254.248 507.217,-243.751 501.792,-252.851 508.651,-254.248"/>
</g>
<!-- Node7&#45;&gt;Node3 -->
<g id="edge7" class="edge"><title>Node7&#45;&gt;Node3</title>
<path fill="none" stroke="midnightblue" d="M509.149,-224.43C509.176,-196.588 505.6,-107.51 461,-56 443.244,-35.4928 414.445,-24.0219 391.65,-17.8023"/>
<polygon fill="midnightblue" stroke="midnightblue" points="392.21,-14.3347 381.66,-15.3006 390.51,-21.1251 392.21,-14.3347"/>
</g>
<!-- Node8&#45;&gt;Node4 -->
<g id="edge10" class="edge"><title>Node8&#45;&gt;Node4</title>
<path fill="none" stroke="midnightblue" d="M280.094,-280.324C264.362,-271.743 240.058,-258.486 221.791,-248.522"/>
<polygon fill="midnightblue" stroke="midnightblue" points="223.322,-245.37 212.867,-243.655 219.97,-251.516 223.322,-245.37"/>
</g>
<!-- Node9 -->
<g id="node9" class="node"><title>Node9</title>
<g id="a_node9"><a xlink:href="codec_8h.html" target="_top" xlink:title="codec.h">
<polygon fill="white" stroke="black" points="270.5,-224.5 270.5,-243.5 321.5,-243.5 321.5,-224.5 270.5,-224.5"/>
<text text-anchor="middle" x="296" y="-231.5" font-family="Helvetica,sans-Serif" font-size="10.00">codec.h</text>
</a>
</g>
</g>
<!-- Node8&#45;&gt;Node9 -->
<g id="edge11" class="edge"><title>Node8&#45;&gt;Node9</title>
<path fill="none" stroke="midnightblue" d="M296,-280.083C296,-273.006 296,-262.861 296,-253.986"/>
<polygon fill="midnightblue" stroke="midnightblue" points="299.5,-253.751 296,-243.751 292.5,-253.751 299.5,-253.751"/>
</g>
<!-- Node9&#45;&gt;Node2 -->
<g id="edge12" class="edge"><title>Node9&#45;&gt;Node2</title>
<path fill="none" stroke="midnightblue" d="M270.464,-226.424C232.016,-214.887 161.281,-186.841 138,-132 131.056,-115.643 140.894,-97.0218 150.769,-83.9156"/>
<polygon fill="midnightblue" stroke="midnightblue" points="153.773,-85.7715 157.406,-75.8187 148.36,-81.3341 153.773,-85.7715"/>
</g>
<!-- Node9&#45;&gt;Node3 -->
<g id="edge24" class="edge"><title>Node9&#45;&gt;Node3</title>
<path fill="none" stroke="midnightblue" d="M308.334,-224.46C329.541,-208.941 372.247,-173.819 389,-132 401.562,-100.642 400.51,-88.1042 390,-56 386.51,-45.3397 379.427,-35.1174 372.714,-27.1175"/>
<polygon fill="midnightblue" stroke="midnightblue" points="375.305,-24.7633 366.02,-19.66 370.096,-29.4395 375.305,-24.7633"/>
</g>
<!-- Node10 -->
<g id="node10" class="node"><title>Node10</title>
<g id="a_node10"><a xlink:href="message__buffer_8h.html" target="_top" xlink:title="message_buffer.h">
<polygon fill="white" stroke="black" points="287.5,-112.5 287.5,-131.5 380.5,-131.5 380.5,-112.5 287.5,-112.5"/>
<text text-anchor="middle" x="334" y="-119.5" font-family="Helvetica,sans-Serif" font-size="10.00">message_buffer.h</text>
</a>
</g>
</g>
<!-- Node9&#45;&gt;Node10 -->
<g id="edge13" class="edge"><title>Node9&#45;&gt;Node10</title>
<path fill="none" stroke="midnightblue" d="M298.982,-224.368C305.142,-206.537 319.389,-165.295 327.688,-141.272"/>
<polygon fill="midnightblue" stroke="midnightblue" points="331.075,-142.186 331.032,-131.591 324.459,-139.9 331.075,-142.186"/>
</g>
<!-- Node12 -->
<g id="node12" class="node"><title>Node12</title>
<g id="a_node12"><a xlink:href="transport_8h.html" target="_top" xlink:title="transport.h">
<polygon fill="white" stroke="black" points="227.5,-168.5 227.5,-187.5 290.5,-187.5 290.5,-168.5 227.5,-168.5"/>
<text text-anchor="middle" x="259" y="-175.5" font-family="Helvetica,sans-Serif" font-size="10.00">transport.h</text>
</a>
</g>
</g>
<!-- Node9&#45;&gt;Node12 -->
<g id="edge17" class="edge"><title>Node9&#45;&gt;Node12</title>
<path fill="none" stroke="midnightblue" d="M289.89,-224.083C284.718,-216.534 277.154,-205.495 270.806,-196.23"/>
<polygon fill="midnightblue" stroke="midnightblue" points="273.536,-194.022 264.996,-187.751 267.761,-197.979 273.536,-194.022"/>
</g>
<!-- Node14 -->
<g id="node14" class="node"><title>Node14</title>
<polygon fill="white" stroke="#bfbfbf" points="147,-112.5 147,-131.5 193,-131.5 193,-112.5 147,-112.5"/>
<text text-anchor="middle" x="170" y="-119.5" font-family="Helvetica,sans-Serif" font-size="10.00">cstring</text>
</g>
<!-- Node9&#45;&gt;Node14 -->
<g id="edge23" class="edge"><title>Node9&#45;&gt;Node14</title>
<path fill="none" stroke="midnightblue" d="M276.285,-224.435C259.581,-216.556 235.607,-203.725 218,-188 202.528,-174.182 188.915,-154.639 180.175,-140.596"/>
<polygon fill="midnightblue" stroke="midnightblue" points="183.093,-138.657 174.94,-131.891 177.094,-142.264 183.093,-138.657"/>
</g>
<!-- Node10&#45;&gt;Node2 -->
<g id="edge14" class="edge"><title>Node10&#45;&gt;Node2</title>
<path fill="none" stroke="midnightblue" d="M307.38,-112.444C278.994,-103.32 233.863,-88.8133 202.247,-78.6509"/>
<polygon fill="midnightblue" stroke="midnightblue" points="203.087,-75.2445 192.496,-75.5164 200.945,-81.9087 203.087,-75.2445"/>
</g>
<!-- Node10&#45;&gt;Node3 -->
<g id="edge16" class="edge"><title>Node10&#45;&gt;Node3</title>
<path fill="none" stroke="midnightblue" d="M330.189,-112.379C325.147,-99.7318 317.606,-75.5315 324,-56 327.49,-45.3397 334.573,-35.1174 341.286,-27.1175"/>
<polygon fill="midnightblue" stroke="midnightblue" points="343.904,-29.4395 347.98,-19.66 338.695,-24.7633 343.904,-29.4395"/>
</g>
<!-- Node11 -->
<g id="node11" class="node"><title>Node11</title>
<polygon fill="white" stroke="#bfbfbf" points="333,-56.5 333,-75.5 381,-75.5 381,-56.5 333,-56.5"/>
<text text-anchor="middle" x="357" y="-63.5" font-family="Helvetica,sans-Serif" font-size="10.00">cstddef</text>
</g>
<!-- Node10&#45;&gt;Node11 -->
<g id="edge15" class="edge"><title>Node10&#45;&gt;Node11</title>
<path fill="none" stroke="midnightblue" d="M337.798,-112.083C340.913,-104.77 345.423,-94.1814 349.289,-85.1034"/>
<polygon fill="midnightblue" stroke="midnightblue" points="352.574,-86.3229 353.273,-75.7511 346.134,-83.5798 352.574,-86.3229"/>
</g>
<!-- Node12&#45;&gt;Node2 -->
<g id="edge18" class="edge"><title>Node12&#45;&gt;Node2</title>
<path fill="none" stroke="midnightblue" d="M251.702,-168.368C236.219,-150.055 199.86,-107.049 179.834,-83.3624"/>
<polygon fill="midnightblue" stroke="midnightblue" points="182.393,-80.9682 173.264,-75.5914 177.047,-85.4877 182.393,-80.9682"/>
</g>
<!-- Node12&#45;&gt;Node10 -->
<g id="edge21" class="edge"><title>Node12&#45;&gt;Node10</title>
<path fill="none" stroke="midnightblue" d="M271.05,-168.324C282.463,-160.107 299.831,-147.602 313.435,-137.807"/>
<polygon fill="midnightblue" stroke="midnightblue" points="315.66,-140.517 321.731,-131.834 311.57,-134.837 315.66,-140.517"/>
</g>
<!-- Node13 -->
<g id="node13" class="node"><title>Node13</title>
<g id="a_node13"><a xlink:href="crc16_8h.html" target="_top" xlink:title="crc16.h">
<polygon fill="white" stroke="black" points="227.5,-56.5 227.5,-75.5 276.5,-75.5 276.5,-56.5 227.5,-56.5"/>
<text text-anchor="middle" x="252" y="-63.5" font-family="Helvetica,sans-Serif" font-size="10.00">crc16.h</text>
</a>
</g>
</g>
<!-- Node12&#45;&gt;Node13 -->
<g id="edge19" class="edge"><title>Node12&#45;&gt;Node13</title>
<path fill="none" stroke="midnightblue" d="M258.451,-168.368C257.321,-150.617 254.715,-109.666 253.183,-85.5974"/>
<polygon fill="midnightblue" stroke="midnightblue" points="256.675,-85.3489 252.547,-75.5914 249.689,-85.7935 256.675,-85.3489"/>
</g>
<!-- Node12&#45;&gt;Node14 -->
<g id="edge22" class="edge"><title>Node12&#45;&gt;Node14</title>
<path fill="none" stroke="midnightblue" d="M244.701,-168.324C230.817,-159.9 209.508,-146.971 193.196,-137.074"/>
<polygon fill="midnightblue" stroke="midnightblue" points="194.629,-133.85 184.264,-131.655 190.998,-139.834 194.629,-133.85"/>
</g>
<!-- Node13&#45;&gt;Node3 -->
<g id="edge20" class="edge"><title>Node13&#45;&gt;Node3</title>
<path fill="none" stroke="midnightblue" d="M268.87,-56.324C285.709,-47.6641 311.807,-34.2424 331.238,-24.249"/>
<polygon fill="midnightblue" stroke="midnightblue" points="332.88,-27.3405 340.172,-19.6545 329.678,-21.1155 332.88,-27.3405"/>
</g>
</g>
</svg>
