<?xml version="1.0" encoding="UTF-8" standalone="no"?>
<!DOCTYPE svg PUBLIC "-//W3C//DTD SVG 1.1//EN"
 "http://www.w3.org/Graphics/SVG/1.1/DTD/svg11.dtd">
<!-- Generated by graphviz version 2.38.0 (20140413.2041)
 -->
<!-- Title: erpc_rpmsg_lite_transport.h Pages: 1 -->
<svg width="448pt" height="319pt"
 viewBox="0.00 0.00 447.50 319.00" xmlns="http://www.w3.org/2000/svg" xmlns:xlink="http://www.w3.org/1999/xlink">
<g id="graph0" class="graph" transform="scale(1 1) rotate(0) translate(4 315)">
<title>erpc_rpmsg_lite_transport.h</title>
<polygon fill="white" stroke="none" points="-4,4 -4,-315 443.5,-315 443.5,4 -4,4"/>
<!-- Node1 -->
<g id="node1" class="node"><title>Node1</title>
<polygon fill="#bfbfbf" stroke="black" points="155,-291.5 155,-310.5 292,-310.5 292,-291.5 155,-291.5"/>
<text text-anchor="middle" x="223.5" y="-298.5" font-family="Helvetica,sans-Serif" font-size="10.00">erpc_rpmsg_lite_transport.h</text>
</g>
<!-- Node2 -->
<g id="node2" class="node"><title>Node2</title>
<g id="a_node2"><a xlink:href="erpc__config__internal_8h_source.html" target="_top" xlink:title="erpc_config_internal.h">
<polygon fill="white" stroke="black" points="0,-230 0,-249 111,-249 111,-230 0,-230"/>
<text text-anchor="middle" x="55.5" y="-237" font-family="Helvetica,sans-Serif" font-size="10.00">erpc_config_internal.h</text>
</a>
</g>
</g>
<!-- Node1&#45;&gt;Node2 -->
<g id="edge1" class="edge"><title>Node1&#45;&gt;Node2</title>
<path fill="none" stroke="midnightblue" d="M199.43,-291.475C170.487,-281.225 121.738,-263.959 89.0983,-252.399"/>
<polygon fill="midnightblue" stroke="midnightblue" points="90.1204,-249.048 79.5257,-249.009 87.7834,-255.647 90.1204,-249.048"/>
</g>
<!-- Node4 -->
<g id="node4" class="node"><title>Node4</title>
<g id="a_node4"><a xlink:href="erpc__message__buffer_8h.html" target="_top" xlink:title="erpc_message_buffer.h">
<polygon fill="white" stroke="black" points="79,-112.5 79,-131.5 196,-131.5 196,-112.5 79,-112.5"/>
<text text-anchor="middle" x="137.5" y="-119.5" font-family="Helvetica,sans-Serif" font-size="10.00">erpc_message_buffer.h</text>
</a>
</g>
</g>
<!-- Node1&#45;&gt;Node4 -->
<g id="edge3" class="edge"><title>Node1&#45;&gt;Node4</title>
<path fill="none" stroke="midnightblue" d="M203.413,-291.457C188.542,-284.045 169.097,-271.846 158.5,-255 136.229,-219.596 134.909,-168.608 136.078,-141.533"/>
<polygon fill="midnightblue" stroke="midnightblue" points="139.574,-141.7 136.677,-131.509 132.587,-141.282 139.574,-141.7"/>
</g>
<!-- Node8 -->
<g id="node8" class="node"><title>Node8</title>
<g id="a_node8"><a xlink:href="erpc__rpmsg__lite__base__transport_8h.html" target="_top" xlink:title="erpc_rpmsg_lite_base\l_transport.h">
<polygon fill="white" stroke="black" points="167.5,-224.5 167.5,-254.5 279.5,-254.5 279.5,-224.5 167.5,-224.5"/>
<text text-anchor="start" x="175.5" y="-242.5" font-family="Helvetica,sans-Serif" font-size="10.00">erpc_rpmsg_lite_base</text>
<text text-anchor="middle" x="223.5" y="-231.5" font-family="Helvetica,sans-Serif" font-size="10.00">_transport.h</text>
</a>
</g>
</g>
<!-- Node1&#45;&gt;Node8 -->
<g id="edge8" class="edge"><title>Node1&#45;&gt;Node8</title>
<path fill="none" stroke="midnightblue" d="M223.5,-291.475C223.5,-284.471 223.5,-274.192 223.5,-264.696"/>
<polygon fill="midnightblue" stroke="midnightblue" points="227,-264.523 223.5,-254.523 220,-264.523 227,-264.523"/>
</g>
<!-- Node12 -->
<g id="node12" class="node"><title>Node12</title>
<polygon fill="white" stroke="#bfbfbf" points="285.5,-168.5 285.5,-187.5 355.5,-187.5 355.5,-168.5 285.5,-168.5"/>
<text text-anchor="middle" x="320.5" y="-175.5" font-family="Helvetica,sans-Serif" font-size="10.00">rpmsg_lite.h</text>
</g>
<!-- Node1&#45;&gt;Node12 -->
<g id="edge18" class="edge"><title>Node1&#45;&gt;Node12</title>
<path fill="none" stroke="midnightblue" d="M241.03,-291.465C255.439,-283.686 275.524,-270.984 288.5,-255 302.283,-238.022 311.01,-214.247 315.809,-197.831"/>
<polygon fill="midnightblue" stroke="midnightblue" points="319.285,-198.382 318.517,-187.815 312.528,-196.555 319.285,-198.382"/>
</g>
<!-- Node13 -->
<g id="node13" class="node"><title>Node13</title>
<g id="a_node13"><a xlink:href="erpc__static__queue_8h.html" target="_top" xlink:title="erpc_static_queue.h">
<polygon fill="white" stroke="black" points="335.5,-230 335.5,-249 439.5,-249 439.5,-230 335.5,-230"/>
<text text-anchor="middle" x="387.5" y="-237" font-family="Helvetica,sans-Serif" font-size="10.00">erpc_static_queue.h</text>
</a>
</g>
</g>
<!-- Node1&#45;&gt;Node13 -->
<g id="edge16" class="edge"><title>Node1&#45;&gt;Node13</title>
<path fill="none" stroke="midnightblue" d="M246.997,-291.475C275.129,-281.269 322.429,-264.108 354.289,-252.549"/>
<polygon fill="midnightblue" stroke="midnightblue" points="355.84,-255.71 364.046,-249.009 353.452,-249.13 355.84,-255.71"/>
</g>
<!-- Node3 -->
<g id="node3" class="node"><title>Node3</title>
<g id="a_node3"><a xlink:href="erpc__config_8h.html" target="_top" xlink:title="erpc_config.h">
<polygon fill="white" stroke="black" points="18.5,-168.5 18.5,-187.5 92.5,-187.5 92.5,-168.5 18.5,-168.5"/>
<text text-anchor="middle" x="55.5" y="-175.5" font-family="Helvetica,sans-Serif" font-size="10.00">erpc_config.h</text>
</a>
</g>
</g>
<!-- Node2&#45;&gt;Node3 -->
<g id="edge2" class="edge"><title>Node2&#45;&gt;Node3</title>
<path fill="none" stroke="midnightblue" d="M55.5,-229.975C55.5,-221.58 55.5,-208.481 55.5,-197.663"/>
<polygon fill="midnightblue" stroke="midnightblue" points="59.0001,-197.509 55.5,-187.509 52.0001,-197.509 59.0001,-197.509"/>
</g>
<!-- Node5 -->
<g id="node5" class="node"><title>Node5</title>
<g id="a_node5"><a xlink:href="erpc__common_8h_source.html" target="_top" xlink:title="erpc_common.h">
<polygon fill="white" stroke="black" points="165.5,-56.5 165.5,-75.5 251.5,-75.5 251.5,-56.5 165.5,-56.5"/>
<text text-anchor="middle" x="208.5" y="-63.5" font-family="Helvetica,sans-Serif" font-size="10.00">erpc_common.h</text>
</a>
</g>
</g>
<!-- Node4&#45;&gt;Node5 -->
<g id="edge4" class="edge"><title>Node4&#45;&gt;Node5</title>
<path fill="none" stroke="midnightblue" d="M148.907,-112.324C159.609,-104.185 175.841,-91.8395 188.663,-82.0874"/>
<polygon fill="midnightblue" stroke="midnightblue" points="191.044,-84.6734 196.885,-75.8339 186.807,-79.1018 191.044,-84.6734"/>
</g>
<!-- Node6 -->
<g id="node6" class="node"><title>Node6</title>
<polygon fill="white" stroke="#bfbfbf" points="184,-0.5 184,-19.5 233,-19.5 233,-0.5 184,-0.5"/>
<text text-anchor="middle" x="208.5" y="-7.5" font-family="Helvetica,sans-Serif" font-size="10.00">stdint.h</text>
</g>
<!-- Node4&#45;&gt;Node6 -->
<g id="edge7" class="edge"><title>Node4&#45;&gt;Node6</title>
<path fill="none" stroke="midnightblue" d="M138.446,-112.359C140.212,-99.2617 144.937,-74.0042 156.5,-56 164.161,-44.071 175.904,-33.5262 186.293,-25.6482"/>
<polygon fill="midnightblue" stroke="midnightblue" points="188.508,-28.3666 194.582,-19.6861 184.42,-22.6839 188.508,-28.3666"/>
</g>
<!-- Node7 -->
<g id="node7" class="node"><title>Node7</title>
<polygon fill="white" stroke="#bfbfbf" points="61.5,-56.5 61.5,-75.5 109.5,-75.5 109.5,-56.5 61.5,-56.5"/>
<text text-anchor="middle" x="85.5" y="-63.5" font-family="Helvetica,sans-Serif" font-size="10.00">cstddef</text>
</g>
<!-- Node4&#45;&gt;Node7 -->
<g id="edge6" class="edge"><title>Node4&#45;&gt;Node7</title>
<path fill="none" stroke="midnightblue" d="M128.913,-112.083C121.341,-104.22 110.122,-92.5688 100.986,-83.0813"/>
<polygon fill="midnightblue" stroke="midnightblue" points="103.385,-80.5266 93.927,-75.7511 98.3423,-85.3821 103.385,-80.5266"/>
</g>
<!-- Node5&#45;&gt;Node6 -->
<g id="edge5" class="edge"><title>Node5&#45;&gt;Node6</title>
<path fill="none" stroke="midnightblue" d="M208.5,-56.083C208.5,-49.0059 208.5,-38.8611 208.5,-29.9865"/>
<polygon fill="midnightblue" stroke="midnightblue" points="212,-29.751 208.5,-19.7511 205,-29.7511 212,-29.751"/>
</g>
<!-- Node9 -->
<g id="node9" class="node"><title>Node9</title>
<g id="a_node9"><a xlink:href="erpc__transport_8h.html" target="_top" xlink:title="erpc_transport.h">
<polygon fill="white" stroke="black" points="180,-168.5 180,-187.5 267,-187.5 267,-168.5 180,-168.5"/>
<text text-anchor="middle" x="223.5" y="-175.5" font-family="Helvetica,sans-Serif" font-size="10.00">erpc_transport.h</text>
</a>
</g>
</g>
<!-- Node8&#45;&gt;Node9 -->
<g id="edge9" class="edge"><title>Node8&#45;&gt;Node9</title>
<path fill="none" stroke="midnightblue" d="M223.5,-224.399C223.5,-216.466 223.5,-206.458 223.5,-197.858"/>
<polygon fill="midnightblue" stroke="midnightblue" points="227,-197.658 223.5,-187.658 220,-197.658 227,-197.658"/>
</g>
<!-- Node8&#45;&gt;Node12 -->
<g id="edge15" class="edge"><title>Node8&#45;&gt;Node12</title>
<path fill="none" stroke="midnightblue" d="M246.488,-224.399C261.891,-214.951 282.093,-202.559 297.499,-193.109"/>
<polygon fill="midnightblue" stroke="midnightblue" points="299.692,-195.87 306.386,-187.658 296.031,-189.903 299.692,-195.87"/>
</g>
<!-- Node9&#45;&gt;Node4 -->
<g id="edge13" class="edge"><title>Node9&#45;&gt;Node4</title>
<path fill="none" stroke="midnightblue" d="M209.683,-168.324C196.267,-159.9 175.676,-146.971 159.914,-137.074"/>
<polygon fill="midnightblue" stroke="midnightblue" points="161.613,-134.008 151.283,-131.655 157.891,-139.936 161.613,-134.008"/>
</g>
<!-- Node9&#45;&gt;Node5 -->
<g id="edge10" class="edge"><title>Node9&#45;&gt;Node5</title>
<path fill="none" stroke="midnightblue" d="M222.323,-168.368C219.902,-150.617 214.318,-109.666 211.036,-85.5974"/>
<polygon fill="midnightblue" stroke="midnightblue" points="214.491,-85.0268 209.672,-75.5914 207.555,-85.9726 214.491,-85.0268"/>
</g>
<!-- Node10 -->
<g id="node10" class="node"><title>Node10</title>
<g id="a_node10"><a xlink:href="erpc__crc16_8h.html" target="_top" xlink:title="erpc_crc16.h">
<polygon fill="white" stroke="black" points="270,-56.5 270,-75.5 343,-75.5 343,-56.5 270,-56.5"/>
<text text-anchor="middle" x="306.5" y="-63.5" font-family="Helvetica,sans-Serif" font-size="10.00">erpc_crc16.h</text>
</a>
</g>
</g>
<!-- Node9&#45;&gt;Node10 -->
<g id="edge11" class="edge"><title>Node9&#45;&gt;Node10</title>
<path fill="none" stroke="midnightblue" d="M230.013,-168.368C243.771,-150.135 275.997,-107.426 293.918,-83.6752"/>
<polygon fill="midnightblue" stroke="midnightblue" points="296.788,-85.6821 300.017,-75.5914 291.2,-81.4659 296.788,-85.6821"/>
</g>
<!-- Node11 -->
<g id="node11" class="node"><title>Node11</title>
<polygon fill="white" stroke="#bfbfbf" points="344.5,-112.5 344.5,-131.5 390.5,-131.5 390.5,-112.5 344.5,-112.5"/>
<text text-anchor="middle" x="367.5" y="-119.5" font-family="Helvetica,sans-Serif" font-size="10.00">cstring</text>
</g>
<!-- Node9&#45;&gt;Node11 -->
<g id="edge14" class="edge"><title>Node9&#45;&gt;Node11</title>
<path fill="none" stroke="midnightblue" d="M246.317,-168.444C270.332,-159.438 308.329,-145.189 335.369,-135.049"/>
<polygon fill="midnightblue" stroke="midnightblue" points="336.655,-138.305 344.79,-131.516 334.197,-131.751 336.655,-138.305"/>
</g>
<!-- Node10&#45;&gt;Node6 -->
<g id="edge12" class="edge"><title>Node10&#45;&gt;Node6</title>
<path fill="none" stroke="midnightblue" d="M290.755,-56.324C275.181,-47.7428 251.123,-34.486 233.041,-24.5224"/>
<polygon fill="midnightblue" stroke="midnightblue" points="234.654,-21.4152 224.206,-19.6545 231.276,-27.546 234.654,-21.4152"/>
</g>
<!-- Node13&#45;&gt;Node11 -->
<g id="edge17" class="edge"><title>Node13&#45;&gt;Node11</title>
<path fill="none" stroke="midnightblue" d="M385.997,-229.819C382.783,-211.257 375.178,-167.339 370.785,-141.973"/>
<polygon fill="midnightblue" stroke="midnightblue" points="374.176,-141.038 369.021,-131.782 367.278,-142.233 374.176,-141.038"/>
</g>
</g>
</svg>
