<?xml version="1.0" encoding="UTF-8" standalone="no"?>
<!DOCTYPE svg PUBLIC "-//W3C//DTD SVG 1.1//EN"
 "http://www.w3.org/Graphics/SVG/1.1/DTD/svg11.dtd">
<!-- Generated by graphviz version 2.38.0 (20140413.2041)
 -->
<!-- Title: erpc_transport.h Pages: 1 -->
<svg width="1934pt" height="229pt"
 viewBox="0.00 0.00 1933.50 229.00" xmlns="http://www.w3.org/2000/svg" xmlns:xlink="http://www.w3.org/1999/xlink">
<g id="graph0" class="graph" transform="scale(1 1) rotate(0) translate(4 225)">
<title>erpc_transport.h</title>
<polygon fill="white" stroke="none" points="-4,4 -4,-225 1929.5,-225 1929.5,4 -4,4"/>
<!-- Node1 -->
<g id="node1" class="node"><title>Node1</title>
<polygon fill="#bfbfbf" stroke="black" points="1048,-201.5 1048,-220.5 1135,-220.5 1135,-201.5 1048,-201.5"/>
<text text-anchor="middle" x="1091.5" y="-208.5" font-family="Helvetica,sans-Serif" font-size="10.00">erpc_transport.h</text>
</g>
<!-- Node2 -->
<g id="node2" class="node"><title>Node2</title>
<g id="a_node2"><a xlink:href="erpc__codec_8h.html" target="_top" xlink:title="erpc_codec.h">
<polygon fill="white" stroke="black" points="295,-140 295,-159 370,-159 370,-140 295,-140"/>
<text text-anchor="middle" x="332.5" y="-147" font-family="Helvetica,sans-Serif" font-size="10.00">erpc_codec.h</text>
</a>
</g>
</g>
<!-- Node1&#45;&gt;Node2 -->
<g id="edge1" class="edge"><title>Node1&#45;&gt;Node2</title>
<path fill="none" stroke="midnightblue" d="M1037.97,-205.804C892.946,-194.435 495.023,-163.241 370.361,-153.468"/>
<polygon fill="midnightblue" stroke="midnightblue" points="1037.72,-209.295 1047.97,-206.587 1038.27,-202.316 1037.72,-209.295"/>
</g>
<!-- Node5 -->
<g id="node5" class="node"><title>Node5</title>
<g id="a_node5"><a xlink:href="erpc__transport__arbitrator_8h.html" target="_top" xlink:title="erpc_transport_arbitrator.h">
<polygon fill="white" stroke="black" points="0,-6 0,-25 131,-25 131,-6 0,-6"/>
<text text-anchor="middle" x="65.5" y="-13" font-family="Helvetica,sans-Serif" font-size="10.00">erpc_transport_arbitrator.h</text>
</a>
</g>
</g>
<!-- Node1&#45;&gt;Node5 -->
<g id="edge11" class="edge"><title>Node1&#45;&gt;Node5</title>
<path fill="none" stroke="midnightblue" d="M1037.68,-209.013C881.479,-205.828 430.011,-194.28 285.5,-165 198.974,-147.469 162.184,-159.144 98.5,-98 77.358,-77.7012 69.3665,-42.0068 66.6921,-25.4283"/>
<polygon fill="midnightblue" stroke="midnightblue" points="1037.9,-212.518 1047.97,-209.219 1038.04,-205.519 1037.9,-212.518"/>
</g>
<!-- Node11 -->
<g id="node11" class="node"><title>Node11</title>
<g id="a_node11"><a xlink:href="erpc__framed__transport_8h.html" target="_top" xlink:title="erpc_framed_transport.h">
<polygon fill="white" stroke="black" points="818.5,-140 818.5,-159 940.5,-159 940.5,-140 818.5,-140"/>
<text text-anchor="middle" x="879.5" y="-147" font-family="Helvetica,sans-Serif" font-size="10.00">erpc_framed_transport.h</text>
</a>
</g>
</g>
<!-- Node1&#45;&gt;Node11 -->
<g id="edge12" class="edge"><title>Node1&#45;&gt;Node11</title>
<path fill="none" stroke="midnightblue" d="M1051.41,-198.749C1010.23,-187.189 947.023,-169.451 909.818,-159.009"/>
<polygon fill="midnightblue" stroke="midnightblue" points="1050.55,-202.143 1061.13,-201.475 1052.44,-195.403 1050.55,-202.143"/>
</g>
<!-- Node19 -->
<g id="node19" class="node"><title>Node19</title>
<g id="a_node19"><a xlink:href="erpc__message__loggers_8h.html" target="_top" xlink:title="erpc_message_loggers.h">
<polygon fill="white" stroke="black" points="959,-140 959,-159 1084,-159 1084,-140 959,-140"/>
<text text-anchor="middle" x="1021.5" y="-147" font-family="Helvetica,sans-Serif" font-size="10.00">erpc_message_loggers.h</text>
</a>
</g>
</g>
<!-- Node1&#45;&gt;Node19 -->
<g id="edge20" class="edge"><title>Node1&#45;&gt;Node19</title>
<path fill="none" stroke="midnightblue" d="M1073.82,-194.973C1060.43,-183.593 1042.52,-168.369 1031.51,-159.009"/>
<polygon fill="midnightblue" stroke="midnightblue" points="1071.58,-197.665 1081.47,-201.475 1076.12,-192.332 1071.58,-197.665"/>
</g>
<!-- Node20 -->
<g id="node20" class="node"><title>Node20</title>
<g id="a_node20"><a xlink:href="erpc__inter__thread__buffer__transport_8h.html" target="_top" xlink:title="erpc_inter_thread_buffer\l_transport.h">
<polygon fill="white" stroke="black" points="1102.5,-134.5 1102.5,-164.5 1222.5,-164.5 1222.5,-134.5 1102.5,-134.5"/>
<text text-anchor="start" x="1110.5" y="-152.5" font-family="Helvetica,sans-Serif" font-size="10.00">erpc_inter_thread_buffer</text>
<text text-anchor="middle" x="1162.5" y="-141.5" font-family="Helvetica,sans-Serif" font-size="10.00">_transport.h</text>
</a>
</g>
</g>
<!-- Node1&#45;&gt;Node20 -->
<g id="edge21" class="edge"><title>Node1&#45;&gt;Node20</title>
<path fill="none" stroke="midnightblue" d="M1109.49,-194.921C1120.64,-185.579 1134.86,-173.662 1145.77,-164.523"/>
<polygon fill="midnightblue" stroke="midnightblue" points="1107.09,-192.369 1101.67,-201.475 1111.59,-197.735 1107.09,-192.369"/>
</g>
<!-- Node21 -->
<g id="node21" class="node"><title>Node21</title>
<g id="a_node21"><a xlink:href="erpc__mu__transport_8h.html" target="_top" xlink:title="erpc_mu_transport.h">
<polygon fill="white" stroke="black" points="1240.5,-140 1240.5,-159 1346.5,-159 1346.5,-140 1240.5,-140"/>
<text text-anchor="middle" x="1293.5" y="-147" font-family="Helvetica,sans-Serif" font-size="10.00">erpc_mu_transport.h</text>
</a>
</g>
</g>
<!-- Node1&#45;&gt;Node21 -->
<g id="edge22" class="edge"><title>Node1&#45;&gt;Node21</title>
<path fill="none" stroke="midnightblue" d="M1130.19,-198.602C1169.45,-187.04 1229.31,-169.407 1264.61,-159.009"/>
<polygon fill="midnightblue" stroke="midnightblue" points="1129.05,-195.292 1120.44,-201.475 1131.02,-202.007 1129.05,-195.292"/>
</g>
<!-- Node22 -->
<g id="node22" class="node"><title>Node22</title>
<g id="a_node22"><a xlink:href="erpc__rpmsg__linux__transport_8h_source.html" target="_top" xlink:title="erpc_rpmsg_linux_transport.h">
<polygon fill="white" stroke="black" points="1365,-140 1365,-159 1510,-159 1510,-140 1365,-140"/>
<text text-anchor="middle" x="1437.5" y="-147" font-family="Helvetica,sans-Serif" font-size="10.00">erpc_rpmsg_linux_transport.h</text>
</a>
</g>
</g>
<!-- Node1&#45;&gt;Node22 -->
<g id="edge23" class="edge"><title>Node1&#45;&gt;Node22</title>
<path fill="none" stroke="midnightblue" d="M1145.35,-200.922C1198.71,-191.902 1282.77,-177.629 1355.5,-165 1366.47,-163.096 1378.26,-161.025 1389.38,-159.06"/>
<polygon fill="midnightblue" stroke="midnightblue" points="1144.7,-197.481 1135.42,-202.598 1145.87,-204.383 1144.7,-197.481"/>
</g>
<!-- Node23 -->
<g id="node23" class="node"><title>Node23</title>
<g id="a_node23"><a xlink:href="erpc__rpmsg__lite__base__transport_8h.html" target="_top" xlink:title="erpc_rpmsg_lite_base\l_transport.h">
<polygon fill="white" stroke="black" points="1606.5,-134.5 1606.5,-164.5 1718.5,-164.5 1718.5,-134.5 1606.5,-134.5"/>
<text text-anchor="start" x="1614.5" y="-152.5" font-family="Helvetica,sans-Serif" font-size="10.00">erpc_rpmsg_lite_base</text>
<text text-anchor="middle" x="1662.5" y="-141.5" font-family="Helvetica,sans-Serif" font-size="10.00">_transport.h</text>
</a>
</g>
</g>
<!-- Node1&#45;&gt;Node23 -->
<g id="edge24" class="edge"><title>Node1&#45;&gt;Node23</title>
<path fill="none" stroke="midnightblue" d="M1145.39,-204.384C1253.5,-193.119 1495.9,-167.86 1606.07,-156.38"/>
<polygon fill="midnightblue" stroke="midnightblue" points="1144.94,-200.912 1135.36,-205.43 1145.67,-207.875 1144.94,-200.912"/>
</g>
<!-- Node3 -->
<g id="node3" class="node"><title>Node3</title>
<g id="a_node3"><a xlink:href="erpc__client__manager_8h.html" target="_top" xlink:title="erpc_client_manager.h">
<polygon fill="white" stroke="black" points="147,-73 147,-92 262,-92 262,-73 147,-73"/>
<text text-anchor="middle" x="204.5" y="-80" font-family="Helvetica,sans-Serif" font-size="10.00">erpc_client_manager.h</text>
</a>
</g>
</g>
<!-- Node2&#45;&gt;Node3 -->
<g id="edge2" class="edge"><title>Node2&#45;&gt;Node3</title>
<path fill="none" stroke="midnightblue" d="M306.455,-135.274C281.103,-122.4 243.311,-103.209 221.568,-92.1672"/>
<polygon fill="midnightblue" stroke="midnightblue" points="305.002,-138.461 315.503,-139.869 308.171,-132.22 305.002,-138.461"/>
</g>
<!-- Node2&#45;&gt;Node5 -->
<g id="edge7" class="edge"><title>Node2&#45;&gt;Node5</title>
<path fill="none" stroke="midnightblue" d="M284.623,-144.044C243.145,-138.407 182.841,-125.818 137.5,-98 106.28,-78.8459 81.0299,-41.9184 70.6303,-25.1552"/>
<polygon fill="midnightblue" stroke="midnightblue" points="284.38,-147.541 294.742,-145.332 285.264,-140.597 284.38,-147.541"/>
</g>
<!-- Node8 -->
<g id="node8" class="node"><title>Node8</title>
<g id="a_node8"><a xlink:href="erpc__basic__codec_8h.html" target="_top" xlink:title="erpc_basic_codec.h">
<polygon fill="white" stroke="black" points="280.5,-73 280.5,-92 384.5,-92 384.5,-73 280.5,-73"/>
<text text-anchor="middle" x="332.5" y="-80" font-family="Helvetica,sans-Serif" font-size="10.00">erpc_basic_codec.h</text>
</a>
</g>
</g>
<!-- Node2&#45;&gt;Node8 -->
<g id="edge8" class="edge"><title>Node2&#45;&gt;Node8</title>
<path fill="none" stroke="midnightblue" d="M332.5,-129.537C332.5,-117.17 332.5,-101.62 332.5,-92.1273"/>
<polygon fill="midnightblue" stroke="midnightblue" points="329,-129.734 332.5,-139.734 336,-129.734 329,-129.734"/>
</g>
<!-- Node9 -->
<g id="node9" class="node"><title>Node9</title>
<g id="a_node9"><a xlink:href="erpc__server_8h.html" target="_top" xlink:title="erpc_server.h">
<polygon fill="white" stroke="black" points="402.5,-73 402.5,-92 476.5,-92 476.5,-73 402.5,-73"/>
<text text-anchor="middle" x="439.5" y="-80" font-family="Helvetica,sans-Serif" font-size="10.00">erpc_server.h</text>
</a>
</g>
</g>
<!-- Node2&#45;&gt;Node9 -->
<g id="edge9" class="edge"><title>Node2&#45;&gt;Node9</title>
<path fill="none" stroke="midnightblue" d="M355.641,-134.442C376.831,-121.57 407.519,-102.927 425.298,-92.1273"/>
<polygon fill="midnightblue" stroke="midnightblue" points="353.66,-131.551 346.93,-139.734 357.294,-137.533 353.66,-131.551"/>
</g>
<!-- Node4 -->
<g id="node4" class="node"><title>Node4</title>
<g id="a_node4"><a xlink:href="erpc__arbitrated__client__manager_8h.html" target="_top" xlink:title="erpc_arbitrated_client\l_manager.h">
<polygon fill="white" stroke="black" points="149.5,-0.5 149.5,-30.5 259.5,-30.5 259.5,-0.5 149.5,-0.5"/>
<text text-anchor="start" x="157.5" y="-18.5" font-family="Helvetica,sans-Serif" font-size="10.00">erpc_arbitrated_client</text>
<text text-anchor="middle" x="204.5" y="-7.5" font-family="Helvetica,sans-Serif" font-size="10.00">_manager.h</text>
</a>
</g>
</g>
<!-- Node3&#45;&gt;Node4 -->
<g id="edge3" class="edge"><title>Node3&#45;&gt;Node4</title>
<path fill="none" stroke="midnightblue" d="M204.5,-62.4107C204.5,-52.222 204.5,-39.901 204.5,-30.589"/>
<polygon fill="midnightblue" stroke="midnightblue" points="201,-62.7338 204.5,-72.7338 208,-62.7338 201,-62.7338"/>
</g>
<!-- Node3&#45;&gt;Node5 -->
<g id="edge4" class="edge"><title>Node3&#45;&gt;Node5</title>
<path fill="none" stroke="midnightblue" d="M176.941,-68.6127C149.41,-55.7387 107.854,-36.3059 84.0345,-25.1672"/>
<polygon fill="midnightblue" stroke="midnightblue" points="175.501,-71.8029 186.042,-72.8685 178.466,-65.462 175.501,-71.8029"/>
</g>
<!-- Node6 -->
<g id="node6" class="node"><title>Node6</title>
<g id="a_node6"><a xlink:href="erpc__arbitrated__client__setup_8h.html" target="_top" xlink:title="erpc_arbitrated_client\l_setup.h">
<polygon fill="white" stroke="black" points="277.5,-0.5 277.5,-30.5 387.5,-30.5 387.5,-0.5 277.5,-0.5"/>
<text text-anchor="start" x="285.5" y="-18.5" font-family="Helvetica,sans-Serif" font-size="10.00">erpc_arbitrated_client</text>
<text text-anchor="middle" x="332.5" y="-7.5" font-family="Helvetica,sans-Serif" font-size="10.00">_setup.h</text>
</a>
</g>
</g>
<!-- Node3&#45;&gt;Node6 -->
<g id="edge5" class="edge"><title>Node3&#45;&gt;Node6</title>
<path fill="none" stroke="midnightblue" d="M230.702,-68.1944C252.233,-57.2607 282.658,-41.8102 304.632,-30.6516"/>
<polygon fill="midnightblue" stroke="midnightblue" points="228.829,-65.22 221.497,-72.8685 231.998,-71.4614 228.829,-65.22"/>
</g>
<!-- Node7 -->
<g id="node7" class="node"><title>Node7</title>
<g id="a_node7"><a xlink:href="erpc__client__setup_8h.html" target="_top" xlink:title="erpc_client_setup.h">
<polygon fill="white" stroke="black" points="406,-6 406,-25 507,-25 507,-6 406,-6"/>
<text text-anchor="middle" x="456.5" y="-13" font-family="Helvetica,sans-Serif" font-size="10.00">erpc_client_setup.h</text>
</a>
</g>
</g>
<!-- Node3&#45;&gt;Node7 -->
<g id="edge6" class="edge"><title>Node3&#45;&gt;Node7</title>
<path fill="none" stroke="midnightblue" d="M247.519,-70.4039C297.253,-57.5757 378.046,-36.7361 423.223,-25.0834"/>
<polygon fill="midnightblue" stroke="midnightblue" points="246.513,-67.0488 237.704,-72.9355 248.261,-73.8269 246.513,-67.0488"/>
</g>
<!-- Node10 -->
<g id="node10" class="node"><title>Node10</title>
<g id="a_node10"><a xlink:href="erpc__simple__server_8h.html" target="_top" xlink:title="erpc_simple_server.h">
<polygon fill="white" stroke="black" points="525.5,-6 525.5,-25 633.5,-25 633.5,-6 525.5,-6"/>
<text text-anchor="middle" x="579.5" y="-13" font-family="Helvetica,sans-Serif" font-size="10.00">erpc_simple_server.h</text>
</a>
</g>
</g>
<!-- Node9&#45;&gt;Node10 -->
<g id="edge10" class="edge"><title>Node9&#45;&gt;Node10</title>
<path fill="none" stroke="midnightblue" d="M467.257,-68.6127C494.986,-55.7387 536.841,-36.3059 560.832,-25.1672"/>
<polygon fill="midnightblue" stroke="midnightblue" points="465.687,-65.4828 458.091,-72.8685 468.635,-71.8319 465.687,-65.4828"/>
</g>
<!-- Node12 -->
<g id="node12" class="node"><title>Node12</title>
<g id="a_node12"><a xlink:href="erpc__dspi__master__transport_8h.html" target="_top" xlink:title="erpc_dspi_master_transport.h">
<polygon fill="white" stroke="black" points="494.5,-73 494.5,-92 640.5,-92 640.5,-73 494.5,-73"/>
<text text-anchor="middle" x="567.5" y="-80" font-family="Helvetica,sans-Serif" font-size="10.00">erpc_dspi_master_transport.h</text>
</a>
</g>
</g>
<!-- Node11&#45;&gt;Node12 -->
<g id="edge13" class="edge"><title>Node11&#45;&gt;Node12</title>
<path fill="none" stroke="midnightblue" d="M828.534,-137.882C767.176,-125.099 665.334,-103.882 608.7,-92.0834"/>
<polygon fill="midnightblue" stroke="midnightblue" points="827.887,-141.322 838.391,-139.936 829.315,-134.469 827.887,-141.322"/>
</g>
<!-- Node13 -->
<g id="node13" class="node"><title>Node13</title>
<g id="a_node13"><a xlink:href="erpc__dspi__slave__transport_8h.html" target="_top" xlink:title="erpc_dspi_slave_transport.h">
<polygon fill="white" stroke="black" points="659,-73 659,-92 796,-92 796,-73 659,-73"/>
<text text-anchor="middle" x="727.5" y="-80" font-family="Helvetica,sans-Serif" font-size="10.00">erpc_dspi_slave_transport.h</text>
</a>
</g>
</g>
<!-- Node11&#45;&gt;Node13 -->
<g id="edge14" class="edge"><title>Node11&#45;&gt;Node13</title>
<path fill="none" stroke="midnightblue" d="M849.757,-135.781C819.655,-122.909 773.929,-103.355 747.768,-92.1672"/>
<polygon fill="midnightblue" stroke="midnightblue" points="848.745,-139.155 859.316,-139.869 851.497,-132.718 848.745,-139.155"/>
</g>
<!-- Node14 -->
<g id="node14" class="node"><title>Node14</title>
<g id="a_node14"><a xlink:href="erpc__serial__transport_8h.html" target="_top" xlink:title="erpc_serial_transport.h">
<polygon fill="white" stroke="black" points="814.5,-73 814.5,-92 930.5,-92 930.5,-73 814.5,-73"/>
<text text-anchor="middle" x="872.5" y="-80" font-family="Helvetica,sans-Serif" font-size="10.00">erpc_serial_transport.h</text>
</a>
</g>
</g>
<!-- Node11&#45;&gt;Node14 -->
<g id="edge15" class="edge"><title>Node11&#45;&gt;Node14</title>
<path fill="none" stroke="midnightblue" d="M877.458,-129.537C876.126,-117.17 874.451,-101.62 873.429,-92.1273"/>
<polygon fill="midnightblue" stroke="midnightblue" points="874.005,-130.166 878.556,-139.734 880.965,-129.417 874.005,-130.166"/>
</g>
<!-- Node15 -->
<g id="node15" class="node"><title>Node15</title>
<g id="a_node15"><a xlink:href="erpc__spi__master__transport_8h.html" target="_top" xlink:title="erpc_spi_master_transport.h">
<polygon fill="white" stroke="black" points="948.5,-73 948.5,-92 1088.5,-92 1088.5,-73 948.5,-73"/>
<text text-anchor="middle" x="1018.5" y="-80" font-family="Helvetica,sans-Serif" font-size="10.00">erpc_spi_master_transport.h</text>
</a>
</g>
</g>
<!-- Node11&#45;&gt;Node15 -->
<g id="edge16" class="edge"><title>Node11&#45;&gt;Node15</title>
<path fill="none" stroke="midnightblue" d="M907.059,-135.613C934.59,-122.739 976.146,-103.306 999.966,-92.1672"/>
<polygon fill="midnightblue" stroke="midnightblue" points="905.534,-132.462 897.958,-139.869 908.499,-138.803 905.534,-132.462"/>
</g>
<!-- Node16 -->
<g id="node16" class="node"><title>Node16</title>
<g id="a_node16"><a xlink:href="erpc__spi__slave__transport_8h.html" target="_top" xlink:title="erpc_spi_slave_transport.h">
<polygon fill="white" stroke="black" points="1106.5,-73 1106.5,-92 1238.5,-92 1238.5,-73 1106.5,-73"/>
<text text-anchor="middle" x="1172.5" y="-80" font-family="Helvetica,sans-Serif" font-size="10.00">erpc_spi_slave_transport.h</text>
</a>
</g>
</g>
<!-- Node11&#45;&gt;Node16 -->
<g id="edge17" class="edge"><title>Node11&#45;&gt;Node16</title>
<path fill="none" stroke="midnightblue" d="M928.077,-137.724C985.772,-124.924 1080.84,-103.833 1133.81,-92.0834"/>
<polygon fill="midnightblue" stroke="midnightblue" points="927.111,-134.353 918.106,-139.936 928.627,-141.187 927.111,-134.353"/>
</g>
<!-- Node17 -->
<g id="node17" class="node"><title>Node17</title>
<g id="a_node17"><a xlink:href="erpc__tcp__transport_8h.html" target="_top" xlink:title="erpc_tcp_transport.h">
<polygon fill="white" stroke="black" points="1256.5,-73 1256.5,-92 1362.5,-92 1362.5,-73 1256.5,-73"/>
<text text-anchor="middle" x="1309.5" y="-80" font-family="Helvetica,sans-Serif" font-size="10.00">erpc_tcp_transport.h</text>
</a>
</g>
</g>
<!-- Node11&#45;&gt;Node17 -->
<g id="edge18" class="edge"><title>Node11&#45;&gt;Node17</title>
<path fill="none" stroke="midnightblue" d="M928.192,-137.866C935.321,-136.469 942.588,-135.131 949.5,-134 1081.16,-112.451 1116.13,-121.225 1247.5,-98 1256.86,-96.345 1266.93,-94.1655 1276.17,-92.0008"/>
<polygon fill="midnightblue" stroke="midnightblue" points="927.015,-134.533 917.903,-139.939 928.398,-141.395 927.015,-134.533"/>
</g>
<!-- Node18 -->
<g id="node18" class="node"><title>Node18</title>
<g id="a_node18"><a xlink:href="erpc__uart__cmsis__transport_8h.html" target="_top" xlink:title="erpc_uart_cmsis_transport.h">
<polygon fill="white" stroke="black" points="1380.5,-73 1380.5,-92 1520.5,-92 1520.5,-73 1380.5,-73"/>
<text text-anchor="middle" x="1450.5" y="-80" font-family="Helvetica,sans-Serif" font-size="10.00">erpc_uart_cmsis_transport.h</text>
</a>
</g>
</g>
<!-- Node11&#45;&gt;Node18 -->
<g id="edge19" class="edge"><title>Node11&#45;&gt;Node18</title>
<path fill="none" stroke="midnightblue" d="M926.36,-137.991C934.064,-136.495 941.986,-135.095 949.5,-134 1135.77,-106.861 1184.93,-123.02 1371.5,-98 1383.52,-96.3875 1396.5,-94.1963 1408.39,-92.006"/>
<polygon fill="midnightblue" stroke="midnightblue" points="925.521,-134.59 916.409,-139.997 926.904,-141.452 925.521,-134.59"/>
</g>
<!-- Node24 -->
<g id="node24" class="node"><title>Node24</title>
<g id="a_node24"><a xlink:href="erpc__rpmsg__lite__rtos__transport_8h.html" target="_top" xlink:title="erpc_rpmsg_lite_rtos\l_transport.h">
<polygon fill="white" stroke="black" points="1539,-67.5 1539,-97.5 1646,-97.5 1646,-67.5 1539,-67.5"/>
<text text-anchor="start" x="1547" y="-85.5" font-family="Helvetica,sans-Serif" font-size="10.00">erpc_rpmsg_lite_rtos</text>
<text text-anchor="middle" x="1592.5" y="-74.5" font-family="Helvetica,sans-Serif" font-size="10.00">_transport.h</text>
</a>
</g>
</g>
<!-- Node23&#45;&gt;Node24 -->
<g id="edge25" class="edge"><title>Node23&#45;&gt;Node24</title>
<path fill="none" stroke="midnightblue" d="M1639.68,-127.311C1629.18,-117.561 1617.01,-106.259 1607.66,-97.5765"/>
<polygon fill="midnightblue" stroke="midnightblue" points="1637.6,-130.156 1647.31,-134.396 1642.36,-125.027 1637.6,-130.156"/>
</g>
<!-- Node25 -->
<g id="node25" class="node"><title>Node25</title>
<g id="a_node25"><a xlink:href="erpc__rpmsg__lite__transport_8h.html" target="_top" xlink:title="erpc_rpmsg_lite_transport.h">
<polygon fill="white" stroke="black" points="1664,-73 1664,-92 1801,-92 1801,-73 1664,-73"/>
<text text-anchor="middle" x="1732.5" y="-80" font-family="Helvetica,sans-Serif" font-size="10.00">erpc_rpmsg_lite_transport.h</text>
</a>
</g>
</g>
<!-- Node23&#45;&gt;Node25 -->
<g id="edge26" class="edge"><title>Node23&#45;&gt;Node25</title>
<path fill="none" stroke="midnightblue" d="M1685.29,-127.335C1698.15,-115.401 1713.51,-101.136 1723.14,-92.1945"/>
<polygon fill="midnightblue" stroke="midnightblue" points="1682.64,-125.027 1677.69,-134.396 1687.4,-130.156 1682.64,-125.027"/>
</g>
<!-- Node26 -->
<g id="node26" class="node"><title>Node26</title>
<g id="a_node26"><a xlink:href="erpc__rpmsg__tty__rtos__transport_8h.html" target="_top" xlink:title="erpc_rpmsg_tty_rtos\l_transport.h">
<polygon fill="white" stroke="black" points="1819.5,-67.5 1819.5,-97.5 1925.5,-97.5 1925.5,-67.5 1819.5,-67.5"/>
<text text-anchor="start" x="1827.5" y="-85.5" font-family="Helvetica,sans-Serif" font-size="10.00">erpc_rpmsg_tty_rtos</text>
<text text-anchor="middle" x="1872.5" y="-74.5" font-family="Helvetica,sans-Serif" font-size="10.00">_transport.h</text>
</a>
</g>
</g>
<!-- Node23&#45;&gt;Node26 -->
<g id="edge27" class="edge"><title>Node23&#45;&gt;Node26</title>
<path fill="none" stroke="midnightblue" d="M1717.6,-131.444C1751.64,-120.908 1794.8,-107.549 1826.91,-97.6109"/>
<polygon fill="midnightblue" stroke="midnightblue" points="1716.33,-128.176 1707.81,-134.476 1718.4,-134.863 1716.33,-128.176"/>
</g>
</g>
</svg>
