<?xml version="1.0" encoding="UTF-8" standalone="no"?>
<!DOCTYPE svg PUBLIC "-//W3C//DTD SVG 1.1//EN"
 "http://www.w3.org/Graphics/SVG/1.1/DTD/svg11.dtd">
<!-- Generated by graphviz version 2.38.0 (20140413.2041)
 -->
<!-- Title: erpc_rpmsg_lite_base_transport.h Pages: 1 -->
<svg width="603pt" height="263pt"
 viewBox="0.00 0.00 602.50 263.00" xmlns="http://www.w3.org/2000/svg" xmlns:xlink="http://www.w3.org/1999/xlink">
<g id="graph0" class="graph" transform="scale(1 1) rotate(0) translate(4 259)">
<title>erpc_rpmsg_lite_base_transport.h</title>
<polygon fill="white" stroke="none" points="-4,4 -4,-259 598.5,-259 598.5,4 -4,4"/>
<!-- Node1 -->
<g id="node1" class="node"><title>Node1</title>
<polygon fill="#bfbfbf" stroke="black" points="320.5,-224.5 320.5,-254.5 432.5,-254.5 432.5,-224.5 320.5,-224.5"/>
<text text-anchor="start" x="328.5" y="-242.5" font-family="Helvetica,sans-Serif" font-size="10.00">erpc_rpmsg_lite_base</text>
<text text-anchor="middle" x="376.5" y="-231.5" font-family="Helvetica,sans-Serif" font-size="10.00">_transport.h</text>
</g>
<!-- Node2 -->
<g id="node2" class="node"><title>Node2</title>
<g id="a_node2"><a xlink:href="erpc__transport_8h.html" target="_top" xlink:title="erpc_transport.h">
<polygon fill="white" stroke="black" points="162,-168.5 162,-187.5 249,-187.5 249,-168.5 162,-168.5"/>
<text text-anchor="middle" x="205.5" y="-175.5" font-family="Helvetica,sans-Serif" font-size="10.00">erpc_transport.h</text>
</a>
</g>
</g>
<!-- Node1&#45;&gt;Node2 -->
<g id="edge1" class="edge"><title>Node1&#45;&gt;Node2</title>
<path fill="none" stroke="midnightblue" d="M335.975,-224.399C306.772,-214.238 267.783,-200.672 240.051,-191.022"/>
<polygon fill="midnightblue" stroke="midnightblue" points="240.977,-187.639 230.382,-187.658 238.676,-194.25 240.977,-187.639"/>
</g>
<!-- Node9 -->
<g id="node9" class="node"><title>Node9</title>
<g id="a_node9"><a xlink:href="erpc__config__internal_8h_source.html" target="_top" xlink:title="erpc_config_internal.h">
<polygon fill="white" stroke="black" points="267,-168.5 267,-187.5 378,-187.5 378,-168.5 267,-168.5"/>
<text text-anchor="middle" x="322.5" y="-175.5" font-family="Helvetica,sans-Serif" font-size="10.00">erpc_config_internal.h</text>
</a>
</g>
</g>
<!-- Node1&#45;&gt;Node9 -->
<g id="edge11" class="edge"><title>Node1&#45;&gt;Node9</title>
<path fill="none" stroke="midnightblue" d="M363.703,-224.399C355.775,-215.664 345.564,-204.413 337.29,-195.296"/>
<polygon fill="midnightblue" stroke="midnightblue" points="339.67,-192.711 330.357,-187.658 334.486,-197.415 339.67,-192.711"/>
</g>
<!-- Node12 -->
<g id="node12" class="node"><title>Node12</title>
<polygon fill="white" stroke="#bfbfbf" points="396.5,-168.5 396.5,-187.5 466.5,-187.5 466.5,-168.5 396.5,-168.5"/>
<text text-anchor="middle" x="431.5" y="-175.5" font-family="Helvetica,sans-Serif" font-size="10.00">rpmsg_lite.h</text>
</g>
<!-- Node1&#45;&gt;Node12 -->
<g id="edge14" class="edge"><title>Node1&#45;&gt;Node12</title>
<path fill="none" stroke="midnightblue" d="M389.534,-224.399C397.691,-215.575 408.222,-204.183 416.694,-195.018"/>
<polygon fill="midnightblue" stroke="midnightblue" points="419.279,-197.377 423.497,-187.658 414.139,-192.625 419.279,-197.377"/>
</g>
<!-- Node13 -->
<g id="node13" class="node"><title>Node13</title>
<polygon fill="white" stroke="#bfbfbf" points="484.5,-168.5 484.5,-187.5 594.5,-187.5 594.5,-168.5 484.5,-168.5"/>
<text text-anchor="middle" x="539.5" y="-175.5" font-family="Helvetica,sans-Serif" font-size="10.00">rpmsg_env_specific.h</text>
</g>
<!-- Node1&#45;&gt;Node13 -->
<g id="edge15" class="edge"><title>Node1&#45;&gt;Node13</title>
<path fill="none" stroke="midnightblue" d="M415.129,-224.399C442.844,-214.283 479.805,-200.791 506.217,-191.149"/>
<polygon fill="midnightblue" stroke="midnightblue" points="507.589,-194.375 515.782,-187.658 505.188,-187.799 507.589,-194.375"/>
</g>
<!-- Node3 -->
<g id="node3" class="node"><title>Node3</title>
<g id="a_node3"><a xlink:href="erpc__common_8h_source.html" target="_top" xlink:title="erpc_common.h">
<polygon fill="white" stroke="black" points="106.5,-56.5 106.5,-75.5 192.5,-75.5 192.5,-56.5 106.5,-56.5"/>
<text text-anchor="middle" x="149.5" y="-63.5" font-family="Helvetica,sans-Serif" font-size="10.00">erpc_common.h</text>
</a>
</g>
</g>
<!-- Node2&#45;&gt;Node3 -->
<g id="edge2" class="edge"><title>Node2&#45;&gt;Node3</title>
<path fill="none" stroke="midnightblue" d="M204.878,-168.097C203.663,-155.097 200.179,-130.463 190.5,-112 184.699,-100.934 175.512,-90.4921 167.304,-82.4577"/>
<polygon fill="midnightblue" stroke="midnightblue" points="169.583,-79.7974 159.876,-75.5505 164.816,-84.9235 169.583,-79.7974"/>
</g>
<!-- Node5 -->
<g id="node5" class="node"><title>Node5</title>
<g id="a_node5"><a xlink:href="erpc__crc16_8h.html" target="_top" xlink:title="erpc_crc16.h">
<polygon fill="white" stroke="black" points="211,-56.5 211,-75.5 284,-75.5 284,-56.5 211,-56.5"/>
<text text-anchor="middle" x="247.5" y="-63.5" font-family="Helvetica,sans-Serif" font-size="10.00">erpc_crc16.h</text>
</a>
</g>
</g>
<!-- Node2&#45;&gt;Node5 -->
<g id="edge4" class="edge"><title>Node2&#45;&gt;Node5</title>
<path fill="none" stroke="midnightblue" d="M209.02,-168.4C212.699,-159.364 218.608,-144.723 223.5,-132 229.504,-116.386 236.067,-98.5555 240.81,-85.5236"/>
<polygon fill="midnightblue" stroke="midnightblue" points="244.196,-86.4537 244.314,-75.8595 237.615,-84.0677 244.196,-86.4537"/>
</g>
<!-- Node6 -->
<g id="node6" class="node"><title>Node6</title>
<g id="a_node6"><a xlink:href="erpc__message__buffer_8h.html" target="_top" xlink:title="erpc_message_buffer.h">
<polygon fill="white" stroke="black" points="0,-112.5 0,-131.5 117,-131.5 117,-112.5 0,-112.5"/>
<text text-anchor="middle" x="58.5" y="-119.5" font-family="Helvetica,sans-Serif" font-size="10.00">erpc_message_buffer.h</text>
</a>
</g>
</g>
<!-- Node2&#45;&gt;Node6 -->
<g id="edge6" class="edge"><title>Node2&#45;&gt;Node6</title>
<path fill="none" stroke="midnightblue" d="M182.207,-168.444C157.693,-159.438 118.904,-145.189 91.3001,-135.049"/>
<polygon fill="midnightblue" stroke="midnightblue" points="92.2772,-131.679 81.6836,-131.516 89.8634,-138.25 92.2772,-131.679"/>
</g>
<!-- Node8 -->
<g id="node8" class="node"><title>Node8</title>
<polygon fill="white" stroke="#bfbfbf" points="135.5,-112.5 135.5,-131.5 181.5,-131.5 181.5,-112.5 135.5,-112.5"/>
<text text-anchor="middle" x="158.5" y="-119.5" font-family="Helvetica,sans-Serif" font-size="10.00">cstring</text>
</g>
<!-- Node2&#45;&gt;Node8 -->
<g id="edge10" class="edge"><title>Node2&#45;&gt;Node8</title>
<path fill="none" stroke="midnightblue" d="M197.739,-168.083C190.963,-160.298 180.957,-148.801 172.745,-139.367"/>
<polygon fill="midnightblue" stroke="midnightblue" points="175.322,-136.996 166.117,-131.751 170.042,-141.592 175.322,-136.996"/>
</g>
<!-- Node4 -->
<g id="node4" class="node"><title>Node4</title>
<polygon fill="white" stroke="#bfbfbf" points="125,-0.5 125,-19.5 174,-19.5 174,-0.5 125,-0.5"/>
<text text-anchor="middle" x="149.5" y="-7.5" font-family="Helvetica,sans-Serif" font-size="10.00">stdint.h</text>
</g>
<!-- Node3&#45;&gt;Node4 -->
<g id="edge3" class="edge"><title>Node3&#45;&gt;Node4</title>
<path fill="none" stroke="midnightblue" d="M149.5,-56.083C149.5,-49.0059 149.5,-38.8611 149.5,-29.9865"/>
<polygon fill="midnightblue" stroke="midnightblue" points="153,-29.751 149.5,-19.7511 146,-29.7511 153,-29.751"/>
</g>
<!-- Node5&#45;&gt;Node4 -->
<g id="edge5" class="edge"><title>Node5&#45;&gt;Node4</title>
<path fill="none" stroke="midnightblue" d="M231.755,-56.324C216.181,-47.7428 192.123,-34.486 174.041,-24.5224"/>
<polygon fill="midnightblue" stroke="midnightblue" points="175.654,-21.4152 165.206,-19.6545 172.276,-27.546 175.654,-21.4152"/>
</g>
<!-- Node6&#45;&gt;Node3 -->
<g id="edge7" class="edge"><title>Node6&#45;&gt;Node3</title>
<path fill="none" stroke="midnightblue" d="M73.1207,-112.324C87.4489,-103.822 109.513,-90.7288 126.249,-80.7975"/>
<polygon fill="midnightblue" stroke="midnightblue" points="128.102,-83.7677 134.916,-75.6545 124.53,-77.7478 128.102,-83.7677"/>
</g>
<!-- Node6&#45;&gt;Node4 -->
<g id="edge9" class="edge"><title>Node6&#45;&gt;Node4</title>
<path fill="none" stroke="midnightblue" d="M49.8735,-112.437C37.8526,-99.4411 18.8833,-74.3144 31.5,-56 50.0293,-29.1029 86.9508,-18.2713 114.585,-13.9157"/>
<polygon fill="midnightblue" stroke="midnightblue" points="115.227,-17.3607 124.664,-12.5435 114.283,-10.4247 115.227,-17.3607"/>
</g>
<!-- Node7 -->
<g id="node7" class="node"><title>Node7</title>
<polygon fill="white" stroke="#bfbfbf" points="40.5,-56.5 40.5,-75.5 88.5,-75.5 88.5,-56.5 40.5,-56.5"/>
<text text-anchor="middle" x="64.5" y="-63.5" font-family="Helvetica,sans-Serif" font-size="10.00">cstddef</text>
</g>
<!-- Node6&#45;&gt;Node7 -->
<g id="edge8" class="edge"><title>Node6&#45;&gt;Node7</title>
<path fill="none" stroke="midnightblue" d="M59.4908,-112.083C60.2859,-104.927 61.4294,-94.6353 62.4232,-85.6911"/>
<polygon fill="midnightblue" stroke="midnightblue" points="65.9018,-86.0765 63.5277,-75.7511 58.9447,-85.3034 65.9018,-86.0765"/>
</g>
<!-- Node10 -->
<g id="node10" class="node"><title>Node10</title>
<g id="a_node10"><a xlink:href="erpc__config_8h.html" target="_top" xlink:title="erpc_config.h">
<polygon fill="white" stroke="black" points="282.5,-112.5 282.5,-131.5 356.5,-131.5 356.5,-112.5 282.5,-112.5"/>
<text text-anchor="middle" x="319.5" y="-119.5" font-family="Helvetica,sans-Serif" font-size="10.00">erpc_config.h</text>
</a>
</g>
</g>
<!-- Node9&#45;&gt;Node10 -->
<g id="edge12" class="edge"><title>Node9&#45;&gt;Node10</title>
<path fill="none" stroke="midnightblue" d="M322.005,-168.083C321.611,-161.006 321.048,-150.861 320.555,-141.986"/>
<polygon fill="midnightblue" stroke="midnightblue" points="324.036,-141.542 319.986,-131.751 317.046,-141.93 324.036,-141.542"/>
</g>
<!-- Node11 -->
<g id="node11" class="node"><title>Node11</title>
<polygon fill="white" stroke="#bfbfbf" points="375,-112.5 375,-131.5 424,-131.5 424,-112.5 375,-112.5"/>
<text text-anchor="middle" x="399.5" y="-119.5" font-family="Helvetica,sans-Serif" font-size="10.00">cassert</text>
</g>
<!-- Node9&#45;&gt;Node11 -->
<g id="edge13" class="edge"><title>Node9&#45;&gt;Node11</title>
<path fill="none" stroke="midnightblue" d="M334.871,-168.324C346.658,-160.058 364.632,-147.453 378.636,-137.632"/>
<polygon fill="midnightblue" stroke="midnightblue" points="380.982,-140.262 387.159,-131.655 376.962,-134.531 380.982,-140.262"/>
</g>
</g>
</svg>
