<?xml version="1.0" encoding="UTF-8" standalone="no"?>
<!DOCTYPE svg PUBLIC "-//W3C//DTD SVG 1.1//EN"
 "http://www.w3.org/Graphics/SVG/1.1/DTD/svg11.dtd">
<!-- Generated by graphviz version 2.38.0 (20140413.2041)
 -->
<!-- Title: erpc_transport_arbitrator.h Pages: 1 -->
<svg width="515pt" height="375pt"
 viewBox="0.00 0.00 515.00 375.00" xmlns="http://www.w3.org/2000/svg" xmlns:xlink="http://www.w3.org/1999/xlink">
<g id="graph0" class="graph" transform="scale(1 1) rotate(0) translate(4 371)">
<title>erpc_transport_arbitrator.h</title>
<polygon fill="white" stroke="none" points="-4,4 -4,-371 511,-371 511,4 -4,4"/>
<!-- Node1 -->
<g id="node1" class="node"><title>Node1</title>
<polygon fill="#bfbfbf" stroke="black" points="180,-347.5 180,-366.5 311,-366.5 311,-347.5 180,-347.5"/>
<text text-anchor="middle" x="245.5" y="-354.5" font-family="Helvetica,sans-Serif" font-size="10.00">erpc_transport_arbitrator.h</text>
</g>
<!-- Node2 -->
<g id="node2" class="node"><title>Node2</title>
<g id="a_node2"><a xlink:href="erpc__client__manager_8h.html" target="_top" xlink:title="erpc_client_manager.h">
<polygon fill="white" stroke="black" points="56,-291.5 56,-310.5 171,-310.5 171,-291.5 56,-291.5"/>
<text text-anchor="middle" x="113.5" y="-298.5" font-family="Helvetica,sans-Serif" font-size="10.00">erpc_client_manager.h</text>
</a>
</g>
</g>
<!-- Node1&#45;&gt;Node2 -->
<g id="edge1" class="edge"><title>Node1&#45;&gt;Node2</title>
<path fill="none" stroke="midnightblue" d="M224.584,-347.444C202.764,-338.517 168.35,-324.439 143.608,-314.317"/>
<polygon fill="midnightblue" stroke="midnightblue" points="144.899,-311.063 134.318,-310.516 142.248,-317.542 144.899,-311.063"/>
</g>
<!-- Node6 -->
<g id="node6" class="node"><title>Node6</title>
<g id="a_node6"><a xlink:href="erpc__codec_8h.html" target="_top" xlink:title="erpc_codec.h">
<polygon fill="white" stroke="black" points="266,-230 266,-249 341,-249 341,-230 266,-230"/>
<text text-anchor="middle" x="303.5" y="-237" font-family="Helvetica,sans-Serif" font-size="10.00">erpc_codec.h</text>
</a>
</g>
</g>
<!-- Node1&#45;&gt;Node6 -->
<g id="edge21" class="edge"><title>Node1&#45;&gt;Node6</title>
<path fill="none" stroke="midnightblue" d="M249.859,-347.319C259.307,-328.506 281.833,-283.648 294.483,-258.455"/>
<polygon fill="midnightblue" stroke="midnightblue" points="297.73,-259.789 299.09,-249.282 291.475,-256.648 297.73,-259.789"/>
</g>
<!-- Node11 -->
<g id="node11" class="node"><title>Node11</title>
<g id="a_node11"><a xlink:href="erpc__transport_8h.html" target="_top" xlink:title="erpc_transport.h">
<polygon fill="white" stroke="black" points="410,-168.5 410,-187.5 497,-187.5 497,-168.5 410,-168.5"/>
<text text-anchor="middle" x="453.5" y="-175.5" font-family="Helvetica,sans-Serif" font-size="10.00">erpc_transport.h</text>
</a>
</g>
</g>
<!-- Node1&#45;&gt;Node11 -->
<g id="edge25" class="edge"><title>Node1&#45;&gt;Node11</title>
<path fill="none" stroke="midnightblue" d="M255.532,-347.463C288.33,-319.554 392.703,-230.736 435.216,-194.559"/>
<polygon fill="midnightblue" stroke="midnightblue" points="437.731,-197.015 443.078,-187.868 433.194,-191.684 437.731,-197.015"/>
</g>
<!-- Node14 -->
<g id="node14" class="node"><title>Node14</title>
<g id="a_node14"><a xlink:href="erpc__threading_8h.html" target="_top" xlink:title="erpc_threading.h">
<polygon fill="white" stroke="black" points="159,-230 159,-249 248,-249 248,-230 159,-230"/>
<text text-anchor="middle" x="203.5" y="-237" font-family="Helvetica,sans-Serif" font-size="10.00">erpc_threading.h</text>
</a>
</g>
</g>
<!-- Node1&#45;&gt;Node14 -->
<g id="edge22" class="edge"><title>Node1&#45;&gt;Node14</title>
<path fill="none" stroke="midnightblue" d="M242.343,-347.319C235.533,-328.59 219.335,-284.046 210.152,-258.792"/>
<polygon fill="midnightblue" stroke="midnightblue" points="213.4,-257.484 206.693,-249.282 206.822,-259.876 213.4,-257.484"/>
</g>
<!-- Node3 -->
<g id="node3" class="node"><title>Node3</title>
<g id="a_node3"><a xlink:href="erpc__client__server__common_8h.html" target="_top" xlink:title="erpc_client_server\l_common.h">
<polygon fill="white" stroke="black" points="46,-224.5 46,-254.5 141,-254.5 141,-224.5 46,-224.5"/>
<text text-anchor="start" x="54" y="-242.5" font-family="Helvetica,sans-Serif" font-size="10.00">erpc_client_server</text>
<text text-anchor="middle" x="93.5" y="-231.5" font-family="Helvetica,sans-Serif" font-size="10.00">_common.h</text>
</a>
</g>
</g>
<!-- Node2&#45;&gt;Node3 -->
<g id="edge2" class="edge"><title>Node2&#45;&gt;Node3</title>
<path fill="none" stroke="midnightblue" d="M110.634,-291.475C108.23,-284.32 104.676,-273.748 101.427,-264.084"/>
<polygon fill="midnightblue" stroke="midnightblue" points="104.717,-262.887 98.2136,-254.523 98.0822,-265.117 104.717,-262.887"/>
</g>
<!-- Node4 -->
<g id="node4" class="node"><title>Node4</title>
<g id="a_node4"><a xlink:href="erpc__config__internal_8h_source.html" target="_top" xlink:title="erpc_config_internal.h">
<polygon fill="white" stroke="black" points="0,-168.5 0,-187.5 111,-187.5 111,-168.5 0,-168.5"/>
<text text-anchor="middle" x="55.5" y="-175.5" font-family="Helvetica,sans-Serif" font-size="10.00">erpc_config_internal.h</text>
</a>
</g>
</g>
<!-- Node2&#45;&gt;Node4 -->
<g id="edge20" class="edge"><title>Node2&#45;&gt;Node4</title>
<path fill="none" stroke="midnightblue" d="M85.1276,-291.495C67.7476,-284.653 46.9035,-273.13 36.5,-255 25.9613,-236.635 35.2681,-212.498 44.1799,-196.403"/>
<polygon fill="midnightblue" stroke="midnightblue" points="47.3518,-197.919 49.4968,-187.544 41.3497,-194.317 47.3518,-197.919"/>
</g>
<!-- Node2&#45;&gt;Node6 -->
<g id="edge5" class="edge"><title>Node2&#45;&gt;Node6</title>
<path fill="none" stroke="midnightblue" d="M140.722,-291.475C173.737,-281.136 229.54,-263.661 266.453,-252.102"/>
<polygon fill="midnightblue" stroke="midnightblue" points="267.831,-255.338 276.328,-249.009 265.739,-248.658 267.831,-255.338"/>
</g>
<!-- Node3&#45;&gt;Node4 -->
<g id="edge3" class="edge"><title>Node3&#45;&gt;Node4</title>
<path fill="none" stroke="midnightblue" d="M84.4945,-224.399C79.0865,-215.932 72.1683,-205.099 66.4461,-196.139"/>
<polygon fill="midnightblue" stroke="midnightblue" points="69.3616,-194.202 61.0293,-187.658 63.4621,-197.97 69.3616,-194.202"/>
</g>
<!-- Node5 -->
<g id="node5" class="node"><title>Node5</title>
<g id="a_node5"><a xlink:href="erpc__config_8h.html" target="_top" xlink:title="erpc_config.h">
<polygon fill="white" stroke="black" points="18.5,-112.5 18.5,-131.5 92.5,-131.5 92.5,-112.5 18.5,-112.5"/>
<text text-anchor="middle" x="55.5" y="-119.5" font-family="Helvetica,sans-Serif" font-size="10.00">erpc_config.h</text>
</a>
</g>
</g>
<!-- Node4&#45;&gt;Node5 -->
<g id="edge4" class="edge"><title>Node4&#45;&gt;Node5</title>
<path fill="none" stroke="midnightblue" d="M55.5,-168.083C55.5,-161.006 55.5,-150.861 55.5,-141.986"/>
<polygon fill="midnightblue" stroke="midnightblue" points="59.0001,-141.751 55.5,-131.751 52.0001,-141.751 59.0001,-141.751"/>
</g>
<!-- Node7 -->
<g id="node7" class="node"><title>Node7</title>
<g id="a_node7"><a xlink:href="erpc__common_8h_source.html" target="_top" xlink:title="erpc_common.h">
<polygon fill="white" stroke="black" points="309.5,-56.5 309.5,-75.5 395.5,-75.5 395.5,-56.5 309.5,-56.5"/>
<text text-anchor="middle" x="352.5" y="-63.5" font-family="Helvetica,sans-Serif" font-size="10.00">erpc_common.h</text>
</a>
</g>
</g>
<!-- Node6&#45;&gt;Node7 -->
<g id="edge6" class="edge"><title>Node6&#45;&gt;Node7</title>
<path fill="none" stroke="midnightblue" d="M305.997,-229.76C313.632,-203.036 336.781,-122.017 347.254,-85.3618"/>
<polygon fill="midnightblue" stroke="midnightblue" points="350.684,-86.0962 350.066,-75.5194 343.953,-84.1731 350.684,-86.0962"/>
</g>
<!-- Node8 -->
<g id="node8" class="node"><title>Node8</title>
<polygon fill="white" stroke="#bfbfbf" points="257,-0.5 257,-19.5 306,-19.5 306,-0.5 257,-0.5"/>
<text text-anchor="middle" x="281.5" y="-7.5" font-family="Helvetica,sans-Serif" font-size="10.00">stdint.h</text>
</g>
<!-- Node6&#45;&gt;Node8 -->
<g id="edge19" class="edge"><title>Node6&#45;&gt;Node8</title>
<path fill="none" stroke="midnightblue" d="M289.255,-229.834C264.772,-213.993 215.51,-177.743 196.5,-132 183.537,-100.809 179.077,-84.9376 196.5,-56 207.524,-37.6905 228.773,-26.4406 247.266,-19.7681"/>
<polygon fill="midnightblue" stroke="midnightblue" points="248.49,-23.05 256.895,-16.5996 246.302,-16.4008 248.49,-23.05"/>
</g>
<!-- Node9 -->
<g id="node9" class="node"><title>Node9</title>
<g id="a_node9"><a xlink:href="erpc__message__buffer_8h.html" target="_top" xlink:title="erpc_message_buffer.h">
<polygon fill="white" stroke="black" points="206,-112.5 206,-131.5 323,-131.5 323,-112.5 206,-112.5"/>
<text text-anchor="middle" x="264.5" y="-119.5" font-family="Helvetica,sans-Serif" font-size="10.00">erpc_message_buffer.h</text>
</a>
</g>
</g>
<!-- Node6&#45;&gt;Node9 -->
<g id="edge8" class="edge"><title>Node6&#45;&gt;Node9</title>
<path fill="none" stroke="midnightblue" d="M300.569,-229.819C294.245,-211.09 279.204,-166.546 270.677,-141.292"/>
<polygon fill="midnightblue" stroke="midnightblue" points="273.981,-140.137 267.465,-131.782 267.349,-142.376 273.981,-140.137"/>
</g>
<!-- Node6&#45;&gt;Node11 -->
<g id="edge12" class="edge"><title>Node6&#45;&gt;Node11</title>
<path fill="none" stroke="midnightblue" d="M324.991,-229.975C350.61,-219.813 393.61,-202.756 422.745,-191.2"/>
<polygon fill="midnightblue" stroke="midnightblue" points="424.044,-194.45 432.049,-187.509 421.463,-187.943 424.044,-194.45"/>
</g>
<!-- Node13 -->
<g id="node13" class="node"><title>Node13</title>
<polygon fill="white" stroke="#bfbfbf" points="379.5,-112.5 379.5,-131.5 425.5,-131.5 425.5,-112.5 379.5,-112.5"/>
<text text-anchor="middle" x="402.5" y="-119.5" font-family="Helvetica,sans-Serif" font-size="10.00">cstring</text>
</g>
<!-- Node6&#45;&gt;Node13 -->
<g id="edge18" class="edge"><title>Node6&#45;&gt;Node13</title>
<path fill="none" stroke="midnightblue" d="M314.08,-229.795C325.451,-220.178 343.743,-203.934 357.5,-188 370.492,-172.952 383.188,-154.124 391.764,-140.611"/>
<polygon fill="midnightblue" stroke="midnightblue" points="394.91,-142.179 397.226,-131.84 388.968,-138.479 394.91,-142.179"/>
</g>
<!-- Node7&#45;&gt;Node8 -->
<g id="edge7" class="edge"><title>Node7&#45;&gt;Node8</title>
<path fill="none" stroke="midnightblue" d="M341.093,-56.324C330.391,-48.1849 314.159,-35.8395 301.337,-26.0874"/>
<polygon fill="midnightblue" stroke="midnightblue" points="303.193,-23.1018 293.115,-19.8339 298.956,-28.6734 303.193,-23.1018"/>
</g>
<!-- Node9&#45;&gt;Node7 -->
<g id="edge9" class="edge"><title>Node9&#45;&gt;Node7</title>
<path fill="none" stroke="midnightblue" d="M278.639,-112.324C292.366,-103.9 313.436,-90.9709 329.564,-81.0741"/>
<polygon fill="midnightblue" stroke="midnightblue" points="331.704,-83.8678 338.396,-75.6545 328.043,-77.9016 331.704,-83.8678"/>
</g>
<!-- Node9&#45;&gt;Node8 -->
<g id="edge11" class="edge"><title>Node9&#45;&gt;Node8</title>
<path fill="none" stroke="midnightblue" d="M265.834,-112.368C268.577,-94.617 274.906,-53.6664 278.626,-29.5974"/>
<polygon fill="midnightblue" stroke="midnightblue" points="282.104,-30.0087 280.172,-19.5914 275.186,-28.9395 282.104,-30.0087"/>
</g>
<!-- Node10 -->
<g id="node10" class="node"><title>Node10</title>
<polygon fill="white" stroke="#bfbfbf" points="205.5,-56.5 205.5,-75.5 253.5,-75.5 253.5,-56.5 205.5,-56.5"/>
<text text-anchor="middle" x="229.5" y="-63.5" font-family="Helvetica,sans-Serif" font-size="10.00">cstddef</text>
</g>
<!-- Node9&#45;&gt;Node10 -->
<g id="edge10" class="edge"><title>Node9&#45;&gt;Node10</title>
<path fill="none" stroke="midnightblue" d="M258.72,-112.083C253.828,-104.534 246.673,-93.4948 240.667,-84.2298"/>
<polygon fill="midnightblue" stroke="midnightblue" points="243.548,-82.239 235.172,-75.7511 237.674,-86.0463 243.548,-82.239"/>
</g>
<!-- Node11&#45;&gt;Node7 -->
<g id="edge13" class="edge"><title>Node11&#45;&gt;Node7</title>
<path fill="none" stroke="midnightblue" d="M453.051,-168.47C451.935,-155.067 448.046,-128.867 434.5,-112 422.795,-97.4258 405.038,-86.8599 389.037,-79.6443"/>
<polygon fill="midnightblue" stroke="midnightblue" points="389.946,-76.2296 379.371,-75.5786 387.232,-82.6821 389.946,-76.2296"/>
</g>
<!-- Node11&#45;&gt;Node9 -->
<g id="edge16" class="edge"><title>Node11&#45;&gt;Node9</title>
<path fill="none" stroke="midnightblue" d="M423.552,-168.444C391.342,-159.241 339.966,-144.562 304.358,-134.388"/>
<polygon fill="midnightblue" stroke="midnightblue" points="304.884,-130.898 294.308,-131.516 302.961,-137.629 304.884,-130.898"/>
</g>
<!-- Node12 -->
<g id="node12" class="node"><title>Node12</title>
<g id="a_node12"><a xlink:href="erpc__crc16_8h.html" target="_top" xlink:title="erpc_crc16.h">
<polygon fill="white" stroke="black" points="434,-56.5 434,-75.5 507,-75.5 507,-56.5 434,-56.5"/>
<text text-anchor="middle" x="470.5" y="-63.5" font-family="Helvetica,sans-Serif" font-size="10.00">erpc_crc16.h</text>
</a>
</g>
</g>
<!-- Node11&#45;&gt;Node12 -->
<g id="edge14" class="edge"><title>Node11&#45;&gt;Node12</title>
<path fill="none" stroke="midnightblue" d="M456.974,-168.201C460.333,-159.248 465.235,-144.894 467.5,-132 470.19,-116.682 470.855,-99.041 470.894,-86.0055"/>
<polygon fill="midnightblue" stroke="midnightblue" points="474.393,-85.8778 470.803,-75.9098 467.394,-85.9411 474.393,-85.8778"/>
</g>
<!-- Node11&#45;&gt;Node13 -->
<g id="edge17" class="edge"><title>Node11&#45;&gt;Node13</title>
<path fill="none" stroke="midnightblue" d="M445.078,-168.083C437.652,-160.22 426.648,-148.569 417.688,-139.081"/>
<polygon fill="midnightblue" stroke="midnightblue" points="420.176,-136.618 410.765,-131.751 415.087,-141.424 420.176,-136.618"/>
</g>
<!-- Node12&#45;&gt;Node8 -->
<g id="edge15" class="edge"><title>Node12&#45;&gt;Node8</title>
<path fill="none" stroke="midnightblue" d="M440.552,-56.4435C406.732,-46.7805 351.78,-31.0801 316.139,-20.8969"/>
<polygon fill="midnightblue" stroke="midnightblue" points="316.765,-17.4357 306.188,-18.0537 314.842,-24.1663 316.765,-17.4357"/>
</g>
<!-- Node14&#45;&gt;Node4 -->
<g id="edge23" class="edge"><title>Node14&#45;&gt;Node4</title>
<path fill="none" stroke="midnightblue" d="M182.295,-229.975C157.128,-219.857 114.96,-202.905 86.221,-191.351"/>
<polygon fill="midnightblue" stroke="midnightblue" points="87.2493,-187.992 76.6655,-187.509 84.6382,-194.487 87.2493,-187.992"/>
</g>
<!-- Node14&#45;&gt;Node8 -->
<g id="edge24" class="edge"><title>Node14&#45;&gt;Node8</title>
<path fill="none" stroke="midnightblue" d="M198.895,-229.62C185.035,-201.54 146.854,-113.151 183.5,-56 197.434,-34.2693 224.787,-22.8928 247.063,-17.0209"/>
<polygon fill="midnightblue" stroke="midnightblue" points="247.952,-20.4072 256.873,-14.6929 246.335,-13.5963 247.952,-20.4072"/>
</g>
</g>
</svg>
