<?xml version="1.0" encoding="UTF-8" standalone="no"?>
<!DOCTYPE svg PUBLIC "-//W3C//DTD SVG 1.1//EN"
 "http://www.w3.org/Graphics/SVG/1.1/DTD/svg11.dtd">
<!-- Generated by graphviz version 2.38.0 (20140413.2041)
 -->
<!-- Title: erpc_framed_transport.hpp Pages: 1 -->
<svg width="1550pt" height="95pt"
 viewBox="0.00 0.00 1550.00 95.00" xmlns="http://www.w3.org/2000/svg" xmlns:xlink="http://www.w3.org/1999/xlink">
<g id="graph0" class="graph" transform="scale(1 1) rotate(0) translate(4 91)">
<title>erpc_framed_transport.hpp</title>
<polygon fill="white" stroke="none" points="-4,4 -4,-91 1546,-91 1546,4 -4,4"/>
<!-- Node1 -->
<g id="node1" class="node"><title>Node1</title>
<polygon fill="#bfbfbf" stroke="black" points="738,-67.5 738,-86.5 870,-86.5 870,-67.5 738,-67.5"/>
<text text-anchor="middle" x="804" y="-74.5" font-family="Helvetica,sans-Serif" font-size="10.00">erpc_framed_transport.hpp</text>
</g>
<!-- Node2 -->
<g id="node2" class="node"><title>Node2</title>
<g id="a_node2"><a xlink:href="erpc__dspi__master__transport_8hpp.html" target="_top" xlink:title="erpc_dspi_master_transport.hpp">
<polygon fill="white" stroke="black" points="0,-6 0,-25 156,-25 156,-6 0,-6"/>
<text text-anchor="middle" x="78" y="-13" font-family="Helvetica,sans-Serif" font-size="10.00">erpc_dspi_master_transport.hpp</text>
</a>
</g>
</g>
<!-- Node1&#45;&gt;Node2 -->
<g id="edge1" class="edge"><title>Node1&#45;&gt;Node2</title>
<path fill="none" stroke="midnightblue" d="M727.376,-72.9548C607.219,-67.6505 367.288,-54.9255 165,-31 151.77,-29.4353 137.485,-27.2594 124.389,-25.0685"/>
<polygon fill="midnightblue" stroke="midnightblue" points="727.43,-76.4604 737.573,-73.3998 727.735,-69.4671 727.43,-76.4604"/>
</g>
<!-- Node3 -->
<g id="node3" class="node"><title>Node3</title>
<g id="a_node3"><a xlink:href="erpc__dspi__slave__transport_8hpp.html" target="_top" xlink:title="erpc_dspi_slave_transport.hpp">
<polygon fill="white" stroke="black" points="174,-6 174,-25 322,-25 322,-6 174,-6"/>
<text text-anchor="middle" x="248" y="-13" font-family="Helvetica,sans-Serif" font-size="10.00">erpc_dspi_slave_transport.hpp</text>
</a>
</g>
</g>
<!-- Node1&#45;&gt;Node3 -->
<g id="edge2" class="edge"><title>Node1&#45;&gt;Node3</title>
<path fill="none" stroke="midnightblue" d="M727.378,-70.5605C633.655,-63.481 470.273,-49.7613 331,-31 318.678,-29.3401 305.388,-27.1839 293.131,-25.044"/>
<polygon fill="midnightblue" stroke="midnightblue" points="727.386,-74.0708 737.619,-71.3286 727.909,-67.0904 727.386,-74.0708"/>
</g>
<!-- Node4 -->
<g id="node4" class="node"><title>Node4</title>
<g id="a_node4"><a xlink:href="erpc__i2c__slave__transport_8hpp.html" target="_top" xlink:title="erpc_i2c_slave_transport.hpp">
<polygon fill="white" stroke="black" points="340.5,-6 340.5,-25 483.5,-25 483.5,-6 340.5,-6"/>
<text text-anchor="middle" x="412" y="-13" font-family="Helvetica,sans-Serif" font-size="10.00">erpc_i2c_slave_transport.hpp</text>
</a>
</g>
</g>
<!-- Node1&#45;&gt;Node4 -->
<g id="edge3" class="edge"><title>Node1&#45;&gt;Node4</title>
<path fill="none" stroke="midnightblue" d="M730.52,-66.0735C667.433,-57.3824 574.114,-44.1248 493,-31 481.718,-29.1745 469.577,-27.0739 458.216,-25.0484"/>
<polygon fill="midnightblue" stroke="midnightblue" points="730.384,-69.5876 740.767,-67.4817 731.337,-62.6528 730.384,-69.5876"/>
</g>
<!-- Node5 -->
<g id="node5" class="node"><title>Node5</title>
<g id="a_node5"><a xlink:href="erpc__serial__transport_8hpp.html" target="_top" xlink:title="erpc_serial_transport.hpp">
<polygon fill="white" stroke="black" points="502,-6 502,-25 628,-25 628,-6 502,-6"/>
<text text-anchor="middle" x="565" y="-13" font-family="Helvetica,sans-Serif" font-size="10.00">erpc_serial_transport.hpp</text>
</a>
</g>
</g>
<!-- Node1&#45;&gt;Node5 -->
<g id="edge4" class="edge"><title>Node1&#45;&gt;Node5</title>
<path fill="none" stroke="midnightblue" d="M759.981,-65.0412C713.581,-53.49 641.478,-35.5394 599.179,-25.0091"/>
<polygon fill="midnightblue" stroke="midnightblue" points="759.208,-68.4556 769.757,-67.4751 760.899,-61.6629 759.208,-68.4556"/>
</g>
<!-- Node6 -->
<g id="node6" class="node"><title>Node6</title>
<g id="a_node6"><a xlink:href="erpc__spi__master__transport_8hpp.html" target="_top" xlink:title="erpc_spi_master_transport.hpp">
<polygon fill="white" stroke="black" points="646.5,-6 646.5,-25 797.5,-25 797.5,-6 646.5,-6"/>
<text text-anchor="middle" x="722" y="-13" font-family="Helvetica,sans-Serif" font-size="10.00">erpc_spi_master_transport.hpp</text>
</a>
</g>
</g>
<!-- Node1&#45;&gt;Node6 -->
<g id="edge5" class="edge"><title>Node1&#45;&gt;Node6</title>
<path fill="none" stroke="midnightblue" d="M783.733,-61.2938C768.003,-49.8803 746.748,-34.4577 733.727,-25.0091"/>
<polygon fill="midnightblue" stroke="midnightblue" points="782.102,-64.435 792.251,-67.4751 786.213,-58.7693 782.102,-64.435"/>
</g>
<!-- Node7 -->
<g id="node7" class="node"><title>Node7</title>
<g id="a_node7"><a xlink:href="erpc__spi__slave__transport_8hpp.html" target="_top" xlink:title="erpc_spi_slave_transport.hpp">
<polygon fill="white" stroke="black" points="815.5,-6 815.5,-25 958.5,-25 958.5,-6 815.5,-6"/>
<text text-anchor="middle" x="887" y="-13" font-family="Helvetica,sans-Serif" font-size="10.00">erpc_spi_slave_transport.hpp</text>
</a>
</g>
</g>
<!-- Node1&#45;&gt;Node7 -->
<g id="edge6" class="edge"><title>Node1&#45;&gt;Node7</title>
<path fill="none" stroke="midnightblue" d="M824.07,-61.6127C840.033,-50.1691 861.827,-34.546 875.13,-25.0091"/>
<polygon fill="midnightblue" stroke="midnightblue" points="821.98,-58.8042 815.892,-67.4751 826.059,-64.4934 821.98,-58.8042"/>
</g>
<!-- Node8 -->
<g id="node8" class="node"><title>Node8</title>
<g id="a_node8"><a xlink:href="erpc__spidev__master__transport_8hpp.html" target="_top" xlink:title="erpc_spidev_master\l_transport.hpp">
<polygon fill="white" stroke="black" points="976.5,-0.5 976.5,-30.5 1079.5,-30.5 1079.5,-0.5 976.5,-0.5"/>
<text text-anchor="start" x="984.5" y="-18.5" font-family="Helvetica,sans-Serif" font-size="10.00">erpc_spidev_master</text>
<text text-anchor="middle" x="1028" y="-7.5" font-family="Helvetica,sans-Serif" font-size="10.00">_transport.hpp</text>
</a>
</g>
</g>
<!-- Node1&#45;&gt;Node8 -->
<g id="edge7" class="edge"><title>Node1&#45;&gt;Node8</title>
<path fill="none" stroke="midnightblue" d="M846.046,-64.8316C883.016,-55.0113 936.947,-40.6858 976.498,-30.1803"/>
<polygon fill="midnightblue" stroke="midnightblue" points="844.86,-61.5251 836.094,-67.4751 846.657,-68.2905 844.86,-61.5251"/>
</g>
<!-- Node9 -->
<g id="node9" class="node"><title>Node9</title>
<g id="a_node9"><a xlink:href="erpc__tcp__transport_8hpp.html" target="_top" xlink:title="erpc_tcp_transport.hpp">
<polygon fill="white" stroke="black" points="1098,-6 1098,-25 1214,-25 1214,-6 1098,-6"/>
<text text-anchor="middle" x="1156" y="-13" font-family="Helvetica,sans-Serif" font-size="10.00">erpc_tcp_transport.hpp</text>
</a>
</g>
</g>
<!-- Node1&#45;&gt;Node9 -->
<g id="edge8" class="edge"><title>Node1&#45;&gt;Node9</title>
<path fill="none" stroke="midnightblue" d="M874.614,-65.9846C932.404,-57.516 1016.19,-44.6156 1089,-31 1098.59,-29.2061 1108.91,-27.0738 1118.51,-25.0038"/>
<polygon fill="midnightblue" stroke="midnightblue" points="873.884,-62.554 864.494,-67.4613 874.895,-69.4807 873.884,-62.554"/>
</g>
<!-- Node10 -->
<g id="node10" class="node"><title>Node10</title>
<g id="a_node10"><a xlink:href="erpc__uart__cmsis__transport_8hpp.html" target="_top" xlink:title="erpc_uart_cmsis_transport.hpp">
<polygon fill="white" stroke="black" points="1232.5,-6 1232.5,-25 1383.5,-25 1383.5,-6 1232.5,-6"/>
<text text-anchor="middle" x="1308" y="-13" font-family="Helvetica,sans-Serif" font-size="10.00">erpc_uart_cmsis_transport.hpp</text>
</a>
</g>
</g>
<!-- Node1&#45;&gt;Node10 -->
<g id="edge9" class="edge"><title>Node1&#45;&gt;Node10</title>
<path fill="none" stroke="midnightblue" d="M880.171,-69.2497C964.27,-61.4641 1103.58,-47.583 1223,-31 1235.31,-29.2911 1248.57,-27.1661 1260.87,-25.0744"/>
<polygon fill="midnightblue" stroke="midnightblue" points="879.831,-65.7662 870.194,-70.1687 880.473,-72.7366 879.831,-65.7662"/>
</g>
<!-- Node11 -->
<g id="node11" class="node"><title>Node11</title>
<g id="a_node11"><a xlink:href="erpc__usb__cdc__transport_8hpp.html" target="_top" xlink:title="erpc_usb_cdc_transport.hpp">
<polygon fill="white" stroke="black" points="1402,-6 1402,-25 1542,-25 1542,-6 1402,-6"/>
<text text-anchor="middle" x="1472" y="-13" font-family="Helvetica,sans-Serif" font-size="10.00">erpc_usb_cdc_transport.hpp</text>
</a>
</g>
</g>
<!-- Node1&#45;&gt;Node11 -->
<g id="edge10" class="edge"><title>Node1&#45;&gt;Node11</title>
<path fill="none" stroke="midnightblue" d="M880.27,-72.7415C992.806,-67.3528 1209.8,-54.7435 1393,-31 1405.17,-29.4228 1418.31,-27.2165 1430.31,-25.0001"/>
<polygon fill="midnightblue" stroke="midnightblue" points="879.864,-69.2567 870.04,-73.2252 880.194,-76.2489 879.864,-69.2567"/>
</g>
</g>
</svg>
