<?xml version="1.0" encoding="UTF-8" standalone="no"?>
<!DOCTYPE svg PUBLIC "-//W3C//DTD SVG 1.1//EN"
 "http://www.w3.org/Graphics/SVG/1.1/DTD/svg11.dtd">
<!-- Generated by graphviz version 2.38.0 (20140413.2041)
 -->
<!-- Title: erpc_transport.hpp Pages: 1 -->
<svg width="2347pt" height="285pt"
 viewBox="0.00 0.00 2347.00 285.00" xmlns="http://www.w3.org/2000/svg" xmlns:xlink="http://www.w3.org/1999/xlink">
<g id="graph0" class="graph" transform="scale(1 1) rotate(0) translate(4 281)">
<title>erpc_transport.hpp</title>
<polygon fill="white" stroke="none" points="-4,4 -4,-281 2343,-281 2343,4 -4,4"/>
<!-- Node1 -->
<g id="node1" class="node"><title>Node1</title>
<polygon fill="#bfbfbf" stroke="black" points="1219.5,-257.5 1219.5,-276.5 1317.5,-276.5 1317.5,-257.5 1219.5,-257.5"/>
<text text-anchor="middle" x="1268.5" y="-264.5" font-family="Helvetica,sans-Serif" font-size="10.00">erpc_transport.hpp</text>
</g>
<!-- Node2 -->
<g id="node2" class="node"><title>Node2</title>
<g id="a_node2"><a xlink:href="erpc__codec_8hpp.html" target="_top" xlink:title="erpc_codec.hpp">
<polygon fill="white" stroke="black" points="212.5,-196 212.5,-215 298.5,-215 298.5,-196 212.5,-196"/>
<text text-anchor="middle" x="255.5" y="-203" font-family="Helvetica,sans-Serif" font-size="10.00">erpc_codec.hpp</text>
</a>
</g>
</g>
<!-- Node1&#45;&gt;Node2 -->
<g id="edge1" class="edge"><title>Node1&#45;&gt;Node2</title>
<path fill="none" stroke="midnightblue" d="M1209.21,-262.518C1024.06,-251.643 459.431,-218.478 298.642,-209.034"/>
<polygon fill="midnightblue" stroke="midnightblue" points="1209.11,-266.018 1219.3,-263.11 1209.52,-259.03 1209.11,-266.018"/>
</g>
<!-- Node6 -->
<g id="node6" class="node"><title>Node6</title>
<g id="a_node6"><a xlink:href="erpc__transport__arbitrator_8hpp.html" target="_top" xlink:title="erpc_transport_arbitrator.hpp">
<polygon fill="white" stroke="black" points="0,-6 0,-25 141,-25 141,-6 0,-6"/>
<text text-anchor="middle" x="70.5" y="-13" font-family="Helvetica,sans-Serif" font-size="10.00">erpc_transport_arbitrator.hpp</text>
</a>
</g>
</g>
<!-- Node1&#45;&gt;Node6 -->
<g id="edge12" class="edge"><title>Node1&#45;&gt;Node6</title>
<path fill="none" stroke="midnightblue" d="M1209.12,-265.397C999.094,-263.003 298.86,-252.703 203.5,-221 153.433,-204.355 136.9,-196.401 105.5,-154 75.1546,-113.023 70.9996,-48.4127 70.5207,-25.1803"/>
<polygon fill="midnightblue" stroke="midnightblue" points="1209.29,-268.899 1219.33,-265.512 1209.37,-261.9 1209.29,-268.899"/>
</g>
<!-- Node12 -->
<g id="node12" class="node"><title>Node12</title>
<g id="a_node12"><a xlink:href="erpc__framed__transport_8hpp.html" target="_top" xlink:title="erpc_framed_transport.hpp">
<polygon fill="white" stroke="black" points="977.5,-196 977.5,-215 1109.5,-215 1109.5,-196 977.5,-196"/>
<text text-anchor="middle" x="1043.5" y="-203" font-family="Helvetica,sans-Serif" font-size="10.00">erpc_framed_transport.hpp</text>
</a>
</g>
</g>
<!-- Node1&#45;&gt;Node12 -->
<g id="edge13" class="edge"><title>Node1&#45;&gt;Node12</title>
<path fill="none" stroke="midnightblue" d="M1226.51,-254.896C1182.81,-243.34 1115.33,-225.495 1075.68,-215.009"/>
<polygon fill="midnightblue" stroke="midnightblue" points="1225.7,-258.302 1236.26,-257.475 1227.49,-251.535 1225.7,-258.302"/>
</g>
<!-- Node23 -->
<g id="node23" class="node"><title>Node23</title>
<g id="a_node23"><a xlink:href="erpc__message__loggers_8hpp.html" target="_top" xlink:title="erpc_message_loggers.hpp">
<polygon fill="white" stroke="black" points="1127.5,-196 1127.5,-215 1263.5,-215 1263.5,-196 1127.5,-196"/>
<text text-anchor="middle" x="1195.5" y="-203" font-family="Helvetica,sans-Serif" font-size="10.00">erpc_message_loggers.hpp</text>
</a>
</g>
</g>
<!-- Node1&#45;&gt;Node23 -->
<g id="edge24" class="edge"><title>Node1&#45;&gt;Node23</title>
<path fill="none" stroke="midnightblue" d="M1250.06,-250.973C1236.1,-239.593 1217.42,-224.369 1205.94,-215.009"/>
<polygon fill="midnightblue" stroke="midnightblue" points="1248.08,-253.87 1258.04,-257.475 1252.5,-248.444 1248.08,-253.87"/>
</g>
<!-- Node24 -->
<g id="node24" class="node"><title>Node24</title>
<g id="a_node24"><a xlink:href="erpc__inter__thread__buffer__transport_8hpp.html" target="_top" xlink:title="erpc_inter_thread_buffer\l_transport.hpp">
<polygon fill="white" stroke="black" points="1281.5,-190.5 1281.5,-220.5 1401.5,-220.5 1401.5,-190.5 1281.5,-190.5"/>
<text text-anchor="start" x="1289.5" y="-208.5" font-family="Helvetica,sans-Serif" font-size="10.00">erpc_inter_thread_buffer</text>
<text text-anchor="middle" x="1341.5" y="-197.5" font-family="Helvetica,sans-Serif" font-size="10.00">_transport.hpp</text>
</a>
</g>
</g>
<!-- Node1&#45;&gt;Node24 -->
<g id="edge25" class="edge"><title>Node1&#45;&gt;Node24</title>
<path fill="none" stroke="midnightblue" d="M1287,-250.921C1298.46,-241.579 1313.08,-229.662 1324.3,-220.523"/>
<polygon fill="midnightblue" stroke="midnightblue" points="1284.5,-248.444 1278.96,-257.475 1288.92,-253.87 1284.5,-248.444"/>
</g>
<!-- Node25 -->
<g id="node25" class="node"><title>Node25</title>
<g id="a_node25"><a xlink:href="erpc__mu__transport_8hpp.html" target="_top" xlink:title="erpc_mu_transport.hpp">
<polygon fill="white" stroke="black" points="1419.5,-196 1419.5,-215 1535.5,-215 1535.5,-196 1419.5,-196"/>
<text text-anchor="middle" x="1477.5" y="-203" font-family="Helvetica,sans-Serif" font-size="10.00">erpc_mu_transport.hpp</text>
</a>
</g>
</g>
<!-- Node1&#45;&gt;Node25 -->
<g id="edge26" class="edge"><title>Node1&#45;&gt;Node25</title>
<path fill="none" stroke="midnightblue" d="M1308.28,-254.676C1348.89,-243.114 1411.01,-225.429 1447.61,-215.009"/>
<polygon fill="midnightblue" stroke="midnightblue" points="1307.1,-251.371 1298.44,-257.475 1309.02,-258.103 1307.1,-251.371"/>
</g>
<!-- Node26 -->
<g id="node26" class="node"><title>Node26</title>
<g id="a_node26"><a xlink:href="erpc__rpmsg__linux__transport_8hpp_source.html" target="_top" xlink:title="erpc_rpmsg_linux_transport.hpp">
<polygon fill="white" stroke="black" points="1554,-196 1554,-215 1709,-215 1709,-196 1554,-196"/>
<text text-anchor="middle" x="1631.5" y="-203" font-family="Helvetica,sans-Serif" font-size="10.00">erpc_rpmsg_linux_transport.hpp</text>
</a>
</g>
</g>
<!-- Node1&#45;&gt;Node26 -->
<g id="edge27" class="edge"><title>Node1&#45;&gt;Node26</title>
<path fill="none" stroke="midnightblue" d="M1327.69,-256.411C1383.59,-247.342 1469.75,-233.322 1544.5,-221 1556.13,-219.082 1568.64,-217.006 1580.44,-215.041"/>
<polygon fill="midnightblue" stroke="midnightblue" points="1326.93,-252.989 1317.62,-258.045 1328.05,-259.899 1326.93,-252.989"/>
</g>
<!-- Node27 -->
<g id="node27" class="node"><title>Node27</title>
<g id="a_node27"><a xlink:href="erpc__rpmsg__lite__base__transport_8hpp.html" target="_top" xlink:title="erpc_rpmsg_lite_base\l_transport.hpp">
<polygon fill="white" stroke="black" points="2031.5,-190.5 2031.5,-220.5 2143.5,-220.5 2143.5,-190.5 2031.5,-190.5"/>
<text text-anchor="start" x="2039.5" y="-208.5" font-family="Helvetica,sans-Serif" font-size="10.00">erpc_rpmsg_lite_base</text>
<text text-anchor="middle" x="2087.5" y="-197.5" font-family="Helvetica,sans-Serif" font-size="10.00">_transport.hpp</text>
</a>
</g>
</g>
<!-- Node1&#45;&gt;Node27 -->
<g id="edge28" class="edge"><title>Node1&#45;&gt;Node27</title>
<path fill="none" stroke="midnightblue" d="M1327.66,-261.702C1479.71,-250.656 1882.6,-221.386 2031.32,-210.582"/>
<polygon fill="midnightblue" stroke="midnightblue" points="1327.3,-258.219 1317.58,-262.434 1327.81,-265.2 1327.3,-258.219"/>
</g>
<!-- Node3 -->
<g id="node3" class="node"><title>Node3</title>
<g id="a_node3"><a xlink:href="erpc__client__server__common_8hpp.html" target="_top" xlink:title="erpc_client_server\l_common.hpp">
<polygon fill="white" stroke="black" points="269,-123.5 269,-153.5 364,-153.5 364,-123.5 269,-123.5"/>
<text text-anchor="start" x="277" y="-141.5" font-family="Helvetica,sans-Serif" font-size="10.00">erpc_client_server</text>
<text text-anchor="middle" x="316.5" y="-130.5" font-family="Helvetica,sans-Serif" font-size="10.00">_common.hpp</text>
</a>
</g>
</g>
<!-- Node2&#45;&gt;Node3 -->
<g id="edge2" class="edge"><title>Node2&#45;&gt;Node3</title>
<path fill="none" stroke="midnightblue" d="M270.699,-188.304C280.712,-177.635 293.693,-163.802 303.278,-153.589"/>
<polygon fill="midnightblue" stroke="midnightblue" points="268.018,-186.047 263.727,-195.734 273.122,-190.837 268.018,-186.047"/>
</g>
<!-- Node2&#45;&gt;Node6 -->
<g id="edge10" class="edge"><title>Node2&#45;&gt;Node6</title>
<path fill="none" stroke="midnightblue" d="M202.576,-193.83C177.161,-186.37 147.88,-174.032 127.5,-154 107.873,-134.708 81.4468,-52.3311 73.123,-25.2019"/>
<polygon fill="midnightblue" stroke="midnightblue" points="201.893,-197.272 212.463,-196.549 203.749,-190.522 201.893,-197.272"/>
</g>
<!-- Node11 -->
<g id="node11" class="node"><title>Node11</title>
<g id="a_node11"><a xlink:href="erpc__basic__codec_8hpp.html" target="_top" xlink:title="erpc_basic_codec.hpp">
<polygon fill="white" stroke="black" points="136.5,-129 136.5,-148 250.5,-148 250.5,-129 136.5,-129"/>
<text text-anchor="middle" x="193.5" y="-136" font-family="Helvetica,sans-Serif" font-size="10.00">erpc_basic_codec.hpp</text>
</a>
</g>
</g>
<!-- Node2&#45;&gt;Node11 -->
<g id="edge11" class="edge"><title>Node2&#45;&gt;Node11</title>
<path fill="none" stroke="midnightblue" d="M240.235,-188.497C228.077,-175.75 211.523,-158.395 201.729,-148.127"/>
<polygon fill="midnightblue" stroke="midnightblue" points="237.704,-190.913 247.138,-195.734 242.769,-186.082 237.704,-190.913"/>
</g>
<!-- Node4 -->
<g id="node4" class="node"><title>Node4</title>
<g id="a_node4"><a xlink:href="erpc__client__manager_8h.html" target="_top" xlink:title="erpc_client_manager.h">
<polygon fill="white" stroke="black" points="259,-67.5 259,-86.5 374,-86.5 374,-67.5 259,-67.5"/>
<text text-anchor="middle" x="316.5" y="-74.5" font-family="Helvetica,sans-Serif" font-size="10.00">erpc_client_manager.h</text>
</a>
</g>
</g>
<!-- Node3&#45;&gt;Node4 -->
<g id="edge3" class="edge"><title>Node3&#45;&gt;Node4</title>
<path fill="none" stroke="midnightblue" d="M316.5,-113.289C316.5,-103.857 316.5,-93.6548 316.5,-86.6578"/>
<polygon fill="midnightblue" stroke="midnightblue" points="313,-113.399 316.5,-123.399 320,-113.399 313,-113.399"/>
</g>
<!-- Node9 -->
<g id="node9" class="node"><title>Node9</title>
<g id="a_node9"><a xlink:href="erpc__server_8hpp.html" target="_top" xlink:title="erpc_server.hpp">
<polygon fill="white" stroke="black" points="472,-67.5 472,-86.5 557,-86.5 557,-67.5 472,-67.5"/>
<text text-anchor="middle" x="514.5" y="-74.5" font-family="Helvetica,sans-Serif" font-size="10.00">erpc_server.hpp</text>
</a>
</g>
</g>
<!-- Node3&#45;&gt;Node9 -->
<g id="edge8" class="edge"><title>Node3&#45;&gt;Node9</title>
<path fill="none" stroke="midnightblue" d="M372.845,-120.568C409.876,-109.44 456.753,-95.3534 486.193,-86.5064"/>
<polygon fill="midnightblue" stroke="midnightblue" points="371.742,-117.245 363.173,-123.475 373.757,-123.949 371.742,-117.245"/>
</g>
<!-- Node5 -->
<g id="node5" class="node"><title>Node5</title>
<g id="a_node5"><a xlink:href="erpc__arbitrated__client__manager_8hpp.html" target="_top" xlink:title="erpc_arbitrated_client\l_manager.hpp">
<polygon fill="white" stroke="black" points="407.5,-0.5 407.5,-30.5 517.5,-30.5 517.5,-0.5 407.5,-0.5"/>
<text text-anchor="start" x="415.5" y="-18.5" font-family="Helvetica,sans-Serif" font-size="10.00">erpc_arbitrated_client</text>
<text text-anchor="middle" x="462.5" y="-7.5" font-family="Helvetica,sans-Serif" font-size="10.00">_manager.hpp</text>
</a>
</g>
</g>
<!-- Node4&#45;&gt;Node5 -->
<g id="edge4" class="edge"><title>Node4&#45;&gt;Node5</title>
<path fill="none" stroke="midnightblue" d="M346.952,-63.5899C370.624,-53.9425 403.468,-40.5575 428.091,-30.523"/>
<polygon fill="midnightblue" stroke="midnightblue" points="345.358,-60.4599 337.418,-67.4751 348,-66.9422 345.358,-60.4599"/>
</g>
<!-- Node4&#45;&gt;Node6 -->
<g id="edge5" class="edge"><title>Node4&#45;&gt;Node6</title>
<path fill="none" stroke="midnightblue" d="M271.491,-65.1138C223.745,-53.5653 149.309,-35.5615 105.68,-25.0091"/>
<polygon fill="midnightblue" stroke="midnightblue" points="270.712,-68.526 281.254,-67.4751 272.357,-61.7222 270.712,-68.526"/>
</g>
<!-- Node7 -->
<g id="node7" class="node"><title>Node7</title>
<g id="a_node7"><a xlink:href="erpc__arbitrated__client__setup_8h.html" target="_top" xlink:title="erpc_arbitrated_client\l_setup.h">
<polygon fill="white" stroke="black" points="159.5,-0.5 159.5,-30.5 269.5,-30.5 269.5,-0.5 159.5,-0.5"/>
<text text-anchor="start" x="167.5" y="-18.5" font-family="Helvetica,sans-Serif" font-size="10.00">erpc_arbitrated_client</text>
<text text-anchor="middle" x="214.5" y="-7.5" font-family="Helvetica,sans-Serif" font-size="10.00">_setup.h</text>
</a>
</g>
</g>
<!-- Node4&#45;&gt;Node7 -->
<g id="edge6" class="edge"><title>Node4&#45;&gt;Node7</title>
<path fill="none" stroke="midnightblue" d="M292.973,-62.2762C276.65,-52.7541 254.974,-40.1096 238.539,-30.523"/>
<polygon fill="midnightblue" stroke="midnightblue" points="291.485,-65.4596 301.886,-67.4751 295.012,-59.4131 291.485,-65.4596"/>
</g>
<!-- Node8 -->
<g id="node8" class="node"><title>Node8</title>
<g id="a_node8"><a xlink:href="erpc__client__setup_8h.html" target="_top" xlink:title="erpc_client_setup.h">
<polygon fill="white" stroke="black" points="288,-6 288,-25 389,-25 389,-6 288,-6"/>
<text text-anchor="middle" x="338.5" y="-13" font-family="Helvetica,sans-Serif" font-size="10.00">erpc_client_setup.h</text>
</a>
</g>
</g>
<!-- Node4&#45;&gt;Node8 -->
<g id="edge7" class="edge"><title>Node4&#45;&gt;Node8</title>
<path fill="none" stroke="midnightblue" d="M323.157,-57.9968C327.204,-47.0497 332.187,-33.5746 335.354,-25.0091"/>
<polygon fill="midnightblue" stroke="midnightblue" points="319.837,-56.8819 319.652,-67.4751 326.403,-59.3095 319.837,-56.8819"/>
</g>
<!-- Node10 -->
<g id="node10" class="node"><title>Node10</title>
<g id="a_node10"><a xlink:href="erpc__simple__server_8hpp.html" target="_top" xlink:title="erpc_simple_server.hpp">
<polygon fill="white" stroke="black" points="536,-6 536,-25 655,-25 655,-6 536,-6"/>
<text text-anchor="middle" x="595.5" y="-13" font-family="Helvetica,sans-Serif" font-size="10.00">erpc_simple_server.hpp</text>
</a>
</g>
</g>
<!-- Node9&#45;&gt;Node10 -->
<g id="edge9" class="edge"><title>Node9&#45;&gt;Node10</title>
<path fill="none" stroke="midnightblue" d="M534.52,-61.2938C550.058,-49.8803 571.053,-34.4577 583.916,-25.0091"/>
<polygon fill="midnightblue" stroke="midnightblue" points="532.093,-58.7342 526.105,-67.4751 536.237,-64.3757 532.093,-58.7342"/>
</g>
<!-- Node13 -->
<g id="node13" class="node"><title>Node13</title>
<g id="a_node13"><a xlink:href="erpc__dspi__master__transport_8hpp.html" target="_top" xlink:title="erpc_dspi_master_transport.hpp">
<polygon fill="white" stroke="black" points="1295.5,-129 1295.5,-148 1451.5,-148 1451.5,-129 1295.5,-129"/>
<text text-anchor="middle" x="1373.5" y="-136" font-family="Helvetica,sans-Serif" font-size="10.00">erpc_dspi_master_transport.hpp</text>
</a>
</g>
</g>
<!-- Node12&#45;&gt;Node13 -->
<g id="edge14" class="edge"><title>Node12&#45;&gt;Node13</title>
<path fill="none" stroke="midnightblue" d="M1097.02,-193.958C1161.97,-181.165 1270.22,-159.843 1330.19,-148.032"/>
<polygon fill="midnightblue" stroke="midnightblue" points="1096.12,-190.569 1086.98,-195.936 1097.47,-197.437 1096.12,-190.569"/>
</g>
<!-- Node14 -->
<g id="node14" class="node"><title>Node14</title>
<g id="a_node14"><a xlink:href="erpc__dspi__slave__transport_8hpp.html" target="_top" xlink:title="erpc_dspi_slave_transport.hpp">
<polygon fill="white" stroke="black" points="1469.5,-129 1469.5,-148 1617.5,-148 1617.5,-129 1469.5,-129"/>
<text text-anchor="middle" x="1543.5" y="-136" font-family="Helvetica,sans-Serif" font-size="10.00">erpc_dspi_slave_transport.hpp</text>
</a>
</g>
</g>
<!-- Node12&#45;&gt;Node14 -->
<g id="edge15" class="edge"><title>Node12&#45;&gt;Node14</title>
<path fill="none" stroke="midnightblue" d="M1094.33,-194.061C1102.39,-192.581 1110.66,-191.168 1118.5,-190 1269.67,-167.473 1309.13,-175.164 1460.5,-154 1472.67,-152.299 1485.79,-150.153 1497.92,-148.037"/>
<polygon fill="midnightblue" stroke="midnightblue" points="1093.44,-190.666 1084.26,-195.958 1094.74,-197.545 1093.44,-190.666"/>
</g>
<!-- Node15 -->
<g id="node15" class="node"><title>Node15</title>
<g id="a_node15"><a xlink:href="erpc__i2c__slave__transport_8hpp.html" target="_top" xlink:title="erpc_i2c_slave_transport.hpp">
<polygon fill="white" stroke="black" points="1636,-129 1636,-148 1779,-148 1779,-129 1636,-129"/>
<text text-anchor="middle" x="1707.5" y="-136" font-family="Helvetica,sans-Serif" font-size="10.00">erpc_i2c_slave_transport.hpp</text>
</a>
</g>
</g>
<!-- Node12&#45;&gt;Node15 -->
<g id="edge16" class="edge"><title>Node12&#45;&gt;Node15</title>
<path fill="none" stroke="midnightblue" d="M1093.16,-194.029C1101.59,-192.502 1110.27,-191.083 1118.5,-190 1342.91,-160.465 1401.89,-181.982 1626.5,-154 1638.98,-152.446 1652.45,-150.247 1664.75,-148.03"/>
<polygon fill="midnightblue" stroke="midnightblue" points="1092.24,-190.642 1083.06,-195.93 1093.53,-197.521 1092.24,-190.642"/>
</g>
<!-- Node16 -->
<g id="node16" class="node"><title>Node16</title>
<g id="a_node16"><a xlink:href="erpc__serial__transport_8hpp.html" target="_top" xlink:title="erpc_serial_transport.hpp">
<polygon fill="white" stroke="black" points="1797.5,-129 1797.5,-148 1923.5,-148 1923.5,-129 1797.5,-129"/>
<text text-anchor="middle" x="1860.5" y="-136" font-family="Helvetica,sans-Serif" font-size="10.00">erpc_serial_transport.hpp</text>
</a>
</g>
</g>
<!-- Node12&#45;&gt;Node16 -->
<g id="edge17" class="edge"><title>Node12&#45;&gt;Node16</title>
<path fill="none" stroke="midnightblue" d="M1092.29,-194.064C1100.98,-192.491 1109.99,-191.047 1118.5,-190 1414.04,-153.654 1492.06,-191.1 1787.5,-154 1799.04,-152.551 1811.49,-150.329 1822.78,-148.056"/>
<polygon fill="midnightblue" stroke="midnightblue" points="1091.44,-190.662 1082.27,-195.954 1092.74,-197.54 1091.44,-190.662"/>
</g>
<!-- Node17 -->
<g id="node17" class="node"><title>Node17</title>
<g id="a_node17"><a xlink:href="erpc__spi__master__transport_8hpp.html" target="_top" xlink:title="erpc_spi_master_transport.hpp">
<polygon fill="white" stroke="black" points="382,-129 382,-148 533,-148 533,-129 382,-129"/>
<text text-anchor="middle" x="457.5" y="-136" font-family="Helvetica,sans-Serif" font-size="10.00">erpc_spi_master_transport.hpp</text>
</a>
</g>
</g>
<!-- Node12&#45;&gt;Node17 -->
<g id="edge18" class="edge"><title>Node12&#45;&gt;Node17</title>
<path fill="none" stroke="midnightblue" d="M966.969,-198.494C868.364,-190.368 691.751,-174.499 541.5,-154 529.183,-152.32 515.905,-150.181 503.623,-148.065"/>
<polygon fill="midnightblue" stroke="midnightblue" points="966.888,-201.999 977.14,-199.328 967.46,-195.023 966.888,-201.999"/>
</g>
<!-- Node18 -->
<g id="node18" class="node"><title>Node18</title>
<g id="a_node18"><a xlink:href="erpc__spi__slave__transport_8hpp.html" target="_top" xlink:title="erpc_spi_slave_transport.hpp">
<polygon fill="white" stroke="black" points="551,-129 551,-148 694,-148 694,-129 551,-129"/>
<text text-anchor="middle" x="622.5" y="-136" font-family="Helvetica,sans-Serif" font-size="10.00">erpc_spi_slave_transport.hpp</text>
</a>
</g>
</g>
<!-- Node12&#45;&gt;Node18 -->
<g id="edge19" class="edge"><title>Node12&#45;&gt;Node18</title>
<path fill="none" stroke="midnightblue" d="M971.898,-194.581C902.825,-184.851 795.369,-169.289 702.5,-154 691.358,-152.166 679.367,-150.062 668.146,-148.036"/>
<polygon fill="midnightblue" stroke="midnightblue" points="971.414,-198.048 981.804,-195.974 972.389,-191.116 971.414,-198.048"/>
</g>
<!-- Node19 -->
<g id="node19" class="node"><title>Node19</title>
<g id="a_node19"><a xlink:href="erpc__spidev__master__transport_8hpp.html" target="_top" xlink:title="erpc_spidev_master\l_transport.hpp">
<polygon fill="white" stroke="black" points="712,-123.5 712,-153.5 815,-153.5 815,-123.5 712,-123.5"/>
<text text-anchor="start" x="720" y="-141.5" font-family="Helvetica,sans-Serif" font-size="10.00">erpc_spidev_master</text>
<text text-anchor="middle" x="763.5" y="-130.5" font-family="Helvetica,sans-Serif" font-size="10.00">_transport.hpp</text>
</a>
</g>
</g>
<!-- Node12&#45;&gt;Node19 -->
<g id="edge20" class="edge"><title>Node12&#45;&gt;Node19</title>
<path fill="none" stroke="midnightblue" d="M996.366,-193.728C952.001,-183.566 883.713,-167.864 824.5,-154 821.426,-153.28 818.266,-152.538 815.079,-151.786"/>
<polygon fill="midnightblue" stroke="midnightblue" points="995.754,-197.178 1006.28,-195.998 997.316,-190.355 995.754,-197.178"/>
</g>
<!-- Node20 -->
<g id="node20" class="node"><title>Node20</title>
<g id="a_node20"><a xlink:href="erpc__tcp__transport_8hpp.html" target="_top" xlink:title="erpc_tcp_transport.hpp">
<polygon fill="white" stroke="black" points="833.5,-129 833.5,-148 949.5,-148 949.5,-129 833.5,-129"/>
<text text-anchor="middle" x="891.5" y="-136" font-family="Helvetica,sans-Serif" font-size="10.00">erpc_tcp_transport.hpp</text>
</a>
</g>
</g>
<!-- Node12&#45;&gt;Node20 -->
<g id="edge21" class="edge"><title>Node12&#45;&gt;Node20</title>
<path fill="none" stroke="midnightblue" d="M1013.76,-191.781C983.655,-178.909 937.929,-159.355 911.768,-148.167"/>
<polygon fill="midnightblue" stroke="midnightblue" points="1012.74,-195.155 1023.32,-195.869 1015.5,-188.718 1012.74,-195.155"/>
</g>
<!-- Node21 -->
<g id="node21" class="node"><title>Node21</title>
<g id="a_node21"><a xlink:href="erpc__uart__cmsis__transport_8hpp.html" target="_top" xlink:title="erpc_uart_cmsis_transport.hpp">
<polygon fill="white" stroke="black" points="968,-129 968,-148 1119,-148 1119,-129 968,-129"/>
<text text-anchor="middle" x="1043.5" y="-136" font-family="Helvetica,sans-Serif" font-size="10.00">erpc_uart_cmsis_transport.hpp</text>
</a>
</g>
</g>
<!-- Node12&#45;&gt;Node21 -->
<g id="edge22" class="edge"><title>Node12&#45;&gt;Node21</title>
<path fill="none" stroke="midnightblue" d="M1043.5,-185.537C1043.5,-173.17 1043.5,-157.62 1043.5,-148.127"/>
<polygon fill="midnightblue" stroke="midnightblue" points="1040,-185.734 1043.5,-195.734 1047,-185.734 1040,-185.734"/>
</g>
<!-- Node22 -->
<g id="node22" class="node"><title>Node22</title>
<g id="a_node22"><a xlink:href="erpc__usb__cdc__transport_8hpp.html" target="_top" xlink:title="erpc_usb_cdc_transport.hpp">
<polygon fill="white" stroke="black" points="1137.5,-129 1137.5,-148 1277.5,-148 1277.5,-129 1137.5,-129"/>
<text text-anchor="middle" x="1207.5" y="-136" font-family="Helvetica,sans-Serif" font-size="10.00">erpc_usb_cdc_transport.hpp</text>
</a>
</g>
</g>
<!-- Node12&#45;&gt;Node22 -->
<g id="edge23" class="edge"><title>Node12&#45;&gt;Node22</title>
<path fill="none" stroke="midnightblue" d="M1074.78,-192.104C1107.34,-179.198 1157.47,-159.327 1185.89,-148.064"/>
<polygon fill="midnightblue" stroke="midnightblue" points="1073.28,-188.93 1065.28,-195.869 1075.86,-195.438 1073.28,-188.93"/>
</g>
<!-- Node28 -->
<g id="node28" class="node"><title>Node28</title>
<g id="a_node28"><a xlink:href="erpc__rpmsg__lite__rtos__transport_8hpp.html" target="_top" xlink:title="erpc_rpmsg_lite_rtos\l_transport.hpp">
<polygon fill="white" stroke="black" points="2232,-123.5 2232,-153.5 2339,-153.5 2339,-123.5 2232,-123.5"/>
<text text-anchor="start" x="2240" y="-141.5" font-family="Helvetica,sans-Serif" font-size="10.00">erpc_rpmsg_lite_rtos</text>
<text text-anchor="middle" x="2285.5" y="-130.5" font-family="Helvetica,sans-Serif" font-size="10.00">_transport.hpp</text>
</a>
</g>
</g>
<!-- Node27&#45;&gt;Node28 -->
<g id="edge29" class="edge"><title>Node27&#45;&gt;Node28</title>
<path fill="none" stroke="midnightblue" d="M2140.11,-187.228C2172.14,-176.713 2212.54,-163.451 2242.62,-153.577"/>
<polygon fill="midnightblue" stroke="midnightblue" points="2138.87,-183.951 2130.46,-190.396 2141.06,-190.602 2138.87,-183.951"/>
</g>
<!-- Node29 -->
<g id="node29" class="node"><title>Node29</title>
<g id="a_node29"><a xlink:href="erpc__rpmsg__lite__transport_8hpp.html" target="_top" xlink:title="erpc_rpmsg_lite_transport.hpp">
<polygon fill="white" stroke="black" points="1941.5,-129 1941.5,-148 2089.5,-148 2089.5,-129 1941.5,-129"/>
<text text-anchor="middle" x="2015.5" y="-136" font-family="Helvetica,sans-Serif" font-size="10.00">erpc_rpmsg_lite_transport.hpp</text>
</a>
</g>
</g>
<!-- Node27&#45;&gt;Node29 -->
<g id="edge30" class="edge"><title>Node27&#45;&gt;Node29</title>
<path fill="none" stroke="midnightblue" d="M2064.43,-183.672C2051.14,-171.671 2035.13,-157.22 2025.13,-148.195"/>
<polygon fill="midnightblue" stroke="midnightblue" points="2062.11,-186.293 2071.88,-190.396 2066.8,-181.097 2062.11,-186.293"/>
</g>
<!-- Node30 -->
<g id="node30" class="node"><title>Node30</title>
<g id="a_node30"><a xlink:href="erpc__rpmsg__tty__rtos__transport_8hpp.html" target="_top" xlink:title="erpc_rpmsg_tty_rtos\l_transport.hpp">
<polygon fill="white" stroke="black" points="2107.5,-123.5 2107.5,-153.5 2213.5,-153.5 2213.5,-123.5 2107.5,-123.5"/>
<text text-anchor="start" x="2115.5" y="-141.5" font-family="Helvetica,sans-Serif" font-size="10.00">erpc_rpmsg_tty_rtos</text>
<text text-anchor="middle" x="2160.5" y="-130.5" font-family="Helvetica,sans-Serif" font-size="10.00">_transport.hpp</text>
</a>
</g>
</g>
<!-- Node27&#45;&gt;Node30 -->
<g id="edge31" class="edge"><title>Node27&#45;&gt;Node30</title>
<path fill="none" stroke="midnightblue" d="M2110.97,-183.598C2122,-173.783 2134.84,-162.344 2144.69,-153.577"/>
<polygon fill="midnightblue" stroke="midnightblue" points="2108.48,-181.132 2103.34,-190.396 2113.14,-186.36 2108.48,-181.132"/>
</g>
</g>
</svg>
