<?xml version="1.0" encoding="UTF-8" standalone="no"?>
<!DOCTYPE svg PUBLIC "-//W3C//DTD SVG 1.1//EN"
 "http://www.w3.org/Graphics/SVG/1.1/DTD/svg11.dtd">
<!-- Generated by graphviz version 2.38.0 (20140413.2041)
 -->
<!-- Title: erpc_inter_thread_buffer_transport.h Pages: 1 -->
<svg width="531pt" height="263pt"
 viewBox="0.00 0.00 530.50 263.00" xmlns="http://www.w3.org/2000/svg" xmlns:xlink="http://www.w3.org/1999/xlink">
<g id="graph0" class="graph" transform="scale(1 1) rotate(0) translate(4 259)">
<title>erpc_inter_thread_buffer_transport.h</title>
<polygon fill="white" stroke="none" points="-4,4 -4,-259 526.5,-259 526.5,4 -4,4"/>
<!-- Node1 -->
<g id="node1" class="node"><title>Node1</title>
<polygon fill="#bfbfbf" stroke="black" points="209.5,-224.5 209.5,-254.5 329.5,-254.5 329.5,-224.5 209.5,-224.5"/>
<text text-anchor="start" x="217.5" y="-242.5" font-family="Helvetica,sans-Serif" font-size="10.00">erpc_inter_thread_buffer</text>
<text text-anchor="middle" x="269.5" y="-231.5" font-family="Helvetica,sans-Serif" font-size="10.00">_transport.h</text>
</g>
<!-- Node2 -->
<g id="node2" class="node"><title>Node2</title>
<g id="a_node2"><a xlink:href="erpc__message__buffer_8h.html" target="_top" xlink:title="erpc_message_buffer.h">
<polygon fill="white" stroke="black" points="211,-112.5 211,-131.5 328,-131.5 328,-112.5 211,-112.5"/>
<text text-anchor="middle" x="269.5" y="-119.5" font-family="Helvetica,sans-Serif" font-size="10.00">erpc_message_buffer.h</text>
</a>
</g>
</g>
<!-- Node1&#45;&gt;Node2 -->
<g id="edge1" class="edge"><title>Node1&#45;&gt;Node2</title>
<path fill="none" stroke="midnightblue" d="M269.5,-224.337C269.5,-203.622 269.5,-165.016 269.5,-141.899"/>
<polygon fill="midnightblue" stroke="midnightblue" points="273,-141.669 269.5,-131.669 266,-141.669 273,-141.669"/>
</g>
<!-- Node6 -->
<g id="node6" class="node"><title>Node6</title>
<g id="a_node6"><a xlink:href="erpc__threading_8h.html" target="_top" xlink:title="erpc_threading.h">
<polygon fill="white" stroke="black" points="134,-168.5 134,-187.5 223,-187.5 223,-168.5 134,-168.5"/>
<text text-anchor="middle" x="178.5" y="-175.5" font-family="Helvetica,sans-Serif" font-size="10.00">erpc_threading.h</text>
</a>
</g>
</g>
<!-- Node1&#45;&gt;Node6 -->
<g id="edge6" class="edge"><title>Node1&#45;&gt;Node6</title>
<path fill="none" stroke="midnightblue" d="M247.934,-224.399C233.62,-215.04 214.888,-202.792 200.489,-193.377"/>
<polygon fill="midnightblue" stroke="midnightblue" points="202.026,-190.201 191.741,-187.658 198.196,-196.06 202.026,-190.201"/>
</g>
<!-- Node10 -->
<g id="node10" class="node"><title>Node10</title>
<g id="a_node10"><a xlink:href="erpc__transport_8h.html" target="_top" xlink:title="erpc_transport.h">
<polygon fill="white" stroke="black" points="313,-168.5 313,-187.5 400,-187.5 400,-168.5 313,-168.5"/>
<text text-anchor="middle" x="356.5" y="-175.5" font-family="Helvetica,sans-Serif" font-size="10.00">erpc_transport.h</text>
</a>
</g>
</g>
<!-- Node1&#45;&gt;Node10 -->
<g id="edge11" class="edge"><title>Node1&#45;&gt;Node10</title>
<path fill="none" stroke="midnightblue" d="M290.118,-224.399C303.803,-215.04 321.711,-202.792 335.478,-193.377"/>
<polygon fill="midnightblue" stroke="midnightblue" points="337.562,-196.192 343.841,-187.658 333.611,-190.414 337.562,-196.192"/>
</g>
<!-- Node3 -->
<g id="node3" class="node"><title>Node3</title>
<g id="a_node3"><a xlink:href="erpc__common_8h_source.html" target="_top" xlink:title="erpc_common.h">
<polygon fill="white" stroke="black" points="310.5,-56.5 310.5,-75.5 396.5,-75.5 396.5,-56.5 310.5,-56.5"/>
<text text-anchor="middle" x="353.5" y="-63.5" font-family="Helvetica,sans-Serif" font-size="10.00">erpc_common.h</text>
</a>
</g>
</g>
<!-- Node2&#45;&gt;Node3 -->
<g id="edge2" class="edge"><title>Node2&#45;&gt;Node3</title>
<path fill="none" stroke="midnightblue" d="M282.996,-112.324C296.1,-103.9 316.212,-90.9709 331.607,-81.0741"/>
<polygon fill="midnightblue" stroke="midnightblue" points="333.518,-84.0063 340.037,-75.6545 329.733,-78.118 333.518,-84.0063"/>
</g>
<!-- Node4 -->
<g id="node4" class="node"><title>Node4</title>
<polygon fill="white" stroke="#bfbfbf" points="293,-0.5 293,-19.5 342,-19.5 342,-0.5 293,-0.5"/>
<text text-anchor="middle" x="317.5" y="-7.5" font-family="Helvetica,sans-Serif" font-size="10.00">stdint.h</text>
</g>
<!-- Node2&#45;&gt;Node4 -->
<g id="edge5" class="edge"><title>Node2&#45;&gt;Node4</title>
<path fill="none" stroke="midnightblue" d="M273.266,-112.368C281.083,-94.4563 299.206,-52.9233 309.668,-28.9482"/>
<polygon fill="midnightblue" stroke="midnightblue" points="312.959,-30.1566 313.751,-19.5914 306.544,-27.357 312.959,-30.1566"/>
</g>
<!-- Node5 -->
<g id="node5" class="node"><title>Node5</title>
<polygon fill="white" stroke="#bfbfbf" points="206.5,-56.5 206.5,-75.5 254.5,-75.5 254.5,-56.5 206.5,-56.5"/>
<text text-anchor="middle" x="230.5" y="-63.5" font-family="Helvetica,sans-Serif" font-size="10.00">cstddef</text>
</g>
<!-- Node2&#45;&gt;Node5 -->
<g id="edge4" class="edge"><title>Node2&#45;&gt;Node5</title>
<path fill="none" stroke="midnightblue" d="M263.06,-112.083C257.551,-104.455 249.469,-93.2645 242.735,-83.9408"/>
<polygon fill="midnightblue" stroke="midnightblue" points="245.513,-81.8087 236.82,-75.7511 239.838,-85.9071 245.513,-81.8087"/>
</g>
<!-- Node3&#45;&gt;Node4 -->
<g id="edge3" class="edge"><title>Node3&#45;&gt;Node4</title>
<path fill="none" stroke="midnightblue" d="M347.555,-56.083C342.523,-48.5341 335.163,-37.4948 328.987,-28.2298"/>
<polygon fill="midnightblue" stroke="midnightblue" points="331.793,-26.1301 323.334,-19.7511 325.969,-30.0131 331.793,-26.1301"/>
</g>
<!-- Node6&#45;&gt;Node4 -->
<g id="edge10" class="edge"><title>Node6&#45;&gt;Node4</title>
<path fill="none" stroke="midnightblue" d="M177.141,-168.213C174.3,-146.496 170.092,-89.6242 197.5,-56 218.317,-30.4611 255.203,-19.411 282.602,-14.633"/>
<polygon fill="midnightblue" stroke="midnightblue" points="283.237,-18.0766 292.586,-13.0917 282.169,-11.1585 283.237,-18.0766"/>
</g>
<!-- Node7 -->
<g id="node7" class="node"><title>Node7</title>
<g id="a_node7"><a xlink:href="erpc__config__internal_8h_source.html" target="_top" xlink:title="erpc_config_internal.h">
<polygon fill="white" stroke="black" points="39,-112.5 39,-131.5 150,-131.5 150,-112.5 39,-112.5"/>
<text text-anchor="middle" x="94.5" y="-119.5" font-family="Helvetica,sans-Serif" font-size="10.00">erpc_config_internal.h</text>
</a>
</g>
</g>
<!-- Node6&#45;&gt;Node7 -->
<g id="edge7" class="edge"><title>Node6&#45;&gt;Node7</title>
<path fill="none" stroke="midnightblue" d="M165.004,-168.324C151.9,-159.9 131.788,-146.971 116.393,-137.074"/>
<polygon fill="midnightblue" stroke="midnightblue" points="118.267,-134.118 107.963,-131.655 114.482,-140.006 118.267,-134.118"/>
</g>
<!-- Node8 -->
<g id="node8" class="node"><title>Node8</title>
<g id="a_node8"><a xlink:href="erpc__config_8h.html" target="_top" xlink:title="erpc_config.h">
<polygon fill="white" stroke="black" points="67.5,-56.5 67.5,-75.5 141.5,-75.5 141.5,-56.5 67.5,-56.5"/>
<text text-anchor="middle" x="104.5" y="-63.5" font-family="Helvetica,sans-Serif" font-size="10.00">erpc_config.h</text>
</a>
</g>
</g>
<!-- Node7&#45;&gt;Node8 -->
<g id="edge8" class="edge"><title>Node7&#45;&gt;Node8</title>
<path fill="none" stroke="midnightblue" d="M96.1513,-112.083C97.4764,-104.927 99.3824,-94.6353 101.039,-85.6911"/>
<polygon fill="midnightblue" stroke="midnightblue" points="104.5,-86.2212 102.879,-75.7511 97.617,-84.9466 104.5,-86.2212"/>
</g>
<!-- Node9 -->
<g id="node9" class="node"><title>Node9</title>
<polygon fill="white" stroke="#bfbfbf" points="0,-56.5 0,-75.5 49,-75.5 49,-56.5 0,-56.5"/>
<text text-anchor="middle" x="24.5" y="-63.5" font-family="Helvetica,sans-Serif" font-size="10.00">cassert</text>
</g>
<!-- Node7&#45;&gt;Node9 -->
<g id="edge9" class="edge"><title>Node7&#45;&gt;Node9</title>
<path fill="none" stroke="midnightblue" d="M83.2533,-112.324C72.7026,-104.185 56.6993,-91.8395 44.0578,-82.0874"/>
<polygon fill="midnightblue" stroke="midnightblue" points="46.007,-79.1707 35.9513,-75.8339 41.7314,-84.7132 46.007,-79.1707"/>
</g>
<!-- Node10&#45;&gt;Node2 -->
<g id="edge15" class="edge"><title>Node10&#45;&gt;Node2</title>
<path fill="none" stroke="midnightblue" d="M342.522,-168.324C328.95,-159.9 308.12,-146.971 292.175,-137.074"/>
<polygon fill="midnightblue" stroke="midnightblue" points="293.786,-133.954 283.443,-131.655 290.094,-139.902 293.786,-133.954"/>
</g>
<!-- Node10&#45;&gt;Node3 -->
<g id="edge12" class="edge"><title>Node10&#45;&gt;Node3</title>
<path fill="none" stroke="midnightblue" d="M356.265,-168.368C355.78,-150.617 354.664,-109.666 354.007,-85.5974"/>
<polygon fill="midnightblue" stroke="midnightblue" points="357.506,-85.4922 353.734,-75.5914 350.508,-85.6832 357.506,-85.4922"/>
</g>
<!-- Node11 -->
<g id="node11" class="node"><title>Node11</title>
<g id="a_node11"><a xlink:href="erpc__crc16_8h.html" target="_top" xlink:title="erpc_crc16.h">
<polygon fill="white" stroke="black" points="385,-112.5 385,-131.5 458,-131.5 458,-112.5 385,-112.5"/>
<text text-anchor="middle" x="421.5" y="-119.5" font-family="Helvetica,sans-Serif" font-size="10.00">erpc_crc16.h</text>
</a>
</g>
</g>
<!-- Node10&#45;&gt;Node11 -->
<g id="edge13" class="edge"><title>Node10&#45;&gt;Node11</title>
<path fill="none" stroke="midnightblue" d="M366.943,-168.324C376.646,-160.263 391.315,-148.077 403,-138.369"/>
<polygon fill="midnightblue" stroke="midnightblue" points="405.411,-140.916 410.867,-131.834 400.938,-135.532 405.411,-140.916"/>
</g>
<!-- Node12 -->
<g id="node12" class="node"><title>Node12</title>
<polygon fill="white" stroke="#bfbfbf" points="476.5,-112.5 476.5,-131.5 522.5,-131.5 522.5,-112.5 476.5,-112.5"/>
<text text-anchor="middle" x="499.5" y="-119.5" font-family="Helvetica,sans-Serif" font-size="10.00">cstring</text>
</g>
<!-- Node10&#45;&gt;Node12 -->
<g id="edge16" class="edge"><title>Node10&#45;&gt;Node12</title>
<path fill="none" stroke="midnightblue" d="M379.159,-168.444C402.902,-159.478 440.409,-145.314 467.238,-135.183"/>
<polygon fill="midnightblue" stroke="midnightblue" points="468.829,-138.324 476.947,-131.516 466.356,-131.775 468.829,-138.324"/>
</g>
<!-- Node11&#45;&gt;Node4 -->
<g id="edge14" class="edge"><title>Node11&#45;&gt;Node4</title>
<path fill="none" stroke="midnightblue" d="M421.565,-112.446C421.232,-99.0092 418.774,-72.7646 405.5,-56 391.956,-38.8949 370.158,-27.6803 351.645,-20.7245"/>
<polygon fill="midnightblue" stroke="midnightblue" points="352.645,-17.3662 342.05,-17.3773 350.339,-23.9756 352.645,-17.3662"/>
</g>
</g>
</svg>
