<?xml version="1.0" encoding="UTF-8" standalone="no"?>
<!DOCTYPE svg PUBLIC "-//W3C//DTD SVG 1.1//EN"
 "http://www.w3.org/Graphics/SVG/1.1/DTD/svg11.dtd">
<!-- Generated by graphviz version 2.38.0 (20140413.2041)
 -->
<!-- Title: erpc_message_buffer.h Pages: 1 -->
<svg width="2263pt" height="285pt"
 viewBox="0.00 0.00 2263.00 285.00" xmlns="http://www.w3.org/2000/svg" xmlns:xlink="http://www.w3.org/1999/xlink">
<g id="graph0" class="graph" transform="scale(1 1) rotate(0) translate(4 281)">
<title>erpc_message_buffer.h</title>
<polygon fill="white" stroke="none" points="-4,4 -4,-281 2259,-281 2259,4 -4,4"/>
<!-- Node1 -->
<g id="node1" class="node"><title>Node1</title>
<polygon fill="#bfbfbf" stroke="black" points="1726.5,-257.5 1726.5,-276.5 1843.5,-276.5 1843.5,-257.5 1726.5,-257.5"/>
<text text-anchor="middle" x="1785" y="-264.5" font-family="Helvetica,sans-Serif" font-size="10.00">erpc_message_buffer.h</text>
</g>
<!-- Node2 -->
<g id="node2" class="node"><title>Node2</title>
<g id="a_node2"><a xlink:href="erpc__codec_8h.html" target="_top" xlink:title="erpc_codec.h">
<polygon fill="white" stroke="black" points="431.5,-140 431.5,-159 506.5,-159 506.5,-140 431.5,-140"/>
<text text-anchor="middle" x="469" y="-147" font-family="Helvetica,sans-Serif" font-size="10.00">erpc_codec.h</text>
</a>
</g>
</g>
<!-- Node1&#45;&gt;Node2 -->
<g id="edge1" class="edge"><title>Node1&#45;&gt;Node2</title>
<path fill="none" stroke="midnightblue" d="M1716.03,-259.947C1476.92,-238.961 688.198,-169.738 506.544,-153.795"/>
<polygon fill="midnightblue" stroke="midnightblue" points="1716.06,-263.463 1726.33,-260.851 1716.67,-256.49 1716.06,-263.463"/>
</g>
<!-- Node11 -->
<g id="node11" class="node"><title>Node11</title>
<g id="a_node11"><a xlink:href="erpc__transport_8h.html" target="_top" xlink:title="erpc_transport.h">
<polygon fill="white" stroke="black" points="1653.5,-201.5 1653.5,-220.5 1740.5,-220.5 1740.5,-201.5 1653.5,-201.5"/>
<text text-anchor="middle" x="1697" y="-208.5" font-family="Helvetica,sans-Serif" font-size="10.00">erpc_transport.h</text>
</a>
</g>
</g>
<!-- Node1&#45;&gt;Node11 -->
<g id="edge11" class="edge"><title>Node1&#45;&gt;Node11</title>
<path fill="none" stroke="midnightblue" d="M1762.02,-251.901C1745.89,-241.999 1724.82,-229.071 1711.1,-220.655"/>
<polygon fill="midnightblue" stroke="midnightblue" points="1760.51,-255.077 1770.86,-257.324 1764.17,-249.111 1760.51,-255.077"/>
</g>
<!-- Node12 -->
<g id="node12" class="node"><title>Node12</title>
<g id="a_node12"><a xlink:href="erpc__framed__transport_8h.html" target="_top" xlink:title="erpc_framed_transport.h">
<polygon fill="white" stroke="black" points="1127,-140 1127,-159 1249,-159 1249,-140 1127,-140"/>
<text text-anchor="middle" x="1188" y="-147" font-family="Helvetica,sans-Serif" font-size="10.00">erpc_framed_transport.h</text>
</a>
</g>
</g>
<!-- Node1&#45;&gt;Node12 -->
<g id="edge30" class="edge"><title>Node1&#45;&gt;Node12</title>
<path fill="none" stroke="midnightblue" d="M1716.39,-262.171C1639.02,-256.883 1509.81,-245.121 1401,-221 1328.94,-205.025 1246.85,-174.07 1209.06,-159.066"/>
<polygon fill="midnightblue" stroke="midnightblue" points="1716.28,-265.671 1726.49,-262.844 1716.74,-258.687 1716.28,-265.671"/>
</g>
<!-- Node21 -->
<g id="node21" class="node"><title>Node21</title>
<g id="a_node21"><a xlink:href="erpc__inter__thread__buffer__transport_8h.html" target="_top" xlink:title="erpc_inter_thread_buffer\l_transport.h">
<polygon fill="white" stroke="black" points="1918,-134.5 1918,-164.5 2038,-164.5 2038,-134.5 1918,-134.5"/>
<text text-anchor="start" x="1926" y="-152.5" font-family="Helvetica,sans-Serif" font-size="10.00">erpc_inter_thread_buffer</text>
<text text-anchor="middle" x="1978" y="-141.5" font-family="Helvetica,sans-Serif" font-size="10.00">_transport.h</text>
</a>
</g>
</g>
<!-- Node1&#45;&gt;Node21 -->
<g id="edge31" class="edge"><title>Node1&#45;&gt;Node21</title>
<path fill="none" stroke="midnightblue" d="M1808.12,-252.166C1845.13,-230.017 1917.3,-186.828 1954.53,-164.545"/>
<polygon fill="midnightblue" stroke="midnightblue" points="1806.29,-249.18 1799.51,-257.319 1809.88,-255.187 1806.29,-249.18"/>
</g>
<!-- Node22 -->
<g id="node22" class="node"><title>Node22</title>
<g id="a_node22"><a xlink:href="erpc__mu__transport_8h.html" target="_top" xlink:title="erpc_mu_transport.h">
<polygon fill="white" stroke="black" points="2056,-140 2056,-159 2162,-159 2162,-140 2056,-140"/>
<text text-anchor="middle" x="2109" y="-147" font-family="Helvetica,sans-Serif" font-size="10.00">erpc_mu_transport.h</text>
</a>
</g>
</g>
<!-- Node1&#45;&gt;Node22 -->
<g id="edge32" class="edge"><title>Node1&#45;&gt;Node22</title>
<path fill="none" stroke="midnightblue" d="M1818.54,-254.045C1884.03,-230.697 2027.54,-179.539 2084.75,-159.143"/>
<polygon fill="midnightblue" stroke="midnightblue" points="1817.33,-250.758 1809.09,-257.413 1819.68,-257.352 1817.33,-250.758"/>
</g>
<!-- Node25 -->
<g id="node25" class="node"><title>Node25</title>
<g id="a_node25"><a xlink:href="erpc__rpmsg__lite__rtos__transport_8h.html" target="_top" xlink:title="erpc_rpmsg_lite_rtos\l_transport.h">
<polygon fill="white" stroke="black" points="1705.5,-67.5 1705.5,-97.5 1812.5,-97.5 1812.5,-67.5 1705.5,-67.5"/>
<text text-anchor="start" x="1713.5" y="-85.5" font-family="Helvetica,sans-Serif" font-size="10.00">erpc_rpmsg_lite_rtos</text>
<text text-anchor="middle" x="1759" y="-74.5" font-family="Helvetica,sans-Serif" font-size="10.00">_transport.h</text>
</a>
</g>
</g>
<!-- Node1&#45;&gt;Node25 -->
<g id="edge33" class="edge"><title>Node1&#45;&gt;Node25</title>
<path fill="none" stroke="midnightblue" d="M1716.31,-265.641C1642.5,-261.113 1528.35,-241.232 1473,-165 1464.9,-153.851 1464.15,-144.555 1473,-134 1487.78,-116.376 1626.84,-98.2151 1705.47,-89.2397"/>
<polygon fill="midnightblue" stroke="midnightblue" points="1716.27,-269.144 1726.44,-266.183 1716.64,-262.154 1716.27,-269.144"/>
</g>
<!-- Node26 -->
<g id="node26" class="node"><title>Node26</title>
<g id="a_node26"><a xlink:href="erpc__rpmsg__lite__transport_8h.html" target="_top" xlink:title="erpc_rpmsg_lite_transport.h">
<polygon fill="white" stroke="black" points="1941.5,-73 1941.5,-92 2078.5,-92 2078.5,-73 1941.5,-73"/>
<text text-anchor="middle" x="2010" y="-80" font-family="Helvetica,sans-Serif" font-size="10.00">erpc_rpmsg_lite_transport.h</text>
</a>
</g>
</g>
<!-- Node1&#45;&gt;Node26 -->
<g id="edge34" class="edge"><title>Node1&#45;&gt;Node26</title>
<path fill="none" stroke="midnightblue" d="M1853.86,-258.016C1954.11,-244.815 2132.53,-214.83 2171,-165 2202.11,-124.702 2128.85,-102.725 2071.19,-92.0472"/>
<polygon fill="midnightblue" stroke="midnightblue" points="1853.28,-254.561 1843.81,-259.317 1854.18,-261.503 1853.28,-254.561"/>
</g>
<!-- Node27 -->
<g id="node27" class="node"><title>Node27</title>
<g id="a_node27"><a xlink:href="erpc__rpmsg__tty__rtos__transport_8h.html" target="_top" xlink:title="erpc_rpmsg_tty_rtos\l_transport.h">
<polygon fill="white" stroke="black" points="2149,-67.5 2149,-97.5 2255,-97.5 2255,-67.5 2149,-67.5"/>
<text text-anchor="start" x="2157" y="-85.5" font-family="Helvetica,sans-Serif" font-size="10.00">erpc_rpmsg_tty_rtos</text>
<text text-anchor="middle" x="2202" y="-74.5" font-family="Helvetica,sans-Serif" font-size="10.00">_transport.h</text>
</a>
</g>
</g>
<!-- Node1&#45;&gt;Node27 -->
<g id="edge35" class="edge"><title>Node1&#45;&gt;Node27</title>
<path fill="none" stroke="midnightblue" d="M1853.7,-264.083C1918.24,-260.441 2016.65,-250.097 2097,-221 2141.65,-204.83 2161.4,-204.338 2188,-165 2201.75,-144.664 2203.38,-115.132 2202.94,-97.7625"/>
<polygon fill="midnightblue" stroke="midnightblue" points="1853.44,-260.591 1843.64,-264.611 1853.81,-267.581 1853.44,-260.591"/>
</g>
<!-- Node3 -->
<g id="node3" class="node"><title>Node3</title>
<g id="a_node3"><a xlink:href="erpc__client__manager_8h.html" target="_top" xlink:title="erpc_client_manager.h">
<polygon fill="white" stroke="black" points="243.5,-73 243.5,-92 358.5,-92 358.5,-73 243.5,-73"/>
<text text-anchor="middle" x="301" y="-80" font-family="Helvetica,sans-Serif" font-size="10.00">erpc_client_manager.h</text>
</a>
</g>
</g>
<!-- Node2&#45;&gt;Node3 -->
<g id="edge2" class="edge"><title>Node2&#45;&gt;Node3</title>
<path fill="none" stroke="midnightblue" d="M436.961,-136.104C403.605,-123.198 352.246,-103.327 323.134,-92.0637"/>
<polygon fill="midnightblue" stroke="midnightblue" points="436.102,-139.524 446.691,-139.869 438.628,-132.996 436.102,-139.524"/>
</g>
<!-- Node5 -->
<g id="node5" class="node"><title>Node5</title>
<g id="a_node5"><a xlink:href="erpc__transport__arbitrator_8h.html" target="_top" xlink:title="erpc_transport_arbitrator.h">
<polygon fill="white" stroke="black" points="502.5,-6 502.5,-25 633.5,-25 633.5,-6 502.5,-6"/>
<text text-anchor="middle" x="568" y="-13" font-family="Helvetica,sans-Serif" font-size="10.00">erpc_transport_arbitrator.h</text>
</a>
</g>
</g>
<!-- Node2&#45;&gt;Node5 -->
<g id="edge7" class="edge"><title>Node2&#45;&gt;Node5</title>
<path fill="none" stroke="midnightblue" d="M481.182,-131.219C492.966,-114.613 511.425,-88.8829 528,-67 539.21,-52.2001 552.701,-35.36 560.801,-25.3486"/>
<polygon fill="midnightblue" stroke="midnightblue" points="477.998,-129.66 475.08,-139.845 483.713,-133.702 477.998,-129.66"/>
</g>
<!-- Node8 -->
<g id="node8" class="node"><title>Node8</title>
<g id="a_node8"><a xlink:href="erpc__basic__codec_8h.html" target="_top" xlink:title="erpc_basic_codec.h">
<polygon fill="white" stroke="black" points="377,-73 377,-92 481,-92 481,-73 377,-73"/>
<text text-anchor="middle" x="429" y="-80" font-family="Helvetica,sans-Serif" font-size="10.00">erpc_basic_codec.h</text>
</a>
</g>
</g>
<!-- Node2&#45;&gt;Node8 -->
<g id="edge8" class="edge"><title>Node2&#45;&gt;Node8</title>
<path fill="none" stroke="midnightblue" d="M458.252,-131.035C450.508,-118.45 440.389,-102.007 434.309,-92.1273"/>
<polygon fill="midnightblue" stroke="midnightblue" points="455.384,-133.052 463.605,-139.734 461.345,-129.383 455.384,-133.052"/>
</g>
<!-- Node9 -->
<g id="node9" class="node"><title>Node9</title>
<g id="a_node9"><a xlink:href="erpc__server_8h.html" target="_top" xlink:title="erpc_server.h">
<polygon fill="white" stroke="black" points="84,-73 84,-92 158,-92 158,-73 84,-73"/>
<text text-anchor="middle" x="121" y="-80" font-family="Helvetica,sans-Serif" font-size="10.00">erpc_server.h</text>
</a>
</g>
</g>
<!-- Node2&#45;&gt;Node9 -->
<g id="edge9" class="edge"><title>Node2&#45;&gt;Node9</title>
<path fill="none" stroke="midnightblue" d="M421.536,-139.635C351.461,-126.546 221.77,-102.322 158.153,-90.4395"/>
<polygon fill="midnightblue" stroke="midnightblue" points="420.955,-143.086 431.427,-141.482 422.24,-136.205 420.955,-143.086"/>
</g>
<!-- Node4 -->
<g id="node4" class="node"><title>Node4</title>
<g id="a_node4"><a xlink:href="erpc__arbitrated__client__manager_8h.html" target="_top" xlink:title="erpc_arbitrated_client\l_manager.h">
<polygon fill="white" stroke="black" points="246,-0.5 246,-30.5 356,-30.5 356,-0.5 246,-0.5"/>
<text text-anchor="start" x="254" y="-18.5" font-family="Helvetica,sans-Serif" font-size="10.00">erpc_arbitrated_client</text>
<text text-anchor="middle" x="301" y="-7.5" font-family="Helvetica,sans-Serif" font-size="10.00">_manager.h</text>
</a>
</g>
</g>
<!-- Node3&#45;&gt;Node4 -->
<g id="edge3" class="edge"><title>Node3&#45;&gt;Node4</title>
<path fill="none" stroke="midnightblue" d="M301,-62.4107C301,-52.222 301,-39.901 301,-30.589"/>
<polygon fill="midnightblue" stroke="midnightblue" points="297.5,-62.7338 301,-72.7338 304.5,-62.7338 297.5,-62.7338"/>
</g>
<!-- Node3&#45;&gt;Node5 -->
<g id="edge4" class="edge"><title>Node3&#45;&gt;Node5</title>
<path fill="none" stroke="midnightblue" d="M345.921,-70.5642C398.558,-57.7499 484.676,-36.7848 532.742,-25.0834"/>
<polygon fill="midnightblue" stroke="midnightblue" points="345.068,-67.1694 336.18,-72.9355 346.724,-73.9708 345.068,-67.1694"/>
</g>
<!-- Node6 -->
<g id="node6" class="node"><title>Node6</title>
<g id="a_node6"><a xlink:href="erpc__arbitrated__client__setup_8h.html" target="_top" xlink:title="erpc_arbitrated_client\l_setup.h">
<polygon fill="white" stroke="black" points="374,-0.5 374,-30.5 484,-30.5 484,-0.5 374,-0.5"/>
<text text-anchor="start" x="382" y="-18.5" font-family="Helvetica,sans-Serif" font-size="10.00">erpc_arbitrated_client</text>
<text text-anchor="middle" x="429" y="-7.5" font-family="Helvetica,sans-Serif" font-size="10.00">_setup.h</text>
</a>
</g>
</g>
<!-- Node3&#45;&gt;Node6 -->
<g id="edge5" class="edge"><title>Node3&#45;&gt;Node6</title>
<path fill="none" stroke="midnightblue" d="M327.202,-68.1944C348.733,-57.2607 379.158,-41.8102 401.132,-30.6516"/>
<polygon fill="midnightblue" stroke="midnightblue" points="325.329,-65.22 317.997,-72.8685 328.498,-71.4614 325.329,-65.22"/>
</g>
<!-- Node7 -->
<g id="node7" class="node"><title>Node7</title>
<g id="a_node7"><a xlink:href="erpc__client__setup_8h.html" target="_top" xlink:title="erpc_client_setup.h">
<polygon fill="white" stroke="black" points="126.5,-6 126.5,-25 227.5,-25 227.5,-6 126.5,-6"/>
<text text-anchor="middle" x="177" y="-13" font-family="Helvetica,sans-Serif" font-size="10.00">erpc_client_setup.h</text>
</a>
</g>
</g>
<!-- Node3&#45;&gt;Node7 -->
<g id="edge6" class="edge"><title>Node3&#45;&gt;Node7</title>
<path fill="none" stroke="midnightblue" d="M275.443,-68.1034C250.887,-55.2309 214.505,-36.16 193.534,-25.1672"/>
<polygon fill="midnightblue" stroke="midnightblue" points="274.052,-71.3256 284.534,-72.8685 277.302,-65.1258 274.052,-71.3256"/>
</g>
<!-- Node10 -->
<g id="node10" class="node"><title>Node10</title>
<g id="a_node10"><a xlink:href="erpc__simple__server_8h.html" target="_top" xlink:title="erpc_simple_server.h">
<polygon fill="white" stroke="black" points="0,-6 0,-25 108,-25 108,-6 0,-6"/>
<text text-anchor="middle" x="54" y="-13" font-family="Helvetica,sans-Serif" font-size="10.00">erpc_simple_server.h</text>
</a>
</g>
</g>
<!-- Node9&#45;&gt;Node10 -->
<g id="edge10" class="edge"><title>Node9&#45;&gt;Node10</title>
<path fill="none" stroke="midnightblue" d="M104.504,-65.4968C91.365,-52.7496 73.4761,-35.3947 62.8928,-25.1273"/>
<polygon fill="midnightblue" stroke="midnightblue" points="102.35,-68.2827 111.964,-72.7338 107.224,-63.2586 102.35,-68.2827"/>
</g>
<!-- Node11&#45;&gt;Node2 -->
<g id="edge12" class="edge"><title>Node11&#45;&gt;Node2</title>
<path fill="none" stroke="midnightblue" d="M1643.21,-207.394C1434.87,-197.299 683.766,-160.906 506.62,-152.323"/>
<polygon fill="midnightblue" stroke="midnightblue" points="1643.14,-210.894 1653.29,-207.882 1643.48,-203.902 1643.14,-210.894"/>
</g>
<!-- Node11&#45;&gt;Node5 -->
<g id="edge13" class="edge"><title>Node11&#45;&gt;Node5</title>
<path fill="none" stroke="midnightblue" d="M1642.69,-206.794C1583.39,-202.026 1494.04,-190.691 1473,-165 1422.58,-103.444 1545.62,-135.669 1572,-98 1579.9,-86.7151 1581.49,-76.9841 1572,-67 1539.64,-32.9716 851.891,-20.4643 633.76,-17.3447"/>
<polygon fill="midnightblue" stroke="midnightblue" points="1642.78,-210.311 1653.02,-207.583 1643.32,-203.332 1642.78,-210.311"/>
</g>
<!-- Node11&#45;&gt;Node12 -->
<g id="edge14" class="edge"><title>Node11&#45;&gt;Node12</title>
<path fill="none" stroke="midnightblue" d="M1643.15,-203.705C1547.67,-192.544 1349.36,-169.363 1249,-157.631"/>
<polygon fill="midnightblue" stroke="midnightblue" points="1642.82,-207.191 1653.16,-204.876 1643.64,-200.238 1642.82,-207.191"/>
</g>
<!-- Node20 -->
<g id="node20" class="node"><title>Node20</title>
<g id="a_node20"><a xlink:href="erpc__message__loggers_8h.html" target="_top" xlink:title="erpc_message_loggers.h">
<polygon fill="white" stroke="black" points="1481.5,-140 1481.5,-159 1606.5,-159 1606.5,-140 1481.5,-140"/>
<text text-anchor="middle" x="1544" y="-147" font-family="Helvetica,sans-Serif" font-size="10.00">erpc_message_loggers.h</text>
</a>
</g>
</g>
<!-- Node11&#45;&gt;Node20 -->
<g id="edge22" class="edge"><title>Node11&#45;&gt;Node20</title>
<path fill="none" stroke="midnightblue" d="M1665.58,-197.782C1635.85,-186.22 1591.99,-169.164 1565.88,-159.009"/>
<polygon fill="midnightblue" stroke="midnightblue" points="1664.49,-201.113 1675.08,-201.475 1667.03,-194.589 1664.49,-201.113"/>
</g>
<!-- Node11&#45;&gt;Node21 -->
<g id="edge23" class="edge"><title>Node11&#45;&gt;Node21</title>
<path fill="none" stroke="midnightblue" d="M1747.08,-199.396C1794.9,-189.271 1867.01,-174.001 1917.91,-163.224"/>
<polygon fill="midnightblue" stroke="midnightblue" points="1746.32,-195.979 1737.26,-201.475 1747.77,-202.828 1746.32,-195.979"/>
</g>
<!-- Node11&#45;&gt;Node22 -->
<g id="edge24" class="edge"><title>Node11&#45;&gt;Node22</title>
<path fill="none" stroke="midnightblue" d="M1750.78,-204.806C1819.71,-197.754 1942.78,-183.837 2047,-165 2056.25,-163.329 2066.19,-161.169 2075.34,-159.029"/>
<polygon fill="midnightblue" stroke="midnightblue" points="1750.19,-201.347 1740.6,-205.837 1750.9,-208.311 1750.19,-201.347"/>
</g>
<!-- Node23 -->
<g id="node23" class="node"><title>Node23</title>
<g id="a_node23"><a xlink:href="erpc__rpmsg__linux__transport_8h_source.html" target="_top" xlink:title="erpc_rpmsg_linux_transport.h">
<polygon fill="white" stroke="black" points="1624.5,-140 1624.5,-159 1769.5,-159 1769.5,-140 1624.5,-140"/>
<text text-anchor="middle" x="1697" y="-147" font-family="Helvetica,sans-Serif" font-size="10.00">erpc_rpmsg_linux_transport.h</text>
</a>
</g>
</g>
<!-- Node11&#45;&gt;Node23 -->
<g id="edge25" class="edge"><title>Node11&#45;&gt;Node23</title>
<path fill="none" stroke="midnightblue" d="M1697,-191.317C1697,-180.496 1697,-167.398 1697,-159.009"/>
<polygon fill="midnightblue" stroke="midnightblue" points="1693.5,-191.475 1697,-201.475 1700.5,-191.475 1693.5,-191.475"/>
</g>
<!-- Node24 -->
<g id="node24" class="node"><title>Node24</title>
<g id="a_node24"><a xlink:href="erpc__rpmsg__lite__base__transport_8h.html" target="_top" xlink:title="erpc_rpmsg_lite_base\l_transport.h">
<polygon fill="white" stroke="black" points="1788,-134.5 1788,-164.5 1900,-164.5 1900,-134.5 1788,-134.5"/>
<text text-anchor="start" x="1796" y="-152.5" font-family="Helvetica,sans-Serif" font-size="10.00">erpc_rpmsg_lite_base</text>
<text text-anchor="middle" x="1844" y="-141.5" font-family="Helvetica,sans-Serif" font-size="10.00">_transport.h</text>
</a>
</g>
</g>
<!-- Node11&#45;&gt;Node24 -->
<g id="edge26" class="edge"><title>Node11&#45;&gt;Node24</title>
<path fill="none" stroke="midnightblue" d="M1727.34,-197.719C1751.2,-188.062 1784.45,-174.602 1809.36,-164.523"/>
<polygon fill="midnightblue" stroke="midnightblue" points="1726.02,-194.479 1718.06,-201.475 1728.64,-200.967 1726.02,-194.479"/>
</g>
<!-- Node13 -->
<g id="node13" class="node"><title>Node13</title>
<g id="a_node13"><a xlink:href="erpc__dspi__master__transport_8h.html" target="_top" xlink:title="erpc_dspi_master_transport.h">
<polygon fill="white" stroke="black" points="1417,-73 1417,-92 1563,-92 1563,-73 1417,-73"/>
<text text-anchor="middle" x="1490" y="-80" font-family="Helvetica,sans-Serif" font-size="10.00">erpc_dspi_master_transport.h</text>
</a>
</g>
</g>
<!-- Node12&#45;&gt;Node13 -->
<g id="edge15" class="edge"><title>Node12&#45;&gt;Node13</title>
<path fill="none" stroke="midnightblue" d="M1237.7,-137.803C1297.13,-125.012 1395.41,-103.858 1450.12,-92.0834"/>
<polygon fill="midnightblue" stroke="midnightblue" points="1236.83,-134.41 1227.79,-139.936 1238.3,-141.253 1236.83,-134.41"/>
</g>
<!-- Node14 -->
<g id="node14" class="node"><title>Node14</title>
<g id="a_node14"><a xlink:href="erpc__dspi__slave__transport_8h.html" target="_top" xlink:title="erpc_dspi_slave_transport.h">
<polygon fill="white" stroke="black" points="537.5,-73 537.5,-92 674.5,-92 674.5,-73 537.5,-73"/>
<text text-anchor="middle" x="606" y="-80" font-family="Helvetica,sans-Serif" font-size="10.00">erpc_dspi_slave_transport.h</text>
</a>
</g>
</g>
<!-- Node12&#45;&gt;Node14 -->
<g id="edge16" class="edge"><title>Node12&#45;&gt;Node14</title>
<path fill="none" stroke="midnightblue" d="M1116.83,-143.262C1019.01,-135.633 837.655,-119.941 684,-98 672.41,-96.345 659.917,-94.1905 648.399,-92.0507"/>
<polygon fill="midnightblue" stroke="midnightblue" points="1116.66,-146.759 1126.9,-144.042 1117.2,-139.78 1116.66,-146.759"/>
</g>
<!-- Node15 -->
<g id="node15" class="node"><title>Node15</title>
<g id="a_node15"><a xlink:href="erpc__serial__transport_8h.html" target="_top" xlink:title="erpc_serial_transport.h">
<polygon fill="white" stroke="black" points="693,-73 693,-92 809,-92 809,-73 693,-73"/>
<text text-anchor="middle" x="751" y="-80" font-family="Helvetica,sans-Serif" font-size="10.00">erpc_serial_transport.h</text>
</a>
</g>
</g>
<!-- Node12&#45;&gt;Node15 -->
<g id="edge17" class="edge"><title>Node12&#45;&gt;Node15</title>
<path fill="none" stroke="midnightblue" d="M1116.66,-140.426C1041.96,-131.584 921.361,-116.21 818,-98 808.272,-96.2861 797.809,-94.1593 788.11,-92.0676"/>
<polygon fill="midnightblue" stroke="midnightblue" points="1116.55,-143.937 1126.89,-141.63 1117.36,-136.985 1116.55,-143.937"/>
</g>
<!-- Node16 -->
<g id="node16" class="node"><title>Node16</title>
<g id="a_node16"><a xlink:href="erpc__spi__master__transport_8h.html" target="_top" xlink:title="erpc_spi_master_transport.h">
<polygon fill="white" stroke="black" points="827,-73 827,-92 967,-92 967,-73 827,-73"/>
<text text-anchor="middle" x="897" y="-80" font-family="Helvetica,sans-Serif" font-size="10.00">erpc_spi_master_transport.h</text>
</a>
</g>
</g>
<!-- Node12&#45;&gt;Node16 -->
<g id="edge18" class="edge"><title>Node12&#45;&gt;Node16</title>
<path fill="none" stroke="midnightblue" d="M1139.75,-137.724C1082.45,-124.924 988.031,-103.833 935.427,-92.0834"/>
<polygon fill="midnightblue" stroke="midnightblue" points="1139.14,-141.171 1149.66,-139.936 1140.66,-134.34 1139.14,-141.171"/>
</g>
<!-- Node17 -->
<g id="node17" class="node"><title>Node17</title>
<g id="a_node17"><a xlink:href="erpc__spi__slave__transport_8h.html" target="_top" xlink:title="erpc_spi_slave_transport.h">
<polygon fill="white" stroke="black" points="985,-73 985,-92 1117,-92 1117,-73 985,-73"/>
<text text-anchor="middle" x="1051" y="-80" font-family="Helvetica,sans-Serif" font-size="10.00">erpc_spi_slave_transport.h</text>
</a>
</g>
</g>
<!-- Node12&#45;&gt;Node17 -->
<g id="edge19" class="edge"><title>Node12&#45;&gt;Node17</title>
<path fill="none" stroke="midnightblue" d="M1160.48,-135.444C1133.35,-122.569 1092.64,-103.257 1069.27,-92.1672"/>
<polygon fill="midnightblue" stroke="midnightblue" points="1159.27,-138.744 1169.81,-139.869 1162.27,-132.42 1159.27,-138.744"/>
</g>
<!-- Node18 -->
<g id="node18" class="node"><title>Node18</title>
<g id="a_node18"><a xlink:href="erpc__tcp__transport_8h.html" target="_top" xlink:title="erpc_tcp_transport.h">
<polygon fill="white" stroke="black" points="1135,-73 1135,-92 1241,-92 1241,-73 1135,-73"/>
<text text-anchor="middle" x="1188" y="-80" font-family="Helvetica,sans-Serif" font-size="10.00">erpc_tcp_transport.h</text>
</a>
</g>
</g>
<!-- Node12&#45;&gt;Node18 -->
<g id="edge20" class="edge"><title>Node12&#45;&gt;Node18</title>
<path fill="none" stroke="midnightblue" d="M1188,-129.537C1188,-117.17 1188,-101.62 1188,-92.1273"/>
<polygon fill="midnightblue" stroke="midnightblue" points="1184.5,-129.734 1188,-139.734 1191.5,-129.734 1184.5,-129.734"/>
</g>
<!-- Node19 -->
<g id="node19" class="node"><title>Node19</title>
<g id="a_node19"><a xlink:href="erpc__uart__cmsis__transport_8h.html" target="_top" xlink:title="erpc_uart_cmsis_transport.h">
<polygon fill="white" stroke="black" points="1259,-73 1259,-92 1399,-92 1399,-73 1259,-73"/>
<text text-anchor="middle" x="1329" y="-80" font-family="Helvetica,sans-Serif" font-size="10.00">erpc_uart_cmsis_transport.h</text>
</a>
</g>
</g>
<!-- Node12&#45;&gt;Node19 -->
<g id="edge21" class="edge"><title>Node12&#45;&gt;Node19</title>
<path fill="none" stroke="midnightblue" d="M1215.96,-135.613C1243.88,-122.739 1286.04,-103.306 1310.2,-92.1672"/>
<polygon fill="midnightblue" stroke="midnightblue" points="1214.34,-132.503 1206.72,-139.869 1217.27,-138.86 1214.34,-132.503"/>
</g>
<!-- Node24&#45;&gt;Node25 -->
<g id="edge27" class="edge"><title>Node24&#45;&gt;Node25</title>
<path fill="none" stroke="midnightblue" d="M1817.41,-128.168C1804.41,-118.228 1789.1,-106.514 1777.41,-97.5765"/>
<polygon fill="midnightblue" stroke="midnightblue" points="1815.49,-131.102 1825.56,-134.396 1819.74,-125.541 1815.49,-131.102"/>
</g>
<!-- Node24&#45;&gt;Node26 -->
<g id="edge28" class="edge"><title>Node24&#45;&gt;Node26</title>
<path fill="none" stroke="midnightblue" d="M1889.66,-130.621C1921.79,-118.04 1963.35,-101.766 1988.27,-92.007"/>
<polygon fill="midnightblue" stroke="midnightblue" points="1888.05,-127.491 1880.02,-134.396 1890.61,-134.009 1888.05,-127.491"/>
</g>
<!-- Node24&#45;&gt;Node27 -->
<g id="edge29" class="edge"><title>Node24&#45;&gt;Node27</title>
<path fill="none" stroke="midnightblue" d="M1910.35,-133.785C1999.55,-116.328 2092.24,-100.943 2148.93,-91.8483"/>
<polygon fill="midnightblue" stroke="midnightblue" points="1909.47,-130.391 1900.33,-135.757 1910.82,-137.259 1909.47,-130.391"/>
</g>
</g>
</svg>
