<?xml version="1.0" encoding="UTF-8" standalone="no"?>
<!DOCTYPE svg PUBLIC "-//W3C//DTD SVG 1.1//EN"
 "http://www.w3.org/Graphics/SVG/1.1/DTD/svg11.dtd">
<!-- Generated by graphviz version 2.38.0 (20140413.2041)
 -->
<!-- Title: erpc_tcp_transport.h Pages: 1 -->
<svg width="502pt" height="308pt"
 viewBox="0.00 0.00 502.28 308.00" xmlns="http://www.w3.org/2000/svg" xmlns:xlink="http://www.w3.org/1999/xlink">
<g id="graph0" class="graph" transform="scale(1 1) rotate(0) translate(4 304)">
<title>erpc_tcp_transport.h</title>
<polygon fill="white" stroke="none" points="-4,4 -4,-304 498.281,-304 498.281,4 -4,4"/>
<!-- Node1 -->
<g id="node1" class="node"><title>Node1</title>
<polygon fill="#bfbfbf" stroke="black" points="113.281,-280.5 113.281,-299.5 219.281,-299.5 219.281,-280.5 113.281,-280.5"/>
<text text-anchor="middle" x="166.281" y="-287.5" font-family="Helvetica,sans-Serif" font-size="10.00">erpc_tcp_transport.h</text>
</g>
<!-- Node2 -->
<g id="node2" class="node"><title>Node2</title>
<g id="a_node2"><a xlink:href="erpc__framed__transport_8h.html" target="_top" xlink:title="erpc_framed_transport.h">
<polygon fill="white" stroke="black" points="150.281,-224.5 150.281,-243.5 272.281,-243.5 272.281,-224.5 150.281,-224.5"/>
<text text-anchor="middle" x="211.281" y="-231.5" font-family="Helvetica,sans-Serif" font-size="10.00">erpc_framed_transport.h</text>
</a>
</g>
</g>
<!-- Node1&#45;&gt;Node2 -->
<g id="edge1" class="edge"><title>Node1&#45;&gt;Node2</title>
<path fill="none" stroke="midnightblue" d="M173.711,-280.083C180.133,-272.377 189.586,-261.033 197.403,-251.653"/>
<polygon fill="midnightblue" stroke="midnightblue" points="200.275,-253.674 203.988,-243.751 194.897,-249.193 200.275,-253.674"/>
</g>
<!-- Node13 -->
<g id="node13" class="node"><title>Node13</title>
<g id="a_node13"><a xlink:href="erpc__threading_8h.html" target="_top" xlink:title="erpc_threading.h">
<polygon fill="white" stroke="black" points="69.7806,-168.5 69.7806,-187.5 158.781,-187.5 158.781,-168.5 69.7806,-168.5"/>
<text text-anchor="middle" x="114.281" y="-175.5" font-family="Helvetica,sans-Serif" font-size="10.00">erpc_threading.h</text>
</a>
</g>
</g>
<!-- Node1&#45;&gt;Node13 -->
<g id="edge20" class="edge"><title>Node1&#45;&gt;Node13</title>
<path fill="none" stroke="midnightblue" d="M160.997,-280.193C155.715,-271.233 147.505,-256.873 141.281,-244 133.725,-228.375 126.242,-210.08 121.077,-196.887"/>
<polygon fill="midnightblue" stroke="midnightblue" points="124.34,-195.619 117.475,-187.549 117.809,-198.139 124.34,-195.619"/>
</g>
<!-- Node3 -->
<g id="node3" class="node"><title>Node3</title>
<g id="a_node3"><a xlink:href="erpc__config__internal_8h_source.html" target="_top" xlink:title="erpc_config_internal.h">
<polygon fill="white" stroke="black" points="53.7806,-112.5 53.7806,-131.5 164.781,-131.5 164.781,-112.5 53.7806,-112.5"/>
<text text-anchor="middle" x="109.281" y="-119.5" font-family="Helvetica,sans-Serif" font-size="10.00">erpc_config_internal.h</text>
</a>
</g>
</g>
<!-- Node2&#45;&gt;Node3 -->
<g id="edge2" class="edge"><title>Node2&#45;&gt;Node3</title>
<path fill="none" stroke="midnightblue" d="M206.628,-224.382C199.325,-211.315 184.241,-186.096 167.281,-168 156.446,-156.44 142.458,-145.496 130.933,-137.295"/>
<polygon fill="midnightblue" stroke="midnightblue" points="132.908,-134.406 122.693,-131.594 128.925,-140.162 132.908,-134.406"/>
</g>
<!-- Node6 -->
<g id="node6" class="node"><title>Node6</title>
<g id="a_node6"><a xlink:href="erpc__message__buffer_8h.html" target="_top" xlink:title="erpc_message_buffer.h">
<polygon fill="white" stroke="black" points="182.781,-112.5 182.781,-131.5 299.781,-131.5 299.781,-112.5 182.781,-112.5"/>
<text text-anchor="middle" x="241.281" y="-119.5" font-family="Helvetica,sans-Serif" font-size="10.00">erpc_message_buffer.h</text>
</a>
</g>
</g>
<!-- Node2&#45;&gt;Node6 -->
<g id="edge5" class="edge"><title>Node2&#45;&gt;Node6</title>
<path fill="none" stroke="midnightblue" d="M213.635,-224.368C218.498,-206.537 229.745,-165.295 236.297,-141.272"/>
<polygon fill="midnightblue" stroke="midnightblue" points="239.683,-142.16 238.937,-131.591 232.93,-140.318 239.683,-142.16"/>
</g>
<!-- Node10 -->
<g id="node10" class="node"><title>Node10</title>
<g id="a_node10"><a xlink:href="erpc__transport_8h.html" target="_top" xlink:title="erpc_transport.h">
<polygon fill="white" stroke="black" points="284.781,-168.5 284.781,-187.5 371.781,-187.5 371.781,-168.5 284.781,-168.5"/>
<text text-anchor="middle" x="328.281" y="-175.5" font-family="Helvetica,sans-Serif" font-size="10.00">erpc_transport.h</text>
</a>
</g>
</g>
<!-- Node2&#45;&gt;Node10 -->
<g id="edge10" class="edge"><title>Node2&#45;&gt;Node10</title>
<path fill="none" stroke="midnightblue" d="M229.82,-224.444C248.903,-215.636 278.855,-201.812 300.716,-191.722"/>
<polygon fill="midnightblue" stroke="midnightblue" points="302.215,-194.885 309.828,-187.516 299.282,-188.529 302.215,-194.885"/>
</g>
<!-- Node12 -->
<g id="node12" class="node"><title>Node12</title>
<polygon fill="white" stroke="#bfbfbf" points="448.281,-112.5 448.281,-131.5 494.281,-131.5 494.281,-112.5 448.281,-112.5"/>
<text text-anchor="middle" x="471.281" y="-119.5" font-family="Helvetica,sans-Serif" font-size="10.00">cstring</text>
</g>
<!-- Node2&#45;&gt;Node12 -->
<g id="edge16" class="edge"><title>Node2&#45;&gt;Node12</title>
<path fill="none" stroke="midnightblue" d="M262.113,-224.437C296.562,-217.453 342.513,-205.791 380.281,-188 408.204,-174.846 436.542,-152.961 454.01,-138.262"/>
<polygon fill="midnightblue" stroke="midnightblue" points="456.354,-140.863 461.662,-131.694 451.794,-135.551 456.354,-140.863"/>
</g>
<!-- Node2&#45;&gt;Node13 -->
<g id="edge17" class="edge"><title>Node2&#45;&gt;Node13</title>
<path fill="none" stroke="midnightblue" d="M195.696,-224.324C180.281,-215.743 156.468,-202.486 138.571,-192.522"/>
<polygon fill="midnightblue" stroke="midnightblue" points="140.266,-189.461 129.827,-187.655 136.861,-195.577 140.266,-189.461"/>
</g>
<!-- Node4 -->
<g id="node4" class="node"><title>Node4</title>
<g id="a_node4"><a xlink:href="erpc__config_8h.html" target="_top" xlink:title="erpc_config.h">
<polygon fill="white" stroke="black" points="86.2806,-56.5 86.2806,-75.5 160.281,-75.5 160.281,-56.5 86.2806,-56.5"/>
<text text-anchor="middle" x="123.281" y="-63.5" font-family="Helvetica,sans-Serif" font-size="10.00">erpc_config.h</text>
</a>
</g>
</g>
<!-- Node3&#45;&gt;Node4 -->
<g id="edge3" class="edge"><title>Node3&#45;&gt;Node4</title>
<path fill="none" stroke="midnightblue" d="M111.592,-112.083C113.448,-104.927 116.116,-94.6353 118.435,-85.6911"/>
<polygon fill="midnightblue" stroke="midnightblue" points="121.89,-86.3094 121.012,-75.7511 115.114,-84.5527 121.89,-86.3094"/>
</g>
<!-- Node5 -->
<g id="node5" class="node"><title>Node5</title>
<polygon fill="white" stroke="#bfbfbf" points="18.7806,-56.5 18.7806,-75.5 67.7806,-75.5 67.7806,-56.5 18.7806,-56.5"/>
<text text-anchor="middle" x="43.2806" y="-63.5" font-family="Helvetica,sans-Serif" font-size="10.00">cassert</text>
</g>
<!-- Node3&#45;&gt;Node5 -->
<g id="edge4" class="edge"><title>Node3&#45;&gt;Node5</title>
<path fill="none" stroke="midnightblue" d="M98.6765,-112.324C88.8244,-104.263 73.9296,-92.0765 62.0655,-82.3695"/>
<polygon fill="midnightblue" stroke="midnightblue" points="64.0335,-79.4575 54.0775,-75.8339 59.6008,-84.8752 64.0335,-79.4575"/>
</g>
<!-- Node7 -->
<g id="node7" class="node"><title>Node7</title>
<g id="a_node7"><a xlink:href="erpc__common_8h_source.html" target="_top" xlink:title="erpc_common.h">
<polygon fill="white" stroke="black" points="282.281,-56.5 282.281,-75.5 368.281,-75.5 368.281,-56.5 282.281,-56.5"/>
<text text-anchor="middle" x="325.281" y="-63.5" font-family="Helvetica,sans-Serif" font-size="10.00">erpc_common.h</text>
</a>
</g>
</g>
<!-- Node6&#45;&gt;Node7 -->
<g id="edge6" class="edge"><title>Node6&#45;&gt;Node7</title>
<path fill="none" stroke="midnightblue" d="M254.777,-112.324C267.88,-103.9 287.992,-90.9709 303.387,-81.0741"/>
<polygon fill="midnightblue" stroke="midnightblue" points="305.299,-84.0063 311.818,-75.6545 301.514,-78.118 305.299,-84.0063"/>
</g>
<!-- Node8 -->
<g id="node8" class="node"><title>Node8</title>
<polygon fill="white" stroke="#bfbfbf" points="264.781,-0.5 264.781,-19.5 313.781,-19.5 313.781,-0.5 264.781,-0.5"/>
<text text-anchor="middle" x="289.281" y="-7.5" font-family="Helvetica,sans-Serif" font-size="10.00">stdint.h</text>
</g>
<!-- Node6&#45;&gt;Node8 -->
<g id="edge9" class="edge"><title>Node6&#45;&gt;Node8</title>
<path fill="none" stroke="midnightblue" d="M245.047,-112.368C252.863,-94.4563 270.987,-52.9233 281.449,-28.9482"/>
<polygon fill="midnightblue" stroke="midnightblue" points="284.74,-30.1566 285.532,-19.5914 278.324,-27.357 284.74,-30.1566"/>
</g>
<!-- Node9 -->
<g id="node9" class="node"><title>Node9</title>
<polygon fill="white" stroke="#bfbfbf" points="178.281,-56.5 178.281,-75.5 226.281,-75.5 226.281,-56.5 178.281,-56.5"/>
<text text-anchor="middle" x="202.281" y="-63.5" font-family="Helvetica,sans-Serif" font-size="10.00">cstddef</text>
</g>
<!-- Node6&#45;&gt;Node9 -->
<g id="edge8" class="edge"><title>Node6&#45;&gt;Node9</title>
<path fill="none" stroke="midnightblue" d="M234.841,-112.083C229.332,-104.455 221.249,-93.2645 214.516,-83.9408"/>
<polygon fill="midnightblue" stroke="midnightblue" points="217.293,-81.8087 208.601,-75.7511 211.618,-85.9071 217.293,-81.8087"/>
</g>
<!-- Node7&#45;&gt;Node8 -->
<g id="edge7" class="edge"><title>Node7&#45;&gt;Node8</title>
<path fill="none" stroke="midnightblue" d="M319.336,-56.083C314.303,-48.5341 306.944,-37.4948 300.767,-28.2298"/>
<polygon fill="midnightblue" stroke="midnightblue" points="303.574,-26.1301 295.115,-19.7511 297.749,-30.0131 303.574,-26.1301"/>
</g>
<!-- Node10&#45;&gt;Node6 -->
<g id="edge14" class="edge"><title>Node10&#45;&gt;Node6</title>
<path fill="none" stroke="midnightblue" d="M314.303,-168.324C300.731,-159.9 279.9,-146.971 263.956,-137.074"/>
<polygon fill="midnightblue" stroke="midnightblue" points="265.566,-133.954 255.224,-131.655 261.875,-139.902 265.566,-133.954"/>
</g>
<!-- Node10&#45;&gt;Node7 -->
<g id="edge11" class="edge"><title>Node10&#45;&gt;Node7</title>
<path fill="none" stroke="midnightblue" d="M328.045,-168.368C327.561,-150.617 326.444,-109.666 325.788,-85.5974"/>
<polygon fill="midnightblue" stroke="midnightblue" points="329.286,-85.4922 325.515,-75.5914 322.289,-85.6832 329.286,-85.4922"/>
</g>
<!-- Node11 -->
<g id="node11" class="node"><title>Node11</title>
<g id="a_node11"><a xlink:href="erpc__crc16_8h.html" target="_top" xlink:title="erpc_crc16.h">
<polygon fill="white" stroke="black" points="356.781,-112.5 356.781,-131.5 429.781,-131.5 429.781,-112.5 356.781,-112.5"/>
<text text-anchor="middle" x="393.281" y="-119.5" font-family="Helvetica,sans-Serif" font-size="10.00">erpc_crc16.h</text>
</a>
</g>
</g>
<!-- Node10&#45;&gt;Node11 -->
<g id="edge12" class="edge"><title>Node10&#45;&gt;Node11</title>
<path fill="none" stroke="midnightblue" d="M338.724,-168.324C348.427,-160.263 363.096,-148.077 374.78,-138.369"/>
<polygon fill="midnightblue" stroke="midnightblue" points="377.192,-140.916 382.647,-131.834 372.719,-135.532 377.192,-140.916"/>
</g>
<!-- Node10&#45;&gt;Node12 -->
<g id="edge15" class="edge"><title>Node10&#45;&gt;Node12</title>
<path fill="none" stroke="midnightblue" d="M350.939,-168.444C374.682,-159.478 412.19,-145.314 439.019,-135.183"/>
<polygon fill="midnightblue" stroke="midnightblue" points="440.609,-138.324 448.728,-131.516 438.136,-131.775 440.609,-138.324"/>
</g>
<!-- Node11&#45;&gt;Node8 -->
<g id="edge13" class="edge"><title>Node11&#45;&gt;Node8</title>
<path fill="none" stroke="midnightblue" d="M393.346,-112.446C393.013,-99.0092 390.555,-72.7646 377.281,-56 363.737,-38.8949 341.938,-27.6803 323.426,-20.7245"/>
<polygon fill="midnightblue" stroke="midnightblue" points="324.425,-17.3662 313.83,-17.3773 322.12,-23.9756 324.425,-17.3662"/>
</g>
<!-- Node13&#45;&gt;Node3 -->
<g id="edge18" class="edge"><title>Node13&#45;&gt;Node3</title>
<path fill="none" stroke="midnightblue" d="M113.455,-168.083C112.8,-161.006 111.86,-150.861 111.039,-141.986"/>
<polygon fill="midnightblue" stroke="midnightblue" points="114.498,-141.386 110.091,-131.751 107.528,-142.031 114.498,-141.386"/>
</g>
<!-- Node13&#45;&gt;Node8 -->
<g id="edge19" class="edge"><title>Node13&#45;&gt;Node8</title>
<path fill="none" stroke="midnightblue" d="M96.5152,-168.39C58.0056,-148.627 -26.8885,-98.4461 9.28056,-56 40.4255,-19.45 186.675,-12.4731 254.534,-11.2225"/>
<polygon fill="midnightblue" stroke="midnightblue" points="254.777,-14.7193 264.722,-11.0673 254.67,-7.72013 254.777,-14.7193"/>
</g>
</g>
</svg>
