<?xml version="1.0" encoding="UTF-8" standalone="no"?>
<!DOCTYPE svg PUBLIC "-//W3C//DTD SVG 1.1//EN"
 "http://www.w3.org/Graphics/SVG/1.1/DTD/svg11.dtd">
<!-- Generated by graphviz version 2.38.0 (20140413.2041)
 -->
<!-- Title: erpc_crc16.h Pages: 1 -->
<svg width="1978pt" height="285pt"
 viewBox="0.00 0.00 1977.50 285.00" xmlns="http://www.w3.org/2000/svg" xmlns:xlink="http://www.w3.org/1999/xlink">
<g id="graph0" class="graph" transform="scale(1 1) rotate(0) translate(4 281)">
<title>erpc_crc16.h</title>
<polygon fill="white" stroke="none" points="-4,4 -4,-281 1973.5,-281 1973.5,4 -4,4"/>
<!-- Node1 -->
<g id="node1" class="node"><title>Node1</title>
<polygon fill="#bfbfbf" stroke="black" points="1594,-257.5 1594,-276.5 1667,-276.5 1667,-257.5 1594,-257.5"/>
<text text-anchor="middle" x="1630.5" y="-264.5" font-family="Helvetica,sans-Serif" font-size="10.00">erpc_crc16.h</text>
</g>
<!-- Node2 -->
<g id="node2" class="node"><title>Node2</title>
<g id="a_node2"><a xlink:href="erpc__transport_8h.html" target="_top" xlink:title="erpc_transport.h">
<polygon fill="white" stroke="black" points="1258,-201.5 1258,-220.5 1345,-220.5 1345,-201.5 1258,-201.5"/>
<text text-anchor="middle" x="1301.5" y="-208.5" font-family="Helvetica,sans-Serif" font-size="10.00">erpc_transport.h</text>
</a>
</g>
</g>
<!-- Node1&#45;&gt;Node2 -->
<g id="edge1" class="edge"><title>Node1&#45;&gt;Node2</title>
<path fill="none" stroke="midnightblue" d="M1583.56,-258.295C1519.87,-247.842 1406.95,-229.309 1345.07,-219.151"/>
<polygon fill="midnightblue" stroke="midnightblue" points="1583.28,-261.797 1593.72,-259.963 1584.42,-254.889 1583.28,-261.797"/>
</g>
<!-- Node27 -->
<g id="node27" class="node"><title>Node27</title>
<g id="a_node27"><a xlink:href="erpc__rpmsg__tty__rtos__transport_8h.html" target="_top" xlink:title="erpc_rpmsg_tty_rtos\l_transport.h">
<polygon fill="white" stroke="black" points="1863.5,-67.5 1863.5,-97.5 1969.5,-97.5 1969.5,-67.5 1863.5,-67.5"/>
<text text-anchor="start" x="1871.5" y="-85.5" font-family="Helvetica,sans-Serif" font-size="10.00">erpc_rpmsg_tty_rtos</text>
<text text-anchor="middle" x="1916.5" y="-74.5" font-family="Helvetica,sans-Serif" font-size="10.00">_transport.h</text>
</a>
</g>
</g>
<!-- Node1&#45;&gt;Node27 -->
<g id="edge31" class="edge"><title>Node1&#45;&gt;Node27</title>
<path fill="none" stroke="midnightblue" d="M1677.48,-266.535C1748.29,-264.478 1880.56,-248.87 1941.5,-165 1956.38,-144.526 1940.22,-115.04 1927.86,-97.717"/>
<polygon fill="midnightblue" stroke="midnightblue" points="1677,-263.044 1667.08,-266.752 1677.15,-270.042 1677,-263.044"/>
</g>
<!-- Node3 -->
<g id="node3" class="node"><title>Node3</title>
<g id="a_node3"><a xlink:href="erpc__codec_8h.html" target="_top" xlink:title="erpc_codec.h">
<polygon fill="white" stroke="black" points="295,-140 295,-159 370,-159 370,-140 295,-140"/>
<text text-anchor="middle" x="332.5" y="-147" font-family="Helvetica,sans-Serif" font-size="10.00">erpc_codec.h</text>
</a>
</g>
</g>
<!-- Node2&#45;&gt;Node3 -->
<g id="edge2" class="edge"><title>Node2&#45;&gt;Node3</title>
<path fill="none" stroke="midnightblue" d="M1247.97,-206.713C1072.82,-195.958 519.483,-161.981 370.021,-152.804"/>
<polygon fill="midnightblue" stroke="midnightblue" points="1247.79,-210.208 1257.98,-207.328 1248.21,-203.221 1247.79,-210.208"/>
</g>
<!-- Node6 -->
<g id="node6" class="node"><title>Node6</title>
<g id="a_node6"><a xlink:href="erpc__transport__arbitrator_8h.html" target="_top" xlink:title="erpc_transport_arbitrator.h">
<polygon fill="white" stroke="black" points="0,-6 0,-25 131,-25 131,-6 0,-6"/>
<text text-anchor="middle" x="65.5" y="-13" font-family="Helvetica,sans-Serif" font-size="10.00">erpc_transport_arbitrator.h</text>
</a>
</g>
</g>
<!-- Node2&#45;&gt;Node6 -->
<g id="edge12" class="edge"><title>Node2&#45;&gt;Node6</title>
<path fill="none" stroke="midnightblue" d="M1247.75,-209.737C1065.56,-208.513 472.334,-201.737 285.5,-165 198.874,-147.967 162.184,-159.144 98.5,-98 77.358,-77.7012 69.3665,-42.0068 66.6921,-25.4283"/>
<polygon fill="midnightblue" stroke="midnightblue" points="1247.87,-213.237 1257.89,-209.802 1247.92,-206.238 1247.87,-213.237"/>
</g>
<!-- Node12 -->
<g id="node12" class="node"><title>Node12</title>
<g id="a_node12"><a xlink:href="erpc__framed__transport_8h.html" target="_top" xlink:title="erpc_framed_transport.h">
<polygon fill="white" stroke="black" points="826.5,-140 826.5,-159 948.5,-159 948.5,-140 826.5,-140"/>
<text text-anchor="middle" x="887.5" y="-147" font-family="Helvetica,sans-Serif" font-size="10.00">erpc_framed_transport.h</text>
</a>
</g>
</g>
<!-- Node2&#45;&gt;Node12 -->
<g id="edge13" class="edge"><title>Node2&#45;&gt;Node12</title>
<path fill="none" stroke="midnightblue" d="M1247.88,-204.234C1180.05,-196.653 1059.75,-182.254 957.5,-165 947.343,-163.286 936.413,-161.159 926.281,-159.068"/>
<polygon fill="midnightblue" stroke="midnightblue" points="1247.58,-207.721 1257.9,-205.347 1248.35,-200.764 1247.58,-207.721"/>
</g>
<!-- Node20 -->
<g id="node20" class="node"><title>Node20</title>
<g id="a_node20"><a xlink:href="erpc__message__loggers_8h.html" target="_top" xlink:title="erpc_message_loggers.h">
<polygon fill="white" stroke="black" points="967,-140 967,-159 1092,-159 1092,-140 967,-140"/>
<text text-anchor="middle" x="1029.5" y="-147" font-family="Helvetica,sans-Serif" font-size="10.00">erpc_message_loggers.h</text>
</a>
</g>
</g>
<!-- Node2&#45;&gt;Node20 -->
<g id="edge21" class="edge"><title>Node2&#45;&gt;Node20</title>
<path fill="none" stroke="midnightblue" d="M1252.72,-199.33C1199.98,-187.792 1116.94,-169.628 1068.4,-159.009"/>
<polygon fill="midnightblue" stroke="midnightblue" points="1252.01,-202.757 1262.53,-201.475 1253.51,-195.919 1252.01,-202.757"/>
</g>
<!-- Node21 -->
<g id="node21" class="node"><title>Node21</title>
<g id="a_node21"><a xlink:href="erpc__inter__thread__buffer__transport_8h.html" target="_top" xlink:title="erpc_inter_thread_buffer\l_transport.h">
<polygon fill="white" stroke="black" points="1110.5,-134.5 1110.5,-164.5 1230.5,-164.5 1230.5,-134.5 1110.5,-134.5"/>
<text text-anchor="start" x="1118.5" y="-152.5" font-family="Helvetica,sans-Serif" font-size="10.00">erpc_inter_thread_buffer</text>
<text text-anchor="middle" x="1170.5" y="-141.5" font-family="Helvetica,sans-Serif" font-size="10.00">_transport.h</text>
</a>
</g>
</g>
<!-- Node2&#45;&gt;Node21 -->
<g id="edge22" class="edge"><title>Node2&#45;&gt;Node21</title>
<path fill="none" stroke="midnightblue" d="M1273.61,-197.331C1252.41,-187.704 1223.27,-174.468 1201.37,-164.523"/>
<polygon fill="midnightblue" stroke="midnightblue" points="1272.18,-200.526 1282.73,-201.475 1275.07,-194.153 1272.18,-200.526"/>
</g>
<!-- Node22 -->
<g id="node22" class="node"><title>Node22</title>
<g id="a_node22"><a xlink:href="erpc__mu__transport_8h.html" target="_top" xlink:title="erpc_mu_transport.h">
<polygon fill="white" stroke="black" points="1248.5,-140 1248.5,-159 1354.5,-159 1354.5,-140 1248.5,-140"/>
<text text-anchor="middle" x="1301.5" y="-147" font-family="Helvetica,sans-Serif" font-size="10.00">erpc_mu_transport.h</text>
</a>
</g>
</g>
<!-- Node2&#45;&gt;Node22 -->
<g id="edge23" class="edge"><title>Node2&#45;&gt;Node22</title>
<path fill="none" stroke="midnightblue" d="M1301.5,-191.317C1301.5,-180.496 1301.5,-167.398 1301.5,-159.009"/>
<polygon fill="midnightblue" stroke="midnightblue" points="1298,-191.475 1301.5,-201.475 1305,-191.475 1298,-191.475"/>
</g>
<!-- Node23 -->
<g id="node23" class="node"><title>Node23</title>
<g id="a_node23"><a xlink:href="erpc__rpmsg__linux__transport_8h_source.html" target="_top" xlink:title="erpc_rpmsg_linux_transport.h">
<polygon fill="white" stroke="black" points="1373,-140 1373,-159 1518,-159 1518,-140 1373,-140"/>
<text text-anchor="middle" x="1445.5" y="-147" font-family="Helvetica,sans-Serif" font-size="10.00">erpc_rpmsg_linux_transport.h</text>
</a>
</g>
</g>
<!-- Node2&#45;&gt;Node23 -->
<g id="edge24" class="edge"><title>Node2&#45;&gt;Node23</title>
<path fill="none" stroke="midnightblue" d="M1331.43,-197.631C1359.41,-186.072 1400.44,-169.12 1424.91,-159.009"/>
<polygon fill="midnightblue" stroke="midnightblue" points="1330.04,-194.422 1322.13,-201.475 1332.71,-200.891 1330.04,-194.422"/>
</g>
<!-- Node24 -->
<g id="node24" class="node"><title>Node24</title>
<g id="a_node24"><a xlink:href="erpc__rpmsg__lite__base__transport_8h.html" target="_top" xlink:title="erpc_rpmsg_lite_base\l_transport.h">
<polygon fill="white" stroke="black" points="1536.5,-134.5 1536.5,-164.5 1648.5,-164.5 1648.5,-134.5 1536.5,-134.5"/>
<text text-anchor="start" x="1544.5" y="-152.5" font-family="Helvetica,sans-Serif" font-size="10.00">erpc_rpmsg_lite_base</text>
<text text-anchor="middle" x="1592.5" y="-141.5" font-family="Helvetica,sans-Serif" font-size="10.00">_transport.h</text>
</a>
</g>
</g>
<!-- Node2&#45;&gt;Node24 -->
<g id="edge25" class="edge"><title>Node2&#45;&gt;Node24</title>
<path fill="none" stroke="midnightblue" d="M1355.07,-199.581C1400.69,-190.637 1467.96,-177.283 1526.5,-165 1529.71,-164.325 1533.02,-163.625 1536.35,-162.912"/>
<polygon fill="midnightblue" stroke="midnightblue" points="1354.25,-196.176 1345.1,-201.532 1355.59,-203.046 1354.25,-196.176"/>
</g>
<!-- Node28 -->
<g id="node28" class="node"><title>Node28</title>
<g id="a_node28"><a xlink:href="rpmsg__linux__transport_8h_8_b_a_s_e_8h_source.html" target="_top" xlink:title="rpmsg_linux_transport.h.\lBASE.h">
<polygon fill="white" stroke="black" points="1666.5,-134.5 1666.5,-164.5 1790.5,-164.5 1790.5,-134.5 1666.5,-134.5"/>
<text text-anchor="start" x="1674.5" y="-152.5" font-family="Helvetica,sans-Serif" font-size="10.00">rpmsg_linux_transport.h.</text>
<text text-anchor="middle" x="1728.5" y="-141.5" font-family="Helvetica,sans-Serif" font-size="10.00">BASE.h</text>
</a>
</g>
</g>
<!-- Node2&#45;&gt;Node28 -->
<g id="edge29" class="edge"><title>Node2&#45;&gt;Node28</title>
<path fill="none" stroke="midnightblue" d="M1355.54,-204.457C1425.46,-196.991 1550.95,-182.589 1657.5,-165 1660.35,-164.529 1663.27,-164.025 1666.21,-163.499"/>
<polygon fill="midnightblue" stroke="midnightblue" points="1354.8,-201.016 1345.22,-205.552 1355.54,-207.977 1354.8,-201.016"/>
</g>
<!-- Node29 -->
<g id="node29" class="node"><title>Node29</title>
<g id="a_node29"><a xlink:href="rpmsg__linux__transport_8h_8_r_e_m_o_t_e_8h_source.html" target="_top" xlink:title="rpmsg_linux_transport.h.\lREMOTE.h">
<polygon fill="white" stroke="black" points="1808.5,-134.5 1808.5,-164.5 1932.5,-164.5 1932.5,-134.5 1808.5,-134.5"/>
<text text-anchor="start" x="1816.5" y="-152.5" font-family="Helvetica,sans-Serif" font-size="10.00">rpmsg_linux_transport.h.</text>
<text text-anchor="middle" x="1870.5" y="-141.5" font-family="Helvetica,sans-Serif" font-size="10.00">REMOTE.h</text>
</a>
</g>
</g>
<!-- Node2&#45;&gt;Node29 -->
<g id="edge30" class="edge"><title>Node2&#45;&gt;Node29</title>
<path fill="none" stroke="midnightblue" d="M1355.47,-207.098C1447.11,-201.73 1638.85,-188.588 1799.5,-165 1802.36,-164.58 1805.28,-164.118 1808.23,-163.625"/>
<polygon fill="midnightblue" stroke="midnightblue" points="1355.11,-203.613 1345.33,-207.684 1355.51,-210.601 1355.11,-203.613"/>
</g>
<!-- Node4 -->
<g id="node4" class="node"><title>Node4</title>
<g id="a_node4"><a xlink:href="erpc__client__manager_8h.html" target="_top" xlink:title="erpc_client_manager.h">
<polygon fill="white" stroke="black" points="147,-73 147,-92 262,-92 262,-73 147,-73"/>
<text text-anchor="middle" x="204.5" y="-80" font-family="Helvetica,sans-Serif" font-size="10.00">erpc_client_manager.h</text>
</a>
</g>
</g>
<!-- Node3&#45;&gt;Node4 -->
<g id="edge3" class="edge"><title>Node3&#45;&gt;Node4</title>
<path fill="none" stroke="midnightblue" d="M306.455,-135.274C281.103,-122.4 243.311,-103.209 221.568,-92.1672"/>
<polygon fill="midnightblue" stroke="midnightblue" points="305.002,-138.461 315.503,-139.869 308.171,-132.22 305.002,-138.461"/>
</g>
<!-- Node3&#45;&gt;Node6 -->
<g id="edge8" class="edge"><title>Node3&#45;&gt;Node6</title>
<path fill="none" stroke="midnightblue" d="M284.623,-144.044C243.145,-138.407 182.841,-125.818 137.5,-98 106.28,-78.8459 81.0299,-41.9184 70.6303,-25.1552"/>
<polygon fill="midnightblue" stroke="midnightblue" points="284.38,-147.541 294.742,-145.332 285.264,-140.597 284.38,-147.541"/>
</g>
<!-- Node9 -->
<g id="node9" class="node"><title>Node9</title>
<g id="a_node9"><a xlink:href="erpc__basic__codec_8h.html" target="_top" xlink:title="erpc_basic_codec.h">
<polygon fill="white" stroke="black" points="280.5,-73 280.5,-92 384.5,-92 384.5,-73 280.5,-73"/>
<text text-anchor="middle" x="332.5" y="-80" font-family="Helvetica,sans-Serif" font-size="10.00">erpc_basic_codec.h</text>
</a>
</g>
</g>
<!-- Node3&#45;&gt;Node9 -->
<g id="edge9" class="edge"><title>Node3&#45;&gt;Node9</title>
<path fill="none" stroke="midnightblue" d="M332.5,-129.537C332.5,-117.17 332.5,-101.62 332.5,-92.1273"/>
<polygon fill="midnightblue" stroke="midnightblue" points="329,-129.734 332.5,-139.734 336,-129.734 329,-129.734"/>
</g>
<!-- Node10 -->
<g id="node10" class="node"><title>Node10</title>
<g id="a_node10"><a xlink:href="erpc__server_8h.html" target="_top" xlink:title="erpc_server.h">
<polygon fill="white" stroke="black" points="402.5,-73 402.5,-92 476.5,-92 476.5,-73 402.5,-73"/>
<text text-anchor="middle" x="439.5" y="-80" font-family="Helvetica,sans-Serif" font-size="10.00">erpc_server.h</text>
</a>
</g>
</g>
<!-- Node3&#45;&gt;Node10 -->
<g id="edge10" class="edge"><title>Node3&#45;&gt;Node10</title>
<path fill="none" stroke="midnightblue" d="M355.641,-134.442C376.831,-121.57 407.519,-102.927 425.298,-92.1273"/>
<polygon fill="midnightblue" stroke="midnightblue" points="353.66,-131.551 346.93,-139.734 357.294,-137.533 353.66,-131.551"/>
</g>
<!-- Node5 -->
<g id="node5" class="node"><title>Node5</title>
<g id="a_node5"><a xlink:href="erpc__arbitrated__client__manager_8h.html" target="_top" xlink:title="erpc_arbitrated_client\l_manager.h">
<polygon fill="white" stroke="black" points="149.5,-0.5 149.5,-30.5 259.5,-30.5 259.5,-0.5 149.5,-0.5"/>
<text text-anchor="start" x="157.5" y="-18.5" font-family="Helvetica,sans-Serif" font-size="10.00">erpc_arbitrated_client</text>
<text text-anchor="middle" x="204.5" y="-7.5" font-family="Helvetica,sans-Serif" font-size="10.00">_manager.h</text>
</a>
</g>
</g>
<!-- Node4&#45;&gt;Node5 -->
<g id="edge4" class="edge"><title>Node4&#45;&gt;Node5</title>
<path fill="none" stroke="midnightblue" d="M204.5,-62.4107C204.5,-52.222 204.5,-39.901 204.5,-30.589"/>
<polygon fill="midnightblue" stroke="midnightblue" points="201,-62.7338 204.5,-72.7338 208,-62.7338 201,-62.7338"/>
</g>
<!-- Node4&#45;&gt;Node6 -->
<g id="edge5" class="edge"><title>Node4&#45;&gt;Node6</title>
<path fill="none" stroke="midnightblue" d="M176.941,-68.6127C149.41,-55.7387 107.854,-36.3059 84.0345,-25.1672"/>
<polygon fill="midnightblue" stroke="midnightblue" points="175.501,-71.8029 186.042,-72.8685 178.466,-65.462 175.501,-71.8029"/>
</g>
<!-- Node7 -->
<g id="node7" class="node"><title>Node7</title>
<g id="a_node7"><a xlink:href="erpc__arbitrated__client__setup_8h.html" target="_top" xlink:title="erpc_arbitrated_client\l_setup.h">
<polygon fill="white" stroke="black" points="277.5,-0.5 277.5,-30.5 387.5,-30.5 387.5,-0.5 277.5,-0.5"/>
<text text-anchor="start" x="285.5" y="-18.5" font-family="Helvetica,sans-Serif" font-size="10.00">erpc_arbitrated_client</text>
<text text-anchor="middle" x="332.5" y="-7.5" font-family="Helvetica,sans-Serif" font-size="10.00">_setup.h</text>
</a>
</g>
</g>
<!-- Node4&#45;&gt;Node7 -->
<g id="edge6" class="edge"><title>Node4&#45;&gt;Node7</title>
<path fill="none" stroke="midnightblue" d="M230.702,-68.1944C252.233,-57.2607 282.658,-41.8102 304.632,-30.6516"/>
<polygon fill="midnightblue" stroke="midnightblue" points="228.829,-65.22 221.497,-72.8685 231.998,-71.4614 228.829,-65.22"/>
</g>
<!-- Node8 -->
<g id="node8" class="node"><title>Node8</title>
<g id="a_node8"><a xlink:href="erpc__client__setup_8h.html" target="_top" xlink:title="erpc_client_setup.h">
<polygon fill="white" stroke="black" points="406,-6 406,-25 507,-25 507,-6 406,-6"/>
<text text-anchor="middle" x="456.5" y="-13" font-family="Helvetica,sans-Serif" font-size="10.00">erpc_client_setup.h</text>
</a>
</g>
</g>
<!-- Node4&#45;&gt;Node8 -->
<g id="edge7" class="edge"><title>Node4&#45;&gt;Node8</title>
<path fill="none" stroke="midnightblue" d="M247.519,-70.4039C297.253,-57.5757 378.046,-36.7361 423.223,-25.0834"/>
<polygon fill="midnightblue" stroke="midnightblue" points="246.513,-67.0488 237.704,-72.9355 248.261,-73.8269 246.513,-67.0488"/>
</g>
<!-- Node11 -->
<g id="node11" class="node"><title>Node11</title>
<g id="a_node11"><a xlink:href="erpc__simple__server_8h.html" target="_top" xlink:title="erpc_simple_server.h">
<polygon fill="white" stroke="black" points="525.5,-6 525.5,-25 633.5,-25 633.5,-6 525.5,-6"/>
<text text-anchor="middle" x="579.5" y="-13" font-family="Helvetica,sans-Serif" font-size="10.00">erpc_simple_server.h</text>
</a>
</g>
</g>
<!-- Node10&#45;&gt;Node11 -->
<g id="edge11" class="edge"><title>Node10&#45;&gt;Node11</title>
<path fill="none" stroke="midnightblue" d="M467.257,-68.6127C494.986,-55.7387 536.841,-36.3059 560.832,-25.1672"/>
<polygon fill="midnightblue" stroke="midnightblue" points="465.687,-65.4828 458.091,-72.8685 468.635,-71.8319 465.687,-65.4828"/>
</g>
<!-- Node13 -->
<g id="node13" class="node"><title>Node13</title>
<g id="a_node13"><a xlink:href="erpc__dspi__master__transport_8h.html" target="_top" xlink:title="erpc_dspi_master_transport.h">
<polygon fill="white" stroke="black" points="494.5,-73 494.5,-92 640.5,-92 640.5,-73 494.5,-73"/>
<text text-anchor="middle" x="567.5" y="-80" font-family="Helvetica,sans-Serif" font-size="10.00">erpc_dspi_master_transport.h</text>
</a>
</g>
</g>
<!-- Node12&#45;&gt;Node13 -->
<g id="edge14" class="edge"><title>Node12&#45;&gt;Node13</title>
<path fill="none" stroke="midnightblue" d="M835.213,-137.879C772.188,-125.077 667.533,-103.819 609.502,-92.0317"/>
<polygon fill="midnightblue" stroke="midnightblue" points="834.84,-141.375 845.337,-139.936 836.233,-134.515 834.84,-141.375"/>
</g>
<!-- Node14 -->
<g id="node14" class="node"><title>Node14</title>
<g id="a_node14"><a xlink:href="erpc__dspi__slave__transport_8h.html" target="_top" xlink:title="erpc_dspi_slave_transport.h">
<polygon fill="white" stroke="black" points="659,-73 659,-92 796,-92 796,-73 659,-73"/>
<text text-anchor="middle" x="727.5" y="-80" font-family="Helvetica,sans-Serif" font-size="10.00">erpc_dspi_slave_transport.h</text>
</a>
</g>
</g>
<!-- Node12&#45;&gt;Node14 -->
<g id="edge15" class="edge"><title>Node12&#45;&gt;Node14</title>
<path fill="none" stroke="midnightblue" d="M856.987,-136.104C825.219,-123.198 776.305,-103.327 748.58,-92.0637"/>
<polygon fill="midnightblue" stroke="midnightblue" points="855.671,-139.347 866.253,-139.869 858.306,-132.862 855.671,-139.347"/>
</g>
<!-- Node15 -->
<g id="node15" class="node"><title>Node15</title>
<g id="a_node15"><a xlink:href="erpc__serial__transport_8h.html" target="_top" xlink:title="erpc_serial_transport.h">
<polygon fill="white" stroke="black" points="814.5,-73 814.5,-92 930.5,-92 930.5,-73 814.5,-73"/>
<text text-anchor="middle" x="872.5" y="-80" font-family="Helvetica,sans-Serif" font-size="10.00">erpc_serial_transport.h</text>
</a>
</g>
</g>
<!-- Node12&#45;&gt;Node15 -->
<g id="edge16" class="edge"><title>Node12&#45;&gt;Node15</title>
<path fill="none" stroke="midnightblue" d="M883.211,-129.915C880.343,-117.488 876.704,-101.717 874.491,-92.1273"/>
<polygon fill="midnightblue" stroke="midnightblue" points="879.818,-130.777 885.477,-139.734 886.639,-129.203 879.818,-130.777"/>
</g>
<!-- Node16 -->
<g id="node16" class="node"><title>Node16</title>
<g id="a_node16"><a xlink:href="erpc__spi__master__transport_8h.html" target="_top" xlink:title="erpc_spi_master_transport.h">
<polygon fill="white" stroke="black" points="948.5,-73 948.5,-92 1088.5,-92 1088.5,-73 948.5,-73"/>
<text text-anchor="middle" x="1018.5" y="-80" font-family="Helvetica,sans-Serif" font-size="10.00">erpc_spi_master_transport.h</text>
</a>
</g>
</g>
<!-- Node12&#45;&gt;Node16 -->
<g id="edge17" class="edge"><title>Node12&#45;&gt;Node16</title>
<path fill="none" stroke="midnightblue" d="M914.156,-135.274C940.102,-122.4 978.78,-103.209 1001.03,-92.1672"/>
<polygon fill="midnightblue" stroke="midnightblue" points="912.298,-132.288 904.896,-139.869 915.409,-138.559 912.298,-132.288"/>
</g>
<!-- Node17 -->
<g id="node17" class="node"><title>Node17</title>
<g id="a_node17"><a xlink:href="erpc__spi__slave__transport_8h.html" target="_top" xlink:title="erpc_spi_slave_transport.h">
<polygon fill="white" stroke="black" points="1106.5,-73 1106.5,-92 1238.5,-92 1238.5,-73 1106.5,-73"/>
<text text-anchor="middle" x="1172.5" y="-80" font-family="Helvetica,sans-Serif" font-size="10.00">erpc_spi_slave_transport.h</text>
</a>
</g>
</g>
<!-- Node12&#45;&gt;Node17 -->
<g id="edge18" class="edge"><title>Node12&#45;&gt;Node17</title>
<path fill="none" stroke="midnightblue" d="M935.099,-137.644C991.253,-124.837 1083.45,-103.809 1134.86,-92.0834"/>
<polygon fill="midnightblue" stroke="midnightblue" points="934.023,-134.299 925.052,-139.936 935.58,-141.124 934.023,-134.299"/>
</g>
<!-- Node18 -->
<g id="node18" class="node"><title>Node18</title>
<g id="a_node18"><a xlink:href="erpc__tcp__transport_8h.html" target="_top" xlink:title="erpc_tcp_transport.h">
<polygon fill="white" stroke="black" points="1256.5,-73 1256.5,-92 1362.5,-92 1362.5,-73 1256.5,-73"/>
<text text-anchor="middle" x="1309.5" y="-80" font-family="Helvetica,sans-Serif" font-size="10.00">erpc_tcp_transport.h</text>
</a>
</g>
</g>
<!-- Node12&#45;&gt;Node18 -->
<g id="edge19" class="edge"><title>Node12&#45;&gt;Node18</title>
<path fill="none" stroke="midnightblue" d="M936.195,-137.887C943.324,-136.486 950.59,-135.143 957.5,-134 1085.64,-112.811 1119.64,-120.821 1247.5,-98 1256.75,-96.349 1266.69,-94.1958 1275.85,-92.056"/>
<polygon fill="midnightblue" stroke="midnightblue" points="935.017,-134.554 925.907,-139.962 936.402,-141.416 935.017,-134.554"/>
</g>
<!-- Node19 -->
<g id="node19" class="node"><title>Node19</title>
<g id="a_node19"><a xlink:href="erpc__uart__cmsis__transport_8h.html" target="_top" xlink:title="erpc_uart_cmsis_transport.h">
<polygon fill="white" stroke="black" points="1380.5,-73 1380.5,-92 1520.5,-92 1520.5,-73 1380.5,-73"/>
<text text-anchor="middle" x="1450.5" y="-80" font-family="Helvetica,sans-Serif" font-size="10.00">erpc_uart_cmsis_transport.h</text>
</a>
</g>
</g>
<!-- Node12&#45;&gt;Node19 -->
<g id="edge20" class="edge"><title>Node12&#45;&gt;Node19</title>
<path fill="none" stroke="midnightblue" d="M934.624,-137.951C942.246,-136.472 950.072,-135.088 957.5,-134 1140.24,-107.222 1188.46,-122.699 1371.5,-98 1383.38,-96.3963 1396.2,-94.2337 1407.98,-92.0687"/>
<polygon fill="midnightblue" stroke="midnightblue" points="933.887,-134.529 924.774,-139.932 935.268,-141.391 933.887,-134.529"/>
</g>
<!-- Node25 -->
<g id="node25" class="node"><title>Node25</title>
<g id="a_node25"><a xlink:href="erpc__rpmsg__lite__rtos__transport_8h.html" target="_top" xlink:title="erpc_rpmsg_lite_rtos\l_transport.h">
<polygon fill="white" stroke="black" points="1539,-67.5 1539,-97.5 1646,-97.5 1646,-67.5 1539,-67.5"/>
<text text-anchor="start" x="1547" y="-85.5" font-family="Helvetica,sans-Serif" font-size="10.00">erpc_rpmsg_lite_rtos</text>
<text text-anchor="middle" x="1592.5" y="-74.5" font-family="Helvetica,sans-Serif" font-size="10.00">_transport.h</text>
</a>
</g>
</g>
<!-- Node24&#45;&gt;Node25 -->
<g id="edge26" class="edge"><title>Node24&#45;&gt;Node25</title>
<path fill="none" stroke="midnightblue" d="M1592.5,-124.108C1592.5,-115.154 1592.5,-105.323 1592.5,-97.5765"/>
<polygon fill="midnightblue" stroke="midnightblue" points="1589,-124.396 1592.5,-134.396 1596,-124.396 1589,-124.396"/>
</g>
<!-- Node26 -->
<g id="node26" class="node"><title>Node26</title>
<g id="a_node26"><a xlink:href="erpc__rpmsg__lite__transport_8h.html" target="_top" xlink:title="erpc_rpmsg_lite_transport.h">
<polygon fill="white" stroke="black" points="1664,-73 1664,-92 1801,-92 1801,-73 1664,-73"/>
<text text-anchor="middle" x="1732.5" y="-80" font-family="Helvetica,sans-Serif" font-size="10.00">erpc_rpmsg_lite_transport.h</text>
</a>
</g>
</g>
<!-- Node24&#45;&gt;Node26 -->
<g id="edge27" class="edge"><title>Node24&#45;&gt;Node26</title>
<path fill="none" stroke="midnightblue" d="M1632.06,-130.131C1659.01,-117.62 1693.43,-101.64 1714.18,-92.007"/>
<polygon fill="midnightblue" stroke="midnightblue" points="1630.47,-127.01 1622.88,-134.396 1633.42,-133.359 1630.47,-127.01"/>
</g>
<!-- Node24&#45;&gt;Node27 -->
<g id="edge28" class="edge"><title>Node24&#45;&gt;Node27</title>
<path fill="none" stroke="midnightblue" d="M1658.67,-133.784C1735.28,-117.858 1813.07,-102.921 1863.34,-93.4319"/>
<polygon fill="midnightblue" stroke="midnightblue" points="1657.92,-130.364 1648.85,-135.832 1659.35,-137.217 1657.92,-130.364"/>
</g>
</g>
</svg>
