<?xml version="1.0" encoding="UTF-8" standalone="no"?>
<!DOCTYPE svg PUBLIC "-//W3C//DTD SVG 1.1//EN"
 "http://www.w3.org/Graphics/SVG/1.1/DTD/svg11.dtd">
<!-- Generated by graphviz version 2.38.0 (20140413.2041)
 -->
<!-- Title: erpc_rpmsg_lite_rtos_transport.h Pages: 1 -->
<svg width="515pt" height="330pt"
 viewBox="0.00 0.00 515.00 330.00" xmlns="http://www.w3.org/2000/svg" xmlns:xlink="http://www.w3.org/1999/xlink">
<g id="graph0" class="graph" transform="scale(1 1) rotate(0) translate(4 326)">
<title>erpc_rpmsg_lite_rtos_transport.h</title>
<polygon fill="white" stroke="none" points="-4,4 -4,-326 511,-326 511,4 -4,4"/>
<!-- Node1 -->
<g id="node1" class="node"><title>Node1</title>
<polygon fill="#bfbfbf" stroke="black" points="292.5,-291.5 292.5,-321.5 399.5,-321.5 399.5,-291.5 292.5,-291.5"/>
<text text-anchor="start" x="300.5" y="-309.5" font-family="Helvetica,sans-Serif" font-size="10.00">erpc_rpmsg_lite_rtos</text>
<text text-anchor="middle" x="346" y="-298.5" font-family="Helvetica,sans-Serif" font-size="10.00">_transport.h</text>
</g>
<!-- Node2 -->
<g id="node2" class="node"><title>Node2</title>
<g id="a_node2"><a xlink:href="erpc__message__buffer_8h.html" target="_top" xlink:title="erpc_message_buffer.h">
<polygon fill="white" stroke="black" points="17.5,-112.5 17.5,-131.5 134.5,-131.5 134.5,-112.5 17.5,-112.5"/>
<text text-anchor="middle" x="76" y="-119.5" font-family="Helvetica,sans-Serif" font-size="10.00">erpc_message_buffer.h</text>
</a>
</g>
</g>
<!-- Node1&#45;&gt;Node2 -->
<g id="edge1" class="edge"><title>Node1&#45;&gt;Node2</title>
<path fill="none" stroke="midnightblue" d="M292.238,-300.427C225.881,-290.959 115.622,-264.037 65,-188 55.711,-174.047 60.6502,-154.786 66.5783,-140.856"/>
<polygon fill="midnightblue" stroke="midnightblue" points="69.7475,-142.341 70.8803,-131.807 63.4256,-139.336 69.7475,-142.341"/>
</g>
<!-- Node6 -->
<g id="node6" class="node"><title>Node6</title>
<g id="a_node6"><a xlink:href="erpc__rpmsg__lite__base__transport_8h.html" target="_top" xlink:title="erpc_rpmsg_lite_base\l_transport.h">
<polygon fill="white" stroke="black" points="248,-224.5 248,-254.5 360,-254.5 360,-224.5 248,-224.5"/>
<text text-anchor="start" x="256" y="-242.5" font-family="Helvetica,sans-Serif" font-size="10.00">erpc_rpmsg_lite_base</text>
<text text-anchor="middle" x="304" y="-231.5" font-family="Helvetica,sans-Serif" font-size="10.00">_transport.h</text>
</a>
</g>
</g>
<!-- Node1&#45;&gt;Node6 -->
<g id="edge6" class="edge"><title>Node1&#45;&gt;Node6</title>
<path fill="none" stroke="midnightblue" d="M336.887,-291.396C331.548,-283.134 324.681,-272.507 318.604,-263.102"/>
<polygon fill="midnightblue" stroke="midnightblue" points="321.463,-261.076 313.096,-254.577 315.583,-264.875 321.463,-261.076"/>
</g>
<!-- Node13 -->
<g id="node13" class="node"><title>Node13</title>
<polygon fill="white" stroke="#bfbfbf" points="437,-168.5 437,-187.5 507,-187.5 507,-168.5 437,-168.5"/>
<text text-anchor="middle" x="472" y="-175.5" font-family="Helvetica,sans-Serif" font-size="10.00">rpmsg_lite.h</text>
</g>
<!-- Node1&#45;&gt;Node13 -->
<g id="edge18" class="edge"><title>Node1&#45;&gt;Node13</title>
<path fill="none" stroke="midnightblue" d="M354.512,-291.448C365.332,-274.29 385.239,-244.971 407,-224 419.327,-212.121 435.071,-201.135 447.977,-192.992"/>
<polygon fill="midnightblue" stroke="midnightblue" points="450.088,-195.804 456.784,-187.593 446.429,-189.836 450.088,-195.804"/>
</g>
<!-- Node15 -->
<g id="node15" class="node"><title>Node15</title>
<polygon fill="white" stroke="#bfbfbf" points="416.5,-230 416.5,-249 499.5,-249 499.5,-230 416.5,-230"/>
<text text-anchor="middle" x="458" y="-237" font-family="Helvetica,sans-Serif" font-size="10.00">rpmsg_queue.h</text>
</g>
<!-- Node1&#45;&gt;Node15 -->
<g id="edge19" class="edge"><title>Node1&#45;&gt;Node15</title>
<path fill="none" stroke="midnightblue" d="M370.302,-291.396C389.345,-280.344 415.68,-265.061 434.511,-254.132"/>
<polygon fill="midnightblue" stroke="midnightblue" points="436.45,-257.054 443.342,-249.007 432.936,-250.999 436.45,-257.054"/>
</g>
<!-- Node3 -->
<g id="node3" class="node"><title>Node3</title>
<g id="a_node3"><a xlink:href="erpc__common_8h_source.html" target="_top" xlink:title="erpc_common.h">
<polygon fill="white" stroke="black" points="104,-56.5 104,-75.5 190,-75.5 190,-56.5 104,-56.5"/>
<text text-anchor="middle" x="147" y="-63.5" font-family="Helvetica,sans-Serif" font-size="10.00">erpc_common.h</text>
</a>
</g>
</g>
<!-- Node2&#45;&gt;Node3 -->
<g id="edge2" class="edge"><title>Node2&#45;&gt;Node3</title>
<path fill="none" stroke="midnightblue" d="M87.4074,-112.324C98.1088,-104.185 114.341,-91.8395 127.163,-82.0874"/>
<polygon fill="midnightblue" stroke="midnightblue" points="129.544,-84.6734 135.385,-75.8339 125.307,-79.1018 129.544,-84.6734"/>
</g>
<!-- Node4 -->
<g id="node4" class="node"><title>Node4</title>
<polygon fill="white" stroke="#bfbfbf" points="122.5,-0.5 122.5,-19.5 171.5,-19.5 171.5,-0.5 122.5,-0.5"/>
<text text-anchor="middle" x="147" y="-7.5" font-family="Helvetica,sans-Serif" font-size="10.00">stdint.h</text>
</g>
<!-- Node2&#45;&gt;Node4 -->
<g id="edge5" class="edge"><title>Node2&#45;&gt;Node4</title>
<path fill="none" stroke="midnightblue" d="M76.9464,-112.359C78.7118,-99.2617 83.4367,-74.0042 95,-56 102.661,-44.071 114.404,-33.5262 124.793,-25.6482"/>
<polygon fill="midnightblue" stroke="midnightblue" points="127.008,-28.3666 133.082,-19.6861 122.92,-22.6839 127.008,-28.3666"/>
</g>
<!-- Node5 -->
<g id="node5" class="node"><title>Node5</title>
<polygon fill="white" stroke="#bfbfbf" points="0,-56.5 0,-75.5 48,-75.5 48,-56.5 0,-56.5"/>
<text text-anchor="middle" x="24" y="-63.5" font-family="Helvetica,sans-Serif" font-size="10.00">cstddef</text>
</g>
<!-- Node2&#45;&gt;Node5 -->
<g id="edge4" class="edge"><title>Node2&#45;&gt;Node5</title>
<path fill="none" stroke="midnightblue" d="M67.4133,-112.083C59.841,-104.22 48.6218,-92.5688 39.4856,-83.0813"/>
<polygon fill="midnightblue" stroke="midnightblue" points="41.8845,-80.5266 32.427,-75.7511 36.8423,-85.3821 41.8845,-80.5266"/>
</g>
<!-- Node3&#45;&gt;Node4 -->
<g id="edge3" class="edge"><title>Node3&#45;&gt;Node4</title>
<path fill="none" stroke="midnightblue" d="M147,-56.083C147,-49.0059 147,-38.8611 147,-29.9865"/>
<polygon fill="midnightblue" stroke="midnightblue" points="150.5,-29.751 147,-19.7511 143.5,-29.7511 150.5,-29.751"/>
</g>
<!-- Node7 -->
<g id="node7" class="node"><title>Node7</title>
<g id="a_node7"><a xlink:href="erpc__transport_8h.html" target="_top" xlink:title="erpc_transport.h">
<polygon fill="white" stroke="black" points="202.5,-168.5 202.5,-187.5 289.5,-187.5 289.5,-168.5 202.5,-168.5"/>
<text text-anchor="middle" x="246" y="-175.5" font-family="Helvetica,sans-Serif" font-size="10.00">erpc_transport.h</text>
</a>
</g>
</g>
<!-- Node6&#45;&gt;Node7 -->
<g id="edge7" class="edge"><title>Node6&#45;&gt;Node7</title>
<path fill="none" stroke="midnightblue" d="M290.255,-224.399C281.653,-215.575 270.548,-204.183 261.614,-195.018"/>
<polygon fill="midnightblue" stroke="midnightblue" points="263.926,-192.375 254.44,-187.658 258.914,-197.262 263.926,-192.375"/>
</g>
<!-- Node10 -->
<g id="node10" class="node"><title>Node10</title>
<g id="a_node10"><a xlink:href="erpc__config__internal_8h_source.html" target="_top" xlink:title="erpc_config_internal.h">
<polygon fill="white" stroke="black" points="307.5,-168.5 307.5,-187.5 418.5,-187.5 418.5,-168.5 307.5,-168.5"/>
<text text-anchor="middle" x="363" y="-175.5" font-family="Helvetica,sans-Serif" font-size="10.00">erpc_config_internal.h</text>
</a>
</g>
</g>
<!-- Node6&#45;&gt;Node10 -->
<g id="edge13" class="edge"><title>Node6&#45;&gt;Node10</title>
<path fill="none" stroke="midnightblue" d="M317.982,-224.399C326.732,-215.575 338.029,-204.183 347.117,-195.018"/>
<polygon fill="midnightblue" stroke="midnightblue" points="349.859,-197.223 354.415,-187.658 344.888,-192.294 349.859,-197.223"/>
</g>
<!-- Node6&#45;&gt;Node13 -->
<g id="edge16" class="edge"><title>Node6&#45;&gt;Node13</title>
<path fill="none" stroke="midnightblue" d="M343.814,-224.399C372.505,-214.238 410.81,-200.672 438.055,-191.022"/>
<polygon fill="midnightblue" stroke="midnightblue" points="439.297,-194.296 447.555,-187.658 436.96,-187.697 439.297,-194.296"/>
</g>
<!-- Node14 -->
<g id="node14" class="node"><title>Node14</title>
<polygon fill="white" stroke="#bfbfbf" points="74,-168.5 74,-187.5 184,-187.5 184,-168.5 74,-168.5"/>
<text text-anchor="middle" x="129" y="-175.5" font-family="Helvetica,sans-Serif" font-size="10.00">rpmsg_env_specific.h</text>
</g>
<!-- Node6&#45;&gt;Node14 -->
<g id="edge17" class="edge"><title>Node6&#45;&gt;Node14</title>
<path fill="none" stroke="midnightblue" d="M262.527,-224.399C232.42,-214.163 192.148,-200.47 163.73,-190.808"/>
<polygon fill="midnightblue" stroke="midnightblue" points="164.803,-187.476 154.209,-187.571 162.55,-194.104 164.803,-187.476"/>
</g>
<!-- Node7&#45;&gt;Node2 -->
<g id="edge11" class="edge"><title>Node7&#45;&gt;Node2</title>
<path fill="none" stroke="midnightblue" d="M219.063,-168.444C190.34,-159.32 144.671,-144.813 112.679,-134.651"/>
<polygon fill="midnightblue" stroke="midnightblue" points="113.401,-131.208 102.811,-131.516 111.282,-137.88 113.401,-131.208"/>
</g>
<!-- Node7&#45;&gt;Node3 -->
<g id="edge8" class="edge"><title>Node7&#45;&gt;Node3</title>
<path fill="none" stroke="midnightblue" d="M238.232,-168.368C221.677,-149.974 182.704,-106.671 161.447,-83.0519"/>
<polygon fill="midnightblue" stroke="midnightblue" points="164.023,-80.683 154.732,-75.5914 158.82,-85.3658 164.023,-80.683"/>
</g>
<!-- Node8 -->
<g id="node8" class="node"><title>Node8</title>
<g id="a_node8"><a xlink:href="erpc__crc16_8h.html" target="_top" xlink:title="erpc_crc16.h">
<polygon fill="white" stroke="black" points="208.5,-56.5 208.5,-75.5 281.5,-75.5 281.5,-56.5 208.5,-56.5"/>
<text text-anchor="middle" x="245" y="-63.5" font-family="Helvetica,sans-Serif" font-size="10.00">erpc_crc16.h</text>
</a>
</g>
</g>
<!-- Node7&#45;&gt;Node8 -->
<g id="edge9" class="edge"><title>Node7&#45;&gt;Node8</title>
<path fill="none" stroke="midnightblue" d="M245.922,-168.368C245.76,-150.617 245.388,-109.666 245.169,-85.5974"/>
<polygon fill="midnightblue" stroke="midnightblue" points="248.669,-85.5592 245.078,-75.5914 241.669,-85.6229 248.669,-85.5592"/>
</g>
<!-- Node9 -->
<g id="node9" class="node"><title>Node9</title>
<polygon fill="white" stroke="#bfbfbf" points="262,-112.5 262,-131.5 308,-131.5 308,-112.5 262,-112.5"/>
<text text-anchor="middle" x="285" y="-119.5" font-family="Helvetica,sans-Serif" font-size="10.00">cstring</text>
</g>
<!-- Node7&#45;&gt;Node9 -->
<g id="edge12" class="edge"><title>Node7&#45;&gt;Node9</title>
<path fill="none" stroke="midnightblue" d="M252.44,-168.083C257.949,-160.455 266.031,-149.264 272.765,-139.941"/>
<polygon fill="midnightblue" stroke="midnightblue" points="275.662,-141.907 278.68,-131.751 269.987,-137.809 275.662,-141.907"/>
</g>
<!-- Node8&#45;&gt;Node4 -->
<g id="edge10" class="edge"><title>Node8&#45;&gt;Node4</title>
<path fill="none" stroke="midnightblue" d="M229.255,-56.324C213.681,-47.7428 189.623,-34.486 171.541,-24.5224"/>
<polygon fill="midnightblue" stroke="midnightblue" points="173.154,-21.4152 162.706,-19.6545 169.776,-27.546 173.154,-21.4152"/>
</g>
<!-- Node11 -->
<g id="node11" class="node"><title>Node11</title>
<g id="a_node11"><a xlink:href="erpc__config_8h.html" target="_top" xlink:title="erpc_config.h">
<polygon fill="white" stroke="black" points="326,-112.5 326,-131.5 400,-131.5 400,-112.5 326,-112.5"/>
<text text-anchor="middle" x="363" y="-119.5" font-family="Helvetica,sans-Serif" font-size="10.00">erpc_config.h</text>
</a>
</g>
</g>
<!-- Node10&#45;&gt;Node11 -->
<g id="edge14" class="edge"><title>Node10&#45;&gt;Node11</title>
<path fill="none" stroke="midnightblue" d="M363,-168.083C363,-161.006 363,-150.861 363,-141.986"/>
<polygon fill="midnightblue" stroke="midnightblue" points="366.5,-141.751 363,-131.751 359.5,-141.751 366.5,-141.751"/>
</g>
<!-- Node12 -->
<g id="node12" class="node"><title>Node12</title>
<polygon fill="white" stroke="#bfbfbf" points="418.5,-112.5 418.5,-131.5 467.5,-131.5 467.5,-112.5 418.5,-112.5"/>
<text text-anchor="middle" x="443" y="-119.5" font-family="Helvetica,sans-Serif" font-size="10.00">cassert</text>
</g>
<!-- Node10&#45;&gt;Node12 -->
<g id="edge15" class="edge"><title>Node10&#45;&gt;Node12</title>
<path fill="none" stroke="midnightblue" d="M375.853,-168.324C388.216,-159.979 407.13,-147.212 421.737,-137.352"/>
<polygon fill="midnightblue" stroke="midnightblue" points="423.848,-140.15 430.179,-131.655 419.932,-134.348 423.848,-140.15"/>
</g>
</g>
</svg>
