<?xml version="1.0" encoding="UTF-8" standalone="no"?>
<!DOCTYPE svg PUBLIC "-//W3C//DTD SVG 1.1//EN"
 "http://www.w3.org/Graphics/SVG/1.1/DTD/svg11.dtd">
<!-- Generated by graphviz version 2.38.0 (20140413.2041)
 -->
<!-- Title: erpc_rpmsg_tty_rtos_transport.h Pages: 1 -->
<svg width="636pt" height="330pt"
 viewBox="0.00 0.00 635.50 330.00" xmlns="http://www.w3.org/2000/svg" xmlns:xlink="http://www.w3.org/1999/xlink">
<g id="graph0" class="graph" transform="scale(1 1) rotate(0) translate(4 326)">
<title>erpc_rpmsg_tty_rtos_transport.h</title>
<polygon fill="white" stroke="none" points="-4,4 -4,-326 631.5,-326 631.5,4 -4,4"/>
<!-- Node1 -->
<g id="node1" class="node"><title>Node1</title>
<polygon fill="#bfbfbf" stroke="black" points="302.5,-291.5 302.5,-321.5 408.5,-321.5 408.5,-291.5 302.5,-291.5"/>
<text text-anchor="start" x="310.5" y="-309.5" font-family="Helvetica,sans-Serif" font-size="10.00">erpc_rpmsg_tty_rtos</text>
<text text-anchor="middle" x="355.5" y="-298.5" font-family="Helvetica,sans-Serif" font-size="10.00">_transport.h</text>
</g>
<!-- Node2 -->
<g id="node2" class="node"><title>Node2</title>
<g id="a_node2"><a xlink:href="erpc__crc16_8h.html" target="_top" xlink:title="erpc_crc16.h">
<polygon fill="white" stroke="black" points="238,-112.5 238,-131.5 311,-131.5 311,-112.5 238,-112.5"/>
<text text-anchor="middle" x="274.5" y="-119.5" font-family="Helvetica,sans-Serif" font-size="10.00">erpc_crc16.h</text>
</a>
</g>
</g>
<!-- Node1&#45;&gt;Node2 -->
<g id="edge1" class="edge"><title>Node1&#45;&gt;Node2</title>
<path fill="none" stroke="midnightblue" d="M328.444,-291.364C314.758,-282.748 299.235,-270.418 290.5,-255 270.089,-218.973 270.426,-168.626 272.456,-141.715"/>
<polygon fill="midnightblue" stroke="midnightblue" points="275.944,-142.005 273.375,-131.727 268.974,-141.364 275.944,-142.005"/>
</g>
<!-- Node4 -->
<g id="node4" class="node"><title>Node4</title>
<g id="a_node4"><a xlink:href="erpc__message__buffer_8h.html" target="_top" xlink:title="erpc_message_buffer.h">
<polygon fill="white" stroke="black" points="0,-112.5 0,-131.5 117,-131.5 117,-112.5 0,-112.5"/>
<text text-anchor="middle" x="58.5" y="-119.5" font-family="Helvetica,sans-Serif" font-size="10.00">erpc_message_buffer.h</text>
</a>
</g>
</g>
<!-- Node1&#45;&gt;Node4 -->
<g id="edge3" class="edge"><title>Node1&#45;&gt;Node4</title>
<path fill="none" stroke="midnightblue" d="M326.953,-291.374C285.502,-270.488 206.704,-229.361 143.5,-188 119.408,-172.234 93.3332,-151.734 76.5062,-138.011"/>
<polygon fill="midnightblue" stroke="midnightblue" points="78.5551,-135.164 68.6093,-131.513 74.1074,-140.569 78.5551,-135.164"/>
</g>
<!-- Node7 -->
<g id="node7" class="node"><title>Node7</title>
<g id="a_node7"><a xlink:href="erpc__rpmsg__lite__base__transport_8h.html" target="_top" xlink:title="erpc_rpmsg_lite_base\l_transport.h">
<polygon fill="white" stroke="black" points="299.5,-224.5 299.5,-254.5 411.5,-254.5 411.5,-224.5 299.5,-224.5"/>
<text text-anchor="start" x="307.5" y="-242.5" font-family="Helvetica,sans-Serif" font-size="10.00">erpc_rpmsg_lite_base</text>
<text text-anchor="middle" x="355.5" y="-231.5" font-family="Helvetica,sans-Serif" font-size="10.00">_transport.h</text>
</a>
</g>
</g>
<!-- Node1&#45;&gt;Node7 -->
<g id="edge8" class="edge"><title>Node1&#45;&gt;Node7</title>
<path fill="none" stroke="midnightblue" d="M355.5,-291.396C355.5,-283.645 355.5,-273.812 355.5,-264.86"/>
<polygon fill="midnightblue" stroke="midnightblue" points="359,-264.576 355.5,-254.577 352,-264.577 359,-264.576"/>
</g>
<!-- Node12 -->
<g id="node12" class="node"><title>Node12</title>
<polygon fill="white" stroke="#bfbfbf" points="557.5,-168.5 557.5,-187.5 627.5,-187.5 627.5,-168.5 557.5,-168.5"/>
<text text-anchor="middle" x="592.5" y="-175.5" font-family="Helvetica,sans-Serif" font-size="10.00">rpmsg_lite.h</text>
</g>
<!-- Node1&#45;&gt;Node12 -->
<g id="edge18" class="edge"><title>Node1&#45;&gt;Node12</title>
<path fill="none" stroke="midnightblue" d="M373.754,-291.405C386.805,-281.306 404.77,-267.362 420.5,-255 437.91,-241.319 440.057,-234.595 459.5,-224 487.211,-208.9 520.908,-197.564 547.45,-190.047"/>
<polygon fill="midnightblue" stroke="midnightblue" points="548.531,-193.38 557.244,-187.353 546.674,-186.63 548.531,-193.38"/>
</g>
<!-- Node14 -->
<g id="node14" class="node"><title>Node14</title>
<polygon fill="white" stroke="#bfbfbf" points="468,-230 468,-249 551,-249 551,-230 468,-230"/>
<text text-anchor="middle" x="509.5" y="-237" font-family="Helvetica,sans-Serif" font-size="10.00">rpmsg_queue.h</text>
</g>
<!-- Node1&#45;&gt;Node14 -->
<g id="edge19" class="edge"><title>Node1&#45;&gt;Node14</title>
<path fill="none" stroke="midnightblue" d="M388.916,-291.396C416.056,-279.941 453.969,-263.938 479.998,-252.952"/>
<polygon fill="midnightblue" stroke="midnightblue" points="481.493,-256.12 489.345,-249.007 478.771,-249.671 481.493,-256.12"/>
</g>
<!-- Node3 -->
<g id="node3" class="node"><title>Node3</title>
<polygon fill="white" stroke="#bfbfbf" points="121,-0.5 121,-19.5 170,-19.5 170,-0.5 121,-0.5"/>
<text text-anchor="middle" x="145.5" y="-7.5" font-family="Helvetica,sans-Serif" font-size="10.00">stdint.h</text>
</g>
<!-- Node2&#45;&gt;Node3 -->
<g id="edge2" class="edge"><title>Node2&#45;&gt;Node3</title>
<path fill="none" stroke="midnightblue" d="M264.378,-112.368C242.524,-93.7334 190.688,-49.5324 163.248,-26.1338"/>
<polygon fill="midnightblue" stroke="midnightblue" points="165.456,-23.4167 155.575,-19.5914 160.914,-28.7431 165.456,-23.4167"/>
</g>
<!-- Node4&#45;&gt;Node3 -->
<g id="edge7" class="edge"><title>Node4&#45;&gt;Node3</title>
<path fill="none" stroke="midnightblue" d="M48.5501,-112.115C35.2456,-99.1387 14.7331,-74.5325 27.5,-56 46.0293,-29.1029 82.9508,-18.2713 110.585,-13.9157"/>
<polygon fill="midnightblue" stroke="midnightblue" points="111.227,-17.3607 120.664,-12.5435 110.283,-10.4247 111.227,-17.3607"/>
</g>
<!-- Node5 -->
<g id="node5" class="node"><title>Node5</title>
<g id="a_node5"><a xlink:href="erpc__common_8h_source.html" target="_top" xlink:title="erpc_common.h">
<polygon fill="white" stroke="black" points="102.5,-56.5 102.5,-75.5 188.5,-75.5 188.5,-56.5 102.5,-56.5"/>
<text text-anchor="middle" x="145.5" y="-63.5" font-family="Helvetica,sans-Serif" font-size="10.00">erpc_common.h</text>
</a>
</g>
</g>
<!-- Node4&#45;&gt;Node5 -->
<g id="edge4" class="edge"><title>Node4&#45;&gt;Node5</title>
<path fill="none" stroke="midnightblue" d="M72.4781,-112.324C86.0496,-103.9 106.88,-90.9709 122.825,-81.0741"/>
<polygon fill="midnightblue" stroke="midnightblue" points="124.906,-83.9019 131.557,-75.6545 121.214,-77.9544 124.906,-83.9019"/>
</g>
<!-- Node6 -->
<g id="node6" class="node"><title>Node6</title>
<polygon fill="white" stroke="#bfbfbf" points="36.5,-56.5 36.5,-75.5 84.5,-75.5 84.5,-56.5 36.5,-56.5"/>
<text text-anchor="middle" x="60.5" y="-63.5" font-family="Helvetica,sans-Serif" font-size="10.00">cstddef</text>
</g>
<!-- Node4&#45;&gt;Node6 -->
<g id="edge6" class="edge"><title>Node4&#45;&gt;Node6</title>
<path fill="none" stroke="midnightblue" d="M58.8303,-112.083C59.0924,-105.006 59.4681,-94.8611 59.7968,-85.9865"/>
<polygon fill="midnightblue" stroke="midnightblue" points="63.3033,-85.8738 60.1759,-75.7511 56.3081,-85.6147 63.3033,-85.8738"/>
</g>
<!-- Node5&#45;&gt;Node3 -->
<g id="edge5" class="edge"><title>Node5&#45;&gt;Node3</title>
<path fill="none" stroke="midnightblue" d="M145.5,-56.083C145.5,-49.0059 145.5,-38.8611 145.5,-29.9865"/>
<polygon fill="midnightblue" stroke="midnightblue" points="149,-29.751 145.5,-19.7511 142,-29.7511 149,-29.751"/>
</g>
<!-- Node8 -->
<g id="node8" class="node"><title>Node8</title>
<g id="a_node8"><a xlink:href="erpc__transport_8h.html" target="_top" xlink:title="erpc_transport.h">
<polygon fill="white" stroke="black" points="153,-168.5 153,-187.5 240,-187.5 240,-168.5 153,-168.5"/>
<text text-anchor="middle" x="196.5" y="-175.5" font-family="Helvetica,sans-Serif" font-size="10.00">erpc_transport.h</text>
</a>
</g>
</g>
<!-- Node7&#45;&gt;Node8 -->
<g id="edge9" class="edge"><title>Node7&#45;&gt;Node8</title>
<path fill="none" stroke="midnightblue" d="M317.819,-224.399C290.904,-214.327 255.048,-200.909 229.307,-191.277"/>
<polygon fill="midnightblue" stroke="midnightblue" points="230.228,-187.885 219.636,-187.658 227.775,-194.441 230.228,-187.885"/>
</g>
<!-- Node10 -->
<g id="node10" class="node"><title>Node10</title>
<g id="a_node10"><a xlink:href="erpc__config__internal_8h_source.html" target="_top" xlink:title="erpc_config_internal.h">
<polygon fill="white" stroke="black" points="300,-168.5 300,-187.5 411,-187.5 411,-168.5 300,-168.5"/>
<text text-anchor="middle" x="355.5" y="-175.5" font-family="Helvetica,sans-Serif" font-size="10.00">erpc_config_internal.h</text>
</a>
</g>
</g>
<!-- Node7&#45;&gt;Node10 -->
<g id="edge14" class="edge"><title>Node7&#45;&gt;Node10</title>
<path fill="none" stroke="midnightblue" d="M355.5,-224.399C355.5,-216.466 355.5,-206.458 355.5,-197.858"/>
<polygon fill="midnightblue" stroke="midnightblue" points="359,-197.658 355.5,-187.658 352,-197.658 359,-197.658"/>
</g>
<!-- Node7&#45;&gt;Node12 -->
<g id="edge16" class="edge"><title>Node7&#45;&gt;Node12</title>
<path fill="none" stroke="midnightblue" d="M411.366,-224.475C453.324,-213.941 509.985,-199.716 548.694,-189.998"/>
<polygon fill="midnightblue" stroke="midnightblue" points="549.771,-193.336 558.617,-187.506 548.066,-186.547 549.771,-193.336"/>
</g>
<!-- Node13 -->
<g id="node13" class="node"><title>Node13</title>
<polygon fill="white" stroke="#bfbfbf" points="429.5,-168.5 429.5,-187.5 539.5,-187.5 539.5,-168.5 429.5,-168.5"/>
<text text-anchor="middle" x="484.5" y="-175.5" font-family="Helvetica,sans-Serif" font-size="10.00">rpmsg_env_specific.h</text>
</g>
<!-- Node7&#45;&gt;Node13 -->
<g id="edge17" class="edge"><title>Node7&#45;&gt;Node13</title>
<path fill="none" stroke="midnightblue" d="M386.071,-224.399C407.425,-214.55 435.715,-201.501 456.485,-191.922"/>
<polygon fill="midnightblue" stroke="midnightblue" points="458.115,-195.024 465.729,-187.658 455.183,-188.668 458.115,-195.024"/>
</g>
<!-- Node8&#45;&gt;Node2 -->
<g id="edge11" class="edge"><title>Node8&#45;&gt;Node2</title>
<path fill="none" stroke="midnightblue" d="M209.032,-168.324C221.086,-159.979 239.527,-147.212 253.769,-137.352"/>
<polygon fill="midnightblue" stroke="midnightblue" points="255.769,-140.224 261.999,-131.655 251.785,-134.469 255.769,-140.224"/>
</g>
<!-- Node8&#45;&gt;Node4 -->
<g id="edge12" class="edge"><title>Node8&#45;&gt;Node4</title>
<path fill="none" stroke="midnightblue" d="M174.633,-168.444C151.721,-159.478 115.525,-145.314 89.6335,-135.183"/>
<polygon fill="midnightblue" stroke="midnightblue" points="90.8521,-131.901 80.2642,-131.516 88.3012,-138.42 90.8521,-131.901"/>
</g>
<!-- Node8&#45;&gt;Node5 -->
<g id="edge10" class="edge"><title>Node8&#45;&gt;Node5</title>
<path fill="none" stroke="midnightblue" d="M188.926,-168.258C181.747,-159.577 171.105,-145.63 164.5,-132 157.29,-117.122 152.268,-98.9757 149.206,-85.6413"/>
<polygon fill="midnightblue" stroke="midnightblue" points="152.604,-84.7959 147.089,-75.7495 145.759,-86.2605 152.604,-84.7959"/>
</g>
<!-- Node9 -->
<g id="node9" class="node"><title>Node9</title>
<polygon fill="white" stroke="#bfbfbf" points="173.5,-112.5 173.5,-131.5 219.5,-131.5 219.5,-112.5 173.5,-112.5"/>
<text text-anchor="middle" x="196.5" y="-119.5" font-family="Helvetica,sans-Serif" font-size="10.00">cstring</text>
</g>
<!-- Node8&#45;&gt;Node9 -->
<g id="edge13" class="edge"><title>Node8&#45;&gt;Node9</title>
<path fill="none" stroke="midnightblue" d="M196.5,-168.083C196.5,-161.006 196.5,-150.861 196.5,-141.986"/>
<polygon fill="midnightblue" stroke="midnightblue" points="200,-141.751 196.5,-131.751 193,-141.751 200,-141.751"/>
</g>
<!-- Node11 -->
<g id="node11" class="node"><title>Node11</title>
<g id="a_node11"><a xlink:href="erpc__config_8h.html" target="_top" xlink:title="erpc_config.h">
<polygon fill="white" stroke="black" points="329.5,-112.5 329.5,-131.5 403.5,-131.5 403.5,-112.5 329.5,-112.5"/>
<text text-anchor="middle" x="366.5" y="-119.5" font-family="Helvetica,sans-Serif" font-size="10.00">erpc_config.h</text>
</a>
</g>
</g>
<!-- Node10&#45;&gt;Node11 -->
<g id="edge15" class="edge"><title>Node10&#45;&gt;Node11</title>
<path fill="none" stroke="midnightblue" d="M357.316,-168.083C358.774,-160.927 360.871,-150.635 362.693,-141.691"/>
<polygon fill="midnightblue" stroke="midnightblue" points="366.151,-142.248 364.717,-131.751 359.292,-140.851 366.151,-142.248"/>
</g>
</g>
</svg>
