<?xml version="1.0" encoding="UTF-8" standalone="no"?>
<!DOCTYPE svg PUBLIC "-//W3C//DTD SVG 1.1//EN"
 "http://www.w3.org/Graphics/SVG/1.1/DTD/svg11.dtd">
<!-- Generated by graphviz version 2.38.0 (20140413.2041)
 -->
<!-- Title: erpc_dspi_master_transport.h Pages: 1 -->
<svg width="457pt" height="308pt"
 viewBox="0.00 0.00 457.00 308.00" xmlns="http://www.w3.org/2000/svg" xmlns:xlink="http://www.w3.org/1999/xlink">
<g id="graph0" class="graph" transform="scale(1 1) rotate(0) translate(4 304)">
<title>erpc_dspi_master_transport.h</title>
<polygon fill="white" stroke="none" points="-4,4 -4,-304 453,-304 453,4 -4,4"/>
<!-- Node1 -->
<g id="node1" class="node"><title>Node1</title>
<polygon fill="#bfbfbf" stroke="black" points="262.5,-280.5 262.5,-299.5 408.5,-299.5 408.5,-280.5 262.5,-280.5"/>
<text text-anchor="middle" x="335.5" y="-287.5" font-family="Helvetica,sans-Serif" font-size="10.00">erpc_dspi_master_transport.h</text>
</g>
<!-- Node2 -->
<g id="node2" class="node"><title>Node2</title>
<g id="a_node2"><a xlink:href="erpc__framed__transport_8h.html" target="_top" xlink:title="erpc_framed_transport.h">
<polygon fill="white" stroke="black" points="166.5,-224.5 166.5,-243.5 288.5,-243.5 288.5,-224.5 166.5,-224.5"/>
<text text-anchor="middle" x="227.5" y="-231.5" font-family="Helvetica,sans-Serif" font-size="10.00">erpc_framed_transport.h</text>
</a>
</g>
</g>
<!-- Node1&#45;&gt;Node2 -->
<g id="edge1" class="edge"><title>Node1&#45;&gt;Node2</title>
<path fill="none" stroke="midnightblue" d="M318.148,-280.324C300.828,-271.664 273.985,-258.242 253.998,-248.249"/>
<polygon fill="midnightblue" stroke="midnightblue" points="255.319,-244.996 244.809,-243.655 252.188,-251.257 255.319,-244.996"/>
</g>
<!-- Node13 -->
<g id="node13" class="node"><title>Node13</title>
<polygon fill="white" stroke="#bfbfbf" points="306.5,-224.5 306.5,-243.5 364.5,-243.5 364.5,-224.5 306.5,-224.5"/>
<text text-anchor="middle" x="335.5" y="-231.5" font-family="Helvetica,sans-Serif" font-size="10.00">fsl_dspi.h</text>
</g>
<!-- Node1&#45;&gt;Node13 -->
<g id="edge19" class="edge"><title>Node1&#45;&gt;Node13</title>
<path fill="none" stroke="midnightblue" d="M335.5,-280.083C335.5,-273.006 335.5,-262.861 335.5,-253.986"/>
<polygon fill="midnightblue" stroke="midnightblue" points="339,-253.751 335.5,-243.751 332,-253.751 339,-253.751"/>
</g>
<!-- Node14 -->
<g id="node14" class="node"><title>Node14</title>
<polygon fill="white" stroke="#bfbfbf" points="382.5,-224.5 382.5,-243.5 430.5,-243.5 430.5,-224.5 382.5,-224.5"/>
<text text-anchor="middle" x="406.5" y="-231.5" font-family="Helvetica,sans-Serif" font-size="10.00">stdlib.h</text>
</g>
<!-- Node1&#45;&gt;Node14 -->
<g id="edge20" class="edge"><title>Node1&#45;&gt;Node14</title>
<path fill="none" stroke="midnightblue" d="M346.907,-280.324C357.609,-272.185 373.841,-259.839 386.663,-250.087"/>
<polygon fill="midnightblue" stroke="midnightblue" points="389.044,-252.673 394.885,-243.834 384.807,-247.102 389.044,-252.673"/>
</g>
<!-- Node3 -->
<g id="node3" class="node"><title>Node3</title>
<g id="a_node3"><a xlink:href="erpc__config__internal_8h_source.html" target="_top" xlink:title="erpc_config_internal.h">
<polygon fill="white" stroke="black" points="0,-112.5 0,-131.5 111,-131.5 111,-112.5 0,-112.5"/>
<text text-anchor="middle" x="55.5" y="-119.5" font-family="Helvetica,sans-Serif" font-size="10.00">erpc_config_internal.h</text>
</a>
</g>
</g>
<!-- Node2&#45;&gt;Node3 -->
<g id="edge2" class="edge"><title>Node2&#45;&gt;Node3</title>
<path fill="none" stroke="midnightblue" d="M166.378,-225.066C138.997,-218.844 107.904,-207.755 85.5,-188 71.8312,-175.948 63.9787,-156.378 59.7639,-141.856"/>
<polygon fill="midnightblue" stroke="midnightblue" points="63.0949,-140.756 57.2138,-131.944 56.3156,-142.5 63.0949,-140.756"/>
</g>
<!-- Node5 -->
<g id="node5" class="node"><title>Node5</title>
<g id="a_node5"><a xlink:href="erpc__message__buffer_8h.html" target="_top" xlink:title="erpc_message_buffer.h">
<polygon fill="white" stroke="black" points="169,-112.5 169,-131.5 286,-131.5 286,-112.5 169,-112.5"/>
<text text-anchor="middle" x="227.5" y="-119.5" font-family="Helvetica,sans-Serif" font-size="10.00">erpc_message_buffer.h</text>
</a>
</g>
</g>
<!-- Node2&#45;&gt;Node5 -->
<g id="edge4" class="edge"><title>Node2&#45;&gt;Node5</title>
<path fill="none" stroke="midnightblue" d="M227.5,-224.368C227.5,-206.617 227.5,-165.666 227.5,-141.597"/>
<polygon fill="midnightblue" stroke="midnightblue" points="231,-141.591 227.5,-131.591 224,-141.591 231,-141.591"/>
</g>
<!-- Node9 -->
<g id="node9" class="node"><title>Node9</title>
<g id="a_node9"><a xlink:href="erpc__transport_8h.html" target="_top" xlink:title="erpc_transport.h">
<polygon fill="white" stroke="black" points="271,-168.5 271,-187.5 358,-187.5 358,-168.5 271,-168.5"/>
<text text-anchor="middle" x="314.5" y="-175.5" font-family="Helvetica,sans-Serif" font-size="10.00">erpc_transport.h</text>
</a>
</g>
</g>
<!-- Node2&#45;&gt;Node9 -->
<g id="edge9" class="edge"><title>Node2&#45;&gt;Node9</title>
<path fill="none" stroke="midnightblue" d="M241.478,-224.324C255.05,-215.9 275.88,-202.971 291.825,-193.074"/>
<polygon fill="midnightblue" stroke="midnightblue" points="293.906,-195.902 300.557,-187.655 290.214,-189.954 293.906,-195.902"/>
</g>
<!-- Node11 -->
<g id="node11" class="node"><title>Node11</title>
<polygon fill="white" stroke="#bfbfbf" points="380.5,-112.5 380.5,-131.5 426.5,-131.5 426.5,-112.5 380.5,-112.5"/>
<text text-anchor="middle" x="403.5" y="-119.5" font-family="Helvetica,sans-Serif" font-size="10.00">cstring</text>
</g>
<!-- Node2&#45;&gt;Node11 -->
<g id="edge15" class="edge"><title>Node2&#45;&gt;Node11</title>
<path fill="none" stroke="midnightblue" d="M284.548,-224.422C311.675,-218.025 343.189,-206.975 366.5,-188 381.573,-175.731 391.668,-155.59 397.454,-140.975"/>
<polygon fill="midnightblue" stroke="midnightblue" points="400.771,-142.096 400.915,-131.502 394.196,-139.694 400.771,-142.096"/>
</g>
<!-- Node12 -->
<g id="node12" class="node"><title>Node12</title>
<g id="a_node12"><a xlink:href="erpc__threading_8h.html" target="_top" xlink:title="erpc_threading.h">
<polygon fill="white" stroke="black" points="95,-168.5 95,-187.5 184,-187.5 184,-168.5 95,-168.5"/>
<text text-anchor="middle" x="139.5" y="-175.5" font-family="Helvetica,sans-Serif" font-size="10.00">erpc_threading.h</text>
</a>
</g>
</g>
<!-- Node2&#45;&gt;Node12 -->
<g id="edge16" class="edge"><title>Node2&#45;&gt;Node12</title>
<path fill="none" stroke="midnightblue" d="M213.361,-224.324C199.634,-215.9 178.564,-202.971 162.436,-193.074"/>
<polygon fill="midnightblue" stroke="midnightblue" points="163.957,-189.902 153.604,-187.655 160.296,-195.868 163.957,-189.902"/>
</g>
<!-- Node4 -->
<g id="node4" class="node"><title>Node4</title>
<g id="a_node4"><a xlink:href="erpc__config_8h.html" target="_top" xlink:title="erpc_config.h">
<polygon fill="white" stroke="black" points="18.5,-56.5 18.5,-75.5 92.5,-75.5 92.5,-56.5 18.5,-56.5"/>
<text text-anchor="middle" x="55.5" y="-63.5" font-family="Helvetica,sans-Serif" font-size="10.00">erpc_config.h</text>
</a>
</g>
</g>
<!-- Node3&#45;&gt;Node4 -->
<g id="edge3" class="edge"><title>Node3&#45;&gt;Node4</title>
<path fill="none" stroke="midnightblue" d="M55.5,-112.083C55.5,-105.006 55.5,-94.8611 55.5,-85.9865"/>
<polygon fill="midnightblue" stroke="midnightblue" points="59.0001,-85.751 55.5,-75.7511 52.0001,-85.7511 59.0001,-85.751"/>
</g>
<!-- Node6 -->
<g id="node6" class="node"><title>Node6</title>
<g id="a_node6"><a xlink:href="erpc__common_8h_source.html" target="_top" xlink:title="erpc_common.h">
<polygon fill="white" stroke="black" points="271.5,-56.5 271.5,-75.5 357.5,-75.5 357.5,-56.5 271.5,-56.5"/>
<text text-anchor="middle" x="314.5" y="-63.5" font-family="Helvetica,sans-Serif" font-size="10.00">erpc_common.h</text>
</a>
</g>
</g>
<!-- Node5&#45;&gt;Node6 -->
<g id="edge5" class="edge"><title>Node5&#45;&gt;Node6</title>
<path fill="none" stroke="midnightblue" d="M241.478,-112.324C255.05,-103.9 275.88,-90.9709 291.825,-81.0741"/>
<polygon fill="midnightblue" stroke="midnightblue" points="293.906,-83.9019 300.557,-75.6545 290.214,-77.9544 293.906,-83.9019"/>
</g>
<!-- Node7 -->
<g id="node7" class="node"><title>Node7</title>
<polygon fill="white" stroke="#bfbfbf" points="254,-0.5 254,-19.5 303,-19.5 303,-0.5 254,-0.5"/>
<text text-anchor="middle" x="278.5" y="-7.5" font-family="Helvetica,sans-Serif" font-size="10.00">stdint.h</text>
</g>
<!-- Node5&#45;&gt;Node7 -->
<g id="edge8" class="edge"><title>Node5&#45;&gt;Node7</title>
<path fill="none" stroke="midnightblue" d="M231.502,-112.368C239.807,-94.4563 259.063,-52.9233 270.179,-28.9482"/>
<polygon fill="midnightblue" stroke="midnightblue" points="273.486,-30.136 274.517,-19.5914 267.135,-27.1916 273.486,-30.136"/>
</g>
<!-- Node8 -->
<g id="node8" class="node"><title>Node8</title>
<polygon fill="white" stroke="#bfbfbf" points="167.5,-56.5 167.5,-75.5 215.5,-75.5 215.5,-56.5 167.5,-56.5"/>
<text text-anchor="middle" x="191.5" y="-63.5" font-family="Helvetica,sans-Serif" font-size="10.00">cstddef</text>
</g>
<!-- Node5&#45;&gt;Node8 -->
<g id="edge7" class="edge"><title>Node5&#45;&gt;Node8</title>
<path fill="none" stroke="midnightblue" d="M221.555,-112.083C216.523,-104.534 209.163,-93.4948 202.987,-84.2298"/>
<polygon fill="midnightblue" stroke="midnightblue" points="205.793,-82.1301 197.334,-75.7511 199.969,-86.0131 205.793,-82.1301"/>
</g>
<!-- Node6&#45;&gt;Node7 -->
<g id="edge6" class="edge"><title>Node6&#45;&gt;Node7</title>
<path fill="none" stroke="midnightblue" d="M308.555,-56.083C303.523,-48.5341 296.163,-37.4948 289.987,-28.2298"/>
<polygon fill="midnightblue" stroke="midnightblue" points="292.793,-26.1301 284.334,-19.7511 286.969,-30.0131 292.793,-26.1301"/>
</g>
<!-- Node9&#45;&gt;Node5 -->
<g id="edge13" class="edge"><title>Node9&#45;&gt;Node5</title>
<path fill="none" stroke="midnightblue" d="M300.522,-168.324C286.95,-159.9 266.12,-146.971 250.175,-137.074"/>
<polygon fill="midnightblue" stroke="midnightblue" points="251.786,-133.954 241.443,-131.655 248.094,-139.902 251.786,-133.954"/>
</g>
<!-- Node9&#45;&gt;Node6 -->
<g id="edge10" class="edge"><title>Node9&#45;&gt;Node6</title>
<path fill="none" stroke="midnightblue" d="M314.5,-168.368C314.5,-150.617 314.5,-109.666 314.5,-85.5974"/>
<polygon fill="midnightblue" stroke="midnightblue" points="318,-85.5914 314.5,-75.5914 311,-85.5915 318,-85.5914"/>
</g>
<!-- Node10 -->
<g id="node10" class="node"><title>Node10</title>
<g id="a_node10"><a xlink:href="erpc__crc16_8h.html" target="_top" xlink:title="erpc_crc16.h">
<polygon fill="white" stroke="black" points="376,-56.5 376,-75.5 449,-75.5 449,-56.5 376,-56.5"/>
<text text-anchor="middle" x="412.5" y="-63.5" font-family="Helvetica,sans-Serif" font-size="10.00">erpc_crc16.h</text>
</a>
</g>
</g>
<!-- Node9&#45;&gt;Node10 -->
<g id="edge11" class="edge"><title>Node9&#45;&gt;Node10</title>
<path fill="none" stroke="midnightblue" d="M322.191,-168.122C333.093,-155.563 353.695,-131.919 371.5,-112 380.147,-102.326 389.929,-91.582 397.77,-83.0186"/>
<polygon fill="midnightblue" stroke="midnightblue" points="400.41,-85.3177 404.591,-75.5827 395.252,-80.5857 400.41,-85.3177"/>
</g>
<!-- Node9&#45;&gt;Node11 -->
<g id="edge14" class="edge"><title>Node9&#45;&gt;Node11</title>
<path fill="none" stroke="midnightblue" d="M328.799,-168.324C342.683,-159.9 363.992,-146.971 380.304,-137.074"/>
<polygon fill="midnightblue" stroke="midnightblue" points="382.502,-139.834 389.236,-131.655 378.871,-133.85 382.502,-139.834"/>
</g>
<!-- Node10&#45;&gt;Node7 -->
<g id="edge12" class="edge"><title>Node10&#45;&gt;Node7</title>
<path fill="none" stroke="midnightblue" d="M391.267,-56.4435C369.116,-47.5171 334.181,-33.4387 309.064,-23.3168"/>
<polygon fill="midnightblue" stroke="midnightblue" points="310.217,-20.0079 299.633,-19.5164 307.6,-26.5006 310.217,-20.0079"/>
</g>
<!-- Node12&#45;&gt;Node3 -->
<g id="edge17" class="edge"><title>Node12&#45;&gt;Node3</title>
<path fill="none" stroke="midnightblue" d="M126.004,-168.324C112.9,-159.9 92.7881,-146.971 77.3931,-137.074"/>
<polygon fill="midnightblue" stroke="midnightblue" points="79.267,-134.118 68.9626,-131.655 75.4817,-140.006 79.267,-134.118"/>
</g>
<!-- Node12&#45;&gt;Node7 -->
<g id="edge18" class="edge"><title>Node12&#45;&gt;Node7</title>
<path fill="none" stroke="midnightblue" d="M138.141,-168.213C135.3,-146.496 131.092,-89.6242 158.5,-56 179.317,-30.4611 216.203,-19.411 243.602,-14.633"/>
<polygon fill="midnightblue" stroke="midnightblue" points="244.237,-18.0766 253.586,-13.0917 243.169,-11.1585 244.237,-18.0766"/>
</g>
</g>
</svg>
