<?xml version="1.0" encoding="UTF-8" standalone="no"?>
<!DOCTYPE svg PUBLIC "-//W3C//DTD SVG 1.1//EN"
 "http://www.w3.org/Graphics/SVG/1.1/DTD/svg11.dtd">
<!-- Generated by graphviz version 2.38.0 (20140413.2041)
 -->
<!-- Title: erpc_message_buffer.hpp Pages: 1 -->
<svg width="2874pt" height="341pt"
 viewBox="0.00 0.00 2873.50 341.00" xmlns="http://www.w3.org/2000/svg" xmlns:xlink="http://www.w3.org/1999/xlink">
<g id="graph0" class="graph" transform="scale(1 1) rotate(0) translate(4 337)">
<title>erpc_message_buffer.hpp</title>
<polygon fill="white" stroke="none" points="-4,4 -4,-337 2869.5,-337 2869.5,4 -4,4"/>
<!-- Node1 -->
<g id="node1" class="node"><title>Node1</title>
<polygon fill="#bfbfbf" stroke="black" points="2523.5,-313.5 2523.5,-332.5 2651.5,-332.5 2651.5,-313.5 2523.5,-313.5"/>
<text text-anchor="middle" x="2587.5" y="-320.5" font-family="Helvetica,sans-Serif" font-size="10.00">erpc_message_buffer.hpp</text>
</g>
<!-- Node2 -->
<g id="node2" class="node"><title>Node2</title>
<g id="a_node2"><a xlink:href="erpc__codec_8hpp.html" target="_top" xlink:title="erpc_codec.hpp">
<polygon fill="white" stroke="black" points="457.5,-196 457.5,-215 543.5,-215 543.5,-196 457.5,-196"/>
<text text-anchor="middle" x="500.5" y="-203" font-family="Helvetica,sans-Serif" font-size="10.00">erpc_codec.hpp</text>
</a>
</g>
</g>
<!-- Node1&#45;&gt;Node2 -->
<g id="edge1" class="edge"><title>Node1&#45;&gt;Node2</title>
<path fill="none" stroke="midnightblue" d="M2513.22,-317.889C2177.36,-299.302 805.685,-223.39 543.814,-208.897"/>
<polygon fill="midnightblue" stroke="midnightblue" points="2513.15,-321.39 2523.33,-318.449 2513.54,-314.401 2513.15,-321.39"/>
</g>
<!-- Node12 -->
<g id="node12" class="node"><title>Node12</title>
<g id="a_node12"><a xlink:href="erpc__transport_8hpp.html" target="_top" xlink:title="erpc_transport.hpp">
<polygon fill="white" stroke="black" points="2197.5,-257.5 2197.5,-276.5 2295.5,-276.5 2295.5,-257.5 2197.5,-257.5"/>
<text text-anchor="middle" x="2246.5" y="-264.5" font-family="Helvetica,sans-Serif" font-size="10.00">erpc_transport.hpp</text>
</a>
</g>
</g>
<!-- Node1&#45;&gt;Node12 -->
<g id="edge12" class="edge"><title>Node1&#45;&gt;Node12</title>
<path fill="none" stroke="midnightblue" d="M2523.58,-311.877C2457.46,-301.406 2355.63,-285.282 2295.58,-275.772"/>
<polygon fill="midnightblue" stroke="midnightblue" points="2523.04,-315.336 2533.47,-313.444 2524.14,-308.422 2523.04,-315.336"/>
</g>
<!-- Node13 -->
<g id="node13" class="node"><title>Node13</title>
<g id="a_node13"><a xlink:href="erpc__framed__transport_8hpp.html" target="_top" xlink:title="erpc_framed_transport.hpp">
<polygon fill="white" stroke="black" points="1376.5,-196 1376.5,-215 1508.5,-215 1508.5,-196 1376.5,-196"/>
<text text-anchor="middle" x="1442.5" y="-203" font-family="Helvetica,sans-Serif" font-size="10.00">erpc_framed_transport.hpp</text>
</a>
</g>
</g>
<!-- Node1&#45;&gt;Node13 -->
<g id="edge34" class="edge"><title>Node1&#45;&gt;Node13</title>
<path fill="none" stroke="midnightblue" d="M2513.5,-314.535C2303.83,-293.385 1708.09,-233.29 1508.55,-213.163"/>
<polygon fill="midnightblue" stroke="midnightblue" points="2513.19,-318.021 2523.49,-315.543 2513.89,-311.057 2513.19,-318.021"/>
</g>
<!-- Node25 -->
<g id="node25" class="node"><title>Node25</title>
<g id="a_node25"><a xlink:href="erpc__inter__thread__buffer__transport_8hpp.html" target="_top" xlink:title="erpc_inter_thread_buffer\l_transport.hpp">
<polygon fill="white" stroke="black" points="2472.5,-190.5 2472.5,-220.5 2592.5,-220.5 2592.5,-190.5 2472.5,-190.5"/>
<text text-anchor="start" x="2480.5" y="-208.5" font-family="Helvetica,sans-Serif" font-size="10.00">erpc_inter_thread_buffer</text>
<text text-anchor="middle" x="2532.5" y="-197.5" font-family="Helvetica,sans-Serif" font-size="10.00">_transport.hpp</text>
</a>
</g>
</g>
<!-- Node1&#45;&gt;Node25 -->
<g id="edge35" class="edge"><title>Node1&#45;&gt;Node25</title>
<path fill="none" stroke="midnightblue" d="M2578.93,-304.011C2567.96,-280.967 2549.17,-241.506 2539.19,-220.545"/>
<polygon fill="midnightblue" stroke="midnightblue" points="2575.91,-305.795 2583.37,-313.319 2582.23,-302.785 2575.91,-305.795"/>
</g>
<!-- Node26 -->
<g id="node26" class="node"><title>Node26</title>
<g id="a_node26"><a xlink:href="erpc__mu__transport_8hpp.html" target="_top" xlink:title="erpc_mu_transport.hpp">
<polygon fill="white" stroke="black" points="2610.5,-196 2610.5,-215 2726.5,-215 2726.5,-196 2610.5,-196"/>
<text text-anchor="middle" x="2668.5" y="-203" font-family="Helvetica,sans-Serif" font-size="10.00">erpc_mu_transport.hpp</text>
</a>
</g>
</g>
<!-- Node1&#45;&gt;Node26 -->
<g id="edge36" class="edge"><title>Node1&#45;&gt;Node26</title>
<path fill="none" stroke="midnightblue" d="M2599.53,-304.844C2617.05,-279.857 2648.97,-234.355 2662.34,-215.282"/>
<polygon fill="midnightblue" stroke="midnightblue" points="2596.46,-303.122 2593.59,-313.319 2602.2,-307.141 2596.46,-303.122"/>
</g>
<!-- Node29 -->
<g id="node29" class="node"><title>Node29</title>
<g id="a_node29"><a xlink:href="erpc__rpmsg__lite__rtos__transport_8hpp.html" target="_top" xlink:title="erpc_rpmsg_lite_rtos\l_transport.hpp">
<polygon fill="white" stroke="black" points="2363,-123.5 2363,-153.5 2470,-153.5 2470,-123.5 2363,-123.5"/>
<text text-anchor="start" x="2371" y="-141.5" font-family="Helvetica,sans-Serif" font-size="10.00">erpc_rpmsg_lite_rtos</text>
<text text-anchor="middle" x="2416.5" y="-130.5" font-family="Helvetica,sans-Serif" font-size="10.00">_transport.hpp</text>
</a>
</g>
</g>
<!-- Node1&#45;&gt;Node29 -->
<g id="edge37" class="edge"><title>Node1&#45;&gt;Node29</title>
<path fill="none" stroke="midnightblue" d="M2621.16,-309.825C2676.8,-287.921 2777.79,-239.517 2735.5,-190 2726.94,-179.981 2558.91,-157.442 2470.25,-146.176"/>
<polygon fill="midnightblue" stroke="midnightblue" points="2619.75,-306.62 2611.67,-313.479 2622.26,-313.152 2619.75,-306.62"/>
</g>
<!-- Node30 -->
<g id="node30" class="node"><title>Node30</title>
<g id="a_node30"><a xlink:href="erpc__rpmsg__lite__transport_8hpp.html" target="_top" xlink:title="erpc_rpmsg_lite_transport.hpp">
<polygon fill="white" stroke="black" points="2558.5,-129 2558.5,-148 2706.5,-148 2706.5,-129 2558.5,-129"/>
<text text-anchor="middle" x="2632.5" y="-136" font-family="Helvetica,sans-Serif" font-size="10.00">erpc_rpmsg_lite_transport.hpp</text>
</a>
</g>
</g>
<!-- Node1&#45;&gt;Node30 -->
<g id="edge38" class="edge"><title>Node1&#45;&gt;Node30</title>
<path fill="none" stroke="midnightblue" d="M2662.03,-312.808C2705.79,-305.709 2755.09,-294.158 2768.5,-277 2792.32,-246.538 2790.58,-221.746 2768.5,-190 2752.83,-167.461 2725.84,-154.96 2700.03,-148.035"/>
<polygon fill="midnightblue" stroke="midnightblue" points="2661.26,-309.386 2651.92,-314.387 2662.34,-316.302 2661.26,-309.386"/>
</g>
<!-- Node31 -->
<g id="node31" class="node"><title>Node31</title>
<g id="a_node31"><a xlink:href="erpc__rpmsg__tty__rtos__transport_8hpp.html" target="_top" xlink:title="erpc_rpmsg_tty_rtos\l_transport.hpp">
<polygon fill="white" stroke="black" points="2759.5,-123.5 2759.5,-153.5 2865.5,-153.5 2865.5,-123.5 2759.5,-123.5"/>
<text text-anchor="start" x="2767.5" y="-141.5" font-family="Helvetica,sans-Serif" font-size="10.00">erpc_rpmsg_tty_rtos</text>
<text text-anchor="middle" x="2812.5" y="-130.5" font-family="Helvetica,sans-Serif" font-size="10.00">_transport.hpp</text>
</a>
</g>
</g>
<!-- Node1&#45;&gt;Node31 -->
<g id="edge39" class="edge"><title>Node1&#45;&gt;Node31</title>
<path fill="none" stroke="midnightblue" d="M2661.77,-313.882C2711.19,-306.924 2770.13,-295.11 2787.5,-277 2820.09,-243.034 2817.64,-181.584 2814.55,-153.812"/>
<polygon fill="midnightblue" stroke="midnightblue" points="2661.14,-310.435 2651.7,-315.252 2662.08,-317.371 2661.14,-310.435"/>
</g>
<!-- Node3 -->
<g id="node3" class="node"><title>Node3</title>
<g id="a_node3"><a xlink:href="erpc__client__server__common_8hpp.html" target="_top" xlink:title="erpc_client_server\l_common.hpp">
<polygon fill="white" stroke="black" points="377,-123.5 377,-153.5 472,-153.5 472,-123.5 377,-123.5"/>
<text text-anchor="start" x="385" y="-141.5" font-family="Helvetica,sans-Serif" font-size="10.00">erpc_client_server</text>
<text text-anchor="middle" x="424.5" y="-130.5" font-family="Helvetica,sans-Serif" font-size="10.00">_common.hpp</text>
</a>
</g>
</g>
<!-- Node2&#45;&gt;Node3 -->
<g id="edge2" class="edge"><title>Node2&#45;&gt;Node3</title>
<path fill="none" stroke="midnightblue" d="M482.293,-188.928C469.724,-178.179 453.149,-164.002 440.973,-153.589"/>
<polygon fill="midnightblue" stroke="midnightblue" points="480.376,-191.894 490.25,-195.734 484.926,-186.574 480.376,-191.894"/>
</g>
<!-- Node6 -->
<g id="node6" class="node"><title>Node6</title>
<g id="a_node6"><a xlink:href="erpc__transport__arbitrator_8hpp.html" target="_top" xlink:title="erpc_transport_arbitrator.hpp">
<polygon fill="white" stroke="black" points="513,-6 513,-25 654,-25 654,-6 513,-6"/>
<text text-anchor="middle" x="583.5" y="-13" font-family="Helvetica,sans-Serif" font-size="10.00">erpc_transport_arbitrator.hpp</text>
</a>
</g>
</g>
<!-- Node2&#45;&gt;Node6 -->
<g id="edge10" class="edge"><title>Node2&#45;&gt;Node6</title>
<path fill="none" stroke="midnightblue" d="M503.211,-185.459C506.011,-168.607 511.164,-143.567 519.5,-123 535.3,-84.0163 564.164,-42.6289 577.022,-25.1186"/>
<polygon fill="midnightblue" stroke="midnightblue" points="499.703,-185.245 501.638,-195.662 506.621,-186.312 499.703,-185.245"/>
</g>
<!-- Node11 -->
<g id="node11" class="node"><title>Node11</title>
<g id="a_node11"><a xlink:href="erpc__basic__codec_8hpp.html" target="_top" xlink:title="erpc_basic_codec.hpp">
<polygon fill="white" stroke="black" points="244.5,-129 244.5,-148 358.5,-148 358.5,-129 244.5,-129"/>
<text text-anchor="middle" x="301.5" y="-136" font-family="Helvetica,sans-Serif" font-size="10.00">erpc_basic_codec.hpp</text>
</a>
</g>
</g>
<!-- Node2&#45;&gt;Node11 -->
<g id="edge11" class="edge"><title>Node2&#45;&gt;Node11</title>
<path fill="none" stroke="midnightblue" d="M464.323,-192.683C424.88,-179.8 362.722,-159.497 327.718,-148.064"/>
<polygon fill="midnightblue" stroke="midnightblue" points="463.482,-196.091 474.074,-195.869 465.655,-189.437 463.482,-196.091"/>
</g>
<!-- Node4 -->
<g id="node4" class="node"><title>Node4</title>
<g id="a_node4"><a xlink:href="erpc__client__manager_8h.html" target="_top" xlink:title="erpc_client_manager.h">
<polygon fill="white" stroke="black" points="245,-67.5 245,-86.5 360,-86.5 360,-67.5 245,-67.5"/>
<text text-anchor="middle" x="302.5" y="-74.5" font-family="Helvetica,sans-Serif" font-size="10.00">erpc_client_manager.h</text>
</a>
</g>
</g>
<!-- Node3&#45;&gt;Node4 -->
<g id="edge3" class="edge"><title>Node3&#45;&gt;Node4</title>
<path fill="none" stroke="midnightblue" d="M386.444,-118.94C364.34,-108.159 337.53,-95.0843 320.252,-86.6578"/>
<polygon fill="midnightblue" stroke="midnightblue" points="385.065,-122.162 395.588,-123.399 388.134,-115.87 385.065,-122.162"/>
</g>
<!-- Node9 -->
<g id="node9" class="node"><title>Node9</title>
<g id="a_node9"><a xlink:href="erpc__server_8hpp.html" target="_top" xlink:title="erpc_server.hpp">
<polygon fill="white" stroke="black" points="385,-67.5 385,-86.5 470,-86.5 470,-67.5 385,-67.5"/>
<text text-anchor="middle" x="427.5" y="-74.5" font-family="Helvetica,sans-Serif" font-size="10.00">erpc_server.hpp</text>
</a>
</g>
</g>
<!-- Node3&#45;&gt;Node9 -->
<g id="edge8" class="edge"><title>Node3&#45;&gt;Node9</title>
<path fill="none" stroke="midnightblue" d="M425.721,-113.289C426.196,-103.857 426.711,-93.6548 427.063,-86.6578"/>
<polygon fill="midnightblue" stroke="midnightblue" points="422.219,-113.236 425.211,-123.399 429.21,-113.588 422.219,-113.236"/>
</g>
<!-- Node5 -->
<g id="node5" class="node"><title>Node5</title>
<g id="a_node5"><a xlink:href="erpc__arbitrated__client__manager_8hpp.html" target="_top" xlink:title="erpc_arbitrated_client\l_manager.hpp">
<polygon fill="white" stroke="black" points="119.5,-0.5 119.5,-30.5 229.5,-30.5 229.5,-0.5 119.5,-0.5"/>
<text text-anchor="start" x="127.5" y="-18.5" font-family="Helvetica,sans-Serif" font-size="10.00">erpc_arbitrated_client</text>
<text text-anchor="middle" x="174.5" y="-7.5" font-family="Helvetica,sans-Serif" font-size="10.00">_manager.hpp</text>
</a>
</g>
</g>
<!-- Node4&#45;&gt;Node5 -->
<g id="edge4" class="edge"><title>Node4&#45;&gt;Node5</title>
<path fill="none" stroke="midnightblue" d="M274.965,-63.2003C254.278,-53.5845 225.965,-40.4232 204.667,-30.523"/>
<polygon fill="midnightblue" stroke="midnightblue" points="273.617,-66.4336 284.161,-67.4751 276.568,-60.0859 273.617,-66.4336"/>
</g>
<!-- Node4&#45;&gt;Node6 -->
<g id="edge5" class="edge"><title>Node4&#45;&gt;Node6</title>
<path fill="none" stroke="midnightblue" d="M352.55,-65.4023C407.027,-53.8671 493.062,-35.6498 543.314,-25.0091"/>
<polygon fill="midnightblue" stroke="midnightblue" points="351.818,-61.9794 342.76,-67.4751 353.269,-68.8276 351.818,-61.9794"/>
</g>
<!-- Node7 -->
<g id="node7" class="node"><title>Node7</title>
<g id="a_node7"><a xlink:href="erpc__arbitrated__client__setup_8h.html" target="_top" xlink:title="erpc_arbitrated_client\l_setup.h">
<polygon fill="white" stroke="black" points="247.5,-0.5 247.5,-30.5 357.5,-30.5 357.5,-0.5 247.5,-0.5"/>
<text text-anchor="start" x="255.5" y="-18.5" font-family="Helvetica,sans-Serif" font-size="10.00">erpc_arbitrated_client</text>
<text text-anchor="middle" x="302.5" y="-7.5" font-family="Helvetica,sans-Serif" font-size="10.00">_setup.h</text>
</a>
</g>
</g>
<!-- Node4&#45;&gt;Node7 -->
<g id="edge6" class="edge"><title>Node4&#45;&gt;Node7</title>
<path fill="none" stroke="midnightblue" d="M302.5,-57.2349C302.5,-48.5864 302.5,-38.4969 302.5,-30.523"/>
<polygon fill="midnightblue" stroke="midnightblue" points="299,-57.4751 302.5,-67.4751 306,-57.4751 299,-57.4751"/>
</g>
<!-- Node8 -->
<g id="node8" class="node"><title>Node8</title>
<g id="a_node8"><a xlink:href="erpc__client__setup_8h.html" target="_top" xlink:title="erpc_client_setup.h">
<polygon fill="white" stroke="black" points="0,-6 0,-25 101,-25 101,-6 0,-6"/>
<text text-anchor="middle" x="50.5" y="-13" font-family="Helvetica,sans-Serif" font-size="10.00">erpc_client_setup.h</text>
</a>
</g>
</g>
<!-- Node4&#45;&gt;Node8 -->
<g id="edge7" class="edge"><title>Node4&#45;&gt;Node8</title>
<path fill="none" stroke="midnightblue" d="M255.695,-65.1252C216.806,-56.0666 160.03,-42.789 110.5,-31 102.473,-29.0893 93.8459,-27.0162 85.7068,-25.0513"/>
<polygon fill="midnightblue" stroke="midnightblue" points="255.141,-68.5898 265.675,-67.4485 256.729,-61.7721 255.141,-68.5898"/>
</g>
<!-- Node10 -->
<g id="node10" class="node"><title>Node10</title>
<g id="a_node10"><a xlink:href="erpc__simple__server_8hpp.html" target="_top" xlink:title="erpc_simple_server.hpp">
<polygon fill="white" stroke="black" points="376,-6 376,-25 495,-25 495,-6 376,-6"/>
<text text-anchor="middle" x="435.5" y="-13" font-family="Helvetica,sans-Serif" font-size="10.00">erpc_simple_server.hpp</text>
</a>
</g>
</g>
<!-- Node9&#45;&gt;Node10 -->
<g id="edge9" class="edge"><title>Node9&#45;&gt;Node10</title>
<path fill="none" stroke="midnightblue" d="M430.012,-57.3165C431.467,-46.4962 433.228,-33.398 434.356,-25.0091"/>
<polygon fill="midnightblue" stroke="midnightblue" points="426.51,-57.0979 428.646,-67.4751 433.448,-58.0307 426.51,-57.0979"/>
</g>
<!-- Node12&#45;&gt;Node2 -->
<g id="edge13" class="edge"><title>Node12&#45;&gt;Node2</title>
<path fill="none" stroke="midnightblue" d="M2186.93,-263.97C1913.32,-254.646 780.314,-216.035 543.866,-207.978"/>
<polygon fill="midnightblue" stroke="midnightblue" points="2186.94,-267.472 2197.06,-264.315 2187.18,-260.476 2186.94,-267.472"/>
</g>
<!-- Node12&#45;&gt;Node6 -->
<g id="edge14" class="edge"><title>Node12&#45;&gt;Node6</title>
<path fill="none" stroke="midnightblue" d="M2187.01,-263.339C2123.25,-259.093 2028.14,-248.255 2005.5,-221 1960.83,-167.217 2073.04,-165.852 2080.5,-154 2087.84,-142.339 2089.89,-133.082 2080.5,-123 1982.39,-17.6584 938.026,-14.826 654.293,-16.0206"/>
<polygon fill="midnightblue" stroke="midnightblue" points="2187.15,-266.854 2197.35,-263.989 2187.58,-259.868 2187.15,-266.854"/>
</g>
<!-- Node12&#45;&gt;Node13 -->
<g id="edge15" class="edge"><title>Node12&#45;&gt;Node13</title>
<path fill="none" stroke="midnightblue" d="M2187.28,-261.617C2040.78,-250.776 1662.21,-222.76 1508.67,-211.397"/>
<polygon fill="midnightblue" stroke="midnightblue" points="2187.19,-265.12 2197.42,-262.368 2187.7,-258.139 2187.19,-265.12"/>
</g>
<!-- Node24 -->
<g id="node24" class="node"><title>Node24</title>
<g id="a_node24"><a xlink:href="erpc__message__loggers_8hpp.html" target="_top" xlink:title="erpc_message_loggers.hpp">
<polygon fill="white" stroke="black" points="2014.5,-196 2014.5,-215 2150.5,-215 2150.5,-196 2014.5,-196"/>
<text text-anchor="middle" x="2082.5" y="-203" font-family="Helvetica,sans-Serif" font-size="10.00">erpc_message_loggers.hpp</text>
</a>
</g>
</g>
<!-- Node12&#45;&gt;Node24 -->
<g id="edge26" class="edge"><title>Node12&#45;&gt;Node24</title>
<path fill="none" stroke="midnightblue" d="M2213.24,-253.933C2181.36,-242.368 2134.07,-225.208 2105.95,-215.009"/>
<polygon fill="midnightblue" stroke="midnightblue" points="2212.41,-257.355 2223,-257.475 2214.8,-250.774 2212.41,-257.355"/>
</g>
<!-- Node12&#45;&gt;Node25 -->
<g id="edge27" class="edge"><title>Node12&#45;&gt;Node25</title>
<path fill="none" stroke="midnightblue" d="M2297.58,-255.447C2341.56,-246.352 2406.72,-232.853 2463.5,-221 2466.38,-220.4 2469.32,-219.784 2472.29,-219.162"/>
<polygon fill="midnightblue" stroke="midnightblue" points="2296.79,-252.037 2287.7,-257.489 2298.21,-258.892 2296.79,-252.037"/>
</g>
<!-- Node12&#45;&gt;Node26 -->
<g id="edge28" class="edge"><title>Node12&#45;&gt;Node26</title>
<path fill="none" stroke="midnightblue" d="M2305.55,-260.105C2376.19,-252.687 2497.91,-238.741 2601.5,-221 2611.35,-219.313 2621.95,-217.171 2631.75,-215.056"/>
<polygon fill="midnightblue" stroke="midnightblue" points="2305.09,-256.634 2295.51,-261.152 2305.82,-263.596 2305.09,-256.634"/>
</g>
<!-- Node27 -->
<g id="node27" class="node"><title>Node27</title>
<g id="a_node27"><a xlink:href="erpc__rpmsg__linux__transport_8hpp_source.html" target="_top" xlink:title="erpc_rpmsg_linux_transport.hpp">
<polygon fill="white" stroke="black" points="2169,-196 2169,-215 2324,-215 2324,-196 2169,-196"/>
<text text-anchor="middle" x="2246.5" y="-203" font-family="Helvetica,sans-Serif" font-size="10.00">erpc_rpmsg_linux_transport.hpp</text>
</a>
</g>
</g>
<!-- Node12&#45;&gt;Node27 -->
<g id="edge29" class="edge"><title>Node12&#45;&gt;Node27</title>
<path fill="none" stroke="midnightblue" d="M2246.5,-247.317C2246.5,-236.496 2246.5,-223.398 2246.5,-215.009"/>
<polygon fill="midnightblue" stroke="midnightblue" points="2243,-247.475 2246.5,-257.475 2250,-247.475 2243,-247.475"/>
</g>
<!-- Node28 -->
<g id="node28" class="node"><title>Node28</title>
<g id="a_node28"><a xlink:href="erpc__rpmsg__lite__base__transport_8hpp.html" target="_top" xlink:title="erpc_rpmsg_lite_base\l_transport.hpp">
<polygon fill="white" stroke="black" points="2342.5,-190.5 2342.5,-220.5 2454.5,-220.5 2454.5,-190.5 2342.5,-190.5"/>
<text text-anchor="start" x="2350.5" y="-208.5" font-family="Helvetica,sans-Serif" font-size="10.00">erpc_rpmsg_lite_base</text>
<text text-anchor="middle" x="2398.5" y="-197.5" font-family="Helvetica,sans-Serif" font-size="10.00">_transport.hpp</text>
</a>
</g>
</g>
<!-- Node12&#45;&gt;Node28 -->
<g id="edge30" class="edge"><title>Node12&#45;&gt;Node28</title>
<path fill="none" stroke="midnightblue" d="M2277.87,-253.719C2302.54,-244.062 2336.93,-230.602 2362.68,-220.523"/>
<polygon fill="midnightblue" stroke="midnightblue" points="2276.31,-250.571 2268.28,-257.475 2278.87,-257.089 2276.31,-250.571"/>
</g>
<!-- Node14 -->
<g id="node14" class="node"><title>Node14</title>
<g id="a_node14"><a xlink:href="erpc__dspi__master__transport_8hpp.html" target="_top" xlink:title="erpc_dspi_master_transport.hpp">
<polygon fill="white" stroke="black" points="1112.5,-129 1112.5,-148 1268.5,-148 1268.5,-129 1112.5,-129"/>
<text text-anchor="middle" x="1190.5" y="-136" font-family="Helvetica,sans-Serif" font-size="10.00">erpc_dspi_master_transport.hpp</text>
</a>
</g>
</g>
<!-- Node13&#45;&gt;Node14 -->
<g id="edge16" class="edge"><title>Node13&#45;&gt;Node14</title>
<path fill="none" stroke="midnightblue" d="M1399.48,-193.404C1349.75,-180.576 1268.95,-159.736 1223.78,-148.083"/>
<polygon fill="midnightblue" stroke="midnightblue" points="1398.74,-196.827 1409.3,-195.936 1400.49,-190.049 1398.74,-196.827"/>
</g>
<!-- Node15 -->
<g id="node15" class="node"><title>Node15</title>
<g id="a_node15"><a xlink:href="erpc__dspi__slave__transport_8hpp.html" target="_top" xlink:title="erpc_dspi_slave_transport.hpp">
<polygon fill="white" stroke="black" points="1286.5,-129 1286.5,-148 1434.5,-148 1434.5,-129 1286.5,-129"/>
<text text-anchor="middle" x="1360.5" y="-136" font-family="Helvetica,sans-Serif" font-size="10.00">erpc_dspi_slave_transport.hpp</text>
</a>
</g>
</g>
<!-- Node13&#45;&gt;Node15 -->
<g id="edge17" class="edge"><title>Node13&#45;&gt;Node15</title>
<path fill="none" stroke="midnightblue" d="M1423.22,-189.213C1407.06,-176.407 1384.58,-158.588 1371.38,-148.127"/>
<polygon fill="midnightblue" stroke="midnightblue" points="1421.43,-192.265 1431.44,-195.734 1425.78,-186.779 1421.43,-192.265"/>
</g>
<!-- Node16 -->
<g id="node16" class="node"><title>Node16</title>
<g id="a_node16"><a xlink:href="erpc__i2c__slave__transport_8hpp.html" target="_top" xlink:title="erpc_i2c_slave_transport.hpp">
<polygon fill="white" stroke="black" points="1453,-129 1453,-148 1596,-148 1596,-129 1453,-129"/>
<text text-anchor="middle" x="1524.5" y="-136" font-family="Helvetica,sans-Serif" font-size="10.00">erpc_i2c_slave_transport.hpp</text>
</a>
</g>
</g>
<!-- Node13&#45;&gt;Node16 -->
<g id="edge18" class="edge"><title>Node13&#45;&gt;Node16</title>
<path fill="none" stroke="midnightblue" d="M1461.78,-189.213C1477.94,-176.407 1500.42,-158.588 1513.62,-148.127"/>
<polygon fill="midnightblue" stroke="midnightblue" points="1459.22,-186.779 1453.56,-195.734 1463.57,-192.265 1459.22,-186.779"/>
</g>
<!-- Node17 -->
<g id="node17" class="node"><title>Node17</title>
<g id="a_node17"><a xlink:href="erpc__serial__transport_8hpp.html" target="_top" xlink:title="erpc_serial_transport.hpp">
<polygon fill="white" stroke="black" points="1614.5,-129 1614.5,-148 1740.5,-148 1740.5,-129 1614.5,-129"/>
<text text-anchor="middle" x="1677.5" y="-136" font-family="Helvetica,sans-Serif" font-size="10.00">erpc_serial_transport.hpp</text>
</a>
</g>
</g>
<!-- Node13&#45;&gt;Node17 -->
<g id="edge19" class="edge"><title>Node13&#45;&gt;Node17</title>
<path fill="none" stroke="midnightblue" d="M1483.45,-193.172C1529.92,-180.319 1604.68,-159.643 1646.54,-148.064"/>
<polygon fill="midnightblue" stroke="midnightblue" points="1482.41,-189.829 1473.71,-195.869 1484.28,-196.576 1482.41,-189.829"/>
</g>
<!-- Node18 -->
<g id="node18" class="node"><title>Node18</title>
<g id="a_node18"><a xlink:href="erpc__spi__master__transport_8hpp.html" target="_top" xlink:title="erpc_spi_master_transport.hpp">
<polygon fill="white" stroke="black" points="1759,-129 1759,-148 1910,-148 1910,-129 1759,-129"/>
<text text-anchor="middle" x="1834.5" y="-136" font-family="Helvetica,sans-Serif" font-size="10.00">erpc_spi_master_transport.hpp</text>
</a>
</g>
</g>
<!-- Node13&#45;&gt;Node18 -->
<g id="edge20" class="edge"><title>Node13&#45;&gt;Node18</title>
<path fill="none" stroke="midnightblue" d="M1504.96,-194.337C1567,-184.216 1664.85,-168.183 1749.5,-154 1760.87,-152.095 1773.09,-150.025 1784.62,-148.06"/>
<polygon fill="midnightblue" stroke="midnightblue" points="1504.24,-190.908 1494.94,-195.972 1505.37,-197.816 1504.24,-190.908"/>
</g>
<!-- Node19 -->
<g id="node19" class="node"><title>Node19</title>
<g id="a_node19"><a xlink:href="erpc__spi__slave__transport_8hpp.html" target="_top" xlink:title="erpc_spi_slave_transport.hpp">
<polygon fill="white" stroke="black" points="1928,-129 1928,-148 2071,-148 2071,-129 1928,-129"/>
<text text-anchor="middle" x="1999.5" y="-136" font-family="Helvetica,sans-Serif" font-size="10.00">erpc_spi_slave_transport.hpp</text>
</a>
</g>
</g>
<!-- Node13&#45;&gt;Node19 -->
<g id="edge21" class="edge"><title>Node13&#45;&gt;Node19</title>
<path fill="none" stroke="midnightblue" d="M1518.69,-198.181C1613.03,-189.955 1778.53,-174.21 1919.5,-154 1931.24,-152.317 1943.88,-150.178 1955.58,-148.062"/>
<polygon fill="midnightblue" stroke="midnightblue" points="1518.32,-194.7 1508.66,-199.05 1518.93,-201.673 1518.32,-194.7"/>
</g>
<!-- Node20 -->
<g id="node20" class="node"><title>Node20</title>
<g id="a_node20"><a xlink:href="erpc__spidev__master__transport_8hpp.html" target="_top" xlink:title="erpc_spidev_master\l_transport.hpp">
<polygon fill="white" stroke="black" points="529,-123.5 529,-153.5 632,-153.5 632,-123.5 529,-123.5"/>
<text text-anchor="start" x="537" y="-141.5" font-family="Helvetica,sans-Serif" font-size="10.00">erpc_spidev_master</text>
<text text-anchor="middle" x="580.5" y="-130.5" font-family="Helvetica,sans-Serif" font-size="10.00">_transport.hpp</text>
</a>
</g>
</g>
<!-- Node13&#45;&gt;Node20 -->
<g id="edge22" class="edge"><title>Node13&#45;&gt;Node20</title>
<path fill="none" stroke="midnightblue" d="M1366.02,-204.002C1222.97,-202.116 905.521,-193.408 641.5,-154 638.485,-153.55 635.401,-153.025 632.297,-152.447"/>
<polygon fill="midnightblue" stroke="midnightblue" points="1366.38,-207.507 1376.43,-204.132 1366.47,-200.508 1366.38,-207.507"/>
</g>
<!-- Node21 -->
<g id="node21" class="node"><title>Node21</title>
<g id="a_node21"><a xlink:href="erpc__tcp__transport_8hpp.html" target="_top" xlink:title="erpc_tcp_transport.hpp">
<polygon fill="white" stroke="black" points="650.5,-129 650.5,-148 766.5,-148 766.5,-129 650.5,-129"/>
<text text-anchor="middle" x="708.5" y="-136" font-family="Helvetica,sans-Serif" font-size="10.00">erpc_tcp_transport.hpp</text>
</a>
</g>
</g>
<!-- Node13&#45;&gt;Node21 -->
<g id="edge23" class="edge"><title>Node13&#45;&gt;Node21</title>
<path fill="none" stroke="midnightblue" d="M1366.2,-202.136C1241.89,-197.522 988.161,-184.913 775.5,-154 765.018,-152.476 753.726,-150.26 743.455,-148.016"/>
<polygon fill="midnightblue" stroke="midnightblue" points="1366.25,-205.641 1376.37,-202.507 1366.51,-198.645 1366.25,-205.641"/>
</g>
<!-- Node22 -->
<g id="node22" class="node"><title>Node22</title>
<g id="a_node22"><a xlink:href="erpc__uart__cmsis__transport_8hpp.html" target="_top" xlink:title="erpc_uart_cmsis_transport.hpp">
<polygon fill="white" stroke="black" points="785,-129 785,-148 936,-148 936,-129 785,-129"/>
<text text-anchor="middle" x="860.5" y="-136" font-family="Helvetica,sans-Serif" font-size="10.00">erpc_uart_cmsis_transport.hpp</text>
</a>
</g>
</g>
<!-- Node13&#45;&gt;Node22 -->
<g id="edge24" class="edge"><title>Node13&#45;&gt;Node22</title>
<path fill="none" stroke="midnightblue" d="M1366.33,-198.374C1268.64,-190.146 1094.07,-174.197 945.5,-154 933.04,-152.306 919.605,-150.163 907.177,-148.047"/>
<polygon fill="midnightblue" stroke="midnightblue" points="1366.15,-201.871 1376.41,-199.218 1366.74,-194.895 1366.15,-201.871"/>
</g>
<!-- Node23 -->
<g id="node23" class="node"><title>Node23</title>
<g id="a_node23"><a xlink:href="erpc__usb__cdc__transport_8hpp.html" target="_top" xlink:title="erpc_usb_cdc_transport.hpp">
<polygon fill="white" stroke="black" points="954.5,-129 954.5,-148 1094.5,-148 1094.5,-129 954.5,-129"/>
<text text-anchor="middle" x="1024.5" y="-136" font-family="Helvetica,sans-Serif" font-size="10.00">erpc_usb_cdc_transport.hpp</text>
</a>
</g>
</g>
<!-- Node13&#45;&gt;Node23 -->
<g id="edge25" class="edge"><title>Node13&#45;&gt;Node23</title>
<path fill="none" stroke="midnightblue" d="M1370.89,-194.546C1302.2,-184.829 1195.62,-169.312 1103.5,-154 1092.5,-152.171 1080.65,-150.069 1069.57,-148.043"/>
<polygon fill="midnightblue" stroke="midnightblue" points="1370.77,-198.064 1381.16,-195.995 1371.75,-191.132 1370.77,-198.064"/>
</g>
<!-- Node28&#45;&gt;Node29 -->
<g id="edge31" class="edge"><title>Node28&#45;&gt;Node29</title>
<path fill="none" stroke="midnightblue" d="M2405.09,-180.697C2407.61,-171.587 2410.41,-161.493 2412.6,-153.577"/>
<polygon fill="midnightblue" stroke="midnightblue" points="2401.7,-179.825 2402.41,-190.396 2408.45,-181.693 2401.7,-179.825"/>
</g>
<!-- Node28&#45;&gt;Node30 -->
<g id="edge32" class="edge"><title>Node28&#45;&gt;Node30</title>
<path fill="none" stroke="midnightblue" d="M2458.8,-187.751C2504.56,-175.038 2565.59,-158.085 2601.8,-148.029"/>
<polygon fill="midnightblue" stroke="midnightblue" points="2457.68,-184.427 2448.99,-190.476 2459.56,-191.172 2457.68,-184.427"/>
</g>
<!-- Node28&#45;&gt;Node31 -->
<g id="edge33" class="edge"><title>Node28&#45;&gt;Node31</title>
<path fill="none" stroke="midnightblue" d="M2464.79,-189.842C2576.49,-169.694 2606.72,-169.9 2715.5,-154 2729.74,-151.919 2745.14,-149.632 2759.4,-147.502"/>
<polygon fill="midnightblue" stroke="midnightblue" points="2464.03,-186.424 2454.82,-191.657 2465.28,-193.311 2464.03,-186.424"/>
</g>
</g>
</svg>
