<?xml version="1.0" encoding="UTF-8" standalone="no"?>
<!DOCTYPE svg PUBLIC "-//W3C//DTD SVG 1.1//EN"
 "http://www.w3.org/Graphics/SVG/1.1/DTD/svg11.dtd">
<!-- Generated by graphviz version 2.38.0 (20140413.2041)
 -->
<!-- Title: erpc_transport_arbitrator.h Pages: 1 -->
<svg width="534pt" height="375pt"
 viewBox="0.00 0.00 533.89 375.00" xmlns="http://www.w3.org/2000/svg" xmlns:xlink="http://www.w3.org/1999/xlink">
<g id="graph0" class="graph" transform="scale(1 1) rotate(0) translate(4 371)">
<title>erpc_transport_arbitrator.h</title>
<polygon fill="white" stroke="none" points="-4,4 -4,-371 529.892,-371 529.892,4 -4,4"/>
<!-- Node1 -->
<g id="node1" class="node"><title>Node1</title>
<polygon fill="#bfbfbf" stroke="black" points="247.5,-347.5 247.5,-366.5 378.5,-366.5 378.5,-347.5 247.5,-347.5"/>
<text text-anchor="middle" x="313" y="-354.5" font-family="Helvetica,sans-Serif" font-size="10.00">erpc_transport_arbitrator.h</text>
</g>
<!-- Node2 -->
<g id="node2" class="node"><title>Node2</title>
<g id="a_node2"><a xlink:href="erpc__client__manager_8h.html" target="_top" xlink:title="erpc_client_manager.h">
<polygon fill="white" stroke="black" points="123.5,-291.5 123.5,-310.5 238.5,-310.5 238.5,-291.5 123.5,-291.5"/>
<text text-anchor="middle" x="181" y="-298.5" font-family="Helvetica,sans-Serif" font-size="10.00">erpc_client_manager.h</text>
</a>
</g>
</g>
<!-- Node1&#45;&gt;Node2 -->
<g id="edge1" class="edge"><title>Node1&#45;&gt;Node2</title>
<path fill="none" stroke="midnightblue" d="M292.084,-347.444C270.264,-338.517 235.85,-324.439 211.108,-314.317"/>
<polygon fill="midnightblue" stroke="midnightblue" points="212.399,-311.063 201.818,-310.516 209.748,-317.542 212.399,-311.063"/>
</g>
<!-- Node7 -->
<g id="node7" class="node"><title>Node7</title>
<g id="a_node7"><a xlink:href="erpc__codec_8h.html" target="_top" xlink:title="erpc_codec.h">
<polygon fill="white" stroke="black" points="333.5,-230 333.5,-249 408.5,-249 408.5,-230 333.5,-230"/>
<text text-anchor="middle" x="371" y="-237" font-family="Helvetica,sans-Serif" font-size="10.00">erpc_codec.h</text>
</a>
</g>
</g>
<!-- Node1&#45;&gt;Node7 -->
<g id="edge22" class="edge"><title>Node1&#45;&gt;Node7</title>
<path fill="none" stroke="midnightblue" d="M317.359,-347.319C326.807,-328.506 349.333,-283.648 361.983,-258.455"/>
<polygon fill="midnightblue" stroke="midnightblue" points="365.23,-259.789 366.59,-249.282 358.975,-256.648 365.23,-259.789"/>
</g>
<!-- Node12 -->
<g id="node12" class="node"><title>Node12</title>
<g id="a_node12"><a xlink:href="erpc__transport_8h.html" target="_top" xlink:title="erpc_transport.h">
<polygon fill="white" stroke="black" points="421.5,-168.5 421.5,-187.5 508.5,-187.5 508.5,-168.5 421.5,-168.5"/>
<text text-anchor="middle" x="465" y="-175.5" font-family="Helvetica,sans-Serif" font-size="10.00">erpc_transport.h</text>
</a>
</g>
</g>
<!-- Node1&#45;&gt;Node12 -->
<g id="edge26" class="edge"><title>Node1&#45;&gt;Node12</title>
<path fill="none" stroke="midnightblue" d="M323.541,-347.255C343.276,-330.575 386.551,-292.525 417,-255 432.146,-236.334 446.443,-212.616 455.429,-196.684"/>
<polygon fill="midnightblue" stroke="midnightblue" points="458.519,-198.328 460.298,-187.884 452.394,-194.939 458.519,-198.328"/>
</g>
<!-- Node15 -->
<g id="node15" class="node"><title>Node15</title>
<g id="a_node15"><a xlink:href="erpc__threading_8h.html" target="_top" xlink:title="erpc_threading.h">
<polygon fill="white" stroke="black" points="226.5,-230 226.5,-249 315.5,-249 315.5,-230 226.5,-230"/>
<text text-anchor="middle" x="271" y="-237" font-family="Helvetica,sans-Serif" font-size="10.00">erpc_threading.h</text>
</a>
</g>
</g>
<!-- Node1&#45;&gt;Node15 -->
<g id="edge23" class="edge"><title>Node1&#45;&gt;Node15</title>
<path fill="none" stroke="midnightblue" d="M309.843,-347.319C303.033,-328.59 286.835,-284.046 277.652,-258.792"/>
<polygon fill="midnightblue" stroke="midnightblue" points="280.9,-257.484 274.193,-249.282 274.322,-259.876 280.9,-257.484"/>
</g>
<!-- Node3 -->
<g id="node3" class="node"><title>Node3</title>
<g id="a_node3"><a xlink:href="erpc__client__server__common_8h.html" target="_top" xlink:title="erpc_client_server\l_common.h">
<polygon fill="white" stroke="black" points="113.5,-224.5 113.5,-254.5 208.5,-254.5 208.5,-224.5 113.5,-224.5"/>
<text text-anchor="start" x="121.5" y="-242.5" font-family="Helvetica,sans-Serif" font-size="10.00">erpc_client_server</text>
<text text-anchor="middle" x="161" y="-231.5" font-family="Helvetica,sans-Serif" font-size="10.00">_common.h</text>
</a>
</g>
</g>
<!-- Node2&#45;&gt;Node3 -->
<g id="edge2" class="edge"><title>Node2&#45;&gt;Node3</title>
<path fill="none" stroke="midnightblue" d="M178.134,-291.475C175.73,-284.32 172.176,-273.748 168.927,-264.084"/>
<polygon fill="midnightblue" stroke="midnightblue" points="172.217,-262.887 165.714,-254.523 165.582,-265.117 172.217,-262.887"/>
</g>
<!-- Node4 -->
<g id="node4" class="node"><title>Node4</title>
<g id="a_node4"><a xlink:href="erpc__config__internal_8h_source.html" target="_top" xlink:title="erpc_config_internal.h">
<polygon fill="white" stroke="black" points="45.5,-168.5 45.5,-187.5 156.5,-187.5 156.5,-168.5 45.5,-168.5"/>
<text text-anchor="middle" x="101" y="-175.5" font-family="Helvetica,sans-Serif" font-size="10.00">erpc_config_internal.h</text>
</a>
</g>
</g>
<!-- Node2&#45;&gt;Node4 -->
<g id="edge21" class="edge"><title>Node2&#45;&gt;Node4</title>
<path fill="none" stroke="midnightblue" d="M152.866,-291.355C135.584,-284.455 114.759,-272.921 104,-255 93.6179,-237.707 94.5573,-213.993 97.0039,-197.677"/>
<polygon fill="midnightblue" stroke="midnightblue" points="100.466,-198.199 98.8179,-187.733 93.58,-196.943 100.466,-198.199"/>
</g>
<!-- Node2&#45;&gt;Node7 -->
<g id="edge6" class="edge"><title>Node2&#45;&gt;Node7</title>
<path fill="none" stroke="midnightblue" d="M208.222,-291.475C241.237,-281.136 297.04,-263.661 333.953,-252.102"/>
<polygon fill="midnightblue" stroke="midnightblue" points="335.331,-255.338 343.828,-249.009 333.239,-248.658 335.331,-255.338"/>
</g>
<!-- Node3&#45;&gt;Node4 -->
<g id="edge3" class="edge"><title>Node3&#45;&gt;Node4</title>
<path fill="none" stroke="midnightblue" d="M146.781,-224.399C137.792,-215.486 126.162,-203.952 116.873,-194.741"/>
<polygon fill="midnightblue" stroke="midnightblue" points="119.296,-192.214 109.731,-187.658 114.367,-197.184 119.296,-192.214"/>
</g>
<!-- Node5 -->
<g id="node5" class="node"><title>Node5</title>
<g id="a_node5"><a xlink:href="erpc__config_8h.html" target="_top" xlink:title="erpc_config.h">
<polygon fill="white" stroke="black" points="0,-112.5 0,-131.5 74,-131.5 74,-112.5 0,-112.5"/>
<text text-anchor="middle" x="37" y="-119.5" font-family="Helvetica,sans-Serif" font-size="10.00">erpc_config.h</text>
</a>
</g>
</g>
<!-- Node4&#45;&gt;Node5 -->
<g id="edge4" class="edge"><title>Node4&#45;&gt;Node5</title>
<path fill="none" stroke="midnightblue" d="M90.7173,-168.324C81.1637,-160.263 66.7203,-148.077 55.2157,-138.369"/>
<polygon fill="midnightblue" stroke="midnightblue" points="57.3698,-135.608 47.4698,-131.834 52.8557,-140.958 57.3698,-135.608"/>
</g>
<!-- Node6 -->
<g id="node6" class="node"><title>Node6</title>
<polygon fill="white" stroke="#bfbfbf" points="92.5,-112.5 92.5,-131.5 141.5,-131.5 141.5,-112.5 92.5,-112.5"/>
<text text-anchor="middle" x="117" y="-119.5" font-family="Helvetica,sans-Serif" font-size="10.00">cassert</text>
</g>
<!-- Node4&#45;&gt;Node6 -->
<g id="edge5" class="edge"><title>Node4&#45;&gt;Node6</title>
<path fill="none" stroke="midnightblue" d="M103.642,-168.083C105.786,-160.849 108.879,-150.409 111.549,-141.397"/>
<polygon fill="midnightblue" stroke="midnightblue" points="114.922,-142.333 114.407,-131.751 108.21,-140.345 114.922,-142.333"/>
</g>
<!-- Node8 -->
<g id="node8" class="node"><title>Node8</title>
<g id="a_node8"><a xlink:href="erpc__common_8h_source.html" target="_top" xlink:title="erpc_common.h">
<polygon fill="white" stroke="black" points="320,-56.5 320,-75.5 406,-75.5 406,-56.5 320,-56.5"/>
<text text-anchor="middle" x="363" y="-63.5" font-family="Helvetica,sans-Serif" font-size="10.00">erpc_common.h</text>
</a>
</g>
</g>
<!-- Node7&#45;&gt;Node8 -->
<g id="edge7" class="edge"><title>Node7&#45;&gt;Node8</title>
<path fill="none" stroke="midnightblue" d="M370.592,-229.76C369.351,-203.151 365.599,-122.715 363.879,-85.8382"/>
<polygon fill="midnightblue" stroke="midnightblue" points="367.36,-85.3454 363.397,-75.5194 360.367,-85.6716 367.36,-85.3454"/>
</g>
<!-- Node9 -->
<g id="node9" class="node"><title>Node9</title>
<polygon fill="white" stroke="#bfbfbf" points="338.5,-0.5 338.5,-19.5 387.5,-19.5 387.5,-0.5 338.5,-0.5"/>
<text text-anchor="middle" x="363" y="-7.5" font-family="Helvetica,sans-Serif" font-size="10.00">stdint.h</text>
</g>
<!-- Node7&#45;&gt;Node9 -->
<g id="edge20" class="edge"><title>Node7&#45;&gt;Node9</title>
<path fill="none" stroke="midnightblue" d="M408.656,-237.072C443.193,-233.521 492.571,-222.298 517,-188 522.157,-180.76 517.277,-176.885 517,-168 515.444,-118.149 540.896,-95.1526 510,-56 483.404,-22.2968 432.191,-13.1814 397.799,-11.0611"/>
<polygon fill="midnightblue" stroke="midnightblue" points="397.858,-7.56037 387.711,-10.6082 397.544,-14.5533 397.858,-7.56037"/>
</g>
<!-- Node10 -->
<g id="node10" class="node"><title>Node10</title>
<g id="a_node10"><a xlink:href="erpc__message__buffer_8h.html" target="_top" xlink:title="erpc_message_buffer.h">
<polygon fill="white" stroke="black" points="213.5,-112.5 213.5,-131.5 330.5,-131.5 330.5,-112.5 213.5,-112.5"/>
<text text-anchor="middle" x="272" y="-119.5" font-family="Helvetica,sans-Serif" font-size="10.00">erpc_message_buffer.h</text>
</a>
</g>
</g>
<!-- Node7&#45;&gt;Node10 -->
<g id="edge9" class="edge"><title>Node7&#45;&gt;Node10</title>
<path fill="none" stroke="midnightblue" d="M363.559,-229.819C347.147,-210.672 307.609,-164.544 286.255,-139.631"/>
<polygon fill="midnightblue" stroke="midnightblue" points="288.693,-137.097 279.527,-131.782 283.378,-141.652 288.693,-137.097"/>
</g>
<!-- Node7&#45;&gt;Node12 -->
<g id="edge13" class="edge"><title>Node7&#45;&gt;Node12</title>
<path fill="none" stroke="midnightblue" d="M384.468,-229.975C399.685,-220.343 424.687,-204.517 442.801,-193.052"/>
<polygon fill="midnightblue" stroke="midnightblue" points="444.979,-195.815 451.557,-187.509 441.236,-189.9 444.979,-195.815"/>
</g>
<!-- Node14 -->
<g id="node14" class="node"><title>Node14</title>
<polygon fill="white" stroke="#bfbfbf" points="387,-112.5 387,-131.5 433,-131.5 433,-112.5 387,-112.5"/>
<text text-anchor="middle" x="410" y="-119.5" font-family="Helvetica,sans-Serif" font-size="10.00">cstring</text>
</g>
<!-- Node7&#45;&gt;Node14 -->
<g id="edge19" class="edge"><title>Node7&#45;&gt;Node14</title>
<path fill="none" stroke="midnightblue" d="M373.931,-229.819C380.255,-211.09 395.296,-166.546 403.823,-141.292"/>
<polygon fill="midnightblue" stroke="midnightblue" points="407.151,-142.376 407.035,-131.782 400.519,-140.137 407.151,-142.376"/>
</g>
<!-- Node8&#45;&gt;Node9 -->
<g id="edge8" class="edge"><title>Node8&#45;&gt;Node9</title>
<path fill="none" stroke="midnightblue" d="M363,-56.083C363,-49.0059 363,-38.8611 363,-29.9865"/>
<polygon fill="midnightblue" stroke="midnightblue" points="366.5,-29.751 363,-19.7511 359.5,-29.7511 366.5,-29.751"/>
</g>
<!-- Node10&#45;&gt;Node8 -->
<g id="edge10" class="edge"><title>Node10&#45;&gt;Node8</title>
<path fill="none" stroke="midnightblue" d="M286.621,-112.324C300.949,-103.822 323.013,-90.7288 339.749,-80.7975"/>
<polygon fill="midnightblue" stroke="midnightblue" points="341.602,-83.7677 348.416,-75.6545 338.03,-77.7478 341.602,-83.7677"/>
</g>
<!-- Node10&#45;&gt;Node9 -->
<g id="edge12" class="edge"><title>Node10&#45;&gt;Node9</title>
<path fill="none" stroke="midnightblue" d="M276.029,-112.442C282.379,-99.4534 295.59,-74.3356 311,-56 320.362,-44.8612 332.595,-34.129 342.845,-25.941"/>
<polygon fill="midnightblue" stroke="midnightblue" points="345.124,-28.6026 350.881,-19.7083 340.834,-23.0713 345.124,-28.6026"/>
</g>
<!-- Node11 -->
<g id="node11" class="node"><title>Node11</title>
<polygon fill="white" stroke="#bfbfbf" points="216,-56.5 216,-75.5 264,-75.5 264,-56.5 216,-56.5"/>
<text text-anchor="middle" x="240" y="-63.5" font-family="Helvetica,sans-Serif" font-size="10.00">cstddef</text>
</g>
<!-- Node10&#45;&gt;Node11 -->
<g id="edge11" class="edge"><title>Node10&#45;&gt;Node11</title>
<path fill="none" stroke="midnightblue" d="M266.716,-112.083C262.289,-104.613 255.837,-93.7244 250.382,-84.5199"/>
<polygon fill="midnightblue" stroke="midnightblue" points="253.295,-82.5697 245.186,-75.7511 247.273,-86.1383 253.295,-82.5697"/>
</g>
<!-- Node12&#45;&gt;Node8 -->
<g id="edge14" class="edge"><title>Node12&#45;&gt;Node8</title>
<path fill="none" stroke="midnightblue" d="M463.919,-168.477C461.831,-155.082 456.131,-128.895 442,-112 430.091,-97.7624 412.454,-87.1098 396.864,-79.7528"/>
<polygon fill="midnightblue" stroke="midnightblue" points="398.051,-76.4505 387.49,-75.5953 395.213,-82.8493 398.051,-76.4505"/>
</g>
<!-- Node12&#45;&gt;Node10 -->
<g id="edge17" class="edge"><title>Node12&#45;&gt;Node10</title>
<path fill="none" stroke="midnightblue" d="M434.419,-168.444C401.385,-159.201 348.612,-144.436 312.234,-134.257"/>
<polygon fill="midnightblue" stroke="midnightblue" points="313.012,-130.84 302.438,-131.516 311.125,-137.582 313.012,-130.84"/>
</g>
<!-- Node13 -->
<g id="node13" class="node"><title>Node13</title>
<g id="a_node13"><a xlink:href="erpc__crc16_8h.html" target="_top" xlink:title="erpc_crc16.h">
<polygon fill="white" stroke="black" points="428.5,-56.5 428.5,-75.5 501.5,-75.5 501.5,-56.5 428.5,-56.5"/>
<text text-anchor="middle" x="465" y="-63.5" font-family="Helvetica,sans-Serif" font-size="10.00">erpc_crc16.h</text>
</a>
</g>
</g>
<!-- Node12&#45;&gt;Node13 -->
<g id="edge15" class="edge"><title>Node12&#45;&gt;Node13</title>
<path fill="none" stroke="midnightblue" d="M467.837,-168.201C471.517,-155.735 477.218,-132.202 475,-112 474.027,-103.14 472.008,-93.4716 470.037,-85.3755"/>
<polygon fill="midnightblue" stroke="midnightblue" points="473.383,-84.333 467.482,-75.5332 466.607,-86.0919 473.383,-84.333"/>
</g>
<!-- Node12&#45;&gt;Node14 -->
<g id="edge18" class="edge"><title>Node12&#45;&gt;Node14</title>
<path fill="none" stroke="midnightblue" d="M455.918,-168.083C447.829,-160.141 435.805,-148.335 426.09,-138.797"/>
<polygon fill="midnightblue" stroke="midnightblue" points="428.501,-136.26 418.913,-131.751 423.597,-141.254 428.501,-136.26"/>
</g>
<!-- Node13&#45;&gt;Node9 -->
<g id="edge16" class="edge"><title>Node13&#45;&gt;Node9</title>
<path fill="none" stroke="midnightblue" d="M448.612,-56.324C432.329,-47.7034 407.133,-34.3643 388.284,-24.3855"/>
<polygon fill="midnightblue" stroke="midnightblue" points="389.823,-21.2402 379.347,-19.6545 386.548,-27.4267 389.823,-21.2402"/>
</g>
<!-- Node15&#45;&gt;Node4 -->
<g id="edge24" class="edge"><title>Node15&#45;&gt;Node4</title>
<path fill="none" stroke="midnightblue" d="M246.643,-229.975C217.356,-219.725 168.026,-202.459 134.998,-190.899"/>
<polygon fill="midnightblue" stroke="midnightblue" points="135.907,-187.509 125.312,-187.509 133.594,-194.116 135.907,-187.509"/>
</g>
<!-- Node15&#45;&gt;Node9 -->
<g id="edge25" class="edge"><title>Node15&#45;&gt;Node9</title>
<path fill="none" stroke="midnightblue" d="M262.786,-229.917C237.05,-201.984 162.283,-112.242 207,-56 235.74,-19.8536 291.584,-11.5419 328.071,-10.2425"/>
<polygon fill="midnightblue" stroke="midnightblue" points="328.336,-13.7381 338.265,-10.0427 328.199,-6.73943 328.336,-13.7381"/>
</g>
</g>
</svg>
