<?xml version="1.0" encoding="UTF-8" standalone="no"?>
<!DOCTYPE svg PUBLIC "-//W3C//DTD SVG 1.1//EN"
 "http://www.w3.org/Graphics/SVG/1.1/DTD/svg11.dtd">
<!-- Generated by graphviz version 2.38.0 (20140413.2041)
 -->
<!-- Title: erpc_rpmsg_tty_rtos_transport.h Pages: 1 -->
<svg width="421pt" height="330pt"
 viewBox="0.00 0.00 421.00 330.00" xmlns="http://www.w3.org/2000/svg" xmlns:xlink="http://www.w3.org/1999/xlink">
<g id="graph0" class="graph" transform="scale(1 1) rotate(0) translate(4 326)">
<title>erpc_rpmsg_tty_rtos_transport.h</title>
<polygon fill="white" stroke="none" points="-4,4 -4,-326 417,-326 417,4 -4,4"/>
<!-- Node1 -->
<g id="node1" class="node"><title>Node1</title>
<polygon fill="#bfbfbf" stroke="black" points="197.5,-291.5 197.5,-321.5 303.5,-321.5 303.5,-291.5 197.5,-291.5"/>
<text text-anchor="start" x="205.5" y="-309.5" font-family="Helvetica,sans-Serif" font-size="10.00">erpc_rpmsg_tty_rtos</text>
<text text-anchor="middle" x="250.5" y="-298.5" font-family="Helvetica,sans-Serif" font-size="10.00">_transport.h</text>
</g>
<!-- Node2 -->
<g id="node2" class="node"><title>Node2</title>
<g id="a_node2"><a xlink:href="erpc__crc16_8h.html" target="_top" xlink:title="erpc_crc16.h">
<polygon fill="white" stroke="black" points="238,-112.5 238,-131.5 311,-131.5 311,-112.5 238,-112.5"/>
<text text-anchor="middle" x="274.5" y="-119.5" font-family="Helvetica,sans-Serif" font-size="10.00">erpc_crc16.h</text>
</a>
</g>
</g>
<!-- Node1&#45;&gt;Node2 -->
<g id="edge1" class="edge"><title>Node1&#45;&gt;Node2</title>
<path fill="none" stroke="midnightblue" d="M256.931,-291.265C267.393,-266.539 286.548,-213.9 282.5,-168 281.724,-159.197 280.109,-149.536 278.531,-141.43"/>
<polygon fill="midnightblue" stroke="midnightblue" points="281.944,-140.648 276.487,-131.567 275.09,-142.069 281.944,-140.648"/>
</g>
<!-- Node4 -->
<g id="node4" class="node"><title>Node4</title>
<g id="a_node4"><a xlink:href="erpc__message__buffer_8h.html" target="_top" xlink:title="erpc_message_buffer.h">
<polygon fill="white" stroke="black" points="0,-112.5 0,-131.5 117,-131.5 117,-112.5 0,-112.5"/>
<text text-anchor="middle" x="58.5" y="-119.5" font-family="Helvetica,sans-Serif" font-size="10.00">erpc_message_buffer.h</text>
</a>
</g>
</g>
<!-- Node1&#45;&gt;Node4 -->
<g id="edge3" class="edge"><title>Node1&#45;&gt;Node4</title>
<path fill="none" stroke="midnightblue" d="M197.328,-299.483C165.665,-293.27 126.842,-280.645 101.5,-255 70.6781,-223.81 61.9474,-170.284 59.4754,-141.922"/>
<polygon fill="midnightblue" stroke="midnightblue" points="62.9539,-141.49 58.7687,-131.756 55.9707,-141.975 62.9539,-141.49"/>
</g>
<!-- Node7 -->
<g id="node7" class="node"><title>Node7</title>
<g id="a_node7"><a xlink:href="erpc__rpmsg__lite__base__transport_8h.html" target="_top" xlink:title="erpc_rpmsg_lite_base\l_transport.h">
<polygon fill="white" stroke="black" points="110.5,-224.5 110.5,-254.5 222.5,-254.5 222.5,-224.5 110.5,-224.5"/>
<text text-anchor="start" x="118.5" y="-242.5" font-family="Helvetica,sans-Serif" font-size="10.00">erpc_rpmsg_lite_base</text>
<text text-anchor="middle" x="166.5" y="-231.5" font-family="Helvetica,sans-Serif" font-size="10.00">_transport.h</text>
</a>
</g>
</g>
<!-- Node1&#45;&gt;Node7 -->
<g id="edge8" class="edge"><title>Node1&#45;&gt;Node7</title>
<path fill="none" stroke="midnightblue" d="M232.273,-291.396C220.715,-282.452 205.576,-270.737 192.736,-260.802"/>
<polygon fill="midnightblue" stroke="midnightblue" points="194.742,-257.928 184.691,-254.577 190.458,-263.464 194.742,-257.928"/>
</g>
<!-- Node10 -->
<g id="node10" class="node"><title>Node10</title>
<polygon fill="white" stroke="#bfbfbf" points="203.5,-168.5 203.5,-187.5 273.5,-187.5 273.5,-168.5 203.5,-168.5"/>
<text text-anchor="middle" x="238.5" y="-175.5" font-family="Helvetica,sans-Serif" font-size="10.00">rpmsg_lite.h</text>
</g>
<!-- Node1&#45;&gt;Node10 -->
<g id="edge15" class="edge"><title>Node1&#45;&gt;Node10</title>
<path fill="none" stroke="midnightblue" d="M249.17,-291.479C247.011,-268.719 242.741,-223.702 240.308,-198.058"/>
<polygon fill="midnightblue" stroke="midnightblue" points="243.763,-197.413 239.334,-187.789 236.794,-198.074 243.763,-197.413"/>
</g>
<!-- Node11 -->
<g id="node11" class="node"><title>Node11</title>
<polygon fill="white" stroke="#bfbfbf" points="330,-230 330,-249 413,-249 413,-230 330,-230"/>
<text text-anchor="middle" x="371.5" y="-237" font-family="Helvetica,sans-Serif" font-size="10.00">rpmsg_queue.h</text>
</g>
<!-- Node1&#45;&gt;Node11 -->
<g id="edge16" class="edge"><title>Node1&#45;&gt;Node11</title>
<path fill="none" stroke="midnightblue" d="M276.755,-291.396C297.516,-280.243 326.3,-264.781 346.679,-253.834"/>
<polygon fill="midnightblue" stroke="midnightblue" points="348.511,-256.823 355.664,-249.007 345.198,-250.656 348.511,-256.823"/>
</g>
<!-- Node3 -->
<g id="node3" class="node"><title>Node3</title>
<polygon fill="white" stroke="#bfbfbf" points="121,-0.5 121,-19.5 170,-19.5 170,-0.5 121,-0.5"/>
<text text-anchor="middle" x="145.5" y="-7.5" font-family="Helvetica,sans-Serif" font-size="10.00">stdint.h</text>
</g>
<!-- Node2&#45;&gt;Node3 -->
<g id="edge2" class="edge"><title>Node2&#45;&gt;Node3</title>
<path fill="none" stroke="midnightblue" d="M264.378,-112.368C242.524,-93.7334 190.688,-49.5324 163.248,-26.1338"/>
<polygon fill="midnightblue" stroke="midnightblue" points="165.456,-23.4167 155.575,-19.5914 160.914,-28.7431 165.456,-23.4167"/>
</g>
<!-- Node4&#45;&gt;Node3 -->
<g id="edge7" class="edge"><title>Node4&#45;&gt;Node3</title>
<path fill="none" stroke="midnightblue" d="M48.5501,-112.115C35.2456,-99.1387 14.7331,-74.5325 27.5,-56 46.0293,-29.1029 82.9508,-18.2713 110.585,-13.9157"/>
<polygon fill="midnightblue" stroke="midnightblue" points="111.227,-17.3607 120.664,-12.5435 110.283,-10.4247 111.227,-17.3607"/>
</g>
<!-- Node5 -->
<g id="node5" class="node"><title>Node5</title>
<g id="a_node5"><a xlink:href="erpc__common_8h_source.html" target="_top" xlink:title="erpc_common.h">
<polygon fill="white" stroke="black" points="102.5,-56.5 102.5,-75.5 188.5,-75.5 188.5,-56.5 102.5,-56.5"/>
<text text-anchor="middle" x="145.5" y="-63.5" font-family="Helvetica,sans-Serif" font-size="10.00">erpc_common.h</text>
</a>
</g>
</g>
<!-- Node4&#45;&gt;Node5 -->
<g id="edge4" class="edge"><title>Node4&#45;&gt;Node5</title>
<path fill="none" stroke="midnightblue" d="M72.4781,-112.324C86.0496,-103.9 106.88,-90.9709 122.825,-81.0741"/>
<polygon fill="midnightblue" stroke="midnightblue" points="124.906,-83.9019 131.557,-75.6545 121.214,-77.9544 124.906,-83.9019"/>
</g>
<!-- Node6 -->
<g id="node6" class="node"><title>Node6</title>
<polygon fill="white" stroke="#bfbfbf" points="36.5,-56.5 36.5,-75.5 84.5,-75.5 84.5,-56.5 36.5,-56.5"/>
<text text-anchor="middle" x="60.5" y="-63.5" font-family="Helvetica,sans-Serif" font-size="10.00">cstddef</text>
</g>
<!-- Node4&#45;&gt;Node6 -->
<g id="edge6" class="edge"><title>Node4&#45;&gt;Node6</title>
<path fill="none" stroke="midnightblue" d="M58.8303,-112.083C59.0924,-105.006 59.4681,-94.8611 59.7968,-85.9865"/>
<polygon fill="midnightblue" stroke="midnightblue" points="63.3033,-85.8738 60.1759,-75.7511 56.3081,-85.6147 63.3033,-85.8738"/>
</g>
<!-- Node5&#45;&gt;Node3 -->
<g id="edge5" class="edge"><title>Node5&#45;&gt;Node3</title>
<path fill="none" stroke="midnightblue" d="M145.5,-56.083C145.5,-49.0059 145.5,-38.8611 145.5,-29.9865"/>
<polygon fill="midnightblue" stroke="midnightblue" points="149,-29.751 145.5,-19.7511 142,-29.7511 149,-29.751"/>
</g>
<!-- Node8 -->
<g id="node8" class="node"><title>Node8</title>
<g id="a_node8"><a xlink:href="erpc__transport_8h.html" target="_top" xlink:title="erpc_transport.h">
<polygon fill="white" stroke="black" points="98,-168.5 98,-187.5 185,-187.5 185,-168.5 98,-168.5"/>
<text text-anchor="middle" x="141.5" y="-175.5" font-family="Helvetica,sans-Serif" font-size="10.00">erpc_transport.h</text>
</a>
</g>
</g>
<!-- Node7&#45;&gt;Node8 -->
<g id="edge9" class="edge"><title>Node7&#45;&gt;Node8</title>
<path fill="none" stroke="midnightblue" d="M160.575,-224.399C157.13,-216.199 152.752,-205.781 149.06,-196.994"/>
<polygon fill="midnightblue" stroke="midnightblue" points="152.238,-195.521 145.138,-187.658 145.785,-198.233 152.238,-195.521"/>
</g>
<!-- Node7&#45;&gt;Node10 -->
<g id="edge14" class="edge"><title>Node7&#45;&gt;Node10</title>
<path fill="none" stroke="midnightblue" d="M183.563,-224.399C194.565,-215.308 208.865,-203.49 220.118,-194.191"/>
<polygon fill="midnightblue" stroke="midnightblue" points="222.544,-196.726 228.023,-187.658 218.085,-191.33 222.544,-196.726"/>
</g>
<!-- Node8&#45;&gt;Node2 -->
<g id="edge11" class="edge"><title>Node8&#45;&gt;Node2</title>
<path fill="none" stroke="midnightblue" d="M162.574,-168.444C184.56,-159.517 219.234,-145.439 244.164,-135.317"/>
<polygon fill="midnightblue" stroke="midnightblue" points="245.576,-138.521 253.524,-131.516 242.942,-132.035 245.576,-138.521"/>
</g>
<!-- Node8&#45;&gt;Node4 -->
<g id="edge12" class="edge"><title>Node8&#45;&gt;Node4</title>
<path fill="none" stroke="midnightblue" d="M128.165,-168.324C115.338,-159.979 95.715,-147.212 80.5602,-137.352"/>
<polygon fill="midnightblue" stroke="midnightblue" points="82.0932,-134.174 71.8023,-131.655 78.2757,-140.042 82.0932,-134.174"/>
</g>
<!-- Node8&#45;&gt;Node5 -->
<g id="edge10" class="edge"><title>Node8&#45;&gt;Node5</title>
<path fill="none" stroke="midnightblue" d="M141.814,-168.368C142.459,-150.617 143.948,-109.666 144.824,-85.5974"/>
<polygon fill="midnightblue" stroke="midnightblue" points="148.322,-85.712 145.188,-75.5914 141.326,-85.4576 148.322,-85.712"/>
</g>
<!-- Node9 -->
<g id="node9" class="node"><title>Node9</title>
<polygon fill="white" stroke="#bfbfbf" points="173.5,-112.5 173.5,-131.5 219.5,-131.5 219.5,-112.5 173.5,-112.5"/>
<text text-anchor="middle" x="196.5" y="-119.5" font-family="Helvetica,sans-Serif" font-size="10.00">cstring</text>
</g>
<!-- Node8&#45;&gt;Node9 -->
<g id="edge13" class="edge"><title>Node8&#45;&gt;Node9</title>
<path fill="none" stroke="midnightblue" d="M150.582,-168.083C158.671,-160.141 170.695,-148.335 180.41,-138.797"/>
<polygon fill="midnightblue" stroke="midnightblue" points="182.903,-141.254 187.587,-131.751 177.999,-136.26 182.903,-141.254"/>
</g>
</g>
</svg>
