<?xml version="1.0" encoding="UTF-8" standalone="no"?>
<!DOCTYPE svg PUBLIC "-//W3C//DTD SVG 1.1//EN"
 "http://www.w3.org/Graphics/SVG/1.1/DTD/svg11.dtd">
<!-- Generated by graphviz version 2.38.0 (20140413.2041)
 -->
<!-- Title: erpc_framed_transport.h Pages: 1 -->
<svg width="1454pt" height="95pt"
 viewBox="0.00 0.00 1453.50 95.00" xmlns="http://www.w3.org/2000/svg" xmlns:xlink="http://www.w3.org/1999/xlink">
<g id="graph0" class="graph" transform="scale(1 1) rotate(0) translate(4 91)">
<title>erpc_framed_transport.h</title>
<polygon fill="white" stroke="none" points="-4,4 -4,-91 1449.5,-91 1449.5,4 -4,4"/>
<!-- Node1 -->
<g id="node1" class="node"><title>Node1</title>
<polygon fill="#bfbfbf" stroke="black" points="690,-67.5 690,-86.5 812,-86.5 812,-67.5 690,-67.5"/>
<text text-anchor="middle" x="751" y="-74.5" font-family="Helvetica,sans-Serif" font-size="10.00">erpc_framed_transport.h</text>
</g>
<!-- Node2 -->
<g id="node2" class="node"><title>Node2</title>
<g id="a_node2"><a xlink:href="erpc__dspi__master__transport_8h.html" target="_top" xlink:title="erpc_dspi_master_transport.h">
<polygon fill="white" stroke="black" points="0,-6 0,-25 146,-25 146,-6 0,-6"/>
<text text-anchor="middle" x="73" y="-13" font-family="Helvetica,sans-Serif" font-size="10.00">erpc_dspi_master_transport.h</text>
</a>
</g>
</g>
<!-- Node1&#45;&gt;Node2 -->
<g id="edge1" class="edge"><title>Node1&#45;&gt;Node2</title>
<path fill="none" stroke="midnightblue" d="M679.721,-72.918C567.688,-67.5565 343.694,-54.7468 155,-31 142.521,-29.4295 129.053,-27.2518 116.71,-25.061"/>
<polygon fill="midnightblue" stroke="midnightblue" points="679.728,-76.4221 689.882,-73.3984 680.058,-69.4299 679.728,-76.4221"/>
</g>
<!-- Node3 -->
<g id="node3" class="node"><title>Node3</title>
<g id="a_node3"><a xlink:href="erpc__dspi__slave__transport_8h.html" target="_top" xlink:title="erpc_dspi_slave_transport.h">
<polygon fill="white" stroke="black" points="164.5,-6 164.5,-25 301.5,-25 301.5,-6 164.5,-6"/>
<text text-anchor="middle" x="233" y="-13" font-family="Helvetica,sans-Serif" font-size="10.00">erpc_dspi_slave_transport.h</text>
</a>
</g>
</g>
<!-- Node1&#45;&gt;Node3 -->
<g id="edge2" class="edge"><title>Node1&#45;&gt;Node3</title>
<path fill="none" stroke="midnightblue" d="M679.908,-70.5317C592.734,-63.4117 440.588,-49.6398 311,-31 299.412,-29.3331 286.92,-27.1746 275.402,-25.0347"/>
<polygon fill="midnightblue" stroke="midnightblue" points="679.701,-74.0264 689.952,-71.3461 680.267,-67.0493 679.701,-74.0264"/>
</g>
<!-- Node4 -->
<g id="node4" class="node"><title>Node4</title>
<g id="a_node4"><a xlink:href="erpc__i2c__slave__transport_8h.html" target="_top" xlink:title="erpc_i2c_slave_transport.h">
<polygon fill="white" stroke="black" points="320,-6 320,-25 452,-25 452,-6 320,-6"/>
<text text-anchor="middle" x="386" y="-13" font-family="Helvetica,sans-Serif" font-size="10.00">erpc_i2c_slave_transport.h</text>
</a>
</g>
</g>
<!-- Node1&#45;&gt;Node4 -->
<g id="edge3" class="edge"><title>Node1&#45;&gt;Node4</title>
<path fill="none" stroke="midnightblue" d="M681.82,-66.0011C622.993,-57.3224 536.325,-44.121 461,-31 450.548,-29.1793 439.304,-27.0806 428.784,-25.0553"/>
<polygon fill="midnightblue" stroke="midnightblue" points="681.34,-69.4681 691.743,-67.4611 682.359,-62.5426 681.34,-69.4681"/>
</g>
<!-- Node5 -->
<g id="node5" class="node"><title>Node5</title>
<g id="a_node5"><a xlink:href="erpc__serial__transport_8h.html" target="_top" xlink:title="erpc_serial_transport.h">
<polygon fill="white" stroke="black" points="470,-6 470,-25 586,-25 586,-6 470,-6"/>
<text text-anchor="middle" x="528" y="-13" font-family="Helvetica,sans-Serif" font-size="10.00">erpc_serial_transport.h</text>
</a>
</g>
</g>
<!-- Node1&#45;&gt;Node5 -->
<g id="edge4" class="edge"><title>Node1&#45;&gt;Node5</title>
<path fill="none" stroke="midnightblue" d="M709.382,-64.8956C666.071,-53.3396 599.192,-35.4952 559.891,-25.0091"/>
<polygon fill="midnightblue" stroke="midnightblue" points="708.485,-68.2787 719.05,-67.4751 710.29,-61.5154 708.485,-68.2787"/>
</g>
<!-- Node6 -->
<g id="node6" class="node"><title>Node6</title>
<g id="a_node6"><a xlink:href="erpc__spi__master__transport_8h.html" target="_top" xlink:title="erpc_spi_master_transport.h">
<polygon fill="white" stroke="black" points="604,-6 604,-25 744,-25 744,-6 604,-6"/>
<text text-anchor="middle" x="674" y="-13" font-family="Helvetica,sans-Serif" font-size="10.00">erpc_spi_master_transport.h</text>
</a>
</g>
</g>
<!-- Node1&#45;&gt;Node6 -->
<g id="edge5" class="edge"><title>Node1&#45;&gt;Node6</title>
<path fill="none" stroke="midnightblue" d="M731.968,-61.2938C717.198,-49.8803 697.239,-34.4577 685.012,-25.0091"/>
<polygon fill="midnightblue" stroke="midnightblue" points="729.915,-64.1301 739.968,-67.4751 734.195,-58.5911 729.915,-64.1301"/>
</g>
<!-- Node7 -->
<g id="node7" class="node"><title>Node7</title>
<g id="a_node7"><a xlink:href="erpc__spi__slave__transport_8h.html" target="_top" xlink:title="erpc_spi_slave_transport.h">
<polygon fill="white" stroke="black" points="762,-6 762,-25 894,-25 894,-6 762,-6"/>
<text text-anchor="middle" x="828" y="-13" font-family="Helvetica,sans-Serif" font-size="10.00">erpc_spi_slave_transport.h</text>
</a>
</g>
</g>
<!-- Node1&#45;&gt;Node7 -->
<g id="edge6" class="edge"><title>Node1&#45;&gt;Node7</title>
<path fill="none" stroke="midnightblue" d="M770.032,-61.2938C784.802,-49.8803 804.761,-34.4577 816.988,-25.0091"/>
<polygon fill="midnightblue" stroke="midnightblue" points="767.805,-58.5911 762.032,-67.4751 772.085,-64.1301 767.805,-58.5911"/>
</g>
<!-- Node8 -->
<g id="node8" class="node"><title>Node8</title>
<g id="a_node8"><a xlink:href="erpc__spidev__master__transport_8h.html" target="_top" xlink:title="erpc_spidev_master\l_transport.h">
<polygon fill="white" stroke="black" points="912.5,-0.5 912.5,-30.5 1015.5,-30.5 1015.5,-0.5 912.5,-0.5"/>
<text text-anchor="start" x="920.5" y="-18.5" font-family="Helvetica,sans-Serif" font-size="10.00">erpc_spidev_master</text>
<text text-anchor="middle" x="964" y="-7.5" font-family="Helvetica,sans-Serif" font-size="10.00">_transport.h</text>
</a>
</g>
</g>
<!-- Node1&#45;&gt;Node8 -->
<g id="edge7" class="edge"><title>Node1&#45;&gt;Node8</title>
<path fill="none" stroke="midnightblue" d="M791.329,-64.7343C826.093,-55.0234 876.435,-40.9607 913.8,-30.523"/>
<polygon fill="midnightblue" stroke="midnightblue" points="790.207,-61.4137 781.518,-67.4751 792.091,-68.1556 790.207,-61.4137"/>
</g>
<!-- Node9 -->
<g id="node9" class="node"><title>Node9</title>
<g id="a_node9"><a xlink:href="erpc__tcp__transport_8h.html" target="_top" xlink:title="erpc_tcp_transport.h">
<polygon fill="white" stroke="black" points="1034,-6 1034,-25 1140,-25 1140,-6 1034,-6"/>
<text text-anchor="middle" x="1087" y="-13" font-family="Helvetica,sans-Serif" font-size="10.00">erpc_tcp_transport.h</text>
</a>
</g>
</g>
<!-- Node1&#45;&gt;Node9 -->
<g id="edge8" class="edge"><title>Node1&#45;&gt;Node9</title>
<path fill="none" stroke="midnightblue" d="M820.079,-65.9645C875.621,-57.5808 955.563,-44.8055 1025,-31 1033.89,-29.2324 1043.45,-27.1094 1052.33,-25.0402"/>
<polygon fill="midnightblue" stroke="midnightblue" points="819.369,-62.5317 810,-67.478 820.409,-69.4541 819.369,-62.5317"/>
</g>
<!-- Node10 -->
<g id="node10" class="node"><title>Node10</title>
<g id="a_node10"><a xlink:href="erpc__uart__cmsis__transport_8h.html" target="_top" xlink:title="erpc_uart_cmsis_transport.h">
<polygon fill="white" stroke="black" points="1158,-6 1158,-25 1298,-25 1298,-6 1158,-6"/>
<text text-anchor="middle" x="1228" y="-13" font-family="Helvetica,sans-Serif" font-size="10.00">erpc_uart_cmsis_transport.h</text>
</a>
</g>
</g>
<!-- Node1&#45;&gt;Node10 -->
<g id="edge9" class="edge"><title>Node1&#45;&gt;Node10</title>
<path fill="none" stroke="midnightblue" d="M822.619,-69.4029C902.447,-61.701 1035.28,-47.8453 1149,-31 1160.59,-29.2837 1173.08,-27.1326 1184.63,-25.0167"/>
<polygon fill="midnightblue" stroke="midnightblue" points="821.814,-65.964 812.194,-70.4028 822.483,-72.932 821.814,-65.964"/>
</g>
<!-- Node11 -->
<g id="node11" class="node"><title>Node11</title>
<g id="a_node11"><a xlink:href="erpc__usb__cdc__transport_8h.html" target="_top" xlink:title="erpc_usb_cdc_transport.h">
<polygon fill="white" stroke="black" points="1316.5,-6 1316.5,-25 1445.5,-25 1445.5,-6 1316.5,-6"/>
<text text-anchor="middle" x="1381" y="-13" font-family="Helvetica,sans-Serif" font-size="10.00">erpc_usb_cdc_transport.h</text>
</a>
</g>
</g>
<!-- Node1&#45;&gt;Node11 -->
<g id="edge10" class="edge"><title>Node1&#45;&gt;Node11</title>
<path fill="none" stroke="midnightblue" d="M822.39,-72.8007C928.478,-67.464 1133.85,-54.8937 1307,-31 1318.41,-29.4252 1330.72,-27.2197 1341.97,-25.0031"/>
<polygon fill="midnightblue" stroke="midnightblue" points="821.941,-69.3186 812.127,-73.3099 822.288,-76.31 821.941,-69.3186"/>
</g>
</g>
</svg>
