<?xml version="1.0" encoding="UTF-8" standalone="no"?>
<!DOCTYPE svg PUBLIC "-//W3C//DTD SVG 1.1//EN"
 "http://www.w3.org/Graphics/SVG/1.1/DTD/svg11.dtd">
<!-- Generated by graphviz version 2.38.0 (20140413.2041)
 -->
<!-- Title: erpc_server.h Pages: 1 -->
<svg width="502pt" height="319pt"
 viewBox="0.00 0.00 501.64 319.00" xmlns="http://www.w3.org/2000/svg" xmlns:xlink="http://www.w3.org/1999/xlink">
<g id="graph0" class="graph" transform="scale(1 1) rotate(0) translate(4 315)">
<title>erpc_server.h</title>
<polygon fill="white" stroke="none" points="-4,4 -4,-315 497.641,-315 497.641,4 -4,4"/>
<!-- Node1 -->
<g id="node1" class="node"><title>Node1</title>
<polygon fill="#bfbfbf" stroke="black" points="140,-291.5 140,-310.5 214,-310.5 214,-291.5 140,-291.5"/>
<text text-anchor="middle" x="177" y="-298.5" font-family="Helvetica,sans-Serif" font-size="10.00">erpc_server.h</text>
</g>
<!-- Node2 -->
<g id="node2" class="node"><title>Node2</title>
<g id="a_node2"><a xlink:href="erpc__client__server__common_8h.html" target="_top" xlink:title="erpc_client_server\l_common.h">
<polygon fill="white" stroke="black" points="53.5,-224.5 53.5,-254.5 148.5,-254.5 148.5,-224.5 53.5,-224.5"/>
<text text-anchor="start" x="61.5" y="-242.5" font-family="Helvetica,sans-Serif" font-size="10.00">erpc_client_server</text>
<text text-anchor="middle" x="101" y="-231.5" font-family="Helvetica,sans-Serif" font-size="10.00">_common.h</text>
</a>
</g>
</g>
<!-- Node1&#45;&gt;Node2 -->
<g id="edge1" class="edge"><title>Node1&#45;&gt;Node2</title>
<path fill="none" stroke="midnightblue" d="M166.111,-291.475C155.914,-283.492 140.283,-271.254 126.891,-260.77"/>
<polygon fill="midnightblue" stroke="midnightblue" points="128.943,-257.932 118.912,-254.523 124.628,-263.443 128.943,-257.932"/>
</g>
<!-- Node3 -->
<g id="node3" class="node"><title>Node3</title>
<g id="a_node3"><a xlink:href="erpc__config__internal_8h_source.html" target="_top" xlink:title="erpc_config_internal.h">
<polygon fill="white" stroke="black" points="45.5,-168.5 45.5,-187.5 156.5,-187.5 156.5,-168.5 45.5,-168.5"/>
<text text-anchor="middle" x="101" y="-175.5" font-family="Helvetica,sans-Serif" font-size="10.00">erpc_config_internal.h</text>
</a>
</g>
</g>
<!-- Node1&#45;&gt;Node3 -->
<g id="edge20" class="edge"><title>Node1&#45;&gt;Node3</title>
<path fill="none" stroke="midnightblue" d="M176.472,-291.316C175.204,-276.418 170.962,-245.517 157,-224 148.911,-211.534 136.221,-200.924 124.965,-193.143"/>
<polygon fill="midnightblue" stroke="midnightblue" points="126.648,-190.062 116.361,-187.528 122.822,-195.924 126.648,-190.062"/>
</g>
<!-- Node6 -->
<g id="node6" class="node"><title>Node6</title>
<g id="a_node6"><a xlink:href="erpc__codec_8h.html" target="_top" xlink:title="erpc_codec.h">
<polygon fill="white" stroke="black" points="237.5,-230 237.5,-249 312.5,-249 312.5,-230 237.5,-230"/>
<text text-anchor="middle" x="275" y="-237" font-family="Helvetica,sans-Serif" font-size="10.00">erpc_codec.h</text>
</a>
</g>
</g>
<!-- Node1&#45;&gt;Node6 -->
<g id="edge5" class="edge"><title>Node1&#45;&gt;Node6</title>
<path fill="none" stroke="midnightblue" d="M191.041,-291.475C207.051,-281.755 233.45,-265.727 252.374,-254.237"/>
<polygon fill="midnightblue" stroke="midnightblue" points="254.254,-257.191 260.985,-249.009 250.621,-251.207 254.254,-257.191"/>
</g>
<!-- Node2&#45;&gt;Node3 -->
<g id="edge2" class="edge"><title>Node2&#45;&gt;Node3</title>
<path fill="none" stroke="midnightblue" d="M101,-224.399C101,-216.466 101,-206.458 101,-197.858"/>
<polygon fill="midnightblue" stroke="midnightblue" points="104.5,-197.658 101,-187.658 97.5001,-197.658 104.5,-197.658"/>
</g>
<!-- Node4 -->
<g id="node4" class="node"><title>Node4</title>
<g id="a_node4"><a xlink:href="erpc__config_8h.html" target="_top" xlink:title="erpc_config.h">
<polygon fill="white" stroke="black" points="0,-112.5 0,-131.5 74,-131.5 74,-112.5 0,-112.5"/>
<text text-anchor="middle" x="37" y="-119.5" font-family="Helvetica,sans-Serif" font-size="10.00">erpc_config.h</text>
</a>
</g>
</g>
<!-- Node3&#45;&gt;Node4 -->
<g id="edge3" class="edge"><title>Node3&#45;&gt;Node4</title>
<path fill="none" stroke="midnightblue" d="M90.7173,-168.324C81.1637,-160.263 66.7203,-148.077 55.2157,-138.369"/>
<polygon fill="midnightblue" stroke="midnightblue" points="57.3698,-135.608 47.4698,-131.834 52.8557,-140.958 57.3698,-135.608"/>
</g>
<!-- Node5 -->
<g id="node5" class="node"><title>Node5</title>
<polygon fill="white" stroke="#bfbfbf" points="92.5,-112.5 92.5,-131.5 141.5,-131.5 141.5,-112.5 92.5,-112.5"/>
<text text-anchor="middle" x="117" y="-119.5" font-family="Helvetica,sans-Serif" font-size="10.00">cassert</text>
</g>
<!-- Node3&#45;&gt;Node5 -->
<g id="edge4" class="edge"><title>Node3&#45;&gt;Node5</title>
<path fill="none" stroke="midnightblue" d="M103.642,-168.083C105.786,-160.849 108.879,-150.409 111.549,-141.397"/>
<polygon fill="midnightblue" stroke="midnightblue" points="114.922,-142.333 114.407,-131.751 108.21,-140.345 114.922,-142.333"/>
</g>
<!-- Node7 -->
<g id="node7" class="node"><title>Node7</title>
<g id="a_node7"><a xlink:href="erpc__common_8h_source.html" target="_top" xlink:title="erpc_common.h">
<polygon fill="white" stroke="black" points="189,-56.5 189,-75.5 275,-75.5 275,-56.5 189,-56.5"/>
<text text-anchor="middle" x="232" y="-63.5" font-family="Helvetica,sans-Serif" font-size="10.00">erpc_common.h</text>
</a>
</g>
</g>
<!-- Node6&#45;&gt;Node7 -->
<g id="edge6" class="edge"><title>Node6&#45;&gt;Node7</title>
<path fill="none" stroke="midnightblue" d="M266.475,-229.783C250.472,-212.735 216.428,-173.048 204,-132 198.85,-114.992 208.456,-96.4558 217.788,-83.5463"/>
<polygon fill="midnightblue" stroke="midnightblue" points="220.606,-85.6251 224.021,-75.5958 215.097,-81.3064 220.606,-85.6251"/>
</g>
<!-- Node8 -->
<g id="node8" class="node"><title>Node8</title>
<polygon fill="white" stroke="#bfbfbf" points="337.5,-0.5 337.5,-19.5 386.5,-19.5 386.5,-0.5 337.5,-0.5"/>
<text text-anchor="middle" x="362" y="-7.5" font-family="Helvetica,sans-Serif" font-size="10.00">stdint.h</text>
</g>
<!-- Node6&#45;&gt;Node8 -->
<g id="edge19" class="edge"><title>Node6&#45;&gt;Node8</title>
<path fill="none" stroke="midnightblue" d="M312.664,-231.636C361.608,-220.438 444.943,-193.035 480,-132 496.823,-102.71 499.162,-83.8162 480,-56 461.471,-29.1029 424.549,-18.2713 396.915,-13.9157"/>
<polygon fill="midnightblue" stroke="midnightblue" points="397.217,-10.4247 386.836,-12.5435 396.273,-17.3607 397.217,-10.4247"/>
</g>
<!-- Node9 -->
<g id="node9" class="node"><title>Node9</title>
<g id="a_node9"><a xlink:href="erpc__message__buffer_8h.html" target="_top" xlink:title="erpc_message_buffer.h">
<polygon fill="white" stroke="black" points="353.5,-112.5 353.5,-131.5 470.5,-131.5 470.5,-112.5 353.5,-112.5"/>
<text text-anchor="middle" x="412" y="-119.5" font-family="Helvetica,sans-Serif" font-size="10.00">erpc_message_buffer.h</text>
</a>
</g>
</g>
<!-- Node6&#45;&gt;Node9 -->
<g id="edge8" class="edge"><title>Node6&#45;&gt;Node9</title>
<path fill="none" stroke="midnightblue" d="M293.495,-229.96C311.608,-221.057 339.411,-205.915 360,-188 376.121,-173.972 390.969,-154.462 400.635,-140.484"/>
<polygon fill="midnightblue" stroke="midnightblue" points="403.78,-142.079 406.451,-131.826 397.969,-138.175 403.78,-142.079"/>
</g>
<!-- Node11 -->
<g id="node11" class="node"><title>Node11</title>
<g id="a_node11"><a xlink:href="erpc__transport_8h.html" target="_top" xlink:title="erpc_transport.h">
<polygon fill="white" stroke="black" points="264.5,-168.5 264.5,-187.5 351.5,-187.5 351.5,-168.5 264.5,-168.5"/>
<text text-anchor="middle" x="308" y="-175.5" font-family="Helvetica,sans-Serif" font-size="10.00">erpc_transport.h</text>
</a>
</g>
</g>
<!-- Node6&#45;&gt;Node11 -->
<g id="edge12" class="edge"><title>Node6&#45;&gt;Node11</title>
<path fill="none" stroke="midnightblue" d="M279.728,-229.975C284.58,-221.227 292.266,-207.369 298.4,-196.309"/>
<polygon fill="midnightblue" stroke="midnightblue" points="301.491,-197.952 303.281,-187.509 295.37,-194.557 301.491,-197.952"/>
</g>
<!-- Node13 -->
<g id="node13" class="node"><title>Node13</title>
<polygon fill="white" stroke="#bfbfbf" points="213,-112.5 213,-131.5 259,-131.5 259,-112.5 213,-112.5"/>
<text text-anchor="middle" x="236" y="-119.5" font-family="Helvetica,sans-Serif" font-size="10.00">cstring</text>
</g>
<!-- Node6&#45;&gt;Node13 -->
<g id="edge18" class="edge"><title>Node6&#45;&gt;Node13</title>
<path fill="none" stroke="midnightblue" d="M271.207,-229.653C266.984,-219.644 260.083,-202.805 255,-188 249.691,-172.537 244.543,-154.693 240.948,-141.618"/>
<polygon fill="midnightblue" stroke="midnightblue" points="244.313,-140.653 238.324,-131.913 237.556,-142.48 244.313,-140.653"/>
</g>
<!-- Node7&#45;&gt;Node8 -->
<g id="edge7" class="edge"><title>Node7&#45;&gt;Node8</title>
<path fill="none" stroke="midnightblue" d="M252.599,-56.4435C273.993,-47.5566 307.681,-33.5632 332.024,-23.4514"/>
<polygon fill="midnightblue" stroke="midnightblue" points="333.605,-26.5848 341.497,-19.5164 330.92,-20.1203 333.605,-26.5848"/>
</g>
<!-- Node9&#45;&gt;Node7 -->
<g id="edge9" class="edge"><title>Node9&#45;&gt;Node7</title>
<path fill="none" stroke="midnightblue" d="M383.478,-112.444C352.934,-103.28 304.292,-88.6876 270.397,-78.5192"/>
<polygon fill="midnightblue" stroke="midnightblue" points="270.972,-75.0376 260.388,-75.5164 268.961,-81.7424 270.972,-75.0376"/>
</g>
<!-- Node9&#45;&gt;Node8 -->
<g id="edge11" class="edge"><title>Node9&#45;&gt;Node8</title>
<path fill="none" stroke="midnightblue" d="M408.077,-112.368C399.935,-94.4563 381.056,-52.9233 370.158,-28.9482"/>
<polygon fill="midnightblue" stroke="midnightblue" points="373.23,-27.2468 365.905,-19.5914 366.857,-30.1434 373.23,-27.2468"/>
</g>
<!-- Node10 -->
<g id="node10" class="node"><title>Node10</title>
<polygon fill="white" stroke="#bfbfbf" points="423,-56.5 423,-75.5 471,-75.5 471,-56.5 423,-56.5"/>
<text text-anchor="middle" x="447" y="-63.5" font-family="Helvetica,sans-Serif" font-size="10.00">cstddef</text>
</g>
<!-- Node9&#45;&gt;Node10 -->
<g id="edge10" class="edge"><title>Node9&#45;&gt;Node10</title>
<path fill="none" stroke="midnightblue" d="M417.78,-112.083C422.672,-104.534 429.827,-93.4948 435.833,-84.2298"/>
<polygon fill="midnightblue" stroke="midnightblue" points="438.826,-86.0463 441.328,-75.7511 432.952,-82.239 438.826,-86.0463"/>
</g>
<!-- Node11&#45;&gt;Node7 -->
<g id="edge13" class="edge"><title>Node11&#45;&gt;Node7</title>
<path fill="none" stroke="midnightblue" d="M303.146,-168.372C295.925,-155.716 281.726,-131.505 268,-112 261.163,-102.284 252.922,-91.8988 246.052,-83.5562"/>
<polygon fill="midnightblue" stroke="midnightblue" points="248.6,-81.1476 239.504,-75.7154 243.227,-85.6344 248.6,-81.1476"/>
</g>
<!-- Node11&#45;&gt;Node9 -->
<g id="edge16" class="edge"><title>Node11&#45;&gt;Node9</title>
<path fill="none" stroke="midnightblue" d="M324.709,-168.324C341.312,-159.703 367.002,-146.364 386.22,-136.386"/>
<polygon fill="midnightblue" stroke="midnightblue" points="388.07,-139.369 395.332,-131.655 384.844,-133.156 388.07,-139.369"/>
</g>
<!-- Node12 -->
<g id="node12" class="node"><title>Node12</title>
<g id="a_node12"><a xlink:href="erpc__crc16_8h.html" target="_top" xlink:title="erpc_crc16.h">
<polygon fill="white" stroke="black" points="293.5,-56.5 293.5,-75.5 366.5,-75.5 366.5,-56.5 293.5,-56.5"/>
<text text-anchor="middle" x="330" y="-63.5" font-family="Helvetica,sans-Serif" font-size="10.00">erpc_crc16.h</text>
</a>
</g>
</g>
<!-- Node11&#45;&gt;Node12 -->
<g id="edge14" class="edge"><title>Node11&#45;&gt;Node12</title>
<path fill="none" stroke="midnightblue" d="M309.726,-168.368C313.277,-150.617 321.467,-109.666 326.281,-85.5974"/>
<polygon fill="midnightblue" stroke="midnightblue" points="329.753,-86.0837 328.282,-75.5914 322.888,-84.7108 329.753,-86.0837"/>
</g>
<!-- Node11&#45;&gt;Node13 -->
<g id="edge17" class="edge"><title>Node11&#45;&gt;Node13</title>
<path fill="none" stroke="midnightblue" d="M296.432,-168.324C285.58,-160.185 269.119,-147.839 256.117,-138.087"/>
<polygon fill="midnightblue" stroke="midnightblue" points="257.879,-135.034 247.779,-131.834 253.679,-140.634 257.879,-135.034"/>
</g>
<!-- Node12&#45;&gt;Node8 -->
<g id="edge15" class="edge"><title>Node12&#45;&gt;Node8</title>
<path fill="none" stroke="midnightblue" d="M335.284,-56.083C339.711,-48.6127 346.163,-37.7244 351.618,-28.5199"/>
<polygon fill="midnightblue" stroke="midnightblue" points="354.727,-30.1383 356.814,-19.7511 348.705,-26.5697 354.727,-30.1383"/>
</g>
</g>
</svg>
