<?xml version="1.0" encoding="UTF-8" standalone="no"?>
<!DOCTYPE svg PUBLIC "-//W3C//DTD SVG 1.1//EN"
 "http://www.w3.org/Graphics/SVG/1.1/DTD/svg11.dtd">
<!-- Generated by graphviz version 2.38.0 (20140413.2041)
 -->
<!-- Title: erpc_mbox_zephyr_transport.hpp Pages: 1 -->
<svg width="732pt" height="196pt"
 viewBox="0.00 0.00 732.00 196.00" xmlns="http://www.w3.org/2000/svg" xmlns:xlink="http://www.w3.org/1999/xlink">
<g id="graph0" class="graph" transform="scale(1 1) rotate(0) translate(4 192)">
<title>erpc_mbox_zephyr_transport.hpp</title>
<polygon fill="white" stroke="none" points="-4,4 -4,-192 728,-192 728,4 -4,4"/>
<!-- Node1 -->
<g id="node1" class="node"><title>Node1</title>
<polygon fill="#bfbfbf" stroke="black" points="305.5,-168.5 305.5,-187.5 466.5,-187.5 466.5,-168.5 305.5,-168.5"/>
<text text-anchor="middle" x="386" y="-175.5" font-family="Helvetica,sans-Serif" font-size="10.00">erpc_mbox_zephyr_transport.hpp</text>
</g>
<!-- Node2 -->
<g id="node2" class="node"><title>Node2</title>
<g id="a_node2"><a xlink:href="erpc__config__internal_8h_source.html" target="_top" xlink:title="erpc_config_internal.h">
<polygon fill="white" stroke="black" points="53.5,-56.5 53.5,-75.5 164.5,-75.5 164.5,-56.5 53.5,-56.5"/>
<text text-anchor="middle" x="109" y="-63.5" font-family="Helvetica,sans-Serif" font-size="10.00">erpc_config_internal.h</text>
</a>
</g>
</g>
<!-- Node1&#45;&gt;Node2 -->
<g id="edge1" class="edge"><title>Node1&#45;&gt;Node2</title>
<path fill="none" stroke="midnightblue" d="M305.448,-170.347C243.597,-163.792 164.581,-151.825 139,-132 124.439,-120.716 116.683,-100.709 112.732,-85.8628"/>
<polygon fill="midnightblue" stroke="midnightblue" points="116.058,-84.7058 110.404,-75.7457 109.236,-86.2759 116.058,-84.7058"/>
</g>
<!-- Node5 -->
<g id="node5" class="node"><title>Node5</title>
<g id="a_node5"><a xlink:href="erpc__threading_8h.html" target="_top" xlink:title="erpc_threading.h">
<polygon fill="white" stroke="black" points="148.5,-112.5 148.5,-131.5 237.5,-131.5 237.5,-112.5 148.5,-112.5"/>
<text text-anchor="middle" x="193" y="-119.5" font-family="Helvetica,sans-Serif" font-size="10.00">erpc_threading.h</text>
</a>
</g>
</g>
<!-- Node1&#45;&gt;Node5 -->
<g id="edge4" class="edge"><title>Node1&#45;&gt;Node5</title>
<path fill="none" stroke="midnightblue" d="M355.419,-168.444C322.385,-159.201 269.612,-144.436 233.234,-134.257"/>
<polygon fill="midnightblue" stroke="midnightblue" points="234.012,-130.84 223.438,-131.516 232.125,-137.582 234.012,-130.84"/>
</g>
<!-- Node7 -->
<g id="node7" class="node"><title>Node7</title>
<g id="a_node7"><a xlink:href="erpc__transport_8hpp.html" target="_top" xlink:title="erpc_transport.hpp">
<polygon fill="white" stroke="black" points="292,-112.5 292,-131.5 390,-131.5 390,-112.5 292,-112.5"/>
<text text-anchor="middle" x="341" y="-119.5" font-family="Helvetica,sans-Serif" font-size="10.00">erpc_transport.hpp</text>
</a>
</g>
</g>
<!-- Node1&#45;&gt;Node7 -->
<g id="edge7" class="edge"><title>Node1&#45;&gt;Node7</title>
<path fill="none" stroke="midnightblue" d="M378.569,-168.083C372.147,-160.377 362.694,-149.033 354.878,-139.653"/>
<polygon fill="midnightblue" stroke="midnightblue" points="357.383,-137.193 348.293,-131.751 352.006,-141.674 357.383,-137.193"/>
</g>
<!-- Node14 -->
<g id="node14" class="node"><title>Node14</title>
<polygon fill="white" stroke="#bfbfbf" points="408,-112.5 408,-131.5 456,-131.5 456,-112.5 408,-112.5"/>
<text text-anchor="middle" x="432" y="-119.5" font-family="Helvetica,sans-Serif" font-size="10.00">stdlib.h</text>
</g>
<!-- Node1&#45;&gt;Node14 -->
<g id="edge16" class="edge"><title>Node1&#45;&gt;Node14</title>
<path fill="none" stroke="midnightblue" d="M393.596,-168.083C400.227,-160.298 410.021,-148.801 418.058,-139.367"/>
<polygon fill="midnightblue" stroke="midnightblue" points="420.725,-141.633 424.545,-131.751 415.396,-137.094 420.725,-141.633"/>
</g>
<!-- Node15 -->
<g id="node15" class="node"><title>Node15</title>
<polygon fill="white" stroke="#bfbfbf" points="474,-112.5 474,-131.5 586,-131.5 586,-112.5 474,-112.5"/>
<text text-anchor="middle" x="530" y="-119.5" font-family="Helvetica,sans-Serif" font-size="10.00">zephyr/drivers/mbox.h</text>
</g>
<!-- Node1&#45;&gt;Node15 -->
<g id="edge17" class="edge"><title>Node1&#45;&gt;Node15</title>
<path fill="none" stroke="midnightblue" d="M408.817,-168.444C432.832,-159.438 470.829,-145.189 497.869,-135.049"/>
<polygon fill="midnightblue" stroke="midnightblue" points="499.155,-138.305 507.29,-131.516 496.697,-131.751 499.155,-138.305"/>
</g>
<!-- Node16 -->
<g id="node16" class="node"><title>Node16</title>
<polygon fill="white" stroke="#bfbfbf" points="604,-112.5 604,-131.5 724,-131.5 724,-112.5 604,-112.5"/>
<text text-anchor="middle" x="664" y="-119.5" font-family="Helvetica,sans-Serif" font-size="10.00">zephyr/sys/ring_buffer.h</text>
</g>
<!-- Node1&#45;&gt;Node16 -->
<g id="edge18" class="edge"><title>Node1&#45;&gt;Node16</title>
<path fill="none" stroke="midnightblue" d="M430.05,-168.444C478.851,-158.964 557.563,-143.675 610.03,-133.483"/>
<polygon fill="midnightblue" stroke="midnightblue" points="611.007,-136.859 620.156,-131.516 609.672,-129.988 611.007,-136.859"/>
</g>
<!-- Node3 -->
<g id="node3" class="node"><title>Node3</title>
<g id="a_node3"><a xlink:href="erpc__config_8h.html" target="_top" xlink:title="erpc_config.h">
<polygon fill="white" stroke="black" points="0,-0.5 0,-19.5 74,-19.5 74,-0.5 0,-0.5"/>
<text text-anchor="middle" x="37" y="-7.5" font-family="Helvetica,sans-Serif" font-size="10.00">erpc_config.h</text>
</a>
</g>
</g>
<!-- Node2&#45;&gt;Node3 -->
<g id="edge2" class="edge"><title>Node2&#45;&gt;Node3</title>
<path fill="none" stroke="midnightblue" d="M97.432,-56.324C86.5798,-48.1849 70.1193,-35.8395 57.1166,-26.0874"/>
<polygon fill="midnightblue" stroke="midnightblue" points="58.8786,-23.0339 48.7785,-19.8339 54.6785,-28.6339 58.8786,-23.0339"/>
</g>
<!-- Node4 -->
<g id="node4" class="node"><title>Node4</title>
<polygon fill="white" stroke="#bfbfbf" points="92.5,-0.5 92.5,-19.5 141.5,-19.5 141.5,-0.5 92.5,-0.5"/>
<text text-anchor="middle" x="117" y="-7.5" font-family="Helvetica,sans-Serif" font-size="10.00">cassert</text>
</g>
<!-- Node2&#45;&gt;Node4 -->
<g id="edge3" class="edge"><title>Node2&#45;&gt;Node4</title>
<path fill="none" stroke="midnightblue" d="M110.321,-56.083C111.381,-48.9272 112.906,-38.6353 114.231,-29.6911"/>
<polygon fill="midnightblue" stroke="midnightblue" points="117.7,-30.1561 115.704,-19.7511 110.776,-29.1302 117.7,-30.1561"/>
</g>
<!-- Node5&#45;&gt;Node2 -->
<g id="edge5" class="edge"><title>Node5&#45;&gt;Node2</title>
<path fill="none" stroke="midnightblue" d="M179.504,-112.324C166.4,-103.9 146.288,-90.9709 130.893,-81.0741"/>
<polygon fill="midnightblue" stroke="midnightblue" points="132.767,-78.118 122.463,-75.6545 128.982,-84.0063 132.767,-78.118"/>
</g>
<!-- Node6 -->
<g id="node6" class="node"><title>Node6</title>
<polygon fill="white" stroke="#bfbfbf" points="180.5,-0.5 180.5,-19.5 229.5,-19.5 229.5,-0.5 180.5,-0.5"/>
<text text-anchor="middle" x="205" y="-7.5" font-family="Helvetica,sans-Serif" font-size="10.00">stdint.h</text>
</g>
<!-- Node5&#45;&gt;Node6 -->
<g id="edge6" class="edge"><title>Node5&#45;&gt;Node6</title>
<path fill="none" stroke="midnightblue" d="M193.942,-112.368C195.878,-94.617 200.345,-53.6664 202.971,-29.5974"/>
<polygon fill="midnightblue" stroke="midnightblue" points="206.458,-29.912 204.063,-19.5914 199.499,-29.1528 206.458,-29.912"/>
</g>
<!-- Node8 -->
<g id="node8" class="node"><title>Node8</title>
<g id="a_node8"><a xlink:href="erpc__common_8h_source.html" target="_top" xlink:title="erpc_common.h">
<polygon fill="white" stroke="black" points="324,-0.5 324,-19.5 410,-19.5 410,-0.5 324,-0.5"/>
<text text-anchor="middle" x="367" y="-7.5" font-family="Helvetica,sans-Serif" font-size="10.00">erpc_common.h</text>
</a>
</g>
</g>
<!-- Node7&#45;&gt;Node8 -->
<g id="edge8" class="edge"><title>Node7&#45;&gt;Node8</title>
<path fill="none" stroke="midnightblue" d="M344.988,-112.225C348.886,-103.29 354.702,-88.9488 358,-76 361.915,-60.6304 364.233,-42.7541 365.534,-29.643"/>
<polygon fill="midnightblue" stroke="midnightblue" points="369.034,-29.8004 366.43,-19.5306 362.061,-29.1828 369.034,-29.8004"/>
</g>
<!-- Node9 -->
<g id="node9" class="node"><title>Node9</title>
<g id="a_node9"><a xlink:href="erpc__crc16_8hpp.html" target="_top" xlink:title="erpc_crc16.hpp">
<polygon fill="white" stroke="black" points="405.5,-56.5 405.5,-75.5 488.5,-75.5 488.5,-56.5 405.5,-56.5"/>
<text text-anchor="middle" x="447" y="-63.5" font-family="Helvetica,sans-Serif" font-size="10.00">erpc_crc16.hpp</text>
</a>
</g>
</g>
<!-- Node7&#45;&gt;Node9 -->
<g id="edge9" class="edge"><title>Node7&#45;&gt;Node9</title>
<path fill="none" stroke="midnightblue" d="M358.031,-112.324C375.03,-103.664 401.376,-90.2424 420.993,-80.249"/>
<polygon fill="midnightblue" stroke="midnightblue" points="422.69,-83.3125 430.012,-75.6545 419.512,-77.0752 422.69,-83.3125"/>
</g>
<!-- Node11 -->
<g id="node11" class="node"><title>Node11</title>
<g id="a_node11"><a xlink:href="erpc__message__buffer_8hpp.html" target="_top" xlink:title="erpc_message_buffer.hpp">
<polygon fill="white" stroke="black" points="221,-56.5 221,-75.5 349,-75.5 349,-56.5 221,-56.5"/>
<text text-anchor="middle" x="285" y="-63.5" font-family="Helvetica,sans-Serif" font-size="10.00">erpc_message_buffer.hpp</text>
</a>
</g>
</g>
<!-- Node7&#45;&gt;Node11 -->
<g id="edge11" class="edge"><title>Node7&#45;&gt;Node11</title>
<path fill="none" stroke="midnightblue" d="M332.003,-112.324C323.806,-104.42 311.494,-92.5482 301.528,-82.9377"/>
<polygon fill="midnightblue" stroke="midnightblue" points="303.789,-80.2558 294.161,-75.8339 298.93,-85.2947 303.789,-80.2558"/>
</g>
<!-- Node13 -->
<g id="node13" class="node"><title>Node13</title>
<polygon fill="white" stroke="#bfbfbf" points="507,-56.5 507,-75.5 553,-75.5 553,-56.5 507,-56.5"/>
<text text-anchor="middle" x="530" y="-63.5" font-family="Helvetica,sans-Serif" font-size="10.00">cstring</text>
</g>
<!-- Node7&#45;&gt;Node13 -->
<g id="edge15" class="edge"><title>Node7&#45;&gt;Node13</title>
<path fill="none" stroke="midnightblue" d="M370.948,-112.444C405.242,-102.645 461.263,-86.6391 496.847,-76.4723"/>
<polygon fill="midnightblue" stroke="midnightblue" points="498.093,-79.7565 506.746,-73.6439 496.17,-73.0258 498.093,-79.7565"/>
</g>
<!-- Node10 -->
<g id="node10" class="node"><title>Node10</title>
<polygon fill="white" stroke="#bfbfbf" points="428,-0.5 428,-19.5 474,-19.5 474,-0.5 428,-0.5"/>
<text text-anchor="middle" x="451" y="-7.5" font-family="Helvetica,sans-Serif" font-size="10.00">cstdint</text>
</g>
<!-- Node9&#45;&gt;Node10 -->
<g id="edge10" class="edge"><title>Node9&#45;&gt;Node10</title>
<path fill="none" stroke="midnightblue" d="M447.661,-56.083C448.185,-49.0059 448.936,-38.8611 449.594,-29.9865"/>
<polygon fill="midnightblue" stroke="midnightblue" points="453.103,-29.9823 450.352,-19.7511 446.123,-29.4652 453.103,-29.9823"/>
</g>
<!-- Node11&#45;&gt;Node6 -->
<g id="edge14" class="edge"><title>Node11&#45;&gt;Node6</title>
<path fill="none" stroke="midnightblue" d="M272.147,-56.324C259.784,-47.979 240.87,-35.2122 226.263,-25.3524"/>
<polygon fill="midnightblue" stroke="midnightblue" points="228.068,-22.3483 217.821,-19.6545 224.152,-28.1503 228.068,-22.3483"/>
</g>
<!-- Node11&#45;&gt;Node8 -->
<g id="edge12" class="edge"><title>Node11&#45;&gt;Node8</title>
<path fill="none" stroke="midnightblue" d="M298.175,-56.324C310.847,-47.979 330.233,-35.2122 345.206,-25.3524"/>
<polygon fill="midnightblue" stroke="midnightblue" points="347.431,-28.0776 353.858,-19.6545 343.581,-22.2313 347.431,-28.0776"/>
</g>
<!-- Node12 -->
<g id="node12" class="node"><title>Node12</title>
<polygon fill="white" stroke="#bfbfbf" points="258,-0.5 258,-19.5 306,-19.5 306,-0.5 258,-0.5"/>
<text text-anchor="middle" x="282" y="-7.5" font-family="Helvetica,sans-Serif" font-size="10.00">cstddef</text>
</g>
<!-- Node11&#45;&gt;Node12 -->
<g id="edge13" class="edge"><title>Node11&#45;&gt;Node12</title>
<path fill="none" stroke="midnightblue" d="M284.505,-56.083C284.111,-49.0059 283.548,-38.8611 283.055,-29.9865"/>
<polygon fill="midnightblue" stroke="midnightblue" points="286.536,-29.5415 282.486,-19.7511 279.546,-29.9299 286.536,-29.5415"/>
</g>
</g>
</svg>
