<?xml version="1.0" encoding="UTF-8" standalone="no"?>
<!DOCTYPE svg PUBLIC "-//W3C//DTD SVG 1.1//EN"
 "http://www.w3.org/Graphics/SVG/1.1/DTD/svg11.dtd">
<!-- Generated by graphviz version 2.38.0 (20140413.2041)
 -->
<!-- Title: erpc_uart_cmsis_transport.h Pages: 1 -->
<svg width="529pt" height="308pt"
 viewBox="0.00 0.00 528.50 308.00" xmlns="http://www.w3.org/2000/svg" xmlns:xlink="http://www.w3.org/1999/xlink">
<g id="graph0" class="graph" transform="scale(1 1) rotate(0) translate(4 304)">
<title>erpc_uart_cmsis_transport.h</title>
<polygon fill="white" stroke="none" points="-4,4 -4,-304 524.5,-304 524.5,4 -4,4"/>
<!-- Node1 -->
<g id="node1" class="node"><title>Node1</title>
<polygon fill="#bfbfbf" stroke="black" points="186.5,-280.5 186.5,-299.5 326.5,-299.5 326.5,-280.5 186.5,-280.5"/>
<text text-anchor="middle" x="256.5" y="-287.5" font-family="Helvetica,sans-Serif" font-size="10.00">erpc_uart_cmsis_transport.h</text>
</g>
<!-- Node2 -->
<g id="node2" class="node"><title>Node2</title>
<g id="a_node2"><a xlink:href="erpc__config__internal_8h_source.html" target="_top" xlink:title="erpc_config_internal.h">
<polygon fill="white" stroke="black" points="39,-112.5 39,-131.5 150,-131.5 150,-112.5 39,-112.5"/>
<text text-anchor="middle" x="94.5" y="-119.5" font-family="Helvetica,sans-Serif" font-size="10.00">erpc_config_internal.h</text>
</a>
</g>
</g>
<!-- Node1&#45;&gt;Node2 -->
<g id="edge1" class="edge"><title>Node1&#45;&gt;Node2</title>
<path fill="none" stroke="midnightblue" d="M234.785,-280.398C202.436,-266.347 142.316,-235.219 113.5,-188 104.792,-173.73 99.8957,-155.26 97.2634,-141.657"/>
<polygon fill="midnightblue" stroke="midnightblue" points="100.676,-140.848 95.5508,-131.575 93.775,-142.02 100.676,-140.848"/>
</g>
<!-- Node5 -->
<g id="node5" class="node"><title>Node5</title>
<g id="a_node5"><a xlink:href="erpc__threading_8h.html" target="_top" xlink:title="erpc_threading.h">
<polygon fill="white" stroke="black" points="123,-168.5 123,-187.5 212,-187.5 212,-168.5 123,-168.5"/>
<text text-anchor="middle" x="167.5" y="-175.5" font-family="Helvetica,sans-Serif" font-size="10.00">erpc_threading.h</text>
</a>
</g>
</g>
<!-- Node1&#45;&gt;Node5 -->
<g id="edge4" class="edge"><title>Node1&#45;&gt;Node5</title>
<path fill="none" stroke="midnightblue" d="M235.506,-280.419C219.834,-272.987 199.043,-260.779 186.5,-244 176.491,-230.611 171.739,-212.043 169.492,-198.179"/>
<polygon fill="midnightblue" stroke="midnightblue" points="172.909,-197.315 168.133,-187.858 165.969,-198.229 172.909,-197.315"/>
</g>
<!-- Node7 -->
<g id="node7" class="node"><title>Node7</title>
<g id="a_node7"><a xlink:href="erpc__framed__transport_8h.html" target="_top" xlink:title="erpc_framed_transport.h">
<polygon fill="white" stroke="black" points="195.5,-224.5 195.5,-243.5 317.5,-243.5 317.5,-224.5 195.5,-224.5"/>
<text text-anchor="middle" x="256.5" y="-231.5" font-family="Helvetica,sans-Serif" font-size="10.00">erpc_framed_transport.h</text>
</a>
</g>
</g>
<!-- Node1&#45;&gt;Node7 -->
<g id="edge7" class="edge"><title>Node1&#45;&gt;Node7</title>
<path fill="none" stroke="midnightblue" d="M256.5,-280.083C256.5,-273.006 256.5,-262.861 256.5,-253.986"/>
<polygon fill="midnightblue" stroke="midnightblue" points="260,-253.751 256.5,-243.751 253,-253.751 260,-253.751"/>
</g>
<!-- Node14 -->
<g id="node14" class="node"><title>Node14</title>
<polygon fill="white" stroke="#bfbfbf" points="335.5,-224.5 335.5,-243.5 421.5,-243.5 421.5,-224.5 335.5,-224.5"/>
<text text-anchor="middle" x="378.5" y="-231.5" font-family="Helvetica,sans-Serif" font-size="10.00">Driver_USART.h</text>
</g>
<!-- Node1&#45;&gt;Node14 -->
<g id="edge22" class="edge"><title>Node1&#45;&gt;Node14</title>
<path fill="none" stroke="midnightblue" d="M275.831,-280.444C295.82,-271.596 327.243,-257.687 350.064,-247.586"/>
<polygon fill="midnightblue" stroke="midnightblue" points="351.532,-250.764 359.259,-243.516 348.698,-244.363 351.532,-250.764"/>
</g>
<!-- Node15 -->
<g id="node15" class="node"><title>Node15</title>
<polygon fill="white" stroke="#bfbfbf" points="439.5,-224.5 439.5,-243.5 487.5,-243.5 487.5,-224.5 439.5,-224.5"/>
<text text-anchor="middle" x="463.5" y="-231.5" font-family="Helvetica,sans-Serif" font-size="10.00">stdlib.h</text>
</g>
<!-- Node1&#45;&gt;Node15 -->
<g id="edge23" class="edge"><title>Node1&#45;&gt;Node15</title>
<path fill="none" stroke="midnightblue" d="M290.216,-280.42C323.308,-271.969 375.466,-258.566 429.592,-244.217"/>
<polygon fill="midnightblue" stroke="midnightblue" points="430.593,-247.573 439.359,-241.623 428.796,-240.807 430.593,-247.573"/>
</g>
<!-- Node3 -->
<g id="node3" class="node"><title>Node3</title>
<g id="a_node3"><a xlink:href="erpc__config_8h.html" target="_top" xlink:title="erpc_config.h">
<polygon fill="white" stroke="black" points="67.5,-56.5 67.5,-75.5 141.5,-75.5 141.5,-56.5 67.5,-56.5"/>
<text text-anchor="middle" x="104.5" y="-63.5" font-family="Helvetica,sans-Serif" font-size="10.00">erpc_config.h</text>
</a>
</g>
</g>
<!-- Node2&#45;&gt;Node3 -->
<g id="edge2" class="edge"><title>Node2&#45;&gt;Node3</title>
<path fill="none" stroke="midnightblue" d="M96.1513,-112.083C97.4764,-104.927 99.3824,-94.6353 101.039,-85.6911"/>
<polygon fill="midnightblue" stroke="midnightblue" points="104.5,-86.2212 102.879,-75.7511 97.617,-84.9466 104.5,-86.2212"/>
</g>
<!-- Node4 -->
<g id="node4" class="node"><title>Node4</title>
<polygon fill="white" stroke="#bfbfbf" points="0,-56.5 0,-75.5 49,-75.5 49,-56.5 0,-56.5"/>
<text text-anchor="middle" x="24.5" y="-63.5" font-family="Helvetica,sans-Serif" font-size="10.00">cassert</text>
</g>
<!-- Node2&#45;&gt;Node4 -->
<g id="edge3" class="edge"><title>Node2&#45;&gt;Node4</title>
<path fill="none" stroke="midnightblue" d="M83.2533,-112.324C72.7026,-104.185 56.6993,-91.8395 44.0578,-82.0874"/>
<polygon fill="midnightblue" stroke="midnightblue" points="46.007,-79.1707 35.9513,-75.8339 41.7314,-84.7132 46.007,-79.1707"/>
</g>
<!-- Node5&#45;&gt;Node2 -->
<g id="edge5" class="edge"><title>Node5&#45;&gt;Node2</title>
<path fill="none" stroke="midnightblue" d="M155.771,-168.324C144.663,-160.107 127.758,-147.602 114.517,-137.807"/>
<polygon fill="midnightblue" stroke="midnightblue" points="116.563,-134.967 106.442,-131.834 112.4,-140.595 116.563,-134.967"/>
</g>
<!-- Node6 -->
<g id="node6" class="node"><title>Node6</title>
<polygon fill="white" stroke="#bfbfbf" points="260,-0.5 260,-19.5 309,-19.5 309,-0.5 260,-0.5"/>
<text text-anchor="middle" x="284.5" y="-7.5" font-family="Helvetica,sans-Serif" font-size="10.00">stdint.h</text>
</g>
<!-- Node5&#45;&gt;Node6 -->
<g id="edge6" class="edge"><title>Node5&#45;&gt;Node6</title>
<path fill="none" stroke="midnightblue" d="M170.457,-168.347C177.909,-147.406 199.057,-93.0029 229.5,-56 239.025,-44.4227 251.899,-33.6972 262.798,-25.6233"/>
<polygon fill="midnightblue" stroke="midnightblue" points="264.913,-28.4138 271.013,-19.7511 260.842,-22.7191 264.913,-28.4138"/>
</g>
<!-- Node7&#45;&gt;Node2 -->
<g id="edge8" class="edge"><title>Node7&#45;&gt;Node2</title>
<path fill="none" stroke="midnightblue" d="M253.852,-224.113C249.275,-210.221 238.593,-183.364 220.5,-168 201.134,-151.555 175.317,-140.948 152.095,-134.192"/>
<polygon fill="midnightblue" stroke="midnightblue" points="152.897,-130.783 142.328,-131.527 151.054,-137.536 152.897,-130.783"/>
</g>
<!-- Node7&#45;&gt;Node5 -->
<g id="edge21" class="edge"><title>Node7&#45;&gt;Node5</title>
<path fill="none" stroke="midnightblue" d="M242.201,-224.324C228.317,-215.9 207.008,-202.971 190.696,-193.074"/>
<polygon fill="midnightblue" stroke="midnightblue" points="192.129,-189.85 181.764,-187.655 188.498,-195.834 192.129,-189.85"/>
</g>
<!-- Node8 -->
<g id="node8" class="node"><title>Node8</title>
<g id="a_node8"><a xlink:href="erpc__message__buffer_8h.html" target="_top" xlink:title="erpc_message_buffer.h">
<polygon fill="white" stroke="black" points="209,-112.5 209,-131.5 326,-131.5 326,-112.5 209,-112.5"/>
<text text-anchor="middle" x="267.5" y="-119.5" font-family="Helvetica,sans-Serif" font-size="10.00">erpc_message_buffer.h</text>
</a>
</g>
</g>
<!-- Node7&#45;&gt;Node8 -->
<g id="edge9" class="edge"><title>Node7&#45;&gt;Node8</title>
<path fill="none" stroke="midnightblue" d="M257.363,-224.368C259.138,-206.617 263.233,-165.666 265.64,-141.597"/>
<polygon fill="midnightblue" stroke="midnightblue" points="269.128,-141.89 266.641,-131.591 262.163,-141.193 269.128,-141.89"/>
</g>
<!-- Node11 -->
<g id="node11" class="node"><title>Node11</title>
<g id="a_node11"><a xlink:href="erpc__transport_8h.html" target="_top" xlink:title="erpc_transport.h">
<polygon fill="white" stroke="black" points="311,-168.5 311,-187.5 398,-187.5 398,-168.5 311,-168.5"/>
<text text-anchor="middle" x="354.5" y="-175.5" font-family="Helvetica,sans-Serif" font-size="10.00">erpc_transport.h</text>
</a>
</g>
</g>
<!-- Node7&#45;&gt;Node11 -->
<g id="edge14" class="edge"><title>Node7&#45;&gt;Node11</title>
<path fill="none" stroke="midnightblue" d="M272.245,-224.324C287.819,-215.743 311.877,-202.486 329.959,-192.522"/>
<polygon fill="midnightblue" stroke="midnightblue" points="331.724,-195.546 338.794,-187.655 328.346,-189.415 331.724,-195.546"/>
</g>
<!-- Node13 -->
<g id="node13" class="node"><title>Node13</title>
<polygon fill="white" stroke="#bfbfbf" points="474.5,-112.5 474.5,-131.5 520.5,-131.5 520.5,-112.5 474.5,-112.5"/>
<text text-anchor="middle" x="497.5" y="-119.5" font-family="Helvetica,sans-Serif" font-size="10.00">cstring</text>
</g>
<!-- Node7&#45;&gt;Node13 -->
<g id="edge20" class="edge"><title>Node7&#45;&gt;Node13</title>
<path fill="none" stroke="midnightblue" d="M297.972,-224.441C328.878,-217.151 371.591,-205.116 406.5,-188 434.215,-174.412 462.603,-152.632 480.139,-138.075"/>
<polygon fill="midnightblue" stroke="midnightblue" points="482.448,-140.706 487.826,-131.577 477.929,-135.36 482.448,-140.706"/>
</g>
<!-- Node8&#45;&gt;Node6 -->
<g id="edge13" class="edge"><title>Node8&#45;&gt;Node6</title>
<path fill="none" stroke="midnightblue" d="M257.89,-112.283C245.483,-99.9158 226.494,-76.4979 235.5,-56 240.89,-43.732 251.458,-33.3414 261.404,-25.6461"/>
<polygon fill="midnightblue" stroke="midnightblue" points="263.752,-28.2697 269.839,-19.598 259.672,-22.5811 263.752,-28.2697"/>
</g>
<!-- Node9 -->
<g id="node9" class="node"><title>Node9</title>
<g id="a_node9"><a xlink:href="erpc__common_8h_source.html" target="_top" xlink:title="erpc_common.h">
<polygon fill="white" stroke="black" points="310.5,-56.5 310.5,-75.5 396.5,-75.5 396.5,-56.5 310.5,-56.5"/>
<text text-anchor="middle" x="353.5" y="-63.5" font-family="Helvetica,sans-Serif" font-size="10.00">erpc_common.h</text>
</a>
</g>
</g>
<!-- Node8&#45;&gt;Node9 -->
<g id="edge10" class="edge"><title>Node8&#45;&gt;Node9</title>
<path fill="none" stroke="midnightblue" d="M281.317,-112.324C294.733,-103.9 315.324,-90.9709 331.086,-81.0741"/>
<polygon fill="midnightblue" stroke="midnightblue" points="333.109,-83.9364 339.717,-75.6545 329.387,-78.0081 333.109,-83.9364"/>
</g>
<!-- Node10 -->
<g id="node10" class="node"><title>Node10</title>
<polygon fill="white" stroke="#bfbfbf" points="244.5,-56.5 244.5,-75.5 292.5,-75.5 292.5,-56.5 244.5,-56.5"/>
<text text-anchor="middle" x="268.5" y="-63.5" font-family="Helvetica,sans-Serif" font-size="10.00">cstddef</text>
</g>
<!-- Node8&#45;&gt;Node10 -->
<g id="edge12" class="edge"><title>Node8&#45;&gt;Node10</title>
<path fill="none" stroke="midnightblue" d="M267.665,-112.083C267.796,-105.006 267.984,-94.8611 268.148,-85.9865"/>
<polygon fill="midnightblue" stroke="midnightblue" points="271.652,-85.8142 268.338,-75.7511 264.653,-85.6845 271.652,-85.8142"/>
</g>
<!-- Node9&#45;&gt;Node6 -->
<g id="edge11" class="edge"><title>Node9&#45;&gt;Node6</title>
<path fill="none" stroke="midnightblue" d="M342.414,-56.324C332.014,-48.1849 316.239,-35.8395 303.778,-26.0874"/>
<polygon fill="midnightblue" stroke="midnightblue" points="305.82,-23.2407 295.788,-19.8339 301.506,-28.7533 305.82,-23.2407"/>
</g>
<!-- Node11&#45;&gt;Node8 -->
<g id="edge18" class="edge"><title>Node11&#45;&gt;Node8</title>
<path fill="none" stroke="midnightblue" d="M340.522,-168.324C326.95,-159.9 306.12,-146.971 290.175,-137.074"/>
<polygon fill="midnightblue" stroke="midnightblue" points="291.786,-133.954 281.443,-131.655 288.094,-139.902 291.786,-133.954"/>
</g>
<!-- Node11&#45;&gt;Node9 -->
<g id="edge15" class="edge"><title>Node11&#45;&gt;Node9</title>
<path fill="none" stroke="midnightblue" d="M354.422,-168.368C354.26,-150.617 353.888,-109.666 353.669,-85.5974"/>
<polygon fill="midnightblue" stroke="midnightblue" points="357.169,-85.5592 353.578,-75.5914 350.169,-85.6229 357.169,-85.5592"/>
</g>
<!-- Node12 -->
<g id="node12" class="node"><title>Node12</title>
<g id="a_node12"><a xlink:href="erpc__crc16_8h.html" target="_top" xlink:title="erpc_crc16.h">
<polygon fill="white" stroke="black" points="383,-112.5 383,-131.5 456,-131.5 456,-112.5 383,-112.5"/>
<text text-anchor="middle" x="419.5" y="-119.5" font-family="Helvetica,sans-Serif" font-size="10.00">erpc_crc16.h</text>
</a>
</g>
</g>
<!-- Node11&#45;&gt;Node12 -->
<g id="edge16" class="edge"><title>Node11&#45;&gt;Node12</title>
<path fill="none" stroke="midnightblue" d="M364.943,-168.324C374.646,-160.263 389.315,-148.077 401,-138.369"/>
<polygon fill="midnightblue" stroke="midnightblue" points="403.411,-140.916 408.867,-131.834 398.938,-135.532 403.411,-140.916"/>
</g>
<!-- Node11&#45;&gt;Node13 -->
<g id="edge19" class="edge"><title>Node11&#45;&gt;Node13</title>
<path fill="none" stroke="midnightblue" d="M377.159,-168.444C400.902,-159.478 438.409,-145.314 465.238,-135.183"/>
<polygon fill="midnightblue" stroke="midnightblue" points="466.829,-138.324 474.947,-131.516 464.356,-131.775 466.829,-138.324"/>
</g>
<!-- Node12&#45;&gt;Node6 -->
<g id="edge17" class="edge"><title>Node12&#45;&gt;Node6</title>
<path fill="none" stroke="midnightblue" d="M420.099,-112.278C420.551,-98.6128 419.4,-72.0599 405.5,-56 383.78,-30.9053 346.701,-19.7855 319.299,-14.8698"/>
<polygon fill="midnightblue" stroke="midnightblue" points="319.751,-11.3976 309.323,-13.2734 318.645,-18.3096 319.751,-11.3976"/>
</g>
</g>
</svg>
