<?xml version="1.0" encoding="UTF-8" standalone="no"?>
<!DOCTYPE svg PUBLIC "-//W3C//DTD SVG 1.1//EN"
 "http://www.w3.org/Graphics/SVG/1.1/DTD/svg11.dtd">
<!-- Generated by graphviz version 2.38.0 (20140413.2041)
 -->
<!-- Title: Messaging Unit Pages: 1 -->
<svg width="402pt" height="636pt"
 viewBox="0.00 0.00 402.00 636.00" xmlns="http://www.w3.org/2000/svg" xmlns:xlink="http://www.w3.org/1999/xlink">
<g id="graph0" class="graph" transform="scale(1 1) rotate(0) translate(4 632)">
<title>Messaging Unit</title>
<polygon fill="white" stroke="none" points="-4,4 -4,-632 398,-632 398,4 -4,4"/>
<!-- Node1 -->
<g id="node1" class="node"><title>Node1</title>
<g id="a_node1"><a xlink:href="group__transports.html" target="_top" xlink:title="Transport layer classes. ">
<polygon fill="white" stroke="black" points="0,-304.5 0,-323.5 89,-323.5 89,-304.5 0,-304.5"/>
<text text-anchor="middle" x="44.5" y="-311.5" font-family="Helvetica,sans-Serif" font-size="10.00">Transport Layers</text>
</a>
</g>
</g>
<!-- Node0 -->
<g id="node4" class="node"><title>Node0</title>
<polygon fill="#bfbfbf" stroke="black" points="126,-304.5 126,-323.5 210,-323.5 210,-304.5 126,-304.5"/>
<text text-anchor="middle" x="168" y="-311.5" font-family="Helvetica,sans-Serif" font-size="10.00">Messaging Unit</text>
</g>
<!-- Node1&#45;&gt;Node0 -->
<g id="edge1" class="edge"><title>Node1&#45;&gt;Node0</title>
<path fill="none" stroke="black" d="M99.028,-314C108.009,-314 117.204,-314 125.813,-314"/>
<polygon fill="black" stroke="black" points="99.0211,-310.5 89.0211,-314 99.0211,-317.5 99.0211,-310.5"/>
</g>
<!-- Node9 -->
<g id="node2" class="node"><title>Node9</title>
<g id="a_node2"><a xlink:href="group__dspi__slave__transport.html" target="_top" xlink:title="Kinetis SDK DSPI slave driver transport. ">
<polygon fill="white" stroke="black" points="297,-608.5 297,-627.5 362,-627.5 362,-608.5 297,-608.5"/>
<text text-anchor="middle" x="329.5" y="-615.5" font-family="Helvetica,sans-Serif" font-size="10.00">DSPI Slave</text>
</a>
</g>
</g>
<!-- Node7 -->
<g id="node3" class="node"><title>Node7</title>
<g id="a_node3"><a xlink:href="group__port__threads.html" target="_top" xlink:title="Threading model. ">
<polygon fill="white" stroke="black" points="304,-570.5 304,-589.5 355,-589.5 355,-570.5 304,-570.5"/>
<text text-anchor="middle" x="329.5" y="-577.5" font-family="Helvetica,sans-Serif" font-size="10.00">Threads</text>
</a>
</g>
</g>
<!-- Node0&#45;&gt;Node9 -->
<g id="edge9" class="edge"><title>Node0&#45;&gt;Node9</title>
<path fill="none" stroke="blueviolet" stroke-dasharray="5,2" d="M169.38,-323.737C171.117,-358.538 180.444,-479.141 228,-563 239.318,-582.958 245.218,-587.377 265,-599 274.723,-604.713 286.307,-608.836 296.903,-611.75"/>
<text text-anchor="middle" x="237.5" y="-590" font-family="Helvetica,sans-Serif" font-size="10.00">erpc</text>
</g>
<!-- Node0&#45;&gt;Node7 -->
<g id="edge7" class="edge"><title>Node0&#45;&gt;Node7</title>
<path fill="none" stroke="blueviolet" stroke-dasharray="5,2" d="M169.887,-323.523C173.134,-354.59 186.438,-455.011 228,-525 239.715,-544.728 245.218,-549.377 265,-561 276.906,-567.995 291.602,-572.607 303.858,-575.533"/>
<text text-anchor="middle" x="237.5" y="-551" font-family="Helvetica,sans-Serif" font-size="10.00">erpc</text>
</g>
<!-- Node17 -->
<g id="node5" class="node"><title>Node17</title>
<g id="a_node5"><a xlink:href="group__tcp__transport.html" target="_top" xlink:title="Simple TCP/IP transport. ">
<polygon fill="white" stroke="black" points="306,-532.5 306,-551.5 353,-551.5 353,-532.5 306,-532.5"/>
<text text-anchor="middle" x="329.5" y="-539.5" font-family="Helvetica,sans-Serif" font-size="10.00">TCP/IP</text>
</a>
</g>
</g>
<!-- Node0&#45;&gt;Node17 -->
<g id="edge17" class="edge"><title>Node0&#45;&gt;Node17</title>
<path fill="none" stroke="blueviolet" stroke-dasharray="5,2" d="M170.651,-323.684C175.659,-351.109 192.552,-430.945 228,-487 240.263,-506.392 245.218,-511.377 265,-523 277.6,-530.403 293.327,-535.137 305.976,-538.028"/>
<text text-anchor="middle" x="237.5" y="-513" font-family="Helvetica,sans-Serif" font-size="10.00">erpc</text>
</g>
<!-- Node2 -->
<g id="node6" class="node"><title>Node2</title>
<g id="a_node6"><a xlink:href="group__infra__client.html" target="_top" xlink:title="Client classes. ">
<polygon fill="white" stroke="black" points="309,-494.5 309,-513.5 350,-513.5 350,-494.5 309,-494.5"/>
<text text-anchor="middle" x="329.5" y="-501.5" font-family="Helvetica,sans-Serif" font-size="10.00">Client</text>
</a>
</g>
</g>
<!-- Node0&#45;&gt;Node2 -->
<g id="edge2" class="edge"><title>Node0&#45;&gt;Node2</title>
<path fill="none" stroke="blueviolet" stroke-dasharray="5,2" d="M171.842,-323.816C178.858,-347.025 198.59,-406.52 228,-449 241.06,-467.864 245.218,-473.377 265,-485 278.592,-492.986 295.823,-497.866 308.904,-500.677"/>
<text text-anchor="middle" x="237.5" y="-475" font-family="Helvetica,sans-Serif" font-size="10.00">erpc</text>
</g>
<!-- Node4 -->
<g id="node7" class="node"><title>Node4</title>
<g id="a_node7"><a xlink:href="group__infra__transport.html" target="_top" xlink:title="Superclasses for building transports. ">
<polygon fill="white" stroke="black" points="298.5,-456.5 298.5,-475.5 360.5,-475.5 360.5,-456.5 298.5,-456.5"/>
<text text-anchor="middle" x="329.5" y="-463.5" font-family="Helvetica,sans-Serif" font-size="10.00">Transports</text>
</a>
</g>
</g>
<!-- Node0&#45;&gt;Node4 -->
<g id="edge4" class="edge"><title>Node0&#45;&gt;Node4</title>
<path fill="none" stroke="blueviolet" stroke-dasharray="5,2" d="M172.596,-323.51C182.697,-348.747 213.967,-417.497 265,-447 275.161,-452.875 287.306,-457.084 298.241,-460.023"/>
<text text-anchor="middle" x="237.5" y="-437" font-family="Helvetica,sans-Serif" font-size="10.00">erpc</text>
</g>
<!-- Node14 -->
<g id="node8" class="node"><title>Node14</title>
<g id="a_node8"><a xlink:href="group__serial__transport.html" target="_top" xlink:title="POSIX and Win32 serial port transport. ">
<polygon fill="white" stroke="black" points="299,-418.5 299,-437.5 360,-437.5 360,-418.5 299,-418.5"/>
<text text-anchor="middle" x="329.5" y="-425.5" font-family="Helvetica,sans-Serif" font-size="10.00">Serial port</text>
</a>
</g>
</g>
<!-- Node0&#45;&gt;Node14 -->
<g id="edge14" class="edge"><title>Node0&#45;&gt;Node14</title>
<path fill="none" stroke="blueviolet" stroke-dasharray="5,2" d="M175.737,-323.515C189.92,-342.805 224.88,-386.584 265,-409 275.447,-414.837 287.886,-419.068 298.974,-422.033"/>
<text text-anchor="middle" x="237.5" y="-400" font-family="Helvetica,sans-Serif" font-size="10.00">erpc</text>
</g>
<!-- Node5 -->
<g id="node9" class="node"><title>Node5</title>
<g id="a_node9"><a xlink:href="group__infra__utility.html" target="_top" xlink:title="Utility code used by the infrastructure. ">
<polygon fill="white" stroke="black" points="305,-380.5 305,-399.5 354,-399.5 354,-380.5 305,-380.5"/>
<text text-anchor="middle" x="329.5" y="-387.5" font-family="Helvetica,sans-Serif" font-size="10.00">Utilities</text>
</a>
</g>
</g>
<!-- Node0&#45;&gt;Node5 -->
<g id="edge5" class="edge"><title>Node0&#45;&gt;Node5</title>
<path fill="none" stroke="blueviolet" stroke-dasharray="5,2" d="M182.732,-323.629C200.863,-335.99 234.113,-357.455 265,-371 277.752,-376.592 292.635,-381.142 304.786,-384.387"/>
<text text-anchor="middle" x="237.5" y="-364" font-family="Helvetica,sans-Serif" font-size="10.00">erpc</text>
</g>
<!-- Node16 -->
<g id="node10" class="node"><title>Node16</title>
<g id="a_node10"><a xlink:href="group__spi__slave__transport.html" target="_top" xlink:title="Kinetis SDK SPI slave driver transport. ">
<polygon fill="white" stroke="black" points="300,-342.5 300,-361.5 359,-361.5 359,-342.5 300,-342.5"/>
<text text-anchor="middle" x="329.5" y="-349.5" font-family="Helvetica,sans-Serif" font-size="10.00">SPI Slave</text>
</a>
</g>
</g>
<!-- Node0&#45;&gt;Node16 -->
<g id="edge16" class="edge"><title>Node0&#45;&gt;Node16</title>
<path fill="none" stroke="blueviolet" stroke-dasharray="5,2" d="M206.105,-323.578C213.358,-325.409 220.911,-327.288 228,-329 252.184,-334.841 279.735,-341.12 299.866,-345.639"/>
<text text-anchor="middle" x="237.5" y="-335" font-family="Helvetica,sans-Serif" font-size="10.00">erpc</text>
</g>
<!-- Node18 -->
<g id="node11" class="node"><title>Node18</title>
<g id="a_node11"><a xlink:href="group__uart__transport.html" target="_top" xlink:title="CMSIS UART driver transport. ">
<polygon fill="white" stroke="black" points="291.5,-304.5 291.5,-323.5 367.5,-323.5 367.5,-304.5 291.5,-304.5"/>
<text text-anchor="middle" x="329.5" y="-311.5" font-family="Helvetica,sans-Serif" font-size="10.00">CMSIS UART</text>
</a>
</g>
</g>
<!-- Node0&#45;&gt;Node18 -->
<g id="edge18" class="edge"><title>Node0&#45;&gt;Node18</title>
<path fill="none" stroke="blueviolet" stroke-dasharray="5,2" d="M210.075,-314C235.181,-314 267.035,-314 291.381,-314"/>
<text text-anchor="middle" x="237.5" y="-317" font-family="Helvetica,sans-Serif" font-size="10.00">erpc</text>
</g>
<!-- Node15 -->
<g id="node12" class="node"><title>Node15</title>
<g id="a_node12"><a xlink:href="group__spi__master__transport.html" target="_top" xlink:title="Kinetis SDK SPI master driver transport. ">
<polygon fill="white" stroke="black" points="297,-266.5 297,-285.5 362,-285.5 362,-266.5 297,-266.5"/>
<text text-anchor="middle" x="329.5" y="-273.5" font-family="Helvetica,sans-Serif" font-size="10.00">SPI Master</text>
</a>
</g>
</g>
<!-- Node0&#45;&gt;Node15 -->
<g id="edge15" class="edge"><title>Node0&#45;&gt;Node15</title>
<path fill="none" stroke="blueviolet" stroke-dasharray="5,2" d="M206.105,-304.422C213.358,-302.591 220.911,-300.712 228,-299 250.966,-293.453 276.969,-287.512 296.77,-283.057"/>
<text text-anchor="middle" x="237.5" y="-302" font-family="Helvetica,sans-Serif" font-size="10.00">erpc</text>
</g>
<!-- Node6 -->
<g id="node13" class="node"><title>Node6</title>
<g id="a_node13"><a xlink:href="group__infra__server.html" target="_top" xlink:title="Server classes. ">
<polygon fill="white" stroke="black" points="307.5,-228.5 307.5,-247.5 351.5,-247.5 351.5,-228.5 307.5,-228.5"/>
<text text-anchor="middle" x="329.5" y="-235.5" font-family="Helvetica,sans-Serif" font-size="10.00">Server</text>
</a>
</g>
</g>
<!-- Node0&#45;&gt;Node6 -->
<g id="edge6" class="edge"><title>Node0&#45;&gt;Node6</title>
<path fill="none" stroke="blueviolet" stroke-dasharray="5,2" d="M182.732,-304.371C200.863,-292.01 234.113,-270.545 265,-257 278.7,-250.992 294.861,-246.186 307.45,-242.911"/>
<text text-anchor="middle" x="237.5" y="-278" font-family="Helvetica,sans-Serif" font-size="10.00">erpc</text>
</g>
<!-- Node10 -->
<g id="node14" class="node"><title>Node10</title>
<g id="a_node14"><a xlink:href="group__itbp__transport.html" target="_top" xlink:title="Simple inter&#45;thread communications transport. ">
<polygon fill="white" stroke="black" points="297,-190.5 297,-209.5 362,-209.5 362,-190.5 297,-190.5"/>
<text text-anchor="middle" x="329.5" y="-197.5" font-family="Helvetica,sans-Serif" font-size="10.00">Inter&#45;thread</text>
</a>
</g>
</g>
<!-- Node0&#45;&gt;Node10 -->
<g id="edge10" class="edge"><title>Node0&#45;&gt;Node10</title>
<path fill="none" stroke="blueviolet" stroke-dasharray="5,2" d="M175.709,-304.434C189.841,-285.051 224.71,-241.11 265,-219 274.785,-213.63 286.272,-209.602 296.766,-206.669"/>
<text text-anchor="middle" x="237.5" y="-247" font-family="Helvetica,sans-Serif" font-size="10.00">erpc</text>
</g>
<!-- Node8 -->
<g id="node15" class="node"><title>Node8</title>
<g id="a_node15"><a xlink:href="group__dspi__master__transport.html" target="_top" xlink:title="Kinetis SDK DSPI master driver transport. ">
<polygon fill="white" stroke="black" points="293.5,-152.5 293.5,-171.5 365.5,-171.5 365.5,-152.5 293.5,-152.5"/>
<text text-anchor="middle" x="329.5" y="-159.5" font-family="Helvetica,sans-Serif" font-size="10.00">DSPI Master</text>
</a>
</g>
</g>
<!-- Node0&#45;&gt;Node8 -->
<g id="edge8" class="edge"><title>Node0&#45;&gt;Node8</title>
<path fill="none" stroke="blueviolet" stroke-dasharray="5,2" d="M172.573,-304.449C182.616,-279.111 213.755,-210.134 265,-181 273.703,-176.052 283.825,-172.273 293.395,-169.439"/>
<text text-anchor="middle" x="237.5" y="-211" font-family="Helvetica,sans-Serif" font-size="10.00">erpc</text>
</g>
<!-- Node13 -->
<g id="node16" class="node"><title>Node13</title>
<g id="a_node16"><a xlink:href="group__rpmsg__tty__rtos__transport.html" target="_top" xlink:title="Rpmsg_tty_rtos_transport">
<polygon fill="white" stroke="black" points="265,-114.5 265,-133.5 394,-133.5 394,-114.5 265,-114.5"/>
<text text-anchor="middle" x="329.5" y="-121.5" font-family="Helvetica,sans-Serif" font-size="10.00">Rpmsg_tty_rtos_transport</text>
</a>
</g>
</g>
<!-- Node0&#45;&gt;Node13 -->
<g id="edge13" class="edge"><title>Node0&#45;&gt;Node13</title>
<path fill="none" stroke="blueviolet" stroke-dasharray="5,2" d="M171.684,-304.428C178.486,-281.233 198.016,-220.787 228,-178 240.991,-159.462 245.403,-154.329 265,-143 271.575,-139.199 278.981,-136.095 286.351,-133.581"/>
<text text-anchor="middle" x="237.5" y="-181" font-family="Helvetica,sans-Serif" font-size="10.00">erpc</text>
</g>
<!-- Node3 -->
<g id="node17" class="node"><title>Node3</title>
<g id="a_node17"><a xlink:href="group__infra__codec.html" target="_top" xlink:title="Classes used for message serialization. ">
<polygon fill="white" stroke="black" points="294.5,-76.5 294.5,-95.5 364.5,-95.5 364.5,-76.5 294.5,-76.5"/>
<text text-anchor="middle" x="329.5" y="-83.5" font-family="Helvetica,sans-Serif" font-size="10.00">Serialization</text>
</a>
</g>
</g>
<!-- Node0&#45;&gt;Node3 -->
<g id="edge3" class="edge"><title>Node0&#45;&gt;Node3</title>
<path fill="none" stroke="blueviolet" stroke-dasharray="5,2" d="M170.598,-304.234C175.465,-276.583 192.022,-196.125 228,-140 240.216,-120.943 245.403,-116.329 265,-105 273.966,-99.8165 284.476,-95.9294 294.337,-93.0677"/>
<text text-anchor="middle" x="237.5" y="-143" font-family="Helvetica,sans-Serif" font-size="10.00">erpc</text>
</g>
<!-- Node11 -->
<g id="node18" class="node"><title>Node11</title>
<g id="a_node18"><a xlink:href="group__rpmsg__lite__rtos__transport.html" target="_top" xlink:title="RPMsg&#45;Lite zero copy transport using RTOS API. ">
<polygon fill="white" stroke="black" points="281,-38.5 281,-57.5 378,-57.5 378,-38.5 281,-38.5"/>
<text text-anchor="middle" x="329.5" y="-45.5" font-family="Helvetica,sans-Serif" font-size="10.00">RPMsg&#45;Lite RTOS</text>
</a>
</g>
</g>
<!-- Node0&#45;&gt;Node11 -->
<g id="edge11" class="edge"><title>Node0&#45;&gt;Node11</title>
<path fill="none" stroke="blueviolet" stroke-dasharray="5,2" d="M169.836,-304.408C172.926,-273.121 185.804,-172.027 228,-102 239.683,-82.6116 245.403,-78.3295 265,-67 271.575,-63.1988 278.981,-60.0947 286.351,-57.5809"/>
<text text-anchor="middle" x="237.5" y="-105" font-family="Helvetica,sans-Serif" font-size="10.00">erpc</text>
</g>
<!-- Node12 -->
<g id="node19" class="node"><title>Node12</title>
<g id="a_node19"><a xlink:href="group__rpmsg__lite__transport.html" target="_top" xlink:title="RPMsg&#45;Lite zero copy transport. ">
<polygon fill="white" stroke="black" points="295.5,-0.5 295.5,-19.5 363.5,-19.5 363.5,-0.5 295.5,-0.5"/>
<text text-anchor="middle" x="329.5" y="-7.5" font-family="Helvetica,sans-Serif" font-size="10.00">RPMsg&#45;Lite</text>
</a>
</g>
</g>
<!-- Node0&#45;&gt;Node12 -->
<g id="edge12" class="edge"><title>Node0&#45;&gt;Node12</title>
<path fill="none" stroke="blueviolet" stroke-dasharray="5,2" d="M169.276,-304.137C170.664,-268.896 178.957,-146.848 228,-63 239.276,-43.7224 245.585,-40.0377 265,-29 274.303,-23.7109 285.227,-19.7571 295.367,-16.8666"/>
<text text-anchor="middle" x="237.5" y="-66" font-family="Helvetica,sans-Serif" font-size="10.00">erpc</text>
</g>
</g>
</svg>
