<?xml version="1.0" encoding="UTF-8" standalone="no"?>
<!DOCTYPE svg PUBLIC "-//W3C//DTD SVG 1.1//EN"
 "http://www.w3.org/Graphics/SVG/1.1/DTD/svg11.dtd">
<!-- Generated by graphviz version 2.38.0 (20140413.2041)
 -->
<!-- Title: Transports Pages: 1 -->
<svg width="341pt" height="788pt"
 viewBox="0.00 0.00 341.00 788.00" xmlns="http://www.w3.org/2000/svg" xmlns:xlink="http://www.w3.org/1999/xlink">
<g id="graph0" class="graph" transform="scale(1 1) rotate(0) translate(4 784)">
<title>Transports</title>
<polygon fill="white" stroke="none" points="-4,4 -4,-784 337,-784 337,4 -4,4"/>
<!-- Node9 -->
<g id="node1" class="node"><title>Node9</title>
<g id="a_node1"><a xlink:href="group__dspi__slave__transport.html" target="_top" xlink:title="MCUXpressoSDK DSPI slave driver transport. ">
<polygon fill="white" stroke="black" points="247.5,-760.5 247.5,-779.5 312.5,-779.5 312.5,-760.5 247.5,-760.5"/>
<text text-anchor="middle" x="280" y="-767.5" font-family="Helvetica,sans-Serif" font-size="10.00">DSPI Slave</text>
</a>
</g>
</g>
<!-- Node10 -->
<g id="node2" class="node"><title>Node10</title>
<g id="a_node2"><a xlink:href="group__i2c__slave__transport.html" target="_top" xlink:title="MCUXpressoSDK I2C slave driver transport. ">
<polygon fill="white" stroke="black" points="251.5,-722.5 251.5,-741.5 308.5,-741.5 308.5,-722.5 251.5,-722.5"/>
<text text-anchor="middle" x="280" y="-729.5" font-family="Helvetica,sans-Serif" font-size="10.00">I2C Slave</text>
</a>
</g>
</g>
<!-- Node7 -->
<g id="node3" class="node"><title>Node7</title>
<g id="a_node3"><a xlink:href="group__port__threads.html" target="_top" xlink:title="Threading model. ">
<polygon fill="white" stroke="black" points="254.5,-684.5 254.5,-703.5 305.5,-703.5 305.5,-684.5 254.5,-684.5"/>
<text text-anchor="middle" x="280" y="-691.5" font-family="Helvetica,sans-Serif" font-size="10.00">Threads</text>
</a>
</g>
</g>
<!-- Node12 -->
<g id="node4" class="node"><title>Node12</title>
<g id="a_node4"><a xlink:href="group__mu__transport.html" target="_top" xlink:title="Messaging Unit transport. ">
<polygon fill="white" stroke="black" points="238,-646.5 238,-665.5 322,-665.5 322,-646.5 238,-646.5"/>
<text text-anchor="middle" x="280" y="-653.5" font-family="Helvetica,sans-Serif" font-size="10.00">Messaging Unit</text>
</a>
</g>
</g>
<!-- Node20 -->
<g id="node5" class="node"><title>Node20</title>
<g id="a_node5"><a xlink:href="group__tcp__transport.html" target="_top" xlink:title="Simple TCP/IP transport. ">
<polygon fill="white" stroke="black" points="256.5,-608.5 256.5,-627.5 303.5,-627.5 303.5,-608.5 256.5,-608.5"/>
<text text-anchor="middle" x="280" y="-615.5" font-family="Helvetica,sans-Serif" font-size="10.00">TCP/IP</text>
</a>
</g>
</g>
<!-- Node1 -->
<g id="node6" class="node"><title>Node1</title>
<g id="a_node6"><a xlink:href="group__infra.html" target="_top" xlink:title="C++ core. ">
<polygon fill="white" stroke="black" points="0,-380.5 0,-399.5 73,-399.5 73,-380.5 0,-380.5"/>
<text text-anchor="middle" x="36.5" y="-387.5" font-family="Helvetica,sans-Serif" font-size="10.00">Infrastructure</text>
</a>
</g>
</g>
<!-- Node0 -->
<g id="node8" class="node"><title>Node0</title>
<polygon fill="#bfbfbf" stroke="black" points="110,-380.5 110,-399.5 172,-399.5 172,-380.5 110,-380.5"/>
<text text-anchor="middle" x="141" y="-387.5" font-family="Helvetica,sans-Serif" font-size="10.00">Transports</text>
</g>
<!-- Node1&#45;&gt;Node0 -->
<g id="edge1" class="edge"><title>Node1&#45;&gt;Node0</title>
<path fill="none" stroke="black" d="M83.152,-390C92.2329,-390 101.551,-390 109.948,-390"/>
<polygon fill="black" stroke="black" points="83.0619,-386.5 73.0619,-390 83.0618,-393.5 83.0619,-386.5"/>
</g>
<!-- Node2 -->
<g id="node7" class="node"><title>Node2</title>
<g id="a_node7"><a xlink:href="group__infra__client.html" target="_top" xlink:title="Client classes. ">
<polygon fill="white" stroke="black" points="259.5,-570.5 259.5,-589.5 300.5,-589.5 300.5,-570.5 259.5,-570.5"/>
<text text-anchor="middle" x="280" y="-577.5" font-family="Helvetica,sans-Serif" font-size="10.00">Client</text>
</a>
</g>
</g>
<!-- Node0&#45;&gt;Node9 -->
<g id="edge9" class="edge"><title>Node0&#45;&gt;Node9</title>
<path fill="none" stroke="blueviolet" stroke-dasharray="5,2" d="M142.593,-399.662C145.645,-447.334 160.582,-657.495 190,-715 200.449,-735.426 207.573,-738.793 227,-751 233.266,-754.938 240.468,-758.225 247.474,-760.898"/>
<text text-anchor="middle" x="199.5" y="-741" font-family="Helvetica,sans-Serif" font-size="10.00">erpc</text>
</g>
<!-- Node0&#45;&gt;Node10 -->
<g id="edge10" class="edge"><title>Node0&#45;&gt;Node10</title>
<path fill="none" stroke="blueviolet" stroke-dasharray="5,2" d="M141.522,-399.589C140.05,-437.352 138.441,-578.543 190,-677 200.644,-697.326 207.573,-700.793 227,-713 234.406,-717.653 243.117,-721.399 251.27,-724.295"/>
<text text-anchor="middle" x="199.5" y="-703" font-family="Helvetica,sans-Serif" font-size="10.00">erpc</text>
</g>
<!-- Node0&#45;&gt;Node7 -->
<g id="edge7" class="edge"><title>Node0&#45;&gt;Node7</title>
<path fill="none" stroke="blueviolet" stroke-dasharray="5,2" d="M141.844,-399.722C141.69,-434.471 144.638,-554.922 190,-639 200.894,-659.192 207.573,-662.793 227,-675 235.382,-680.267 245.437,-684.372 254.462,-687.396"/>
<text text-anchor="middle" x="199.5" y="-665" font-family="Helvetica,sans-Serif" font-size="10.00">erpc</text>
</g>
<!-- Node0&#45;&gt;Node12 -->
<g id="edge12" class="edge"><title>Node0&#45;&gt;Node12</title>
<path fill="none" stroke="blueviolet" stroke-dasharray="5,2" d="M142.275,-399.513C143.548,-430.55 150.655,-530.89 190,-601 201.228,-621.009 207.573,-624.793 227,-637 232.941,-640.733 239.722,-643.882 246.381,-646.477"/>
<text text-anchor="middle" x="199.5" y="-627" font-family="Helvetica,sans-Serif" font-size="10.00">erpc</text>
</g>
<!-- Node0&#45;&gt;Node20 -->
<g id="edge20" class="edge"><title>Node0&#45;&gt;Node20</title>
<path fill="none" stroke="blueviolet" stroke-dasharray="5,2" d="M142.954,-399.607C146.005,-426.816 157.313,-506.055 190,-562 201.732,-582.08 207.394,-586.492 227,-599 235.913,-604.686 246.768,-608.994 256.249,-612.058"/>
<text text-anchor="middle" x="199.5" y="-589" font-family="Helvetica,sans-Serif" font-size="10.00">erpc</text>
</g>
<!-- Node0&#45;&gt;Node2 -->
<g id="edge2" class="edge"><title>Node0&#45;&gt;Node2</title>
<path fill="none" stroke="blueviolet" stroke-dasharray="5,2" d="M144.048,-399.55C149.183,-422.141 164.089,-480.108 190,-522 202.568,-542.32 207.028,-547.886 227,-561 236.802,-567.436 249.071,-572.053 259.23,-575.123"/>
<text text-anchor="middle" x="199.5" y="-550" font-family="Helvetica,sans-Serif" font-size="10.00">erpc</text>
</g>
<!-- Node16 -->
<g id="node9" class="node"><title>Node16</title>
<g id="a_node9"><a xlink:href="group__serial__transport.html" target="_top" xlink:title="POSIX and Win32 serial port transport. ">
<polygon fill="white" stroke="black" points="249.5,-532.5 249.5,-551.5 310.5,-551.5 310.5,-532.5 249.5,-532.5"/>
<text text-anchor="middle" x="280" y="-539.5" font-family="Helvetica,sans-Serif" font-size="10.00">Serial port</text>
</a>
</g>
</g>
<!-- Node0&#45;&gt;Node16 -->
<g id="edge16" class="edge"><title>Node0&#45;&gt;Node16</title>
<path fill="none" stroke="blueviolet" stroke-dasharray="5,2" d="M145.038,-399.728C153.45,-424.896 179.613,-492.323 227,-523 233.777,-527.388 241.706,-530.941 249.3,-533.736"/>
<text text-anchor="middle" x="199.5" y="-510" font-family="Helvetica,sans-Serif" font-size="10.00">erpc</text>
</g>
<!-- Node4 -->
<g id="node10" class="node"><title>Node4</title>
<g id="a_node10"><a xlink:href="group__infra__utility.html" target="_top" xlink:title="Utility code used by the infrastructure. ">
<polygon fill="white" stroke="black" points="255.5,-494.5 255.5,-513.5 304.5,-513.5 304.5,-494.5 255.5,-494.5"/>
<text text-anchor="middle" x="280" y="-501.5" font-family="Helvetica,sans-Serif" font-size="10.00">Utilities</text>
</a>
</g>
</g>
<!-- Node0&#45;&gt;Node4 -->
<g id="edge4" class="edge"><title>Node0&#45;&gt;Node4</title>
<path fill="none" stroke="blueviolet" stroke-dasharray="5,2" d="M147.899,-399.789C160.113,-419.187 190.135,-462.563 227,-485 235.703,-490.297 246.114,-494.465 255.327,-497.531"/>
<text text-anchor="middle" x="199.5" y="-473" font-family="Helvetica,sans-Serif" font-size="10.00">erpc</text>
</g>
<!-- Node18 -->
<g id="node11" class="node"><title>Node18</title>
<g id="a_node11"><a xlink:href="group__spi__slave__transport.html" target="_top" xlink:title="MCUXpressoSDK SPI slave driver transport. ">
<polygon fill="white" stroke="black" points="250.5,-456.5 250.5,-475.5 309.5,-475.5 309.5,-456.5 250.5,-456.5"/>
<text text-anchor="middle" x="280" y="-463.5" font-family="Helvetica,sans-Serif" font-size="10.00">SPI Slave</text>
</a>
</g>
</g>
<!-- Node0&#45;&gt;Node18 -->
<g id="edge18" class="edge"><title>Node0&#45;&gt;Node18</title>
<path fill="none" stroke="blueviolet" stroke-dasharray="5,2" d="M154.021,-399.631C169.926,-411.995 199.206,-433.462 227,-447 234.431,-450.619 242.738,-453.951 250.494,-456.78"/>
<text text-anchor="middle" x="199.5" y="-439" font-family="Helvetica,sans-Serif" font-size="10.00">erpc</text>
</g>
<!-- Node21 -->
<g id="node12" class="node"><title>Node21</title>
<g id="a_node12"><a xlink:href="group__uart__transport.html" target="_top" xlink:title="CMSIS UART driver transport. ">
<polygon fill="white" stroke="black" points="242,-418.5 242,-437.5 318,-437.5 318,-418.5 242,-418.5"/>
<text text-anchor="middle" x="280" y="-425.5" font-family="Helvetica,sans-Serif" font-size="10.00">CMSIS UART</text>
</a>
</g>
</g>
<!-- Node0&#45;&gt;Node21 -->
<g id="edge21" class="edge"><title>Node0&#45;&gt;Node21</title>
<path fill="none" stroke="blueviolet" stroke-dasharray="5,2" d="M171.632,-399.514C177.692,-401.388 184.039,-403.299 190,-405 206.881,-409.816 225.688,-414.74 241.648,-418.789"/>
<text text-anchor="middle" x="199.5" y="-412" font-family="Helvetica,sans-Serif" font-size="10.00">erpc</text>
</g>
<!-- Node19 -->
<g id="node13" class="node"><title>Node19</title>
<g id="a_node13"><a xlink:href="group__spidev__master__transport.html" target="_top" xlink:title="SPIdev Linux transport. ">
<polygon fill="white" stroke="black" points="227,-380.5 227,-399.5 333,-399.5 333,-380.5 227,-380.5"/>
<text text-anchor="middle" x="280" y="-387.5" font-family="Helvetica,sans-Serif" font-size="10.00">SPIdev Linux Master</text>
</a>
</g>
</g>
<!-- Node0&#45;&gt;Node19 -->
<g id="edge19" class="edge"><title>Node0&#45;&gt;Node19</title>
<path fill="none" stroke="blueviolet" stroke-dasharray="5,2" d="M172.065,-390C188.133,-390 208.374,-390 226.91,-390"/>
<text text-anchor="middle" x="199.5" y="-393" font-family="Helvetica,sans-Serif" font-size="10.00">erpc</text>
</g>
<!-- Node17 -->
<g id="node14" class="node"><title>Node17</title>
<g id="a_node14"><a xlink:href="group__spi__master__transport.html" target="_top" xlink:title="MCUXpressoSDK SPI master driver transport. ">
<polygon fill="white" stroke="black" points="247.5,-342.5 247.5,-361.5 312.5,-361.5 312.5,-342.5 247.5,-342.5"/>
<text text-anchor="middle" x="280" y="-349.5" font-family="Helvetica,sans-Serif" font-size="10.00">SPI Master</text>
</a>
</g>
</g>
<!-- Node0&#45;&gt;Node17 -->
<g id="edge17" class="edge"><title>Node0&#45;&gt;Node17</title>
<path fill="none" stroke="blueviolet" stroke-dasharray="5,2" d="M171.632,-380.486C177.692,-378.612 184.039,-376.701 190,-375 208.877,-369.615 230.16,-364.095 247.179,-359.813"/>
<text text-anchor="middle" x="199.5" y="-378" font-family="Helvetica,sans-Serif" font-size="10.00">erpc</text>
</g>
<!-- Node15 -->
<g id="node15" class="node"><title>Node15</title>
<g id="a_node15"><a xlink:href="group__rpmsg__tty__rtos__transport.html" target="_top" xlink:title="RPMsg TTY RTOS transport. ">
<polygon fill="white" stroke="black" points="231,-304.5 231,-323.5 329,-323.5 329,-304.5 231,-304.5"/>
<text text-anchor="middle" x="280" y="-311.5" font-family="Helvetica,sans-Serif" font-size="10.00">RPMsg TTY RTOS</text>
</a>
</g>
</g>
<!-- Node0&#45;&gt;Node15 -->
<g id="edge15" class="edge"><title>Node0&#45;&gt;Node15</title>
<path fill="none" stroke="blueviolet" stroke-dasharray="5,2" d="M154.021,-380.369C169.926,-368.005 199.206,-346.538 227,-333 234.172,-329.507 242.16,-326.281 249.68,-323.518"/>
<text text-anchor="middle" x="199.5" y="-358" font-family="Helvetica,sans-Serif" font-size="10.00">erpc</text>
</g>
<!-- Node5 -->
<g id="node16" class="node"><title>Node5</title>
<g id="a_node16"><a xlink:href="group__infra__server.html" target="_top" xlink:title="Server classes. ">
<polygon fill="white" stroke="black" points="258,-266.5 258,-285.5 302,-285.5 302,-266.5 258,-266.5"/>
<text text-anchor="middle" x="280" y="-273.5" font-family="Helvetica,sans-Serif" font-size="10.00">Server</text>
</a>
</g>
</g>
<!-- Node0&#45;&gt;Node5 -->
<g id="edge5" class="edge"><title>Node0&#45;&gt;Node5</title>
<path fill="none" stroke="blueviolet" stroke-dasharray="5,2" d="M147.899,-380.211C160.113,-360.813 190.135,-317.437 227,-295 236.524,-289.203 248.094,-284.759 257.9,-281.631"/>
<text text-anchor="middle" x="199.5" y="-327" font-family="Helvetica,sans-Serif" font-size="10.00">erpc</text>
</g>
<!-- Node11 -->
<g id="node17" class="node"><title>Node11</title>
<g id="a_node17"><a xlink:href="group__itbp__transport.html" target="_top" xlink:title="Simple inter&#45;thread communications transport. ">
<polygon fill="white" stroke="black" points="247.5,-228.5 247.5,-247.5 312.5,-247.5 312.5,-228.5 247.5,-228.5"/>
<text text-anchor="middle" x="280" y="-235.5" font-family="Helvetica,sans-Serif" font-size="10.00">Inter&#45;thread</text>
</a>
</g>
</g>
<!-- Node0&#45;&gt;Node11 -->
<g id="edge11" class="edge"><title>Node0&#45;&gt;Node11</title>
<path fill="none" stroke="blueviolet" stroke-dasharray="5,2" d="M145.038,-380.272C153.45,-355.104 179.613,-287.677 227,-257 233.213,-252.978 240.392,-249.657 247.395,-246.978"/>
<text text-anchor="middle" x="199.5" y="-296" font-family="Helvetica,sans-Serif" font-size="10.00">erpc</text>
</g>
<!-- Node8 -->
<g id="node18" class="node"><title>Node8</title>
<g id="a_node18"><a xlink:href="group__dspi__master__transport.html" target="_top" xlink:title="MCUXpressoSDK DSPI master driver transport. ">
<polygon fill="white" stroke="black" points="244,-190.5 244,-209.5 316,-209.5 316,-190.5 244,-190.5"/>
<text text-anchor="middle" x="280" y="-197.5" font-family="Helvetica,sans-Serif" font-size="10.00">DSPI Master</text>
</a>
</g>
</g>
<!-- Node0&#45;&gt;Node8 -->
<g id="edge8" class="edge"><title>Node0&#45;&gt;Node8</title>
<path fill="none" stroke="blueviolet" stroke-dasharray="5,2" d="M144.048,-380.45C149.183,-357.859 164.089,-299.892 190,-258 202.568,-237.68 207.028,-232.114 227,-219 232.704,-215.254 239.244,-212.125 245.718,-209.558"/>
<text text-anchor="middle" x="199.5" y="-261" font-family="Helvetica,sans-Serif" font-size="10.00">erpc</text>
</g>
<!-- Node22 -->
<g id="node19" class="node"><title>Node22</title>
<g id="a_node19"><a xlink:href="group___u_s_b___c_d_c__transport.html" target="_top" xlink:title="USB CDC transport. ">
<polygon fill="white" stroke="black" points="250,-152.5 250,-171.5 310,-171.5 310,-152.5 250,-152.5"/>
<text text-anchor="middle" x="280" y="-159.5" font-family="Helvetica,sans-Serif" font-size="10.00">USB CDC</text>
</a>
</g>
</g>
<!-- Node0&#45;&gt;Node22 -->
<g id="edge22" class="edge"><title>Node0&#45;&gt;Node22</title>
<path fill="none" stroke="blueviolet" stroke-dasharray="5,2" d="M142.954,-380.393C146.005,-353.184 157.313,-273.945 190,-218 201.732,-197.92 207.394,-193.508 227,-181 233.969,-176.554 242.124,-172.951 249.881,-170.127"/>
<text text-anchor="middle" x="199.5" y="-221" font-family="Helvetica,sans-Serif" font-size="10.00">erpc</text>
</g>
<!-- Node3 -->
<g id="node20" class="node"><title>Node3</title>
<g id="a_node20"><a xlink:href="group__infra__codec.html" target="_top" xlink:title="Classes used for message serialization. ">
<polygon fill="white" stroke="black" points="245,-114.5 245,-133.5 315,-133.5 315,-114.5 245,-114.5"/>
<text text-anchor="middle" x="280" y="-121.5" font-family="Helvetica,sans-Serif" font-size="10.00">Serialization</text>
</a>
</g>
</g>
<!-- Node0&#45;&gt;Node3 -->
<g id="edge3" class="edge"><title>Node0&#45;&gt;Node3</title>
<path fill="none" stroke="blueviolet" stroke-dasharray="5,2" d="M142.275,-380.487C143.548,-349.45 150.655,-249.11 190,-179 201.228,-158.991 207.573,-155.207 227,-143 232.941,-139.267 239.722,-136.118 246.381,-133.523"/>
<text text-anchor="middle" x="199.5" y="-182" font-family="Helvetica,sans-Serif" font-size="10.00">erpc</text>
</g>
<!-- Node13 -->
<g id="node21" class="node"><title>Node13</title>
<g id="a_node21"><a xlink:href="group__rpmsg__lite__rtos__transport.html" target="_top" xlink:title="RPMsg&#45;Lite zero copy transport using RTOS API. ">
<polygon fill="white" stroke="black" points="231.5,-76.5 231.5,-95.5 328.5,-95.5 328.5,-76.5 231.5,-76.5"/>
<text text-anchor="middle" x="280" y="-83.5" font-family="Helvetica,sans-Serif" font-size="10.00">RPMsg&#45;Lite RTOS</text>
</a>
</g>
</g>
<!-- Node0&#45;&gt;Node13 -->
<g id="edge13" class="edge"><title>Node0&#45;&gt;Node13</title>
<path fill="none" stroke="blueviolet" stroke-dasharray="5,2" d="M141.844,-380.278C141.69,-345.529 144.638,-225.078 190,-141 200.894,-120.808 207.573,-117.207 227,-105 232.941,-101.267 239.722,-98.118 246.381,-95.5235"/>
<text text-anchor="middle" x="199.5" y="-144" font-family="Helvetica,sans-Serif" font-size="10.00">erpc</text>
</g>
<!-- Node14 -->
<g id="node22" class="node"><title>Node14</title>
<g id="a_node22"><a xlink:href="group__rpmsg__lite__transport.html" target="_top" xlink:title="RPMsg&#45;Lite zero copy transport. ">
<polygon fill="white" stroke="black" points="246,-38.5 246,-57.5 314,-57.5 314,-38.5 246,-38.5"/>
<text text-anchor="middle" x="280" y="-45.5" font-family="Helvetica,sans-Serif" font-size="10.00">RPMsg&#45;Lite</text>
</a>
</g>
</g>
<!-- Node0&#45;&gt;Node14 -->
<g id="edge14" class="edge"><title>Node0&#45;&gt;Node14</title>
<path fill="none" stroke="blueviolet" stroke-dasharray="5,2" d="M141.522,-380.411C140.05,-342.648 138.441,-201.457 190,-103 200.644,-82.6745 207.573,-79.207 227,-67 232.941,-63.267 239.722,-60.118 246.381,-57.5235"/>
<text text-anchor="middle" x="199.5" y="-106" font-family="Helvetica,sans-Serif" font-size="10.00">erpc</text>
</g>
<!-- Node6 -->
<g id="node23" class="node"><title>Node6</title>
<g id="a_node23"><a xlink:href="group__port__setup__extensions.html" target="_top" xlink:title="Extension setup functions. ">
<polygon fill="white" stroke="black" points="235.5,-0.5 235.5,-19.5 324.5,-19.5 324.5,-0.5 235.5,-0.5"/>
<text text-anchor="middle" x="280" y="-7.5" font-family="Helvetica,sans-Serif" font-size="10.00">Extension Setup</text>
</a>
</g>
</g>
<!-- Node0&#45;&gt;Node6 -->
<g id="edge6" class="edge"><title>Node0&#45;&gt;Node6</title>
<path fill="none" stroke="blueviolet" stroke-dasharray="5,2" d="M142.593,-380.338C145.645,-332.666 160.582,-122.505 190,-65 200.449,-44.5738 207.573,-41.207 227,-29 232.941,-25.267 239.722,-22.118 246.381,-19.5235"/>
<text text-anchor="middle" x="199.5" y="-68" font-family="Helvetica,sans-Serif" font-size="10.00">erpc</text>
</g>
</g>
</svg>
