<?xml version="1.0" encoding="UTF-8" standalone="no"?>
<!DOCTYPE svg PUBLIC "-//W3C//DTD SVG 1.1//EN"
 "http://www.w3.org/Graphics/SVG/1.1/DTD/svg11.dtd">
<!-- Generated by graphviz version 2.38.0 (20140413.2041)
 -->
<!-- Title: Utilities Pages: 1 -->
<svg width="351pt" height="636pt"
 viewBox="0.00 0.00 351.00 636.00" xmlns="http://www.w3.org/2000/svg" xmlns:xlink="http://www.w3.org/1999/xlink">
<g id="graph0" class="graph" transform="scale(1 1) rotate(0) translate(4 632)">
<title>Utilities</title>
<polygon fill="white" stroke="none" points="-4,4 -4,-632 347,-632 347,4 -4,4"/>
<!-- Node8 -->
<g id="node1" class="node"><title>Node8</title>
<g id="a_node1"><a xlink:href="group__dspi__slave__transport.html" target="_top" xlink:title="Kinetis SDK DSPI slave driver transport. ">
<polygon fill="white" stroke="black" points="246,-608.5 246,-627.5 311,-627.5 311,-608.5 246,-608.5"/>
<text text-anchor="middle" x="278.5" y="-615.5" font-family="Helvetica,sans-Serif" font-size="10.00">DSPI Slave</text>
</a>
</g>
</g>
<!-- Node6 -->
<g id="node2" class="node"><title>Node6</title>
<g id="a_node2"><a xlink:href="group__port__threads.html" target="_top" xlink:title="Threading model. ">
<polygon fill="white" stroke="black" points="253,-570.5 253,-589.5 304,-589.5 304,-570.5 253,-570.5"/>
<text text-anchor="middle" x="278.5" y="-577.5" font-family="Helvetica,sans-Serif" font-size="10.00">Threads</text>
</a>
</g>
</g>
<!-- Node10 -->
<g id="node3" class="node"><title>Node10</title>
<g id="a_node3"><a xlink:href="group__mu__transport.html" target="_top" xlink:title="Messaging Unit transport. ">
<polygon fill="white" stroke="black" points="236.5,-532.5 236.5,-551.5 320.5,-551.5 320.5,-532.5 236.5,-532.5"/>
<text text-anchor="middle" x="278.5" y="-539.5" font-family="Helvetica,sans-Serif" font-size="10.00">Messaging Unit</text>
</a>
</g>
</g>
<!-- Node17 -->
<g id="node4" class="node"><title>Node17</title>
<g id="a_node4"><a xlink:href="group__tcp__transport.html" target="_top" xlink:title="Simple TCP/IP transport. ">
<polygon fill="white" stroke="black" points="255,-494.5 255,-513.5 302,-513.5 302,-494.5 255,-494.5"/>
<text text-anchor="middle" x="278.5" y="-501.5" font-family="Helvetica,sans-Serif" font-size="10.00">TCP/IP</text>
</a>
</g>
</g>
<!-- Node1 -->
<g id="node5" class="node"><title>Node1</title>
<g id="a_node5"><a xlink:href="group__infra.html" target="_top" xlink:title="C++ core. ">
<polygon fill="white" stroke="black" points="0,-304.5 0,-323.5 73,-323.5 73,-304.5 0,-304.5"/>
<text text-anchor="middle" x="36.5" y="-311.5" font-family="Helvetica,sans-Serif" font-size="10.00">Infrastructure</text>
</a>
</g>
</g>
<!-- Node0 -->
<g id="node9" class="node"><title>Node0</title>
<polygon fill="#bfbfbf" stroke="black" points="110,-304.5 110,-323.5 159,-323.5 159,-304.5 110,-304.5"/>
<text text-anchor="middle" x="134.5" y="-311.5" font-family="Helvetica,sans-Serif" font-size="10.00">Utilities</text>
</g>
<!-- Node1&#45;&gt;Node0 -->
<g id="edge1" class="edge"><title>Node1&#45;&gt;Node0</title>
<path fill="none" stroke="black" d="M83.4896,-314C92.662,-314 101.933,-314 109.958,-314"/>
<polygon fill="black" stroke="black" points="83.2469,-310.5 73.2469,-314 83.2468,-317.5 83.2469,-310.5"/>
</g>
<!-- Node2 -->
<g id="node6" class="node"><title>Node2</title>
<g id="a_node6"><a xlink:href="group__infra__client.html" target="_top" xlink:title="Client classes. ">
<polygon fill="white" stroke="black" points="258,-456.5 258,-475.5 299,-475.5 299,-456.5 258,-456.5"/>
<text text-anchor="middle" x="278.5" y="-463.5" font-family="Helvetica,sans-Serif" font-size="10.00">Client</text>
</a>
</g>
</g>
<!-- Node4 -->
<g id="node7" class="node"><title>Node4</title>
<g id="a_node7"><a xlink:href="group__infra__transport.html" target="_top" xlink:title="Superclasses for building transports. ">
<polygon fill="white" stroke="black" points="247.5,-418.5 247.5,-437.5 309.5,-437.5 309.5,-418.5 247.5,-418.5"/>
<text text-anchor="middle" x="278.5" y="-425.5" font-family="Helvetica,sans-Serif" font-size="10.00">Transports</text>
</a>
</g>
</g>
<!-- Node14 -->
<g id="node8" class="node"><title>Node14</title>
<g id="a_node8"><a xlink:href="group__serial__transport.html" target="_top" xlink:title="POSIX and Win32 serial port transport. ">
<polygon fill="white" stroke="black" points="248,-380.5 248,-399.5 309,-399.5 309,-380.5 248,-380.5"/>
<text text-anchor="middle" x="278.5" y="-387.5" font-family="Helvetica,sans-Serif" font-size="10.00">Serial port</text>
</a>
</g>
</g>
<!-- Node0&#45;&gt;Node8 -->
<g id="edge8" class="edge"><title>Node0&#45;&gt;Node8</title>
<path fill="none" stroke="blueviolet" stroke-dasharray="5,2" d="M136.265,-323.503C139.635,-363.839 154.015,-520.786 177,-564 187.63,-583.985 194.403,-587.671 214,-599 223.763,-604.644 235.357,-608.751 245.949,-611.671"/>
<text text-anchor="middle" x="186.5" y="-590" font-family="Helvetica,sans-Serif" font-size="10.00">erpc</text>
</g>
<!-- Node0&#45;&gt;Node6 -->
<g id="edge6" class="edge"><title>Node0&#45;&gt;Node6</title>
<path fill="none" stroke="blueviolet" stroke-dasharray="5,2" d="M135.411,-323.503C135.509,-354.507 138.932,-454.758 177,-525 187.932,-545.172 194.218,-549.377 214,-561 225.906,-567.995 240.602,-572.607 252.858,-575.533"/>
<text text-anchor="middle" x="186.5" y="-552" font-family="Helvetica,sans-Serif" font-size="10.00">erpc</text>
</g>
<!-- Node0&#45;&gt;Node10 -->
<g id="edge10" class="edge"><title>Node0&#45;&gt;Node10</title>
<path fill="none" stroke="blueviolet" stroke-dasharray="5,2" d="M136.008,-323.601C137.809,-350.797 145.598,-430.003 177,-486 188.375,-506.284 194.03,-511.082 214,-523 220.818,-527.069 228.574,-530.325 236.267,-532.91"/>
<text text-anchor="middle" x="186.5" y="-513" font-family="Helvetica,sans-Serif" font-size="10.00">erpc</text>
</g>
<!-- Node0&#45;&gt;Node17 -->
<g id="edge17" class="edge"><title>Node0&#45;&gt;Node17</title>
<path fill="none" stroke="blueviolet" stroke-dasharray="5,2" d="M136.976,-323.559C140.78,-346.17 152.391,-404.177 177,-446 189.117,-466.592 193.646,-472.487 214,-485 226.45,-492.654 242.175,-497.39 254.862,-500.219"/>
<text text-anchor="middle" x="186.5" y="-474" font-family="Helvetica,sans-Serif" font-size="10.00">erpc</text>
</g>
<!-- Node0&#45;&gt;Node2 -->
<g id="edge2" class="edge"><title>Node0&#45;&gt;Node2</title>
<path fill="none" stroke="blueviolet" stroke-dasharray="5,2" d="M137.789,-323.626C144.43,-349.153 166.341,-418.557 214,-447 227.537,-455.079 244.771,-459.953 257.869,-462.738"/>
<text text-anchor="middle" x="186.5" y="-434" font-family="Helvetica,sans-Serif" font-size="10.00">erpc</text>
</g>
<!-- Node0&#45;&gt;Node4 -->
<g id="edge4" class="edge"><title>Node0&#45;&gt;Node4</title>
<path fill="none" stroke="blueviolet" stroke-dasharray="5,2" d="M140.224,-323.536C150.554,-343.267 177.205,-388.441 214,-409 224.246,-414.725 236.409,-418.904 247.333,-421.861"/>
<text text-anchor="middle" x="186.5" y="-398" font-family="Helvetica,sans-Serif" font-size="10.00">erpc</text>
</g>
<!-- Node0&#45;&gt;Node14 -->
<g id="edge14" class="edge"><title>Node0&#45;&gt;Node14</title>
<path fill="none" stroke="blueviolet" stroke-dasharray="5,2" d="M146.461,-323.642C154.653,-330.682 166.245,-340.301 177,-348 192.745,-359.27 196.347,-363.044 214,-371 224.701,-375.823 236.955,-379.819 247.826,-382.881"/>
<text text-anchor="middle" x="186.5" y="-364" font-family="Helvetica,sans-Serif" font-size="10.00">erpc</text>
</g>
<!-- Node16 -->
<g id="node10" class="node"><title>Node16</title>
<g id="a_node10"><a xlink:href="group__spi__slave__transport.html" target="_top" xlink:title="Kinetis SDK SPI slave driver transport. ">
<polygon fill="white" stroke="black" points="249,-342.5 249,-361.5 308,-361.5 308,-342.5 249,-342.5"/>
<text text-anchor="middle" x="278.5" y="-349.5" font-family="Helvetica,sans-Serif" font-size="10.00">SPI Slave</text>
</a>
</g>
</g>
<!-- Node0&#45;&gt;Node16 -->
<g id="edge16" class="edge"><title>Node0&#45;&gt;Node16</title>
<path fill="none" stroke="blueviolet" stroke-dasharray="5,2" d="M159.037,-323.07C164.862,-325.158 171.12,-327.271 177,-329 200.87,-336.017 228.447,-342.195 248.669,-346.376"/>
<text text-anchor="middle" x="186.5" y="-336" font-family="Helvetica,sans-Serif" font-size="10.00">erpc</text>
</g>
<!-- Node18 -->
<g id="node11" class="node"><title>Node18</title>
<g id="a_node11"><a xlink:href="group__uart__transport.html" target="_top" xlink:title="CMSIS UART driver transport. ">
<polygon fill="white" stroke="black" points="240.5,-304.5 240.5,-323.5 316.5,-323.5 316.5,-304.5 240.5,-304.5"/>
<text text-anchor="middle" x="278.5" y="-311.5" font-family="Helvetica,sans-Serif" font-size="10.00">CMSIS UART</text>
</a>
</g>
</g>
<!-- Node0&#45;&gt;Node18 -->
<g id="edge18" class="edge"><title>Node0&#45;&gt;Node18</title>
<path fill="none" stroke="blueviolet" stroke-dasharray="5,2" d="M159.268,-314C181.374,-314 214.662,-314 240.29,-314"/>
<text text-anchor="middle" x="186.5" y="-317" font-family="Helvetica,sans-Serif" font-size="10.00">erpc</text>
</g>
<!-- Node15 -->
<g id="node12" class="node"><title>Node15</title>
<g id="a_node12"><a xlink:href="group__spi__master__transport.html" target="_top" xlink:title="Kinetis SDK SPI master driver transport. ">
<polygon fill="white" stroke="black" points="246,-266.5 246,-285.5 311,-285.5 311,-266.5 246,-266.5"/>
<text text-anchor="middle" x="278.5" y="-273.5" font-family="Helvetica,sans-Serif" font-size="10.00">SPI Master</text>
</a>
</g>
</g>
<!-- Node0&#45;&gt;Node15 -->
<g id="edge15" class="edge"><title>Node0&#45;&gt;Node15</title>
<path fill="none" stroke="blueviolet" stroke-dasharray="5,2" d="M159.037,-304.93C164.862,-302.842 171.12,-300.729 177,-299 199.668,-292.337 225.679,-286.43 245.559,-282.271"/>
<text text-anchor="middle" x="186.5" y="-302" font-family="Helvetica,sans-Serif" font-size="10.00">erpc</text>
</g>
<!-- Node5 -->
<g id="node13" class="node"><title>Node5</title>
<g id="a_node13"><a xlink:href="group__infra__server.html" target="_top" xlink:title="Server classes. ">
<polygon fill="white" stroke="black" points="256.5,-228.5 256.5,-247.5 300.5,-247.5 300.5,-228.5 256.5,-228.5"/>
<text text-anchor="middle" x="278.5" y="-235.5" font-family="Helvetica,sans-Serif" font-size="10.00">Server</text>
</a>
</g>
</g>
<!-- Node0&#45;&gt;Node5 -->
<g id="edge5" class="edge"><title>Node0&#45;&gt;Node5</title>
<path fill="none" stroke="blueviolet" stroke-dasharray="5,2" d="M146.461,-304.358C154.653,-297.318 166.245,-287.699 177,-280 192.745,-268.73 196.347,-264.956 214,-257 227.638,-250.853 243.8,-246.05 256.406,-242.81"/>
<text text-anchor="middle" x="186.5" y="-283" font-family="Helvetica,sans-Serif" font-size="10.00">erpc</text>
</g>
<!-- Node9 -->
<g id="node14" class="node"><title>Node9</title>
<g id="a_node14"><a xlink:href="group__itbp__transport.html" target="_top" xlink:title="Simple inter&#45;thread communications transport. ">
<polygon fill="white" stroke="black" points="246,-190.5 246,-209.5 311,-209.5 311,-190.5 246,-190.5"/>
<text text-anchor="middle" x="278.5" y="-197.5" font-family="Helvetica,sans-Serif" font-size="10.00">Inter&#45;thread</text>
</a>
</g>
</g>
<!-- Node0&#45;&gt;Node9 -->
<g id="edge9" class="edge"><title>Node0&#45;&gt;Node9</title>
<path fill="none" stroke="blueviolet" stroke-dasharray="5,2" d="M140.224,-304.464C150.554,-284.733 177.205,-239.559 214,-219 223.744,-213.556 235.221,-209.509 245.718,-206.583"/>
<text text-anchor="middle" x="186.5" y="-252" font-family="Helvetica,sans-Serif" font-size="10.00">erpc</text>
</g>
<!-- Node7 -->
<g id="node15" class="node"><title>Node7</title>
<g id="a_node15"><a xlink:href="group__dspi__master__transport.html" target="_top" xlink:title="Kinetis SDK DSPI master driver transport. ">
<polygon fill="white" stroke="black" points="242.5,-152.5 242.5,-171.5 314.5,-171.5 314.5,-152.5 242.5,-152.5"/>
<text text-anchor="middle" x="278.5" y="-159.5" font-family="Helvetica,sans-Serif" font-size="10.00">DSPI Master</text>
</a>
</g>
</g>
<!-- Node0&#45;&gt;Node7 -->
<g id="edge7" class="edge"><title>Node0&#45;&gt;Node7</title>
<path fill="none" stroke="blueviolet" stroke-dasharray="5,2" d="M137.789,-304.374C144.43,-278.847 166.341,-209.443 214,-181 222.597,-175.869 232.684,-172.032 242.256,-169.201"/>
<text text-anchor="middle" x="186.5" y="-218" font-family="Helvetica,sans-Serif" font-size="10.00">erpc</text>
</g>
<!-- Node13 -->
<g id="node16" class="node"><title>Node13</title>
<g id="a_node16"><a xlink:href="group__rpmsg__tty__rtos__transport.html" target="_top" xlink:title="Rpmsg_tty_rtos_transport">
<polygon fill="white" stroke="black" points="214,-114.5 214,-133.5 343,-133.5 343,-114.5 214,-114.5"/>
<text text-anchor="middle" x="278.5" y="-121.5" font-family="Helvetica,sans-Serif" font-size="10.00">Rpmsg_tty_rtos_transport</text>
</a>
</g>
</g>
<!-- Node0&#45;&gt;Node13 -->
<g id="edge13" class="edge"><title>Node0&#45;&gt;Node13</title>
<path fill="none" stroke="blueviolet" stroke-dasharray="5,2" d="M136.976,-304.441C140.78,-281.83 152.391,-223.823 177,-182 189.117,-161.408 193.646,-155.513 214,-143 220.274,-139.143 227.379,-136.027 234.509,-133.522"/>
<text text-anchor="middle" x="186.5" y="-185" font-family="Helvetica,sans-Serif" font-size="10.00">erpc</text>
</g>
<!-- Node3 -->
<g id="node17" class="node"><title>Node3</title>
<g id="a_node17"><a xlink:href="group__infra__codec.html" target="_top" xlink:title="Classes used for message serialization. ">
<polygon fill="white" stroke="black" points="243.5,-76.5 243.5,-95.5 313.5,-95.5 313.5,-76.5 243.5,-76.5"/>
<text text-anchor="middle" x="278.5" y="-83.5" font-family="Helvetica,sans-Serif" font-size="10.00">Serialization</text>
</a>
</g>
</g>
<!-- Node0&#45;&gt;Node3 -->
<g id="edge3" class="edge"><title>Node0&#45;&gt;Node3</title>
<path fill="none" stroke="blueviolet" stroke-dasharray="5,2" d="M136.008,-304.399C137.809,-277.203 145.598,-197.997 177,-142 188.375,-121.716 194.03,-116.918 214,-105 222.893,-99.6925 233.382,-95.7686 243.245,-92.9113"/>
<text text-anchor="middle" x="186.5" y="-145" font-family="Helvetica,sans-Serif" font-size="10.00">erpc</text>
</g>
<!-- Node11 -->
<g id="node18" class="node"><title>Node11</title>
<g id="a_node18"><a xlink:href="group__rpmsg__lite__rtos__transport.html" target="_top" xlink:title="RPMsg&#45;Lite zero copy transport using RTOS API. ">
<polygon fill="white" stroke="black" points="230,-38.5 230,-57.5 327,-57.5 327,-38.5 230,-38.5"/>
<text text-anchor="middle" x="278.5" y="-45.5" font-family="Helvetica,sans-Serif" font-size="10.00">RPMsg&#45;Lite RTOS</text>
</a>
</g>
</g>
<!-- Node0&#45;&gt;Node11 -->
<g id="edge11" class="edge"><title>Node0&#45;&gt;Node11</title>
<path fill="none" stroke="blueviolet" stroke-dasharray="5,2" d="M135.411,-304.497C135.509,-273.493 138.932,-173.242 177,-103 187.932,-82.8281 194.218,-78.623 214,-67 220.548,-63.1526 227.941,-60.0262 235.307,-57.5046"/>
<text text-anchor="middle" x="186.5" y="-106" font-family="Helvetica,sans-Serif" font-size="10.00">erpc</text>
</g>
<!-- Node12 -->
<g id="node19" class="node"><title>Node12</title>
<g id="a_node19"><a xlink:href="group__rpmsg__lite__transport.html" target="_top" xlink:title="RPMsg&#45;Lite zero copy transport. ">
<polygon fill="white" stroke="black" points="244.5,-0.5 244.5,-19.5 312.5,-19.5 312.5,-0.5 244.5,-0.5"/>
<text text-anchor="middle" x="278.5" y="-7.5" font-family="Helvetica,sans-Serif" font-size="10.00">RPMsg&#45;Lite</text>
</a>
</g>
</g>
<!-- Node0&#45;&gt;Node12 -->
<g id="edge12" class="edge"><title>Node0&#45;&gt;Node12</title>
<path fill="none" stroke="blueviolet" stroke-dasharray="5,2" d="M136.265,-304.497C139.635,-264.161 154.015,-107.214 177,-64 187.63,-44.015 194.403,-40.3295 214,-29 223.265,-23.6437 234.178,-19.6717 244.32,-16.7849"/>
<text text-anchor="middle" x="186.5" y="-67" font-family="Helvetica,sans-Serif" font-size="10.00">erpc</text>
</g>
</g>
</svg>
