<?xml version="1.0" encoding="UTF-8" standalone="no"?>
<!DOCTYPE svg PUBLIC "-//W3C//DTD SVG 1.1//EN"
 "http://www.w3.org/Graphics/SVG/1.1/DTD/svg11.dtd">
<!-- Generated by graphviz version 2.38.0 (20140413.2041)
 -->
<!-- Title: Rpmsg_tty_rtos_transport Pages: 1 -->
<svg width="289pt" height="636pt"
 viewBox="0.00 0.00 289.00 636.00" xmlns="http://www.w3.org/2000/svg" xmlns:xlink="http://www.w3.org/1999/xlink">
<g id="graph0" class="graph" transform="scale(1 1) rotate(0) translate(4 632)">
<title>Rpmsg_tty_rtos_transport</title>
<polygon fill="white" stroke="none" points="-4,4 -4,-632 285,-632 285,4 -4,4"/>
<!-- Node8 -->
<g id="node1" class="node"><title>Node8</title>
<g id="a_node1"><a xlink:href="group__dspi__slave__transport.html" target="_top" xlink:title="Kinetis SDK DSPI slave driver transport. ">
<polygon fill="white" stroke="black" points="200,-608.5 200,-627.5 265,-627.5 265,-608.5 200,-608.5"/>
<text text-anchor="middle" x="232.5" y="-615.5" font-family="Helvetica,sans-Serif" font-size="10.00">DSPI Slave</text>
</a>
</g>
</g>
<!-- Node6 -->
<g id="node2" class="node"><title>Node6</title>
<g id="a_node2"><a xlink:href="group__port__threads.html" target="_top" xlink:title="Threading model. ">
<polygon fill="white" stroke="black" points="207,-570.5 207,-589.5 258,-589.5 258,-570.5 207,-570.5"/>
<text text-anchor="middle" x="232.5" y="-577.5" font-family="Helvetica,sans-Serif" font-size="10.00">Threads</text>
</a>
</g>
</g>
<!-- Node10 -->
<g id="node3" class="node"><title>Node10</title>
<g id="a_node3"><a xlink:href="group__mu__transport.html" target="_top" xlink:title="Messaging Unit transport. ">
<polygon fill="white" stroke="black" points="190.5,-532.5 190.5,-551.5 274.5,-551.5 274.5,-532.5 190.5,-532.5"/>
<text text-anchor="middle" x="232.5" y="-539.5" font-family="Helvetica,sans-Serif" font-size="10.00">Messaging Unit</text>
</a>
</g>
</g>
<!-- Node16 -->
<g id="node4" class="node"><title>Node16</title>
<g id="a_node4"><a xlink:href="group__tcp__transport.html" target="_top" xlink:title="Simple TCP/IP transport. ">
<polygon fill="white" stroke="black" points="209,-494.5 209,-513.5 256,-513.5 256,-494.5 209,-494.5"/>
<text text-anchor="middle" x="232.5" y="-501.5" font-family="Helvetica,sans-Serif" font-size="10.00">TCP/IP</text>
</a>
</g>
</g>
<!-- Node1 -->
<g id="node5" class="node"><title>Node1</title>
<g id="a_node5"><a xlink:href="group__infra__client.html" target="_top" xlink:title="Client classes. ">
<polygon fill="white" stroke="black" points="212,-456.5 212,-475.5 253,-475.5 253,-456.5 212,-456.5"/>
<text text-anchor="middle" x="232.5" y="-463.5" font-family="Helvetica,sans-Serif" font-size="10.00">Client</text>
</a>
</g>
</g>
<!-- Node3 -->
<g id="node6" class="node"><title>Node3</title>
<g id="a_node6"><a xlink:href="group__infra__transport.html" target="_top" xlink:title="Superclasses for building transports. ">
<polygon fill="white" stroke="black" points="201.5,-418.5 201.5,-437.5 263.5,-437.5 263.5,-418.5 201.5,-418.5"/>
<text text-anchor="middle" x="232.5" y="-425.5" font-family="Helvetica,sans-Serif" font-size="10.00">Transports</text>
</a>
</g>
</g>
<!-- Node13 -->
<g id="node7" class="node"><title>Node13</title>
<g id="a_node7"><a xlink:href="group__serial__transport.html" target="_top" xlink:title="POSIX and Win32 serial port transport. ">
<polygon fill="white" stroke="black" points="202,-380.5 202,-399.5 263,-399.5 263,-380.5 202,-380.5"/>
<text text-anchor="middle" x="232.5" y="-387.5" font-family="Helvetica,sans-Serif" font-size="10.00">Serial port</text>
</a>
</g>
</g>
<!-- Node4 -->
<g id="node8" class="node"><title>Node4</title>
<g id="a_node8"><a xlink:href="group__infra__utility.html" target="_top" xlink:title="Utility code used by the infrastructure. ">
<polygon fill="white" stroke="black" points="208,-342.5 208,-361.5 257,-361.5 257,-342.5 208,-342.5"/>
<text text-anchor="middle" x="232.5" y="-349.5" font-family="Helvetica,sans-Serif" font-size="10.00">Utilities</text>
</a>
</g>
</g>
<!-- Node15 -->
<g id="node9" class="node"><title>Node15</title>
<g id="a_node9"><a xlink:href="group__spi__slave__transport.html" target="_top" xlink:title="Kinetis SDK SPI slave driver transport. ">
<polygon fill="white" stroke="black" points="203,-304.5 203,-323.5 262,-323.5 262,-304.5 203,-304.5"/>
<text text-anchor="middle" x="232.5" y="-311.5" font-family="Helvetica,sans-Serif" font-size="10.00">SPI Slave</text>
</a>
</g>
</g>
<!-- Node17 -->
<g id="node10" class="node"><title>Node17</title>
<g id="a_node10"><a xlink:href="group__uart__transport.html" target="_top" xlink:title="CMSIS UART driver transport. ">
<polygon fill="white" stroke="black" points="194.5,-266.5 194.5,-285.5 270.5,-285.5 270.5,-266.5 194.5,-266.5"/>
<text text-anchor="middle" x="232.5" y="-273.5" font-family="Helvetica,sans-Serif" font-size="10.00">CMSIS UART</text>
</a>
</g>
</g>
<!-- Node14 -->
<g id="node11" class="node"><title>Node14</title>
<g id="a_node11"><a xlink:href="group__spi__master__transport.html" target="_top" xlink:title="Kinetis SDK SPI master driver transport. ">
<polygon fill="white" stroke="black" points="200,-228.5 200,-247.5 265,-247.5 265,-228.5 200,-228.5"/>
<text text-anchor="middle" x="232.5" y="-235.5" font-family="Helvetica,sans-Serif" font-size="10.00">SPI Master</text>
</a>
</g>
</g>
<!-- Node5 -->
<g id="node12" class="node"><title>Node5</title>
<g id="a_node12"><a xlink:href="group__infra__server.html" target="_top" xlink:title="Server classes. ">
<polygon fill="white" stroke="black" points="210.5,-190.5 210.5,-209.5 254.5,-209.5 254.5,-190.5 210.5,-190.5"/>
<text text-anchor="middle" x="232.5" y="-197.5" font-family="Helvetica,sans-Serif" font-size="10.00">Server</text>
</a>
</g>
</g>
<!-- Node9 -->
<g id="node13" class="node"><title>Node9</title>
<g id="a_node13"><a xlink:href="group__itbp__transport.html" target="_top" xlink:title="Simple inter&#45;thread communications transport. ">
<polygon fill="white" stroke="black" points="200,-152.5 200,-171.5 265,-171.5 265,-152.5 200,-152.5"/>
<text text-anchor="middle" x="232.5" y="-159.5" font-family="Helvetica,sans-Serif" font-size="10.00">Inter&#45;thread</text>
</a>
</g>
</g>
<!-- Node7 -->
<g id="node14" class="node"><title>Node7</title>
<g id="a_node14"><a xlink:href="group__dspi__master__transport.html" target="_top" xlink:title="Kinetis SDK DSPI master driver transport. ">
<polygon fill="white" stroke="black" points="196.5,-114.5 196.5,-133.5 268.5,-133.5 268.5,-114.5 196.5,-114.5"/>
<text text-anchor="middle" x="232.5" y="-121.5" font-family="Helvetica,sans-Serif" font-size="10.00">DSPI Master</text>
</a>
</g>
</g>
<!-- Node0 -->
<g id="node15" class="node"><title>Node0</title>
<polygon fill="#bfbfbf" stroke="black" points="0,-304.5 0,-323.5 129,-323.5 129,-304.5 0,-304.5"/>
<text text-anchor="middle" x="64.5" y="-311.5" font-family="Helvetica,sans-Serif" font-size="10.00">Rpmsg_tty_rtos_transport</text>
</g>
<!-- Node0&#45;&gt;Node8 -->
<g id="edge8" class="edge"><title>Node0&#45;&gt;Node8</title>
<path fill="none" stroke="blueviolet" stroke-dasharray="5,2" d="M67.059,-323.618C72.9528,-358.001 96.1684,-477.227 147,-561 159.228,-581.153 164.408,-585.893 184,-599 189.463,-602.655 195.736,-605.784 201.896,-608.386"/>
<text text-anchor="middle" x="156.5" y="-588" font-family="Helvetica,sans-Serif" font-size="10.00">erpc</text>
</g>
<!-- Node0&#45;&gt;Node6 -->
<g id="edge6" class="edge"><title>Node0&#45;&gt;Node6</title>
<path fill="none" stroke="blueviolet" stroke-dasharray="5,2" d="M67.8746,-323.733C75.6911,-354.586 102.681,-452.284 147,-522 159.818,-542.163 164.228,-547.586 184,-561 190.909,-565.687 199.148,-569.494 206.81,-572.435"/>
<text text-anchor="middle" x="156.5" y="-549" font-family="Helvetica,sans-Serif" font-size="10.00">erpc</text>
</g>
<!-- Node0&#45;&gt;Node10 -->
<g id="edge10" class="edge"><title>Node0&#45;&gt;Node10</title>
<path fill="none" stroke="blueviolet" stroke-dasharray="5,2" d="M69.0474,-323.606C79.0681,-350.124 109.322,-426.081 147,-482 160.715,-502.356 163.861,-508.968 184,-523 189.247,-526.656 195.3,-529.758 201.29,-532.329"/>
<text text-anchor="middle" x="156.5" y="-510" font-family="Helvetica,sans-Serif" font-size="10.00">erpc</text>
</g>
<!-- Node0&#45;&gt;Node16 -->
<g id="edge16" class="edge"><title>Node0&#45;&gt;Node16</title>
<path fill="none" stroke="blueviolet" stroke-dasharray="5,2" d="M69.1582,-323.645C80.8563,-353.094 120.356,-442.422 184,-485 191.53,-490.037 200.6,-494.077 208.788,-497.114"/>
<text text-anchor="middle" x="156.5" y="-470" font-family="Helvetica,sans-Serif" font-size="10.00">erpc</text>
</g>
<!-- Node0&#45;&gt;Node1 -->
<g id="edge1" class="edge"><title>Node0&#45;&gt;Node1</title>
<path fill="none" stroke="blueviolet" stroke-dasharray="5,2" d="M71.4335,-323.577C86.9236,-347.808 131.073,-412.1 184,-447 192.453,-452.574 202.797,-456.951 211.671,-460.092"/>
<text text-anchor="middle" x="156.5" y="-435" font-family="Helvetica,sans-Serif" font-size="10.00">erpc</text>
</g>
<!-- Node0&#45;&gt;Node3 -->
<g id="edge3" class="edge"><title>Node0&#45;&gt;Node3</title>
<path fill="none" stroke="blueviolet" stroke-dasharray="5,2" d="M75.5114,-323.769C95.013,-342.382 140.044,-383.355 184,-409 190.137,-412.581 197.077,-415.779 203.719,-418.484"/>
<text text-anchor="middle" x="156.5" y="-398" font-family="Helvetica,sans-Serif" font-size="10.00">erpc</text>
</g>
<!-- Node0&#45;&gt;Node13 -->
<g id="edge13" class="edge"><title>Node0&#45;&gt;Node13</title>
<path fill="none" stroke="blueviolet" stroke-dasharray="5,2" d="M84.6073,-323.685C107.876,-335.365 148.476,-355.373 184,-371 191.317,-374.219 199.36,-377.523 206.714,-380.454"/>
<text text-anchor="middle" x="156.5" y="-365" font-family="Helvetica,sans-Serif" font-size="10.00">erpc</text>
</g>
<!-- Node0&#45;&gt;Node4 -->
<g id="edge4" class="edge"><title>Node0&#45;&gt;Node4</title>
<path fill="none" stroke="blueviolet" stroke-dasharray="5,2" d="M107.389,-323.589C139.084,-330.845 181.481,-340.55 207.617,-346.533"/>
<text text-anchor="middle" x="156.5" y="-339" font-family="Helvetica,sans-Serif" font-size="10.00">erpc</text>
</g>
<!-- Node0&#45;&gt;Node15 -->
<g id="edge15" class="edge"><title>Node0&#45;&gt;Node15</title>
<path fill="none" stroke="blueviolet" stroke-dasharray="5,2" d="M129.205,-314C154.623,-314 182.597,-314 202.857,-314"/>
<text text-anchor="middle" x="156.5" y="-317" font-family="Helvetica,sans-Serif" font-size="10.00">erpc</text>
</g>
<!-- Node0&#45;&gt;Node17 -->
<g id="edge17" class="edge"><title>Node0&#45;&gt;Node17</title>
<path fill="none" stroke="blueviolet" stroke-dasharray="5,2" d="M107.389,-304.411C134.186,-298.277 168.632,-290.391 194.434,-284.485"/>
<text text-anchor="middle" x="156.5" y="-298" font-family="Helvetica,sans-Serif" font-size="10.00">erpc</text>
</g>
<!-- Node0&#45;&gt;Node14 -->
<g id="edge14" class="edge"><title>Node0&#45;&gt;Node14</title>
<path fill="none" stroke="blueviolet" stroke-dasharray="5,2" d="M84.6073,-304.315C107.876,-292.635 148.476,-272.627 184,-257 191.317,-253.781 199.36,-250.477 206.714,-247.546"/>
<text text-anchor="middle" x="156.5" y="-276" font-family="Helvetica,sans-Serif" font-size="10.00">erpc</text>
</g>
<!-- Node0&#45;&gt;Node5 -->
<g id="edge5" class="edge"><title>Node0&#45;&gt;Node5</title>
<path fill="none" stroke="blueviolet" stroke-dasharray="5,2" d="M75.5114,-304.231C95.013,-285.618 140.044,-244.645 184,-219 192.132,-214.256 201.673,-210.183 210.063,-207.039"/>
<text text-anchor="middle" x="156.5" y="-244" font-family="Helvetica,sans-Serif" font-size="10.00">erpc</text>
</g>
<!-- Node0&#45;&gt;Node9 -->
<g id="edge9" class="edge"><title>Node0&#45;&gt;Node9</title>
<path fill="none" stroke="blueviolet" stroke-dasharray="5,2" d="M71.4052,-304.38C86.8289,-280.047 130.835,-215.537 184,-181 189.661,-177.323 196.147,-174.154 202.469,-171.517"/>
<text text-anchor="middle" x="156.5" y="-211" font-family="Helvetica,sans-Serif" font-size="10.00">erpc</text>
</g>
<!-- Node0&#45;&gt;Node7 -->
<g id="edge7" class="edge"><title>Node0&#45;&gt;Node7</title>
<path fill="none" stroke="blueviolet" stroke-dasharray="5,2" d="M69.1332,-304.318C80.7592,-274.76 120.074,-185.153 184,-143 189.487,-139.382 195.771,-136.268 201.932,-133.669"/>
<text text-anchor="middle" x="156.5" y="-174" font-family="Helvetica,sans-Serif" font-size="10.00">erpc</text>
</g>
<!-- Node2 -->
<g id="node16" class="node"><title>Node2</title>
<g id="a_node16"><a xlink:href="group__infra__codec.html" target="_top" xlink:title="Classes used for message serialization. ">
<polygon fill="white" stroke="black" points="197.5,-76.5 197.5,-95.5 267.5,-95.5 267.5,-76.5 197.5,-76.5"/>
<text text-anchor="middle" x="232.5" y="-83.5" font-family="Helvetica,sans-Serif" font-size="10.00">Serialization</text>
</a>
</g>
</g>
<!-- Node0&#45;&gt;Node2 -->
<g id="edge2" class="edge"><title>Node0&#45;&gt;Node2</title>
<path fill="none" stroke="blueviolet" stroke-dasharray="5,2" d="M68.9988,-304.31C78.8951,-277.566 108.861,-201 147,-145 160.632,-124.984 164.046,-118.722 184,-105 189.416,-101.276 195.669,-98.117 201.824,-95.508"/>
<text text-anchor="middle" x="156.5" y="-148" font-family="Helvetica,sans-Serif" font-size="10.00">erpc</text>
</g>
<!-- Node11 -->
<g id="node17" class="node"><title>Node11</title>
<g id="a_node17"><a xlink:href="group__rpmsg__lite__rtos__transport.html" target="_top" xlink:title="RPMsg&#45;Lite zero copy transport using RTOS API. ">
<polygon fill="white" stroke="black" points="184,-38.5 184,-57.5 281,-57.5 281,-38.5 184,-38.5"/>
<text text-anchor="middle" x="232.5" y="-45.5" font-family="Helvetica,sans-Serif" font-size="10.00">RPMsg&#45;Lite RTOS</text>
</a>
</g>
</g>
<!-- Node0&#45;&gt;Node11 -->
<g id="edge11" class="edge"><title>Node0&#45;&gt;Node11</title>
<path fill="none" stroke="blueviolet" stroke-dasharray="5,2" d="M67.7749,-304.122C75.2955,-272.819 101.503,-173.777 147,-104 159.702,-84.5193 164.585,-79.8022 184,-67 189.487,-63.3819 195.771,-60.2679 201.932,-57.6689"/>
<text text-anchor="middle" x="156.5" y="-107" font-family="Helvetica,sans-Serif" font-size="10.00">erpc</text>
</g>
<!-- Node12 -->
<g id="node18" class="node"><title>Node12</title>
<g id="a_node18"><a xlink:href="group__rpmsg__lite__transport.html" target="_top" xlink:title="RPMsg&#45;Lite zero copy transport. ">
<polygon fill="white" stroke="black" points="198.5,-0.5 198.5,-19.5 266.5,-19.5 266.5,-0.5 198.5,-0.5"/>
<text text-anchor="middle" x="232.5" y="-7.5" font-family="Helvetica,sans-Serif" font-size="10.00">RPMsg&#45;Lite</text>
</a>
</g>
</g>
<!-- Node0&#45;&gt;Node12 -->
<g id="edge12" class="edge"><title>Node0&#45;&gt;Node12</title>
<path fill="none" stroke="blueviolet" stroke-dasharray="5,2" d="M66.961,-304.255C72.5241,-269.429 94.7615,-148.748 147,-65 159.143,-45.5328 164.759,-41.4989 184,-29 189.661,-25.3228 196.147,-22.1544 202.469,-19.5167"/>
<text text-anchor="middle" x="156.5" y="-68" font-family="Helvetica,sans-Serif" font-size="10.00">erpc</text>
</g>
</g>
</svg>
