<?xml version="1.0" encoding="UTF-8" standalone="no"?>
<!DOCTYPE svg PUBLIC "-//W3C//DTD SVG 1.1//EN"
 "http://www.w3.org/Graphics/SVG/1.1/DTD/svg11.dtd">
<!-- Generated by graphviz version 2.38.0 (20140413.2041)
 -->
<!-- Title: TCP/IP Pages: 1 -->
<svg width="342pt" height="788pt"
 viewBox="0.00 0.00 342.00 788.00" xmlns="http://www.w3.org/2000/svg" xmlns:xlink="http://www.w3.org/1999/xlink">
<g id="graph0" class="graph" transform="scale(1 1) rotate(0) translate(4 784)">
<title>TCP/IP</title>
<polygon fill="white" stroke="none" points="-4,4 -4,-784 338,-784 338,4 -4,4"/>
<!-- Node1 -->
<g id="node1" class="node"><title>Node1</title>
<g id="a_node1"><a xlink:href="group__transports.html" target="_top" xlink:title="Transport layer classes. ">
<polygon fill="white" stroke="black" points="0,-380.5 0,-399.5 89,-399.5 89,-380.5 0,-380.5"/>
<text text-anchor="middle" x="44.5" y="-387.5" font-family="Helvetica,sans-Serif" font-size="10.00">Transport Layers</text>
</a>
</g>
</g>
<!-- Node0 -->
<g id="node6" class="node"><title>Node0</title>
<polygon fill="#bfbfbf" stroke="black" points="126,-380.5 126,-399.5 173,-399.5 173,-380.5 126,-380.5"/>
<text text-anchor="middle" x="149.5" y="-387.5" font-family="Helvetica,sans-Serif" font-size="10.00">TCP/IP</text>
</g>
<!-- Node1&#45;&gt;Node0 -->
<g id="edge1" class="edge"><title>Node1&#45;&gt;Node0</title>
<path fill="none" stroke="black" d="M99.3075,-390C108.657,-390 117.904,-390 125.815,-390"/>
<polygon fill="black" stroke="black" points="99.1813,-386.5 89.1813,-390 99.1812,-393.5 99.1813,-386.5"/>
</g>
<!-- Node10 -->
<g id="node2" class="node"><title>Node10</title>
<g id="a_node2"><a xlink:href="group__dspi__slave__transport.html" target="_top" xlink:title="MCUXpressoSDK DSPI slave driver transport. ">
<polygon fill="white" stroke="black" points="248.5,-760.5 248.5,-779.5 313.5,-779.5 313.5,-760.5 248.5,-760.5"/>
<text text-anchor="middle" x="281" y="-767.5" font-family="Helvetica,sans-Serif" font-size="10.00">DSPI Slave</text>
</a>
</g>
</g>
<!-- Node11 -->
<g id="node3" class="node"><title>Node11</title>
<g id="a_node3"><a xlink:href="group__i2c__slave__transport.html" target="_top" xlink:title="MCUXpressoSDK I2C slave driver transport. ">
<polygon fill="white" stroke="black" points="252.5,-722.5 252.5,-741.5 309.5,-741.5 309.5,-722.5 252.5,-722.5"/>
<text text-anchor="middle" x="281" y="-729.5" font-family="Helvetica,sans-Serif" font-size="10.00">I2C Slave</text>
</a>
</g>
</g>
<!-- Node8 -->
<g id="node4" class="node"><title>Node8</title>
<g id="a_node4"><a xlink:href="group__port__threads.html" target="_top" xlink:title="Threading model. ">
<polygon fill="white" stroke="black" points="255.5,-684.5 255.5,-703.5 306.5,-703.5 306.5,-684.5 255.5,-684.5"/>
<text text-anchor="middle" x="281" y="-691.5" font-family="Helvetica,sans-Serif" font-size="10.00">Threads</text>
</a>
</g>
</g>
<!-- Node13 -->
<g id="node5" class="node"><title>Node13</title>
<g id="a_node5"><a xlink:href="group__mu__transport.html" target="_top" xlink:title="Messaging Unit transport. ">
<polygon fill="white" stroke="black" points="239,-646.5 239,-665.5 323,-665.5 323,-646.5 239,-646.5"/>
<text text-anchor="middle" x="281" y="-653.5" font-family="Helvetica,sans-Serif" font-size="10.00">Messaging Unit</text>
</a>
</g>
</g>
<!-- Node0&#45;&gt;Node10 -->
<g id="edge10" class="edge"><title>Node0&#45;&gt;Node10</title>
<path fill="none" stroke="blueviolet" stroke-dasharray="5,2" d="M150.847,-399.656C152.687,-447.299 162.324,-657.344 191,-715 201.217,-735.543 208.573,-738.793 228,-751 234.266,-754.938 241.468,-758.225 248.474,-760.898"/>
<text text-anchor="middle" x="200.5" y="-741" font-family="Helvetica,sans-Serif" font-size="10.00">erpc</text>
</g>
<!-- Node0&#45;&gt;Node11 -->
<g id="edge11" class="edge"><title>Node0&#45;&gt;Node11</title>
<path fill="none" stroke="blueviolet" stroke-dasharray="5,2" d="M151.028,-399.679C153.563,-443.888 165.437,-626.631 191,-677 201.384,-697.46 208.573,-700.793 228,-713 235.406,-717.653 244.117,-721.399 252.27,-724.295"/>
<text text-anchor="middle" x="200.5" y="-703" font-family="Helvetica,sans-Serif" font-size="10.00">erpc</text>
</g>
<!-- Node0&#45;&gt;Node8 -->
<g id="edge8" class="edge"><title>Node0&#45;&gt;Node8</title>
<path fill="none" stroke="blueviolet" stroke-dasharray="5,2" d="M151.265,-399.728C154.578,-440.295 168.543,-595.883 191,-639 201.598,-659.349 208.573,-662.793 228,-675 236.382,-680.267 246.437,-684.372 255.462,-687.396"/>
<text text-anchor="middle" x="200.5" y="-665" font-family="Helvetica,sans-Serif" font-size="10.00">erpc</text>
</g>
<!-- Node0&#45;&gt;Node13 -->
<g id="edge13" class="edge"><title>Node0&#45;&gt;Node13</title>
<path fill="none" stroke="blueviolet" stroke-dasharray="5,2" d="M150.354,-399.501C150.272,-430.499 153.126,-530.734 191,-601 201.886,-621.197 208.573,-624.793 228,-637 233.941,-640.733 240.722,-643.882 247.381,-646.477"/>
<text text-anchor="middle" x="200.5" y="-627" font-family="Helvetica,sans-Serif" font-size="10.00">erpc</text>
</g>
<!-- Node2 -->
<g id="node7" class="node"><title>Node2</title>
<g id="a_node7"><a xlink:href="group__infra__client.html" target="_top" xlink:title="Client classes. ">
<polygon fill="white" stroke="black" points="260.5,-608.5 260.5,-627.5 301.5,-627.5 301.5,-608.5 260.5,-608.5"/>
<text text-anchor="middle" x="281" y="-615.5" font-family="Helvetica,sans-Serif" font-size="10.00">Client</text>
</a>
</g>
</g>
<!-- Node0&#45;&gt;Node2 -->
<g id="edge2" class="edge"><title>Node0&#45;&gt;Node2</title>
<path fill="none" stroke="blueviolet" stroke-dasharray="5,2" d="M150.886,-399.677C152.356,-427.085 159.273,-506.878 191,-563 202.291,-582.973 208.573,-586.793 228,-599 237.929,-605.239 250.204,-609.846 260.334,-612.961"/>
<text text-anchor="middle" x="200.5" y="-589" font-family="Helvetica,sans-Serif" font-size="10.00">erpc</text>
</g>
<!-- Node4 -->
<g id="node8" class="node"><title>Node4</title>
<g id="a_node8"><a xlink:href="group__infra__transport.html" target="_top" xlink:title="Superclasses for building transports. ">
<polygon fill="white" stroke="black" points="250,-570.5 250,-589.5 312,-589.5 312,-570.5 250,-570.5"/>
<text text-anchor="middle" x="281" y="-577.5" font-family="Helvetica,sans-Serif" font-size="10.00">Transports</text>
</a>
</g>
</g>
<!-- Node0&#45;&gt;Node4 -->
<g id="edge4" class="edge"><title>Node0&#45;&gt;Node4</title>
<path fill="none" stroke="blueviolet" stroke-dasharray="5,2" d="M151.78,-399.749C155.145,-422.799 165.783,-481.879 191,-524 202.946,-543.953 208.394,-548.492 228,-561 234.645,-565.239 242.368,-568.712 249.797,-571.474"/>
<text text-anchor="middle" x="200.5" y="-551" font-family="Helvetica,sans-Serif" font-size="10.00">erpc</text>
</g>
<!-- Node17 -->
<g id="node9" class="node"><title>Node17</title>
<g id="a_node9"><a xlink:href="group__serial__transport.html" target="_top" xlink:title="POSIX and Win32 serial port transport. ">
<polygon fill="white" stroke="black" points="250.5,-532.5 250.5,-551.5 311.5,-551.5 311.5,-532.5 250.5,-532.5"/>
<text text-anchor="middle" x="281" y="-539.5" font-family="Helvetica,sans-Serif" font-size="10.00">Serial port</text>
</a>
</g>
</g>
<!-- Node0&#45;&gt;Node17 -->
<g id="edge17" class="edge"><title>Node0&#45;&gt;Node17</title>
<path fill="none" stroke="blueviolet" stroke-dasharray="5,2" d="M153.193,-399.597C158.524,-417.593 171.61,-457.185 191,-486 203.983,-505.294 208.394,-510.492 228,-523 234.807,-527.342 242.745,-530.881 250.34,-533.675"/>
<text text-anchor="middle" x="200.5" y="-512" font-family="Helvetica,sans-Serif" font-size="10.00">erpc</text>
</g>
<!-- Node5 -->
<g id="node10" class="node"><title>Node5</title>
<g id="a_node10"><a xlink:href="group__infra__utility.html" target="_top" xlink:title="Utility code used by the infrastructure. ">
<polygon fill="white" stroke="black" points="256.5,-494.5 256.5,-513.5 305.5,-513.5 305.5,-494.5 256.5,-494.5"/>
<text text-anchor="middle" x="281" y="-501.5" font-family="Helvetica,sans-Serif" font-size="10.00">Utilities</text>
</a>
</g>
</g>
<!-- Node0&#45;&gt;Node5 -->
<g id="edge5" class="edge"><title>Node0&#45;&gt;Node5</title>
<path fill="none" stroke="blueviolet" stroke-dasharray="5,2" d="M155.377,-399.679C165.791,-419.27 192.203,-463.575 228,-485 236.742,-490.232 247.16,-494.389 256.367,-497.464"/>
<text text-anchor="middle" x="200.5" y="-474" font-family="Helvetica,sans-Serif" font-size="10.00">erpc</text>
</g>
<!-- Node19 -->
<g id="node11" class="node"><title>Node19</title>
<g id="a_node11"><a xlink:href="group__spi__slave__transport.html" target="_top" xlink:title="MCUXpressoSDK SPI slave driver transport. ">
<polygon fill="white" stroke="black" points="251.5,-456.5 251.5,-475.5 310.5,-475.5 310.5,-456.5 251.5,-456.5"/>
<text text-anchor="middle" x="281" y="-463.5" font-family="Helvetica,sans-Serif" font-size="10.00">SPI Slave</text>
</a>
</g>
</g>
<!-- Node0&#45;&gt;Node19 -->
<g id="edge19" class="edge"><title>Node0&#45;&gt;Node19</title>
<path fill="none" stroke="blueviolet" stroke-dasharray="5,2" d="M160.739,-399.743C168.687,-407.079 180.144,-417.175 191,-425 206.52,-436.187 210.718,-438.793 228,-447 235.38,-450.505 243.592,-453.777 251.27,-456.584"/>
<text text-anchor="middle" x="200.5" y="-440" font-family="Helvetica,sans-Serif" font-size="10.00">erpc</text>
</g>
<!-- Node21 -->
<g id="node12" class="node"><title>Node21</title>
<g id="a_node12"><a xlink:href="group__uart__transport.html" target="_top" xlink:title="CMSIS UART driver transport. ">
<polygon fill="white" stroke="black" points="243,-418.5 243,-437.5 319,-437.5 319,-418.5 243,-418.5"/>
<text text-anchor="middle" x="281" y="-425.5" font-family="Helvetica,sans-Serif" font-size="10.00">CMSIS UART</text>
</a>
</g>
</g>
<!-- Node0&#45;&gt;Node21 -->
<g id="edge21" class="edge"><title>Node0&#45;&gt;Node21</title>
<path fill="none" stroke="blueviolet" stroke-dasharray="5,2" d="M173.065,-398.82C178.869,-400.961 185.133,-403.161 191,-405 207.903,-410.299 226.881,-415.327 242.955,-419.323"/>
<text text-anchor="middle" x="200.5" y="-413" font-family="Helvetica,sans-Serif" font-size="10.00">erpc</text>
</g>
<!-- Node20 -->
<g id="node13" class="node"><title>Node20</title>
<g id="a_node13"><a xlink:href="group__spidev__master__transport.html" target="_top" xlink:title="SPIdev Linux transport. ">
<polygon fill="white" stroke="black" points="228,-380.5 228,-399.5 334,-399.5 334,-380.5 228,-380.5"/>
<text text-anchor="middle" x="281" y="-387.5" font-family="Helvetica,sans-Serif" font-size="10.00">SPIdev Linux Master</text>
</a>
</g>
</g>
<!-- Node0&#45;&gt;Node20 -->
<g id="edge20" class="edge"><title>Node0&#45;&gt;Node20</title>
<path fill="none" stroke="blueviolet" stroke-dasharray="5,2" d="M173.057,-390C188.203,-390 208.803,-390 227.881,-390"/>
<text text-anchor="middle" x="200.5" y="-393" font-family="Helvetica,sans-Serif" font-size="10.00">erpc</text>
</g>
<!-- Node18 -->
<g id="node14" class="node"><title>Node18</title>
<g id="a_node14"><a xlink:href="group__spi__master__transport.html" target="_top" xlink:title="MCUXpressoSDK SPI master driver transport. ">
<polygon fill="white" stroke="black" points="248.5,-342.5 248.5,-361.5 313.5,-361.5 313.5,-342.5 248.5,-342.5"/>
<text text-anchor="middle" x="281" y="-349.5" font-family="Helvetica,sans-Serif" font-size="10.00">SPI Master</text>
</a>
</g>
</g>
<!-- Node0&#45;&gt;Node18 -->
<g id="edge18" class="edge"><title>Node0&#45;&gt;Node18</title>
<path fill="none" stroke="blueviolet" stroke-dasharray="5,2" d="M173.065,-381.18C178.869,-379.039 185.133,-376.839 191,-375 209.883,-369.08 231.354,-363.499 248.476,-359.317"/>
<text text-anchor="middle" x="200.5" y="-378" font-family="Helvetica,sans-Serif" font-size="10.00">erpc</text>
</g>
<!-- Node16 -->
<g id="node15" class="node"><title>Node16</title>
<g id="a_node15"><a xlink:href="group__rpmsg__tty__rtos__transport.html" target="_top" xlink:title="RPMsg TTY RTOS transport. ">
<polygon fill="white" stroke="black" points="232,-304.5 232,-323.5 330,-323.5 330,-304.5 232,-304.5"/>
<text text-anchor="middle" x="281" y="-311.5" font-family="Helvetica,sans-Serif" font-size="10.00">RPMsg TTY RTOS</text>
</a>
</g>
</g>
<!-- Node0&#45;&gt;Node16 -->
<g id="edge16" class="edge"><title>Node0&#45;&gt;Node16</title>
<path fill="none" stroke="blueviolet" stroke-dasharray="5,2" d="M160.321,-380.201C168.23,-372.581 179.833,-361.997 191,-354 206.373,-342.991 210.839,-340.939 228,-333 235.415,-329.57 243.639,-326.323 251.316,-323.516"/>
<text text-anchor="middle" x="200.5" y="-357" font-family="Helvetica,sans-Serif" font-size="10.00">erpc</text>
</g>
<!-- Node6 -->
<g id="node16" class="node"><title>Node6</title>
<g id="a_node16"><a xlink:href="group__infra__server.html" target="_top" xlink:title="Server classes. ">
<polygon fill="white" stroke="black" points="259,-266.5 259,-285.5 303,-285.5 303,-266.5 259,-266.5"/>
<text text-anchor="middle" x="281" y="-273.5" font-family="Helvetica,sans-Serif" font-size="10.00">Server</text>
</a>
</g>
</g>
<!-- Node0&#45;&gt;Node6 -->
<g id="edge6" class="edge"><title>Node0&#45;&gt;Node6</title>
<path fill="none" stroke="blueviolet" stroke-dasharray="5,2" d="M155.5,-380.453C162.485,-367.582 176.004,-344.287 191,-327 205.246,-310.577 209.26,-306.023 228,-295 237.61,-289.347 249.188,-284.916 258.977,-281.76"/>
<text text-anchor="middle" x="200.5" y="-330" font-family="Helvetica,sans-Serif" font-size="10.00">erpc</text>
</g>
<!-- Node12 -->
<g id="node17" class="node"><title>Node12</title>
<g id="a_node17"><a xlink:href="group__itbp__transport.html" target="_top" xlink:title="Simple inter&#45;thread communications transport. ">
<polygon fill="white" stroke="black" points="248.5,-228.5 248.5,-247.5 313.5,-247.5 313.5,-228.5 248.5,-228.5"/>
<text text-anchor="middle" x="281" y="-235.5" font-family="Helvetica,sans-Serif" font-size="10.00">Inter&#45;thread</text>
</a>
</g>
</g>
<!-- Node0&#45;&gt;Node12 -->
<g id="edge12" class="edge"><title>Node0&#45;&gt;Node12</title>
<path fill="none" stroke="blueviolet" stroke-dasharray="5,2" d="M152.993,-380.435C158.07,-362.109 170.864,-321.274 191,-292 203.829,-273.35 208.749,-268.908 228,-257 234.212,-253.157 241.319,-249.921 248.242,-247.271"/>
<text text-anchor="middle" x="200.5" y="-295" font-family="Helvetica,sans-Serif" font-size="10.00">erpc</text>
</g>
<!-- Node9 -->
<g id="node18" class="node"><title>Node9</title>
<g id="a_node18"><a xlink:href="group__dspi__master__transport.html" target="_top" xlink:title="MCUXpressoSDK DSPI master driver transport. ">
<polygon fill="white" stroke="black" points="245,-190.5 245,-209.5 317,-209.5 317,-190.5 245,-190.5"/>
<text text-anchor="middle" x="281" y="-197.5" font-family="Helvetica,sans-Serif" font-size="10.00">DSPI Master</text>
</a>
</g>
</g>
<!-- Node0&#45;&gt;Node9 -->
<g id="edge9" class="edge"><title>Node0&#45;&gt;Node9</title>
<path fill="none" stroke="blueviolet" stroke-dasharray="5,2" d="M151.621,-380.404C154.687,-357.156 164.805,-296.601 191,-254 202.857,-234.718 208.749,-230.908 228,-219 233.967,-215.309 240.759,-212.178 247.421,-209.588"/>
<text text-anchor="middle" x="200.5" y="-257" font-family="Helvetica,sans-Serif" font-size="10.00">erpc</text>
</g>
<!-- Node22 -->
<g id="node19" class="node"><title>Node22</title>
<g id="a_node19"><a xlink:href="group___u_s_b___c_d_c__transport.html" target="_top" xlink:title="USB CDC transport. ">
<polygon fill="white" stroke="black" points="251,-152.5 251,-171.5 311,-171.5 311,-152.5 251,-152.5"/>
<text text-anchor="middle" x="281" y="-159.5" font-family="Helvetica,sans-Serif" font-size="10.00">USB CDC</text>
</a>
</g>
</g>
<!-- Node0&#45;&gt;Node22 -->
<g id="edge22" class="edge"><title>Node0&#45;&gt;Node22</title>
<path fill="none" stroke="blueviolet" stroke-dasharray="5,2" d="M150.832,-380.244C152.16,-352.619 158.739,-272.225 191,-216 202.266,-196.366 208.749,-192.908 228,-181 235.03,-176.652 243.205,-173.081 250.962,-170.255"/>
<text text-anchor="middle" x="200.5" y="-219" font-family="Helvetica,sans-Serif" font-size="10.00">erpc</text>
</g>
<!-- Node3 -->
<g id="node20" class="node"><title>Node3</title>
<g id="a_node20"><a xlink:href="group__infra__codec.html" target="_top" xlink:title="Classes used for message serialization. ">
<polygon fill="white" stroke="black" points="246,-114.5 246,-133.5 316,-133.5 316,-114.5 246,-114.5"/>
<text text-anchor="middle" x="281" y="-121.5" font-family="Helvetica,sans-Serif" font-size="10.00">Serialization</text>
</a>
</g>
</g>
<!-- Node0&#45;&gt;Node3 -->
<g id="edge3" class="edge"><title>Node0&#45;&gt;Node3</title>
<path fill="none" stroke="blueviolet" stroke-dasharray="5,2" d="M150.25,-380.366C149.847,-348.939 151.833,-247.39 191,-177 201.859,-157.485 208.923,-154.611 228,-143 234.076,-139.302 240.984,-136.155 247.736,-133.548"/>
<text text-anchor="middle" x="200.5" y="-180" font-family="Helvetica,sans-Serif" font-size="10.00">erpc</text>
</g>
<!-- Node14 -->
<g id="node21" class="node"><title>Node14</title>
<g id="a_node21"><a xlink:href="group__rpmsg__lite__rtos__transport.html" target="_top" xlink:title="RPMsg&#45;Lite zero copy transport using RTOS API. ">
<polygon fill="white" stroke="black" points="232.5,-76.5 232.5,-95.5 329.5,-95.5 329.5,-76.5 232.5,-76.5"/>
<text text-anchor="middle" x="281" y="-83.5" font-family="Helvetica,sans-Serif" font-size="10.00">RPMsg&#45;Lite RTOS</text>
</a>
</g>
</g>
<!-- Node0&#45;&gt;Node14 -->
<g id="edge14" class="edge"><title>Node0&#45;&gt;Node14</title>
<path fill="none" stroke="blueviolet" stroke-dasharray="5,2" d="M151.203,-380.452C154.315,-339.923 167.725,-182.239 191,-139 202.678,-117.306 227.345,-103.652 247.756,-95.6466"/>
<text text-anchor="middle" x="200.5" y="-142" font-family="Helvetica,sans-Serif" font-size="10.00">erpc</text>
</g>
<!-- Node15 -->
<g id="node22" class="node"><title>Node15</title>
<g id="a_node22"><a xlink:href="group__rpmsg__lite__transport.html" target="_top" xlink:title="RPMsg&#45;Lite zero copy transport. ">
<polygon fill="white" stroke="black" points="247,-38.5 247,-57.5 315,-57.5 315,-38.5 247,-38.5"/>
<text text-anchor="middle" x="281" y="-45.5" font-family="Helvetica,sans-Serif" font-size="10.00">RPMsg&#45;Lite</text>
</a>
</g>
</g>
<!-- Node0&#45;&gt;Node15 -->
<g id="edge15" class="edge"><title>Node0&#45;&gt;Node15</title>
<path fill="none" stroke="blueviolet" stroke-dasharray="5,2" d="M151.008,-380.279C153.457,-335.88 165.007,-152.365 191,-102 201.381,-81.8848 208.749,-78.9082 228,-67 233.967,-63.3089 240.759,-60.1779 247.421,-57.5877"/>
<text text-anchor="middle" x="200.5" y="-105" font-family="Helvetica,sans-Serif" font-size="10.00">erpc</text>
</g>
<!-- Node7 -->
<g id="node23" class="node"><title>Node7</title>
<g id="a_node23"><a xlink:href="group__port__setup__extensions.html" target="_top" xlink:title="Extension setup functions. ">
<polygon fill="white" stroke="black" points="236.5,-0.5 236.5,-19.5 325.5,-19.5 325.5,-0.5 236.5,-0.5"/>
<text text-anchor="middle" x="281" y="-7.5" font-family="Helvetica,sans-Serif" font-size="10.00">Extension Setup</text>
</a>
</g>
</g>
<!-- Node0&#45;&gt;Node7 -->
<g id="edge7" class="edge"><title>Node0&#45;&gt;Node7</title>
<path fill="none" stroke="blueviolet" stroke-dasharray="5,2" d="M150.808,-380.269C152.462,-332.254 161.347,-120.599 191,-63 202.277,-41.0948 226.973,-27.4562 247.496,-19.5099"/>
<text text-anchor="middle" x="200.5" y="-66" font-family="Helvetica,sans-Serif" font-size="10.00">erpc</text>
</g>
</g>
</svg>
