<?xml version="1.0" encoding="UTF-8" standalone="no"?>
<!DOCTYPE svg PUBLIC "-//W3C//DTD SVG 1.1//EN"
 "http://www.w3.org/Graphics/SVG/1.1/DTD/svg11.dtd">
<!-- Generated by graphviz version 2.38.0 (20140413.2041)
 -->
<!-- Title: Serialization Pages: 1 -->
<svg width="349pt" height="788pt"
 viewBox="0.00 0.00 349.00 788.00" xmlns="http://www.w3.org/2000/svg" xmlns:xlink="http://www.w3.org/1999/xlink">
<g id="graph0" class="graph" transform="scale(1 1) rotate(0) translate(4 784)">
<title>Serialization</title>
<polygon fill="white" stroke="none" points="-4,4 -4,-784 345,-784 345,4 -4,4"/>
<!-- Node9 -->
<g id="node1" class="node"><title>Node9</title>
<g id="a_node1"><a xlink:href="group__dspi__slave__transport.html" target="_top" xlink:title="MCUXpressoSDK DSPI slave driver transport. ">
<polygon fill="white" stroke="black" points="255.5,-760.5 255.5,-779.5 320.5,-779.5 320.5,-760.5 255.5,-760.5"/>
<text text-anchor="middle" x="288" y="-767.5" font-family="Helvetica,sans-Serif" font-size="10.00">DSPI Slave</text>
</a>
</g>
</g>
<!-- Node10 -->
<g id="node2" class="node"><title>Node10</title>
<g id="a_node2"><a xlink:href="group__i2c__slave__transport.html" target="_top" xlink:title="MCUXpressoSDK I2C slave driver transport. ">
<polygon fill="white" stroke="black" points="259.5,-722.5 259.5,-741.5 316.5,-741.5 316.5,-722.5 259.5,-722.5"/>
<text text-anchor="middle" x="288" y="-729.5" font-family="Helvetica,sans-Serif" font-size="10.00">I2C Slave</text>
</a>
</g>
</g>
<!-- Node7 -->
<g id="node3" class="node"><title>Node7</title>
<g id="a_node3"><a xlink:href="group__port__threads.html" target="_top" xlink:title="Threading model. ">
<polygon fill="white" stroke="black" points="262.5,-684.5 262.5,-703.5 313.5,-703.5 313.5,-684.5 262.5,-684.5"/>
<text text-anchor="middle" x="288" y="-691.5" font-family="Helvetica,sans-Serif" font-size="10.00">Threads</text>
</a>
</g>
</g>
<!-- Node12 -->
<g id="node4" class="node"><title>Node12</title>
<g id="a_node4"><a xlink:href="group__mu__transport.html" target="_top" xlink:title="Messaging Unit transport. ">
<polygon fill="white" stroke="black" points="246,-646.5 246,-665.5 330,-665.5 330,-646.5 246,-646.5"/>
<text text-anchor="middle" x="288" y="-653.5" font-family="Helvetica,sans-Serif" font-size="10.00">Messaging Unit</text>
</a>
</g>
</g>
<!-- Node20 -->
<g id="node5" class="node"><title>Node20</title>
<g id="a_node5"><a xlink:href="group__tcp__transport.html" target="_top" xlink:title="Simple TCP/IP transport. ">
<polygon fill="white" stroke="black" points="264.5,-608.5 264.5,-627.5 311.5,-627.5 311.5,-608.5 264.5,-608.5"/>
<text text-anchor="middle" x="288" y="-615.5" font-family="Helvetica,sans-Serif" font-size="10.00">TCP/IP</text>
</a>
</g>
</g>
<!-- Node1 -->
<g id="node6" class="node"><title>Node1</title>
<g id="a_node6"><a xlink:href="group__infra.html" target="_top" xlink:title="C++ core. ">
<polygon fill="white" stroke="black" points="0,-380.5 0,-399.5 73,-399.5 73,-380.5 0,-380.5"/>
<text text-anchor="middle" x="36.5" y="-387.5" font-family="Helvetica,sans-Serif" font-size="10.00">Infrastructure</text>
</a>
</g>
</g>
<!-- Node0 -->
<g id="node20" class="node"><title>Node0</title>
<polygon fill="#bfbfbf" stroke="black" points="110,-380.5 110,-399.5 180,-399.5 180,-380.5 110,-380.5"/>
<text text-anchor="middle" x="145" y="-387.5" font-family="Helvetica,sans-Serif" font-size="10.00">Serialization</text>
</g>
<!-- Node1&#45;&gt;Node0 -->
<g id="edge1" class="edge"><title>Node1&#45;&gt;Node0</title>
<path fill="none" stroke="black" d="M83.5,-390C92.3827,-390 101.54,-390 109.957,-390"/>
<polygon fill="black" stroke="black" points="83.2593,-386.5 73.2592,-390 83.2592,-393.5 83.2593,-386.5"/>
</g>
<!-- Node2 -->
<g id="node7" class="node"><title>Node2</title>
<g id="a_node7"><a xlink:href="group__infra__client.html" target="_top" xlink:title="Client classes. ">
<polygon fill="white" stroke="black" points="267.5,-570.5 267.5,-589.5 308.5,-589.5 308.5,-570.5 267.5,-570.5"/>
<text text-anchor="middle" x="288" y="-577.5" font-family="Helvetica,sans-Serif" font-size="10.00">Client</text>
</a>
</g>
</g>
<!-- Node3 -->
<g id="node8" class="node"><title>Node3</title>
<g id="a_node8"><a xlink:href="group__infra__transport.html" target="_top" xlink:title="Superclasses for building transports. ">
<polygon fill="white" stroke="black" points="257,-532.5 257,-551.5 319,-551.5 319,-532.5 257,-532.5"/>
<text text-anchor="middle" x="288" y="-539.5" font-family="Helvetica,sans-Serif" font-size="10.00">Transports</text>
</a>
</g>
</g>
<!-- Node16 -->
<g id="node9" class="node"><title>Node16</title>
<g id="a_node9"><a xlink:href="group__serial__transport.html" target="_top" xlink:title="POSIX and Win32 serial port transport. ">
<polygon fill="white" stroke="black" points="257.5,-494.5 257.5,-513.5 318.5,-513.5 318.5,-494.5 257.5,-494.5"/>
<text text-anchor="middle" x="288" y="-501.5" font-family="Helvetica,sans-Serif" font-size="10.00">Serial port</text>
</a>
</g>
</g>
<!-- Node4 -->
<g id="node10" class="node"><title>Node4</title>
<g id="a_node10"><a xlink:href="group__infra__utility.html" target="_top" xlink:title="Utility code used by the infrastructure. ">
<polygon fill="white" stroke="black" points="263.5,-456.5 263.5,-475.5 312.5,-475.5 312.5,-456.5 263.5,-456.5"/>
<text text-anchor="middle" x="288" y="-463.5" font-family="Helvetica,sans-Serif" font-size="10.00">Utilities</text>
</a>
</g>
</g>
<!-- Node18 -->
<g id="node11" class="node"><title>Node18</title>
<g id="a_node11"><a xlink:href="group__spi__slave__transport.html" target="_top" xlink:title="MCUXpressoSDK SPI slave driver transport. ">
<polygon fill="white" stroke="black" points="258.5,-418.5 258.5,-437.5 317.5,-437.5 317.5,-418.5 258.5,-418.5"/>
<text text-anchor="middle" x="288" y="-425.5" font-family="Helvetica,sans-Serif" font-size="10.00">SPI Slave</text>
</a>
</g>
</g>
<!-- Node21 -->
<g id="node12" class="node"><title>Node21</title>
<g id="a_node12"><a xlink:href="group__uart__transport.html" target="_top" xlink:title="CMSIS UART driver transport. ">
<polygon fill="white" stroke="black" points="250,-380.5 250,-399.5 326,-399.5 326,-380.5 250,-380.5"/>
<text text-anchor="middle" x="288" y="-387.5" font-family="Helvetica,sans-Serif" font-size="10.00">CMSIS UART</text>
</a>
</g>
</g>
<!-- Node19 -->
<g id="node13" class="node"><title>Node19</title>
<g id="a_node13"><a xlink:href="group__spidev__master__transport.html" target="_top" xlink:title="SPIdev Linux transport. ">
<polygon fill="white" stroke="black" points="235,-342.5 235,-361.5 341,-361.5 341,-342.5 235,-342.5"/>
<text text-anchor="middle" x="288" y="-349.5" font-family="Helvetica,sans-Serif" font-size="10.00">SPIdev Linux Master</text>
</a>
</g>
</g>
<!-- Node17 -->
<g id="node14" class="node"><title>Node17</title>
<g id="a_node14"><a xlink:href="group__spi__master__transport.html" target="_top" xlink:title="MCUXpressoSDK SPI master driver transport. ">
<polygon fill="white" stroke="black" points="255.5,-304.5 255.5,-323.5 320.5,-323.5 320.5,-304.5 255.5,-304.5"/>
<text text-anchor="middle" x="288" y="-311.5" font-family="Helvetica,sans-Serif" font-size="10.00">SPI Master</text>
</a>
</g>
</g>
<!-- Node15 -->
<g id="node15" class="node"><title>Node15</title>
<g id="a_node15"><a xlink:href="group__rpmsg__tty__rtos__transport.html" target="_top" xlink:title="RPMsg TTY RTOS transport. ">
<polygon fill="white" stroke="black" points="239,-266.5 239,-285.5 337,-285.5 337,-266.5 239,-266.5"/>
<text text-anchor="middle" x="288" y="-273.5" font-family="Helvetica,sans-Serif" font-size="10.00">RPMsg TTY RTOS</text>
</a>
</g>
</g>
<!-- Node5 -->
<g id="node16" class="node"><title>Node5</title>
<g id="a_node16"><a xlink:href="group__infra__server.html" target="_top" xlink:title="Server classes. ">
<polygon fill="white" stroke="black" points="266,-228.5 266,-247.5 310,-247.5 310,-228.5 266,-228.5"/>
<text text-anchor="middle" x="288" y="-235.5" font-family="Helvetica,sans-Serif" font-size="10.00">Server</text>
</a>
</g>
</g>
<!-- Node11 -->
<g id="node17" class="node"><title>Node11</title>
<g id="a_node17"><a xlink:href="group__itbp__transport.html" target="_top" xlink:title="Simple inter&#45;thread communications transport. ">
<polygon fill="white" stroke="black" points="255.5,-190.5 255.5,-209.5 320.5,-209.5 320.5,-190.5 255.5,-190.5"/>
<text text-anchor="middle" x="288" y="-197.5" font-family="Helvetica,sans-Serif" font-size="10.00">Inter&#45;thread</text>
</a>
</g>
</g>
<!-- Node8 -->
<g id="node18" class="node"><title>Node8</title>
<g id="a_node18"><a xlink:href="group__dspi__master__transport.html" target="_top" xlink:title="MCUXpressoSDK DSPI master driver transport. ">
<polygon fill="white" stroke="black" points="252,-152.5 252,-171.5 324,-171.5 324,-152.5 252,-152.5"/>
<text text-anchor="middle" x="288" y="-159.5" font-family="Helvetica,sans-Serif" font-size="10.00">DSPI Master</text>
</a>
</g>
</g>
<!-- Node22 -->
<g id="node19" class="node"><title>Node22</title>
<g id="a_node19"><a xlink:href="group___u_s_b___c_d_c__transport.html" target="_top" xlink:title="USB CDC transport. ">
<polygon fill="white" stroke="black" points="258,-114.5 258,-133.5 318,-133.5 318,-114.5 258,-114.5"/>
<text text-anchor="middle" x="288" y="-121.5" font-family="Helvetica,sans-Serif" font-size="10.00">USB CDC</text>
</a>
</g>
</g>
<!-- Node0&#45;&gt;Node9 -->
<g id="edge9" class="edge"><title>Node0&#45;&gt;Node9</title>
<path fill="none" stroke="blueviolet" stroke-dasharray="5,2" d="M146.725,-399.664C150.422,-447.35 168.182,-657.567 198,-715 208.572,-735.363 215.573,-738.793 235,-751 241.266,-754.938 248.468,-758.225 255.474,-760.898"/>
<text text-anchor="middle" x="207.5" y="-741" font-family="Helvetica,sans-Serif" font-size="10.00">erpc</text>
</g>
<!-- Node0&#45;&gt;Node10 -->
<g id="edge10" class="edge"><title>Node0&#45;&gt;Node10</title>
<path fill="none" stroke="blueviolet" stroke-dasharray="5,2" d="M145.69,-399.596C144.874,-437.386 145.653,-578.662 198,-677 208.781,-697.253 215.573,-700.793 235,-713 242.406,-717.653 251.117,-721.399 259.27,-724.295"/>
<text text-anchor="middle" x="207.5" y="-703" font-family="Helvetica,sans-Serif" font-size="10.00">erpc</text>
</g>
<!-- Node0&#45;&gt;Node7 -->
<g id="edge7" class="edge"><title>Node0&#45;&gt;Node7</title>
<path fill="none" stroke="blueviolet" stroke-dasharray="5,2" d="M146.039,-399.729C146.575,-434.499 151.847,-555.015 198,-639 209.05,-659.108 215.573,-662.793 235,-675 243.382,-680.267 253.437,-684.372 262.462,-687.396"/>
<text text-anchor="middle" x="207.5" y="-665" font-family="Helvetica,sans-Serif" font-size="10.00">erpc</text>
</g>
<!-- Node0&#45;&gt;Node12 -->
<g id="edge12" class="edge"><title>Node0&#45;&gt;Node12</title>
<path fill="none" stroke="blueviolet" stroke-dasharray="5,2" d="M146.498,-399.518C148.491,-430.569 157.858,-530.949 198,-601 209.408,-620.907 215.573,-624.793 235,-637 240.941,-640.733 247.722,-643.882 254.381,-646.477"/>
<text text-anchor="middle" x="207.5" y="-627" font-family="Helvetica,sans-Serif" font-size="10.00">erpc</text>
</g>
<!-- Node0&#45;&gt;Node20 -->
<g id="edge20" class="edge"><title>Node0&#45;&gt;Node20</title>
<path fill="none" stroke="blueviolet" stroke-dasharray="5,2" d="M147.228,-399.607C151.043,-426.819 164.507,-506.061 198,-562 209.947,-581.953 215.394,-586.492 235,-599 243.913,-604.686 254.768,-608.994 264.249,-612.058"/>
<text text-anchor="middle" x="207.5" y="-589" font-family="Helvetica,sans-Serif" font-size="10.00">erpc</text>
</g>
<!-- Node0&#45;&gt;Node2 -->
<g id="edge2" class="edge"><title>Node0&#45;&gt;Node2</title>
<path fill="none" stroke="blueviolet" stroke-dasharray="5,2" d="M148.539,-399.779C154.679,-422.361 171.784,-479.386 198,-521 210.908,-541.49 214.841,-547.58 235,-561 244.761,-567.498 257.028,-572.118 267.196,-575.174"/>
<text text-anchor="middle" x="207.5" y="-550" font-family="Helvetica,sans-Serif" font-size="10.00">erpc</text>
</g>
<!-- Node0&#45;&gt;Node3 -->
<g id="edge3" class="edge"><title>Node0&#45;&gt;Node3</title>
<path fill="none" stroke="blueviolet" stroke-dasharray="5,2" d="M149.361,-399.679C158.603,-424.73 186.955,-491.897 235,-523 241.616,-527.283 249.329,-530.772 256.757,-533.535"/>
<text text-anchor="middle" x="207.5" y="-509" font-family="Helvetica,sans-Serif" font-size="10.00">erpc</text>
</g>
<!-- Node0&#45;&gt;Node16 -->
<g id="edge16" class="edge"><title>Node0&#45;&gt;Node16</title>
<path fill="none" stroke="blueviolet" stroke-dasharray="5,2" d="M152.339,-399.708C165.42,-418.96 197.354,-462.088 235,-485 241.897,-489.198 249.866,-492.686 257.462,-495.479"/>
<text text-anchor="middle" x="207.5" y="-473" font-family="Helvetica,sans-Serif" font-size="10.00">erpc</text>
</g>
<!-- Node0&#45;&gt;Node4 -->
<g id="edge4" class="edge"><title>Node0&#45;&gt;Node4</title>
<path fill="none" stroke="blueviolet" stroke-dasharray="5,2" d="M159,-399.707C175.85,-411.956 206.462,-433.1 235,-447 243.987,-451.377 254.254,-455.333 263.278,-458.489"/>
<text text-anchor="middle" x="207.5" y="-439" font-family="Helvetica,sans-Serif" font-size="10.00">erpc</text>
</g>
<!-- Node0&#45;&gt;Node18 -->
<g id="edge18" class="edge"><title>Node0&#45;&gt;Node18</title>
<path fill="none" stroke="blueviolet" stroke-dasharray="5,2" d="M178.415,-399.502C184.893,-401.358 191.656,-403.266 198,-405 218.166,-410.513 240.999,-416.407 258.488,-420.848"/>
<text text-anchor="middle" x="207.5" y="-412" font-family="Helvetica,sans-Serif" font-size="10.00">erpc</text>
</g>
<!-- Node0&#45;&gt;Node21 -->
<g id="edge21" class="edge"><title>Node0&#45;&gt;Node21</title>
<path fill="none" stroke="blueviolet" stroke-dasharray="5,2" d="M180.132,-390C201.241,-390 228.341,-390 249.968,-390"/>
<text text-anchor="middle" x="207.5" y="-393" font-family="Helvetica,sans-Serif" font-size="10.00">erpc</text>
</g>
<!-- Node0&#45;&gt;Node19 -->
<g id="edge19" class="edge"><title>Node0&#45;&gt;Node19</title>
<path fill="none" stroke="blueviolet" stroke-dasharray="5,2" d="M178.415,-380.498C184.893,-378.642 191.656,-376.734 198,-375 214.78,-370.413 233.405,-365.562 249.263,-361.504"/>
<text text-anchor="middle" x="207.5" y="-378" font-family="Helvetica,sans-Serif" font-size="10.00">erpc</text>
</g>
<!-- Node0&#45;&gt;Node17 -->
<g id="edge17" class="edge"><title>Node0&#45;&gt;Node17</title>
<path fill="none" stroke="blueviolet" stroke-dasharray="5,2" d="M159,-380.293C175.85,-368.044 206.462,-346.9 235,-333 242.172,-329.507 250.16,-326.281 257.68,-323.518"/>
<text text-anchor="middle" x="207.5" y="-356" font-family="Helvetica,sans-Serif" font-size="10.00">erpc</text>
</g>
<!-- Node0&#45;&gt;Node15 -->
<g id="edge15" class="edge"><title>Node0&#45;&gt;Node15</title>
<path fill="none" stroke="blueviolet" stroke-dasharray="5,2" d="M152.339,-380.292C165.42,-361.04 197.354,-317.912 235,-295 241.076,-291.302 247.984,-288.155 254.736,-285.548"/>
<text text-anchor="middle" x="207.5" y="-327" font-family="Helvetica,sans-Serif" font-size="10.00">erpc</text>
</g>
<!-- Node0&#45;&gt;Node5 -->
<g id="edge5" class="edge"><title>Node0&#45;&gt;Node5</title>
<path fill="none" stroke="blueviolet" stroke-dasharray="5,2" d="M149.361,-380.321C158.603,-355.27 186.955,-288.103 235,-257 244.359,-250.941 255.914,-246.472 265.752,-243.396"/>
<text text-anchor="middle" x="207.5" y="-292" font-family="Helvetica,sans-Serif" font-size="10.00">erpc</text>
</g>
<!-- Node0&#45;&gt;Node11 -->
<g id="edge11" class="edge"><title>Node0&#45;&gt;Node11</title>
<path fill="none" stroke="blueviolet" stroke-dasharray="5,2" d="M148.539,-380.221C154.679,-357.639 171.784,-300.614 198,-259 210.908,-238.51 214.841,-232.42 235,-219 241.161,-214.899 248.32,-211.546 255.319,-208.862"/>
<text text-anchor="middle" x="207.5" y="-262" font-family="Helvetica,sans-Serif" font-size="10.00">erpc</text>
</g>
<!-- Node0&#45;&gt;Node8 -->
<g id="edge8" class="edge"><title>Node0&#45;&gt;Node8</title>
<path fill="none" stroke="blueviolet" stroke-dasharray="5,2" d="M147.228,-380.393C151.043,-353.181 164.507,-273.939 198,-218 209.947,-198.047 215.394,-193.508 235,-181 240.834,-177.278 247.5,-174.147 254.068,-171.568"/>
<text text-anchor="middle" x="207.5" y="-221" font-family="Helvetica,sans-Serif" font-size="10.00">erpc</text>
</g>
<!-- Node0&#45;&gt;Node22 -->
<g id="edge22" class="edge"><title>Node0&#45;&gt;Node22</title>
<path fill="none" stroke="blueviolet" stroke-dasharray="5,2" d="M146.498,-380.482C148.491,-349.431 157.858,-249.051 198,-179 209.408,-159.093 215.573,-155.207 235,-143 241.999,-138.602 250.164,-135.015 257.922,-132.19"/>
<text text-anchor="middle" x="207.5" y="-182" font-family="Helvetica,sans-Serif" font-size="10.00">erpc</text>
</g>
<!-- Node13 -->
<g id="node21" class="node"><title>Node13</title>
<g id="a_node21"><a xlink:href="group__rpmsg__lite__rtos__transport.html" target="_top" xlink:title="RPMsg&#45;Lite zero copy transport using RTOS API. ">
<polygon fill="white" stroke="black" points="239.5,-76.5 239.5,-95.5 336.5,-95.5 336.5,-76.5 239.5,-76.5"/>
<text text-anchor="middle" x="288" y="-83.5" font-family="Helvetica,sans-Serif" font-size="10.00">RPMsg&#45;Lite RTOS</text>
</a>
</g>
</g>
<!-- Node0&#45;&gt;Node13 -->
<g id="edge13" class="edge"><title>Node0&#45;&gt;Node13</title>
<path fill="none" stroke="blueviolet" stroke-dasharray="5,2" d="M146.039,-380.271C146.575,-345.501 151.847,-224.985 198,-141 209.05,-120.892 215.573,-117.207 235,-105 240.941,-101.267 247.722,-98.118 254.381,-95.5235"/>
<text text-anchor="middle" x="207.5" y="-144" font-family="Helvetica,sans-Serif" font-size="10.00">erpc</text>
</g>
<!-- Node14 -->
<g id="node22" class="node"><title>Node14</title>
<g id="a_node22"><a xlink:href="group__rpmsg__lite__transport.html" target="_top" xlink:title="RPMsg&#45;Lite zero copy transport. ">
<polygon fill="white" stroke="black" points="254,-38.5 254,-57.5 322,-57.5 322,-38.5 254,-38.5"/>
<text text-anchor="middle" x="288" y="-45.5" font-family="Helvetica,sans-Serif" font-size="10.00">RPMsg&#45;Lite</text>
</a>
</g>
</g>
<!-- Node0&#45;&gt;Node14 -->
<g id="edge14" class="edge"><title>Node0&#45;&gt;Node14</title>
<path fill="none" stroke="blueviolet" stroke-dasharray="5,2" d="M145.69,-380.404C144.874,-342.614 145.653,-201.338 198,-103 208.781,-82.7469 215.573,-79.207 235,-67 240.941,-63.267 247.722,-60.118 254.381,-57.5235"/>
<text text-anchor="middle" x="207.5" y="-106" font-family="Helvetica,sans-Serif" font-size="10.00">erpc</text>
</g>
<!-- Node6 -->
<g id="node23" class="node"><title>Node6</title>
<g id="a_node23"><a xlink:href="group__port__setup__extensions.html" target="_top" xlink:title="Extension setup functions. ">
<polygon fill="white" stroke="black" points="243.5,-0.5 243.5,-19.5 332.5,-19.5 332.5,-0.5 243.5,-0.5"/>
<text text-anchor="middle" x="288" y="-7.5" font-family="Helvetica,sans-Serif" font-size="10.00">Extension Setup</text>
</a>
</g>
</g>
<!-- Node0&#45;&gt;Node6 -->
<g id="edge6" class="edge"><title>Node0&#45;&gt;Node6</title>
<path fill="none" stroke="blueviolet" stroke-dasharray="5,2" d="M146.725,-380.336C150.422,-332.65 168.182,-122.433 198,-65 208.572,-44.637 215.573,-41.207 235,-29 240.941,-25.267 247.722,-22.118 254.381,-19.5235"/>
<text text-anchor="middle" x="207.5" y="-68" font-family="Helvetica,sans-Serif" font-size="10.00">erpc</text>
</g>
</g>
</svg>
