<?xml version="1.0" encoding="UTF-8" standalone="no"?>
<!DOCTYPE svg PUBLIC "-//W3C//DTD SVG 1.1//EN"
 "http://www.w3.org/Graphics/SVG/1.1/DTD/svg11.dtd">
<!-- Generated by graphviz version 2.38.0 (20140413.2041)
 -->
<!-- Title: Serialization Pages: 1 -->
<svg width="353pt" height="902pt"
 viewBox="0.00 0.00 353.00 902.00" xmlns="http://www.w3.org/2000/svg" xmlns:xlink="http://www.w3.org/1999/xlink">
<g id="graph0" class="graph" transform="scale(1 1) rotate(0) translate(4 898)">
<title>Serialization</title>
<polygon fill="white" stroke="none" points="-4,4 -4,-898 349,-898 349,4 -4,4"/>
<!-- Node9 -->
<g id="node1" class="node"><title>Node9</title>
<g id="a_node1"><a xlink:href="group__dspi__slave__transport.html" target="_top" xlink:title="MCUXpressoSDK DSPI slave driver transport. ">
<polygon fill="white" stroke="black" points="257.5,-874.5 257.5,-893.5 322.5,-893.5 322.5,-874.5 257.5,-874.5"/>
<text text-anchor="middle" x="290" y="-881.5" font-family="Helvetica,sans-Serif" font-size="10.00">DSPI Slave</text>
</a>
</g>
</g>
<!-- Node10 -->
<g id="node2" class="node"><title>Node10</title>
<g id="a_node2"><a xlink:href="group__i2c__slave__transport.html" target="_top" xlink:title="MCUXpressoSDK I2C slave driver transport. ">
<polygon fill="white" stroke="black" points="261.5,-836.5 261.5,-855.5 318.5,-855.5 318.5,-836.5 261.5,-836.5"/>
<text text-anchor="middle" x="290" y="-843.5" font-family="Helvetica,sans-Serif" font-size="10.00">I2C Slave</text>
</a>
</g>
</g>
<!-- Node7 -->
<g id="node3" class="node"><title>Node7</title>
<g id="a_node3"><a xlink:href="group__port__threads.html" target="_top" xlink:title="Threading model. ">
<polygon fill="white" stroke="black" points="264.5,-798.5 264.5,-817.5 315.5,-817.5 315.5,-798.5 264.5,-798.5"/>
<text text-anchor="middle" x="290" y="-805.5" font-family="Helvetica,sans-Serif" font-size="10.00">Threads</text>
</a>
</g>
</g>
<!-- Node14 -->
<g id="node4" class="node"><title>Node14</title>
<g id="a_node4"><a xlink:href="group__mbox__transport.html" target="_top" xlink:title="Mbox_transport">
<polygon fill="white" stroke="black" points="248,-760.5 248,-779.5 332,-779.5 332,-760.5 248,-760.5"/>
<text text-anchor="middle" x="290" y="-767.5" font-family="Helvetica,sans-Serif" font-size="10.00">Mbox_transport</text>
</a>
</g>
</g>
<!-- Node15 -->
<g id="node5" class="node"><title>Node15</title>
<g id="a_node5"><a xlink:href="group__mu__transport.html" target="_top" xlink:title="Messaging Unit transport. ">
<polygon fill="white" stroke="black" points="248,-722.5 248,-741.5 332,-741.5 332,-722.5 248,-722.5"/>
<text text-anchor="middle" x="290" y="-729.5" font-family="Helvetica,sans-Serif" font-size="10.00">Messaging Unit</text>
</a>
</g>
</g>
<!-- Node23 -->
<g id="node6" class="node"><title>Node23</title>
<g id="a_node6"><a xlink:href="group__tcp__transport.html" target="_top" xlink:title="Simple TCP/IP transport. ">
<polygon fill="white" stroke="black" points="266.5,-684.5 266.5,-703.5 313.5,-703.5 313.5,-684.5 266.5,-684.5"/>
<text text-anchor="middle" x="290" y="-691.5" font-family="Helvetica,sans-Serif" font-size="10.00">TCP/IP</text>
</a>
</g>
</g>
<!-- Node1 -->
<g id="node7" class="node"><title>Node1</title>
<g id="a_node7"><a xlink:href="group__infra.html" target="_top" xlink:title="C++ core. ">
<polygon fill="white" stroke="black" points="0,-437.5 0,-456.5 73,-456.5 73,-437.5 0,-437.5"/>
<text text-anchor="middle" x="36.5" y="-444.5" font-family="Helvetica,sans-Serif" font-size="10.00">Infrastructure</text>
</a>
</g>
</g>
<!-- Node0 -->
<g id="node22" class="node"><title>Node0</title>
<polygon fill="#bfbfbf" stroke="black" points="110,-437.5 110,-456.5 180,-456.5 180,-437.5 110,-437.5"/>
<text text-anchor="middle" x="145" y="-444.5" font-family="Helvetica,sans-Serif" font-size="10.00">Serialization</text>
</g>
<!-- Node1&#45;&gt;Node0 -->
<g id="edge1" class="edge"><title>Node1&#45;&gt;Node0</title>
<path fill="none" stroke="black" d="M83.5,-447C92.3827,-447 101.54,-447 109.957,-447"/>
<polygon fill="black" stroke="black" points="83.2593,-443.5 73.2592,-447 83.2592,-450.5 83.2593,-443.5"/>
</g>
<!-- Node2 -->
<g id="node8" class="node"><title>Node2</title>
<g id="a_node8"><a xlink:href="group__infra__client.html" target="_top" xlink:title="Client classes. ">
<polygon fill="white" stroke="black" points="269.5,-646.5 269.5,-665.5 310.5,-665.5 310.5,-646.5 269.5,-646.5"/>
<text text-anchor="middle" x="290" y="-653.5" font-family="Helvetica,sans-Serif" font-size="10.00">Client</text>
</a>
</g>
</g>
<!-- Node3 -->
<g id="node9" class="node"><title>Node3</title>
<g id="a_node9"><a xlink:href="group__infra__transport.html" target="_top" xlink:title="Superclasses for building transports. ">
<polygon fill="white" stroke="black" points="259,-608.5 259,-627.5 321,-627.5 321,-608.5 259,-608.5"/>
<text text-anchor="middle" x="290" y="-615.5" font-family="Helvetica,sans-Serif" font-size="10.00">Transports</text>
</a>
</g>
</g>
<!-- Node19 -->
<g id="node10" class="node"><title>Node19</title>
<g id="a_node10"><a xlink:href="group__serial__transport.html" target="_top" xlink:title="POSIX and Win32 serial port transport. ">
<polygon fill="white" stroke="black" points="259.5,-570.5 259.5,-589.5 320.5,-589.5 320.5,-570.5 259.5,-570.5"/>
<text text-anchor="middle" x="290" y="-577.5" font-family="Helvetica,sans-Serif" font-size="10.00">Serial port</text>
</a>
</g>
</g>
<!-- Node4 -->
<g id="node11" class="node"><title>Node4</title>
<g id="a_node11"><a xlink:href="group__infra__utility.html" target="_top" xlink:title="Utility code used by the infrastructure. ">
<polygon fill="white" stroke="black" points="265.5,-532.5 265.5,-551.5 314.5,-551.5 314.5,-532.5 265.5,-532.5"/>
<text text-anchor="middle" x="290" y="-539.5" font-family="Helvetica,sans-Serif" font-size="10.00">Utilities</text>
</a>
</g>
</g>
<!-- Node21 -->
<g id="node12" class="node"><title>Node21</title>
<g id="a_node12"><a xlink:href="group__spi__slave__transport.html" target="_top" xlink:title="MCUXpressoSDK SPI slave driver transport. ">
<polygon fill="white" stroke="black" points="260.5,-494.5 260.5,-513.5 319.5,-513.5 319.5,-494.5 260.5,-494.5"/>
<text text-anchor="middle" x="290" y="-501.5" font-family="Helvetica,sans-Serif" font-size="10.00">SPI Slave</text>
</a>
</g>
</g>
<!-- Node24 -->
<g id="node13" class="node"><title>Node24</title>
<g id="a_node13"><a xlink:href="group__uart__transport.html" target="_top" xlink:title="CMSIS UART driver transport. ">
<polygon fill="white" stroke="black" points="252,-456.5 252,-475.5 328,-475.5 328,-456.5 252,-456.5"/>
<text text-anchor="middle" x="290" y="-463.5" font-family="Helvetica,sans-Serif" font-size="10.00">CMSIS UART</text>
</a>
</g>
</g>
<!-- Node22 -->
<g id="node14" class="node"><title>Node22</title>
<g id="a_node14"><a xlink:href="group__spidev__master__transport.html" target="_top" xlink:title="SPIdev Linux transport. ">
<polygon fill="white" stroke="black" points="237,-418.5 237,-437.5 343,-437.5 343,-418.5 237,-418.5"/>
<text text-anchor="middle" x="290" y="-425.5" font-family="Helvetica,sans-Serif" font-size="10.00">SPIdev Linux Master</text>
</a>
</g>
</g>
<!-- Node20 -->
<g id="node15" class="node"><title>Node20</title>
<g id="a_node15"><a xlink:href="group__spi__master__transport.html" target="_top" xlink:title="MCUXpressoSDK SPI master driver transport. ">
<polygon fill="white" stroke="black" points="257.5,-380.5 257.5,-399.5 322.5,-399.5 322.5,-380.5 257.5,-380.5"/>
<text text-anchor="middle" x="290" y="-387.5" font-family="Helvetica,sans-Serif" font-size="10.00">SPI Master</text>
</a>
</g>
</g>
<!-- Node18 -->
<g id="node16" class="node"><title>Node18</title>
<g id="a_node16"><a xlink:href="group__rpmsg__tty__rtos__transport.html" target="_top" xlink:title="RPMsg TTY RTOS transport. ">
<polygon fill="white" stroke="black" points="241,-342.5 241,-361.5 339,-361.5 339,-342.5 241,-342.5"/>
<text text-anchor="middle" x="290" y="-349.5" font-family="Helvetica,sans-Serif" font-size="10.00">RPMsg TTY RTOS</text>
</a>
</g>
</g>
<!-- Node5 -->
<g id="node17" class="node"><title>Node5</title>
<g id="a_node17"><a xlink:href="group__infra__server.html" target="_top" xlink:title="Server classes. ">
<polygon fill="white" stroke="black" points="268,-304.5 268,-323.5 312,-323.5 312,-304.5 268,-304.5"/>
<text text-anchor="middle" x="290" y="-311.5" font-family="Helvetica,sans-Serif" font-size="10.00">Server</text>
</a>
</g>
</g>
<!-- Node12 -->
<g id="node18" class="node"><title>Node12</title>
<g id="a_node18"><a xlink:href="group__lpi2c__slave__transport.html" target="_top" xlink:title="Lpi2c_slave_transport">
<polygon fill="white" stroke="black" points="235,-266.5 235,-285.5 345,-285.5 345,-266.5 235,-266.5"/>
<text text-anchor="middle" x="290" y="-273.5" font-family="Helvetica,sans-Serif" font-size="10.00">Lpi2c_slave_transport</text>
</a>
</g>
</g>
<!-- Node11 -->
<g id="node19" class="node"><title>Node11</title>
<g id="a_node19"><a xlink:href="group__itbp__transport.html" target="_top" xlink:title="Simple inter&#45;thread communications transport. ">
<polygon fill="white" stroke="black" points="257.5,-228.5 257.5,-247.5 322.5,-247.5 322.5,-228.5 257.5,-228.5"/>
<text text-anchor="middle" x="290" y="-235.5" font-family="Helvetica,sans-Serif" font-size="10.00">Inter&#45;thread</text>
</a>
</g>
</g>
<!-- Node8 -->
<g id="node20" class="node"><title>Node8</title>
<g id="a_node20"><a xlink:href="group__dspi__master__transport.html" target="_top" xlink:title="MCUXpressoSDK DSPI master driver transport. ">
<polygon fill="white" stroke="black" points="254,-190.5 254,-209.5 326,-209.5 326,-190.5 254,-190.5"/>
<text text-anchor="middle" x="290" y="-197.5" font-family="Helvetica,sans-Serif" font-size="10.00">DSPI Master</text>
</a>
</g>
</g>
<!-- Node25 -->
<g id="node21" class="node"><title>Node25</title>
<g id="a_node21"><a xlink:href="group___u_s_b___c_d_c__transport.html" target="_top" xlink:title="USB CDC transport. ">
<polygon fill="white" stroke="black" points="260,-152.5 260,-171.5 320,-171.5 320,-152.5 260,-152.5"/>
<text text-anchor="middle" x="290" y="-159.5" font-family="Helvetica,sans-Serif" font-size="10.00">USB CDC</text>
</a>
</g>
</g>
<!-- Node0&#45;&gt;Node9 -->
<g id="edge9" class="edge"><title>Node0&#45;&gt;Node9</title>
<path fill="none" stroke="blueviolet" stroke-dasharray="5,2" d="M146.461,-456.568C149.11,-508.896 163.484,-760.577 198,-829 208.334,-849.485 215.5,-852.91 235,-865 241.842,-869.242 249.76,-872.702 257.389,-875.45"/>
<text text-anchor="middle" x="207.5" y="-856" font-family="Helvetica,sans-Serif" font-size="10.00">erpc</text>
</g>
<!-- Node0&#45;&gt;Node10 -->
<g id="edge10" class="edge"><title>Node0&#45;&gt;Node10</title>
<path fill="none" stroke="blueviolet" stroke-dasharray="5,2" d="M146.623,-456.569C149.943,-505.723 166.605,-729.887 198,-791 208.484,-811.408 215.5,-814.91 235,-827 243.024,-831.975 252.529,-835.874 261.311,-838.811"/>
<text text-anchor="middle" x="207.5" y="-817" font-family="Helvetica,sans-Serif" font-size="10.00">erpc</text>
</g>
<!-- Node0&#45;&gt;Node7 -->
<g id="edge7" class="edge"><title>Node0&#45;&gt;Node7</title>
<path fill="none" stroke="blueviolet" stroke-dasharray="5,2" d="M145.544,-456.683C144.103,-496.124 142.615,-647.573 198,-753 208.67,-773.312 215.5,-776.91 235,-789 243.953,-794.551 254.75,-798.763 264.329,-801.793"/>
<text text-anchor="middle" x="207.5" y="-779" font-family="Helvetica,sans-Serif" font-size="10.00">erpc</text>
</g>
<!-- Node0&#45;&gt;Node14 -->
<g id="edge14" class="edge"><title>Node0&#45;&gt;Node14</title>
<path fill="none" stroke="blueviolet" stroke-dasharray="5,2" d="M145.851,-456.953C145.711,-493.671 148.885,-624.098 198,-715 208.907,-735.186 215.5,-738.91 235,-751 240.997,-754.718 247.821,-757.836 254.553,-760.399"/>
<text text-anchor="middle" x="207.5" y="-741" font-family="Helvetica,sans-Serif" font-size="10.00">erpc</text>
</g>
<!-- Node0&#45;&gt;Node15 -->
<g id="edge15" class="edge"><title>Node0&#45;&gt;Node15</title>
<path fill="none" stroke="blueviolet" stroke-dasharray="5,2" d="M146.264,-456.9C147.541,-490.177 154.976,-600.214 198,-677 209.215,-697.016 215.5,-700.91 235,-713 240.997,-716.718 247.821,-719.836 254.553,-722.399"/>
<text text-anchor="middle" x="207.5" y="-703" font-family="Helvetica,sans-Serif" font-size="10.00">erpc</text>
</g>
<!-- Node0&#45;&gt;Node23 -->
<g id="edge23" class="edge"><title>Node0&#45;&gt;Node23</title>
<path fill="none" stroke="blueviolet" stroke-dasharray="5,2" d="M146.883,-456.816C149.884,-486.195 161.617,-575.274 198,-638 209.668,-658.117 215.319,-662.61 235,-675 244.588,-681.036 256.345,-685.464 266.438,-688.519"/>
<text text-anchor="middle" x="207.5" y="-665" font-family="Helvetica,sans-Serif" font-size="10.00">erpc</text>
</g>
<!-- Node0&#45;&gt;Node2 -->
<g id="edge2" class="edge"><title>Node0&#45;&gt;Node2</title>
<path fill="none" stroke="blueviolet" stroke-dasharray="5,2" d="M147.682,-456.614C152.404,-481.76 167.472,-550.928 198,-600 210.284,-619.747 215.319,-624.61 235,-637 245.513,-643.618 258.634,-648.304 269.31,-651.365"/>
<text text-anchor="middle" x="207.5" y="-626" font-family="Helvetica,sans-Serif" font-size="10.00">erpc</text>
</g>
<!-- Node0&#45;&gt;Node3 -->
<g id="edge3" class="edge"><title>Node0&#45;&gt;Node3</title>
<path fill="none" stroke="blueviolet" stroke-dasharray="5,2" d="M148.998,-456.539C155.712,-477.037 173.323,-526.317 198,-562 211.228,-581.128 215.319,-586.61 235,-599 242.233,-603.554 250.7,-607.192 258.757,-610.016"/>
<text text-anchor="middle" x="207.5" y="-588" font-family="Helvetica,sans-Serif" font-size="10.00">erpc</text>
</g>
<!-- Node0&#45;&gt;Node19 -->
<g id="edge19" class="edge"><title>Node0&#45;&gt;Node19</title>
<path fill="none" stroke="blueviolet" stroke-dasharray="5,2" d="M150.455,-456.51C161.401,-478.746 191.893,-534.273 235,-561 242.433,-565.609 251.137,-569.294 259.359,-572.146"/>
<text text-anchor="middle" x="207.5" y="-550" font-family="Helvetica,sans-Serif" font-size="10.00">erpc</text>
</g>
<!-- Node0&#45;&gt;Node4 -->
<g id="edge4" class="edge"><title>Node0&#45;&gt;Node4</title>
<path fill="none" stroke="blueviolet" stroke-dasharray="5,2" d="M154.958,-456.743C170.06,-472.649 202.163,-504.292 235,-523 244.412,-528.362 255.599,-532.603 265.343,-535.705"/>
<text text-anchor="middle" x="207.5" y="-513" font-family="Helvetica,sans-Serif" font-size="10.00">erpc</text>
</g>
<!-- Node0&#45;&gt;Node21 -->
<g id="edge21" class="edge"><title>Node0&#45;&gt;Node21</title>
<path fill="none" stroke="blueviolet" stroke-dasharray="5,2" d="M167.187,-456.551C176.595,-460.745 187.82,-465.686 198,-470 214.338,-476.923 218.404,-478.72 235,-485 243.459,-488.201 252.727,-491.527 261.161,-494.484"/>
<text text-anchor="middle" x="207.5" y="-480" font-family="Helvetica,sans-Serif" font-size="10.00">erpc</text>
</g>
<!-- Node0&#45;&gt;Node24 -->
<g id="edge24" class="edge"><title>Node0&#45;&gt;Node24</title>
<path fill="none" stroke="blueviolet" stroke-dasharray="5,2" d="M180.252,-451.551C201.818,-454.416 229.656,-458.115 251.768,-461.053"/>
<text text-anchor="middle" x="207.5" y="-458" font-family="Helvetica,sans-Serif" font-size="10.00">erpc</text>
</g>
<!-- Node0&#45;&gt;Node22 -->
<g id="edge22" class="edge"><title>Node0&#45;&gt;Node22</title>
<path fill="none" stroke="blueviolet" stroke-dasharray="5,2" d="M177.119,-437.493C183.942,-435.727 191.169,-434.095 198,-433 210.498,-430.997 224.072,-429.757 236.828,-429"/>
<text text-anchor="middle" x="207.5" y="-436" font-family="Helvetica,sans-Serif" font-size="10.00">erpc</text>
</g>
<!-- Node0&#45;&gt;Node20 -->
<g id="edge20" class="edge"><title>Node0&#45;&gt;Node20</title>
<path fill="none" stroke="blueviolet" stroke-dasharray="5,2" d="M160.035,-437.269C170.208,-430.561 184.493,-421.838 198,-416 217.004,-407.787 239.345,-401.36 257.136,-396.951"/>
<text text-anchor="middle" x="207.5" y="-419" font-family="Helvetica,sans-Serif" font-size="10.00">erpc</text>
</g>
<!-- Node0&#45;&gt;Node18 -->
<g id="edge18" class="edge"><title>Node0&#45;&gt;Node18</title>
<path fill="none" stroke="blueviolet" stroke-dasharray="5,2" d="M154.654,-437.182C164.552,-426.239 181.526,-408.333 198,-395 213.236,-382.669 217.409,-379.647 235,-371 242.224,-367.449 250.283,-364.243 257.925,-361.519"/>
<text text-anchor="middle" x="207.5" y="-398" font-family="Helvetica,sans-Serif" font-size="10.00">erpc</text>
</g>
<!-- Node0&#45;&gt;Node5 -->
<g id="edge5" class="edge"><title>Node0&#45;&gt;Node5</title>
<path fill="none" stroke="blueviolet" stroke-dasharray="5,2" d="M150.379,-437.365C161.161,-414.857 191.324,-358.786 235,-333 245.184,-326.987 257.569,-322.459 267.907,-319.334"/>
<text text-anchor="middle" x="207.5" y="-367" font-family="Helvetica,sans-Serif" font-size="10.00">erpc</text>
</g>
<!-- Node0&#45;&gt;Node12 -->
<g id="edge12" class="edge"><title>Node0&#45;&gt;Node12</title>
<path fill="none" stroke="blueviolet" stroke-dasharray="5,2" d="M148.998,-437.461C155.712,-416.963 173.323,-367.683 198,-332 211.228,-312.872 215.319,-307.39 235,-295 240.971,-291.241 247.784,-288.105 254.512,-285.537"/>
<text text-anchor="middle" x="207.5" y="-335" font-family="Helvetica,sans-Serif" font-size="10.00">erpc</text>
</g>
<!-- Node0&#45;&gt;Node11 -->
<g id="edge11" class="edge"><title>Node0&#45;&gt;Node11</title>
<path fill="none" stroke="blueviolet" stroke-dasharray="5,2" d="M147.682,-437.386C152.404,-412.24 167.472,-343.072 198,-294 210.284,-274.253 215.319,-269.39 235,-257 241.813,-252.711 249.72,-249.234 257.348,-246.485"/>
<text text-anchor="middle" x="207.5" y="-297" font-family="Helvetica,sans-Serif" font-size="10.00">erpc</text>
</g>
<!-- Node0&#45;&gt;Node8 -->
<g id="edge8" class="edge"><title>Node0&#45;&gt;Node8</title>
<path fill="none" stroke="blueviolet" stroke-dasharray="5,2" d="M146.883,-437.184C149.884,-407.805 161.617,-318.726 198,-256 209.668,-235.883 215.319,-231.39 235,-219 240.971,-215.241 247.784,-212.105 254.512,-209.537"/>
<text text-anchor="middle" x="207.5" y="-259" font-family="Helvetica,sans-Serif" font-size="10.00">erpc</text>
</g>
<!-- Node0&#45;&gt;Node25 -->
<g id="edge25" class="edge"><title>Node0&#45;&gt;Node25</title>
<path fill="none" stroke="blueviolet" stroke-dasharray="5,2" d="M146.264,-437.1C147.541,-403.823 154.976,-293.786 198,-217 209.215,-196.984 215.5,-193.09 235,-181 242.602,-176.287 251.533,-172.539 259.919,-169.661"/>
<text text-anchor="middle" x="207.5" y="-220" font-family="Helvetica,sans-Serif" font-size="10.00">erpc</text>
</g>
<!-- Node16 -->
<g id="node23" class="node"><title>Node16</title>
<g id="a_node23"><a xlink:href="group__rpmsg__lite__rtos__transport.html" target="_top" xlink:title="RPMsg&#45;Lite zero copy transport using RTOS API. ">
<polygon fill="white" stroke="black" points="241.5,-114.5 241.5,-133.5 338.5,-133.5 338.5,-114.5 241.5,-114.5"/>
<text text-anchor="middle" x="290" y="-121.5" font-family="Helvetica,sans-Serif" font-size="10.00">RPMsg&#45;Lite RTOS</text>
</a>
</g>
</g>
<!-- Node0&#45;&gt;Node16 -->
<g id="edge16" class="edge"><title>Node0&#45;&gt;Node16</title>
<path fill="none" stroke="blueviolet" stroke-dasharray="5,2" d="M145.851,-437.047C145.711,-400.329 148.885,-269.902 198,-179 208.907,-158.814 215.5,-155.09 235,-143 240.997,-139.282 247.821,-136.164 254.553,-133.601"/>
<text text-anchor="middle" x="207.5" y="-182" font-family="Helvetica,sans-Serif" font-size="10.00">erpc</text>
</g>
<!-- Node17 -->
<g id="node24" class="node"><title>Node17</title>
<g id="a_node24"><a xlink:href="group__rpmsg__lite__transport.html" target="_top" xlink:title="RPMsg&#45;Lite zero copy transport. ">
<polygon fill="white" stroke="black" points="256,-76.5 256,-95.5 324,-95.5 324,-76.5 256,-76.5"/>
<text text-anchor="middle" x="290" y="-83.5" font-family="Helvetica,sans-Serif" font-size="10.00">RPMsg&#45;Lite</text>
</a>
</g>
</g>
<!-- Node0&#45;&gt;Node17 -->
<g id="edge17" class="edge"><title>Node0&#45;&gt;Node17</title>
<path fill="none" stroke="blueviolet" stroke-dasharray="5,2" d="M145.544,-437.317C144.103,-397.876 142.615,-246.427 198,-141 208.67,-120.688 215.5,-117.09 235,-105 241.419,-101.02 248.787,-97.7283 255.973,-95.0674"/>
<text text-anchor="middle" x="207.5" y="-144" font-family="Helvetica,sans-Serif" font-size="10.00">erpc</text>
</g>
<!-- Node6 -->
<g id="node25" class="node"><title>Node6</title>
<g id="a_node25"><a xlink:href="group__port__setup__extensions.html" target="_top" xlink:title="Extension setup functions. ">
<polygon fill="white" stroke="black" points="245.5,-38.5 245.5,-57.5 334.5,-57.5 334.5,-38.5 245.5,-38.5"/>
<text text-anchor="middle" x="290" y="-45.5" font-family="Helvetica,sans-Serif" font-size="10.00">Extension Setup</text>
</a>
</g>
</g>
<!-- Node0&#45;&gt;Node6 -->
<g id="edge6" class="edge"><title>Node0&#45;&gt;Node6</title>
<path fill="none" stroke="blueviolet" stroke-dasharray="5,2" d="M146.623,-437.431C149.943,-388.277 166.605,-164.113 198,-103 208.484,-82.5916 215.5,-79.0903 235,-67 240.997,-63.2817 247.821,-60.1644 254.553,-57.6008"/>
<text text-anchor="middle" x="207.5" y="-106" font-family="Helvetica,sans-Serif" font-size="10.00">erpc</text>
</g>
<!-- Node13 -->
<g id="node26" class="node"><title>Node13</title>
<g id="a_node26"><a xlink:href="group__lpspi__slave__transport.html" target="_top" xlink:title="Lpspi_slave_transport">
<polygon fill="white" stroke="black" points="235,-0.5 235,-19.5 345,-19.5 345,-0.5 235,-0.5"/>
<text text-anchor="middle" x="290" y="-7.5" font-family="Helvetica,sans-Serif" font-size="10.00">Lpspi_slave_transport</text>
</a>
</g>
</g>
<!-- Node0&#45;&gt;Node13 -->
<g id="edge13" class="edge"><title>Node0&#45;&gt;Node13</title>
<path fill="none" stroke="blueviolet" stroke-dasharray="5,2" d="M146.461,-437.432C149.11,-385.104 163.484,-133.423 198,-65 208.334,-44.5149 215.5,-41.0903 235,-29 240.997,-25.2817 247.821,-22.1644 254.553,-19.6008"/>
<text text-anchor="middle" x="207.5" y="-68" font-family="Helvetica,sans-Serif" font-size="10.00">erpc</text>
</g>
</g>
</svg>
