<?xml version="1.0" encoding="UTF-8" standalone="no"?>
<!DOCTYPE svg PUBLIC "-//W3C//DTD SVG 1.1//EN"
 "http://www.w3.org/Graphics/SVG/1.1/DTD/svg11.dtd">
<!-- Generated by graphviz version 2.38.0 (20140413.2041)
 -->
<!-- Title: Threads Pages: 1 -->
<svg width="308pt" height="902pt"
 viewBox="0.00 0.00 308.00 902.00" xmlns="http://www.w3.org/2000/svg" xmlns:xlink="http://www.w3.org/1999/xlink">
<g id="graph0" class="graph" transform="scale(1 1) rotate(0) translate(4 898)">
<title>Threads</title>
<polygon fill="white" stroke="none" points="-4,4 -4,-898 304,-898 304,4 -4,4"/>
<!-- Node9 -->
<g id="node1" class="node"><title>Node9</title>
<g id="a_node1"><a xlink:href="group__dspi__slave__transport.html" target="_top" xlink:title="MCUXpressoSDK DSPI slave driver transport. ">
<polygon fill="white" stroke="black" points="212.5,-874.5 212.5,-893.5 277.5,-893.5 277.5,-874.5 212.5,-874.5"/>
<text text-anchor="middle" x="245" y="-881.5" font-family="Helvetica,sans-Serif" font-size="10.00">DSPI Slave</text>
</a>
</g>
</g>
<!-- Node10 -->
<g id="node2" class="node"><title>Node10</title>
<g id="a_node2"><a xlink:href="group__i2c__slave__transport.html" target="_top" xlink:title="MCUXpressoSDK I2C slave driver transport. ">
<polygon fill="white" stroke="black" points="216.5,-836.5 216.5,-855.5 273.5,-855.5 273.5,-836.5 216.5,-836.5"/>
<text text-anchor="middle" x="245" y="-843.5" font-family="Helvetica,sans-Serif" font-size="10.00">I2C Slave</text>
</a>
</g>
</g>
<!-- Node0 -->
<g id="node3" class="node"><title>Node0</title>
<polygon fill="#bfbfbf" stroke="black" points="84,-437.5 84,-456.5 135,-456.5 135,-437.5 84,-437.5"/>
<text text-anchor="middle" x="109.5" y="-444.5" font-family="Helvetica,sans-Serif" font-size="10.00">Threads</text>
</g>
<!-- Node0&#45;&gt;Node9 -->
<g id="edge9" class="edge"><title>Node0&#45;&gt;Node9</title>
<path fill="none" stroke="blueviolet" stroke-dasharray="5,2" d="M110.679,-456.594C111.792,-509.063 118.866,-761.423 153,-830 164.542,-853.189 190.976,-867.215 212.395,-875.138"/>
<text text-anchor="middle" x="162.5" y="-854" font-family="Helvetica,sans-Serif" font-size="10.00">erpc</text>
</g>
<!-- Node0&#45;&gt;Node10 -->
<g id="edge10" class="edge"><title>Node0&#45;&gt;Node10</title>
<path fill="none" stroke="blueviolet" stroke-dasharray="5,2" d="M110.812,-456.598C112.543,-505.899 122.041,-730.731 153,-792 163.209,-812.203 170.678,-815.207 190,-827 198.059,-831.919 207.573,-835.803 216.353,-838.744"/>
<text text-anchor="middle" x="162.5" y="-818" font-family="Helvetica,sans-Serif" font-size="10.00">erpc</text>
</g>
<!-- Node14 -->
<g id="node4" class="node"><title>Node14</title>
<g id="a_node4"><a xlink:href="group__mbox__transport.html" target="_top" xlink:title="Mbox_transport">
<polygon fill="white" stroke="black" points="203,-798.5 203,-817.5 287,-817.5 287,-798.5 203,-798.5"/>
<text text-anchor="middle" x="245" y="-805.5" font-family="Helvetica,sans-Serif" font-size="10.00">Mbox_transport</text>
</a>
</g>
</g>
<!-- Node0&#45;&gt;Node14 -->
<g id="edge14" class="edge"><title>Node0&#45;&gt;Node14</title>
<path fill="none" stroke="blueviolet" stroke-dasharray="5,2" d="M111.003,-456.698C113.516,-502.714 125.691,-699.044 153,-753 163.361,-773.471 170.5,-776.91 190,-789 195.997,-792.718 202.821,-795.836 209.553,-798.399"/>
<text text-anchor="middle" x="162.5" y="-780" font-family="Helvetica,sans-Serif" font-size="10.00">erpc</text>
</g>
<!-- Node15 -->
<g id="node5" class="node"><title>Node15</title>
<g id="a_node5"><a xlink:href="group__mu__transport.html" target="_top" xlink:title="Messaging Unit transport. ">
<polygon fill="white" stroke="black" points="203,-760.5 203,-779.5 287,-779.5 287,-760.5 203,-760.5"/>
<text text-anchor="middle" x="245" y="-767.5" font-family="Helvetica,sans-Serif" font-size="10.00">Messaging Unit</text>
</a>
</g>
</g>
<!-- Node0&#45;&gt;Node15 -->
<g id="edge15" class="edge"><title>Node0&#45;&gt;Node15</title>
<path fill="none" stroke="blueviolet" stroke-dasharray="5,2" d="M111.21,-456.602C114.455,-498.86 128.775,-668.261 153,-715 163.558,-735.37 170.5,-738.91 190,-751 195.997,-754.718 202.821,-757.836 209.553,-760.399"/>
<text text-anchor="middle" x="162.5" y="-741" font-family="Helvetica,sans-Serif" font-size="10.00">erpc</text>
</g>
<!-- Node23 -->
<g id="node6" class="node"><title>Node23</title>
<g id="a_node6"><a xlink:href="group__tcp__transport.html" target="_top" xlink:title="Simple TCP/IP transport. ">
<polygon fill="white" stroke="black" points="221.5,-722.5 221.5,-741.5 268.5,-741.5 268.5,-722.5 221.5,-722.5"/>
<text text-anchor="middle" x="245" y="-729.5" font-family="Helvetica,sans-Serif" font-size="10.00">TCP/IP</text>
</a>
</g>
</g>
<!-- Node0&#45;&gt;Node23 -->
<g id="edge23" class="edge"><title>Node0&#45;&gt;Node23</title>
<path fill="none" stroke="blueviolet" stroke-dasharray="5,2" d="M110.254,-456.884C109.84,-490.11 111.842,-600.006 153,-677 163.816,-697.234 170.5,-700.91 190,-713 199.629,-718.97 211.391,-723.391 221.476,-726.458"/>
<text text-anchor="middle" x="162.5" y="-703" font-family="Helvetica,sans-Serif" font-size="10.00">erpc</text>
</g>
<!-- Node2 -->
<g id="node7" class="node"><title>Node2</title>
<g id="a_node7"><a xlink:href="group__infra__client.html" target="_top" xlink:title="Client classes. ">
<polygon fill="white" stroke="black" points="224.5,-684.5 224.5,-703.5 265.5,-703.5 265.5,-684.5 224.5,-684.5"/>
<text text-anchor="middle" x="245" y="-691.5" font-family="Helvetica,sans-Serif" font-size="10.00">Client</text>
</a>
</g>
</g>
<!-- Node0&#45;&gt;Node2 -->
<g id="edge2" class="edge"><title>Node0&#45;&gt;Node2</title>
<path fill="none" stroke="blueviolet" stroke-dasharray="5,2" d="M110.727,-456.879C111.799,-486.446 117.93,-576.077 153,-639 164.17,-659.041 170.5,-662.91 190,-675 200.558,-681.546 213.68,-686.23 224.345,-689.309"/>
<text text-anchor="middle" x="162.5" y="-665" font-family="Helvetica,sans-Serif" font-size="10.00">erpc</text>
</g>
<!-- Node4 -->
<g id="node8" class="node"><title>Node4</title>
<g id="a_node8"><a xlink:href="group__infra__transport.html" target="_top" xlink:title="Superclasses for building transports. ">
<polygon fill="white" stroke="black" points="214,-646.5 214,-665.5 276,-665.5 276,-646.5 214,-646.5"/>
<text text-anchor="middle" x="245" y="-653.5" font-family="Helvetica,sans-Serif" font-size="10.00">Transports</text>
</a>
</g>
</g>
<!-- Node0&#45;&gt;Node4 -->
<g id="edge4" class="edge"><title>Node0&#45;&gt;Node4</title>
<path fill="none" stroke="blueviolet" stroke-dasharray="5,2" d="M111.455,-456.616C114.301,-481.768 124.38,-550.948 153,-600 164.72,-620.087 170.319,-624.61 190,-637 197.233,-641.554 205.7,-645.192 213.757,-648.016"/>
<text text-anchor="middle" x="162.5" y="-627" font-family="Helvetica,sans-Serif" font-size="10.00">erpc</text>
</g>
<!-- Node19 -->
<g id="node9" class="node"><title>Node19</title>
<g id="a_node9"><a xlink:href="group__serial__transport.html" target="_top" xlink:title="POSIX and Win32 serial port transport. ">
<polygon fill="white" stroke="black" points="214.5,-608.5 214.5,-627.5 275.5,-627.5 275.5,-608.5 214.5,-608.5"/>
<text text-anchor="middle" x="245" y="-615.5" font-family="Helvetica,sans-Serif" font-size="10.00">Serial port</text>
</a>
</g>
</g>
<!-- Node0&#45;&gt;Node19 -->
<g id="edge19" class="edge"><title>Node0&#45;&gt;Node19</title>
<path fill="none" stroke="blueviolet" stroke-dasharray="5,2" d="M112.794,-456.555C117.888,-476.621 131.426,-524.17 153,-559 165.752,-579.588 169.761,-585.701 190,-599 197.392,-603.857 206.171,-607.634 214.479,-610.494"/>
<text text-anchor="middle" x="162.5" y="-588" font-family="Helvetica,sans-Serif" font-size="10.00">erpc</text>
</g>
<!-- Node5 -->
<g id="node10" class="node"><title>Node5</title>
<g id="a_node10"><a xlink:href="group__infra__utility.html" target="_top" xlink:title="Utility code used by the infrastructure. ">
<polygon fill="white" stroke="black" points="220.5,-570.5 220.5,-589.5 269.5,-589.5 269.5,-570.5 220.5,-570.5"/>
<text text-anchor="middle" x="245" y="-577.5" font-family="Helvetica,sans-Serif" font-size="10.00">Utilities</text>
</a>
</g>
</g>
<!-- Node0&#45;&gt;Node5 -->
<g id="edge5" class="edge"><title>Node0&#45;&gt;Node5</title>
<path fill="none" stroke="blueviolet" stroke-dasharray="5,2" d="M114.114,-456.611C123.1,-479.066 148.753,-535.033 190,-561 199.252,-566.824 210.523,-571.151 220.37,-574.192"/>
<text text-anchor="middle" x="162.5" y="-547" font-family="Helvetica,sans-Serif" font-size="10.00">erpc</text>
</g>
<!-- Node21 -->
<g id="node11" class="node"><title>Node21</title>
<g id="a_node11"><a xlink:href="group__spi__slave__transport.html" target="_top" xlink:title="MCUXpressoSDK SPI slave driver transport. ">
<polygon fill="white" stroke="black" points="215.5,-532.5 215.5,-551.5 274.5,-551.5 274.5,-532.5 215.5,-532.5"/>
<text text-anchor="middle" x="245" y="-539.5" font-family="Helvetica,sans-Serif" font-size="10.00">SPI Slave</text>
</a>
</g>
</g>
<!-- Node0&#45;&gt;Node21 -->
<g id="edge21" class="edge"><title>Node0&#45;&gt;Node21</title>
<path fill="none" stroke="blueviolet" stroke-dasharray="5,2" d="M117.951,-456.735C130.856,-472.919 158.975,-505.325 190,-523 197.858,-527.477 206.953,-531.172 215.412,-534.075"/>
<text text-anchor="middle" x="162.5" y="-512" font-family="Helvetica,sans-Serif" font-size="10.00">erpc</text>
</g>
<!-- Node24 -->
<g id="node12" class="node"><title>Node24</title>
<g id="a_node12"><a xlink:href="group__uart__transport.html" target="_top" xlink:title="CMSIS UART driver transport. ">
<polygon fill="white" stroke="black" points="207,-494.5 207,-513.5 283,-513.5 283,-494.5 207,-494.5"/>
<text text-anchor="middle" x="245" y="-501.5" font-family="Helvetica,sans-Serif" font-size="10.00">CMSIS UART</text>
</a>
</g>
</g>
<!-- Node0&#45;&gt;Node24 -->
<g id="edge24" class="edge"><title>Node0&#45;&gt;Node24</title>
<path fill="none" stroke="blueviolet" stroke-dasharray="5,2" d="M127.237,-456.614C134.975,-460.914 144.349,-465.921 153,-470 173.136,-479.494 196.701,-488.237 214.805,-494.479"/>
<text text-anchor="middle" x="162.5" y="-480" font-family="Helvetica,sans-Serif" font-size="10.00">erpc</text>
</g>
<!-- Node22 -->
<g id="node13" class="node"><title>Node22</title>
<g id="a_node13"><a xlink:href="group__spidev__master__transport.html" target="_top" xlink:title="SPIdev Linux transport. ">
<polygon fill="white" stroke="black" points="192,-456.5 192,-475.5 298,-475.5 298,-456.5 192,-456.5"/>
<text text-anchor="middle" x="245" y="-463.5" font-family="Helvetica,sans-Serif" font-size="10.00">SPIdev Linux Master</text>
</a>
</g>
</g>
<!-- Node0&#45;&gt;Node22 -->
<g id="edge22" class="edge"><title>Node0&#45;&gt;Node22</title>
<path fill="none" stroke="blueviolet" stroke-dasharray="5,2" d="M135.297,-450.529C151.208,-452.794 172.466,-455.819 191.962,-458.594"/>
<text text-anchor="middle" x="162.5" y="-458" font-family="Helvetica,sans-Serif" font-size="10.00">erpc</text>
</g>
<!-- Node20 -->
<g id="node14" class="node"><title>Node20</title>
<g id="a_node14"><a xlink:href="group__spi__master__transport.html" target="_top" xlink:title="MCUXpressoSDK SPI master driver transport. ">
<polygon fill="white" stroke="black" points="212.5,-418.5 212.5,-437.5 277.5,-437.5 277.5,-418.5 212.5,-418.5"/>
<text text-anchor="middle" x="245" y="-425.5" font-family="Helvetica,sans-Serif" font-size="10.00">SPI Master</text>
</a>
</g>
</g>
<!-- Node0&#45;&gt;Node20 -->
<g id="edge20" class="edge"><title>Node0&#45;&gt;Node20</title>
<path fill="none" stroke="blueviolet" stroke-dasharray="5,2" d="M135.382,-437.593C141.096,-435.774 147.198,-434.095 153,-433 172.435,-429.332 194.586,-428.054 212.168,-427.706"/>
<text text-anchor="middle" x="162.5" y="-436" font-family="Helvetica,sans-Serif" font-size="10.00">erpc</text>
</g>
<!-- Node18 -->
<g id="node15" class="node"><title>Node18</title>
<g id="a_node15"><a xlink:href="group__rpmsg__tty__rtos__transport.html" target="_top" xlink:title="RPMsg TTY RTOS transport. ">
<polygon fill="white" stroke="black" points="196,-380.5 196,-399.5 294,-399.5 294,-380.5 196,-380.5"/>
<text text-anchor="middle" x="245" y="-387.5" font-family="Helvetica,sans-Serif" font-size="10.00">RPMsg TTY RTOS</text>
</a>
</g>
</g>
<!-- Node0&#45;&gt;Node18 -->
<g id="edge18" class="edge"><title>Node0&#45;&gt;Node18</title>
<path fill="none" stroke="blueviolet" stroke-dasharray="5,2" d="M121.345,-437.418C129.545,-430.606 141.347,-421.69 153,-416 167.322,-409.007 183.855,-403.58 198.868,-399.537"/>
<text text-anchor="middle" x="162.5" y="-419" font-family="Helvetica,sans-Serif" font-size="10.00">erpc</text>
</g>
<!-- Node6 -->
<g id="node16" class="node"><title>Node6</title>
<g id="a_node16"><a xlink:href="group__infra__server.html" target="_top" xlink:title="Server classes. ">
<polygon fill="white" stroke="black" points="223,-342.5 223,-361.5 267,-361.5 267,-342.5 223,-342.5"/>
<text text-anchor="middle" x="245" y="-349.5" font-family="Helvetica,sans-Serif" font-size="10.00">Server</text>
</a>
</g>
</g>
<!-- Node0&#45;&gt;Node6 -->
<g id="edge6" class="edge"><title>Node0&#45;&gt;Node6</title>
<path fill="none" stroke="blueviolet" stroke-dasharray="5,2" d="M116.858,-437.178C124.505,-425.864 138.176,-407.148 153,-394 173.438,-375.873 203.034,-364.183 222.868,-357.853"/>
<text text-anchor="middle" x="162.5" y="-397" font-family="Helvetica,sans-Serif" font-size="10.00">erpc</text>
</g>
<!-- Node12 -->
<g id="node17" class="node"><title>Node12</title>
<g id="a_node17"><a xlink:href="group__lpi2c__slave__transport.html" target="_top" xlink:title="Lpi2c_slave_transport">
<polygon fill="white" stroke="black" points="190,-304.5 190,-323.5 300,-323.5 300,-304.5 190,-304.5"/>
<text text-anchor="middle" x="245" y="-311.5" font-family="Helvetica,sans-Serif" font-size="10.00">Lpi2c_slave_transport</text>
</a>
</g>
</g>
<!-- Node0&#45;&gt;Node12 -->
<g id="edge12" class="edge"><title>Node0&#45;&gt;Node12</title>
<path fill="none" stroke="blueviolet" stroke-dasharray="5,2" d="M114.042,-437.272C122.873,-414.564 148.214,-358.09 190,-333 196.22,-329.265 203.283,-326.116 210.204,-323.521"/>
<text text-anchor="middle" x="162.5" y="-369" font-family="Helvetica,sans-Serif" font-size="10.00">erpc</text>
</g>
<!-- Node11 -->
<g id="node18" class="node"><title>Node11</title>
<g id="a_node18"><a xlink:href="group__itbp__transport.html" target="_top" xlink:title="Simple inter&#45;thread communications transport. ">
<polygon fill="white" stroke="black" points="212.5,-266.5 212.5,-285.5 277.5,-285.5 277.5,-266.5 212.5,-266.5"/>
<text text-anchor="middle" x="245" y="-273.5" font-family="Helvetica,sans-Serif" font-size="10.00">Inter&#45;thread</text>
</a>
</g>
</g>
<!-- Node0&#45;&gt;Node11 -->
<g id="edge11" class="edge"><title>Node0&#45;&gt;Node11</title>
<path fill="none" stroke="blueviolet" stroke-dasharray="5,2" d="M112.74,-437.337C117.732,-417.047 131.087,-368.997 153,-334 165.68,-313.749 169.95,-307.994 190,-295 196.756,-290.622 204.642,-287.112 212.268,-284.36"/>
<text text-anchor="middle" x="162.5" y="-337" font-family="Helvetica,sans-Serif" font-size="10.00">erpc</text>
</g>
<!-- Node8 -->
<g id="node19" class="node"><title>Node8</title>
<g id="a_node19"><a xlink:href="group__dspi__master__transport.html" target="_top" xlink:title="MCUXpressoSDK DSPI master driver transport. ">
<polygon fill="white" stroke="black" points="209,-228.5 209,-247.5 281,-247.5 281,-228.5 209,-228.5"/>
<text text-anchor="middle" x="245" y="-235.5" font-family="Helvetica,sans-Serif" font-size="10.00">DSPI Master</text>
</a>
</g>
</g>
<!-- Node0&#45;&gt;Node8 -->
<g id="edge8" class="edge"><title>Node0&#45;&gt;Node8</title>
<path fill="none" stroke="blueviolet" stroke-dasharray="5,2" d="M111.455,-437.384C114.301,-412.232 124.38,-343.052 153,-294 164.72,-273.913 170.319,-269.39 190,-257 195.971,-253.241 202.784,-250.105 209.512,-247.537"/>
<text text-anchor="middle" x="162.5" y="-297" font-family="Helvetica,sans-Serif" font-size="10.00">erpc</text>
</g>
<!-- Node25 -->
<g id="node20" class="node"><title>Node25</title>
<g id="a_node20"><a xlink:href="group___u_s_b___c_d_c__transport.html" target="_top" xlink:title="USB CDC transport. ">
<polygon fill="white" stroke="black" points="215,-190.5 215,-209.5 275,-209.5 275,-190.5 215,-190.5"/>
<text text-anchor="middle" x="245" y="-197.5" font-family="Helvetica,sans-Serif" font-size="10.00">USB CDC</text>
</a>
</g>
</g>
<!-- Node0&#45;&gt;Node25 -->
<g id="edge25" class="edge"><title>Node0&#45;&gt;Node25</title>
<path fill="none" stroke="blueviolet" stroke-dasharray="5,2" d="M110.727,-437.121C111.799,-407.554 117.93,-317.923 153,-255 164.17,-234.959 170.5,-231.09 190,-219 197.602,-214.287 206.533,-210.539 214.919,-207.661"/>
<text text-anchor="middle" x="162.5" y="-258" font-family="Helvetica,sans-Serif" font-size="10.00">erpc</text>
</g>
<!-- Node3 -->
<g id="node22" class="node"><title>Node3</title>
<g id="a_node22"><a xlink:href="group__infra__codec.html" target="_top" xlink:title="Classes used for message serialization. ">
<polygon fill="white" stroke="black" points="210,-152.5 210,-171.5 280,-171.5 280,-152.5 210,-152.5"/>
<text text-anchor="middle" x="245" y="-159.5" font-family="Helvetica,sans-Serif" font-size="10.00">Serialization</text>
</a>
</g>
</g>
<!-- Node0&#45;&gt;Node3 -->
<g id="edge3" class="edge"><title>Node0&#45;&gt;Node3</title>
<path fill="none" stroke="blueviolet" stroke-dasharray="5,2" d="M110.254,-437.116C109.84,-403.89 111.842,-293.994 153,-217 163.816,-196.766 170.5,-193.09 190,-181 196.082,-177.229 203.014,-174.077 209.837,-171.493"/>
<text text-anchor="middle" x="162.5" y="-220" font-family="Helvetica,sans-Serif" font-size="10.00">erpc</text>
</g>
<!-- Node16 -->
<g id="node23" class="node"><title>Node16</title>
<g id="a_node23"><a xlink:href="group__rpmsg__lite__rtos__transport.html" target="_top" xlink:title="RPMsg&#45;Lite zero copy transport using RTOS API. ">
<polygon fill="white" stroke="black" points="196.5,-114.5 196.5,-133.5 293.5,-133.5 293.5,-114.5 196.5,-114.5"/>
<text text-anchor="middle" x="245" y="-121.5" font-family="Helvetica,sans-Serif" font-size="10.00">RPMsg&#45;Lite RTOS</text>
</a>
</g>
</g>
<!-- Node0&#45;&gt;Node16 -->
<g id="edge16" class="edge"><title>Node0&#45;&gt;Node16</title>
<path fill="none" stroke="blueviolet" stroke-dasharray="5,2" d="M111.21,-437.398C114.455,-395.14 128.775,-225.739 153,-179 163.558,-158.63 170.5,-155.09 190,-143 195.997,-139.282 202.821,-136.164 209.553,-133.601"/>
<text text-anchor="middle" x="162.5" y="-182" font-family="Helvetica,sans-Serif" font-size="10.00">erpc</text>
</g>
<!-- Node17 -->
<g id="node24" class="node"><title>Node17</title>
<g id="a_node24"><a xlink:href="group__rpmsg__lite__transport.html" target="_top" xlink:title="RPMsg&#45;Lite zero copy transport. ">
<polygon fill="white" stroke="black" points="211,-76.5 211,-95.5 279,-95.5 279,-76.5 211,-76.5"/>
<text text-anchor="middle" x="245" y="-83.5" font-family="Helvetica,sans-Serif" font-size="10.00">RPMsg&#45;Lite</text>
</a>
</g>
</g>
<!-- Node0&#45;&gt;Node17 -->
<g id="edge17" class="edge"><title>Node0&#45;&gt;Node17</title>
<path fill="none" stroke="blueviolet" stroke-dasharray="5,2" d="M111.003,-437.302C113.516,-391.286 125.691,-194.956 153,-141 163.361,-120.529 170.5,-117.09 190,-105 196.419,-101.02 203.787,-97.7283 210.973,-95.0674"/>
<text text-anchor="middle" x="162.5" y="-144" font-family="Helvetica,sans-Serif" font-size="10.00">erpc</text>
</g>
<!-- Node7 -->
<g id="node25" class="node"><title>Node7</title>
<g id="a_node25"><a xlink:href="group__port__setup__extensions.html" target="_top" xlink:title="Extension setup functions. ">
<polygon fill="white" stroke="black" points="200.5,-38.5 200.5,-57.5 289.5,-57.5 289.5,-38.5 200.5,-38.5"/>
<text text-anchor="middle" x="245" y="-45.5" font-family="Helvetica,sans-Serif" font-size="10.00">Extension Setup</text>
</a>
</g>
</g>
<!-- Node0&#45;&gt;Node7 -->
<g id="edge7" class="edge"><title>Node0&#45;&gt;Node7</title>
<path fill="none" stroke="blueviolet" stroke-dasharray="5,2" d="M110.812,-437.402C112.543,-388.101 122.041,-163.269 153,-102 163.209,-81.7965 170.678,-78.7925 190,-67 196.108,-63.2722 203.052,-60.1384 209.878,-57.5592"/>
<text text-anchor="middle" x="162.5" y="-105" font-family="Helvetica,sans-Serif" font-size="10.00">erpc</text>
</g>
<!-- Node13 -->
<g id="node26" class="node"><title>Node13</title>
<g id="a_node26"><a xlink:href="group__lpspi__slave__transport.html" target="_top" xlink:title="Lpspi_slave_transport">
<polygon fill="white" stroke="black" points="190,-0.5 190,-19.5 300,-19.5 300,-0.5 190,-0.5"/>
<text text-anchor="middle" x="245" y="-7.5" font-family="Helvetica,sans-Serif" font-size="10.00">Lpspi_slave_transport</text>
</a>
</g>
</g>
<!-- Node0&#45;&gt;Node13 -->
<g id="edge13" class="edge"><title>Node0&#45;&gt;Node13</title>
<path fill="none" stroke="blueviolet" stroke-dasharray="5,2" d="M110.679,-437.406C111.792,-384.937 118.866,-132.577 153,-64 164.215,-41.4688 189.488,-27.5878 210.561,-19.5514"/>
<text text-anchor="middle" x="162.5" y="-67" font-family="Helvetica,sans-Serif" font-size="10.00">erpc</text>
</g>
<!-- Node1 -->
<g id="node21" class="node"><title>Node1</title>
<g id="a_node21"><a xlink:href="group__port.html" target="_top" xlink:title="Porting layer. ">
<polygon fill="white" stroke="black" points="0,-437.5 0,-456.5 47,-456.5 47,-437.5 0,-437.5"/>
<text text-anchor="middle" x="23.5" y="-444.5" font-family="Helvetica,sans-Serif" font-size="10.00">Porting</text>
</a>
</g>
</g>
<!-- Node1&#45;&gt;Node0 -->
<g id="edge1" class="edge"><title>Node1&#45;&gt;Node0</title>
<path fill="none" stroke="black" d="M57.084,-447C65.9853,-447 75.4816,-447 83.8595,-447"/>
<polygon fill="black" stroke="black" points="57.0105,-443.5 47.0105,-447 57.0104,-450.5 57.0105,-443.5"/>
</g>
</g>
</svg>
