<?xml version="1.0" encoding="UTF-8" standalone="no"?>
<!DOCTYPE svg PUBLIC "-//W3C//DTD SVG 1.1//EN"
 "http://www.w3.org/Graphics/SVG/1.1/DTD/svg11.dtd">
<!-- Generated by graphviz version 2.38.0 (20140413.2041)
 -->
<!-- Title: RPMsg TTY RTOS Pages: 1 -->
<svg width="397pt" height="902pt"
 viewBox="0.00 0.00 397.00 902.00" xmlns="http://www.w3.org/2000/svg" xmlns:xlink="http://www.w3.org/1999/xlink">
<g id="graph0" class="graph" transform="scale(1 1) rotate(0) translate(4 898)">
<title>RPMsg TTY RTOS</title>
<polygon fill="white" stroke="none" points="-4,4 -4,-898 393,-898 393,4 -4,4"/>
<!-- Node1 -->
<g id="node1" class="node"><title>Node1</title>
<g id="a_node1"><a xlink:href="group__transports.html" target="_top" xlink:title="Transport layer classes. ">
<polygon fill="white" stroke="black" points="0,-437.5 0,-456.5 89,-456.5 89,-437.5 0,-437.5"/>
<text text-anchor="middle" x="44.5" y="-444.5" font-family="Helvetica,sans-Serif" font-size="10.00">Transport Layers</text>
</a>
</g>
</g>
<!-- Node0 -->
<g id="node16" class="node"><title>Node0</title>
<polygon fill="#bfbfbf" stroke="black" points="126,-437.5 126,-456.5 224,-456.5 224,-437.5 126,-437.5"/>
<text text-anchor="middle" x="175" y="-444.5" font-family="Helvetica,sans-Serif" font-size="10.00">RPMsg TTY RTOS</text>
</g>
<!-- Node1&#45;&gt;Node0 -->
<g id="edge1" class="edge"><title>Node1&#45;&gt;Node0</title>
<path fill="none" stroke="black" d="M99.1635,-447C107.959,-447 117.027,-447 125.683,-447"/>
<polygon fill="black" stroke="black" points="99.0043,-443.5 89.0042,-447 99.0042,-450.5 99.0043,-443.5"/>
</g>
<!-- Node10 -->
<g id="node2" class="node"><title>Node10</title>
<g id="a_node2"><a xlink:href="group__dspi__slave__transport.html" target="_top" xlink:title="MCUXpressoSDK DSPI slave driver transport. ">
<polygon fill="white" stroke="black" points="301.5,-874.5 301.5,-893.5 366.5,-893.5 366.5,-874.5 301.5,-874.5"/>
<text text-anchor="middle" x="334" y="-881.5" font-family="Helvetica,sans-Serif" font-size="10.00">DSPI Slave</text>
</a>
</g>
</g>
<!-- Node11 -->
<g id="node3" class="node"><title>Node11</title>
<g id="a_node3"><a xlink:href="group__i2c__slave__transport.html" target="_top" xlink:title="MCUXpressoSDK I2C slave driver transport. ">
<polygon fill="white" stroke="black" points="305.5,-836.5 305.5,-855.5 362.5,-855.5 362.5,-836.5 305.5,-836.5"/>
<text text-anchor="middle" x="334" y="-843.5" font-family="Helvetica,sans-Serif" font-size="10.00">I2C Slave</text>
</a>
</g>
</g>
<!-- Node8 -->
<g id="node4" class="node"><title>Node8</title>
<g id="a_node4"><a xlink:href="group__port__threads.html" target="_top" xlink:title="Threading model. ">
<polygon fill="white" stroke="black" points="308.5,-798.5 308.5,-817.5 359.5,-817.5 359.5,-798.5 308.5,-798.5"/>
<text text-anchor="middle" x="334" y="-805.5" font-family="Helvetica,sans-Serif" font-size="10.00">Threads</text>
</a>
</g>
</g>
<!-- Node15 -->
<g id="node5" class="node"><title>Node15</title>
<g id="a_node5"><a xlink:href="group__mbox__transport.html" target="_top" xlink:title="Mbox_transport">
<polygon fill="white" stroke="black" points="292,-760.5 292,-779.5 376,-779.5 376,-760.5 292,-760.5"/>
<text text-anchor="middle" x="334" y="-767.5" font-family="Helvetica,sans-Serif" font-size="10.00">Mbox_transport</text>
</a>
</g>
</g>
<!-- Node16 -->
<g id="node6" class="node"><title>Node16</title>
<g id="a_node6"><a xlink:href="group__mu__transport.html" target="_top" xlink:title="Messaging Unit transport. ">
<polygon fill="white" stroke="black" points="292,-722.5 292,-741.5 376,-741.5 376,-722.5 292,-722.5"/>
<text text-anchor="middle" x="334" y="-729.5" font-family="Helvetica,sans-Serif" font-size="10.00">Messaging Unit</text>
</a>
</g>
</g>
<!-- Node23 -->
<g id="node7" class="node"><title>Node23</title>
<g id="a_node7"><a xlink:href="group__tcp__transport.html" target="_top" xlink:title="Simple TCP/IP transport. ">
<polygon fill="white" stroke="black" points="310.5,-684.5 310.5,-703.5 357.5,-703.5 357.5,-684.5 310.5,-684.5"/>
<text text-anchor="middle" x="334" y="-691.5" font-family="Helvetica,sans-Serif" font-size="10.00">TCP/IP</text>
</a>
</g>
</g>
<!-- Node2 -->
<g id="node8" class="node"><title>Node2</title>
<g id="a_node8"><a xlink:href="group__infra__client.html" target="_top" xlink:title="Client classes. ">
<polygon fill="white" stroke="black" points="313.5,-646.5 313.5,-665.5 354.5,-665.5 354.5,-646.5 313.5,-646.5"/>
<text text-anchor="middle" x="334" y="-653.5" font-family="Helvetica,sans-Serif" font-size="10.00">Client</text>
</a>
</g>
</g>
<!-- Node4 -->
<g id="node9" class="node"><title>Node4</title>
<g id="a_node9"><a xlink:href="group__infra__transport.html" target="_top" xlink:title="Superclasses for building transports. ">
<polygon fill="white" stroke="black" points="303,-608.5 303,-627.5 365,-627.5 365,-608.5 303,-608.5"/>
<text text-anchor="middle" x="334" y="-615.5" font-family="Helvetica,sans-Serif" font-size="10.00">Transports</text>
</a>
</g>
</g>
<!-- Node19 -->
<g id="node10" class="node"><title>Node19</title>
<g id="a_node10"><a xlink:href="group__serial__transport.html" target="_top" xlink:title="POSIX and Win32 serial port transport. ">
<polygon fill="white" stroke="black" points="303.5,-570.5 303.5,-589.5 364.5,-589.5 364.5,-570.5 303.5,-570.5"/>
<text text-anchor="middle" x="334" y="-577.5" font-family="Helvetica,sans-Serif" font-size="10.00">Serial port</text>
</a>
</g>
</g>
<!-- Node5 -->
<g id="node11" class="node"><title>Node5</title>
<g id="a_node11"><a xlink:href="group__infra__utility.html" target="_top" xlink:title="Utility code used by the infrastructure. ">
<polygon fill="white" stroke="black" points="309.5,-532.5 309.5,-551.5 358.5,-551.5 358.5,-532.5 309.5,-532.5"/>
<text text-anchor="middle" x="334" y="-539.5" font-family="Helvetica,sans-Serif" font-size="10.00">Utilities</text>
</a>
</g>
</g>
<!-- Node21 -->
<g id="node12" class="node"><title>Node21</title>
<g id="a_node12"><a xlink:href="group__spi__slave__transport.html" target="_top" xlink:title="MCUXpressoSDK SPI slave driver transport. ">
<polygon fill="white" stroke="black" points="304.5,-494.5 304.5,-513.5 363.5,-513.5 363.5,-494.5 304.5,-494.5"/>
<text text-anchor="middle" x="334" y="-501.5" font-family="Helvetica,sans-Serif" font-size="10.00">SPI Slave</text>
</a>
</g>
</g>
<!-- Node24 -->
<g id="node13" class="node"><title>Node24</title>
<g id="a_node13"><a xlink:href="group__uart__transport.html" target="_top" xlink:title="CMSIS UART driver transport. ">
<polygon fill="white" stroke="black" points="296,-456.5 296,-475.5 372,-475.5 372,-456.5 296,-456.5"/>
<text text-anchor="middle" x="334" y="-463.5" font-family="Helvetica,sans-Serif" font-size="10.00">CMSIS UART</text>
</a>
</g>
</g>
<!-- Node22 -->
<g id="node14" class="node"><title>Node22</title>
<g id="a_node14"><a xlink:href="group__spidev__master__transport.html" target="_top" xlink:title="SPIdev Linux transport. ">
<polygon fill="white" stroke="black" points="281,-418.5 281,-437.5 387,-437.5 387,-418.5 281,-418.5"/>
<text text-anchor="middle" x="334" y="-425.5" font-family="Helvetica,sans-Serif" font-size="10.00">SPIdev Linux Master</text>
</a>
</g>
</g>
<!-- Node20 -->
<g id="node15" class="node"><title>Node20</title>
<g id="a_node15"><a xlink:href="group__spi__master__transport.html" target="_top" xlink:title="MCUXpressoSDK SPI master driver transport. ">
<polygon fill="white" stroke="black" points="301.5,-380.5 301.5,-399.5 366.5,-399.5 366.5,-380.5 301.5,-380.5"/>
<text text-anchor="middle" x="334" y="-387.5" font-family="Helvetica,sans-Serif" font-size="10.00">SPI Master</text>
</a>
</g>
</g>
<!-- Node0&#45;&gt;Node10 -->
<g id="edge10" class="edge"><title>Node0&#45;&gt;Node10</title>
<path fill="none" stroke="blueviolet" stroke-dasharray="5,2" d="M175.563,-456.555C173.916,-501.471 171.39,-695.04 242,-829 252.698,-849.297 259.5,-852.91 279,-865 285.842,-869.242 293.76,-872.702 301.389,-875.45"/>
<text text-anchor="middle" x="251.5" y="-855" font-family="Helvetica,sans-Serif" font-size="10.00">erpc</text>
</g>
<!-- Node0&#45;&gt;Node11 -->
<g id="edge11" class="edge"><title>Node0&#45;&gt;Node11</title>
<path fill="none" stroke="blueviolet" stroke-dasharray="5,2" d="M175.8,-456.724C175.332,-499.195 177.662,-671.624 242,-791 252.885,-811.197 259.5,-814.91 279,-827 287.024,-831.975 296.529,-835.874 305.311,-838.811"/>
<text text-anchor="middle" x="251.5" y="-817" font-family="Helvetica,sans-Serif" font-size="10.00">erpc</text>
</g>
<!-- Node0&#45;&gt;Node8 -->
<g id="edge8" class="edge"><title>Node0&#45;&gt;Node8</title>
<path fill="none" stroke="blueviolet" stroke-dasharray="5,2" d="M176.101,-456.703C176.902,-496.222 183.811,-647.931 242,-753 253.116,-773.071 259.5,-776.91 279,-789 287.953,-794.551 298.75,-798.763 308.329,-801.793"/>
<text text-anchor="middle" x="251.5" y="-779" font-family="Helvetica,sans-Serif" font-size="10.00">erpc</text>
</g>
<!-- Node0&#45;&gt;Node15 -->
<g id="edge15" class="edge"><title>Node0&#45;&gt;Node15</title>
<path fill="none" stroke="blueviolet" stroke-dasharray="5,2" d="M176.483,-456.719C178.671,-493.15 189.951,-624.153 242,-715 253.406,-734.908 259.5,-738.91 279,-751 284.997,-754.718 291.821,-757.836 298.553,-760.399"/>
<text text-anchor="middle" x="251.5" y="-741" font-family="Helvetica,sans-Serif" font-size="10.00">erpc</text>
</g>
<!-- Node0&#45;&gt;Node16 -->
<g id="edge16" class="edge"><title>Node0&#45;&gt;Node16</title>
<path fill="none" stroke="blueviolet" stroke-dasharray="5,2" d="M177.058,-456.844C180.969,-489.936 196.799,-599.383 242,-676 253.817,-696.03 259.319,-700.61 279,-713 284.971,-716.759 291.784,-719.895 298.512,-722.463"/>
<text text-anchor="middle" x="251.5" y="-703" font-family="Helvetica,sans-Serif" font-size="10.00">erpc</text>
</g>
<!-- Node0&#45;&gt;Node23 -->
<g id="edge23" class="edge"><title>Node0&#45;&gt;Node23</title>
<path fill="none" stroke="blueviolet" stroke-dasharray="5,2" d="M177.762,-456.813C183.361,-486.184 202.738,-575.243 242,-638 254.335,-657.715 259.319,-662.61 279,-675 288.588,-681.036 300.345,-685.464 310.438,-688.519"/>
<text text-anchor="middle" x="251.5" y="-664" font-family="Helvetica,sans-Serif" font-size="10.00">erpc</text>
</g>
<!-- Node0&#45;&gt;Node2 -->
<g id="edge2" class="edge"><title>Node0&#45;&gt;Node2</title>
<path fill="none" stroke="blueviolet" stroke-dasharray="5,2" d="M178.903,-456.863C186.587,-482.015 209.146,-550.022 242,-599 255.131,-618.576 259.136,-624.309 279,-637 289.469,-643.688 302.589,-648.375 313.275,-651.42"/>
<text text-anchor="middle" x="251.5" y="-626" font-family="Helvetica,sans-Serif" font-size="10.00">erpc</text>
</g>
<!-- Node0&#45;&gt;Node4 -->
<g id="edge4" class="edge"><title>Node0&#45;&gt;Node4</title>
<path fill="none" stroke="blueviolet" stroke-dasharray="5,2" d="M179.463,-456.862C189.734,-484.518 222.857,-563.131 279,-599 286.286,-603.655 294.857,-607.341 302.997,-610.178"/>
<text text-anchor="middle" x="251.5" y="-587" font-family="Helvetica,sans-Serif" font-size="10.00">erpc</text>
</g>
<!-- Node0&#45;&gt;Node19 -->
<g id="edge19" class="edge"><title>Node0&#45;&gt;Node19</title>
<path fill="none" stroke="blueviolet" stroke-dasharray="5,2" d="M181.855,-456.703C195.753,-478.863 233.036,-533.401 279,-561 286.498,-565.502 295.222,-569.154 303.443,-572.009"/>
<text text-anchor="middle" x="251.5" y="-549" font-family="Helvetica,sans-Serif" font-size="10.00">erpc</text>
</g>
<!-- Node0&#45;&gt;Node5 -->
<g id="edge5" class="edge"><title>Node0&#45;&gt;Node5</title>
<path fill="none" stroke="blueviolet" stroke-dasharray="5,2" d="M186.698,-456.601C204.65,-472.301 242.471,-503.656 279,-523 288.486,-528.023 299.579,-532.19 309.234,-535.328"/>
<text text-anchor="middle" x="251.5" y="-515" font-family="Helvetica,sans-Serif" font-size="10.00">erpc</text>
</g>
<!-- Node0&#45;&gt;Node21 -->
<g id="edge21" class="edge"><title>Node0&#45;&gt;Node21</title>
<path fill="none" stroke="blueviolet" stroke-dasharray="5,2" d="M200.707,-456.519C213.079,-461.245 228.304,-466.999 242,-472 263.079,-479.697 287.024,-488.104 305.059,-494.369"/>
<text text-anchor="middle" x="251.5" y="-481" font-family="Helvetica,sans-Serif" font-size="10.00">erpc</text>
</g>
<!-- Node0&#45;&gt;Node24 -->
<g id="edge24" class="edge"><title>Node0&#45;&gt;Node24</title>
<path fill="none" stroke="blueviolet" stroke-dasharray="5,2" d="M224.386,-452.856C247.451,-455.647 274.605,-458.933 295.992,-461.521"/>
<text text-anchor="middle" x="251.5" y="-460" font-family="Helvetica,sans-Serif" font-size="10.00">erpc</text>
</g>
<!-- Node0&#45;&gt;Node22 -->
<g id="edge22" class="edge"><title>Node0&#45;&gt;Node22</title>
<path fill="none" stroke="blueviolet" stroke-dasharray="5,2" d="M215.966,-437.491C224.515,-435.747 233.524,-434.125 242,-433 254.548,-431.335 268.14,-430.222 280.899,-429.479"/>
<text text-anchor="middle" x="251.5" y="-436" font-family="Helvetica,sans-Serif" font-size="10.00">erpc</text>
</g>
<!-- Node0&#45;&gt;Node20 -->
<g id="edge20" class="edge"><title>Node0&#45;&gt;Node20</title>
<path fill="none" stroke="blueviolet" stroke-dasharray="5,2" d="M194.432,-437.364C207.482,-430.786 225.524,-422.177 242,-416 261.385,-408.732 283.733,-402.32 301.43,-397.682"/>
<text text-anchor="middle" x="251.5" y="-419" font-family="Helvetica,sans-Serif" font-size="10.00">erpc</text>
</g>
<!-- Node6 -->
<g id="node17" class="node"><title>Node6</title>
<g id="a_node17"><a xlink:href="group__infra__server.html" target="_top" xlink:title="Server classes. ">
<polygon fill="white" stroke="black" points="312,-342.5 312,-361.5 356,-361.5 356,-342.5 312,-342.5"/>
<text text-anchor="middle" x="334" y="-349.5" font-family="Helvetica,sans-Serif" font-size="10.00">Server</text>
</a>
</g>
</g>
<!-- Node0&#45;&gt;Node6 -->
<g id="edge6" class="edge"><title>Node0&#45;&gt;Node6</title>
<path fill="none" stroke="blueviolet" stroke-dasharray="5,2" d="M186.286,-437.408C203.937,-421.435 241.705,-389.333 279,-371 289.435,-365.87 301.611,-361.461 311.758,-358.185"/>
<text text-anchor="middle" x="251.5" y="-395" font-family="Helvetica,sans-Serif" font-size="10.00">erpc</text>
</g>
<!-- Node13 -->
<g id="node18" class="node"><title>Node13</title>
<g id="a_node18"><a xlink:href="group__lpi2c__slave__transport.html" target="_top" xlink:title="Lpi2c_slave_transport">
<polygon fill="white" stroke="black" points="279,-304.5 279,-323.5 389,-323.5 389,-304.5 279,-304.5"/>
<text text-anchor="middle" x="334" y="-311.5" font-family="Helvetica,sans-Serif" font-size="10.00">Lpi2c_slave_transport</text>
</a>
</g>
</g>
<!-- Node0&#45;&gt;Node13 -->
<g id="edge13" class="edge"><title>Node0&#45;&gt;Node13</title>
<path fill="none" stroke="blueviolet" stroke-dasharray="5,2" d="M181.827,-437.249C195.666,-414.99 232.832,-360.257 279,-333 285.247,-329.312 292.323,-326.182 299.246,-323.592"/>
<text text-anchor="middle" x="251.5" y="-364" font-family="Helvetica,sans-Serif" font-size="10.00">erpc</text>
</g>
<!-- Node12 -->
<g id="node19" class="node"><title>Node12</title>
<g id="a_node19"><a xlink:href="group__itbp__transport.html" target="_top" xlink:title="Simple inter&#45;thread communications transport. ">
<polygon fill="white" stroke="black" points="301.5,-266.5 301.5,-285.5 366.5,-285.5 366.5,-266.5 301.5,-266.5"/>
<text text-anchor="middle" x="334" y="-273.5" font-family="Helvetica,sans-Serif" font-size="10.00">Inter&#45;thread</text>
</a>
</g>
</g>
<!-- Node0&#45;&gt;Node12 -->
<g id="edge12" class="edge"><title>Node0&#45;&gt;Node12</title>
<path fill="none" stroke="blueviolet" stroke-dasharray="5,2" d="M179.294,-437.495C189.331,-410.099 222.35,-330.664 279,-295 285.813,-290.711 293.72,-287.234 301.348,-284.485"/>
<text text-anchor="middle" x="251.5" y="-326" font-family="Helvetica,sans-Serif" font-size="10.00">erpc</text>
</g>
<!-- Node9 -->
<g id="node20" class="node"><title>Node9</title>
<g id="a_node20"><a xlink:href="group__dspi__master__transport.html" target="_top" xlink:title="MCUXpressoSDK DSPI master driver transport. ">
<polygon fill="white" stroke="black" points="298,-228.5 298,-247.5 370,-247.5 370,-228.5 298,-228.5"/>
<text text-anchor="middle" x="334" y="-235.5" font-family="Helvetica,sans-Serif" font-size="10.00">DSPI Master</text>
</a>
</g>
</g>
<!-- Node0&#45;&gt;Node9 -->
<g id="edge9" class="edge"><title>Node0&#45;&gt;Node9</title>
<path fill="none" stroke="blueviolet" stroke-dasharray="5,2" d="M178.74,-437.413C186.19,-412.332 208.532,-343.307 242,-294 255.061,-274.758 259.319,-269.39 279,-257 284.971,-253.241 291.784,-250.105 298.512,-247.537"/>
<text text-anchor="middle" x="251.5" y="-297" font-family="Helvetica,sans-Serif" font-size="10.00">erpc</text>
</g>
<!-- Node25 -->
<g id="node21" class="node"><title>Node25</title>
<g id="a_node21"><a xlink:href="group___u_s_b___c_d_c__transport.html" target="_top" xlink:title="USB CDC transport. ">
<polygon fill="white" stroke="black" points="304,-190.5 304,-209.5 364,-209.5 364,-190.5 304,-190.5"/>
<text text-anchor="middle" x="334" y="-197.5" font-family="Helvetica,sans-Serif" font-size="10.00">USB CDC</text>
</a>
</g>
</g>
<!-- Node0&#45;&gt;Node25 -->
<g id="edge25" class="edge"><title>Node0&#45;&gt;Node25</title>
<path fill="none" stroke="blueviolet" stroke-dasharray="5,2" d="M177.709,-437.11C183.162,-407.514 202.174,-317.811 242,-255 254.286,-235.623 259.5,-231.09 279,-219 286.602,-214.287 295.533,-210.539 303.919,-207.661"/>
<text text-anchor="middle" x="251.5" y="-258" font-family="Helvetica,sans-Serif" font-size="10.00">erpc</text>
</g>
<!-- Node3 -->
<g id="node22" class="node"><title>Node3</title>
<g id="a_node22"><a xlink:href="group__infra__codec.html" target="_top" xlink:title="Classes used for message serialization. ">
<polygon fill="white" stroke="black" points="299,-152.5 299,-171.5 369,-171.5 369,-152.5 299,-152.5"/>
<text text-anchor="middle" x="334" y="-159.5" font-family="Helvetica,sans-Serif" font-size="10.00">Serialization</text>
</a>
</g>
</g>
<!-- Node0&#45;&gt;Node3 -->
<g id="edge3" class="edge"><title>Node0&#45;&gt;Node3</title>
<path fill="none" stroke="blueviolet" stroke-dasharray="5,2" d="M176.906,-437.483C180.401,-404.516 195.238,-293.005 242,-216 253.749,-196.652 259.678,-192.793 279,-181 285.108,-177.272 292.052,-174.138 298.878,-171.559"/>
<text text-anchor="middle" x="251.5" y="-219" font-family="Helvetica,sans-Serif" font-size="10.00">erpc</text>
</g>
<!-- Node17 -->
<g id="node23" class="node"><title>Node17</title>
<g id="a_node23"><a xlink:href="group__rpmsg__lite__rtos__transport.html" target="_top" xlink:title="RPMsg&#45;Lite zero copy transport using RTOS API. ">
<polygon fill="white" stroke="black" points="285.5,-114.5 285.5,-133.5 382.5,-133.5 382.5,-114.5 285.5,-114.5"/>
<text text-anchor="middle" x="334" y="-121.5" font-family="Helvetica,sans-Serif" font-size="10.00">RPMsg&#45;Lite RTOS</text>
</a>
</g>
</g>
<!-- Node0&#45;&gt;Node17 -->
<g id="edge17" class="edge"><title>Node0&#45;&gt;Node17</title>
<path fill="none" stroke="blueviolet" stroke-dasharray="5,2" d="M176.419,-437.471C178.392,-401.174 189.046,-269.027 242,-178 253.382,-158.434 259.678,-154.793 279,-143 285.108,-139.272 292.052,-136.138 298.878,-133.559"/>
<text text-anchor="middle" x="251.5" y="-181" font-family="Helvetica,sans-Serif" font-size="10.00">erpc</text>
</g>
<!-- Node18 -->
<g id="node24" class="node"><title>Node18</title>
<g id="a_node24"><a xlink:href="group__rpmsg__lite__transport.html" target="_top" xlink:title="RPMsg&#45;Lite zero copy transport. ">
<polygon fill="white" stroke="black" points="300,-76.5 300,-95.5 368,-95.5 368,-76.5 300,-76.5"/>
<text text-anchor="middle" x="334" y="-83.5" font-family="Helvetica,sans-Serif" font-size="10.00">RPMsg&#45;Lite</text>
</a>
</g>
</g>
<!-- Node0&#45;&gt;Node18 -->
<g id="edge18" class="edge"><title>Node0&#45;&gt;Node18</title>
<path fill="none" stroke="blueviolet" stroke-dasharray="5,2" d="M175.997,-437.456C176.386,-397.921 181.88,-244.157 242,-139 253.084,-119.612 259.853,-116.497 279,-105 285.39,-101.163 292.671,-97.9434 299.772,-95.3089"/>
<text text-anchor="middle" x="251.5" y="-142" font-family="Helvetica,sans-Serif" font-size="10.00">erpc</text>
</g>
<!-- Node7 -->
<g id="node25" class="node"><title>Node7</title>
<g id="a_node25"><a xlink:href="group__port__setup__extensions.html" target="_top" xlink:title="Extension setup functions. ">
<polygon fill="white" stroke="black" points="289.5,-38.5 289.5,-57.5 378.5,-57.5 378.5,-38.5 289.5,-38.5"/>
<text text-anchor="middle" x="334" y="-45.5" font-family="Helvetica,sans-Serif" font-size="10.00">Extension Setup</text>
</a>
</g>
</g>
<!-- Node0&#45;&gt;Node7 -->
<g id="edge7" class="edge"><title>Node0&#45;&gt;Node7</title>
<path fill="none" stroke="blueviolet" stroke-dasharray="5,2" d="M175.706,-437.46C174.812,-395.045 175.51,-220.413 242,-101 252.865,-81.4878 259.853,-78.4965 279,-67 285.22,-63.2653 292.283,-60.1156 299.204,-57.5209"/>
<text text-anchor="middle" x="251.5" y="-104" font-family="Helvetica,sans-Serif" font-size="10.00">erpc</text>
</g>
<!-- Node14 -->
<g id="node26" class="node"><title>Node14</title>
<g id="a_node26"><a xlink:href="group__lpspi__slave__transport.html" target="_top" xlink:title="Lpspi_slave_transport">
<polygon fill="white" stroke="black" points="279,-0.5 279,-19.5 389,-19.5 389,-0.5 279,-0.5"/>
<text text-anchor="middle" x="334" y="-7.5" font-family="Helvetica,sans-Serif" font-size="10.00">Lpspi_slave_transport</text>
</a>
</g>
</g>
<!-- Node0&#45;&gt;Node14 -->
<g id="edge14" class="edge"><title>Node0&#45;&gt;Node14</title>
<path fill="none" stroke="blueviolet" stroke-dasharray="5,2" d="M176.811,-437.356C181.371,-384.618 204.941,-131.011 242,-63 252.686,-43.3893 259.853,-40.4965 279,-29 285.22,-25.2653 292.283,-22.1156 299.204,-19.5209"/>
<text text-anchor="middle" x="251.5" y="-66" font-family="Helvetica,sans-Serif" font-size="10.00">erpc</text>
</g>
</g>
</svg>
