<?xml version="1.0" encoding="UTF-8" standalone="no"?>
<!DOCTYPE svg PUBLIC "-//W3C//DTD SVG 1.1//EN"
 "http://www.w3.org/Graphics/SVG/1.1/DTD/svg11.dtd">
<!-- Generated by graphviz version 2.38.0 (20140413.2041)
 -->
<!-- Title: RPMsg&#45;Lite Pages: 1 -->
<svg width="488pt" height="686pt"
 viewBox="0.00 0.00 488.00 686.02" xmlns="http://www.w3.org/2000/svg" xmlns:xlink="http://www.w3.org/1999/xlink">
<g id="graph0" class="graph" transform="scale(1 1) rotate(0) translate(4 682.018)">
<title>RPMsg&#45;Lite</title>
<polygon fill="white" stroke="none" points="-4,4 -4,-682.018 484,-682.018 484,4 -4,4"/>
<!-- Node1 -->
<g id="node1" class="node"><title>Node1</title>
<g id="a_node1"><a xlink:href="group__transports.html" target="_top" xlink:title="Transport layer classes. ">
<polygon fill="white" stroke="black" points="0,-323.518 0,-342.518 89,-342.518 89,-323.518 0,-323.518"/>
<text text-anchor="middle" x="44.5" y="-330.518" font-family="Helvetica,sans-Serif" font-size="10.00">Transport Layers</text>
</a>
</g>
</g>
<!-- Node0 -->
<g id="node19" class="node"><title>Node0</title>
<polygon fill="#bfbfbf" stroke="black" points="126,-323.518 126,-342.518 194,-342.518 194,-323.518 126,-323.518"/>
<text text-anchor="middle" x="160" y="-330.518" font-family="Helvetica,sans-Serif" font-size="10.00">RPMsg&#45;Lite</text>
</g>
<!-- Node1&#45;&gt;Node0 -->
<g id="edge1" class="edge"><title>Node1&#45;&gt;Node0</title>
<path fill="none" stroke="black" d="M99.2532,-333.018C108.367,-333.018 117.585,-333.018 125.961,-333.018"/>
<polygon fill="black" stroke="black" points="99.0575,-329.518 89.0575,-333.018 99.0574,-336.518 99.0575,-329.518"/>
</g>
<!-- Node10 -->
<g id="node2" class="node"><title>Node10</title>
<g id="a_node2"><a xlink:href="group__dspi__slave__transport.html" target="_top" xlink:title="Kinetis SDK DSPI slave driver transport. ">
<polygon fill="white" stroke="black" points="383,-646.518 383,-665.518 448,-665.518 448,-646.518 383,-646.518"/>
<text text-anchor="middle" x="415.5" y="-653.518" font-family="Helvetica,sans-Serif" font-size="10.00">DSPI Slave</text>
</a>
</g>
</g>
<!-- Node8 -->
<g id="node3" class="node"><title>Node8</title>
<g id="a_node3"><a xlink:href="group__port__threads.html" target="_top" xlink:title="Threading model. ">
<polygon fill="white" stroke="black" points="390,-608.518 390,-627.518 441,-627.518 441,-608.518 390,-608.518"/>
<text text-anchor="middle" x="415.5" y="-615.518" font-family="Helvetica,sans-Serif" font-size="10.00">Threads</text>
</a>
</g>
</g>
<!-- Node12 -->
<g id="node4" class="node"><title>Node12</title>
<g id="a_node4"><a xlink:href="group__mu__transport.html" target="_top" xlink:title="Messaging Unit transport. ">
<polygon fill="white" stroke="black" points="373.5,-570.518 373.5,-589.518 457.5,-589.518 457.5,-570.518 373.5,-570.518"/>
<text text-anchor="middle" x="415.5" y="-577.518" font-family="Helvetica,sans-Serif" font-size="10.00">Messaging Unit</text>
</a>
</g>
</g>
<!-- Node17 -->
<g id="node5" class="node"><title>Node17</title>
<g id="a_node5"><a xlink:href="group__tcp__transport.html" target="_top" xlink:title="Simple TCP/IP transport. ">
<polygon fill="white" stroke="black" points="392,-532.518 392,-551.518 439,-551.518 439,-532.518 392,-532.518"/>
<text text-anchor="middle" x="415.5" y="-539.518" font-family="Helvetica,sans-Serif" font-size="10.00">TCP/IP</text>
</a>
</g>
</g>
<!-- Node3 -->
<g id="node6" class="node"><title>Node3</title>
<g id="a_node6"><a xlink:href="group__infra__client.html" target="_top" xlink:title="Client classes. ">
<polygon fill="white" stroke="black" points="395,-494.518 395,-513.518 436,-513.518 436,-494.518 395,-494.518"/>
<text text-anchor="middle" x="415.5" y="-501.518" font-family="Helvetica,sans-Serif" font-size="10.00">Client</text>
</a>
</g>
</g>
<!-- Node5 -->
<g id="node7" class="node"><title>Node5</title>
<g id="a_node7"><a xlink:href="group__infra__transport.html" target="_top" xlink:title="Superclasses for building transports. ">
<polygon fill="white" stroke="black" points="384.5,-456.518 384.5,-475.518 446.5,-475.518 446.5,-456.518 384.5,-456.518"/>
<text text-anchor="middle" x="415.5" y="-463.518" font-family="Helvetica,sans-Serif" font-size="10.00">Transports</text>
</a>
</g>
</g>
<!-- Node14 -->
<g id="node8" class="node"><title>Node14</title>
<g id="a_node8"><a xlink:href="group__serial__transport.html" target="_top" xlink:title="POSIX and Win32 serial port transport. ">
<polygon fill="white" stroke="black" points="385,-418.518 385,-437.518 446,-437.518 446,-418.518 385,-418.518"/>
<text text-anchor="middle" x="415.5" y="-425.518" font-family="Helvetica,sans-Serif" font-size="10.00">Serial port</text>
</a>
</g>
</g>
<!-- Node6 -->
<g id="node9" class="node"><title>Node6</title>
<g id="a_node9"><a xlink:href="group__infra__utility.html" target="_top" xlink:title="Utility code used by the infrastructure. ">
<polygon fill="white" stroke="black" points="391,-380.518 391,-399.518 440,-399.518 440,-380.518 391,-380.518"/>
<text text-anchor="middle" x="415.5" y="-387.518" font-family="Helvetica,sans-Serif" font-size="10.00">Utilities</text>
</a>
</g>
</g>
<!-- Node16 -->
<g id="node10" class="node"><title>Node16</title>
<g id="a_node10"><a xlink:href="group__spi__slave__transport.html" target="_top" xlink:title="Kinetis SDK SPI slave driver transport. ">
<polygon fill="white" stroke="black" points="386,-342.518 386,-361.518 445,-361.518 445,-342.518 386,-342.518"/>
<text text-anchor="middle" x="415.5" y="-349.518" font-family="Helvetica,sans-Serif" font-size="10.00">SPI Slave</text>
</a>
</g>
</g>
<!-- Node18 -->
<g id="node11" class="node"><title>Node18</title>
<g id="a_node11"><a xlink:href="group__uart__transport.html" target="_top" xlink:title="CMSIS UART driver transport. ">
<polygon fill="white" stroke="black" points="377.5,-304.518 377.5,-323.518 453.5,-323.518 453.5,-304.518 377.5,-304.518"/>
<text text-anchor="middle" x="415.5" y="-311.518" font-family="Helvetica,sans-Serif" font-size="10.00">CMSIS UART</text>
</a>
</g>
</g>
<!-- Node15 -->
<g id="node12" class="node"><title>Node15</title>
<g id="a_node12"><a xlink:href="group__spi__master__transport.html" target="_top" xlink:title="Kinetis SDK SPI master driver transport. ">
<polygon fill="white" stroke="black" points="383,-266.518 383,-285.518 448,-285.518 448,-266.518 383,-266.518"/>
<text text-anchor="middle" x="415.5" y="-273.518" font-family="Helvetica,sans-Serif" font-size="10.00">SPI Master</text>
</a>
</g>
</g>
<!-- Node7 -->
<g id="node13" class="node"><title>Node7</title>
<g id="a_node13"><a xlink:href="group__infra__server.html" target="_top" xlink:title="Server classes. ">
<polygon fill="white" stroke="black" points="393.5,-228.518 393.5,-247.518 437.5,-247.518 437.5,-228.518 393.5,-228.518"/>
<text text-anchor="middle" x="415.5" y="-235.518" font-family="Helvetica,sans-Serif" font-size="10.00">Server</text>
</a>
</g>
</g>
<!-- Node11 -->
<g id="node14" class="node"><title>Node11</title>
<g id="a_node14"><a xlink:href="group__itbp__transport.html" target="_top" xlink:title="Simple inter&#45;thread communications transport. ">
<polygon fill="white" stroke="black" points="383,-190.518 383,-209.518 448,-209.518 448,-190.518 383,-190.518"/>
<text text-anchor="middle" x="415.5" y="-197.518" font-family="Helvetica,sans-Serif" font-size="10.00">Inter&#45;thread</text>
</a>
</g>
</g>
<!-- Node9 -->
<g id="node15" class="node"><title>Node9</title>
<g id="a_node15"><a xlink:href="group__dspi__master__transport.html" target="_top" xlink:title="Kinetis SDK DSPI master driver transport. ">
<polygon fill="white" stroke="black" points="379.5,-152.518 379.5,-171.518 451.5,-171.518 451.5,-152.518 379.5,-152.518"/>
<text text-anchor="middle" x="415.5" y="-159.518" font-family="Helvetica,sans-Serif" font-size="10.00">DSPI Master</text>
</a>
</g>
</g>
<!-- Node13 -->
<g id="node16" class="node"><title>Node13</title>
<g id="a_node16"><a xlink:href="group__rpmsg__tty__rtos__transport.html" target="_top" xlink:title="Rpmsg_tty_rtos_transport">
<polygon fill="white" stroke="black" points="351,-114.518 351,-133.518 480,-133.518 480,-114.518 351,-114.518"/>
<text text-anchor="middle" x="415.5" y="-121.518" font-family="Helvetica,sans-Serif" font-size="10.00">Rpmsg_tty_rtos_transport</text>
</a>
</g>
</g>
<!-- Node4 -->
<g id="node17" class="node"><title>Node4</title>
<g id="a_node17"><a xlink:href="group__infra__codec.html" target="_top" xlink:title="Classes used for message serialization. ">
<polygon fill="white" stroke="black" points="380.5,-76.518 380.5,-95.518 450.5,-95.518 450.5,-76.518 380.5,-76.518"/>
<text text-anchor="middle" x="415.5" y="-83.518" font-family="Helvetica,sans-Serif" font-size="10.00">Serialization</text>
</a>
</g>
</g>
<!-- Node2 -->
<g id="node18" class="node"><title>Node2</title>
<g id="a_node18"><a xlink:href="group__rpmsg__lite__rtos__transport.html" target="_top" xlink:title="RPMsg&#45;Lite zero copy transport using RTOS API. ">
<polygon fill="white" stroke="black" points="367,-26.518 367,-45.518 464,-45.518 464,-26.518 367,-26.518"/>
<text text-anchor="middle" x="415.5" y="-33.518" font-family="Helvetica,sans-Serif" font-size="10.00">RPMsg&#45;Lite RTOS</text>
</a>
</g>
</g>
<!-- Node0&#45;&gt;Node10 -->
<g id="edge10" class="edge"><title>Node0&#45;&gt;Node10</title>
<path fill="none" stroke="blueviolet" stroke-dasharray="5,2" d="M161.16,-342.685C162.143,-389.383 168.865,-591.027 212,-632.018 257.809,-675.549 338.187,-670.043 382.655,-662.72"/>
<text text-anchor="middle" x="272.5" y="-670.018" font-family="Helvetica,sans-Serif" font-size="10.00">erpc</text>
</g>
<!-- Node0&#45;&gt;Node8 -->
<g id="edge8" class="edge"><title>Node0&#45;&gt;Node8</title>
<path fill="none" stroke="blueviolet" stroke-dasharray="5,2" d="M161.414,-342.584C163.476,-385.398 174.09,-558.85 212,-594.018 237.305,-617.493 341.553,-619.131 389.797,-618.578"/>
<text text-anchor="middle" x="272.5" y="-620.018" font-family="Helvetica,sans-Serif" font-size="10.00">erpc</text>
</g>
<!-- Node0&#45;&gt;Node12 -->
<g id="edge12" class="edge"><title>Node0&#45;&gt;Node12</title>
<path fill="none" stroke="blueviolet" stroke-dasharray="5,2" d="M161.78,-342.691C165.119,-381.569 179.552,-525.75 212,-555.018 235.016,-575.778 321.193,-579.838 373.423,-580.328"/>
<text text-anchor="middle" x="272.5" y="-582.018" font-family="Helvetica,sans-Serif" font-size="10.00">erpc</text>
</g>
<!-- Node0&#45;&gt;Node17 -->
<g id="edge18" class="edge"><title>Node0&#45;&gt;Node17</title>
<path fill="none" stroke="blueviolet" stroke-dasharray="5,2" d="M162.294,-342.893C167.056,-377.654 184.762,-493.53 212,-517.018 238.491,-539.862 344.633,-542.338 391.76,-542.277"/>
<text text-anchor="middle" x="272.5" y="-543.018" font-family="Helvetica,sans-Serif" font-size="10.00">erpc</text>
</g>
<!-- Node0&#45;&gt;Node3 -->
<g id="edge3" class="edge"><title>Node0&#45;&gt;Node3</title>
<path fill="none" stroke="blueviolet" stroke-dasharray="5,2" d="M161.089,-342.87C161.914,-369.769 168.219,-444.801 212,-480.018 239.861,-502.429 349.834,-504.416 394.99,-504.256"/>
<text text-anchor="middle" x="272.5" y="-505.018" font-family="Helvetica,sans-Serif" font-size="10.00">erpc</text>
</g>
<!-- Node0&#45;&gt;Node5 -->
<g id="edge5" class="edge"><title>Node0&#45;&gt;Node5</title>
<path fill="none" stroke="blueviolet" stroke-dasharray="5,2" d="M162.261,-342.737C165.697,-364.885 177.41,-419.106 212,-444.018 238.83,-463.341 334.514,-466.173 384.144,-466.296"/>
<text text-anchor="middle" x="272.5" y="-468.018" font-family="Helvetica,sans-Serif" font-size="10.00">erpc</text>
</g>
<!-- Node0&#45;&gt;Node14 -->
<g id="edge15" class="edge"><title>Node0&#45;&gt;Node14</title>
<path fill="none" stroke="blueviolet" stroke-dasharray="5,2" d="M165.37,-342.56C172.704,-357.377 188.978,-385.604 212,-399.018 266.621,-430.844 343.185,-432.432 384.771,-430.446"/>
<text text-anchor="middle" x="272.5" y="-433.018" font-family="Helvetica,sans-Serif" font-size="10.00">erpc</text>
</g>
<!-- Node0&#45;&gt;Node6 -->
<g id="edge6" class="edge"><title>Node0&#45;&gt;Node6</title>
<path fill="none" stroke="blueviolet" stroke-dasharray="5,2" d="M176.017,-342.718C185.869,-348.632 199.244,-355.833 212,-360.018 274.473,-380.512 352.405,-387.053 390.828,-389.104"/>
<text text-anchor="middle" x="272.5" y="-387.018" font-family="Helvetica,sans-Serif" font-size="10.00">erpc</text>
</g>
<!-- Node0&#45;&gt;Node16 -->
<g id="edge17" class="edge"><title>Node0&#45;&gt;Node16</title>
<path fill="none" stroke="blueviolet" stroke-dasharray="5,2" d="M194.141,-335.502C244.2,-339.254 338.274,-346.305 385.663,-349.857"/>
<text text-anchor="middle" x="272.5" y="-348.018" font-family="Helvetica,sans-Serif" font-size="10.00">erpc</text>
</g>
<!-- Node0&#45;&gt;Node18 -->
<g id="edge19" class="edge"><title>Node0&#45;&gt;Node18</title>
<path fill="none" stroke="blueviolet" stroke-dasharray="5,2" d="M194.052,-325.021C199.996,-323.831 206.159,-322.758 212,-322.018 269.419,-314.747 336.659,-313.517 377.39,-313.567"/>
<text text-anchor="middle" x="272.5" y="-325.018" font-family="Helvetica,sans-Serif" font-size="10.00">erpc</text>
</g>
<!-- Node0&#45;&gt;Node15 -->
<g id="edge16" class="edge"><title>Node0&#45;&gt;Node15</title>
<path fill="none" stroke="blueviolet" stroke-dasharray="5,2" d="M171.891,-323.493C181.678,-315.518 196.809,-304.573 212,-299.018 269.655,-277.936 342.173,-274.866 382.926,-275.076"/>
<text text-anchor="middle" x="272.5" y="-302.018" font-family="Helvetica,sans-Serif" font-size="10.00">erpc</text>
</g>
<!-- Node0&#45;&gt;Node7 -->
<g id="edge7" class="edge"><title>Node0&#45;&gt;Node7</title>
<path fill="none" stroke="blueviolet" stroke-dasharray="5,2" d="M164.743,-323.322C171.494,-307.293 187.34,-275.593 212,-261.018 270.178,-226.633 354.267,-230.754 393.217,-235.063"/>
<text text-anchor="middle" x="272.5" y="-264.018" font-family="Helvetica,sans-Serif" font-size="10.00">erpc</text>
</g>
<!-- Node0&#45;&gt;Node11 -->
<g id="edge11" class="edge"><title>Node0&#45;&gt;Node11</title>
<path fill="none" stroke="blueviolet" stroke-dasharray="5,2" d="M161.98,-323.498C164.883,-300.705 175.658,-242.972 212,-217.018 262.673,-180.829 339.73,-186.46 382.703,-193.448"/>
<text text-anchor="middle" x="272.5" y="-220.018" font-family="Helvetica,sans-Serif" font-size="10.00">erpc</text>
</g>
<!-- Node0&#45;&gt;Node9 -->
<g id="edge9" class="edge"><title>Node0&#45;&gt;Node9</title>
<path fill="none" stroke="blueviolet" stroke-dasharray="5,2" d="M160.663,-323.413C160.246,-294.942 163.336,-210.65 212,-173.018 260.045,-135.865 335.286,-143.787 379.257,-152.908"/>
<text text-anchor="middle" x="272.5" y="-176.018" font-family="Helvetica,sans-Serif" font-size="10.00">erpc</text>
</g>
<!-- Node0&#45;&gt;Node13 -->
<g id="edge14" class="edge"><title>Node0&#45;&gt;Node13</title>
<path fill="none" stroke="blueviolet" stroke-dasharray="5,2" d="M161.919,-323.339C165.643,-286.384 180.918,-155.006 212,-130.018 232.73,-113.352 299.651,-114.285 350.946,-117.839"/>
<text text-anchor="middle" x="272.5" y="-133.018" font-family="Helvetica,sans-Serif" font-size="10.00">erpc</text>
</g>
<!-- Node0&#45;&gt;Node4 -->
<g id="edge4" class="edge"><title>Node0&#45;&gt;Node4</title>
<path fill="none" stroke="blueviolet" stroke-dasharray="5,2" d="M161.619,-323.369C164.406,-283.216 177.208,-130.054 212,-100.018 236.408,-78.9468 329.398,-80.8468 380.447,-83.6438"/>
<text text-anchor="middle" x="272.5" y="-103.018" font-family="Helvetica,sans-Serif" font-size="10.00">erpc</text>
</g>
<!-- Node0&#45;&gt;Node2 -->
<g id="edge2" class="edge"><title>Node0&#45;&gt;Node2</title>
<path fill="none" stroke="orange" stroke-dasharray="5,2" d="M161.403,-323.26C163.417,-279.587 173.855,-102.606 212,-66.018 233.545,-45.3526 314.021,-38.8906 366.803,-36.8899"/>
<text text-anchor="middle" x="272.5" y="-69.018" font-family="Helvetica,sans-Serif" font-size="10.00">erpc::RPMsgBaseTransport</text>
</g>
<!-- Node0&#45;&gt;Node2 -->
<g id="edge13" class="edge"><title>Node0&#45;&gt;Node2</title>
<path fill="none" stroke="blueviolet" stroke-dasharray="5,2" d="M161,-323.21C161.224,-274.902 164.91,-62.9938 212,-23.018 264.235,21.3261 353.989,-9.21623 394.099,-26.4501"/>
<text text-anchor="middle" x="272.5" y="-26.018" font-family="Helvetica,sans-Serif" font-size="10.00">erpc</text>
</g>
</g>
</svg>
