<?xml version="1.0" encoding="UTF-8" standalone="no"?>
<!DOCTYPE svg PUBLIC "-//W3C//DTD SVG 1.1//EN"
 "http://www.w3.org/Graphics/SVG/1.1/DTD/svg11.dtd">
<!-- Generated by graphviz version 2.38.0 (20140413.2041)
 -->
<!-- Title: CMSIS UART Pages: 1 -->
<svg width="375pt" height="902pt"
 viewBox="0.00 0.00 375.00 902.00" xmlns="http://www.w3.org/2000/svg" xmlns:xlink="http://www.w3.org/1999/xlink">
<g id="graph0" class="graph" transform="scale(1 1) rotate(0) translate(4 898)">
<title>CMSIS UART</title>
<polygon fill="white" stroke="none" points="-4,4 -4,-898 371,-898 371,4 -4,4"/>
<!-- Node1 -->
<g id="node1" class="node"><title>Node1</title>
<g id="a_node1"><a xlink:href="group__transports.html" target="_top" xlink:title="Transport layer classes. ">
<polygon fill="white" stroke="black" points="0,-437.5 0,-456.5 89,-456.5 89,-437.5 0,-437.5"/>
<text text-anchor="middle" x="44.5" y="-444.5" font-family="Helvetica,sans-Serif" font-size="10.00">Transport Layers</text>
</a>
</g>
</g>
<!-- Node0 -->
<g id="node13" class="node"><title>Node0</title>
<polygon fill="#bfbfbf" stroke="black" points="126,-437.5 126,-456.5 202,-456.5 202,-437.5 126,-437.5"/>
<text text-anchor="middle" x="164" y="-444.5" font-family="Helvetica,sans-Serif" font-size="10.00">CMSIS UART</text>
</g>
<!-- Node1&#45;&gt;Node0 -->
<g id="edge1" class="edge"><title>Node1&#45;&gt;Node0</title>
<path fill="none" stroke="black" d="M99.257,-447C108.216,-447 117.332,-447 125.762,-447"/>
<polygon fill="black" stroke="black" points="99.2527,-443.5 89.2527,-447 99.2526,-450.5 99.2527,-443.5"/>
</g>
<!-- Node10 -->
<g id="node2" class="node"><title>Node10</title>
<g id="a_node2"><a xlink:href="group__dspi__slave__transport.html" target="_top" xlink:title="MCUXpressoSDK DSPI slave driver transport. ">
<polygon fill="white" stroke="black" points="279.5,-874.5 279.5,-893.5 344.5,-893.5 344.5,-874.5 279.5,-874.5"/>
<text text-anchor="middle" x="312" y="-881.5" font-family="Helvetica,sans-Serif" font-size="10.00">DSPI Slave</text>
</a>
</g>
</g>
<!-- Node11 -->
<g id="node3" class="node"><title>Node11</title>
<g id="a_node3"><a xlink:href="group__i2c__slave__transport.html" target="_top" xlink:title="MCUXpressoSDK I2C slave driver transport. ">
<polygon fill="white" stroke="black" points="283.5,-836.5 283.5,-855.5 340.5,-855.5 340.5,-836.5 283.5,-836.5"/>
<text text-anchor="middle" x="312" y="-843.5" font-family="Helvetica,sans-Serif" font-size="10.00">I2C Slave</text>
</a>
</g>
</g>
<!-- Node8 -->
<g id="node4" class="node"><title>Node8</title>
<g id="a_node4"><a xlink:href="group__port__threads.html" target="_top" xlink:title="Threading model. ">
<polygon fill="white" stroke="black" points="286.5,-798.5 286.5,-817.5 337.5,-817.5 337.5,-798.5 286.5,-798.5"/>
<text text-anchor="middle" x="312" y="-805.5" font-family="Helvetica,sans-Serif" font-size="10.00">Threads</text>
</a>
</g>
</g>
<!-- Node15 -->
<g id="node5" class="node"><title>Node15</title>
<g id="a_node5"><a xlink:href="group__mbox__transport.html" target="_top" xlink:title="Mbox_transport">
<polygon fill="white" stroke="black" points="270,-760.5 270,-779.5 354,-779.5 354,-760.5 270,-760.5"/>
<text text-anchor="middle" x="312" y="-767.5" font-family="Helvetica,sans-Serif" font-size="10.00">Mbox_transport</text>
</a>
</g>
</g>
<!-- Node16 -->
<g id="node6" class="node"><title>Node16</title>
<g id="a_node6"><a xlink:href="group__mu__transport.html" target="_top" xlink:title="Messaging Unit transport. ">
<polygon fill="white" stroke="black" points="270,-722.5 270,-741.5 354,-741.5 354,-722.5 270,-722.5"/>
<text text-anchor="middle" x="312" y="-729.5" font-family="Helvetica,sans-Serif" font-size="10.00">Messaging Unit</text>
</a>
</g>
</g>
<!-- Node24 -->
<g id="node7" class="node"><title>Node24</title>
<g id="a_node7"><a xlink:href="group__tcp__transport.html" target="_top" xlink:title="Simple TCP/IP transport. ">
<polygon fill="white" stroke="black" points="288.5,-684.5 288.5,-703.5 335.5,-703.5 335.5,-684.5 288.5,-684.5"/>
<text text-anchor="middle" x="312" y="-691.5" font-family="Helvetica,sans-Serif" font-size="10.00">TCP/IP</text>
</a>
</g>
</g>
<!-- Node2 -->
<g id="node8" class="node"><title>Node2</title>
<g id="a_node8"><a xlink:href="group__infra__client.html" target="_top" xlink:title="Client classes. ">
<polygon fill="white" stroke="black" points="291.5,-646.5 291.5,-665.5 332.5,-665.5 332.5,-646.5 291.5,-646.5"/>
<text text-anchor="middle" x="312" y="-653.5" font-family="Helvetica,sans-Serif" font-size="10.00">Client</text>
</a>
</g>
</g>
<!-- Node4 -->
<g id="node9" class="node"><title>Node4</title>
<g id="a_node9"><a xlink:href="group__infra__transport.html" target="_top" xlink:title="Superclasses for building transports. ">
<polygon fill="white" stroke="black" points="281,-608.5 281,-627.5 343,-627.5 343,-608.5 281,-608.5"/>
<text text-anchor="middle" x="312" y="-615.5" font-family="Helvetica,sans-Serif" font-size="10.00">Transports</text>
</a>
</g>
</g>
<!-- Node20 -->
<g id="node10" class="node"><title>Node20</title>
<g id="a_node10"><a xlink:href="group__serial__transport.html" target="_top" xlink:title="POSIX and Win32 serial port transport. ">
<polygon fill="white" stroke="black" points="281.5,-570.5 281.5,-589.5 342.5,-589.5 342.5,-570.5 281.5,-570.5"/>
<text text-anchor="middle" x="312" y="-577.5" font-family="Helvetica,sans-Serif" font-size="10.00">Serial port</text>
</a>
</g>
</g>
<!-- Node5 -->
<g id="node11" class="node"><title>Node5</title>
<g id="a_node11"><a xlink:href="group__infra__utility.html" target="_top" xlink:title="Utility code used by the infrastructure. ">
<polygon fill="white" stroke="black" points="287.5,-532.5 287.5,-551.5 336.5,-551.5 336.5,-532.5 287.5,-532.5"/>
<text text-anchor="middle" x="312" y="-539.5" font-family="Helvetica,sans-Serif" font-size="10.00">Utilities</text>
</a>
</g>
</g>
<!-- Node22 -->
<g id="node12" class="node"><title>Node22</title>
<g id="a_node12"><a xlink:href="group__spi__slave__transport.html" target="_top" xlink:title="MCUXpressoSDK SPI slave driver transport. ">
<polygon fill="white" stroke="black" points="282.5,-494.5 282.5,-513.5 341.5,-513.5 341.5,-494.5 282.5,-494.5"/>
<text text-anchor="middle" x="312" y="-501.5" font-family="Helvetica,sans-Serif" font-size="10.00">SPI Slave</text>
</a>
</g>
</g>
<!-- Node0&#45;&gt;Node10 -->
<g id="edge10" class="edge"><title>Node0&#45;&gt;Node10</title>
<path fill="none" stroke="blueviolet" stroke-dasharray="5,2" d="M165.544,-456.57C168.646,-508.908 185.184,-760.636 220,-829 230.412,-849.445 237.5,-852.91 257,-865 263.842,-869.242 271.76,-872.702 279.389,-875.45"/>
<text text-anchor="middle" x="229.5" y="-855" font-family="Helvetica,sans-Serif" font-size="10.00">erpc</text>
</g>
<!-- Node0&#45;&gt;Node11 -->
<g id="edge11" class="edge"><title>Node0&#45;&gt;Node11</title>
<path fill="none" stroke="blueviolet" stroke-dasharray="5,2" d="M165.715,-456.571C169.507,-505.735 188.303,-729.94 220,-791 230.571,-811.364 237.5,-814.91 257,-827 265.024,-831.975 274.529,-835.874 283.311,-838.811"/>
<text text-anchor="middle" x="229.5" y="-817" font-family="Helvetica,sans-Serif" font-size="10.00">erpc</text>
</g>
<!-- Node0&#45;&gt;Node8 -->
<g id="edge8" class="edge"><title>Node0&#45;&gt;Node8</title>
<path fill="none" stroke="blueviolet" stroke-dasharray="5,2" d="M164.664,-456.688C163.704,-496.149 164.021,-647.663 220,-753 230.767,-773.261 237.5,-776.91 257,-789 265.953,-794.551 276.75,-798.763 286.329,-801.793"/>
<text text-anchor="middle" x="229.5" y="-779" font-family="Helvetica,sans-Serif" font-size="10.00">erpc</text>
</g>
<!-- Node0&#45;&gt;Node15 -->
<g id="edge15" class="edge"><title>Node0&#45;&gt;Node15</title>
<path fill="none" stroke="blueviolet" stroke-dasharray="5,2" d="M164.99,-456.958C165.358,-493.692 170.29,-624.169 220,-715 231.015,-735.127 237.5,-738.91 257,-751 262.997,-754.718 269.821,-757.836 276.553,-760.399"/>
<text text-anchor="middle" x="229.5" y="-741" font-family="Helvetica,sans-Serif" font-size="10.00">erpc</text>
</g>
<!-- Node0&#45;&gt;Node16 -->
<g id="edge16" class="edge"><title>Node0&#45;&gt;Node16</title>
<path fill="none" stroke="blueviolet" stroke-dasharray="5,2" d="M165.424,-456.904C167.233,-490.192 176.377,-600.261 220,-677 231.339,-696.946 237.5,-700.91 257,-713 262.997,-716.718 269.821,-719.836 276.553,-722.399"/>
<text text-anchor="middle" x="229.5" y="-703" font-family="Helvetica,sans-Serif" font-size="10.00">erpc</text>
</g>
<!-- Node0&#45;&gt;Node24 -->
<g id="edge24" class="edge"><title>Node0&#45;&gt;Node24</title>
<path fill="none" stroke="blueviolet" stroke-dasharray="5,2" d="M166.072,-456.817C169.633,-486.199 183.011,-575.285 220,-638 231.815,-658.031 237.319,-662.61 257,-675 266.588,-681.036 278.345,-685.464 288.438,-688.519"/>
<text text-anchor="middle" x="229.5" y="-665" font-family="Helvetica,sans-Serif" font-size="10.00">erpc</text>
</g>
<!-- Node0&#45;&gt;Node2 -->
<g id="edge2" class="edge"><title>Node0&#45;&gt;Node2</title>
<path fill="none" stroke="blueviolet" stroke-dasharray="5,2" d="M166.963,-456.523C172.398,-481.439 189.31,-550.008 220,-599 232.514,-618.976 237.136,-624.309 257,-637 267.469,-643.688 280.589,-648.375 291.275,-651.42"/>
<text text-anchor="middle" x="229.5" y="-626" font-family="Helvetica,sans-Serif" font-size="10.00">erpc</text>
</g>
<!-- Node0&#45;&gt;Node4 -->
<g id="edge4" class="edge"><title>Node0&#45;&gt;Node4</title>
<path fill="none" stroke="blueviolet" stroke-dasharray="5,2" d="M167.556,-456.581C175.475,-484.184 202.413,-564.125 257,-599 264.286,-603.655 272.857,-607.341 280.997,-610.178"/>
<text text-anchor="middle" x="229.5" y="-587" font-family="Helvetica,sans-Serif" font-size="10.00">erpc</text>
</g>
<!-- Node0&#45;&gt;Node20 -->
<g id="edge20" class="edge"><title>Node0&#45;&gt;Node20</title>
<path fill="none" stroke="blueviolet" stroke-dasharray="5,2" d="M169.899,-456.795C181.616,-479.148 213.554,-534.062 257,-561 264.433,-565.609 273.137,-569.294 281.359,-572.146"/>
<text text-anchor="middle" x="229.5" y="-549" font-family="Helvetica,sans-Serif" font-size="10.00">erpc</text>
</g>
<!-- Node0&#45;&gt;Node5 -->
<g id="edge5" class="edge"><title>Node0&#45;&gt;Node5</title>
<path fill="none" stroke="blueviolet" stroke-dasharray="5,2" d="M174.33,-456.722C190.04,-472.596 223.366,-504.195 257,-523 266.455,-528.287 277.648,-532.516 287.385,-535.63"/>
<text text-anchor="middle" x="229.5" y="-513" font-family="Helvetica,sans-Serif" font-size="10.00">erpc</text>
</g>
<!-- Node0&#45;&gt;Node22 -->
<g id="edge22" class="edge"><title>Node0&#45;&gt;Node22</title>
<path fill="none" stroke="blueviolet" stroke-dasharray="5,2" d="M186.313,-456.594C196.465,-461.089 208.807,-466.444 220,-471 236.285,-477.629 240.484,-478.971 257,-485 265.589,-488.135 274.979,-491.471 283.484,-494.458"/>
<text text-anchor="middle" x="229.5" y="-481" font-family="Helvetica,sans-Serif" font-size="10.00">erpc</text>
</g>
<!-- Node23 -->
<g id="node14" class="node"><title>Node23</title>
<g id="a_node14"><a xlink:href="group__spidev__master__transport.html" target="_top" xlink:title="SPIdev Linux transport. ">
<polygon fill="white" stroke="black" points="259,-456.5 259,-475.5 365,-475.5 365,-456.5 259,-456.5"/>
<text text-anchor="middle" x="312" y="-463.5" font-family="Helvetica,sans-Serif" font-size="10.00">SPIdev Linux Master</text>
</a>
</g>
</g>
<!-- Node0&#45;&gt;Node23 -->
<g id="edge23" class="edge"><title>Node0&#45;&gt;Node23</title>
<path fill="none" stroke="blueviolet" stroke-dasharray="5,2" d="M202.22,-451.844C219.455,-454.087 240.225,-456.789 258.977,-459.23"/>
<text text-anchor="middle" x="229.5" y="-459" font-family="Helvetica,sans-Serif" font-size="10.00">erpc</text>
</g>
<!-- Node21 -->
<g id="node15" class="node"><title>Node21</title>
<g id="a_node15"><a xlink:href="group__spi__master__transport.html" target="_top" xlink:title="MCUXpressoSDK SPI master driver transport. ">
<polygon fill="white" stroke="black" points="279.5,-418.5 279.5,-437.5 344.5,-437.5 344.5,-418.5 279.5,-418.5"/>
<text text-anchor="middle" x="312" y="-425.5" font-family="Helvetica,sans-Serif" font-size="10.00">SPI Master</text>
</a>
</g>
</g>
<!-- Node0&#45;&gt;Node21 -->
<g id="edge21" class="edge"><title>Node0&#45;&gt;Node21</title>
<path fill="none" stroke="blueviolet" stroke-dasharray="5,2" d="M198.234,-437.436C205.363,-435.696 212.89,-434.09 220,-433 239.55,-430.004 261.704,-428.742 279.258,-428.234"/>
<text text-anchor="middle" x="229.5" y="-436" font-family="Helvetica,sans-Serif" font-size="10.00">erpc</text>
</g>
<!-- Node19 -->
<g id="node16" class="node"><title>Node19</title>
<g id="a_node16"><a xlink:href="group__rpmsg__tty__rtos__transport.html" target="_top" xlink:title="RPMsg TTY RTOS transport. ">
<polygon fill="white" stroke="black" points="263,-380.5 263,-399.5 361,-399.5 361,-380.5 263,-380.5"/>
<text text-anchor="middle" x="312" y="-387.5" font-family="Helvetica,sans-Serif" font-size="10.00">RPMsg TTY RTOS</text>
</a>
</g>
</g>
<!-- Node0&#45;&gt;Node19 -->
<g id="edge19" class="edge"><title>Node0&#45;&gt;Node19</title>
<path fill="none" stroke="blueviolet" stroke-dasharray="5,2" d="M179.402,-437.227C190.196,-430.255 205.536,-421.073 220,-415 234.955,-408.721 251.953,-403.559 267.176,-399.59"/>
<text text-anchor="middle" x="229.5" y="-418" font-family="Helvetica,sans-Serif" font-size="10.00">erpc</text>
</g>
<!-- Node6 -->
<g id="node17" class="node"><title>Node6</title>
<g id="a_node17"><a xlink:href="group__infra__server.html" target="_top" xlink:title="Server classes. ">
<polygon fill="white" stroke="black" points="290,-342.5 290,-361.5 334,-361.5 334,-342.5 290,-342.5"/>
<text text-anchor="middle" x="312" y="-349.5" font-family="Helvetica,sans-Serif" font-size="10.00">Server</text>
</a>
</g>
</g>
<!-- Node0&#45;&gt;Node6 -->
<g id="edge6" class="edge"><title>Node0&#45;&gt;Node6</title>
<path fill="none" stroke="blueviolet" stroke-dasharray="5,2" d="M173.715,-437.107C184.069,-425.687 202.19,-406.718 220,-393 235.157,-381.326 239.669,-379.104 257,-371 267.533,-366.075 279.718,-361.683 289.844,-358.366"/>
<text text-anchor="middle" x="229.5" y="-396" font-family="Helvetica,sans-Serif" font-size="10.00">erpc</text>
</g>
<!-- Node13 -->
<g id="node18" class="node"><title>Node13</title>
<g id="a_node18"><a xlink:href="group__lpi2c__slave__transport.html" target="_top" xlink:title="Lpi2c_slave_transport">
<polygon fill="white" stroke="black" points="257,-304.5 257,-323.5 367,-323.5 367,-304.5 257,-304.5"/>
<text text-anchor="middle" x="312" y="-311.5" font-family="Helvetica,sans-Serif" font-size="10.00">Lpi2c_slave_transport</text>
</a>
</g>
</g>
<!-- Node0&#45;&gt;Node13 -->
<g id="edge13" class="edge"><title>Node0&#45;&gt;Node13</title>
<path fill="none" stroke="blueviolet" stroke-dasharray="5,2" d="M169.595,-437.317C180.887,-414.707 212.362,-358.431 257,-333 263.476,-329.31 270.793,-326.152 277.901,-323.53"/>
<text text-anchor="middle" x="229.5" y="-365" font-family="Helvetica,sans-Serif" font-size="10.00">erpc</text>
</g>
<!-- Node12 -->
<g id="node19" class="node"><title>Node12</title>
<g id="a_node19"><a xlink:href="group__itbp__transport.html" target="_top" xlink:title="Simple inter&#45;thread communications transport. ">
<polygon fill="white" stroke="black" points="279.5,-266.5 279.5,-285.5 344.5,-285.5 344.5,-266.5 279.5,-266.5"/>
<text text-anchor="middle" x="312" y="-273.5" font-family="Helvetica,sans-Serif" font-size="10.00">Inter&#45;thread</text>
</a>
</g>
</g>
<!-- Node0&#45;&gt;Node12 -->
<g id="edge12" class="edge"><title>Node0&#45;&gt;Node12</title>
<path fill="none" stroke="blueviolet" stroke-dasharray="5,2" d="M168.237,-437.362C175.465,-416.656 194.326,-366.893 220,-331 233.348,-312.339 237.5,-307.09 257,-295 263.842,-290.758 271.76,-287.298 279.389,-284.55"/>
<text text-anchor="middle" x="229.5" y="-334" font-family="Helvetica,sans-Serif" font-size="10.00">erpc</text>
</g>
<!-- Node9 -->
<g id="node20" class="node"><title>Node9</title>
<g id="a_node20"><a xlink:href="group__dspi__master__transport.html" target="_top" xlink:title="MCUXpressoSDK DSPI master driver transport. ">
<polygon fill="white" stroke="black" points="276,-228.5 276,-247.5 348,-247.5 348,-228.5 276,-228.5"/>
<text text-anchor="middle" x="312" y="-235.5" font-family="Helvetica,sans-Serif" font-size="10.00">DSPI Master</text>
</a>
</g>
</g>
<!-- Node0&#45;&gt;Node9 -->
<g id="edge9" class="edge"><title>Node0&#45;&gt;Node9</title>
<path fill="none" stroke="blueviolet" stroke-dasharray="5,2" d="M166.857,-437.302C172.038,-411.939 188.388,-342.204 220,-293 232.402,-273.697 237.5,-269.09 257,-257 262.997,-253.282 269.821,-250.164 276.553,-247.601"/>
<text text-anchor="middle" x="229.5" y="-296" font-family="Helvetica,sans-Serif" font-size="10.00">erpc</text>
</g>
<!-- Node25 -->
<g id="node21" class="node"><title>Node25</title>
<g id="a_node21"><a xlink:href="group___u_s_b___c_d_c__transport.html" target="_top" xlink:title="USB CDC transport. ">
<polygon fill="white" stroke="black" points="282,-190.5 282,-209.5 342,-209.5 342,-190.5 282,-190.5"/>
<text text-anchor="middle" x="312" y="-197.5" font-family="Helvetica,sans-Serif" font-size="10.00">USB CDC</text>
</a>
</g>
</g>
<!-- Node0&#45;&gt;Node25 -->
<g id="edge25" class="edge"><title>Node0&#45;&gt;Node25</title>
<path fill="none" stroke="blueviolet" stroke-dasharray="5,2" d="M165.92,-437.452C169.11,-408.064 181.683,-317.147 220,-254 231.743,-234.648 237.678,-230.793 257,-219 264.635,-214.34 273.576,-210.609 281.961,-207.728"/>
<text text-anchor="middle" x="229.5" y="-257" font-family="Helvetica,sans-Serif" font-size="10.00">erpc</text>
</g>
<!-- Node3 -->
<g id="node22" class="node"><title>Node3</title>
<g id="a_node22"><a xlink:href="group__infra__codec.html" target="_top" xlink:title="Classes used for message serialization. ">
<polygon fill="white" stroke="black" points="277,-152.5 277,-171.5 347,-171.5 347,-152.5 277,-152.5"/>
<text text-anchor="middle" x="312" y="-159.5" font-family="Helvetica,sans-Serif" font-size="10.00">Serialization</text>
</a>
</g>
</g>
<!-- Node0&#45;&gt;Node3 -->
<g id="edge3" class="edge"><title>Node0&#45;&gt;Node3</title>
<path fill="none" stroke="blueviolet" stroke-dasharray="5,2" d="M165.349,-437.492C166.935,-404.553 175.488,-293.123 220,-216 231.315,-196.395 237.678,-192.793 257,-181 263.108,-177.272 270.052,-174.138 276.878,-171.559"/>
<text text-anchor="middle" x="229.5" y="-219" font-family="Helvetica,sans-Serif" font-size="10.00">erpc</text>
</g>
<!-- Node17 -->
<g id="node23" class="node"><title>Node17</title>
<g id="a_node23"><a xlink:href="group__rpmsg__lite__rtos__transport.html" target="_top" xlink:title="RPMsg&#45;Lite zero copy transport using RTOS API. ">
<polygon fill="white" stroke="black" points="263.5,-114.5 263.5,-133.5 360.5,-133.5 360.5,-114.5 263.5,-114.5"/>
<text text-anchor="middle" x="312" y="-121.5" font-family="Helvetica,sans-Serif" font-size="10.00">RPMsg&#45;Lite RTOS</text>
</a>
</g>
</g>
<!-- Node0&#45;&gt;Node17 -->
<g id="edge17" class="edge"><title>Node0&#45;&gt;Node17</title>
<path fill="none" stroke="blueviolet" stroke-dasharray="5,2" d="M164.885,-437.426C164.853,-400.959 168.465,-268.212 220,-177 230.986,-157.556 237.853,-154.497 257,-143 263.22,-139.265 270.283,-136.116 277.204,-133.521"/>
<text text-anchor="middle" x="229.5" y="-180" font-family="Helvetica,sans-Serif" font-size="10.00">erpc</text>
</g>
<!-- Node18 -->
<g id="node24" class="node"><title>Node18</title>
<g id="a_node24"><a xlink:href="group__rpmsg__lite__transport.html" target="_top" xlink:title="RPMsg&#45;Lite zero copy transport. ">
<polygon fill="white" stroke="black" points="278,-76.5 278,-95.5 346,-95.5 346,-76.5 278,-76.5"/>
<text text-anchor="middle" x="312" y="-83.5" font-family="Helvetica,sans-Serif" font-size="10.00">RPMsg&#45;Lite</text>
</a>
</g>
</g>
<!-- Node0&#45;&gt;Node18 -->
<g id="edge18" class="edge"><title>Node0&#45;&gt;Node18</title>
<path fill="none" stroke="blueviolet" stroke-dasharray="5,2" d="M164.572,-437.472C163.217,-398.003 162.089,-244.461 220,-139 230.749,-119.424 237.853,-116.497 257,-105 263.39,-101.163 270.671,-97.9434 277.772,-95.3089"/>
<text text-anchor="middle" x="229.5" y="-142" font-family="Helvetica,sans-Serif" font-size="10.00">erpc</text>
</g>
<!-- Node7 -->
<g id="node25" class="node"><title>Node7</title>
<g id="a_node25"><a xlink:href="group__port__setup__extensions.html" target="_top" xlink:title="Extension setup functions. ">
<polygon fill="white" stroke="black" points="267.5,-38.5 267.5,-57.5 356.5,-57.5 356.5,-38.5 267.5,-38.5"/>
<text text-anchor="middle" x="312" y="-45.5" font-family="Helvetica,sans-Serif" font-size="10.00">Extension Setup</text>
</a>
</g>
</g>
<!-- Node0&#45;&gt;Node7 -->
<g id="edge7" class="edge"><title>Node0&#45;&gt;Node7</title>
<path fill="none" stroke="blueviolet" stroke-dasharray="5,2" d="M165.677,-437.356C169.279,-387.822 187.278,-161.96 220,-101 231.76,-79.092 256.707,-65.5032 277.512,-57.5776"/>
<text text-anchor="middle" x="229.5" y="-104" font-family="Helvetica,sans-Serif" font-size="10.00">erpc</text>
</g>
<!-- Node14 -->
<g id="node26" class="node"><title>Node14</title>
<g id="a_node26"><a xlink:href="group__lpspi__slave__transport.html" target="_top" xlink:title="Lpspi_slave_transport">
<polygon fill="white" stroke="black" points="257,-0.5 257,-19.5 367,-19.5 367,-0.5 257,-0.5"/>
<text text-anchor="middle" x="312" y="-7.5" font-family="Helvetica,sans-Serif" font-size="10.00">Lpspi_slave_transport</text>
</a>
</g>
</g>
<!-- Node0&#45;&gt;Node14 -->
<g id="edge14" class="edge"><title>Node0&#45;&gt;Node14</title>
<path fill="none" stroke="blueviolet" stroke-dasharray="5,2" d="M165.526,-437.397C168.528,-384.878 184.625,-132.298 220,-64 230.411,-43.8999 237.678,-40.7925 257,-29 263.108,-25.2722 270.052,-22.1384 276.878,-19.5592"/>
<text text-anchor="middle" x="229.5" y="-67" font-family="Helvetica,sans-Serif" font-size="10.00">erpc</text>
</g>
</g>
</svg>
