<?xml version="1.0" encoding="UTF-8" standalone="no"?>
<!DOCTYPE svg PUBLIC "-//W3C//DTD SVG 1.1//EN"
 "http://www.w3.org/Graphics/SVG/1.1/DTD/svg11.dtd">
<!-- Generated by graphviz version 2.38.0 (20140413.2041)
 -->
<!-- Title: RPMsg&#45;Lite RTOS Pages: 1 -->
<svg width="494pt" height="824pt"
 viewBox="0.00 0.00 494.00 824.46" xmlns="http://www.w3.org/2000/svg" xmlns:xlink="http://www.w3.org/1999/xlink">
<g id="graph0" class="graph" transform="scale(1 1) rotate(0) translate(4 820.465)">
<title>RPMsg&#45;Lite RTOS</title>
<polygon fill="white" stroke="none" points="-4,4 -4,-820.465 490,-820.465 490,4 -4,4"/>
<!-- Node1 -->
<g id="node1" class="node"><title>Node1</title>
<g id="a_node1"><a xlink:href="group__transports.html" target="_top" xlink:title="Transport layer classes. ">
<polygon fill="white" stroke="black" points="0,-386.965 0,-405.965 89,-405.965 89,-386.965 0,-386.965"/>
<text text-anchor="middle" x="44.5" y="-393.965" font-family="Helvetica,sans-Serif" font-size="10.00">Transport Layers</text>
</a>
</g>
</g>
<!-- Node0 -->
<g id="node21" class="node"><title>Node0</title>
<polygon fill="#bfbfbf" stroke="black" points="126,-386.965 126,-405.965 223,-405.965 223,-386.965 126,-386.965"/>
<text text-anchor="middle" x="174.5" y="-393.965" font-family="Helvetica,sans-Serif" font-size="10.00">RPMsg&#45;Lite RTOS</text>
</g>
<!-- Node1&#45;&gt;Node0 -->
<g id="edge1" class="edge"><title>Node1&#45;&gt;Node0</title>
<path fill="none" stroke="black" d="M99.2923,-396.465C108.032,-396.465 117.033,-396.465 125.62,-396.465"/>
<polygon fill="black" stroke="black" points="99.1924,-392.965 89.1923,-396.465 99.1923,-399.965 99.1924,-392.965"/>
</g>
<!-- Node11 -->
<g id="node2" class="node"><title>Node11</title>
<g id="a_node2"><a xlink:href="group__dspi__slave__transport.html" target="_top" xlink:title="MCUXpressoSDK DSPI slave driver transport. ">
<polygon fill="white" stroke="black" points="400.5,-785.965 400.5,-804.965 465.5,-804.965 465.5,-785.965 400.5,-785.965"/>
<text text-anchor="middle" x="433" y="-792.965" font-family="Helvetica,sans-Serif" font-size="10.00">DSPI Slave</text>
</a>
</g>
</g>
<!-- Node12 -->
<g id="node3" class="node"><title>Node12</title>
<g id="a_node3"><a xlink:href="group__i2c__slave__transport.html" target="_top" xlink:title="MCUXpressoSDK I2C slave driver transport. ">
<polygon fill="white" stroke="black" points="404.5,-747.965 404.5,-766.965 461.5,-766.965 461.5,-747.965 404.5,-747.965"/>
<text text-anchor="middle" x="433" y="-754.965" font-family="Helvetica,sans-Serif" font-size="10.00">I2C Slave</text>
</a>
</g>
</g>
<!-- Node9 -->
<g id="node4" class="node"><title>Node9</title>
<g id="a_node4"><a xlink:href="group__port__threads.html" target="_top" xlink:title="Threading model. ">
<polygon fill="white" stroke="black" points="407.5,-709.965 407.5,-728.965 458.5,-728.965 458.5,-709.965 407.5,-709.965"/>
<text text-anchor="middle" x="433" y="-716.965" font-family="Helvetica,sans-Serif" font-size="10.00">Threads</text>
</a>
</g>
</g>
<!-- Node14 -->
<g id="node5" class="node"><title>Node14</title>
<g id="a_node5"><a xlink:href="group__mu__transport.html" target="_top" xlink:title="Messaging Unit transport. ">
<polygon fill="white" stroke="black" points="391,-671.965 391,-690.965 475,-690.965 475,-671.965 391,-671.965"/>
<text text-anchor="middle" x="433" y="-678.965" font-family="Helvetica,sans-Serif" font-size="10.00">Messaging Unit</text>
</a>
</g>
</g>
<!-- Node20 -->
<g id="node6" class="node"><title>Node20</title>
<g id="a_node6"><a xlink:href="group__tcp__transport.html" target="_top" xlink:title="Simple TCP/IP transport. ">
<polygon fill="white" stroke="black" points="409.5,-633.965 409.5,-652.965 456.5,-652.965 456.5,-633.965 409.5,-633.965"/>
<text text-anchor="middle" x="433" y="-640.965" font-family="Helvetica,sans-Serif" font-size="10.00">TCP/IP</text>
</a>
</g>
</g>
<!-- Node3 -->
<g id="node7" class="node"><title>Node3</title>
<g id="a_node7"><a xlink:href="group__infra__client.html" target="_top" xlink:title="Client classes. ">
<polygon fill="white" stroke="black" points="412.5,-595.965 412.5,-614.965 453.5,-614.965 453.5,-595.965 412.5,-595.965"/>
<text text-anchor="middle" x="433" y="-602.965" font-family="Helvetica,sans-Serif" font-size="10.00">Client</text>
</a>
</g>
</g>
<!-- Node5 -->
<g id="node8" class="node"><title>Node5</title>
<g id="a_node8"><a xlink:href="group__infra__transport.html" target="_top" xlink:title="Superclasses for building transports. ">
<polygon fill="white" stroke="black" points="402,-557.965 402,-576.965 464,-576.965 464,-557.965 402,-557.965"/>
<text text-anchor="middle" x="433" y="-564.965" font-family="Helvetica,sans-Serif" font-size="10.00">Transports</text>
</a>
</g>
</g>
<!-- Node16 -->
<g id="node9" class="node"><title>Node16</title>
<g id="a_node9"><a xlink:href="group__serial__transport.html" target="_top" xlink:title="POSIX and Win32 serial port transport. ">
<polygon fill="white" stroke="black" points="402.5,-519.965 402.5,-538.965 463.5,-538.965 463.5,-519.965 402.5,-519.965"/>
<text text-anchor="middle" x="433" y="-526.965" font-family="Helvetica,sans-Serif" font-size="10.00">Serial port</text>
</a>
</g>
</g>
<!-- Node6 -->
<g id="node10" class="node"><title>Node6</title>
<g id="a_node10"><a xlink:href="group__infra__utility.html" target="_top" xlink:title="Utility code used by the infrastructure. ">
<polygon fill="white" stroke="black" points="408.5,-481.965 408.5,-500.965 457.5,-500.965 457.5,-481.965 408.5,-481.965"/>
<text text-anchor="middle" x="433" y="-488.965" font-family="Helvetica,sans-Serif" font-size="10.00">Utilities</text>
</a>
</g>
</g>
<!-- Node18 -->
<g id="node11" class="node"><title>Node18</title>
<g id="a_node11"><a xlink:href="group__spi__slave__transport.html" target="_top" xlink:title="MCUXpressoSDK SPI slave driver transport. ">
<polygon fill="white" stroke="black" points="403.5,-443.965 403.5,-462.965 462.5,-462.965 462.5,-443.965 403.5,-443.965"/>
<text text-anchor="middle" x="433" y="-450.965" font-family="Helvetica,sans-Serif" font-size="10.00">SPI Slave</text>
</a>
</g>
</g>
<!-- Node21 -->
<g id="node12" class="node"><title>Node21</title>
<g id="a_node12"><a xlink:href="group__uart__transport.html" target="_top" xlink:title="CMSIS UART driver transport. ">
<polygon fill="white" stroke="black" points="395,-405.965 395,-424.965 471,-424.965 471,-405.965 395,-405.965"/>
<text text-anchor="middle" x="433" y="-412.965" font-family="Helvetica,sans-Serif" font-size="10.00">CMSIS UART</text>
</a>
</g>
</g>
<!-- Node19 -->
<g id="node13" class="node"><title>Node19</title>
<g id="a_node13"><a xlink:href="group__spidev__master__transport.html" target="_top" xlink:title="SPIdev Linux transport. ">
<polygon fill="white" stroke="black" points="380,-367.965 380,-386.965 486,-386.965 486,-367.965 380,-367.965"/>
<text text-anchor="middle" x="433" y="-374.965" font-family="Helvetica,sans-Serif" font-size="10.00">SPIdev Linux Master</text>
</a>
</g>
</g>
<!-- Node17 -->
<g id="node14" class="node"><title>Node17</title>
<g id="a_node14"><a xlink:href="group__spi__master__transport.html" target="_top" xlink:title="MCUXpressoSDK SPI master driver transport. ">
<polygon fill="white" stroke="black" points="400.5,-329.965 400.5,-348.965 465.5,-348.965 465.5,-329.965 400.5,-329.965"/>
<text text-anchor="middle" x="433" y="-336.965" font-family="Helvetica,sans-Serif" font-size="10.00">SPI Master</text>
</a>
</g>
</g>
<!-- Node15 -->
<g id="node15" class="node"><title>Node15</title>
<g id="a_node15"><a xlink:href="group__rpmsg__tty__rtos__transport.html" target="_top" xlink:title="RPMsg TTY RTOS transport. ">
<polygon fill="white" stroke="black" points="384,-291.965 384,-310.965 482,-310.965 482,-291.965 384,-291.965"/>
<text text-anchor="middle" x="433" y="-298.965" font-family="Helvetica,sans-Serif" font-size="10.00">RPMsg TTY RTOS</text>
</a>
</g>
</g>
<!-- Node7 -->
<g id="node16" class="node"><title>Node7</title>
<g id="a_node16"><a xlink:href="group__infra__server.html" target="_top" xlink:title="Server classes. ">
<polygon fill="white" stroke="black" points="411,-253.965 411,-272.965 455,-272.965 455,-253.965 411,-253.965"/>
<text text-anchor="middle" x="433" y="-260.965" font-family="Helvetica,sans-Serif" font-size="10.00">Server</text>
</a>
</g>
</g>
<!-- Node13 -->
<g id="node17" class="node"><title>Node13</title>
<g id="a_node17"><a xlink:href="group__itbp__transport.html" target="_top" xlink:title="Simple inter&#45;thread communications transport. ">
<polygon fill="white" stroke="black" points="400.5,-215.965 400.5,-234.965 465.5,-234.965 465.5,-215.965 400.5,-215.965"/>
<text text-anchor="middle" x="433" y="-222.965" font-family="Helvetica,sans-Serif" font-size="10.00">Inter&#45;thread</text>
</a>
</g>
</g>
<!-- Node10 -->
<g id="node18" class="node"><title>Node10</title>
<g id="a_node18"><a xlink:href="group__dspi__master__transport.html" target="_top" xlink:title="MCUXpressoSDK DSPI master driver transport. ">
<polygon fill="white" stroke="black" points="397,-177.965 397,-196.965 469,-196.965 469,-177.965 397,-177.965"/>
<text text-anchor="middle" x="433" y="-184.965" font-family="Helvetica,sans-Serif" font-size="10.00">DSPI Master</text>
</a>
</g>
</g>
<!-- Node22 -->
<g id="node19" class="node"><title>Node22</title>
<g id="a_node19"><a xlink:href="group___u_s_b___c_d_c__transport.html" target="_top" xlink:title="USB CDC transport. ">
<polygon fill="white" stroke="black" points="403,-139.965 403,-158.965 463,-158.965 463,-139.965 403,-139.965"/>
<text text-anchor="middle" x="433" y="-146.965" font-family="Helvetica,sans-Serif" font-size="10.00">USB CDC</text>
</a>
</g>
</g>
<!-- Node4 -->
<g id="node20" class="node"><title>Node4</title>
<g id="a_node20"><a xlink:href="group__infra__codec.html" target="_top" xlink:title="Classes used for message serialization. ">
<polygon fill="white" stroke="black" points="398,-101.965 398,-120.965 468,-120.965 468,-101.965 398,-101.965"/>
<text text-anchor="middle" x="433" y="-108.965" font-family="Helvetica,sans-Serif" font-size="10.00">Serialization</text>
</a>
</g>
</g>
<!-- Node0&#45;&gt;Node11 -->
<g id="edge11" class="edge"><title>Node0&#45;&gt;Node11</title>
<path fill="none" stroke="blueviolet" stroke-dasharray="5,2" d="M175.696,-406.006C176.994,-459.25 186.105,-719.139 241,-771.465 283.577,-812.048 357.888,-808.173 400.174,-801.788"/>
<text text-anchor="middle" x="301.5" y="-808.465" font-family="Helvetica,sans-Serif" font-size="10.00">erpc</text>
</g>
<!-- Node0&#45;&gt;Node12 -->
<g id="edge12" class="edge"><title>Node0&#45;&gt;Node12</title>
<path fill="none" stroke="blueviolet" stroke-dasharray="5,2" d="M175.907,-405.979C178.243,-455.797 191.622,-686.074 241,-732.465 264.033,-754.104 357.163,-757.418 404.332,-757.671"/>
<text text-anchor="middle" x="301.5" y="-759.465" font-family="Helvetica,sans-Serif" font-size="10.00">erpc</text>
</g>
<!-- Node0&#45;&gt;Node9 -->
<g id="edge9" class="edge"><title>Node0&#45;&gt;Node9</title>
<path fill="none" stroke="blueviolet" stroke-dasharray="5,2" d="M176.17,-406.116C179.614,-452.733 196.89,-654.002 241,-694.465 264.782,-716.28 361.265,-719.411 407.312,-719.631"/>
<text text-anchor="middle" x="301.5" y="-720.465" font-family="Helvetica,sans-Serif" font-size="10.00">erpc</text>
</g>
<!-- Node0&#45;&gt;Node14 -->
<g id="edge14" class="edge"><title>Node0&#45;&gt;Node14</title>
<path fill="none" stroke="blueviolet" stroke-dasharray="5,2" d="M176.489,-406.012C181.114,-448.739 202.049,-621.811 241,-656.465 262.488,-675.582 341.322,-680.296 390.743,-681.331"/>
<text text-anchor="middle" x="301.5" y="-682.465" font-family="Helvetica,sans-Serif" font-size="10.00">erpc</text>
</g>
<!-- Node0&#45;&gt;Node20 -->
<g id="edge21" class="edge"><title>Node0&#45;&gt;Node20</title>
<path fill="none" stroke="blueviolet" stroke-dasharray="5,2" d="M175.008,-406.353C173.854,-441.446 175.087,-560.928 241,-617.465 265.83,-638.763 364.126,-642.694 409.2,-643.363"/>
<text text-anchor="middle" x="301.5" y="-644.465" font-family="Helvetica,sans-Serif" font-size="10.00">erpc</text>
</g>
<!-- Node0&#45;&gt;Node3 -->
<g id="edge3" class="edge"><title>Node0&#45;&gt;Node3</title>
<path fill="none" stroke="blueviolet" stroke-dasharray="5,2" d="M175.697,-406.389C176.899,-437.573 185.165,-534.203 241,-579.465 266.997,-600.539 368.951,-604.554 412.312,-605.302"/>
<text text-anchor="middle" x="301.5" y="-605.465" font-family="Helvetica,sans-Serif" font-size="10.00">erpc</text>
</g>
<!-- Node0&#45;&gt;Node5 -->
<g id="edge5" class="edge"><title>Node0&#45;&gt;Node5</title>
<path fill="none" stroke="blueviolet" stroke-dasharray="5,2" d="M176.687,-406.223C180.49,-432.86 194.946,-507.111 241,-541.465 265.813,-559.974 354.51,-565.31 401.8,-566.846"/>
<text text-anchor="middle" x="301.5" y="-567.465" font-family="Helvetica,sans-Serif" font-size="10.00">erpc</text>
</g>
<!-- Node0&#45;&gt;Node16 -->
<g id="edge17" class="edge"><title>Node0&#45;&gt;Node16</title>
<path fill="none" stroke="blueviolet" stroke-dasharray="5,2" d="M178.122,-406.043C184.644,-427.862 203.817,-481.244 241,-505.465 266.973,-522.383 355.592,-527.385 402.431,-528.856"/>
<text text-anchor="middle" x="301.5" y="-529.465" font-family="Helvetica,sans-Serif" font-size="10.00">erpc</text>
</g>
<!-- Node0&#45;&gt;Node6 -->
<g id="edge6" class="edge"><title>Node0&#45;&gt;Node6</title>
<path fill="none" stroke="blueviolet" stroke-dasharray="5,2" d="M182.234,-406.317C192.855,-420.997 214.987,-448.294 241,-461.465 296.102,-489.363 370.666,-492.656 408.249,-492.301"/>
<text text-anchor="middle" x="301.5" y="-493.465" font-family="Helvetica,sans-Serif" font-size="10.00">erpc</text>
</g>
<!-- Node0&#45;&gt;Node18 -->
<g id="edge19" class="edge"><title>Node0&#45;&gt;Node18</title>
<path fill="none" stroke="blueviolet" stroke-dasharray="5,2" d="M194.238,-405.984C207.092,-412.133 224.705,-419.826 241,-424.465 297.291,-440.489 365.586,-448.142 403.366,-451.391"/>
<text text-anchor="middle" x="301.5" y="-449.465" font-family="Helvetica,sans-Serif" font-size="10.00">erpc</text>
</g>
<!-- Node0&#45;&gt;Node21 -->
<g id="edge22" class="edge"><title>Node0&#45;&gt;Node21</title>
<path fill="none" stroke="blueviolet" stroke-dasharray="5,2" d="M223.145,-399.994C272.838,-403.675 349.683,-409.367 394.999,-412.724"/>
<text text-anchor="middle" x="301.5" y="-412.465" font-family="Helvetica,sans-Serif" font-size="10.00">erpc</text>
</g>
<!-- Node0&#45;&gt;Node19 -->
<g id="edge20" class="edge"><title>Node0&#45;&gt;Node19</title>
<path fill="none" stroke="blueviolet" stroke-dasharray="5,2" d="M214.441,-386.91C223.132,-385.123 232.34,-383.495 241,-382.465 287.773,-376.902 341.424,-375.972 379.931,-376.247"/>
<text text-anchor="middle" x="301.5" y="-385.465" font-family="Helvetica,sans-Serif" font-size="10.00">erpc</text>
</g>
<!-- Node0&#45;&gt;Node17 -->
<g id="edge18" class="edge"><title>Node0&#45;&gt;Node17</title>
<path fill="none" stroke="blueviolet" stroke-dasharray="5,2" d="M189.334,-386.741C202.113,-378.29 221.946,-366.485 241,-360.465 295.235,-343.329 361.951,-339.704 400.465,-339.193"/>
<text text-anchor="middle" x="301.5" y="-363.465" font-family="Helvetica,sans-Serif" font-size="10.00">erpc</text>
</g>
<!-- Node0&#45;&gt;Node15 -->
<g id="edge16" class="edge"><title>Node0&#45;&gt;Node15</title>
<path fill="none" stroke="blueviolet" stroke-dasharray="5,2" d="M181.133,-386.899C191.019,-371.086 213.116,-339.817 241,-325.465 285.573,-302.523 343.487,-298.227 383.805,-298.602"/>
<text text-anchor="middle" x="301.5" y="-328.465" font-family="Helvetica,sans-Serif" font-size="10.00">erpc</text>
</g>
<!-- Node0&#45;&gt;Node7 -->
<g id="edge7" class="edge"><title>Node0&#45;&gt;Node7</title>
<path fill="none" stroke="blueviolet" stroke-dasharray="5,2" d="M177.882,-386.827C184.001,-364.328 202.559,-308.371 241,-283.465 294.024,-249.11 373.206,-254.657 410.765,-259.858"/>
<text text-anchor="middle" x="301.5" y="-286.465" font-family="Helvetica,sans-Serif" font-size="10.00">erpc</text>
</g>
<!-- Node0&#45;&gt;Node13 -->
<g id="edge13" class="edge"><title>Node0&#45;&gt;Node13</title>
<path fill="none" stroke="blueviolet" stroke-dasharray="5,2" d="M176.242,-386.664C178.957,-358.425 191.006,-276.598 241,-240.465 287.907,-206.563 359.287,-211.817 400.202,-218.661"/>
<text text-anchor="middle" x="301.5" y="-243.465" font-family="Helvetica,sans-Serif" font-size="10.00">erpc</text>
</g>
<!-- Node0&#45;&gt;Node10 -->
<g id="edge10" class="edge"><title>Node0&#45;&gt;Node10</title>
<path fill="none" stroke="blueviolet" stroke-dasharray="5,2" d="M175.253,-386.96C174.979,-354.3 178.95,-246.07 241,-198.465 285.799,-164.095 355.326,-170.522 396.984,-178.718"/>
<text text-anchor="middle" x="301.5" y="-201.465" font-family="Helvetica,sans-Serif" font-size="10.00">erpc</text>
</g>
<!-- Node0&#45;&gt;Node22 -->
<g id="edge23" class="edge"><title>Node0&#45;&gt;Node22</title>
<path fill="none" stroke="blueviolet" stroke-dasharray="5,2" d="M176.637,-386.745C181.668,-345.576 203.353,-186.322 241,-156.465 265.244,-137.238 355.534,-142.31 402.772,-146.481"/>
<text text-anchor="middle" x="301.5" y="-159.465" font-family="Helvetica,sans-Serif" font-size="10.00">erpc</text>
</g>
<!-- Node0&#45;&gt;Node4 -->
<g id="edge4" class="edge"><title>Node0&#45;&gt;Node4</title>
<path fill="none" stroke="blueviolet" stroke-dasharray="5,2" d="M176.369,-386.842C180.539,-342.971 200.005,-162.542 241,-127.465 263.818,-107.94 349.412,-107.994 397.914,-109.724"/>
<text text-anchor="middle" x="301.5" y="-130.465" font-family="Helvetica,sans-Serif" font-size="10.00">erpc</text>
</g>
<!-- Node2 -->
<g id="node22" class="node"><title>Node2</title>
<g id="a_node22"><a xlink:href="group__rpmsg__lite__transport.html" target="_top" xlink:title="RPMsg&#45;Lite zero copy transport. ">
<polygon fill="white" stroke="black" points="399,-55.9649 399,-74.9649 467,-74.9649 467,-55.9649 399,-55.9649"/>
<text text-anchor="middle" x="433" y="-62.9649" font-family="Helvetica,sans-Serif" font-size="10.00">RPMsg&#45;Lite</text>
</a>
</g>
</g>
<!-- Node0&#45;&gt;Node2 -->
<g id="edge2" class="edge"><title>Node0&#45;&gt;Node2</title>
<path fill="none" stroke="orange" stroke-dasharray="5,2" d="M176.157,-386.668C179.54,-339.344 196.574,-134.996 241,-93.4649 263.279,-72.6378 350.418,-67.2721 398.933,-65.9103"/>
<text text-anchor="middle" x="301.5" y="-96.4649" font-family="Helvetica,sans-Serif" font-size="10.00">erpc::RPMsgBaseTransport</text>
</g>
<!-- Node0&#45;&gt;Node2 -->
<g id="edge15" class="edge"><title>Node0&#45;&gt;Node2</title>
<path fill="none" stroke="blueviolet" stroke-dasharray="5,2" d="M175.753,-386.942C177.32,-336.042 187.489,-96.7485 241,-52.4649 264.237,-33.2349 350.532,-47.807 398.791,-57.917"/>
<text text-anchor="middle" x="301.5" y="-55.4649" font-family="Helvetica,sans-Serif" font-size="10.00">erpc</text>
</g>
<!-- Node8 -->
<g id="node23" class="node"><title>Node8</title>
<g id="a_node23"><a xlink:href="group__port__setup__extensions.html" target="_top" xlink:title="Extension setup functions. ">
<polygon fill="white" stroke="black" points="388.5,-9.96486 388.5,-28.9649 477.5,-28.9649 477.5,-9.96486 388.5,-9.96486"/>
<text text-anchor="middle" x="433" y="-16.9649" font-family="Helvetica,sans-Serif" font-size="10.00">Extension Setup</text>
</a>
</g>
</g>
<!-- Node0&#45;&gt;Node8 -->
<g id="edge8" class="edge"><title>Node0&#45;&gt;Node8</title>
<path fill="none" stroke="blueviolet" stroke-dasharray="5,2" d="M175.661,-386.653C176.758,-333.078 184.918,-76.5032 241,-27.4649 284.723,10.7665 357.923,0.46681 399.867,-9.8784"/>
<text text-anchor="middle" x="301.5" y="-30.4649" font-family="Helvetica,sans-Serif" font-size="10.00">erpc</text>
</g>
</g>
</svg>
