<?xml version="1.0" encoding="UTF-8" standalone="no"?>
<!DOCTYPE svg PUBLIC "-//W3C//DTD SVG 1.1//EN"
 "http://www.w3.org/Graphics/SVG/1.1/DTD/svg11.dtd">
<!-- Generated by graphviz version 2.38.0 (20140413.2041)
 -->
<!-- Title: Transport Layers Pages: 1 -->
<svg width="230pt" height="446pt"
 viewBox="0.00 0.00 230.00 446.00" xmlns="http://www.w3.org/2000/svg" xmlns:xlink="http://www.w3.org/1999/xlink">
<g id="graph0" class="graph" transform="scale(1 1) rotate(0) translate(4 442)">
<title>Transport Layers</title>
<polygon fill="white" stroke="none" points="-4,4 -4,-442 226,-442 226,4 -4,4"/>
<!-- Node0 -->
<g id="node1" class="node"><title>Node0</title>
<polygon fill="#bfbfbf" stroke="black" points="0,-209.5 0,-228.5 89,-228.5 89,-209.5 0,-209.5"/>
<text text-anchor="middle" x="44.5" y="-216.5" font-family="Helvetica,sans-Serif" font-size="10.00">Transport Layers</text>
</g>
<!-- Node2 -->
<g id="node2" class="node"><title>Node2</title>
<g id="a_node2"><a xlink:href="group__dspi__slave__transport.html" target="_top" xlink:title="Kinetis SDK DSPI slave driver transport. ">
<polygon fill="white" stroke="black" points="141,-418.5 141,-437.5 206,-437.5 206,-418.5 141,-418.5"/>
<text text-anchor="middle" x="173.5" y="-425.5" font-family="Helvetica,sans-Serif" font-size="10.00">DSPI Slave</text>
</a>
</g>
</g>
<!-- Node0&#45;&gt;Node2 -->
<g id="edge2" class="edge"><title>Node0&#45;&gt;Node2</title>
<path fill="none" stroke="black" d="M48.6353,-239.043C55.6009,-277.154 75.8101,-360.58 125,-409 129.431,-413.361 134.99,-416.758 140.729,-419.392"/>
<polygon fill="black" stroke="black" points="52.0128,-238.028 46.8813,-228.759 45.1125,-239.205 52.0128,-238.028"/>
</g>
<!-- Node11 -->
<g id="node3" class="node"><title>Node11</title>
<g id="a_node3"><a xlink:href="group__mu__transport.html" target="_top" xlink:title="Messaging Unit transport. ">
<polygon fill="white" stroke="black" points="131.5,-380.5 131.5,-399.5 215.5,-399.5 215.5,-380.5 131.5,-380.5"/>
<text text-anchor="middle" x="173.5" y="-387.5" font-family="Helvetica,sans-Serif" font-size="10.00">Messaging Unit</text>
</a>
</g>
</g>
<!-- Node0&#45;&gt;Node11 -->
<g id="edge11" class="edge"><title>Node0&#45;&gt;Node11</title>
<path fill="none" stroke="black" d="M50.8524,-238.518C60.5391,-270.411 83.884,-333.855 125,-371 129.218,-374.811 134.296,-377.903 139.54,-380.399"/>
<polygon fill="black" stroke="black" points="54.1366,-237.277 47.9889,-228.648 47.4138,-239.227 54.1366,-237.277"/>
</g>
<!-- Node10 -->
<g id="node4" class="node"><title>Node10</title>
<g id="a_node4"><a xlink:href="group__tcp__transport.html" target="_top" xlink:title="Simple TCP/IP transport. ">
<polygon fill="white" stroke="black" points="150,-342.5 150,-361.5 197,-361.5 197,-342.5 150,-342.5"/>
<text text-anchor="middle" x="173.5" y="-349.5" font-family="Helvetica,sans-Serif" font-size="10.00">TCP/IP</text>
</a>
</g>
</g>
<!-- Node0&#45;&gt;Node10 -->
<g id="edge10" class="edge"><title>Node0&#45;&gt;Node10</title>
<path fill="none" stroke="black" d="M54.2423,-237.796C66.7015,-262.72 91.7857,-306.622 125,-333 132.233,-338.745 141.429,-342.957 149.799,-345.935"/>
<polygon fill="black" stroke="black" points="57.3318,-236.145 49.8233,-228.67 51.0316,-239.196 57.3318,-236.145"/>
</g>
<!-- Node12 -->
<g id="node5" class="node"><title>Node12</title>
<g id="a_node5"><a xlink:href="group__rpmsg__linux__transport.html" target="_top" xlink:title="RPMsg endpoints linux transport. ">
<polygon fill="white" stroke="black" points="126,-304.5 126,-323.5 221,-323.5 221,-304.5 126,-304.5"/>
<text text-anchor="middle" x="173.5" y="-311.5" font-family="Helvetica,sans-Serif" font-size="10.00">RPMsg Endpoints</text>
</a>
</g>
</g>
<!-- Node0&#45;&gt;Node12 -->
<g id="edge12" class="edge"><title>Node0&#45;&gt;Node12</title>
<path fill="none" stroke="black" d="M60.2666,-236.584C75.1714,-253.428 99.5657,-278.636 125,-295 130.677,-298.652 137.169,-301.811 143.493,-304.446"/>
<polygon fill="black" stroke="black" points="62.5727,-233.9 53.3821,-228.629 57.2796,-238.481 62.5727,-233.9"/>
</g>
<!-- Node7 -->
<g id="node6" class="node"><title>Node7</title>
<g id="a_node6"><a xlink:href="group__serial__transport.html" target="_top" xlink:title="POSIX and Win32 serial port transport. ">
<polygon fill="white" stroke="black" points="143,-266.5 143,-285.5 204,-285.5 204,-266.5 143,-266.5"/>
<text text-anchor="middle" x="173.5" y="-273.5" font-family="Helvetica,sans-Serif" font-size="10.00">Serial port</text>
</a>
</g>
</g>
<!-- Node0&#45;&gt;Node7 -->
<g id="edge7" class="edge"><title>Node0&#45;&gt;Node7</title>
<path fill="none" stroke="black" d="M73.9096,-233.134C88.9808,-240.491 107.876,-249.492 125,-257 132.321,-260.21 140.365,-263.511 147.719,-266.443"/>
<polygon fill="black" stroke="black" points="75.1337,-229.836 64.6149,-228.569 72.0479,-236.119 75.1337,-229.836"/>
</g>
<!-- Node4 -->
<g id="node7" class="node"><title>Node4</title>
<g id="a_node7"><a xlink:href="group__spi__slave__transport.html" target="_top" xlink:title="Kinetis SDK SPI slave driver transport. ">
<polygon fill="white" stroke="black" points="144,-228.5 144,-247.5 203,-247.5 203,-228.5 144,-228.5"/>
<text text-anchor="middle" x="173.5" y="-235.5" font-family="Helvetica,sans-Serif" font-size="10.00">SPI Slave</text>
</a>
</g>
</g>
<!-- Node0&#45;&gt;Node4 -->
<g id="edge4" class="edge"><title>Node0&#45;&gt;Node4</title>
<path fill="none" stroke="black" d="M99.1446,-227.026C114.5,-229.323 130.644,-231.738 143.865,-233.716"/>
<polygon fill="black" stroke="black" points="99.614,-223.557 89.2062,-225.539 98.5782,-230.48 99.614,-223.557"/>
</g>
<!-- Node6 -->
<g id="node8" class="node"><title>Node6</title>
<g id="a_node8"><a xlink:href="group__uart__transport.html" target="_top" xlink:title="CMSIS UART driver transport. ">
<polygon fill="white" stroke="black" points="135.5,-190.5 135.5,-209.5 211.5,-209.5 211.5,-190.5 135.5,-190.5"/>
<text text-anchor="middle" x="173.5" y="-197.5" font-family="Helvetica,sans-Serif" font-size="10.00">CMSIS UART</text>
</a>
</g>
</g>
<!-- Node0&#45;&gt;Node6 -->
<g id="edge6" class="edge"><title>Node0&#45;&gt;Node6</title>
<path fill="none" stroke="black" d="M99.2908,-210.953C111.482,-209.129 124.162,-207.232 135.476,-205.539"/>
<polygon fill="black" stroke="black" points="98.5782,-207.52 89.2062,-212.461 99.614,-214.443 98.5782,-207.52"/>
</g>
<!-- Node3 -->
<g id="node9" class="node"><title>Node3</title>
<g id="a_node9"><a xlink:href="group__spi__master__transport.html" target="_top" xlink:title="Kinetis SDK SPI master driver transport. ">
<polygon fill="white" stroke="black" points="141,-152.5 141,-171.5 206,-171.5 206,-152.5 141,-152.5"/>
<text text-anchor="middle" x="173.5" y="-159.5" font-family="Helvetica,sans-Serif" font-size="10.00">SPI Master</text>
</a>
</g>
</g>
<!-- Node0&#45;&gt;Node3 -->
<g id="edge3" class="edge"><title>Node0&#45;&gt;Node3</title>
<path fill="none" stroke="black" d="M73.9096,-204.866C88.9808,-197.509 107.876,-188.508 125,-181 132.321,-177.79 140.365,-174.489 147.719,-171.557"/>
<polygon fill="black" stroke="black" points="72.0479,-201.881 64.6149,-209.431 75.1337,-208.164 72.0479,-201.881"/>
</g>
<!-- Node5 -->
<g id="node10" class="node"><title>Node5</title>
<g id="a_node10"><a xlink:href="group__itbp__transport.html" target="_top" xlink:title="Simple inter&#45;thread communications transport. ">
<polygon fill="white" stroke="black" points="141,-114.5 141,-133.5 206,-133.5 206,-114.5 141,-114.5"/>
<text text-anchor="middle" x="173.5" y="-121.5" font-family="Helvetica,sans-Serif" font-size="10.00">Inter&#45;thread</text>
</a>
</g>
</g>
<!-- Node0&#45;&gt;Node5 -->
<g id="edge5" class="edge"><title>Node0&#45;&gt;Node5</title>
<path fill="none" stroke="black" d="M60.2666,-201.416C75.1714,-184.572 99.5657,-159.364 125,-143 130.677,-139.348 137.169,-136.189 143.493,-133.554"/>
<polygon fill="black" stroke="black" points="57.2796,-199.519 53.3821,-209.371 62.5727,-204.1 57.2796,-199.519"/>
</g>
<!-- Node1 -->
<g id="node11" class="node"><title>Node1</title>
<g id="a_node11"><a xlink:href="group__dspi__master__transport.html" target="_top" xlink:title="Kinetis SDK DSPI master driver transport. ">
<polygon fill="white" stroke="black" points="137.5,-76.5 137.5,-95.5 209.5,-95.5 209.5,-76.5 137.5,-76.5"/>
<text text-anchor="middle" x="173.5" y="-83.5" font-family="Helvetica,sans-Serif" font-size="10.00">DSPI Master</text>
</a>
</g>
</g>
<!-- Node0&#45;&gt;Node1 -->
<g id="edge1" class="edge"><title>Node0&#45;&gt;Node1</title>
<path fill="none" stroke="black" d="M54.2423,-200.204C66.7015,-175.28 91.7857,-131.378 125,-105 129.73,-101.244 135.298,-98.1427 140.926,-95.6134"/>
<polygon fill="black" stroke="black" points="51.0316,-198.804 49.8233,-209.33 57.3318,-201.855 51.0316,-198.804"/>
</g>
<!-- Node8 -->
<g id="node12" class="node"><title>Node8</title>
<g id="a_node12"><a xlink:href="group__rpmsg__lite__rtos__transport.html" target="_top" xlink:title="RPMsg&#45;Lite zero copy transport using RTOS API. ">
<polygon fill="white" stroke="black" points="125,-38.5 125,-57.5 222,-57.5 222,-38.5 125,-38.5"/>
<text text-anchor="middle" x="173.5" y="-45.5" font-family="Helvetica,sans-Serif" font-size="10.00">RPMsg&#45;Lite RTOS</text>
</a>
</g>
</g>
<!-- Node0&#45;&gt;Node8 -->
<g id="edge8" class="edge"><title>Node0&#45;&gt;Node8</title>
<path fill="none" stroke="black" d="M50.8524,-199.482C60.5391,-167.589 83.884,-104.145 125,-67 129.218,-63.1894 134.296,-60.0966 139.54,-57.6009"/>
<polygon fill="black" stroke="black" points="47.4138,-198.773 47.9889,-209.352 54.1366,-200.723 47.4138,-198.773"/>
</g>
<!-- Node9 -->
<g id="node13" class="node"><title>Node9</title>
<g id="a_node13"><a xlink:href="group__rpmsg__lite__transport.html" target="_top" xlink:title="RPMsg&#45;Lite zero copy transport. ">
<polygon fill="white" stroke="black" points="139.5,-0.5 139.5,-19.5 207.5,-19.5 207.5,-0.5 139.5,-0.5"/>
<text text-anchor="middle" x="173.5" y="-7.5" font-family="Helvetica,sans-Serif" font-size="10.00">RPMsg&#45;Lite</text>
</a>
</g>
</g>
<!-- Node0&#45;&gt;Node9 -->
<g id="edge9" class="edge"><title>Node0&#45;&gt;Node9</title>
<path fill="none" stroke="black" d="M48.6353,-198.957C55.6009,-160.846 75.8101,-77.4198 125,-29 129.051,-25.0124 134.045,-21.8311 139.258,-19.3022"/>
<polygon fill="black" stroke="black" points="45.1125,-198.795 46.8813,-209.241 52.0128,-199.972 45.1125,-198.795"/>
</g>
</g>
</svg>
