<?xml version="1.0" encoding="UTF-8" standalone="no"?>
<!DOCTYPE svg PUBLIC "-//W3C//DTD SVG 1.1//EN"
 "http://www.w3.org/Graphics/SVG/1.1/DTD/svg11.dtd">
<!-- Generated by graphviz version 2.38.0 (20140413.2041)
 -->
<!-- Title: TCP/IP Pages: 1 -->
<svg width="342pt" height="750pt"
 viewBox="0.00 0.00 342.00 750.00" xmlns="http://www.w3.org/2000/svg" xmlns:xlink="http://www.w3.org/1999/xlink">
<g id="graph0" class="graph" transform="scale(1 1) rotate(0) translate(4 746)">
<title>TCP/IP</title>
<polygon fill="white" stroke="none" points="-4,4 -4,-746 338,-746 338,4 -4,4"/>
<!-- Node1 -->
<g id="node1" class="node"><title>Node1</title>
<g id="a_node1"><a xlink:href="group__transports.html" target="_top" xlink:title="Transport layer classes. ">
<polygon fill="white" stroke="black" points="0,-361.5 0,-380.5 89,-380.5 89,-361.5 0,-361.5"/>
<text text-anchor="middle" x="44.5" y="-368.5" font-family="Helvetica,sans-Serif" font-size="10.00">Transport Layers</text>
</a>
</g>
</g>
<!-- Node0 -->
<g id="node5" class="node"><title>Node0</title>
<polygon fill="#bfbfbf" stroke="black" points="126,-361.5 126,-380.5 173,-380.5 173,-361.5 126,-361.5"/>
<text text-anchor="middle" x="149.5" y="-368.5" font-family="Helvetica,sans-Serif" font-size="10.00">TCP/IP</text>
</g>
<!-- Node1&#45;&gt;Node0 -->
<g id="edge1" class="edge"><title>Node1&#45;&gt;Node0</title>
<path fill="none" stroke="black" d="M99.3075,-371C108.657,-371 117.904,-371 125.815,-371"/>
<polygon fill="black" stroke="black" points="99.1813,-367.5 89.1813,-371 99.1812,-374.5 99.1813,-367.5"/>
</g>
<!-- Node10 -->
<g id="node2" class="node"><title>Node10</title>
<g id="a_node2"><a xlink:href="group__dspi__slave__transport.html" target="_top" xlink:title="Kinetis SDK DSPI slave driver transport. ">
<polygon fill="white" stroke="black" points="248.5,-722.5 248.5,-741.5 313.5,-741.5 313.5,-722.5 248.5,-722.5"/>
<text text-anchor="middle" x="281" y="-729.5" font-family="Helvetica,sans-Serif" font-size="10.00">DSPI Slave</text>
</a>
</g>
</g>
<!-- Node8 -->
<g id="node3" class="node"><title>Node8</title>
<g id="a_node3"><a xlink:href="group__port__threads.html" target="_top" xlink:title="Threading model. ">
<polygon fill="white" stroke="black" points="255.5,-684.5 255.5,-703.5 306.5,-703.5 306.5,-684.5 255.5,-684.5"/>
<text text-anchor="middle" x="281" y="-691.5" font-family="Helvetica,sans-Serif" font-size="10.00">Threads</text>
</a>
</g>
</g>
<!-- Node12 -->
<g id="node4" class="node"><title>Node12</title>
<g id="a_node4"><a xlink:href="group__mu__transport.html" target="_top" xlink:title="Messaging Unit transport. ">
<polygon fill="white" stroke="black" points="239,-646.5 239,-665.5 323,-665.5 323,-646.5 239,-646.5"/>
<text text-anchor="middle" x="281" y="-653.5" font-family="Helvetica,sans-Serif" font-size="10.00">Messaging Unit</text>
</a>
</g>
</g>
<!-- Node0&#45;&gt;Node10 -->
<g id="edge10" class="edge"><title>Node0&#45;&gt;Node10</title>
<path fill="none" stroke="blueviolet" stroke-dasharray="5,2" d="M150.933,-380.696C153.115,-426.704 163.887,-623.004 191,-677 201.296,-697.504 208.573,-700.793 228,-713 234.266,-716.938 241.468,-720.225 248.474,-722.898"/>
<text text-anchor="middle" x="200.5" y="-703" font-family="Helvetica,sans-Serif" font-size="10.00">erpc</text>
</g>
<!-- Node0&#45;&gt;Node8 -->
<g id="edge8" class="edge"><title>Node0&#45;&gt;Node8</title>
<path fill="none" stroke="blueviolet" stroke-dasharray="5,2" d="M151.131,-380.6C154.03,-422.851 166.972,-592.225 191,-639 201.484,-659.409 208.573,-662.793 228,-675 236.382,-680.267 246.437,-684.372 255.462,-687.396"/>
<text text-anchor="middle" x="200.5" y="-665" font-family="Helvetica,sans-Serif" font-size="10.00">erpc</text>
</g>
<!-- Node0&#45;&gt;Node12 -->
<g id="edge12" class="edge"><title>Node0&#45;&gt;Node12</title>
<path fill="none" stroke="blueviolet" stroke-dasharray="5,2" d="M150.146,-380.88C149.374,-414.093 150.229,-523.951 191,-601 201.731,-621.28 208.573,-624.793 228,-637 233.941,-640.733 240.722,-643.882 247.381,-646.477"/>
<text text-anchor="middle" x="200.5" y="-627" font-family="Helvetica,sans-Serif" font-size="10.00">erpc</text>
</g>
<!-- Node2 -->
<g id="node6" class="node"><title>Node2</title>
<g id="a_node6"><a xlink:href="group__infra__client.html" target="_top" xlink:title="Client classes. ">
<polygon fill="white" stroke="black" points="260.5,-608.5 260.5,-627.5 301.5,-627.5 301.5,-608.5 260.5,-608.5"/>
<text text-anchor="middle" x="281" y="-615.5" font-family="Helvetica,sans-Serif" font-size="10.00">Client</text>
</a>
</g>
</g>
<!-- Node0&#45;&gt;Node2 -->
<g id="edge2" class="edge"><title>Node0&#45;&gt;Node2</title>
<path fill="none" stroke="blueviolet" stroke-dasharray="5,2" d="M150.599,-380.876C151.294,-410.433 156.318,-500.039 191,-563 202.07,-583.097 208.573,-586.793 228,-599 237.929,-605.239 250.204,-609.846 260.334,-612.961"/>
<text text-anchor="middle" x="200.5" y="-589" font-family="Helvetica,sans-Serif" font-size="10.00">erpc</text>
</g>
<!-- Node4 -->
<g id="node7" class="node"><title>Node4</title>
<g id="a_node7"><a xlink:href="group__infra__transport.html" target="_top" xlink:title="Superclasses for building transports. ">
<polygon fill="white" stroke="black" points="250,-570.5 250,-589.5 312,-589.5 312,-570.5 250,-570.5"/>
<text text-anchor="middle" x="281" y="-577.5" font-family="Helvetica,sans-Serif" font-size="10.00">Transports</text>
</a>
</g>
</g>
<!-- Node0&#45;&gt;Node4 -->
<g id="edge4" class="edge"><title>Node0&#45;&gt;Node4</title>
<path fill="none" stroke="blueviolet" stroke-dasharray="5,2" d="M151.301,-380.615C153.749,-405.764 162.773,-474.937 191,-524 202.597,-544.158 208.394,-548.492 228,-561 234.645,-565.239 242.368,-568.712 249.797,-571.474"/>
<text text-anchor="middle" x="200.5" y="-551" font-family="Helvetica,sans-Serif" font-size="10.00">erpc</text>
</g>
<!-- Node16 -->
<g id="node8" class="node"><title>Node16</title>
<g id="a_node8"><a xlink:href="group__serial__transport.html" target="_top" xlink:title="POSIX and Win32 serial port transport. ">
<polygon fill="white" stroke="black" points="250.5,-532.5 250.5,-551.5 311.5,-551.5 311.5,-532.5 250.5,-532.5"/>
<text text-anchor="middle" x="281" y="-539.5" font-family="Helvetica,sans-Serif" font-size="10.00">Serial port</text>
</a>
</g>
</g>
<!-- Node0&#45;&gt;Node16 -->
<g id="edge16" class="edge"><title>Node0&#45;&gt;Node16</title>
<path fill="none" stroke="blueviolet" stroke-dasharray="5,2" d="M152.588,-380.56C157.256,-400.637 169.823,-448.204 191,-483 203.59,-503.687 207.841,-509.58 228,-523 234.801,-527.527 242.818,-531.143 250.494,-533.953"/>
<text text-anchor="middle" x="200.5" y="-512" font-family="Helvetica,sans-Serif" font-size="10.00">erpc</text>
</g>
<!-- Node5 -->
<g id="node9" class="node"><title>Node5</title>
<g id="a_node9"><a xlink:href="group__infra__utility.html" target="_top" xlink:title="Utility code used by the infrastructure. ">
<polygon fill="white" stroke="black" points="256.5,-494.5 256.5,-513.5 305.5,-513.5 305.5,-494.5 256.5,-494.5"/>
<text text-anchor="middle" x="281" y="-501.5" font-family="Helvetica,sans-Serif" font-size="10.00">Utilities</text>
</a>
</g>
</g>
<!-- Node0&#45;&gt;Node5 -->
<g id="edge5" class="edge"><title>Node0&#45;&gt;Node5</title>
<path fill="none" stroke="blueviolet" stroke-dasharray="5,2" d="M153.95,-380.607C162.553,-403.053 187.244,-459 228,-485 236.67,-490.531 247.177,-494.758 256.47,-497.804"/>
<text text-anchor="middle" x="200.5" y="-471" font-family="Helvetica,sans-Serif" font-size="10.00">erpc</text>
</g>
<!-- Node18 -->
<g id="node10" class="node"><title>Node18</title>
<g id="a_node10"><a xlink:href="group__spi__slave__transport.html" target="_top" xlink:title="Kinetis SDK SPI slave driver transport. ">
<polygon fill="white" stroke="black" points="251.5,-456.5 251.5,-475.5 310.5,-475.5 310.5,-456.5 251.5,-456.5"/>
<text text-anchor="middle" x="281" y="-463.5" font-family="Helvetica,sans-Serif" font-size="10.00">SPI Slave</text>
</a>
</g>
</g>
<!-- Node0&#45;&gt;Node18 -->
<g id="edge18" class="edge"><title>Node0&#45;&gt;Node18</title>
<path fill="none" stroke="blueviolet" stroke-dasharray="5,2" d="M157.705,-380.745C170.198,-396.945 197.486,-429.372 228,-447 235.241,-451.183 243.566,-454.717 251.402,-457.56"/>
<text text-anchor="middle" x="200.5" y="-436" font-family="Helvetica,sans-Serif" font-size="10.00">erpc</text>
</g>
<!-- Node20 -->
<g id="node11" class="node"><title>Node20</title>
<g id="a_node11"><a xlink:href="group__uart__transport.html" target="_top" xlink:title="CMSIS UART driver transport. ">
<polygon fill="white" stroke="black" points="243,-418.5 243,-437.5 319,-437.5 319,-418.5 243,-418.5"/>
<text text-anchor="middle" x="281" y="-425.5" font-family="Helvetica,sans-Serif" font-size="10.00">CMSIS UART</text>
</a>
</g>
</g>
<!-- Node0&#45;&gt;Node20 -->
<g id="edge20" class="edge"><title>Node0&#45;&gt;Node20</title>
<path fill="none" stroke="blueviolet" stroke-dasharray="5,2" d="M166.401,-380.672C173.764,-384.983 182.703,-389.984 191,-394 210.652,-403.513 233.7,-412.255 251.418,-418.492"/>
<text text-anchor="middle" x="200.5" y="-404" font-family="Helvetica,sans-Serif" font-size="10.00">erpc</text>
</g>
<!-- Node19 -->
<g id="node12" class="node"><title>Node19</title>
<g id="a_node12"><a xlink:href="group__spidev__master__transport.html" target="_top" xlink:title="SPIdev Linux transport. ">
<polygon fill="white" stroke="black" points="228,-380.5 228,-399.5 334,-399.5 334,-380.5 228,-380.5"/>
<text text-anchor="middle" x="281" y="-387.5" font-family="Helvetica,sans-Serif" font-size="10.00">SPIdev Linux Master</text>
</a>
</g>
</g>
<!-- Node0&#45;&gt;Node19 -->
<g id="edge19" class="edge"><title>Node0&#45;&gt;Node19</title>
<path fill="none" stroke="blueviolet" stroke-dasharray="5,2" d="M173.057,-374.31C188.203,-376.532 208.803,-379.554 227.881,-382.353"/>
<text text-anchor="middle" x="200.5" y="-382" font-family="Helvetica,sans-Serif" font-size="10.00">erpc</text>
</g>
<!-- Node17 -->
<g id="node13" class="node"><title>Node17</title>
<g id="a_node13"><a xlink:href="group__spi__master__transport.html" target="_top" xlink:title="Kinetis SDK SPI master driver transport. ">
<polygon fill="white" stroke="black" points="248.5,-342.5 248.5,-361.5 313.5,-361.5 313.5,-342.5 248.5,-342.5"/>
<text text-anchor="middle" x="281" y="-349.5" font-family="Helvetica,sans-Serif" font-size="10.00">SPI Master</text>
</a>
</g>
</g>
<!-- Node0&#45;&gt;Node17 -->
<g id="edge17" class="edge"><title>Node0&#45;&gt;Node17</title>
<path fill="none" stroke="blueviolet" stroke-dasharray="5,2" d="M173.327,-361.878C179.016,-359.949 185.161,-358.15 191,-357 209.828,-353.292 231.298,-352.003 248.432,-351.659"/>
<text text-anchor="middle" x="200.5" y="-360" font-family="Helvetica,sans-Serif" font-size="10.00">erpc</text>
</g>
<!-- Node15 -->
<g id="node14" class="node"><title>Node15</title>
<g id="a_node14"><a xlink:href="group__rpmsg__tty__rtos__transport.html" target="_top" xlink:title="RPMsg TTY RTOS transport. ">
<polygon fill="white" stroke="black" points="232,-304.5 232,-323.5 330,-323.5 330,-304.5 232,-304.5"/>
<text text-anchor="middle" x="281" y="-311.5" font-family="Helvetica,sans-Serif" font-size="10.00">RPMsg TTY RTOS</text>
</a>
</g>
</g>
<!-- Node0&#45;&gt;Node15 -->
<g id="edge15" class="edge"><title>Node0&#45;&gt;Node15</title>
<path fill="none" stroke="blueviolet" stroke-dasharray="5,2" d="M160.371,-361.349C168.125,-354.251 179.503,-344.859 191,-339 204.013,-332.369 219.02,-327.293 232.96,-323.505"/>
<text text-anchor="middle" x="200.5" y="-342" font-family="Helvetica,sans-Serif" font-size="10.00">erpc</text>
</g>
<!-- Node6 -->
<g id="node15" class="node"><title>Node6</title>
<g id="a_node15"><a xlink:href="group__infra__server.html" target="_top" xlink:title="Server classes. ">
<polygon fill="white" stroke="black" points="259,-266.5 259,-285.5 303,-285.5 303,-266.5 259,-266.5"/>
<text text-anchor="middle" x="281" y="-273.5" font-family="Helvetica,sans-Serif" font-size="10.00">Server</text>
</a>
</g>
</g>
<!-- Node0&#45;&gt;Node6 -->
<g id="edge6" class="edge"><title>Node0&#45;&gt;Node6</title>
<path fill="none" stroke="blueviolet" stroke-dasharray="5,2" d="M155.709,-361.265C162.537,-349.21 175.486,-328.609 191,-315 210.783,-297.645 239.505,-286.959 258.925,-281.259"/>
<text text-anchor="middle" x="200.5" y="-318" font-family="Helvetica,sans-Serif" font-size="10.00">erpc</text>
</g>
<!-- Node11 -->
<g id="node16" class="node"><title>Node11</title>
<g id="a_node16"><a xlink:href="group__itbp__transport.html" target="_top" xlink:title="Simple inter&#45;thread communications transport. ">
<polygon fill="white" stroke="black" points="248.5,-228.5 248.5,-247.5 313.5,-247.5 313.5,-228.5 248.5,-228.5"/>
<text text-anchor="middle" x="281" y="-235.5" font-family="Helvetica,sans-Serif" font-size="10.00">Inter&#45;thread</text>
</a>
</g>
</g>
<!-- Node0&#45;&gt;Node11 -->
<g id="edge11" class="edge"><title>Node0&#45;&gt;Node11</title>
<path fill="none" stroke="blueviolet" stroke-dasharray="5,2" d="M153.557,-361.421C159.125,-344.982 172.114,-310.869 191,-287 204.136,-270.398 209.584,-267.442 228,-257 234.438,-253.35 241.708,-250.176 248.726,-247.523"/>
<text text-anchor="middle" x="200.5" y="-290" font-family="Helvetica,sans-Serif" font-size="10.00">erpc</text>
</g>
<!-- Node9 -->
<g id="node17" class="node"><title>Node9</title>
<g id="a_node17"><a xlink:href="group__dspi__master__transport.html" target="_top" xlink:title="Kinetis SDK DSPI master driver transport. ">
<polygon fill="white" stroke="black" points="245,-190.5 245,-209.5 317,-209.5 317,-190.5 245,-190.5"/>
<text text-anchor="middle" x="281" y="-197.5" font-family="Helvetica,sans-Serif" font-size="10.00">DSPI Master</text>
</a>
</g>
</g>
<!-- Node0&#45;&gt;Node9 -->
<g id="edge9" class="edge"><title>Node0&#45;&gt;Node9</title>
<path fill="none" stroke="blueviolet" stroke-dasharray="5,2" d="M152.121,-361.42C156.023,-340.367 167.411,-289.074 191,-253 203.223,-234.309 208.923,-230.611 228,-219 234.076,-215.302 240.984,-212.155 247.736,-209.548"/>
<text text-anchor="middle" x="200.5" y="-256" font-family="Helvetica,sans-Serif" font-size="10.00">erpc</text>
</g>
<!-- Node21 -->
<g id="node18" class="node"><title>Node21</title>
<g id="a_node18"><a xlink:href="group___u_s_b___c_d_c__transport.html" target="_top" xlink:title="USB CDC transport. ">
<polygon fill="white" stroke="black" points="251,-152.5 251,-171.5 311,-171.5 311,-152.5 251,-152.5"/>
<text text-anchor="middle" x="281" y="-159.5" font-family="Helvetica,sans-Serif" font-size="10.00">USB CDC</text>
</a>
</g>
</g>
<!-- Node0&#45;&gt;Node21 -->
<g id="edge21" class="edge"><title>Node0&#45;&gt;Node21</title>
<path fill="none" stroke="blueviolet" stroke-dasharray="5,2" d="M151.192,-361.214C153.377,-335.627 161.82,-265.307 191,-216 202.529,-196.52 208.749,-192.908 228,-181 235.03,-176.652 243.205,-173.081 250.962,-170.255"/>
<text text-anchor="middle" x="200.5" y="-219" font-family="Helvetica,sans-Serif" font-size="10.00">erpc</text>
</g>
<!-- Node3 -->
<g id="node19" class="node"><title>Node3</title>
<g id="a_node19"><a xlink:href="group__infra__codec.html" target="_top" xlink:title="Classes used for message serialization. ">
<polygon fill="white" stroke="black" points="246,-114.5 246,-133.5 316,-133.5 316,-114.5 246,-114.5"/>
<text text-anchor="middle" x="281" y="-121.5" font-family="Helvetica,sans-Serif" font-size="10.00">Serialization</text>
</a>
</g>
</g>
<!-- Node0&#45;&gt;Node3 -->
<g id="edge3" class="edge"><title>Node0&#45;&gt;Node3</title>
<path fill="none" stroke="blueviolet" stroke-dasharray="5,2" d="M150.484,-361.398C150.838,-331.844 154.965,-240.419 191,-177 202.033,-157.583 208.923,-154.611 228,-143 234.076,-139.302 240.984,-136.155 247.736,-133.548"/>
<text text-anchor="middle" x="200.5" y="-180" font-family="Helvetica,sans-Serif" font-size="10.00">erpc</text>
</g>
<!-- Node13 -->
<g id="node20" class="node"><title>Node13</title>
<g id="a_node20"><a xlink:href="group__rpmsg__lite__rtos__transport.html" target="_top" xlink:title="RPMsg&#45;Lite zero copy transport using RTOS API. ">
<polygon fill="white" stroke="black" points="232.5,-76.5 232.5,-95.5 329.5,-95.5 329.5,-76.5 232.5,-76.5"/>
<text text-anchor="middle" x="281" y="-83.5" font-family="Helvetica,sans-Serif" font-size="10.00">RPMsg&#45;Lite RTOS</text>
</a>
</g>
</g>
<!-- Node0&#45;&gt;Node13 -->
<g id="edge13" class="edge"><title>Node0&#45;&gt;Node13</title>
<path fill="none" stroke="blueviolet" stroke-dasharray="5,2" d="M150.055,-361.454C148.93,-328.381 148.642,-216.495 191,-139 202.903,-117.223 227.835,-103.523 248.291,-95.5206"/>
<text text-anchor="middle" x="200.5" y="-142" font-family="Helvetica,sans-Serif" font-size="10.00">erpc</text>
</g>
<!-- Node14 -->
<g id="node21" class="node"><title>Node14</title>
<g id="a_node21"><a xlink:href="group__rpmsg__lite__transport.html" target="_top" xlink:title="RPMsg&#45;Lite zero copy transport. ">
<polygon fill="white" stroke="black" points="247,-38.5 247,-57.5 315,-57.5 315,-38.5 247,-38.5"/>
<text text-anchor="middle" x="281" y="-45.5" font-family="Helvetica,sans-Serif" font-size="10.00">RPMsg&#45;Lite</text>
</a>
</g>
</g>
<!-- Node0&#45;&gt;Node14 -->
<g id="edge14" class="edge"><title>Node0&#45;&gt;Node14</title>
<path fill="none" stroke="blueviolet" stroke-dasharray="5,2" d="M151.111,-361.356C153.927,-318.913 166.568,-148.781 191,-102 201.479,-81.9355 208.749,-78.9082 228,-67 233.967,-63.3089 240.759,-60.1779 247.421,-57.5877"/>
<text text-anchor="middle" x="200.5" y="-105" font-family="Helvetica,sans-Serif" font-size="10.00">erpc</text>
</g>
<!-- Node7 -->
<g id="node22" class="node"><title>Node7</title>
<g id="a_node22"><a xlink:href="group__port__setup__extensions.html" target="_top" xlink:title="Extension setup functions. ">
<polygon fill="white" stroke="black" points="236.5,-0.5 236.5,-19.5 325.5,-19.5 325.5,-0.5 236.5,-0.5"/>
<text text-anchor="middle" x="281" y="-7.5" font-family="Helvetica,sans-Serif" font-size="10.00">Extension Setup</text>
</a>
</g>
</g>
<!-- Node0&#45;&gt;Node7 -->
<g id="edge7" class="edge"><title>Node0&#45;&gt;Node7</title>
<path fill="none" stroke="blueviolet" stroke-dasharray="5,2" d="M150.894,-361.224C152.895,-314.839 162.964,-116.96 191,-63 202.359,-41.1373 227.05,-27.4958 247.549,-19.5374"/>
<text text-anchor="middle" x="200.5" y="-66" font-family="Helvetica,sans-Serif" font-size="10.00">erpc</text>
</g>
</g>
</svg>
