<?xml version="1.0" encoding="UTF-8" standalone="no"?>
<!DOCTYPE svg PUBLIC "-//W3C//DTD SVG 1.1//EN"
 "http://www.w3.org/Graphics/SVG/1.1/DTD/svg11.dtd">
<!-- Generated by graphviz version 2.38.0 (20140413.2041)
 -->
<!-- Title: Mbox_transport Pages: 1 -->
<svg width="257pt" height="902pt"
 viewBox="0.00 0.00 257.00 902.00" xmlns="http://www.w3.org/2000/svg" xmlns:xlink="http://www.w3.org/1999/xlink">
<g id="graph0" class="graph" transform="scale(1 1) rotate(0) translate(4 898)">
<title>Mbox_transport</title>
<polygon fill="white" stroke="none" points="-4,4 -4,-898 253,-898 253,4 -4,4"/>
<!-- Node9 -->
<g id="node1" class="node"><title>Node9</title>
<g id="a_node1"><a xlink:href="group__dspi__slave__transport.html" target="_top" xlink:title="MCUXpressoSDK DSPI slave driver transport. ">
<polygon fill="white" stroke="black" points="161.5,-874.5 161.5,-893.5 226.5,-893.5 226.5,-874.5 161.5,-874.5"/>
<text text-anchor="middle" x="194" y="-881.5" font-family="Helvetica,sans-Serif" font-size="10.00">DSPI Slave</text>
</a>
</g>
</g>
<!-- Node10 -->
<g id="node2" class="node"><title>Node10</title>
<g id="a_node2"><a xlink:href="group__i2c__slave__transport.html" target="_top" xlink:title="MCUXpressoSDK I2C slave driver transport. ">
<polygon fill="white" stroke="black" points="165.5,-836.5 165.5,-855.5 222.5,-855.5 222.5,-836.5 165.5,-836.5"/>
<text text-anchor="middle" x="194" y="-843.5" font-family="Helvetica,sans-Serif" font-size="10.00">I2C Slave</text>
</a>
</g>
</g>
<!-- Node7 -->
<g id="node3" class="node"><title>Node7</title>
<g id="a_node3"><a xlink:href="group__port__threads.html" target="_top" xlink:title="Threading model. ">
<polygon fill="white" stroke="black" points="168.5,-798.5 168.5,-817.5 219.5,-817.5 219.5,-798.5 168.5,-798.5"/>
<text text-anchor="middle" x="194" y="-805.5" font-family="Helvetica,sans-Serif" font-size="10.00">Threads</text>
</a>
</g>
</g>
<!-- Node0 -->
<g id="node4" class="node"><title>Node0</title>
<polygon fill="#bfbfbf" stroke="black" points="0,-437.5 0,-456.5 84,-456.5 84,-437.5 0,-437.5"/>
<text text-anchor="middle" x="42" y="-444.5" font-family="Helvetica,sans-Serif" font-size="10.00">Mbox_transport</text>
</g>
<!-- Node0&#45;&gt;Node9 -->
<g id="edge9" class="edge"><title>Node0&#45;&gt;Node9</title>
<path fill="none" stroke="blueviolet" stroke-dasharray="5,2" d="M43.6551,-456.573C47.3598,-508.924 66.7801,-760.711 102,-829 112.517,-849.392 119.5,-852.91 139,-865 145.842,-869.242 153.76,-872.702 161.389,-875.45"/>
<text text-anchor="middle" x="111.5" y="-855" font-family="Helvetica,sans-Serif" font-size="10.00">erpc</text>
</g>
<!-- Node0&#45;&gt;Node10 -->
<g id="edge10" class="edge"><title>Node0&#45;&gt;Node10</title>
<path fill="none" stroke="blueviolet" stroke-dasharray="5,2" d="M42.5511,-456.714C41.0054,-499.143 39.066,-671.425 102,-791 112.686,-811.303 119.5,-814.91 139,-827 147.024,-831.975 156.529,-835.874 165.311,-838.811"/>
<text text-anchor="middle" x="111.5" y="-817" font-family="Helvetica,sans-Serif" font-size="10.00">erpc</text>
</g>
<!-- Node0&#45;&gt;Node7 -->
<g id="edge7" class="edge"><title>Node0&#45;&gt;Node7</title>
<path fill="none" stroke="blueviolet" stroke-dasharray="5,2" d="M42.8231,-456.694C42.5052,-496.179 45.2238,-647.771 102,-753 112.895,-773.192 119.5,-776.91 139,-789 147.953,-794.551 158.75,-798.763 168.329,-801.793"/>
<text text-anchor="middle" x="111.5" y="-779" font-family="Helvetica,sans-Serif" font-size="10.00">erpc</text>
</g>
<!-- Node14 -->
<g id="node5" class="node"><title>Node14</title>
<g id="a_node5"><a xlink:href="group__mu__transport.html" target="_top" xlink:title="Messaging Unit transport. ">
<polygon fill="white" stroke="black" points="152,-760.5 152,-779.5 236,-779.5 236,-760.5 152,-760.5"/>
<text text-anchor="middle" x="194" y="-767.5" font-family="Helvetica,sans-Serif" font-size="10.00">Messaging Unit</text>
</a>
</g>
</g>
<!-- Node0&#45;&gt;Node14 -->
<g id="edge14" class="edge"><title>Node0&#45;&gt;Node14</title>
<path fill="none" stroke="blueviolet" stroke-dasharray="5,2" d="M43.1752,-456.963C44.2202,-493.716 51.4892,-624.251 102,-715 113.158,-735.048 119.5,-738.91 139,-751 144.997,-754.718 151.821,-757.836 158.553,-760.399"/>
<text text-anchor="middle" x="111.5" y="-741" font-family="Helvetica,sans-Serif" font-size="10.00">erpc</text>
</g>
<!-- Node22 -->
<g id="node6" class="node"><title>Node22</title>
<g id="a_node6"><a xlink:href="group__tcp__transport.html" target="_top" xlink:title="Simple TCP/IP transport. ">
<polygon fill="white" stroke="black" points="170.5,-722.5 170.5,-741.5 217.5,-741.5 217.5,-722.5 170.5,-722.5"/>
<text text-anchor="middle" x="194" y="-729.5" font-family="Helvetica,sans-Serif" font-size="10.00">TCP/IP</text>
</a>
</g>
</g>
<!-- Node0&#45;&gt;Node22 -->
<g id="edge22" class="edge"><title>Node0&#45;&gt;Node22</title>
<path fill="none" stroke="blueviolet" stroke-dasharray="5,2" d="M43.6364,-456.908C46.1535,-490.208 57.5695,-600.311 102,-677 113.502,-696.853 119.5,-700.91 139,-713 148.629,-718.97 160.391,-723.391 170.476,-726.458"/>
<text text-anchor="middle" x="111.5" y="-703" font-family="Helvetica,sans-Serif" font-size="10.00">erpc</text>
</g>
<!-- Node1 -->
<g id="node7" class="node"><title>Node1</title>
<g id="a_node7"><a xlink:href="group__infra__client.html" target="_top" xlink:title="Client classes. ">
<polygon fill="white" stroke="black" points="173.5,-684.5 173.5,-703.5 214.5,-703.5 214.5,-684.5 173.5,-684.5"/>
<text text-anchor="middle" x="194" y="-691.5" font-family="Helvetica,sans-Serif" font-size="10.00">Client</text>
</a>
</g>
</g>
<!-- Node0&#45;&gt;Node1 -->
<g id="edge1" class="edge"><title>Node0&#45;&gt;Node1</title>
<path fill="none" stroke="blueviolet" stroke-dasharray="5,2" d="M44.3237,-456.817C48.6278,-486.199 64.1934,-575.285 102,-638 114.007,-657.917 119.319,-662.61 139,-675 149.513,-681.618 162.634,-686.304 173.31,-689.365"/>
<text text-anchor="middle" x="111.5" y="-665" font-family="Helvetica,sans-Serif" font-size="10.00">erpc</text>
</g>
<!-- Node3 -->
<g id="node8" class="node"><title>Node3</title>
<g id="a_node8"><a xlink:href="group__infra__transport.html" target="_top" xlink:title="Superclasses for building transports. ">
<polygon fill="white" stroke="black" points="163,-646.5 163,-665.5 225,-665.5 225,-646.5 163,-646.5"/>
<text text-anchor="middle" x="194" y="-653.5" font-family="Helvetica,sans-Serif" font-size="10.00">Transports</text>
</a>
</g>
</g>
<!-- Node0&#45;&gt;Node3 -->
<g id="edge3" class="edge"><title>Node0&#45;&gt;Node3</title>
<path fill="none" stroke="blueviolet" stroke-dasharray="5,2" d="M45.2652,-456.516C51.482,-481.414 70.4756,-549.943 102,-599 114.743,-618.831 119.136,-624.309 139,-637 146.286,-641.655 154.857,-645.341 162.997,-648.178"/>
<text text-anchor="middle" x="111.5" y="-626" font-family="Helvetica,sans-Serif" font-size="10.00">erpc</text>
</g>
<!-- Node18 -->
<g id="node9" class="node"><title>Node18</title>
<g id="a_node9"><a xlink:href="group__serial__transport.html" target="_top" xlink:title="POSIX and Win32 serial port transport. ">
<polygon fill="white" stroke="black" points="163.5,-608.5 163.5,-627.5 224.5,-627.5 224.5,-608.5 163.5,-608.5"/>
<text text-anchor="middle" x="194" y="-615.5" font-family="Helvetica,sans-Serif" font-size="10.00">Serial port</text>
</a>
</g>
</g>
<!-- Node0&#45;&gt;Node18 -->
<g id="edge18" class="edge"><title>Node0&#45;&gt;Node18</title>
<path fill="none" stroke="blueviolet" stroke-dasharray="5,2" d="M45.8348,-456.541C54.5508,-484.036 83.7665,-563.712 139,-599 146.37,-603.709 155.054,-607.425 163.278,-610.275"/>
<text text-anchor="middle" x="111.5" y="-587" font-family="Helvetica,sans-Serif" font-size="10.00">erpc</text>
</g>
<!-- Node4 -->
<g id="node10" class="node"><title>Node4</title>
<g id="a_node10"><a xlink:href="group__infra__utility.html" target="_top" xlink:title="Utility code used by the infrastructure. ">
<polygon fill="white" stroke="black" points="169.5,-570.5 169.5,-589.5 218.5,-589.5 218.5,-570.5 169.5,-570.5"/>
<text text-anchor="middle" x="194" y="-577.5" font-family="Helvetica,sans-Serif" font-size="10.00">Utilities</text>
</a>
</g>
</g>
<!-- Node0&#45;&gt;Node4 -->
<g id="edge4" class="edge"><title>Node0&#45;&gt;Node4</title>
<path fill="none" stroke="blueviolet" stroke-dasharray="5,2" d="M48.2688,-456.73C60.8262,-478.947 94.799,-533.594 139,-561 148.291,-566.761 159.568,-571.079 169.408,-574.13"/>
<text text-anchor="middle" x="111.5" y="-549" font-family="Helvetica,sans-Serif" font-size="10.00">erpc</text>
</g>
<!-- Node20 -->
<g id="node11" class="node"><title>Node20</title>
<g id="a_node11"><a xlink:href="group__spi__slave__transport.html" target="_top" xlink:title="MCUXpressoSDK SPI slave driver transport. ">
<polygon fill="white" stroke="black" points="164.5,-532.5 164.5,-551.5 223.5,-551.5 223.5,-532.5 164.5,-532.5"/>
<text text-anchor="middle" x="194" y="-539.5" font-family="Helvetica,sans-Serif" font-size="10.00">SPI Slave</text>
</a>
</g>
</g>
<!-- Node0&#45;&gt;Node20 -->
<g id="edge20" class="edge"><title>Node0&#45;&gt;Node20</title>
<path fill="none" stroke="blueviolet" stroke-dasharray="5,2" d="M52.8419,-456.657C69.3881,-472.438 104.377,-503.906 139,-523 146.919,-527.367 156.032,-531.031 164.489,-533.939"/>
<text text-anchor="middle" x="111.5" y="-513" font-family="Helvetica,sans-Serif" font-size="10.00">erpc</text>
</g>
<!-- Node23 -->
<g id="node12" class="node"><title>Node23</title>
<g id="a_node12"><a xlink:href="group__uart__transport.html" target="_top" xlink:title="CMSIS UART driver transport. ">
<polygon fill="white" stroke="black" points="156,-494.5 156,-513.5 232,-513.5 232,-494.5 156,-494.5"/>
<text text-anchor="middle" x="194" y="-501.5" font-family="Helvetica,sans-Serif" font-size="10.00">CMSIS UART</text>
</a>
</g>
</g>
<!-- Node0&#45;&gt;Node23 -->
<g id="edge23" class="edge"><title>Node0&#45;&gt;Node23</title>
<path fill="none" stroke="blueviolet" stroke-dasharray="5,2" d="M66.2055,-456.593C77.0541,-461.039 90.1624,-466.354 102,-471 118.367,-477.424 122.484,-478.971 139,-485 147.589,-488.135 156.979,-491.471 165.484,-494.458"/>
<text text-anchor="middle" x="111.5" y="-481" font-family="Helvetica,sans-Serif" font-size="10.00">erpc</text>
</g>
<!-- Node21 -->
<g id="node13" class="node"><title>Node21</title>
<g id="a_node13"><a xlink:href="group__spidev__master__transport.html" target="_top" xlink:title="SPIdev Linux transport. ">
<polygon fill="white" stroke="black" points="141,-456.5 141,-475.5 247,-475.5 247,-456.5 141,-456.5"/>
<text text-anchor="middle" x="194" y="-463.5" font-family="Helvetica,sans-Serif" font-size="10.00">SPIdev Linux Master</text>
</a>
</g>
</g>
<!-- Node0&#45;&gt;Node21 -->
<g id="edge21" class="edge"><title>Node0&#45;&gt;Node21</title>
<path fill="none" stroke="blueviolet" stroke-dasharray="5,2" d="M84.3852,-452.242C101.815,-454.45 122.3,-457.045 140.754,-459.382"/>
<text text-anchor="middle" x="111.5" y="-459" font-family="Helvetica,sans-Serif" font-size="10.00">erpc</text>
</g>
<!-- Node19 -->
<g id="node14" class="node"><title>Node19</title>
<g id="a_node14"><a xlink:href="group__spi__master__transport.html" target="_top" xlink:title="MCUXpressoSDK SPI master driver transport. ">
<polygon fill="white" stroke="black" points="161.5,-418.5 161.5,-437.5 226.5,-437.5 226.5,-418.5 161.5,-418.5"/>
<text text-anchor="middle" x="194" y="-425.5" font-family="Helvetica,sans-Serif" font-size="10.00">SPI Master</text>
</a>
</g>
</g>
<!-- Node0&#45;&gt;Node19 -->
<g id="edge19" class="edge"><title>Node0&#45;&gt;Node19</title>
<path fill="none" stroke="blueviolet" stroke-dasharray="5,2" d="M78.6841,-437.456C86.3289,-435.714 94.3944,-434.102 102,-433 121.574,-430.163 143.728,-428.904 161.277,-428.359"/>
<text text-anchor="middle" x="111.5" y="-436" font-family="Helvetica,sans-Serif" font-size="10.00">erpc</text>
</g>
<!-- Node17 -->
<g id="node15" class="node"><title>Node17</title>
<g id="a_node15"><a xlink:href="group__rpmsg__tty__rtos__transport.html" target="_top" xlink:title="RPMsg TTY RTOS transport. ">
<polygon fill="white" stroke="black" points="145,-380.5 145,-399.5 243,-399.5 243,-380.5 145,-380.5"/>
<text text-anchor="middle" x="194" y="-387.5" font-family="Helvetica,sans-Serif" font-size="10.00">RPMsg TTY RTOS</text>
</a>
</g>
</g>
<!-- Node0&#45;&gt;Node17 -->
<g id="edge17" class="edge"><title>Node0&#45;&gt;Node17</title>
<path fill="none" stroke="blueviolet" stroke-dasharray="5,2" d="M58.5471,-437.289C70.1752,-430.347 86.6492,-421.177 102,-415 117.352,-408.823 134.755,-403.629 150.201,-399.603"/>
<text text-anchor="middle" x="111.5" y="-418" font-family="Helvetica,sans-Serif" font-size="10.00">erpc</text>
</g>
<!-- Node5 -->
<g id="node16" class="node"><title>Node5</title>
<g id="a_node16"><a xlink:href="group__infra__server.html" target="_top" xlink:title="Server classes. ">
<polygon fill="white" stroke="black" points="172,-342.5 172,-361.5 216,-361.5 216,-342.5 172,-342.5"/>
<text text-anchor="middle" x="194" y="-349.5" font-family="Helvetica,sans-Serif" font-size="10.00">Server</text>
</a>
</g>
</g>
<!-- Node0&#45;&gt;Node5 -->
<g id="edge5" class="edge"><title>Node0&#45;&gt;Node5</title>
<path fill="none" stroke="blueviolet" stroke-dasharray="5,2" d="M52.4832,-437.175C63.7155,-425.818 83.2722,-406.909 102,-393 117.359,-381.593 121.669,-379.104 139,-371 149.533,-366.075 161.718,-361.683 171.844,-358.366"/>
<text text-anchor="middle" x="111.5" y="-396" font-family="Helvetica,sans-Serif" font-size="10.00">erpc</text>
</g>
<!-- Node12 -->
<g id="node17" class="node"><title>Node12</title>
<g id="a_node17"><a xlink:href="group__lpi2c__slave__transport.html" target="_top" xlink:title="Lpi2c_slave_transport">
<polygon fill="white" stroke="black" points="139,-304.5 139,-323.5 249,-323.5 249,-304.5 139,-304.5"/>
<text text-anchor="middle" x="194" y="-311.5" font-family="Helvetica,sans-Serif" font-size="10.00">Lpi2c_slave_transport</text>
</a>
</g>
</g>
<!-- Node0&#45;&gt;Node12 -->
<g id="edge12" class="edge"><title>Node0&#45;&gt;Node12</title>
<path fill="none" stroke="blueviolet" stroke-dasharray="5,2" d="M47.9777,-437.424C60.1559,-415.044 93.7908,-359.228 139,-333 145.361,-329.309 152.557,-326.165 159.573,-323.559"/>
<text text-anchor="middle" x="111.5" y="-363" font-family="Helvetica,sans-Serif" font-size="10.00">erpc</text>
</g>
<!-- Node11 -->
<g id="node18" class="node"><title>Node11</title>
<g id="a_node18"><a xlink:href="group__itbp__transport.html" target="_top" xlink:title="Simple inter&#45;thread communications transport. ">
<polygon fill="white" stroke="black" points="161.5,-266.5 161.5,-285.5 226.5,-285.5 226.5,-266.5 161.5,-266.5"/>
<text text-anchor="middle" x="194" y="-273.5" font-family="Helvetica,sans-Serif" font-size="10.00">Inter&#45;thread</text>
</a>
</g>
</g>
<!-- Node0&#45;&gt;Node11 -->
<g id="edge11" class="edge"><title>Node0&#45;&gt;Node11</title>
<path fill="none" stroke="blueviolet" stroke-dasharray="5,2" d="M45.7891,-437.386C54.3813,-409.695 83.2946,-329.539 139,-295 145.842,-290.758 153.76,-287.298 161.389,-284.55"/>
<text text-anchor="middle" x="111.5" y="-329" font-family="Helvetica,sans-Serif" font-size="10.00">erpc</text>
</g>
<!-- Node8 -->
<g id="node19" class="node"><title>Node8</title>
<g id="a_node19"><a xlink:href="group__dspi__master__transport.html" target="_top" xlink:title="MCUXpressoSDK DSPI master driver transport. ">
<polygon fill="white" stroke="black" points="158,-228.5 158,-247.5 230,-247.5 230,-228.5 158,-228.5"/>
<text text-anchor="middle" x="194" y="-235.5" font-family="Helvetica,sans-Serif" font-size="10.00">DSPI Master</text>
</a>
</g>
</g>
<!-- Node0&#45;&gt;Node8 -->
<g id="edge8" class="edge"><title>Node0&#45;&gt;Node8</title>
<path fill="none" stroke="blueviolet" stroke-dasharray="5,2" d="M45.2132,-437.396C51.3045,-412.274 70.0213,-343.16 102,-294 114.681,-274.506 119.319,-269.39 139,-257 144.971,-253.241 151.784,-250.105 158.512,-247.537"/>
<text text-anchor="middle" x="111.5" y="-297" font-family="Helvetica,sans-Serif" font-size="10.00">erpc</text>
</g>
<!-- Node24 -->
<g id="node20" class="node"><title>Node24</title>
<g id="a_node20"><a xlink:href="group___u_s_b___c_d_c__transport.html" target="_top" xlink:title="USB CDC transport. ">
<polygon fill="white" stroke="black" points="164,-190.5 164,-209.5 224,-209.5 224,-190.5 164,-190.5"/>
<text text-anchor="middle" x="194" y="-197.5" font-family="Helvetica,sans-Serif" font-size="10.00">USB CDC</text>
</a>
</g>
</g>
<!-- Node0&#45;&gt;Node24 -->
<g id="edge24" class="edge"><title>Node0&#45;&gt;Node24</title>
<path fill="none" stroke="blueviolet" stroke-dasharray="5,2" d="M44.2712,-437.107C48.429,-407.504 63.6281,-317.781 102,-255 113.965,-235.423 119.5,-231.09 139,-219 146.602,-214.287 155.533,-210.539 163.919,-207.661"/>
<text text-anchor="middle" x="111.5" y="-258" font-family="Helvetica,sans-Serif" font-size="10.00">erpc</text>
</g>
<!-- Node2 -->
<g id="node21" class="node"><title>Node2</title>
<g id="a_node21"><a xlink:href="group__infra__codec.html" target="_top" xlink:title="Classes used for message serialization. ">
<polygon fill="white" stroke="black" points="159,-152.5 159,-171.5 229,-171.5 229,-152.5 159,-152.5"/>
<text text-anchor="middle" x="194" y="-159.5" font-family="Helvetica,sans-Serif" font-size="10.00">Serialization</text>
</a>
</g>
</g>
<!-- Node0&#45;&gt;Node2 -->
<g id="edge2" class="edge"><title>Node0&#45;&gt;Node2</title>
<path fill="none" stroke="blueviolet" stroke-dasharray="5,2" d="M43.5516,-437.488C45.8338,-404.536 56.6777,-293.067 102,-216 113.475,-196.488 119.678,-192.793 139,-181 145.108,-177.272 152.052,-174.138 158.878,-171.559"/>
<text text-anchor="middle" x="111.5" y="-219" font-family="Helvetica,sans-Serif" font-size="10.00">erpc</text>
</g>
<!-- Node15 -->
<g id="node22" class="node"><title>Node15</title>
<g id="a_node22"><a xlink:href="group__rpmsg__lite__rtos__transport.html" target="_top" xlink:title="RPMsg&#45;Lite zero copy transport using RTOS API. ">
<polygon fill="white" stroke="black" points="145.5,-114.5 145.5,-133.5 242.5,-133.5 242.5,-114.5 145.5,-114.5"/>
<text text-anchor="middle" x="194" y="-121.5" font-family="Helvetica,sans-Serif" font-size="10.00">RPMsg&#45;Lite RTOS</text>
</a>
</g>
</g>
<!-- Node0&#45;&gt;Node15 -->
<g id="edge15" class="edge"><title>Node0&#45;&gt;Node15</title>
<path fill="none" stroke="blueviolet" stroke-dasharray="5,2" d="M43.0613,-437.42C43.6934,-400.932 49.6626,-268.117 102,-177 113.124,-157.634 119.853,-154.497 139,-143 145.22,-139.265 152.283,-136.116 159.204,-133.521"/>
<text text-anchor="middle" x="111.5" y="-180" font-family="Helvetica,sans-Serif" font-size="10.00">erpc</text>
</g>
<!-- Node16 -->
<g id="node23" class="node"><title>Node16</title>
<g id="a_node23"><a xlink:href="group__rpmsg__lite__transport.html" target="_top" xlink:title="RPMsg&#45;Lite zero copy transport. ">
<polygon fill="white" stroke="black" points="160,-76.5 160,-95.5 228,-95.5 228,-76.5 160,-76.5"/>
<text text-anchor="middle" x="194" y="-83.5" font-family="Helvetica,sans-Serif" font-size="10.00">RPMsg&#45;Lite</text>
</a>
</g>
</g>
<!-- Node0&#45;&gt;Node16 -->
<g id="edge16" class="edge"><title>Node0&#45;&gt;Node16</title>
<path fill="none" stroke="blueviolet" stroke-dasharray="5,2" d="M42.7271,-437.466C42.0072,-397.97 43.2921,-244.34 102,-139 112.872,-119.492 119.853,-116.497 139,-105 145.39,-101.163 152.671,-97.9434 159.772,-95.3089"/>
<text text-anchor="middle" x="111.5" y="-142" font-family="Helvetica,sans-Serif" font-size="10.00">erpc</text>
</g>
<!-- Node6 -->
<g id="node24" class="node"><title>Node6</title>
<g id="a_node24"><a xlink:href="group__port__setup__extensions.html" target="_top" xlink:title="Extension setup functions. ">
<polygon fill="white" stroke="black" points="149.5,-38.5 149.5,-57.5 238.5,-57.5 238.5,-38.5 149.5,-38.5"/>
<text text-anchor="middle" x="194" y="-45.5" font-family="Helvetica,sans-Serif" font-size="10.00">Extension Setup</text>
</a>
</g>
</g>
<!-- Node0&#45;&gt;Node6 -->
<g id="edge6" class="edge"><title>Node0&#45;&gt;Node6</title>
<path fill="none" stroke="blueviolet" stroke-dasharray="5,2" d="M43.7992,-437.354C48.0298,-387.806 68.8743,-161.888 102,-101 112.673,-81.3823 119.853,-78.4965 139,-67 145.22,-63.2653 152.283,-60.1156 159.204,-57.5209"/>
<text text-anchor="middle" x="111.5" y="-104" font-family="Helvetica,sans-Serif" font-size="10.00">erpc</text>
</g>
<!-- Node13 -->
<g id="node25" class="node"><title>Node13</title>
<g id="a_node25"><a xlink:href="group__lpspi__slave__transport.html" target="_top" xlink:title="Lpspi_slave_transport">
<polygon fill="white" stroke="black" points="139,-0.5 139,-19.5 249,-19.5 249,-0.5 139,-0.5"/>
<text text-anchor="middle" x="194" y="-7.5" font-family="Helvetica,sans-Serif" font-size="10.00">Lpspi_slave_transport</text>
</a>
</g>
</g>
<!-- Node0&#45;&gt;Node13 -->
<g id="edge13" class="edge"><title>Node0&#45;&gt;Node13</title>
<path fill="none" stroke="blueviolet" stroke-dasharray="5,2" d="M43.6175,-437.36C47.1217,-384.645 65.6513,-131.14 102,-63 113.703,-41.0616 138.654,-27.4747 159.474,-19.5575"/>
<text text-anchor="middle" x="111.5" y="-66" font-family="Helvetica,sans-Serif" font-size="10.00">erpc</text>
</g>
</g>
</svg>
