<?xml version="1.0" encoding="UTF-8" standalone="no"?>
<!DOCTYPE svg PUBLIC "-//W3C//DTD SVG 1.1//EN"
 "http://www.w3.org/Graphics/SVG/1.1/DTD/svg11.dtd">
<!-- Generated by graphviz version 2.38.0 (20140413.2041)
 -->
<!-- Title: Inter&#45;thread Pages: 1 -->
<svg width="383pt" height="636pt"
 viewBox="0.00 0.00 383.00 636.00" xmlns="http://www.w3.org/2000/svg" xmlns:xlink="http://www.w3.org/1999/xlink">
<g id="graph0" class="graph" transform="scale(1 1) rotate(0) translate(4 632)">
<title>Inter&#45;thread</title>
<polygon fill="white" stroke="none" points="-4,4 -4,-632 379,-632 379,4 -4,4"/>
<!-- Node1 -->
<g id="node1" class="node"><title>Node1</title>
<g id="a_node1"><a xlink:href="group__transports.html" target="_top" xlink:title="Transport layer classes. ">
<polygon fill="white" stroke="black" points="0,-304.5 0,-323.5 89,-323.5 89,-304.5 0,-304.5"/>
<text text-anchor="middle" x="44.5" y="-311.5" font-family="Helvetica,sans-Serif" font-size="10.00">Transport Layers</text>
</a>
</g>
</g>
<!-- Node0 -->
<g id="node14" class="node"><title>Node0</title>
<polygon fill="#bfbfbf" stroke="black" points="126,-304.5 126,-323.5 191,-323.5 191,-304.5 126,-304.5"/>
<text text-anchor="middle" x="158.5" y="-311.5" font-family="Helvetica,sans-Serif" font-size="10.00">Inter&#45;thread</text>
</g>
<!-- Node1&#45;&gt;Node0 -->
<g id="edge1" class="edge"><title>Node1&#45;&gt;Node0</title>
<path fill="none" stroke="black" d="M99.3357,-314C108.456,-314 117.653,-314 125.957,-314"/>
<polygon fill="black" stroke="black" points="99.1229,-310.5 89.1228,-314 99.1228,-317.5 99.1229,-310.5"/>
</g>
<!-- Node9 -->
<g id="node2" class="node"><title>Node9</title>
<g id="a_node2"><a xlink:href="group__dspi__slave__transport.html" target="_top" xlink:title="Kinetis SDK DSPI slave driver transport. ">
<polygon fill="white" stroke="black" points="278,-608.5 278,-627.5 343,-627.5 343,-608.5 278,-608.5"/>
<text text-anchor="middle" x="310.5" y="-615.5" font-family="Helvetica,sans-Serif" font-size="10.00">DSPI Slave</text>
</a>
</g>
</g>
<!-- Node7 -->
<g id="node3" class="node"><title>Node7</title>
<g id="a_node3"><a xlink:href="group__port__threads.html" target="_top" xlink:title="Threading model. ">
<polygon fill="white" stroke="black" points="285,-570.5 285,-589.5 336,-589.5 336,-570.5 285,-570.5"/>
<text text-anchor="middle" x="310.5" y="-577.5" font-family="Helvetica,sans-Serif" font-size="10.00">Threads</text>
</a>
</g>
</g>
<!-- Node10 -->
<g id="node4" class="node"><title>Node10</title>
<g id="a_node4"><a xlink:href="group__mu__transport.html" target="_top" xlink:title="Messaging Unit transport. ">
<polygon fill="white" stroke="black" points="268.5,-532.5 268.5,-551.5 352.5,-551.5 352.5,-532.5 268.5,-532.5"/>
<text text-anchor="middle" x="310.5" y="-539.5" font-family="Helvetica,sans-Serif" font-size="10.00">Messaging Unit</text>
</a>
</g>
</g>
<!-- Node17 -->
<g id="node5" class="node"><title>Node17</title>
<g id="a_node5"><a xlink:href="group__tcp__transport.html" target="_top" xlink:title="Simple TCP/IP transport. ">
<polygon fill="white" stroke="black" points="287,-494.5 287,-513.5 334,-513.5 334,-494.5 287,-494.5"/>
<text text-anchor="middle" x="310.5" y="-501.5" font-family="Helvetica,sans-Serif" font-size="10.00">TCP/IP</text>
</a>
</g>
</g>
<!-- Node2 -->
<g id="node6" class="node"><title>Node2</title>
<g id="a_node6"><a xlink:href="group__infra__client.html" target="_top" xlink:title="Client classes. ">
<polygon fill="white" stroke="black" points="290,-456.5 290,-475.5 331,-475.5 331,-456.5 290,-456.5"/>
<text text-anchor="middle" x="310.5" y="-463.5" font-family="Helvetica,sans-Serif" font-size="10.00">Client</text>
</a>
</g>
</g>
<!-- Node4 -->
<g id="node7" class="node"><title>Node4</title>
<g id="a_node7"><a xlink:href="group__infra__transport.html" target="_top" xlink:title="Superclasses for building transports. ">
<polygon fill="white" stroke="black" points="279.5,-418.5 279.5,-437.5 341.5,-437.5 341.5,-418.5 279.5,-418.5"/>
<text text-anchor="middle" x="310.5" y="-425.5" font-family="Helvetica,sans-Serif" font-size="10.00">Transports</text>
</a>
</g>
</g>
<!-- Node14 -->
<g id="node8" class="node"><title>Node14</title>
<g id="a_node8"><a xlink:href="group__serial__transport.html" target="_top" xlink:title="POSIX and Win32 serial port transport. ">
<polygon fill="white" stroke="black" points="280,-380.5 280,-399.5 341,-399.5 341,-380.5 280,-380.5"/>
<text text-anchor="middle" x="310.5" y="-387.5" font-family="Helvetica,sans-Serif" font-size="10.00">Serial port</text>
</a>
</g>
</g>
<!-- Node5 -->
<g id="node9" class="node"><title>Node5</title>
<g id="a_node9"><a xlink:href="group__infra__utility.html" target="_top" xlink:title="Utility code used by the infrastructure. ">
<polygon fill="white" stroke="black" points="286,-342.5 286,-361.5 335,-361.5 335,-342.5 286,-342.5"/>
<text text-anchor="middle" x="310.5" y="-349.5" font-family="Helvetica,sans-Serif" font-size="10.00">Utilities</text>
</a>
</g>
</g>
<!-- Node16 -->
<g id="node10" class="node"><title>Node16</title>
<g id="a_node10"><a xlink:href="group__spi__slave__transport.html" target="_top" xlink:title="Kinetis SDK SPI slave driver transport. ">
<polygon fill="white" stroke="black" points="281,-304.5 281,-323.5 340,-323.5 340,-304.5 281,-304.5"/>
<text text-anchor="middle" x="310.5" y="-311.5" font-family="Helvetica,sans-Serif" font-size="10.00">SPI Slave</text>
</a>
</g>
</g>
<!-- Node18 -->
<g id="node11" class="node"><title>Node18</title>
<g id="a_node11"><a xlink:href="group__uart__transport.html" target="_top" xlink:title="CMSIS UART driver transport. ">
<polygon fill="white" stroke="black" points="272.5,-266.5 272.5,-285.5 348.5,-285.5 348.5,-266.5 272.5,-266.5"/>
<text text-anchor="middle" x="310.5" y="-273.5" font-family="Helvetica,sans-Serif" font-size="10.00">CMSIS UART</text>
</a>
</g>
</g>
<!-- Node15 -->
<g id="node12" class="node"><title>Node15</title>
<g id="a_node12"><a xlink:href="group__spi__master__transport.html" target="_top" xlink:title="Kinetis SDK SPI master driver transport. ">
<polygon fill="white" stroke="black" points="278,-228.5 278,-247.5 343,-247.5 343,-228.5 278,-228.5"/>
<text text-anchor="middle" x="310.5" y="-235.5" font-family="Helvetica,sans-Serif" font-size="10.00">SPI Master</text>
</a>
</g>
</g>
<!-- Node6 -->
<g id="node13" class="node"><title>Node6</title>
<g id="a_node13"><a xlink:href="group__infra__server.html" target="_top" xlink:title="Server classes. ">
<polygon fill="white" stroke="black" points="288.5,-190.5 288.5,-209.5 332.5,-209.5 332.5,-190.5 288.5,-190.5"/>
<text text-anchor="middle" x="310.5" y="-197.5" font-family="Helvetica,sans-Serif" font-size="10.00">Server</text>
</a>
</g>
</g>
<!-- Node0&#45;&gt;Node9 -->
<g id="edge9" class="edge"><title>Node0&#45;&gt;Node9</title>
<path fill="none" stroke="blueviolet" stroke-dasharray="5,2" d="M159.366,-323.786C159.297,-358.758 162.606,-479.941 209,-564 219.938,-583.818 226.403,-587.671 246,-599 255.763,-604.644 267.357,-608.751 277.949,-611.671"/>
<text text-anchor="middle" x="218.5" y="-590" font-family="Helvetica,sans-Serif" font-size="10.00">erpc</text>
</g>
<!-- Node0&#45;&gt;Node7 -->
<g id="edge7" class="edge"><title>Node0&#45;&gt;Node7</title>
<path fill="none" stroke="blueviolet" stroke-dasharray="5,2" d="M159.859,-323.515C161.402,-354.558 169.357,-454.914 209,-525 220.296,-544.971 226.218,-549.377 246,-561 257.906,-567.995 272.602,-572.607 284.858,-575.533"/>
<text text-anchor="middle" x="218.5" y="-552" font-family="Helvetica,sans-Serif" font-size="10.00">erpc</text>
</g>
<!-- Node0&#45;&gt;Node10 -->
<g id="edge10" class="edge"><title>Node0&#45;&gt;Node10</title>
<path fill="none" stroke="blueviolet" stroke-dasharray="5,2" d="M160.557,-323.607C163.895,-350.818 176.012,-430.059 209,-486 220.813,-506.032 226.03,-511.082 246,-523 252.818,-527.069 260.574,-530.325 268.267,-532.91"/>
<text text-anchor="middle" x="218.5" y="-513" font-family="Helvetica,sans-Serif" font-size="10.00">erpc</text>
</g>
<!-- Node0&#45;&gt;Node17 -->
<g id="edge17" class="edge"><title>Node0&#45;&gt;Node17</title>
<path fill="none" stroke="blueviolet" stroke-dasharray="5,2" d="M161.679,-323.547C167.12,-346.131 182.783,-404.084 209,-446 221.67,-466.257 225.646,-472.487 246,-485 258.45,-492.654 274.175,-497.39 286.862,-500.219"/>
<text text-anchor="middle" x="218.5" y="-474" font-family="Helvetica,sans-Serif" font-size="10.00">erpc</text>
</g>
<!-- Node0&#45;&gt;Node2 -->
<g id="edge2" class="edge"><title>Node0&#45;&gt;Node2</title>
<path fill="none" stroke="blueviolet" stroke-dasharray="5,2" d="M162.413,-323.541C170.702,-348.856 197.04,-417.78 246,-447 259.537,-455.079 276.771,-459.953 289.869,-462.738"/>
<text text-anchor="middle" x="218.5" y="-434" font-family="Helvetica,sans-Serif" font-size="10.00">erpc</text>
</g>
<!-- Node0&#45;&gt;Node4 -->
<g id="edge4" class="edge"><title>Node0&#45;&gt;Node4</title>
<path fill="none" stroke="blueviolet" stroke-dasharray="5,2" d="M165.264,-323.649C177.48,-343.184 207.994,-387.393 246,-409 256.204,-414.801 268.357,-418.996 279.287,-421.943"/>
<text text-anchor="middle" x="218.5" y="-398" font-family="Helvetica,sans-Serif" font-size="10.00">erpc</text>
</g>
<!-- Node0&#45;&gt;Node14 -->
<g id="edge14" class="edge"><title>Node0&#45;&gt;Node14</title>
<path fill="none" stroke="blueviolet" stroke-dasharray="5,2" d="M171.382,-323.624C187.421,-336.18 217.307,-358.067 246,-371 256.701,-375.823 268.955,-379.819 279.826,-382.881"/>
<text text-anchor="middle" x="218.5" y="-363" font-family="Helvetica,sans-Serif" font-size="10.00">erpc</text>
</g>
<!-- Node0&#45;&gt;Node5 -->
<g id="edge5" class="edge"><title>Node0&#45;&gt;Node5</title>
<path fill="none" stroke="blueviolet" stroke-dasharray="5,2" d="M189.772,-323.536C196.102,-325.428 202.751,-327.34 209,-329 235.122,-335.938 265.394,-342.693 285.831,-347.068"/>
<text text-anchor="middle" x="218.5" y="-336" font-family="Helvetica,sans-Serif" font-size="10.00">erpc</text>
</g>
<!-- Node0&#45;&gt;Node16 -->
<g id="edge16" class="edge"><title>Node0&#45;&gt;Node16</title>
<path fill="none" stroke="blueviolet" stroke-dasharray="5,2" d="M191.311,-314C217.799,-314 255.188,-314 280.778,-314"/>
<text text-anchor="middle" x="218.5" y="-317" font-family="Helvetica,sans-Serif" font-size="10.00">erpc</text>
</g>
<!-- Node0&#45;&gt;Node18 -->
<g id="edge18" class="edge"><title>Node0&#45;&gt;Node18</title>
<path fill="none" stroke="blueviolet" stroke-dasharray="5,2" d="M189.772,-304.464C196.102,-302.572 202.751,-300.66 209,-299 229.759,-293.486 253.139,-288.088 272.121,-283.908"/>
<text text-anchor="middle" x="218.5" y="-302" font-family="Helvetica,sans-Serif" font-size="10.00">erpc</text>
</g>
<!-- Node0&#45;&gt;Node15 -->
<g id="edge15" class="edge"><title>Node0&#45;&gt;Node15</title>
<path fill="none" stroke="blueviolet" stroke-dasharray="5,2" d="M171.344,-304.291C187.341,-291.641 217.18,-269.649 246,-257 256.116,-252.56 267.574,-248.778 277.946,-245.786"/>
<text text-anchor="middle" x="218.5" y="-278" font-family="Helvetica,sans-Serif" font-size="10.00">erpc</text>
</g>
<!-- Node0&#45;&gt;Node6 -->
<g id="edge6" class="edge"><title>Node0&#45;&gt;Node6</title>
<path fill="none" stroke="blueviolet" stroke-dasharray="5,2" d="M165.238,-304.305C177.405,-284.683 207.834,-240.325 246,-219 259.16,-211.647 275.479,-206.844 288.279,-203.907"/>
<text text-anchor="middle" x="218.5" y="-249" font-family="Helvetica,sans-Serif" font-size="10.00">erpc</text>
</g>
<!-- Node8 -->
<g id="node15" class="node"><title>Node8</title>
<g id="a_node15"><a xlink:href="group__dspi__master__transport.html" target="_top" xlink:title="Kinetis SDK DSPI master driver transport. ">
<polygon fill="white" stroke="black" points="274.5,-152.5 274.5,-171.5 346.5,-171.5 346.5,-152.5 274.5,-152.5"/>
<text text-anchor="middle" x="310.5" y="-159.5" font-family="Helvetica,sans-Serif" font-size="10.00">DSPI Master</text>
</a>
</g>
</g>
<!-- Node0&#45;&gt;Node8 -->
<g id="edge8" class="edge"><title>Node0&#45;&gt;Node8</title>
<path fill="none" stroke="blueviolet" stroke-dasharray="5,2" d="M162.391,-304.422C170.626,-279.016 196.841,-209.884 246,-181 254.632,-175.928 264.73,-172.11 274.302,-169.278"/>
<text text-anchor="middle" x="218.5" y="-214" font-family="Helvetica,sans-Serif" font-size="10.00">erpc</text>
</g>
<!-- Node13 -->
<g id="node16" class="node"><title>Node13</title>
<g id="a_node16"><a xlink:href="group__rpmsg__tty__rtos__transport.html" target="_top" xlink:title="Rpmsg_tty_rtos_transport">
<polygon fill="white" stroke="black" points="246,-114.5 246,-133.5 375,-133.5 375,-114.5 246,-114.5"/>
<text text-anchor="middle" x="310.5" y="-121.5" font-family="Helvetica,sans-Serif" font-size="10.00">Rpmsg_tty_rtos_transport</text>
</a>
</g>
</g>
<!-- Node0&#45;&gt;Node13 -->
<g id="edge13" class="edge"><title>Node0&#45;&gt;Node13</title>
<path fill="none" stroke="blueviolet" stroke-dasharray="5,2" d="M161.626,-304.357C166.953,-281.551 182.388,-223.055 209,-181 221.605,-161.081 225.839,-155.215 246,-143 252.299,-139.184 259.417,-136.088 266.551,-133.591"/>
<text text-anchor="middle" x="218.5" y="-184" font-family="Helvetica,sans-Serif" font-size="10.00">erpc</text>
</g>
<!-- Node3 -->
<g id="node17" class="node"><title>Node3</title>
<g id="a_node17"><a xlink:href="group__infra__codec.html" target="_top" xlink:title="Classes used for message serialization. ">
<polygon fill="white" stroke="black" points="275.5,-76.5 275.5,-95.5 345.5,-95.5 345.5,-76.5 275.5,-76.5"/>
<text text-anchor="middle" x="310.5" y="-83.5" font-family="Helvetica,sans-Serif" font-size="10.00">Serialization</text>
</a>
</g>
</g>
<!-- Node0&#45;&gt;Node3 -->
<g id="edge3" class="edge"><title>Node0&#45;&gt;Node3</title>
<path fill="none" stroke="blueviolet" stroke-dasharray="5,2" d="M160.451,-304.234C163.509,-276.583 174.962,-196.125 209,-140 220.738,-120.645 226.403,-116.329 246,-105 254.966,-99.8165 265.476,-95.9294 275.337,-93.0677"/>
<text text-anchor="middle" x="218.5" y="-143" font-family="Helvetica,sans-Serif" font-size="10.00">erpc</text>
</g>
<!-- Node11 -->
<g id="node18" class="node"><title>Node11</title>
<g id="a_node18"><a xlink:href="group__rpmsg__lite__rtos__transport.html" target="_top" xlink:title="RPMsg&#45;Lite zero copy transport using RTOS API. ">
<polygon fill="white" stroke="black" points="262,-38.5 262,-57.5 359,-57.5 359,-38.5 262,-38.5"/>
<text text-anchor="middle" x="310.5" y="-45.5" font-family="Helvetica,sans-Serif" font-size="10.00">RPMsg&#45;Lite RTOS</text>
</a>
</g>
</g>
<!-- Node0&#45;&gt;Node11 -->
<g id="edge11" class="edge"><title>Node0&#45;&gt;Node11</title>
<path fill="none" stroke="blueviolet" stroke-dasharray="5,2" d="M159.755,-304.349C160.98,-272.871 168.07,-171.181 209,-101 220.251,-81.7082 226.585,-78.0377 246,-67 252.702,-63.1895 260.246,-60.0722 267.732,-57.5461"/>
<text text-anchor="middle" x="218.5" y="-104" font-family="Helvetica,sans-Serif" font-size="10.00">erpc</text>
</g>
<!-- Node12 -->
<g id="node19" class="node"><title>Node12</title>
<g id="a_node19"><a xlink:href="group__rpmsg__lite__transport.html" target="_top" xlink:title="RPMsg&#45;Lite zero copy transport. ">
<polygon fill="white" stroke="black" points="276.5,-0.5 276.5,-19.5 344.5,-19.5 344.5,-0.5 276.5,-0.5"/>
<text text-anchor="middle" x="310.5" y="-7.5" font-family="Helvetica,sans-Serif" font-size="10.00">RPMsg&#45;Lite</text>
</a>
</g>
</g>
<!-- Node0&#45;&gt;Node12 -->
<g id="edge12" class="edge"><title>Node0&#45;&gt;Node12</title>
<path fill="none" stroke="blueviolet" stroke-dasharray="5,2" d="M159.314,-304.152C159.067,-268.961 161.85,-147.062 209,-63 219.925,-43.5217 226.585,-40.0377 246,-29 255.303,-23.7109 266.227,-19.7571 276.367,-16.8666"/>
<text text-anchor="middle" x="218.5" y="-66" font-family="Helvetica,sans-Serif" font-size="10.00">erpc</text>
</g>
</g>
</svg>
