<?xml version="1.0" encoding="UTF-8" standalone="no"?>
<!DOCTYPE svg PUBLIC "-//W3C//DTD SVG 1.1//EN"
 "http://www.w3.org/Graphics/SVG/1.1/DTD/svg11.dtd">
<!-- Generated by graphviz version 2.38.0 (20140413.2041)
 -->
<!-- Title: Server Pages: 1 -->
<svg width="346pt" height="636pt"
 viewBox="0.00 0.00 346.00 636.00" xmlns="http://www.w3.org/2000/svg" xmlns:xlink="http://www.w3.org/1999/xlink">
<g id="graph0" class="graph" transform="scale(1 1) rotate(0) translate(4 632)">
<title>Server</title>
<polygon fill="white" stroke="none" points="-4,4 -4,-632 342,-632 342,4 -4,4"/>
<!-- Node8 -->
<g id="node1" class="node"><title>Node8</title>
<g id="a_node1"><a xlink:href="group__dspi__slave__transport.html" target="_top" xlink:title="Kinetis SDK DSPI slave driver transport. ">
<polygon fill="white" stroke="black" points="241,-608.5 241,-627.5 306,-627.5 306,-608.5 241,-608.5"/>
<text text-anchor="middle" x="273.5" y="-615.5" font-family="Helvetica,sans-Serif" font-size="10.00">DSPI Slave</text>
</a>
</g>
</g>
<!-- Node6 -->
<g id="node2" class="node"><title>Node6</title>
<g id="a_node2"><a xlink:href="group__port__threads.html" target="_top" xlink:title="Threading model. ">
<polygon fill="white" stroke="black" points="248,-570.5 248,-589.5 299,-589.5 299,-570.5 248,-570.5"/>
<text text-anchor="middle" x="273.5" y="-577.5" font-family="Helvetica,sans-Serif" font-size="10.00">Threads</text>
</a>
</g>
</g>
<!-- Node10 -->
<g id="node3" class="node"><title>Node10</title>
<g id="a_node3"><a xlink:href="group__mu__transport.html" target="_top" xlink:title="Messaging Unit transport. ">
<polygon fill="white" stroke="black" points="231.5,-532.5 231.5,-551.5 315.5,-551.5 315.5,-532.5 231.5,-532.5"/>
<text text-anchor="middle" x="273.5" y="-539.5" font-family="Helvetica,sans-Serif" font-size="10.00">Messaging Unit</text>
</a>
</g>
</g>
<!-- Node17 -->
<g id="node4" class="node"><title>Node17</title>
<g id="a_node4"><a xlink:href="group__tcp__transport.html" target="_top" xlink:title="Simple TCP/IP transport. ">
<polygon fill="white" stroke="black" points="250,-494.5 250,-513.5 297,-513.5 297,-494.5 250,-494.5"/>
<text text-anchor="middle" x="273.5" y="-501.5" font-family="Helvetica,sans-Serif" font-size="10.00">TCP/IP</text>
</a>
</g>
</g>
<!-- Node1 -->
<g id="node5" class="node"><title>Node1</title>
<g id="a_node5"><a xlink:href="group__infra.html" target="_top" xlink:title="C++ core. ">
<polygon fill="white" stroke="black" points="0,-304.5 0,-323.5 73,-323.5 73,-304.5 0,-304.5"/>
<text text-anchor="middle" x="36.5" y="-311.5" font-family="Helvetica,sans-Serif" font-size="10.00">Infrastructure</text>
</a>
</g>
</g>
<!-- Node0 -->
<g id="node13" class="node"><title>Node0</title>
<polygon fill="#bfbfbf" stroke="black" points="110,-304.5 110,-323.5 154,-323.5 154,-304.5 110,-304.5"/>
<text text-anchor="middle" x="132" y="-311.5" font-family="Helvetica,sans-Serif" font-size="10.00">Server</text>
</g>
<!-- Node1&#45;&gt;Node0 -->
<g id="edge1" class="edge"><title>Node1&#45;&gt;Node0</title>
<path fill="none" stroke="black" d="M83.1489,-314C92.4819,-314 101.873,-314 109.835,-314"/>
<polygon fill="black" stroke="black" points="83.1151,-310.5 73.1151,-314 83.115,-317.5 83.1151,-310.5"/>
</g>
<!-- Node2 -->
<g id="node6" class="node"><title>Node2</title>
<g id="a_node6"><a xlink:href="group__infra__client.html" target="_top" xlink:title="Client classes. ">
<polygon fill="white" stroke="black" points="253,-456.5 253,-475.5 294,-475.5 294,-456.5 253,-456.5"/>
<text text-anchor="middle" x="273.5" y="-463.5" font-family="Helvetica,sans-Serif" font-size="10.00">Client</text>
</a>
</g>
</g>
<!-- Node4 -->
<g id="node7" class="node"><title>Node4</title>
<g id="a_node7"><a xlink:href="group__infra__transport.html" target="_top" xlink:title="Superclasses for building transports. ">
<polygon fill="white" stroke="black" points="242.5,-418.5 242.5,-437.5 304.5,-437.5 304.5,-418.5 242.5,-418.5"/>
<text text-anchor="middle" x="273.5" y="-425.5" font-family="Helvetica,sans-Serif" font-size="10.00">Transports</text>
</a>
</g>
</g>
<!-- Node14 -->
<g id="node8" class="node"><title>Node14</title>
<g id="a_node8"><a xlink:href="group__serial__transport.html" target="_top" xlink:title="POSIX and Win32 serial port transport. ">
<polygon fill="white" stroke="black" points="243,-380.5 243,-399.5 304,-399.5 304,-380.5 243,-380.5"/>
<text text-anchor="middle" x="273.5" y="-387.5" font-family="Helvetica,sans-Serif" font-size="10.00">Serial port</text>
</a>
</g>
</g>
<!-- Node5 -->
<g id="node9" class="node"><title>Node5</title>
<g id="a_node9"><a xlink:href="group__infra__utility.html" target="_top" xlink:title="Utility code used by the infrastructure. ">
<polygon fill="white" stroke="black" points="249,-342.5 249,-361.5 298,-361.5 298,-342.5 249,-342.5"/>
<text text-anchor="middle" x="273.5" y="-349.5" font-family="Helvetica,sans-Serif" font-size="10.00">Utilities</text>
</a>
</g>
</g>
<!-- Node16 -->
<g id="node10" class="node"><title>Node16</title>
<g id="a_node10"><a xlink:href="group__spi__slave__transport.html" target="_top" xlink:title="Kinetis SDK SPI slave driver transport. ">
<polygon fill="white" stroke="black" points="244,-304.5 244,-323.5 303,-323.5 303,-304.5 244,-304.5"/>
<text text-anchor="middle" x="273.5" y="-311.5" font-family="Helvetica,sans-Serif" font-size="10.00">SPI Slave</text>
</a>
</g>
</g>
<!-- Node18 -->
<g id="node11" class="node"><title>Node18</title>
<g id="a_node11"><a xlink:href="group__uart__transport.html" target="_top" xlink:title="CMSIS UART driver transport. ">
<polygon fill="white" stroke="black" points="235.5,-266.5 235.5,-285.5 311.5,-285.5 311.5,-266.5 235.5,-266.5"/>
<text text-anchor="middle" x="273.5" y="-273.5" font-family="Helvetica,sans-Serif" font-size="10.00">CMSIS UART</text>
</a>
</g>
</g>
<!-- Node15 -->
<g id="node12" class="node"><title>Node15</title>
<g id="a_node12"><a xlink:href="group__spi__master__transport.html" target="_top" xlink:title="Kinetis SDK SPI master driver transport. ">
<polygon fill="white" stroke="black" points="241,-228.5 241,-247.5 306,-247.5 306,-228.5 241,-228.5"/>
<text text-anchor="middle" x="273.5" y="-235.5" font-family="Helvetica,sans-Serif" font-size="10.00">SPI Master</text>
</a>
</g>
</g>
<!-- Node0&#45;&gt;Node8 -->
<g id="edge8" class="edge"><title>Node0&#45;&gt;Node8</title>
<path fill="none" stroke="blueviolet" stroke-dasharray="5,2" d="M133.661,-323.5C136.588,-363.827 149.262,-520.743 172,-564 182.532,-584.037 189.403,-587.671 209,-599 218.763,-604.644 230.357,-608.751 240.949,-611.671"/>
<text text-anchor="middle" x="181.5" y="-590" font-family="Helvetica,sans-Serif" font-size="10.00">erpc</text>
</g>
<!-- Node0&#45;&gt;Node6 -->
<g id="edge6" class="edge"><title>Node0&#45;&gt;Node6</title>
<path fill="none" stroke="blueviolet" stroke-dasharray="5,2" d="M132.718,-323.564C132.205,-354.764 133.777,-455.624 172,-526 182.804,-545.892 189.403,-549.671 209,-561 220.955,-567.911 235.654,-572.518 247.899,-575.462"/>
<text text-anchor="middle" x="181.5" y="-552" font-family="Helvetica,sans-Serif" font-size="10.00">erpc</text>
</g>
<!-- Node0&#45;&gt;Node10 -->
<g id="edge10" class="edge"><title>Node0&#45;&gt;Node10</title>
<path fill="none" stroke="blueviolet" stroke-dasharray="5,2" d="M133.282,-323.675C134.463,-351.076 140.564,-430.854 172,-487 183.209,-507.019 189.218,-511.377 209,-523 215.846,-527.022 223.614,-530.257 231.311,-532.835"/>
<text text-anchor="middle" x="181.5" y="-514" font-family="Helvetica,sans-Serif" font-size="10.00">erpc</text>
</g>
<!-- Node0&#45;&gt;Node17 -->
<g id="edge17" class="edge"><title>Node0&#45;&gt;Node17</title>
<path fill="none" stroke="blueviolet" stroke-dasharray="5,2" d="M134.147,-323.749C137.203,-346.799 147.076,-405.879 172,-448 183.843,-468.015 189.03,-473.082 209,-485 221.549,-492.489 237.275,-497.224 249.937,-500.094"/>
<text text-anchor="middle" x="181.5" y="-475" font-family="Helvetica,sans-Serif" font-size="10.00">erpc</text>
</g>
<!-- Node0&#45;&gt;Node2 -->
<g id="edge2" class="edge"><title>Node0&#45;&gt;Node2</title>
<path fill="none" stroke="blueviolet" stroke-dasharray="5,2" d="M135.514,-323.603C140.517,-341.608 152.909,-381.216 172,-410 184.854,-429.381 189.03,-435.082 209,-447 222.537,-455.079 239.771,-459.953 252.869,-462.738"/>
<text text-anchor="middle" x="181.5" y="-436" font-family="Helvetica,sans-Serif" font-size="10.00">erpc</text>
</g>
<!-- Node0&#45;&gt;Node4 -->
<g id="edge4" class="edge"><title>Node0&#45;&gt;Node4</title>
<path fill="none" stroke="blueviolet" stroke-dasharray="5,2" d="M137.437,-323.622C147.181,-343.516 172.522,-388.982 209,-409 219.29,-414.647 231.461,-418.81 242.38,-421.776"/>
<text text-anchor="middle" x="181.5" y="-398" font-family="Helvetica,sans-Serif" font-size="10.00">erpc</text>
</g>
<!-- Node0&#45;&gt;Node14 -->
<g id="edge14" class="edge"><title>Node0&#45;&gt;Node14</title>
<path fill="none" stroke="blueviolet" stroke-dasharray="5,2" d="M142.802,-323.78C150.424,-331.136 161.445,-341.24 172,-349 187.415,-360.332 191.481,-363.311 209,-371 219.748,-375.717 232.012,-379.692 242.877,-382.766"/>
<text text-anchor="middle" x="181.5" y="-365" font-family="Helvetica,sans-Serif" font-size="10.00">erpc</text>
</g>
<!-- Node0&#45;&gt;Node5 -->
<g id="edge5" class="edge"><title>Node0&#45;&gt;Node5</title>
<path fill="none" stroke="blueviolet" stroke-dasharray="5,2" d="M154.265,-322.807C159.969,-324.996 166.171,-327.222 172,-329 197.851,-336.886 228.172,-343.471 248.695,-347.546"/>
<text text-anchor="middle" x="181.5" y="-337" font-family="Helvetica,sans-Serif" font-size="10.00">erpc</text>
</g>
<!-- Node0&#45;&gt;Node16 -->
<g id="edge16" class="edge"><title>Node0&#45;&gt;Node16</title>
<path fill="none" stroke="blueviolet" stroke-dasharray="5,2" d="M154.187,-314C178.12,-314 217.197,-314 243.841,-314"/>
<text text-anchor="middle" x="181.5" y="-317" font-family="Helvetica,sans-Serif" font-size="10.00">erpc</text>
</g>
<!-- Node0&#45;&gt;Node18 -->
<g id="edge18" class="edge"><title>Node0&#45;&gt;Node18</title>
<path fill="none" stroke="blueviolet" stroke-dasharray="5,2" d="M154.265,-305.193C159.969,-303.004 166.171,-300.778 172,-299 192.715,-292.681 216.3,-287.197 235.414,-283.171"/>
<text text-anchor="middle" x="181.5" y="-302" font-family="Helvetica,sans-Serif" font-size="10.00">erpc</text>
</g>
<!-- Node0&#45;&gt;Node15 -->
<g id="edge15" class="edge"><title>Node0&#45;&gt;Node15</title>
<path fill="none" stroke="blueviolet" stroke-dasharray="5,2" d="M142.802,-304.22C150.424,-296.864 161.445,-286.76 172,-279 187.415,-267.668 191.481,-264.689 209,-257 219.116,-252.56 230.574,-248.778 240.946,-245.786"/>
<text text-anchor="middle" x="181.5" y="-282" font-family="Helvetica,sans-Serif" font-size="10.00">erpc</text>
</g>
<!-- Node9 -->
<g id="node14" class="node"><title>Node9</title>
<g id="a_node14"><a xlink:href="group__itbp__transport.html" target="_top" xlink:title="Simple inter&#45;thread communications transport. ">
<polygon fill="white" stroke="black" points="241,-190.5 241,-209.5 306,-209.5 306,-190.5 241,-190.5"/>
<text text-anchor="middle" x="273.5" y="-197.5" font-family="Helvetica,sans-Serif" font-size="10.00">Inter&#45;thread</text>
</a>
</g>
</g>
<!-- Node0&#45;&gt;Node9 -->
<g id="edge9" class="edge"><title>Node0&#45;&gt;Node9</title>
<path fill="none" stroke="blueviolet" stroke-dasharray="5,2" d="M137.437,-304.378C147.181,-284.484 172.522,-239.018 209,-219 218.785,-213.63 230.272,-209.602 240.766,-206.669"/>
<text text-anchor="middle" x="181.5" y="-252" font-family="Helvetica,sans-Serif" font-size="10.00">erpc</text>
</g>
<!-- Node7 -->
<g id="node15" class="node"><title>Node7</title>
<g id="a_node15"><a xlink:href="group__dspi__master__transport.html" target="_top" xlink:title="Kinetis SDK DSPI master driver transport. ">
<polygon fill="white" stroke="black" points="237.5,-152.5 237.5,-171.5 309.5,-171.5 309.5,-152.5 237.5,-152.5"/>
<text text-anchor="middle" x="273.5" y="-159.5" font-family="Helvetica,sans-Serif" font-size="10.00">DSPI Master</text>
</a>
</g>
</g>
<!-- Node0&#45;&gt;Node7 -->
<g id="edge7" class="edge"><title>Node0&#45;&gt;Node7</title>
<path fill="none" stroke="blueviolet" stroke-dasharray="5,2" d="M135.514,-304.397C140.517,-286.392 152.909,-246.784 172,-218 184.854,-198.619 189.03,-192.918 209,-181 217.597,-175.869 227.684,-172.032 237.256,-169.201"/>
<text text-anchor="middle" x="181.5" y="-221" font-family="Helvetica,sans-Serif" font-size="10.00">erpc</text>
</g>
<!-- Node13 -->
<g id="node16" class="node"><title>Node13</title>
<g id="a_node16"><a xlink:href="group__rpmsg__tty__rtos__transport.html" target="_top" xlink:title="Rpmsg_tty_rtos_transport">
<polygon fill="white" stroke="black" points="209,-114.5 209,-133.5 338,-133.5 338,-114.5 209,-114.5"/>
<text text-anchor="middle" x="273.5" y="-121.5" font-family="Helvetica,sans-Serif" font-size="10.00">Rpmsg_tty_rtos_transport</text>
</a>
</g>
</g>
<!-- Node0&#45;&gt;Node13 -->
<g id="edge13" class="edge"><title>Node0&#45;&gt;Node13</title>
<path fill="none" stroke="blueviolet" stroke-dasharray="5,2" d="M134.147,-304.251C137.203,-281.201 147.076,-222.121 172,-180 183.843,-159.985 189.03,-154.918 209,-143 215.423,-139.167 222.678,-136.055 229.928,-133.546"/>
<text text-anchor="middle" x="181.5" y="-183" font-family="Helvetica,sans-Serif" font-size="10.00">erpc</text>
</g>
<!-- Node3 -->
<g id="node17" class="node"><title>Node3</title>
<g id="a_node17"><a xlink:href="group__infra__codec.html" target="_top" xlink:title="Classes used for message serialization. ">
<polygon fill="white" stroke="black" points="238.5,-76.5 238.5,-95.5 308.5,-95.5 308.5,-76.5 238.5,-76.5"/>
<text text-anchor="middle" x="273.5" y="-83.5" font-family="Helvetica,sans-Serif" font-size="10.00">Serialization</text>
</a>
</g>
</g>
<!-- Node0&#45;&gt;Node3 -->
<g id="edge3" class="edge"><title>Node0&#45;&gt;Node3</title>
<path fill="none" stroke="blueviolet" stroke-dasharray="5,2" d="M133.282,-304.325C134.463,-276.924 140.564,-197.146 172,-141 183.209,-120.981 189.218,-116.623 209,-105 217.929,-99.7536 228.429,-95.8477 238.29,-92.9883"/>
<text text-anchor="middle" x="181.5" y="-144" font-family="Helvetica,sans-Serif" font-size="10.00">erpc</text>
</g>
<!-- Node11 -->
<g id="node18" class="node"><title>Node11</title>
<g id="a_node18"><a xlink:href="group__rpmsg__lite__rtos__transport.html" target="_top" xlink:title="RPMsg&#45;Lite zero copy transport using RTOS API. ">
<polygon fill="white" stroke="black" points="225,-38.5 225,-57.5 322,-57.5 322,-38.5 225,-38.5"/>
<text text-anchor="middle" x="273.5" y="-45.5" font-family="Helvetica,sans-Serif" font-size="10.00">RPMsg&#45;Lite RTOS</text>
</a>
</g>
</g>
<!-- Node0&#45;&gt;Node11 -->
<g id="edge11" class="edge"><title>Node0&#45;&gt;Node11</title>
<path fill="none" stroke="blueviolet" stroke-dasharray="5,2" d="M132.718,-304.436C132.205,-273.236 133.777,-172.376 172,-102 182.804,-82.1084 189.403,-78.3295 209,-67 215.575,-63.1988 222.981,-60.0947 230.351,-57.5809"/>
<text text-anchor="middle" x="181.5" y="-105" font-family="Helvetica,sans-Serif" font-size="10.00">erpc</text>
</g>
<!-- Node12 -->
<g id="node19" class="node"><title>Node12</title>
<g id="a_node19"><a xlink:href="group__rpmsg__lite__transport.html" target="_top" xlink:title="RPMsg&#45;Lite zero copy transport. ">
<polygon fill="white" stroke="black" points="239.5,-0.5 239.5,-19.5 307.5,-19.5 307.5,-0.5 239.5,-0.5"/>
<text text-anchor="middle" x="273.5" y="-7.5" font-family="Helvetica,sans-Serif" font-size="10.00">RPMsg&#45;Lite</text>
</a>
</g>
</g>
<!-- Node0&#45;&gt;Node12 -->
<g id="edge12" class="edge"><title>Node0&#45;&gt;Node12</title>
<path fill="none" stroke="blueviolet" stroke-dasharray="5,2" d="M133.661,-304.5C136.588,-264.173 149.262,-107.257 172,-64 182.532,-43.9634 189.403,-40.3295 209,-29 218.265,-23.6437 229.178,-19.6717 239.32,-16.7849"/>
<text text-anchor="middle" x="181.5" y="-67" font-family="Helvetica,sans-Serif" font-size="10.00">erpc</text>
</g>
</g>
</svg>
