<?xml version="1.0" encoding="UTF-8" standalone="no"?>
<!DOCTYPE svg PUBLIC "-//W3C//DTD SVG 1.1//EN"
 "http://www.w3.org/Graphics/SVG/1.1/DTD/svg11.dtd">
<!-- Generated by graphviz version 2.38.0 (20140413.2041)
 -->
<!-- Title: I2C Slave Pages: 1 -->
<svg width="352pt" height="788pt"
 viewBox="0.00 0.00 352.00 788.00" xmlns="http://www.w3.org/2000/svg" xmlns:xlink="http://www.w3.org/1999/xlink">
<g id="graph0" class="graph" transform="scale(1 1) rotate(0) translate(4 784)">
<title>I2C Slave</title>
<polygon fill="white" stroke="none" points="-4,4 -4,-784 348,-784 348,4 -4,4"/>
<!-- Node1 -->
<g id="node1" class="node"><title>Node1</title>
<g id="a_node1"><a xlink:href="group__transports.html" target="_top" xlink:title="Transport layer classes. ">
<polygon fill="white" stroke="black" points="0,-380.5 0,-399.5 89,-399.5 89,-380.5 0,-380.5"/>
<text text-anchor="middle" x="44.5" y="-387.5" font-family="Helvetica,sans-Serif" font-size="10.00">Transport Layers</text>
</a>
</g>
</g>
<!-- Node0 -->
<g id="node3" class="node"><title>Node0</title>
<polygon fill="#bfbfbf" stroke="black" points="126,-380.5 126,-399.5 183,-399.5 183,-380.5 126,-380.5"/>
<text text-anchor="middle" x="154.5" y="-387.5" font-family="Helvetica,sans-Serif" font-size="10.00">I2C Slave</text>
</g>
<!-- Node1&#45;&gt;Node0 -->
<g id="edge1" class="edge"><title>Node1&#45;&gt;Node0</title>
<path fill="none" stroke="black" d="M99.4116,-390C108.581,-390 117.755,-390 125.874,-390"/>
<polygon fill="black" stroke="black" points="99.1165,-386.5 89.1164,-390 99.1164,-393.5 99.1165,-386.5"/>
</g>
<!-- Node10 -->
<g id="node2" class="node"><title>Node10</title>
<g id="a_node2"><a xlink:href="group__dspi__slave__transport.html" target="_top" xlink:title="MCUXpressoSDK DSPI slave driver transport. ">
<polygon fill="white" stroke="black" points="258.5,-760.5 258.5,-779.5 323.5,-779.5 323.5,-760.5 258.5,-760.5"/>
<text text-anchor="middle" x="291" y="-767.5" font-family="Helvetica,sans-Serif" font-size="10.00">DSPI Slave</text>
</a>
</g>
</g>
<!-- Node0&#45;&gt;Node10 -->
<g id="edge10" class="edge"><title>Node0&#45;&gt;Node10</title>
<path fill="none" stroke="blueviolet" stroke-dasharray="5,2" d="M156.011,-399.66C158.659,-447.323 171.83,-657.447 201,-715 211.372,-735.465 218.573,-738.793 238,-751 244.266,-754.938 251.468,-758.225 258.474,-760.898"/>
<text text-anchor="middle" x="210.5" y="-741" font-family="Helvetica,sans-Serif" font-size="10.00">erpc</text>
</g>
<!-- Node8 -->
<g id="node4" class="node"><title>Node8</title>
<g id="a_node4"><a xlink:href="group__port__threads.html" target="_top" xlink:title="Threading model. ">
<polygon fill="white" stroke="black" points="265.5,-722.5 265.5,-741.5 316.5,-741.5 316.5,-722.5 265.5,-722.5"/>
<text text-anchor="middle" x="291" y="-729.5" font-family="Helvetica,sans-Serif" font-size="10.00">Threads</text>
</a>
</g>
</g>
<!-- Node0&#45;&gt;Node8 -->
<g id="edge8" class="edge"><title>Node0&#45;&gt;Node8</title>
<path fill="none" stroke="blueviolet" stroke-dasharray="5,2" d="M156.214,-399.683C159.596,-443.911 174.942,-626.723 201,-677 211.558,-697.371 218.573,-700.793 238,-713 246.382,-718.267 256.437,-722.372 265.462,-725.396"/>
<text text-anchor="middle" x="210.5" y="-703" font-family="Helvetica,sans-Serif" font-size="10.00">erpc</text>
</g>
<!-- Node12 -->
<g id="node5" class="node"><title>Node12</title>
<g id="a_node5"><a xlink:href="group__mu__transport.html" target="_top" xlink:title="Messaging Unit transport. ">
<polygon fill="white" stroke="black" points="249,-684.5 249,-703.5 333,-703.5 333,-684.5 249,-684.5"/>
<text text-anchor="middle" x="291" y="-691.5" font-family="Helvetica,sans-Serif" font-size="10.00">Messaging Unit</text>
</a>
</g>
</g>
<!-- Node0&#45;&gt;Node12 -->
<g id="edge12" class="edge"><title>Node0&#45;&gt;Node12</title>
<path fill="none" stroke="blueviolet" stroke-dasharray="5,2" d="M155.222,-399.718C154.635,-434.451 156.128,-554.856 201,-639 211.796,-659.245 218.573,-662.793 238,-675 243.941,-678.733 250.722,-681.882 257.381,-684.477"/>
<text text-anchor="middle" x="210.5" y="-665" font-family="Helvetica,sans-Serif" font-size="10.00">erpc</text>
</g>
<!-- Node20 -->
<g id="node6" class="node"><title>Node20</title>
<g id="a_node6"><a xlink:href="group__tcp__transport.html" target="_top" xlink:title="Simple TCP/IP transport. ">
<polygon fill="white" stroke="black" points="267.5,-646.5 267.5,-665.5 314.5,-665.5 314.5,-646.5 267.5,-646.5"/>
<text text-anchor="middle" x="291" y="-653.5" font-family="Helvetica,sans-Serif" font-size="10.00">TCP/IP</text>
</a>
</g>
</g>
<!-- Node0&#45;&gt;Node20 -->
<g id="edge20" class="edge"><title>Node0&#45;&gt;Node20</title>
<path fill="none" stroke="blueviolet" stroke-dasharray="5,2" d="M155.635,-399.51C156.457,-430.535 162.149,-530.845 201,-601 212.115,-621.072 218.573,-624.793 238,-637 246.952,-642.625 257.812,-646.924 267.287,-649.998"/>
<text text-anchor="middle" x="210.5" y="-627" font-family="Helvetica,sans-Serif" font-size="10.00">erpc</text>
</g>
<!-- Node2 -->
<g id="node7" class="node"><title>Node2</title>
<g id="a_node7"><a xlink:href="group__infra__client.html" target="_top" xlink:title="Client classes. ">
<polygon fill="white" stroke="black" points="270.5,-608.5 270.5,-627.5 311.5,-627.5 311.5,-608.5 270.5,-608.5"/>
<text text-anchor="middle" x="291" y="-615.5" font-family="Helvetica,sans-Serif" font-size="10.00">Client</text>
</a>
</g>
</g>
<!-- Node0&#45;&gt;Node2 -->
<g id="edge2" class="edge"><title>Node0&#45;&gt;Node2</title>
<path fill="none" stroke="blueviolet" stroke-dasharray="5,2" d="M156.283,-399.605C158.854,-426.811 168.811,-506.041 201,-562 212.596,-582.159 218.394,-586.492 238,-599 247.886,-605.307 260.159,-609.917 270.299,-613.016"/>
<text text-anchor="middle" x="210.5" y="-589" font-family="Helvetica,sans-Serif" font-size="10.00">erpc</text>
</g>
<!-- Node4 -->
<g id="node8" class="node"><title>Node4</title>
<g id="a_node8"><a xlink:href="group__infra__transport.html" target="_top" xlink:title="Superclasses for building transports. ">
<polygon fill="white" stroke="black" points="260,-570.5 260,-589.5 322,-589.5 322,-570.5 260,-570.5"/>
<text text-anchor="middle" x="291" y="-577.5" font-family="Helvetica,sans-Serif" font-size="10.00">Transports</text>
</a>
</g>
</g>
<!-- Node0&#45;&gt;Node4 -->
<g id="edge4" class="edge"><title>Node0&#45;&gt;Node4</title>
<path fill="none" stroke="blueviolet" stroke-dasharray="5,2" d="M157.328,-399.555C161.953,-422.155 175.594,-480.142 201,-522 213.397,-542.425 218.028,-547.886 238,-561 244.669,-565.379 252.479,-568.915 259.99,-571.696"/>
<text text-anchor="middle" x="210.5" y="-550" font-family="Helvetica,sans-Serif" font-size="10.00">erpc</text>
</g>
<!-- Node16 -->
<g id="node9" class="node"><title>Node16</title>
<g id="a_node9"><a xlink:href="group__serial__transport.html" target="_top" xlink:title="POSIX and Win32 serial port transport. ">
<polygon fill="white" stroke="black" points="260.5,-532.5 260.5,-551.5 321.5,-551.5 321.5,-532.5 260.5,-532.5"/>
<text text-anchor="middle" x="291" y="-539.5" font-family="Helvetica,sans-Serif" font-size="10.00">Serial port</text>
</a>
</g>
</g>
<!-- Node0&#45;&gt;Node16 -->
<g id="edge16" class="edge"><title>Node0&#45;&gt;Node16</title>
<path fill="none" stroke="blueviolet" stroke-dasharray="5,2" d="M158.335,-399.758C166.225,-424.997 191.013,-492.582 238,-523 244.777,-527.388 252.706,-530.941 260.3,-533.736"/>
<text text-anchor="middle" x="210.5" y="-510" font-family="Helvetica,sans-Serif" font-size="10.00">erpc</text>
</g>
<!-- Node5 -->
<g id="node10" class="node"><title>Node5</title>
<g id="a_node10"><a xlink:href="group__infra__utility.html" target="_top" xlink:title="Utility code used by the infrastructure. ">
<polygon fill="white" stroke="black" points="266.5,-494.5 266.5,-513.5 315.5,-513.5 315.5,-494.5 266.5,-494.5"/>
<text text-anchor="middle" x="291" y="-501.5" font-family="Helvetica,sans-Serif" font-size="10.00">Utilities</text>
</a>
</g>
</g>
<!-- Node0&#45;&gt;Node5 -->
<g id="edge5" class="edge"><title>Node0&#45;&gt;Node5</title>
<path fill="none" stroke="blueviolet" stroke-dasharray="5,2" d="M160.944,-399.541C172.496,-418.879 201.427,-462.74 238,-485 246.703,-490.297 257.114,-494.465 266.327,-497.531"/>
<text text-anchor="middle" x="210.5" y="-473" font-family="Helvetica,sans-Serif" font-size="10.00">erpc</text>
</g>
<!-- Node18 -->
<g id="node11" class="node"><title>Node18</title>
<g id="a_node11"><a xlink:href="group__spi__slave__transport.html" target="_top" xlink:title="MCUXpressoSDK SPI slave driver transport. ">
<polygon fill="white" stroke="black" points="261.5,-456.5 261.5,-475.5 320.5,-475.5 320.5,-456.5 261.5,-456.5"/>
<text text-anchor="middle" x="291" y="-463.5" font-family="Helvetica,sans-Serif" font-size="10.00">SPI Slave</text>
</a>
</g>
</g>
<!-- Node0&#45;&gt;Node18 -->
<g id="edge18" class="edge"><title>Node0&#45;&gt;Node18</title>
<path fill="none" stroke="blueviolet" stroke-dasharray="5,2" d="M166.825,-399.502C182.115,-411.922 210.61,-433.66 238,-447 245.431,-450.619 253.738,-453.951 261.494,-456.78"/>
<text text-anchor="middle" x="210.5" y="-439" font-family="Helvetica,sans-Serif" font-size="10.00">erpc</text>
</g>
<!-- Node21 -->
<g id="node12" class="node"><title>Node21</title>
<g id="a_node12"><a xlink:href="group__uart__transport.html" target="_top" xlink:title="CMSIS UART driver transport. ">
<polygon fill="white" stroke="black" points="253,-418.5 253,-437.5 329,-437.5 329,-418.5 253,-418.5"/>
<text text-anchor="middle" x="291" y="-425.5" font-family="Helvetica,sans-Serif" font-size="10.00">CMSIS UART</text>
</a>
</g>
</g>
<!-- Node0&#45;&gt;Node21 -->
<g id="edge21" class="edge"><title>Node0&#45;&gt;Node21</title>
<path fill="none" stroke="blueviolet" stroke-dasharray="5,2" d="M183.322,-399.492C189.141,-401.388 195.254,-403.312 201,-405 217.843,-409.947 236.644,-414.889 252.61,-418.917"/>
<text text-anchor="middle" x="210.5" y="-412" font-family="Helvetica,sans-Serif" font-size="10.00">erpc</text>
</g>
<!-- Node19 -->
<g id="node13" class="node"><title>Node19</title>
<g id="a_node13"><a xlink:href="group__spidev__master__transport.html" target="_top" xlink:title="SPIdev Linux transport. ">
<polygon fill="white" stroke="black" points="238,-380.5 238,-399.5 344,-399.5 344,-380.5 238,-380.5"/>
<text text-anchor="middle" x="291" y="-387.5" font-family="Helvetica,sans-Serif" font-size="10.00">SPIdev Linux Master</text>
</a>
</g>
</g>
<!-- Node0&#45;&gt;Node19 -->
<g id="edge19" class="edge"><title>Node0&#45;&gt;Node19</title>
<path fill="none" stroke="blueviolet" stroke-dasharray="5,2" d="M183.043,-390C198.798,-390 219.083,-390 237.745,-390"/>
<text text-anchor="middle" x="210.5" y="-393" font-family="Helvetica,sans-Serif" font-size="10.00">erpc</text>
</g>
<!-- Node17 -->
<g id="node14" class="node"><title>Node17</title>
<g id="a_node14"><a xlink:href="group__spi__master__transport.html" target="_top" xlink:title="MCUXpressoSDK SPI master driver transport. ">
<polygon fill="white" stroke="black" points="258.5,-342.5 258.5,-361.5 323.5,-361.5 323.5,-342.5 258.5,-342.5"/>
<text text-anchor="middle" x="291" y="-349.5" font-family="Helvetica,sans-Serif" font-size="10.00">SPI Master</text>
</a>
</g>
</g>
<!-- Node0&#45;&gt;Node17 -->
<g id="edge17" class="edge"><title>Node0&#45;&gt;Node17</title>
<path fill="none" stroke="blueviolet" stroke-dasharray="5,2" d="M183.322,-380.508C189.141,-378.612 195.254,-376.688 201,-375 219.834,-369.468 241.115,-363.943 258.145,-359.694"/>
<text text-anchor="middle" x="210.5" y="-378" font-family="Helvetica,sans-Serif" font-size="10.00">erpc</text>
</g>
<!-- Node15 -->
<g id="node15" class="node"><title>Node15</title>
<g id="a_node15"><a xlink:href="group__rpmsg__tty__rtos__transport.html" target="_top" xlink:title="RPMsg TTY RTOS transport. ">
<polygon fill="white" stroke="black" points="242,-304.5 242,-323.5 340,-323.5 340,-304.5 242,-304.5"/>
<text text-anchor="middle" x="291" y="-311.5" font-family="Helvetica,sans-Serif" font-size="10.00">RPMsg TTY RTOS</text>
</a>
</g>
</g>
<!-- Node0&#45;&gt;Node15 -->
<g id="edge15" class="edge"><title>Node0&#45;&gt;Node15</title>
<path fill="none" stroke="blueviolet" stroke-dasharray="5,2" d="M166.786,-380.417C182.033,-367.907 210.48,-346.07 238,-333 245.293,-329.536 253.399,-326.3 260.998,-323.515"/>
<text text-anchor="middle" x="210.5" y="-356" font-family="Helvetica,sans-Serif" font-size="10.00">erpc</text>
</g>
<!-- Node6 -->
<g id="node16" class="node"><title>Node6</title>
<g id="a_node16"><a xlink:href="group__infra__server.html" target="_top" xlink:title="Server classes. ">
<polygon fill="white" stroke="black" points="269,-266.5 269,-285.5 313,-285.5 313,-266.5 269,-266.5"/>
<text text-anchor="middle" x="291" y="-273.5" font-family="Helvetica,sans-Serif" font-size="10.00">Server</text>
</a>
</g>
</g>
<!-- Node0&#45;&gt;Node6 -->
<g id="edge6" class="edge"><title>Node0&#45;&gt;Node6</title>
<path fill="none" stroke="blueviolet" stroke-dasharray="5,2" d="M160.917,-380.414C172.419,-360.994 201.263,-316.987 238,-295 247.567,-289.274 259.14,-284.836 268.938,-281.695"/>
<text text-anchor="middle" x="210.5" y="-328" font-family="Helvetica,sans-Serif" font-size="10.00">erpc</text>
</g>
<!-- Node11 -->
<g id="node17" class="node"><title>Node11</title>
<g id="a_node17"><a xlink:href="group__itbp__transport.html" target="_top" xlink:title="Simple inter&#45;thread communications transport. ">
<polygon fill="white" stroke="black" points="258.5,-228.5 258.5,-247.5 323.5,-247.5 323.5,-228.5 258.5,-228.5"/>
<text text-anchor="middle" x="291" y="-235.5" font-family="Helvetica,sans-Serif" font-size="10.00">Inter&#45;thread</text>
</a>
</g>
</g>
<!-- Node0&#45;&gt;Node11 -->
<g id="edge11" class="edge"><title>Node0&#45;&gt;Node11</title>
<path fill="none" stroke="blueviolet" stroke-dasharray="5,2" d="M158.288,-380.169C166.066,-354.753 190.606,-286.78 238,-257 244.266,-253.062 251.468,-249.775 258.474,-247.102"/>
<text text-anchor="middle" x="210.5" y="-294" font-family="Helvetica,sans-Serif" font-size="10.00">erpc</text>
</g>
<!-- Node9 -->
<g id="node18" class="node"><title>Node9</title>
<g id="a_node18"><a xlink:href="group__dspi__master__transport.html" target="_top" xlink:title="MCUXpressoSDK DSPI master driver transport. ">
<polygon fill="white" stroke="black" points="255,-190.5 255,-209.5 327,-209.5 327,-190.5 255,-190.5"/>
<text text-anchor="middle" x="291" y="-197.5" font-family="Helvetica,sans-Serif" font-size="10.00">DSPI Master</text>
</a>
</g>
</g>
<!-- Node0&#45;&gt;Node9 -->
<g id="edge9" class="edge"><title>Node0&#45;&gt;Node9</title>
<path fill="none" stroke="blueviolet" stroke-dasharray="5,2" d="M157.275,-380.35C161.786,-357.529 175.198,-299.004 201,-257 213.338,-236.914 218.212,-231.81 238,-219 243.809,-215.239 250.464,-212.091 257.029,-209.508"/>
<text text-anchor="middle" x="210.5" y="-260" font-family="Helvetica,sans-Serif" font-size="10.00">erpc</text>
</g>
<!-- Node22 -->
<g id="node19" class="node"><title>Node22</title>
<g id="a_node19"><a xlink:href="group___u_s_b___c_d_c__transport.html" target="_top" xlink:title="USB CDC transport. ">
<polygon fill="white" stroke="black" points="261,-152.5 261,-171.5 321,-171.5 321,-152.5 261,-152.5"/>
<text text-anchor="middle" x="291" y="-159.5" font-family="Helvetica,sans-Serif" font-size="10.00">USB CDC</text>
</a>
</g>
</g>
<!-- Node0&#45;&gt;Node22 -->
<g id="edge22" class="edge"><title>Node0&#45;&gt;Node22</title>
<path fill="none" stroke="blueviolet" stroke-dasharray="5,2" d="M156.23,-380.317C158.663,-352.894 168.291,-273.063 201,-217 212.562,-197.182 218.573,-193.207 238,-181 244.999,-176.602 253.164,-173.015 260.922,-170.19"/>
<text text-anchor="middle" x="210.5" y="-220" font-family="Helvetica,sans-Serif" font-size="10.00">erpc</text>
</g>
<!-- Node3 -->
<g id="node20" class="node"><title>Node3</title>
<g id="a_node20"><a xlink:href="group__infra__codec.html" target="_top" xlink:title="Classes used for message serialization. ">
<polygon fill="white" stroke="black" points="256,-114.5 256,-133.5 326,-133.5 326,-114.5 256,-114.5"/>
<text text-anchor="middle" x="291" y="-121.5" font-family="Helvetica,sans-Serif" font-size="10.00">Serialization</text>
</a>
</g>
</g>
<!-- Node0&#45;&gt;Node3 -->
<g id="edge3" class="edge"><title>Node0&#45;&gt;Node3</title>
<path fill="none" stroke="blueviolet" stroke-dasharray="5,2" d="M155.584,-380.423C156.248,-349.183 161.513,-248.216 201,-178 212.096,-158.27 218.749,-154.908 238,-143 243.967,-139.309 250.759,-136.178 257.421,-133.588"/>
<text text-anchor="middle" x="210.5" y="-181" font-family="Helvetica,sans-Serif" font-size="10.00">erpc</text>
</g>
<!-- Node13 -->
<g id="node21" class="node"><title>Node13</title>
<g id="a_node21"><a xlink:href="group__rpmsg__lite__rtos__transport.html" target="_top" xlink:title="RPMsg&#45;Lite zero copy transport using RTOS API. ">
<polygon fill="white" stroke="black" points="242.5,-76.5 242.5,-95.5 339.5,-95.5 339.5,-76.5 242.5,-76.5"/>
<text text-anchor="middle" x="291" y="-83.5" font-family="Helvetica,sans-Serif" font-size="10.00">RPMsg&#45;Lite RTOS</text>
</a>
</g>
</g>
<!-- Node0&#45;&gt;Node13 -->
<g id="edge13" class="edge"><title>Node0&#45;&gt;Node13</title>
<path fill="none" stroke="blueviolet" stroke-dasharray="5,2" d="M155.118,-380.16C154.18,-344.996 154.633,-223.177 201,-139 212.974,-117.262 237.901,-103.559 258.336,-95.5454"/>
<text text-anchor="middle" x="210.5" y="-142" font-family="Helvetica,sans-Serif" font-size="10.00">erpc</text>
</g>
<!-- Node14 -->
<g id="node22" class="node"><title>Node14</title>
<g id="a_node22"><a xlink:href="group__rpmsg__lite__transport.html" target="_top" xlink:title="RPMsg&#45;Lite zero copy transport. ">
<polygon fill="white" stroke="black" points="257,-38.5 257,-57.5 325,-57.5 325,-38.5 257,-38.5"/>
<text text-anchor="middle" x="291" y="-45.5" font-family="Helvetica,sans-Serif" font-size="10.00">RPMsg&#45;Lite</text>
</a>
</g>
</g>
<!-- Node0&#45;&gt;Node14 -->
<g id="edge14" class="edge"><title>Node0&#45;&gt;Node14</title>
<path fill="none" stroke="blueviolet" stroke-dasharray="5,2" d="M156.214,-380.317C159.596,-336.089 174.942,-153.277 201,-103 211.558,-82.6295 218.573,-79.207 238,-67 243.941,-63.267 250.722,-60.118 257.381,-57.5235"/>
<text text-anchor="middle" x="210.5" y="-106" font-family="Helvetica,sans-Serif" font-size="10.00">erpc</text>
</g>
<!-- Node7 -->
<g id="node23" class="node"><title>Node7</title>
<g id="a_node23"><a xlink:href="group__port__setup__extensions.html" target="_top" xlink:title="Extension setup functions. ">
<polygon fill="white" stroke="black" points="246.5,-0.5 246.5,-19.5 335.5,-19.5 335.5,-0.5 246.5,-0.5"/>
<text text-anchor="middle" x="291" y="-7.5" font-family="Helvetica,sans-Serif" font-size="10.00">Extension Setup</text>
</a>
</g>
</g>
<!-- Node0&#45;&gt;Node7 -->
<g id="edge7" class="edge"><title>Node0&#45;&gt;Node7</title>
<path fill="none" stroke="blueviolet" stroke-dasharray="5,2" d="M155.992,-380.303C158.549,-332.454 171.349,-121.526 201,-64 211.371,-43.8794 218.749,-40.9082 238,-29 243.967,-25.3089 250.759,-22.1779 257.421,-19.5877"/>
<text text-anchor="middle" x="210.5" y="-67" font-family="Helvetica,sans-Serif" font-size="10.00">erpc</text>
</g>
</g>
</svg>
