<?xml version="1.0" encoding="UTF-8" standalone="no"?>
<!DOCTYPE svg PUBLIC "-//W3C//DTD SVG 1.1//EN"
 "http://www.w3.org/Graphics/SVG/1.1/DTD/svg11.dtd">
<!-- Generated by graphviz version 2.38.0 (20140413.2041)
 -->
<!-- Title: DSPI Master Pages: 1 -->
<svg width="371pt" height="902pt"
 viewBox="0.00 0.00 371.00 902.00" xmlns="http://www.w3.org/2000/svg" xmlns:xlink="http://www.w3.org/1999/xlink">
<g id="graph0" class="graph" transform="scale(1 1) rotate(0) translate(4 898)">
<title>DSPI Master</title>
<polygon fill="white" stroke="none" points="-4,4 -4,-898 367,-898 367,4 -4,4"/>
<!-- Node1 -->
<g id="node1" class="node"><title>Node1</title>
<g id="a_node1"><a xlink:href="group__transports.html" target="_top" xlink:title="Transport layer classes. ">
<polygon fill="white" stroke="black" points="0,-437.5 0,-456.5 89,-456.5 89,-437.5 0,-437.5"/>
<text text-anchor="middle" x="44.5" y="-444.5" font-family="Helvetica,sans-Serif" font-size="10.00">Transport Layers</text>
</a>
</g>
</g>
<!-- Node0 -->
<g id="node20" class="node"><title>Node0</title>
<polygon fill="#bfbfbf" stroke="black" points="126,-437.5 126,-456.5 198,-456.5 198,-437.5 126,-437.5"/>
<text text-anchor="middle" x="162" y="-444.5" font-family="Helvetica,sans-Serif" font-size="10.00">DSPI Master</text>
</g>
<!-- Node1&#45;&gt;Node0 -->
<g id="edge1" class="edge"><title>Node1&#45;&gt;Node0</title>
<path fill="none" stroke="black" d="M99.2729,-447C108.316,-447 117.491,-447 125.903,-447"/>
<polygon fill="black" stroke="black" points="99.1656,-443.5 89.1656,-447 99.1656,-450.5 99.1656,-443.5"/>
</g>
<!-- Node9 -->
<g id="node2" class="node"><title>Node9</title>
<g id="a_node2"><a xlink:href="group__dspi__slave__transport.html" target="_top" xlink:title="MCUXpressoSDK DSPI slave driver transport. ">
<polygon fill="white" stroke="black" points="275.5,-874.5 275.5,-893.5 340.5,-893.5 340.5,-874.5 275.5,-874.5"/>
<text text-anchor="middle" x="308" y="-881.5" font-family="Helvetica,sans-Serif" font-size="10.00">DSPI Slave</text>
</a>
</g>
</g>
<!-- Node10 -->
<g id="node3" class="node"><title>Node10</title>
<g id="a_node3"><a xlink:href="group__i2c__slave__transport.html" target="_top" xlink:title="MCUXpressoSDK I2C slave driver transport. ">
<polygon fill="white" stroke="black" points="279.5,-836.5 279.5,-855.5 336.5,-855.5 336.5,-836.5 279.5,-836.5"/>
<text text-anchor="middle" x="308" y="-843.5" font-family="Helvetica,sans-Serif" font-size="10.00">I2C Slave</text>
</a>
</g>
</g>
<!-- Node8 -->
<g id="node4" class="node"><title>Node8</title>
<g id="a_node4"><a xlink:href="group__port__threads.html" target="_top" xlink:title="Threading model. ">
<polygon fill="white" stroke="black" points="282.5,-798.5 282.5,-817.5 333.5,-817.5 333.5,-798.5 282.5,-798.5"/>
<text text-anchor="middle" x="308" y="-805.5" font-family="Helvetica,sans-Serif" font-size="10.00">Threads</text>
</a>
</g>
</g>
<!-- Node14 -->
<g id="node5" class="node"><title>Node14</title>
<g id="a_node5"><a xlink:href="group__mbox__transport.html" target="_top" xlink:title="Mbox_transport">
<polygon fill="white" stroke="black" points="266,-760.5 266,-779.5 350,-779.5 350,-760.5 266,-760.5"/>
<text text-anchor="middle" x="308" y="-767.5" font-family="Helvetica,sans-Serif" font-size="10.00">Mbox_transport</text>
</a>
</g>
</g>
<!-- Node15 -->
<g id="node6" class="node"><title>Node15</title>
<g id="a_node6"><a xlink:href="group__mu__transport.html" target="_top" xlink:title="Messaging Unit transport. ">
<polygon fill="white" stroke="black" points="266,-722.5 266,-741.5 350,-741.5 350,-722.5 266,-722.5"/>
<text text-anchor="middle" x="308" y="-729.5" font-family="Helvetica,sans-Serif" font-size="10.00">Messaging Unit</text>
</a>
</g>
</g>
<!-- Node23 -->
<g id="node7" class="node"><title>Node23</title>
<g id="a_node7"><a xlink:href="group__tcp__transport.html" target="_top" xlink:title="Simple TCP/IP transport. ">
<polygon fill="white" stroke="black" points="284.5,-684.5 284.5,-703.5 331.5,-703.5 331.5,-684.5 284.5,-684.5"/>
<text text-anchor="middle" x="308" y="-691.5" font-family="Helvetica,sans-Serif" font-size="10.00">TCP/IP</text>
</a>
</g>
</g>
<!-- Node2 -->
<g id="node8" class="node"><title>Node2</title>
<g id="a_node8"><a xlink:href="group__infra__client.html" target="_top" xlink:title="Client classes. ">
<polygon fill="white" stroke="black" points="287.5,-646.5 287.5,-665.5 328.5,-665.5 328.5,-646.5 287.5,-646.5"/>
<text text-anchor="middle" x="308" y="-653.5" font-family="Helvetica,sans-Serif" font-size="10.00">Client</text>
</a>
</g>
</g>
<!-- Node4 -->
<g id="node9" class="node"><title>Node4</title>
<g id="a_node9"><a xlink:href="group__infra__transport.html" target="_top" xlink:title="Superclasses for building transports. ">
<polygon fill="white" stroke="black" points="277,-608.5 277,-627.5 339,-627.5 339,-608.5 277,-608.5"/>
<text text-anchor="middle" x="308" y="-615.5" font-family="Helvetica,sans-Serif" font-size="10.00">Transports</text>
</a>
</g>
</g>
<!-- Node19 -->
<g id="node10" class="node"><title>Node19</title>
<g id="a_node10"><a xlink:href="group__serial__transport.html" target="_top" xlink:title="POSIX and Win32 serial port transport. ">
<polygon fill="white" stroke="black" points="277.5,-570.5 277.5,-589.5 338.5,-589.5 338.5,-570.5 277.5,-570.5"/>
<text text-anchor="middle" x="308" y="-577.5" font-family="Helvetica,sans-Serif" font-size="10.00">Serial port</text>
</a>
</g>
</g>
<!-- Node5 -->
<g id="node11" class="node"><title>Node5</title>
<g id="a_node11"><a xlink:href="group__infra__utility.html" target="_top" xlink:title="Utility code used by the infrastructure. ">
<polygon fill="white" stroke="black" points="283.5,-532.5 283.5,-551.5 332.5,-551.5 332.5,-532.5 283.5,-532.5"/>
<text text-anchor="middle" x="308" y="-539.5" font-family="Helvetica,sans-Serif" font-size="10.00">Utilities</text>
</a>
</g>
</g>
<!-- Node21 -->
<g id="node12" class="node"><title>Node21</title>
<g id="a_node12"><a xlink:href="group__spi__slave__transport.html" target="_top" xlink:title="MCUXpressoSDK SPI slave driver transport. ">
<polygon fill="white" stroke="black" points="278.5,-494.5 278.5,-513.5 337.5,-513.5 337.5,-494.5 278.5,-494.5"/>
<text text-anchor="middle" x="308" y="-501.5" font-family="Helvetica,sans-Serif" font-size="10.00">SPI Slave</text>
</a>
</g>
</g>
<!-- Node24 -->
<g id="node13" class="node"><title>Node24</title>
<g id="a_node13"><a xlink:href="group__uart__transport.html" target="_top" xlink:title="CMSIS UART driver transport. ">
<polygon fill="white" stroke="black" points="270,-456.5 270,-475.5 346,-475.5 346,-456.5 270,-456.5"/>
<text text-anchor="middle" x="308" y="-463.5" font-family="Helvetica,sans-Serif" font-size="10.00">CMSIS UART</text>
</a>
</g>
</g>
<!-- Node22 -->
<g id="node14" class="node"><title>Node22</title>
<g id="a_node14"><a xlink:href="group__spidev__master__transport.html" target="_top" xlink:title="SPIdev Linux transport. ">
<polygon fill="white" stroke="black" points="255,-418.5 255,-437.5 361,-437.5 361,-418.5 255,-418.5"/>
<text text-anchor="middle" x="308" y="-425.5" font-family="Helvetica,sans-Serif" font-size="10.00">SPIdev Linux Master</text>
</a>
</g>
</g>
<!-- Node20 -->
<g id="node15" class="node"><title>Node20</title>
<g id="a_node15"><a xlink:href="group__spi__master__transport.html" target="_top" xlink:title="MCUXpressoSDK SPI master driver transport. ">
<polygon fill="white" stroke="black" points="275.5,-380.5 275.5,-399.5 340.5,-399.5 340.5,-380.5 275.5,-380.5"/>
<text text-anchor="middle" x="308" y="-387.5" font-family="Helvetica,sans-Serif" font-size="10.00">SPI Master</text>
</a>
</g>
</g>
<!-- Node18 -->
<g id="node16" class="node"><title>Node18</title>
<g id="a_node16"><a xlink:href="group__rpmsg__tty__rtos__transport.html" target="_top" xlink:title="RPMsg TTY RTOS transport. ">
<polygon fill="white" stroke="black" points="259,-342.5 259,-361.5 357,-361.5 357,-342.5 259,-342.5"/>
<text text-anchor="middle" x="308" y="-349.5" font-family="Helvetica,sans-Serif" font-size="10.00">RPMsg TTY RTOS</text>
</a>
</g>
</g>
<!-- Node6 -->
<g id="node17" class="node"><title>Node6</title>
<g id="a_node17"><a xlink:href="group__infra__server.html" target="_top" xlink:title="Server classes. ">
<polygon fill="white" stroke="black" points="286,-304.5 286,-323.5 330,-323.5 330,-304.5 286,-304.5"/>
<text text-anchor="middle" x="308" y="-311.5" font-family="Helvetica,sans-Serif" font-size="10.00">Server</text>
</a>
</g>
</g>
<!-- Node12 -->
<g id="node18" class="node"><title>Node12</title>
<g id="a_node18"><a xlink:href="group__lpi2c__slave__transport.html" target="_top" xlink:title="Lpi2c_slave_transport">
<polygon fill="white" stroke="black" points="253,-266.5 253,-285.5 363,-285.5 363,-266.5 253,-266.5"/>
<text text-anchor="middle" x="308" y="-273.5" font-family="Helvetica,sans-Serif" font-size="10.00">Lpi2c_slave_transport</text>
</a>
</g>
</g>
<!-- Node11 -->
<g id="node19" class="node"><title>Node11</title>
<g id="a_node19"><a xlink:href="group__itbp__transport.html" target="_top" xlink:title="Simple inter&#45;thread communications transport. ">
<polygon fill="white" stroke="black" points="275.5,-228.5 275.5,-247.5 340.5,-247.5 340.5,-228.5 275.5,-228.5"/>
<text text-anchor="middle" x="308" y="-235.5" font-family="Helvetica,sans-Serif" font-size="10.00">Inter&#45;thread</text>
</a>
</g>
</g>
<!-- Node0&#45;&gt;Node9 -->
<g id="edge9" class="edge"><title>Node0&#45;&gt;Node9</title>
<path fill="none" stroke="blueviolet" stroke-dasharray="5,2" d="M163.489,-456.569C166.288,-508.9 181.384,-760.597 216,-829 226.36,-849.472 233.5,-852.91 253,-865 259.842,-869.242 267.76,-872.702 275.389,-875.45"/>
<text text-anchor="middle" x="225.5" y="-856" font-family="Helvetica,sans-Serif" font-size="10.00">erpc</text>
</g>
<!-- Node0&#45;&gt;Node10 -->
<g id="edge10" class="edge"><title>Node0&#45;&gt;Node10</title>
<path fill="none" stroke="blueviolet" stroke-dasharray="5,2" d="M163.653,-456.57C167.131,-505.727 184.505,-729.905 216,-791 226.513,-811.393 233.5,-814.91 253,-827 261.024,-831.975 270.529,-835.874 279.311,-838.811"/>
<text text-anchor="middle" x="225.5" y="-817" font-family="Helvetica,sans-Serif" font-size="10.00">erpc</text>
</g>
<!-- Node0&#45;&gt;Node8 -->
<g id="edge8" class="edge"><title>Node0&#45;&gt;Node8</title>
<path fill="none" stroke="blueviolet" stroke-dasharray="5,2" d="M162.584,-456.685C161.303,-496.133 160.418,-647.604 216,-753 226.703,-773.295 233.5,-776.91 253,-789 261.953,-794.551 272.75,-798.763 282.329,-801.793"/>
<text text-anchor="middle" x="225.5" y="-779" font-family="Helvetica,sans-Serif" font-size="10.00">erpc</text>
</g>
<!-- Node0&#45;&gt;Node14 -->
<g id="edge14" class="edge"><title>Node0&#45;&gt;Node14</title>
<path fill="none" stroke="blueviolet" stroke-dasharray="5,2" d="M162.897,-456.955C162.927,-493.678 166.687,-624.122 216,-715 226.943,-735.166 233.5,-738.91 253,-751 258.997,-754.718 265.821,-757.836 272.553,-760.399"/>
<text text-anchor="middle" x="225.5" y="-741" font-family="Helvetica,sans-Serif" font-size="10.00">erpc</text>
</g>
<!-- Node0&#45;&gt;Node15 -->
<g id="edge15" class="edge"><title>Node0&#45;&gt;Node15</title>
<path fill="none" stroke="blueviolet" stroke-dasharray="5,2" d="M163.317,-456.901C164.772,-490.182 172.777,-600.231 216,-677 227.256,-696.993 233.5,-700.91 253,-713 258.997,-716.718 265.821,-719.836 272.553,-722.399"/>
<text text-anchor="middle" x="225.5" y="-703" font-family="Helvetica,sans-Serif" font-size="10.00">erpc</text>
</g>
<!-- Node0&#45;&gt;Node23 -->
<g id="edge23" class="edge"><title>Node0&#45;&gt;Node23</title>
<path fill="none" stroke="blueviolet" stroke-dasharray="5,2" d="M163.946,-456.816C167.134,-486.196 179.416,-575.279 216,-638 227.717,-658.088 233.319,-662.61 253,-675 262.588,-681.036 274.345,-685.464 284.438,-688.519"/>
<text text-anchor="middle" x="225.5" y="-665" font-family="Helvetica,sans-Serif" font-size="10.00">erpc</text>
</g>
<!-- Node0&#45;&gt;Node2 -->
<g id="edge2" class="edge"><title>Node0&#45;&gt;Node2</title>
<path fill="none" stroke="blueviolet" stroke-dasharray="5,2" d="M164.759,-456.613C169.676,-481.757 185.267,-550.919 216,-600 228.342,-619.711 233.319,-624.61 253,-637 263.513,-643.618 276.634,-648.304 287.31,-651.365"/>
<text text-anchor="middle" x="225.5" y="-626" font-family="Helvetica,sans-Serif" font-size="10.00">erpc</text>
</g>
<!-- Node0&#45;&gt;Node4 -->
<g id="edge4" class="edge"><title>Node0&#45;&gt;Node4</title>
<path fill="none" stroke="blueviolet" stroke-dasharray="5,2" d="M166.097,-456.535C173.018,-477.025 191.114,-526.289 216,-562 229.296,-581.08 233.319,-586.61 253,-599 260.233,-603.554 268.7,-607.192 276.757,-610.016"/>
<text text-anchor="middle" x="225.5" y="-588" font-family="Helvetica,sans-Serif" font-size="10.00">erpc</text>
</g>
<!-- Node0&#45;&gt;Node19 -->
<g id="edge19" class="edge"><title>Node0&#45;&gt;Node19</title>
<path fill="none" stroke="blueviolet" stroke-dasharray="5,2" d="M167.52,-456.535C178.622,-478.827 209.522,-534.464 253,-561 260.465,-565.556 269.179,-569.225 277.401,-572.078"/>
<text text-anchor="middle" x="225.5" y="-550" font-family="Helvetica,sans-Serif" font-size="10.00">erpc</text>
</g>
<!-- Node0&#45;&gt;Node5 -->
<g id="edge5" class="edge"><title>Node0&#45;&gt;Node5</title>
<path fill="none" stroke="blueviolet" stroke-dasharray="5,2" d="M171.815,-456.52C186.984,-472.387 219.62,-504.337 253,-523 262.455,-528.287 273.648,-532.516 283.385,-535.63"/>
<text text-anchor="middle" x="225.5" y="-514" font-family="Helvetica,sans-Serif" font-size="10.00">erpc</text>
</g>
<!-- Node0&#45;&gt;Node21 -->
<g id="edge21" class="edge"><title>Node0&#45;&gt;Node21</title>
<path fill="none" stroke="blueviolet" stroke-dasharray="5,2" d="M183.254,-456.536C193.077,-461.067 205.085,-466.469 216,-471 232.239,-477.741 236.484,-478.971 253,-485 261.589,-488.135 270.979,-491.471 279.484,-494.458"/>
<text text-anchor="middle" x="225.5" y="-481" font-family="Helvetica,sans-Serif" font-size="10.00">erpc</text>
</g>
<!-- Node0&#45;&gt;Node24 -->
<g id="edge24" class="edge"><title>Node0&#45;&gt;Node24</title>
<path fill="none" stroke="blueviolet" stroke-dasharray="5,2" d="M198.226,-451.648C219.958,-454.515 247.8,-458.189 269.875,-461.102"/>
<text text-anchor="middle" x="225.5" y="-459" font-family="Helvetica,sans-Serif" font-size="10.00">erpc</text>
</g>
<!-- Node0&#45;&gt;Node22 -->
<g id="edge22" class="edge"><title>Node0&#45;&gt;Node22</title>
<path fill="none" stroke="blueviolet" stroke-dasharray="5,2" d="M194.727,-437.498C201.68,-435.731 209.044,-434.098 216,-433 228.503,-431.026 242.079,-429.798 254.835,-429.042"/>
<text text-anchor="middle" x="225.5" y="-436" font-family="Helvetica,sans-Serif" font-size="10.00">erpc</text>
</g>
<!-- Node0&#45;&gt;Node20 -->
<g id="edge20" class="edge"><title>Node0&#45;&gt;Node20</title>
<path fill="none" stroke="blueviolet" stroke-dasharray="5,2" d="M176.391,-437.492C186.786,-430.469 201.778,-421.108 216,-415 234.968,-406.854 257.309,-400.67 275.108,-396.491"/>
<text text-anchor="middle" x="225.5" y="-418" font-family="Helvetica,sans-Serif" font-size="10.00">erpc</text>
</g>
<!-- Node0&#45;&gt;Node18 -->
<g id="edge18" class="edge"><title>Node0&#45;&gt;Node18</title>
<path fill="none" stroke="blueviolet" stroke-dasharray="5,2" d="M170.978,-437.481C180.827,-426.078 198.435,-406.79 216,-393 231.048,-381.186 235.669,-379.104 253,-371 260.472,-367.506 268.776,-364.28 276.586,-361.517"/>
<text text-anchor="middle" x="225.5" y="-396" font-family="Helvetica,sans-Serif" font-size="10.00">erpc</text>
</g>
<!-- Node0&#45;&gt;Node6 -->
<g id="edge6" class="edge"><title>Node0&#45;&gt;Node6</title>
<path fill="none" stroke="blueviolet" stroke-dasharray="5,2" d="M167.416,-437.288C178.293,-414.616 208.742,-358.215 253,-333 263.276,-327.146 275.667,-322.628 285.986,-319.47"/>
<text text-anchor="middle" x="225.5" y="-365" font-family="Helvetica,sans-Serif" font-size="10.00">erpc</text>
</g>
<!-- Node0&#45;&gt;Node12 -->
<g id="edge12" class="edge"><title>Node0&#45;&gt;Node12</title>
<path fill="none" stroke="blueviolet" stroke-dasharray="5,2" d="M166.04,-437.354C172.853,-416.63 190.748,-366.837 216,-331 229.216,-312.245 233.5,-307.09 253,-295 258.997,-291.282 265.821,-288.164 272.553,-285.601"/>
<text text-anchor="middle" x="225.5" y="-334" font-family="Helvetica,sans-Serif" font-size="10.00">erpc</text>
</g>
<!-- Node0&#45;&gt;Node11 -->
<g id="edge11" class="edge"><title>Node0&#45;&gt;Node11</title>
<path fill="none" stroke="blueviolet" stroke-dasharray="5,2" d="M164.705,-437.3C169.494,-411.932 184.8,-342.186 216,-293 228.29,-273.625 233.5,-269.09 253,-257 259.842,-252.758 267.76,-249.298 275.389,-246.55"/>
<text text-anchor="middle" x="225.5" y="-296" font-family="Helvetica,sans-Serif" font-size="10.00">erpc</text>
</g>
<!-- Node25 -->
<g id="node21" class="node"><title>Node25</title>
<g id="a_node21"><a xlink:href="group___u_s_b___c_d_c__transport.html" target="_top" xlink:title="USB CDC transport. ">
<polygon fill="white" stroke="black" points="278,-190.5 278,-209.5 338,-209.5 338,-190.5 278,-190.5"/>
<text text-anchor="middle" x="308" y="-197.5" font-family="Helvetica,sans-Serif" font-size="10.00">USB CDC</text>
</a>
</g>
</g>
<!-- Node0&#45;&gt;Node25 -->
<g id="edge25" class="edge"><title>Node0&#45;&gt;Node25</title>
<path fill="none" stroke="blueviolet" stroke-dasharray="5,2" d="M163.799,-437.453C166.621,-408.069 178.089,-317.16 216,-254 227.649,-234.592 233.678,-230.793 253,-219 260.635,-214.34 269.576,-210.609 277.961,-207.728"/>
<text text-anchor="middle" x="225.5" y="-257" font-family="Helvetica,sans-Serif" font-size="10.00">erpc</text>
</g>
<!-- Node3 -->
<g id="node22" class="node"><title>Node3</title>
<g id="a_node22"><a xlink:href="group__infra__codec.html" target="_top" xlink:title="Classes used for message serialization. ">
<polygon fill="white" stroke="black" points="273,-152.5 273,-171.5 343,-171.5 343,-152.5 273,-152.5"/>
<text text-anchor="middle" x="308" y="-159.5" font-family="Helvetica,sans-Serif" font-size="10.00">Serialization</text>
</a>
</g>
</g>
<!-- Node0&#45;&gt;Node3 -->
<g id="edge3" class="edge"><title>Node0&#45;&gt;Node3</title>
<path fill="none" stroke="blueviolet" stroke-dasharray="5,2" d="M163.195,-437.43C164.264,-404.281 171.185,-292.173 216,-215 227.215,-195.687 233.853,-192.497 253,-181 259.22,-177.265 266.283,-174.116 273.204,-171.521"/>
<text text-anchor="middle" x="225.5" y="-218" font-family="Helvetica,sans-Serif" font-size="10.00">erpc</text>
</g>
<!-- Node16 -->
<g id="node23" class="node"><title>Node16</title>
<g id="a_node23"><a xlink:href="group__rpmsg__lite__rtos__transport.html" target="_top" xlink:title="RPMsg&#45;Lite zero copy transport using RTOS API. ">
<polygon fill="white" stroke="black" points="259.5,-114.5 259.5,-133.5 356.5,-133.5 356.5,-114.5 259.5,-114.5"/>
<text text-anchor="middle" x="308" y="-121.5" font-family="Helvetica,sans-Serif" font-size="10.00">RPMsg&#45;Lite RTOS</text>
</a>
</g>
</g>
<!-- Node0&#45;&gt;Node16 -->
<g id="edge16" class="edge"><title>Node0&#45;&gt;Node16</title>
<path fill="none" stroke="blueviolet" stroke-dasharray="5,2" d="M162.797,-437.429C162.431,-400.975 164.863,-268.265 216,-177 226.917,-157.517 233.853,-154.497 253,-143 259.22,-139.265 266.283,-136.116 273.204,-133.521"/>
<text text-anchor="middle" x="225.5" y="-180" font-family="Helvetica,sans-Serif" font-size="10.00">erpc</text>
</g>
<!-- Node17 -->
<g id="node24" class="node"><title>Node17</title>
<g id="a_node24"><a xlink:href="group__rpmsg__lite__transport.html" target="_top" xlink:title="RPMsg&#45;Lite zero copy transport. ">
<polygon fill="white" stroke="black" points="274,-76.5 274,-95.5 342,-95.5 342,-76.5 274,-76.5"/>
<text text-anchor="middle" x="308" y="-83.5" font-family="Helvetica,sans-Serif" font-size="10.00">RPMsg&#45;Lite</text>
</a>
</g>
</g>
<!-- Node0&#45;&gt;Node17 -->
<g id="edge17" class="edge"><title>Node0&#45;&gt;Node17</title>
<path fill="none" stroke="blueviolet" stroke-dasharray="5,2" d="M163.831,-437.213C167.901,-390.781 186.723,-192.716 216,-139 226.688,-119.39 233.853,-116.497 253,-105 259.39,-101.163 266.671,-97.9434 273.772,-95.3089"/>
<text text-anchor="middle" x="225.5" y="-142" font-family="Helvetica,sans-Serif" font-size="10.00">erpc</text>
</g>
<!-- Node7 -->
<g id="node25" class="node"><title>Node7</title>
<g id="a_node25"><a xlink:href="group__port__setup__extensions.html" target="_top" xlink:title="Extension setup functions. ">
<polygon fill="white" stroke="black" points="263.5,-38.5 263.5,-57.5 352.5,-57.5 352.5,-38.5 263.5,-38.5"/>
<text text-anchor="middle" x="308" y="-45.5" font-family="Helvetica,sans-Serif" font-size="10.00">Extension Setup</text>
</a>
</g>
</g>
<!-- Node0&#45;&gt;Node7 -->
<g id="edge7" class="edge"><title>Node0&#45;&gt;Node7</title>
<path fill="none" stroke="blueviolet" stroke-dasharray="5,2" d="M163.615,-437.358C166.903,-387.831 183.479,-161.998 216,-101 227.698,-79.0589 252.649,-65.4722 273.471,-57.5557"/>
<text text-anchor="middle" x="225.5" y="-104" font-family="Helvetica,sans-Serif" font-size="10.00">erpc</text>
</g>
<!-- Node13 -->
<g id="node26" class="node"><title>Node13</title>
<g id="a_node26"><a xlink:href="group__lpspi__slave__transport.html" target="_top" xlink:title="Lpspi_slave_transport">
<polygon fill="white" stroke="black" points="253,-0.5 253,-19.5 363,-19.5 363,-0.5 253,-0.5"/>
<text text-anchor="middle" x="308" y="-7.5" font-family="Helvetica,sans-Serif" font-size="10.00">Lpspi_slave_transport</text>
</a>
</g>
</g>
<!-- Node0&#45;&gt;Node13 -->
<g id="edge13" class="edge"><title>Node0&#45;&gt;Node13</title>
<path fill="none" stroke="blueviolet" stroke-dasharray="5,2" d="M163.471,-437.398C166.171,-384.887 180.826,-132.339 216,-64 226.359,-43.8733 233.678,-40.7925 253,-29 259.108,-25.2722 266.052,-22.1384 272.878,-19.5592"/>
<text text-anchor="middle" x="225.5" y="-67" font-family="Helvetica,sans-Serif" font-size="10.00">erpc</text>
</g>
</g>
</svg>
