<?xml version="1.0" encoding="UTF-8" standalone="no"?>
<!DOCTYPE svg PUBLIC "-//W3C//DTD SVG 1.1//EN"
 "http://www.w3.org/Graphics/SVG/1.1/DTD/svg11.dtd">
<!-- Generated by graphviz version 2.38.0 (20140413.2041)
 -->
<!-- Title: USB CDC Pages: 1 -->
<svg width="355pt" height="788pt"
 viewBox="0.00 0.00 355.00 788.00" xmlns="http://www.w3.org/2000/svg" xmlns:xlink="http://www.w3.org/1999/xlink">
<g id="graph0" class="graph" transform="scale(1 1) rotate(0) translate(4 784)">
<title>USB CDC</title>
<polygon fill="white" stroke="none" points="-4,4 -4,-784 351,-784 351,4 -4,4"/>
<!-- Node1 -->
<g id="node1" class="node"><title>Node1</title>
<g id="a_node1"><a xlink:href="group__transports.html" target="_top" xlink:title="Transport layer classes. ">
<polygon fill="white" stroke="black" points="0,-380.5 0,-399.5 89,-399.5 89,-380.5 0,-380.5"/>
<text text-anchor="middle" x="44.5" y="-387.5" font-family="Helvetica,sans-Serif" font-size="10.00">Transport Layers</text>
</a>
</g>
</g>
<!-- Node0 -->
<g id="node19" class="node"><title>Node0</title>
<polygon fill="#bfbfbf" stroke="black" points="126,-380.5 126,-399.5 186,-399.5 186,-380.5 126,-380.5"/>
<text text-anchor="middle" x="156" y="-387.5" font-family="Helvetica,sans-Serif" font-size="10.00">USB CDC</text>
</g>
<!-- Node1&#45;&gt;Node0 -->
<g id="edge1" class="edge"><title>Node1&#45;&gt;Node0</title>
<path fill="none" stroke="black" d="M99.2923,-390C108.388,-390 117.518,-390 125.68,-390"/>
<polygon fill="black" stroke="black" points="99.092,-386.5 89.0919,-390 99.0919,-393.5 99.092,-386.5"/>
</g>
<!-- Node10 -->
<g id="node2" class="node"><title>Node10</title>
<g id="a_node2"><a xlink:href="group__dspi__slave__transport.html" target="_top" xlink:title="MCUXpressoSDK DSPI slave driver transport. ">
<polygon fill="white" stroke="black" points="261.5,-760.5 261.5,-779.5 326.5,-779.5 326.5,-760.5 261.5,-760.5"/>
<text text-anchor="middle" x="294" y="-767.5" font-family="Helvetica,sans-Serif" font-size="10.00">DSPI Slave</text>
</a>
</g>
</g>
<!-- Node11 -->
<g id="node3" class="node"><title>Node11</title>
<g id="a_node3"><a xlink:href="group__i2c__slave__transport.html" target="_top" xlink:title="MCUXpressoSDK I2C slave driver transport. ">
<polygon fill="white" stroke="black" points="265.5,-722.5 265.5,-741.5 322.5,-741.5 322.5,-722.5 265.5,-722.5"/>
<text text-anchor="middle" x="294" y="-729.5" font-family="Helvetica,sans-Serif" font-size="10.00">I2C Slave</text>
</a>
</g>
</g>
<!-- Node8 -->
<g id="node4" class="node"><title>Node8</title>
<g id="a_node4"><a xlink:href="group__port__threads.html" target="_top" xlink:title="Threading model. ">
<polygon fill="white" stroke="black" points="268.5,-684.5 268.5,-703.5 319.5,-703.5 319.5,-684.5 268.5,-684.5"/>
<text text-anchor="middle" x="294" y="-691.5" font-family="Helvetica,sans-Serif" font-size="10.00">Threads</text>
</a>
</g>
</g>
<!-- Node13 -->
<g id="node5" class="node"><title>Node13</title>
<g id="a_node5"><a xlink:href="group__mu__transport.html" target="_top" xlink:title="Messaging Unit transport. ">
<polygon fill="white" stroke="black" points="252,-646.5 252,-665.5 336,-665.5 336,-646.5 252,-646.5"/>
<text text-anchor="middle" x="294" y="-653.5" font-family="Helvetica,sans-Serif" font-size="10.00">Messaging Unit</text>
</a>
</g>
</g>
<!-- Node21 -->
<g id="node6" class="node"><title>Node21</title>
<g id="a_node6"><a xlink:href="group__tcp__transport.html" target="_top" xlink:title="Simple TCP/IP transport. ">
<polygon fill="white" stroke="black" points="270.5,-608.5 270.5,-627.5 317.5,-627.5 317.5,-608.5 270.5,-608.5"/>
<text text-anchor="middle" x="294" y="-615.5" font-family="Helvetica,sans-Serif" font-size="10.00">TCP/IP</text>
</a>
</g>
</g>
<!-- Node2 -->
<g id="node7" class="node"><title>Node2</title>
<g id="a_node7"><a xlink:href="group__infra__client.html" target="_top" xlink:title="Client classes. ">
<polygon fill="white" stroke="black" points="273.5,-570.5 273.5,-589.5 314.5,-589.5 314.5,-570.5 273.5,-570.5"/>
<text text-anchor="middle" x="294" y="-577.5" font-family="Helvetica,sans-Serif" font-size="10.00">Client</text>
</a>
</g>
</g>
<!-- Node4 -->
<g id="node8" class="node"><title>Node4</title>
<g id="a_node8"><a xlink:href="group__infra__transport.html" target="_top" xlink:title="Superclasses for building transports. ">
<polygon fill="white" stroke="black" points="263,-532.5 263,-551.5 325,-551.5 325,-532.5 263,-532.5"/>
<text text-anchor="middle" x="294" y="-539.5" font-family="Helvetica,sans-Serif" font-size="10.00">Transports</text>
</a>
</g>
</g>
<!-- Node17 -->
<g id="node9" class="node"><title>Node17</title>
<g id="a_node9"><a xlink:href="group__serial__transport.html" target="_top" xlink:title="POSIX and Win32 serial port transport. ">
<polygon fill="white" stroke="black" points="263.5,-494.5 263.5,-513.5 324.5,-513.5 324.5,-494.5 263.5,-494.5"/>
<text text-anchor="middle" x="294" y="-501.5" font-family="Helvetica,sans-Serif" font-size="10.00">Serial port</text>
</a>
</g>
</g>
<!-- Node5 -->
<g id="node10" class="node"><title>Node5</title>
<g id="a_node10"><a xlink:href="group__infra__utility.html" target="_top" xlink:title="Utility code used by the infrastructure. ">
<polygon fill="white" stroke="black" points="269.5,-456.5 269.5,-475.5 318.5,-475.5 318.5,-456.5 269.5,-456.5"/>
<text text-anchor="middle" x="294" y="-463.5" font-family="Helvetica,sans-Serif" font-size="10.00">Utilities</text>
</a>
</g>
</g>
<!-- Node19 -->
<g id="node11" class="node"><title>Node19</title>
<g id="a_node11"><a xlink:href="group__spi__slave__transport.html" target="_top" xlink:title="MCUXpressoSDK SPI slave driver transport. ">
<polygon fill="white" stroke="black" points="264.5,-418.5 264.5,-437.5 323.5,-437.5 323.5,-418.5 264.5,-418.5"/>
<text text-anchor="middle" x="294" y="-425.5" font-family="Helvetica,sans-Serif" font-size="10.00">SPI Slave</text>
</a>
</g>
</g>
<!-- Node22 -->
<g id="node12" class="node"><title>Node22</title>
<g id="a_node12"><a xlink:href="group__uart__transport.html" target="_top" xlink:title="CMSIS UART driver transport. ">
<polygon fill="white" stroke="black" points="256,-380.5 256,-399.5 332,-399.5 332,-380.5 256,-380.5"/>
<text text-anchor="middle" x="294" y="-387.5" font-family="Helvetica,sans-Serif" font-size="10.00">CMSIS UART</text>
</a>
</g>
</g>
<!-- Node20 -->
<g id="node13" class="node"><title>Node20</title>
<g id="a_node13"><a xlink:href="group__spidev__master__transport.html" target="_top" xlink:title="SPIdev Linux transport. ">
<polygon fill="white" stroke="black" points="241,-342.5 241,-361.5 347,-361.5 347,-342.5 241,-342.5"/>
<text text-anchor="middle" x="294" y="-349.5" font-family="Helvetica,sans-Serif" font-size="10.00">SPIdev Linux Master</text>
</a>
</g>
</g>
<!-- Node18 -->
<g id="node14" class="node"><title>Node18</title>
<g id="a_node14"><a xlink:href="group__spi__master__transport.html" target="_top" xlink:title="MCUXpressoSDK SPI master driver transport. ">
<polygon fill="white" stroke="black" points="261.5,-304.5 261.5,-323.5 326.5,-323.5 326.5,-304.5 261.5,-304.5"/>
<text text-anchor="middle" x="294" y="-311.5" font-family="Helvetica,sans-Serif" font-size="10.00">SPI Master</text>
</a>
</g>
</g>
<!-- Node16 -->
<g id="node15" class="node"><title>Node16</title>
<g id="a_node15"><a xlink:href="group__rpmsg__tty__rtos__transport.html" target="_top" xlink:title="RPMsg TTY RTOS transport. ">
<polygon fill="white" stroke="black" points="245,-266.5 245,-285.5 343,-285.5 343,-266.5 245,-266.5"/>
<text text-anchor="middle" x="294" y="-273.5" font-family="Helvetica,sans-Serif" font-size="10.00">RPMsg TTY RTOS</text>
</a>
</g>
</g>
<!-- Node6 -->
<g id="node16" class="node"><title>Node6</title>
<g id="a_node16"><a xlink:href="group__infra__server.html" target="_top" xlink:title="Server classes. ">
<polygon fill="white" stroke="black" points="272,-228.5 272,-247.5 316,-247.5 316,-228.5 272,-228.5"/>
<text text-anchor="middle" x="294" y="-235.5" font-family="Helvetica,sans-Serif" font-size="10.00">Server</text>
</a>
</g>
</g>
<!-- Node12 -->
<g id="node17" class="node"><title>Node12</title>
<g id="a_node17"><a xlink:href="group__itbp__transport.html" target="_top" xlink:title="Simple inter&#45;thread communications transport. ">
<polygon fill="white" stroke="black" points="261.5,-190.5 261.5,-209.5 326.5,-209.5 326.5,-190.5 261.5,-190.5"/>
<text text-anchor="middle" x="294" y="-197.5" font-family="Helvetica,sans-Serif" font-size="10.00">Inter&#45;thread</text>
</a>
</g>
</g>
<!-- Node9 -->
<g id="node18" class="node"><title>Node9</title>
<g id="a_node18"><a xlink:href="group__dspi__master__transport.html" target="_top" xlink:title="MCUXpressoSDK DSPI master driver transport. ">
<polygon fill="white" stroke="black" points="258,-152.5 258,-171.5 330,-171.5 330,-152.5 258,-152.5"/>
<text text-anchor="middle" x="294" y="-159.5" font-family="Helvetica,sans-Serif" font-size="10.00">DSPI Master</text>
</a>
</g>
</g>
<!-- Node0&#45;&gt;Node10 -->
<g id="edge10" class="edge"><title>Node0&#45;&gt;Node10</title>
<path fill="none" stroke="blueviolet" stroke-dasharray="5,2" d="M157.561,-399.661C160.451,-447.329 174.682,-657.476 204,-715 214.419,-735.442 221.573,-738.793 241,-751 247.266,-754.938 254.468,-758.225 261.474,-760.898"/>
<text text-anchor="middle" x="213.5" y="-741" font-family="Helvetica,sans-Serif" font-size="10.00">erpc</text>
</g>
<!-- Node0&#45;&gt;Node11 -->
<g id="edge11" class="edge"><title>Node0&#45;&gt;Node11</title>
<path fill="none" stroke="blueviolet" stroke-dasharray="5,2" d="M157.769,-399.684C161.405,-443.917 177.793,-626.748 204,-677 214.609,-697.344 221.573,-700.793 241,-713 248.406,-717.653 257.117,-721.399 265.27,-724.295"/>
<text text-anchor="middle" x="213.5" y="-703" font-family="Helvetica,sans-Serif" font-size="10.00">erpc</text>
</g>
<!-- Node0&#45;&gt;Node8 -->
<g id="edge8" class="edge"><title>Node0&#45;&gt;Node8</title>
<path fill="none" stroke="blueviolet" stroke-dasharray="5,2" d="M156.795,-399.72C156.468,-434.463 158.834,-554.897 204,-639 214.855,-659.213 221.573,-662.793 241,-675 249.382,-680.267 259.437,-684.372 268.462,-687.396"/>
<text text-anchor="middle" x="213.5" y="-665" font-family="Helvetica,sans-Serif" font-size="10.00">erpc</text>
</g>
<!-- Node0&#45;&gt;Node13 -->
<g id="edge13" class="edge"><title>Node0&#45;&gt;Node13</title>
<path fill="none" stroke="blueviolet" stroke-dasharray="5,2" d="M157.219,-399.512C158.312,-430.544 164.853,-530.873 204,-601 215.183,-621.034 221.573,-624.793 241,-637 246.941,-640.733 253.722,-643.882 260.381,-646.477"/>
<text text-anchor="middle" x="213.5" y="-627" font-family="Helvetica,sans-Serif" font-size="10.00">erpc</text>
</g>
<!-- Node0&#45;&gt;Node21 -->
<g id="edge21" class="edge"><title>Node0&#45;&gt;Node21</title>
<path fill="none" stroke="blueviolet" stroke-dasharray="5,2" d="M157.886,-399.606C160.745,-426.815 171.513,-506.05 204,-562 215.678,-582.111 221.394,-586.492 241,-599 249.913,-604.686 260.768,-608.994 270.249,-612.058"/>
<text text-anchor="middle" x="213.5" y="-589" font-family="Helvetica,sans-Serif" font-size="10.00">erpc</text>
</g>
<!-- Node0&#45;&gt;Node2 -->
<g id="edge2" class="edge"><title>Node0&#45;&gt;Node2</title>
<path fill="none" stroke="blueviolet" stroke-dasharray="5,2" d="M158.96,-399.552C163.891,-422.147 178.292,-480.123 204,-522 216.5,-542.362 221.028,-547.886 241,-561 250.802,-567.436 263.071,-572.053 273.23,-575.123"/>
<text text-anchor="middle" x="213.5" y="-550" font-family="Helvetica,sans-Serif" font-size="10.00">erpc</text>
</g>
<!-- Node0&#45;&gt;Node4 -->
<g id="edge4" class="edge"><title>Node0&#45;&gt;Node4</title>
<path fill="none" stroke="blueviolet" stroke-dasharray="5,2" d="M159.957,-399.74C168.16,-424.937 193.774,-492.427 241,-523 247.616,-527.283 255.329,-530.772 262.757,-533.535"/>
<text text-anchor="middle" x="213.5" y="-510" font-family="Helvetica,sans-Serif" font-size="10.00">erpc</text>
</g>
<!-- Node0&#45;&gt;Node17 -->
<g id="edge17" class="edge"><title>Node0&#45;&gt;Node17</title>
<path fill="none" stroke="blueviolet" stroke-dasharray="5,2" d="M162.605,-399.512C174.482,-418.797 204.139,-462.566 241,-485 247.897,-489.198 255.866,-492.686 263.462,-495.479"/>
<text text-anchor="middle" x="213.5" y="-473" font-family="Helvetica,sans-Serif" font-size="10.00">erpc</text>
</g>
<!-- Node0&#45;&gt;Node5 -->
<g id="edge5" class="edge"><title>Node0&#45;&gt;Node5</title>
<path fill="none" stroke="blueviolet" stroke-dasharray="5,2" d="M168.848,-399.665C184.532,-412.065 213.431,-433.572 241,-447 249.987,-451.377 260.254,-455.333 269.278,-458.489"/>
<text text-anchor="middle" x="213.5" y="-439" font-family="Helvetica,sans-Serif" font-size="10.00">erpc</text>
</g>
<!-- Node0&#45;&gt;Node19 -->
<g id="edge19" class="edge"><title>Node0&#45;&gt;Node19</title>
<path fill="none" stroke="blueviolet" stroke-dasharray="5,2" d="M186.006,-399.537C191.94,-401.41 198.157,-403.314 204,-405 224.087,-410.796 246.921,-416.683 264.431,-421.05"/>
<text text-anchor="middle" x="213.5" y="-412" font-family="Helvetica,sans-Serif" font-size="10.00">erpc</text>
</g>
<!-- Node0&#45;&gt;Node22 -->
<g id="edge22" class="edge"><title>Node0&#45;&gt;Node22</title>
<path fill="none" stroke="blueviolet" stroke-dasharray="5,2" d="M186.175,-390C206.546,-390 233.908,-390 255.84,-390"/>
<text text-anchor="middle" x="213.5" y="-393" font-family="Helvetica,sans-Serif" font-size="10.00">erpc</text>
</g>
<!-- Node0&#45;&gt;Node20 -->
<g id="edge20" class="edge"><title>Node0&#45;&gt;Node20</title>
<path fill="none" stroke="blueviolet" stroke-dasharray="5,2" d="M186.006,-380.463C191.94,-378.59 198.157,-376.686 204,-375 220.253,-370.31 238.306,-365.561 253.881,-361.605"/>
<text text-anchor="middle" x="213.5" y="-378" font-family="Helvetica,sans-Serif" font-size="10.00">erpc</text>
</g>
<!-- Node0&#45;&gt;Node18 -->
<g id="edge18" class="edge"><title>Node0&#45;&gt;Node18</title>
<path fill="none" stroke="blueviolet" stroke-dasharray="5,2" d="M168.539,-380.466C184.117,-368.009 213.14,-346.231 241,-333 248.293,-329.536 256.399,-326.3 263.998,-323.515"/>
<text text-anchor="middle" x="213.5" y="-356" font-family="Helvetica,sans-Serif" font-size="10.00">erpc</text>
</g>
<!-- Node0&#45;&gt;Node16 -->
<g id="edge16" class="edge"><title>Node0&#45;&gt;Node16</title>
<path fill="none" stroke="blueviolet" stroke-dasharray="5,2" d="M162.578,-380.443C174.405,-361.075 203.974,-317.16 241,-295 247.185,-291.298 254.21,-288.134 261.051,-285.511"/>
<text text-anchor="middle" x="213.5" y="-326" font-family="Helvetica,sans-Serif" font-size="10.00">erpc</text>
</g>
<!-- Node0&#45;&gt;Node6 -->
<g id="edge6" class="edge"><title>Node0&#45;&gt;Node6</title>
<path fill="none" stroke="blueviolet" stroke-dasharray="5,2" d="M159.934,-380.224C168.081,-354.94 193.571,-287.257 241,-257 250.4,-251.004 261.958,-246.54 271.788,-243.452"/>
<text text-anchor="middle" x="213.5" y="-294" font-family="Helvetica,sans-Serif" font-size="10.00">erpc</text>
</g>
<!-- Node0&#45;&gt;Node12 -->
<g id="edge12" class="edge"><title>Node0&#45;&gt;Node12</title>
<path fill="none" stroke="blueviolet" stroke-dasharray="5,2" d="M158.907,-380.352C163.724,-357.536 177.896,-299.021 204,-257 216.439,-236.977 221.212,-231.81 241,-219 247.213,-214.978 254.392,-211.657 261.395,-208.978"/>
<text text-anchor="middle" x="213.5" y="-260" font-family="Helvetica,sans-Serif" font-size="10.00">erpc</text>
</g>
<!-- Node0&#45;&gt;Node9 -->
<g id="edge9" class="edge"><title>Node0&#45;&gt;Node9</title>
<path fill="none" stroke="blueviolet" stroke-dasharray="5,2" d="M157.833,-380.315C160.554,-352.889 170.994,-273.052 204,-217 215.642,-197.229 221.573,-193.207 241,-181 246.941,-177.267 253.722,-174.118 260.381,-171.523"/>
<text text-anchor="middle" x="213.5" y="-220" font-family="Helvetica,sans-Serif" font-size="10.00">erpc</text>
</g>
<!-- Node3 -->
<g id="node20" class="node"><title>Node3</title>
<g id="a_node20"><a xlink:href="group__infra__codec.html" target="_top" xlink:title="Classes used for message serialization. ">
<polygon fill="white" stroke="black" points="259,-114.5 259,-133.5 329,-133.5 329,-114.5 259,-114.5"/>
<text text-anchor="middle" x="294" y="-121.5" font-family="Helvetica,sans-Serif" font-size="10.00">Serialization</text>
</a>
</g>
</g>
<!-- Node0&#45;&gt;Node3 -->
<g id="edge3" class="edge"><title>Node0&#45;&gt;Node3</title>
<path fill="none" stroke="blueviolet" stroke-dasharray="5,2" d="M157.168,-380.421C158.103,-349.173 164.217,-248.185 204,-178 215.162,-158.307 221.749,-154.908 241,-143 246.967,-139.309 253.759,-136.178 260.421,-133.588"/>
<text text-anchor="middle" x="213.5" y="-181" font-family="Helvetica,sans-Serif" font-size="10.00">erpc</text>
</g>
<!-- Node14 -->
<g id="node21" class="node"><title>Node14</title>
<g id="a_node21"><a xlink:href="group__rpmsg__lite__rtos__transport.html" target="_top" xlink:title="RPMsg&#45;Lite zero copy transport using RTOS API. ">
<polygon fill="white" stroke="black" points="245.5,-76.5 245.5,-95.5 342.5,-95.5 342.5,-76.5 245.5,-76.5"/>
<text text-anchor="middle" x="294" y="-83.5" font-family="Helvetica,sans-Serif" font-size="10.00">RPMsg&#45;Lite RTOS</text>
</a>
</g>
</g>
<!-- Node0&#45;&gt;Node14 -->
<g id="edge14" class="edge"><title>Node0&#45;&gt;Node14</title>
<path fill="none" stroke="blueviolet" stroke-dasharray="5,2" d="M156.691,-380.157C156.013,-344.983 157.341,-223.132 204,-139 214.832,-119.469 221.923,-116.611 241,-105 247.076,-101.302 253.984,-98.1545 260.736,-95.548"/>
<text text-anchor="middle" x="213.5" y="-142" font-family="Helvetica,sans-Serif" font-size="10.00">erpc</text>
</g>
<!-- Node15 -->
<g id="node22" class="node"><title>Node15</title>
<g id="a_node22"><a xlink:href="group__rpmsg__lite__transport.html" target="_top" xlink:title="RPMsg&#45;Lite zero copy transport. ">
<polygon fill="white" stroke="black" points="260,-38.5 260,-57.5 328,-57.5 328,-38.5 260,-38.5"/>
<text text-anchor="middle" x="294" y="-45.5" font-family="Helvetica,sans-Serif" font-size="10.00">RPMsg&#45;Lite</text>
</a>
</g>
</g>
<!-- Node0&#45;&gt;Node15 -->
<g id="edge15" class="edge"><title>Node0&#45;&gt;Node15</title>
<path fill="none" stroke="blueviolet" stroke-dasharray="5,2" d="M157.73,-380.231C161.192,-335.615 176.924,-151.226 204,-101 215.691,-79.3129 240.358,-65.659 260.764,-57.6513"/>
<text text-anchor="middle" x="213.5" y="-104" font-family="Helvetica,sans-Serif" font-size="10.00">erpc</text>
</g>
<!-- Node7 -->
<g id="node23" class="node"><title>Node7</title>
<g id="a_node23"><a xlink:href="group__port__setup__extensions.html" target="_top" xlink:title="Extension setup functions. ">
<polygon fill="white" stroke="black" points="249.5,-0.5 249.5,-19.5 338.5,-19.5 338.5,-0.5 249.5,-0.5"/>
<text text-anchor="middle" x="294" y="-7.5" font-family="Helvetica,sans-Serif" font-size="10.00">Extension Setup</text>
</a>
</g>
</g>
<!-- Node0&#45;&gt;Node7 -->
<g id="edge7" class="edge"><title>Node0&#45;&gt;Node7</title>
<path fill="none" stroke="blueviolet" stroke-dasharray="5,2" d="M157.541,-380.301C160.34,-332.447 174.2,-121.495 204,-64 214.416,-43.9028 221.749,-40.9082 241,-29 246.967,-25.3089 253.759,-22.1779 260.421,-19.5877"/>
<text text-anchor="middle" x="213.5" y="-67" font-family="Helvetica,sans-Serif" font-size="10.00">erpc</text>
</g>
</g>
</svg>
