<?xml version="1.0" encoding="UTF-8" standalone="no"?>
<!DOCTYPE svg PUBLIC "-//W3C//DTD SVG 1.1//EN"
 "http://www.w3.org/Graphics/SVG/1.1/DTD/svg11.dtd">
<!-- Generated by graphviz version 2.38.0 (20140413.2041)
 -->
<!-- Title: Transports Pages: 1 -->
<svg width="341pt" height="750pt"
 viewBox="0.00 0.00 341.00 750.00" xmlns="http://www.w3.org/2000/svg" xmlns:xlink="http://www.w3.org/1999/xlink">
<g id="graph0" class="graph" transform="scale(1 1) rotate(0) translate(4 746)">
<title>Transports</title>
<polygon fill="white" stroke="none" points="-4,4 -4,-746 337,-746 337,4 -4,4"/>
<!-- Node9 -->
<g id="node1" class="node"><title>Node9</title>
<g id="a_node1"><a xlink:href="group__dspi__slave__transport.html" target="_top" xlink:title="Kinetis SDK DSPI slave driver transport. ">
<polygon fill="white" stroke="black" points="247.5,-722.5 247.5,-741.5 312.5,-741.5 312.5,-722.5 247.5,-722.5"/>
<text text-anchor="middle" x="280" y="-729.5" font-family="Helvetica,sans-Serif" font-size="10.00">DSPI Slave</text>
</a>
</g>
</g>
<!-- Node7 -->
<g id="node2" class="node"><title>Node7</title>
<g id="a_node2"><a xlink:href="group__port__threads.html" target="_top" xlink:title="Threading model. ">
<polygon fill="white" stroke="black" points="254.5,-684.5 254.5,-703.5 305.5,-703.5 305.5,-684.5 254.5,-684.5"/>
<text text-anchor="middle" x="280" y="-691.5" font-family="Helvetica,sans-Serif" font-size="10.00">Threads</text>
</a>
</g>
</g>
<!-- Node11 -->
<g id="node3" class="node"><title>Node11</title>
<g id="a_node3"><a xlink:href="group__mu__transport.html" target="_top" xlink:title="Messaging Unit transport. ">
<polygon fill="white" stroke="black" points="238,-646.5 238,-665.5 322,-665.5 322,-646.5 238,-646.5"/>
<text text-anchor="middle" x="280" y="-653.5" font-family="Helvetica,sans-Serif" font-size="10.00">Messaging Unit</text>
</a>
</g>
</g>
<!-- Node19 -->
<g id="node4" class="node"><title>Node19</title>
<g id="a_node4"><a xlink:href="group__tcp__transport.html" target="_top" xlink:title="Simple TCP/IP transport. ">
<polygon fill="white" stroke="black" points="256.5,-608.5 256.5,-627.5 303.5,-627.5 303.5,-608.5 256.5,-608.5"/>
<text text-anchor="middle" x="280" y="-615.5" font-family="Helvetica,sans-Serif" font-size="10.00">TCP/IP</text>
</a>
</g>
</g>
<!-- Node1 -->
<g id="node5" class="node"><title>Node1</title>
<g id="a_node5"><a xlink:href="group__infra.html" target="_top" xlink:title="C++ core. ">
<polygon fill="white" stroke="black" points="0,-361.5 0,-380.5 73,-380.5 73,-361.5 0,-361.5"/>
<text text-anchor="middle" x="36.5" y="-368.5" font-family="Helvetica,sans-Serif" font-size="10.00">Infrastructure</text>
</a>
</g>
</g>
<!-- Node0 -->
<g id="node7" class="node"><title>Node0</title>
<polygon fill="#bfbfbf" stroke="black" points="110,-361.5 110,-380.5 172,-380.5 172,-361.5 110,-361.5"/>
<text text-anchor="middle" x="141" y="-368.5" font-family="Helvetica,sans-Serif" font-size="10.00">Transports</text>
</g>
<!-- Node1&#45;&gt;Node0 -->
<g id="edge1" class="edge"><title>Node1&#45;&gt;Node0</title>
<path fill="none" stroke="black" d="M83.152,-371C92.2329,-371 101.551,-371 109.948,-371"/>
<polygon fill="black" stroke="black" points="83.0619,-367.5 73.0619,-371 83.0618,-374.5 83.0619,-367.5"/>
</g>
<!-- Node2 -->
<g id="node6" class="node"><title>Node2</title>
<g id="a_node6"><a xlink:href="group__infra__client.html" target="_top" xlink:title="Client classes. ">
<polygon fill="white" stroke="black" points="259.5,-570.5 259.5,-589.5 300.5,-589.5 300.5,-570.5 259.5,-570.5"/>
<text text-anchor="middle" x="280" y="-577.5" font-family="Helvetica,sans-Serif" font-size="10.00">Client</text>
</a>
</g>
</g>
<!-- Node0&#45;&gt;Node9 -->
<g id="edge9" class="edge"><title>Node0&#45;&gt;Node9</title>
<path fill="none" stroke="blueviolet" stroke-dasharray="5,2" d="M142.695,-380.702C146.119,-426.738 162.145,-623.147 190,-677 200.541,-697.379 207.573,-700.793 227,-713 233.266,-716.938 240.468,-720.225 247.474,-722.898"/>
<text text-anchor="middle" x="199.5" y="-703" font-family="Helvetica,sans-Serif" font-size="10.00">erpc</text>
</g>
<!-- Node0&#45;&gt;Node7 -->
<g id="edge7" class="edge"><title>Node0&#45;&gt;Node7</title>
<path fill="none" stroke="blueviolet" stroke-dasharray="5,2" d="M141.664,-380.946C140.845,-417.639 141.672,-547.991 190,-639 200.761,-659.264 207.573,-662.793 227,-675 235.382,-680.267 245.437,-684.372 254.462,-687.396"/>
<text text-anchor="middle" x="199.5" y="-665" font-family="Helvetica,sans-Serif" font-size="10.00">erpc</text>
</g>
<!-- Node0&#45;&gt;Node11 -->
<g id="edge11" class="edge"><title>Node0&#45;&gt;Node11</title>
<path fill="none" stroke="blueviolet" stroke-dasharray="5,2" d="M142.049,-380.894C142.616,-414.152 147.768,-524.138 190,-601 201.049,-621.108 207.573,-624.793 227,-637 232.941,-640.733 239.722,-643.882 246.381,-646.477"/>
<text text-anchor="middle" x="199.5" y="-627" font-family="Helvetica,sans-Serif" font-size="10.00">erpc</text>
</g>
<!-- Node0&#45;&gt;Node19 -->
<g id="edge19" class="edge"><title>Node0&#45;&gt;Node19</title>
<path fill="none" stroke="blueviolet" stroke-dasharray="5,2" d="M142.577,-380.887C144.683,-410.475 153.849,-500.158 190,-563 201.441,-582.888 207.573,-586.793 227,-599 235.952,-604.625 246.812,-608.924 256.287,-611.998"/>
<text text-anchor="middle" x="199.5" y="-589" font-family="Helvetica,sans-Serif" font-size="10.00">erpc</text>
</g>
<!-- Node0&#45;&gt;Node2 -->
<g id="edge2" class="edge"><title>Node0&#45;&gt;Node2</title>
<path fill="none" stroke="blueviolet" stroke-dasharray="5,2" d="M143.377,-380.616C147.311,-405.769 160.284,-474.951 190,-524 202.05,-543.89 207.394,-548.492 227,-561 236.886,-567.307 249.159,-571.917 259.299,-575.016"/>
<text text-anchor="middle" x="199.5" y="-551" font-family="Helvetica,sans-Serif" font-size="10.00">erpc</text>
</g>
<!-- Node15 -->
<g id="node8" class="node"><title>Node15</title>
<g id="a_node8"><a xlink:href="group__serial__transport.html" target="_top" xlink:title="POSIX and Win32 serial port transport. ">
<polygon fill="white" stroke="black" points="249.5,-532.5 249.5,-551.5 310.5,-551.5 310.5,-532.5 249.5,-532.5"/>
<text text-anchor="middle" x="280" y="-539.5" font-family="Helvetica,sans-Serif" font-size="10.00">Serial port</text>
</a>
</g>
</g>
<!-- Node0&#45;&gt;Node15 -->
<g id="edge15" class="edge"><title>Node0&#45;&gt;Node15</title>
<path fill="none" stroke="blueviolet" stroke-dasharray="5,2" d="M144.603,-380.554C150.48,-401.082 166.153,-450.415 190,-486 202.946,-505.319 207.394,-510.492 227,-523 233.807,-527.342 241.745,-530.881 249.34,-533.675"/>
<text text-anchor="middle" x="199.5" y="-512" font-family="Helvetica,sans-Serif" font-size="10.00">erpc</text>
</g>
<!-- Node4 -->
<g id="node9" class="node"><title>Node4</title>
<g id="a_node9"><a xlink:href="group__infra__utility.html" target="_top" xlink:title="Utility code used by the infrastructure. ">
<polygon fill="white" stroke="black" points="255.5,-494.5 255.5,-513.5 304.5,-513.5 304.5,-494.5 255.5,-494.5"/>
<text text-anchor="middle" x="280" y="-501.5" font-family="Helvetica,sans-Serif" font-size="10.00">Utilities</text>
</a>
</g>
</g>
<!-- Node0&#45;&gt;Node4 -->
<g id="edge4" class="edge"><title>Node0&#45;&gt;Node4</title>
<path fill="none" stroke="blueviolet" stroke-dasharray="5,2" d="M146.089,-380.575C156.185,-402.954 184.589,-458.766 227,-485 235.664,-490.36 246.069,-494.538 255.287,-497.595"/>
<text text-anchor="middle" x="199.5" y="-474" font-family="Helvetica,sans-Serif" font-size="10.00">erpc</text>
</g>
<!-- Node17 -->
<g id="node10" class="node"><title>Node17</title>
<g id="a_node10"><a xlink:href="group__spi__slave__transport.html" target="_top" xlink:title="Kinetis SDK SPI slave driver transport. ">
<polygon fill="white" stroke="black" points="250.5,-456.5 250.5,-475.5 309.5,-475.5 309.5,-456.5 250.5,-456.5"/>
<text text-anchor="middle" x="280" y="-463.5" font-family="Helvetica,sans-Serif" font-size="10.00">SPI Slave</text>
</a>
</g>
</g>
<!-- Node0&#45;&gt;Node17 -->
<g id="edge17" class="edge"><title>Node0&#45;&gt;Node17</title>
<path fill="none" stroke="blueviolet" stroke-dasharray="5,2" d="M150.211,-380.552C164.367,-396.466 194.947,-428.483 227,-447 234.241,-451.183 242.566,-454.717 250.402,-457.56"/>
<text text-anchor="middle" x="199.5" y="-438" font-family="Helvetica,sans-Serif" font-size="10.00">erpc</text>
</g>
<!-- Node20 -->
<g id="node11" class="node"><title>Node20</title>
<g id="a_node11"><a xlink:href="group__uart__transport.html" target="_top" xlink:title="CMSIS UART driver transport. ">
<polygon fill="white" stroke="black" points="242,-418.5 242,-437.5 318,-437.5 318,-418.5 242,-418.5"/>
<text text-anchor="middle" x="280" y="-425.5" font-family="Helvetica,sans-Serif" font-size="10.00">CMSIS UART</text>
</a>
</g>
</g>
<!-- Node0&#45;&gt;Node20 -->
<g id="edge20" class="edge"><title>Node0&#45;&gt;Node20</title>
<path fill="none" stroke="blueviolet" stroke-dasharray="5,2" d="M161.49,-380.675C170.162,-384.893 180.533,-389.818 190,-394 210.425,-403.024 234.058,-411.985 251.836,-418.441"/>
<text text-anchor="middle" x="199.5" y="-404" font-family="Helvetica,sans-Serif" font-size="10.00">erpc</text>
</g>
<!-- Node18 -->
<g id="node12" class="node"><title>Node18</title>
<g id="a_node12"><a xlink:href="group__spidev__master__transport.html" target="_top" xlink:title="SPIdev Linux transport. ">
<polygon fill="white" stroke="black" points="227,-380.5 227,-399.5 333,-399.5 333,-380.5 227,-380.5"/>
<text text-anchor="middle" x="280" y="-387.5" font-family="Helvetica,sans-Serif" font-size="10.00">SPIdev Linux Master</text>
</a>
</g>
</g>
<!-- Node0&#45;&gt;Node18 -->
<g id="edge18" class="edge"><title>Node0&#45;&gt;Node18</title>
<path fill="none" stroke="blueviolet" stroke-dasharray="5,2" d="M172.065,-375.17C188.133,-377.398 208.374,-380.205 226.91,-382.776"/>
<text text-anchor="middle" x="199.5" y="-382" font-family="Helvetica,sans-Serif" font-size="10.00">erpc</text>
</g>
<!-- Node16 -->
<g id="node13" class="node"><title>Node16</title>
<g id="a_node13"><a xlink:href="group__spi__master__transport.html" target="_top" xlink:title="Kinetis SDK SPI master driver transport. ">
<polygon fill="white" stroke="black" points="247.5,-342.5 247.5,-361.5 312.5,-361.5 312.5,-342.5 247.5,-342.5"/>
<text text-anchor="middle" x="280" y="-349.5" font-family="Helvetica,sans-Serif" font-size="10.00">SPI Master</text>
</a>
</g>
</g>
<!-- Node0&#45;&gt;Node16 -->
<g id="edge16" class="edge"><title>Node0&#45;&gt;Node16</title>
<path fill="none" stroke="blueviolet" stroke-dasharray="5,2" d="M170.687,-361.481C176.987,-359.715 183.669,-358.086 190,-357 208.761,-353.78 230.039,-352.5 247.085,-352.039"/>
<text text-anchor="middle" x="199.5" y="-360" font-family="Helvetica,sans-Serif" font-size="10.00">erpc</text>
</g>
<!-- Node14 -->
<g id="node14" class="node"><title>Node14</title>
<g id="a_node14"><a xlink:href="group__rpmsg__tty__rtos__transport.html" target="_top" xlink:title="RPMsg TTY RTOS transport. ">
<polygon fill="white" stroke="black" points="231,-304.5 231,-323.5 329,-323.5 329,-304.5 231,-304.5"/>
<text text-anchor="middle" x="280" y="-311.5" font-family="Helvetica,sans-Serif" font-size="10.00">RPMsg TTY RTOS</text>
</a>
</g>
</g>
<!-- Node0&#45;&gt;Node14 -->
<g id="edge14" class="edge"><title>Node0&#45;&gt;Node14</title>
<path fill="none" stroke="blueviolet" stroke-dasharray="5,2" d="M154.855,-361.23C164.198,-354.505 177.369,-345.775 190,-340 204.786,-333.24 221.758,-327.767 236.89,-323.617"/>
<text text-anchor="middle" x="199.5" y="-343" font-family="Helvetica,sans-Serif" font-size="10.00">erpc</text>
</g>
<!-- Node5 -->
<g id="node15" class="node"><title>Node5</title>
<g id="a_node15"><a xlink:href="group__infra__server.html" target="_top" xlink:title="Server classes. ">
<polygon fill="white" stroke="black" points="258,-266.5 258,-285.5 302,-285.5 302,-266.5 258,-266.5"/>
<text text-anchor="middle" x="280" y="-273.5" font-family="Helvetica,sans-Serif" font-size="10.00">Server</text>
</a>
</g>
</g>
<!-- Node0&#45;&gt;Node5 -->
<g id="edge5" class="edge"><title>Node0&#45;&gt;Node5</title>
<path fill="none" stroke="blueviolet" stroke-dasharray="5,2" d="M149.44,-361.255C158.32,-350.013 173.989,-331.364 190,-318 204.865,-305.593 209.592,-303.479 227,-295 236.851,-290.202 248.24,-285.91 257.844,-282.624"/>
<text text-anchor="middle" x="199.5" y="-321" font-family="Helvetica,sans-Serif" font-size="10.00">erpc</text>
</g>
<!-- Node10 -->
<g id="node16" class="node"><title>Node10</title>
<g id="a_node16"><a xlink:href="group__itbp__transport.html" target="_top" xlink:title="Simple inter&#45;thread communications transport. ">
<polygon fill="white" stroke="black" points="247.5,-228.5 247.5,-247.5 312.5,-247.5 312.5,-228.5 247.5,-228.5"/>
<text text-anchor="middle" x="280" y="-235.5" font-family="Helvetica,sans-Serif" font-size="10.00">Inter&#45;thread</text>
</a>
</g>
</g>
<!-- Node0&#45;&gt;Node10 -->
<g id="edge10" class="edge"><title>Node0&#45;&gt;Node10</title>
<path fill="none" stroke="blueviolet" stroke-dasharray="5,2" d="M146.039,-361.341C156.025,-338.783 184.209,-282.61 227,-257 233.268,-253.249 240.397,-250.05 247.324,-247.407"/>
<text text-anchor="middle" x="199.5" y="-291" font-family="Helvetica,sans-Serif" font-size="10.00">erpc</text>
</g>
<!-- Node8 -->
<g id="node17" class="node"><title>Node8</title>
<g id="a_node17"><a xlink:href="group__dspi__master__transport.html" target="_top" xlink:title="Kinetis SDK DSPI master driver transport. ">
<polygon fill="white" stroke="black" points="244,-190.5 244,-209.5 316,-209.5 316,-190.5 244,-190.5"/>
<text text-anchor="middle" x="280" y="-197.5" font-family="Helvetica,sans-Serif" font-size="10.00">DSPI Master</text>
</a>
</g>
</g>
<!-- Node0&#45;&gt;Node8 -->
<g id="edge8" class="edge"><title>Node0&#45;&gt;Node8</title>
<path fill="none" stroke="blueviolet" stroke-dasharray="5,2" d="M144.603,-361.446C150.48,-340.918 166.153,-291.585 190,-256 202.946,-236.681 207.394,-231.508 227,-219 232.834,-215.278 239.5,-212.147 246.068,-209.568"/>
<text text-anchor="middle" x="199.5" y="-259" font-family="Helvetica,sans-Serif" font-size="10.00">erpc</text>
</g>
<!-- Node21 -->
<g id="node18" class="node"><title>Node21</title>
<g id="a_node18"><a xlink:href="group___u_s_b___c_d_c__transport.html" target="_top" xlink:title="USB CDC transport. ">
<polygon fill="white" stroke="black" points="250,-152.5 250,-171.5 310,-171.5 310,-152.5 250,-152.5"/>
<text text-anchor="middle" x="280" y="-159.5" font-family="Helvetica,sans-Serif" font-size="10.00">USB CDC</text>
</a>
</g>
</g>
<!-- Node0&#45;&gt;Node21 -->
<g id="edge21" class="edge"><title>Node0&#45;&gt;Node21</title>
<path fill="none" stroke="blueviolet" stroke-dasharray="5,2" d="M143.377,-361.384C147.311,-336.231 160.284,-267.049 190,-218 202.05,-198.11 207.394,-193.508 227,-181 233.969,-176.554 242.124,-172.951 249.881,-170.127"/>
<text text-anchor="middle" x="199.5" y="-221" font-family="Helvetica,sans-Serif" font-size="10.00">erpc</text>
</g>
<!-- Node3 -->
<g id="node19" class="node"><title>Node3</title>
<g id="a_node19"><a xlink:href="group__infra__codec.html" target="_top" xlink:title="Classes used for message serialization. ">
<polygon fill="white" stroke="black" points="245,-114.5 245,-133.5 315,-133.5 315,-114.5 245,-114.5"/>
<text text-anchor="middle" x="280" y="-121.5" font-family="Helvetica,sans-Serif" font-size="10.00">Serialization</text>
</a>
</g>
</g>
<!-- Node0&#45;&gt;Node3 -->
<g id="edge3" class="edge"><title>Node0&#45;&gt;Node3</title>
<path fill="none" stroke="blueviolet" stroke-dasharray="5,2" d="M142.577,-361.113C144.683,-331.525 153.849,-241.842 190,-179 201.441,-159.112 207.573,-155.207 227,-143 232.941,-139.267 239.722,-136.118 246.381,-133.523"/>
<text text-anchor="middle" x="199.5" y="-182" font-family="Helvetica,sans-Serif" font-size="10.00">erpc</text>
</g>
<!-- Node12 -->
<g id="node20" class="node"><title>Node12</title>
<g id="a_node20"><a xlink:href="group__rpmsg__lite__rtos__transport.html" target="_top" xlink:title="RPMsg&#45;Lite zero copy transport using RTOS API. ">
<polygon fill="white" stroke="black" points="231.5,-76.5 231.5,-95.5 328.5,-95.5 328.5,-76.5 231.5,-76.5"/>
<text text-anchor="middle" x="280" y="-83.5" font-family="Helvetica,sans-Serif" font-size="10.00">RPMsg&#45;Lite RTOS</text>
</a>
</g>
</g>
<!-- Node0&#45;&gt;Node12 -->
<g id="edge12" class="edge"><title>Node0&#45;&gt;Node12</title>
<path fill="none" stroke="blueviolet" stroke-dasharray="5,2" d="M142.049,-361.106C142.616,-327.848 147.768,-217.862 190,-141 201.049,-120.892 207.573,-117.207 227,-105 232.941,-101.267 239.722,-98.118 246.381,-95.5235"/>
<text text-anchor="middle" x="199.5" y="-144" font-family="Helvetica,sans-Serif" font-size="10.00">erpc</text>
</g>
<!-- Node13 -->
<g id="node21" class="node"><title>Node13</title>
<g id="a_node21"><a xlink:href="group__rpmsg__lite__transport.html" target="_top" xlink:title="RPMsg&#45;Lite zero copy transport. ">
<polygon fill="white" stroke="black" points="246,-38.5 246,-57.5 314,-57.5 314,-38.5 246,-38.5"/>
<text text-anchor="middle" x="280" y="-45.5" font-family="Helvetica,sans-Serif" font-size="10.00">RPMsg&#45;Lite</text>
</a>
</g>
</g>
<!-- Node0&#45;&gt;Node13 -->
<g id="edge13" class="edge"><title>Node0&#45;&gt;Node13</title>
<path fill="none" stroke="blueviolet" stroke-dasharray="5,2" d="M141.664,-361.054C140.845,-324.361 141.672,-194.009 190,-103 200.761,-82.7361 207.573,-79.207 227,-67 232.941,-63.267 239.722,-60.118 246.381,-57.5235"/>
<text text-anchor="middle" x="199.5" y="-106" font-family="Helvetica,sans-Serif" font-size="10.00">erpc</text>
</g>
<!-- Node6 -->
<g id="node22" class="node"><title>Node6</title>
<g id="a_node22"><a xlink:href="group__port__setup__extensions.html" target="_top" xlink:title="Extension setup functions. ">
<polygon fill="white" stroke="black" points="235.5,-0.5 235.5,-19.5 324.5,-19.5 324.5,-0.5 235.5,-0.5"/>
<text text-anchor="middle" x="280" y="-7.5" font-family="Helvetica,sans-Serif" font-size="10.00">Extension Setup</text>
</a>
</g>
</g>
<!-- Node0&#45;&gt;Node6 -->
<g id="edge6" class="edge"><title>Node0&#45;&gt;Node6</title>
<path fill="none" stroke="blueviolet" stroke-dasharray="5,2" d="M142.695,-361.298C146.119,-315.262 162.145,-118.853 190,-65 200.541,-44.6209 207.573,-41.207 227,-29 232.941,-25.267 239.722,-22.118 246.381,-19.5235"/>
<text text-anchor="middle" x="199.5" y="-68" font-family="Helvetica,sans-Serif" font-size="10.00">erpc</text>
</g>
</g>
</svg>
