<?xml version="1.0" encoding="UTF-8" standalone="no"?>
<!DOCTYPE svg PUBLIC "-//W3C//DTD SVG 1.1//EN"
 "http://www.w3.org/Graphics/SVG/1.1/DTD/svg11.dtd">
<!-- Generated by graphviz version 2.38.0 (20140413.2041)
 -->
<!-- Title: Extension Setup Pages: 1 -->
<svg width="356pt" height="788pt"
 viewBox="0.00 0.00 356.00 788.00" xmlns="http://www.w3.org/2000/svg" xmlns:xlink="http://www.w3.org/1999/xlink">
<g id="graph0" class="graph" transform="scale(1 1) rotate(0) translate(4 784)">
<title>Extension Setup</title>
<polygon fill="white" stroke="none" points="-4,4 -4,-784 352,-784 352,4 -4,4"/>
<!-- Node9 -->
<g id="node1" class="node"><title>Node9</title>
<g id="a_node1"><a xlink:href="group__dspi__slave__transport.html" target="_top" xlink:title="MCUXpressoSDK DSPI slave driver transport. ">
<polygon fill="white" stroke="black" points="262.5,-760.5 262.5,-779.5 327.5,-779.5 327.5,-760.5 262.5,-760.5"/>
<text text-anchor="middle" x="295" y="-767.5" font-family="Helvetica,sans-Serif" font-size="10.00">DSPI Slave</text>
</a>
</g>
</g>
<!-- Node10 -->
<g id="node2" class="node"><title>Node10</title>
<g id="a_node2"><a xlink:href="group__i2c__slave__transport.html" target="_top" xlink:title="MCUXpressoSDK I2C slave driver transport. ">
<polygon fill="white" stroke="black" points="266.5,-722.5 266.5,-741.5 323.5,-741.5 323.5,-722.5 266.5,-722.5"/>
<text text-anchor="middle" x="295" y="-729.5" font-family="Helvetica,sans-Serif" font-size="10.00">I2C Slave</text>
</a>
</g>
</g>
<!-- Node7 -->
<g id="node3" class="node"><title>Node7</title>
<g id="a_node3"><a xlink:href="group__port__threads.html" target="_top" xlink:title="Threading model. ">
<polygon fill="white" stroke="black" points="269.5,-684.5 269.5,-703.5 320.5,-703.5 320.5,-684.5 269.5,-684.5"/>
<text text-anchor="middle" x="295" y="-691.5" font-family="Helvetica,sans-Serif" font-size="10.00">Threads</text>
</a>
</g>
</g>
<!-- Node12 -->
<g id="node4" class="node"><title>Node12</title>
<g id="a_node4"><a xlink:href="group__mu__transport.html" target="_top" xlink:title="Messaging Unit transport. ">
<polygon fill="white" stroke="black" points="253,-646.5 253,-665.5 337,-665.5 337,-646.5 253,-646.5"/>
<text text-anchor="middle" x="295" y="-653.5" font-family="Helvetica,sans-Serif" font-size="10.00">Messaging Unit</text>
</a>
</g>
</g>
<!-- Node20 -->
<g id="node5" class="node"><title>Node20</title>
<g id="a_node5"><a xlink:href="group__tcp__transport.html" target="_top" xlink:title="Simple TCP/IP transport. ">
<polygon fill="white" stroke="black" points="271.5,-608.5 271.5,-627.5 318.5,-627.5 318.5,-608.5 271.5,-608.5"/>
<text text-anchor="middle" x="295" y="-615.5" font-family="Helvetica,sans-Serif" font-size="10.00">TCP/IP</text>
</a>
</g>
</g>
<!-- Node2 -->
<g id="node6" class="node"><title>Node2</title>
<g id="a_node6"><a xlink:href="group__infra__client.html" target="_top" xlink:title="Client classes. ">
<polygon fill="white" stroke="black" points="274.5,-570.5 274.5,-589.5 315.5,-589.5 315.5,-570.5 274.5,-570.5"/>
<text text-anchor="middle" x="295" y="-577.5" font-family="Helvetica,sans-Serif" font-size="10.00">Client</text>
</a>
</g>
</g>
<!-- Node4 -->
<g id="node7" class="node"><title>Node4</title>
<g id="a_node7"><a xlink:href="group__infra__transport.html" target="_top" xlink:title="Superclasses for building transports. ">
<polygon fill="white" stroke="black" points="264,-532.5 264,-551.5 326,-551.5 326,-532.5 264,-532.5"/>
<text text-anchor="middle" x="295" y="-539.5" font-family="Helvetica,sans-Serif" font-size="10.00">Transports</text>
</a>
</g>
</g>
<!-- Node16 -->
<g id="node8" class="node"><title>Node16</title>
<g id="a_node8"><a xlink:href="group__serial__transport.html" target="_top" xlink:title="POSIX and Win32 serial port transport. ">
<polygon fill="white" stroke="black" points="264.5,-494.5 264.5,-513.5 325.5,-513.5 325.5,-494.5 264.5,-494.5"/>
<text text-anchor="middle" x="295" y="-501.5" font-family="Helvetica,sans-Serif" font-size="10.00">Serial port</text>
</a>
</g>
</g>
<!-- Node5 -->
<g id="node9" class="node"><title>Node5</title>
<g id="a_node9"><a xlink:href="group__infra__utility.html" target="_top" xlink:title="Utility code used by the infrastructure. ">
<polygon fill="white" stroke="black" points="270.5,-456.5 270.5,-475.5 319.5,-475.5 319.5,-456.5 270.5,-456.5"/>
<text text-anchor="middle" x="295" y="-463.5" font-family="Helvetica,sans-Serif" font-size="10.00">Utilities</text>
</a>
</g>
</g>
<!-- Node18 -->
<g id="node10" class="node"><title>Node18</title>
<g id="a_node10"><a xlink:href="group__spi__slave__transport.html" target="_top" xlink:title="MCUXpressoSDK SPI slave driver transport. ">
<polygon fill="white" stroke="black" points="265.5,-418.5 265.5,-437.5 324.5,-437.5 324.5,-418.5 265.5,-418.5"/>
<text text-anchor="middle" x="295" y="-425.5" font-family="Helvetica,sans-Serif" font-size="10.00">SPI Slave</text>
</a>
</g>
</g>
<!-- Node21 -->
<g id="node11" class="node"><title>Node21</title>
<g id="a_node11"><a xlink:href="group__uart__transport.html" target="_top" xlink:title="CMSIS UART driver transport. ">
<polygon fill="white" stroke="black" points="257,-380.5 257,-399.5 333,-399.5 333,-380.5 257,-380.5"/>
<text text-anchor="middle" x="295" y="-387.5" font-family="Helvetica,sans-Serif" font-size="10.00">CMSIS UART</text>
</a>
</g>
</g>
<!-- Node19 -->
<g id="node12" class="node"><title>Node19</title>
<g id="a_node12"><a xlink:href="group__spidev__master__transport.html" target="_top" xlink:title="SPIdev Linux transport. ">
<polygon fill="white" stroke="black" points="242,-342.5 242,-361.5 348,-361.5 348,-342.5 242,-342.5"/>
<text text-anchor="middle" x="295" y="-349.5" font-family="Helvetica,sans-Serif" font-size="10.00">SPIdev Linux Master</text>
</a>
</g>
</g>
<!-- Node17 -->
<g id="node13" class="node"><title>Node17</title>
<g id="a_node13"><a xlink:href="group__spi__master__transport.html" target="_top" xlink:title="MCUXpressoSDK SPI master driver transport. ">
<polygon fill="white" stroke="black" points="262.5,-304.5 262.5,-323.5 327.5,-323.5 327.5,-304.5 262.5,-304.5"/>
<text text-anchor="middle" x="295" y="-311.5" font-family="Helvetica,sans-Serif" font-size="10.00">SPI Master</text>
</a>
</g>
</g>
<!-- Node15 -->
<g id="node14" class="node"><title>Node15</title>
<g id="a_node14"><a xlink:href="group__rpmsg__tty__rtos__transport.html" target="_top" xlink:title="RPMsg TTY RTOS transport. ">
<polygon fill="white" stroke="black" points="246,-266.5 246,-285.5 344,-285.5 344,-266.5 246,-266.5"/>
<text text-anchor="middle" x="295" y="-273.5" font-family="Helvetica,sans-Serif" font-size="10.00">RPMsg TTY RTOS</text>
</a>
</g>
</g>
<!-- Node6 -->
<g id="node15" class="node"><title>Node6</title>
<g id="a_node15"><a xlink:href="group__infra__server.html" target="_top" xlink:title="Server classes. ">
<polygon fill="white" stroke="black" points="273,-228.5 273,-247.5 317,-247.5 317,-228.5 273,-228.5"/>
<text text-anchor="middle" x="295" y="-235.5" font-family="Helvetica,sans-Serif" font-size="10.00">Server</text>
</a>
</g>
</g>
<!-- Node11 -->
<g id="node16" class="node"><title>Node11</title>
<g id="a_node16"><a xlink:href="group__itbp__transport.html" target="_top" xlink:title="Simple inter&#45;thread communications transport. ">
<polygon fill="white" stroke="black" points="262.5,-190.5 262.5,-209.5 327.5,-209.5 327.5,-190.5 262.5,-190.5"/>
<text text-anchor="middle" x="295" y="-197.5" font-family="Helvetica,sans-Serif" font-size="10.00">Inter&#45;thread</text>
</a>
</g>
</g>
<!-- Node8 -->
<g id="node17" class="node"><title>Node8</title>
<g id="a_node17"><a xlink:href="group__dspi__master__transport.html" target="_top" xlink:title="MCUXpressoSDK DSPI master driver transport. ">
<polygon fill="white" stroke="black" points="259,-152.5 259,-171.5 331,-171.5 331,-152.5 259,-152.5"/>
<text text-anchor="middle" x="295" y="-159.5" font-family="Helvetica,sans-Serif" font-size="10.00">DSPI Master</text>
</a>
</g>
</g>
<!-- Node22 -->
<g id="node18" class="node"><title>Node22</title>
<g id="a_node18"><a xlink:href="group___u_s_b___c_d_c__transport.html" target="_top" xlink:title="USB CDC transport. ">
<polygon fill="white" stroke="black" points="265,-114.5 265,-133.5 325,-133.5 325,-114.5 265,-114.5"/>
<text text-anchor="middle" x="295" y="-121.5" font-family="Helvetica,sans-Serif" font-size="10.00">USB CDC</text>
</a>
</g>
</g>
<!-- Node1 -->
<g id="node19" class="node"><title>Node1</title>
<g id="a_node19"><a xlink:href="group__setup.html" target="_top" xlink:title="C language setup functions. ">
<polygon fill="white" stroke="black" points="0,-380.5 0,-399.5 61,-399.5 61,-380.5 0,-380.5"/>
<text text-anchor="middle" x="30.5" y="-387.5" font-family="Helvetica,sans-Serif" font-size="10.00">Setup API</text>
</a>
</g>
</g>
<!-- Node0 -->
<g id="node23" class="node"><title>Node0</title>
<polygon fill="#bfbfbf" stroke="black" points="98,-380.5 98,-399.5 187,-399.5 187,-380.5 98,-380.5"/>
<text text-anchor="middle" x="142.5" y="-387.5" font-family="Helvetica,sans-Serif" font-size="10.00">Extension Setup</text>
</g>
<!-- Node1&#45;&gt;Node0 -->
<g id="edge1" class="edge"><title>Node1&#45;&gt;Node0</title>
<path fill="none" stroke="black" d="M71.3637,-390C79.906,-390 88.9765,-390 97.6596,-390"/>
<polygon fill="black" stroke="black" points="71.2676,-386.5 61.2676,-390 71.2675,-393.5 71.2676,-386.5"/>
</g>
<!-- Node3 -->
<g id="node20" class="node"><title>Node3</title>
<g id="a_node20"><a xlink:href="group__infra__codec.html" target="_top" xlink:title="Classes used for message serialization. ">
<polygon fill="white" stroke="black" points="260,-76.5 260,-95.5 330,-95.5 330,-76.5 260,-76.5"/>
<text text-anchor="middle" x="295" y="-83.5" font-family="Helvetica,sans-Serif" font-size="10.00">Serialization</text>
</a>
</g>
</g>
<!-- Node13 -->
<g id="node21" class="node"><title>Node13</title>
<g id="a_node21"><a xlink:href="group__rpmsg__lite__rtos__transport.html" target="_top" xlink:title="RPMsg&#45;Lite zero copy transport using RTOS API. ">
<polygon fill="white" stroke="black" points="246.5,-38.5 246.5,-57.5 343.5,-57.5 343.5,-38.5 246.5,-38.5"/>
<text text-anchor="middle" x="295" y="-45.5" font-family="Helvetica,sans-Serif" font-size="10.00">RPMsg&#45;Lite RTOS</text>
</a>
</g>
</g>
<!-- Node14 -->
<g id="node22" class="node"><title>Node14</title>
<g id="a_node22"><a xlink:href="group__rpmsg__lite__transport.html" target="_top" xlink:title="RPMsg&#45;Lite zero copy transport. ">
<polygon fill="white" stroke="black" points="261,-0.5 261,-19.5 329,-19.5 329,-0.5 261,-0.5"/>
<text text-anchor="middle" x="295" y="-7.5" font-family="Helvetica,sans-Serif" font-size="10.00">RPMsg&#45;Lite</text>
</a>
</g>
</g>
<!-- Node0&#45;&gt;Node9 -->
<g id="edge9" class="edge"><title>Node0&#45;&gt;Node9</title>
<path fill="none" stroke="blueviolet" stroke-dasharray="5,2" d="M143.273,-399.733C142.723,-440.766 144.659,-602.701 205,-715 215.86,-735.211 222.573,-738.793 242,-751 248.266,-754.938 255.468,-758.225 262.474,-760.898"/>
<text text-anchor="middle" x="214.5" y="-741" font-family="Helvetica,sans-Serif" font-size="10.00">erpc</text>
</g>
<!-- Node0&#45;&gt;Node10 -->
<g id="edge10" class="edge"><title>Node0&#45;&gt;Node10</title>
<path fill="none" stroke="blueviolet" stroke-dasharray="5,2" d="M143.588,-399.61C144.324,-437.45 150.753,-578.892 205,-677 216.102,-697.079 222.573,-700.793 242,-713 249.406,-717.653 258.117,-721.399 266.27,-724.295"/>
<text text-anchor="middle" x="214.5" y="-703" font-family="Helvetica,sans-Serif" font-size="10.00">erpc</text>
</g>
<!-- Node0&#45;&gt;Node7 -->
<g id="edge7" class="edge"><title>Node0&#45;&gt;Node7</title>
<path fill="none" stroke="blueviolet" stroke-dasharray="5,2" d="M144.001,-399.74C146.167,-434.548 156.936,-555.176 205,-639 216.413,-658.904 222.573,-662.793 242,-675 250.382,-680.267 260.437,-684.372 269.462,-687.396"/>
<text text-anchor="middle" x="214.5" y="-665" font-family="Helvetica,sans-Serif" font-size="10.00">erpc</text>
</g>
<!-- Node0&#45;&gt;Node12 -->
<g id="edge12" class="edge"><title>Node0&#45;&gt;Node12</title>
<path fill="none" stroke="blueviolet" stroke-dasharray="5,2" d="M144.63,-399.893C148.562,-431.239 163.735,-530.395 205,-600 216.86,-620.005 222.394,-624.492 242,-637 247.834,-640.722 254.5,-643.853 261.068,-646.432"/>
<text text-anchor="middle" x="214.5" y="-627" font-family="Helvetica,sans-Serif" font-size="10.00">erpc</text>
</g>
<!-- Node0&#45;&gt;Node20 -->
<g id="edge20" class="edge"><title>Node0&#45;&gt;Node20</title>
<path fill="none" stroke="blueviolet" stroke-dasharray="5,2" d="M145.609,-399.749C151.718,-426.643 171.181,-503.558 205,-559 217.611,-579.674 221.841,-585.58 242,-599 250.881,-604.912 261.837,-609.269 271.398,-612.309"/>
<text text-anchor="middle" x="214.5" y="-588" font-family="Helvetica,sans-Serif" font-size="10.00">erpc</text>
</g>
<!-- Node0&#45;&gt;Node2 -->
<g id="edge2" class="edge"><title>Node0&#45;&gt;Node2</title>
<path fill="none" stroke="blueviolet" stroke-dasharray="5,2" d="M145.871,-399.851C153.666,-429.894 181.539,-520.752 242,-561 251.761,-567.498 264.028,-572.118 274.196,-575.174"/>
<text text-anchor="middle" x="214.5" y="-547" font-family="Helvetica,sans-Serif" font-size="10.00">erpc</text>
</g>
<!-- Node0&#45;&gt;Node4 -->
<g id="edge4" class="edge"><title>Node0&#45;&gt;Node4</title>
<path fill="none" stroke="blueviolet" stroke-dasharray="5,2" d="M147.569,-399.635C158.642,-424.578 191.882,-491.508 242,-523 248.673,-527.193 256.407,-530.65 263.837,-533.411"/>
<text text-anchor="middle" x="214.5" y="-509" font-family="Helvetica,sans-Serif" font-size="10.00">erpc</text>
</g>
<!-- Node0&#45;&gt;Node16 -->
<g id="edge16" class="edge"><title>Node0&#45;&gt;Node16</title>
<path fill="none" stroke="blueviolet" stroke-dasharray="5,2" d="M150.841,-399.559C165.904,-418.541 202.247,-461.208 242,-485 248.845,-489.097 256.718,-492.534 264.232,-495.31"/>
<text text-anchor="middle" x="214.5" y="-475" font-family="Helvetica,sans-Serif" font-size="10.00">erpc</text>
</g>
<!-- Node0&#45;&gt;Node5 -->
<g id="edge5" class="edge"><title>Node0&#45;&gt;Node5</title>
<path fill="none" stroke="blueviolet" stroke-dasharray="5,2" d="M158.084,-399.524C176.94,-411.58 211.038,-432.52 242,-447 251.055,-451.235 261.334,-455.164 270.35,-458.338"/>
<text text-anchor="middle" x="214.5" y="-440" font-family="Helvetica,sans-Serif" font-size="10.00">erpc</text>
</g>
<!-- Node0&#45;&gt;Node18 -->
<g id="edge18" class="edge"><title>Node0&#45;&gt;Node18</title>
<path fill="none" stroke="blueviolet" stroke-dasharray="5,2" d="M181.478,-399.589C207.427,-406.141 241.288,-414.691 265.06,-420.693"/>
<text text-anchor="middle" x="214.5" y="-413" font-family="Helvetica,sans-Serif" font-size="10.00">erpc</text>
</g>
<!-- Node0&#45;&gt;Node21 -->
<g id="edge21" class="edge"><title>Node0&#45;&gt;Node21</title>
<path fill="none" stroke="blueviolet" stroke-dasharray="5,2" d="M187.031,-390C209.081,-390 235.58,-390 256.686,-390"/>
<text text-anchor="middle" x="214.5" y="-393" font-family="Helvetica,sans-Serif" font-size="10.00">erpc</text>
</g>
<!-- Node0&#45;&gt;Node19 -->
<g id="edge19" class="edge"><title>Node0&#45;&gt;Node19</title>
<path fill="none" stroke="blueviolet" stroke-dasharray="5,2" d="M181.478,-380.411C204.379,-374.628 233.443,-367.29 256.296,-361.52"/>
<text text-anchor="middle" x="214.5" y="-378" font-family="Helvetica,sans-Serif" font-size="10.00">erpc</text>
</g>
<!-- Node0&#45;&gt;Node17 -->
<g id="edge17" class="edge"><title>Node0&#45;&gt;Node17</title>
<path fill="none" stroke="blueviolet" stroke-dasharray="5,2" d="M158.084,-380.476C176.94,-368.42 211.038,-347.48 242,-333 249.313,-329.58 257.426,-326.358 265.026,-323.574"/>
<text text-anchor="middle" x="214.5" y="-355" font-family="Helvetica,sans-Serif" font-size="10.00">erpc</text>
</g>
<!-- Node0&#45;&gt;Node15 -->
<g id="edge15" class="edge"><title>Node0&#45;&gt;Node15</title>
<path fill="none" stroke="blueviolet" stroke-dasharray="5,2" d="M150.841,-380.441C165.904,-361.459 202.247,-318.792 242,-295 248.185,-291.298 255.21,-288.134 262.051,-285.511"/>
<text text-anchor="middle" x="214.5" y="-325" font-family="Helvetica,sans-Serif" font-size="10.00">erpc</text>
</g>
<!-- Node0&#45;&gt;Node6 -->
<g id="edge6" class="edge"><title>Node0&#45;&gt;Node6</title>
<path fill="none" stroke="blueviolet" stroke-dasharray="5,2" d="M147.569,-380.365C158.642,-355.422 191.882,-288.492 242,-257 251.44,-251.068 263.002,-246.611 272.825,-243.51"/>
<text text-anchor="middle" x="214.5" y="-289" font-family="Helvetica,sans-Serif" font-size="10.00">erpc</text>
</g>
<!-- Node0&#45;&gt;Node11 -->
<g id="edge11" class="edge"><title>Node0&#45;&gt;Node11</title>
<path fill="none" stroke="blueviolet" stroke-dasharray="5,2" d="M145.871,-380.149C153.666,-350.106 181.539,-259.248 242,-219 248.161,-214.899 255.32,-211.546 262.319,-208.862"/>
<text text-anchor="middle" x="214.5" y="-255" font-family="Helvetica,sans-Serif" font-size="10.00">erpc</text>
</g>
<!-- Node0&#45;&gt;Node8 -->
<g id="edge8" class="edge"><title>Node0&#45;&gt;Node8</title>
<path fill="none" stroke="blueviolet" stroke-dasharray="5,2" d="M145.609,-380.251C151.718,-353.357 171.181,-276.442 205,-221 217.611,-200.326 221.841,-194.42 242,-181 247.681,-177.218 254.21,-174.073 260.681,-171.502"/>
<text text-anchor="middle" x="214.5" y="-224" font-family="Helvetica,sans-Serif" font-size="10.00">erpc</text>
</g>
<!-- Node0&#45;&gt;Node22 -->
<g id="edge22" class="edge"><title>Node0&#45;&gt;Node22</title>
<path fill="none" stroke="blueviolet" stroke-dasharray="5,2" d="M144.63,-380.107C148.562,-348.761 163.735,-249.605 205,-180 216.86,-159.995 222.394,-155.508 242,-143 248.969,-138.554 257.124,-134.951 264.881,-132.127"/>
<text text-anchor="middle" x="214.5" y="-183" font-family="Helvetica,sans-Serif" font-size="10.00">erpc</text>
</g>
<!-- Node0&#45;&gt;Node3 -->
<g id="edge3" class="edge"><title>Node0&#45;&gt;Node3</title>
<path fill="none" stroke="blueviolet" stroke-dasharray="5,2" d="M144.001,-380.26C146.167,-345.452 156.936,-224.824 205,-141 216.413,-121.096 222.573,-117.207 242,-105 247.941,-101.267 254.722,-98.118 261.381,-95.5235"/>
<text text-anchor="middle" x="214.5" y="-144" font-family="Helvetica,sans-Serif" font-size="10.00">erpc</text>
</g>
<!-- Node0&#45;&gt;Node13 -->
<g id="edge13" class="edge"><title>Node0&#45;&gt;Node13</title>
<path fill="none" stroke="blueviolet" stroke-dasharray="5,2" d="M143.588,-380.39C144.324,-342.55 150.753,-201.108 205,-103 216.102,-82.9212 222.573,-79.207 242,-67 247.941,-63.267 254.722,-60.118 261.381,-57.5235"/>
<text text-anchor="middle" x="214.5" y="-106" font-family="Helvetica,sans-Serif" font-size="10.00">erpc</text>
</g>
<!-- Node0&#45;&gt;Node14 -->
<g id="edge14" class="edge"><title>Node0&#45;&gt;Node14</title>
<path fill="none" stroke="blueviolet" stroke-dasharray="5,2" d="M143.273,-380.267C142.723,-339.234 144.659,-177.299 205,-65 215.86,-44.789 222.573,-41.207 242,-29 247.941,-25.267 254.722,-22.118 261.381,-19.5235"/>
<text text-anchor="middle" x="214.5" y="-68" font-family="Helvetica,sans-Serif" font-size="10.00">erpc</text>
</g>
</g>
</svg>
