<?xml version="1.0" encoding="UTF-8" standalone="no"?>
<!DOCTYPE svg PUBLIC "-//W3C//DTD SVG 1.1//EN"
 "http://www.w3.org/Graphics/SVG/1.1/DTD/svg11.dtd">
<!-- Generated by graphviz version 2.38.0 (20140413.2041)
 -->
<!-- Title: Client Pages: 1 -->
<svg width="320pt" height="788pt"
 viewBox="0.00 0.00 320.00 788.00" xmlns="http://www.w3.org/2000/svg" xmlns:xlink="http://www.w3.org/1999/xlink">
<g id="graph0" class="graph" transform="scale(1 1) rotate(0) translate(4 784)">
<title>Client</title>
<polygon fill="white" stroke="none" points="-4,4 -4,-784 316,-784 316,4 -4,4"/>
<!-- Node9 -->
<g id="node1" class="node"><title>Node9</title>
<g id="a_node1"><a xlink:href="group__dspi__slave__transport.html" target="_top" xlink:title="MCUXpressoSDK DSPI slave driver transport. ">
<polygon fill="white" stroke="black" points="226.5,-760.5 226.5,-779.5 291.5,-779.5 291.5,-760.5 226.5,-760.5"/>
<text text-anchor="middle" x="259" y="-767.5" font-family="Helvetica,sans-Serif" font-size="10.00">DSPI Slave</text>
</a>
</g>
</g>
<!-- Node10 -->
<g id="node2" class="node"><title>Node10</title>
<g id="a_node2"><a xlink:href="group__i2c__slave__transport.html" target="_top" xlink:title="MCUXpressoSDK I2C slave driver transport. ">
<polygon fill="white" stroke="black" points="230.5,-722.5 230.5,-741.5 287.5,-741.5 287.5,-722.5 230.5,-722.5"/>
<text text-anchor="middle" x="259" y="-729.5" font-family="Helvetica,sans-Serif" font-size="10.00">I2C Slave</text>
</a>
</g>
</g>
<!-- Node7 -->
<g id="node3" class="node"><title>Node7</title>
<g id="a_node3"><a xlink:href="group__port__threads.html" target="_top" xlink:title="Threading model. ">
<polygon fill="white" stroke="black" points="233.5,-684.5 233.5,-703.5 284.5,-703.5 284.5,-684.5 233.5,-684.5"/>
<text text-anchor="middle" x="259" y="-691.5" font-family="Helvetica,sans-Serif" font-size="10.00">Threads</text>
</a>
</g>
</g>
<!-- Node12 -->
<g id="node4" class="node"><title>Node12</title>
<g id="a_node4"><a xlink:href="group__mu__transport.html" target="_top" xlink:title="Messaging Unit transport. ">
<polygon fill="white" stroke="black" points="217,-646.5 217,-665.5 301,-665.5 301,-646.5 217,-646.5"/>
<text text-anchor="middle" x="259" y="-653.5" font-family="Helvetica,sans-Serif" font-size="10.00">Messaging Unit</text>
</a>
</g>
</g>
<!-- Node20 -->
<g id="node5" class="node"><title>Node20</title>
<g id="a_node5"><a xlink:href="group__tcp__transport.html" target="_top" xlink:title="Simple TCP/IP transport. ">
<polygon fill="white" stroke="black" points="235.5,-608.5 235.5,-627.5 282.5,-627.5 282.5,-608.5 235.5,-608.5"/>
<text text-anchor="middle" x="259" y="-615.5" font-family="Helvetica,sans-Serif" font-size="10.00">TCP/IP</text>
</a>
</g>
</g>
<!-- Node1 -->
<g id="node6" class="node"><title>Node1</title>
<g id="a_node6"><a xlink:href="group__infra.html" target="_top" xlink:title="C++ core. ">
<polygon fill="white" stroke="black" points="0,-380.5 0,-399.5 73,-399.5 73,-380.5 0,-380.5"/>
<text text-anchor="middle" x="36.5" y="-387.5" font-family="Helvetica,sans-Serif" font-size="10.00">Infrastructure</text>
</a>
</g>
</g>
<!-- Node0 -->
<g id="node7" class="node"><title>Node0</title>
<polygon fill="#bfbfbf" stroke="black" points="110,-380.5 110,-399.5 151,-399.5 151,-380.5 110,-380.5"/>
<text text-anchor="middle" x="130.5" y="-387.5" font-family="Helvetica,sans-Serif" font-size="10.00">Client</text>
</g>
<!-- Node1&#45;&gt;Node0 -->
<g id="edge1" class="edge"><title>Node1&#45;&gt;Node0</title>
<path fill="none" stroke="black" d="M83.2184,-390C92.6461,-390 102.089,-390 109.965,-390"/>
<polygon fill="black" stroke="black" points="83.0696,-386.5 73.0696,-390 83.0696,-393.5 83.0696,-386.5"/>
</g>
<!-- Node0&#45;&gt;Node9 -->
<g id="edge9" class="edge"><title>Node0&#45;&gt;Node9</title>
<path fill="none" stroke="blueviolet" stroke-dasharray="5,2" d="M131.748,-399.653C133.103,-447.283 140.617,-657.277 169,-715 179.124,-735.589 186.573,-738.793 206,-751 212.266,-754.938 219.468,-758.225 226.474,-760.898"/>
<text text-anchor="middle" x="178.5" y="-741" font-family="Helvetica,sans-Serif" font-size="10.00">erpc</text>
</g>
<!-- Node0&#45;&gt;Node10 -->
<g id="edge10" class="edge"><title>Node0&#45;&gt;Node10</title>
<path fill="none" stroke="blueviolet" stroke-dasharray="5,2" d="M131.916,-399.676C133.942,-443.873 143.731,-626.571 169,-677 179.279,-697.513 186.573,-700.793 206,-713 213.406,-717.653 222.117,-721.399 230.27,-724.295"/>
<text text-anchor="middle" x="178.5" y="-703" font-family="Helvetica,sans-Serif" font-size="10.00">erpc</text>
</g>
<!-- Node0&#45;&gt;Node7 -->
<g id="edge7" class="edge"><title>Node0&#45;&gt;Node7</title>
<path fill="none" stroke="blueviolet" stroke-dasharray="5,2" d="M132.136,-399.725C134.913,-440.282 146.838,-595.831 169,-639 179.479,-659.411 186.573,-662.793 206,-675 214.382,-680.267 224.437,-684.372 233.462,-687.396"/>
<text text-anchor="middle" x="178.5" y="-665" font-family="Helvetica,sans-Serif" font-size="10.00">erpc</text>
</g>
<!-- Node0&#45;&gt;Node12 -->
<g id="edge12" class="edge"><title>Node0&#45;&gt;Node12</title>
<path fill="none" stroke="blueviolet" stroke-dasharray="5,2" d="M131.177,-399.933C130.569,-431.408 131.879,-530.983 169,-601 179.747,-621.271 186.573,-624.793 206,-637 211.941,-640.733 218.722,-643.882 225.381,-646.477"/>
<text text-anchor="middle" x="178.5" y="-627" font-family="Helvetica,sans-Serif" font-size="10.00">erpc</text>
</g>
<!-- Node0&#45;&gt;Node20 -->
<g id="edge20" class="edge"><title>Node0&#45;&gt;Node20</title>
<path fill="none" stroke="blueviolet" stroke-dasharray="5,2" d="M131.678,-399.672C132.569,-427.066 137.853,-506.827 169,-563 180.126,-583.066 186.573,-586.793 206,-599 214.952,-604.625 225.812,-608.924 235.287,-611.998"/>
<text text-anchor="middle" x="178.5" y="-589" font-family="Helvetica,sans-Serif" font-size="10.00">erpc</text>
</g>
<!-- Node3 -->
<g id="node8" class="node"><title>Node3</title>
<g id="a_node8"><a xlink:href="group__infra__transport.html" target="_top" xlink:title="Superclasses for building transports. ">
<polygon fill="white" stroke="black" points="228,-570.5 228,-589.5 290,-589.5 290,-570.5 228,-570.5"/>
<text text-anchor="middle" x="259" y="-577.5" font-family="Helvetica,sans-Serif" font-size="10.00">Transports</text>
</a>
</g>
</g>
<!-- Node0&#45;&gt;Node3 -->
<g id="edge3" class="edge"><title>Node0&#45;&gt;Node3</title>
<path fill="none" stroke="blueviolet" stroke-dasharray="5,2" d="M132.514,-399.748C135.26,-422.797 144.367,-481.875 169,-524 180.739,-544.076 186.394,-548.492 206,-561 212.645,-565.239 220.368,-568.712 227.797,-571.474"/>
<text text-anchor="middle" x="178.5" y="-551" font-family="Helvetica,sans-Serif" font-size="10.00">erpc</text>
</g>
<!-- Node16 -->
<g id="node9" class="node"><title>Node16</title>
<g id="a_node9"><a xlink:href="group__serial__transport.html" target="_top" xlink:title="POSIX and Win32 serial port transport. ">
<polygon fill="white" stroke="black" points="228.5,-532.5 228.5,-551.5 289.5,-551.5 289.5,-532.5 228.5,-532.5"/>
<text text-anchor="middle" x="259" y="-539.5" font-family="Helvetica,sans-Serif" font-size="10.00">Serial port</text>
</a>
</g>
</g>
<!-- Node0&#45;&gt;Node16 -->
<g id="edge16" class="edge"><title>Node0&#45;&gt;Node16</title>
<path fill="none" stroke="blueviolet" stroke-dasharray="5,2" d="M133.776,-399.734C138.35,-417.977 149.887,-458.08 169,-487 181.65,-506.141 186.573,-510.793 206,-523 212.836,-527.296 220.785,-530.818 228.38,-533.612"/>
<text text-anchor="middle" x="178.5" y="-512" font-family="Helvetica,sans-Serif" font-size="10.00">erpc</text>
</g>
<!-- Node4 -->
<g id="node10" class="node"><title>Node4</title>
<g id="a_node10"><a xlink:href="group__infra__utility.html" target="_top" xlink:title="Utility code used by the infrastructure. ">
<polygon fill="white" stroke="black" points="234.5,-494.5 234.5,-513.5 283.5,-513.5 283.5,-494.5 234.5,-494.5"/>
<text text-anchor="middle" x="259" y="-501.5" font-family="Helvetica,sans-Serif" font-size="10.00">Utilities</text>
</a>
</g>
</g>
<!-- Node0&#45;&gt;Node4 -->
<g id="edge4" class="edge"><title>Node0&#45;&gt;Node4</title>
<path fill="none" stroke="blueviolet" stroke-dasharray="5,2" d="M136.272,-399.826C142.715,-412.572 155.013,-435.164 169,-452 183.081,-468.949 187.093,-473.684 206,-485 214.742,-490.232 225.16,-494.389 234.367,-497.464"/>
<text text-anchor="middle" x="178.5" y="-475" font-family="Helvetica,sans-Serif" font-size="10.00">erpc</text>
</g>
<!-- Node18 -->
<g id="node11" class="node"><title>Node18</title>
<g id="a_node11"><a xlink:href="group__spi__slave__transport.html" target="_top" xlink:title="MCUXpressoSDK SPI slave driver transport. ">
<polygon fill="white" stroke="black" points="229.5,-456.5 229.5,-475.5 288.5,-475.5 288.5,-456.5 229.5,-456.5"/>
<text text-anchor="middle" x="259" y="-463.5" font-family="Helvetica,sans-Serif" font-size="10.00">SPI Slave</text>
</a>
</g>
</g>
<!-- Node0&#45;&gt;Node18 -->
<g id="edge18" class="edge"><title>Node0&#45;&gt;Node18</title>
<path fill="none" stroke="blueviolet" stroke-dasharray="5,2" d="M140.56,-399.511C147.865,-406.91 158.6,-417.197 169,-425 184.303,-436.482 188.718,-438.793 206,-447 213.38,-450.505 221.592,-453.777 229.27,-456.584"/>
<text text-anchor="middle" x="178.5" y="-440" font-family="Helvetica,sans-Serif" font-size="10.00">erpc</text>
</g>
<!-- Node21 -->
<g id="node12" class="node"><title>Node21</title>
<g id="a_node12"><a xlink:href="group__uart__transport.html" target="_top" xlink:title="CMSIS UART driver transport. ">
<polygon fill="white" stroke="black" points="221,-418.5 221,-437.5 297,-437.5 297,-418.5 221,-418.5"/>
<text text-anchor="middle" x="259" y="-425.5" font-family="Helvetica,sans-Serif" font-size="10.00">CMSIS UART</text>
</a>
</g>
</g>
<!-- Node0&#45;&gt;Node21 -->
<g id="edge21" class="edge"><title>Node0&#45;&gt;Node21</title>
<path fill="none" stroke="blueviolet" stroke-dasharray="5,2" d="M151.177,-398.418C156.873,-400.705 163.136,-403.078 169,-405 185.834,-410.517 204.802,-415.574 220.888,-419.532"/>
<text text-anchor="middle" x="178.5" y="-413" font-family="Helvetica,sans-Serif" font-size="10.00">erpc</text>
</g>
<!-- Node19 -->
<g id="node13" class="node"><title>Node19</title>
<g id="a_node13"><a xlink:href="group__spidev__master__transport.html" target="_top" xlink:title="SPIdev Linux transport. ">
<polygon fill="white" stroke="black" points="206,-380.5 206,-399.5 312,-399.5 312,-380.5 206,-380.5"/>
<text text-anchor="middle" x="259" y="-387.5" font-family="Helvetica,sans-Serif" font-size="10.00">SPIdev Linux Master</text>
</a>
</g>
</g>
<!-- Node0&#45;&gt;Node19 -->
<g id="edge19" class="edge"><title>Node0&#45;&gt;Node19</title>
<path fill="none" stroke="blueviolet" stroke-dasharray="5,2" d="M151.266,-390C165.928,-390 186.632,-390 205.909,-390"/>
<text text-anchor="middle" x="178.5" y="-393" font-family="Helvetica,sans-Serif" font-size="10.00">erpc</text>
</g>
<!-- Node17 -->
<g id="node14" class="node"><title>Node17</title>
<g id="a_node14"><a xlink:href="group__spi__master__transport.html" target="_top" xlink:title="MCUXpressoSDK SPI master driver transport. ">
<polygon fill="white" stroke="black" points="226.5,-342.5 226.5,-361.5 291.5,-361.5 291.5,-342.5 226.5,-342.5"/>
<text text-anchor="middle" x="259" y="-349.5" font-family="Helvetica,sans-Serif" font-size="10.00">SPI Master</text>
</a>
</g>
</g>
<!-- Node0&#45;&gt;Node17 -->
<g id="edge17" class="edge"><title>Node0&#45;&gt;Node17</title>
<path fill="none" stroke="blueviolet" stroke-dasharray="5,2" d="M151.177,-381.582C156.873,-379.295 163.136,-376.922 169,-375 187.805,-368.837 209.274,-363.248 226.414,-359.123"/>
<text text-anchor="middle" x="178.5" y="-378" font-family="Helvetica,sans-Serif" font-size="10.00">erpc</text>
</g>
<!-- Node15 -->
<g id="node15" class="node"><title>Node15</title>
<g id="a_node15"><a xlink:href="group__rpmsg__tty__rtos__transport.html" target="_top" xlink:title="RPMsg TTY RTOS transport. ">
<polygon fill="white" stroke="black" points="210,-304.5 210,-323.5 308,-323.5 308,-304.5 210,-304.5"/>
<text text-anchor="middle" x="259" y="-311.5" font-family="Helvetica,sans-Serif" font-size="10.00">RPMsg TTY RTOS</text>
</a>
</g>
</g>
<!-- Node0&#45;&gt;Node15 -->
<g id="edge15" class="edge"><title>Node0&#45;&gt;Node15</title>
<path fill="none" stroke="blueviolet" stroke-dasharray="5,2" d="M140.56,-380.489C147.865,-373.09 158.6,-362.803 169,-355 184.303,-343.518 188.718,-341.207 206,-333 213.293,-329.536 221.399,-326.3 228.998,-323.515"/>
<text text-anchor="middle" x="178.5" y="-358" font-family="Helvetica,sans-Serif" font-size="10.00">erpc</text>
</g>
<!-- Node5 -->
<g id="node16" class="node"><title>Node5</title>
<g id="a_node16"><a xlink:href="group__infra__server.html" target="_top" xlink:title="Server classes. ">
<polygon fill="white" stroke="black" points="237,-266.5 237,-285.5 281,-285.5 281,-266.5 237,-266.5"/>
<text text-anchor="middle" x="259" y="-273.5" font-family="Helvetica,sans-Serif" font-size="10.00">Server</text>
</a>
</g>
</g>
<!-- Node0&#45;&gt;Node5 -->
<g id="edge5" class="edge"><title>Node0&#45;&gt;Node5</title>
<path fill="none" stroke="blueviolet" stroke-dasharray="5,2" d="M136.272,-380.174C142.715,-367.428 155.013,-344.836 169,-328 183.081,-311.051 187.093,-306.316 206,-295 215.567,-289.274 227.14,-284.836 236.938,-281.695"/>
<text text-anchor="middle" x="178.5" y="-331" font-family="Helvetica,sans-Serif" font-size="10.00">erpc</text>
</g>
<!-- Node11 -->
<g id="node17" class="node"><title>Node11</title>
<g id="a_node17"><a xlink:href="group__itbp__transport.html" target="_top" xlink:title="Simple inter&#45;thread communications transport. ">
<polygon fill="white" stroke="black" points="226.5,-228.5 226.5,-247.5 291.5,-247.5 291.5,-228.5 226.5,-228.5"/>
<text text-anchor="middle" x="259" y="-235.5" font-family="Helvetica,sans-Serif" font-size="10.00">Inter&#45;thread</text>
</a>
</g>
</g>
<!-- Node0&#45;&gt;Node11 -->
<g id="edge11" class="edge"><title>Node0&#45;&gt;Node11</title>
<path fill="none" stroke="blueviolet" stroke-dasharray="5,2" d="M133.776,-380.266C138.35,-362.023 149.887,-321.92 169,-293 181.65,-273.859 186.573,-269.207 206,-257 212.266,-253.062 219.468,-249.775 226.474,-247.102"/>
<text text-anchor="middle" x="178.5" y="-296" font-family="Helvetica,sans-Serif" font-size="10.00">erpc</text>
</g>
<!-- Node8 -->
<g id="node18" class="node"><title>Node8</title>
<g id="a_node18"><a xlink:href="group__dspi__master__transport.html" target="_top" xlink:title="MCUXpressoSDK DSPI master driver transport. ">
<polygon fill="white" stroke="black" points="223,-190.5 223,-209.5 295,-209.5 295,-190.5 223,-190.5"/>
<text text-anchor="middle" x="259" y="-197.5" font-family="Helvetica,sans-Serif" font-size="10.00">DSPI Master</text>
</a>
</g>
</g>
<!-- Node0&#45;&gt;Node8 -->
<g id="edge8" class="edge"><title>Node0&#45;&gt;Node8</title>
<path fill="none" stroke="blueviolet" stroke-dasharray="5,2" d="M132.514,-380.252C135.26,-357.203 144.367,-298.125 169,-256 180.739,-235.924 186.394,-231.508 206,-219 211.834,-215.278 218.5,-212.147 225.068,-209.568"/>
<text text-anchor="middle" x="178.5" y="-259" font-family="Helvetica,sans-Serif" font-size="10.00">erpc</text>
</g>
<!-- Node22 -->
<g id="node19" class="node"><title>Node22</title>
<g id="a_node19"><a xlink:href="group___u_s_b___c_d_c__transport.html" target="_top" xlink:title="USB CDC transport. ">
<polygon fill="white" stroke="black" points="229,-152.5 229,-171.5 289,-171.5 289,-152.5 229,-152.5"/>
<text text-anchor="middle" x="259" y="-159.5" font-family="Helvetica,sans-Serif" font-size="10.00">USB CDC</text>
</a>
</g>
</g>
<!-- Node0&#45;&gt;Node22 -->
<g id="edge22" class="edge"><title>Node0&#45;&gt;Node22</title>
<path fill="none" stroke="blueviolet" stroke-dasharray="5,2" d="M131.678,-380.328C132.569,-352.934 137.853,-273.173 169,-217 180.126,-196.934 186.573,-193.207 206,-181 212.999,-176.602 221.164,-173.015 228.922,-170.19"/>
<text text-anchor="middle" x="178.5" y="-220" font-family="Helvetica,sans-Serif" font-size="10.00">erpc</text>
</g>
<!-- Node2 -->
<g id="node20" class="node"><title>Node2</title>
<g id="a_node20"><a xlink:href="group__infra__codec.html" target="_top" xlink:title="Classes used for message serialization. ">
<polygon fill="white" stroke="black" points="224,-114.5 224,-133.5 294,-133.5 294,-114.5 224,-114.5"/>
<text text-anchor="middle" x="259" y="-121.5" font-family="Helvetica,sans-Serif" font-size="10.00">Serialization</text>
</a>
</g>
</g>
<!-- Node0&#45;&gt;Node2 -->
<g id="edge2" class="edge"><title>Node0&#45;&gt;Node2</title>
<path fill="none" stroke="blueviolet" stroke-dasharray="5,2" d="M131.177,-380.067C130.569,-348.592 131.879,-249.017 169,-179 179.747,-158.729 186.573,-155.207 206,-143 211.941,-139.267 218.722,-136.118 225.381,-133.523"/>
<text text-anchor="middle" x="178.5" y="-182" font-family="Helvetica,sans-Serif" font-size="10.00">erpc</text>
</g>
<!-- Node13 -->
<g id="node21" class="node"><title>Node13</title>
<g id="a_node21"><a xlink:href="group__rpmsg__lite__rtos__transport.html" target="_top" xlink:title="RPMsg&#45;Lite zero copy transport using RTOS API. ">
<polygon fill="white" stroke="black" points="210.5,-76.5 210.5,-95.5 307.5,-95.5 307.5,-76.5 210.5,-76.5"/>
<text text-anchor="middle" x="259" y="-83.5" font-family="Helvetica,sans-Serif" font-size="10.00">RPMsg&#45;Lite RTOS</text>
</a>
</g>
</g>
<!-- Node0&#45;&gt;Node13 -->
<g id="edge13" class="edge"><title>Node0&#45;&gt;Node13</title>
<path fill="none" stroke="blueviolet" stroke-dasharray="5,2" d="M132.136,-380.275C134.913,-339.718 146.838,-184.169 169,-141 179.479,-120.589 186.573,-117.207 206,-105 211.941,-101.267 218.722,-98.118 225.381,-95.5235"/>
<text text-anchor="middle" x="178.5" y="-144" font-family="Helvetica,sans-Serif" font-size="10.00">erpc</text>
</g>
<!-- Node14 -->
<g id="node22" class="node"><title>Node14</title>
<g id="a_node22"><a xlink:href="group__rpmsg__lite__transport.html" target="_top" xlink:title="RPMsg&#45;Lite zero copy transport. ">
<polygon fill="white" stroke="black" points="225,-38.5 225,-57.5 293,-57.5 293,-38.5 225,-38.5"/>
<text text-anchor="middle" x="259" y="-45.5" font-family="Helvetica,sans-Serif" font-size="10.00">RPMsg&#45;Lite</text>
</a>
</g>
</g>
<!-- Node0&#45;&gt;Node14 -->
<g id="edge14" class="edge"><title>Node0&#45;&gt;Node14</title>
<path fill="none" stroke="blueviolet" stroke-dasharray="5,2" d="M131.916,-380.324C133.942,-336.127 143.731,-153.429 169,-103 179.279,-82.4873 186.573,-79.207 206,-67 211.941,-63.267 218.722,-60.118 225.381,-57.5235"/>
<text text-anchor="middle" x="178.5" y="-106" font-family="Helvetica,sans-Serif" font-size="10.00">erpc</text>
</g>
<!-- Node6 -->
<g id="node23" class="node"><title>Node6</title>
<g id="a_node23"><a xlink:href="group__port__setup__extensions.html" target="_top" xlink:title="Extension setup functions. ">
<polygon fill="white" stroke="black" points="214.5,-0.5 214.5,-19.5 303.5,-19.5 303.5,-0.5 214.5,-0.5"/>
<text text-anchor="middle" x="259" y="-7.5" font-family="Helvetica,sans-Serif" font-size="10.00">Extension Setup</text>
</a>
</g>
</g>
<!-- Node0&#45;&gt;Node6 -->
<g id="edge6" class="edge"><title>Node0&#45;&gt;Node6</title>
<path fill="none" stroke="blueviolet" stroke-dasharray="5,2" d="M131.748,-380.347C133.103,-332.717 140.617,-122.723 169,-65 179.124,-44.4105 186.573,-41.207 206,-29 211.941,-25.267 218.722,-22.118 225.381,-19.5235"/>
<text text-anchor="middle" x="178.5" y="-68" font-family="Helvetica,sans-Serif" font-size="10.00">erpc</text>
</g>
</g>
</svg>
