<?xml version="1.0" encoding="UTF-8" standalone="no"?>
<!DOCTYPE svg PUBLIC "-//W3C//DTD SVG 1.1//EN"
 "http://www.w3.org/Graphics/SVG/1.1/DTD/svg11.dtd">
<!-- Generated by graphviz version 2.38.0 (20140413.2041)
 -->
<!-- Title: SPI Slave Pages: 1 -->
<svg width="354pt" height="788pt"
 viewBox="0.00 0.00 354.00 788.00" xmlns="http://www.w3.org/2000/svg" xmlns:xlink="http://www.w3.org/1999/xlink">
<g id="graph0" class="graph" transform="scale(1 1) rotate(0) translate(4 784)">
<title>SPI Slave</title>
<polygon fill="white" stroke="none" points="-4,4 -4,-784 350,-784 350,4 -4,4"/>
<!-- Node1 -->
<g id="node1" class="node"><title>Node1</title>
<g id="a_node1"><a xlink:href="group__transports.html" target="_top" xlink:title="Transport layer classes. ">
<polygon fill="white" stroke="black" points="0,-380.5 0,-399.5 89,-399.5 89,-380.5 0,-380.5"/>
<text text-anchor="middle" x="44.5" y="-387.5" font-family="Helvetica,sans-Serif" font-size="10.00">Transport Layers</text>
</a>
</g>
</g>
<!-- Node0 -->
<g id="node11" class="node"><title>Node0</title>
<polygon fill="#bfbfbf" stroke="black" points="126,-380.5 126,-399.5 185,-399.5 185,-380.5 126,-380.5"/>
<text text-anchor="middle" x="155.5" y="-387.5" font-family="Helvetica,sans-Serif" font-size="10.00">SPI Slave</text>
</g>
<!-- Node1&#45;&gt;Node0 -->
<g id="edge1" class="edge"><title>Node1&#45;&gt;Node0</title>
<path fill="none" stroke="black" d="M99.4298,-390C108.541,-390 117.673,-390 125.808,-390"/>
<polygon fill="black" stroke="black" points="99.2065,-386.5 89.2064,-390 99.2064,-393.5 99.2065,-386.5"/>
</g>
<!-- Node10 -->
<g id="node2" class="node"><title>Node10</title>
<g id="a_node2"><a xlink:href="group__dspi__slave__transport.html" target="_top" xlink:title="MCUXpressoSDK DSPI slave driver transport. ">
<polygon fill="white" stroke="black" points="260.5,-760.5 260.5,-779.5 325.5,-779.5 325.5,-760.5 260.5,-760.5"/>
<text text-anchor="middle" x="293" y="-767.5" font-family="Helvetica,sans-Serif" font-size="10.00">DSPI Slave</text>
</a>
</g>
</g>
<!-- Node11 -->
<g id="node3" class="node"><title>Node11</title>
<g id="a_node3"><a xlink:href="group__i2c__slave__transport.html" target="_top" xlink:title="MCUXpressoSDK I2C slave driver transport. ">
<polygon fill="white" stroke="black" points="264.5,-722.5 264.5,-741.5 321.5,-741.5 321.5,-722.5 264.5,-722.5"/>
<text text-anchor="middle" x="293" y="-729.5" font-family="Helvetica,sans-Serif" font-size="10.00">I2C Slave</text>
</a>
</g>
</g>
<!-- Node8 -->
<g id="node4" class="node"><title>Node8</title>
<g id="a_node4"><a xlink:href="group__port__threads.html" target="_top" xlink:title="Threading model. ">
<polygon fill="white" stroke="black" points="267.5,-684.5 267.5,-703.5 318.5,-703.5 318.5,-684.5 267.5,-684.5"/>
<text text-anchor="middle" x="293" y="-691.5" font-family="Helvetica,sans-Serif" font-size="10.00">Threads</text>
</a>
</g>
</g>
<!-- Node13 -->
<g id="node5" class="node"><title>Node13</title>
<g id="a_node5"><a xlink:href="group__mu__transport.html" target="_top" xlink:title="Messaging Unit transport. ">
<polygon fill="white" stroke="black" points="251,-646.5 251,-665.5 335,-665.5 335,-646.5 251,-646.5"/>
<text text-anchor="middle" x="293" y="-653.5" font-family="Helvetica,sans-Serif" font-size="10.00">Messaging Unit</text>
</a>
</g>
</g>
<!-- Node20 -->
<g id="node6" class="node"><title>Node20</title>
<g id="a_node6"><a xlink:href="group__tcp__transport.html" target="_top" xlink:title="Simple TCP/IP transport. ">
<polygon fill="white" stroke="black" points="269.5,-608.5 269.5,-627.5 316.5,-627.5 316.5,-608.5 269.5,-608.5"/>
<text text-anchor="middle" x="293" y="-615.5" font-family="Helvetica,sans-Serif" font-size="10.00">TCP/IP</text>
</a>
</g>
</g>
<!-- Node2 -->
<g id="node7" class="node"><title>Node2</title>
<g id="a_node7"><a xlink:href="group__infra__client.html" target="_top" xlink:title="Client classes. ">
<polygon fill="white" stroke="black" points="272.5,-570.5 272.5,-589.5 313.5,-589.5 313.5,-570.5 272.5,-570.5"/>
<text text-anchor="middle" x="293" y="-577.5" font-family="Helvetica,sans-Serif" font-size="10.00">Client</text>
</a>
</g>
</g>
<!-- Node4 -->
<g id="node8" class="node"><title>Node4</title>
<g id="a_node8"><a xlink:href="group__infra__transport.html" target="_top" xlink:title="Superclasses for building transports. ">
<polygon fill="white" stroke="black" points="262,-532.5 262,-551.5 324,-551.5 324,-532.5 262,-532.5"/>
<text text-anchor="middle" x="293" y="-539.5" font-family="Helvetica,sans-Serif" font-size="10.00">Transports</text>
</a>
</g>
</g>
<!-- Node17 -->
<g id="node9" class="node"><title>Node17</title>
<g id="a_node9"><a xlink:href="group__serial__transport.html" target="_top" xlink:title="POSIX and Win32 serial port transport. ">
<polygon fill="white" stroke="black" points="262.5,-494.5 262.5,-513.5 323.5,-513.5 323.5,-494.5 262.5,-494.5"/>
<text text-anchor="middle" x="293" y="-501.5" font-family="Helvetica,sans-Serif" font-size="10.00">Serial port</text>
</a>
</g>
</g>
<!-- Node5 -->
<g id="node10" class="node"><title>Node5</title>
<g id="a_node10"><a xlink:href="group__infra__utility.html" target="_top" xlink:title="Utility code used by the infrastructure. ">
<polygon fill="white" stroke="black" points="268.5,-456.5 268.5,-475.5 317.5,-475.5 317.5,-456.5 268.5,-456.5"/>
<text text-anchor="middle" x="293" y="-463.5" font-family="Helvetica,sans-Serif" font-size="10.00">Utilities</text>
</a>
</g>
</g>
<!-- Node0&#45;&gt;Node10 -->
<g id="edge10" class="edge"><title>Node0&#45;&gt;Node10</title>
<path fill="none" stroke="blueviolet" stroke-dasharray="5,2" d="M157.044,-399.66C159.854,-447.327 173.731,-657.467 203,-715 213.403,-735.45 220.573,-738.793 240,-751 246.266,-754.938 253.468,-758.225 260.474,-760.898"/>
<text text-anchor="middle" x="212.5" y="-741" font-family="Helvetica,sans-Serif" font-size="10.00">erpc</text>
</g>
<!-- Node0&#45;&gt;Node11 -->
<g id="edge11" class="edge"><title>Node0&#45;&gt;Node11</title>
<path fill="none" stroke="blueviolet" stroke-dasharray="5,2" d="M157.251,-399.684C160.802,-443.915 176.843,-626.74 203,-677 213.592,-697.353 220.573,-700.793 240,-713 247.406,-717.653 256.117,-721.399 264.27,-724.295"/>
<text text-anchor="middle" x="212.5" y="-703" font-family="Helvetica,sans-Serif" font-size="10.00">erpc</text>
</g>
<!-- Node0&#45;&gt;Node8 -->
<g id="edge8" class="edge"><title>Node0&#45;&gt;Node8</title>
<path fill="none" stroke="blueviolet" stroke-dasharray="5,2" d="M156.271,-399.719C155.857,-434.459 157.932,-554.883 203,-639 213.836,-659.224 220.573,-662.793 240,-675 248.382,-680.267 258.437,-684.372 267.462,-687.396"/>
<text text-anchor="middle" x="212.5" y="-665" font-family="Helvetica,sans-Serif" font-size="10.00">erpc</text>
</g>
<!-- Node0&#45;&gt;Node13 -->
<g id="edge13" class="edge"><title>Node0&#45;&gt;Node13</title>
<path fill="none" stroke="blueviolet" stroke-dasharray="5,2" d="M156.691,-399.511C157.694,-430.542 163.952,-530.864 203,-601 214.161,-621.046 220.573,-624.793 240,-637 245.941,-640.733 252.722,-643.882 259.381,-646.477"/>
<text text-anchor="middle" x="212.5" y="-627" font-family="Helvetica,sans-Serif" font-size="10.00">erpc</text>
</g>
<!-- Node0&#45;&gt;Node20 -->
<g id="edge20" class="edge"><title>Node0&#45;&gt;Node20</title>
<path fill="none" stroke="blueviolet" stroke-dasharray="5,2" d="M157.352,-399.606C160.114,-426.814 170.612,-506.047 203,-562 214.651,-582.127 220.394,-586.492 240,-599 248.913,-604.686 259.768,-608.994 269.249,-612.058"/>
<text text-anchor="middle" x="212.5" y="-589" font-family="Helvetica,sans-Serif" font-size="10.00">erpc</text>
</g>
<!-- Node0&#45;&gt;Node2 -->
<g id="edge2" class="edge"><title>Node0&#45;&gt;Node2</title>
<path fill="none" stroke="blueviolet" stroke-dasharray="5,2" d="M158.416,-399.553C163.245,-422.15 177.393,-480.13 203,-522 215.466,-542.383 220.028,-547.886 240,-561 249.802,-567.436 262.071,-572.053 272.23,-575.123"/>
<text text-anchor="middle" x="212.5" y="-550" font-family="Helvetica,sans-Serif" font-size="10.00">erpc</text>
</g>
<!-- Node0&#45;&gt;Node4 -->
<g id="edge4" class="edge"><title>Node0&#45;&gt;Node4</title>
<path fill="none" stroke="blueviolet" stroke-dasharray="5,2" d="M159.416,-399.746C167.515,-424.957 192.854,-492.479 240,-523 246.616,-527.283 254.329,-530.772 261.757,-533.535"/>
<text text-anchor="middle" x="212.5" y="-510" font-family="Helvetica,sans-Serif" font-size="10.00">erpc</text>
</g>
<!-- Node0&#45;&gt;Node17 -->
<g id="edge17" class="edge"><title>Node0&#45;&gt;Node17</title>
<path fill="none" stroke="blueviolet" stroke-dasharray="5,2" d="M162.052,-399.522C173.821,-418.824 203.236,-462.624 240,-485 246.897,-489.198 254.866,-492.686 262.462,-495.479"/>
<text text-anchor="middle" x="212.5" y="-473" font-family="Helvetica,sans-Serif" font-size="10.00">erpc</text>
</g>
<!-- Node0&#45;&gt;Node5 -->
<g id="edge5" class="edge"><title>Node0&#45;&gt;Node5</title>
<path fill="none" stroke="blueviolet" stroke-dasharray="5,2" d="M168.262,-399.682C183.835,-412.1 212.543,-433.627 240,-447 248.987,-451.377 259.254,-455.333 268.278,-458.489"/>
<text text-anchor="middle" x="212.5" y="-439" font-family="Helvetica,sans-Serif" font-size="10.00">erpc</text>
</g>
<!-- Node21 -->
<g id="node12" class="node"><title>Node21</title>
<g id="a_node12"><a xlink:href="group__uart__transport.html" target="_top" xlink:title="CMSIS UART driver transport. ">
<polygon fill="white" stroke="black" points="255,-418.5 255,-437.5 331,-437.5 331,-418.5 255,-418.5"/>
<text text-anchor="middle" x="293" y="-425.5" font-family="Helvetica,sans-Serif" font-size="10.00">CMSIS UART</text>
</a>
</g>
</g>
<!-- Node0&#45;&gt;Node21 -->
<g id="edge21" class="edge"><title>Node0&#45;&gt;Node21</title>
<path fill="none" stroke="blueviolet" stroke-dasharray="5,2" d="M185.44,-399.628C191.237,-401.474 197.298,-403.345 203,-405 219.859,-409.893 238.662,-414.828 254.626,-418.865"/>
<text text-anchor="middle" x="212.5" y="-412" font-family="Helvetica,sans-Serif" font-size="10.00">erpc</text>
</g>
<!-- Node19 -->
<g id="node13" class="node"><title>Node19</title>
<g id="a_node13"><a xlink:href="group__spidev__master__transport.html" target="_top" xlink:title="SPIdev Linux transport. ">
<polygon fill="white" stroke="black" points="240,-380.5 240,-399.5 346,-399.5 346,-380.5 240,-380.5"/>
<text text-anchor="middle" x="293" y="-387.5" font-family="Helvetica,sans-Serif" font-size="10.00">SPIdev Linux Master</text>
</a>
</g>
</g>
<!-- Node0&#45;&gt;Node19 -->
<g id="edge19" class="edge"><title>Node0&#45;&gt;Node19</title>
<path fill="none" stroke="blueviolet" stroke-dasharray="5,2" d="M185.236,-390C201.084,-390 221.252,-390 239.782,-390"/>
<text text-anchor="middle" x="212.5" y="-393" font-family="Helvetica,sans-Serif" font-size="10.00">erpc</text>
</g>
<!-- Node18 -->
<g id="node14" class="node"><title>Node18</title>
<g id="a_node14"><a xlink:href="group__spi__master__transport.html" target="_top" xlink:title="MCUXpressoSDK SPI master driver transport. ">
<polygon fill="white" stroke="black" points="260.5,-342.5 260.5,-361.5 325.5,-361.5 325.5,-342.5 260.5,-342.5"/>
<text text-anchor="middle" x="293" y="-349.5" font-family="Helvetica,sans-Serif" font-size="10.00">SPI Master</text>
</a>
</g>
</g>
<!-- Node0&#45;&gt;Node18 -->
<g id="edge18" class="edge"><title>Node0&#45;&gt;Node18</title>
<path fill="none" stroke="blueviolet" stroke-dasharray="5,2" d="M185.44,-380.372C191.237,-378.526 197.298,-376.655 203,-375 221.852,-369.529 243.134,-364.005 260.159,-359.743"/>
<text text-anchor="middle" x="212.5" y="-378" font-family="Helvetica,sans-Serif" font-size="10.00">erpc</text>
</g>
<!-- Node16 -->
<g id="node15" class="node"><title>Node16</title>
<g id="a_node15"><a xlink:href="group__rpmsg__tty__rtos__transport.html" target="_top" xlink:title="RPMsg TTY RTOS transport. ">
<polygon fill="white" stroke="black" points="244,-304.5 244,-323.5 342,-323.5 342,-304.5 244,-304.5"/>
<text text-anchor="middle" x="293" y="-311.5" font-family="Helvetica,sans-Serif" font-size="10.00">RPMsg TTY RTOS</text>
</a>
</g>
</g>
<!-- Node0&#45;&gt;Node16 -->
<g id="edge16" class="edge"><title>Node0&#45;&gt;Node16</title>
<path fill="none" stroke="blueviolet" stroke-dasharray="5,2" d="M167.955,-380.449C183.422,-367.975 212.254,-346.177 240,-333 247.293,-329.536 255.399,-326.3 262.998,-323.515"/>
<text text-anchor="middle" x="212.5" y="-356" font-family="Helvetica,sans-Serif" font-size="10.00">erpc</text>
</g>
<!-- Node6 -->
<g id="node16" class="node"><title>Node6</title>
<g id="a_node16"><a xlink:href="group__infra__server.html" target="_top" xlink:title="Server classes. ">
<polygon fill="white" stroke="black" points="271,-266.5 271,-285.5 315,-285.5 315,-266.5 271,-266.5"/>
<text text-anchor="middle" x="293" y="-273.5" font-family="Helvetica,sans-Serif" font-size="10.00">Server</text>
</a>
</g>
</g>
<!-- Node0&#45;&gt;Node6 -->
<g id="edge6" class="edge"><title>Node0&#45;&gt;Node6</title>
<path fill="none" stroke="blueviolet" stroke-dasharray="5,2" d="M162.025,-380.433C173.743,-361.048 203.07,-317.102 240,-295 249.567,-289.274 261.14,-284.836 270.938,-281.695"/>
<text text-anchor="middle" x="212.5" y="-328" font-family="Helvetica,sans-Serif" font-size="10.00">erpc</text>
</g>
<!-- Node12 -->
<g id="node17" class="node"><title>Node12</title>
<g id="a_node17"><a xlink:href="group__itbp__transport.html" target="_top" xlink:title="Simple inter&#45;thread communications transport. ">
<polygon fill="white" stroke="black" points="260.5,-228.5 260.5,-247.5 325.5,-247.5 325.5,-228.5 260.5,-228.5"/>
<text text-anchor="middle" x="293" y="-235.5" font-family="Helvetica,sans-Serif" font-size="10.00">Inter&#45;thread</text>
</a>
</g>
</g>
<!-- Node0&#45;&gt;Node12 -->
<g id="edge12" class="edge"><title>Node0&#45;&gt;Node12</title>
<path fill="none" stroke="blueviolet" stroke-dasharray="5,2" d="M159.393,-380.218C167.436,-354.92 192.651,-287.206 240,-257 246.239,-253.02 253.43,-249.715 260.435,-247.039"/>
<text text-anchor="middle" x="212.5" y="-294" font-family="Helvetica,sans-Serif" font-size="10.00">erpc</text>
</g>
<!-- Node9 -->
<g id="node18" class="node"><title>Node9</title>
<g id="a_node18"><a xlink:href="group__dspi__master__transport.html" target="_top" xlink:title="MCUXpressoSDK DSPI master driver transport. ">
<polygon fill="white" stroke="black" points="257,-190.5 257,-209.5 329,-209.5 329,-190.5 257,-190.5"/>
<text text-anchor="middle" x="293" y="-197.5" font-family="Helvetica,sans-Serif" font-size="10.00">DSPI Master</text>
</a>
</g>
</g>
<!-- Node0&#45;&gt;Node9 -->
<g id="edge9" class="edge"><title>Node0&#45;&gt;Node9</title>
<path fill="none" stroke="blueviolet" stroke-dasharray="5,2" d="M158.363,-380.352C163.078,-357.534 176.997,-299.015 203,-257 215.405,-236.956 220.212,-231.81 240,-219 245.809,-215.239 252.464,-212.091 259.029,-209.508"/>
<text text-anchor="middle" x="212.5" y="-260" font-family="Helvetica,sans-Serif" font-size="10.00">erpc</text>
</g>
<!-- Node22 -->
<g id="node19" class="node"><title>Node22</title>
<g id="a_node19"><a xlink:href="group___u_s_b___c_d_c__transport.html" target="_top" xlink:title="USB CDC transport. ">
<polygon fill="white" stroke="black" points="263,-152.5 263,-171.5 323,-171.5 323,-152.5 263,-152.5"/>
<text text-anchor="middle" x="293" y="-159.5" font-family="Helvetica,sans-Serif" font-size="10.00">USB CDC</text>
</a>
</g>
</g>
<!-- Node0&#45;&gt;Node22 -->
<g id="edge22" class="edge"><title>Node0&#45;&gt;Node22</title>
<path fill="none" stroke="blueviolet" stroke-dasharray="5,2" d="M157.299,-380.316C159.924,-352.891 170.093,-273.055 203,-217 214.615,-197.214 220.573,-193.207 240,-181 246.999,-176.602 255.164,-173.015 262.922,-170.19"/>
<text text-anchor="middle" x="212.5" y="-220" font-family="Helvetica,sans-Serif" font-size="10.00">erpc</text>
</g>
<!-- Node3 -->
<g id="node20" class="node"><title>Node3</title>
<g id="a_node20"><a xlink:href="group__infra__codec.html" target="_top" xlink:title="Classes used for message serialization. ">
<polygon fill="white" stroke="black" points="258,-114.5 258,-133.5 328,-133.5 328,-114.5 258,-114.5"/>
<text text-anchor="middle" x="293" y="-121.5" font-family="Helvetica,sans-Serif" font-size="10.00">Serialization</text>
</a>
</g>
</g>
<!-- Node0&#45;&gt;Node3 -->
<g id="edge3" class="edge"><title>Node0&#45;&gt;Node3</title>
<path fill="none" stroke="blueviolet" stroke-dasharray="5,2" d="M156.64,-380.422C157.485,-349.177 163.316,-248.195 203,-178 214.14,-158.295 220.749,-154.908 240,-143 245.967,-139.309 252.759,-136.178 259.421,-133.588"/>
<text text-anchor="middle" x="212.5" y="-181" font-family="Helvetica,sans-Serif" font-size="10.00">erpc</text>
</g>
<!-- Node14 -->
<g id="node21" class="node"><title>Node14</title>
<g id="a_node21"><a xlink:href="group__rpmsg__lite__rtos__transport.html" target="_top" xlink:title="RPMsg&#45;Lite zero copy transport using RTOS API. ">
<polygon fill="white" stroke="black" points="244.5,-76.5 244.5,-95.5 341.5,-95.5 341.5,-76.5 244.5,-76.5"/>
<text text-anchor="middle" x="293" y="-83.5" font-family="Helvetica,sans-Serif" font-size="10.00">RPMsg&#45;Lite RTOS</text>
</a>
</g>
</g>
<!-- Node0&#45;&gt;Node14 -->
<g id="edge14" class="edge"><title>Node0&#45;&gt;Node14</title>
<path fill="none" stroke="blueviolet" stroke-dasharray="5,2" d="M156.167,-380.158C155.402,-344.987 156.438,-223.147 203,-139 213.813,-119.459 220.923,-116.611 240,-105 246.076,-101.302 252.984,-98.1545 259.736,-95.548"/>
<text text-anchor="middle" x="212.5" y="-142" font-family="Helvetica,sans-Serif" font-size="10.00">erpc</text>
</g>
<!-- Node15 -->
<g id="node22" class="node"><title>Node15</title>
<g id="a_node22"><a xlink:href="group__rpmsg__lite__transport.html" target="_top" xlink:title="RPMsg&#45;Lite zero copy transport. ">
<polygon fill="white" stroke="black" points="259,-38.5 259,-57.5 327,-57.5 327,-38.5 259,-38.5"/>
<text text-anchor="middle" x="293" y="-45.5" font-family="Helvetica,sans-Serif" font-size="10.00">RPMsg&#45;Lite</text>
</a>
</g>
</g>
<!-- Node0&#45;&gt;Node15 -->
<g id="edge15" class="edge"><title>Node0&#45;&gt;Node15</title>
<path fill="none" stroke="blueviolet" stroke-dasharray="5,2" d="M157.211,-380.232C160.588,-335.617 175.974,-151.236 203,-101 214.673,-79.3031 239.341,-65.6499 259.752,-57.6449"/>
<text text-anchor="middle" x="212.5" y="-104" font-family="Helvetica,sans-Serif" font-size="10.00">erpc</text>
</g>
<!-- Node7 -->
<g id="node23" class="node"><title>Node7</title>
<g id="a_node23"><a xlink:href="group__port__setup__extensions.html" target="_top" xlink:title="Extension setup functions. ">
<polygon fill="white" stroke="black" points="248.5,-0.5 248.5,-19.5 337.5,-19.5 337.5,-0.5 248.5,-0.5"/>
<text text-anchor="middle" x="293" y="-7.5" font-family="Helvetica,sans-Serif" font-size="10.00">Extension Setup</text>
</a>
</g>
</g>
<!-- Node0&#45;&gt;Node7 -->
<g id="edge7" class="edge"><title>Node0&#45;&gt;Node7</title>
<path fill="none" stroke="blueviolet" stroke-dasharray="5,2" d="M157.025,-380.302C159.743,-332.449 173.25,-121.505 203,-64 213.401,-43.895 220.749,-40.9082 240,-29 245.967,-25.3089 252.759,-22.1779 259.421,-19.5877"/>
<text text-anchor="middle" x="212.5" y="-67" font-family="Helvetica,sans-Serif" font-size="10.00">erpc</text>
</g>
</g>
</svg>
