<?xml version="1.0" encoding="UTF-8" standalone="no"?>
<!DOCTYPE svg PUBLIC "-//W3C//DTD SVG 1.1//EN"
 "http://www.w3.org/Graphics/SVG/1.1/DTD/svg11.dtd">
<!-- Generated by graphviz version 2.38.0 (20140413.2041)
 -->
<!-- Title: Messaging Unit Pages: 1 -->
<svg width="379pt" height="750pt"
 viewBox="0.00 0.00 379.00 750.00" xmlns="http://www.w3.org/2000/svg" xmlns:xlink="http://www.w3.org/1999/xlink">
<g id="graph0" class="graph" transform="scale(1 1) rotate(0) translate(4 746)">
<title>Messaging Unit</title>
<polygon fill="white" stroke="none" points="-4,4 -4,-746 375,-746 375,4 -4,4"/>
<!-- Node1 -->
<g id="node1" class="node"><title>Node1</title>
<g id="a_node1"><a xlink:href="group__transports.html" target="_top" xlink:title="Transport layer classes. ">
<polygon fill="white" stroke="black" points="0,-361.5 0,-380.5 89,-380.5 89,-361.5 0,-361.5"/>
<text text-anchor="middle" x="44.5" y="-368.5" font-family="Helvetica,sans-Serif" font-size="10.00">Transport Layers</text>
</a>
</g>
</g>
<!-- Node0 -->
<g id="node4" class="node"><title>Node0</title>
<polygon fill="#bfbfbf" stroke="black" points="126,-361.5 126,-380.5 210,-380.5 210,-361.5 126,-361.5"/>
<text text-anchor="middle" x="168" y="-368.5" font-family="Helvetica,sans-Serif" font-size="10.00">Messaging Unit</text>
</g>
<!-- Node1&#45;&gt;Node0 -->
<g id="edge1" class="edge"><title>Node1&#45;&gt;Node0</title>
<path fill="none" stroke="black" d="M99.028,-371C108.009,-371 117.204,-371 125.813,-371"/>
<polygon fill="black" stroke="black" points="99.0211,-367.5 89.0211,-371 99.0211,-374.5 99.0211,-367.5"/>
</g>
<!-- Node10 -->
<g id="node2" class="node"><title>Node10</title>
<g id="a_node2"><a xlink:href="group__dspi__slave__transport.html" target="_top" xlink:title="Kinetis SDK DSPI slave driver transport. ">
<polygon fill="white" stroke="black" points="285.5,-722.5 285.5,-741.5 350.5,-741.5 350.5,-722.5 285.5,-722.5"/>
<text text-anchor="middle" x="318" y="-729.5" font-family="Helvetica,sans-Serif" font-size="10.00">DSPI Slave</text>
</a>
</g>
</g>
<!-- Node8 -->
<g id="node3" class="node"><title>Node8</title>
<g id="a_node3"><a xlink:href="group__port__threads.html" target="_top" xlink:title="Threading model. ">
<polygon fill="white" stroke="black" points="292.5,-684.5 292.5,-703.5 343.5,-703.5 343.5,-684.5 292.5,-684.5"/>
<text text-anchor="middle" x="318" y="-691.5" font-family="Helvetica,sans-Serif" font-size="10.00">Threads</text>
</a>
</g>
</g>
<!-- Node0&#45;&gt;Node10 -->
<g id="edge10" class="edge"><title>Node0&#45;&gt;Node10</title>
<path fill="none" stroke="blueviolet" stroke-dasharray="5,2" d="M168.823,-380.694C168.505,-420.179 171.224,-571.771 228,-677 238.895,-697.192 245.573,-700.793 265,-713 271.266,-716.938 278.468,-720.225 285.474,-722.898"/>
<text text-anchor="middle" x="237.5" y="-703" font-family="Helvetica,sans-Serif" font-size="10.00">erpc</text>
</g>
<!-- Node0&#45;&gt;Node8 -->
<g id="edge8" class="edge"><title>Node0&#45;&gt;Node8</title>
<path fill="none" stroke="blueviolet" stroke-dasharray="5,2" d="M169.175,-380.963C170.22,-417.716 177.489,-548.251 228,-639 239.158,-659.048 245.573,-662.793 265,-675 273.382,-680.267 283.437,-684.372 292.462,-687.396"/>
<text text-anchor="middle" x="237.5" y="-665" font-family="Helvetica,sans-Serif" font-size="10.00">erpc</text>
</g>
<!-- Node19 -->
<g id="node5" class="node"><title>Node19</title>
<g id="a_node5"><a xlink:href="group__tcp__transport.html" target="_top" xlink:title="Simple TCP/IP transport. ">
<polygon fill="white" stroke="black" points="294.5,-646.5 294.5,-665.5 341.5,-665.5 341.5,-646.5 294.5,-646.5"/>
<text text-anchor="middle" x="318" y="-653.5" font-family="Helvetica,sans-Serif" font-size="10.00">TCP/IP</text>
</a>
</g>
</g>
<!-- Node0&#45;&gt;Node19 -->
<g id="edge19" class="edge"><title>Node0&#45;&gt;Node19</title>
<path fill="none" stroke="blueviolet" stroke-dasharray="5,2" d="M169.636,-380.908C172.153,-414.208 183.57,-524.311 228,-601 239.502,-620.853 245.573,-624.793 265,-637 273.952,-642.625 284.812,-646.924 294.287,-649.998"/>
<text text-anchor="middle" x="237.5" y="-627" font-family="Helvetica,sans-Serif" font-size="10.00">erpc</text>
</g>
<!-- Node2 -->
<g id="node6" class="node"><title>Node2</title>
<g id="a_node6"><a xlink:href="group__infra__client.html" target="_top" xlink:title="Client classes. ">
<polygon fill="white" stroke="black" points="297.5,-608.5 297.5,-627.5 338.5,-627.5 338.5,-608.5 297.5,-608.5"/>
<text text-anchor="middle" x="318" y="-615.5" font-family="Helvetica,sans-Serif" font-size="10.00">Client</text>
</a>
</g>
</g>
<!-- Node0&#45;&gt;Node2 -->
<g id="edge2" class="edge"><title>Node0&#45;&gt;Node2</title>
<path fill="none" stroke="blueviolet" stroke-dasharray="5,2" d="M170.324,-380.817C174.628,-410.199 190.193,-499.285 228,-562 240.007,-581.917 245.394,-586.492 265,-599 274.886,-605.307 287.159,-609.917 297.299,-613.016"/>
<text text-anchor="middle" x="237.5" y="-589" font-family="Helvetica,sans-Serif" font-size="10.00">erpc</text>
</g>
<!-- Node4 -->
<g id="node7" class="node"><title>Node4</title>
<g id="a_node7"><a xlink:href="group__infra__transport.html" target="_top" xlink:title="Superclasses for building transports. ">
<polygon fill="white" stroke="black" points="287,-570.5 287,-589.5 349,-589.5 349,-570.5 287,-570.5"/>
<text text-anchor="middle" x="318" y="-577.5" font-family="Helvetica,sans-Serif" font-size="10.00">Transports</text>
</a>
</g>
</g>
<!-- Node0&#45;&gt;Node4 -->
<g id="edge4" class="edge"><title>Node0&#45;&gt;Node4</title>
<path fill="none" stroke="blueviolet" stroke-dasharray="5,2" d="M171.265,-380.516C177.482,-405.414 196.476,-473.943 228,-523 240.743,-542.831 245.212,-548.19 265,-561 271.616,-565.283 279.329,-568.772 286.757,-571.535"/>
<text text-anchor="middle" x="237.5" y="-550" font-family="Helvetica,sans-Serif" font-size="10.00">erpc</text>
</g>
<!-- Node15 -->
<g id="node8" class="node"><title>Node15</title>
<g id="a_node8"><a xlink:href="group__serial__transport.html" target="_top" xlink:title="POSIX and Win32 serial port transport. ">
<polygon fill="white" stroke="black" points="287.5,-532.5 287.5,-551.5 348.5,-551.5 348.5,-532.5 287.5,-532.5"/>
<text text-anchor="middle" x="318" y="-539.5" font-family="Helvetica,sans-Serif" font-size="10.00">Serial port</text>
</a>
</g>
</g>
<!-- Node0&#45;&gt;Node15 -->
<g id="edge15" class="edge"><title>Node0&#45;&gt;Node15</title>
<path fill="none" stroke="blueviolet" stroke-dasharray="5,2" d="M171.855,-380.509C180.627,-407.917 209.979,-487.381 265,-523 271.777,-527.388 279.706,-530.941 287.3,-533.736"/>
<text text-anchor="middle" x="237.5" y="-511" font-family="Helvetica,sans-Serif" font-size="10.00">erpc</text>
</g>
<!-- Node5 -->
<g id="node9" class="node"><title>Node5</title>
<g id="a_node9"><a xlink:href="group__infra__utility.html" target="_top" xlink:title="Utility code used by the infrastructure. ">
<polygon fill="white" stroke="black" points="293.5,-494.5 293.5,-513.5 342.5,-513.5 342.5,-494.5 293.5,-494.5"/>
<text text-anchor="middle" x="318" y="-501.5" font-family="Helvetica,sans-Serif" font-size="10.00">Utilities</text>
</a>
</g>
</g>
<!-- Node0&#45;&gt;Node5 -->
<g id="edge5" class="edge"><title>Node0&#45;&gt;Node5</title>
<path fill="none" stroke="blueviolet" stroke-dasharray="5,2" d="M174.292,-380.693C186.897,-402.833 220.964,-457.33 265,-485 273.627,-490.421 284.025,-494.61 293.248,-497.658"/>
<text text-anchor="middle" x="237.5" y="-473" font-family="Helvetica,sans-Serif" font-size="10.00">erpc</text>
</g>
<!-- Node17 -->
<g id="node10" class="node"><title>Node17</title>
<g id="a_node10"><a xlink:href="group__spi__slave__transport.html" target="_top" xlink:title="Kinetis SDK SPI slave driver transport. ">
<polygon fill="white" stroke="black" points="288.5,-456.5 288.5,-475.5 347.5,-475.5 347.5,-456.5 288.5,-456.5"/>
<text text-anchor="middle" x="318" y="-463.5" font-family="Helvetica,sans-Serif" font-size="10.00">SPI Slave</text>
</a>
</g>
</g>
<!-- Node0&#45;&gt;Node17 -->
<g id="edge17" class="edge"><title>Node0&#45;&gt;Node17</title>
<path fill="none" stroke="blueviolet" stroke-dasharray="5,2" d="M178.868,-380.61C195.451,-396.325 230.493,-427.699 265,-447 272.298,-451.082 280.641,-454.584 288.477,-457.429"/>
<text text-anchor="middle" x="237.5" y="-437" font-family="Helvetica,sans-Serif" font-size="10.00">erpc</text>
</g>
<!-- Node20 -->
<g id="node11" class="node"><title>Node20</title>
<g id="a_node11"><a xlink:href="group__uart__transport.html" target="_top" xlink:title="CMSIS UART driver transport. ">
<polygon fill="white" stroke="black" points="280,-418.5 280,-437.5 356,-437.5 356,-418.5 280,-418.5"/>
<text text-anchor="middle" x="318" y="-425.5" font-family="Helvetica,sans-Serif" font-size="10.00">CMSIS UART</text>
</a>
</g>
</g>
<!-- Node0&#45;&gt;Node20 -->
<g id="edge20" class="edge"><title>Node0&#45;&gt;Node20</title>
<path fill="none" stroke="blueviolet" stroke-dasharray="5,2" d="M192.206,-380.593C203.054,-385.039 216.162,-390.354 228,-395 244.367,-401.424 248.52,-402.872 265,-409 273.378,-412.116 282.532,-415.475 290.792,-418.49"/>
<text text-anchor="middle" x="237.5" y="-405" font-family="Helvetica,sans-Serif" font-size="10.00">erpc</text>
</g>
<!-- Node18 -->
<g id="node12" class="node"><title>Node18</title>
<g id="a_node12"><a xlink:href="group__spidev__master__transport.html" target="_top" xlink:title="SPIdev Linux transport. ">
<polygon fill="white" stroke="black" points="265,-380.5 265,-399.5 371,-399.5 371,-380.5 265,-380.5"/>
<text text-anchor="middle" x="318" y="-387.5" font-family="Helvetica,sans-Serif" font-size="10.00">SPIdev Linux Master</text>
</a>
</g>
</g>
<!-- Node0&#45;&gt;Node18 -->
<g id="edge18" class="edge"><title>Node0&#45;&gt;Node18</title>
<path fill="none" stroke="blueviolet" stroke-dasharray="5,2" d="M210.226,-376.293C227.161,-378.467 246.966,-381.009 264.889,-383.31"/>
<text text-anchor="middle" x="237.5" y="-383" font-family="Helvetica,sans-Serif" font-size="10.00">erpc</text>
</g>
<!-- Node16 -->
<g id="node13" class="node"><title>Node16</title>
<g id="a_node13"><a xlink:href="group__spi__master__transport.html" target="_top" xlink:title="Kinetis SDK SPI master driver transport. ">
<polygon fill="white" stroke="black" points="285.5,-342.5 285.5,-361.5 350.5,-361.5 350.5,-342.5 285.5,-342.5"/>
<text text-anchor="middle" x="318" y="-349.5" font-family="Helvetica,sans-Serif" font-size="10.00">SPI Master</text>
</a>
</g>
</g>
<!-- Node0&#45;&gt;Node16 -->
<g id="edge16" class="edge"><title>Node0&#45;&gt;Node16</title>
<path fill="none" stroke="blueviolet" stroke-dasharray="5,2" d="M204.685,-361.463C212.33,-359.721 220.395,-358.107 228,-357 246.837,-354.258 268.118,-352.997 285.147,-352.426"/>
<text text-anchor="middle" x="237.5" y="-360" font-family="Helvetica,sans-Serif" font-size="10.00">erpc</text>
</g>
<!-- Node14 -->
<g id="node14" class="node"><title>Node14</title>
<g id="a_node14"><a xlink:href="group__rpmsg__tty__rtos__transport.html" target="_top" xlink:title="RPMsg TTY RTOS transport. ">
<polygon fill="white" stroke="black" points="269,-304.5 269,-323.5 367,-323.5 367,-304.5 269,-304.5"/>
<text text-anchor="middle" x="318" y="-311.5" font-family="Helvetica,sans-Serif" font-size="10.00">RPMsg TTY RTOS</text>
</a>
</g>
</g>
<!-- Node0&#45;&gt;Node14 -->
<g id="edge14" class="edge"><title>Node0&#45;&gt;Node14</title>
<path fill="none" stroke="blueviolet" stroke-dasharray="5,2" d="M184.558,-361.315C196.191,-354.386 212.667,-345.221 228,-339 243.17,-332.846 260.38,-327.627 275.596,-323.575"/>
<text text-anchor="middle" x="237.5" y="-342" font-family="Helvetica,sans-Serif" font-size="10.00">erpc</text>
</g>
<!-- Node6 -->
<g id="node15" class="node"><title>Node6</title>
<g id="a_node15"><a xlink:href="group__infra__server.html" target="_top" xlink:title="Server classes. ">
<polygon fill="white" stroke="black" points="296,-266.5 296,-285.5 340,-285.5 340,-266.5 296,-266.5"/>
<text text-anchor="middle" x="318" y="-273.5" font-family="Helvetica,sans-Serif" font-size="10.00">Server</text>
</a>
</g>
</g>
<!-- Node0&#45;&gt;Node6 -->
<g id="edge6" class="edge"><title>Node0&#45;&gt;Node6</title>
<path fill="none" stroke="blueviolet" stroke-dasharray="5,2" d="M178.483,-361.175C189.715,-349.818 209.272,-330.909 228,-317 243.359,-305.593 247.718,-303.207 265,-295 274.898,-290.299 286.292,-286.018 295.887,-282.714"/>
<text text-anchor="middle" x="237.5" y="-320" font-family="Helvetica,sans-Serif" font-size="10.00">erpc</text>
</g>
<!-- Node11 -->
<g id="node16" class="node"><title>Node11</title>
<g id="a_node16"><a xlink:href="group__itbp__transport.html" target="_top" xlink:title="Simple inter&#45;thread communications transport. ">
<polygon fill="white" stroke="black" points="285.5,-228.5 285.5,-247.5 350.5,-247.5 350.5,-228.5 285.5,-228.5"/>
<text text-anchor="middle" x="318" y="-235.5" font-family="Helvetica,sans-Serif" font-size="10.00">Inter&#45;thread</text>
</a>
</g>
</g>
<!-- Node0&#45;&gt;Node11 -->
<g id="edge11" class="edge"><title>Node0&#45;&gt;Node11</title>
<path fill="none" stroke="blueviolet" stroke-dasharray="5,2" d="M173.999,-361.46C186.223,-339.158 219.949,-283.498 265,-257 271.296,-253.297 278.437,-250.117 285.366,-247.478"/>
<text text-anchor="middle" x="237.5" y="-287" font-family="Helvetica,sans-Serif" font-size="10.00">erpc</text>
</g>
<!-- Node9 -->
<g id="node17" class="node"><title>Node9</title>
<g id="a_node17"><a xlink:href="group__dspi__master__transport.html" target="_top" xlink:title="Kinetis SDK DSPI master driver transport. ">
<polygon fill="white" stroke="black" points="282,-190.5 282,-209.5 354,-209.5 354,-190.5 282,-190.5"/>
<text text-anchor="middle" x="318" y="-197.5" font-family="Helvetica,sans-Serif" font-size="10.00">DSPI Master</text>
</a>
</g>
</g>
<!-- Node0&#45;&gt;Node9 -->
<g id="edge9" class="edge"><title>Node0&#45;&gt;Node9</title>
<path fill="none" stroke="blueviolet" stroke-dasharray="5,2" d="M171.809,-361.418C180.456,-333.815 209.503,-253.872 265,-219 270.941,-215.267 277.722,-212.118 284.381,-209.523"/>
<text text-anchor="middle" x="237.5" y="-254" font-family="Helvetica,sans-Serif" font-size="10.00">erpc</text>
</g>
<!-- Node21 -->
<g id="node18" class="node"><title>Node21</title>
<g id="a_node18"><a xlink:href="group___u_s_b___c_d_c__transport.html" target="_top" xlink:title="USB CDC transport. ">
<polygon fill="white" stroke="black" points="288,-152.5 288,-171.5 348,-171.5 348,-152.5 288,-152.5"/>
<text text-anchor="middle" x="318" y="-159.5" font-family="Helvetica,sans-Serif" font-size="10.00">USB CDC</text>
</a>
</g>
</g>
<!-- Node0&#45;&gt;Node21 -->
<g id="edge21" class="edge"><title>Node0&#45;&gt;Node21</title>
<path fill="none" stroke="blueviolet" stroke-dasharray="5,2" d="M171.213,-361.396C177.305,-336.274 196.021,-267.16 228,-218 240.681,-198.506 245.394,-193.508 265,-181 271.969,-176.554 280.124,-172.951 287.881,-170.127"/>
<text text-anchor="middle" x="237.5" y="-221" font-family="Helvetica,sans-Serif" font-size="10.00">erpc</text>
</g>
<!-- Node3 -->
<g id="node19" class="node"><title>Node3</title>
<g id="a_node19"><a xlink:href="group__infra__codec.html" target="_top" xlink:title="Classes used for message serialization. ">
<polygon fill="white" stroke="black" points="283,-114.5 283,-133.5 353,-133.5 353,-114.5 283,-114.5"/>
<text text-anchor="middle" x="318" y="-121.5" font-family="Helvetica,sans-Serif" font-size="10.00">Serialization</text>
</a>
</g>
</g>
<!-- Node0&#45;&gt;Node3 -->
<g id="edge3" class="edge"><title>Node0&#45;&gt;Node3</title>
<path fill="none" stroke="blueviolet" stroke-dasharray="5,2" d="M170.271,-361.107C174.429,-331.504 189.628,-241.781 228,-179 239.965,-159.423 245.573,-155.207 265,-143 270.941,-139.267 277.722,-136.118 284.381,-133.523"/>
<text text-anchor="middle" x="237.5" y="-182" font-family="Helvetica,sans-Serif" font-size="10.00">erpc</text>
</g>
<!-- Node12 -->
<g id="node20" class="node"><title>Node12</title>
<g id="a_node20"><a xlink:href="group__rpmsg__lite__rtos__transport.html" target="_top" xlink:title="RPMsg&#45;Lite zero copy transport using RTOS API. ">
<polygon fill="white" stroke="black" points="269.5,-76.5 269.5,-95.5 366.5,-95.5 366.5,-76.5 269.5,-76.5"/>
<text text-anchor="middle" x="318" y="-83.5" font-family="Helvetica,sans-Serif" font-size="10.00">RPMsg&#45;Lite RTOS</text>
</a>
</g>
</g>
<!-- Node0&#45;&gt;Node12 -->
<g id="edge12" class="edge"><title>Node0&#45;&gt;Node12</title>
<path fill="none" stroke="blueviolet" stroke-dasharray="5,2" d="M169.552,-361.488C171.834,-328.536 182.678,-217.067 228,-140 239.475,-120.488 245.749,-116.908 265,-105 270.967,-101.309 277.759,-98.1779 284.421,-95.5877"/>
<text text-anchor="middle" x="237.5" y="-143" font-family="Helvetica,sans-Serif" font-size="10.00">erpc</text>
</g>
<!-- Node13 -->
<g id="node21" class="node"><title>Node13</title>
<g id="a_node21"><a xlink:href="group__rpmsg__lite__transport.html" target="_top" xlink:title="RPMsg&#45;Lite zero copy transport. ">
<polygon fill="white" stroke="black" points="284,-38.5 284,-57.5 352,-57.5 352,-38.5 284,-38.5"/>
<text text-anchor="middle" x="318" y="-45.5" font-family="Helvetica,sans-Serif" font-size="10.00">RPMsg&#45;Lite</text>
</a>
</g>
</g>
<!-- Node0&#45;&gt;Node13 -->
<g id="edge13" class="edge"><title>Node0&#45;&gt;Node13</title>
<path fill="none" stroke="blueviolet" stroke-dasharray="5,2" d="M169.061,-361.42C169.693,-324.932 175.663,-192.117 228,-101 239.124,-81.6343 245.923,-78.6111 265,-67 271.076,-63.3021 277.984,-60.1545 284.736,-57.548"/>
<text text-anchor="middle" x="237.5" y="-104" font-family="Helvetica,sans-Serif" font-size="10.00">erpc</text>
</g>
<!-- Node7 -->
<g id="node22" class="node"><title>Node7</title>
<g id="a_node22"><a xlink:href="group__port__setup__extensions.html" target="_top" xlink:title="Extension setup functions. ">
<polygon fill="white" stroke="black" points="273.5,-0.5 273.5,-19.5 362.5,-19.5 362.5,-0.5 273.5,-0.5"/>
<text text-anchor="middle" x="318" y="-7.5" font-family="Helvetica,sans-Serif" font-size="10.00">Extension Setup</text>
</a>
</g>
</g>
<!-- Node0&#45;&gt;Node7 -->
<g id="edge7" class="edge"><title>Node0&#45;&gt;Node7</title>
<path fill="none" stroke="blueviolet" stroke-dasharray="5,2" d="M168.727,-361.466C168.007,-321.97 169.292,-168.34 228,-63 238.872,-43.492 245.923,-40.6111 265,-29 271.076,-25.3021 277.984,-22.1545 284.736,-19.548"/>
<text text-anchor="middle" x="237.5" y="-66" font-family="Helvetica,sans-Serif" font-size="10.00">erpc</text>
</g>
</g>
</svg>
