<?xml version="1.0" encoding="UTF-8" standalone="no"?>
<!DOCTYPE svg PUBLIC "-//W3C//DTD SVG 1.1//EN"
 "http://www.w3.org/Graphics/SVG/1.1/DTD/svg11.dtd">
<!-- Generated by graphviz version 2.38.0 (20140413.2041)
 -->
<!-- Title: Serial port Pages: 1 -->
<svg width="360pt" height="902pt"
 viewBox="0.00 0.00 360.00 902.00" xmlns="http://www.w3.org/2000/svg" xmlns:xlink="http://www.w3.org/1999/xlink">
<g id="graph0" class="graph" transform="scale(1 1) rotate(0) translate(4 898)">
<title>Serial port</title>
<polygon fill="white" stroke="none" points="-4,4 -4,-898 356,-898 356,4 -4,4"/>
<!-- Node1 -->
<g id="node1" class="node"><title>Node1</title>
<g id="a_node1"><a xlink:href="group__transports.html" target="_top" xlink:title="Transport layer classes. ">
<polygon fill="white" stroke="black" points="0,-437.5 0,-456.5 89,-456.5 89,-437.5 0,-437.5"/>
<text text-anchor="middle" x="44.5" y="-444.5" font-family="Helvetica,sans-Serif" font-size="10.00">Transport Layers</text>
</a>
</g>
</g>
<!-- Node0 -->
<g id="node10" class="node"><title>Node0</title>
<polygon fill="#bfbfbf" stroke="black" points="126,-437.5 126,-456.5 187,-456.5 187,-437.5 126,-437.5"/>
<text text-anchor="middle" x="156.5" y="-444.5" font-family="Helvetica,sans-Serif" font-size="10.00">Serial port</text>
</g>
<!-- Node1&#45;&gt;Node0 -->
<g id="edge1" class="edge"><title>Node1&#45;&gt;Node0</title>
<path fill="none" stroke="black" d="M99.4378,-447C108.486,-447 117.572,-447 125.717,-447"/>
<polygon fill="black" stroke="black" points="99.291,-443.5 89.291,-447 99.2909,-450.5 99.291,-443.5"/>
</g>
<!-- Node10 -->
<g id="node2" class="node"><title>Node10</title>
<g id="a_node2"><a xlink:href="group__dspi__slave__transport.html" target="_top" xlink:title="MCUXpressoSDK DSPI slave driver transport. ">
<polygon fill="white" stroke="black" points="264.5,-874.5 264.5,-893.5 329.5,-893.5 329.5,-874.5 264.5,-874.5"/>
<text text-anchor="middle" x="297" y="-881.5" font-family="Helvetica,sans-Serif" font-size="10.00">DSPI Slave</text>
</a>
</g>
</g>
<!-- Node11 -->
<g id="node3" class="node"><title>Node11</title>
<g id="a_node3"><a xlink:href="group__i2c__slave__transport.html" target="_top" xlink:title="MCUXpressoSDK I2C slave driver transport. ">
<polygon fill="white" stroke="black" points="268.5,-836.5 268.5,-855.5 325.5,-855.5 325.5,-836.5 268.5,-836.5"/>
<text text-anchor="middle" x="297" y="-843.5" font-family="Helvetica,sans-Serif" font-size="10.00">I2C Slave</text>
</a>
</g>
</g>
<!-- Node8 -->
<g id="node4" class="node"><title>Node8</title>
<g id="a_node4"><a xlink:href="group__port__threads.html" target="_top" xlink:title="Threading model. ">
<polygon fill="white" stroke="black" points="271.5,-798.5 271.5,-817.5 322.5,-817.5 322.5,-798.5 271.5,-798.5"/>
<text text-anchor="middle" x="297" y="-805.5" font-family="Helvetica,sans-Serif" font-size="10.00">Threads</text>
</a>
</g>
</g>
<!-- Node15 -->
<g id="node5" class="node"><title>Node15</title>
<g id="a_node5"><a xlink:href="group__mbox__transport.html" target="_top" xlink:title="Mbox_transport">
<polygon fill="white" stroke="black" points="255,-760.5 255,-779.5 339,-779.5 339,-760.5 255,-760.5"/>
<text text-anchor="middle" x="297" y="-767.5" font-family="Helvetica,sans-Serif" font-size="10.00">Mbox_transport</text>
</a>
</g>
</g>
<!-- Node16 -->
<g id="node6" class="node"><title>Node16</title>
<g id="a_node6"><a xlink:href="group__mu__transport.html" target="_top" xlink:title="Messaging Unit transport. ">
<polygon fill="white" stroke="black" points="255,-722.5 255,-741.5 339,-741.5 339,-722.5 255,-722.5"/>
<text text-anchor="middle" x="297" y="-729.5" font-family="Helvetica,sans-Serif" font-size="10.00">Messaging Unit</text>
</a>
</g>
</g>
<!-- Node23 -->
<g id="node7" class="node"><title>Node23</title>
<g id="a_node7"><a xlink:href="group__tcp__transport.html" target="_top" xlink:title="Simple TCP/IP transport. ">
<polygon fill="white" stroke="black" points="273.5,-684.5 273.5,-703.5 320.5,-703.5 320.5,-684.5 273.5,-684.5"/>
<text text-anchor="middle" x="297" y="-691.5" font-family="Helvetica,sans-Serif" font-size="10.00">TCP/IP</text>
</a>
</g>
</g>
<!-- Node2 -->
<g id="node8" class="node"><title>Node2</title>
<g id="a_node8"><a xlink:href="group__infra__client.html" target="_top" xlink:title="Client classes. ">
<polygon fill="white" stroke="black" points="276.5,-646.5 276.5,-665.5 317.5,-665.5 317.5,-646.5 276.5,-646.5"/>
<text text-anchor="middle" x="297" y="-653.5" font-family="Helvetica,sans-Serif" font-size="10.00">Client</text>
</a>
</g>
</g>
<!-- Node4 -->
<g id="node9" class="node"><title>Node4</title>
<g id="a_node9"><a xlink:href="group__infra__transport.html" target="_top" xlink:title="Superclasses for building transports. ">
<polygon fill="white" stroke="black" points="266,-608.5 266,-627.5 328,-627.5 328,-608.5 266,-608.5"/>
<text text-anchor="middle" x="297" y="-615.5" font-family="Helvetica,sans-Serif" font-size="10.00">Transports</text>
</a>
</g>
</g>
<!-- Node0&#45;&gt;Node10 -->
<g id="edge10" class="edge"><title>Node0&#45;&gt;Node10</title>
<path fill="none" stroke="blueviolet" stroke-dasharray="5,2" d="M157.818,-456.598C159.687,-509.088 170.373,-761.541 205,-830 215.217,-850.199 222.678,-853.207 242,-865 248.871,-869.194 256.801,-872.636 264.43,-875.382"/>
<text text-anchor="middle" x="214.5" y="-856" font-family="Helvetica,sans-Serif" font-size="10.00">erpc</text>
</g>
<!-- Node0&#45;&gt;Node11 -->
<g id="edge11" class="edge"><title>Node0&#45;&gt;Node11</title>
<path fill="none" stroke="blueviolet" stroke-dasharray="5,2" d="M157.984,-456.566C160.597,-505.704 174.055,-729.8 205,-791 215.353,-811.475 222.5,-814.91 242,-827 250.024,-831.975 259.529,-835.874 268.311,-838.811"/>
<text text-anchor="middle" x="214.5" y="-818" font-family="Helvetica,sans-Serif" font-size="10.00">erpc</text>
</g>
<!-- Node0&#45;&gt;Node8 -->
<g id="edge8" class="edge"><title>Node0&#45;&gt;Node8</title>
<path fill="none" stroke="blueviolet" stroke-dasharray="5,2" d="M158.178,-456.702C161.519,-502.736 177.195,-699.138 205,-753 215.525,-773.388 222.5,-776.91 242,-789 250.953,-794.551 261.75,-798.763 271.329,-801.793"/>
<text text-anchor="middle" x="214.5" y="-779" font-family="Helvetica,sans-Serif" font-size="10.00">erpc</text>
</g>
<!-- Node0&#45;&gt;Node15 -->
<g id="edge15" class="edge"><title>Node0&#45;&gt;Node15</title>
<path fill="none" stroke="blueviolet" stroke-dasharray="5,2" d="M157.141,-456.945C156.237,-493.635 156.77,-623.977 205,-715 215.742,-735.274 222.5,-738.91 242,-751 247.997,-754.718 254.821,-757.836 261.553,-760.399"/>
<text text-anchor="middle" x="214.5" y="-741" font-family="Helvetica,sans-Serif" font-size="10.00">erpc</text>
</g>
<!-- Node0&#45;&gt;Node16 -->
<g id="edge16" class="edge"><title>Node0&#45;&gt;Node16</title>
<path fill="none" stroke="blueviolet" stroke-dasharray="5,2" d="M157.523,-456.893C158.001,-490.149 162.866,-600.127 205,-677 216.028,-697.12 222.5,-700.91 242,-713 247.997,-716.718 254.821,-719.836 261.553,-722.399"/>
<text text-anchor="middle" x="214.5" y="-703" font-family="Helvetica,sans-Serif" font-size="10.00">erpc</text>
</g>
<!-- Node0&#45;&gt;Node23 -->
<g id="edge23" class="edge"><title>Node0&#45;&gt;Node23</title>
<path fill="none" stroke="blueviolet" stroke-dasharray="5,2" d="M158.045,-456.886C160.057,-486.473 168.948,-576.152 205,-639 216.416,-658.902 222.5,-662.91 242,-675 251.629,-680.97 263.391,-685.391 273.476,-688.458"/>
<text text-anchor="middle" x="214.5" y="-665" font-family="Helvetica,sans-Serif" font-size="10.00">erpc</text>
</g>
<!-- Node0&#45;&gt;Node2 -->
<g id="edge2" class="edge"><title>Node0&#45;&gt;Node2</title>
<path fill="none" stroke="blueviolet" stroke-dasharray="5,2" d="M158.839,-456.617C162.674,-481.77 175.385,-550.952 205,-600 217.021,-619.908 222.319,-624.61 242,-637 252.513,-643.618 265.634,-648.304 276.31,-651.365"/>
<text text-anchor="middle" x="214.5" y="-627" font-family="Helvetica,sans-Serif" font-size="10.00">erpc</text>
</g>
<!-- Node0&#45;&gt;Node4 -->
<g id="edge4" class="edge"><title>Node0&#45;&gt;Node4</title>
<path fill="none" stroke="blueviolet" stroke-dasharray="5,2" d="M160.053,-456.556C165.826,-477.087 181.256,-526.426 205,-562 217.911,-581.343 222.319,-586.61 242,-599 249.233,-603.554 257.7,-607.192 265.757,-610.016"/>
<text text-anchor="middle" x="214.5" y="-588" font-family="Helvetica,sans-Serif" font-size="10.00">erpc</text>
</g>
<!-- Node5 -->
<g id="node11" class="node"><title>Node5</title>
<g id="a_node11"><a xlink:href="group__infra__utility.html" target="_top" xlink:title="Utility code used by the infrastructure. ">
<polygon fill="white" stroke="black" points="272.5,-570.5 272.5,-589.5 321.5,-589.5 321.5,-570.5 272.5,-570.5"/>
<text text-anchor="middle" x="297" y="-577.5" font-family="Helvetica,sans-Serif" font-size="10.00">Utilities</text>
</a>
</g>
</g>
<!-- Node0&#45;&gt;Node5 -->
<g id="edge5" class="edge"><title>Node0&#45;&gt;Node5</title>
<path fill="none" stroke="blueviolet" stroke-dasharray="5,2" d="M161.523,-456.617C171.468,-479.084 199.522,-535.075 242,-561 251.332,-566.695 262.614,-571.004 272.448,-574.067"/>
<text text-anchor="middle" x="214.5" y="-550" font-family="Helvetica,sans-Serif" font-size="10.00">erpc</text>
</g>
<!-- Node21 -->
<g id="node12" class="node"><title>Node21</title>
<g id="a_node12"><a xlink:href="group__spi__slave__transport.html" target="_top" xlink:title="MCUXpressoSDK SPI slave driver transport. ">
<polygon fill="white" stroke="black" points="267.5,-532.5 267.5,-551.5 326.5,-551.5 326.5,-532.5 267.5,-532.5"/>
<text text-anchor="middle" x="297" y="-539.5" font-family="Helvetica,sans-Serif" font-size="10.00">SPI Slave</text>
</a>
</g>
</g>
<!-- Node0&#45;&gt;Node21 -->
<g id="edge21" class="edge"><title>Node0&#45;&gt;Node21</title>
<path fill="none" stroke="blueviolet" stroke-dasharray="5,2" d="M165.62,-456.607C179.63,-472.602 209.941,-504.735 242,-523 249.858,-527.477 258.953,-531.172 267.412,-534.075"/>
<text text-anchor="middle" x="214.5" y="-514" font-family="Helvetica,sans-Serif" font-size="10.00">erpc</text>
</g>
<!-- Node24 -->
<g id="node13" class="node"><title>Node24</title>
<g id="a_node13"><a xlink:href="group__uart__transport.html" target="_top" xlink:title="CMSIS UART driver transport. ">
<polygon fill="white" stroke="black" points="259,-494.5 259,-513.5 335,-513.5 335,-494.5 259,-494.5"/>
<text text-anchor="middle" x="297" y="-501.5" font-family="Helvetica,sans-Serif" font-size="10.00">CMSIS UART</text>
</a>
</g>
</g>
<!-- Node0&#45;&gt;Node24 -->
<g id="edge24" class="edge"><title>Node0&#45;&gt;Node24</title>
<path fill="none" stroke="blueviolet" stroke-dasharray="5,2" d="M176.778,-456.69C185.358,-460.911 195.622,-465.834 205,-470 225.653,-479.175 249.618,-488.06 267.769,-494.446"/>
<text text-anchor="middle" x="214.5" y="-480" font-family="Helvetica,sans-Serif" font-size="10.00">erpc</text>
</g>
<!-- Node22 -->
<g id="node14" class="node"><title>Node22</title>
<g id="a_node14"><a xlink:href="group__spidev__master__transport.html" target="_top" xlink:title="SPIdev Linux transport. ">
<polygon fill="white" stroke="black" points="244,-456.5 244,-475.5 350,-475.5 350,-456.5 244,-456.5"/>
<text text-anchor="middle" x="297" y="-463.5" font-family="Helvetica,sans-Serif" font-size="10.00">SPIdev Linux Master</text>
</a>
</g>
</g>
<!-- Node0&#45;&gt;Node22 -->
<g id="edge22" class="edge"><title>Node0&#45;&gt;Node22</title>
<path fill="none" stroke="blueviolet" stroke-dasharray="5,2" d="M187.212,-451.076C203.744,-453.344 224.799,-456.232 243.972,-458.863"/>
<text text-anchor="middle" x="214.5" y="-458" font-family="Helvetica,sans-Serif" font-size="10.00">erpc</text>
</g>
<!-- Node20 -->
<g id="node15" class="node"><title>Node20</title>
<g id="a_node15"><a xlink:href="group__spi__master__transport.html" target="_top" xlink:title="MCUXpressoSDK SPI master driver transport. ">
<polygon fill="white" stroke="black" points="264.5,-418.5 264.5,-437.5 329.5,-437.5 329.5,-418.5 264.5,-418.5"/>
<text text-anchor="middle" x="297" y="-425.5" font-family="Helvetica,sans-Serif" font-size="10.00">SPI Master</text>
</a>
</g>
</g>
<!-- Node0&#45;&gt;Node20 -->
<g id="edge20" class="edge"><title>Node0&#45;&gt;Node20</title>
<path fill="none" stroke="blueviolet" stroke-dasharray="5,2" d="M185.881,-437.472C192.117,-435.707 198.731,-434.081 205,-433 224.49,-429.639 246.643,-428.368 264.212,-427.948"/>
<text text-anchor="middle" x="214.5" y="-436" font-family="Helvetica,sans-Serif" font-size="10.00">erpc</text>
</g>
<!-- Node19 -->
<g id="node16" class="node"><title>Node19</title>
<g id="a_node16"><a xlink:href="group__rpmsg__tty__rtos__transport.html" target="_top" xlink:title="RPMsg TTY RTOS transport. ">
<polygon fill="white" stroke="black" points="248,-380.5 248,-399.5 346,-399.5 346,-380.5 248,-380.5"/>
<text text-anchor="middle" x="297" y="-387.5" font-family="Helvetica,sans-Serif" font-size="10.00">RPMsg TTY RTOS</text>
</a>
</g>
</g>
<!-- Node0&#45;&gt;Node19 -->
<g id="edge19" class="edge"><title>Node0&#45;&gt;Node19</title>
<path fill="none" stroke="blueviolet" stroke-dasharray="5,2" d="M169.348,-437.415C178.585,-430.353 191.988,-420.975 205,-415 219.145,-408.505 235.323,-403.387 250.078,-399.52"/>
<text text-anchor="middle" x="214.5" y="-418" font-family="Helvetica,sans-Serif" font-size="10.00">erpc</text>
</g>
<!-- Node6 -->
<g id="node17" class="node"><title>Node6</title>
<g id="a_node17"><a xlink:href="group__infra__server.html" target="_top" xlink:title="Server classes. ">
<polygon fill="white" stroke="black" points="275,-342.5 275,-361.5 319,-361.5 319,-342.5 275,-342.5"/>
<text text-anchor="middle" x="297" y="-349.5" font-family="Helvetica,sans-Serif" font-size="10.00">Server</text>
</a>
</g>
</g>
<!-- Node0&#45;&gt;Node6 -->
<g id="edge6" class="edge"><title>Node0&#45;&gt;Node6</title>
<path fill="none" stroke="blueviolet" stroke-dasharray="5,2" d="M164.451,-437.402C173.081,-425.922 188.669,-406.558 205,-393 219.72,-380.779 224.669,-379.104 242,-371 252.533,-366.075 264.718,-361.683 274.844,-358.366"/>
<text text-anchor="middle" x="214.5" y="-396" font-family="Helvetica,sans-Serif" font-size="10.00">erpc</text>
</g>
<!-- Node13 -->
<g id="node18" class="node"><title>Node13</title>
<g id="a_node18"><a xlink:href="group__lpi2c__slave__transport.html" target="_top" xlink:title="Lpi2c_slave_transport">
<polygon fill="white" stroke="black" points="242,-304.5 242,-323.5 352,-323.5 352,-304.5 242,-304.5"/>
<text text-anchor="middle" x="297" y="-311.5" font-family="Helvetica,sans-Serif" font-size="10.00">Lpi2c_slave_transport</text>
</a>
</g>
</g>
<!-- Node0&#45;&gt;Node13 -->
<g id="edge13" class="edge"><title>Node0&#45;&gt;Node13</title>
<path fill="none" stroke="blueviolet" stroke-dasharray="5,2" d="M161.651,-437.351C168.917,-421.125 185.08,-387.814 205,-364 218.765,-347.545 223.36,-343.62 242,-333 248.476,-329.31 255.793,-326.152 262.901,-323.53"/>
<text text-anchor="middle" x="214.5" y="-367" font-family="Helvetica,sans-Serif" font-size="10.00">erpc</text>
</g>
<!-- Node12 -->
<g id="node19" class="node"><title>Node12</title>
<g id="a_node19"><a xlink:href="group__itbp__transport.html" target="_top" xlink:title="Simple inter&#45;thread communications transport. ">
<polygon fill="white" stroke="black" points="264.5,-266.5 264.5,-285.5 329.5,-285.5 329.5,-266.5 264.5,-266.5"/>
<text text-anchor="middle" x="297" y="-273.5" font-family="Helvetica,sans-Serif" font-size="10.00">Inter&#45;thread</text>
</a>
</g>
</g>
<!-- Node0&#45;&gt;Node12 -->
<g id="edge12" class="edge"><title>Node0&#45;&gt;Node12</title>
<path fill="none" stroke="blueviolet" stroke-dasharray="5,2" d="M159.798,-437.431C165.164,-416.398 179.999,-365.142 205,-329 217.705,-310.633 222.853,-306.497 242,-295 248.902,-290.856 256.842,-287.432 264.473,-284.688"/>
<text text-anchor="middle" x="214.5" y="-332" font-family="Helvetica,sans-Serif" font-size="10.00">erpc</text>
</g>
<!-- Node9 -->
<g id="node20" class="node"><title>Node9</title>
<g id="a_node20"><a xlink:href="group__dspi__master__transport.html" target="_top" xlink:title="MCUXpressoSDK DSPI master driver transport. ">
<polygon fill="white" stroke="black" points="261,-228.5 261,-247.5 333,-247.5 333,-228.5 261,-228.5"/>
<text text-anchor="middle" x="297" y="-235.5" font-family="Helvetica,sans-Serif" font-size="10.00">DSPI Master</text>
</a>
</g>
</g>
<!-- Node0&#45;&gt;Node9 -->
<g id="edge9" class="edge"><title>Node0&#45;&gt;Node9</title>
<path fill="none" stroke="blueviolet" stroke-dasharray="5,2" d="M158.73,-437.21C162.303,-411.611 174.435,-341.268 205,-292 216.933,-272.765 222.678,-268.793 242,-257 248.108,-253.272 255.052,-250.138 261.878,-247.559"/>
<text text-anchor="middle" x="214.5" y="-295" font-family="Helvetica,sans-Serif" font-size="10.00">erpc</text>
</g>
<!-- Node25 -->
<g id="node21" class="node"><title>Node25</title>
<g id="a_node21"><a xlink:href="group___u_s_b___c_d_c__transport.html" target="_top" xlink:title="USB CDC transport. ">
<polygon fill="white" stroke="black" points="267,-190.5 267,-209.5 327,-209.5 327,-190.5 267,-190.5"/>
<text text-anchor="middle" x="297" y="-197.5" font-family="Helvetica,sans-Serif" font-size="10.00">USB CDC</text>
</a>
</g>
</g>
<!-- Node0&#45;&gt;Node25 -->
<g id="edge25" class="edge"><title>Node0&#45;&gt;Node25</title>
<path fill="none" stroke="blueviolet" stroke-dasharray="5,2" d="M157.965,-437.458C159.772,-408.09 168.192,-317.22 205,-254 216.389,-234.438 222.678,-230.793 242,-219 249.635,-214.34 258.576,-210.609 266.961,-207.728"/>
<text text-anchor="middle" x="214.5" y="-257" font-family="Helvetica,sans-Serif" font-size="10.00">erpc</text>
</g>
<!-- Node3 -->
<g id="node22" class="node"><title>Node3</title>
<g id="a_node22"><a xlink:href="group__infra__codec.html" target="_top" xlink:title="Classes used for message serialization. ">
<polygon fill="white" stroke="black" points="262,-152.5 262,-171.5 332,-171.5 332,-152.5 262,-152.5"/>
<text text-anchor="middle" x="297" y="-159.5" font-family="Helvetica,sans-Serif" font-size="10.00">Serialization</text>
</a>
</g>
</g>
<!-- Node0&#45;&gt;Node3 -->
<g id="edge3" class="edge"><title>Node0&#45;&gt;Node3</title>
<path fill="none" stroke="blueviolet" stroke-dasharray="5,2" d="M157.414,-437.439C157.521,-404.319 161.277,-292.295 205,-215 215.996,-195.561 222.853,-192.497 242,-181 248.22,-177.265 255.283,-174.116 262.204,-171.521"/>
<text text-anchor="middle" x="214.5" y="-218" font-family="Helvetica,sans-Serif" font-size="10.00">erpc</text>
</g>
<!-- Node17 -->
<g id="node23" class="node"><title>Node17</title>
<g id="a_node23"><a xlink:href="group__rpmsg__lite__rtos__transport.html" target="_top" xlink:title="RPMsg&#45;Lite zero copy transport using RTOS API. ">
<polygon fill="white" stroke="black" points="248.5,-114.5 248.5,-133.5 345.5,-133.5 345.5,-114.5 248.5,-114.5"/>
<text text-anchor="middle" x="297" y="-121.5" font-family="Helvetica,sans-Serif" font-size="10.00">RPMsg&#45;Lite RTOS</text>
</a>
</g>
</g>
<!-- Node0&#45;&gt;Node17 -->
<g id="edge17" class="edge"><title>Node0&#45;&gt;Node17</title>
<path fill="none" stroke="blueviolet" stroke-dasharray="5,2" d="M157.053,-437.44C155.77,-401.022 154.947,-268.429 205,-177 215.724,-157.41 222.853,-154.497 242,-143 248.22,-139.265 255.283,-136.116 262.204,-133.521"/>
<text text-anchor="middle" x="214.5" y="-180" font-family="Helvetica,sans-Serif" font-size="10.00">erpc</text>
</g>
<!-- Node18 -->
<g id="node24" class="node"><title>Node18</title>
<g id="a_node24"><a xlink:href="group__rpmsg__lite__transport.html" target="_top" xlink:title="RPMsg&#45;Lite zero copy transport. ">
<polygon fill="white" stroke="black" points="263,-76.5 263,-95.5 331,-95.5 331,-76.5 263,-76.5"/>
<text text-anchor="middle" x="297" y="-83.5" font-family="Helvetica,sans-Serif" font-size="10.00">RPMsg&#45;Lite</text>
</a>
</g>
</g>
<!-- Node0&#45;&gt;Node18 -->
<g id="edge18" class="edge"><title>Node0&#45;&gt;Node18</title>
<path fill="none" stroke="blueviolet" stroke-dasharray="5,2" d="M158.139,-437.218C161.299,-390.804 176.273,-192.815 205,-139 216.795,-116.904 242.027,-103.278 262.937,-95.3859"/>
<text text-anchor="middle" x="214.5" y="-142" font-family="Helvetica,sans-Serif" font-size="10.00">erpc</text>
</g>
<!-- Node7 -->
<g id="node25" class="node"><title>Node7</title>
<g id="a_node25"><a xlink:href="group__port__setup__extensions.html" target="_top" xlink:title="Extension setup functions. ">
<polygon fill="white" stroke="black" points="252.5,-38.5 252.5,-57.5 341.5,-57.5 341.5,-38.5 252.5,-38.5"/>
<text text-anchor="middle" x="297" y="-45.5" font-family="Helvetica,sans-Serif" font-size="10.00">Extension Setup</text>
</a>
</g>
</g>
<!-- Node0&#45;&gt;Node7 -->
<g id="edge7" class="edge"><title>Node0&#45;&gt;Node7</title>
<path fill="none" stroke="blueviolet" stroke-dasharray="5,2" d="M157.966,-437.398C160.484,-388.077 173.547,-163.161 205,-102 215.352,-81.8698 222.678,-78.7925 242,-67 248.108,-63.2722 255.052,-60.1384 261.878,-57.5592"/>
<text text-anchor="middle" x="214.5" y="-105" font-family="Helvetica,sans-Serif" font-size="10.00">erpc</text>
</g>
<!-- Node14 -->
<g id="node26" class="node"><title>Node14</title>
<g id="a_node26"><a xlink:href="group__lpspi__slave__transport.html" target="_top" xlink:title="Lpspi_slave_transport">
<polygon fill="white" stroke="black" points="242,-0.5 242,-19.5 352,-19.5 352,-0.5 242,-0.5"/>
<text text-anchor="middle" x="297" y="-7.5" font-family="Helvetica,sans-Serif" font-size="10.00">Lpspi_slave_transport</text>
</a>
</g>
</g>
<!-- Node0&#45;&gt;Node14 -->
<g id="edge14" class="edge"><title>Node0&#45;&gt;Node14</title>
<path fill="none" stroke="blueviolet" stroke-dasharray="5,2" d="M157.799,-437.369C159.566,-384.697 169.8,-131.388 205,-63 216.296,-41.0546 240.984,-27.5159 261.799,-19.6203"/>
<text text-anchor="middle" x="214.5" y="-66" font-family="Helvetica,sans-Serif" font-size="10.00">erpc</text>
</g>
</g>
</svg>
