<?xml version="1.0" encoding="UTF-8" standalone="no"?>
<!DOCTYPE svg PUBLIC "-//W3C//DTD SVG 1.1//EN"
 "http://www.w3.org/Graphics/SVG/1.1/DTD/svg11.dtd">
<!-- Generated by graphviz version 2.38.0 (20140413.2041)
 -->
<!-- Title: SPI Slave Pages: 1 -->
<svg width="358pt" height="902pt"
 viewBox="0.00 0.00 358.00 902.00" xmlns="http://www.w3.org/2000/svg" xmlns:xlink="http://www.w3.org/1999/xlink">
<g id="graph0" class="graph" transform="scale(1 1) rotate(0) translate(4 898)">
<title>SPI Slave</title>
<polygon fill="white" stroke="none" points="-4,4 -4,-898 354,-898 354,4 -4,4"/>
<!-- Node1 -->
<g id="node1" class="node"><title>Node1</title>
<g id="a_node1"><a xlink:href="group__transports.html" target="_top" xlink:title="Transport layer classes. ">
<polygon fill="white" stroke="black" points="0,-437.5 0,-456.5 89,-456.5 89,-437.5 0,-437.5"/>
<text text-anchor="middle" x="44.5" y="-444.5" font-family="Helvetica,sans-Serif" font-size="10.00">Transport Layers</text>
</a>
</g>
</g>
<!-- Node0 -->
<g id="node12" class="node"><title>Node0</title>
<polygon fill="#bfbfbf" stroke="black" points="126,-437.5 126,-456.5 185,-456.5 185,-437.5 126,-437.5"/>
<text text-anchor="middle" x="155.5" y="-444.5" font-family="Helvetica,sans-Serif" font-size="10.00">SPI Slave</text>
</g>
<!-- Node1&#45;&gt;Node0 -->
<g id="edge1" class="edge"><title>Node1&#45;&gt;Node0</title>
<path fill="none" stroke="black" d="M99.4298,-447C108.541,-447 117.673,-447 125.808,-447"/>
<polygon fill="black" stroke="black" points="99.2065,-443.5 89.2064,-447 99.2064,-450.5 99.2065,-443.5"/>
</g>
<!-- Node10 -->
<g id="node2" class="node"><title>Node10</title>
<g id="a_node2"><a xlink:href="group__dspi__slave__transport.html" target="_top" xlink:title="MCUXpressoSDK DSPI slave driver transport. ">
<polygon fill="white" stroke="black" points="262.5,-874.5 262.5,-893.5 327.5,-893.5 327.5,-874.5 262.5,-874.5"/>
<text text-anchor="middle" x="295" y="-881.5" font-family="Helvetica,sans-Serif" font-size="10.00">DSPI Slave</text>
</a>
</g>
</g>
<!-- Node11 -->
<g id="node3" class="node"><title>Node11</title>
<g id="a_node3"><a xlink:href="group__i2c__slave__transport.html" target="_top" xlink:title="MCUXpressoSDK I2C slave driver transport. ">
<polygon fill="white" stroke="black" points="266.5,-836.5 266.5,-855.5 323.5,-855.5 323.5,-836.5 266.5,-836.5"/>
<text text-anchor="middle" x="295" y="-843.5" font-family="Helvetica,sans-Serif" font-size="10.00">I2C Slave</text>
</a>
</g>
</g>
<!-- Node8 -->
<g id="node4" class="node"><title>Node8</title>
<g id="a_node4"><a xlink:href="group__port__threads.html" target="_top" xlink:title="Threading model. ">
<polygon fill="white" stroke="black" points="269.5,-798.5 269.5,-817.5 320.5,-817.5 320.5,-798.5 269.5,-798.5"/>
<text text-anchor="middle" x="295" y="-805.5" font-family="Helvetica,sans-Serif" font-size="10.00">Threads</text>
</a>
</g>
</g>
<!-- Node15 -->
<g id="node5" class="node"><title>Node15</title>
<g id="a_node5"><a xlink:href="group__mbox__transport.html" target="_top" xlink:title="Mbox_transport">
<polygon fill="white" stroke="black" points="253,-760.5 253,-779.5 337,-779.5 337,-760.5 253,-760.5"/>
<text text-anchor="middle" x="295" y="-767.5" font-family="Helvetica,sans-Serif" font-size="10.00">Mbox_transport</text>
</a>
</g>
</g>
<!-- Node16 -->
<g id="node6" class="node"><title>Node16</title>
<g id="a_node6"><a xlink:href="group__mu__transport.html" target="_top" xlink:title="Messaging Unit transport. ">
<polygon fill="white" stroke="black" points="253,-722.5 253,-741.5 337,-741.5 337,-722.5 253,-722.5"/>
<text text-anchor="middle" x="295" y="-729.5" font-family="Helvetica,sans-Serif" font-size="10.00">Messaging Unit</text>
</a>
</g>
</g>
<!-- Node23 -->
<g id="node7" class="node"><title>Node23</title>
<g id="a_node7"><a xlink:href="group__tcp__transport.html" target="_top" xlink:title="Simple TCP/IP transport. ">
<polygon fill="white" stroke="black" points="271.5,-684.5 271.5,-703.5 318.5,-703.5 318.5,-684.5 271.5,-684.5"/>
<text text-anchor="middle" x="295" y="-691.5" font-family="Helvetica,sans-Serif" font-size="10.00">TCP/IP</text>
</a>
</g>
</g>
<!-- Node2 -->
<g id="node8" class="node"><title>Node2</title>
<g id="a_node8"><a xlink:href="group__infra__client.html" target="_top" xlink:title="Client classes. ">
<polygon fill="white" stroke="black" points="274.5,-646.5 274.5,-665.5 315.5,-665.5 315.5,-646.5 274.5,-646.5"/>
<text text-anchor="middle" x="295" y="-653.5" font-family="Helvetica,sans-Serif" font-size="10.00">Client</text>
</a>
</g>
</g>
<!-- Node4 -->
<g id="node9" class="node"><title>Node4</title>
<g id="a_node9"><a xlink:href="group__infra__transport.html" target="_top" xlink:title="Superclasses for building transports. ">
<polygon fill="white" stroke="black" points="264,-608.5 264,-627.5 326,-627.5 326,-608.5 264,-608.5"/>
<text text-anchor="middle" x="295" y="-615.5" font-family="Helvetica,sans-Serif" font-size="10.00">Transports</text>
</a>
</g>
</g>
<!-- Node20 -->
<g id="node10" class="node"><title>Node20</title>
<g id="a_node10"><a xlink:href="group__serial__transport.html" target="_top" xlink:title="POSIX and Win32 serial port transport. ">
<polygon fill="white" stroke="black" points="264.5,-570.5 264.5,-589.5 325.5,-589.5 325.5,-570.5 264.5,-570.5"/>
<text text-anchor="middle" x="295" y="-577.5" font-family="Helvetica,sans-Serif" font-size="10.00">Serial port</text>
</a>
</g>
</g>
<!-- Node5 -->
<g id="node11" class="node"><title>Node5</title>
<g id="a_node11"><a xlink:href="group__infra__utility.html" target="_top" xlink:title="Utility code used by the infrastructure. ">
<polygon fill="white" stroke="black" points="270.5,-532.5 270.5,-551.5 319.5,-551.5 319.5,-532.5 270.5,-532.5"/>
<text text-anchor="middle" x="295" y="-539.5" font-family="Helvetica,sans-Serif" font-size="10.00">Utilities</text>
</a>
</g>
</g>
<!-- Node0&#45;&gt;Node10 -->
<g id="edge10" class="edge"><title>Node0&#45;&gt;Node10</title>
<path fill="none" stroke="blueviolet" stroke-dasharray="5,2" d="M156.79,-456.597C158.508,-509.083 168.472,-761.518 203,-830 213.191,-850.212 220.678,-853.207 240,-865 246.871,-869.194 254.801,-872.636 262.43,-875.382"/>
<text text-anchor="middle" x="212.5" y="-856" font-family="Helvetica,sans-Serif" font-size="10.00">erpc</text>
</g>
<!-- Node0&#45;&gt;Node11 -->
<g id="edge11" class="edge"><title>Node0&#45;&gt;Node11</title>
<path fill="none" stroke="blueviolet" stroke-dasharray="5,2" d="M156.954,-456.565C159.409,-505.699 172.154,-729.78 203,-791 213.324,-811.49 220.5,-814.91 240,-827 248.024,-831.975 257.529,-835.874 266.311,-838.811"/>
<text text-anchor="middle" x="212.5" y="-818" font-family="Helvetica,sans-Serif" font-size="10.00">erpc</text>
</g>
<!-- Node0&#45;&gt;Node8 -->
<g id="edge8" class="edge"><title>Node0&#45;&gt;Node8</title>
<path fill="none" stroke="blueviolet" stroke-dasharray="5,2" d="M157.143,-456.701C160.318,-502.732 175.294,-699.12 203,-753 213.492,-773.404 220.5,-776.91 240,-789 248.953,-794.551 259.75,-798.763 269.329,-801.793"/>
<text text-anchor="middle" x="212.5" y="-779" font-family="Helvetica,sans-Serif" font-size="10.00">erpc</text>
</g>
<!-- Node0&#45;&gt;Node15 -->
<g id="edge15" class="edge"><title>Node0&#45;&gt;Node15</title>
<path fill="none" stroke="blueviolet" stroke-dasharray="5,2" d="M156.094,-456.943C155.02,-493.626 154.965,-623.948 203,-715 213.706,-735.293 220.5,-738.91 240,-751 245.997,-754.718 252.821,-757.836 259.553,-760.399"/>
<text text-anchor="middle" x="212.5" y="-741" font-family="Helvetica,sans-Serif" font-size="10.00">erpc</text>
</g>
<!-- Node0&#45;&gt;Node16 -->
<g id="edge16" class="edge"><title>Node0&#45;&gt;Node16</title>
<path fill="none" stroke="blueviolet" stroke-dasharray="5,2" d="M156.469,-456.892C156.769,-490.142 161.063,-600.105 203,-677 213.986,-697.143 220.5,-700.91 240,-713 245.997,-716.718 252.821,-719.836 259.553,-722.399"/>
<text text-anchor="middle" x="212.5" y="-703" font-family="Helvetica,sans-Serif" font-size="10.00">erpc</text>
</g>
<!-- Node0&#45;&gt;Node23 -->
<g id="edge23" class="edge"><title>Node0&#45;&gt;Node23</title>
<path fill="none" stroke="blueviolet" stroke-dasharray="5,2" d="M156.982,-456.885C158.806,-486.468 167.146,-576.14 203,-639 214.368,-658.93 220.5,-662.91 240,-675 249.629,-680.97 261.391,-685.391 271.476,-688.458"/>
<text text-anchor="middle" x="212.5" y="-665" font-family="Helvetica,sans-Serif" font-size="10.00">erpc</text>
</g>
<!-- Node0&#45;&gt;Node2 -->
<g id="edge2" class="edge"><title>Node0&#45;&gt;Node2</title>
<path fill="none" stroke="blueviolet" stroke-dasharray="5,2" d="M157.762,-456.617C161.4,-481.771 173.586,-550.954 203,-600 214.961,-619.944 220.319,-624.61 240,-637 250.513,-643.618 263.634,-648.304 274.31,-651.365"/>
<text text-anchor="middle" x="212.5" y="-627" font-family="Helvetica,sans-Serif" font-size="10.00">erpc</text>
</g>
<!-- Node0&#45;&gt;Node4 -->
<g id="edge4" class="edge"><title>Node0&#45;&gt;Node4</title>
<path fill="none" stroke="blueviolet" stroke-dasharray="5,2" d="M158.954,-456.559C164.517,-477.096 179.46,-526.446 203,-562 215.839,-581.391 220.319,-586.61 240,-599 247.233,-603.554 255.7,-607.192 263.757,-610.016"/>
<text text-anchor="middle" x="212.5" y="-588" font-family="Helvetica,sans-Serif" font-size="10.00">erpc</text>
</g>
<!-- Node0&#45;&gt;Node20 -->
<g id="edge20" class="edge"><title>Node0&#45;&gt;Node20</title>
<path fill="none" stroke="blueviolet" stroke-dasharray="5,2" d="M160.48,-456.553C170.319,-478.883 198.062,-534.598 240,-561 247.401,-565.659 256.095,-569.361 264.318,-572.212"/>
<text text-anchor="middle" x="212.5" y="-550" font-family="Helvetica,sans-Serif" font-size="10.00">erpc</text>
</g>
<!-- Node0&#45;&gt;Node5 -->
<g id="edge5" class="edge"><title>Node0&#45;&gt;Node5</title>
<path fill="none" stroke="blueviolet" stroke-dasharray="5,2" d="M164.487,-456.633C178.277,-472.666 208.15,-504.855 240,-523 249.412,-528.362 260.599,-532.603 270.343,-535.705"/>
<text text-anchor="middle" x="212.5" y="-512" font-family="Helvetica,sans-Serif" font-size="10.00">erpc</text>
</g>
<!-- Node24 -->
<g id="node13" class="node"><title>Node24</title>
<g id="a_node13"><a xlink:href="group__uart__transport.html" target="_top" xlink:title="CMSIS UART driver transport. ">
<polygon fill="white" stroke="black" points="257,-494.5 257,-513.5 333,-513.5 333,-494.5 257,-494.5"/>
<text text-anchor="middle" x="295" y="-501.5" font-family="Helvetica,sans-Serif" font-size="10.00">CMSIS UART</text>
</a>
</g>
</g>
<!-- Node0&#45;&gt;Node24 -->
<g id="edge24" class="edge"><title>Node0&#45;&gt;Node24</title>
<path fill="none" stroke="blueviolet" stroke-dasharray="5,2" d="M175.353,-456.721C183.748,-460.947 193.799,-465.866 203,-470 223.461,-479.192 247.224,-488.01 265.335,-494.362"/>
<text text-anchor="middle" x="212.5" y="-480" font-family="Helvetica,sans-Serif" font-size="10.00">erpc</text>
</g>
<!-- Node22 -->
<g id="node14" class="node"><title>Node22</title>
<g id="a_node14"><a xlink:href="group__spidev__master__transport.html" target="_top" xlink:title="SPIdev Linux transport. ">
<polygon fill="white" stroke="black" points="242,-456.5 242,-475.5 348,-475.5 348,-456.5 242,-456.5"/>
<text text-anchor="middle" x="295" y="-463.5" font-family="Helvetica,sans-Serif" font-size="10.00">SPIdev Linux Master</text>
</a>
</g>
</g>
<!-- Node0&#45;&gt;Node22 -->
<g id="edge22" class="edge"><title>Node0&#45;&gt;Node22</title>
<path fill="none" stroke="blueviolet" stroke-dasharray="5,2" d="M185.325,-450.983C201.704,-453.246 222.711,-456.149 241.882,-458.798"/>
<text text-anchor="middle" x="212.5" y="-458" font-family="Helvetica,sans-Serif" font-size="10.00">erpc</text>
</g>
<!-- Node21 -->
<g id="node15" class="node"><title>Node21</title>
<g id="a_node15"><a xlink:href="group__spi__master__transport.html" target="_top" xlink:title="MCUXpressoSDK SPI master driver transport. ">
<polygon fill="white" stroke="black" points="262.5,-418.5 262.5,-437.5 327.5,-437.5 327.5,-418.5 262.5,-418.5"/>
<text text-anchor="middle" x="295" y="-425.5" font-family="Helvetica,sans-Serif" font-size="10.00">SPI Master</text>
</a>
</g>
</g>
<!-- Node0&#45;&gt;Node21 -->
<g id="edge21" class="edge"><title>Node0&#45;&gt;Node21</title>
<path fill="none" stroke="blueviolet" stroke-dasharray="5,2" d="M184.272,-437.468C190.377,-435.703 196.855,-434.078 203,-433 222.481,-429.582 244.633,-428.31 262.204,-427.903"/>
<text text-anchor="middle" x="212.5" y="-436" font-family="Helvetica,sans-Serif" font-size="10.00">erpc</text>
</g>
<!-- Node19 -->
<g id="node16" class="node"><title>Node19</title>
<g id="a_node16"><a xlink:href="group__rpmsg__tty__rtos__transport.html" target="_top" xlink:title="RPMsg TTY RTOS transport. ">
<polygon fill="white" stroke="black" points="246,-380.5 246,-399.5 344,-399.5 344,-380.5 246,-380.5"/>
<text text-anchor="middle" x="295" y="-387.5" font-family="Helvetica,sans-Serif" font-size="10.00">RPMsg TTY RTOS</text>
</a>
</g>
</g>
<!-- Node0&#45;&gt;Node19 -->
<g id="edge19" class="edge"><title>Node0&#45;&gt;Node19</title>
<path fill="none" stroke="blueviolet" stroke-dasharray="5,2" d="M168.066,-437.402C177.092,-430.333 190.205,-420.952 203,-415 216.964,-408.504 232.942,-403.408 247.573,-399.559"/>
<text text-anchor="middle" x="212.5" y="-418" font-family="Helvetica,sans-Serif" font-size="10.00">erpc</text>
</g>
<!-- Node6 -->
<g id="node17" class="node"><title>Node6</title>
<g id="a_node17"><a xlink:href="group__infra__server.html" target="_top" xlink:title="Server classes. ">
<polygon fill="white" stroke="black" points="273,-342.5 273,-361.5 317,-361.5 317,-342.5 273,-342.5"/>
<text text-anchor="middle" x="295" y="-349.5" font-family="Helvetica,sans-Serif" font-size="10.00">Server</text>
</a>
</g>
</g>
<!-- Node0&#45;&gt;Node6 -->
<g id="edge6" class="edge"><title>Node0&#45;&gt;Node6</title>
<path fill="none" stroke="blueviolet" stroke-dasharray="5,2" d="M163.263,-437.389C171.67,-425.896 186.889,-406.52 203,-393 217.655,-380.702 222.669,-379.104 240,-371 250.533,-366.075 262.718,-361.683 272.844,-358.366"/>
<text text-anchor="middle" x="212.5" y="-396" font-family="Helvetica,sans-Serif" font-size="10.00">erpc</text>
</g>
<!-- Node13 -->
<g id="node18" class="node"><title>Node13</title>
<g id="a_node18"><a xlink:href="group__lpi2c__slave__transport.html" target="_top" xlink:title="Lpi2c_slave_transport">
<polygon fill="white" stroke="black" points="240,-304.5 240,-323.5 350,-323.5 350,-304.5 240,-304.5"/>
<text text-anchor="middle" x="295" y="-311.5" font-family="Helvetica,sans-Serif" font-size="10.00">Lpi2c_slave_transport</text>
</a>
</g>
</g>
<!-- Node0&#45;&gt;Node13 -->
<g id="edge13" class="edge"><title>Node0&#45;&gt;Node13</title>
<path fill="none" stroke="blueviolet" stroke-dasharray="5,2" d="M160.518,-437.344C167.564,-421.107 183.291,-387.781 203,-364 216.69,-347.482 221.36,-343.62 240,-333 246.476,-329.31 253.793,-326.152 260.901,-323.53"/>
<text text-anchor="middle" x="212.5" y="-367" font-family="Helvetica,sans-Serif" font-size="10.00">erpc</text>
</g>
<!-- Node12 -->
<g id="node19" class="node"><title>Node12</title>
<g id="a_node19"><a xlink:href="group__itbp__transport.html" target="_top" xlink:title="Simple inter&#45;thread communications transport. ">
<polygon fill="white" stroke="black" points="262.5,-266.5 262.5,-285.5 327.5,-285.5 327.5,-266.5 262.5,-266.5"/>
<text text-anchor="middle" x="295" y="-273.5" font-family="Helvetica,sans-Serif" font-size="10.00">Inter&#45;thread</text>
</a>
</g>
</g>
<!-- Node0&#45;&gt;Node12 -->
<g id="edge12" class="edge"><title>Node0&#45;&gt;Node12</title>
<path fill="none" stroke="blueviolet" stroke-dasharray="5,2" d="M158.701,-437.428C163.86,-416.391 178.204,-365.128 203,-329 215.638,-310.587 220.853,-306.497 240,-295 246.902,-290.856 254.842,-287.432 262.473,-284.688"/>
<text text-anchor="middle" x="212.5" y="-332" font-family="Helvetica,sans-Serif" font-size="10.00">erpc</text>
</g>
<!-- Node9 -->
<g id="node20" class="node"><title>Node9</title>
<g id="a_node20"><a xlink:href="group__dspi__master__transport.html" target="_top" xlink:title="MCUXpressoSDK DSPI master driver transport. ">
<polygon fill="white" stroke="black" points="259,-228.5 259,-247.5 331,-247.5 331,-228.5 259,-228.5"/>
<text text-anchor="middle" x="295" y="-235.5" font-family="Helvetica,sans-Serif" font-size="10.00">DSPI Master</text>
</a>
</g>
</g>
<!-- Node0&#45;&gt;Node9 -->
<g id="edge9" class="edge"><title>Node0&#45;&gt;Node9</title>
<path fill="none" stroke="blueviolet" stroke-dasharray="5,2" d="M157.654,-437.21C161.029,-411.612 172.636,-341.27 203,-292 214.876,-272.73 220.678,-268.793 240,-257 246.108,-253.272 253.052,-250.138 259.878,-247.559"/>
<text text-anchor="middle" x="212.5" y="-295" font-family="Helvetica,sans-Serif" font-size="10.00">erpc</text>
</g>
<!-- Node25 -->
<g id="node21" class="node"><title>Node25</title>
<g id="a_node21"><a xlink:href="group___u_s_b___c_d_c__transport.html" target="_top" xlink:title="USB CDC transport. ">
<polygon fill="white" stroke="black" points="265,-190.5 265,-209.5 325,-209.5 325,-190.5 265,-190.5"/>
<text text-anchor="middle" x="295" y="-197.5" font-family="Helvetica,sans-Serif" font-size="10.00">USB CDC</text>
</a>
</g>
</g>
<!-- Node0&#45;&gt;Node25 -->
<g id="edge25" class="edge"><title>Node0&#45;&gt;Node25</title>
<path fill="none" stroke="blueviolet" stroke-dasharray="5,2" d="M156.904,-437.46C158.526,-408.094 166.39,-317.234 203,-254 214.342,-234.41 220.678,-230.793 240,-219 247.635,-214.34 256.576,-210.609 264.961,-207.728"/>
<text text-anchor="middle" x="212.5" y="-257" font-family="Helvetica,sans-Serif" font-size="10.00">erpc</text>
</g>
<!-- Node3 -->
<g id="node22" class="node"><title>Node3</title>
<g id="a_node22"><a xlink:href="group__infra__codec.html" target="_top" xlink:title="Classes used for message serialization. ">
<polygon fill="white" stroke="black" points="260,-152.5 260,-171.5 330,-171.5 330,-152.5 260,-152.5"/>
<text text-anchor="middle" x="295" y="-159.5" font-family="Helvetica,sans-Serif" font-size="10.00">Serialization</text>
</a>
</g>
</g>
<!-- Node0&#45;&gt;Node3 -->
<g id="edge3" class="edge"><title>Node0&#45;&gt;Node3</title>
<path fill="none" stroke="blueviolet" stroke-dasharray="5,2" d="M156.363,-437.441C156.294,-404.327 159.474,-292.321 203,-215 213.955,-195.539 220.853,-192.497 240,-181 246.22,-177.265 253.283,-174.116 260.204,-171.521"/>
<text text-anchor="middle" x="212.5" y="-218" font-family="Helvetica,sans-Serif" font-size="10.00">erpc</text>
</g>
<!-- Node17 -->
<g id="node23" class="node"><title>Node17</title>
<g id="a_node23"><a xlink:href="group__rpmsg__lite__rtos__transport.html" target="_top" xlink:title="RPMsg&#45;Lite zero copy transport using RTOS API. ">
<polygon fill="white" stroke="black" points="246.5,-114.5 246.5,-133.5 343.5,-133.5 343.5,-114.5 246.5,-114.5"/>
<text text-anchor="middle" x="295" y="-121.5" font-family="Helvetica,sans-Serif" font-size="10.00">RPMsg&#45;Lite RTOS</text>
</a>
</g>
</g>
<!-- Node0&#45;&gt;Node17 -->
<g id="edge17" class="edge"><title>Node0&#45;&gt;Node17</title>
<path fill="none" stroke="blueviolet" stroke-dasharray="5,2" d="M156.009,-437.442C154.558,-401.031 153.143,-268.461 203,-177 213.689,-157.391 220.853,-154.497 240,-143 246.22,-139.265 253.283,-136.116 260.204,-133.521"/>
<text text-anchor="middle" x="212.5" y="-180" font-family="Helvetica,sans-Serif" font-size="10.00">erpc</text>
</g>
<!-- Node18 -->
<g id="node24" class="node"><title>Node18</title>
<g id="a_node24"><a xlink:href="group__rpmsg__lite__transport.html" target="_top" xlink:title="RPMsg&#45;Lite zero copy transport. ">
<polygon fill="white" stroke="black" points="261,-76.5 261,-95.5 329,-95.5 329,-76.5 261,-76.5"/>
<text text-anchor="middle" x="295" y="-83.5" font-family="Helvetica,sans-Serif" font-size="10.00">RPMsg&#45;Lite</text>
</a>
</g>
</g>
<!-- Node0&#45;&gt;Node18 -->
<g id="edge18" class="edge"><title>Node0&#45;&gt;Node18</title>
<path fill="none" stroke="blueviolet" stroke-dasharray="5,2" d="M157.104,-437.219C160.099,-390.809 174.373,-192.835 203,-139 214.76,-116.885 239.995,-103.261 260.914,-95.3738"/>
<text text-anchor="middle" x="212.5" y="-142" font-family="Helvetica,sans-Serif" font-size="10.00">erpc</text>
</g>
<!-- Node7 -->
<g id="node25" class="node"><title>Node7</title>
<g id="a_node25"><a xlink:href="group__port__setup__extensions.html" target="_top" xlink:title="Extension setup functions. ">
<polygon fill="white" stroke="black" points="250.5,-38.5 250.5,-57.5 339.5,-57.5 339.5,-38.5 250.5,-38.5"/>
<text text-anchor="middle" x="295" y="-45.5" font-family="Helvetica,sans-Serif" font-size="10.00">Extension Setup</text>
</a>
</g>
</g>
<!-- Node0&#45;&gt;Node7 -->
<g id="edge7" class="edge"><title>Node0&#45;&gt;Node7</title>
<path fill="none" stroke="blueviolet" stroke-dasharray="5,2" d="M156.935,-437.399C159.296,-388.082 171.646,-163.182 203,-102 213.324,-81.8551 220.678,-78.7925 240,-67 246.108,-63.2722 253.052,-60.1384 259.878,-57.5592"/>
<text text-anchor="middle" x="212.5" y="-105" font-family="Helvetica,sans-Serif" font-size="10.00">erpc</text>
</g>
<!-- Node14 -->
<g id="node26" class="node"><title>Node14</title>
<g id="a_node26"><a xlink:href="group__lpspi__slave__transport.html" target="_top" xlink:title="Lpspi_slave_transport">
<polygon fill="white" stroke="black" points="240,-0.5 240,-19.5 350,-19.5 350,-0.5 240,-0.5"/>
<text text-anchor="middle" x="295" y="-7.5" font-family="Helvetica,sans-Serif" font-size="10.00">Lpspi_slave_transport</text>
</a>
</g>
</g>
<!-- Node0&#45;&gt;Node14 -->
<g id="edge14" class="edge"><title>Node0&#45;&gt;Node14</title>
<path fill="none" stroke="blueviolet" stroke-dasharray="5,2" d="M156.771,-437.37C158.387,-384.702 167.899,-131.411 203,-63 214.267,-41.0401 238.958,-27.5022 259.78,-19.6106"/>
<text text-anchor="middle" x="212.5" y="-66" font-family="Helvetica,sans-Serif" font-size="10.00">erpc</text>
</g>
</g>
</svg>
