<?xml version="1.0" encoding="UTF-8" standalone="no"?>
<!DOCTYPE svg PUBLIC "-//W3C//DTD SVG 1.1//EN"
 "http://www.w3.org/Graphics/SVG/1.1/DTD/svg11.dtd">
<!-- Generated by graphviz version 2.38.0 (20140413.2041)
 -->
<!-- Title: Serial port Pages: 1 -->
<svg width="379pt" height="636pt"
 viewBox="0.00 0.00 379.00 636.00" xmlns="http://www.w3.org/2000/svg" xmlns:xlink="http://www.w3.org/1999/xlink">
<g id="graph0" class="graph" transform="scale(1 1) rotate(0) translate(4 632)">
<title>Serial port</title>
<polygon fill="white" stroke="none" points="-4,4 -4,-632 375,-632 375,4 -4,4"/>
<!-- Node1 -->
<g id="node1" class="node"><title>Node1</title>
<g id="a_node1"><a xlink:href="group__transports.html" target="_top" xlink:title="Transport layer classes. ">
<polygon fill="white" stroke="black" points="0,-304.5 0,-323.5 89,-323.5 89,-304.5 0,-304.5"/>
<text text-anchor="middle" x="44.5" y="-311.5" font-family="Helvetica,sans-Serif" font-size="10.00">Transport Layers</text>
</a>
</g>
</g>
<!-- Node0 -->
<g id="node8" class="node"><title>Node0</title>
<polygon fill="#bfbfbf" stroke="black" points="126,-304.5 126,-323.5 187,-323.5 187,-304.5 126,-304.5"/>
<text text-anchor="middle" x="156.5" y="-311.5" font-family="Helvetica,sans-Serif" font-size="10.00">Serial port</text>
</g>
<!-- Node1&#45;&gt;Node0 -->
<g id="edge1" class="edge"><title>Node1&#45;&gt;Node0</title>
<path fill="none" stroke="black" d="M99.4378,-314C108.486,-314 117.572,-314 125.717,-314"/>
<polygon fill="black" stroke="black" points="99.291,-310.5 89.291,-314 99.2909,-317.5 99.291,-310.5"/>
</g>
<!-- Node9 -->
<g id="node2" class="node"><title>Node9</title>
<g id="a_node2"><a xlink:href="group__dspi__slave__transport.html" target="_top" xlink:title="Kinetis SDK DSPI slave driver transport. ">
<polygon fill="white" stroke="black" points="274,-608.5 274,-627.5 339,-627.5 339,-608.5 274,-608.5"/>
<text text-anchor="middle" x="306.5" y="-615.5" font-family="Helvetica,sans-Serif" font-size="10.00">DSPI Slave</text>
</a>
</g>
</g>
<!-- Node7 -->
<g id="node3" class="node"><title>Node7</title>
<g id="a_node3"><a xlink:href="group__port__threads.html" target="_top" xlink:title="Threading model. ">
<polygon fill="white" stroke="black" points="281,-570.5 281,-589.5 332,-589.5 332,-570.5 281,-570.5"/>
<text text-anchor="middle" x="306.5" y="-577.5" font-family="Helvetica,sans-Serif" font-size="10.00">Threads</text>
</a>
</g>
</g>
<!-- Node11 -->
<g id="node4" class="node"><title>Node11</title>
<g id="a_node4"><a xlink:href="group__mu__transport.html" target="_top" xlink:title="Messaging Unit transport. ">
<polygon fill="white" stroke="black" points="264.5,-532.5 264.5,-551.5 348.5,-551.5 348.5,-532.5 264.5,-532.5"/>
<text text-anchor="middle" x="306.5" y="-539.5" font-family="Helvetica,sans-Serif" font-size="10.00">Messaging Unit</text>
</a>
</g>
</g>
<!-- Node17 -->
<g id="node5" class="node"><title>Node17</title>
<g id="a_node5"><a xlink:href="group__tcp__transport.html" target="_top" xlink:title="Simple TCP/IP transport. ">
<polygon fill="white" stroke="black" points="283,-494.5 283,-513.5 330,-513.5 330,-494.5 283,-494.5"/>
<text text-anchor="middle" x="306.5" y="-501.5" font-family="Helvetica,sans-Serif" font-size="10.00">TCP/IP</text>
</a>
</g>
</g>
<!-- Node2 -->
<g id="node6" class="node"><title>Node2</title>
<g id="a_node6"><a xlink:href="group__infra__client.html" target="_top" xlink:title="Client classes. ">
<polygon fill="white" stroke="black" points="286,-456.5 286,-475.5 327,-475.5 327,-456.5 286,-456.5"/>
<text text-anchor="middle" x="306.5" y="-463.5" font-family="Helvetica,sans-Serif" font-size="10.00">Client</text>
</a>
</g>
</g>
<!-- Node4 -->
<g id="node7" class="node"><title>Node4</title>
<g id="a_node7"><a xlink:href="group__infra__transport.html" target="_top" xlink:title="Superclasses for building transports. ">
<polygon fill="white" stroke="black" points="275.5,-418.5 275.5,-437.5 337.5,-437.5 337.5,-418.5 275.5,-418.5"/>
<text text-anchor="middle" x="306.5" y="-425.5" font-family="Helvetica,sans-Serif" font-size="10.00">Transports</text>
</a>
</g>
</g>
<!-- Node0&#45;&gt;Node9 -->
<g id="edge9" class="edge"><title>Node0&#45;&gt;Node9</title>
<path fill="none" stroke="blueviolet" stroke-dasharray="5,2" d="M157.268,-323.782C156.854,-358.742 158.999,-479.888 205,-564 215.862,-583.86 222.403,-587.671 242,-599 251.763,-604.644 263.357,-608.751 273.949,-611.671"/>
<text text-anchor="middle" x="214.5" y="-590" font-family="Helvetica,sans-Serif" font-size="10.00">erpc</text>
</g>
<!-- Node0&#45;&gt;Node7 -->
<g id="edge7" class="edge"><title>Node0&#45;&gt;Node7</title>
<path fill="none" stroke="blueviolet" stroke-dasharray="5,2" d="M157.747,-323.513C158.93,-354.547 165.755,-454.882 205,-525 216.206,-545.021 222.218,-549.377 242,-561 253.906,-567.995 268.602,-572.607 280.858,-575.533"/>
<text text-anchor="middle" x="214.5" y="-552" font-family="Helvetica,sans-Serif" font-size="10.00">erpc</text>
</g>
<!-- Node0&#45;&gt;Node11 -->
<g id="edge11" class="edge"><title>Node0&#45;&gt;Node11</title>
<path fill="none" stroke="blueviolet" stroke-dasharray="5,2" d="M158.42,-323.606C161.375,-350.816 172.413,-430.053 205,-486 216.705,-506.096 222.03,-511.082 242,-523 248.818,-527.069 256.574,-530.325 264.267,-532.91"/>
<text text-anchor="middle" x="214.5" y="-513" font-family="Helvetica,sans-Serif" font-size="10.00">erpc</text>
</g>
<!-- Node0&#45;&gt;Node17 -->
<g id="edge17" class="edge"><title>Node0&#45;&gt;Node17</title>
<path fill="none" stroke="blueviolet" stroke-dasharray="5,2" d="M159.504,-323.551C164.537,-346.144 179.191,-404.116 205,-446 217.534,-466.341 221.646,-472.487 242,-485 254.45,-492.654 270.175,-497.39 282.862,-500.219"/>
<text text-anchor="middle" x="214.5" y="-474" font-family="Helvetica,sans-Serif" font-size="10.00">erpc</text>
</g>
<!-- Node0&#45;&gt;Node2 -->
<g id="edge2" class="edge"><title>Node0&#45;&gt;Node2</title>
<path fill="none" stroke="blueviolet" stroke-dasharray="5,2" d="M160.258,-323.563C168.137,-348.932 193.374,-417.98 242,-447 255.537,-455.079 272.771,-459.953 285.869,-462.738"/>
<text text-anchor="middle" x="214.5" y="-434" font-family="Helvetica,sans-Serif" font-size="10.00">erpc</text>
</g>
<!-- Node0&#45;&gt;Node4 -->
<g id="edge4" class="edge"><title>Node0&#45;&gt;Node4</title>
<path fill="none" stroke="blueviolet" stroke-dasharray="5,2" d="M163.051,-323.686C174.838,-343.29 204.389,-387.618 242,-409 252.204,-414.801 264.357,-418.996 275.287,-421.943"/>
<text text-anchor="middle" x="214.5" y="-398" font-family="Helvetica,sans-Serif" font-size="10.00">erpc</text>
</g>
<!-- Node5 -->
<g id="node9" class="node"><title>Node5</title>
<g id="a_node9"><a xlink:href="group__infra__utility.html" target="_top" xlink:title="Utility code used by the infrastructure. ">
<polygon fill="white" stroke="black" points="282,-380.5 282,-399.5 331,-399.5 331,-380.5 282,-380.5"/>
<text text-anchor="middle" x="306.5" y="-387.5" font-family="Helvetica,sans-Serif" font-size="10.00">Utilities</text>
</a>
</g>
</g>
<!-- Node0&#45;&gt;Node5 -->
<g id="edge5" class="edge"><title>Node0&#45;&gt;Node5</title>
<path fill="none" stroke="blueviolet" stroke-dasharray="5,2" d="M169.046,-323.686C184.647,-336.311 213.768,-358.275 242,-371 254.694,-376.721 269.574,-381.279 281.738,-384.495"/>
<text text-anchor="middle" x="214.5" y="-363" font-family="Helvetica,sans-Serif" font-size="10.00">erpc</text>
</g>
<!-- Node16 -->
<g id="node10" class="node"><title>Node16</title>
<g id="a_node10"><a xlink:href="group__spi__slave__transport.html" target="_top" xlink:title="Kinetis SDK SPI slave driver transport. ">
<polygon fill="white" stroke="black" points="277,-342.5 277,-361.5 336,-361.5 336,-342.5 277,-342.5"/>
<text text-anchor="middle" x="306.5" y="-349.5" font-family="Helvetica,sans-Serif" font-size="10.00">SPI Slave</text>
</a>
</g>
</g>
<!-- Node0&#45;&gt;Node16 -->
<g id="edge16" class="edge"><title>Node0&#45;&gt;Node16</title>
<path fill="none" stroke="blueviolet" stroke-dasharray="5,2" d="M186.53,-323.576C192.606,-325.466 198.992,-327.367 205,-329 229.008,-335.527 256.574,-341.746 276.756,-346.069"/>
<text text-anchor="middle" x="214.5" y="-336" font-family="Helvetica,sans-Serif" font-size="10.00">erpc</text>
</g>
<!-- Node18 -->
<g id="node11" class="node"><title>Node18</title>
<g id="a_node11"><a xlink:href="group__uart__transport.html" target="_top" xlink:title="CMSIS UART driver transport. ">
<polygon fill="white" stroke="black" points="268.5,-304.5 268.5,-323.5 344.5,-323.5 344.5,-304.5 268.5,-304.5"/>
<text text-anchor="middle" x="306.5" y="-311.5" font-family="Helvetica,sans-Serif" font-size="10.00">CMSIS UART</text>
</a>
</g>
</g>
<!-- Node0&#45;&gt;Node18 -->
<g id="edge18" class="edge"><title>Node0&#45;&gt;Node18</title>
<path fill="none" stroke="blueviolet" stroke-dasharray="5,2" d="M187.094,-314C210.461,-314 243.201,-314 268.333,-314"/>
<text text-anchor="middle" x="214.5" y="-317" font-family="Helvetica,sans-Serif" font-size="10.00">erpc</text>
</g>
<!-- Node15 -->
<g id="node12" class="node"><title>Node15</title>
<g id="a_node12"><a xlink:href="group__spi__master__transport.html" target="_top" xlink:title="Kinetis SDK SPI master driver transport. ">
<polygon fill="white" stroke="black" points="274,-266.5 274,-285.5 339,-285.5 339,-266.5 274,-266.5"/>
<text text-anchor="middle" x="306.5" y="-273.5" font-family="Helvetica,sans-Serif" font-size="10.00">SPI Master</text>
</a>
</g>
</g>
<!-- Node0&#45;&gt;Node15 -->
<g id="edge15" class="edge"><title>Node0&#45;&gt;Node15</title>
<path fill="none" stroke="blueviolet" stroke-dasharray="5,2" d="M186.53,-304.424C192.606,-302.534 198.992,-300.633 205,-299 227.799,-292.802 253.807,-286.881 273.652,-282.599"/>
<text text-anchor="middle" x="214.5" y="-302" font-family="Helvetica,sans-Serif" font-size="10.00">erpc</text>
</g>
<!-- Node6 -->
<g id="node13" class="node"><title>Node6</title>
<g id="a_node13"><a xlink:href="group__infra__server.html" target="_top" xlink:title="Server classes. ">
<polygon fill="white" stroke="black" points="284.5,-228.5 284.5,-247.5 328.5,-247.5 328.5,-228.5 284.5,-228.5"/>
<text text-anchor="middle" x="306.5" y="-235.5" font-family="Helvetica,sans-Serif" font-size="10.00">Server</text>
</a>
</g>
</g>
<!-- Node0&#45;&gt;Node6 -->
<g id="edge6" class="edge"><title>Node0&#45;&gt;Node6</title>
<path fill="none" stroke="blueviolet" stroke-dasharray="5,2" d="M169.762,-304.446C179.215,-297.209 192.708,-287.154 205,-279 220.943,-268.424 224.481,-264.689 242,-257 255.698,-250.988 271.859,-246.182 284.449,-242.908"/>
<text text-anchor="middle" x="214.5" y="-282" font-family="Helvetica,sans-Serif" font-size="10.00">erpc</text>
</g>
<!-- Node10 -->
<g id="node14" class="node"><title>Node10</title>
<g id="a_node14"><a xlink:href="group__itbp__transport.html" target="_top" xlink:title="Simple inter&#45;thread communications transport. ">
<polygon fill="white" stroke="black" points="274,-190.5 274,-209.5 339,-209.5 339,-190.5 274,-190.5"/>
<text text-anchor="middle" x="306.5" y="-197.5" font-family="Helvetica,sans-Serif" font-size="10.00">Inter&#45;thread</text>
</a>
</g>
</g>
<!-- Node0&#45;&gt;Node10 -->
<g id="edge10" class="edge"><title>Node0&#45;&gt;Node10</title>
<path fill="none" stroke="blueviolet" stroke-dasharray="5,2" d="M162.999,-304.221C174.689,-284.444 204.072,-239.814 242,-219 251.785,-213.63 263.272,-209.602 273.766,-206.669"/>
<text text-anchor="middle" x="214.5" y="-249" font-family="Helvetica,sans-Serif" font-size="10.00">erpc</text>
</g>
<!-- Node8 -->
<g id="node15" class="node"><title>Node8</title>
<g id="a_node15"><a xlink:href="group__dspi__master__transport.html" target="_top" xlink:title="Kinetis SDK DSPI master driver transport. ">
<polygon fill="white" stroke="black" points="270.5,-152.5 270.5,-171.5 342.5,-171.5 342.5,-152.5 270.5,-152.5"/>
<text text-anchor="middle" x="306.5" y="-159.5" font-family="Helvetica,sans-Serif" font-size="10.00">DSPI Master</text>
</a>
</g>
</g>
<!-- Node0&#45;&gt;Node8 -->
<g id="edge8" class="edge"><title>Node0&#45;&gt;Node8</title>
<path fill="none" stroke="blueviolet" stroke-dasharray="5,2" d="M160.236,-304.4C168.061,-278.94 193.176,-209.687 242,-181 250.632,-175.928 260.73,-172.11 270.302,-169.278"/>
<text text-anchor="middle" x="214.5" y="-214" font-family="Helvetica,sans-Serif" font-size="10.00">erpc</text>
</g>
<!-- Node14 -->
<g id="node16" class="node"><title>Node14</title>
<g id="a_node16"><a xlink:href="group__rpmsg__tty__rtos__transport.html" target="_top" xlink:title="Rpmsg_tty_rtos_transport">
<polygon fill="white" stroke="black" points="242,-114.5 242,-133.5 371,-133.5 371,-114.5 242,-114.5"/>
<text text-anchor="middle" x="306.5" y="-121.5" font-family="Helvetica,sans-Serif" font-size="10.00">Rpmsg_tty_rtos_transport</text>
</a>
</g>
</g>
<!-- Node0&#45;&gt;Node14 -->
<g id="edge14" class="edge"><title>Node0&#45;&gt;Node14</title>
<path fill="none" stroke="blueviolet" stroke-dasharray="5,2" d="M159.451,-304.353C164.37,-281.539 178.795,-223.027 205,-181 217.472,-160.998 221.839,-155.215 242,-143 248.299,-139.184 255.417,-136.088 262.551,-133.591"/>
<text text-anchor="middle" x="214.5" y="-184" font-family="Helvetica,sans-Serif" font-size="10.00">erpc</text>
</g>
<!-- Node3 -->
<g id="node17" class="node"><title>Node3</title>
<g id="a_node17"><a xlink:href="group__infra__codec.html" target="_top" xlink:title="Classes used for message serialization. ">
<polygon fill="white" stroke="black" points="271.5,-76.5 271.5,-95.5 341.5,-95.5 341.5,-76.5 271.5,-76.5"/>
<text text-anchor="middle" x="306.5" y="-83.5" font-family="Helvetica,sans-Serif" font-size="10.00">Serialization</text>
</a>
</g>
</g>
<!-- Node0&#45;&gt;Node3 -->
<g id="edge3" class="edge"><title>Node0&#45;&gt;Node3</title>
<path fill="none" stroke="blueviolet" stroke-dasharray="5,2" d="M158.314,-304.235C160.989,-276.588 171.361,-196.139 205,-140 216.635,-120.583 222.403,-116.329 242,-105 250.966,-99.8165 261.476,-95.9294 271.337,-93.0677"/>
<text text-anchor="middle" x="214.5" y="-143" font-family="Helvetica,sans-Serif" font-size="10.00">erpc</text>
</g>
<!-- Node12 -->
<g id="node18" class="node"><title>Node12</title>
<g id="a_node18"><a xlink:href="group__rpmsg__lite__rtos__transport.html" target="_top" xlink:title="RPMsg&#45;Lite zero copy transport using RTOS API. ">
<polygon fill="white" stroke="black" points="258,-38.5 258,-57.5 355,-57.5 355,-38.5 258,-38.5"/>
<text text-anchor="middle" x="306.5" y="-45.5" font-family="Helvetica,sans-Serif" font-size="10.00">RPMsg&#45;Lite RTOS</text>
</a>
</g>
</g>
<!-- Node0&#45;&gt;Node12 -->
<g id="edge12" class="edge"><title>Node0&#45;&gt;Node12</title>
<path fill="none" stroke="blueviolet" stroke-dasharray="5,2" d="M157.643,-304.352C158.507,-272.883 164.466,-171.22 205,-101 216.165,-81.6581 222.585,-78.0377 242,-67 248.702,-63.1895 256.246,-60.0722 263.732,-57.5461"/>
<text text-anchor="middle" x="214.5" y="-104" font-family="Helvetica,sans-Serif" font-size="10.00">erpc</text>
</g>
<!-- Node13 -->
<g id="node19" class="node"><title>Node13</title>
<g id="a_node19"><a xlink:href="group__rpmsg__lite__transport.html" target="_top" xlink:title="RPMsg&#45;Lite zero copy transport. ">
<polygon fill="white" stroke="black" points="272.5,-0.5 272.5,-19.5 340.5,-19.5 340.5,-0.5 272.5,-0.5"/>
<text text-anchor="middle" x="306.5" y="-7.5" font-family="Helvetica,sans-Serif" font-size="10.00">RPMsg&#45;Lite</text>
</a>
</g>
</g>
<!-- Node0&#45;&gt;Node13 -->
<g id="edge13" class="edge"><title>Node0&#45;&gt;Node13</title>
<path fill="none" stroke="blueviolet" stroke-dasharray="5,2" d="M157.216,-304.156C156.624,-268.978 158.243,-147.117 205,-63 215.85,-43.4799 222.585,-40.0377 242,-29 251.303,-23.7109 262.227,-19.7571 272.367,-16.8666"/>
<text text-anchor="middle" x="214.5" y="-66" font-family="Helvetica,sans-Serif" font-size="10.00">erpc</text>
</g>
</g>
</svg>
