<?xml version="1.0" encoding="UTF-8" standalone="no"?>
<!DOCTYPE svg PUBLIC "-//W3C//DTD SVG 1.1//EN"
 "http://www.w3.org/Graphics/SVG/1.1/DTD/svg11.dtd">
<!-- Generated by graphviz version 2.38.0 (20140413.2041)
 -->
<!-- Title: Client Pages: 1 -->
<svg width="320pt" height="750pt"
 viewBox="0.00 0.00 320.00 750.00" xmlns="http://www.w3.org/2000/svg" xmlns:xlink="http://www.w3.org/1999/xlink">
<g id="graph0" class="graph" transform="scale(1 1) rotate(0) translate(4 746)">
<title>Client</title>
<polygon fill="white" stroke="none" points="-4,4 -4,-746 316,-746 316,4 -4,4"/>
<!-- Node9 -->
<g id="node1" class="node"><title>Node9</title>
<g id="a_node1"><a xlink:href="group__dspi__slave__transport.html" target="_top" xlink:title="Kinetis SDK DSPI slave driver transport. ">
<polygon fill="white" stroke="black" points="226.5,-722.5 226.5,-741.5 291.5,-741.5 291.5,-722.5 226.5,-722.5"/>
<text text-anchor="middle" x="259" y="-729.5" font-family="Helvetica,sans-Serif" font-size="10.00">DSPI Slave</text>
</a>
</g>
</g>
<!-- Node7 -->
<g id="node2" class="node"><title>Node7</title>
<g id="a_node2"><a xlink:href="group__port__threads.html" target="_top" xlink:title="Threading model. ">
<polygon fill="white" stroke="black" points="233.5,-684.5 233.5,-703.5 284.5,-703.5 284.5,-684.5 233.5,-684.5"/>
<text text-anchor="middle" x="259" y="-691.5" font-family="Helvetica,sans-Serif" font-size="10.00">Threads</text>
</a>
</g>
</g>
<!-- Node11 -->
<g id="node3" class="node"><title>Node11</title>
<g id="a_node3"><a xlink:href="group__mu__transport.html" target="_top" xlink:title="Messaging Unit transport. ">
<polygon fill="white" stroke="black" points="217,-646.5 217,-665.5 301,-665.5 301,-646.5 217,-646.5"/>
<text text-anchor="middle" x="259" y="-653.5" font-family="Helvetica,sans-Serif" font-size="10.00">Messaging Unit</text>
</a>
</g>
</g>
<!-- Node19 -->
<g id="node4" class="node"><title>Node19</title>
<g id="a_node4"><a xlink:href="group__tcp__transport.html" target="_top" xlink:title="Simple TCP/IP transport. ">
<polygon fill="white" stroke="black" points="235.5,-608.5 235.5,-627.5 282.5,-627.5 282.5,-608.5 235.5,-608.5"/>
<text text-anchor="middle" x="259" y="-615.5" font-family="Helvetica,sans-Serif" font-size="10.00">TCP/IP</text>
</a>
</g>
</g>
<!-- Node1 -->
<g id="node5" class="node"><title>Node1</title>
<g id="a_node5"><a xlink:href="group__infra.html" target="_top" xlink:title="C++ core. ">
<polygon fill="white" stroke="black" points="0,-361.5 0,-380.5 73,-380.5 73,-361.5 0,-361.5"/>
<text text-anchor="middle" x="36.5" y="-368.5" font-family="Helvetica,sans-Serif" font-size="10.00">Infrastructure</text>
</a>
</g>
</g>
<!-- Node0 -->
<g id="node6" class="node"><title>Node0</title>
<polygon fill="#bfbfbf" stroke="black" points="110,-361.5 110,-380.5 151,-380.5 151,-361.5 110,-361.5"/>
<text text-anchor="middle" x="130.5" y="-368.5" font-family="Helvetica,sans-Serif" font-size="10.00">Client</text>
</g>
<!-- Node1&#45;&gt;Node0 -->
<g id="edge1" class="edge"><title>Node1&#45;&gt;Node0</title>
<path fill="none" stroke="black" d="M83.2184,-371C92.6461,-371 102.089,-371 109.965,-371"/>
<polygon fill="black" stroke="black" points="83.0696,-367.5 73.0696,-371 83.0696,-374.5 83.0696,-367.5"/>
</g>
<!-- Node0&#45;&gt;Node9 -->
<g id="edge9" class="edge"><title>Node0&#45;&gt;Node9</title>
<path fill="none" stroke="blueviolet" stroke-dasharray="5,2" d="M131.828,-380.694C133.513,-426.689 142.181,-622.94 169,-677 179.197,-697.554 186.573,-700.793 206,-713 212.266,-716.938 219.468,-720.225 226.474,-722.898"/>
<text text-anchor="middle" x="178.5" y="-703" font-family="Helvetica,sans-Serif" font-size="10.00">erpc</text>
</g>
<!-- Node0&#45;&gt;Node7 -->
<g id="edge7" class="edge"><title>Node0&#45;&gt;Node7</title>
<path fill="none" stroke="blueviolet" stroke-dasharray="5,2" d="M132.012,-380.597C134.391,-422.837 145.267,-592.169 169,-639 179.372,-659.466 186.573,-662.793 206,-675 214.382,-680.267 224.437,-684.372 233.462,-687.396"/>
<text text-anchor="middle" x="178.5" y="-665" font-family="Helvetica,sans-Serif" font-size="10.00">erpc</text>
</g>
<!-- Node0&#45;&gt;Node11 -->
<g id="edge11" class="edge"><title>Node0&#45;&gt;Node11</title>
<path fill="none" stroke="blueviolet" stroke-dasharray="5,2" d="M130.985,-380.873C129.675,-414.063 128.805,-523.86 169,-601 179.602,-621.347 186.573,-624.793 206,-637 211.941,-640.733 218.722,-643.882 225.381,-646.477"/>
<text text-anchor="middle" x="178.5" y="-627" font-family="Helvetica,sans-Serif" font-size="10.00">erpc</text>
</g>
<!-- Node0&#45;&gt;Node19 -->
<g id="edge19" class="edge"><title>Node0&#45;&gt;Node19</title>
<path fill="none" stroke="blueviolet" stroke-dasharray="5,2" d="M131.407,-380.87C131.535,-410.41 134.896,-499.973 169,-563 179.919,-583.179 186.573,-586.793 206,-599 214.952,-604.625 225.812,-608.924 235.287,-611.998"/>
<text text-anchor="middle" x="178.5" y="-589" font-family="Helvetica,sans-Serif" font-size="10.00">erpc</text>
</g>
<!-- Node3 -->
<g id="node7" class="node"><title>Node3</title>
<g id="a_node7"><a xlink:href="group__infra__transport.html" target="_top" xlink:title="Superclasses for building transports. ">
<polygon fill="white" stroke="black" points="228,-570.5 228,-589.5 290,-589.5 290,-570.5 228,-570.5"/>
<text text-anchor="middle" x="259" y="-577.5" font-family="Helvetica,sans-Serif" font-size="10.00">Transports</text>
</a>
</g>
</g>
<!-- Node0&#45;&gt;Node3 -->
<g id="edge3" class="edge"><title>Node0&#45;&gt;Node3</title>
<path fill="none" stroke="blueviolet" stroke-dasharray="5,2" d="M132.069,-380.612C133.919,-405.754 141.355,-474.91 169,-524 180.411,-544.264 186.394,-548.492 206,-561 212.645,-565.239 220.368,-568.712 227.797,-571.474"/>
<text text-anchor="middle" x="178.5" y="-551" font-family="Helvetica,sans-Serif" font-size="10.00">erpc</text>
</g>
<!-- Node15 -->
<g id="node8" class="node"><title>Node15</title>
<g id="a_node8"><a xlink:href="group__serial__transport.html" target="_top" xlink:title="POSIX and Win32 serial port transport. ">
<polygon fill="white" stroke="black" points="228.5,-532.5 228.5,-551.5 289.5,-551.5 289.5,-532.5 228.5,-532.5"/>
<text text-anchor="middle" x="259" y="-539.5" font-family="Helvetica,sans-Serif" font-size="10.00">Serial port</text>
</a>
</g>
</g>
<!-- Node0&#45;&gt;Node15 -->
<g id="edge15" class="edge"><title>Node0&#45;&gt;Node15</title>
<path fill="none" stroke="blueviolet" stroke-dasharray="5,2" d="M133.277,-380.567C137.304,-400.656 148.413,-448.244 169,-483 181.342,-503.836 185.841,-509.58 206,-523 212.801,-527.527 220.818,-531.143 228.494,-533.953"/>
<text text-anchor="middle" x="178.5" y="-512" font-family="Helvetica,sans-Serif" font-size="10.00">erpc</text>
</g>
<!-- Node4 -->
<g id="node9" class="node"><title>Node4</title>
<g id="a_node9"><a xlink:href="group__infra__utility.html" target="_top" xlink:title="Utility code used by the infrastructure. ">
<polygon fill="white" stroke="black" points="234.5,-494.5 234.5,-513.5 283.5,-513.5 283.5,-494.5 234.5,-494.5"/>
<text text-anchor="middle" x="259" y="-501.5" font-family="Helvetica,sans-Serif" font-size="10.00">Utilities</text>
</a>
</g>
</g>
<!-- Node0&#45;&gt;Node4 -->
<g id="edge4" class="edge"><title>Node0&#45;&gt;Node4</title>
<path fill="none" stroke="blueviolet" stroke-dasharray="5,2" d="M134.672,-380.649C142.629,-403.185 165.736,-459.314 206,-485 214.67,-490.531 225.177,-494.758 234.47,-497.804"/>
<text text-anchor="middle" x="178.5" y="-471" font-family="Helvetica,sans-Serif" font-size="10.00">erpc</text>
</g>
<!-- Node17 -->
<g id="node10" class="node"><title>Node17</title>
<g id="a_node10"><a xlink:href="group__spi__slave__transport.html" target="_top" xlink:title="Kinetis SDK SPI slave driver transport. ">
<polygon fill="white" stroke="black" points="229.5,-456.5 229.5,-475.5 288.5,-475.5 288.5,-456.5 229.5,-456.5"/>
<text text-anchor="middle" x="259" y="-463.5" font-family="Helvetica,sans-Serif" font-size="10.00">SPI Slave</text>
</a>
</g>
</g>
<!-- Node0&#45;&gt;Node17 -->
<g id="edge17" class="edge"><title>Node0&#45;&gt;Node17</title>
<path fill="none" stroke="blueviolet" stroke-dasharray="5,2" d="M138.081,-380.612C149.769,-396.911 175.783,-429.867 206,-447 213.274,-451.124 221.61,-454.64 229.445,-457.484"/>
<text text-anchor="middle" x="178.5" y="-436" font-family="Helvetica,sans-Serif" font-size="10.00">erpc</text>
</g>
<!-- Node20 -->
<g id="node11" class="node"><title>Node20</title>
<g id="a_node11"><a xlink:href="group__uart__transport.html" target="_top" xlink:title="CMSIS UART driver transport. ">
<polygon fill="white" stroke="black" points="221,-418.5 221,-437.5 297,-437.5 297,-418.5 221,-418.5"/>
<text text-anchor="middle" x="259" y="-425.5" font-family="Helvetica,sans-Serif" font-size="10.00">CMSIS UART</text>
</a>
</g>
</g>
<!-- Node0&#45;&gt;Node20 -->
<g id="edge20" class="edge"><title>Node0&#45;&gt;Node20</title>
<path fill="none" stroke="blueviolet" stroke-dasharray="5,2" d="M145.784,-380.529C152.651,-384.909 161.092,-390.006 169,-394 188.194,-403.693 210.845,-412.31 228.492,-418.443"/>
<text text-anchor="middle" x="178.5" y="-405" font-family="Helvetica,sans-Serif" font-size="10.00">erpc</text>
</g>
<!-- Node18 -->
<g id="node12" class="node"><title>Node18</title>
<g id="a_node12"><a xlink:href="group__spidev__master__transport.html" target="_top" xlink:title="SPIdev Linux transport. ">
<polygon fill="white" stroke="black" points="206,-380.5 206,-399.5 312,-399.5 312,-380.5 206,-380.5"/>
<text text-anchor="middle" x="259" y="-387.5" font-family="Helvetica,sans-Serif" font-size="10.00">SPIdev Linux Master</text>
</a>
</g>
</g>
<!-- Node0&#45;&gt;Node18 -->
<g id="edge18" class="edge"><title>Node0&#45;&gt;Node18</title>
<path fill="none" stroke="blueviolet" stroke-dasharray="5,2" d="M151.266,-373.969C165.928,-376.171 186.632,-379.281 205.909,-382.176"/>
<text text-anchor="middle" x="178.5" y="-382" font-family="Helvetica,sans-Serif" font-size="10.00">erpc</text>
</g>
<!-- Node16 -->
<g id="node13" class="node"><title>Node16</title>
<g id="a_node13"><a xlink:href="group__spi__master__transport.html" target="_top" xlink:title="Kinetis SDK SPI master driver transport. ">
<polygon fill="white" stroke="black" points="226.5,-342.5 226.5,-361.5 291.5,-361.5 291.5,-342.5 226.5,-342.5"/>
<text text-anchor="middle" x="259" y="-349.5" font-family="Helvetica,sans-Serif" font-size="10.00">SPI Master</text>
</a>
</g>
</g>
<!-- Node0&#45;&gt;Node16 -->
<g id="edge16" class="edge"><title>Node0&#45;&gt;Node16</title>
<path fill="none" stroke="blueviolet" stroke-dasharray="5,2" d="M151.02,-362.447C156.713,-360.302 163.015,-358.255 169,-357 187.781,-353.061 209.249,-351.765 226.395,-351.476"/>
<text text-anchor="middle" x="178.5" y="-360" font-family="Helvetica,sans-Serif" font-size="10.00">erpc</text>
</g>
<!-- Node14 -->
<g id="node14" class="node"><title>Node14</title>
<g id="a_node14"><a xlink:href="group__rpmsg__tty__rtos__transport.html" target="_top" xlink:title="RPMsg TTY RTOS transport. ">
<polygon fill="white" stroke="black" points="210,-304.5 210,-323.5 308,-323.5 308,-304.5 210,-304.5"/>
<text text-anchor="middle" x="259" y="-311.5" font-family="Helvetica,sans-Serif" font-size="10.00">RPMsg TTY RTOS</text>
</a>
</g>
</g>
<!-- Node0&#45;&gt;Node14 -->
<g id="edge14" class="edge"><title>Node0&#45;&gt;Node14</title>
<path fill="none" stroke="blueviolet" stroke-dasharray="5,2" d="M140.882,-361.375C148.024,-354.542 158.403,-345.619 169,-340 182.369,-332.912 197.919,-327.524 212.247,-323.543"/>
<text text-anchor="middle" x="178.5" y="-343" font-family="Helvetica,sans-Serif" font-size="10.00">erpc</text>
</g>
<!-- Node5 -->
<g id="node15" class="node"><title>Node5</title>
<g id="a_node15"><a xlink:href="group__infra__server.html" target="_top" xlink:title="Server classes. ">
<polygon fill="white" stroke="black" points="237,-266.5 237,-285.5 281,-285.5 281,-266.5 237,-266.5"/>
<text text-anchor="middle" x="259" y="-273.5" font-family="Helvetica,sans-Serif" font-size="10.00">Server</text>
</a>
</g>
</g>
<!-- Node0&#45;&gt;Node5 -->
<g id="edge5" class="edge"><title>Node0&#45;&gt;Node5</title>
<path fill="none" stroke="blueviolet" stroke-dasharray="5,2" d="M136.547,-361.291C142.926,-349.7 154.804,-330.228 169,-317 188.416,-298.908 217.218,-287.641 236.757,-281.599"/>
<text text-anchor="middle" x="178.5" y="-320" font-family="Helvetica,sans-Serif" font-size="10.00">erpc</text>
</g>
<!-- Node10 -->
<g id="node16" class="node"><title>Node10</title>
<g id="a_node16"><a xlink:href="group__itbp__transport.html" target="_top" xlink:title="Simple inter&#45;thread communications transport. ">
<polygon fill="white" stroke="black" points="226.5,-228.5 226.5,-247.5 291.5,-247.5 291.5,-228.5 226.5,-228.5"/>
<text text-anchor="middle" x="259" y="-235.5" font-family="Helvetica,sans-Serif" font-size="10.00">Inter&#45;thread</text>
</a>
</g>
</g>
<!-- Node0&#45;&gt;Node10 -->
<g id="edge10" class="edge"><title>Node0&#45;&gt;Node10</title>
<path fill="none" stroke="blueviolet" stroke-dasharray="5,2" d="M134.527,-361.337C139.815,-345.421 151.832,-313.153 169,-290 182.124,-272.3 187.093,-268.316 206,-257 212.268,-253.249 219.397,-250.05 226.324,-247.407"/>
<text text-anchor="middle" x="178.5" y="-293" font-family="Helvetica,sans-Serif" font-size="10.00">erpc</text>
</g>
<!-- Node8 -->
<g id="node17" class="node"><title>Node8</title>
<g id="a_node17"><a xlink:href="group__dspi__master__transport.html" target="_top" xlink:title="Kinetis SDK DSPI master driver transport. ">
<polygon fill="white" stroke="black" points="223,-190.5 223,-209.5 295,-209.5 295,-190.5 223,-190.5"/>
<text text-anchor="middle" x="259" y="-197.5" font-family="Helvetica,sans-Serif" font-size="10.00">DSPI Master</text>
</a>
</g>
</g>
<!-- Node0&#45;&gt;Node8 -->
<g id="edge8" class="edge"><title>Node0&#45;&gt;Node8</title>
<path fill="none" stroke="blueviolet" stroke-dasharray="5,2" d="M132.939,-361.209C136.375,-340.187 146.506,-289.746 169,-254 181.056,-234.841 186.749,-230.908 206,-219 211.967,-215.309 218.759,-212.178 225.421,-209.588"/>
<text text-anchor="middle" x="178.5" y="-257" font-family="Helvetica,sans-Serif" font-size="10.00">erpc</text>
</g>
<!-- Node21 -->
<g id="node18" class="node"><title>Node21</title>
<g id="a_node18"><a xlink:href="group___u_s_b___c_d_c__transport.html" target="_top" xlink:title="USB CDC transport. ">
<polygon fill="white" stroke="black" points="229,-152.5 229,-171.5 289,-171.5 289,-152.5 229,-152.5"/>
<text text-anchor="middle" x="259" y="-159.5" font-family="Helvetica,sans-Serif" font-size="10.00">USB CDC</text>
</a>
</g>
</g>
<!-- Node0&#45;&gt;Node21 -->
<g id="edge21" class="edge"><title>Node0&#45;&gt;Node21</title>
<path fill="none" stroke="blueviolet" stroke-dasharray="5,2" d="M132.015,-361.304C133.735,-335.946 140.884,-266.222 169,-217 180.38,-197.077 186.573,-193.207 206,-181 212.999,-176.602 221.164,-173.015 228.922,-170.19"/>
<text text-anchor="middle" x="178.5" y="-220" font-family="Helvetica,sans-Serif" font-size="10.00">erpc</text>
</g>
<!-- Node2 -->
<g id="node19" class="node"><title>Node2</title>
<g id="a_node19"><a xlink:href="group__infra__codec.html" target="_top" xlink:title="Classes used for message serialization. ">
<polygon fill="white" stroke="black" points="224,-114.5 224,-133.5 294,-133.5 294,-114.5 224,-114.5"/>
<text text-anchor="middle" x="259" y="-121.5" font-family="Helvetica,sans-Serif" font-size="10.00">Serialization</text>
</a>
</g>
</g>
<!-- Node0&#45;&gt;Node2 -->
<g id="edge2" class="edge"><title>Node0&#45;&gt;Node2</title>
<path fill="none" stroke="blueviolet" stroke-dasharray="5,2" d="M131.407,-361.13C131.535,-331.59 134.896,-242.027 169,-179 179.919,-158.821 186.573,-155.207 206,-143 211.941,-139.267 218.722,-136.118 225.381,-133.523"/>
<text text-anchor="middle" x="178.5" y="-182" font-family="Helvetica,sans-Serif" font-size="10.00">erpc</text>
</g>
<!-- Node12 -->
<g id="node20" class="node"><title>Node12</title>
<g id="a_node20"><a xlink:href="group__rpmsg__lite__rtos__transport.html" target="_top" xlink:title="RPMsg&#45;Lite zero copy transport using RTOS API. ">
<polygon fill="white" stroke="black" points="210.5,-76.5 210.5,-95.5 307.5,-95.5 307.5,-76.5 210.5,-76.5"/>
<text text-anchor="middle" x="259" y="-83.5" font-family="Helvetica,sans-Serif" font-size="10.00">RPMsg&#45;Lite RTOS</text>
</a>
</g>
</g>
<!-- Node0&#45;&gt;Node12 -->
<g id="edge12" class="edge"><title>Node0&#45;&gt;Node12</title>
<path fill="none" stroke="blueviolet" stroke-dasharray="5,2" d="M130.985,-361.127C129.675,-327.937 128.805,-218.14 169,-141 179.602,-120.653 186.573,-117.207 206,-105 211.941,-101.267 218.722,-98.118 225.381,-95.5235"/>
<text text-anchor="middle" x="178.5" y="-144" font-family="Helvetica,sans-Serif" font-size="10.00">erpc</text>
</g>
<!-- Node13 -->
<g id="node21" class="node"><title>Node13</title>
<g id="a_node21"><a xlink:href="group__rpmsg__lite__transport.html" target="_top" xlink:title="RPMsg&#45;Lite zero copy transport. ">
<polygon fill="white" stroke="black" points="225,-38.5 225,-57.5 293,-57.5 293,-38.5 225,-38.5"/>
<text text-anchor="middle" x="259" y="-45.5" font-family="Helvetica,sans-Serif" font-size="10.00">RPMsg&#45;Lite</text>
</a>
</g>
</g>
<!-- Node0&#45;&gt;Node13 -->
<g id="edge13" class="edge"><title>Node0&#45;&gt;Node13</title>
<path fill="none" stroke="blueviolet" stroke-dasharray="5,2" d="M132.012,-361.403C134.391,-319.163 145.267,-149.831 169,-103 179.372,-82.5342 186.573,-79.207 206,-67 211.941,-63.267 218.722,-60.118 225.381,-57.5235"/>
<text text-anchor="middle" x="178.5" y="-106" font-family="Helvetica,sans-Serif" font-size="10.00">erpc</text>
</g>
<!-- Node6 -->
<g id="node22" class="node"><title>Node6</title>
<g id="a_node22"><a xlink:href="group__port__setup__extensions.html" target="_top" xlink:title="Extension setup functions. ">
<polygon fill="white" stroke="black" points="214.5,-0.5 214.5,-19.5 303.5,-19.5 303.5,-0.5 214.5,-0.5"/>
<text text-anchor="middle" x="259" y="-7.5" font-family="Helvetica,sans-Serif" font-size="10.00">Extension Setup</text>
</a>
</g>
</g>
<!-- Node0&#45;&gt;Node6 -->
<g id="edge6" class="edge"><title>Node0&#45;&gt;Node6</title>
<path fill="none" stroke="blueviolet" stroke-dasharray="5,2" d="M131.828,-361.306C133.513,-315.311 142.181,-119.06 169,-65 179.197,-44.4464 186.573,-41.207 206,-29 211.941,-25.267 218.722,-22.118 225.381,-19.5235"/>
<text text-anchor="middle" x="178.5" y="-68" font-family="Helvetica,sans-Serif" font-size="10.00">erpc</text>
</g>
</g>
</svg>
