<?xml version="1.0" encoding="UTF-8" standalone="no"?>
<!DOCTYPE svg PUBLIC "-//W3C//DTD SVG 1.1//EN"
 "http://www.w3.org/Graphics/SVG/1.1/DTD/svg11.dtd">
<!-- Generated by graphviz version 2.38.0 (20140413.2041)
 -->
<!-- Title: Extension Setup Pages: 1 -->
<svg width="360pt" height="902pt"
 viewBox="0.00 0.00 360.00 902.00" xmlns="http://www.w3.org/2000/svg" xmlns:xlink="http://www.w3.org/1999/xlink">
<g id="graph0" class="graph" transform="scale(1 1) rotate(0) translate(4 898)">
<title>Extension Setup</title>
<polygon fill="white" stroke="none" points="-4,4 -4,-898 356,-898 356,4 -4,4"/>
<!-- Node9 -->
<g id="node1" class="node"><title>Node9</title>
<g id="a_node1"><a xlink:href="group__dspi__slave__transport.html" target="_top" xlink:title="MCUXpressoSDK DSPI slave driver transport. ">
<polygon fill="white" stroke="black" points="264.5,-874.5 264.5,-893.5 329.5,-893.5 329.5,-874.5 264.5,-874.5"/>
<text text-anchor="middle" x="297" y="-881.5" font-family="Helvetica,sans-Serif" font-size="10.00">DSPI Slave</text>
</a>
</g>
</g>
<!-- Node10 -->
<g id="node2" class="node"><title>Node10</title>
<g id="a_node2"><a xlink:href="group__i2c__slave__transport.html" target="_top" xlink:title="MCUXpressoSDK I2C slave driver transport. ">
<polygon fill="white" stroke="black" points="268.5,-836.5 268.5,-855.5 325.5,-855.5 325.5,-836.5 268.5,-836.5"/>
<text text-anchor="middle" x="297" y="-843.5" font-family="Helvetica,sans-Serif" font-size="10.00">I2C Slave</text>
</a>
</g>
</g>
<!-- Node7 -->
<g id="node3" class="node"><title>Node7</title>
<g id="a_node3"><a xlink:href="group__port__threads.html" target="_top" xlink:title="Threading model. ">
<polygon fill="white" stroke="black" points="271.5,-798.5 271.5,-817.5 322.5,-817.5 322.5,-798.5 271.5,-798.5"/>
<text text-anchor="middle" x="297" y="-805.5" font-family="Helvetica,sans-Serif" font-size="10.00">Threads</text>
</a>
</g>
</g>
<!-- Node14 -->
<g id="node4" class="node"><title>Node14</title>
<g id="a_node4"><a xlink:href="group__mbox__transport.html" target="_top" xlink:title="Mbox_transport">
<polygon fill="white" stroke="black" points="255,-760.5 255,-779.5 339,-779.5 339,-760.5 255,-760.5"/>
<text text-anchor="middle" x="297" y="-767.5" font-family="Helvetica,sans-Serif" font-size="10.00">Mbox_transport</text>
</a>
</g>
</g>
<!-- Node15 -->
<g id="node5" class="node"><title>Node15</title>
<g id="a_node5"><a xlink:href="group__mu__transport.html" target="_top" xlink:title="Messaging Unit transport. ">
<polygon fill="white" stroke="black" points="255,-722.5 255,-741.5 339,-741.5 339,-722.5 255,-722.5"/>
<text text-anchor="middle" x="297" y="-729.5" font-family="Helvetica,sans-Serif" font-size="10.00">Messaging Unit</text>
</a>
</g>
</g>
<!-- Node23 -->
<g id="node6" class="node"><title>Node23</title>
<g id="a_node6"><a xlink:href="group__tcp__transport.html" target="_top" xlink:title="Simple TCP/IP transport. ">
<polygon fill="white" stroke="black" points="273.5,-684.5 273.5,-703.5 320.5,-703.5 320.5,-684.5 273.5,-684.5"/>
<text text-anchor="middle" x="297" y="-691.5" font-family="Helvetica,sans-Serif" font-size="10.00">TCP/IP</text>
</a>
</g>
</g>
<!-- Node2 -->
<g id="node7" class="node"><title>Node2</title>
<g id="a_node7"><a xlink:href="group__infra__client.html" target="_top" xlink:title="Client classes. ">
<polygon fill="white" stroke="black" points="276.5,-646.5 276.5,-665.5 317.5,-665.5 317.5,-646.5 276.5,-646.5"/>
<text text-anchor="middle" x="297" y="-653.5" font-family="Helvetica,sans-Serif" font-size="10.00">Client</text>
</a>
</g>
</g>
<!-- Node4 -->
<g id="node8" class="node"><title>Node4</title>
<g id="a_node8"><a xlink:href="group__infra__transport.html" target="_top" xlink:title="Superclasses for building transports. ">
<polygon fill="white" stroke="black" points="266,-608.5 266,-627.5 328,-627.5 328,-608.5 266,-608.5"/>
<text text-anchor="middle" x="297" y="-615.5" font-family="Helvetica,sans-Serif" font-size="10.00">Transports</text>
</a>
</g>
</g>
<!-- Node19 -->
<g id="node9" class="node"><title>Node19</title>
<g id="a_node9"><a xlink:href="group__serial__transport.html" target="_top" xlink:title="POSIX and Win32 serial port transport. ">
<polygon fill="white" stroke="black" points="266.5,-570.5 266.5,-589.5 327.5,-589.5 327.5,-570.5 266.5,-570.5"/>
<text text-anchor="middle" x="297" y="-577.5" font-family="Helvetica,sans-Serif" font-size="10.00">Serial port</text>
</a>
</g>
</g>
<!-- Node5 -->
<g id="node10" class="node"><title>Node5</title>
<g id="a_node10"><a xlink:href="group__infra__utility.html" target="_top" xlink:title="Utility code used by the infrastructure. ">
<polygon fill="white" stroke="black" points="272.5,-532.5 272.5,-551.5 321.5,-551.5 321.5,-532.5 272.5,-532.5"/>
<text text-anchor="middle" x="297" y="-539.5" font-family="Helvetica,sans-Serif" font-size="10.00">Utilities</text>
</a>
</g>
</g>
<!-- Node21 -->
<g id="node11" class="node"><title>Node21</title>
<g id="a_node11"><a xlink:href="group__spi__slave__transport.html" target="_top" xlink:title="MCUXpressoSDK SPI slave driver transport. ">
<polygon fill="white" stroke="black" points="267.5,-494.5 267.5,-513.5 326.5,-513.5 326.5,-494.5 267.5,-494.5"/>
<text text-anchor="middle" x="297" y="-501.5" font-family="Helvetica,sans-Serif" font-size="10.00">SPI Slave</text>
</a>
</g>
</g>
<!-- Node24 -->
<g id="node12" class="node"><title>Node24</title>
<g id="a_node12"><a xlink:href="group__uart__transport.html" target="_top" xlink:title="CMSIS UART driver transport. ">
<polygon fill="white" stroke="black" points="259,-456.5 259,-475.5 335,-475.5 335,-456.5 259,-456.5"/>
<text text-anchor="middle" x="297" y="-463.5" font-family="Helvetica,sans-Serif" font-size="10.00">CMSIS UART</text>
</a>
</g>
</g>
<!-- Node22 -->
<g id="node13" class="node"><title>Node22</title>
<g id="a_node13"><a xlink:href="group__spidev__master__transport.html" target="_top" xlink:title="SPIdev Linux transport. ">
<polygon fill="white" stroke="black" points="244,-418.5 244,-437.5 350,-437.5 350,-418.5 244,-418.5"/>
<text text-anchor="middle" x="297" y="-425.5" font-family="Helvetica,sans-Serif" font-size="10.00">SPIdev Linux Master</text>
</a>
</g>
</g>
<!-- Node20 -->
<g id="node14" class="node"><title>Node20</title>
<g id="a_node14"><a xlink:href="group__spi__master__transport.html" target="_top" xlink:title="MCUXpressoSDK SPI master driver transport. ">
<polygon fill="white" stroke="black" points="264.5,-380.5 264.5,-399.5 329.5,-399.5 329.5,-380.5 264.5,-380.5"/>
<text text-anchor="middle" x="297" y="-387.5" font-family="Helvetica,sans-Serif" font-size="10.00">SPI Master</text>
</a>
</g>
</g>
<!-- Node18 -->
<g id="node15" class="node"><title>Node18</title>
<g id="a_node15"><a xlink:href="group__rpmsg__tty__rtos__transport.html" target="_top" xlink:title="RPMsg TTY RTOS transport. ">
<polygon fill="white" stroke="black" points="248,-342.5 248,-361.5 346,-361.5 346,-342.5 248,-342.5"/>
<text text-anchor="middle" x="297" y="-349.5" font-family="Helvetica,sans-Serif" font-size="10.00">RPMsg TTY RTOS</text>
</a>
</g>
</g>
<!-- Node6 -->
<g id="node16" class="node"><title>Node6</title>
<g id="a_node16"><a xlink:href="group__infra__server.html" target="_top" xlink:title="Server classes. ">
<polygon fill="white" stroke="black" points="275,-304.5 275,-323.5 319,-323.5 319,-304.5 275,-304.5"/>
<text text-anchor="middle" x="297" y="-311.5" font-family="Helvetica,sans-Serif" font-size="10.00">Server</text>
</a>
</g>
</g>
<!-- Node12 -->
<g id="node17" class="node"><title>Node12</title>
<g id="a_node17"><a xlink:href="group__lpi2c__slave__transport.html" target="_top" xlink:title="Lpi2c_slave_transport">
<polygon fill="white" stroke="black" points="242,-266.5 242,-285.5 352,-285.5 352,-266.5 242,-266.5"/>
<text text-anchor="middle" x="297" y="-273.5" font-family="Helvetica,sans-Serif" font-size="10.00">Lpi2c_slave_transport</text>
</a>
</g>
</g>
<!-- Node11 -->
<g id="node18" class="node"><title>Node11</title>
<g id="a_node18"><a xlink:href="group__itbp__transport.html" target="_top" xlink:title="Simple inter&#45;thread communications transport. ">
<polygon fill="white" stroke="black" points="264.5,-228.5 264.5,-247.5 329.5,-247.5 329.5,-228.5 264.5,-228.5"/>
<text text-anchor="middle" x="297" y="-235.5" font-family="Helvetica,sans-Serif" font-size="10.00">Inter&#45;thread</text>
</a>
</g>
</g>
<!-- Node8 -->
<g id="node19" class="node"><title>Node8</title>
<g id="a_node19"><a xlink:href="group__dspi__master__transport.html" target="_top" xlink:title="MCUXpressoSDK DSPI master driver transport. ">
<polygon fill="white" stroke="black" points="261,-190.5 261,-209.5 333,-209.5 333,-190.5 261,-190.5"/>
<text text-anchor="middle" x="297" y="-197.5" font-family="Helvetica,sans-Serif" font-size="10.00">DSPI Master</text>
</a>
</g>
</g>
<!-- Node25 -->
<g id="node20" class="node"><title>Node25</title>
<g id="a_node20"><a xlink:href="group___u_s_b___c_d_c__transport.html" target="_top" xlink:title="USB CDC transport. ">
<polygon fill="white" stroke="black" points="267,-152.5 267,-171.5 327,-171.5 327,-152.5 267,-152.5"/>
<text text-anchor="middle" x="297" y="-159.5" font-family="Helvetica,sans-Serif" font-size="10.00">USB CDC</text>
</a>
</g>
</g>
<!-- Node1 -->
<g id="node21" class="node"><title>Node1</title>
<g id="a_node21"><a xlink:href="group__setup.html" target="_top" xlink:title="C language setup functions. ">
<polygon fill="white" stroke="black" points="0,-437.5 0,-456.5 61,-456.5 61,-437.5 0,-437.5"/>
<text text-anchor="middle" x="30.5" y="-444.5" font-family="Helvetica,sans-Serif" font-size="10.00">Setup API</text>
</a>
</g>
</g>
<!-- Node0 -->
<g id="node25" class="node"><title>Node0</title>
<polygon fill="#bfbfbf" stroke="black" points="98,-437.5 98,-456.5 187,-456.5 187,-437.5 98,-437.5"/>
<text text-anchor="middle" x="142.5" y="-444.5" font-family="Helvetica,sans-Serif" font-size="10.00">Extension Setup</text>
</g>
<!-- Node1&#45;&gt;Node0 -->
<g id="edge1" class="edge"><title>Node1&#45;&gt;Node0</title>
<path fill="none" stroke="black" d="M71.3637,-447C79.906,-447 88.9765,-447 97.6596,-447"/>
<polygon fill="black" stroke="black" points="71.2676,-443.5 61.2676,-447 71.2675,-450.5 71.2676,-443.5"/>
</g>
<!-- Node3 -->
<g id="node22" class="node"><title>Node3</title>
<g id="a_node22"><a xlink:href="group__infra__codec.html" target="_top" xlink:title="Classes used for message serialization. ">
<polygon fill="white" stroke="black" points="262,-114.5 262,-133.5 332,-133.5 332,-114.5 262,-114.5"/>
<text text-anchor="middle" x="297" y="-121.5" font-family="Helvetica,sans-Serif" font-size="10.00">Serialization</text>
</a>
</g>
</g>
<!-- Node16 -->
<g id="node23" class="node"><title>Node16</title>
<g id="a_node23"><a xlink:href="group__rpmsg__lite__rtos__transport.html" target="_top" xlink:title="RPMsg&#45;Lite zero copy transport using RTOS API. ">
<polygon fill="white" stroke="black" points="248.5,-76.5 248.5,-95.5 345.5,-95.5 345.5,-76.5 248.5,-76.5"/>
<text text-anchor="middle" x="297" y="-83.5" font-family="Helvetica,sans-Serif" font-size="10.00">RPMsg&#45;Lite RTOS</text>
</a>
</g>
</g>
<!-- Node17 -->
<g id="node24" class="node"><title>Node17</title>
<g id="a_node24"><a xlink:href="group__rpmsg__lite__transport.html" target="_top" xlink:title="RPMsg&#45;Lite zero copy transport. ">
<polygon fill="white" stroke="black" points="263,-38.5 263,-57.5 331,-57.5 331,-38.5 263,-38.5"/>
<text text-anchor="middle" x="297" y="-45.5" font-family="Helvetica,sans-Serif" font-size="10.00">RPMsg&#45;Lite</text>
</a>
</g>
</g>
<!-- Node0&#45;&gt;Node9 -->
<g id="edge9" class="edge"><title>Node0&#45;&gt;Node9</title>
<path fill="none" stroke="blueviolet" stroke-dasharray="5,2" d="M144.224,-456.574C148.306,-508.934 169.527,-760.755 205,-829 215.582,-849.358 222.5,-852.91 242,-865 248.842,-869.242 256.76,-872.702 264.389,-875.45"/>
<text text-anchor="middle" x="214.5" y="-855" font-family="Helvetica,sans-Serif" font-size="10.00">erpc</text>
</g>
<!-- Node0&#45;&gt;Node10 -->
<g id="edge10" class="edge"><title>Node0&#45;&gt;Node10</title>
<path fill="none" stroke="blueviolet" stroke-dasharray="5,2" d="M143.14,-456.718C141.98,-499.163 141.567,-671.5 205,-791 215.758,-811.266 222.5,-814.91 242,-827 250.024,-831.975 259.529,-835.874 268.311,-838.811"/>
<text text-anchor="middle" x="214.5" y="-817" font-family="Helvetica,sans-Serif" font-size="10.00">erpc</text>
</g>
<!-- Node0&#45;&gt;Node7 -->
<g id="edge7" class="edge"><title>Node0&#45;&gt;Node7</title>
<path fill="none" stroke="blueviolet" stroke-dasharray="5,2" d="M143.422,-456.698C143.505,-496.195 147.722,-647.832 205,-753 215.974,-773.149 222.5,-776.91 242,-789 250.953,-794.551 261.75,-798.763 271.329,-801.793"/>
<text text-anchor="middle" x="214.5" y="-779" font-family="Helvetica,sans-Serif" font-size="10.00">erpc</text>
</g>
<!-- Node0&#45;&gt;Node14 -->
<g id="edge14" class="edge"><title>Node0&#45;&gt;Node14</title>
<path fill="none" stroke="blueviolet" stroke-dasharray="5,2" d="M143.791,-456.966C145.258,-493.729 153.985,-624.295 205,-715 216.247,-734.998 222.5,-738.91 242,-751 247.997,-754.718 254.821,-757.836 261.553,-760.399"/>
<text text-anchor="middle" x="214.5" y="-741" font-family="Helvetica,sans-Serif" font-size="10.00">erpc</text>
</g>
<!-- Node0&#45;&gt;Node15 -->
<g id="edge15" class="edge"><title>Node0&#45;&gt;Node15</title>
<path fill="none" stroke="blueviolet" stroke-dasharray="5,2" d="M144.269,-456.909C147.227,-490.215 160.061,-600.334 205,-677 216.603,-696.794 222.5,-700.91 242,-713 247.997,-716.718 254.821,-719.836 261.553,-722.399"/>
<text text-anchor="middle" x="214.5" y="-703" font-family="Helvetica,sans-Serif" font-size="10.00">erpc</text>
</g>
<!-- Node0&#45;&gt;Node23 -->
<g id="edge23" class="edge"><title>Node0&#45;&gt;Node23</title>
<path fill="none" stroke="blueviolet" stroke-dasharray="5,2" d="M144.98,-456.816C149.748,-486.195 166.677,-575.276 205,-638 217.125,-657.845 222.319,-662.61 242,-675 251.588,-681.036 263.345,-685.464 273.438,-688.519"/>
<text text-anchor="middle" x="214.5" y="-665" font-family="Helvetica,sans-Serif" font-size="10.00">erpc</text>
</g>
<!-- Node0&#45;&gt;Node2 -->
<g id="edge2" class="edge"><title>Node0&#45;&gt;Node2</title>
<path fill="none" stroke="blueviolet" stroke-dasharray="5,2" d="M145.954,-456.51C152.657,-481.394 172.948,-549.892 205,-599 217.884,-618.74 222.136,-624.309 242,-637 252.469,-643.688 265.589,-648.375 276.275,-651.42"/>
<text text-anchor="middle" x="214.5" y="-626" font-family="Helvetica,sans-Serif" font-size="10.00">erpc</text>
</g>
<!-- Node0&#45;&gt;Node4 -->
<g id="edge4" class="edge"><title>Node0&#45;&gt;Node4</title>
<path fill="none" stroke="blueviolet" stroke-dasharray="5,2" d="M146.508,-456.516C155.72,-483.941 186.353,-563.447 242,-599 249.286,-603.655 257.857,-607.341 265.997,-610.178"/>
<text text-anchor="middle" x="214.5" y="-587" font-family="Helvetica,sans-Serif" font-size="10.00">erpc</text>
</g>
<!-- Node0&#45;&gt;Node19 -->
<g id="edge19" class="edge"><title>Node0&#45;&gt;Node19</title>
<path fill="none" stroke="blueviolet" stroke-dasharray="5,2" d="M148.999,-456.689C162.078,-478.818 197.318,-533.296 242,-561 249.433,-565.609 258.137,-569.294 266.359,-572.146"/>
<text text-anchor="middle" x="214.5" y="-549" font-family="Helvetica,sans-Serif" font-size="10.00">erpc</text>
</g>
<!-- Node0&#45;&gt;Node5 -->
<g id="edge5" class="edge"><title>Node0&#45;&gt;Node5</title>
<path fill="none" stroke="blueviolet" stroke-dasharray="5,2" d="M153.649,-456.637C170.698,-472.39 206.7,-503.819 242,-523 251.518,-528.172 262.721,-532.384 272.448,-535.516"/>
<text text-anchor="middle" x="214.5" y="-513" font-family="Helvetica,sans-Serif" font-size="10.00">erpc</text>
</g>
<!-- Node0&#45;&gt;Node21 -->
<g id="edge21" class="edge"><title>Node0&#45;&gt;Node21</title>
<path fill="none" stroke="blueviolet" stroke-dasharray="5,2" d="M167.695,-456.616C187.578,-464.45 216.518,-475.697 242,-485 250.589,-488.135 259.979,-491.471 268.484,-494.458"/>
<text text-anchor="middle" x="214.5" y="-480" font-family="Helvetica,sans-Serif" font-size="10.00">erpc</text>
</g>
<!-- Node0&#45;&gt;Node24 -->
<g id="edge24" class="edge"><title>Node0&#45;&gt;Node24</title>
<path fill="none" stroke="blueviolet" stroke-dasharray="5,2" d="M187.2,-452.445C209.82,-455.263 237.145,-458.667 258.751,-461.359"/>
<text text-anchor="middle" x="214.5" y="-459" font-family="Helvetica,sans-Serif" font-size="10.00">erpc</text>
</g>
<!-- Node0&#45;&gt;Node22 -->
<g id="edge22" class="edge"><title>Node0&#45;&gt;Node22</title>
<path fill="none" stroke="blueviolet" stroke-dasharray="5,2" d="M180.714,-437.468C188.682,-435.726 197.084,-434.11 205,-433 217.535,-431.242 231.123,-430.094 243.881,-429.347"/>
<text text-anchor="middle" x="214.5" y="-436" font-family="Helvetica,sans-Serif" font-size="10.00">erpc</text>
</g>
<!-- Node0&#45;&gt;Node20 -->
<g id="edge20" class="edge"><title>Node0&#45;&gt;Node20</title>
<path fill="none" stroke="blueviolet" stroke-dasharray="5,2" d="M160.335,-437.427C172.478,-430.794 189.409,-422.094 205,-416 224.282,-408.463 246.628,-402.047 264.351,-397.474"/>
<text text-anchor="middle" x="214.5" y="-419" font-family="Helvetica,sans-Serif" font-size="10.00">erpc</text>
</g>
<!-- Node0&#45;&gt;Node18 -->
<g id="edge18" class="edge"><title>Node0&#45;&gt;Node18</title>
<path fill="none" stroke="blueviolet" stroke-dasharray="5,2" d="M153.21,-437.296C169.902,-421.157 205.752,-388.818 242,-371 249.224,-367.449 257.283,-364.243 264.925,-361.519"/>
<text text-anchor="middle" x="214.5" y="-396" font-family="Helvetica,sans-Serif" font-size="10.00">erpc</text>
</g>
<!-- Node0&#45;&gt;Node6 -->
<g id="edge6" class="edge"><title>Node0&#45;&gt;Node6</title>
<path fill="none" stroke="blueviolet" stroke-dasharray="5,2" d="M148.972,-437.268C161.995,-415.046 197.124,-360.389 242,-333 252.095,-326.839 264.473,-322.3 274.83,-319.207"/>
<text text-anchor="middle" x="214.5" y="-365" font-family="Helvetica,sans-Serif" font-size="10.00">erpc</text>
</g>
<!-- Node0&#45;&gt;Node12 -->
<g id="edge12" class="edge"><title>Node0&#45;&gt;Node12</title>
<path fill="none" stroke="blueviolet" stroke-dasharray="5,2" d="M146.508,-437.484C155.72,-410.059 186.353,-330.553 242,-295 247.863,-291.254 254.556,-288.137 261.189,-285.583"/>
<text text-anchor="middle" x="214.5" y="-331" font-family="Helvetica,sans-Serif" font-size="10.00">erpc</text>
</g>
<!-- Node0&#45;&gt;Node11 -->
<g id="edge11" class="edge"><title>Node0&#45;&gt;Node11</title>
<path fill="none" stroke="blueviolet" stroke-dasharray="5,2" d="M145.954,-437.49C152.657,-412.606 172.948,-344.108 205,-295 217.884,-275.26 222.136,-269.691 242,-257 248.784,-252.666 256.681,-249.172 264.307,-246.421"/>
<text text-anchor="middle" x="214.5" y="-298" font-family="Helvetica,sans-Serif" font-size="10.00">erpc</text>
</g>
<!-- Node0&#45;&gt;Node8 -->
<g id="edge8" class="edge"><title>Node0&#45;&gt;Node8</title>
<path fill="none" stroke="blueviolet" stroke-dasharray="5,2" d="M144.98,-437.184C149.748,-407.805 166.677,-318.724 205,-256 217.125,-236.155 222.319,-231.39 242,-219 247.971,-215.241 254.784,-212.105 261.512,-209.537"/>
<text text-anchor="middle" x="214.5" y="-259" font-family="Helvetica,sans-Serif" font-size="10.00">erpc</text>
</g>
<!-- Node0&#45;&gt;Node25 -->
<g id="edge25" class="edge"><title>Node0&#45;&gt;Node25</title>
<path fill="none" stroke="blueviolet" stroke-dasharray="5,2" d="M144.269,-437.091C147.227,-403.785 160.061,-293.666 205,-217 216.603,-197.206 222.5,-193.09 242,-181 249.602,-176.287 258.533,-172.539 266.919,-169.661"/>
<text text-anchor="middle" x="214.5" y="-220" font-family="Helvetica,sans-Serif" font-size="10.00">erpc</text>
</g>
<!-- Node0&#45;&gt;Node3 -->
<g id="edge3" class="edge"><title>Node0&#45;&gt;Node3</title>
<path fill="none" stroke="blueviolet" stroke-dasharray="5,2" d="M143.791,-437.034C145.258,-400.271 153.985,-269.705 205,-179 216.247,-159.002 222.5,-155.09 242,-143 248.082,-139.229 255.014,-136.077 261.837,-133.493"/>
<text text-anchor="middle" x="214.5" y="-182" font-family="Helvetica,sans-Serif" font-size="10.00">erpc</text>
</g>
<!-- Node0&#45;&gt;Node16 -->
<g id="edge16" class="edge"><title>Node0&#45;&gt;Node16</title>
<path fill="none" stroke="blueviolet" stroke-dasharray="5,2" d="M143.422,-437.302C143.505,-397.805 147.722,-246.168 205,-141 215.974,-120.851 222.5,-117.09 242,-105 247.997,-101.282 254.821,-98.1644 261.553,-95.6008"/>
<text text-anchor="middle" x="214.5" y="-144" font-family="Helvetica,sans-Serif" font-size="10.00">erpc</text>
</g>
<!-- Node0&#45;&gt;Node17 -->
<g id="edge17" class="edge"><title>Node0&#45;&gt;Node17</title>
<path fill="none" stroke="blueviolet" stroke-dasharray="5,2" d="M143.14,-437.282C141.98,-394.837 141.567,-222.5 205,-103 215.758,-82.7344 222.5,-79.0903 242,-67 248.419,-63.0198 255.787,-59.7283 262.973,-57.0674"/>
<text text-anchor="middle" x="214.5" y="-106" font-family="Helvetica,sans-Serif" font-size="10.00">erpc</text>
</g>
<!-- Node13 -->
<g id="node26" class="node"><title>Node13</title>
<g id="a_node26"><a xlink:href="group__lpspi__slave__transport.html" target="_top" xlink:title="Lpspi_slave_transport">
<polygon fill="white" stroke="black" points="242,-0.5 242,-19.5 352,-19.5 352,-0.5 242,-0.5"/>
<text text-anchor="middle" x="297" y="-7.5" font-family="Helvetica,sans-Serif" font-size="10.00">Lpspi_slave_transport</text>
</a>
</g>
</g>
<!-- Node0&#45;&gt;Node13 -->
<g id="edge13" class="edge"><title>Node0&#45;&gt;Node13</title>
<path fill="none" stroke="blueviolet" stroke-dasharray="5,2" d="M144.224,-437.426C148.306,-385.066 169.527,-133.245 205,-65 215.582,-44.6422 222.5,-41.0903 242,-29 247.997,-25.2817 254.821,-22.1644 261.553,-19.6008"/>
<text text-anchor="middle" x="214.5" y="-68" font-family="Helvetica,sans-Serif" font-size="10.00">erpc</text>
</g>
</g>
</svg>
