<?xml version="1.0" encoding="UTF-8" standalone="no"?>
<!DOCTYPE svg PUBLIC "-//W3C//DTD SVG 1.1//EN"
 "http://www.w3.org/Graphics/SVG/1.1/DTD/svg11.dtd">
<!-- Generated by graphviz version 2.38.0 (20140413.2041)
 -->
<!-- Title: Serialization Pages: 1 -->
<svg width="372pt" height="636pt"
 viewBox="0.00 0.00 372.00 636.00" xmlns="http://www.w3.org/2000/svg" xmlns:xlink="http://www.w3.org/1999/xlink">
<g id="graph0" class="graph" transform="scale(1 1) rotate(0) translate(4 632)">
<title>Serialization</title>
<polygon fill="white" stroke="none" points="-4,4 -4,-632 368,-632 368,4 -4,4"/>
<!-- Node8 -->
<g id="node1" class="node"><title>Node8</title>
<g id="a_node1"><a xlink:href="group__dspi__slave__transport.html" target="_top" xlink:title="Kinetis SDK DSPI slave driver transport. ">
<polygon fill="white" stroke="black" points="267,-608.5 267,-627.5 332,-627.5 332,-608.5 267,-608.5"/>
<text text-anchor="middle" x="299.5" y="-615.5" font-family="Helvetica,sans-Serif" font-size="10.00">DSPI Slave</text>
</a>
</g>
</g>
<!-- Node6 -->
<g id="node2" class="node"><title>Node6</title>
<g id="a_node2"><a xlink:href="group__port__threads.html" target="_top" xlink:title="Threading model. ">
<polygon fill="white" stroke="black" points="274,-570.5 274,-589.5 325,-589.5 325,-570.5 274,-570.5"/>
<text text-anchor="middle" x="299.5" y="-577.5" font-family="Helvetica,sans-Serif" font-size="10.00">Threads</text>
</a>
</g>
</g>
<!-- Node10 -->
<g id="node3" class="node"><title>Node10</title>
<g id="a_node3"><a xlink:href="group__mu__transport.html" target="_top" xlink:title="Messaging Unit transport. ">
<polygon fill="white" stroke="black" points="257.5,-532.5 257.5,-551.5 341.5,-551.5 341.5,-532.5 257.5,-532.5"/>
<text text-anchor="middle" x="299.5" y="-539.5" font-family="Helvetica,sans-Serif" font-size="10.00">Messaging Unit</text>
</a>
</g>
</g>
<!-- Node17 -->
<g id="node4" class="node"><title>Node17</title>
<g id="a_node4"><a xlink:href="group__tcp__transport.html" target="_top" xlink:title="Simple TCP/IP transport. ">
<polygon fill="white" stroke="black" points="276,-494.5 276,-513.5 323,-513.5 323,-494.5 276,-494.5"/>
<text text-anchor="middle" x="299.5" y="-501.5" font-family="Helvetica,sans-Serif" font-size="10.00">TCP/IP</text>
</a>
</g>
</g>
<!-- Node1 -->
<g id="node5" class="node"><title>Node1</title>
<g id="a_node5"><a xlink:href="group__infra.html" target="_top" xlink:title="C++ core. ">
<polygon fill="white" stroke="black" points="0,-304.5 0,-323.5 73,-323.5 73,-304.5 0,-304.5"/>
<text text-anchor="middle" x="36.5" y="-311.5" font-family="Helvetica,sans-Serif" font-size="10.00">Infrastructure</text>
</a>
</g>
</g>
<!-- Node0 -->
<g id="node17" class="node"><title>Node0</title>
<polygon fill="#bfbfbf" stroke="black" points="110,-304.5 110,-323.5 180,-323.5 180,-304.5 110,-304.5"/>
<text text-anchor="middle" x="145" y="-311.5" font-family="Helvetica,sans-Serif" font-size="10.00">Serialization</text>
</g>
<!-- Node1&#45;&gt;Node0 -->
<g id="edge1" class="edge"><title>Node1&#45;&gt;Node0</title>
<path fill="none" stroke="black" d="M83.5,-314C92.3827,-314 101.54,-314 109.957,-314"/>
<polygon fill="black" stroke="black" points="83.2593,-310.5 73.2592,-314 83.2592,-317.5 83.2593,-310.5"/>
</g>
<!-- Node2 -->
<g id="node6" class="node"><title>Node2</title>
<g id="a_node6"><a xlink:href="group__infra__client.html" target="_top" xlink:title="Client classes. ">
<polygon fill="white" stroke="black" points="279,-456.5 279,-475.5 320,-475.5 320,-456.5 279,-456.5"/>
<text text-anchor="middle" x="299.5" y="-463.5" font-family="Helvetica,sans-Serif" font-size="10.00">Client</text>
</a>
</g>
</g>
<!-- Node3 -->
<g id="node7" class="node"><title>Node3</title>
<g id="a_node7"><a xlink:href="group__infra__transport.html" target="_top" xlink:title="Superclasses for building transports. ">
<polygon fill="white" stroke="black" points="268.5,-418.5 268.5,-437.5 330.5,-437.5 330.5,-418.5 268.5,-418.5"/>
<text text-anchor="middle" x="299.5" y="-425.5" font-family="Helvetica,sans-Serif" font-size="10.00">Transports</text>
</a>
</g>
</g>
<!-- Node14 -->
<g id="node8" class="node"><title>Node14</title>
<g id="a_node8"><a xlink:href="group__serial__transport.html" target="_top" xlink:title="POSIX and Win32 serial port transport. ">
<polygon fill="white" stroke="black" points="269,-380.5 269,-399.5 330,-399.5 330,-380.5 269,-380.5"/>
<text text-anchor="middle" x="299.5" y="-387.5" font-family="Helvetica,sans-Serif" font-size="10.00">Serial port</text>
</a>
</g>
</g>
<!-- Node4 -->
<g id="node9" class="node"><title>Node4</title>
<g id="a_node9"><a xlink:href="group__infra__utility.html" target="_top" xlink:title="Utility code used by the infrastructure. ">
<polygon fill="white" stroke="black" points="275,-342.5 275,-361.5 324,-361.5 324,-342.5 275,-342.5"/>
<text text-anchor="middle" x="299.5" y="-349.5" font-family="Helvetica,sans-Serif" font-size="10.00">Utilities</text>
</a>
</g>
</g>
<!-- Node16 -->
<g id="node10" class="node"><title>Node16</title>
<g id="a_node10"><a xlink:href="group__spi__slave__transport.html" target="_top" xlink:title="Kinetis SDK SPI slave driver transport. ">
<polygon fill="white" stroke="black" points="270,-304.5 270,-323.5 329,-323.5 329,-304.5 270,-304.5"/>
<text text-anchor="middle" x="299.5" y="-311.5" font-family="Helvetica,sans-Serif" font-size="10.00">SPI Slave</text>
</a>
</g>
</g>
<!-- Node18 -->
<g id="node11" class="node"><title>Node18</title>
<g id="a_node11"><a xlink:href="group__uart__transport.html" target="_top" xlink:title="CMSIS UART driver transport. ">
<polygon fill="white" stroke="black" points="261.5,-266.5 261.5,-285.5 337.5,-285.5 337.5,-266.5 261.5,-266.5"/>
<text text-anchor="middle" x="299.5" y="-273.5" font-family="Helvetica,sans-Serif" font-size="10.00">CMSIS UART</text>
</a>
</g>
</g>
<!-- Node15 -->
<g id="node12" class="node"><title>Node15</title>
<g id="a_node12"><a xlink:href="group__spi__master__transport.html" target="_top" xlink:title="Kinetis SDK SPI master driver transport. ">
<polygon fill="white" stroke="black" points="267,-228.5 267,-247.5 332,-247.5 332,-228.5 267,-228.5"/>
<text text-anchor="middle" x="299.5" y="-235.5" font-family="Helvetica,sans-Serif" font-size="10.00">SPI Master</text>
</a>
</g>
</g>
<!-- Node5 -->
<g id="node13" class="node"><title>Node5</title>
<g id="a_node13"><a xlink:href="group__infra__server.html" target="_top" xlink:title="Server classes. ">
<polygon fill="white" stroke="black" points="277.5,-190.5 277.5,-209.5 321.5,-209.5 321.5,-190.5 277.5,-190.5"/>
<text text-anchor="middle" x="299.5" y="-197.5" font-family="Helvetica,sans-Serif" font-size="10.00">Server</text>
</a>
</g>
</g>
<!-- Node9 -->
<g id="node14" class="node"><title>Node9</title>
<g id="a_node14"><a xlink:href="group__itbp__transport.html" target="_top" xlink:title="Simple inter&#45;thread communications transport. ">
<polygon fill="white" stroke="black" points="267,-152.5 267,-171.5 332,-171.5 332,-152.5 267,-152.5"/>
<text text-anchor="middle" x="299.5" y="-159.5" font-family="Helvetica,sans-Serif" font-size="10.00">Inter&#45;thread</text>
</a>
</g>
</g>
<!-- Node7 -->
<g id="node15" class="node"><title>Node7</title>
<g id="a_node15"><a xlink:href="group__dspi__master__transport.html" target="_top" xlink:title="Kinetis SDK DSPI master driver transport. ">
<polygon fill="white" stroke="black" points="263.5,-114.5 263.5,-133.5 335.5,-133.5 335.5,-114.5 263.5,-114.5"/>
<text text-anchor="middle" x="299.5" y="-121.5" font-family="Helvetica,sans-Serif" font-size="10.00">DSPI Master</text>
</a>
</g>
</g>
<!-- Node13 -->
<g id="node16" class="node"><title>Node13</title>
<g id="a_node16"><a xlink:href="group__rpmsg__tty__rtos__transport.html" target="_top" xlink:title="Rpmsg_tty_rtos_transport">
<polygon fill="white" stroke="black" points="235,-76.5 235,-95.5 364,-95.5 364,-76.5 235,-76.5"/>
<text text-anchor="middle" x="299.5" y="-83.5" font-family="Helvetica,sans-Serif" font-size="10.00">Rpmsg_tty_rtos_transport</text>
</a>
</g>
</g>
<!-- Node0&#45;&gt;Node8 -->
<g id="edge8" class="edge"><title>Node0&#45;&gt;Node8</title>
<path fill="none" stroke="blueviolet" stroke-dasharray="5,2" d="M145.988,-323.79C146.35,-358.776 151.111,-480.001 198,-564 209.033,-583.765 215.403,-587.671 235,-599 244.763,-604.644 256.357,-608.751 266.949,-611.671"/>
<text text-anchor="middle" x="207.5" y="-590" font-family="Helvetica,sans-Serif" font-size="10.00">erpc</text>
</g>
<!-- Node0&#45;&gt;Node6 -->
<g id="edge6" class="edge"><title>Node0&#45;&gt;Node6</title>
<path fill="none" stroke="blueviolet" stroke-dasharray="5,2" d="M146.498,-323.518C148.491,-354.569 157.858,-454.949 198,-525 209.408,-544.907 215.218,-549.377 235,-561 246.906,-567.995 261.602,-572.607 273.858,-575.533"/>
<text text-anchor="middle" x="207.5" y="-552" font-family="Helvetica,sans-Serif" font-size="10.00">erpc</text>
</g>
<!-- Node0&#45;&gt;Node10 -->
<g id="edge10" class="edge"><title>Node0&#45;&gt;Node10</title>
<path fill="none" stroke="blueviolet" stroke-dasharray="5,2" d="M147.228,-323.607C151.043,-350.819 164.507,-430.061 198,-486 209.947,-505.953 215.03,-511.082 235,-523 241.818,-527.069 249.574,-530.325 257.267,-532.91"/>
<text text-anchor="middle" x="207.5" y="-513" font-family="Helvetica,sans-Serif" font-size="10.00">erpc</text>
</g>
<!-- Node0&#45;&gt;Node17 -->
<g id="edge17" class="edge"><title>Node0&#45;&gt;Node17</title>
<path fill="none" stroke="blueviolet" stroke-dasharray="5,2" d="M148.397,-323.541C154.347,-346.111 171.269,-404.036 198,-446 210.837,-466.152 214.646,-472.487 235,-485 247.45,-492.654 263.175,-497.39 275.862,-500.219"/>
<text text-anchor="middle" x="207.5" y="-474" font-family="Helvetica,sans-Serif" font-size="10.00">erpc</text>
</g>
<!-- Node0&#45;&gt;Node2 -->
<g id="edge2" class="edge"><title>Node0&#45;&gt;Node2</title>
<path fill="none" stroke="blueviolet" stroke-dasharray="5,2" d="M149.106,-323.513C157.904,-348.759 185.615,-417.527 235,-447 248.537,-455.079 265.771,-459.953 278.869,-462.738"/>
<text text-anchor="middle" x="207.5" y="-434" font-family="Helvetica,sans-Serif" font-size="10.00">erpc</text>
</g>
<!-- Node0&#45;&gt;Node3 -->
<g id="edge3" class="edge"><title>Node0&#45;&gt;Node3</title>
<path fill="none" stroke="blueviolet" stroke-dasharray="5,2" d="M152.003,-323.649C164.703,-343.185 196.33,-387.394 235,-409 245.246,-414.725 257.409,-418.904 268.333,-421.861"/>
<text text-anchor="middle" x="207.5" y="-398" font-family="Helvetica,sans-Serif" font-size="10.00">erpc</text>
</g>
<!-- Node0&#45;&gt;Node14 -->
<g id="edge14" class="edge"><title>Node0&#45;&gt;Node14</title>
<path fill="none" stroke="blueviolet" stroke-dasharray="5,2" d="M158.3,-323.545C174.885,-336.014 205.726,-357.806 235,-371 245.701,-375.823 257.955,-379.819 268.826,-382.881"/>
<text text-anchor="middle" x="207.5" y="-364" font-family="Helvetica,sans-Serif" font-size="10.00">erpc</text>
</g>
<!-- Node0&#45;&gt;Node4 -->
<g id="edge4" class="edge"><title>Node0&#45;&gt;Node4</title>
<path fill="none" stroke="blueviolet" stroke-dasharray="5,2" d="M178.1,-323.563C184.665,-325.434 191.541,-327.331 198,-329 224.168,-335.763 254.431,-342.55 274.855,-346.979"/>
<text text-anchor="middle" x="207.5" y="-336" font-family="Helvetica,sans-Serif" font-size="10.00">erpc</text>
</g>
<!-- Node0&#45;&gt;Node16 -->
<g id="edge16" class="edge"><title>Node0&#45;&gt;Node16</title>
<path fill="none" stroke="blueviolet" stroke-dasharray="5,2" d="M180.224,-314C207.096,-314 244.095,-314 269.517,-314"/>
<text text-anchor="middle" x="207.5" y="-317" font-family="Helvetica,sans-Serif" font-size="10.00">erpc</text>
</g>
<!-- Node0&#45;&gt;Node18 -->
<g id="edge18" class="edge"><title>Node0&#45;&gt;Node18</title>
<path fill="none" stroke="blueviolet" stroke-dasharray="5,2" d="M178.1,-304.437C184.665,-302.566 191.541,-300.669 198,-299 218.796,-293.626 242.178,-288.236 261.152,-284.026"/>
<text text-anchor="middle" x="207.5" y="-302" font-family="Helvetica,sans-Serif" font-size="10.00">erpc</text>
</g>
<!-- Node0&#45;&gt;Node15 -->
<g id="edge15" class="edge"><title>Node0&#45;&gt;Node15</title>
<path fill="none" stroke="blueviolet" stroke-dasharray="5,2" d="M158.3,-304.455C174.885,-291.986 205.726,-270.194 235,-257 245.071,-252.461 256.519,-248.654 266.894,-245.669"/>
<text text-anchor="middle" x="207.5" y="-280" font-family="Helvetica,sans-Serif" font-size="10.00">erpc</text>
</g>
<!-- Node0&#45;&gt;Node5 -->
<g id="edge5" class="edge"><title>Node0&#45;&gt;Node5</title>
<path fill="none" stroke="blueviolet" stroke-dasharray="5,2" d="M152.003,-304.351C164.703,-284.815 196.33,-240.606 235,-219 248.16,-211.647 264.479,-206.844 277.279,-203.907"/>
<text text-anchor="middle" x="207.5" y="-250" font-family="Helvetica,sans-Serif" font-size="10.00">erpc</text>
</g>
<!-- Node0&#45;&gt;Node9 -->
<g id="edge9" class="edge"><title>Node0&#45;&gt;Node9</title>
<path fill="none" stroke="blueviolet" stroke-dasharray="5,2" d="M149.106,-304.487C157.904,-279.241 185.615,-210.473 235,-181 244.684,-175.221 256.259,-171.082 266.858,-168.174"/>
<text text-anchor="middle" x="207.5" y="-216" font-family="Helvetica,sans-Serif" font-size="10.00">erpc</text>
</g>
<!-- Node0&#45;&gt;Node7 -->
<g id="edge7" class="edge"><title>Node0&#45;&gt;Node7</title>
<path fill="none" stroke="blueviolet" stroke-dasharray="5,2" d="M148.397,-304.459C154.347,-281.889 171.269,-223.964 198,-182 210.837,-161.848 214.646,-155.513 235,-143 243.626,-137.697 253.826,-133.794 263.497,-130.956"/>
<text text-anchor="middle" x="207.5" y="-185" font-family="Helvetica,sans-Serif" font-size="10.00">erpc</text>
</g>
<!-- Node0&#45;&gt;Node13 -->
<g id="edge13" class="edge"><title>Node0&#45;&gt;Node13</title>
<path fill="none" stroke="blueviolet" stroke-dasharray="5,2" d="M147.228,-304.393C151.043,-277.181 164.507,-197.939 198,-142 209.947,-122.047 215.03,-116.918 235,-105 241.423,-101.167 248.678,-98.0553 255.928,-95.5461"/>
<text text-anchor="middle" x="207.5" y="-145" font-family="Helvetica,sans-Serif" font-size="10.00">erpc</text>
</g>
<!-- Node11 -->
<g id="node18" class="node"><title>Node11</title>
<g id="a_node18"><a xlink:href="group__rpmsg__lite__rtos__transport.html" target="_top" xlink:title="RPMsg&#45;Lite zero copy transport using RTOS API. ">
<polygon fill="white" stroke="black" points="251,-38.5 251,-57.5 348,-57.5 348,-38.5 251,-38.5"/>
<text text-anchor="middle" x="299.5" y="-45.5" font-family="Helvetica,sans-Serif" font-size="10.00">RPMsg&#45;Lite RTOS</text>
</a>
</g>
</g>
<!-- Node0&#45;&gt;Node11 -->
<g id="edge11" class="edge"><title>Node0&#45;&gt;Node11</title>
<path fill="none" stroke="blueviolet" stroke-dasharray="5,2" d="M146.498,-304.482C148.491,-273.431 157.858,-173.051 198,-103 209.408,-83.093 215.218,-78.623 235,-67 241.548,-63.1526 248.941,-60.0262 256.307,-57.5046"/>
<text text-anchor="middle" x="207.5" y="-106" font-family="Helvetica,sans-Serif" font-size="10.00">erpc</text>
</g>
<!-- Node12 -->
<g id="node19" class="node"><title>Node12</title>
<g id="a_node19"><a xlink:href="group__rpmsg__lite__transport.html" target="_top" xlink:title="RPMsg&#45;Lite zero copy transport. ">
<polygon fill="white" stroke="black" points="265.5,-0.5 265.5,-19.5 333.5,-19.5 333.5,-0.5 265.5,-0.5"/>
<text text-anchor="middle" x="299.5" y="-7.5" font-family="Helvetica,sans-Serif" font-size="10.00">RPMsg&#45;Lite</text>
</a>
</g>
</g>
<!-- Node0&#45;&gt;Node12 -->
<g id="edge12" class="edge"><title>Node0&#45;&gt;Node12</title>
<path fill="none" stroke="blueviolet" stroke-dasharray="5,2" d="M145.988,-304.21C146.35,-269.224 151.111,-147.999 198,-64 209.033,-44.2347 215.403,-40.3295 235,-29 244.265,-23.6437 255.178,-19.6717 265.32,-16.7849"/>
<text text-anchor="middle" x="207.5" y="-67" font-family="Helvetica,sans-Serif" font-size="10.00">erpc</text>
</g>
</g>
</svg>
