<?xml version="1.0" encoding="UTF-8" standalone="no"?>
<!DOCTYPE svg PUBLIC "-//W3C//DTD SVG 1.1//EN"
 "http://www.w3.org/Graphics/SVG/1.1/DTD/svg11.dtd">
<!-- Generated by graphviz version 2.38.0 (20140413.2041)
 -->
<!-- Title: RPMsg&#45;Lite RTOS Pages: 1 -->
<svg width="457pt" height="928pt"
 viewBox="0.00 0.00 457.00 928.25" xmlns="http://www.w3.org/2000/svg" xmlns:xlink="http://www.w3.org/1999/xlink">
<g id="graph0" class="graph" transform="scale(1 1) rotate(0) translate(4 924.246)">
<title>RPMsg&#45;Lite RTOS</title>
<polygon fill="white" stroke="none" points="-4,4 -4,-924.246 453,-924.246 453,4 -4,4"/>
<!-- Node1 -->
<g id="node1" class="node"><title>Node1</title>
<g id="a_node1"><a xlink:href="group__transports.html" target="_top" xlink:title="Transport layer classes. ">
<polygon fill="white" stroke="black" points="0,-437.746 0,-456.746 89,-456.746 89,-437.746 0,-437.746"/>
<text text-anchor="middle" x="44.5" y="-444.746" font-family="Helvetica,sans-Serif" font-size="10.00">Transport Layers</text>
</a>
</g>
</g>
<!-- Node0 -->
<g id="node23" class="node"><title>Node0</title>
<polygon fill="#bfbfbf" stroke="black" points="126,-437.746 126,-456.746 223,-456.746 223,-437.746 126,-437.746"/>
<text text-anchor="middle" x="174.5" y="-444.746" font-family="Helvetica,sans-Serif" font-size="10.00">RPMsg&#45;Lite RTOS</text>
</g>
<!-- Node1&#45;&gt;Node0 -->
<g id="edge1" class="edge"><title>Node1&#45;&gt;Node0</title>
<path fill="none" stroke="black" d="M99.2923,-447.246C108.032,-447.246 117.033,-447.246 125.62,-447.246"/>
<polygon fill="black" stroke="black" points="99.1924,-443.746 89.1923,-447.246 99.1923,-450.746 99.1924,-443.746"/>
</g>
<!-- Node11 -->
<g id="node2" class="node"><title>Node11</title>
<g id="a_node2"><a xlink:href="group__dspi__slave__transport.html" target="_top" xlink:title="MCUXpressoSDK DSPI slave driver transport. ">
<polygon fill="white" stroke="black" points="361.5,-893.746 361.5,-912.746 426.5,-912.746 426.5,-893.746 361.5,-893.746"/>
<text text-anchor="middle" x="394" y="-900.746" font-family="Helvetica,sans-Serif" font-size="10.00">DSPI Slave</text>
</a>
</g>
</g>
<!-- Node12 -->
<g id="node3" class="node"><title>Node12</title>
<g id="a_node3"><a xlink:href="group__i2c__slave__transport.html" target="_top" xlink:title="MCUXpressoSDK I2C slave driver transport. ">
<polygon fill="white" stroke="black" points="365.5,-855.746 365.5,-874.746 422.5,-874.746 422.5,-855.746 365.5,-855.746"/>
<text text-anchor="middle" x="394" y="-862.746" font-family="Helvetica,sans-Serif" font-size="10.00">I2C Slave</text>
</a>
</g>
</g>
<!-- Node9 -->
<g id="node4" class="node"><title>Node9</title>
<g id="a_node4"><a xlink:href="group__port__threads.html" target="_top" xlink:title="Threading model. ">
<polygon fill="white" stroke="black" points="368.5,-817.746 368.5,-836.746 419.5,-836.746 419.5,-817.746 368.5,-817.746"/>
<text text-anchor="middle" x="394" y="-824.746" font-family="Helvetica,sans-Serif" font-size="10.00">Threads</text>
</a>
</g>
</g>
<!-- Node16 -->
<g id="node5" class="node"><title>Node16</title>
<g id="a_node5"><a xlink:href="group__mbox__transport.html" target="_top" xlink:title="Mbox_transport">
<polygon fill="white" stroke="black" points="352,-779.746 352,-798.746 436,-798.746 436,-779.746 352,-779.746"/>
<text text-anchor="middle" x="394" y="-786.746" font-family="Helvetica,sans-Serif" font-size="10.00">Mbox_transport</text>
</a>
</g>
</g>
<!-- Node17 -->
<g id="node6" class="node"><title>Node17</title>
<g id="a_node6"><a xlink:href="group__mu__transport.html" target="_top" xlink:title="Messaging Unit transport. ">
<polygon fill="white" stroke="black" points="352,-741.746 352,-760.746 436,-760.746 436,-741.746 352,-741.746"/>
<text text-anchor="middle" x="394" y="-748.746" font-family="Helvetica,sans-Serif" font-size="10.00">Messaging Unit</text>
</a>
</g>
</g>
<!-- Node23 -->
<g id="node7" class="node"><title>Node23</title>
<g id="a_node7"><a xlink:href="group__tcp__transport.html" target="_top" xlink:title="Simple TCP/IP transport. ">
<polygon fill="white" stroke="black" points="370.5,-703.746 370.5,-722.746 417.5,-722.746 417.5,-703.746 370.5,-703.746"/>
<text text-anchor="middle" x="394" y="-710.746" font-family="Helvetica,sans-Serif" font-size="10.00">TCP/IP</text>
</a>
</g>
</g>
<!-- Node3 -->
<g id="node8" class="node"><title>Node3</title>
<g id="a_node8"><a xlink:href="group__infra__client.html" target="_top" xlink:title="Client classes. ">
<polygon fill="white" stroke="black" points="373.5,-665.746 373.5,-684.746 414.5,-684.746 414.5,-665.746 373.5,-665.746"/>
<text text-anchor="middle" x="394" y="-672.746" font-family="Helvetica,sans-Serif" font-size="10.00">Client</text>
</a>
</g>
</g>
<!-- Node5 -->
<g id="node9" class="node"><title>Node5</title>
<g id="a_node9"><a xlink:href="group__infra__transport.html" target="_top" xlink:title="Superclasses for building transports. ">
<polygon fill="white" stroke="black" points="363,-627.746 363,-646.746 425,-646.746 425,-627.746 363,-627.746"/>
<text text-anchor="middle" x="394" y="-634.746" font-family="Helvetica,sans-Serif" font-size="10.00">Transports</text>
</a>
</g>
</g>
<!-- Node19 -->
<g id="node10" class="node"><title>Node19</title>
<g id="a_node10"><a xlink:href="group__serial__transport.html" target="_top" xlink:title="POSIX and Win32 serial port transport. ">
<polygon fill="white" stroke="black" points="363.5,-589.746 363.5,-608.746 424.5,-608.746 424.5,-589.746 363.5,-589.746"/>
<text text-anchor="middle" x="394" y="-596.746" font-family="Helvetica,sans-Serif" font-size="10.00">Serial port</text>
</a>
</g>
</g>
<!-- Node6 -->
<g id="node11" class="node"><title>Node6</title>
<g id="a_node11"><a xlink:href="group__infra__utility.html" target="_top" xlink:title="Utility code used by the infrastructure. ">
<polygon fill="white" stroke="black" points="369.5,-551.746 369.5,-570.746 418.5,-570.746 418.5,-551.746 369.5,-551.746"/>
<text text-anchor="middle" x="394" y="-558.746" font-family="Helvetica,sans-Serif" font-size="10.00">Utilities</text>
</a>
</g>
</g>
<!-- Node21 -->
<g id="node12" class="node"><title>Node21</title>
<g id="a_node12"><a xlink:href="group__spi__slave__transport.html" target="_top" xlink:title="MCUXpressoSDK SPI slave driver transport. ">
<polygon fill="white" stroke="black" points="364.5,-513.746 364.5,-532.746 423.5,-532.746 423.5,-513.746 364.5,-513.746"/>
<text text-anchor="middle" x="394" y="-520.746" font-family="Helvetica,sans-Serif" font-size="10.00">SPI Slave</text>
</a>
</g>
</g>
<!-- Node24 -->
<g id="node13" class="node"><title>Node24</title>
<g id="a_node13"><a xlink:href="group__uart__transport.html" target="_top" xlink:title="CMSIS UART driver transport. ">
<polygon fill="white" stroke="black" points="356,-475.746 356,-494.746 432,-494.746 432,-475.746 356,-475.746"/>
<text text-anchor="middle" x="394" y="-482.746" font-family="Helvetica,sans-Serif" font-size="10.00">CMSIS UART</text>
</a>
</g>
</g>
<!-- Node22 -->
<g id="node14" class="node"><title>Node22</title>
<g id="a_node14"><a xlink:href="group__spidev__master__transport.html" target="_top" xlink:title="SPIdev Linux transport. ">
<polygon fill="white" stroke="black" points="341,-437.746 341,-456.746 447,-456.746 447,-437.746 341,-437.746"/>
<text text-anchor="middle" x="394" y="-444.746" font-family="Helvetica,sans-Serif" font-size="10.00">SPIdev Linux Master</text>
</a>
</g>
</g>
<!-- Node20 -->
<g id="node15" class="node"><title>Node20</title>
<g id="a_node15"><a xlink:href="group__spi__master__transport.html" target="_top" xlink:title="MCUXpressoSDK SPI master driver transport. ">
<polygon fill="white" stroke="black" points="361.5,-399.746 361.5,-418.746 426.5,-418.746 426.5,-399.746 361.5,-399.746"/>
<text text-anchor="middle" x="394" y="-406.746" font-family="Helvetica,sans-Serif" font-size="10.00">SPI Master</text>
</a>
</g>
</g>
<!-- Node18 -->
<g id="node16" class="node"><title>Node18</title>
<g id="a_node16"><a xlink:href="group__rpmsg__tty__rtos__transport.html" target="_top" xlink:title="RPMsg TTY RTOS transport. ">
<polygon fill="white" stroke="black" points="345,-361.746 345,-380.746 443,-380.746 443,-361.746 345,-361.746"/>
<text text-anchor="middle" x="394" y="-368.746" font-family="Helvetica,sans-Serif" font-size="10.00">RPMsg TTY RTOS</text>
</a>
</g>
</g>
<!-- Node7 -->
<g id="node17" class="node"><title>Node7</title>
<g id="a_node17"><a xlink:href="group__infra__server.html" target="_top" xlink:title="Server classes. ">
<polygon fill="white" stroke="black" points="372,-323.746 372,-342.746 416,-342.746 416,-323.746 372,-323.746"/>
<text text-anchor="middle" x="394" y="-330.746" font-family="Helvetica,sans-Serif" font-size="10.00">Server</text>
</a>
</g>
</g>
<!-- Node14 -->
<g id="node18" class="node"><title>Node14</title>
<g id="a_node18"><a xlink:href="group__lpi2c__slave__transport.html" target="_top" xlink:title="Lpi2c_slave_transport">
<polygon fill="white" stroke="black" points="339,-285.746 339,-304.746 449,-304.746 449,-285.746 339,-285.746"/>
<text text-anchor="middle" x="394" y="-292.746" font-family="Helvetica,sans-Serif" font-size="10.00">Lpi2c_slave_transport</text>
</a>
</g>
</g>
<!-- Node13 -->
<g id="node19" class="node"><title>Node13</title>
<g id="a_node19"><a xlink:href="group__itbp__transport.html" target="_top" xlink:title="Simple inter&#45;thread communications transport. ">
<polygon fill="white" stroke="black" points="361.5,-247.746 361.5,-266.746 426.5,-266.746 426.5,-247.746 361.5,-247.746"/>
<text text-anchor="middle" x="394" y="-254.746" font-family="Helvetica,sans-Serif" font-size="10.00">Inter&#45;thread</text>
</a>
</g>
</g>
<!-- Node10 -->
<g id="node20" class="node"><title>Node10</title>
<g id="a_node20"><a xlink:href="group__dspi__master__transport.html" target="_top" xlink:title="MCUXpressoSDK DSPI master driver transport. ">
<polygon fill="white" stroke="black" points="358,-209.746 358,-228.746 430,-228.746 430,-209.746 358,-209.746"/>
<text text-anchor="middle" x="394" y="-216.746" font-family="Helvetica,sans-Serif" font-size="10.00">DSPI Master</text>
</a>
</g>
</g>
<!-- Node25 -->
<g id="node21" class="node"><title>Node25</title>
<g id="a_node21"><a xlink:href="group___u_s_b___c_d_c__transport.html" target="_top" xlink:title="USB CDC transport. ">
<polygon fill="white" stroke="black" points="364,-171.746 364,-190.746 424,-190.746 424,-171.746 364,-171.746"/>
<text text-anchor="middle" x="394" y="-178.746" font-family="Helvetica,sans-Serif" font-size="10.00">USB CDC</text>
</a>
</g>
</g>
<!-- Node4 -->
<g id="node22" class="node"><title>Node4</title>
<g id="a_node22"><a xlink:href="group__infra__codec.html" target="_top" xlink:title="Classes used for message serialization. ">
<polygon fill="white" stroke="black" points="359,-133.746 359,-152.746 429,-152.746 429,-133.746 359,-133.746"/>
<text text-anchor="middle" x="394" y="-140.746" font-family="Helvetica,sans-Serif" font-size="10.00">Serialization</text>
</a>
</g>
</g>
<!-- Node0&#45;&gt;Node11 -->
<g id="edge11" class="edge"><title>Node0&#45;&gt;Node11</title>
<path fill="none" stroke="blueviolet" stroke-dasharray="5,2" d="M175.466,-457.079C175.477,-515.755 178.578,-819.201 241,-881.246 272.393,-912.449 326.985,-912.436 361.489,-908.57"/>
<text text-anchor="middle" x="281" y="-912.246" font-family="Helvetica,sans-Serif" font-size="10.00">erpc</text>
</g>
<!-- Node0&#45;&gt;Node12 -->
<g id="edge12" class="edge"><title>Node0&#45;&gt;Node12</title>
<path fill="none" stroke="blueviolet" stroke-dasharray="5,2" d="M175.657,-456.815C176.754,-511.409 185,-783.03 241,-839.246 273.593,-871.964 331.276,-872.395 365.438,-869.195"/>
<text text-anchor="middle" x="281" y="-872.246" font-family="Helvetica,sans-Serif" font-size="10.00">erpc</text>
</g>
<!-- Node0&#45;&gt;Node9 -->
<g id="edge9" class="edge"><title>Node0&#45;&gt;Node9</title>
<path fill="none" stroke="blueviolet" stroke-dasharray="5,2" d="M175.805,-457.018C177.648,-509.268 189.014,-755.16 241,-805.246 258.714,-822.312 329.846,-826.206 368.198,-827.05"/>
<text text-anchor="middle" x="281" y="-827.246" font-family="Helvetica,sans-Serif" font-size="10.00">erpc</text>
</g>
<!-- Node0&#45;&gt;Node16 -->
<g id="edge16" class="edge"><title>Node0&#45;&gt;Node16</title>
<path fill="none" stroke="blueviolet" stroke-dasharray="5,2" d="M176.08,-456.757C179.195,-504.564 195.521,-718.077 241,-762.246 270.032,-790.442 317.699,-794.769 351.916,-793.576"/>
<text text-anchor="middle" x="281" y="-795.246" font-family="Helvetica,sans-Serif" font-size="10.00">erpc</text>
</g>
<!-- Node0&#45;&gt;Node17 -->
<g id="edge17" class="edge"><title>Node0&#45;&gt;Node17</title>
<path fill="none" stroke="blueviolet" stroke-dasharray="5,2" d="M176.317,-456.967C180.319,-502.142 199.364,-690.987 241,-729.246 256.756,-743.724 312.502,-748.696 351.901,-750.39"/>
<text text-anchor="middle" x="281" y="-750.246" font-family="Helvetica,sans-Serif" font-size="10.00">erpc</text>
</g>
<!-- Node0&#45;&gt;Node23 -->
<g id="edge24" class="edge"><title>Node0&#45;&gt;Node23</title>
<path fill="none" stroke="blueviolet" stroke-dasharray="5,2" d="M176.755,-456.796C182.267,-497.262 205.64,-653.988 241,-686.246 276.74,-718.85 337.646,-718.9 370.462,-716.094"/>
<text text-anchor="middle" x="281" y="-718.246" font-family="Helvetica,sans-Serif" font-size="10.00">erpc</text>
</g>
<!-- Node0&#45;&gt;Node3 -->
<g id="edge3" class="edge"><title>Node0&#45;&gt;Node3</title>
<path fill="none" stroke="blueviolet" stroke-dasharray="5,2" d="M175.27,-456.922C175.05,-490.208 179.176,-600.818 241,-653.246 260.624,-669.888 337.052,-673.941 373.48,-674.928"/>
<text text-anchor="middle" x="281" y="-674.246" font-family="Helvetica,sans-Serif" font-size="10.00">erpc</text>
</g>
<!-- Node0&#45;&gt;Node5 -->
<g id="edge5" class="edge"><title>Node0&#45;&gt;Node5</title>
<path fill="none" stroke="blueviolet" stroke-dasharray="5,2" d="M176.165,-456.968C178.697,-485.816 190.35,-571.458 241,-612.246 275.681,-640.174 329.547,-642.349 362.972,-640.456"/>
<text text-anchor="middle" x="281" y="-642.246" font-family="Helvetica,sans-Serif" font-size="10.00">erpc</text>
</g>
<!-- Node0&#45;&gt;Node19 -->
<g id="edge20" class="edge"><title>Node0&#45;&gt;Node19</title>
<path fill="none" stroke="blueviolet" stroke-dasharray="5,2" d="M177.713,-457.039C183.563,-480.522 201.754,-540.24 241,-569.246 277.016,-595.865 330.48,-600.548 363.461,-600.57"/>
<text text-anchor="middle" x="281" y="-600.246" font-family="Helvetica,sans-Serif" font-size="10.00">erpc</text>
</g>
<!-- Node0&#45;&gt;Node6 -->
<g id="edge6" class="edge"><title>Node0&#45;&gt;Node6</title>
<path fill="none" stroke="blueviolet" stroke-dasharray="5,2" d="M180.527,-456.888C189.95,-473.951 211.967,-509.35 241,-527.246 281.399,-552.148 337.843,-558.886 369.347,-560.661"/>
<text text-anchor="middle" x="281" y="-557.246" font-family="Helvetica,sans-Serif" font-size="10.00">erpc</text>
</g>
<!-- Node0&#45;&gt;Node21 -->
<g id="edge22" class="edge"><title>Node0&#45;&gt;Node21</title>
<path fill="none" stroke="blueviolet" stroke-dasharray="5,2" d="M187.289,-456.932C199.848,-466.764 220.68,-481.718 241,-490.246 281.96,-507.436 333.042,-516.16 364.325,-520.2"/>
<text text-anchor="middle" x="281" y="-515.246" font-family="Helvetica,sans-Serif" font-size="10.00">erpc</text>
</g>
<!-- Node0&#45;&gt;Node24 -->
<g id="edge25" class="edge"><title>Node0&#45;&gt;Node24</title>
<path fill="none" stroke="blueviolet" stroke-dasharray="5,2" d="M214.885,-456.769C223.468,-458.703 232.519,-460.636 241,-462.246 279.938,-469.64 324.848,-476.195 355.7,-480.396"/>
<text text-anchor="middle" x="281" y="-478.246" font-family="Helvetica,sans-Serif" font-size="10.00">erpc</text>
</g>
<!-- Node0&#45;&gt;Node22 -->
<g id="edge23" class="edge"><title>Node0&#45;&gt;Node22</title>
<path fill="none" stroke="blueviolet" stroke-dasharray="5,2" d="M223.231,-447.246C257.995,-447.246 305.058,-447.246 340.815,-447.246"/>
<text text-anchor="middle" x="281" y="-450.246" font-family="Helvetica,sans-Serif" font-size="10.00">erpc</text>
</g>
<!-- Node0&#45;&gt;Node20 -->
<g id="edge21" class="edge"><title>Node0&#45;&gt;Node20</title>
<path fill="none" stroke="blueviolet" stroke-dasharray="5,2" d="M214.885,-437.723C223.468,-435.789 232.519,-433.856 241,-432.246 282.429,-424.379 330.619,-417.462 361.443,-413.319"/>
<text text-anchor="middle" x="281" y="-435.246" font-family="Helvetica,sans-Serif" font-size="10.00">erpc</text>
</g>
<!-- Node0&#45;&gt;Node18 -->
<g id="edge19" class="edge"><title>Node0&#45;&gt;Node18</title>
<path fill="none" stroke="blueviolet" stroke-dasharray="5,2" d="M186.779,-437.668C199.243,-427.585 220.303,-411.985 241,-403.246 274.166,-389.243 314.077,-381.142 344.678,-376.596"/>
<text text-anchor="middle" x="281" y="-406.246" font-family="Helvetica,sans-Serif" font-size="10.00">erpc</text>
</g>
<!-- Node0&#45;&gt;Node7 -->
<g id="edge7" class="edge"><title>Node0&#45;&gt;Node7</title>
<path fill="none" stroke="blueviolet" stroke-dasharray="5,2" d="M180.293,-437.602C189.493,-420.161 211.371,-383.5 241,-365.246 282.443,-339.715 341.009,-334.278 371.95,-333.292"/>
<text text-anchor="middle" x="281" y="-368.246" font-family="Helvetica,sans-Serif" font-size="10.00">erpc</text>
</g>
<!-- Node0&#45;&gt;Node14 -->
<g id="edge14" class="edge"><title>Node0&#45;&gt;Node14</title>
<path fill="none" stroke="blueviolet" stroke-dasharray="5,2" d="M177.555,-437.615C183.145,-413.931 200.97,-352.647 241,-323.246 269.006,-302.676 307.574,-295.752 338.851,-293.932"/>
<text text-anchor="middle" x="281" y="-326.246" font-family="Helvetica,sans-Serif" font-size="10.00">erpc</text>
</g>
<!-- Node0&#45;&gt;Node13 -->
<g id="edge13" class="edge"><title>Node0&#45;&gt;Node13</title>
<path fill="none" stroke="blueviolet" stroke-dasharray="5,2" d="M176.099,-437.38C178.447,-408.106 189.64,-321.238 241,-280.246 275.21,-252.942 327.969,-251.182 361.472,-253.443"/>
<text text-anchor="middle" x="281" y="-283.246" font-family="Helvetica,sans-Serif" font-size="10.00">erpc</text>
</g>
<!-- Node0&#45;&gt;Node10 -->
<g id="edge10" class="edge"><title>Node0&#45;&gt;Node10</title>
<path fill="none" stroke="blueviolet" stroke-dasharray="5,2" d="M175.18,-437.389C174.668,-403.487 177.955,-290.889 241,-238.246 273.355,-211.229 323.913,-210.383 357.73,-213.658"/>
<text text-anchor="middle" x="281" y="-241.246" font-family="Helvetica,sans-Serif" font-size="10.00">erpc</text>
</g>
<!-- Node0&#45;&gt;Node25 -->
<g id="edge26" class="edge"><title>Node0&#45;&gt;Node25</title>
<path fill="none" stroke="blueviolet" stroke-dasharray="5,2" d="M176.593,-437.479C181.515,-395.351 203.052,-229.845 241,-197.246 274.915,-168.112 330.035,-170.398 363.753,-175.365"/>
<text text-anchor="middle" x="281" y="-200.246" font-family="Helvetica,sans-Serif" font-size="10.00">erpc</text>
</g>
<!-- Node0&#45;&gt;Node4 -->
<g id="edge4" class="edge"><title>Node0&#45;&gt;Node4</title>
<path fill="none" stroke="blueviolet" stroke-dasharray="5,2" d="M176.205,-437.512C179.755,-391.407 197.257,-195.631 241,-157.246 257.931,-142.389 319.404,-141.09 358.796,-141.894"/>
<text text-anchor="middle" x="281" y="-160.246" font-family="Helvetica,sans-Serif" font-size="10.00">erpc</text>
</g>
<!-- Node2 -->
<g id="node24" class="node"><title>Node2</title>
<g id="a_node24"><a xlink:href="group__rpmsg__lite__transport.html" target="_top" xlink:title="RPMsg&#45;Lite zero copy transport. ">
<polygon fill="white" stroke="black" points="360,-89.746 360,-108.746 428,-108.746 428,-89.746 360,-89.746"/>
<text text-anchor="middle" x="394" y="-96.746" font-family="Helvetica,sans-Serif" font-size="10.00">RPMsg&#45;Lite</text>
</a>
</g>
</g>
<!-- Node0&#45;&gt;Node2 -->
<g id="edge2" class="edge"><title>Node0&#45;&gt;Node2</title>
<path fill="none" stroke="orange" stroke-dasharray="5,2" d="M176.052,-437.556C179.026,-388.848 194.774,-171.309 241,-126.246 257.505,-110.156 320.447,-103.499 359.975,-100.862"/>
<text text-anchor="middle" x="281" y="-129.246" font-family="Helvetica,sans-Serif" font-size="10.00">erpc::RPMsgBase</text>
</g>
<!-- Node0&#45;&gt;Node2 -->
<g id="edge18" class="edge"><title>Node0&#45;&gt;Node2</title>
<path fill="none" stroke="blueviolet" stroke-dasharray="5,2" d="M175.678,-437.685C176.866,-385.484 185.43,-135.571 241,-89.246 278.173,-58.2569 339.873,-76.6826 372.038,-89.7108"/>
<text text-anchor="middle" x="281" y="-92.246" font-family="Helvetica,sans-Serif" font-size="10.00">erpc</text>
</g>
<!-- Node8 -->
<g id="node25" class="node"><title>Node8</title>
<g id="a_node25"><a xlink:href="group__port__setup__extensions.html" target="_top" xlink:title="Extension setup functions. ">
<polygon fill="white" stroke="black" points="349.5,-45.746 349.5,-64.746 438.5,-64.746 438.5,-45.746 349.5,-45.746"/>
<text text-anchor="middle" x="394" y="-52.746" font-family="Helvetica,sans-Serif" font-size="10.00">Extension Setup</text>
</a>
</g>
</g>
<!-- Node0&#45;&gt;Node8 -->
<g id="edge8" class="edge"><title>Node0&#45;&gt;Node8</title>
<path fill="none" stroke="blueviolet" stroke-dasharray="5,2" d="M175.535,-437.585C175.954,-382.489 181.061,-108.638 241,-57.246 274.859,-28.2149 330.256,-36.6423 363.998,-45.7232"/>
<text text-anchor="middle" x="281" y="-60.246" font-family="Helvetica,sans-Serif" font-size="10.00">erpc</text>
</g>
<!-- Node15 -->
<g id="node26" class="node"><title>Node15</title>
<g id="a_node26"><a xlink:href="group__lpspi__slave__transport.html" target="_top" xlink:title="Lpspi_slave_transport">
<polygon fill="white" stroke="black" points="339,-7.74602 339,-26.746 449,-26.746 449,-7.74602 339,-7.74602"/>
<text text-anchor="middle" x="394" y="-14.746" font-family="Helvetica,sans-Serif" font-size="10.00">Lpspi_slave_transport</text>
</a>
</g>
</g>
<!-- Node0&#45;&gt;Node15 -->
<g id="edge15" class="edge"><title>Node0&#45;&gt;Node15</title>
<path fill="none" stroke="blueviolet" stroke-dasharray="5,2" d="M175.397,-437.486C175.003,-379.265 176.154,-78.3813 241,-21.246 273.978,7.81074 328.356,0.763048 362.347,-7.71635"/>
<text text-anchor="middle" x="281" y="-24.246" font-family="Helvetica,sans-Serif" font-size="10.00">erpc</text>
</g>
</g>
</svg>
