<?xml version="1.0" encoding="UTF-8" standalone="no"?>
<!DOCTYPE svg PUBLIC "-//W3C//DTD SVG 1.1//EN"
 "http://www.w3.org/Graphics/SVG/1.1/DTD/svg11.dtd">
<!-- Generated by graphviz version 2.38.0 (20140413.2041)
 -->
<!-- Title: Client Pages: 1 -->
<svg width="324pt" height="902pt"
 viewBox="0.00 0.00 324.00 902.00" xmlns="http://www.w3.org/2000/svg" xmlns:xlink="http://www.w3.org/1999/xlink">
<g id="graph0" class="graph" transform="scale(1 1) rotate(0) translate(4 898)">
<title>Client</title>
<polygon fill="white" stroke="none" points="-4,4 -4,-898 320,-898 320,4 -4,4"/>
<!-- Node9 -->
<g id="node1" class="node"><title>Node9</title>
<g id="a_node1"><a xlink:href="group__dspi__slave__transport.html" target="_top" xlink:title="MCUXpressoSDK DSPI slave driver transport. ">
<polygon fill="white" stroke="black" points="228.5,-874.5 228.5,-893.5 293.5,-893.5 293.5,-874.5 228.5,-874.5"/>
<text text-anchor="middle" x="261" y="-881.5" font-family="Helvetica,sans-Serif" font-size="10.00">DSPI Slave</text>
</a>
</g>
</g>
<!-- Node10 -->
<g id="node2" class="node"><title>Node10</title>
<g id="a_node2"><a xlink:href="group__i2c__slave__transport.html" target="_top" xlink:title="MCUXpressoSDK I2C slave driver transport. ">
<polygon fill="white" stroke="black" points="232.5,-836.5 232.5,-855.5 289.5,-855.5 289.5,-836.5 232.5,-836.5"/>
<text text-anchor="middle" x="261" y="-843.5" font-family="Helvetica,sans-Serif" font-size="10.00">I2C Slave</text>
</a>
</g>
</g>
<!-- Node7 -->
<g id="node3" class="node"><title>Node7</title>
<g id="a_node3"><a xlink:href="group__port__threads.html" target="_top" xlink:title="Threading model. ">
<polygon fill="white" stroke="black" points="235.5,-798.5 235.5,-817.5 286.5,-817.5 286.5,-798.5 235.5,-798.5"/>
<text text-anchor="middle" x="261" y="-805.5" font-family="Helvetica,sans-Serif" font-size="10.00">Threads</text>
</a>
</g>
</g>
<!-- Node14 -->
<g id="node4" class="node"><title>Node14</title>
<g id="a_node4"><a xlink:href="group__mbox__transport.html" target="_top" xlink:title="Mbox_transport">
<polygon fill="white" stroke="black" points="219,-760.5 219,-779.5 303,-779.5 303,-760.5 219,-760.5"/>
<text text-anchor="middle" x="261" y="-767.5" font-family="Helvetica,sans-Serif" font-size="10.00">Mbox_transport</text>
</a>
</g>
</g>
<!-- Node15 -->
<g id="node5" class="node"><title>Node15</title>
<g id="a_node5"><a xlink:href="group__mu__transport.html" target="_top" xlink:title="Messaging Unit transport. ">
<polygon fill="white" stroke="black" points="219,-722.5 219,-741.5 303,-741.5 303,-722.5 219,-722.5"/>
<text text-anchor="middle" x="261" y="-729.5" font-family="Helvetica,sans-Serif" font-size="10.00">Messaging Unit</text>
</a>
</g>
</g>
<!-- Node23 -->
<g id="node6" class="node"><title>Node23</title>
<g id="a_node6"><a xlink:href="group__tcp__transport.html" target="_top" xlink:title="Simple TCP/IP transport. ">
<polygon fill="white" stroke="black" points="237.5,-684.5 237.5,-703.5 284.5,-703.5 284.5,-684.5 237.5,-684.5"/>
<text text-anchor="middle" x="261" y="-691.5" font-family="Helvetica,sans-Serif" font-size="10.00">TCP/IP</text>
</a>
</g>
</g>
<!-- Node1 -->
<g id="node7" class="node"><title>Node1</title>
<g id="a_node7"><a xlink:href="group__infra.html" target="_top" xlink:title="C++ core. ">
<polygon fill="white" stroke="black" points="0,-437.5 0,-456.5 73,-456.5 73,-437.5 0,-437.5"/>
<text text-anchor="middle" x="36.5" y="-444.5" font-family="Helvetica,sans-Serif" font-size="10.00">Infrastructure</text>
</a>
</g>
</g>
<!-- Node0 -->
<g id="node8" class="node"><title>Node0</title>
<polygon fill="#bfbfbf" stroke="black" points="110,-437.5 110,-456.5 151,-456.5 151,-437.5 110,-437.5"/>
<text text-anchor="middle" x="130.5" y="-444.5" font-family="Helvetica,sans-Serif" font-size="10.00">Client</text>
</g>
<!-- Node1&#45;&gt;Node0 -->
<g id="edge1" class="edge"><title>Node1&#45;&gt;Node0</title>
<path fill="none" stroke="black" d="M83.2184,-447C92.6461,-447 102.089,-447 109.965,-447"/>
<polygon fill="black" stroke="black" points="83.0696,-443.5 73.0696,-447 83.0696,-450.5 83.0696,-443.5"/>
</g>
<!-- Node0&#45;&gt;Node9 -->
<g id="edge9" class="edge"><title>Node0&#45;&gt;Node9</title>
<path fill="none" stroke="blueviolet" stroke-dasharray="5,2" d="M131.578,-456.525C132.13,-508.617 136.464,-759.203 169,-828 178.943,-849.023 186.319,-852.61 206,-865 212.813,-869.289 220.72,-872.766 228.348,-875.515"/>
<text text-anchor="middle" x="178.5" y="-855" font-family="Helvetica,sans-Serif" font-size="10.00">erpc</text>
</g>
<!-- Node0&#45;&gt;Node10 -->
<g id="edge10" class="edge"><title>Node0&#45;&gt;Node10</title>
<path fill="none" stroke="blueviolet" stroke-dasharray="5,2" d="M131.658,-456.593C132.601,-505.872 138.531,-730.613 169,-792 181.251,-816.683 210.388,-830.98 232.416,-838.588"/>
<text text-anchor="middle" x="178.5" y="-816" font-family="Helvetica,sans-Serif" font-size="10.00">erpc</text>
</g>
<!-- Node0&#45;&gt;Node7 -->
<g id="edge7" class="edge"><title>Node0&#45;&gt;Node7</title>
<path fill="none" stroke="blueviolet" stroke-dasharray="5,2" d="M131.828,-456.694C133.513,-502.689 142.181,-698.94 169,-753 179.197,-773.554 186.5,-776.91 206,-789 214.953,-794.551 225.75,-798.763 235.329,-801.793"/>
<text text-anchor="middle" x="178.5" y="-780" font-family="Helvetica,sans-Serif" font-size="10.00">erpc</text>
</g>
<!-- Node0&#45;&gt;Node14 -->
<g id="edge14" class="edge"><title>Node0&#45;&gt;Node14</title>
<path fill="none" stroke="blueviolet" stroke-dasharray="5,2" d="M132.012,-456.597C134.391,-498.837 145.267,-668.169 169,-715 179.372,-735.466 186.5,-738.91 206,-751 211.997,-754.718 218.821,-757.836 225.553,-760.399"/>
<text text-anchor="middle" x="178.5" y="-741" font-family="Helvetica,sans-Serif" font-size="10.00">erpc</text>
</g>
<!-- Node0&#45;&gt;Node15 -->
<g id="edge15" class="edge"><title>Node0&#45;&gt;Node15</title>
<path fill="none" stroke="blueviolet" stroke-dasharray="5,2" d="M130.985,-456.873C129.675,-490.063 128.805,-599.86 169,-677 179.602,-697.347 186.5,-700.91 206,-713 211.997,-716.718 218.821,-719.836 225.553,-722.399"/>
<text text-anchor="middle" x="178.5" y="-703" font-family="Helvetica,sans-Serif" font-size="10.00">erpc</text>
</g>
<!-- Node0&#45;&gt;Node23 -->
<g id="edge23" class="edge"><title>Node0&#45;&gt;Node23</title>
<path fill="none" stroke="blueviolet" stroke-dasharray="5,2" d="M131.407,-456.87C131.535,-486.41 134.896,-575.973 169,-639 179.919,-659.179 186.5,-662.91 206,-675 215.629,-680.97 227.391,-685.391 237.476,-688.458"/>
<text text-anchor="middle" x="178.5" y="-665" font-family="Helvetica,sans-Serif" font-size="10.00">erpc</text>
</g>
<!-- Node3 -->
<g id="node9" class="node"><title>Node3</title>
<g id="a_node9"><a xlink:href="group__infra__transport.html" target="_top" xlink:title="Superclasses for building transports. ">
<polygon fill="white" stroke="black" points="230,-646.5 230,-665.5 292,-665.5 292,-646.5 230,-646.5"/>
<text text-anchor="middle" x="261" y="-653.5" font-family="Helvetica,sans-Serif" font-size="10.00">Transports</text>
</a>
</g>
</g>
<!-- Node0&#45;&gt;Node3 -->
<g id="edge3" class="edge"><title>Node0&#45;&gt;Node3</title>
<path fill="none" stroke="blueviolet" stroke-dasharray="5,2" d="M132.069,-456.612C133.919,-481.754 141.355,-550.91 169,-600 180.411,-620.264 186.319,-624.61 206,-637 213.233,-641.554 221.7,-645.192 229.757,-648.016"/>
<text text-anchor="middle" x="178.5" y="-627" font-family="Helvetica,sans-Serif" font-size="10.00">erpc</text>
</g>
<!-- Node19 -->
<g id="node10" class="node"><title>Node19</title>
<g id="a_node10"><a xlink:href="group__serial__transport.html" target="_top" xlink:title="POSIX and Win32 serial port transport. ">
<polygon fill="white" stroke="black" points="230.5,-608.5 230.5,-627.5 291.5,-627.5 291.5,-608.5 230.5,-608.5"/>
<text text-anchor="middle" x="261" y="-615.5" font-family="Helvetica,sans-Serif" font-size="10.00">Serial port</text>
</a>
</g>
</g>
<!-- Node0&#45;&gt;Node19 -->
<g id="edge19" class="edge"><title>Node0&#45;&gt;Node19</title>
<path fill="none" stroke="blueviolet" stroke-dasharray="5,2" d="M133.277,-456.567C137.304,-476.656 148.413,-524.244 169,-559 181.342,-579.836 185.761,-585.701 206,-599 213.392,-603.857 222.171,-607.634 230.479,-610.494"/>
<text text-anchor="middle" x="178.5" y="-588" font-family="Helvetica,sans-Serif" font-size="10.00">erpc</text>
</g>
<!-- Node4 -->
<g id="node11" class="node"><title>Node4</title>
<g id="a_node11"><a xlink:href="group__infra__utility.html" target="_top" xlink:title="Utility code used by the infrastructure. ">
<polygon fill="white" stroke="black" points="236.5,-570.5 236.5,-589.5 285.5,-589.5 285.5,-570.5 236.5,-570.5"/>
<text text-anchor="middle" x="261" y="-577.5" font-family="Helvetica,sans-Serif" font-size="10.00">Utilities</text>
</a>
</g>
</g>
<!-- Node0&#45;&gt;Node4 -->
<g id="edge4" class="edge"><title>Node0&#45;&gt;Node4</title>
<path fill="none" stroke="blueviolet" stroke-dasharray="5,2" d="M134.651,-456.681C142.564,-479.287 165.583,-535.556 206,-561 215.252,-566.824 226.523,-571.151 236.37,-574.192"/>
<text text-anchor="middle" x="178.5" y="-547" font-family="Helvetica,sans-Serif" font-size="10.00">erpc</text>
</g>
<!-- Node21 -->
<g id="node12" class="node"><title>Node21</title>
<g id="a_node12"><a xlink:href="group__spi__slave__transport.html" target="_top" xlink:title="MCUXpressoSDK SPI slave driver transport. ">
<polygon fill="white" stroke="black" points="231.5,-532.5 231.5,-551.5 290.5,-551.5 290.5,-532.5 231.5,-532.5"/>
<text text-anchor="middle" x="261" y="-539.5" font-family="Helvetica,sans-Serif" font-size="10.00">SPI Slave</text>
</a>
</g>
</g>
<!-- Node0&#45;&gt;Node21 -->
<g id="edge21" class="edge"><title>Node0&#45;&gt;Node21</title>
<path fill="none" stroke="blueviolet" stroke-dasharray="5,2" d="M138.117,-456.549C149.86,-472.753 175.954,-505.569 206,-523 213.823,-527.538 222.907,-531.251 231.368,-534.152"/>
<text text-anchor="middle" x="178.5" y="-512" font-family="Helvetica,sans-Serif" font-size="10.00">erpc</text>
</g>
<!-- Node24 -->
<g id="node13" class="node"><title>Node24</title>
<g id="a_node13"><a xlink:href="group__uart__transport.html" target="_top" xlink:title="CMSIS UART driver transport. ">
<polygon fill="white" stroke="black" points="223,-494.5 223,-513.5 299,-513.5 299,-494.5 223,-494.5"/>
<text text-anchor="middle" x="261" y="-501.5" font-family="Helvetica,sans-Serif" font-size="10.00">CMSIS UART</text>
</a>
</g>
</g>
<!-- Node0&#45;&gt;Node24 -->
<g id="edge24" class="edge"><title>Node0&#45;&gt;Node24</title>
<path fill="none" stroke="blueviolet" stroke-dasharray="5,2" d="M146.953,-456.641C153.63,-460.655 161.595,-465.245 169,-469 188.927,-479.106 212.499,-488.096 230.658,-494.433"/>
<text text-anchor="middle" x="178.5" y="-479" font-family="Helvetica,sans-Serif" font-size="10.00">erpc</text>
</g>
<!-- Node22 -->
<g id="node14" class="node"><title>Node22</title>
<g id="a_node14"><a xlink:href="group__spidev__master__transport.html" target="_top" xlink:title="SPIdev Linux transport. ">
<polygon fill="white" stroke="black" points="208,-456.5 208,-475.5 314,-475.5 314,-456.5 208,-456.5"/>
<text text-anchor="middle" x="261" y="-463.5" font-family="Helvetica,sans-Serif" font-size="10.00">SPIdev Linux Master</text>
</a>
</g>
</g>
<!-- Node0&#45;&gt;Node22 -->
<g id="edge22" class="edge"><title>Node0&#45;&gt;Node22</title>
<path fill="none" stroke="blueviolet" stroke-dasharray="5,2" d="M151.016,-449.886C166.112,-452.118 187.747,-455.317 207.767,-458.277"/>
<text text-anchor="middle" x="178.5" y="-457" font-family="Helvetica,sans-Serif" font-size="10.00">erpc</text>
</g>
<!-- Node20 -->
<g id="node15" class="node"><title>Node20</title>
<g id="a_node15"><a xlink:href="group__spi__master__transport.html" target="_top" xlink:title="MCUXpressoSDK SPI master driver transport. ">
<polygon fill="white" stroke="black" points="228.5,-418.5 228.5,-437.5 293.5,-437.5 293.5,-418.5 228.5,-418.5"/>
<text text-anchor="middle" x="261" y="-425.5" font-family="Helvetica,sans-Serif" font-size="10.00">SPI Master</text>
</a>
</g>
</g>
<!-- Node0&#45;&gt;Node20 -->
<g id="edge20" class="edge"><title>Node0&#45;&gt;Node20</title>
<path fill="none" stroke="blueviolet" stroke-dasharray="5,2" d="M151.019,-438.442C156.712,-436.297 163.014,-434.251 169,-433 188.359,-428.953 210.509,-427.666 228.109,-427.408"/>
<text text-anchor="middle" x="178.5" y="-436" font-family="Helvetica,sans-Serif" font-size="10.00">erpc</text>
</g>
<!-- Node18 -->
<g id="node16" class="node"><title>Node18</title>
<g id="a_node16"><a xlink:href="group__rpmsg__tty__rtos__transport.html" target="_top" xlink:title="RPMsg TTY RTOS transport. ">
<polygon fill="white" stroke="black" points="212,-380.5 212,-399.5 310,-399.5 310,-380.5 212,-380.5"/>
<text text-anchor="middle" x="261" y="-387.5" font-family="Helvetica,sans-Serif" font-size="10.00">RPMsg TTY RTOS</text>
</a>
</g>
</g>
<!-- Node0&#45;&gt;Node18 -->
<g id="edge18" class="edge"><title>Node0&#45;&gt;Node18</title>
<path fill="none" stroke="blueviolet" stroke-dasharray="5,2" d="M140.872,-437.357C148.009,-430.514 158.386,-421.587 169,-416 182.522,-408.882 198.229,-403.505 212.748,-399.542"/>
<text text-anchor="middle" x="178.5" y="-419" font-family="Helvetica,sans-Serif" font-size="10.00">erpc</text>
</g>
<!-- Node5 -->
<g id="node17" class="node"><title>Node5</title>
<g id="a_node17"><a xlink:href="group__infra__server.html" target="_top" xlink:title="Server classes. ">
<polygon fill="white" stroke="black" points="239,-342.5 239,-361.5 283,-361.5 283,-342.5 239,-342.5"/>
<text text-anchor="middle" x="261" y="-349.5" font-family="Helvetica,sans-Serif" font-size="10.00">Server</text>
</a>
</g>
</g>
<!-- Node0&#45;&gt;Node5 -->
<g id="edge5" class="edge"><title>Node0&#45;&gt;Node5</title>
<path fill="none" stroke="blueviolet" stroke-dasharray="5,2" d="M136.547,-437.291C142.926,-425.7 154.804,-406.228 169,-393 188.903,-374.454 218.62,-363.235 238.628,-357.331"/>
<text text-anchor="middle" x="178.5" y="-396" font-family="Helvetica,sans-Serif" font-size="10.00">erpc</text>
</g>
<!-- Node12 -->
<g id="node18" class="node"><title>Node12</title>
<g id="a_node18"><a xlink:href="group__lpi2c__slave__transport.html" target="_top" xlink:title="Lpi2c_slave_transport">
<polygon fill="white" stroke="black" points="206,-304.5 206,-323.5 316,-323.5 316,-304.5 206,-304.5"/>
<text text-anchor="middle" x="261" y="-311.5" font-family="Helvetica,sans-Serif" font-size="10.00">Lpi2c_slave_transport</text>
</a>
</g>
</g>
<!-- Node0&#45;&gt;Node12 -->
<g id="edge12" class="edge"><title>Node0&#45;&gt;Node12</title>
<path fill="none" stroke="blueviolet" stroke-dasharray="5,2" d="M134.377,-437.445C139.525,-421.38 151.44,-388.422 169,-365 182.042,-347.605 187.194,-343.91 206,-333 212.361,-329.309 219.557,-326.165 226.573,-323.559"/>
<text text-anchor="middle" x="178.5" y="-368" font-family="Helvetica,sans-Serif" font-size="10.00">erpc</text>
</g>
<!-- Node11 -->
<g id="node19" class="node"><title>Node11</title>
<g id="a_node19"><a xlink:href="group__itbp__transport.html" target="_top" xlink:title="Simple inter&#45;thread communications transport. ">
<polygon fill="white" stroke="black" points="228.5,-266.5 228.5,-285.5 293.5,-285.5 293.5,-266.5 228.5,-266.5"/>
<text text-anchor="middle" x="261" y="-273.5" font-family="Helvetica,sans-Serif" font-size="10.00">Inter&#45;thread</text>
</a>
</g>
</g>
<!-- Node0&#45;&gt;Node11 -->
<g id="edge11" class="edge"><title>Node0&#45;&gt;Node11</title>
<path fill="none" stroke="blueviolet" stroke-dasharray="5,2" d="M132.939,-437.209C136.375,-416.187 146.506,-365.746 169,-330 181.056,-310.841 186.678,-306.793 206,-295 212.871,-290.806 220.801,-287.364 228.43,-284.618"/>
<text text-anchor="middle" x="178.5" y="-333" font-family="Helvetica,sans-Serif" font-size="10.00">erpc</text>
</g>
<!-- Node8 -->
<g id="node20" class="node"><title>Node8</title>
<g id="a_node20"><a xlink:href="group__dspi__master__transport.html" target="_top" xlink:title="MCUXpressoSDK DSPI master driver transport. ">
<polygon fill="white" stroke="black" points="225,-228.5 225,-247.5 297,-247.5 297,-228.5 225,-228.5"/>
<text text-anchor="middle" x="261" y="-235.5" font-family="Helvetica,sans-Serif" font-size="10.00">DSPI Master</text>
</a>
</g>
</g>
<!-- Node0&#45;&gt;Node8 -->
<g id="edge8" class="edge"><title>Node0&#45;&gt;Node8</title>
<path fill="none" stroke="blueviolet" stroke-dasharray="5,2" d="M132.015,-437.304C133.735,-411.946 140.884,-342.222 169,-293 180.38,-273.077 186.5,-269.09 206,-257 211.997,-253.282 218.821,-250.164 225.553,-247.601"/>
<text text-anchor="middle" x="178.5" y="-296" font-family="Helvetica,sans-Serif" font-size="10.00">erpc</text>
</g>
<!-- Node25 -->
<g id="node21" class="node"><title>Node25</title>
<g id="a_node21"><a xlink:href="group___u_s_b___c_d_c__transport.html" target="_top" xlink:title="USB CDC transport. ">
<polygon fill="white" stroke="black" points="231,-190.5 231,-209.5 291,-209.5 291,-190.5 231,-190.5"/>
<text text-anchor="middle" x="261" y="-197.5" font-family="Helvetica,sans-Serif" font-size="10.00">USB CDC</text>
</a>
</g>
</g>
<!-- Node0&#45;&gt;Node25 -->
<g id="edge25" class="edge"><title>Node0&#45;&gt;Node25</title>
<path fill="none" stroke="blueviolet" stroke-dasharray="5,2" d="M131.407,-437.13C131.535,-407.59 134.896,-318.027 169,-255 179.919,-234.821 186.5,-231.09 206,-219 213.602,-214.287 222.533,-210.539 230.919,-207.661"/>
<text text-anchor="middle" x="178.5" y="-258" font-family="Helvetica,sans-Serif" font-size="10.00">erpc</text>
</g>
<!-- Node2 -->
<g id="node22" class="node"><title>Node2</title>
<g id="a_node22"><a xlink:href="group__infra__codec.html" target="_top" xlink:title="Classes used for message serialization. ">
<polygon fill="white" stroke="black" points="226,-152.5 226,-171.5 296,-171.5 296,-152.5 226,-152.5"/>
<text text-anchor="middle" x="261" y="-159.5" font-family="Helvetica,sans-Serif" font-size="10.00">Serialization</text>
</a>
</g>
</g>
<!-- Node0&#45;&gt;Node2 -->
<g id="edge2" class="edge"><title>Node0&#45;&gt;Node2</title>
<path fill="none" stroke="blueviolet" stroke-dasharray="5,2" d="M130.985,-437.127C129.675,-403.937 128.805,-294.14 169,-217 179.602,-196.653 186.5,-193.09 206,-181 212.082,-177.229 219.014,-174.077 225.837,-171.493"/>
<text text-anchor="middle" x="178.5" y="-220" font-family="Helvetica,sans-Serif" font-size="10.00">erpc</text>
</g>
<!-- Node16 -->
<g id="node23" class="node"><title>Node16</title>
<g id="a_node23"><a xlink:href="group__rpmsg__lite__rtos__transport.html" target="_top" xlink:title="RPMsg&#45;Lite zero copy transport using RTOS API. ">
<polygon fill="white" stroke="black" points="212.5,-114.5 212.5,-133.5 309.5,-133.5 309.5,-114.5 212.5,-114.5"/>
<text text-anchor="middle" x="261" y="-121.5" font-family="Helvetica,sans-Serif" font-size="10.00">RPMsg&#45;Lite RTOS</text>
</a>
</g>
</g>
<!-- Node0&#45;&gt;Node16 -->
<g id="edge16" class="edge"><title>Node0&#45;&gt;Node16</title>
<path fill="none" stroke="blueviolet" stroke-dasharray="5,2" d="M132.012,-437.403C134.391,-395.163 145.267,-225.831 169,-179 179.372,-158.534 186.5,-155.09 206,-143 211.997,-139.282 218.821,-136.164 225.553,-133.601"/>
<text text-anchor="middle" x="178.5" y="-182" font-family="Helvetica,sans-Serif" font-size="10.00">erpc</text>
</g>
<!-- Node17 -->
<g id="node24" class="node"><title>Node17</title>
<g id="a_node24"><a xlink:href="group__rpmsg__lite__transport.html" target="_top" xlink:title="RPMsg&#45;Lite zero copy transport. ">
<polygon fill="white" stroke="black" points="227,-76.5 227,-95.5 295,-95.5 295,-76.5 227,-76.5"/>
<text text-anchor="middle" x="261" y="-83.5" font-family="Helvetica,sans-Serif" font-size="10.00">RPMsg&#45;Lite</text>
</a>
</g>
</g>
<!-- Node0&#45;&gt;Node17 -->
<g id="edge17" class="edge"><title>Node0&#45;&gt;Node17</title>
<path fill="none" stroke="blueviolet" stroke-dasharray="5,2" d="M131.828,-437.306C133.513,-391.311 142.181,-195.06 169,-141 179.197,-120.446 186.5,-117.09 206,-105 212.419,-101.02 219.787,-97.7283 226.973,-95.0674"/>
<text text-anchor="middle" x="178.5" y="-144" font-family="Helvetica,sans-Serif" font-size="10.00">erpc</text>
</g>
<!-- Node6 -->
<g id="node25" class="node"><title>Node6</title>
<g id="a_node25"><a xlink:href="group__port__setup__extensions.html" target="_top" xlink:title="Extension setup functions. ">
<polygon fill="white" stroke="black" points="216.5,-38.5 216.5,-57.5 305.5,-57.5 305.5,-38.5 216.5,-38.5"/>
<text text-anchor="middle" x="261" y="-45.5" font-family="Helvetica,sans-Serif" font-size="10.00">Extension Setup</text>
</a>
</g>
</g>
<!-- Node0&#45;&gt;Node6 -->
<g id="edge6" class="edge"><title>Node0&#45;&gt;Node6</title>
<path fill="none" stroke="blueviolet" stroke-dasharray="5,2" d="M131.658,-437.407C132.601,-388.128 138.531,-163.387 169,-102 180.19,-79.4562 205.464,-65.5761 226.544,-57.5433"/>
<text text-anchor="middle" x="178.5" y="-105" font-family="Helvetica,sans-Serif" font-size="10.00">erpc</text>
</g>
<!-- Node13 -->
<g id="node26" class="node"><title>Node13</title>
<g id="a_node26"><a xlink:href="group__lpspi__slave__transport.html" target="_top" xlink:title="Lpspi_slave_transport">
<polygon fill="white" stroke="black" points="206,-0.5 206,-19.5 316,-19.5 316,-0.5 206,-0.5"/>
<text text-anchor="middle" x="261" y="-7.5" font-family="Helvetica,sans-Serif" font-size="10.00">Lpspi_slave_transport</text>
</a>
</g>
</g>
<!-- Node0&#45;&gt;Node13 -->
<g id="edge13" class="edge"><title>Node0&#45;&gt;Node13</title>
<path fill="none" stroke="blueviolet" stroke-dasharray="5,2" d="M131.578,-437.475C132.13,-385.383 136.464,-134.797 169,-66 178.943,-44.9765 186.319,-41.3899 206,-29 211.971,-25.2407 218.784,-22.1052 225.512,-19.5366"/>
<text text-anchor="middle" x="178.5" y="-69" font-family="Helvetica,sans-Serif" font-size="10.00">erpc</text>
</g>
</g>
</svg>
