<?xml version="1.0" encoding="UTF-8" standalone="no"?>
<!DOCTYPE svg PUBLIC "-//W3C//DTD SVG 1.1//EN"
 "http://www.w3.org/Graphics/SVG/1.1/DTD/svg11.dtd">
<!-- Generated by graphviz version 2.38.0 (20140413.2041)
 -->
<!-- Title: TCP/IP Pages: 1 -->
<svg width="365pt" height="636pt"
 viewBox="0.00 0.00 365.00 636.00" xmlns="http://www.w3.org/2000/svg" xmlns:xlink="http://www.w3.org/1999/xlink">
<g id="graph0" class="graph" transform="scale(1 1) rotate(0) translate(4 632)">
<title>TCP/IP</title>
<polygon fill="white" stroke="none" points="-4,4 -4,-632 361,-632 361,4 -4,4"/>
<!-- Node1 -->
<g id="node1" class="node"><title>Node1</title>
<g id="a_node1"><a xlink:href="group__transports.html" target="_top" xlink:title="Transport layer classes. ">
<polygon fill="white" stroke="black" points="0,-304.5 0,-323.5 89,-323.5 89,-304.5 0,-304.5"/>
<text text-anchor="middle" x="44.5" y="-311.5" font-family="Helvetica,sans-Serif" font-size="10.00">Transport Layers</text>
</a>
</g>
</g>
<!-- Node0 -->
<g id="node5" class="node"><title>Node0</title>
<polygon fill="#bfbfbf" stroke="black" points="126,-304.5 126,-323.5 173,-323.5 173,-304.5 126,-304.5"/>
<text text-anchor="middle" x="149.5" y="-311.5" font-family="Helvetica,sans-Serif" font-size="10.00">TCP/IP</text>
</g>
<!-- Node1&#45;&gt;Node0 -->
<g id="edge1" class="edge"><title>Node1&#45;&gt;Node0</title>
<path fill="none" stroke="black" d="M99.3075,-314C108.657,-314 117.904,-314 125.815,-314"/>
<polygon fill="black" stroke="black" points="99.1813,-310.5 89.1813,-314 99.1812,-317.5 99.1813,-310.5"/>
</g>
<!-- Node9 -->
<g id="node2" class="node"><title>Node9</title>
<g id="a_node2"><a xlink:href="group__dspi__slave__transport.html" target="_top" xlink:title="Kinetis SDK DSPI slave driver transport. ">
<polygon fill="white" stroke="black" points="260,-608.5 260,-627.5 325,-627.5 325,-608.5 260,-608.5"/>
<text text-anchor="middle" x="292.5" y="-615.5" font-family="Helvetica,sans-Serif" font-size="10.00">DSPI Slave</text>
</a>
</g>
</g>
<!-- Node7 -->
<g id="node3" class="node"><title>Node7</title>
<g id="a_node3"><a xlink:href="group__port__threads.html" target="_top" xlink:title="Threading model. ">
<polygon fill="white" stroke="black" points="267,-570.5 267,-589.5 318,-589.5 318,-570.5 267,-570.5"/>
<text text-anchor="middle" x="292.5" y="-577.5" font-family="Helvetica,sans-Serif" font-size="10.00">Threads</text>
</a>
</g>
</g>
<!-- Node11 -->
<g id="node4" class="node"><title>Node11</title>
<g id="a_node4"><a xlink:href="group__mu__transport.html" target="_top" xlink:title="Messaging Unit transport. ">
<polygon fill="white" stroke="black" points="250.5,-532.5 250.5,-551.5 334.5,-551.5 334.5,-532.5 250.5,-532.5"/>
<text text-anchor="middle" x="292.5" y="-539.5" font-family="Helvetica,sans-Serif" font-size="10.00">Messaging Unit</text>
</a>
</g>
</g>
<!-- Node0&#45;&gt;Node9 -->
<g id="edge9" class="edge"><title>Node0&#45;&gt;Node9</title>
<path fill="none" stroke="blueviolet" stroke-dasharray="5,2" d="M151.223,-323.502C154.416,-363.834 168.114,-520.769 191,-564 201.591,-584.006 208.403,-587.671 228,-599 237.763,-604.644 249.357,-608.751 259.949,-611.671"/>
<text text-anchor="middle" x="200.5" y="-590" font-family="Helvetica,sans-Serif" font-size="10.00">erpc</text>
</g>
<!-- Node0&#45;&gt;Node7 -->
<g id="edge7" class="edge"><title>Node0&#45;&gt;Node7</title>
<path fill="none" stroke="blueviolet" stroke-dasharray="5,2" d="M150.354,-323.501C150.272,-354.499 153.126,-454.734 191,-525 201.886,-545.197 208.218,-549.377 228,-561 239.906,-567.995 254.602,-572.607 266.858,-575.533"/>
<text text-anchor="middle" x="200.5" y="-552" font-family="Helvetica,sans-Serif" font-size="10.00">erpc</text>
</g>
<!-- Node0&#45;&gt;Node11 -->
<g id="edge11" class="edge"><title>Node0&#45;&gt;Node11</title>
<path fill="none" stroke="blueviolet" stroke-dasharray="5,2" d="M150.939,-323.6C152.547,-350.793 159.794,-429.99 191,-486 202.319,-506.315 208.03,-511.082 228,-523 234.818,-527.069 242.574,-530.325 250.267,-532.91"/>
<text text-anchor="middle" x="200.5" y="-513" font-family="Helvetica,sans-Serif" font-size="10.00">erpc</text>
</g>
<!-- Node2 -->
<g id="node6" class="node"><title>Node2</title>
<g id="a_node6"><a xlink:href="group__infra__client.html" target="_top" xlink:title="Client classes. ">
<polygon fill="white" stroke="black" points="272,-494.5 272,-513.5 313,-513.5 313,-494.5 272,-494.5"/>
<text text-anchor="middle" x="292.5" y="-501.5" font-family="Helvetica,sans-Serif" font-size="10.00">Client</text>
</a>
</g>
</g>
<!-- Node0&#45;&gt;Node2 -->
<g id="edge2" class="edge"><title>Node0&#45;&gt;Node2</title>
<path fill="none" stroke="blueviolet" stroke-dasharray="5,2" d="M151.887,-323.56C155.485,-346.172 166.588,-404.182 191,-446 203.045,-466.634 207.646,-472.487 228,-485 241.43,-493.257 258.672,-498.117 271.799,-500.852"/>
<text text-anchor="middle" x="200.5" y="-474" font-family="Helvetica,sans-Serif" font-size="10.00">erpc</text>
</g>
<!-- Node4 -->
<g id="node7" class="node"><title>Node4</title>
<g id="a_node7"><a xlink:href="group__infra__transport.html" target="_top" xlink:title="Superclasses for building transports. ">
<polygon fill="white" stroke="black" points="261.5,-456.5 261.5,-475.5 323.5,-475.5 323.5,-456.5 261.5,-456.5"/>
<text text-anchor="middle" x="292.5" y="-463.5" font-family="Helvetica,sans-Serif" font-size="10.00">Transports</text>
</a>
</g>
</g>
<!-- Node0&#45;&gt;Node4 -->
<g id="edge4" class="edge"><title>Node0&#45;&gt;Node4</title>
<path fill="none" stroke="blueviolet" stroke-dasharray="5,2" d="M152.71,-323.637C159.144,-349.189 180.497,-418.65 228,-447 238.178,-453.074 250.445,-457.336 261.473,-460.261"/>
<text text-anchor="middle" x="200.5" y="-434" font-family="Helvetica,sans-Serif" font-size="10.00">erpc</text>
</g>
<!-- Node15 -->
<g id="node8" class="node"><title>Node15</title>
<g id="a_node8"><a xlink:href="group__serial__transport.html" target="_top" xlink:title="POSIX and Win32 serial port transport. ">
<polygon fill="white" stroke="black" points="262,-418.5 262,-437.5 323,-437.5 323,-418.5 262,-418.5"/>
<text text-anchor="middle" x="292.5" y="-425.5" font-family="Helvetica,sans-Serif" font-size="10.00">Serial port</text>
</a>
</g>
</g>
<!-- Node0&#45;&gt;Node15 -->
<g id="edge15" class="edge"><title>Node0&#45;&gt;Node15</title>
<path fill="none" stroke="blueviolet" stroke-dasharray="5,2" d="M155.094,-323.598C165.162,-343.445 191.24,-388.827 228,-409 238.391,-414.702 250.7,-418.892 261.701,-421.862"/>
<text text-anchor="middle" x="200.5" y="-398" font-family="Helvetica,sans-Serif" font-size="10.00">erpc</text>
</g>
<!-- Node5 -->
<g id="node9" class="node"><title>Node5</title>
<g id="a_node9"><a xlink:href="group__infra__utility.html" target="_top" xlink:title="Utility code used by the infrastructure. ">
<polygon fill="white" stroke="black" points="268,-380.5 268,-399.5 317,-399.5 317,-380.5 268,-380.5"/>
<text text-anchor="middle" x="292.5" y="-387.5" font-family="Helvetica,sans-Serif" font-size="10.00">Utilities</text>
</a>
</g>
</g>
<!-- Node0&#45;&gt;Node5 -->
<g id="edge5" class="edge"><title>Node0&#45;&gt;Node5</title>
<path fill="none" stroke="blueviolet" stroke-dasharray="5,2" d="M160.739,-323.743C168.687,-331.079 180.144,-341.175 191,-349 206.52,-360.187 210.481,-363.311 228,-371 240.75,-376.596 255.633,-381.147 267.785,-384.39"/>
<text text-anchor="middle" x="200.5" y="-365" font-family="Helvetica,sans-Serif" font-size="10.00">erpc</text>
</g>
<!-- Node17 -->
<g id="node10" class="node"><title>Node17</title>
<g id="a_node10"><a xlink:href="group__spi__slave__transport.html" target="_top" xlink:title="Kinetis SDK SPI slave driver transport. ">
<polygon fill="white" stroke="black" points="263,-342.5 263,-361.5 322,-361.5 322,-342.5 263,-342.5"/>
<text text-anchor="middle" x="292.5" y="-349.5" font-family="Helvetica,sans-Serif" font-size="10.00">SPI Slave</text>
</a>
</g>
</g>
<!-- Node0&#45;&gt;Node17 -->
<g id="edge17" class="edge"><title>Node0&#45;&gt;Node17</title>
<path fill="none" stroke="blueviolet" stroke-dasharray="5,2" d="M173.03,-322.934C178.835,-325.072 185.108,-327.243 191,-329 214.842,-336.111 242.422,-342.28 262.652,-346.435"/>
<text text-anchor="middle" x="200.5" y="-337" font-family="Helvetica,sans-Serif" font-size="10.00">erpc</text>
</g>
<!-- Node18 -->
<g id="node11" class="node"><title>Node18</title>
<g id="a_node11"><a xlink:href="group__uart__transport.html" target="_top" xlink:title="CMSIS UART driver transport. ">
<polygon fill="white" stroke="black" points="254.5,-304.5 254.5,-323.5 330.5,-323.5 330.5,-304.5 254.5,-304.5"/>
<text text-anchor="middle" x="292.5" y="-311.5" font-family="Helvetica,sans-Serif" font-size="10.00">CMSIS UART</text>
</a>
</g>
</g>
<!-- Node0&#45;&gt;Node18 -->
<g id="edge18" class="edge"><title>Node0&#45;&gt;Node18</title>
<path fill="none" stroke="blueviolet" stroke-dasharray="5,2" d="M173.154,-314C195.029,-314 228.54,-314 254.326,-314"/>
<text text-anchor="middle" x="200.5" y="-317" font-family="Helvetica,sans-Serif" font-size="10.00">erpc</text>
</g>
<!-- Node16 -->
<g id="node12" class="node"><title>Node16</title>
<g id="a_node12"><a xlink:href="group__spi__master__transport.html" target="_top" xlink:title="Kinetis SDK SPI master driver transport. ">
<polygon fill="white" stroke="black" points="260,-266.5 260,-285.5 325,-285.5 325,-266.5 260,-266.5"/>
<text text-anchor="middle" x="292.5" y="-273.5" font-family="Helvetica,sans-Serif" font-size="10.00">SPI Master</text>
</a>
</g>
</g>
<!-- Node0&#45;&gt;Node16 -->
<g id="edge16" class="edge"><title>Node0&#45;&gt;Node16</title>
<path fill="none" stroke="blueviolet" stroke-dasharray="5,2" d="M173.03,-305.066C178.835,-302.928 185.108,-300.757 191,-299 213.813,-292.196 240.048,-286.254 259.992,-282.115"/>
<text text-anchor="middle" x="200.5" y="-302" font-family="Helvetica,sans-Serif" font-size="10.00">erpc</text>
</g>
<!-- Node6 -->
<g id="node13" class="node"><title>Node6</title>
<g id="a_node13"><a xlink:href="group__infra__server.html" target="_top" xlink:title="Server classes. ">
<polygon fill="white" stroke="black" points="270.5,-228.5 270.5,-247.5 314.5,-247.5 314.5,-228.5 270.5,-228.5"/>
<text text-anchor="middle" x="292.5" y="-235.5" font-family="Helvetica,sans-Serif" font-size="10.00">Server</text>
</a>
</g>
</g>
<!-- Node0&#45;&gt;Node6 -->
<g id="edge6" class="edge"><title>Node0&#45;&gt;Node6</title>
<path fill="none" stroke="blueviolet" stroke-dasharray="5,2" d="M160.321,-304.201C168.23,-296.581 179.833,-285.997 191,-278 206.373,-266.991 210.61,-264.424 228,-257 241.758,-251.127 257.918,-246.319 270.493,-243.009"/>
<text text-anchor="middle" x="200.5" y="-281" font-family="Helvetica,sans-Serif" font-size="10.00">erpc</text>
</g>
<!-- Node10 -->
<g id="node14" class="node"><title>Node10</title>
<g id="a_node14"><a xlink:href="group__itbp__transport.html" target="_top" xlink:title="Simple inter&#45;thread communications transport. ">
<polygon fill="white" stroke="black" points="260,-190.5 260,-209.5 325,-209.5 325,-190.5 260,-190.5"/>
<text text-anchor="middle" x="292.5" y="-197.5" font-family="Helvetica,sans-Serif" font-size="10.00">Inter&#45;thread</text>
</a>
</g>
</g>
<!-- Node0&#45;&gt;Node10 -->
<g id="edge10" class="edge"><title>Node0&#45;&gt;Node10</title>
<path fill="none" stroke="blueviolet" stroke-dasharray="5,2" d="M155.069,-304.356C165.09,-284.422 191.083,-238.884 228,-219 237.827,-213.707 249.324,-209.697 259.814,-206.758"/>
<text text-anchor="middle" x="200.5" y="-251" font-family="Helvetica,sans-Serif" font-size="10.00">erpc</text>
</g>
<!-- Node8 -->
<g id="node15" class="node"><title>Node8</title>
<g id="a_node15"><a xlink:href="group__dspi__master__transport.html" target="_top" xlink:title="Kinetis SDK DSPI master driver transport. ">
<polygon fill="white" stroke="black" points="256.5,-152.5 256.5,-171.5 328.5,-171.5 328.5,-152.5 256.5,-152.5"/>
<text text-anchor="middle" x="292.5" y="-159.5" font-family="Helvetica,sans-Serif" font-size="10.00">DSPI Master</text>
</a>
</g>
</g>
<!-- Node0&#45;&gt;Node8 -->
<g id="edge8" class="edge"><title>Node0&#45;&gt;Node8</title>
<path fill="none" stroke="blueviolet" stroke-dasharray="5,2" d="M153.133,-304.276C158.366,-286.048 171.294,-245.972 191,-217 203.904,-198.029 208.218,-192.623 228,-181 236.632,-175.928 246.73,-172.11 256.302,-169.278"/>
<text text-anchor="middle" x="200.5" y="-220" font-family="Helvetica,sans-Serif" font-size="10.00">erpc</text>
</g>
<!-- Node14 -->
<g id="node16" class="node"><title>Node14</title>
<g id="a_node16"><a xlink:href="group__rpmsg__tty__rtos__transport.html" target="_top" xlink:title="Rpmsg_tty_rtos_transport">
<polygon fill="white" stroke="black" points="228,-114.5 228,-133.5 357,-133.5 357,-114.5 228,-114.5"/>
<text text-anchor="middle" x="292.5" y="-121.5" font-family="Helvetica,sans-Serif" font-size="10.00">Rpmsg_tty_rtos_transport</text>
</a>
</g>
</g>
<!-- Node0&#45;&gt;Node14 -->
<g id="edge14" class="edge"><title>Node0&#45;&gt;Node14</title>
<path fill="none" stroke="blueviolet" stroke-dasharray="5,2" d="M151.621,-304.404C154.687,-281.156 164.805,-220.601 191,-178 202.857,-158.718 208.403,-154.329 228,-143 234.575,-139.199 241.981,-136.095 249.351,-133.581"/>
<text text-anchor="middle" x="200.5" y="-181" font-family="Helvetica,sans-Serif" font-size="10.00">erpc</text>
</g>
<!-- Node3 -->
<g id="node17" class="node"><title>Node3</title>
<g id="a_node17"><a xlink:href="group__infra__codec.html" target="_top" xlink:title="Classes used for message serialization. ">
<polygon fill="white" stroke="black" points="257.5,-76.5 257.5,-95.5 327.5,-95.5 327.5,-76.5 257.5,-76.5"/>
<text text-anchor="middle" x="292.5" y="-83.5" font-family="Helvetica,sans-Serif" font-size="10.00">Serialization</text>
</a>
</g>
</g>
<!-- Node0&#45;&gt;Node3 -->
<g id="edge3" class="edge"><title>Node0&#45;&gt;Node3</title>
<path fill="none" stroke="blueviolet" stroke-dasharray="5,2" d="M150.776,-304.165C151.959,-276.319 158.19,-195.316 191,-139 202.242,-119.703 208.585,-116.038 228,-105 237.003,-99.8815 247.524,-96.0136 257.383,-93.1496"/>
<text text-anchor="middle" x="200.5" y="-142" font-family="Helvetica,sans-Serif" font-size="10.00">erpc</text>
</g>
<!-- Node12 -->
<g id="node18" class="node"><title>Node12</title>
<g id="a_node18"><a xlink:href="group__rpmsg__lite__rtos__transport.html" target="_top" xlink:title="RPMsg&#45;Lite zero copy transport using RTOS API. ">
<polygon fill="white" stroke="black" points="244,-38.5 244,-57.5 341,-57.5 341,-38.5 244,-38.5"/>
<text text-anchor="middle" x="292.5" y="-45.5" font-family="Helvetica,sans-Serif" font-size="10.00">RPMsg&#45;Lite RTOS</text>
</a>
</g>
</g>
<!-- Node0&#45;&gt;Node12 -->
<g id="edge12" class="edge"><title>Node0&#45;&gt;Node12</title>
<path fill="none" stroke="blueviolet" stroke-dasharray="5,2" d="M150.25,-304.366C149.847,-272.939 151.833,-171.39 191,-101 201.859,-81.4846 208.585,-78.0377 228,-67 234.702,-63.1895 242.246,-60.0722 249.732,-57.5461"/>
<text text-anchor="middle" x="200.5" y="-104" font-family="Helvetica,sans-Serif" font-size="10.00">erpc</text>
</g>
<!-- Node13 -->
<g id="node19" class="node"><title>Node13</title>
<g id="a_node19"><a xlink:href="group__rpmsg__lite__transport.html" target="_top" xlink:title="RPMsg&#45;Lite zero copy transport. ">
<polygon fill="white" stroke="black" points="258.5,-0.5 258.5,-19.5 326.5,-19.5 326.5,-0.5 258.5,-0.5"/>
<text text-anchor="middle" x="292.5" y="-7.5" font-family="Helvetica,sans-Serif" font-size="10.00">RPMsg&#45;Lite</text>
</a>
</g>
</g>
<!-- Node0&#45;&gt;Node13 -->
<g id="edge13" class="edge"><title>Node0&#45;&gt;Node13</title>
<path fill="none" stroke="blueviolet" stroke-dasharray="5,2" d="M151.203,-304.452C154.315,-263.923 167.725,-106.239 191,-63 201.585,-43.3349 208.585,-40.0377 228,-29 237.303,-23.7109 248.227,-19.7571 258.367,-16.8666"/>
<text text-anchor="middle" x="200.5" y="-66" font-family="Helvetica,sans-Serif" font-size="10.00">erpc</text>
</g>
</g>
</svg>
