<?xml version="1.0" encoding="UTF-8" standalone="no"?>
<!DOCTYPE svg PUBLIC "-//W3C//DTD SVG 1.1//EN"
 "http://www.w3.org/Graphics/SVG/1.1/DTD/svg11.dtd">
<!-- Generated by graphviz version 2.38.0 (20140413.2041)
 -->
<!-- Title: SPIdev Linux Master Pages: 1 -->
<svg width="393pt" height="750pt"
 viewBox="0.00 0.00 393.00 750.00" xmlns="http://www.w3.org/2000/svg" xmlns:xlink="http://www.w3.org/1999/xlink">
<g id="graph0" class="graph" transform="scale(1 1) rotate(0) translate(4 746)">
<title>SPIdev Linux Master</title>
<polygon fill="white" stroke="none" points="-4,4 -4,-746 389,-746 389,4 -4,4"/>
<!-- Node1 -->
<g id="node1" class="node"><title>Node1</title>
<g id="a_node1"><a xlink:href="group__transports.html" target="_top" xlink:title="Transport layer classes. ">
<polygon fill="white" stroke="black" points="0,-361.5 0,-380.5 89,-380.5 89,-361.5 0,-361.5"/>
<text text-anchor="middle" x="44.5" y="-368.5" font-family="Helvetica,sans-Serif" font-size="10.00">Transport Layers</text>
</a>
</g>
</g>
<!-- Node0 -->
<g id="node12" class="node"><title>Node0</title>
<polygon fill="#bfbfbf" stroke="black" points="126,-361.5 126,-380.5 232,-380.5 232,-361.5 126,-361.5"/>
<text text-anchor="middle" x="179" y="-368.5" font-family="Helvetica,sans-Serif" font-size="10.00">SPIdev Linux Master</text>
</g>
<!-- Node1&#45;&gt;Node0 -->
<g id="edge1" class="edge"><title>Node1&#45;&gt;Node0</title>
<path fill="none" stroke="black" d="M99.2581,-371C107.929,-371 116.896,-371 125.536,-371"/>
<polygon fill="black" stroke="black" points="99.2527,-367.5 89.2527,-371 99.2526,-374.5 99.2527,-367.5"/>
</g>
<!-- Node10 -->
<g id="node2" class="node"><title>Node10</title>
<g id="a_node2"><a xlink:href="group__dspi__slave__transport.html" target="_top" xlink:title="Kinetis SDK DSPI slave driver transport. ">
<polygon fill="white" stroke="black" points="303.5,-722.5 303.5,-741.5 368.5,-741.5 368.5,-722.5 303.5,-722.5"/>
<text text-anchor="middle" x="336" y="-729.5" font-family="Helvetica,sans-Serif" font-size="10.00">DSPI Slave</text>
</a>
</g>
</g>
<!-- Node8 -->
<g id="node3" class="node"><title>Node8</title>
<g id="a_node3"><a xlink:href="group__port__threads.html" target="_top" xlink:title="Threading model. ">
<polygon fill="white" stroke="black" points="310.5,-684.5 310.5,-703.5 361.5,-703.5 361.5,-684.5 310.5,-684.5"/>
<text text-anchor="middle" x="336" y="-691.5" font-family="Helvetica,sans-Serif" font-size="10.00">Threads</text>
</a>
</g>
</g>
<!-- Node12 -->
<g id="node4" class="node"><title>Node12</title>
<g id="a_node4"><a xlink:href="group__mu__transport.html" target="_top" xlink:title="Messaging Unit transport. ">
<polygon fill="white" stroke="black" points="294,-646.5 294,-665.5 378,-665.5 378,-646.5 294,-646.5"/>
<text text-anchor="middle" x="336" y="-653.5" font-family="Helvetica,sans-Serif" font-size="10.00">Messaging Unit</text>
</a>
</g>
</g>
<!-- Node19 -->
<g id="node5" class="node"><title>Node19</title>
<g id="a_node5"><a xlink:href="group__tcp__transport.html" target="_top" xlink:title="Simple TCP/IP transport. ">
<polygon fill="white" stroke="black" points="312.5,-608.5 312.5,-627.5 359.5,-627.5 359.5,-608.5 312.5,-608.5"/>
<text text-anchor="middle" x="336" y="-615.5" font-family="Helvetica,sans-Serif" font-size="10.00">TCP/IP</text>
</a>
</g>
</g>
<!-- Node2 -->
<g id="node6" class="node"><title>Node2</title>
<g id="a_node6"><a xlink:href="group__infra__client.html" target="_top" xlink:title="Client classes. ">
<polygon fill="white" stroke="black" points="315.5,-570.5 315.5,-589.5 356.5,-589.5 356.5,-570.5 315.5,-570.5"/>
<text text-anchor="middle" x="336" y="-577.5" font-family="Helvetica,sans-Serif" font-size="10.00">Client</text>
</a>
</g>
</g>
<!-- Node4 -->
<g id="node7" class="node"><title>Node4</title>
<g id="a_node7"><a xlink:href="group__infra__transport.html" target="_top" xlink:title="Superclasses for building transports. ">
<polygon fill="white" stroke="black" points="305,-532.5 305,-551.5 367,-551.5 367,-532.5 305,-532.5"/>
<text text-anchor="middle" x="336" y="-539.5" font-family="Helvetica,sans-Serif" font-size="10.00">Transports</text>
</a>
</g>
</g>
<!-- Node16 -->
<g id="node8" class="node"><title>Node16</title>
<g id="a_node8"><a xlink:href="group__serial__transport.html" target="_top" xlink:title="POSIX and Win32 serial port transport. ">
<polygon fill="white" stroke="black" points="305.5,-494.5 305.5,-513.5 366.5,-513.5 366.5,-494.5 305.5,-494.5"/>
<text text-anchor="middle" x="336" y="-501.5" font-family="Helvetica,sans-Serif" font-size="10.00">Serial port</text>
</a>
</g>
</g>
<!-- Node5 -->
<g id="node9" class="node"><title>Node5</title>
<g id="a_node9"><a xlink:href="group__infra__utility.html" target="_top" xlink:title="Utility code used by the infrastructure. ">
<polygon fill="white" stroke="black" points="311.5,-456.5 311.5,-475.5 360.5,-475.5 360.5,-456.5 311.5,-456.5"/>
<text text-anchor="middle" x="336" y="-463.5" font-family="Helvetica,sans-Serif" font-size="10.00">Utilities</text>
</a>
</g>
</g>
<!-- Node18 -->
<g id="node10" class="node"><title>Node18</title>
<g id="a_node10"><a xlink:href="group__spi__slave__transport.html" target="_top" xlink:title="Kinetis SDK SPI slave driver transport. ">
<polygon fill="white" stroke="black" points="306.5,-418.5 306.5,-437.5 365.5,-437.5 365.5,-418.5 306.5,-418.5"/>
<text text-anchor="middle" x="336" y="-425.5" font-family="Helvetica,sans-Serif" font-size="10.00">SPI Slave</text>
</a>
</g>
</g>
<!-- Node20 -->
<g id="node11" class="node"><title>Node20</title>
<g id="a_node11"><a xlink:href="group__uart__transport.html" target="_top" xlink:title="CMSIS UART driver transport. ">
<polygon fill="white" stroke="black" points="298,-380.5 298,-399.5 374,-399.5 374,-380.5 298,-380.5"/>
<text text-anchor="middle" x="336" y="-387.5" font-family="Helvetica,sans-Serif" font-size="10.00">CMSIS UART</text>
</a>
</g>
</g>
<!-- Node0&#45;&gt;Node10 -->
<g id="edge10" class="edge"><title>Node0&#45;&gt;Node10</title>
<path fill="none" stroke="blueviolet" stroke-dasharray="5,2" d="M180.259,-380.708C181.698,-420.243 190.995,-572.005 250,-677 261.241,-697.002 267.737,-700.536 287,-713 292.643,-716.652 299.1,-719.794 305.409,-722.413"/>
<text text-anchor="middle" x="259.5" y="-703" font-family="Helvetica,sans-Serif" font-size="10.00">erpc</text>
</g>
<!-- Node0&#45;&gt;Node8 -->
<g id="edge8" class="edge"><title>Node0&#45;&gt;Node8</title>
<path fill="none" stroke="blueviolet" stroke-dasharray="5,2" d="M180.733,-380.913C183.805,-417.482 198.011,-547.388 250,-638 261.574,-658.172 267.562,-662.233 287,-675 294.042,-679.625 302.384,-683.415 310.122,-686.36"/>
<text text-anchor="middle" x="259.5" y="-665" font-family="Helvetica,sans-Serif" font-size="10.00">erpc</text>
</g>
<!-- Node0&#45;&gt;Node12 -->
<g id="edge12" class="edge"><title>Node0&#45;&gt;Node12</title>
<path fill="none" stroke="blueviolet" stroke-dasharray="5,2" d="M181.269,-380.844C185.881,-413.937 203.967,-523.384 250,-600 261.977,-619.935 267.562,-624.233 287,-637 292.618,-640.69 299.065,-643.849 305.371,-646.471"/>
<text text-anchor="middle" x="259.5" y="-626" font-family="Helvetica,sans-Serif" font-size="10.00">erpc</text>
</g>
<!-- Node0&#45;&gt;Node19 -->
<g id="edge19" class="edge"><title>Node0&#45;&gt;Node19</title>
<path fill="none" stroke="blueviolet" stroke-dasharray="5,2" d="M182.061,-380.732C188.539,-409.867 210.441,-498.255 250,-561 262.572,-580.94 267.384,-585.928 287,-599 294.607,-604.07 303.773,-608.116 312.047,-611.149"/>
<text text-anchor="middle" x="259.5" y="-588" font-family="Helvetica,sans-Serif" font-size="10.00">erpc</text>
</g>
<!-- Node0&#45;&gt;Node2 -->
<g id="edge2" class="edge"><title>Node0&#45;&gt;Node2</title>
<path fill="none" stroke="blueviolet" stroke-dasharray="5,2" d="M183.265,-380.756C191.853,-405.647 216.72,-472.997 250,-522 263.423,-541.765 267.204,-547.622 287,-561 295.614,-566.821 306.277,-571.268 315.363,-574.391"/>
<text text-anchor="middle" x="259.5" y="-549" font-family="Helvetica,sans-Serif" font-size="10.00">erpc</text>
</g>
<!-- Node0&#45;&gt;Node4 -->
<g id="edge4" class="edge"><title>Node0&#45;&gt;Node4</title>
<path fill="none" stroke="blueviolet" stroke-dasharray="5,2" d="M183.82,-380.707C195.073,-407.955 230.873,-485.597 287,-523 292.519,-526.678 298.858,-529.817 305.082,-532.422"/>
<text text-anchor="middle" x="259.5" y="-510" font-family="Helvetica,sans-Serif" font-size="10.00">erpc</text>
</g>
<!-- Node0&#45;&gt;Node16 -->
<g id="edge16" class="edge"><title>Node0&#45;&gt;Node16</title>
<path fill="none" stroke="blueviolet" stroke-dasharray="5,2" d="M186.294,-380.512C201.176,-402.269 240.776,-456.017 287,-485 292.847,-488.666 299.519,-491.846 305.991,-494.5"/>
<text text-anchor="middle" x="259.5" y="-473" font-family="Helvetica,sans-Serif" font-size="10.00">erpc</text>
</g>
<!-- Node0&#45;&gt;Node5 -->
<g id="edge5" class="edge"><title>Node0&#45;&gt;Node5</title>
<path fill="none" stroke="blueviolet" stroke-dasharray="5,2" d="M191.577,-380.655C210.571,-396.157 249.952,-426.893 287,-447 294.562,-451.104 303.202,-454.802 311.049,-457.821"/>
<text text-anchor="middle" x="259.5" y="-439" font-family="Helvetica,sans-Serif" font-size="10.00">erpc</text>
</g>
<!-- Node0&#45;&gt;Node18 -->
<g id="edge18" class="edge"><title>Node0&#45;&gt;Node18</title>
<path fill="none" stroke="blueviolet" stroke-dasharray="5,2" d="M205.944,-380.541C234.556,-391.062 280.326,-407.894 308.972,-418.428"/>
<text text-anchor="middle" x="259.5" y="-405" font-family="Helvetica,sans-Serif" font-size="10.00">erpc</text>
</g>
<!-- Node0&#45;&gt;Node20 -->
<g id="edge20" class="edge"><title>Node0&#45;&gt;Node20</title>
<path fill="none" stroke="blueviolet" stroke-dasharray="5,2" d="M232.044,-377.38C253.503,-380.01 277.892,-383 297.544,-385.409"/>
<text text-anchor="middle" x="259.5" y="-384" font-family="Helvetica,sans-Serif" font-size="10.00">erpc</text>
</g>
<!-- Node17 -->
<g id="node13" class="node"><title>Node17</title>
<g id="a_node13"><a xlink:href="group__spi__master__transport.html" target="_top" xlink:title="Kinetis SDK SPI master driver transport. ">
<polygon fill="white" stroke="black" points="303.5,-342.5 303.5,-361.5 368.5,-361.5 368.5,-342.5 303.5,-342.5"/>
<text text-anchor="middle" x="336" y="-349.5" font-family="Helvetica,sans-Serif" font-size="10.00">SPI Master</text>
</a>
</g>
</g>
<!-- Node0&#45;&gt;Node17 -->
<g id="edge17" class="edge"><title>Node0&#45;&gt;Node17</title>
<path fill="none" stroke="blueviolet" stroke-dasharray="5,2" d="M222.787,-361.466C231.741,-359.746 241.15,-358.14 250,-357 267.594,-354.734 287.37,-353.494 303.417,-352.816"/>
<text text-anchor="middle" x="259.5" y="-360" font-family="Helvetica,sans-Serif" font-size="10.00">erpc</text>
</g>
<!-- Node15 -->
<g id="node14" class="node"><title>Node15</title>
<g id="a_node14"><a xlink:href="group__rpmsg__tty__rtos__transport.html" target="_top" xlink:title="RPMsg TTY RTOS transport. ">
<polygon fill="white" stroke="black" points="287,-304.5 287,-323.5 385,-323.5 385,-304.5 287,-304.5"/>
<text text-anchor="middle" x="336" y="-311.5" font-family="Helvetica,sans-Serif" font-size="10.00">RPMsg TTY RTOS</text>
</a>
</g>
</g>
<!-- Node0&#45;&gt;Node15 -->
<g id="edge15" class="edge"><title>Node0&#45;&gt;Node15</title>
<path fill="none" stroke="blueviolet" stroke-dasharray="5,2" d="M199.952,-361.397C213.815,-354.915 232.814,-346.408 250,-340 266.339,-333.908 284.815,-328.128 300.358,-323.572"/>
<text text-anchor="middle" x="259.5" y="-343" font-family="Helvetica,sans-Serif" font-size="10.00">erpc</text>
</g>
<!-- Node6 -->
<g id="node15" class="node"><title>Node6</title>
<g id="a_node15"><a xlink:href="group__infra__server.html" target="_top" xlink:title="Server classes. ">
<polygon fill="white" stroke="black" points="314,-266.5 314,-285.5 358,-285.5 358,-266.5 314,-266.5"/>
<text text-anchor="middle" x="336" y="-273.5" font-family="Helvetica,sans-Serif" font-size="10.00">Server</text>
</a>
</g>
</g>
<!-- Node0&#45;&gt;Node6 -->
<g id="edge6" class="edge"><title>Node0&#45;&gt;Node6</title>
<path fill="none" stroke="blueviolet" stroke-dasharray="5,2" d="M191.135,-361.336C209.815,-345.545 249.148,-314.063 287,-295 295.485,-290.727 305.173,-286.735 313.613,-283.524"/>
<text text-anchor="middle" x="259.5" y="-317" font-family="Helvetica,sans-Serif" font-size="10.00">erpc</text>
</g>
<!-- Node11 -->
<g id="node16" class="node"><title>Node11</title>
<g id="a_node16"><a xlink:href="group__itbp__transport.html" target="_top" xlink:title="Simple inter&#45;thread communications transport. ">
<polygon fill="white" stroke="black" points="303.5,-228.5 303.5,-247.5 368.5,-247.5 368.5,-228.5 303.5,-228.5"/>
<text text-anchor="middle" x="336" y="-235.5" font-family="Helvetica,sans-Serif" font-size="10.00">Inter&#45;thread</text>
</a>
</g>
</g>
<!-- Node0&#45;&gt;Node11 -->
<g id="edge11" class="edge"><title>Node0&#45;&gt;Node11</title>
<path fill="none" stroke="blueviolet" stroke-dasharray="5,2" d="M186.264,-361.441C201.084,-339.583 240.562,-285.639 287,-257 292.874,-253.378 299.557,-250.215 306.031,-247.564"/>
<text text-anchor="middle" x="259.5" y="-285" font-family="Helvetica,sans-Serif" font-size="10.00">erpc</text>
</g>
<!-- Node9 -->
<g id="node17" class="node"><title>Node9</title>
<g id="a_node17"><a xlink:href="group__dspi__master__transport.html" target="_top" xlink:title="Kinetis SDK DSPI master driver transport. ">
<polygon fill="white" stroke="black" points="300,-190.5 300,-209.5 372,-209.5 372,-190.5 300,-190.5"/>
<text text-anchor="middle" x="336" y="-197.5" font-family="Helvetica,sans-Serif" font-size="10.00">DSPI Master</text>
</a>
</g>
</g>
<!-- Node0&#45;&gt;Node9 -->
<g id="edge9" class="edge"><title>Node0&#45;&gt;Node9</title>
<path fill="none" stroke="blueviolet" stroke-dasharray="5,2" d="M183.795,-361.255C194.982,-333.907 230.625,-256.028 287,-219 292.618,-215.31 299.065,-212.151 305.371,-209.529"/>
<text text-anchor="middle" x="259.5" y="-251" font-family="Helvetica,sans-Serif" font-size="10.00">erpc</text>
</g>
<!-- Node21 -->
<g id="node18" class="node"><title>Node21</title>
<g id="a_node18"><a xlink:href="group___u_s_b___c_d_c__transport.html" target="_top" xlink:title="USB CDC transport. ">
<polygon fill="white" stroke="black" points="306,-152.5 306,-171.5 366,-171.5 366,-152.5 306,-152.5"/>
<text text-anchor="middle" x="336" y="-159.5" font-family="Helvetica,sans-Serif" font-size="10.00">USB CDC</text>
</a>
</g>
</g>
<!-- Node0&#45;&gt;Node21 -->
<g id="edge21" class="edge"><title>Node0&#45;&gt;Node21</title>
<path fill="none" stroke="blueviolet" stroke-dasharray="5,2" d="M183.213,-361.151C191.678,-336.031 216.282,-268.094 250,-219 263.345,-199.569 267.384,-194.072 287,-181 292.743,-177.173 299.373,-173.929 305.838,-171.264"/>
<text text-anchor="middle" x="259.5" y="-222" font-family="Helvetica,sans-Serif" font-size="10.00">erpc</text>
</g>
<!-- Node3 -->
<g id="node19" class="node"><title>Node3</title>
<g id="a_node19"><a xlink:href="group__infra__codec.html" target="_top" xlink:title="Classes used for message serialization. ">
<polygon fill="white" stroke="black" points="301,-114.5 301,-133.5 371,-133.5 371,-114.5 301,-114.5"/>
<text text-anchor="middle" x="336" y="-121.5" font-family="Helvetica,sans-Serif" font-size="10.00">Serialization</text>
</a>
</g>
</g>
<!-- Node0&#45;&gt;Node3 -->
<g id="edge3" class="edge"><title>Node0&#45;&gt;Node3</title>
<path fill="none" stroke="blueviolet" stroke-dasharray="5,2" d="M182.01,-361.191C188.346,-331.833 209.892,-242.803 250,-180 262.517,-160.4 267.562,-155.767 287,-143 292.618,-139.31 299.065,-136.151 305.371,-133.529"/>
<text text-anchor="middle" x="259.5" y="-183" font-family="Helvetica,sans-Serif" font-size="10.00">erpc</text>
</g>
<!-- Node13 -->
<g id="node20" class="node"><title>Node13</title>
<g id="a_node20"><a xlink:href="group__rpmsg__lite__rtos__transport.html" target="_top" xlink:title="RPMsg&#45;Lite zero copy transport using RTOS API. ">
<polygon fill="white" stroke="black" points="287.5,-76.5 287.5,-95.5 384.5,-95.5 384.5,-76.5 287.5,-76.5"/>
<text text-anchor="middle" x="336" y="-83.5" font-family="Helvetica,sans-Serif" font-size="10.00">RPMsg&#45;Lite RTOS</text>
</a>
</g>
</g>
<!-- Node0&#45;&gt;Node13 -->
<g id="edge13" class="edge"><title>Node0&#45;&gt;Node13</title>
<path fill="none" stroke="blueviolet" stroke-dasharray="5,2" d="M181.218,-361.088C185.669,-327.774 203.304,-217.632 250,-141 261.939,-121.407 267.737,-117.464 287,-105 292.643,-101.348 299.1,-98.2056 305.409,-95.5869"/>
<text text-anchor="middle" x="259.5" y="-144" font-family="Helvetica,sans-Serif" font-size="10.00">erpc</text>
</g>
<!-- Node14 -->
<g id="node21" class="node"><title>Node14</title>
<g id="a_node21"><a xlink:href="group__rpmsg__lite__transport.html" target="_top" xlink:title="RPMsg&#45;Lite zero copy transport. ">
<polygon fill="white" stroke="black" points="302,-38.5 302,-57.5 370,-57.5 370,-38.5 302,-38.5"/>
<text text-anchor="middle" x="336" y="-45.5" font-family="Helvetica,sans-Serif" font-size="10.00">RPMsg&#45;Lite</text>
</a>
</g>
</g>
<!-- Node0&#45;&gt;Node14 -->
<g id="edge14" class="edge"><title>Node0&#45;&gt;Node14</title>
<path fill="none" stroke="blueviolet" stroke-dasharray="5,2" d="M180.594,-361.468C183.227,-325.159 196.221,-192.976 250,-102 261.519,-82.5138 267.909,-79.1631 287,-67 292.745,-63.34 299.309,-60.1786 305.7,-57.5422"/>
<text text-anchor="middle" x="259.5" y="-105" font-family="Helvetica,sans-Serif" font-size="10.00">erpc</text>
</g>
<!-- Node7 -->
<g id="node22" class="node"><title>Node7</title>
<g id="a_node22"><a xlink:href="group__port__setup__extensions.html" target="_top" xlink:title="Extension setup functions. ">
<polygon fill="white" stroke="black" points="291.5,-0.5 291.5,-19.5 380.5,-19.5 380.5,-0.5 291.5,-0.5"/>
<text text-anchor="middle" x="336" y="-7.5" font-family="Helvetica,sans-Serif" font-size="10.00">Extension Setup</text>
</a>
</g>
</g>
<!-- Node0&#45;&gt;Node7 -->
<g id="edge7" class="edge"><title>Node0&#45;&gt;Node7</title>
<path fill="none" stroke="blueviolet" stroke-dasharray="5,2" d="M180.209,-361.237C181.456,-321.483 190.109,-168.923 250,-64 261.221,-44.341 267.909,-41.1631 287,-29 292.745,-25.34 299.309,-22.1786 305.7,-19.5422"/>
<text text-anchor="middle" x="259.5" y="-67" font-family="Helvetica,sans-Serif" font-size="10.00">erpc</text>
</g>
</g>
</svg>
