<?xml version="1.0" encoding="UTF-8" standalone="no"?>
<!DOCTYPE svg PUBLIC "-//W3C//DTD SVG 1.1//EN"
 "http://www.w3.org/Graphics/SVG/1.1/DTD/svg11.dtd">
<!-- Generated by graphviz version 2.38.0 (20140413.2041)
 -->
<!-- Title: Serial port Pages: 1 -->
<svg width="356pt" height="750pt"
 viewBox="0.00 0.00 356.00 750.00" xmlns="http://www.w3.org/2000/svg" xmlns:xlink="http://www.w3.org/1999/xlink">
<g id="graph0" class="graph" transform="scale(1 1) rotate(0) translate(4 746)">
<title>Serial port</title>
<polygon fill="white" stroke="none" points="-4,4 -4,-746 352,-746 352,4 -4,4"/>
<!-- Node1 -->
<g id="node1" class="node"><title>Node1</title>
<g id="a_node1"><a xlink:href="group__transports.html" target="_top" xlink:title="Transport layer classes. ">
<polygon fill="white" stroke="black" points="0,-361.5 0,-380.5 89,-380.5 89,-361.5 0,-361.5"/>
<text text-anchor="middle" x="44.5" y="-368.5" font-family="Helvetica,sans-Serif" font-size="10.00">Transport Layers</text>
</a>
</g>
</g>
<!-- Node0 -->
<g id="node8" class="node"><title>Node0</title>
<polygon fill="#bfbfbf" stroke="black" points="126,-361.5 126,-380.5 187,-380.5 187,-361.5 126,-361.5"/>
<text text-anchor="middle" x="156.5" y="-368.5" font-family="Helvetica,sans-Serif" font-size="10.00">Serial port</text>
</g>
<!-- Node1&#45;&gt;Node0 -->
<g id="edge1" class="edge"><title>Node1&#45;&gt;Node0</title>
<path fill="none" stroke="black" d="M99.4378,-371C108.486,-371 117.572,-371 125.717,-371"/>
<polygon fill="black" stroke="black" points="99.291,-367.5 89.291,-371 99.2909,-374.5 99.291,-367.5"/>
</g>
<!-- Node10 -->
<g id="node2" class="node"><title>Node10</title>
<g id="a_node2"><a xlink:href="group__dspi__slave__transport.html" target="_top" xlink:title="Kinetis SDK DSPI slave driver transport. ">
<polygon fill="white" stroke="black" points="262.5,-722.5 262.5,-741.5 327.5,-741.5 327.5,-722.5 262.5,-722.5"/>
<text text-anchor="middle" x="295" y="-729.5" font-family="Helvetica,sans-Serif" font-size="10.00">DSPI Slave</text>
</a>
</g>
</g>
<!-- Node8 -->
<g id="node3" class="node"><title>Node8</title>
<g id="a_node3"><a xlink:href="group__port__threads.html" target="_top" xlink:title="Threading model. ">
<polygon fill="white" stroke="black" points="269.5,-684.5 269.5,-703.5 320.5,-703.5 320.5,-684.5 269.5,-684.5"/>
<text text-anchor="middle" x="295" y="-691.5" font-family="Helvetica,sans-Serif" font-size="10.00">Threads</text>
</a>
</g>
</g>
<!-- Node12 -->
<g id="node4" class="node"><title>Node12</title>
<g id="a_node4"><a xlink:href="group__mu__transport.html" target="_top" xlink:title="Messaging Unit transport. ">
<polygon fill="white" stroke="black" points="253,-646.5 253,-665.5 337,-665.5 337,-646.5 253,-646.5"/>
<text text-anchor="middle" x="295" y="-653.5" font-family="Helvetica,sans-Serif" font-size="10.00">Messaging Unit</text>
</a>
</g>
</g>
<!-- Node19 -->
<g id="node5" class="node"><title>Node19</title>
<g id="a_node5"><a xlink:href="group__tcp__transport.html" target="_top" xlink:title="Simple TCP/IP transport. ">
<polygon fill="white" stroke="black" points="271.5,-608.5 271.5,-627.5 318.5,-627.5 318.5,-608.5 271.5,-608.5"/>
<text text-anchor="middle" x="295" y="-615.5" font-family="Helvetica,sans-Serif" font-size="10.00">TCP/IP</text>
</a>
</g>
</g>
<!-- Node2 -->
<g id="node6" class="node"><title>Node2</title>
<g id="a_node6"><a xlink:href="group__infra__client.html" target="_top" xlink:title="Client classes. ">
<polygon fill="white" stroke="black" points="274.5,-570.5 274.5,-589.5 315.5,-589.5 315.5,-570.5 274.5,-570.5"/>
<text text-anchor="middle" x="295" y="-577.5" font-family="Helvetica,sans-Serif" font-size="10.00">Client</text>
</a>
</g>
</g>
<!-- Node4 -->
<g id="node7" class="node"><title>Node4</title>
<g id="a_node7"><a xlink:href="group__infra__transport.html" target="_top" xlink:title="Superclasses for building transports. ">
<polygon fill="white" stroke="black" points="264,-532.5 264,-551.5 326,-551.5 326,-532.5 264,-532.5"/>
<text text-anchor="middle" x="295" y="-539.5" font-family="Helvetica,sans-Serif" font-size="10.00">Transports</text>
</a>
</g>
</g>
<!-- Node0&#45;&gt;Node10 -->
<g id="edge10" class="edge"><title>Node0&#45;&gt;Node10</title>
<path fill="none" stroke="blueviolet" stroke-dasharray="5,2" d="M158.178,-380.702C161.519,-426.736 177.195,-623.138 205,-677 215.525,-697.388 222.573,-700.793 242,-713 248.266,-716.938 255.468,-720.225 262.474,-722.898"/>
<text text-anchor="middle" x="214.5" y="-703" font-family="Helvetica,sans-Serif" font-size="10.00">erpc</text>
</g>
<!-- Node0&#45;&gt;Node8 -->
<g id="edge8" class="edge"><title>Node0&#45;&gt;Node8</title>
<path fill="none" stroke="blueviolet" stroke-dasharray="5,2" d="M157.141,-380.945C156.237,-417.635 156.77,-547.977 205,-639 215.742,-659.274 222.573,-662.793 242,-675 250.382,-680.267 260.437,-684.372 269.462,-687.396"/>
<text text-anchor="middle" x="214.5" y="-665" font-family="Helvetica,sans-Serif" font-size="10.00">erpc</text>
</g>
<!-- Node0&#45;&gt;Node12 -->
<g id="edge12" class="edge"><title>Node0&#45;&gt;Node12</title>
<path fill="none" stroke="blueviolet" stroke-dasharray="5,2" d="M157.523,-380.893C158.001,-414.149 162.866,-524.127 205,-601 216.028,-621.12 222.573,-624.793 242,-637 247.941,-640.733 254.722,-643.882 261.381,-646.477"/>
<text text-anchor="middle" x="214.5" y="-627" font-family="Helvetica,sans-Serif" font-size="10.00">erpc</text>
</g>
<!-- Node0&#45;&gt;Node19 -->
<g id="edge19" class="edge"><title>Node0&#45;&gt;Node19</title>
<path fill="none" stroke="blueviolet" stroke-dasharray="5,2" d="M158.045,-380.886C160.057,-410.473 168.948,-500.152 205,-563 216.416,-582.902 222.573,-586.793 242,-599 250.952,-604.625 261.812,-608.924 271.287,-611.998"/>
<text text-anchor="middle" x="214.5" y="-589" font-family="Helvetica,sans-Serif" font-size="10.00">erpc</text>
</g>
<!-- Node0&#45;&gt;Node2 -->
<g id="edge2" class="edge"><title>Node0&#45;&gt;Node2</title>
<path fill="none" stroke="blueviolet" stroke-dasharray="5,2" d="M158.839,-380.617C162.674,-405.77 175.385,-474.952 205,-524 217.021,-543.908 222.394,-548.492 242,-561 251.886,-567.307 264.159,-571.917 274.299,-575.016"/>
<text text-anchor="middle" x="214.5" y="-551" font-family="Helvetica,sans-Serif" font-size="10.00">erpc</text>
</g>
<!-- Node0&#45;&gt;Node4 -->
<g id="edge4" class="edge"><title>Node0&#45;&gt;Node4</title>
<path fill="none" stroke="blueviolet" stroke-dasharray="5,2" d="M160.053,-380.556C165.826,-401.087 181.256,-450.426 205,-486 217.911,-505.343 222.394,-510.492 242,-523 248.645,-527.239 256.368,-530.712 263.797,-533.474"/>
<text text-anchor="middle" x="214.5" y="-512" font-family="Helvetica,sans-Serif" font-size="10.00">erpc</text>
</g>
<!-- Node5 -->
<g id="node9" class="node"><title>Node5</title>
<g id="a_node9"><a xlink:href="group__infra__utility.html" target="_top" xlink:title="Utility code used by the infrastructure. ">
<polygon fill="white" stroke="black" points="270.5,-494.5 270.5,-513.5 319.5,-513.5 319.5,-494.5 270.5,-494.5"/>
<text text-anchor="middle" x="295" y="-501.5" font-family="Helvetica,sans-Serif" font-size="10.00">Utilities</text>
</a>
</g>
</g>
<!-- Node0&#45;&gt;Node5 -->
<g id="edge5" class="edge"><title>Node0&#45;&gt;Node5</title>
<path fill="none" stroke="blueviolet" stroke-dasharray="5,2" d="M161.544,-380.583C171.534,-402.977 199.678,-458.821 242,-485 250.664,-490.36 261.069,-494.538 270.287,-497.595"/>
<text text-anchor="middle" x="214.5" y="-474" font-family="Helvetica,sans-Serif" font-size="10.00">erpc</text>
</g>
<!-- Node17 -->
<g id="node10" class="node"><title>Node17</title>
<g id="a_node10"><a xlink:href="group__spi__slave__transport.html" target="_top" xlink:title="Kinetis SDK SPI slave driver transport. ">
<polygon fill="white" stroke="black" points="265.5,-456.5 265.5,-475.5 324.5,-475.5 324.5,-456.5 265.5,-456.5"/>
<text text-anchor="middle" x="295" y="-463.5" font-family="Helvetica,sans-Serif" font-size="10.00">SPI Slave</text>
</a>
</g>
</g>
<!-- Node0&#45;&gt;Node17 -->
<g id="edge17" class="edge"><title>Node0&#45;&gt;Node17</title>
<path fill="none" stroke="blueviolet" stroke-dasharray="5,2" d="M165.644,-380.565C179.69,-396.498 210.051,-428.544 242,-447 249.241,-451.183 257.566,-454.717 265.402,-457.56"/>
<text text-anchor="middle" x="214.5" y="-438" font-family="Helvetica,sans-Serif" font-size="10.00">erpc</text>
</g>
<!-- Node20 -->
<g id="node11" class="node"><title>Node20</title>
<g id="a_node11"><a xlink:href="group__uart__transport.html" target="_top" xlink:title="CMSIS UART driver transport. ">
<polygon fill="white" stroke="black" points="257,-418.5 257,-437.5 333,-437.5 333,-418.5 257,-418.5"/>
<text text-anchor="middle" x="295" y="-425.5" font-family="Helvetica,sans-Serif" font-size="10.00">CMSIS UART</text>
</a>
</g>
</g>
<!-- Node0&#45;&gt;Node20 -->
<g id="edge20" class="edge"><title>Node0&#45;&gt;Node20</title>
<path fill="none" stroke="blueviolet" stroke-dasharray="5,2" d="M176.778,-380.69C185.358,-384.911 195.622,-389.834 205,-394 225.407,-403.065 249.041,-412.025 266.824,-418.469"/>
<text text-anchor="middle" x="214.5" y="-404" font-family="Helvetica,sans-Serif" font-size="10.00">erpc</text>
</g>
<!-- Node18 -->
<g id="node12" class="node"><title>Node18</title>
<g id="a_node12"><a xlink:href="group__spidev__master__transport.html" target="_top" xlink:title="SPIdev Linux transport. ">
<polygon fill="white" stroke="black" points="242,-380.5 242,-399.5 348,-399.5 348,-380.5 242,-380.5"/>
<text text-anchor="middle" x="295" y="-387.5" font-family="Helvetica,sans-Serif" font-size="10.00">SPIdev Linux Master</text>
</a>
</g>
</g>
<!-- Node0&#45;&gt;Node18 -->
<g id="edge18" class="edge"><title>Node0&#45;&gt;Node18</title>
<path fill="none" stroke="blueviolet" stroke-dasharray="5,2" d="M187.118,-375.123C203.114,-377.349 223.331,-380.163 241.866,-382.743"/>
<text text-anchor="middle" x="214.5" y="-382" font-family="Helvetica,sans-Serif" font-size="10.00">erpc</text>
</g>
<!-- Node16 -->
<g id="node13" class="node"><title>Node16</title>
<g id="a_node13"><a xlink:href="group__spi__master__transport.html" target="_top" xlink:title="Kinetis SDK SPI master driver transport. ">
<polygon fill="white" stroke="black" points="262.5,-342.5 262.5,-361.5 327.5,-361.5 327.5,-342.5 262.5,-342.5"/>
<text text-anchor="middle" x="295" y="-349.5" font-family="Helvetica,sans-Serif" font-size="10.00">SPI Master</text>
</a>
</g>
</g>
<!-- Node0&#45;&gt;Node16 -->
<g id="edge16" class="edge"><title>Node0&#45;&gt;Node16</title>
<path fill="none" stroke="blueviolet" stroke-dasharray="5,2" d="M185.882,-361.478C192.118,-359.712 198.731,-358.085 205,-357 223.909,-353.727 245.381,-352.452 262.497,-352.007"/>
<text text-anchor="middle" x="214.5" y="-360" font-family="Helvetica,sans-Serif" font-size="10.00">erpc</text>
</g>
<!-- Node15 -->
<g id="node14" class="node"><title>Node15</title>
<g id="a_node14"><a xlink:href="group__rpmsg__tty__rtos__transport.html" target="_top" xlink:title="RPMsg TTY RTOS transport. ">
<polygon fill="white" stroke="black" points="246,-304.5 246,-323.5 344,-323.5 344,-304.5 246,-304.5"/>
<text text-anchor="middle" x="295" y="-311.5" font-family="Helvetica,sans-Serif" font-size="10.00">RPMsg TTY RTOS</text>
</a>
</g>
</g>
<!-- Node0&#45;&gt;Node15 -->
<g id="edge15" class="edge"><title>Node0&#45;&gt;Node15</title>
<path fill="none" stroke="blueviolet" stroke-dasharray="5,2" d="M169.358,-361.437C178.6,-354.386 192.005,-345.012 205,-339 218.983,-332.53 234.995,-327.397 249.547,-323.508"/>
<text text-anchor="middle" x="214.5" y="-342" font-family="Helvetica,sans-Serif" font-size="10.00">erpc</text>
</g>
<!-- Node6 -->
<g id="node15" class="node"><title>Node6</title>
<g id="a_node15"><a xlink:href="group__infra__server.html" target="_top" xlink:title="Server classes. ">
<polygon fill="white" stroke="black" points="273,-266.5 273,-285.5 317,-285.5 317,-266.5 273,-266.5"/>
<text text-anchor="middle" x="295" y="-273.5" font-family="Helvetica,sans-Serif" font-size="10.00">Server</text>
</a>
</g>
</g>
<!-- Node0&#45;&gt;Node6 -->
<g id="edge6" class="edge"><title>Node0&#45;&gt;Node6</title>
<path fill="none" stroke="blueviolet" stroke-dasharray="5,2" d="M164.367,-361.157C172.915,-349.397 188.422,-329.609 205,-316 225.295,-299.34 253.641,-288.191 272.848,-281.986"/>
<text text-anchor="middle" x="214.5" y="-319" font-family="Helvetica,sans-Serif" font-size="10.00">erpc</text>
</g>
<!-- Node11 -->
<g id="node16" class="node"><title>Node11</title>
<g id="a_node16"><a xlink:href="group__itbp__transport.html" target="_top" xlink:title="Simple inter&#45;thread communications transport. ">
<polygon fill="white" stroke="black" points="262.5,-228.5 262.5,-247.5 327.5,-247.5 327.5,-228.5 262.5,-228.5"/>
<text text-anchor="middle" x="295" y="-235.5" font-family="Helvetica,sans-Serif" font-size="10.00">Inter&#45;thread</text>
</a>
</g>
</g>
<!-- Node0&#45;&gt;Node11 -->
<g id="edge11" class="edge"><title>Node0&#45;&gt;Node11</title>
<path fill="none" stroke="blueviolet" stroke-dasharray="5,2" d="M161.651,-361.351C168.917,-345.125 185.08,-311.814 205,-288 218.765,-271.545 223.424,-267.731 242,-257 248.325,-253.346 255.478,-250.187 262.409,-247.551"/>
<text text-anchor="middle" x="214.5" y="-291" font-family="Helvetica,sans-Serif" font-size="10.00">erpc</text>
</g>
<!-- Node9 -->
<g id="node17" class="node"><title>Node9</title>
<g id="a_node17"><a xlink:href="group__dspi__master__transport.html" target="_top" xlink:title="Kinetis SDK DSPI master driver transport. ">
<polygon fill="white" stroke="black" points="259,-190.5 259,-209.5 331,-209.5 331,-190.5 259,-190.5"/>
<text text-anchor="middle" x="295" y="-197.5" font-family="Helvetica,sans-Serif" font-size="10.00">DSPI Master</text>
</a>
</g>
</g>
<!-- Node0&#45;&gt;Node9 -->
<g id="edge9" class="edge"><title>Node0&#45;&gt;Node9</title>
<path fill="none" stroke="blueviolet" stroke-dasharray="5,2" d="M159.798,-361.431C165.164,-340.398 179.999,-289.142 205,-253 217.705,-234.633 222.923,-230.611 242,-219 248.076,-215.302 254.984,-212.155 261.736,-209.548"/>
<text text-anchor="middle" x="214.5" y="-256" font-family="Helvetica,sans-Serif" font-size="10.00">erpc</text>
</g>
<!-- Node21 -->
<g id="node18" class="node"><title>Node21</title>
<g id="a_node18"><a xlink:href="group___u_s_b___c_d_c__transport.html" target="_top" xlink:title="USB CDC transport. ">
<polygon fill="white" stroke="black" points="265,-152.5 265,-171.5 325,-171.5 325,-152.5 265,-152.5"/>
<text text-anchor="middle" x="295" y="-159.5" font-family="Helvetica,sans-Serif" font-size="10.00">USB CDC</text>
</a>
</g>
</g>
<!-- Node0&#45;&gt;Node21 -->
<g id="edge21" class="edge"><title>Node0&#45;&gt;Node21</title>
<path fill="none" stroke="blueviolet" stroke-dasharray="5,2" d="M158.73,-361.21C162.303,-335.611 174.435,-265.268 205,-216 216.933,-196.765 222.749,-192.908 242,-181 249.03,-176.652 257.205,-173.081 264.962,-170.255"/>
<text text-anchor="middle" x="214.5" y="-219" font-family="Helvetica,sans-Serif" font-size="10.00">erpc</text>
</g>
<!-- Node3 -->
<g id="node19" class="node"><title>Node3</title>
<g id="a_node19"><a xlink:href="group__infra__codec.html" target="_top" xlink:title="Classes used for message serialization. ">
<polygon fill="white" stroke="black" points="260,-114.5 260,-133.5 330,-133.5 330,-114.5 260,-114.5"/>
<text text-anchor="middle" x="295" y="-121.5" font-family="Helvetica,sans-Serif" font-size="10.00">Serialization</text>
</a>
</g>
</g>
<!-- Node0&#45;&gt;Node3 -->
<g id="edge3" class="edge"><title>Node0&#45;&gt;Node3</title>
<path fill="none" stroke="blueviolet" stroke-dasharray="5,2" d="M157.965,-361.458C159.772,-332.09 168.192,-241.22 205,-178 216.389,-158.438 222.749,-154.908 242,-143 247.967,-139.309 254.759,-136.178 261.421,-133.588"/>
<text text-anchor="middle" x="214.5" y="-181" font-family="Helvetica,sans-Serif" font-size="10.00">erpc</text>
</g>
<!-- Node13 -->
<g id="node20" class="node"><title>Node13</title>
<g id="a_node20"><a xlink:href="group__rpmsg__lite__rtos__transport.html" target="_top" xlink:title="RPMsg&#45;Lite zero copy transport using RTOS API. ">
<polygon fill="white" stroke="black" points="246.5,-76.5 246.5,-95.5 343.5,-95.5 343.5,-76.5 246.5,-76.5"/>
<text text-anchor="middle" x="295" y="-83.5" font-family="Helvetica,sans-Serif" font-size="10.00">RPMsg&#45;Lite RTOS</text>
</a>
</g>
</g>
<!-- Node0&#45;&gt;Node13 -->
<g id="edge13" class="edge"><title>Node0&#45;&gt;Node13</title>
<path fill="none" stroke="blueviolet" stroke-dasharray="5,2" d="M157.414,-361.439C157.521,-328.319 161.277,-216.295 205,-139 215.996,-119.561 222.923,-116.611 242,-105 248.076,-101.302 254.984,-98.1545 261.736,-95.548"/>
<text text-anchor="middle" x="214.5" y="-142" font-family="Helvetica,sans-Serif" font-size="10.00">erpc</text>
</g>
<!-- Node14 -->
<g id="node21" class="node"><title>Node14</title>
<g id="a_node21"><a xlink:href="group__rpmsg__lite__transport.html" target="_top" xlink:title="RPMsg&#45;Lite zero copy transport. ">
<polygon fill="white" stroke="black" points="261,-38.5 261,-57.5 329,-57.5 329,-38.5 261,-38.5"/>
<text text-anchor="middle" x="295" y="-45.5" font-family="Helvetica,sans-Serif" font-size="10.00">RPMsg&#45;Lite</text>
</a>
</g>
</g>
<!-- Node0&#45;&gt;Node14 -->
<g id="edge14" class="edge"><title>Node0&#45;&gt;Node14</title>
<path fill="none" stroke="blueviolet" stroke-dasharray="5,2" d="M157.053,-361.44C155.77,-325.022 154.947,-192.429 205,-101 216.917,-79.2312 241.849,-65.5307 262.3,-57.5256"/>
<text text-anchor="middle" x="214.5" y="-104" font-family="Helvetica,sans-Serif" font-size="10.00">erpc</text>
</g>
<!-- Node7 -->
<g id="node22" class="node"><title>Node7</title>
<g id="a_node22"><a xlink:href="group__port__setup__extensions.html" target="_top" xlink:title="Extension setup functions. ">
<polygon fill="white" stroke="black" points="250.5,-0.5 250.5,-19.5 339.5,-19.5 339.5,-0.5 250.5,-0.5"/>
<text text-anchor="middle" x="295" y="-7.5" font-family="Helvetica,sans-Serif" font-size="10.00">Extension Setup</text>
</a>
</g>
</g>
<!-- Node0&#45;&gt;Node7 -->
<g id="edge7" class="edge"><title>Node0&#45;&gt;Node7</title>
<path fill="none" stroke="blueviolet" stroke-dasharray="5,2" d="M158.159,-361.258C161.41,-315.035 176.74,-117.843 205,-64 215.52,-43.9569 222.749,-40.9082 242,-29 247.967,-25.3089 254.759,-22.1779 261.421,-19.5877"/>
<text text-anchor="middle" x="214.5" y="-67" font-family="Helvetica,sans-Serif" font-size="10.00">erpc</text>
</g>
</g>
</svg>
