<?xml version="1.0" encoding="UTF-8" standalone="no"?>
<!DOCTYPE svg PUBLIC "-//W3C//DTD SVG 1.1//EN"
 "http://www.w3.org/Graphics/SVG/1.1/DTD/svg11.dtd">
<!-- Generated by graphviz version 2.38.0 (20140413.2041)
 -->
<!-- Title: CMSIS UART Pages: 1 -->
<svg width="371pt" height="788pt"
 viewBox="0.00 0.00 371.00 788.00" xmlns="http://www.w3.org/2000/svg" xmlns:xlink="http://www.w3.org/1999/xlink">
<g id="graph0" class="graph" transform="scale(1 1) rotate(0) translate(4 784)">
<title>CMSIS UART</title>
<polygon fill="white" stroke="none" points="-4,4 -4,-784 367,-784 367,4 -4,4"/>
<!-- Node1 -->
<g id="node1" class="node"><title>Node1</title>
<g id="a_node1"><a xlink:href="group__transports.html" target="_top" xlink:title="Transport layer classes. ">
<polygon fill="white" stroke="black" points="0,-380.5 0,-399.5 89,-399.5 89,-380.5 0,-380.5"/>
<text text-anchor="middle" x="44.5" y="-387.5" font-family="Helvetica,sans-Serif" font-size="10.00">Transport Layers</text>
</a>
</g>
</g>
<!-- Node0 -->
<g id="node12" class="node"><title>Node0</title>
<polygon fill="#bfbfbf" stroke="black" points="126,-380.5 126,-399.5 202,-399.5 202,-380.5 126,-380.5"/>
<text text-anchor="middle" x="164" y="-387.5" font-family="Helvetica,sans-Serif" font-size="10.00">CMSIS UART</text>
</g>
<!-- Node1&#45;&gt;Node0 -->
<g id="edge1" class="edge"><title>Node1&#45;&gt;Node0</title>
<path fill="none" stroke="black" d="M99.257,-390C108.216,-390 117.332,-390 125.762,-390"/>
<polygon fill="black" stroke="black" points="99.2527,-386.5 89.2527,-390 99.2526,-393.5 99.2527,-386.5"/>
</g>
<!-- Node10 -->
<g id="node2" class="node"><title>Node10</title>
<g id="a_node2"><a xlink:href="group__dspi__slave__transport.html" target="_top" xlink:title="MCUXpressoSDK DSPI slave driver transport. ">
<polygon fill="white" stroke="black" points="277.5,-760.5 277.5,-779.5 342.5,-779.5 342.5,-760.5 277.5,-760.5"/>
<text text-anchor="middle" x="310" y="-767.5" font-family="Helvetica,sans-Serif" font-size="10.00">DSPI Slave</text>
</a>
</g>
</g>
<!-- Node11 -->
<g id="node3" class="node"><title>Node11</title>
<g id="a_node3"><a xlink:href="group__i2c__slave__transport.html" target="_top" xlink:title="MCUXpressoSDK I2C slave driver transport. ">
<polygon fill="white" stroke="black" points="281.5,-722.5 281.5,-741.5 338.5,-741.5 338.5,-722.5 281.5,-722.5"/>
<text text-anchor="middle" x="310" y="-729.5" font-family="Helvetica,sans-Serif" font-size="10.00">I2C Slave</text>
</a>
</g>
</g>
<!-- Node8 -->
<g id="node4" class="node"><title>Node8</title>
<g id="a_node4"><a xlink:href="group__port__threads.html" target="_top" xlink:title="Threading model. ">
<polygon fill="white" stroke="black" points="284.5,-684.5 284.5,-703.5 335.5,-703.5 335.5,-684.5 284.5,-684.5"/>
<text text-anchor="middle" x="310" y="-691.5" font-family="Helvetica,sans-Serif" font-size="10.00">Threads</text>
</a>
</g>
</g>
<!-- Node13 -->
<g id="node5" class="node"><title>Node13</title>
<g id="a_node5"><a xlink:href="group__mu__transport.html" target="_top" xlink:title="Messaging Unit transport. ">
<polygon fill="white" stroke="black" points="268,-646.5 268,-665.5 352,-665.5 352,-646.5 268,-646.5"/>
<text text-anchor="middle" x="310" y="-653.5" font-family="Helvetica,sans-Serif" font-size="10.00">Messaging Unit</text>
</a>
</g>
</g>
<!-- Node21 -->
<g id="node6" class="node"><title>Node21</title>
<g id="a_node6"><a xlink:href="group__tcp__transport.html" target="_top" xlink:title="Simple TCP/IP transport. ">
<polygon fill="white" stroke="black" points="286.5,-608.5 286.5,-627.5 333.5,-627.5 333.5,-608.5 286.5,-608.5"/>
<text text-anchor="middle" x="310" y="-615.5" font-family="Helvetica,sans-Serif" font-size="10.00">TCP/IP</text>
</a>
</g>
</g>
<!-- Node2 -->
<g id="node7" class="node"><title>Node2</title>
<g id="a_node7"><a xlink:href="group__infra__client.html" target="_top" xlink:title="Client classes. ">
<polygon fill="white" stroke="black" points="289.5,-570.5 289.5,-589.5 330.5,-589.5 330.5,-570.5 289.5,-570.5"/>
<text text-anchor="middle" x="310" y="-577.5" font-family="Helvetica,sans-Serif" font-size="10.00">Client</text>
</a>
</g>
</g>
<!-- Node4 -->
<g id="node8" class="node"><title>Node4</title>
<g id="a_node8"><a xlink:href="group__infra__transport.html" target="_top" xlink:title="Superclasses for building transports. ">
<polygon fill="white" stroke="black" points="279,-532.5 279,-551.5 341,-551.5 341,-532.5 279,-532.5"/>
<text text-anchor="middle" x="310" y="-539.5" font-family="Helvetica,sans-Serif" font-size="10.00">Transports</text>
</a>
</g>
</g>
<!-- Node17 -->
<g id="node9" class="node"><title>Node17</title>
<g id="a_node9"><a xlink:href="group__serial__transport.html" target="_top" xlink:title="POSIX and Win32 serial port transport. ">
<polygon fill="white" stroke="black" points="279.5,-494.5 279.5,-513.5 340.5,-513.5 340.5,-494.5 279.5,-494.5"/>
<text text-anchor="middle" x="310" y="-501.5" font-family="Helvetica,sans-Serif" font-size="10.00">Serial port</text>
</a>
</g>
</g>
<!-- Node5 -->
<g id="node10" class="node"><title>Node5</title>
<g id="a_node10"><a xlink:href="group__infra__utility.html" target="_top" xlink:title="Utility code used by the infrastructure. ">
<polygon fill="white" stroke="black" points="285.5,-456.5 285.5,-475.5 334.5,-475.5 334.5,-456.5 285.5,-456.5"/>
<text text-anchor="middle" x="310" y="-463.5" font-family="Helvetica,sans-Serif" font-size="10.00">Utilities</text>
</a>
</g>
</g>
<!-- Node19 -->
<g id="node11" class="node"><title>Node19</title>
<g id="a_node11"><a xlink:href="group__spi__slave__transport.html" target="_top" xlink:title="MCUXpressoSDK SPI slave driver transport. ">
<polygon fill="white" stroke="black" points="280.5,-418.5 280.5,-437.5 339.5,-437.5 339.5,-418.5 280.5,-418.5"/>
<text text-anchor="middle" x="310" y="-425.5" font-family="Helvetica,sans-Serif" font-size="10.00">SPI Slave</text>
</a>
</g>
</g>
<!-- Node0&#45;&gt;Node10 -->
<g id="edge10" class="edge"><title>Node0&#45;&gt;Node10</title>
<path fill="none" stroke="blueviolet" stroke-dasharray="5,2" d="M165.823,-399.666C170.004,-447.362 189.879,-657.617 220,-715 230.663,-735.315 237.573,-738.793 257,-751 263.266,-754.938 270.468,-758.225 277.474,-760.898"/>
<text text-anchor="middle" x="229.5" y="-741" font-family="Helvetica,sans-Serif" font-size="10.00">erpc</text>
</g>
<!-- Node0&#45;&gt;Node11 -->
<g id="edge11" class="edge"><title>Node0&#45;&gt;Node11</title>
<path fill="none" stroke="blueviolet" stroke-dasharray="5,2" d="M164.816,-399.601C164.491,-437.408 167.057,-578.743 220,-677 230.883,-697.198 237.573,-700.793 257,-713 264.406,-717.653 273.117,-721.399 281.27,-724.295"/>
<text text-anchor="middle" x="229.5" y="-703" font-family="Helvetica,sans-Serif" font-size="10.00">erpc</text>
</g>
<!-- Node0&#45;&gt;Node8 -->
<g id="edge8" class="edge"><title>Node0&#45;&gt;Node8</title>
<path fill="none" stroke="blueviolet" stroke-dasharray="5,2" d="M165.185,-399.733C166.237,-434.517 173.249,-555.075 220,-639 231.165,-659.044 237.573,-662.793 257,-675 265.382,-680.267 275.437,-684.372 284.462,-687.396"/>
<text text-anchor="middle" x="229.5" y="-665" font-family="Helvetica,sans-Serif" font-size="10.00">erpc</text>
</g>
<!-- Node0&#45;&gt;Node13 -->
<g id="edge13" class="edge"><title>Node0&#45;&gt;Node13</title>
<path fill="none" stroke="blueviolet" stroke-dasharray="5,2" d="M165.753,-399.89C168.507,-431.229 180.059,-530.366 220,-600 231.571,-620.173 237.394,-624.492 257,-637 262.834,-640.722 269.5,-643.853 276.068,-646.432"/>
<text text-anchor="middle" x="229.5" y="-627" font-family="Helvetica,sans-Serif" font-size="10.00">erpc</text>
</g>
<!-- Node0&#45;&gt;Node21 -->
<g id="edge21" class="edge"><title>Node0&#45;&gt;Node21</title>
<path fill="none" stroke="blueviolet" stroke-dasharray="5,2" d="M166.483,-399.528C171.004,-426.518 186.399,-505.151 220,-561 232.152,-581.198 237.212,-586.19 257,-599 265.956,-604.798 276.922,-609.14 286.47,-612.199"/>
<text text-anchor="middle" x="229.5" y="-588" font-family="Helvetica,sans-Serif" font-size="10.00">erpc</text>
</g>
<!-- Node0&#45;&gt;Node2 -->
<g id="edge2" class="edge"><title>Node0&#45;&gt;Node2</title>
<path fill="none" stroke="blueviolet" stroke-dasharray="5,2" d="M167.809,-399.769C174.563,-422.33 193.163,-479.312 220,-521 233.109,-541.363 236.841,-547.58 257,-561 266.761,-567.498 279.028,-572.118 289.196,-575.174"/>
<text text-anchor="middle" x="229.5" y="-549" font-family="Helvetica,sans-Serif" font-size="10.00">erpc</text>
</g>
<!-- Node0&#45;&gt;Node4 -->
<g id="edge4" class="edge"><title>Node0&#45;&gt;Node4</title>
<path fill="none" stroke="blueviolet" stroke-dasharray="5,2" d="M168.601,-399.642C178.463,-424.602 208.449,-491.569 257,-523 263.616,-527.283 271.329,-530.772 278.757,-533.535"/>
<text text-anchor="middle" x="229.5" y="-509" font-family="Helvetica,sans-Serif" font-size="10.00">erpc</text>
</g>
<!-- Node0&#45;&gt;Node17 -->
<g id="edge17" class="edge"><title>Node0&#45;&gt;Node17</title>
<path fill="none" stroke="blueviolet" stroke-dasharray="5,2" d="M171.638,-399.695C185.313,-418.922 218.584,-462.008 257,-485 263.845,-489.097 271.718,-492.534 279.232,-495.31"/>
<text text-anchor="middle" x="229.5" y="-473" font-family="Helvetica,sans-Serif" font-size="10.00">erpc</text>
</g>
<!-- Node0&#45;&gt;Node5 -->
<g id="edge5" class="edge"><title>Node0&#45;&gt;Node5</title>
<path fill="none" stroke="blueviolet" stroke-dasharray="5,2" d="M178.522,-399.608C196.029,-411.754 227.766,-432.788 257,-447 265.99,-451.37 276.258,-455.326 285.281,-458.482"/>
<text text-anchor="middle" x="229.5" y="-440" font-family="Helvetica,sans-Serif" font-size="10.00">erpc</text>
</g>
<!-- Node0&#45;&gt;Node19 -->
<g id="edge19" class="edge"><title>Node0&#45;&gt;Node19</title>
<path fill="none" stroke="blueviolet" stroke-dasharray="5,2" d="M199.601,-399.512C206.362,-401.35 213.4,-403.247 220,-405 240.052,-410.325 262.689,-416.173 280.115,-420.639"/>
<text text-anchor="middle" x="229.5" y="-412" font-family="Helvetica,sans-Serif" font-size="10.00">erpc</text>
</g>
<!-- Node20 -->
<g id="node13" class="node"><title>Node20</title>
<g id="a_node13"><a xlink:href="group__spidev__master__transport.html" target="_top" xlink:title="SPIdev Linux transport. ">
<polygon fill="white" stroke="black" points="257,-380.5 257,-399.5 363,-399.5 363,-380.5 257,-380.5"/>
<text text-anchor="middle" x="310" y="-387.5" font-family="Helvetica,sans-Serif" font-size="10.00">SPIdev Linux Master</text>
</a>
</g>
</g>
<!-- Node0&#45;&gt;Node20 -->
<g id="edge20" class="edge"><title>Node0&#45;&gt;Node20</title>
<path fill="none" stroke="blueviolet" stroke-dasharray="5,2" d="M202.084,-390C218.75,-390 238.71,-390 256.847,-390"/>
<text text-anchor="middle" x="229.5" y="-393" font-family="Helvetica,sans-Serif" font-size="10.00">erpc</text>
</g>
<!-- Node18 -->
<g id="node14" class="node"><title>Node18</title>
<g id="a_node14"><a xlink:href="group__spi__master__transport.html" target="_top" xlink:title="MCUXpressoSDK SPI master driver transport. ">
<polygon fill="white" stroke="black" points="277.5,-342.5 277.5,-361.5 342.5,-361.5 342.5,-342.5 277.5,-342.5"/>
<text text-anchor="middle" x="310" y="-349.5" font-family="Helvetica,sans-Serif" font-size="10.00">SPI Master</text>
</a>
</g>
</g>
<!-- Node0&#45;&gt;Node18 -->
<g id="edge18" class="edge"><title>Node0&#45;&gt;Node18</title>
<path fill="none" stroke="blueviolet" stroke-dasharray="5,2" d="M199.601,-380.488C206.362,-378.65 213.4,-376.753 220,-375 238.972,-369.962 260.259,-364.455 277.256,-360.094"/>
<text text-anchor="middle" x="229.5" y="-378" font-family="Helvetica,sans-Serif" font-size="10.00">erpc</text>
</g>
<!-- Node16 -->
<g id="node15" class="node"><title>Node16</title>
<g id="a_node15"><a xlink:href="group__rpmsg__tty__rtos__transport.html" target="_top" xlink:title="RPMsg TTY RTOS transport. ">
<polygon fill="white" stroke="black" points="261,-304.5 261,-323.5 359,-323.5 359,-304.5 261,-304.5"/>
<text text-anchor="middle" x="310" y="-311.5" font-family="Helvetica,sans-Serif" font-size="10.00">RPMsg TTY RTOS</text>
</a>
</g>
</g>
<!-- Node0&#45;&gt;Node16 -->
<g id="edge16" class="edge"><title>Node0&#45;&gt;Node16</title>
<path fill="none" stroke="blueviolet" stroke-dasharray="5,2" d="M178.482,-380.308C195.946,-368.073 227.637,-346.945 257,-333 264.293,-329.536 272.399,-326.3 279.998,-323.515"/>
<text text-anchor="middle" x="229.5" y="-355" font-family="Helvetica,sans-Serif" font-size="10.00">erpc</text>
</g>
<!-- Node6 -->
<g id="node16" class="node"><title>Node6</title>
<g id="a_node16"><a xlink:href="group__infra__server.html" target="_top" xlink:title="Server classes. ">
<polygon fill="white" stroke="black" points="288,-266.5 288,-285.5 332,-285.5 332,-266.5 288,-266.5"/>
<text text-anchor="middle" x="310" y="-273.5" font-family="Helvetica,sans-Serif" font-size="10.00">Server</text>
</a>
</g>
</g>
<!-- Node0&#45;&gt;Node6 -->
<g id="edge6" class="edge"><title>Node0&#45;&gt;Node6</title>
<path fill="none" stroke="blueviolet" stroke-dasharray="5,2" d="M171.608,-380.255C185.229,-360.938 218.41,-317.698 257,-295 266.61,-289.347 278.188,-284.916 287.977,-281.76"/>
<text text-anchor="middle" x="229.5" y="-324" font-family="Helvetica,sans-Serif" font-size="10.00">erpc</text>
</g>
<!-- Node12 -->
<g id="node17" class="node"><title>Node12</title>
<g id="a_node17"><a xlink:href="group__itbp__transport.html" target="_top" xlink:title="Simple inter&#45;thread communications transport. ">
<polygon fill="white" stroke="black" points="277.5,-228.5 277.5,-247.5 342.5,-247.5 342.5,-228.5 277.5,-228.5"/>
<text text-anchor="middle" x="310" y="-235.5" font-family="Helvetica,sans-Serif" font-size="10.00">Inter&#45;thread</text>
</a>
</g>
</g>
<!-- Node0&#45;&gt;Node12 -->
<g id="edge12" class="edge"><title>Node0&#45;&gt;Node12</title>
<path fill="none" stroke="blueviolet" stroke-dasharray="5,2" d="M168.578,-380.321C178.381,-355.271 208.24,-288.106 257,-257 263.239,-253.02 270.43,-249.715 277.435,-247.039"/>
<text text-anchor="middle" x="229.5" y="-292" font-family="Helvetica,sans-Serif" font-size="10.00">erpc</text>
</g>
<!-- Node9 -->
<g id="node18" class="node"><title>Node9</title>
<g id="a_node18"><a xlink:href="group__dspi__master__transport.html" target="_top" xlink:title="MCUXpressoSDK DSPI master driver transport. ">
<polygon fill="white" stroke="black" points="274,-190.5 274,-209.5 346,-209.5 346,-190.5 274,-190.5"/>
<text text-anchor="middle" x="310" y="-197.5" font-family="Helvetica,sans-Serif" font-size="10.00">DSPI Master</text>
</a>
</g>
</g>
<!-- Node0&#45;&gt;Node9 -->
<g id="edge9" class="edge"><title>Node0&#45;&gt;Node9</title>
<path fill="none" stroke="blueviolet" stroke-dasharray="5,2" d="M167.658,-380.469C174.216,-357.918 192.645,-300.032 220,-258 233.033,-237.975 237.028,-232.114 257,-219 262.704,-215.254 269.244,-212.125 275.718,-209.558"/>
<text text-anchor="middle" x="229.5" y="-261" font-family="Helvetica,sans-Serif" font-size="10.00">erpc</text>
</g>
<!-- Node22 -->
<g id="node19" class="node"><title>Node22</title>
<g id="a_node19"><a xlink:href="group___u_s_b___c_d_c__transport.html" target="_top" xlink:title="USB CDC transport. ">
<polygon fill="white" stroke="black" points="280,-152.5 280,-171.5 340,-171.5 340,-152.5 280,-152.5"/>
<text text-anchor="middle" x="310" y="-159.5" font-family="Helvetica,sans-Serif" font-size="10.00">USB CDC</text>
</a>
</g>
</g>
<!-- Node0&#45;&gt;Node22 -->
<g id="edge22" class="edge"><title>Node0&#45;&gt;Node22</title>
<path fill="none" stroke="blueviolet" stroke-dasharray="5,2" d="M166.432,-380.394C170.818,-353.184 185.895,-273.947 220,-218 232.105,-198.143 237.394,-193.508 257,-181 263.969,-176.554 272.124,-172.951 279.881,-170.127"/>
<text text-anchor="middle" x="229.5" y="-221" font-family="Helvetica,sans-Serif" font-size="10.00">erpc</text>
</g>
<!-- Node3 -->
<g id="node20" class="node"><title>Node3</title>
<g id="a_node20"><a xlink:href="group__infra__codec.html" target="_top" xlink:title="Classes used for message serialization. ">
<polygon fill="white" stroke="black" points="275,-114.5 275,-133.5 345,-133.5 345,-114.5 275,-114.5"/>
<text text-anchor="middle" x="310" y="-121.5" font-family="Helvetica,sans-Serif" font-size="10.00">Serialization</text>
</a>
</g>
</g>
<!-- Node0&#45;&gt;Node3 -->
<g id="edge3" class="edge"><title>Node0&#45;&gt;Node3</title>
<path fill="none" stroke="blueviolet" stroke-dasharray="5,2" d="M165.614,-380.411C167.988,-349.133 178.618,-248.063 220,-178 231.512,-158.51 237.749,-154.908 257,-143 262.967,-139.309 269.759,-136.178 276.421,-133.588"/>
<text text-anchor="middle" x="229.5" y="-181" font-family="Helvetica,sans-Serif" font-size="10.00">erpc</text>
</g>
<!-- Node14 -->
<g id="node21" class="node"><title>Node14</title>
<g id="a_node21"><a xlink:href="group__rpmsg__lite__rtos__transport.html" target="_top" xlink:title="RPMsg&#45;Lite zero copy transport using RTOS API. ">
<polygon fill="white" stroke="black" points="261.5,-76.5 261.5,-95.5 358.5,-95.5 358.5,-76.5 261.5,-76.5"/>
<text text-anchor="middle" x="310" y="-83.5" font-family="Helvetica,sans-Serif" font-size="10.00">RPMsg&#45;Lite RTOS</text>
</a>
</g>
</g>
<!-- Node0&#45;&gt;Node14 -->
<g id="edge14" class="edge"><title>Node0&#45;&gt;Node14</title>
<path fill="none" stroke="blueviolet" stroke-dasharray="5,2" d="M165.082,-380.142C165.783,-344.921 171.76,-222.928 220,-139 231.129,-119.638 237.923,-116.611 257,-105 263.076,-101.302 269.984,-98.1545 276.736,-95.548"/>
<text text-anchor="middle" x="229.5" y="-142" font-family="Helvetica,sans-Serif" font-size="10.00">erpc</text>
</g>
<!-- Node15 -->
<g id="node22" class="node"><title>Node15</title>
<g id="a_node22"><a xlink:href="group__rpmsg__lite__transport.html" target="_top" xlink:title="RPMsg&#45;Lite zero copy transport. ">
<polygon fill="white" stroke="black" points="276,-38.5 276,-57.5 344,-57.5 344,-38.5 276,-38.5"/>
<text text-anchor="middle" x="310" y="-45.5" font-family="Helvetica,sans-Serif" font-size="10.00">RPMsg&#45;Lite</text>
</a>
</g>
</g>
<!-- Node0&#45;&gt;Node15 -->
<g id="edge15" class="edge"><title>Node0&#45;&gt;Node15</title>
<path fill="none" stroke="blueviolet" stroke-dasharray="5,2" d="M164.715,-380.287C164.013,-342.048 165.358,-199.182 220,-101 230.86,-81.4855 237.923,-78.6111 257,-67 263.076,-63.3021 269.984,-60.1545 276.736,-57.548"/>
<text text-anchor="middle" x="229.5" y="-104" font-family="Helvetica,sans-Serif" font-size="10.00">erpc</text>
</g>
<!-- Node7 -->
<g id="node23" class="node"><title>Node7</title>
<g id="a_node23"><a xlink:href="group__port__setup__extensions.html" target="_top" xlink:title="Extension setup functions. ">
<polygon fill="white" stroke="black" points="265.5,-0.5 265.5,-19.5 354.5,-19.5 354.5,-0.5 265.5,-0.5"/>
<text text-anchor="middle" x="310" y="-7.5" font-family="Helvetica,sans-Serif" font-size="10.00">Extension Setup</text>
</a>
</g>
</g>
<!-- Node0&#45;&gt;Node7 -->
<g id="edge7" class="edge"><title>Node0&#45;&gt;Node7</title>
<path fill="none" stroke="blueviolet" stroke-dasharray="5,2" d="M165.784,-380.257C169.78,-332.186 188.908,-120.304 220,-63 231.75,-41.3447 256.413,-27.6885 276.802,-19.6719"/>
<text text-anchor="middle" x="229.5" y="-66" font-family="Helvetica,sans-Serif" font-size="10.00">erpc</text>
</g>
</g>
</svg>
