<?xml version="1.0" encoding="UTF-8" standalone="no"?>
<!DOCTYPE svg PUBLIC "-//W3C//DTD SVG 1.1//EN"
 "http://www.w3.org/Graphics/SVG/1.1/DTD/svg11.dtd">
<!-- Generated by graphviz version 2.38.0 (20140413.2041)
 -->
<!-- Title: RPMsg&#45;Lite RTOS Pages: 1 -->
<svg width="494pt" height="791pt"
 viewBox="0.00 0.00 494.00 791.05" xmlns="http://www.w3.org/2000/svg" xmlns:xlink="http://www.w3.org/1999/xlink">
<g id="graph0" class="graph" transform="scale(1 1) rotate(0) translate(4 787.049)">
<title>RPMsg&#45;Lite RTOS</title>
<polygon fill="white" stroke="none" points="-4,4 -4,-787.049 490,-787.049 490,4 -4,4"/>
<!-- Node1 -->
<g id="node1" class="node"><title>Node1</title>
<g id="a_node1"><a xlink:href="group__transports.html" target="_top" xlink:title="Transport layer classes. ">
<polygon fill="white" stroke="black" points="0,-373.549 0,-392.549 89,-392.549 89,-373.549 0,-373.549"/>
<text text-anchor="middle" x="44.5" y="-380.549" font-family="Helvetica,sans-Serif" font-size="10.00">Transport Layers</text>
</a>
</g>
</g>
<!-- Node0 -->
<g id="node20" class="node"><title>Node0</title>
<polygon fill="#bfbfbf" stroke="black" points="126,-373.549 126,-392.549 223,-392.549 223,-373.549 126,-373.549"/>
<text text-anchor="middle" x="174.5" y="-380.549" font-family="Helvetica,sans-Serif" font-size="10.00">RPMsg&#45;Lite RTOS</text>
</g>
<!-- Node1&#45;&gt;Node0 -->
<g id="edge1" class="edge"><title>Node1&#45;&gt;Node0</title>
<path fill="none" stroke="black" d="M99.2923,-383.049C108.032,-383.049 117.033,-383.049 125.62,-383.049"/>
<polygon fill="black" stroke="black" points="99.1924,-379.549 89.1923,-383.049 99.1923,-386.549 99.1924,-379.549"/>
</g>
<!-- Node11 -->
<g id="node2" class="node"><title>Node11</title>
<g id="a_node2"><a xlink:href="group__dspi__slave__transport.html" target="_top" xlink:title="Kinetis SDK DSPI slave driver transport. ">
<polygon fill="white" stroke="black" points="400.5,-753.549 400.5,-772.549 465.5,-772.549 465.5,-753.549 400.5,-753.549"/>
<text text-anchor="middle" x="433" y="-760.549" font-family="Helvetica,sans-Serif" font-size="10.00">DSPI Slave</text>
</a>
</g>
</g>
<!-- Node9 -->
<g id="node3" class="node"><title>Node9</title>
<g id="a_node3"><a xlink:href="group__port__threads.html" target="_top" xlink:title="Threading model. ">
<polygon fill="white" stroke="black" points="407.5,-715.549 407.5,-734.549 458.5,-734.549 458.5,-715.549 407.5,-715.549"/>
<text text-anchor="middle" x="433" y="-722.549" font-family="Helvetica,sans-Serif" font-size="10.00">Threads</text>
</a>
</g>
</g>
<!-- Node13 -->
<g id="node4" class="node"><title>Node13</title>
<g id="a_node4"><a xlink:href="group__mu__transport.html" target="_top" xlink:title="Messaging Unit transport. ">
<polygon fill="white" stroke="black" points="391,-677.549 391,-696.549 475,-696.549 475,-677.549 391,-677.549"/>
<text text-anchor="middle" x="433" y="-684.549" font-family="Helvetica,sans-Serif" font-size="10.00">Messaging Unit</text>
</a>
</g>
</g>
<!-- Node19 -->
<g id="node5" class="node"><title>Node19</title>
<g id="a_node5"><a xlink:href="group__tcp__transport.html" target="_top" xlink:title="Simple TCP/IP transport. ">
<polygon fill="white" stroke="black" points="409.5,-639.549 409.5,-658.549 456.5,-658.549 456.5,-639.549 409.5,-639.549"/>
<text text-anchor="middle" x="433" y="-646.549" font-family="Helvetica,sans-Serif" font-size="10.00">TCP/IP</text>
</a>
</g>
</g>
<!-- Node3 -->
<g id="node6" class="node"><title>Node3</title>
<g id="a_node6"><a xlink:href="group__infra__client.html" target="_top" xlink:title="Client classes. ">
<polygon fill="white" stroke="black" points="412.5,-601.549 412.5,-620.549 453.5,-620.549 453.5,-601.549 412.5,-601.549"/>
<text text-anchor="middle" x="433" y="-608.549" font-family="Helvetica,sans-Serif" font-size="10.00">Client</text>
</a>
</g>
</g>
<!-- Node5 -->
<g id="node7" class="node"><title>Node5</title>
<g id="a_node7"><a xlink:href="group__infra__transport.html" target="_top" xlink:title="Superclasses for building transports. ">
<polygon fill="white" stroke="black" points="402,-563.549 402,-582.549 464,-582.549 464,-563.549 402,-563.549"/>
<text text-anchor="middle" x="433" y="-570.549" font-family="Helvetica,sans-Serif" font-size="10.00">Transports</text>
</a>
</g>
</g>
<!-- Node15 -->
<g id="node8" class="node"><title>Node15</title>
<g id="a_node8"><a xlink:href="group__serial__transport.html" target="_top" xlink:title="POSIX and Win32 serial port transport. ">
<polygon fill="white" stroke="black" points="402.5,-525.549 402.5,-544.549 463.5,-544.549 463.5,-525.549 402.5,-525.549"/>
<text text-anchor="middle" x="433" y="-532.549" font-family="Helvetica,sans-Serif" font-size="10.00">Serial port</text>
</a>
</g>
</g>
<!-- Node6 -->
<g id="node9" class="node"><title>Node6</title>
<g id="a_node9"><a xlink:href="group__infra__utility.html" target="_top" xlink:title="Utility code used by the infrastructure. ">
<polygon fill="white" stroke="black" points="408.5,-487.549 408.5,-506.549 457.5,-506.549 457.5,-487.549 408.5,-487.549"/>
<text text-anchor="middle" x="433" y="-494.549" font-family="Helvetica,sans-Serif" font-size="10.00">Utilities</text>
</a>
</g>
</g>
<!-- Node17 -->
<g id="node10" class="node"><title>Node17</title>
<g id="a_node10"><a xlink:href="group__spi__slave__transport.html" target="_top" xlink:title="Kinetis SDK SPI slave driver transport. ">
<polygon fill="white" stroke="black" points="403.5,-449.549 403.5,-468.549 462.5,-468.549 462.5,-449.549 403.5,-449.549"/>
<text text-anchor="middle" x="433" y="-456.549" font-family="Helvetica,sans-Serif" font-size="10.00">SPI Slave</text>
</a>
</g>
</g>
<!-- Node20 -->
<g id="node11" class="node"><title>Node20</title>
<g id="a_node11"><a xlink:href="group__uart__transport.html" target="_top" xlink:title="CMSIS UART driver transport. ">
<polygon fill="white" stroke="black" points="395,-411.549 395,-430.549 471,-430.549 471,-411.549 395,-411.549"/>
<text text-anchor="middle" x="433" y="-418.549" font-family="Helvetica,sans-Serif" font-size="10.00">CMSIS UART</text>
</a>
</g>
</g>
<!-- Node18 -->
<g id="node12" class="node"><title>Node18</title>
<g id="a_node12"><a xlink:href="group__spidev__master__transport.html" target="_top" xlink:title="SPIdev Linux transport. ">
<polygon fill="white" stroke="black" points="380,-373.549 380,-392.549 486,-392.549 486,-373.549 380,-373.549"/>
<text text-anchor="middle" x="433" y="-380.549" font-family="Helvetica,sans-Serif" font-size="10.00">SPIdev Linux Master</text>
</a>
</g>
</g>
<!-- Node16 -->
<g id="node13" class="node"><title>Node16</title>
<g id="a_node13"><a xlink:href="group__spi__master__transport.html" target="_top" xlink:title="Kinetis SDK SPI master driver transport. ">
<polygon fill="white" stroke="black" points="400.5,-335.549 400.5,-354.549 465.5,-354.549 465.5,-335.549 400.5,-335.549"/>
<text text-anchor="middle" x="433" y="-342.549" font-family="Helvetica,sans-Serif" font-size="10.00">SPI Master</text>
</a>
</g>
</g>
<!-- Node14 -->
<g id="node14" class="node"><title>Node14</title>
<g id="a_node14"><a xlink:href="group__rpmsg__tty__rtos__transport.html" target="_top" xlink:title="RPMsg TTY RTOS transport. ">
<polygon fill="white" stroke="black" points="384,-297.549 384,-316.549 482,-316.549 482,-297.549 384,-297.549"/>
<text text-anchor="middle" x="433" y="-304.549" font-family="Helvetica,sans-Serif" font-size="10.00">RPMsg TTY RTOS</text>
</a>
</g>
</g>
<!-- Node7 -->
<g id="node15" class="node"><title>Node7</title>
<g id="a_node15"><a xlink:href="group__infra__server.html" target="_top" xlink:title="Server classes. ">
<polygon fill="white" stroke="black" points="411,-259.549 411,-278.549 455,-278.549 455,-259.549 411,-259.549"/>
<text text-anchor="middle" x="433" y="-266.549" font-family="Helvetica,sans-Serif" font-size="10.00">Server</text>
</a>
</g>
</g>
<!-- Node12 -->
<g id="node16" class="node"><title>Node12</title>
<g id="a_node16"><a xlink:href="group__itbp__transport.html" target="_top" xlink:title="Simple inter&#45;thread communications transport. ">
<polygon fill="white" stroke="black" points="400.5,-221.549 400.5,-240.549 465.5,-240.549 465.5,-221.549 400.5,-221.549"/>
<text text-anchor="middle" x="433" y="-228.549" font-family="Helvetica,sans-Serif" font-size="10.00">Inter&#45;thread</text>
</a>
</g>
</g>
<!-- Node10 -->
<g id="node17" class="node"><title>Node10</title>
<g id="a_node17"><a xlink:href="group__dspi__master__transport.html" target="_top" xlink:title="Kinetis SDK DSPI master driver transport. ">
<polygon fill="white" stroke="black" points="397,-183.549 397,-202.549 469,-202.549 469,-183.549 397,-183.549"/>
<text text-anchor="middle" x="433" y="-190.549" font-family="Helvetica,sans-Serif" font-size="10.00">DSPI Master</text>
</a>
</g>
</g>
<!-- Node21 -->
<g id="node18" class="node"><title>Node21</title>
<g id="a_node18"><a xlink:href="group___u_s_b___c_d_c__transport.html" target="_top" xlink:title="USB CDC transport. ">
<polygon fill="white" stroke="black" points="403,-145.549 403,-164.549 463,-164.549 463,-145.549 403,-145.549"/>
<text text-anchor="middle" x="433" y="-152.549" font-family="Helvetica,sans-Serif" font-size="10.00">USB CDC</text>
</a>
</g>
</g>
<!-- Node4 -->
<g id="node19" class="node"><title>Node4</title>
<g id="a_node19"><a xlink:href="group__infra__codec.html" target="_top" xlink:title="Classes used for message serialization. ">
<polygon fill="white" stroke="black" points="398,-107.549 398,-126.549 468,-126.549 468,-107.549 398,-107.549"/>
<text text-anchor="middle" x="433" y="-114.549" font-family="Helvetica,sans-Serif" font-size="10.00">Serialization</text>
</a>
</g>
</g>
<!-- Node0&#45;&gt;Node11 -->
<g id="edge11" class="edge"><title>Node0&#45;&gt;Node11</title>
<path fill="none" stroke="blueviolet" stroke-dasharray="5,2" d="M175.807,-392.752C177.658,-444.632 189.062,-688.759 241,-738.049 283.694,-778.566 357.961,-775.188 400.209,-769.121"/>
<text text-anchor="middle" x="301.5" y="-775.049" font-family="Helvetica,sans-Serif" font-size="10.00">erpc</text>
</g>
<!-- Node0&#45;&gt;Node9 -->
<g id="edge9" class="edge"><title>Node0&#45;&gt;Node9</title>
<path fill="none" stroke="blueviolet" stroke-dasharray="5,2" d="M176.032,-392.66C178.912,-440.966 194.269,-656.637 241,-700.049 264.644,-722.014 361.197,-725.069 407.287,-725.243"/>
<text text-anchor="middle" x="301.5" y="-726.049" font-family="Helvetica,sans-Serif" font-size="10.00">erpc</text>
</g>
<!-- Node0&#45;&gt;Node13 -->
<g id="edge13" class="edge"><title>Node0&#45;&gt;Node13</title>
<path fill="none" stroke="blueviolet" stroke-dasharray="5,2" d="M176.322,-392.68C180.348,-437.436 199.484,-624.506 241,-662.049 262.332,-681.339 341.22,-685.994 390.693,-686.971"/>
<text text-anchor="middle" x="301.5" y="-688.049" font-family="Helvetica,sans-Serif" font-size="10.00">erpc</text>
</g>
<!-- Node0&#45;&gt;Node19 -->
<g id="edge20" class="edge"><title>Node0&#45;&gt;Node19</title>
<path fill="none" stroke="blueviolet" stroke-dasharray="5,2" d="M176.705,-392.72C182.012,-433.693 204.666,-592.323 241,-624.049 265.624,-645.55 364.029,-648.791 409.165,-649.123"/>
<text text-anchor="middle" x="301.5" y="-650.049" font-family="Helvetica,sans-Serif" font-size="10.00">erpc</text>
</g>
<!-- Node0&#45;&gt;Node3 -->
<g id="edge3" class="edge"><title>Node0&#45;&gt;Node3</title>
<path fill="none" stroke="blueviolet" stroke-dasharray="5,2" d="M175.296,-392.619C175.161,-425.534 179.534,-534.861 241,-586.049 266.698,-607.45 368.82,-610.671 412.269,-611.056"/>
<text text-anchor="middle" x="301.5" y="-612.049" font-family="Helvetica,sans-Serif" font-size="10.00">erpc</text>
</g>
<!-- Node0&#45;&gt;Node5 -->
<g id="edge5" class="edge"><title>Node0&#45;&gt;Node5</title>
<path fill="none" stroke="blueviolet" stroke-dasharray="5,2" d="M176.104,-392.848C178.464,-421.913 189.687,-508.099 241,-548.049 265.409,-567.053 354.286,-571.646 401.707,-572.732"/>
<text text-anchor="middle" x="301.5" y="-574.049" font-family="Helvetica,sans-Serif" font-size="10.00">erpc</text>
</g>
<!-- Node0&#45;&gt;Node15 -->
<g id="edge16" class="edge"><title>Node0&#45;&gt;Node15</title>
<path fill="none" stroke="blueviolet" stroke-dasharray="5,2" d="M177.134,-392.579C181.911,-417.231 198.31,-483.251 241,-513.049 266.387,-530.768 355.269,-534.36 402.298,-534.994"/>
<text text-anchor="middle" x="301.5" y="-536.049" font-family="Helvetica,sans-Serif" font-size="10.00">erpc</text>
</g>
<!-- Node0&#45;&gt;Node6 -->
<g id="edge6" class="edge"><title>Node0&#45;&gt;Node6</title>
<path fill="none" stroke="blueviolet" stroke-dasharray="5,2" d="M179.606,-392.607C188.083,-411.06 209.409,-451.414 241,-470.049 294.363,-501.527 370.346,-501.609 408.388,-499.234"/>
<text text-anchor="middle" x="301.5" y="-502.049" font-family="Helvetica,sans-Serif" font-size="10.00">erpc</text>
</g>
<!-- Node0&#45;&gt;Node17 -->
<g id="edge18" class="edge"><title>Node0&#45;&gt;Node17</title>
<path fill="none" stroke="blueviolet" stroke-dasharray="5,2" d="M186.165,-392.903C198.422,-403.631 219.613,-420.407 241,-429.049 295.618,-451.12 365.115,-457.029 403.421,-458.562"/>
<text text-anchor="middle" x="301.5" y="-458.049" font-family="Helvetica,sans-Serif" font-size="10.00">erpc</text>
</g>
<!-- Node0&#45;&gt;Node20 -->
<g id="edge21" class="edge"><title>Node0&#45;&gt;Node20</title>
<path fill="none" stroke="blueviolet" stroke-dasharray="5,2" d="M214.154,-392.611C222.944,-394.587 232.265,-396.527 241,-398.049 294.139,-407.307 356.247,-414.037 394.858,-417.745"/>
<text text-anchor="middle" x="301.5" y="-417.049" font-family="Helvetica,sans-Serif" font-size="10.00">erpc</text>
</g>
<!-- Node0&#45;&gt;Node18 -->
<g id="edge19" class="edge"><title>Node0&#45;&gt;Node18</title>
<path fill="none" stroke="blueviolet" stroke-dasharray="5,2" d="M223.145,-383.049C267.622,-383.049 333.852,-383.049 379.756,-383.049"/>
<text text-anchor="middle" x="301.5" y="-386.049" font-family="Helvetica,sans-Serif" font-size="10.00">erpc</text>
</g>
<!-- Node0&#45;&gt;Node16 -->
<g id="edge17" class="edge"><title>Node0&#45;&gt;Node16</title>
<path fill="none" stroke="blueviolet" stroke-dasharray="5,2" d="M214.154,-373.487C222.944,-371.511 232.265,-369.571 241,-368.049 296.772,-358.333 362.422,-351.4 400.419,-347.824"/>
<text text-anchor="middle" x="301.5" y="-371.049" font-family="Helvetica,sans-Serif" font-size="10.00">erpc</text>
</g>
<!-- Node0&#45;&gt;Node14 -->
<g id="edge15" class="edge"><title>Node0&#45;&gt;Node14</title>
<path fill="none" stroke="blueviolet" stroke-dasharray="5,2" d="M185.678,-373.348C197.819,-362.384 219.221,-344.913 241,-336.049 287.132,-317.272 344.013,-310.521 383.65,-308.162"/>
<text text-anchor="middle" x="301.5" y="-339.049" font-family="Helvetica,sans-Serif" font-size="10.00">erpc</text>
</g>
<!-- Node0&#45;&gt;Node7 -->
<g id="edge7" class="edge"><title>Node0&#45;&gt;Node7</title>
<path fill="none" stroke="blueviolet" stroke-dasharray="5,2" d="M179.397,-373.537C187.643,-354.751 208.784,-313.066 241,-294.049 295.431,-261.919 373.597,-263.604 410.784,-266.687"/>
<text text-anchor="middle" x="301.5" y="-297.049" font-family="Helvetica,sans-Serif" font-size="10.00">erpc</text>
</g>
<!-- Node0&#45;&gt;Node12 -->
<g id="edge12" class="edge"><title>Node0&#45;&gt;Node12</title>
<path fill="none" stroke="blueviolet" stroke-dasharray="5,2" d="M177.033,-373.267C181.566,-347.969 197.425,-280.256 241,-250.049 288.652,-217.015 359.765,-220.109 400.432,-225.48"/>
<text text-anchor="middle" x="301.5" y="-253.049" font-family="Helvetica,sans-Serif" font-size="10.00">erpc</text>
</g>
<!-- Node0&#45;&gt;Node10 -->
<g id="edge10" class="edge"><title>Node0&#45;&gt;Node10</title>
<path fill="none" stroke="blueviolet" stroke-dasharray="5,2" d="M175.722,-373.349C176.998,-342.893 185.459,-248.734 241,-207.049 286.074,-173.22 355.192,-178.05 396.755,-185.177"/>
<text text-anchor="middle" x="301.5" y="-210.049" font-family="Helvetica,sans-Serif" font-size="10.00">erpc</text>
</g>
<!-- Node0&#45;&gt;Node21 -->
<g id="edge22" class="edge"><title>Node0&#45;&gt;Node21</title>
<path fill="none" stroke="blueviolet" stroke-dasharray="5,2" d="M176.901,-373.402C182.74,-334.646 206.455,-191.061 241,-164.049 265.386,-144.981 355.611,-148.919 402.803,-152.463"/>
<text text-anchor="middle" x="301.5" y="-167.049" font-family="Helvetica,sans-Serif" font-size="10.00">erpc</text>
</g>
<!-- Node0&#45;&gt;Node4 -->
<g id="edge4" class="edge"><title>Node0&#45;&gt;Node4</title>
<path fill="none" stroke="blueviolet" stroke-dasharray="5,2" d="M176.586,-373.306C181.48,-331.281 202.918,-166.202 241,-134.049 263.957,-114.666 349.494,-114.165 397.95,-115.555"/>
<text text-anchor="middle" x="301.5" y="-137.049" font-family="Helvetica,sans-Serif" font-size="10.00">erpc</text>
</g>
<!-- Node2 -->
<g id="node21" class="node"><title>Node2</title>
<g id="a_node21"><a xlink:href="group__rpmsg__lite__transport.html" target="_top" xlink:title="RPMsg&#45;Lite zero copy transport. ">
<polygon fill="white" stroke="black" points="399,-61.5489 399,-80.5489 467,-80.5489 467,-61.5489 399,-61.5489"/>
<text text-anchor="middle" x="433" y="-68.5489" font-family="Helvetica,sans-Serif" font-size="10.00">RPMsg&#45;Lite</text>
</a>
</g>
</g>
<!-- Node0&#45;&gt;Node2 -->
<g id="edge2" class="edge"><title>Node0&#45;&gt;Node2</title>
<path fill="none" stroke="orange" stroke-dasharray="5,2" d="M176.318,-373.3C180.321,-327.996 199.373,-138.597 241,-100.049 263.394,-79.3112 350.484,-73.4024 398.962,-71.7191"/>
<text text-anchor="middle" x="301.5" y="-103.049" font-family="Helvetica,sans-Serif" font-size="10.00">erpc::RPMsgBaseTransport</text>
</g>
<!-- Node0&#45;&gt;Node2 -->
<g id="edge14" class="edge"><title>Node0&#45;&gt;Node2</title>
<path fill="none" stroke="blueviolet" stroke-dasharray="5,2" d="M175.871,-373.404C177.992,-323.947 190.337,-99.5202 241,-58.0489 290.38,-17.628 373.127,-45.151 411.415,-61.4387"/>
<text text-anchor="middle" x="301.5" y="-61.0489" font-family="Helvetica,sans-Serif" font-size="10.00">erpc</text>
</g>
<!-- Node8 -->
<g id="node22" class="node"><title>Node8</title>
<g id="a_node22"><a xlink:href="group__port__setup__extensions.html" target="_top" xlink:title="Extension setup functions. ">
<polygon fill="white" stroke="black" points="388.5,-15.5489 388.5,-34.5489 477.5,-34.5489 477.5,-15.5489 388.5,-15.5489"/>
<text text-anchor="middle" x="433" y="-22.5489" font-family="Helvetica,sans-Serif" font-size="10.00">Extension Setup</text>
</a>
</g>
</g>
<!-- Node0&#45;&gt;Node8 -->
<g id="edge8" class="edge"><title>Node0&#45;&gt;Node8</title>
<path fill="none" stroke="blueviolet" stroke-dasharray="5,2" d="M175.673,-373.462C176.837,-321.117 185.292,-70.5128 241,-24.0489 287.729,14.9256 365.603,-2.4873 405.963,-15.476"/>
<text text-anchor="middle" x="301.5" y="-27.0489" font-family="Helvetica,sans-Serif" font-size="10.00">erpc</text>
</g>
</g>
</svg>
