<?xml version="1.0" encoding="UTF-8" standalone="no"?>
<!DOCTYPE svg PUBLIC "-//W3C//DTD SVG 1.1//EN"
 "http://www.w3.org/Graphics/SVG/1.1/DTD/svg11.dtd">
<!-- Generated by graphviz version 2.38.0 (20140413.2041)
 -->
<!-- Title: Client Pages: 1 -->
<svg width="343pt" height="636pt"
 viewBox="0.00 0.00 343.00 636.00" xmlns="http://www.w3.org/2000/svg" xmlns:xlink="http://www.w3.org/1999/xlink">
<g id="graph0" class="graph" transform="scale(1 1) rotate(0) translate(4 632)">
<title>Client</title>
<polygon fill="white" stroke="none" points="-4,4 -4,-632 339,-632 339,4 -4,4"/>
<!-- Node8 -->
<g id="node1" class="node"><title>Node8</title>
<g id="a_node1"><a xlink:href="group__dspi__slave__transport.html" target="_top" xlink:title="Kinetis SDK DSPI slave driver transport. ">
<polygon fill="white" stroke="black" points="238,-608.5 238,-627.5 303,-627.5 303,-608.5 238,-608.5"/>
<text text-anchor="middle" x="270.5" y="-615.5" font-family="Helvetica,sans-Serif" font-size="10.00">DSPI Slave</text>
</a>
</g>
</g>
<!-- Node6 -->
<g id="node2" class="node"><title>Node6</title>
<g id="a_node2"><a xlink:href="group__port__threads.html" target="_top" xlink:title="Threading model. ">
<polygon fill="white" stroke="black" points="245,-570.5 245,-589.5 296,-589.5 296,-570.5 245,-570.5"/>
<text text-anchor="middle" x="270.5" y="-577.5" font-family="Helvetica,sans-Serif" font-size="10.00">Threads</text>
</a>
</g>
</g>
<!-- Node10 -->
<g id="node3" class="node"><title>Node10</title>
<g id="a_node3"><a xlink:href="group__mu__transport.html" target="_top" xlink:title="Messaging Unit transport. ">
<polygon fill="white" stroke="black" points="228.5,-532.5 228.5,-551.5 312.5,-551.5 312.5,-532.5 228.5,-532.5"/>
<text text-anchor="middle" x="270.5" y="-539.5" font-family="Helvetica,sans-Serif" font-size="10.00">Messaging Unit</text>
</a>
</g>
</g>
<!-- Node17 -->
<g id="node4" class="node"><title>Node17</title>
<g id="a_node4"><a xlink:href="group__tcp__transport.html" target="_top" xlink:title="Simple TCP/IP transport. ">
<polygon fill="white" stroke="black" points="247,-494.5 247,-513.5 294,-513.5 294,-494.5 247,-494.5"/>
<text text-anchor="middle" x="270.5" y="-501.5" font-family="Helvetica,sans-Serif" font-size="10.00">TCP/IP</text>
</a>
</g>
</g>
<!-- Node1 -->
<g id="node5" class="node"><title>Node1</title>
<g id="a_node5"><a xlink:href="group__infra.html" target="_top" xlink:title="C++ core. ">
<polygon fill="white" stroke="black" points="0,-304.5 0,-323.5 73,-323.5 73,-304.5 0,-304.5"/>
<text text-anchor="middle" x="36.5" y="-311.5" font-family="Helvetica,sans-Serif" font-size="10.00">Infrastructure</text>
</a>
</g>
</g>
<!-- Node0 -->
<g id="node6" class="node"><title>Node0</title>
<polygon fill="#bfbfbf" stroke="black" points="110,-304.5 110,-323.5 151,-323.5 151,-304.5 110,-304.5"/>
<text text-anchor="middle" x="130.5" y="-311.5" font-family="Helvetica,sans-Serif" font-size="10.00">Client</text>
</g>
<!-- Node1&#45;&gt;Node0 -->
<g id="edge1" class="edge"><title>Node1&#45;&gt;Node0</title>
<path fill="none" stroke="black" d="M83.2184,-314C92.6461,-314 102.089,-314 109.965,-314"/>
<polygon fill="black" stroke="black" points="83.0696,-310.5 73.0696,-314 83.0696,-317.5 83.0696,-310.5"/>
</g>
<!-- Node0&#45;&gt;Node8 -->
<g id="edge8" class="edge"><title>Node0&#45;&gt;Node8</title>
<path fill="none" stroke="blueviolet" stroke-dasharray="5,2" d="M132.116,-323.773C134.812,-364.525 146.459,-520.812 169,-564 179.474,-584.067 186.403,-587.671 206,-599 215.763,-604.644 227.357,-608.751 237.949,-611.671"/>
<text text-anchor="middle" x="178.5" y="-590" font-family="Helvetica,sans-Serif" font-size="10.00">erpc</text>
</g>
<!-- Node0&#45;&gt;Node6 -->
<g id="edge6" class="edge"><title>Node0&#45;&gt;Node6</title>
<path fill="none" stroke="blueviolet" stroke-dasharray="5,2" d="M131.134,-323.56C130.348,-354.75 131.066,-455.581 169,-526 179.735,-545.929 186.403,-549.671 206,-561 217.955,-567.911 232.654,-572.518 244.899,-575.462"/>
<text text-anchor="middle" x="178.5" y="-552" font-family="Helvetica,sans-Serif" font-size="10.00">erpc</text>
</g>
<!-- Node0&#45;&gt;Node10 -->
<g id="edge10" class="edge"><title>Node0&#45;&gt;Node10</title>
<path fill="none" stroke="blueviolet" stroke-dasharray="5,2" d="M131.678,-323.672C132.569,-351.066 137.853,-430.827 169,-487 180.126,-507.066 186.218,-511.377 206,-523 212.846,-527.022 220.614,-530.257 228.311,-532.835"/>
<text text-anchor="middle" x="178.5" y="-514" font-family="Helvetica,sans-Serif" font-size="10.00">erpc</text>
</g>
<!-- Node0&#45;&gt;Node17 -->
<g id="edge17" class="edge"><title>Node0&#45;&gt;Node17</title>
<path fill="none" stroke="blueviolet" stroke-dasharray="5,2" d="M132.419,-323.501C134.995,-346.523 143.823,-406.521 169,-449 180.698,-468.738 186.218,-473.377 206,-485 218.6,-492.403 234.327,-497.137 246.976,-500.028"/>
<text text-anchor="middle" x="178.5" y="-475" font-family="Helvetica,sans-Serif" font-size="10.00">erpc</text>
</g>
<!-- Node3 -->
<g id="node7" class="node"><title>Node3</title>
<g id="a_node7"><a xlink:href="group__infra__transport.html" target="_top" xlink:title="Superclasses for building transports. ">
<polygon fill="white" stroke="black" points="239.5,-456.5 239.5,-475.5 301.5,-475.5 301.5,-456.5 239.5,-456.5"/>
<text text-anchor="middle" x="270.5" y="-463.5" font-family="Helvetica,sans-Serif" font-size="10.00">Transports</text>
</a>
</g>
</g>
<!-- Node0&#45;&gt;Node3 -->
<g id="edge3" class="edge"><title>Node0&#45;&gt;Node3</title>
<path fill="none" stroke="blueviolet" stroke-dasharray="5,2" d="M133.776,-323.734C138.35,-341.977 149.887,-382.08 169,-411 181.65,-430.141 186.218,-435.377 206,-447 216.12,-452.946 228.256,-457.17 239.196,-460.1"/>
<text text-anchor="middle" x="178.5" y="-437" font-family="Helvetica,sans-Serif" font-size="10.00">erpc</text>
</g>
<!-- Node14 -->
<g id="node8" class="node"><title>Node14</title>
<g id="a_node8"><a xlink:href="group__serial__transport.html" target="_top" xlink:title="POSIX and Win32 serial port transport. ">
<polygon fill="white" stroke="black" points="240,-418.5 240,-437.5 301,-437.5 301,-418.5 240,-418.5"/>
<text text-anchor="middle" x="270.5" y="-425.5" font-family="Helvetica,sans-Serif" font-size="10.00">Serial port</text>
</a>
</g>
</g>
<!-- Node0&#45;&gt;Node14 -->
<g id="edge14" class="edge"><title>Node0&#45;&gt;Node14</title>
<path fill="none" stroke="blueviolet" stroke-dasharray="5,2" d="M135.983,-323.581C142.284,-336.49 154.614,-359.827 169,-377 182.962,-393.666 186.94,-398.54 206,-409 216.391,-414.702 228.7,-418.892 239.701,-421.862"/>
<text text-anchor="middle" x="178.5" y="-399" font-family="Helvetica,sans-Serif" font-size="10.00">erpc</text>
</g>
<!-- Node4 -->
<g id="node9" class="node"><title>Node4</title>
<g id="a_node9"><a xlink:href="group__infra__utility.html" target="_top" xlink:title="Utility code used by the infrastructure. ">
<polygon fill="white" stroke="black" points="246,-380.5 246,-399.5 295,-399.5 295,-380.5 246,-380.5"/>
<text text-anchor="middle" x="270.5" y="-387.5" font-family="Helvetica,sans-Serif" font-size="10.00">Utilities</text>
</a>
</g>
</g>
<!-- Node0&#45;&gt;Node4 -->
<g id="edge4" class="edge"><title>Node0&#45;&gt;Node4</title>
<path fill="none" stroke="blueviolet" stroke-dasharray="5,2" d="M140.56,-323.511C147.865,-330.91 158.6,-341.197 169,-349 184.303,-360.482 188.481,-363.311 206,-371 218.75,-376.596 233.633,-381.147 245.785,-384.39"/>
<text text-anchor="middle" x="178.5" y="-365" font-family="Helvetica,sans-Serif" font-size="10.00">erpc</text>
</g>
<!-- Node16 -->
<g id="node10" class="node"><title>Node16</title>
<g id="a_node10"><a xlink:href="group__spi__slave__transport.html" target="_top" xlink:title="Kinetis SDK SPI slave driver transport. ">
<polygon fill="white" stroke="black" points="241,-342.5 241,-361.5 300,-361.5 300,-342.5 241,-342.5"/>
<text text-anchor="middle" x="270.5" y="-349.5" font-family="Helvetica,sans-Serif" font-size="10.00">SPI Slave</text>
</a>
</g>
</g>
<!-- Node0&#45;&gt;Node16 -->
<g id="edge16" class="edge"><title>Node0&#45;&gt;Node16</title>
<path fill="none" stroke="blueviolet" stroke-dasharray="5,2" d="M151.143,-322.524C156.838,-324.813 163.11,-327.16 169,-329 192.748,-336.418 220.336,-342.561 240.593,-346.627"/>
<text text-anchor="middle" x="178.5" y="-337" font-family="Helvetica,sans-Serif" font-size="10.00">erpc</text>
</g>
<!-- Node18 -->
<g id="node11" class="node"><title>Node18</title>
<g id="a_node11"><a xlink:href="group__uart__transport.html" target="_top" xlink:title="CMSIS UART driver transport. ">
<polygon fill="white" stroke="black" points="232.5,-304.5 232.5,-323.5 308.5,-323.5 308.5,-304.5 232.5,-304.5"/>
<text text-anchor="middle" x="270.5" y="-311.5" font-family="Helvetica,sans-Serif" font-size="10.00">CMSIS UART</text>
</a>
</g>
</g>
<!-- Node0&#45;&gt;Node18 -->
<g id="edge18" class="edge"><title>Node0&#45;&gt;Node18</title>
<path fill="none" stroke="blueviolet" stroke-dasharray="5,2" d="M151.272,-314C172.363,-314 206.259,-314 232.361,-314"/>
<text text-anchor="middle" x="178.5" y="-317" font-family="Helvetica,sans-Serif" font-size="10.00">erpc</text>
</g>
<!-- Node15 -->
<g id="node12" class="node"><title>Node15</title>
<g id="a_node12"><a xlink:href="group__spi__master__transport.html" target="_top" xlink:title="Kinetis SDK SPI master driver transport. ">
<polygon fill="white" stroke="black" points="238,-266.5 238,-285.5 303,-285.5 303,-266.5 238,-266.5"/>
<text text-anchor="middle" x="270.5" y="-273.5" font-family="Helvetica,sans-Serif" font-size="10.00">SPI Master</text>
</a>
</g>
</g>
<!-- Node0&#45;&gt;Node15 -->
<g id="edge15" class="edge"><title>Node0&#45;&gt;Node15</title>
<path fill="none" stroke="blueviolet" stroke-dasharray="5,2" d="M151.143,-305.476C156.838,-303.187 163.11,-300.84 169,-299 191.723,-291.903 217.962,-285.972 237.93,-281.911"/>
<text text-anchor="middle" x="178.5" y="-302" font-family="Helvetica,sans-Serif" font-size="10.00">erpc</text>
</g>
<!-- Node5 -->
<g id="node13" class="node"><title>Node5</title>
<g id="a_node13"><a xlink:href="group__infra__server.html" target="_top" xlink:title="Server classes. ">
<polygon fill="white" stroke="black" points="248.5,-228.5 248.5,-247.5 292.5,-247.5 292.5,-228.5 248.5,-228.5"/>
<text text-anchor="middle" x="270.5" y="-235.5" font-family="Helvetica,sans-Serif" font-size="10.00">Server</text>
</a>
</g>
</g>
<!-- Node0&#45;&gt;Node5 -->
<g id="edge5" class="edge"><title>Node0&#45;&gt;Node5</title>
<path fill="none" stroke="blueviolet" stroke-dasharray="5,2" d="M140.56,-304.489C147.865,-297.09 158.6,-286.803 169,-279 184.303,-267.518 188.481,-264.689 206,-257 219.698,-250.988 235.859,-246.182 248.449,-242.908"/>
<text text-anchor="middle" x="178.5" y="-282" font-family="Helvetica,sans-Serif" font-size="10.00">erpc</text>
</g>
<!-- Node9 -->
<g id="node14" class="node"><title>Node9</title>
<g id="a_node14"><a xlink:href="group__itbp__transport.html" target="_top" xlink:title="Simple inter&#45;thread communications transport. ">
<polygon fill="white" stroke="black" points="238,-190.5 238,-209.5 303,-209.5 303,-190.5 238,-190.5"/>
<text text-anchor="middle" x="270.5" y="-197.5" font-family="Helvetica,sans-Serif" font-size="10.00">Inter&#45;thread</text>
</a>
</g>
</g>
<!-- Node0&#45;&gt;Node9 -->
<g id="edge9" class="edge"><title>Node0&#45;&gt;Node9</title>
<path fill="none" stroke="blueviolet" stroke-dasharray="5,2" d="M135.983,-304.419C142.284,-291.51 154.614,-268.173 169,-251 182.962,-234.334 186.94,-229.46 206,-219 215.785,-213.63 227.272,-209.602 237.766,-206.669"/>
<text text-anchor="middle" x="178.5" y="-254" font-family="Helvetica,sans-Serif" font-size="10.00">erpc</text>
</g>
<!-- Node7 -->
<g id="node15" class="node"><title>Node7</title>
<g id="a_node15"><a xlink:href="group__dspi__master__transport.html" target="_top" xlink:title="Kinetis SDK DSPI master driver transport. ">
<polygon fill="white" stroke="black" points="234.5,-152.5 234.5,-171.5 306.5,-171.5 306.5,-152.5 234.5,-152.5"/>
<text text-anchor="middle" x="270.5" y="-159.5" font-family="Helvetica,sans-Serif" font-size="10.00">DSPI Master</text>
</a>
</g>
</g>
<!-- Node0&#45;&gt;Node7 -->
<g id="edge7" class="edge"><title>Node0&#45;&gt;Node7</title>
<path fill="none" stroke="blueviolet" stroke-dasharray="5,2" d="M133.776,-304.266C138.35,-286.023 149.887,-245.92 169,-217 181.65,-197.859 186.218,-192.623 206,-181 214.632,-175.928 224.73,-172.11 234.302,-169.278"/>
<text text-anchor="middle" x="178.5" y="-220" font-family="Helvetica,sans-Serif" font-size="10.00">erpc</text>
</g>
<!-- Node13 -->
<g id="node16" class="node"><title>Node13</title>
<g id="a_node16"><a xlink:href="group__rpmsg__tty__rtos__transport.html" target="_top" xlink:title="Rpmsg_tty_rtos_transport">
<polygon fill="white" stroke="black" points="206,-114.5 206,-133.5 335,-133.5 335,-114.5 206,-114.5"/>
<text text-anchor="middle" x="270.5" y="-121.5" font-family="Helvetica,sans-Serif" font-size="10.00">Rpmsg_tty_rtos_transport</text>
</a>
</g>
</g>
<!-- Node0&#45;&gt;Node13 -->
<g id="edge13" class="edge"><title>Node0&#45;&gt;Node13</title>
<path fill="none" stroke="blueviolet" stroke-dasharray="5,2" d="M132.419,-304.499C134.995,-281.477 143.823,-221.479 169,-179 180.698,-159.262 186.218,-154.623 206,-143 212.548,-139.153 219.941,-136.026 227.307,-133.505"/>
<text text-anchor="middle" x="178.5" y="-182" font-family="Helvetica,sans-Serif" font-size="10.00">erpc</text>
</g>
<!-- Node2 -->
<g id="node17" class="node"><title>Node2</title>
<g id="a_node17"><a xlink:href="group__infra__codec.html" target="_top" xlink:title="Classes used for message serialization. ">
<polygon fill="white" stroke="black" points="235.5,-76.5 235.5,-95.5 305.5,-95.5 305.5,-76.5 235.5,-76.5"/>
<text text-anchor="middle" x="270.5" y="-83.5" font-family="Helvetica,sans-Serif" font-size="10.00">Serialization</text>
</a>
</g>
</g>
<!-- Node0&#45;&gt;Node2 -->
<g id="edge2" class="edge"><title>Node0&#45;&gt;Node2</title>
<path fill="none" stroke="blueviolet" stroke-dasharray="5,2" d="M131.678,-304.328C132.569,-276.934 137.853,-197.173 169,-141 180.126,-120.934 186.218,-116.623 206,-105 214.929,-99.7536 225.429,-95.8477 235.29,-92.9883"/>
<text text-anchor="middle" x="178.5" y="-144" font-family="Helvetica,sans-Serif" font-size="10.00">erpc</text>
</g>
<!-- Node11 -->
<g id="node18" class="node"><title>Node11</title>
<g id="a_node18"><a xlink:href="group__rpmsg__lite__rtos__transport.html" target="_top" xlink:title="RPMsg&#45;Lite zero copy transport using RTOS API. ">
<polygon fill="white" stroke="black" points="222,-38.5 222,-57.5 319,-57.5 319,-38.5 222,-38.5"/>
<text text-anchor="middle" x="270.5" y="-45.5" font-family="Helvetica,sans-Serif" font-size="10.00">RPMsg&#45;Lite RTOS</text>
</a>
</g>
</g>
<!-- Node0&#45;&gt;Node11 -->
<g id="edge11" class="edge"><title>Node0&#45;&gt;Node11</title>
<path fill="none" stroke="blueviolet" stroke-dasharray="5,2" d="M131.134,-304.44C130.348,-273.25 131.066,-172.419 169,-102 179.735,-82.0715 186.403,-78.3295 206,-67 212.575,-63.1988 219.981,-60.0947 227.351,-57.5809"/>
<text text-anchor="middle" x="178.5" y="-105" font-family="Helvetica,sans-Serif" font-size="10.00">erpc</text>
</g>
<!-- Node12 -->
<g id="node19" class="node"><title>Node12</title>
<g id="a_node19"><a xlink:href="group__rpmsg__lite__transport.html" target="_top" xlink:title="RPMsg&#45;Lite zero copy transport. ">
<polygon fill="white" stroke="black" points="236.5,-0.5 236.5,-19.5 304.5,-19.5 304.5,-0.5 236.5,-0.5"/>
<text text-anchor="middle" x="270.5" y="-7.5" font-family="Helvetica,sans-Serif" font-size="10.00">RPMsg&#45;Lite</text>
</a>
</g>
</g>
<!-- Node0&#45;&gt;Node12 -->
<g id="edge12" class="edge"><title>Node0&#45;&gt;Node12</title>
<path fill="none" stroke="blueviolet" stroke-dasharray="5,2" d="M132.116,-304.227C134.812,-263.475 146.459,-107.188 169,-64 179.474,-43.9326 186.403,-40.3295 206,-29 215.265,-23.6437 226.178,-19.6717 236.32,-16.7849"/>
<text text-anchor="middle" x="178.5" y="-67" font-family="Helvetica,sans-Serif" font-size="10.00">erpc</text>
</g>
</g>
</svg>
