<?xml version="1.0" encoding="UTF-8" standalone="no"?>
<!DOCTYPE svg PUBLIC "-//W3C//DTD SVG 1.1//EN"
 "http://www.w3.org/Graphics/SVG/1.1/DTD/svg11.dtd">
<!-- Generated by graphviz version 2.38.0 (20140413.2041)
 -->
<!-- Title: RPMsg&#45;Lite Pages: 1 -->
<svg width="428pt" height="927pt"
 viewBox="0.00 0.00 428.00 927.19" xmlns="http://www.w3.org/2000/svg" xmlns:xlink="http://www.w3.org/1999/xlink">
<g id="graph0" class="graph" transform="scale(1 1) rotate(0) translate(4 923.188)">
<title>RPMsg&#45;Lite</title>
<polygon fill="white" stroke="none" points="-4,4 -4,-923.188 424,-923.188 424,4 -4,4"/>
<!-- Node1 -->
<g id="node1" class="node"><title>Node1</title>
<g id="a_node1"><a xlink:href="group__transports.html" target="_top" xlink:title="Transport layer classes. ">
<polygon fill="white" stroke="black" points="0,-438.688 0,-457.688 89,-457.688 89,-438.688 0,-438.688"/>
<text text-anchor="middle" x="44.5" y="-445.688" font-family="Helvetica,sans-Serif" font-size="10.00">Transport Layers</text>
</a>
</g>
</g>
<!-- Node0 -->
<g id="node24" class="node"><title>Node0</title>
<polygon fill="#bfbfbf" stroke="black" points="126,-438.688 126,-457.688 194,-457.688 194,-438.688 126,-438.688"/>
<text text-anchor="middle" x="160" y="-445.688" font-family="Helvetica,sans-Serif" font-size="10.00">RPMsg&#45;Lite</text>
</g>
<!-- Node1&#45;&gt;Node0 -->
<g id="edge1" class="edge"><title>Node1&#45;&gt;Node0</title>
<path fill="none" stroke="black" d="M99.2532,-448.188C108.367,-448.188 117.585,-448.188 125.961,-448.188"/>
<polygon fill="black" stroke="black" points="99.0575,-444.688 89.0575,-448.188 99.0574,-451.688 99.0575,-444.688"/>
</g>
<!-- Node11 -->
<g id="node2" class="node"><title>Node11</title>
<g id="a_node2"><a xlink:href="group__dspi__slave__transport.html" target="_top" xlink:title="MCUXpressoSDK DSPI slave driver transport. ">
<polygon fill="white" stroke="black" points="332.5,-894.688 332.5,-913.688 397.5,-913.688 397.5,-894.688 332.5,-894.688"/>
<text text-anchor="middle" x="365" y="-901.688" font-family="Helvetica,sans-Serif" font-size="10.00">DSPI Slave</text>
</a>
</g>
</g>
<!-- Node12 -->
<g id="node3" class="node"><title>Node12</title>
<g id="a_node3"><a xlink:href="group__i2c__slave__transport.html" target="_top" xlink:title="MCUXpressoSDK I2C slave driver transport. ">
<polygon fill="white" stroke="black" points="336.5,-856.688 336.5,-875.688 393.5,-875.688 393.5,-856.688 336.5,-856.688"/>
<text text-anchor="middle" x="365" y="-863.688" font-family="Helvetica,sans-Serif" font-size="10.00">I2C Slave</text>
</a>
</g>
</g>
<!-- Node9 -->
<g id="node4" class="node"><title>Node9</title>
<g id="a_node4"><a xlink:href="group__port__threads.html" target="_top" xlink:title="Threading model. ">
<polygon fill="white" stroke="black" points="339.5,-818.688 339.5,-837.688 390.5,-837.688 390.5,-818.688 339.5,-818.688"/>
<text text-anchor="middle" x="365" y="-825.688" font-family="Helvetica,sans-Serif" font-size="10.00">Threads</text>
</a>
</g>
</g>
<!-- Node16 -->
<g id="node5" class="node"><title>Node16</title>
<g id="a_node5"><a xlink:href="group__mbox__transport.html" target="_top" xlink:title="Mbox_transport">
<polygon fill="white" stroke="black" points="323,-780.688 323,-799.688 407,-799.688 407,-780.688 323,-780.688"/>
<text text-anchor="middle" x="365" y="-787.688" font-family="Helvetica,sans-Serif" font-size="10.00">Mbox_transport</text>
</a>
</g>
</g>
<!-- Node17 -->
<g id="node6" class="node"><title>Node17</title>
<g id="a_node6"><a xlink:href="group__mu__transport.html" target="_top" xlink:title="Messaging Unit transport. ">
<polygon fill="white" stroke="black" points="323,-742.688 323,-761.688 407,-761.688 407,-742.688 323,-742.688"/>
<text text-anchor="middle" x="365" y="-749.688" font-family="Helvetica,sans-Serif" font-size="10.00">Messaging Unit</text>
</a>
</g>
</g>
<!-- Node23 -->
<g id="node7" class="node"><title>Node23</title>
<g id="a_node7"><a xlink:href="group__tcp__transport.html" target="_top" xlink:title="Simple TCP/IP transport. ">
<polygon fill="white" stroke="black" points="341.5,-704.688 341.5,-723.688 388.5,-723.688 388.5,-704.688 341.5,-704.688"/>
<text text-anchor="middle" x="365" y="-711.688" font-family="Helvetica,sans-Serif" font-size="10.00">TCP/IP</text>
</a>
</g>
</g>
<!-- Node3 -->
<g id="node8" class="node"><title>Node3</title>
<g id="a_node8"><a xlink:href="group__infra__client.html" target="_top" xlink:title="Client classes. ">
<polygon fill="white" stroke="black" points="344.5,-666.688 344.5,-685.688 385.5,-685.688 385.5,-666.688 344.5,-666.688"/>
<text text-anchor="middle" x="365" y="-673.688" font-family="Helvetica,sans-Serif" font-size="10.00">Client</text>
</a>
</g>
</g>
<!-- Node5 -->
<g id="node9" class="node"><title>Node5</title>
<g id="a_node9"><a xlink:href="group__infra__transport.html" target="_top" xlink:title="Superclasses for building transports. ">
<polygon fill="white" stroke="black" points="334,-628.688 334,-647.688 396,-647.688 396,-628.688 334,-628.688"/>
<text text-anchor="middle" x="365" y="-635.688" font-family="Helvetica,sans-Serif" font-size="10.00">Transports</text>
</a>
</g>
</g>
<!-- Node19 -->
<g id="node10" class="node"><title>Node19</title>
<g id="a_node10"><a xlink:href="group__serial__transport.html" target="_top" xlink:title="POSIX and Win32 serial port transport. ">
<polygon fill="white" stroke="black" points="334.5,-590.688 334.5,-609.688 395.5,-609.688 395.5,-590.688 334.5,-590.688"/>
<text text-anchor="middle" x="365" y="-597.688" font-family="Helvetica,sans-Serif" font-size="10.00">Serial port</text>
</a>
</g>
</g>
<!-- Node6 -->
<g id="node11" class="node"><title>Node6</title>
<g id="a_node11"><a xlink:href="group__infra__utility.html" target="_top" xlink:title="Utility code used by the infrastructure. ">
<polygon fill="white" stroke="black" points="340.5,-552.688 340.5,-571.688 389.5,-571.688 389.5,-552.688 340.5,-552.688"/>
<text text-anchor="middle" x="365" y="-559.688" font-family="Helvetica,sans-Serif" font-size="10.00">Utilities</text>
</a>
</g>
</g>
<!-- Node21 -->
<g id="node12" class="node"><title>Node21</title>
<g id="a_node12"><a xlink:href="group__spi__slave__transport.html" target="_top" xlink:title="MCUXpressoSDK SPI slave driver transport. ">
<polygon fill="white" stroke="black" points="335.5,-514.688 335.5,-533.688 394.5,-533.688 394.5,-514.688 335.5,-514.688"/>
<text text-anchor="middle" x="365" y="-521.688" font-family="Helvetica,sans-Serif" font-size="10.00">SPI Slave</text>
</a>
</g>
</g>
<!-- Node24 -->
<g id="node13" class="node"><title>Node24</title>
<g id="a_node13"><a xlink:href="group__uart__transport.html" target="_top" xlink:title="CMSIS UART driver transport. ">
<polygon fill="white" stroke="black" points="327,-476.688 327,-495.688 403,-495.688 403,-476.688 327,-476.688"/>
<text text-anchor="middle" x="365" y="-483.688" font-family="Helvetica,sans-Serif" font-size="10.00">CMSIS UART</text>
</a>
</g>
</g>
<!-- Node22 -->
<g id="node14" class="node"><title>Node22</title>
<g id="a_node14"><a xlink:href="group__spidev__master__transport.html" target="_top" xlink:title="SPIdev Linux transport. ">
<polygon fill="white" stroke="black" points="312,-438.688 312,-457.688 418,-457.688 418,-438.688 312,-438.688"/>
<text text-anchor="middle" x="365" y="-445.688" font-family="Helvetica,sans-Serif" font-size="10.00">SPIdev Linux Master</text>
</a>
</g>
</g>
<!-- Node20 -->
<g id="node15" class="node"><title>Node20</title>
<g id="a_node15"><a xlink:href="group__spi__master__transport.html" target="_top" xlink:title="MCUXpressoSDK SPI master driver transport. ">
<polygon fill="white" stroke="black" points="332.5,-400.688 332.5,-419.688 397.5,-419.688 397.5,-400.688 332.5,-400.688"/>
<text text-anchor="middle" x="365" y="-407.688" font-family="Helvetica,sans-Serif" font-size="10.00">SPI Master</text>
</a>
</g>
</g>
<!-- Node18 -->
<g id="node16" class="node"><title>Node18</title>
<g id="a_node16"><a xlink:href="group__rpmsg__tty__rtos__transport.html" target="_top" xlink:title="RPMsg TTY RTOS transport. ">
<polygon fill="white" stroke="black" points="316,-362.688 316,-381.688 414,-381.688 414,-362.688 316,-362.688"/>
<text text-anchor="middle" x="365" y="-369.688" font-family="Helvetica,sans-Serif" font-size="10.00">RPMsg TTY RTOS</text>
</a>
</g>
</g>
<!-- Node7 -->
<g id="node17" class="node"><title>Node7</title>
<g id="a_node17"><a xlink:href="group__infra__server.html" target="_top" xlink:title="Server classes. ">
<polygon fill="white" stroke="black" points="343,-324.688 343,-343.688 387,-343.688 387,-324.688 343,-324.688"/>
<text text-anchor="middle" x="365" y="-331.688" font-family="Helvetica,sans-Serif" font-size="10.00">Server</text>
</a>
</g>
</g>
<!-- Node14 -->
<g id="node18" class="node"><title>Node14</title>
<g id="a_node18"><a xlink:href="group__lpi2c__slave__transport.html" target="_top" xlink:title="Lpi2c_slave_transport">
<polygon fill="white" stroke="black" points="310,-286.688 310,-305.688 420,-305.688 420,-286.688 310,-286.688"/>
<text text-anchor="middle" x="365" y="-293.688" font-family="Helvetica,sans-Serif" font-size="10.00">Lpi2c_slave_transport</text>
</a>
</g>
</g>
<!-- Node13 -->
<g id="node19" class="node"><title>Node13</title>
<g id="a_node19"><a xlink:href="group__itbp__transport.html" target="_top" xlink:title="Simple inter&#45;thread communications transport. ">
<polygon fill="white" stroke="black" points="332.5,-248.688 332.5,-267.688 397.5,-267.688 397.5,-248.688 332.5,-248.688"/>
<text text-anchor="middle" x="365" y="-255.688" font-family="Helvetica,sans-Serif" font-size="10.00">Inter&#45;thread</text>
</a>
</g>
</g>
<!-- Node10 -->
<g id="node20" class="node"><title>Node10</title>
<g id="a_node20"><a xlink:href="group__dspi__master__transport.html" target="_top" xlink:title="MCUXpressoSDK DSPI master driver transport. ">
<polygon fill="white" stroke="black" points="329,-210.688 329,-229.688 401,-229.688 401,-210.688 329,-210.688"/>
<text text-anchor="middle" x="365" y="-217.688" font-family="Helvetica,sans-Serif" font-size="10.00">DSPI Master</text>
</a>
</g>
</g>
<!-- Node25 -->
<g id="node21" class="node"><title>Node25</title>
<g id="a_node21"><a xlink:href="group___u_s_b___c_d_c__transport.html" target="_top" xlink:title="USB CDC transport. ">
<polygon fill="white" stroke="black" points="335,-172.688 335,-191.688 395,-191.688 395,-172.688 335,-172.688"/>
<text text-anchor="middle" x="365" y="-179.688" font-family="Helvetica,sans-Serif" font-size="10.00">USB CDC</text>
</a>
</g>
</g>
<!-- Node4 -->
<g id="node22" class="node"><title>Node4</title>
<g id="a_node22"><a xlink:href="group__infra__codec.html" target="_top" xlink:title="Classes used for message serialization. ">
<polygon fill="white" stroke="black" points="330,-134.688 330,-153.688 400,-153.688 400,-134.688 330,-134.688"/>
<text text-anchor="middle" x="365" y="-141.688" font-family="Helvetica,sans-Serif" font-size="10.00">Serialization</text>
</a>
</g>
</g>
<!-- Node2 -->
<g id="node23" class="node"><title>Node2</title>
<g id="a_node23"><a xlink:href="group__rpmsg__lite__rtos__transport.html" target="_top" xlink:title="RPMsg&#45;Lite zero copy transport using RTOS API. ">
<polygon fill="white" stroke="black" points="316.5,-90.6878 316.5,-109.688 413.5,-109.688 413.5,-90.6878 316.5,-90.6878"/>
<text text-anchor="middle" x="365" y="-97.6878" font-family="Helvetica,sans-Serif" font-size="10.00">RPMsg&#45;Lite RTOS</text>
</a>
</g>
</g>
<!-- Node0&#45;&gt;Node11 -->
<g id="edge11" class="edge"><title>Node0&#45;&gt;Node11</title>
<path fill="none" stroke="blueviolet" stroke-dasharray="5,2" d="M161.469,-457.984C164.484,-519.106 181.97,-846.575 212,-878.188 242.608,-910.409 297.433,-911.776 332.199,-908.754"/>
<text text-anchor="middle" x="252" y="-911.188" font-family="Helvetica,sans-Serif" font-size="10.00">erpc</text>
</g>
<!-- Node0&#45;&gt;Node12 -->
<g id="edge12" class="edge"><title>Node0&#45;&gt;Node12</title>
<path fill="none" stroke="blueviolet" stroke-dasharray="5,2" d="M160.741,-457.854C159.474,-513.002 156.076,-787.381 212,-844.188 228.835,-861.289 297.143,-865.218 336.216,-866.044"/>
<text text-anchor="middle" x="252" y="-866.188" font-family="Helvetica,sans-Serif" font-size="10.00">erpc</text>
</g>
<!-- Node0&#45;&gt;Node9 -->
<g id="edge9" class="edge"><title>Node0&#45;&gt;Node9</title>
<path fill="none" stroke="blueviolet" stroke-dasharray="5,2" d="M160.926,-457.806C160.734,-509.239 162.502,-751.369 212,-802.188 245.157,-836.229 305.408,-835.564 339.241,-831.956"/>
<text text-anchor="middle" x="252" y="-835.188" font-family="Helvetica,sans-Serif" font-size="10.00">erpc</text>
</g>
<!-- Node0&#45;&gt;Node16 -->
<g id="edge16" class="edge"><title>Node0&#45;&gt;Node16</title>
<path fill="none" stroke="blueviolet" stroke-dasharray="5,2" d="M161.065,-457.851C161.598,-506.426 166.528,-723.362 212,-768.188 227.238,-783.21 283.116,-788.043 322.685,-789.559"/>
<text text-anchor="middle" x="252" y="-790.188" font-family="Helvetica,sans-Serif" font-size="10.00">erpc</text>
</g>
<!-- Node0&#45;&gt;Node17 -->
<g id="edge17" class="edge"><title>Node0&#45;&gt;Node17</title>
<path fill="none" stroke="blueviolet" stroke-dasharray="5,2" d="M161.335,-457.723C163.093,-502.043 172.732,-687.389 212,-726.188 240.757,-754.601 288.473,-758.541 322.777,-756.994"/>
<text text-anchor="middle" x="252" y="-759.188" font-family="Helvetica,sans-Serif" font-size="10.00">erpc</text>
</g>
<!-- Node0&#45;&gt;Node23 -->
<g id="edge24" class="edge"><title>Node0&#45;&gt;Node23</title>
<path fill="none" stroke="blueviolet" stroke-dasharray="5,2" d="M161.589,-457.936C164.291,-499.241 176.912,-659.221 212,-692.188 230.266,-709.35 303.679,-713.17 341.39,-713.988"/>
<text text-anchor="middle" x="252" y="-714.188" font-family="Helvetica,sans-Serif" font-size="10.00">erpc</text>
</g>
<!-- Node0&#45;&gt;Node3 -->
<g id="edge3" class="edge"><title>Node0&#45;&gt;Node3</title>
<path fill="none" stroke="blueviolet" stroke-dasharray="5,2" d="M162.079,-457.888C166.332,-494.331 183.13,-622.344 212,-649.188 248.508,-683.134 312.205,-682.005 344.31,-678.85"/>
<text text-anchor="middle" x="252" y="-682.188" font-family="Helvetica,sans-Serif" font-size="10.00">erpc</text>
</g>
<!-- Node0&#45;&gt;Node5 -->
<g id="edge5" class="edge"><title>Node0&#45;&gt;Node5</title>
<path fill="none" stroke="blueviolet" stroke-dasharray="5,2" d="M160.652,-458.05C160.205,-487.323 163.222,-574.27 212,-616.188 229.796,-631.481 294.966,-636.144 333.96,-637.566"/>
<text text-anchor="middle" x="252" y="-637.188" font-family="Helvetica,sans-Serif" font-size="10.00">erpc</text>
</g>
<!-- Node0&#45;&gt;Node19 -->
<g id="edge20" class="edge"><title>Node0&#45;&gt;Node19</title>
<path fill="none" stroke="blueviolet" stroke-dasharray="5,2" d="M161.854,-457.845C164.506,-481.604 174.809,-543.137 212,-573.188 246.815,-601.318 300.891,-604.237 334.283,-602.867"/>
<text text-anchor="middle" x="252" y="-604.188" font-family="Helvetica,sans-Serif" font-size="10.00">erpc</text>
</g>
<!-- Node0&#45;&gt;Node6 -->
<g id="edge6" class="edge"><title>Node0&#45;&gt;Node6</title>
<path fill="none" stroke="blueviolet" stroke-dasharray="5,2" d="M164.121,-457.81C170.291,-475.214 185.771,-511.819 212,-530.188 250.987,-557.492 308.467,-562.357 340.408,-562.746"/>
<text text-anchor="middle" x="252" y="-561.188" font-family="Helvetica,sans-Serif" font-size="10.00">erpc</text>
</g>
<!-- Node0&#45;&gt;Node21 -->
<g id="edge22" class="edge"><title>Node0&#45;&gt;Node21</title>
<path fill="none" stroke="blueviolet" stroke-dasharray="5,2" d="M169.769,-457.973C179.214,-467.887 195.165,-482.907 212,-491.188 252.102,-510.914 303.881,-518.927 335.478,-522.127"/>
<text text-anchor="middle" x="252" y="-518.188" font-family="Helvetica,sans-Serif" font-size="10.00">erpc</text>
</g>
<!-- Node0&#45;&gt;Node24 -->
<g id="edge25" class="edge"><title>Node0&#45;&gt;Node24</title>
<path fill="none" stroke="blueviolet" stroke-dasharray="5,2" d="M191.028,-457.756C197.875,-459.731 205.152,-461.67 212,-463.188 250.825,-471.793 295.947,-478.173 326.883,-482.002"/>
<text text-anchor="middle" x="252" y="-479.188" font-family="Helvetica,sans-Serif" font-size="10.00">erpc</text>
</g>
<!-- Node0&#45;&gt;Node22 -->
<g id="edge23" class="edge"><title>Node0&#45;&gt;Node22</title>
<path fill="none" stroke="blueviolet" stroke-dasharray="5,2" d="M194.067,-448.188C225.974,-448.188 274.769,-448.188 311.9,-448.188"/>
<text text-anchor="middle" x="252" y="-451.188" font-family="Helvetica,sans-Serif" font-size="10.00">erpc</text>
</g>
<!-- Node0&#45;&gt;Node20 -->
<g id="edge21" class="edge"><title>Node0&#45;&gt;Node20</title>
<path fill="none" stroke="blueviolet" stroke-dasharray="5,2" d="M191.028,-438.62C197.875,-436.644 205.152,-434.706 212,-433.188 253.17,-424.063 301.421,-417.44 332.329,-413.707"/>
<text text-anchor="middle" x="252" y="-436.188" font-family="Helvetica,sans-Serif" font-size="10.00">erpc</text>
</g>
<!-- Node0&#45;&gt;Node18 -->
<g id="edge19" class="edge"><title>Node0&#45;&gt;Node18</title>
<path fill="none" stroke="blueviolet" stroke-dasharray="5,2" d="M169.367,-438.521C178.716,-428.361 194.813,-412.696 212,-404.188 244.506,-388.096 284.813,-380.08 315.75,-376.096"/>
<text text-anchor="middle" x="252" y="-407.188" font-family="Helvetica,sans-Serif" font-size="10.00">erpc</text>
</g>
<!-- Node0&#45;&gt;Node7 -->
<g id="edge7" class="edge"><title>Node0&#45;&gt;Node7</title>
<path fill="none" stroke="blueviolet" stroke-dasharray="5,2" d="M164.075,-438.434C170.17,-420.794 185.532,-383.706 212,-365.188 251.941,-337.242 311.387,-333.317 342.79,-333.415"/>
<text text-anchor="middle" x="252" y="-368.188" font-family="Helvetica,sans-Serif" font-size="10.00">erpc</text>
</g>
<!-- Node0&#45;&gt;Node14 -->
<g id="edge14" class="edge"><title>Node0&#45;&gt;Node14</title>
<path fill="none" stroke="blueviolet" stroke-dasharray="5,2" d="M161.816,-438.44C164.38,-414.463 174.5,-352.377 212,-322.188 239.215,-300.279 278.182,-293.951 309.848,-293.011"/>
<text text-anchor="middle" x="252" y="-325.188" font-family="Helvetica,sans-Serif" font-size="10.00">erpc</text>
</g>
<!-- Node0&#45;&gt;Node13 -->
<g id="edge13" class="edge"><title>Node0&#45;&gt;Node13</title>
<path fill="none" stroke="blueviolet" stroke-dasharray="5,2" d="M160.626,-438.669C160.051,-409.602 162.622,-321.415 212,-279.188 245.304,-250.706 298.569,-250.157 332.391,-253.403"/>
<text text-anchor="middle" x="252" y="-282.188" font-family="Helvetica,sans-Serif" font-size="10.00">erpc</text>
</g>
<!-- Node0&#45;&gt;Node10 -->
<g id="edge10" class="edge"><title>Node0&#45;&gt;Node10</title>
<path fill="none" stroke="blueviolet" stroke-dasharray="5,2" d="M161.897,-438.47C165.589,-400.727 180.902,-264.601 212,-237.188 243.671,-209.269 294.636,-209.473 328.711,-213.635"/>
<text text-anchor="middle" x="252" y="-240.188" font-family="Helvetica,sans-Serif" font-size="10.00">erpc</text>
</g>
<!-- Node0&#45;&gt;Node25 -->
<g id="edge26" class="edge"><title>Node0&#45;&gt;Node25</title>
<path fill="none" stroke="blueviolet" stroke-dasharray="5,2" d="M161.462,-438.646C163.702,-396.725 174.879,-229.507 212,-196.188 245.329,-166.272 300.896,-169.753 334.815,-175.574"/>
<text text-anchor="middle" x="252" y="-199.188" font-family="Helvetica,sans-Serif" font-size="10.00">erpc</text>
</g>
<!-- Node0&#45;&gt;Node4 -->
<g id="edge4" class="edge"><title>Node0&#45;&gt;Node4</title>
<path fill="none" stroke="blueviolet" stroke-dasharray="5,2" d="M161.183,-438.443C162.265,-392.284 169.345,-196.238 212,-157.188 228.605,-141.986 290.185,-141.241 329.686,-142.457"/>
<text text-anchor="middle" x="252" y="-160.188" font-family="Helvetica,sans-Serif" font-size="10.00">erpc</text>
</g>
<!-- Node0&#45;&gt;Node2 -->
<g id="edge2" class="edge"><title>Node0&#45;&gt;Node2</title>
<path fill="none" stroke="orange" stroke-dasharray="5,2" d="M161.088,-438.523C161.734,-389.934 167.127,-172.886 212,-127.188 226.271,-112.654 277.182,-105.86 316.191,-102.739"/>
<text text-anchor="middle" x="252" y="-130.188" font-family="Helvetica,sans-Serif" font-size="10.00">erpc::RPMsgBase</text>
</g>
<!-- Node0&#45;&gt;Node2 -->
<g id="edge18" class="edge"><title>Node0&#45;&gt;Node2</title>
<path fill="none" stroke="blueviolet" stroke-dasharray="5,2" d="M160.77,-438.653C159.738,-386.591 157.705,-137.297 212,-90.1878 248.655,-58.3848 310.859,-77.3124 343.152,-90.5838"/>
<text text-anchor="middle" x="252" y="-93.1878" font-family="Helvetica,sans-Serif" font-size="10.00">erpc</text>
</g>
<!-- Node8 -->
<g id="node25" class="node"><title>Node8</title>
<g id="a_node25"><a xlink:href="group__port__setup__extensions.html" target="_top" xlink:title="Extension setup functions. ">
<polygon fill="white" stroke="black" points="320.5,-46.6878 320.5,-65.6878 409.5,-65.6878 409.5,-46.6878 320.5,-46.6878"/>
<text text-anchor="middle" x="365" y="-53.6878" font-family="Helvetica,sans-Serif" font-size="10.00">Extension Setup</text>
</a>
</g>
</g>
<!-- Node0&#45;&gt;Node8 -->
<g id="edge8" class="edge"><title>Node0&#45;&gt;Node8</title>
<path fill="none" stroke="blueviolet" stroke-dasharray="5,2" d="M161.517,-438.479C164.689,-380.663 182.378,-83.3697 212,-57.1878 245.91,-27.2151 302.603,-36.9524 336.334,-46.646"/>
<text text-anchor="middle" x="252" y="-60.1878" font-family="Helvetica,sans-Serif" font-size="10.00">erpc</text>
</g>
<!-- Node15 -->
<g id="node26" class="node"><title>Node15</title>
<g id="a_node26"><a xlink:href="group__lpspi__slave__transport.html" target="_top" xlink:title="Lpspi_slave_transport">
<polygon fill="white" stroke="black" points="310,-8.68781 310,-27.6878 420,-27.6878 420,-8.68781 310,-8.68781"/>
<text text-anchor="middle" x="365" y="-15.6878" font-family="Helvetica,sans-Serif" font-size="10.00">Lpspi_slave_transport</text>
</a>
</g>
</g>
<!-- Node0&#45;&gt;Node15 -->
<g id="edge15" class="edge"><title>Node0&#45;&gt;Node15</title>
<path fill="none" stroke="blueviolet" stroke-dasharray="5,2" d="M161.414,-438.399C164.096,-377.328 179.901,-50.2522 212,-21.1878 245.065,8.75173 300.717,0.469138 334.723,-8.61826"/>
<text text-anchor="middle" x="252" y="-24.1878" font-family="Helvetica,sans-Serif" font-size="10.00">erpc</text>
</g>
</g>
</svg>
