<?xml version="1.0" encoding="UTF-8" standalone="no"?>
<!DOCTYPE svg PUBLIC "-//W3C//DTD SVG 1.1//EN"
 "http://www.w3.org/Graphics/SVG/1.1/DTD/svg11.dtd">
<!-- Generated by graphviz version 2.38.0 (20140413.2041)
 -->
<!-- Title: Serialization Pages: 1 -->
<svg width="349pt" height="750pt"
 viewBox="0.00 0.00 349.00 750.00" xmlns="http://www.w3.org/2000/svg" xmlns:xlink="http://www.w3.org/1999/xlink">
<g id="graph0" class="graph" transform="scale(1 1) rotate(0) translate(4 746)">
<title>Serialization</title>
<polygon fill="white" stroke="none" points="-4,4 -4,-746 345,-746 345,4 -4,4"/>
<!-- Node9 -->
<g id="node1" class="node"><title>Node9</title>
<g id="a_node1"><a xlink:href="group__dspi__slave__transport.html" target="_top" xlink:title="Kinetis SDK DSPI slave driver transport. ">
<polygon fill="white" stroke="black" points="255.5,-722.5 255.5,-741.5 320.5,-741.5 320.5,-722.5 255.5,-722.5"/>
<text text-anchor="middle" x="288" y="-729.5" font-family="Helvetica,sans-Serif" font-size="10.00">DSPI Slave</text>
</a>
</g>
</g>
<!-- Node7 -->
<g id="node2" class="node"><title>Node7</title>
<g id="a_node2"><a xlink:href="group__port__threads.html" target="_top" xlink:title="Threading model. ">
<polygon fill="white" stroke="black" points="262.5,-684.5 262.5,-703.5 313.5,-703.5 313.5,-684.5 262.5,-684.5"/>
<text text-anchor="middle" x="288" y="-691.5" font-family="Helvetica,sans-Serif" font-size="10.00">Threads</text>
</a>
</g>
</g>
<!-- Node11 -->
<g id="node3" class="node"><title>Node11</title>
<g id="a_node3"><a xlink:href="group__mu__transport.html" target="_top" xlink:title="Messaging Unit transport. ">
<polygon fill="white" stroke="black" points="246,-646.5 246,-665.5 330,-665.5 330,-646.5 246,-646.5"/>
<text text-anchor="middle" x="288" y="-653.5" font-family="Helvetica,sans-Serif" font-size="10.00">Messaging Unit</text>
</a>
</g>
</g>
<!-- Node19 -->
<g id="node4" class="node"><title>Node19</title>
<g id="a_node4"><a xlink:href="group__tcp__transport.html" target="_top" xlink:title="Simple TCP/IP transport. ">
<polygon fill="white" stroke="black" points="264.5,-608.5 264.5,-627.5 311.5,-627.5 311.5,-608.5 264.5,-608.5"/>
<text text-anchor="middle" x="288" y="-615.5" font-family="Helvetica,sans-Serif" font-size="10.00">TCP/IP</text>
</a>
</g>
</g>
<!-- Node1 -->
<g id="node5" class="node"><title>Node1</title>
<g id="a_node5"><a xlink:href="group__infra.html" target="_top" xlink:title="C++ core. ">
<polygon fill="white" stroke="black" points="0,-361.5 0,-380.5 73,-380.5 73,-361.5 0,-361.5"/>
<text text-anchor="middle" x="36.5" y="-368.5" font-family="Helvetica,sans-Serif" font-size="10.00">Infrastructure</text>
</a>
</g>
</g>
<!-- Node0 -->
<g id="node19" class="node"><title>Node0</title>
<polygon fill="#bfbfbf" stroke="black" points="110,-361.5 110,-380.5 180,-380.5 180,-361.5 110,-361.5"/>
<text text-anchor="middle" x="145" y="-368.5" font-family="Helvetica,sans-Serif" font-size="10.00">Serialization</text>
</g>
<!-- Node1&#45;&gt;Node0 -->
<g id="edge1" class="edge"><title>Node1&#45;&gt;Node0</title>
<path fill="none" stroke="black" d="M83.5,-371C92.3827,-371 101.54,-371 109.957,-371"/>
<polygon fill="black" stroke="black" points="83.2593,-367.5 73.2592,-371 83.2592,-374.5 83.2593,-367.5"/>
</g>
<!-- Node2 -->
<g id="node6" class="node"><title>Node2</title>
<g id="a_node6"><a xlink:href="group__infra__client.html" target="_top" xlink:title="Client classes. ">
<polygon fill="white" stroke="black" points="267.5,-570.5 267.5,-589.5 308.5,-589.5 308.5,-570.5 267.5,-570.5"/>
<text text-anchor="middle" x="288" y="-577.5" font-family="Helvetica,sans-Serif" font-size="10.00">Client</text>
</a>
</g>
</g>
<!-- Node3 -->
<g id="node7" class="node"><title>Node3</title>
<g id="a_node7"><a xlink:href="group__infra__transport.html" target="_top" xlink:title="Superclasses for building transports. ">
<polygon fill="white" stroke="black" points="257,-532.5 257,-551.5 319,-551.5 319,-532.5 257,-532.5"/>
<text text-anchor="middle" x="288" y="-539.5" font-family="Helvetica,sans-Serif" font-size="10.00">Transports</text>
</a>
</g>
</g>
<!-- Node15 -->
<g id="node8" class="node"><title>Node15</title>
<g id="a_node8"><a xlink:href="group__serial__transport.html" target="_top" xlink:title="POSIX and Win32 serial port transport. ">
<polygon fill="white" stroke="black" points="257.5,-494.5 257.5,-513.5 318.5,-513.5 318.5,-494.5 257.5,-494.5"/>
<text text-anchor="middle" x="288" y="-501.5" font-family="Helvetica,sans-Serif" font-size="10.00">Serial port</text>
</a>
</g>
</g>
<!-- Node4 -->
<g id="node9" class="node"><title>Node4</title>
<g id="a_node9"><a xlink:href="group__infra__utility.html" target="_top" xlink:title="Utility code used by the infrastructure. ">
<polygon fill="white" stroke="black" points="263.5,-456.5 263.5,-475.5 312.5,-475.5 312.5,-456.5 263.5,-456.5"/>
<text text-anchor="middle" x="288" y="-463.5" font-family="Helvetica,sans-Serif" font-size="10.00">Utilities</text>
</a>
</g>
</g>
<!-- Node17 -->
<g id="node10" class="node"><title>Node17</title>
<g id="a_node10"><a xlink:href="group__spi__slave__transport.html" target="_top" xlink:title="Kinetis SDK SPI slave driver transport. ">
<polygon fill="white" stroke="black" points="258.5,-418.5 258.5,-437.5 317.5,-437.5 317.5,-418.5 258.5,-418.5"/>
<text text-anchor="middle" x="288" y="-425.5" font-family="Helvetica,sans-Serif" font-size="10.00">SPI Slave</text>
</a>
</g>
</g>
<!-- Node20 -->
<g id="node11" class="node"><title>Node20</title>
<g id="a_node11"><a xlink:href="group__uart__transport.html" target="_top" xlink:title="CMSIS UART driver transport. ">
<polygon fill="white" stroke="black" points="250,-380.5 250,-399.5 326,-399.5 326,-380.5 250,-380.5"/>
<text text-anchor="middle" x="288" y="-387.5" font-family="Helvetica,sans-Serif" font-size="10.00">CMSIS UART</text>
</a>
</g>
</g>
<!-- Node18 -->
<g id="node12" class="node"><title>Node18</title>
<g id="a_node12"><a xlink:href="group__spidev__master__transport.html" target="_top" xlink:title="SPIdev Linux transport. ">
<polygon fill="white" stroke="black" points="235,-342.5 235,-361.5 341,-361.5 341,-342.5 235,-342.5"/>
<text text-anchor="middle" x="288" y="-349.5" font-family="Helvetica,sans-Serif" font-size="10.00">SPIdev Linux Master</text>
</a>
</g>
</g>
<!-- Node16 -->
<g id="node13" class="node"><title>Node16</title>
<g id="a_node13"><a xlink:href="group__spi__master__transport.html" target="_top" xlink:title="Kinetis SDK SPI master driver transport. ">
<polygon fill="white" stroke="black" points="255.5,-304.5 255.5,-323.5 320.5,-323.5 320.5,-304.5 255.5,-304.5"/>
<text text-anchor="middle" x="288" y="-311.5" font-family="Helvetica,sans-Serif" font-size="10.00">SPI Master</text>
</a>
</g>
</g>
<!-- Node14 -->
<g id="node14" class="node"><title>Node14</title>
<g id="a_node14"><a xlink:href="group__rpmsg__tty__rtos__transport.html" target="_top" xlink:title="RPMsg TTY RTOS transport. ">
<polygon fill="white" stroke="black" points="239,-266.5 239,-285.5 337,-285.5 337,-266.5 239,-266.5"/>
<text text-anchor="middle" x="288" y="-273.5" font-family="Helvetica,sans-Serif" font-size="10.00">RPMsg TTY RTOS</text>
</a>
</g>
</g>
<!-- Node5 -->
<g id="node15" class="node"><title>Node5</title>
<g id="a_node15"><a xlink:href="group__infra__server.html" target="_top" xlink:title="Server classes. ">
<polygon fill="white" stroke="black" points="266,-228.5 266,-247.5 310,-247.5 310,-228.5 266,-228.5"/>
<text text-anchor="middle" x="288" y="-235.5" font-family="Helvetica,sans-Serif" font-size="10.00">Server</text>
</a>
</g>
</g>
<!-- Node10 -->
<g id="node16" class="node"><title>Node10</title>
<g id="a_node16"><a xlink:href="group__itbp__transport.html" target="_top" xlink:title="Simple inter&#45;thread communications transport. ">
<polygon fill="white" stroke="black" points="255.5,-190.5 255.5,-209.5 320.5,-209.5 320.5,-190.5 255.5,-190.5"/>
<text text-anchor="middle" x="288" y="-197.5" font-family="Helvetica,sans-Serif" font-size="10.00">Inter&#45;thread</text>
</a>
</g>
</g>
<!-- Node8 -->
<g id="node17" class="node"><title>Node8</title>
<g id="a_node17"><a xlink:href="group__dspi__master__transport.html" target="_top" xlink:title="Kinetis SDK DSPI master driver transport. ">
<polygon fill="white" stroke="black" points="252,-152.5 252,-171.5 324,-171.5 324,-152.5 252,-152.5"/>
<text text-anchor="middle" x="288" y="-159.5" font-family="Helvetica,sans-Serif" font-size="10.00">DSPI Master</text>
</a>
</g>
</g>
<!-- Node21 -->
<g id="node18" class="node"><title>Node21</title>
<g id="a_node18"><a xlink:href="group___u_s_b___c_d_c__transport.html" target="_top" xlink:title="USB CDC transport. ">
<polygon fill="white" stroke="black" points="258,-114.5 258,-133.5 318,-133.5 318,-114.5 258,-114.5"/>
<text text-anchor="middle" x="288" y="-121.5" font-family="Helvetica,sans-Serif" font-size="10.00">USB CDC</text>
</a>
</g>
</g>
<!-- Node0&#45;&gt;Node9 -->
<g id="edge9" class="edge"><title>Node0&#45;&gt;Node9</title>
<path fill="none" stroke="blueviolet" stroke-dasharray="5,2" d="M145.544,-380.683C144.103,-420.124 142.615,-571.573 198,-677 208.67,-697.312 215.573,-700.793 235,-713 241.266,-716.938 248.468,-720.225 255.474,-722.898"/>
<text text-anchor="middle" x="207.5" y="-703" font-family="Helvetica,sans-Serif" font-size="10.00">erpc</text>
</g>
<!-- Node0&#45;&gt;Node7 -->
<g id="edge7" class="edge"><title>Node0&#45;&gt;Node7</title>
<path fill="none" stroke="blueviolet" stroke-dasharray="5,2" d="M145.851,-380.953C145.711,-417.671 148.885,-548.098 198,-639 208.907,-659.186 215.573,-662.793 235,-675 243.382,-680.267 253.437,-684.372 262.462,-687.396"/>
<text text-anchor="middle" x="207.5" y="-665" font-family="Helvetica,sans-Serif" font-size="10.00">erpc</text>
</g>
<!-- Node0&#45;&gt;Node11 -->
<g id="edge11" class="edge"><title>Node0&#45;&gt;Node11</title>
<path fill="none" stroke="blueviolet" stroke-dasharray="5,2" d="M146.264,-380.9C147.541,-414.177 154.976,-524.214 198,-601 209.215,-621.016 215.573,-624.793 235,-637 240.941,-640.733 247.722,-643.882 254.381,-646.477"/>
<text text-anchor="middle" x="207.5" y="-627" font-family="Helvetica,sans-Serif" font-size="10.00">erpc</text>
</g>
<!-- Node0&#45;&gt;Node19 -->
<g id="edge19" class="edge"><title>Node0&#45;&gt;Node19</title>
<path fill="none" stroke="blueviolet" stroke-dasharray="5,2" d="M146.883,-380.816C149.884,-410.195 161.617,-499.274 198,-562 209.668,-582.117 215.394,-586.492 235,-599 243.913,-604.686 254.768,-608.994 264.249,-612.058"/>
<text text-anchor="middle" x="207.5" y="-589" font-family="Helvetica,sans-Serif" font-size="10.00">erpc</text>
</g>
<!-- Node0&#45;&gt;Node2 -->
<g id="edge2" class="edge"><title>Node0&#45;&gt;Node2</title>
<path fill="none" stroke="blueviolet" stroke-dasharray="5,2" d="M147.682,-380.614C152.404,-405.76 167.472,-474.928 198,-524 210.284,-543.747 215.394,-548.492 235,-561 244.886,-567.307 257.159,-571.917 267.299,-575.016"/>
<text text-anchor="middle" x="207.5" y="-550" font-family="Helvetica,sans-Serif" font-size="10.00">erpc</text>
</g>
<!-- Node0&#45;&gt;Node3 -->
<g id="edge3" class="edge"><title>Node0&#45;&gt;Node3</title>
<path fill="none" stroke="blueviolet" stroke-dasharray="5,2" d="M149.157,-380.739C156.053,-401.189 173.802,-449.631 198,-485 211.31,-504.455 215.212,-510.19 235,-523 241.616,-527.283 249.329,-530.772 256.757,-533.535"/>
<text text-anchor="middle" x="207.5" y="-512" font-family="Helvetica,sans-Serif" font-size="10.00">erpc</text>
</g>
<!-- Node0&#45;&gt;Node15 -->
<g id="edge15" class="edge"><title>Node0&#45;&gt;Node15</title>
<path fill="none" stroke="blueviolet" stroke-dasharray="5,2" d="M150.642,-380.807C161.772,-403.185 192.267,-458.149 235,-485 241.836,-489.296 249.785,-492.818 257.38,-495.612"/>
<text text-anchor="middle" x="207.5" y="-473" font-family="Helvetica,sans-Serif" font-size="10.00">erpc</text>
</g>
<!-- Node0&#45;&gt;Node4 -->
<g id="edge4" class="edge"><title>Node0&#45;&gt;Node4</title>
<path fill="none" stroke="blueviolet" stroke-dasharray="5,2" d="M154.708,-380.503C169.694,-396.345 201.948,-428.259 235,-447 243.863,-452.025 254.301,-456.146 263.491,-459.251"/>
<text text-anchor="middle" x="207.5" y="-437" font-family="Helvetica,sans-Serif" font-size="10.00">erpc</text>
</g>
<!-- Node0&#45;&gt;Node17 -->
<g id="edge17" class="edge"><title>Node0&#45;&gt;Node17</title>
<path fill="none" stroke="blueviolet" stroke-dasharray="5,2" d="M166.102,-380.681C175.69,-385.194 187.364,-390.54 198,-395 214.214,-401.799 218.52,-402.872 235,-409 243.378,-412.116 252.532,-415.475 260.792,-418.49"/>
<text text-anchor="middle" x="207.5" y="-405" font-family="Helvetica,sans-Serif" font-size="10.00">erpc</text>
</g>
<!-- Node0&#45;&gt;Node20 -->
<g id="edge20" class="edge"><title>Node0&#45;&gt;Node20</title>
<path fill="none" stroke="blueviolet" stroke-dasharray="5,2" d="M180.132,-375.599C201.241,-378.444 228.341,-382.096 249.968,-385.01"/>
<text text-anchor="middle" x="207.5" y="-383" font-family="Helvetica,sans-Serif" font-size="10.00">erpc</text>
</g>
<!-- Node0&#45;&gt;Node18 -->
<g id="edge18" class="edge"><title>Node0&#45;&gt;Node18</title>
<path fill="none" stroke="blueviolet" stroke-dasharray="5,2" d="M177.12,-361.5C183.943,-359.733 191.169,-358.099 198,-357 209.765,-355.107 222.504,-353.9 234.568,-353.138"/>
<text text-anchor="middle" x="207.5" y="-360" font-family="Helvetica,sans-Serif" font-size="10.00">erpc</text>
</g>
<!-- Node0&#45;&gt;Node16 -->
<g id="edge16" class="edge"><title>Node0&#45;&gt;Node16</title>
<path fill="none" stroke="blueviolet" stroke-dasharray="5,2" d="M160.045,-361.294C170.223,-354.598 184.51,-345.878 198,-340 216.447,-331.963 238.098,-325.575 255.427,-321.143"/>
<text text-anchor="middle" x="207.5" y="-343" font-family="Helvetica,sans-Serif" font-size="10.00">erpc</text>
</g>
<!-- Node0&#45;&gt;Node14 -->
<g id="edge14" class="edge"><title>Node0&#45;&gt;Node14</title>
<path fill="none" stroke="blueviolet" stroke-dasharray="5,2" d="M154.218,-361.318C163.987,-350.135 181.1,-331.542 198,-318 213.11,-305.892 217.592,-303.479 235,-295 242.172,-291.507 250.16,-288.281 257.68,-285.518"/>
<text text-anchor="middle" x="207.5" y="-321" font-family="Helvetica,sans-Serif" font-size="10.00">erpc</text>
</g>
<!-- Node0&#45;&gt;Node5 -->
<g id="edge5" class="edge"><title>Node0&#45;&gt;Node5</title>
<path fill="none" stroke="blueviolet" stroke-dasharray="5,2" d="M150.4,-361.4C161.227,-338.967 191.479,-283.047 235,-257 244.567,-251.274 256.14,-246.836 265.938,-243.695"/>
<text text-anchor="middle" x="207.5" y="-291" font-family="Helvetica,sans-Serif" font-size="10.00">erpc</text>
</g>
<!-- Node0&#45;&gt;Node10 -->
<g id="edge10" class="edge"><title>Node0&#45;&gt;Node10</title>
<path fill="none" stroke="blueviolet" stroke-dasharray="5,2" d="M148.998,-361.461C155.712,-340.963 173.323,-291.683 198,-256 211.228,-236.872 215.394,-231.508 235,-219 241.239,-215.02 248.43,-211.715 255.435,-209.039"/>
<text text-anchor="middle" x="207.5" y="-259" font-family="Helvetica,sans-Serif" font-size="10.00">erpc</text>
</g>
<!-- Node0&#45;&gt;Node8 -->
<g id="edge8" class="edge"><title>Node0&#45;&gt;Node8</title>
<path fill="none" stroke="blueviolet" stroke-dasharray="5,2" d="M147.682,-361.386C152.404,-336.24 167.472,-267.072 198,-218 210.284,-198.253 215.394,-193.508 235,-181 240.834,-177.278 247.5,-174.147 254.068,-171.568"/>
<text text-anchor="middle" x="207.5" y="-221" font-family="Helvetica,sans-Serif" font-size="10.00">erpc</text>
</g>
<!-- Node0&#45;&gt;Node21 -->
<g id="edge21" class="edge"><title>Node0&#45;&gt;Node21</title>
<path fill="none" stroke="blueviolet" stroke-dasharray="5,2" d="M146.883,-361.184C149.884,-331.805 161.617,-242.726 198,-180 209.668,-159.883 215.394,-155.508 235,-143 241.969,-138.554 250.124,-134.951 257.881,-132.127"/>
<text text-anchor="middle" x="207.5" y="-183" font-family="Helvetica,sans-Serif" font-size="10.00">erpc</text>
</g>
<!-- Node12 -->
<g id="node20" class="node"><title>Node12</title>
<g id="a_node20"><a xlink:href="group__rpmsg__lite__rtos__transport.html" target="_top" xlink:title="RPMsg&#45;Lite zero copy transport using RTOS API. ">
<polygon fill="white" stroke="black" points="239.5,-76.5 239.5,-95.5 336.5,-95.5 336.5,-76.5 239.5,-76.5"/>
<text text-anchor="middle" x="288" y="-83.5" font-family="Helvetica,sans-Serif" font-size="10.00">RPMsg&#45;Lite RTOS</text>
</a>
</g>
</g>
<!-- Node0&#45;&gt;Node12 -->
<g id="edge12" class="edge"><title>Node0&#45;&gt;Node12</title>
<path fill="none" stroke="blueviolet" stroke-dasharray="5,2" d="M146.264,-361.1C147.541,-327.823 154.976,-217.786 198,-141 209.215,-120.984 215.573,-117.207 235,-105 240.941,-101.267 247.722,-98.118 254.381,-95.5235"/>
<text text-anchor="middle" x="207.5" y="-144" font-family="Helvetica,sans-Serif" font-size="10.00">erpc</text>
</g>
<!-- Node13 -->
<g id="node21" class="node"><title>Node13</title>
<g id="a_node21"><a xlink:href="group__rpmsg__lite__transport.html" target="_top" xlink:title="RPMsg&#45;Lite zero copy transport. ">
<polygon fill="white" stroke="black" points="254,-38.5 254,-57.5 322,-57.5 322,-38.5 254,-38.5"/>
<text text-anchor="middle" x="288" y="-45.5" font-family="Helvetica,sans-Serif" font-size="10.00">RPMsg&#45;Lite</text>
</a>
</g>
</g>
<!-- Node0&#45;&gt;Node13 -->
<g id="edge13" class="edge"><title>Node0&#45;&gt;Node13</title>
<path fill="none" stroke="blueviolet" stroke-dasharray="5,2" d="M145.851,-361.047C145.711,-324.329 148.885,-193.902 198,-103 208.907,-82.8142 215.573,-79.207 235,-67 240.941,-63.267 247.722,-60.118 254.381,-57.5235"/>
<text text-anchor="middle" x="207.5" y="-106" font-family="Helvetica,sans-Serif" font-size="10.00">erpc</text>
</g>
<!-- Node6 -->
<g id="node22" class="node"><title>Node6</title>
<g id="a_node22"><a xlink:href="group__port__setup__extensions.html" target="_top" xlink:title="Extension setup functions. ">
<polygon fill="white" stroke="black" points="243.5,-0.5 243.5,-19.5 332.5,-19.5 332.5,-0.5 243.5,-0.5"/>
<text text-anchor="middle" x="288" y="-7.5" font-family="Helvetica,sans-Serif" font-size="10.00">Extension Setup</text>
</a>
</g>
</g>
<!-- Node0&#45;&gt;Node6 -->
<g id="edge6" class="edge"><title>Node0&#45;&gt;Node6</title>
<path fill="none" stroke="blueviolet" stroke-dasharray="5,2" d="M145.544,-361.317C144.103,-321.876 142.615,-170.427 198,-65 208.67,-44.6884 215.573,-41.207 235,-29 240.941,-25.267 247.722,-22.118 254.381,-19.5235"/>
<text text-anchor="middle" x="207.5" y="-68" font-family="Helvetica,sans-Serif" font-size="10.00">erpc</text>
</g>
</g>
</svg>
