<?xml version="1.0" encoding="UTF-8" standalone="no"?>
<!DOCTYPE svg PUBLIC "-//W3C//DTD SVG 1.1//EN"
 "http://www.w3.org/Graphics/SVG/1.1/DTD/svg11.dtd">
<!-- Generated by graphviz version 2.38.0 (20140413.2041)
 -->
<!-- Title: RPMsg&#45;Lite Pages: 1 -->
<svg width="465pt" height="787pt"
 viewBox="0.00 0.00 465.00 786.87" xmlns="http://www.w3.org/2000/svg" xmlns:xlink="http://www.w3.org/1999/xlink">
<g id="graph0" class="graph" transform="scale(1 1) rotate(0) translate(4 782.872)">
<title>RPMsg&#45;Lite</title>
<polygon fill="white" stroke="none" points="-4,4 -4,-782.872 461,-782.872 461,4 -4,4"/>
<!-- Node1 -->
<g id="node1" class="node"><title>Node1</title>
<g id="a_node1"><a xlink:href="group__transports.html" target="_top" xlink:title="Transport layer classes. ">
<polygon fill="white" stroke="black" points="0,-368.372 0,-387.372 89,-387.372 89,-368.372 0,-368.372"/>
<text text-anchor="middle" x="44.5" y="-375.372" font-family="Helvetica,sans-Serif" font-size="10.00">Transport Layers</text>
</a>
</g>
</g>
<!-- Node0 -->
<g id="node21" class="node"><title>Node0</title>
<polygon fill="#bfbfbf" stroke="black" points="126,-368.372 126,-387.372 194,-387.372 194,-368.372 126,-368.372"/>
<text text-anchor="middle" x="160" y="-375.372" font-family="Helvetica,sans-Serif" font-size="10.00">RPMsg&#45;Lite</text>
</g>
<!-- Node1&#45;&gt;Node0 -->
<g id="edge1" class="edge"><title>Node1&#45;&gt;Node0</title>
<path fill="none" stroke="black" d="M99.2532,-377.872C108.367,-377.872 117.585,-377.872 125.961,-377.872"/>
<polygon fill="black" stroke="black" points="99.0575,-374.372 89.0575,-377.872 99.0574,-381.372 99.0575,-374.372"/>
</g>
<!-- Node11 -->
<g id="node2" class="node"><title>Node11</title>
<g id="a_node2"><a xlink:href="group__dspi__slave__transport.html" target="_top" xlink:title="Kinetis SDK DSPI slave driver transport. ">
<polygon fill="white" stroke="black" points="371.5,-748.372 371.5,-767.372 436.5,-767.372 436.5,-748.372 371.5,-748.372"/>
<text text-anchor="middle" x="404" y="-755.372" font-family="Helvetica,sans-Serif" font-size="10.00">DSPI Slave</text>
</a>
</g>
</g>
<!-- Node9 -->
<g id="node3" class="node"><title>Node9</title>
<g id="a_node3"><a xlink:href="group__port__threads.html" target="_top" xlink:title="Threading model. ">
<polygon fill="white" stroke="black" points="378.5,-710.372 378.5,-729.372 429.5,-729.372 429.5,-710.372 378.5,-710.372"/>
<text text-anchor="middle" x="404" y="-717.372" font-family="Helvetica,sans-Serif" font-size="10.00">Threads</text>
</a>
</g>
</g>
<!-- Node13 -->
<g id="node4" class="node"><title>Node13</title>
<g id="a_node4"><a xlink:href="group__mu__transport.html" target="_top" xlink:title="Messaging Unit transport. ">
<polygon fill="white" stroke="black" points="362,-672.372 362,-691.372 446,-691.372 446,-672.372 362,-672.372"/>
<text text-anchor="middle" x="404" y="-679.372" font-family="Helvetica,sans-Serif" font-size="10.00">Messaging Unit</text>
</a>
</g>
</g>
<!-- Node19 -->
<g id="node5" class="node"><title>Node19</title>
<g id="a_node5"><a xlink:href="group__tcp__transport.html" target="_top" xlink:title="Simple TCP/IP transport. ">
<polygon fill="white" stroke="black" points="380.5,-634.372 380.5,-653.372 427.5,-653.372 427.5,-634.372 380.5,-634.372"/>
<text text-anchor="middle" x="404" y="-641.372" font-family="Helvetica,sans-Serif" font-size="10.00">TCP/IP</text>
</a>
</g>
</g>
<!-- Node3 -->
<g id="node6" class="node"><title>Node3</title>
<g id="a_node6"><a xlink:href="group__infra__client.html" target="_top" xlink:title="Client classes. ">
<polygon fill="white" stroke="black" points="383.5,-596.372 383.5,-615.372 424.5,-615.372 424.5,-596.372 383.5,-596.372"/>
<text text-anchor="middle" x="404" y="-603.372" font-family="Helvetica,sans-Serif" font-size="10.00">Client</text>
</a>
</g>
</g>
<!-- Node5 -->
<g id="node7" class="node"><title>Node5</title>
<g id="a_node7"><a xlink:href="group__infra__transport.html" target="_top" xlink:title="Superclasses for building transports. ">
<polygon fill="white" stroke="black" points="373,-558.372 373,-577.372 435,-577.372 435,-558.372 373,-558.372"/>
<text text-anchor="middle" x="404" y="-565.372" font-family="Helvetica,sans-Serif" font-size="10.00">Transports</text>
</a>
</g>
</g>
<!-- Node15 -->
<g id="node8" class="node"><title>Node15</title>
<g id="a_node8"><a xlink:href="group__serial__transport.html" target="_top" xlink:title="POSIX and Win32 serial port transport. ">
<polygon fill="white" stroke="black" points="373.5,-520.372 373.5,-539.372 434.5,-539.372 434.5,-520.372 373.5,-520.372"/>
<text text-anchor="middle" x="404" y="-527.372" font-family="Helvetica,sans-Serif" font-size="10.00">Serial port</text>
</a>
</g>
</g>
<!-- Node6 -->
<g id="node9" class="node"><title>Node6</title>
<g id="a_node9"><a xlink:href="group__infra__utility.html" target="_top" xlink:title="Utility code used by the infrastructure. ">
<polygon fill="white" stroke="black" points="379.5,-482.372 379.5,-501.372 428.5,-501.372 428.5,-482.372 379.5,-482.372"/>
<text text-anchor="middle" x="404" y="-489.372" font-family="Helvetica,sans-Serif" font-size="10.00">Utilities</text>
</a>
</g>
</g>
<!-- Node17 -->
<g id="node10" class="node"><title>Node17</title>
<g id="a_node10"><a xlink:href="group__spi__slave__transport.html" target="_top" xlink:title="Kinetis SDK SPI slave driver transport. ">
<polygon fill="white" stroke="black" points="374.5,-444.372 374.5,-463.372 433.5,-463.372 433.5,-444.372 374.5,-444.372"/>
<text text-anchor="middle" x="404" y="-451.372" font-family="Helvetica,sans-Serif" font-size="10.00">SPI Slave</text>
</a>
</g>
</g>
<!-- Node20 -->
<g id="node11" class="node"><title>Node20</title>
<g id="a_node11"><a xlink:href="group__uart__transport.html" target="_top" xlink:title="CMSIS UART driver transport. ">
<polygon fill="white" stroke="black" points="366,-406.372 366,-425.372 442,-425.372 442,-406.372 366,-406.372"/>
<text text-anchor="middle" x="404" y="-413.372" font-family="Helvetica,sans-Serif" font-size="10.00">CMSIS UART</text>
</a>
</g>
</g>
<!-- Node18 -->
<g id="node12" class="node"><title>Node18</title>
<g id="a_node12"><a xlink:href="group__spidev__master__transport.html" target="_top" xlink:title="SPIdev Linux transport. ">
<polygon fill="white" stroke="black" points="351,-368.372 351,-387.372 457,-387.372 457,-368.372 351,-368.372"/>
<text text-anchor="middle" x="404" y="-375.372" font-family="Helvetica,sans-Serif" font-size="10.00">SPIdev Linux Master</text>
</a>
</g>
</g>
<!-- Node16 -->
<g id="node13" class="node"><title>Node16</title>
<g id="a_node13"><a xlink:href="group__spi__master__transport.html" target="_top" xlink:title="Kinetis SDK SPI master driver transport. ">
<polygon fill="white" stroke="black" points="371.5,-330.372 371.5,-349.372 436.5,-349.372 436.5,-330.372 371.5,-330.372"/>
<text text-anchor="middle" x="404" y="-337.372" font-family="Helvetica,sans-Serif" font-size="10.00">SPI Master</text>
</a>
</g>
</g>
<!-- Node14 -->
<g id="node14" class="node"><title>Node14</title>
<g id="a_node14"><a xlink:href="group__rpmsg__tty__rtos__transport.html" target="_top" xlink:title="RPMsg TTY RTOS transport. ">
<polygon fill="white" stroke="black" points="355,-292.372 355,-311.372 453,-311.372 453,-292.372 355,-292.372"/>
<text text-anchor="middle" x="404" y="-299.372" font-family="Helvetica,sans-Serif" font-size="10.00">RPMsg TTY RTOS</text>
</a>
</g>
</g>
<!-- Node7 -->
<g id="node15" class="node"><title>Node7</title>
<g id="a_node15"><a xlink:href="group__infra__server.html" target="_top" xlink:title="Server classes. ">
<polygon fill="white" stroke="black" points="382,-254.372 382,-273.372 426,-273.372 426,-254.372 382,-254.372"/>
<text text-anchor="middle" x="404" y="-261.372" font-family="Helvetica,sans-Serif" font-size="10.00">Server</text>
</a>
</g>
</g>
<!-- Node12 -->
<g id="node16" class="node"><title>Node12</title>
<g id="a_node16"><a xlink:href="group__itbp__transport.html" target="_top" xlink:title="Simple inter&#45;thread communications transport. ">
<polygon fill="white" stroke="black" points="371.5,-216.372 371.5,-235.372 436.5,-235.372 436.5,-216.372 371.5,-216.372"/>
<text text-anchor="middle" x="404" y="-223.372" font-family="Helvetica,sans-Serif" font-size="10.00">Inter&#45;thread</text>
</a>
</g>
</g>
<!-- Node10 -->
<g id="node17" class="node"><title>Node10</title>
<g id="a_node17"><a xlink:href="group__dspi__master__transport.html" target="_top" xlink:title="Kinetis SDK DSPI master driver transport. ">
<polygon fill="white" stroke="black" points="368,-178.372 368,-197.372 440,-197.372 440,-178.372 368,-178.372"/>
<text text-anchor="middle" x="404" y="-185.372" font-family="Helvetica,sans-Serif" font-size="10.00">DSPI Master</text>
</a>
</g>
</g>
<!-- Node21 -->
<g id="node18" class="node"><title>Node21</title>
<g id="a_node18"><a xlink:href="group___u_s_b___c_d_c__transport.html" target="_top" xlink:title="USB CDC transport. ">
<polygon fill="white" stroke="black" points="374,-140.372 374,-159.372 434,-159.372 434,-140.372 374,-140.372"/>
<text text-anchor="middle" x="404" y="-147.372" font-family="Helvetica,sans-Serif" font-size="10.00">USB CDC</text>
</a>
</g>
</g>
<!-- Node4 -->
<g id="node19" class="node"><title>Node4</title>
<g id="a_node19"><a xlink:href="group__infra__codec.html" target="_top" xlink:title="Classes used for message serialization. ">
<polygon fill="white" stroke="black" points="369,-102.372 369,-121.372 439,-121.372 439,-102.372 369,-102.372"/>
<text text-anchor="middle" x="404" y="-109.372" font-family="Helvetica,sans-Serif" font-size="10.00">Serialization</text>
</a>
</g>
</g>
<!-- Node2 -->
<g id="node20" class="node"><title>Node2</title>
<g id="a_node20"><a xlink:href="group__rpmsg__lite__rtos__transport.html" target="_top" xlink:title="RPMsg&#45;Lite zero copy transport using RTOS API. ">
<polygon fill="white" stroke="black" points="355.5,-56.3718 355.5,-75.3718 452.5,-75.3718 452.5,-56.3718 355.5,-56.3718"/>
<text text-anchor="middle" x="404" y="-63.3718" font-family="Helvetica,sans-Serif" font-size="10.00">RPMsg&#45;Lite RTOS</text>
</a>
</g>
</g>
<!-- Node0&#45;&gt;Node11 -->
<g id="edge11" class="edge"><title>Node0&#45;&gt;Node11</title>
<path fill="none" stroke="blueviolet" stroke-dasharray="5,2" d="M160.878,-387.582C160.438,-439.505 161.125,-683.869 212,-733.872 254.069,-775.22 328.92,-770.961 371.352,-764.328"/>
<text text-anchor="middle" x="272.5" y="-770.872" font-family="Helvetica,sans-Serif" font-size="10.00">erpc</text>
</g>
<!-- Node0&#45;&gt;Node9 -->
<g id="edge9" class="edge"><title>Node0&#45;&gt;Node9</title>
<path fill="none" stroke="blueviolet" stroke-dasharray="5,2" d="M161.058,-387.492C161.562,-435.845 166.369,-651.767 212,-695.872 235.189,-718.285 331.973,-720.544 378.204,-720.299"/>
<text text-anchor="middle" x="272.5" y="-721.872" font-family="Helvetica,sans-Serif" font-size="10.00">erpc</text>
</g>
<!-- Node0&#45;&gt;Node13 -->
<g id="edge13" class="edge"><title>Node0&#45;&gt;Node13</title>
<path fill="none" stroke="blueviolet" stroke-dasharray="5,2" d="M161.296,-387.475C162.88,-432.108 171.85,-618.706 212,-656.872 232.906,-676.745 312.36,-681.187 361.968,-681.97"/>
<text text-anchor="middle" x="272.5" y="-683.872" font-family="Helvetica,sans-Serif" font-size="10.00">erpc</text>
</g>
<!-- Node0&#45;&gt;Node19 -->
<g id="edge20" class="edge"><title>Node0&#45;&gt;Node19</title>
<path fill="none" stroke="blueviolet" stroke-dasharray="5,2" d="M161.597,-387.513C164.331,-428.366 177.065,-586.573 212,-618.872 236.065,-641.12 335.241,-643.955 380.408,-644.062"/>
<text text-anchor="middle" x="272.5" y="-644.872" font-family="Helvetica,sans-Serif" font-size="10.00">erpc</text>
</g>
<!-- Node0&#45;&gt;Node3 -->
<g id="edge3" class="edge"><title>Node0&#45;&gt;Node3</title>
<path fill="none" stroke="blueviolet" stroke-dasharray="5,2" d="M161.998,-387.458C166.012,-424.07 182.213,-554.353 212,-580.872 237.041,-603.164 340.018,-605.873 383.492,-605.999"/>
<text text-anchor="middle" x="272.5" y="-606.872" font-family="Helvetica,sans-Serif" font-size="10.00">erpc</text>
</g>
<!-- Node0&#45;&gt;Node5 -->
<g id="edge5" class="edge"><title>Node0&#45;&gt;Node5</title>
<path fill="none" stroke="blueviolet" stroke-dasharray="5,2" d="M160.722,-387.525C160.47,-416.173 163.974,-501.231 212,-541.872 235.694,-561.922 325.337,-566.567 372.913,-567.604"/>
<text text-anchor="middle" x="272.5" y="-568.872" font-family="Helvetica,sans-Serif" font-size="10.00">erpc</text>
</g>
<!-- Node0&#45;&gt;Node15 -->
<g id="edge16" class="edge"><title>Node0&#45;&gt;Node15</title>
<path fill="none" stroke="blueviolet" stroke-dasharray="5,2" d="M161.753,-387.699C164.173,-411.858 173.99,-474.327 212,-503.872 236.573,-522.972 326.266,-528.042 373.479,-529.387"/>
<text text-anchor="middle" x="272.5" y="-529.872" font-family="Helvetica,sans-Serif" font-size="10.00">erpc</text>
</g>
<!-- Node0&#45;&gt;Node6 -->
<g id="edge6" class="edge"><title>Node0&#45;&gt;Node6</title>
<path fill="none" stroke="blueviolet" stroke-dasharray="5,2" d="M163.351,-387.447C168.542,-406.365 182.902,-448.384 212,-467.872 238.866,-485.865 334.241,-490.369 379.209,-491.496"/>
<text text-anchor="middle" x="272.5" y="-491.872" font-family="Helvetica,sans-Serif" font-size="10.00">erpc</text>
</g>
<!-- Node0&#45;&gt;Node17 -->
<g id="edge18" class="edge"><title>Node0&#45;&gt;Node17</title>
<path fill="none" stroke="blueviolet" stroke-dasharray="5,2" d="M168.472,-387.611C177.499,-398.611 193.765,-416.116 212,-424.872 265.214,-450.422 335.536,-454.548 374.291,-454.631"/>
<text text-anchor="middle" x="272.5" y="-455.872" font-family="Helvetica,sans-Serif" font-size="10.00">erpc</text>
</g>
<!-- Node0&#45;&gt;Node20 -->
<g id="edge21" class="edge"><title>Node0&#45;&gt;Node20</title>
<path fill="none" stroke="blueviolet" stroke-dasharray="5,2" d="M190.455,-387.438C197.46,-389.461 204.949,-391.421 212,-392.872 264.833,-403.744 327.02,-410.052 365.733,-413.228"/>
<text text-anchor="middle" x="272.5" y="-412.872" font-family="Helvetica,sans-Serif" font-size="10.00">erpc</text>
</g>
<!-- Node0&#45;&gt;Node18 -->
<g id="edge19" class="edge"><title>Node0&#45;&gt;Node18</title>
<path fill="none" stroke="blueviolet" stroke-dasharray="5,2" d="M194.142,-377.872C234.53,-377.872 303.252,-377.872 350.778,-377.872"/>
<text text-anchor="middle" x="272.5" y="-380.872" font-family="Helvetica,sans-Serif" font-size="10.00">erpc</text>
</g>
<!-- Node0&#45;&gt;Node16 -->
<g id="edge17" class="edge"><title>Node0&#45;&gt;Node16</title>
<path fill="none" stroke="blueviolet" stroke-dasharray="5,2" d="M190.455,-368.305C197.46,-366.282 204.949,-364.323 212,-362.872 267.45,-351.461 333.204,-345.078 371.309,-342.067"/>
<text text-anchor="middle" x="272.5" y="-365.872" font-family="Helvetica,sans-Serif" font-size="10.00">erpc</text>
</g>
<!-- Node0&#45;&gt;Node14 -->
<g id="edge15" class="edge"><title>Node0&#45;&gt;Node14</title>
<path fill="none" stroke="blueviolet" stroke-dasharray="5,2" d="M168.099,-368.306C177.007,-357.084 193.391,-338.869 212,-329.872 257.108,-308.063 314.67,-302.177 354.756,-301.055"/>
<text text-anchor="middle" x="272.5" y="-332.872" font-family="Helvetica,sans-Serif" font-size="10.00">erpc</text>
</g>
<!-- Node0&#45;&gt;Node7 -->
<g id="edge7" class="edge"><title>Node0&#45;&gt;Node7</title>
<path fill="none" stroke="blueviolet" stroke-dasharray="5,2" d="M163.308,-368.18C168.423,-349.034 182.653,-306.517 212,-286.872 264.734,-251.571 344.402,-256 381.975,-260.631"/>
<text text-anchor="middle" x="272.5" y="-289.872" font-family="Helvetica,sans-Serif" font-size="10.00">erpc</text>
</g>
<!-- Node0&#45;&gt;Node12 -->
<g id="edge12" class="edge"><title>Node0&#45;&gt;Node12</title>
<path fill="none" stroke="blueviolet" stroke-dasharray="5,2" d="M161.315,-368.293C162.721,-342.85 170.376,-273.37 212,-241.872 258.303,-206.833 330.227,-212.127 371.33,-219.05"/>
<text text-anchor="middle" x="272.5" y="-244.872" font-family="Helvetica,sans-Serif" font-size="10.00">erpc</text>
</g>
<!-- Node0&#45;&gt;Node10 -->
<g id="edge10" class="edge"><title>Node0&#45;&gt;Node10</title>
<path fill="none" stroke="blueviolet" stroke-dasharray="5,2" d="M162.285,-368.201C167.018,-334.166 184.637,-220.791 212,-198.872 256.069,-163.57 325.836,-170.303 367.737,-178.81"/>
<text text-anchor="middle" x="272.5" y="-201.872" font-family="Helvetica,sans-Serif" font-size="10.00">erpc</text>
</g>
<!-- Node0&#45;&gt;Node21 -->
<g id="edge22" class="edge"><title>Node0&#45;&gt;Node21</title>
<path fill="none" stroke="blueviolet" stroke-dasharray="5,2" d="M161.718,-368.162C164.818,-329.149 178.451,-184.579 212,-156.872 235.858,-137.168 326.324,-142.458 373.687,-146.783"/>
<text text-anchor="middle" x="272.5" y="-159.872" font-family="Helvetica,sans-Serif" font-size="10.00">erpc</text>
</g>
<!-- Node0&#45;&gt;Node4 -->
<g id="edge4" class="edge"><title>Node0&#45;&gt;Node4</title>
<path fill="none" stroke="blueviolet" stroke-dasharray="5,2" d="M161.458,-368.355C163.678,-326.547 174.785,-159.8 212,-126.872 234.482,-106.98 320.214,-107.682 368.826,-109.826"/>
<text text-anchor="middle" x="272.5" y="-129.872" font-family="Helvetica,sans-Serif" font-size="10.00">erpc</text>
</g>
<!-- Node0&#45;&gt;Node2 -->
<g id="edge2" class="edge"><title>Node0&#45;&gt;Node2</title>
<path fill="none" stroke="orange" stroke-dasharray="5,2" d="M161.271,-368.073C162.744,-322.532 171.288,-132.118 212,-92.8718 231.891,-73.6965 305.487,-68.023 355.295,-66.4124"/>
<text text-anchor="middle" x="272.5" y="-95.8718" font-family="Helvetica,sans-Serif" font-size="10.00">erpc::RPMsgBaseTransport</text>
</g>
<!-- Node0&#45;&gt;Node2 -->
<g id="edge14" class="edge"><title>Node0&#45;&gt;Node2</title>
<path fill="none" stroke="blueviolet" stroke-dasharray="5,2" d="M160.92,-368.255C160.731,-318.939 162.629,-95.0998 212,-52.8718 233.532,-34.4549 311.106,-46.3364 360.521,-56.3271"/>
<text text-anchor="middle" x="272.5" y="-55.8718" font-family="Helvetica,sans-Serif" font-size="10.00">erpc</text>
</g>
<!-- Node8 -->
<g id="node22" class="node"><title>Node8</title>
<g id="a_node22"><a xlink:href="group__port__setup__extensions.html" target="_top" xlink:title="Extension setup functions. ">
<polygon fill="white" stroke="black" points="359.5,-10.3718 359.5,-29.3718 448.5,-29.3718 448.5,-10.3718 359.5,-10.3718"/>
<text text-anchor="middle" x="404" y="-17.3718" font-family="Helvetica,sans-Serif" font-size="10.00">Extension Setup</text>
</a>
</g>
</g>
<!-- Node0&#45;&gt;Node8 -->
<g id="edge8" class="edge"><title>Node0&#45;&gt;Node8</title>
<path fill="none" stroke="blueviolet" stroke-dasharray="5,2" d="M160.836,-368.25C160.177,-316.811 159.908,-74.8643 212,-27.8718 255.495,11.3657 329.806,0.301163 371.765,-10.355"/>
<text text-anchor="middle" x="272.5" y="-30.8718" font-family="Helvetica,sans-Serif" font-size="10.00">erpc</text>
</g>
</g>
</svg>
