<?xml version="1.0" encoding="UTF-8" standalone="no"?>
<!DOCTYPE svg PUBLIC "-//W3C//DTD SVG 1.1//EN"
 "http://www.w3.org/Graphics/SVG/1.1/DTD/svg11.dtd">
<!-- Generated by graphviz version 2.38.0 (20140413.2041)
 -->
<!-- Title: Utilities Pages: 1 -->
<svg width="328pt" height="788pt"
 viewBox="0.00 0.00 328.00 788.00" xmlns="http://www.w3.org/2000/svg" xmlns:xlink="http://www.w3.org/1999/xlink">
<g id="graph0" class="graph" transform="scale(1 1) rotate(0) translate(4 784)">
<title>Utilities</title>
<polygon fill="white" stroke="none" points="-4,4 -4,-784 324,-784 324,4 -4,4"/>
<!-- Node9 -->
<g id="node1" class="node"><title>Node9</title>
<g id="a_node1"><a xlink:href="group__dspi__slave__transport.html" target="_top" xlink:title="MCUXpressoSDK DSPI slave driver transport. ">
<polygon fill="white" stroke="black" points="234.5,-760.5 234.5,-779.5 299.5,-779.5 299.5,-760.5 234.5,-760.5"/>
<text text-anchor="middle" x="267" y="-767.5" font-family="Helvetica,sans-Serif" font-size="10.00">DSPI Slave</text>
</a>
</g>
</g>
<!-- Node10 -->
<g id="node2" class="node"><title>Node10</title>
<g id="a_node2"><a xlink:href="group__i2c__slave__transport.html" target="_top" xlink:title="MCUXpressoSDK I2C slave driver transport. ">
<polygon fill="white" stroke="black" points="238.5,-722.5 238.5,-741.5 295.5,-741.5 295.5,-722.5 238.5,-722.5"/>
<text text-anchor="middle" x="267" y="-729.5" font-family="Helvetica,sans-Serif" font-size="10.00">I2C Slave</text>
</a>
</g>
</g>
<!-- Node7 -->
<g id="node3" class="node"><title>Node7</title>
<g id="a_node3"><a xlink:href="group__port__threads.html" target="_top" xlink:title="Threading model. ">
<polygon fill="white" stroke="black" points="241.5,-684.5 241.5,-703.5 292.5,-703.5 292.5,-684.5 241.5,-684.5"/>
<text text-anchor="middle" x="267" y="-691.5" font-family="Helvetica,sans-Serif" font-size="10.00">Threads</text>
</a>
</g>
</g>
<!-- Node12 -->
<g id="node4" class="node"><title>Node12</title>
<g id="a_node4"><a xlink:href="group__mu__transport.html" target="_top" xlink:title="Messaging Unit transport. ">
<polygon fill="white" stroke="black" points="225,-646.5 225,-665.5 309,-665.5 309,-646.5 225,-646.5"/>
<text text-anchor="middle" x="267" y="-653.5" font-family="Helvetica,sans-Serif" font-size="10.00">Messaging Unit</text>
</a>
</g>
</g>
<!-- Node20 -->
<g id="node5" class="node"><title>Node20</title>
<g id="a_node5"><a xlink:href="group__tcp__transport.html" target="_top" xlink:title="Simple TCP/IP transport. ">
<polygon fill="white" stroke="black" points="243.5,-608.5 243.5,-627.5 290.5,-627.5 290.5,-608.5 243.5,-608.5"/>
<text text-anchor="middle" x="267" y="-615.5" font-family="Helvetica,sans-Serif" font-size="10.00">TCP/IP</text>
</a>
</g>
</g>
<!-- Node1 -->
<g id="node6" class="node"><title>Node1</title>
<g id="a_node6"><a xlink:href="group__infra.html" target="_top" xlink:title="C++ core. ">
<polygon fill="white" stroke="black" points="0,-380.5 0,-399.5 73,-399.5 73,-380.5 0,-380.5"/>
<text text-anchor="middle" x="36.5" y="-387.5" font-family="Helvetica,sans-Serif" font-size="10.00">Infrastructure</text>
</a>
</g>
</g>
<!-- Node0 -->
<g id="node10" class="node"><title>Node0</title>
<polygon fill="#bfbfbf" stroke="black" points="110,-380.5 110,-399.5 159,-399.5 159,-380.5 110,-380.5"/>
<text text-anchor="middle" x="134.5" y="-387.5" font-family="Helvetica,sans-Serif" font-size="10.00">Utilities</text>
</g>
<!-- Node1&#45;&gt;Node0 -->
<g id="edge1" class="edge"><title>Node1&#45;&gt;Node0</title>
<path fill="none" stroke="black" d="M83.4896,-390C92.662,-390 101.933,-390 109.958,-390"/>
<polygon fill="black" stroke="black" points="83.2469,-386.5 73.2469,-390 83.2468,-393.5 83.2469,-386.5"/>
</g>
<!-- Node2 -->
<g id="node7" class="node"><title>Node2</title>
<g id="a_node7"><a xlink:href="group__infra__client.html" target="_top" xlink:title="Client classes. ">
<polygon fill="white" stroke="black" points="246.5,-570.5 246.5,-589.5 287.5,-589.5 287.5,-570.5 246.5,-570.5"/>
<text text-anchor="middle" x="267" y="-577.5" font-family="Helvetica,sans-Serif" font-size="10.00">Client</text>
</a>
</g>
</g>
<!-- Node4 -->
<g id="node8" class="node"><title>Node4</title>
<g id="a_node8"><a xlink:href="group__infra__transport.html" target="_top" xlink:title="Superclasses for building transports. ">
<polygon fill="white" stroke="black" points="236,-532.5 236,-551.5 298,-551.5 298,-532.5 236,-532.5"/>
<text text-anchor="middle" x="267" y="-539.5" font-family="Helvetica,sans-Serif" font-size="10.00">Transports</text>
</a>
</g>
</g>
<!-- Node16 -->
<g id="node9" class="node"><title>Node16</title>
<g id="a_node9"><a xlink:href="group__serial__transport.html" target="_top" xlink:title="POSIX and Win32 serial port transport. ">
<polygon fill="white" stroke="black" points="236.5,-494.5 236.5,-513.5 297.5,-513.5 297.5,-494.5 236.5,-494.5"/>
<text text-anchor="middle" x="267" y="-501.5" font-family="Helvetica,sans-Serif" font-size="10.00">Serial port</text>
</a>
</g>
</g>
<!-- Node0&#45;&gt;Node9 -->
<g id="edge9" class="edge"><title>Node0&#45;&gt;Node9</title>
<path fill="none" stroke="blueviolet" stroke-dasharray="5,2" d="M135.88,-399.656C137.882,-447.304 148.226,-657.365 177,-715 187.249,-735.528 194.573,-738.793 214,-751 220.266,-754.938 227.468,-758.225 234.474,-760.898"/>
<text text-anchor="middle" x="186.5" y="-741" font-family="Helvetica,sans-Serif" font-size="10.00">erpc</text>
</g>
<!-- Node0&#45;&gt;Node10 -->
<g id="edge10" class="edge"><title>Node0&#45;&gt;Node10</title>
<path fill="none" stroke="blueviolet" stroke-dasharray="5,2" d="M136.065,-399.68C138.769,-443.893 151.339,-626.65 177,-677 187.419,-697.442 194.573,-700.793 214,-713 221.406,-717.653 230.117,-721.399 238.27,-724.295"/>
<text text-anchor="middle" x="186.5" y="-703" font-family="Helvetica,sans-Serif" font-size="10.00">erpc</text>
</g>
<!-- Node0&#45;&gt;Node7 -->
<g id="edge7" class="edge"><title>Node0&#45;&gt;Node7</title>
<path fill="none" stroke="blueviolet" stroke-dasharray="5,2" d="M135.026,-399.709C133.746,-434.415 132.905,-554.739 177,-639 187.638,-659.329 194.573,-662.793 214,-675 222.382,-680.267 232.437,-684.372 241.462,-687.396"/>
<text text-anchor="middle" x="186.5" y="-665" font-family="Helvetica,sans-Serif" font-size="10.00">erpc</text>
</g>
<!-- Node0&#45;&gt;Node12 -->
<g id="edge12" class="edge"><title>Node0&#45;&gt;Node12</title>
<path fill="none" stroke="blueviolet" stroke-dasharray="5,2" d="M135.411,-399.503C135.509,-430.507 138.932,-530.758 177,-601 187.932,-621.172 194.573,-624.793 214,-637 219.941,-640.733 226.722,-643.882 233.381,-646.477"/>
<text text-anchor="middle" x="186.5" y="-627" font-family="Helvetica,sans-Serif" font-size="10.00">erpc</text>
</g>
<!-- Node0&#45;&gt;Node20 -->
<g id="edge20" class="edge"><title>Node0&#45;&gt;Node20</title>
<path fill="none" stroke="blueviolet" stroke-dasharray="5,2" d="M135.955,-399.679C137.618,-427.09 145.078,-506.892 177,-563 188.346,-582.942 194.573,-586.793 214,-599 222.952,-604.625 233.812,-608.924 243.287,-611.998"/>
<text text-anchor="middle" x="186.5" y="-589" font-family="Helvetica,sans-Serif" font-size="10.00">erpc</text>
</g>
<!-- Node0&#45;&gt;Node2 -->
<g id="edge2" class="edge"><title>Node0&#45;&gt;Node2</title>
<path fill="none" stroke="blueviolet" stroke-dasharray="5,2" d="M136.868,-399.749C140.44,-422.799 151.586,-481.878 177,-524 189.014,-543.912 194.394,-548.492 214,-561 223.886,-567.307 236.159,-571.917 246.299,-575.016"/>
<text text-anchor="middle" x="186.5" y="-551" font-family="Helvetica,sans-Serif" font-size="10.00">erpc</text>
</g>
<!-- Node0&#45;&gt;Node4 -->
<g id="edge4" class="edge"><title>Node0&#45;&gt;Node4</title>
<path fill="none" stroke="blueviolet" stroke-dasharray="5,2" d="M138.311,-399.593C143.861,-417.581 157.41,-457.163 177,-486 190.068,-505.237 194.394,-510.492 214,-523 220.645,-527.239 228.368,-530.712 235.797,-533.474"/>
<text text-anchor="middle" x="186.5" y="-512" font-family="Helvetica,sans-Serif" font-size="10.00">erpc</text>
</g>
<!-- Node0&#45;&gt;Node16 -->
<g id="edge16" class="edge"><title>Node0&#45;&gt;Node16</title>
<path fill="none" stroke="blueviolet" stroke-dasharray="5,2" d="M140.512,-399.616C151.193,-419.093 178.178,-463.198 214,-485 220.897,-489.198 228.866,-492.686 236.462,-495.479"/>
<text text-anchor="middle" x="186.5" y="-474" font-family="Helvetica,sans-Serif" font-size="10.00">erpc</text>
</g>
<!-- Node18 -->
<g id="node11" class="node"><title>Node18</title>
<g id="a_node11"><a xlink:href="group__spi__slave__transport.html" target="_top" xlink:title="MCUXpressoSDK SPI slave driver transport. ">
<polygon fill="white" stroke="black" points="237.5,-456.5 237.5,-475.5 296.5,-475.5 296.5,-456.5 237.5,-456.5"/>
<text text-anchor="middle" x="267" y="-463.5" font-family="Helvetica,sans-Serif" font-size="10.00">SPI Slave</text>
</a>
</g>
</g>
<!-- Node0&#45;&gt;Node18 -->
<g id="edge18" class="edge"><title>Node0&#45;&gt;Node18</title>
<path fill="none" stroke="blueviolet" stroke-dasharray="5,2" d="M146.145,-399.632C160.549,-412.197 187.502,-434.094 214,-447 221.431,-450.619 229.738,-453.951 237.494,-456.78"/>
<text text-anchor="middle" x="186.5" y="-439" font-family="Helvetica,sans-Serif" font-size="10.00">erpc</text>
</g>
<!-- Node21 -->
<g id="node12" class="node"><title>Node21</title>
<g id="a_node12"><a xlink:href="group__uart__transport.html" target="_top" xlink:title="CMSIS UART driver transport. ">
<polygon fill="white" stroke="black" points="229,-418.5 229,-437.5 305,-437.5 305,-418.5 229,-418.5"/>
<text text-anchor="middle" x="267" y="-425.5" font-family="Helvetica,sans-Serif" font-size="10.00">CMSIS UART</text>
</a>
</g>
</g>
<!-- Node0&#45;&gt;Node21 -->
<g id="edge21" class="edge"><title>Node0&#45;&gt;Node21</title>
<path fill="none" stroke="blueviolet" stroke-dasharray="5,2" d="M159.072,-398.954C164.896,-401.046 171.145,-403.19 177,-405 193.924,-410.233 212.904,-415.252 228.975,-419.259"/>
<text text-anchor="middle" x="186.5" y="-412" font-family="Helvetica,sans-Serif" font-size="10.00">erpc</text>
</g>
<!-- Node19 -->
<g id="node13" class="node"><title>Node19</title>
<g id="a_node13"><a xlink:href="group__spidev__master__transport.html" target="_top" xlink:title="SPIdev Linux transport. ">
<polygon fill="white" stroke="black" points="214,-380.5 214,-399.5 320,-399.5 320,-380.5 214,-380.5"/>
<text text-anchor="middle" x="267" y="-387.5" font-family="Helvetica,sans-Serif" font-size="10.00">SPIdev Linux Master</text>
</a>
</g>
</g>
<!-- Node0&#45;&gt;Node19 -->
<g id="edge19" class="edge"><title>Node0&#45;&gt;Node19</title>
<path fill="none" stroke="blueviolet" stroke-dasharray="5,2" d="M159.133,-390C174.41,-390 194.912,-390 213.872,-390"/>
<text text-anchor="middle" x="186.5" y="-393" font-family="Helvetica,sans-Serif" font-size="10.00">erpc</text>
</g>
<!-- Node17 -->
<g id="node14" class="node"><title>Node17</title>
<g id="a_node14"><a xlink:href="group__spi__master__transport.html" target="_top" xlink:title="MCUXpressoSDK SPI master driver transport. ">
<polygon fill="white" stroke="black" points="234.5,-342.5 234.5,-361.5 299.5,-361.5 299.5,-342.5 234.5,-342.5"/>
<text text-anchor="middle" x="267" y="-349.5" font-family="Helvetica,sans-Serif" font-size="10.00">SPI Master</text>
</a>
</g>
</g>
<!-- Node0&#45;&gt;Node17 -->
<g id="edge17" class="edge"><title>Node0&#45;&gt;Node17</title>
<path fill="none" stroke="blueviolet" stroke-dasharray="5,2" d="M159.072,-381.046C164.896,-378.954 171.145,-376.81 177,-375 195.906,-369.154 217.378,-363.576 234.494,-359.376"/>
<text text-anchor="middle" x="186.5" y="-378" font-family="Helvetica,sans-Serif" font-size="10.00">erpc</text>
</g>
<!-- Node15 -->
<g id="node15" class="node"><title>Node15</title>
<g id="a_node15"><a xlink:href="group__rpmsg__tty__rtos__transport.html" target="_top" xlink:title="RPMsg TTY RTOS transport. ">
<polygon fill="white" stroke="black" points="218,-304.5 218,-323.5 316,-323.5 316,-304.5 218,-304.5"/>
<text text-anchor="middle" x="267" y="-311.5" font-family="Helvetica,sans-Serif" font-size="10.00">RPMsg TTY RTOS</text>
</a>
</g>
</g>
<!-- Node0&#45;&gt;Node15 -->
<g id="edge15" class="edge"><title>Node0&#45;&gt;Node15</title>
<path fill="none" stroke="blueviolet" stroke-dasharray="5,2" d="M146.145,-380.368C160.549,-367.803 187.502,-345.906 214,-333 221.172,-329.507 229.16,-326.281 236.68,-323.518"/>
<text text-anchor="middle" x="186.5" y="-359" font-family="Helvetica,sans-Serif" font-size="10.00">erpc</text>
</g>
<!-- Node5 -->
<g id="node16" class="node"><title>Node5</title>
<g id="a_node16"><a xlink:href="group__infra__server.html" target="_top" xlink:title="Server classes. ">
<polygon fill="white" stroke="black" points="245,-266.5 245,-285.5 289,-285.5 289,-266.5 245,-266.5"/>
<text text-anchor="middle" x="267" y="-273.5" font-family="Helvetica,sans-Serif" font-size="10.00">Server</text>
</a>
</g>
</g>
<!-- Node0&#45;&gt;Node5 -->
<g id="edge5" class="edge"><title>Node0&#45;&gt;Node5</title>
<path fill="none" stroke="blueviolet" stroke-dasharray="5,2" d="M140.512,-380.384C151.193,-360.907 178.178,-316.802 214,-295 223.524,-289.203 235.094,-284.759 244.9,-281.631"/>
<text text-anchor="middle" x="186.5" y="-329" font-family="Helvetica,sans-Serif" font-size="10.00">erpc</text>
</g>
<!-- Node11 -->
<g id="node17" class="node"><title>Node11</title>
<g id="a_node17"><a xlink:href="group__itbp__transport.html" target="_top" xlink:title="Simple inter&#45;thread communications transport. ">
<polygon fill="white" stroke="black" points="234.5,-228.5 234.5,-247.5 299.5,-247.5 299.5,-228.5 234.5,-228.5"/>
<text text-anchor="middle" x="267" y="-235.5" font-family="Helvetica,sans-Serif" font-size="10.00">Inter&#45;thread</text>
</a>
</g>
</g>
<!-- Node0&#45;&gt;Node11 -->
<g id="edge11" class="edge"><title>Node0&#45;&gt;Node11</title>
<path fill="none" stroke="blueviolet" stroke-dasharray="5,2" d="M138.311,-380.407C143.861,-362.419 157.41,-322.837 177,-294 190.068,-274.763 194.394,-269.508 214,-257 220.239,-253.02 227.43,-249.715 234.435,-247.039"/>
<text text-anchor="middle" x="186.5" y="-297" font-family="Helvetica,sans-Serif" font-size="10.00">erpc</text>
</g>
<!-- Node8 -->
<g id="node18" class="node"><title>Node8</title>
<g id="a_node18"><a xlink:href="group__dspi__master__transport.html" target="_top" xlink:title="MCUXpressoSDK DSPI master driver transport. ">
<polygon fill="white" stroke="black" points="231,-190.5 231,-209.5 303,-209.5 303,-190.5 231,-190.5"/>
<text text-anchor="middle" x="267" y="-197.5" font-family="Helvetica,sans-Serif" font-size="10.00">DSPI Master</text>
</a>
</g>
</g>
<!-- Node0&#45;&gt;Node8 -->
<g id="edge8" class="edge"><title>Node0&#45;&gt;Node8</title>
<path fill="none" stroke="blueviolet" stroke-dasharray="5,2" d="M136.868,-380.251C140.44,-357.201 151.586,-298.122 177,-256 189.014,-236.088 194.394,-231.508 214,-219 219.834,-215.278 226.5,-212.147 233.068,-209.568"/>
<text text-anchor="middle" x="186.5" y="-259" font-family="Helvetica,sans-Serif" font-size="10.00">erpc</text>
</g>
<!-- Node22 -->
<g id="node19" class="node"><title>Node22</title>
<g id="a_node19"><a xlink:href="group___u_s_b___c_d_c__transport.html" target="_top" xlink:title="USB CDC transport. ">
<polygon fill="white" stroke="black" points="237,-152.5 237,-171.5 297,-171.5 297,-152.5 237,-152.5"/>
<text text-anchor="middle" x="267" y="-159.5" font-family="Helvetica,sans-Serif" font-size="10.00">USB CDC</text>
</a>
</g>
</g>
<!-- Node0&#45;&gt;Node22 -->
<g id="edge22" class="edge"><title>Node0&#45;&gt;Node22</title>
<path fill="none" stroke="blueviolet" stroke-dasharray="5,2" d="M135.955,-380.321C137.618,-352.91 145.078,-273.108 177,-217 188.346,-197.058 194.573,-193.207 214,-181 220.999,-176.602 229.164,-173.015 236.922,-170.19"/>
<text text-anchor="middle" x="186.5" y="-220" font-family="Helvetica,sans-Serif" font-size="10.00">erpc</text>
</g>
<!-- Node3 -->
<g id="node20" class="node"><title>Node3</title>
<g id="a_node20"><a xlink:href="group__infra__codec.html" target="_top" xlink:title="Classes used for message serialization. ">
<polygon fill="white" stroke="black" points="232,-114.5 232,-133.5 302,-133.5 302,-114.5 232,-114.5"/>
<text text-anchor="middle" x="267" y="-121.5" font-family="Helvetica,sans-Serif" font-size="10.00">Serialization</text>
</a>
</g>
</g>
<!-- Node0&#45;&gt;Node3 -->
<g id="edge3" class="edge"><title>Node0&#45;&gt;Node3</title>
<path fill="none" stroke="blueviolet" stroke-dasharray="5,2" d="M135.411,-380.497C135.509,-349.493 138.932,-249.242 177,-179 187.932,-158.828 194.573,-155.207 214,-143 219.941,-139.267 226.722,-136.118 233.381,-133.523"/>
<text text-anchor="middle" x="186.5" y="-182" font-family="Helvetica,sans-Serif" font-size="10.00">erpc</text>
</g>
<!-- Node13 -->
<g id="node21" class="node"><title>Node13</title>
<g id="a_node21"><a xlink:href="group__rpmsg__lite__rtos__transport.html" target="_top" xlink:title="RPMsg&#45;Lite zero copy transport using RTOS API. ">
<polygon fill="white" stroke="black" points="218.5,-76.5 218.5,-95.5 315.5,-95.5 315.5,-76.5 218.5,-76.5"/>
<text text-anchor="middle" x="267" y="-83.5" font-family="Helvetica,sans-Serif" font-size="10.00">RPMsg&#45;Lite RTOS</text>
</a>
</g>
</g>
<!-- Node0&#45;&gt;Node13 -->
<g id="edge13" class="edge"><title>Node0&#45;&gt;Node13</title>
<path fill="none" stroke="blueviolet" stroke-dasharray="5,2" d="M135.026,-380.291C133.746,-345.585 132.905,-225.261 177,-141 187.638,-120.671 194.573,-117.207 214,-105 219.941,-101.267 226.722,-98.118 233.381,-95.5235"/>
<text text-anchor="middle" x="186.5" y="-144" font-family="Helvetica,sans-Serif" font-size="10.00">erpc</text>
</g>
<!-- Node14 -->
<g id="node22" class="node"><title>Node14</title>
<g id="a_node22"><a xlink:href="group__rpmsg__lite__transport.html" target="_top" xlink:title="RPMsg&#45;Lite zero copy transport. ">
<polygon fill="white" stroke="black" points="233,-38.5 233,-57.5 301,-57.5 301,-38.5 233,-38.5"/>
<text text-anchor="middle" x="267" y="-45.5" font-family="Helvetica,sans-Serif" font-size="10.00">RPMsg&#45;Lite</text>
</a>
</g>
</g>
<!-- Node0&#45;&gt;Node14 -->
<g id="edge14" class="edge"><title>Node0&#45;&gt;Node14</title>
<path fill="none" stroke="blueviolet" stroke-dasharray="5,2" d="M136.065,-380.32C138.769,-336.107 151.339,-153.35 177,-103 187.419,-82.558 194.573,-79.207 214,-67 219.941,-63.267 226.722,-60.118 233.381,-57.5235"/>
<text text-anchor="middle" x="186.5" y="-106" font-family="Helvetica,sans-Serif" font-size="10.00">erpc</text>
</g>
<!-- Node6 -->
<g id="node23" class="node"><title>Node6</title>
<g id="a_node23"><a xlink:href="group__port__setup__extensions.html" target="_top" xlink:title="Extension setup functions. ">
<polygon fill="white" stroke="black" points="222.5,-0.5 222.5,-19.5 311.5,-19.5 311.5,-0.5 222.5,-0.5"/>
<text text-anchor="middle" x="267" y="-7.5" font-family="Helvetica,sans-Serif" font-size="10.00">Extension Setup</text>
</a>
</g>
</g>
<!-- Node0&#45;&gt;Node6 -->
<g id="edge6" class="edge"><title>Node0&#45;&gt;Node6</title>
<path fill="none" stroke="blueviolet" stroke-dasharray="5,2" d="M135.88,-380.344C137.882,-332.696 148.226,-122.635 177,-65 187.249,-44.4723 194.573,-41.207 214,-29 219.941,-25.267 226.722,-22.118 233.381,-19.5235"/>
<text text-anchor="middle" x="186.5" y="-68" font-family="Helvetica,sans-Serif" font-size="10.00">erpc</text>
</g>
</g>
</svg>
