<?xml version="1.0" encoding="UTF-8" standalone="no"?>
<!DOCTYPE svg PUBLIC "-//W3C//DTD SVG 1.1//EN"
 "http://www.w3.org/Graphics/SVG/1.1/DTD/svg11.dtd">
<!-- Generated by graphviz version 2.38.0 (20140413.2041)
 -->
<!-- Title: Threads Pages: 1 -->
<svg width="304pt" height="788pt"
 viewBox="0.00 0.00 304.00 788.00" xmlns="http://www.w3.org/2000/svg" xmlns:xlink="http://www.w3.org/1999/xlink">
<g id="graph0" class="graph" transform="scale(1 1) rotate(0) translate(4 784)">
<title>Threads</title>
<polygon fill="white" stroke="none" points="-4,4 -4,-784 300,-784 300,4 -4,4"/>
<!-- Node9 -->
<g id="node1" class="node"><title>Node9</title>
<g id="a_node1"><a xlink:href="group__dspi__slave__transport.html" target="_top" xlink:title="MCUXpressoSDK DSPI slave driver transport. ">
<polygon fill="white" stroke="black" points="210.5,-760.5 210.5,-779.5 275.5,-779.5 275.5,-760.5 210.5,-760.5"/>
<text text-anchor="middle" x="243" y="-767.5" font-family="Helvetica,sans-Serif" font-size="10.00">DSPI Slave</text>
</a>
</g>
</g>
<!-- Node10 -->
<g id="node2" class="node"><title>Node10</title>
<g id="a_node2"><a xlink:href="group__i2c__slave__transport.html" target="_top" xlink:title="MCUXpressoSDK I2C slave driver transport. ">
<polygon fill="white" stroke="black" points="214.5,-722.5 214.5,-741.5 271.5,-741.5 271.5,-722.5 214.5,-722.5"/>
<text text-anchor="middle" x="243" y="-729.5" font-family="Helvetica,sans-Serif" font-size="10.00">I2C Slave</text>
</a>
</g>
</g>
<!-- Node0 -->
<g id="node3" class="node"><title>Node0</title>
<polygon fill="#bfbfbf" stroke="black" points="84,-380.5 84,-399.5 135,-399.5 135,-380.5 84,-380.5"/>
<text text-anchor="middle" x="109.5" y="-387.5" font-family="Helvetica,sans-Serif" font-size="10.00">Threads</text>
</g>
<!-- Node0&#45;&gt;Node9 -->
<g id="edge9" class="edge"><title>Node0&#45;&gt;Node9</title>
<path fill="none" stroke="blueviolet" stroke-dasharray="5,2" d="M110.913,-399.657C113.076,-447.308 124.127,-657.386 153,-715 163.28,-735.512 170.573,-738.793 190,-751 196.266,-754.938 203.468,-758.225 210.474,-760.898"/>
<text text-anchor="middle" x="162.5" y="-741" font-family="Helvetica,sans-Serif" font-size="10.00">erpc</text>
</g>
<!-- Node0&#45;&gt;Node10 -->
<g id="edge10" class="edge"><title>Node0&#45;&gt;Node10</title>
<path fill="none" stroke="blueviolet" stroke-dasharray="5,2" d="M111.102,-399.681C113.976,-443.897 127.24,-626.669 153,-677 163.453,-697.424 170.573,-700.793 190,-713 197.406,-717.653 206.117,-721.399 214.27,-724.295"/>
<text text-anchor="middle" x="162.5" y="-703" font-family="Helvetica,sans-Serif" font-size="10.00">erpc</text>
</g>
<!-- Node12 -->
<g id="node4" class="node"><title>Node12</title>
<g id="a_node4"><a xlink:href="group__mu__transport.html" target="_top" xlink:title="Messaging Unit transport. ">
<polygon fill="white" stroke="black" points="201,-684.5 201,-703.5 285,-703.5 285,-684.5 201,-684.5"/>
<text text-anchor="middle" x="243" y="-691.5" font-family="Helvetica,sans-Serif" font-size="10.00">Messaging Unit</text>
</a>
</g>
</g>
<!-- Node0&#45;&gt;Node12 -->
<g id="edge12" class="edge"><title>Node0&#45;&gt;Node12</title>
<path fill="none" stroke="blueviolet" stroke-dasharray="5,2" d="M110.075,-399.711C108.969,-434.424 108.712,-554.77 153,-639 163.678,-659.308 170.573,-662.793 190,-675 195.941,-678.733 202.722,-681.882 209.381,-684.477"/>
<text text-anchor="middle" x="162.5" y="-665" font-family="Helvetica,sans-Serif" font-size="10.00">erpc</text>
</g>
<!-- Node20 -->
<g id="node5" class="node"><title>Node20</title>
<g id="a_node5"><a xlink:href="group__tcp__transport.html" target="_top" xlink:title="Simple TCP/IP transport. ">
<polygon fill="white" stroke="black" points="219.5,-646.5 219.5,-665.5 266.5,-665.5 266.5,-646.5 219.5,-646.5"/>
<text text-anchor="middle" x="243" y="-653.5" font-family="Helvetica,sans-Serif" font-size="10.00">TCP/IP</text>
</a>
</g>
</g>
<!-- Node0&#45;&gt;Node20 -->
<g id="edge20" class="edge"><title>Node0&#45;&gt;Node20</title>
<path fill="none" stroke="blueviolet" stroke-dasharray="5,2" d="M110.467,-399.504C110.746,-430.515 114.737,-530.782 153,-601 163.978,-621.147 170.573,-624.793 190,-637 198.952,-642.625 209.812,-646.924 219.287,-649.998"/>
<text text-anchor="middle" x="162.5" y="-627" font-family="Helvetica,sans-Serif" font-size="10.00">erpc</text>
</g>
<!-- Node2 -->
<g id="node6" class="node"><title>Node2</title>
<g id="a_node6"><a xlink:href="group__infra__client.html" target="_top" xlink:title="Client classes. ">
<polygon fill="white" stroke="black" points="222.5,-608.5 222.5,-627.5 263.5,-627.5 263.5,-608.5 222.5,-608.5"/>
<text text-anchor="middle" x="243" y="-615.5" font-family="Helvetica,sans-Serif" font-size="10.00">Client</text>
</a>
</g>
</g>
<!-- Node0&#45;&gt;Node2 -->
<g id="edge2" class="edge"><title>Node0&#45;&gt;Node2</title>
<path fill="none" stroke="blueviolet" stroke-dasharray="5,2" d="M111.024,-399.68C112.88,-427.095 120.882,-506.905 153,-563 164.4,-582.911 170.573,-586.793 190,-599 199.929,-605.239 212.204,-609.846 222.334,-612.961"/>
<text text-anchor="middle" x="162.5" y="-589" font-family="Helvetica,sans-Serif" font-size="10.00">erpc</text>
</g>
<!-- Node4 -->
<g id="node7" class="node"><title>Node4</title>
<g id="a_node7"><a xlink:href="group__infra__transport.html" target="_top" xlink:title="Superclasses for building transports. ">
<polygon fill="white" stroke="black" points="212,-570.5 212,-589.5 274,-589.5 274,-570.5 212,-570.5"/>
<text text-anchor="middle" x="243" y="-577.5" font-family="Helvetica,sans-Serif" font-size="10.00">Transports</text>
</a>
</g>
</g>
<!-- Node0&#45;&gt;Node4 -->
<g id="edge4" class="edge"><title>Node0&#45;&gt;Node4</title>
<path fill="none" stroke="blueviolet" stroke-dasharray="5,2" d="M111.957,-399.748C115.734,-422.797 127.389,-481.875 153,-524 165.081,-543.872 170.394,-548.492 190,-561 196.645,-565.239 204.368,-568.712 211.797,-571.474"/>
<text text-anchor="middle" x="162.5" y="-551" font-family="Helvetica,sans-Serif" font-size="10.00">erpc</text>
</g>
<!-- Node16 -->
<g id="node8" class="node"><title>Node16</title>
<g id="a_node8"><a xlink:href="group__serial__transport.html" target="_top" xlink:title="POSIX and Win32 serial port transport. ">
<polygon fill="white" stroke="black" points="212.5,-532.5 212.5,-551.5 273.5,-551.5 273.5,-532.5 212.5,-532.5"/>
<text text-anchor="middle" x="243" y="-539.5" font-family="Helvetica,sans-Serif" font-size="10.00">Serial port</text>
</a>
</g>
</g>
<!-- Node0&#45;&gt;Node16 -->
<g id="edge16" class="edge"><title>Node0&#45;&gt;Node16</title>
<path fill="none" stroke="blueviolet" stroke-dasharray="5,2" d="M113.43,-399.588C119.198,-417.569 133.209,-457.138 153,-486 166.152,-505.18 170.394,-510.492 190,-523 196.807,-527.342 204.745,-530.881 212.34,-533.675"/>
<text text-anchor="middle" x="162.5" y="-512" font-family="Helvetica,sans-Serif" font-size="10.00">erpc</text>
</g>
<!-- Node5 -->
<g id="node9" class="node"><title>Node5</title>
<g id="a_node9"><a xlink:href="group__infra__utility.html" target="_top" xlink:title="Utility code used by the infrastructure. ">
<polygon fill="white" stroke="black" points="218.5,-494.5 218.5,-513.5 267.5,-513.5 267.5,-494.5 218.5,-494.5"/>
<text text-anchor="middle" x="243" y="-501.5" font-family="Helvetica,sans-Serif" font-size="10.00">Utilities</text>
</a>
</g>
</g>
<!-- Node0&#45;&gt;Node5 -->
<g id="edge5" class="edge"><title>Node0&#45;&gt;Node5</title>
<path fill="none" stroke="blueviolet" stroke-dasharray="5,2" d="M115.62,-399.598C126.52,-419.04 153.993,-463.085 190,-485 198.703,-490.297 209.114,-494.465 218.327,-497.531"/>
<text text-anchor="middle" x="162.5" y="-474" font-family="Helvetica,sans-Serif" font-size="10.00">erpc</text>
</g>
<!-- Node18 -->
<g id="node10" class="node"><title>Node18</title>
<g id="a_node10"><a xlink:href="group__spi__slave__transport.html" target="_top" xlink:title="MCUXpressoSDK SPI slave driver transport. ">
<polygon fill="white" stroke="black" points="213.5,-456.5 213.5,-475.5 272.5,-475.5 272.5,-456.5 213.5,-456.5"/>
<text text-anchor="middle" x="243" y="-463.5" font-family="Helvetica,sans-Serif" font-size="10.00">SPI Slave</text>
</a>
</g>
</g>
<!-- Node0&#45;&gt;Node18 -->
<g id="edge18" class="edge"><title>Node0&#45;&gt;Node18</title>
<path fill="none" stroke="blueviolet" stroke-dasharray="5,2" d="M121.315,-399.6C135.941,-412.128 163.28,-433.986 190,-447 197.431,-450.619 205.738,-453.951 213.494,-456.78"/>
<text text-anchor="middle" x="162.5" y="-439" font-family="Helvetica,sans-Serif" font-size="10.00">erpc</text>
</g>
<!-- Node21 -->
<g id="node11" class="node"><title>Node21</title>
<g id="a_node11"><a xlink:href="group__uart__transport.html" target="_top" xlink:title="CMSIS UART driver transport. ">
<polygon fill="white" stroke="black" points="205,-418.5 205,-437.5 281,-437.5 281,-418.5 205,-418.5"/>
<text text-anchor="middle" x="243" y="-425.5" font-family="Helvetica,sans-Serif" font-size="10.00">CMSIS UART</text>
</a>
</g>
</g>
<!-- Node0&#45;&gt;Node21 -->
<g id="edge21" class="edge"><title>Node0&#45;&gt;Node21</title>
<path fill="none" stroke="blueviolet" stroke-dasharray="5,2" d="M135.101,-399.088C140.937,-401.131 147.162,-403.219 153,-405 169.944,-410.169 188.926,-415.179 204.994,-419.197"/>
<text text-anchor="middle" x="162.5" y="-412" font-family="Helvetica,sans-Serif" font-size="10.00">erpc</text>
</g>
<!-- Node19 -->
<g id="node12" class="node"><title>Node19</title>
<g id="a_node12"><a xlink:href="group__spidev__master__transport.html" target="_top" xlink:title="SPIdev Linux transport. ">
<polygon fill="white" stroke="black" points="190,-380.5 190,-399.5 296,-399.5 296,-380.5 190,-380.5"/>
<text text-anchor="middle" x="243" y="-387.5" font-family="Helvetica,sans-Serif" font-size="10.00">SPIdev Linux Master</text>
</a>
</g>
</g>
<!-- Node0&#45;&gt;Node19 -->
<g id="edge19" class="edge"><title>Node0&#45;&gt;Node19</title>
<path fill="none" stroke="blueviolet" stroke-dasharray="5,2" d="M135.234,-390C150.635,-390 171.034,-390 189.873,-390"/>
<text text-anchor="middle" x="162.5" y="-393" font-family="Helvetica,sans-Serif" font-size="10.00">erpc</text>
</g>
<!-- Node17 -->
<g id="node13" class="node"><title>Node17</title>
<g id="a_node13"><a xlink:href="group__spi__master__transport.html" target="_top" xlink:title="MCUXpressoSDK SPI master driver transport. ">
<polygon fill="white" stroke="black" points="210.5,-342.5 210.5,-361.5 275.5,-361.5 275.5,-342.5 210.5,-342.5"/>
<text text-anchor="middle" x="243" y="-349.5" font-family="Helvetica,sans-Serif" font-size="10.00">SPI Master</text>
</a>
</g>
</g>
<!-- Node0&#45;&gt;Node17 -->
<g id="edge17" class="edge"><title>Node0&#45;&gt;Node17</title>
<path fill="none" stroke="blueviolet" stroke-dasharray="5,2" d="M135.101,-380.912C140.937,-378.869 147.162,-376.781 153,-375 171.775,-369.272 193.054,-363.739 210.097,-359.536"/>
<text text-anchor="middle" x="162.5" y="-378" font-family="Helvetica,sans-Serif" font-size="10.00">erpc</text>
</g>
<!-- Node15 -->
<g id="node14" class="node"><title>Node15</title>
<g id="a_node14"><a xlink:href="group__rpmsg__tty__rtos__transport.html" target="_top" xlink:title="RPMsg TTY RTOS transport. ">
<polygon fill="white" stroke="black" points="194,-304.5 194,-323.5 292,-323.5 292,-304.5 194,-304.5"/>
<text text-anchor="middle" x="243" y="-311.5" font-family="Helvetica,sans-Serif" font-size="10.00">RPMsg TTY RTOS</text>
</a>
</g>
</g>
<!-- Node0&#45;&gt;Node15 -->
<g id="edge15" class="edge"><title>Node0&#45;&gt;Node15</title>
<path fill="none" stroke="blueviolet" stroke-dasharray="5,2" d="M121.315,-380.4C135.941,-367.872 163.28,-346.014 190,-333 197.172,-329.507 205.16,-326.281 212.68,-323.518"/>
<text text-anchor="middle" x="162.5" y="-359" font-family="Helvetica,sans-Serif" font-size="10.00">erpc</text>
</g>
<!-- Node6 -->
<g id="node15" class="node"><title>Node6</title>
<g id="a_node15"><a xlink:href="group__infra__server.html" target="_top" xlink:title="Server classes. ">
<polygon fill="white" stroke="black" points="221,-266.5 221,-285.5 265,-285.5 265,-266.5 221,-266.5"/>
<text text-anchor="middle" x="243" y="-273.5" font-family="Helvetica,sans-Serif" font-size="10.00">Server</text>
</a>
</g>
</g>
<!-- Node0&#45;&gt;Node6 -->
<g id="edge6" class="edge"><title>Node0&#45;&gt;Node6</title>
<path fill="none" stroke="blueviolet" stroke-dasharray="5,2" d="M115.62,-380.402C126.52,-360.96 153.993,-316.915 190,-295 199.524,-289.203 211.094,-284.759 220.9,-281.631"/>
<text text-anchor="middle" x="162.5" y="-329" font-family="Helvetica,sans-Serif" font-size="10.00">erpc</text>
</g>
<!-- Node11 -->
<g id="node16" class="node"><title>Node11</title>
<g id="a_node16"><a xlink:href="group__itbp__transport.html" target="_top" xlink:title="Simple inter&#45;thread communications transport. ">
<polygon fill="white" stroke="black" points="210.5,-228.5 210.5,-247.5 275.5,-247.5 275.5,-228.5 210.5,-228.5"/>
<text text-anchor="middle" x="243" y="-235.5" font-family="Helvetica,sans-Serif" font-size="10.00">Inter&#45;thread</text>
</a>
</g>
</g>
<!-- Node0&#45;&gt;Node11 -->
<g id="edge11" class="edge"><title>Node0&#45;&gt;Node11</title>
<path fill="none" stroke="blueviolet" stroke-dasharray="5,2" d="M113.43,-380.412C119.198,-362.431 133.209,-322.862 153,-294 166.152,-274.82 170.394,-269.508 190,-257 196.239,-253.02 203.43,-249.715 210.435,-247.039"/>
<text text-anchor="middle" x="162.5" y="-297" font-family="Helvetica,sans-Serif" font-size="10.00">erpc</text>
</g>
<!-- Node8 -->
<g id="node17" class="node"><title>Node8</title>
<g id="a_node17"><a xlink:href="group__dspi__master__transport.html" target="_top" xlink:title="MCUXpressoSDK DSPI master driver transport. ">
<polygon fill="white" stroke="black" points="207,-190.5 207,-209.5 279,-209.5 279,-190.5 207,-190.5"/>
<text text-anchor="middle" x="243" y="-197.5" font-family="Helvetica,sans-Serif" font-size="10.00">DSPI Master</text>
</a>
</g>
</g>
<!-- Node0&#45;&gt;Node8 -->
<g id="edge8" class="edge"><title>Node0&#45;&gt;Node8</title>
<path fill="none" stroke="blueviolet" stroke-dasharray="5,2" d="M111.957,-380.252C115.734,-357.203 127.389,-298.125 153,-256 165.081,-236.128 170.394,-231.508 190,-219 195.834,-215.278 202.5,-212.147 209.068,-209.568"/>
<text text-anchor="middle" x="162.5" y="-259" font-family="Helvetica,sans-Serif" font-size="10.00">erpc</text>
</g>
<!-- Node22 -->
<g id="node18" class="node"><title>Node22</title>
<g id="a_node18"><a xlink:href="group___u_s_b___c_d_c__transport.html" target="_top" xlink:title="USB CDC transport. ">
<polygon fill="white" stroke="black" points="213,-152.5 213,-171.5 273,-171.5 273,-152.5 213,-152.5"/>
<text text-anchor="middle" x="243" y="-159.5" font-family="Helvetica,sans-Serif" font-size="10.00">USB CDC</text>
</a>
</g>
</g>
<!-- Node0&#45;&gt;Node22 -->
<g id="edge22" class="edge"><title>Node0&#45;&gt;Node22</title>
<path fill="none" stroke="blueviolet" stroke-dasharray="5,2" d="M111.024,-380.32C112.88,-352.905 120.882,-273.095 153,-217 164.4,-197.089 170.573,-193.207 190,-181 196.999,-176.602 205.164,-173.015 212.922,-170.19"/>
<text text-anchor="middle" x="162.5" y="-220" font-family="Helvetica,sans-Serif" font-size="10.00">erpc</text>
</g>
<!-- Node3 -->
<g id="node20" class="node"><title>Node3</title>
<g id="a_node20"><a xlink:href="group__infra__codec.html" target="_top" xlink:title="Classes used for message serialization. ">
<polygon fill="white" stroke="black" points="208,-114.5 208,-133.5 278,-133.5 278,-114.5 208,-114.5"/>
<text text-anchor="middle" x="243" y="-121.5" font-family="Helvetica,sans-Serif" font-size="10.00">Serialization</text>
</a>
</g>
</g>
<!-- Node0&#45;&gt;Node3 -->
<g id="edge3" class="edge"><title>Node0&#45;&gt;Node3</title>
<path fill="none" stroke="blueviolet" stroke-dasharray="5,2" d="M110.467,-380.496C110.746,-349.485 114.737,-249.218 153,-179 163.978,-158.853 170.573,-155.207 190,-143 195.941,-139.267 202.722,-136.118 209.381,-133.523"/>
<text text-anchor="middle" x="162.5" y="-182" font-family="Helvetica,sans-Serif" font-size="10.00">erpc</text>
</g>
<!-- Node13 -->
<g id="node21" class="node"><title>Node13</title>
<g id="a_node21"><a xlink:href="group__rpmsg__lite__rtos__transport.html" target="_top" xlink:title="RPMsg&#45;Lite zero copy transport using RTOS API. ">
<polygon fill="white" stroke="black" points="194.5,-76.5 194.5,-95.5 291.5,-95.5 291.5,-76.5 194.5,-76.5"/>
<text text-anchor="middle" x="243" y="-83.5" font-family="Helvetica,sans-Serif" font-size="10.00">RPMsg&#45;Lite RTOS</text>
</a>
</g>
</g>
<!-- Node0&#45;&gt;Node13 -->
<g id="edge13" class="edge"><title>Node0&#45;&gt;Node13</title>
<path fill="none" stroke="blueviolet" stroke-dasharray="5,2" d="M110.075,-380.289C108.969,-345.576 108.712,-225.23 153,-141 163.678,-120.692 170.573,-117.207 190,-105 195.941,-101.267 202.722,-98.118 209.381,-95.5235"/>
<text text-anchor="middle" x="162.5" y="-144" font-family="Helvetica,sans-Serif" font-size="10.00">erpc</text>
</g>
<!-- Node14 -->
<g id="node22" class="node"><title>Node14</title>
<g id="a_node22"><a xlink:href="group__rpmsg__lite__transport.html" target="_top" xlink:title="RPMsg&#45;Lite zero copy transport. ">
<polygon fill="white" stroke="black" points="209,-38.5 209,-57.5 277,-57.5 277,-38.5 209,-38.5"/>
<text text-anchor="middle" x="243" y="-45.5" font-family="Helvetica,sans-Serif" font-size="10.00">RPMsg&#45;Lite</text>
</a>
</g>
</g>
<!-- Node0&#45;&gt;Node14 -->
<g id="edge14" class="edge"><title>Node0&#45;&gt;Node14</title>
<path fill="none" stroke="blueviolet" stroke-dasharray="5,2" d="M111.102,-380.319C113.976,-336.103 127.24,-153.331 153,-103 163.453,-82.5758 170.573,-79.207 190,-67 195.941,-63.267 202.722,-60.118 209.381,-57.5235"/>
<text text-anchor="middle" x="162.5" y="-106" font-family="Helvetica,sans-Serif" font-size="10.00">erpc</text>
</g>
<!-- Node7 -->
<g id="node23" class="node"><title>Node7</title>
<g id="a_node23"><a xlink:href="group__port__setup__extensions.html" target="_top" xlink:title="Extension setup functions. ">
<polygon fill="white" stroke="black" points="198.5,-0.5 198.5,-19.5 287.5,-19.5 287.5,-0.5 198.5,-0.5"/>
<text text-anchor="middle" x="243" y="-7.5" font-family="Helvetica,sans-Serif" font-size="10.00">Extension Setup</text>
</a>
</g>
</g>
<!-- Node0&#45;&gt;Node7 -->
<g id="edge7" class="edge"><title>Node0&#45;&gt;Node7</title>
<path fill="none" stroke="blueviolet" stroke-dasharray="5,2" d="M110.913,-380.343C113.076,-332.692 124.127,-122.614 153,-65 163.28,-44.4878 170.573,-41.207 190,-29 195.941,-25.267 202.722,-22.118 209.381,-19.5235"/>
<text text-anchor="middle" x="162.5" y="-68" font-family="Helvetica,sans-Serif" font-size="10.00">erpc</text>
</g>
<!-- Node1 -->
<g id="node19" class="node"><title>Node1</title>
<g id="a_node19"><a xlink:href="group__port.html" target="_top" xlink:title="Porting layer. ">
<polygon fill="white" stroke="black" points="0,-380.5 0,-399.5 47,-399.5 47,-380.5 0,-380.5"/>
<text text-anchor="middle" x="23.5" y="-387.5" font-family="Helvetica,sans-Serif" font-size="10.00">Porting</text>
</a>
</g>
</g>
<!-- Node1&#45;&gt;Node0 -->
<g id="edge1" class="edge"><title>Node1&#45;&gt;Node0</title>
<path fill="none" stroke="black" d="M57.084,-390C65.9853,-390 75.4816,-390 83.8595,-390"/>
<polygon fill="black" stroke="black" points="57.0105,-386.5 47.0105,-390 57.0104,-393.5 57.0105,-386.5"/>
</g>
</g>
</svg>
