<?xml version="1.0" encoding="UTF-8" standalone="no"?>
<!DOCTYPE svg PUBLIC "-//W3C//DTD SVG 1.1//EN"
 "http://www.w3.org/Graphics/SVG/1.1/DTD/svg11.dtd">
<!-- Generated by graphviz version 2.38.0 (20140413.2041)
 -->
<!-- Title: Transports Pages: 1 -->
<svg width="364pt" height="636pt"
 viewBox="0.00 0.00 364.00 636.00" xmlns="http://www.w3.org/2000/svg" xmlns:xlink="http://www.w3.org/1999/xlink">
<g id="graph0" class="graph" transform="scale(1 1) rotate(0) translate(4 632)">
<title>Transports</title>
<polygon fill="white" stroke="none" points="-4,4 -4,-632 360,-632 360,4 -4,4"/>
<!-- Node8 -->
<g id="node1" class="node"><title>Node8</title>
<g id="a_node1"><a xlink:href="group__dspi__slave__transport.html" target="_top" xlink:title="Kinetis SDK DSPI slave driver transport. ">
<polygon fill="white" stroke="black" points="259,-608.5 259,-627.5 324,-627.5 324,-608.5 259,-608.5"/>
<text text-anchor="middle" x="291.5" y="-615.5" font-family="Helvetica,sans-Serif" font-size="10.00">DSPI Slave</text>
</a>
</g>
</g>
<!-- Node6 -->
<g id="node2" class="node"><title>Node6</title>
<g id="a_node2"><a xlink:href="group__port__threads.html" target="_top" xlink:title="Threading model. ">
<polygon fill="white" stroke="black" points="266,-570.5 266,-589.5 317,-589.5 317,-570.5 266,-570.5"/>
<text text-anchor="middle" x="291.5" y="-577.5" font-family="Helvetica,sans-Serif" font-size="10.00">Threads</text>
</a>
</g>
</g>
<!-- Node10 -->
<g id="node3" class="node"><title>Node10</title>
<g id="a_node3"><a xlink:href="group__mu__transport.html" target="_top" xlink:title="Messaging Unit transport. ">
<polygon fill="white" stroke="black" points="249.5,-532.5 249.5,-551.5 333.5,-551.5 333.5,-532.5 249.5,-532.5"/>
<text text-anchor="middle" x="291.5" y="-539.5" font-family="Helvetica,sans-Serif" font-size="10.00">Messaging Unit</text>
</a>
</g>
</g>
<!-- Node17 -->
<g id="node4" class="node"><title>Node17</title>
<g id="a_node4"><a xlink:href="group__tcp__transport.html" target="_top" xlink:title="Simple TCP/IP transport. ">
<polygon fill="white" stroke="black" points="268,-494.5 268,-513.5 315,-513.5 315,-494.5 268,-494.5"/>
<text text-anchor="middle" x="291.5" y="-501.5" font-family="Helvetica,sans-Serif" font-size="10.00">TCP/IP</text>
</a>
</g>
</g>
<!-- Node1 -->
<g id="node5" class="node"><title>Node1</title>
<g id="a_node5"><a xlink:href="group__infra.html" target="_top" xlink:title="C++ core. ">
<polygon fill="white" stroke="black" points="0,-304.5 0,-323.5 73,-323.5 73,-304.5 0,-304.5"/>
<text text-anchor="middle" x="36.5" y="-311.5" font-family="Helvetica,sans-Serif" font-size="10.00">Infrastructure</text>
</a>
</g>
</g>
<!-- Node0 -->
<g id="node7" class="node"><title>Node0</title>
<polygon fill="#bfbfbf" stroke="black" points="110,-304.5 110,-323.5 172,-323.5 172,-304.5 110,-304.5"/>
<text text-anchor="middle" x="141" y="-311.5" font-family="Helvetica,sans-Serif" font-size="10.00">Transports</text>
</g>
<!-- Node1&#45;&gt;Node0 -->
<g id="edge1" class="edge"><title>Node1&#45;&gt;Node0</title>
<path fill="none" stroke="black" d="M83.152,-314C92.2329,-314 101.551,-314 109.948,-314"/>
<polygon fill="black" stroke="black" points="83.0619,-310.5 73.0619,-314 83.0618,-317.5 83.0619,-310.5"/>
</g>
<!-- Node2 -->
<g id="node6" class="node"><title>Node2</title>
<g id="a_node6"><a xlink:href="group__infra__client.html" target="_top" xlink:title="Client classes. ">
<polygon fill="white" stroke="black" points="271,-456.5 271,-475.5 312,-475.5 312,-456.5 271,-456.5"/>
<text text-anchor="middle" x="291.5" y="-463.5" font-family="Helvetica,sans-Serif" font-size="10.00">Client</text>
</a>
</g>
</g>
<!-- Node0&#45;&gt;Node8 -->
<g id="edge8" class="edge"><title>Node0&#45;&gt;Node8</title>
<path fill="none" stroke="blueviolet" stroke-dasharray="5,2" d="M141.793,-323.783C141.465,-358.746 143.901,-479.902 190,-564 200.881,-583.85 207.403,-587.671 227,-599 236.763,-604.644 248.357,-608.751 258.949,-611.671"/>
<text text-anchor="middle" x="199.5" y="-590" font-family="Helvetica,sans-Serif" font-size="10.00">erpc</text>
</g>
<!-- Node0&#45;&gt;Node6 -->
<g id="edge6" class="edge"><title>Node0&#45;&gt;Node6</title>
<path fill="none" stroke="blueviolet" stroke-dasharray="5,2" d="M142.275,-323.513C143.548,-354.55 150.655,-454.89 190,-525 201.228,-545.009 207.218,-549.377 227,-561 238.906,-567.995 253.602,-572.607 265.858,-575.533"/>
<text text-anchor="middle" x="199.5" y="-552" font-family="Helvetica,sans-Serif" font-size="10.00">erpc</text>
</g>
<!-- Node0&#45;&gt;Node10 -->
<g id="edge10" class="edge"><title>Node0&#45;&gt;Node10</title>
<path fill="none" stroke="blueviolet" stroke-dasharray="5,2" d="M142.954,-323.607C146.005,-350.816 157.313,-430.055 190,-486 201.732,-506.08 207.03,-511.082 227,-523 233.818,-527.069 241.574,-530.325 249.267,-532.91"/>
<text text-anchor="middle" x="199.5" y="-513" font-family="Helvetica,sans-Serif" font-size="10.00">erpc</text>
</g>
<!-- Node0&#45;&gt;Node17 -->
<g id="edge17" class="edge"><title>Node0&#45;&gt;Node17</title>
<path fill="none" stroke="blueviolet" stroke-dasharray="5,2" d="M144.048,-323.55C149.183,-346.141 164.089,-404.108 190,-446 202.568,-466.32 206.646,-472.487 227,-485 239.45,-492.654 255.175,-497.39 267.862,-500.219"/>
<text text-anchor="middle" x="199.5" y="-474" font-family="Helvetica,sans-Serif" font-size="10.00">erpc</text>
</g>
<!-- Node0&#45;&gt;Node2 -->
<g id="edge2" class="edge"><title>Node0&#45;&gt;Node2</title>
<path fill="none" stroke="blueviolet" stroke-dasharray="5,2" d="M144.797,-323.558C152.778,-348.913 178.291,-417.93 227,-447 240.537,-455.079 257.771,-459.953 270.869,-462.738"/>
<text text-anchor="middle" x="199.5" y="-434" font-family="Helvetica,sans-Serif" font-size="10.00">erpc</text>
</g>
<!-- Node14 -->
<g id="node8" class="node"><title>Node14</title>
<g id="a_node8"><a xlink:href="group__serial__transport.html" target="_top" xlink:title="POSIX and Win32 serial port transport. ">
<polygon fill="white" stroke="black" points="261,-418.5 261,-437.5 322,-437.5 322,-418.5 261,-418.5"/>
<text text-anchor="middle" x="291.5" y="-425.5" font-family="Helvetica,sans-Serif" font-size="10.00">Serial port</text>
</a>
</g>
</g>
<!-- Node0&#45;&gt;Node14 -->
<g id="edge14" class="edge"><title>Node0&#45;&gt;Node14</title>
<path fill="none" stroke="blueviolet" stroke-dasharray="5,2" d="M147.605,-323.676C159.498,-343.264 189.291,-387.562 227,-409 237.404,-414.915 249.834,-419.159 260.928,-422.115"/>
<text text-anchor="middle" x="199.5" y="-398" font-family="Helvetica,sans-Serif" font-size="10.00">erpc</text>
</g>
<!-- Node4 -->
<g id="node9" class="node"><title>Node4</title>
<g id="a_node9"><a xlink:href="group__infra__utility.html" target="_top" xlink:title="Utility code used by the infrastructure. ">
<polygon fill="white" stroke="black" points="267,-380.5 267,-399.5 316,-399.5 316,-380.5 267,-380.5"/>
<text text-anchor="middle" x="291.5" y="-387.5" font-family="Helvetica,sans-Serif" font-size="10.00">Utilities</text>
</a>
</g>
</g>
<!-- Node0&#45;&gt;Node4 -->
<g id="edge4" class="edge"><title>Node0&#45;&gt;Node4</title>
<path fill="none" stroke="blueviolet" stroke-dasharray="5,2" d="M153.63,-323.671C169.341,-336.279 198.653,-358.223 227,-371 239.694,-376.721 254.574,-381.279 266.738,-384.495"/>
<text text-anchor="middle" x="199.5" y="-363" font-family="Helvetica,sans-Serif" font-size="10.00">erpc</text>
</g>
<!-- Node16 -->
<g id="node10" class="node"><title>Node16</title>
<g id="a_node10"><a xlink:href="group__spi__slave__transport.html" target="_top" xlink:title="Kinetis SDK SPI slave driver transport. ">
<polygon fill="white" stroke="black" points="262,-342.5 262,-361.5 321,-361.5 321,-342.5 262,-342.5"/>
<text text-anchor="middle" x="291.5" y="-349.5" font-family="Helvetica,sans-Serif" font-size="10.00">SPI Slave</text>
</a>
</g>
</g>
<!-- Node0&#45;&gt;Node16 -->
<g id="edge16" class="edge"><title>Node0&#45;&gt;Node16</title>
<path fill="none" stroke="blueviolet" stroke-dasharray="5,2" d="M171.34,-323.566C177.48,-325.456 183.932,-327.36 190,-329 214.018,-335.491 241.583,-341.714 261.762,-346.046"/>
<text text-anchor="middle" x="199.5" y="-336" font-family="Helvetica,sans-Serif" font-size="10.00">erpc</text>
</g>
<!-- Node18 -->
<g id="node11" class="node"><title>Node18</title>
<g id="a_node11"><a xlink:href="group__uart__transport.html" target="_top" xlink:title="CMSIS UART driver transport. ">
<polygon fill="white" stroke="black" points="253.5,-304.5 253.5,-323.5 329.5,-323.5 329.5,-304.5 253.5,-304.5"/>
<text text-anchor="middle" x="291.5" y="-311.5" font-family="Helvetica,sans-Serif" font-size="10.00">CMSIS UART</text>
</a>
</g>
</g>
<!-- Node0&#45;&gt;Node18 -->
<g id="edge18" class="edge"><title>Node0&#45;&gt;Node18</title>
<path fill="none" stroke="blueviolet" stroke-dasharray="5,2" d="M172.051,-314C195.527,-314 228.271,-314 253.383,-314"/>
<text text-anchor="middle" x="199.5" y="-317" font-family="Helvetica,sans-Serif" font-size="10.00">erpc</text>
</g>
<!-- Node15 -->
<g id="node12" class="node"><title>Node15</title>
<g id="a_node12"><a xlink:href="group__spi__master__transport.html" target="_top" xlink:title="Kinetis SDK SPI master driver transport. ">
<polygon fill="white" stroke="black" points="259,-266.5 259,-285.5 324,-285.5 324,-266.5 259,-266.5"/>
<text text-anchor="middle" x="291.5" y="-273.5" font-family="Helvetica,sans-Serif" font-size="10.00">SPI Master</text>
</a>
</g>
</g>
<!-- Node0&#45;&gt;Node15 -->
<g id="edge15" class="edge"><title>Node0&#45;&gt;Node15</title>
<path fill="none" stroke="blueviolet" stroke-dasharray="5,2" d="M171.34,-304.434C177.48,-302.544 183.932,-300.64 190,-299 212.809,-292.836 238.816,-286.914 258.659,-282.623"/>
<text text-anchor="middle" x="199.5" y="-302" font-family="Helvetica,sans-Serif" font-size="10.00">erpc</text>
</g>
<!-- Node5 -->
<g id="node13" class="node"><title>Node5</title>
<g id="a_node13"><a xlink:href="group__infra__server.html" target="_top" xlink:title="Server classes. ">
<polygon fill="white" stroke="black" points="269.5,-228.5 269.5,-247.5 313.5,-247.5 313.5,-228.5 269.5,-228.5"/>
<text text-anchor="middle" x="291.5" y="-235.5" font-family="Helvetica,sans-Serif" font-size="10.00">Server</text>
</a>
</g>
</g>
<!-- Node0&#45;&gt;Node5 -->
<g id="edge5" class="edge"><title>Node0&#45;&gt;Node5</title>
<path fill="none" stroke="blueviolet" stroke-dasharray="5,2" d="M153.63,-304.329C169.341,-291.721 198.653,-269.777 227,-257 240.638,-250.853 256.8,-246.05 269.406,-242.81"/>
<text text-anchor="middle" x="199.5" y="-281" font-family="Helvetica,sans-Serif" font-size="10.00">erpc</text>
</g>
<!-- Node9 -->
<g id="node14" class="node"><title>Node9</title>
<g id="a_node14"><a xlink:href="group__itbp__transport.html" target="_top" xlink:title="Simple inter&#45;thread communications transport. ">
<polygon fill="white" stroke="black" points="259,-190.5 259,-209.5 324,-209.5 324,-190.5 259,-190.5"/>
<text text-anchor="middle" x="291.5" y="-197.5" font-family="Helvetica,sans-Serif" font-size="10.00">Inter&#45;thread</text>
</a>
</g>
</g>
<!-- Node0&#45;&gt;Node9 -->
<g id="edge9" class="edge"><title>Node0&#45;&gt;Node9</title>
<path fill="none" stroke="blueviolet" stroke-dasharray="5,2" d="M147.605,-304.324C159.498,-284.736 189.291,-240.438 227,-219 236.803,-213.426 248.407,-209.336 258.995,-206.41"/>
<text text-anchor="middle" x="199.5" y="-250" font-family="Helvetica,sans-Serif" font-size="10.00">erpc</text>
</g>
<!-- Node7 -->
<g id="node15" class="node"><title>Node7</title>
<g id="a_node15"><a xlink:href="group__dspi__master__transport.html" target="_top" xlink:title="Kinetis SDK DSPI master driver transport. ">
<polygon fill="white" stroke="black" points="255.5,-152.5 255.5,-171.5 327.5,-171.5 327.5,-152.5 255.5,-152.5"/>
<text text-anchor="middle" x="291.5" y="-159.5" font-family="Helvetica,sans-Serif" font-size="10.00">DSPI Master</text>
</a>
</g>
</g>
<!-- Node0&#45;&gt;Node7 -->
<g id="edge7" class="edge"><title>Node0&#45;&gt;Node7</title>
<path fill="none" stroke="blueviolet" stroke-dasharray="5,2" d="M144.797,-304.442C152.778,-279.087 178.291,-210.07 227,-181 235.597,-175.869 245.684,-172.032 255.256,-169.201"/>
<text text-anchor="middle" x="199.5" y="-215" font-family="Helvetica,sans-Serif" font-size="10.00">erpc</text>
</g>
<!-- Node13 -->
<g id="node16" class="node"><title>Node13</title>
<g id="a_node16"><a xlink:href="group__rpmsg__tty__rtos__transport.html" target="_top" xlink:title="Rpmsg_tty_rtos_transport">
<polygon fill="white" stroke="black" points="227,-114.5 227,-133.5 356,-133.5 356,-114.5 227,-114.5"/>
<text text-anchor="middle" x="291.5" y="-121.5" font-family="Helvetica,sans-Serif" font-size="10.00">Rpmsg_tty_rtos_transport</text>
</a>
</g>
</g>
<!-- Node0&#45;&gt;Node13 -->
<g id="edge13" class="edge"><title>Node0&#45;&gt;Node13</title>
<path fill="none" stroke="blueviolet" stroke-dasharray="5,2" d="M144.048,-304.45C149.183,-281.859 164.089,-223.892 190,-182 202.568,-161.68 206.646,-155.513 227,-143 233.274,-139.143 240.379,-136.027 247.509,-133.522"/>
<text text-anchor="middle" x="199.5" y="-185" font-family="Helvetica,sans-Serif" font-size="10.00">erpc</text>
</g>
<!-- Node3 -->
<g id="node17" class="node"><title>Node3</title>
<g id="a_node17"><a xlink:href="group__infra__codec.html" target="_top" xlink:title="Classes used for message serialization. ">
<polygon fill="white" stroke="black" points="256.5,-76.5 256.5,-95.5 326.5,-95.5 326.5,-76.5 256.5,-76.5"/>
<text text-anchor="middle" x="291.5" y="-83.5" font-family="Helvetica,sans-Serif" font-size="10.00">Serialization</text>
</a>
</g>
</g>
<!-- Node0&#45;&gt;Node3 -->
<g id="edge3" class="edge"><title>Node0&#45;&gt;Node3</title>
<path fill="none" stroke="blueviolet" stroke-dasharray="5,2" d="M142.954,-304.393C146.005,-277.184 157.313,-197.945 190,-142 201.732,-121.92 207.03,-116.918 227,-105 235.893,-99.6925 246.382,-95.7686 256.245,-92.9113"/>
<text text-anchor="middle" x="199.5" y="-145" font-family="Helvetica,sans-Serif" font-size="10.00">erpc</text>
</g>
<!-- Node11 -->
<g id="node18" class="node"><title>Node11</title>
<g id="a_node18"><a xlink:href="group__rpmsg__lite__rtos__transport.html" target="_top" xlink:title="RPMsg&#45;Lite zero copy transport using RTOS API. ">
<polygon fill="white" stroke="black" points="243,-38.5 243,-57.5 340,-57.5 340,-38.5 243,-38.5"/>
<text text-anchor="middle" x="291.5" y="-45.5" font-family="Helvetica,sans-Serif" font-size="10.00">RPMsg&#45;Lite RTOS</text>
</a>
</g>
</g>
<!-- Node0&#45;&gt;Node11 -->
<g id="edge11" class="edge"><title>Node0&#45;&gt;Node11</title>
<path fill="none" stroke="blueviolet" stroke-dasharray="5,2" d="M142.275,-304.487C143.548,-273.45 150.655,-173.11 190,-103 201.228,-82.9915 207.218,-78.623 227,-67 233.548,-63.1526 240.941,-60.0262 248.307,-57.5046"/>
<text text-anchor="middle" x="199.5" y="-106" font-family="Helvetica,sans-Serif" font-size="10.00">erpc</text>
</g>
<!-- Node12 -->
<g id="node19" class="node"><title>Node12</title>
<g id="a_node19"><a xlink:href="group__rpmsg__lite__transport.html" target="_top" xlink:title="RPMsg&#45;Lite zero copy transport. ">
<polygon fill="white" stroke="black" points="257.5,-0.5 257.5,-19.5 325.5,-19.5 325.5,-0.5 257.5,-0.5"/>
<text text-anchor="middle" x="291.5" y="-7.5" font-family="Helvetica,sans-Serif" font-size="10.00">RPMsg&#45;Lite</text>
</a>
</g>
</g>
<!-- Node0&#45;&gt;Node12 -->
<g id="edge12" class="edge"><title>Node0&#45;&gt;Node12</title>
<path fill="none" stroke="blueviolet" stroke-dasharray="5,2" d="M141.793,-304.217C141.465,-269.254 143.901,-148.098 190,-64 200.881,-44.1505 207.403,-40.3295 227,-29 236.265,-23.6437 247.178,-19.6717 257.32,-16.7849"/>
<text text-anchor="middle" x="199.5" y="-67" font-family="Helvetica,sans-Serif" font-size="10.00">erpc</text>
</g>
</g>
</svg>
