<?xml version="1.0" encoding="UTF-8" standalone="no"?>
<!DOCTYPE svg PUBLIC "-//W3C//DTD SVG 1.1//EN"
 "http://www.w3.org/Graphics/SVG/1.1/DTD/svg11.dtd">
<!-- Generated by graphviz version 2.38.0 (20140413.2041)
 -->
<!-- Title: DSPI Master Pages: 1 -->
<svg width="367pt" height="788pt"
 viewBox="0.00 0.00 367.00 788.00" xmlns="http://www.w3.org/2000/svg" xmlns:xlink="http://www.w3.org/1999/xlink">
<g id="graph0" class="graph" transform="scale(1 1) rotate(0) translate(4 784)">
<title>DSPI Master</title>
<polygon fill="white" stroke="none" points="-4,4 -4,-784 363,-784 363,4 -4,4"/>
<!-- Node1 -->
<g id="node1" class="node"><title>Node1</title>
<g id="a_node1"><a xlink:href="group__transports.html" target="_top" xlink:title="Transport layer classes. ">
<polygon fill="white" stroke="black" points="0,-380.5 0,-399.5 89,-399.5 89,-380.5 0,-380.5"/>
<text text-anchor="middle" x="44.5" y="-387.5" font-family="Helvetica,sans-Serif" font-size="10.00">Transport Layers</text>
</a>
</g>
</g>
<!-- Node0 -->
<g id="node18" class="node"><title>Node0</title>
<polygon fill="#bfbfbf" stroke="black" points="126,-380.5 126,-399.5 198,-399.5 198,-380.5 126,-380.5"/>
<text text-anchor="middle" x="162" y="-387.5" font-family="Helvetica,sans-Serif" font-size="10.00">DSPI Master</text>
</g>
<!-- Node1&#45;&gt;Node0 -->
<g id="edge1" class="edge"><title>Node1&#45;&gt;Node0</title>
<path fill="none" stroke="black" d="M99.2729,-390C108.316,-390 117.491,-390 125.903,-390"/>
<polygon fill="black" stroke="black" points="99.1656,-386.5 89.1656,-390 99.1656,-393.5 99.1656,-386.5"/>
</g>
<!-- Node9 -->
<g id="node2" class="node"><title>Node9</title>
<g id="a_node2"><a xlink:href="group__dspi__slave__transport.html" target="_top" xlink:title="MCUXpressoSDK DSPI slave driver transport. ">
<polygon fill="white" stroke="black" points="273.5,-760.5 273.5,-779.5 338.5,-779.5 338.5,-760.5 273.5,-760.5"/>
<text text-anchor="middle" x="306" y="-767.5" font-family="Helvetica,sans-Serif" font-size="10.00">DSPI Slave</text>
</a>
</g>
</g>
<!-- Node10 -->
<g id="node3" class="node"><title>Node10</title>
<g id="a_node3"><a xlink:href="group__i2c__slave__transport.html" target="_top" xlink:title="MCUXpressoSDK I2C slave driver transport. ">
<polygon fill="white" stroke="black" points="277.5,-722.5 277.5,-741.5 334.5,-741.5 334.5,-722.5 277.5,-722.5"/>
<text text-anchor="middle" x="306" y="-729.5" font-family="Helvetica,sans-Serif" font-size="10.00">I2C Slave</text>
</a>
</g>
</g>
<!-- Node8 -->
<g id="node4" class="node"><title>Node8</title>
<g id="a_node4"><a xlink:href="group__port__threads.html" target="_top" xlink:title="Threading model. ">
<polygon fill="white" stroke="black" points="280.5,-684.5 280.5,-703.5 331.5,-703.5 331.5,-684.5 280.5,-684.5"/>
<text text-anchor="middle" x="306" y="-691.5" font-family="Helvetica,sans-Serif" font-size="10.00">Threads</text>
</a>
</g>
</g>
<!-- Node12 -->
<g id="node5" class="node"><title>Node12</title>
<g id="a_node5"><a xlink:href="group__mu__transport.html" target="_top" xlink:title="Messaging Unit transport. ">
<polygon fill="white" stroke="black" points="264,-646.5 264,-665.5 348,-665.5 348,-646.5 264,-646.5"/>
<text text-anchor="middle" x="306" y="-653.5" font-family="Helvetica,sans-Serif" font-size="10.00">Messaging Unit</text>
</a>
</g>
</g>
<!-- Node20 -->
<g id="node6" class="node"><title>Node20</title>
<g id="a_node6"><a xlink:href="group__tcp__transport.html" target="_top" xlink:title="Simple TCP/IP transport. ">
<polygon fill="white" stroke="black" points="282.5,-608.5 282.5,-627.5 329.5,-627.5 329.5,-608.5 282.5,-608.5"/>
<text text-anchor="middle" x="306" y="-615.5" font-family="Helvetica,sans-Serif" font-size="10.00">TCP/IP</text>
</a>
</g>
</g>
<!-- Node2 -->
<g id="node7" class="node"><title>Node2</title>
<g id="a_node7"><a xlink:href="group__infra__client.html" target="_top" xlink:title="Client classes. ">
<polygon fill="white" stroke="black" points="285.5,-570.5 285.5,-589.5 326.5,-589.5 326.5,-570.5 285.5,-570.5"/>
<text text-anchor="middle" x="306" y="-577.5" font-family="Helvetica,sans-Serif" font-size="10.00">Client</text>
</a>
</g>
</g>
<!-- Node4 -->
<g id="node8" class="node"><title>Node4</title>
<g id="a_node8"><a xlink:href="group__infra__transport.html" target="_top" xlink:title="Superclasses for building transports. ">
<polygon fill="white" stroke="black" points="275,-532.5 275,-551.5 337,-551.5 337,-532.5 275,-532.5"/>
<text text-anchor="middle" x="306" y="-539.5" font-family="Helvetica,sans-Serif" font-size="10.00">Transports</text>
</a>
</g>
</g>
<!-- Node16 -->
<g id="node9" class="node"><title>Node16</title>
<g id="a_node9"><a xlink:href="group__serial__transport.html" target="_top" xlink:title="POSIX and Win32 serial port transport. ">
<polygon fill="white" stroke="black" points="275.5,-494.5 275.5,-513.5 336.5,-513.5 336.5,-494.5 275.5,-494.5"/>
<text text-anchor="middle" x="306" y="-501.5" font-family="Helvetica,sans-Serif" font-size="10.00">Serial port</text>
</a>
</g>
</g>
<!-- Node5 -->
<g id="node10" class="node"><title>Node5</title>
<g id="a_node10"><a xlink:href="group__infra__utility.html" target="_top" xlink:title="Utility code used by the infrastructure. ">
<polygon fill="white" stroke="black" points="281.5,-456.5 281.5,-475.5 330.5,-475.5 330.5,-456.5 281.5,-456.5"/>
<text text-anchor="middle" x="306" y="-463.5" font-family="Helvetica,sans-Serif" font-size="10.00">Utilities</text>
</a>
</g>
</g>
<!-- Node18 -->
<g id="node11" class="node"><title>Node18</title>
<g id="a_node11"><a xlink:href="group__spi__slave__transport.html" target="_top" xlink:title="MCUXpressoSDK SPI slave driver transport. ">
<polygon fill="white" stroke="black" points="276.5,-418.5 276.5,-437.5 335.5,-437.5 335.5,-418.5 276.5,-418.5"/>
<text text-anchor="middle" x="306" y="-425.5" font-family="Helvetica,sans-Serif" font-size="10.00">SPI Slave</text>
</a>
</g>
</g>
<!-- Node21 -->
<g id="node12" class="node"><title>Node21</title>
<g id="a_node12"><a xlink:href="group__uart__transport.html" target="_top" xlink:title="CMSIS UART driver transport. ">
<polygon fill="white" stroke="black" points="268,-380.5 268,-399.5 344,-399.5 344,-380.5 268,-380.5"/>
<text text-anchor="middle" x="306" y="-387.5" font-family="Helvetica,sans-Serif" font-size="10.00">CMSIS UART</text>
</a>
</g>
</g>
<!-- Node19 -->
<g id="node13" class="node"><title>Node19</title>
<g id="a_node13"><a xlink:href="group__spidev__master__transport.html" target="_top" xlink:title="SPIdev Linux transport. ">
<polygon fill="white" stroke="black" points="253,-342.5 253,-361.5 359,-361.5 359,-342.5 253,-342.5"/>
<text text-anchor="middle" x="306" y="-349.5" font-family="Helvetica,sans-Serif" font-size="10.00">SPIdev Linux Master</text>
</a>
</g>
</g>
<!-- Node17 -->
<g id="node14" class="node"><title>Node17</title>
<g id="a_node14"><a xlink:href="group__spi__master__transport.html" target="_top" xlink:title="MCUXpressoSDK SPI master driver transport. ">
<polygon fill="white" stroke="black" points="273.5,-304.5 273.5,-323.5 338.5,-323.5 338.5,-304.5 273.5,-304.5"/>
<text text-anchor="middle" x="306" y="-311.5" font-family="Helvetica,sans-Serif" font-size="10.00">SPI Master</text>
</a>
</g>
</g>
<!-- Node15 -->
<g id="node15" class="node"><title>Node15</title>
<g id="a_node15"><a xlink:href="group__rpmsg__tty__rtos__transport.html" target="_top" xlink:title="RPMsg TTY RTOS transport. ">
<polygon fill="white" stroke="black" points="257,-266.5 257,-285.5 355,-285.5 355,-266.5 257,-266.5"/>
<text text-anchor="middle" x="306" y="-273.5" font-family="Helvetica,sans-Serif" font-size="10.00">RPMsg TTY RTOS</text>
</a>
</g>
</g>
<!-- Node6 -->
<g id="node16" class="node"><title>Node6</title>
<g id="a_node16"><a xlink:href="group__infra__server.html" target="_top" xlink:title="Server classes. ">
<polygon fill="white" stroke="black" points="284,-228.5 284,-247.5 328,-247.5 328,-228.5 284,-228.5"/>
<text text-anchor="middle" x="306" y="-235.5" font-family="Helvetica,sans-Serif" font-size="10.00">Server</text>
</a>
</g>
</g>
<!-- Node11 -->
<g id="node17" class="node"><title>Node11</title>
<g id="a_node17"><a xlink:href="group__itbp__transport.html" target="_top" xlink:title="Simple inter&#45;thread communications transport. ">
<polygon fill="white" stroke="black" points="273.5,-190.5 273.5,-209.5 338.5,-209.5 338.5,-190.5 273.5,-190.5"/>
<text text-anchor="middle" x="306" y="-197.5" font-family="Helvetica,sans-Serif" font-size="10.00">Inter&#45;thread</text>
</a>
</g>
</g>
<!-- Node0&#45;&gt;Node9 -->
<g id="edge9" class="edge"><title>Node0&#45;&gt;Node9</title>
<path fill="none" stroke="blueviolet" stroke-dasharray="5,2" d="M163.757,-399.665C167.616,-447.354 186.081,-657.584 216,-715 226.603,-735.347 233.573,-738.793 253,-751 259.266,-754.938 266.468,-758.225 273.474,-760.898"/>
<text text-anchor="middle" x="225.5" y="-741" font-family="Helvetica,sans-Serif" font-size="10.00">erpc</text>
</g>
<!-- Node0&#45;&gt;Node10 -->
<g id="edge10" class="edge"><title>Node0&#45;&gt;Node10</title>
<path fill="none" stroke="blueviolet" stroke-dasharray="5,2" d="M162.732,-399.598C162.08,-437.393 163.455,-578.69 216,-677 226.815,-697.235 233.573,-700.793 253,-713 260.406,-717.653 269.117,-721.399 277.27,-724.295"/>
<text text-anchor="middle" x="225.5" y="-703" font-family="Helvetica,sans-Serif" font-size="10.00">erpc</text>
</g>
<!-- Node0&#45;&gt;Node8 -->
<g id="edge8" class="edge"><title>Node0&#45;&gt;Node8</title>
<path fill="none" stroke="blueviolet" stroke-dasharray="5,2" d="M163.088,-399.73C163.796,-434.505 169.648,-555.036 216,-639 227.089,-659.086 233.573,-662.793 253,-675 261.382,-680.267 271.437,-684.372 280.462,-687.396"/>
<text text-anchor="middle" x="225.5" y="-665" font-family="Helvetica,sans-Serif" font-size="10.00">erpc</text>
</g>
<!-- Node0&#45;&gt;Node12 -->
<g id="edge12" class="edge"><title>Node0&#45;&gt;Node12</title>
<path fill="none" stroke="blueviolet" stroke-dasharray="5,2" d="M163.637,-399.889C166.027,-431.224 176.461,-530.349 216,-600 227.481,-620.224 233.394,-624.492 253,-637 258.834,-640.722 265.5,-643.853 272.068,-646.432"/>
<text text-anchor="middle" x="225.5" y="-627" font-family="Helvetica,sans-Serif" font-size="10.00">erpc</text>
</g>
<!-- Node0&#45;&gt;Node20 -->
<g id="edge20" class="edge"><title>Node0&#45;&gt;Node20</title>
<path fill="none" stroke="blueviolet" stroke-dasharray="5,2" d="M164.347,-399.529C168.487,-426.522 182.808,-505.161 216,-561 228.045,-581.263 233.212,-586.19 253,-599 261.956,-604.798 272.922,-609.14 282.47,-612.199"/>
<text text-anchor="middle" x="225.5" y="-588" font-family="Helvetica,sans-Serif" font-size="10.00">erpc</text>
</g>
<!-- Node0&#45;&gt;Node2 -->
<g id="edge2" class="edge"><title>Node0&#45;&gt;Node2</title>
<path fill="none" stroke="blueviolet" stroke-dasharray="5,2" d="M165.629,-399.776C171.974,-422.351 189.578,-479.363 216,-521 228.975,-541.448 232.841,-547.58 253,-561 262.761,-567.498 275.028,-572.118 285.196,-575.174"/>
<text text-anchor="middle" x="225.5" y="-549" font-family="Helvetica,sans-Serif" font-size="10.00">erpc</text>
</g>
<!-- Node0&#45;&gt;Node4 -->
<g id="edge4" class="edge"><title>Node0&#45;&gt;Node4</title>
<path fill="none" stroke="blueviolet" stroke-dasharray="5,2" d="M166.441,-399.667C175.89,-424.688 204.788,-491.789 253,-523 259.616,-527.283 267.329,-530.772 274.757,-533.535"/>
<text text-anchor="middle" x="225.5" y="-509" font-family="Helvetica,sans-Serif" font-size="10.00">erpc</text>
</g>
<!-- Node0&#45;&gt;Node16 -->
<g id="edge16" class="edge"><title>Node0&#45;&gt;Node16</title>
<path fill="none" stroke="blueviolet" stroke-dasharray="5,2" d="M169.42,-399.736C182.664,-419.037 214.986,-462.249 253,-485 259.845,-489.097 267.718,-492.534 275.232,-495.31"/>
<text text-anchor="middle" x="225.5" y="-473" font-family="Helvetica,sans-Serif" font-size="10.00">erpc</text>
</g>
<!-- Node0&#45;&gt;Node5 -->
<g id="edge5" class="edge"><title>Node0&#45;&gt;Node5</title>
<path fill="none" stroke="blueviolet" stroke-dasharray="5,2" d="M176.176,-399.672C193.246,-411.884 224.234,-432.989 253,-447 261.987,-451.377 272.254,-455.333 281.278,-458.489"/>
<text text-anchor="middle" x="225.5" y="-440" font-family="Helvetica,sans-Serif" font-size="10.00">erpc</text>
</g>
<!-- Node0&#45;&gt;Node18 -->
<g id="edge18" class="edge"><title>Node0&#45;&gt;Node18</title>
<path fill="none" stroke="blueviolet" stroke-dasharray="5,2" d="M196.329,-399.559C202.845,-401.392 209.631,-403.276 216,-405 236.18,-410.462 259.012,-416.357 276.498,-420.811"/>
<text text-anchor="middle" x="225.5" y="-412" font-family="Helvetica,sans-Serif" font-size="10.00">erpc</text>
</g>
<!-- Node0&#45;&gt;Node21 -->
<g id="edge21" class="edge"><title>Node0&#45;&gt;Node21</title>
<path fill="none" stroke="blueviolet" stroke-dasharray="5,2" d="M198.101,-390C219.291,-390 246.269,-390 267.822,-390"/>
<text text-anchor="middle" x="225.5" y="-393" font-family="Helvetica,sans-Serif" font-size="10.00">erpc</text>
</g>
<!-- Node0&#45;&gt;Node19 -->
<g id="edge19" class="edge"><title>Node0&#45;&gt;Node19</title>
<path fill="none" stroke="blueviolet" stroke-dasharray="5,2" d="M196.329,-380.441C202.845,-378.608 209.631,-376.724 216,-375 232.791,-370.455 251.418,-365.611 267.274,-361.546"/>
<text text-anchor="middle" x="225.5" y="-378" font-family="Helvetica,sans-Serif" font-size="10.00">erpc</text>
</g>
<!-- Node0&#45;&gt;Node17 -->
<g id="edge17" class="edge"><title>Node0&#45;&gt;Node17</title>
<path fill="none" stroke="blueviolet" stroke-dasharray="5,2" d="M175.839,-380.451C192.799,-368.177 223.93,-346.806 253,-333 260.293,-329.536 268.399,-326.3 275.998,-323.515"/>
<text text-anchor="middle" x="225.5" y="-355" font-family="Helvetica,sans-Serif" font-size="10.00">erpc</text>
</g>
<!-- Node0&#45;&gt;Node15 -->
<g id="edge15" class="edge"><title>Node0&#45;&gt;Node15</title>
<path fill="none" stroke="blueviolet" stroke-dasharray="5,2" d="M169.39,-380.215C182.582,-360.824 214.813,-317.461 253,-295 259.214,-291.345 266.249,-288.201 273.093,-285.582"/>
<text text-anchor="middle" x="225.5" y="-326" font-family="Helvetica,sans-Serif" font-size="10.00">erpc</text>
</g>
<!-- Node0&#45;&gt;Node6 -->
<g id="edge6" class="edge"><title>Node0&#45;&gt;Node6</title>
<path fill="none" stroke="blueviolet" stroke-dasharray="5,2" d="M166.417,-380.296C175.809,-355.186 204.581,-287.889 253,-257 262.4,-251.004 273.958,-246.54 283.788,-243.452"/>
<text text-anchor="middle" x="225.5" y="-291" font-family="Helvetica,sans-Serif" font-size="10.00">erpc</text>
</g>
<!-- Node0&#45;&gt;Node11 -->
<g id="edge11" class="edge"><title>Node0&#45;&gt;Node11</title>
<path fill="none" stroke="blueviolet" stroke-dasharray="5,2" d="M165.431,-380.365C171.47,-357.577 188.668,-299.118 216,-257 228.832,-237.226 233.212,-231.81 253,-219 259.213,-214.978 266.392,-211.657 273.395,-208.978"/>
<text text-anchor="middle" x="225.5" y="-260" font-family="Helvetica,sans-Serif" font-size="10.00">erpc</text>
</g>
<!-- Node22 -->
<g id="node19" class="node"><title>Node22</title>
<g id="a_node19"><a xlink:href="group___u_s_b___c_d_c__transport.html" target="_top" xlink:title="USB CDC transport. ">
<polygon fill="white" stroke="black" points="276,-152.5 276,-171.5 336,-171.5 336,-152.5 276,-152.5"/>
<text text-anchor="middle" x="306" y="-159.5" font-family="Helvetica,sans-Serif" font-size="10.00">USB CDC</text>
</a>
</g>
</g>
<!-- Node0&#45;&gt;Node22 -->
<g id="edge22" class="edge"><title>Node0&#45;&gt;Node22</title>
<path fill="none" stroke="blueviolet" stroke-dasharray="5,2" d="M164.244,-380.313C168.111,-352.882 181.786,-273.032 216,-217 227.957,-197.418 233.573,-193.207 253,-181 259.999,-176.602 268.164,-173.015 275.922,-170.19"/>
<text text-anchor="middle" x="225.5" y="-220" font-family="Helvetica,sans-Serif" font-size="10.00">erpc</text>
</g>
<!-- Node3 -->
<g id="node20" class="node"><title>Node3</title>
<g id="a_node20"><a xlink:href="group__infra__codec.html" target="_top" xlink:title="Classes used for message serialization. ">
<polygon fill="white" stroke="black" points="271,-114.5 271,-133.5 341,-133.5 341,-114.5 271,-114.5"/>
<text text-anchor="middle" x="306" y="-121.5" font-family="Helvetica,sans-Serif" font-size="10.00">Serialization</text>
</a>
</g>
</g>
<!-- Node0&#45;&gt;Node3 -->
<g id="edge3" class="edge"><title>Node0&#45;&gt;Node3</title>
<path fill="none" stroke="blueviolet" stroke-dasharray="5,2" d="M163.503,-380.413C165.518,-349.141 175.022,-248.088 216,-178 227.425,-158.459 233.749,-154.908 253,-143 258.967,-139.309 265.759,-136.178 272.421,-133.588"/>
<text text-anchor="middle" x="225.5" y="-181" font-family="Helvetica,sans-Serif" font-size="10.00">erpc</text>
</g>
<!-- Node13 -->
<g id="node21" class="node"><title>Node13</title>
<g id="a_node21"><a xlink:href="group__rpmsg__lite__rtos__transport.html" target="_top" xlink:title="RPMsg&#45;Lite zero copy transport using RTOS API. ">
<polygon fill="white" stroke="black" points="257.5,-76.5 257.5,-95.5 354.5,-95.5 354.5,-76.5 257.5,-76.5"/>
<text text-anchor="middle" x="306" y="-83.5" font-family="Helvetica,sans-Serif" font-size="10.00">RPMsg&#45;Lite RTOS</text>
</a>
</g>
</g>
<!-- Node0&#45;&gt;Node13 -->
<g id="edge13" class="edge"><title>Node0&#45;&gt;Node13</title>
<path fill="none" stroke="blueviolet" stroke-dasharray="5,2" d="M162.984,-380.146C163.342,-344.934 168.158,-222.974 216,-139 227.055,-119.595 233.923,-116.611 253,-105 259.076,-101.302 265.984,-98.1545 272.736,-95.548"/>
<text text-anchor="middle" x="225.5" y="-142" font-family="Helvetica,sans-Serif" font-size="10.00">erpc</text>
</g>
<!-- Node14 -->
<g id="node22" class="node"><title>Node14</title>
<g id="a_node22"><a xlink:href="group__rpmsg__lite__transport.html" target="_top" xlink:title="RPMsg&#45;Lite zero copy transport. ">
<polygon fill="white" stroke="black" points="272,-38.5 272,-57.5 340,-57.5 340,-38.5 272,-38.5"/>
<text text-anchor="middle" x="306" y="-45.5" font-family="Helvetica,sans-Serif" font-size="10.00">RPMsg&#45;Lite</text>
</a>
</g>
</g>
<!-- Node0&#45;&gt;Node14 -->
<g id="edge14" class="edge"><title>Node0&#45;&gt;Node14</title>
<path fill="none" stroke="blueviolet" stroke-dasharray="5,2" d="M162.631,-380.29C161.602,-342.064 161.755,-199.242 216,-101 226.795,-81.4493 233.923,-78.6111 253,-67 259.076,-63.3021 265.984,-60.1545 272.736,-57.548"/>
<text text-anchor="middle" x="225.5" y="-104" font-family="Helvetica,sans-Serif" font-size="10.00">erpc</text>
</g>
<!-- Node7 -->
<g id="node23" class="node"><title>Node7</title>
<g id="a_node23"><a xlink:href="group__port__setup__extensions.html" target="_top" xlink:title="Extension setup functions. ">
<polygon fill="white" stroke="black" points="261.5,-0.5 261.5,-19.5 350.5,-19.5 350.5,-0.5 261.5,-0.5"/>
<text text-anchor="middle" x="306" y="-7.5" font-family="Helvetica,sans-Serif" font-size="10.00">Extension Setup</text>
</a>
</g>
</g>
<!-- Node0&#45;&gt;Node7 -->
<g id="edge7" class="edge"><title>Node0&#45;&gt;Node7</title>
<path fill="none" stroke="blueviolet" stroke-dasharray="5,2" d="M163.719,-380.258C167.392,-332.194 185.109,-120.34 216,-63 227.685,-41.3098 252.353,-27.6561 272.76,-19.6493"/>
<text text-anchor="middle" x="225.5" y="-66" font-family="Helvetica,sans-Serif" font-size="10.00">erpc</text>
</g>
</g>
</svg>
