<?xml version="1.0" encoding="UTF-8" standalone="no"?>
<!DOCTYPE svg PUBLIC "-//W3C//DTD SVG 1.1//EN"
 "http://www.w3.org/Graphics/SVG/1.1/DTD/svg11.dtd">
<!-- Generated by graphviz version 2.38.0 (20140413.2041)
 -->
<!-- Title: Messaging Unit Pages: 1 -->
<svg width="383pt" height="902pt"
 viewBox="0.00 0.00 383.00 902.00" xmlns="http://www.w3.org/2000/svg" xmlns:xlink="http://www.w3.org/1999/xlink">
<g id="graph0" class="graph" transform="scale(1 1) rotate(0) translate(4 898)">
<title>Messaging Unit</title>
<polygon fill="white" stroke="none" points="-4,4 -4,-898 379,-898 379,4 -4,4"/>
<!-- Node1 -->
<g id="node1" class="node"><title>Node1</title>
<g id="a_node1"><a xlink:href="group__transports.html" target="_top" xlink:title="Transport layer classes. ">
<polygon fill="white" stroke="black" points="0,-437.5 0,-456.5 89,-456.5 89,-437.5 0,-437.5"/>
<text text-anchor="middle" x="44.5" y="-444.5" font-family="Helvetica,sans-Serif" font-size="10.00">Transport Layers</text>
</a>
</g>
</g>
<!-- Node0 -->
<g id="node6" class="node"><title>Node0</title>
<polygon fill="#bfbfbf" stroke="black" points="126,-437.5 126,-456.5 210,-456.5 210,-437.5 126,-437.5"/>
<text text-anchor="middle" x="168" y="-444.5" font-family="Helvetica,sans-Serif" font-size="10.00">Messaging Unit</text>
</g>
<!-- Node1&#45;&gt;Node0 -->
<g id="edge1" class="edge"><title>Node1&#45;&gt;Node0</title>
<path fill="none" stroke="black" d="M99.028,-447C108.009,-447 117.204,-447 125.813,-447"/>
<polygon fill="black" stroke="black" points="99.0211,-443.5 89.0211,-447 99.0211,-450.5 99.0211,-443.5"/>
</g>
<!-- Node10 -->
<g id="node2" class="node"><title>Node10</title>
<g id="a_node2"><a xlink:href="group__dspi__slave__transport.html" target="_top" xlink:title="MCUXpressoSDK DSPI slave driver transport. ">
<polygon fill="white" stroke="black" points="287.5,-874.5 287.5,-893.5 352.5,-893.5 352.5,-874.5 287.5,-874.5"/>
<text text-anchor="middle" x="320" y="-881.5" font-family="Helvetica,sans-Serif" font-size="10.00">DSPI Slave</text>
</a>
</g>
</g>
<!-- Node11 -->
<g id="node3" class="node"><title>Node11</title>
<g id="a_node3"><a xlink:href="group__i2c__slave__transport.html" target="_top" xlink:title="MCUXpressoSDK I2C slave driver transport. ">
<polygon fill="white" stroke="black" points="291.5,-836.5 291.5,-855.5 348.5,-855.5 348.5,-836.5 291.5,-836.5"/>
<text text-anchor="middle" x="320" y="-843.5" font-family="Helvetica,sans-Serif" font-size="10.00">I2C Slave</text>
</a>
</g>
</g>
<!-- Node8 -->
<g id="node4" class="node"><title>Node8</title>
<g id="a_node4"><a xlink:href="group__port__threads.html" target="_top" xlink:title="Threading model. ">
<polygon fill="white" stroke="black" points="294.5,-798.5 294.5,-817.5 345.5,-817.5 345.5,-798.5 294.5,-798.5"/>
<text text-anchor="middle" x="320" y="-805.5" font-family="Helvetica,sans-Serif" font-size="10.00">Threads</text>
</a>
</g>
</g>
<!-- Node15 -->
<g id="node5" class="node"><title>Node15</title>
<g id="a_node5"><a xlink:href="group__mbox__transport.html" target="_top" xlink:title="Mbox_transport">
<polygon fill="white" stroke="black" points="278,-760.5 278,-779.5 362,-779.5 362,-760.5 278,-760.5"/>
<text text-anchor="middle" x="320" y="-767.5" font-family="Helvetica,sans-Serif" font-size="10.00">Mbox_transport</text>
</a>
</g>
</g>
<!-- Node0&#45;&gt;Node10 -->
<g id="edge10" class="edge"><title>Node0&#45;&gt;Node10</title>
<path fill="none" stroke="blueviolet" stroke-dasharray="5,2" d="M169.655,-456.573C173.36,-508.924 192.78,-760.711 228,-829 238.517,-849.392 245.5,-852.91 265,-865 271.842,-869.242 279.76,-872.702 287.389,-875.45"/>
<text text-anchor="middle" x="237.5" y="-855" font-family="Helvetica,sans-Serif" font-size="10.00">erpc</text>
</g>
<!-- Node0&#45;&gt;Node11 -->
<g id="edge11" class="edge"><title>Node0&#45;&gt;Node11</title>
<path fill="none" stroke="blueviolet" stroke-dasharray="5,2" d="M168.551,-456.714C167.005,-499.143 165.066,-671.425 228,-791 238.686,-811.303 245.5,-814.91 265,-827 273.024,-831.975 282.529,-835.874 291.311,-838.811"/>
<text text-anchor="middle" x="237.5" y="-817" font-family="Helvetica,sans-Serif" font-size="10.00">erpc</text>
</g>
<!-- Node0&#45;&gt;Node8 -->
<g id="edge8" class="edge"><title>Node0&#45;&gt;Node8</title>
<path fill="none" stroke="blueviolet" stroke-dasharray="5,2" d="M168.823,-456.694C168.505,-496.179 171.224,-647.771 228,-753 238.895,-773.192 245.5,-776.91 265,-789 273.953,-794.551 284.75,-798.763 294.329,-801.793"/>
<text text-anchor="middle" x="237.5" y="-779" font-family="Helvetica,sans-Serif" font-size="10.00">erpc</text>
</g>
<!-- Node0&#45;&gt;Node15 -->
<g id="edge15" class="edge"><title>Node0&#45;&gt;Node15</title>
<path fill="none" stroke="blueviolet" stroke-dasharray="5,2" d="M169.175,-456.963C170.22,-493.716 177.489,-624.251 228,-715 239.158,-735.048 245.5,-738.91 265,-751 270.997,-754.718 277.821,-757.836 284.553,-760.399"/>
<text text-anchor="middle" x="237.5" y="-741" font-family="Helvetica,sans-Serif" font-size="10.00">erpc</text>
</g>
<!-- Node23 -->
<g id="node7" class="node"><title>Node23</title>
<g id="a_node7"><a xlink:href="group__tcp__transport.html" target="_top" xlink:title="Simple TCP/IP transport. ">
<polygon fill="white" stroke="black" points="296.5,-722.5 296.5,-741.5 343.5,-741.5 343.5,-722.5 296.5,-722.5"/>
<text text-anchor="middle" x="320" y="-729.5" font-family="Helvetica,sans-Serif" font-size="10.00">TCP/IP</text>
</a>
</g>
</g>
<!-- Node0&#45;&gt;Node23 -->
<g id="edge23" class="edge"><title>Node0&#45;&gt;Node23</title>
<path fill="none" stroke="blueviolet" stroke-dasharray="5,2" d="M169.636,-456.908C172.153,-490.208 183.57,-600.311 228,-677 239.502,-696.853 245.5,-700.91 265,-713 274.629,-718.97 286.391,-723.391 296.476,-726.458"/>
<text text-anchor="middle" x="237.5" y="-703" font-family="Helvetica,sans-Serif" font-size="10.00">erpc</text>
</g>
<!-- Node2 -->
<g id="node8" class="node"><title>Node2</title>
<g id="a_node8"><a xlink:href="group__infra__client.html" target="_top" xlink:title="Client classes. ">
<polygon fill="white" stroke="black" points="299.5,-684.5 299.5,-703.5 340.5,-703.5 340.5,-684.5 299.5,-684.5"/>
<text text-anchor="middle" x="320" y="-691.5" font-family="Helvetica,sans-Serif" font-size="10.00">Client</text>
</a>
</g>
</g>
<!-- Node0&#45;&gt;Node2 -->
<g id="edge2" class="edge"><title>Node0&#45;&gt;Node2</title>
<path fill="none" stroke="blueviolet" stroke-dasharray="5,2" d="M170.324,-456.817C174.628,-486.199 190.193,-575.285 228,-638 240.007,-657.917 245.319,-662.61 265,-675 275.513,-681.618 288.634,-686.304 299.31,-689.365"/>
<text text-anchor="middle" x="237.5" y="-665" font-family="Helvetica,sans-Serif" font-size="10.00">erpc</text>
</g>
<!-- Node4 -->
<g id="node9" class="node"><title>Node4</title>
<g id="a_node9"><a xlink:href="group__infra__transport.html" target="_top" xlink:title="Superclasses for building transports. ">
<polygon fill="white" stroke="black" points="289,-646.5 289,-665.5 351,-665.5 351,-646.5 289,-646.5"/>
<text text-anchor="middle" x="320" y="-653.5" font-family="Helvetica,sans-Serif" font-size="10.00">Transports</text>
</a>
</g>
</g>
<!-- Node0&#45;&gt;Node4 -->
<g id="edge4" class="edge"><title>Node0&#45;&gt;Node4</title>
<path fill="none" stroke="blueviolet" stroke-dasharray="5,2" d="M171.265,-456.516C177.482,-481.414 196.476,-549.943 228,-599 240.743,-618.831 245.136,-624.309 265,-637 272.286,-641.655 280.857,-645.341 288.997,-648.178"/>
<text text-anchor="middle" x="237.5" y="-626" font-family="Helvetica,sans-Serif" font-size="10.00">erpc</text>
</g>
<!-- Node19 -->
<g id="node10" class="node"><title>Node19</title>
<g id="a_node10"><a xlink:href="group__serial__transport.html" target="_top" xlink:title="POSIX and Win32 serial port transport. ">
<polygon fill="white" stroke="black" points="289.5,-608.5 289.5,-627.5 350.5,-627.5 350.5,-608.5 289.5,-608.5"/>
<text text-anchor="middle" x="320" y="-615.5" font-family="Helvetica,sans-Serif" font-size="10.00">Serial port</text>
</a>
</g>
</g>
<!-- Node0&#45;&gt;Node19 -->
<g id="edge19" class="edge"><title>Node0&#45;&gt;Node19</title>
<path fill="none" stroke="blueviolet" stroke-dasharray="5,2" d="M171.835,-456.541C180.551,-484.036 209.766,-563.712 265,-599 272.37,-603.709 281.054,-607.425 289.278,-610.275"/>
<text text-anchor="middle" x="237.5" y="-587" font-family="Helvetica,sans-Serif" font-size="10.00">erpc</text>
</g>
<!-- Node5 -->
<g id="node11" class="node"><title>Node5</title>
<g id="a_node11"><a xlink:href="group__infra__utility.html" target="_top" xlink:title="Utility code used by the infrastructure. ">
<polygon fill="white" stroke="black" points="295.5,-570.5 295.5,-589.5 344.5,-589.5 344.5,-570.5 295.5,-570.5"/>
<text text-anchor="middle" x="320" y="-577.5" font-family="Helvetica,sans-Serif" font-size="10.00">Utilities</text>
</a>
</g>
</g>
<!-- Node0&#45;&gt;Node5 -->
<g id="edge5" class="edge"><title>Node0&#45;&gt;Node5</title>
<path fill="none" stroke="blueviolet" stroke-dasharray="5,2" d="M174.269,-456.73C186.826,-478.947 220.799,-533.594 265,-561 274.291,-566.761 285.568,-571.079 295.408,-574.13"/>
<text text-anchor="middle" x="237.5" y="-549" font-family="Helvetica,sans-Serif" font-size="10.00">erpc</text>
</g>
<!-- Node21 -->
<g id="node12" class="node"><title>Node21</title>
<g id="a_node12"><a xlink:href="group__spi__slave__transport.html" target="_top" xlink:title="MCUXpressoSDK SPI slave driver transport. ">
<polygon fill="white" stroke="black" points="290.5,-532.5 290.5,-551.5 349.5,-551.5 349.5,-532.5 290.5,-532.5"/>
<text text-anchor="middle" x="320" y="-539.5" font-family="Helvetica,sans-Serif" font-size="10.00">SPI Slave</text>
</a>
</g>
</g>
<!-- Node0&#45;&gt;Node21 -->
<g id="edge21" class="edge"><title>Node0&#45;&gt;Node21</title>
<path fill="none" stroke="blueviolet" stroke-dasharray="5,2" d="M178.842,-456.657C195.388,-472.438 230.377,-503.906 265,-523 272.919,-527.367 282.032,-531.031 290.489,-533.939"/>
<text text-anchor="middle" x="237.5" y="-513" font-family="Helvetica,sans-Serif" font-size="10.00">erpc</text>
</g>
<!-- Node24 -->
<g id="node13" class="node"><title>Node24</title>
<g id="a_node13"><a xlink:href="group__uart__transport.html" target="_top" xlink:title="CMSIS UART driver transport. ">
<polygon fill="white" stroke="black" points="282,-494.5 282,-513.5 358,-513.5 358,-494.5 282,-494.5"/>
<text text-anchor="middle" x="320" y="-501.5" font-family="Helvetica,sans-Serif" font-size="10.00">CMSIS UART</text>
</a>
</g>
</g>
<!-- Node0&#45;&gt;Node24 -->
<g id="edge24" class="edge"><title>Node0&#45;&gt;Node24</title>
<path fill="none" stroke="blueviolet" stroke-dasharray="5,2" d="M192.206,-456.593C203.054,-461.039 216.162,-466.354 228,-471 244.367,-477.424 248.484,-478.971 265,-485 273.589,-488.135 282.979,-491.471 291.484,-494.458"/>
<text text-anchor="middle" x="237.5" y="-481" font-family="Helvetica,sans-Serif" font-size="10.00">erpc</text>
</g>
<!-- Node22 -->
<g id="node14" class="node"><title>Node22</title>
<g id="a_node14"><a xlink:href="group__spidev__master__transport.html" target="_top" xlink:title="SPIdev Linux transport. ">
<polygon fill="white" stroke="black" points="267,-456.5 267,-475.5 373,-475.5 373,-456.5 267,-456.5"/>
<text text-anchor="middle" x="320" y="-463.5" font-family="Helvetica,sans-Serif" font-size="10.00">SPIdev Linux Master</text>
</a>
</g>
</g>
<!-- Node0&#45;&gt;Node22 -->
<g id="edge22" class="edge"><title>Node0&#45;&gt;Node22</title>
<path fill="none" stroke="blueviolet" stroke-dasharray="5,2" d="M210.385,-452.242C227.815,-454.45 248.3,-457.045 266.754,-459.382"/>
<text text-anchor="middle" x="237.5" y="-459" font-family="Helvetica,sans-Serif" font-size="10.00">erpc</text>
</g>
<!-- Node20 -->
<g id="node15" class="node"><title>Node20</title>
<g id="a_node15"><a xlink:href="group__spi__master__transport.html" target="_top" xlink:title="MCUXpressoSDK SPI master driver transport. ">
<polygon fill="white" stroke="black" points="287.5,-418.5 287.5,-437.5 352.5,-437.5 352.5,-418.5 287.5,-418.5"/>
<text text-anchor="middle" x="320" y="-425.5" font-family="Helvetica,sans-Serif" font-size="10.00">SPI Master</text>
</a>
</g>
</g>
<!-- Node0&#45;&gt;Node20 -->
<g id="edge20" class="edge"><title>Node0&#45;&gt;Node20</title>
<path fill="none" stroke="blueviolet" stroke-dasharray="5,2" d="M204.684,-437.456C212.329,-435.714 220.394,-434.102 228,-433 247.574,-430.163 269.728,-428.904 287.277,-428.359"/>
<text text-anchor="middle" x="237.5" y="-436" font-family="Helvetica,sans-Serif" font-size="10.00">erpc</text>
</g>
<!-- Node18 -->
<g id="node16" class="node"><title>Node18</title>
<g id="a_node16"><a xlink:href="group__rpmsg__tty__rtos__transport.html" target="_top" xlink:title="RPMsg TTY RTOS transport. ">
<polygon fill="white" stroke="black" points="271,-380.5 271,-399.5 369,-399.5 369,-380.5 271,-380.5"/>
<text text-anchor="middle" x="320" y="-387.5" font-family="Helvetica,sans-Serif" font-size="10.00">RPMsg TTY RTOS</text>
</a>
</g>
</g>
<!-- Node0&#45;&gt;Node18 -->
<g id="edge18" class="edge"><title>Node0&#45;&gt;Node18</title>
<path fill="none" stroke="blueviolet" stroke-dasharray="5,2" d="M184.547,-437.289C196.175,-430.347 212.649,-421.177 228,-415 243.352,-408.823 260.755,-403.629 276.201,-399.603"/>
<text text-anchor="middle" x="237.5" y="-418" font-family="Helvetica,sans-Serif" font-size="10.00">erpc</text>
</g>
<!-- Node6 -->
<g id="node17" class="node"><title>Node6</title>
<g id="a_node17"><a xlink:href="group__infra__server.html" target="_top" xlink:title="Server classes. ">
<polygon fill="white" stroke="black" points="298,-342.5 298,-361.5 342,-361.5 342,-342.5 298,-342.5"/>
<text text-anchor="middle" x="320" y="-349.5" font-family="Helvetica,sans-Serif" font-size="10.00">Server</text>
</a>
</g>
</g>
<!-- Node0&#45;&gt;Node6 -->
<g id="edge6" class="edge"><title>Node0&#45;&gt;Node6</title>
<path fill="none" stroke="blueviolet" stroke-dasharray="5,2" d="M178.483,-437.175C189.715,-425.818 209.272,-406.909 228,-393 243.359,-381.593 247.669,-379.104 265,-371 275.533,-366.075 287.718,-361.683 297.844,-358.366"/>
<text text-anchor="middle" x="237.5" y="-396" font-family="Helvetica,sans-Serif" font-size="10.00">erpc</text>
</g>
<!-- Node13 -->
<g id="node18" class="node"><title>Node13</title>
<g id="a_node18"><a xlink:href="group__lpi2c__slave__transport.html" target="_top" xlink:title="Lpi2c_slave_transport">
<polygon fill="white" stroke="black" points="265,-304.5 265,-323.5 375,-323.5 375,-304.5 265,-304.5"/>
<text text-anchor="middle" x="320" y="-311.5" font-family="Helvetica,sans-Serif" font-size="10.00">Lpi2c_slave_transport</text>
</a>
</g>
</g>
<!-- Node0&#45;&gt;Node13 -->
<g id="edge13" class="edge"><title>Node0&#45;&gt;Node13</title>
<path fill="none" stroke="blueviolet" stroke-dasharray="5,2" d="M173.978,-437.424C186.156,-415.044 219.791,-359.228 265,-333 271.361,-329.309 278.557,-326.165 285.573,-323.559"/>
<text text-anchor="middle" x="237.5" y="-363" font-family="Helvetica,sans-Serif" font-size="10.00">erpc</text>
</g>
<!-- Node12 -->
<g id="node19" class="node"><title>Node12</title>
<g id="a_node19"><a xlink:href="group__itbp__transport.html" target="_top" xlink:title="Simple inter&#45;thread communications transport. ">
<polygon fill="white" stroke="black" points="287.5,-266.5 287.5,-285.5 352.5,-285.5 352.5,-266.5 287.5,-266.5"/>
<text text-anchor="middle" x="320" y="-273.5" font-family="Helvetica,sans-Serif" font-size="10.00">Inter&#45;thread</text>
</a>
</g>
</g>
<!-- Node0&#45;&gt;Node12 -->
<g id="edge12" class="edge"><title>Node0&#45;&gt;Node12</title>
<path fill="none" stroke="blueviolet" stroke-dasharray="5,2" d="M171.789,-437.386C180.381,-409.695 209.295,-329.539 265,-295 271.842,-290.758 279.76,-287.298 287.389,-284.55"/>
<text text-anchor="middle" x="237.5" y="-329" font-family="Helvetica,sans-Serif" font-size="10.00">erpc</text>
</g>
<!-- Node9 -->
<g id="node20" class="node"><title>Node9</title>
<g id="a_node20"><a xlink:href="group__dspi__master__transport.html" target="_top" xlink:title="MCUXpressoSDK DSPI master driver transport. ">
<polygon fill="white" stroke="black" points="284,-228.5 284,-247.5 356,-247.5 356,-228.5 284,-228.5"/>
<text text-anchor="middle" x="320" y="-235.5" font-family="Helvetica,sans-Serif" font-size="10.00">DSPI Master</text>
</a>
</g>
</g>
<!-- Node0&#45;&gt;Node9 -->
<g id="edge9" class="edge"><title>Node0&#45;&gt;Node9</title>
<path fill="none" stroke="blueviolet" stroke-dasharray="5,2" d="M171.213,-437.396C177.305,-412.274 196.021,-343.16 228,-294 240.681,-274.506 245.319,-269.39 265,-257 270.971,-253.241 277.784,-250.105 284.512,-247.537"/>
<text text-anchor="middle" x="237.5" y="-297" font-family="Helvetica,sans-Serif" font-size="10.00">erpc</text>
</g>
<!-- Node25 -->
<g id="node21" class="node"><title>Node25</title>
<g id="a_node21"><a xlink:href="group___u_s_b___c_d_c__transport.html" target="_top" xlink:title="USB CDC transport. ">
<polygon fill="white" stroke="black" points="290,-190.5 290,-209.5 350,-209.5 350,-190.5 290,-190.5"/>
<text text-anchor="middle" x="320" y="-197.5" font-family="Helvetica,sans-Serif" font-size="10.00">USB CDC</text>
</a>
</g>
</g>
<!-- Node0&#45;&gt;Node25 -->
<g id="edge25" class="edge"><title>Node0&#45;&gt;Node25</title>
<path fill="none" stroke="blueviolet" stroke-dasharray="5,2" d="M170.271,-437.107C174.429,-407.504 189.628,-317.781 228,-255 239.965,-235.423 245.5,-231.09 265,-219 272.602,-214.287 281.533,-210.539 289.919,-207.661"/>
<text text-anchor="middle" x="237.5" y="-258" font-family="Helvetica,sans-Serif" font-size="10.00">erpc</text>
</g>
<!-- Node3 -->
<g id="node22" class="node"><title>Node3</title>
<g id="a_node22"><a xlink:href="group__infra__codec.html" target="_top" xlink:title="Classes used for message serialization. ">
<polygon fill="white" stroke="black" points="285,-152.5 285,-171.5 355,-171.5 355,-152.5 285,-152.5"/>
<text text-anchor="middle" x="320" y="-159.5" font-family="Helvetica,sans-Serif" font-size="10.00">Serialization</text>
</a>
</g>
</g>
<!-- Node0&#45;&gt;Node3 -->
<g id="edge3" class="edge"><title>Node0&#45;&gt;Node3</title>
<path fill="none" stroke="blueviolet" stroke-dasharray="5,2" d="M169.552,-437.488C171.834,-404.536 182.678,-293.067 228,-216 239.475,-196.488 245.678,-192.793 265,-181 271.108,-177.272 278.052,-174.138 284.878,-171.559"/>
<text text-anchor="middle" x="237.5" y="-219" font-family="Helvetica,sans-Serif" font-size="10.00">erpc</text>
</g>
<!-- Node16 -->
<g id="node23" class="node"><title>Node16</title>
<g id="a_node23"><a xlink:href="group__rpmsg__lite__rtos__transport.html" target="_top" xlink:title="RPMsg&#45;Lite zero copy transport using RTOS API. ">
<polygon fill="white" stroke="black" points="271.5,-114.5 271.5,-133.5 368.5,-133.5 368.5,-114.5 271.5,-114.5"/>
<text text-anchor="middle" x="320" y="-121.5" font-family="Helvetica,sans-Serif" font-size="10.00">RPMsg&#45;Lite RTOS</text>
</a>
</g>
</g>
<!-- Node0&#45;&gt;Node16 -->
<g id="edge16" class="edge"><title>Node0&#45;&gt;Node16</title>
<path fill="none" stroke="blueviolet" stroke-dasharray="5,2" d="M169.061,-437.42C169.693,-400.932 175.663,-268.117 228,-177 239.124,-157.634 245.853,-154.497 265,-143 271.22,-139.265 278.283,-136.116 285.204,-133.521"/>
<text text-anchor="middle" x="237.5" y="-180" font-family="Helvetica,sans-Serif" font-size="10.00">erpc</text>
</g>
<!-- Node17 -->
<g id="node24" class="node"><title>Node17</title>
<g id="a_node24"><a xlink:href="group__rpmsg__lite__transport.html" target="_top" xlink:title="RPMsg&#45;Lite zero copy transport. ">
<polygon fill="white" stroke="black" points="286,-76.5 286,-95.5 354,-95.5 354,-76.5 286,-76.5"/>
<text text-anchor="middle" x="320" y="-83.5" font-family="Helvetica,sans-Serif" font-size="10.00">RPMsg&#45;Lite</text>
</a>
</g>
</g>
<!-- Node0&#45;&gt;Node17 -->
<g id="edge17" class="edge"><title>Node0&#45;&gt;Node17</title>
<path fill="none" stroke="blueviolet" stroke-dasharray="5,2" d="M168.727,-437.466C168.007,-397.97 169.292,-244.34 228,-139 238.872,-119.492 245.853,-116.497 265,-105 271.39,-101.163 278.671,-97.9434 285.772,-95.3089"/>
<text text-anchor="middle" x="237.5" y="-142" font-family="Helvetica,sans-Serif" font-size="10.00">erpc</text>
</g>
<!-- Node7 -->
<g id="node25" class="node"><title>Node7</title>
<g id="a_node25"><a xlink:href="group__port__setup__extensions.html" target="_top" xlink:title="Extension setup functions. ">
<polygon fill="white" stroke="black" points="275.5,-38.5 275.5,-57.5 364.5,-57.5 364.5,-38.5 275.5,-38.5"/>
<text text-anchor="middle" x="320" y="-45.5" font-family="Helvetica,sans-Serif" font-size="10.00">Extension Setup</text>
</a>
</g>
</g>
<!-- Node0&#45;&gt;Node7 -->
<g id="edge7" class="edge"><title>Node0&#45;&gt;Node7</title>
<path fill="none" stroke="blueviolet" stroke-dasharray="5,2" d="M169.799,-437.354C174.03,-387.806 194.874,-161.888 228,-101 238.673,-81.3823 245.853,-78.4965 265,-67 271.22,-63.2653 278.283,-60.1156 285.204,-57.5209"/>
<text text-anchor="middle" x="237.5" y="-104" font-family="Helvetica,sans-Serif" font-size="10.00">erpc</text>
</g>
<!-- Node14 -->
<g id="node26" class="node"><title>Node14</title>
<g id="a_node26"><a xlink:href="group__lpspi__slave__transport.html" target="_top" xlink:title="Lpspi_slave_transport">
<polygon fill="white" stroke="black" points="265,-0.5 265,-19.5 375,-19.5 375,-0.5 265,-0.5"/>
<text text-anchor="middle" x="320" y="-7.5" font-family="Helvetica,sans-Serif" font-size="10.00">Lpspi_slave_transport</text>
</a>
</g>
</g>
<!-- Node0&#45;&gt;Node14 -->
<g id="edge14" class="edge"><title>Node0&#45;&gt;Node14</title>
<path fill="none" stroke="blueviolet" stroke-dasharray="5,2" d="M169.617,-437.36C173.122,-384.645 191.651,-131.14 228,-63 239.703,-41.0616 264.654,-27.4747 285.474,-19.5575"/>
<text text-anchor="middle" x="237.5" y="-66" font-family="Helvetica,sans-Serif" font-size="10.00">erpc</text>
</g>
</g>
</svg>
