<?xml version="1.0" encoding="UTF-8" standalone="no"?>
<!DOCTYPE svg PUBLIC "-//W3C//DTD SVG 1.1//EN"
 "http://www.w3.org/Graphics/SVG/1.1/DTD/svg11.dtd">
<!-- Generated by graphviz version 2.38.0 (20140413.2041)
 -->
<!-- Title: SPI Slave Pages: 1 -->
<svg width="377pt" height="636pt"
 viewBox="0.00 0.00 377.00 636.00" xmlns="http://www.w3.org/2000/svg" xmlns:xlink="http://www.w3.org/1999/xlink">
<g id="graph0" class="graph" transform="scale(1 1) rotate(0) translate(4 632)">
<title>SPI Slave</title>
<polygon fill="white" stroke="none" points="-4,4 -4,-632 373,-632 373,4 -4,4"/>
<!-- Node1 -->
<g id="node1" class="node"><title>Node1</title>
<g id="a_node1"><a xlink:href="group__transports.html" target="_top" xlink:title="Transport layer classes. ">
<polygon fill="white" stroke="black" points="0,-304.5 0,-323.5 89,-323.5 89,-304.5 0,-304.5"/>
<text text-anchor="middle" x="44.5" y="-311.5" font-family="Helvetica,sans-Serif" font-size="10.00">Transport Layers</text>
</a>
</g>
</g>
<!-- Node0 -->
<g id="node10" class="node"><title>Node0</title>
<polygon fill="#bfbfbf" stroke="black" points="126,-304.5 126,-323.5 185,-323.5 185,-304.5 126,-304.5"/>
<text text-anchor="middle" x="155.5" y="-311.5" font-family="Helvetica,sans-Serif" font-size="10.00">SPI Slave</text>
</g>
<!-- Node1&#45;&gt;Node0 -->
<g id="edge1" class="edge"><title>Node1&#45;&gt;Node0</title>
<path fill="none" stroke="black" d="M99.4298,-314C108.541,-314 117.673,-314 125.808,-314"/>
<polygon fill="black" stroke="black" points="99.2065,-310.5 89.2064,-314 99.2064,-317.5 99.2065,-310.5"/>
</g>
<!-- Node9 -->
<g id="node2" class="node"><title>Node9</title>
<g id="a_node2"><a xlink:href="group__dspi__slave__transport.html" target="_top" xlink:title="Kinetis SDK DSPI slave driver transport. ">
<polygon fill="white" stroke="black" points="272,-608.5 272,-627.5 337,-627.5 337,-608.5 272,-608.5"/>
<text text-anchor="middle" x="304.5" y="-615.5" font-family="Helvetica,sans-Serif" font-size="10.00">DSPI Slave</text>
</a>
</g>
</g>
<!-- Node7 -->
<g id="node3" class="node"><title>Node7</title>
<g id="a_node3"><a xlink:href="group__port__threads.html" target="_top" xlink:title="Threading model. ">
<polygon fill="white" stroke="black" points="279,-570.5 279,-589.5 330,-589.5 330,-570.5 279,-570.5"/>
<text text-anchor="middle" x="304.5" y="-577.5" font-family="Helvetica,sans-Serif" font-size="10.00">Threads</text>
</a>
</g>
</g>
<!-- Node11 -->
<g id="node4" class="node"><title>Node11</title>
<g id="a_node4"><a xlink:href="group__mu__transport.html" target="_top" xlink:title="Messaging Unit transport. ">
<polygon fill="white" stroke="black" points="262.5,-532.5 262.5,-551.5 346.5,-551.5 346.5,-532.5 262.5,-532.5"/>
<text text-anchor="middle" x="304.5" y="-539.5" font-family="Helvetica,sans-Serif" font-size="10.00">Messaging Unit</text>
</a>
</g>
</g>
<!-- Node17 -->
<g id="node5" class="node"><title>Node17</title>
<g id="a_node5"><a xlink:href="group__tcp__transport.html" target="_top" xlink:title="Simple TCP/IP transport. ">
<polygon fill="white" stroke="black" points="281,-494.5 281,-513.5 328,-513.5 328,-494.5 281,-494.5"/>
<text text-anchor="middle" x="304.5" y="-501.5" font-family="Helvetica,sans-Serif" font-size="10.00">TCP/IP</text>
</a>
</g>
</g>
<!-- Node2 -->
<g id="node6" class="node"><title>Node2</title>
<g id="a_node6"><a xlink:href="group__infra__client.html" target="_top" xlink:title="Client classes. ">
<polygon fill="white" stroke="black" points="284,-456.5 284,-475.5 325,-475.5 325,-456.5 284,-456.5"/>
<text text-anchor="middle" x="304.5" y="-463.5" font-family="Helvetica,sans-Serif" font-size="10.00">Client</text>
</a>
</g>
</g>
<!-- Node4 -->
<g id="node7" class="node"><title>Node4</title>
<g id="a_node7"><a xlink:href="group__infra__transport.html" target="_top" xlink:title="Superclasses for building transports. ">
<polygon fill="white" stroke="black" points="273.5,-418.5 273.5,-437.5 335.5,-437.5 335.5,-418.5 273.5,-418.5"/>
<text text-anchor="middle" x="304.5" y="-425.5" font-family="Helvetica,sans-Serif" font-size="10.00">Transports</text>
</a>
</g>
</g>
<!-- Node15 -->
<g id="node8" class="node"><title>Node15</title>
<g id="a_node8"><a xlink:href="group__serial__transport.html" target="_top" xlink:title="POSIX and Win32 serial port transport. ">
<polygon fill="white" stroke="black" points="274,-380.5 274,-399.5 335,-399.5 335,-380.5 274,-380.5"/>
<text text-anchor="middle" x="304.5" y="-387.5" font-family="Helvetica,sans-Serif" font-size="10.00">Serial port</text>
</a>
</g>
</g>
<!-- Node5 -->
<g id="node9" class="node"><title>Node5</title>
<g id="a_node9"><a xlink:href="group__infra__utility.html" target="_top" xlink:title="Utility code used by the infrastructure. ">
<polygon fill="white" stroke="black" points="280,-342.5 280,-361.5 329,-361.5 329,-342.5 280,-342.5"/>
<text text-anchor="middle" x="304.5" y="-349.5" font-family="Helvetica,sans-Serif" font-size="10.00">Utilities</text>
</a>
</g>
</g>
<!-- Node0&#45;&gt;Node9 -->
<g id="edge9" class="edge"><title>Node0&#45;&gt;Node9</title>
<path fill="none" stroke="blueviolet" stroke-dasharray="5,2" d="M156.22,-323.78C155.632,-358.734 157.195,-479.861 203,-564 213.823,-583.881 220.403,-587.671 240,-599 249.763,-604.644 261.357,-608.751 271.949,-611.671"/>
<text text-anchor="middle" x="212.5" y="-590" font-family="Helvetica,sans-Serif" font-size="10.00">erpc</text>
</g>
<!-- Node0&#45;&gt;Node7 -->
<g id="edge7" class="edge"><title>Node0&#45;&gt;Node7</title>
<path fill="none" stroke="blueviolet" stroke-dasharray="5,2" d="M156.691,-323.511C157.694,-354.542 163.952,-454.864 203,-525 214.161,-545.046 220.218,-549.377 240,-561 251.906,-567.995 266.602,-572.607 278.858,-575.533"/>
<text text-anchor="middle" x="212.5" y="-552" font-family="Helvetica,sans-Serif" font-size="10.00">erpc</text>
</g>
<!-- Node0&#45;&gt;Node11 -->
<g id="edge11" class="edge"><title>Node0&#45;&gt;Node11</title>
<path fill="none" stroke="blueviolet" stroke-dasharray="5,2" d="M157.352,-323.606C160.114,-350.814 170.612,-430.047 203,-486 214.651,-506.127 220.03,-511.082 240,-523 246.818,-527.069 254.574,-530.325 262.267,-532.91"/>
<text text-anchor="middle" x="212.5" y="-513" font-family="Helvetica,sans-Serif" font-size="10.00">erpc</text>
</g>
<!-- Node0&#45;&gt;Node17 -->
<g id="edge17" class="edge"><title>Node0&#45;&gt;Node17</title>
<path fill="none" stroke="blueviolet" stroke-dasharray="5,2" d="M158.416,-323.553C163.245,-346.15 177.393,-404.13 203,-446 215.466,-466.383 219.646,-472.487 240,-485 252.45,-492.654 268.175,-497.39 280.862,-500.219"/>
<text text-anchor="middle" x="212.5" y="-474" font-family="Helvetica,sans-Serif" font-size="10.00">erpc</text>
</g>
<!-- Node0&#45;&gt;Node2 -->
<g id="edge2" class="edge"><title>Node0&#45;&gt;Node2</title>
<path fill="none" stroke="blueviolet" stroke-dasharray="5,2" d="M159.18,-323.574C166.854,-348.97 191.538,-418.078 240,-447 253.537,-455.079 270.771,-459.953 283.869,-462.738"/>
<text text-anchor="middle" x="212.5" y="-434" font-family="Helvetica,sans-Serif" font-size="10.00">erpc</text>
</g>
<!-- Node0&#45;&gt;Node4 -->
<g id="edge4" class="edge"><title>Node0&#45;&gt;Node4</title>
<path fill="none" stroke="blueviolet" stroke-dasharray="5,2" d="M161.945,-323.704C173.516,-343.342 202.585,-387.729 240,-409 250.204,-414.801 262.357,-418.996 273.287,-421.943"/>
<text text-anchor="middle" x="212.5" y="-398" font-family="Helvetica,sans-Serif" font-size="10.00">erpc</text>
</g>
<!-- Node0&#45;&gt;Node15 -->
<g id="edge15" class="edge"><title>Node0&#45;&gt;Node15</title>
<path fill="none" stroke="blueviolet" stroke-dasharray="5,2" d="M169.342,-323.791C178.576,-330.733 191.395,-340.167 203,-348 219.049,-358.833 222.347,-363.044 240,-371 250.701,-375.823 262.955,-379.819 273.826,-382.881"/>
<text text-anchor="middle" x="212.5" y="-363" font-family="Helvetica,sans-Serif" font-size="10.00">erpc</text>
</g>
<!-- Node0&#45;&gt;Node5 -->
<g id="edge5" class="edge"><title>Node0&#45;&gt;Node5</title>
<path fill="none" stroke="blueviolet" stroke-dasharray="5,2" d="M184.908,-323.597C190.857,-325.484 197.111,-327.38 203,-329 229.059,-336.17 259.342,-342.884 279.8,-347.185"/>
<text text-anchor="middle" x="212.5" y="-336" font-family="Helvetica,sans-Serif" font-size="10.00">erpc</text>
</g>
<!-- Node18 -->
<g id="node11" class="node"><title>Node18</title>
<g id="a_node11"><a xlink:href="group__uart__transport.html" target="_top" xlink:title="CMSIS UART driver transport. ">
<polygon fill="white" stroke="black" points="266.5,-304.5 266.5,-323.5 342.5,-323.5 342.5,-304.5 266.5,-304.5"/>
<text text-anchor="middle" x="304.5" y="-311.5" font-family="Helvetica,sans-Serif" font-size="10.00">CMSIS UART</text>
</a>
</g>
</g>
<!-- Node0&#45;&gt;Node18 -->
<g id="edge18" class="edge"><title>Node0&#45;&gt;Node18</title>
<path fill="none" stroke="blueviolet" stroke-dasharray="5,2" d="M185.192,-314C208.337,-314 241.066,-314 266.236,-314"/>
<text text-anchor="middle" x="212.5" y="-317" font-family="Helvetica,sans-Serif" font-size="10.00">erpc</text>
</g>
<!-- Node16 -->
<g id="node12" class="node"><title>Node16</title>
<g id="a_node12"><a xlink:href="group__spi__master__transport.html" target="_top" xlink:title="Kinetis SDK SPI master driver transport. ">
<polygon fill="white" stroke="black" points="272,-266.5 272,-285.5 337,-285.5 337,-266.5 272,-266.5"/>
<text text-anchor="middle" x="304.5" y="-273.5" font-family="Helvetica,sans-Serif" font-size="10.00">SPI Master</text>
</a>
</g>
</g>
<!-- Node0&#45;&gt;Node16 -->
<g id="edge16" class="edge"><title>Node0&#45;&gt;Node16</title>
<path fill="none" stroke="blueviolet" stroke-dasharray="5,2" d="M184.908,-304.403C190.857,-302.516 197.111,-300.62 203,-299 225.78,-292.732 251.788,-286.813 271.639,-282.549"/>
<text text-anchor="middle" x="212.5" y="-302" font-family="Helvetica,sans-Serif" font-size="10.00">erpc</text>
</g>
<!-- Node6 -->
<g id="node13" class="node"><title>Node6</title>
<g id="a_node13"><a xlink:href="group__infra__server.html" target="_top" xlink:title="Server classes. ">
<polygon fill="white" stroke="black" points="282.5,-228.5 282.5,-247.5 326.5,-247.5 326.5,-228.5 282.5,-228.5"/>
<text text-anchor="middle" x="304.5" y="-235.5" font-family="Helvetica,sans-Serif" font-size="10.00">Server</text>
</a>
</g>
</g>
<!-- Node0&#45;&gt;Node6 -->
<g id="edge6" class="edge"><title>Node0&#45;&gt;Node6</title>
<path fill="none" stroke="blueviolet" stroke-dasharray="5,2" d="M168.475,-304.418C177.714,-297.166 190.916,-287.105 203,-279 218.889,-268.343 222.481,-264.689 240,-257 253.698,-250.988 269.859,-246.182 282.449,-242.908"/>
<text text-anchor="middle" x="212.5" y="-282" font-family="Helvetica,sans-Serif" font-size="10.00">erpc</text>
</g>
<!-- Node10 -->
<g id="node14" class="node"><title>Node10</title>
<g id="a_node14"><a xlink:href="group__itbp__transport.html" target="_top" xlink:title="Simple inter&#45;thread communications transport. ">
<polygon fill="white" stroke="black" points="272,-190.5 272,-209.5 337,-209.5 337,-190.5 272,-190.5"/>
<text text-anchor="middle" x="304.5" y="-197.5" font-family="Helvetica,sans-Serif" font-size="10.00">Inter&#45;thread</text>
</a>
</g>
</g>
<!-- Node0&#45;&gt;Node10 -->
<g id="edge10" class="edge"><title>Node0&#45;&gt;Node10</title>
<path fill="none" stroke="blueviolet" stroke-dasharray="5,2" d="M161.893,-304.203C173.368,-284.393 202.269,-239.705 240,-219 249.785,-213.63 261.272,-209.602 271.766,-206.669"/>
<text text-anchor="middle" x="212.5" y="-249" font-family="Helvetica,sans-Serif" font-size="10.00">erpc</text>
</g>
<!-- Node8 -->
<g id="node15" class="node"><title>Node8</title>
<g id="a_node15"><a xlink:href="group__dspi__master__transport.html" target="_top" xlink:title="Kinetis SDK DSPI master driver transport. ">
<polygon fill="white" stroke="black" points="268.5,-152.5 268.5,-171.5 340.5,-171.5 340.5,-152.5 268.5,-152.5"/>
<text text-anchor="middle" x="304.5" y="-159.5" font-family="Helvetica,sans-Serif" font-size="10.00">DSPI Master</text>
</a>
</g>
</g>
<!-- Node0&#45;&gt;Node8 -->
<g id="edge8" class="edge"><title>Node0&#45;&gt;Node8</title>
<path fill="none" stroke="blueviolet" stroke-dasharray="5,2" d="M159.158,-304.39C166.779,-278.903 191.341,-209.589 240,-181 248.632,-175.928 258.73,-172.11 268.302,-169.278"/>
<text text-anchor="middle" x="212.5" y="-214" font-family="Helvetica,sans-Serif" font-size="10.00">erpc</text>
</g>
<!-- Node14 -->
<g id="node16" class="node"><title>Node14</title>
<g id="a_node16"><a xlink:href="group__rpmsg__tty__rtos__transport.html" target="_top" xlink:title="Rpmsg_tty_rtos_transport">
<polygon fill="white" stroke="black" points="240,-114.5 240,-133.5 369,-133.5 369,-114.5 240,-114.5"/>
<text text-anchor="middle" x="304.5" y="-121.5" font-family="Helvetica,sans-Serif" font-size="10.00">Rpmsg_tty_rtos_transport</text>
</a>
</g>
</g>
<!-- Node0&#45;&gt;Node14 -->
<g id="edge14" class="edge"><title>Node0&#45;&gt;Node14</title>
<path fill="none" stroke="blueviolet" stroke-dasharray="5,2" d="M158.363,-304.352C163.078,-281.534 176.997,-223.015 203,-181 215.405,-160.956 219.839,-155.215 240,-143 246.299,-139.184 253.417,-136.088 260.551,-133.591"/>
<text text-anchor="middle" x="212.5" y="-184" font-family="Helvetica,sans-Serif" font-size="10.00">erpc</text>
</g>
<!-- Node3 -->
<g id="node17" class="node"><title>Node3</title>
<g id="a_node17"><a xlink:href="group__infra__codec.html" target="_top" xlink:title="Classes used for message serialization. ">
<polygon fill="white" stroke="black" points="269.5,-76.5 269.5,-95.5 339.5,-95.5 339.5,-76.5 269.5,-76.5"/>
<text text-anchor="middle" x="304.5" y="-83.5" font-family="Helvetica,sans-Serif" font-size="10.00">Serialization</text>
</a>
</g>
</g>
<!-- Node0&#45;&gt;Node3 -->
<g id="edge3" class="edge"><title>Node0&#45;&gt;Node3</title>
<path fill="none" stroke="blueviolet" stroke-dasharray="5,2" d="M157.245,-304.236C159.728,-276.591 169.56,-196.148 203,-140 214.583,-120.552 220.403,-116.329 240,-105 248.966,-99.8165 259.476,-95.9294 269.337,-93.0677"/>
<text text-anchor="middle" x="212.5" y="-143" font-family="Helvetica,sans-Serif" font-size="10.00">erpc</text>
</g>
<!-- Node12 -->
<g id="node18" class="node"><title>Node12</title>
<g id="a_node18"><a xlink:href="group__rpmsg__lite__rtos__transport.html" target="_top" xlink:title="RPMsg&#45;Lite zero copy transport using RTOS API. ">
<polygon fill="white" stroke="black" points="256,-38.5 256,-57.5 353,-57.5 353,-38.5 256,-38.5"/>
<text text-anchor="middle" x="304.5" y="-45.5" font-family="Helvetica,sans-Serif" font-size="10.00">RPMsg&#45;Lite RTOS</text>
</a>
</g>
</g>
<!-- Node0&#45;&gt;Node12 -->
<g id="edge12" class="edge"><title>Node0&#45;&gt;Node12</title>
<path fill="none" stroke="blueviolet" stroke-dasharray="5,2" d="M156.587,-304.353C157.271,-272.89 162.663,-171.241 203,-101 214.122,-81.6332 220.585,-78.0377 240,-67 246.702,-63.1895 254.246,-60.0722 261.732,-57.5461"/>
<text text-anchor="middle" x="212.5" y="-104" font-family="Helvetica,sans-Serif" font-size="10.00">erpc</text>
</g>
<!-- Node13 -->
<g id="node19" class="node"><title>Node13</title>
<g id="a_node19"><a xlink:href="group__rpmsg__lite__transport.html" target="_top" xlink:title="RPMsg&#45;Lite zero copy transport. ">
<polygon fill="white" stroke="black" points="270.5,-0.5 270.5,-19.5 338.5,-19.5 338.5,-0.5 270.5,-0.5"/>
<text text-anchor="middle" x="304.5" y="-7.5" font-family="Helvetica,sans-Serif" font-size="10.00">RPMsg&#45;Lite</text>
</a>
</g>
</g>
<!-- Node0&#45;&gt;Node13 -->
<g id="edge13" class="edge"><title>Node0&#45;&gt;Node13</title>
<path fill="none" stroke="blueviolet" stroke-dasharray="5,2" d="M156.167,-304.158C155.402,-268.987 156.438,-147.147 203,-63 213.813,-43.459 220.585,-40.0377 240,-29 249.303,-23.7109 260.227,-19.7571 270.367,-16.8666"/>
<text text-anchor="middle" x="212.5" y="-66" font-family="Helvetica,sans-Serif" font-size="10.00">erpc</text>
</g>
</g>
</svg>
