<?xml version="1.0" encoding="UTF-8" standalone="no"?>
<!DOCTYPE svg PUBLIC "-//W3C//DTD SVG 1.1//EN"
 "http://www.w3.org/Graphics/SVG/1.1/DTD/svg11.dtd">
<!-- Generated by graphviz version 2.38.0 (20140413.2041)
 -->
<!-- Title: TCP/IP Pages: 1 -->
<svg width="346pt" height="902pt"
 viewBox="0.00 0.00 346.00 902.00" xmlns="http://www.w3.org/2000/svg" xmlns:xlink="http://www.w3.org/1999/xlink">
<g id="graph0" class="graph" transform="scale(1 1) rotate(0) translate(4 898)">
<title>TCP/IP</title>
<polygon fill="white" stroke="none" points="-4,4 -4,-898 342,-898 342,4 -4,4"/>
<!-- Node1 -->
<g id="node1" class="node"><title>Node1</title>
<g id="a_node1"><a xlink:href="group__transports.html" target="_top" xlink:title="Transport layer classes. ">
<polygon fill="white" stroke="black" points="0,-437.5 0,-456.5 89,-456.5 89,-437.5 0,-437.5"/>
<text text-anchor="middle" x="44.5" y="-444.5" font-family="Helvetica,sans-Serif" font-size="10.00">Transport Layers</text>
</a>
</g>
</g>
<!-- Node0 -->
<g id="node7" class="node"><title>Node0</title>
<polygon fill="#bfbfbf" stroke="black" points="126,-437.5 126,-456.5 173,-456.5 173,-437.5 126,-437.5"/>
<text text-anchor="middle" x="149.5" y="-444.5" font-family="Helvetica,sans-Serif" font-size="10.00">TCP/IP</text>
</g>
<!-- Node1&#45;&gt;Node0 -->
<g id="edge1" class="edge"><title>Node1&#45;&gt;Node0</title>
<path fill="none" stroke="black" d="M99.3075,-447C108.657,-447 117.904,-447 125.815,-447"/>
<polygon fill="black" stroke="black" points="99.1813,-443.5 89.1813,-447 99.1812,-450.5 99.1813,-443.5"/>
</g>
<!-- Node10 -->
<g id="node2" class="node"><title>Node10</title>
<g id="a_node2"><a xlink:href="group__dspi__slave__transport.html" target="_top" xlink:title="MCUXpressoSDK DSPI slave driver transport. ">
<polygon fill="white" stroke="black" points="250.5,-874.5 250.5,-893.5 315.5,-893.5 315.5,-874.5 250.5,-874.5"/>
<text text-anchor="middle" x="283" y="-881.5" font-family="Helvetica,sans-Serif" font-size="10.00">DSPI Slave</text>
</a>
</g>
</g>
<!-- Node11 -->
<g id="node3" class="node"><title>Node11</title>
<g id="a_node3"><a xlink:href="group__i2c__slave__transport.html" target="_top" xlink:title="MCUXpressoSDK I2C slave driver transport. ">
<polygon fill="white" stroke="black" points="254.5,-836.5 254.5,-855.5 311.5,-855.5 311.5,-836.5 254.5,-836.5"/>
<text text-anchor="middle" x="283" y="-843.5" font-family="Helvetica,sans-Serif" font-size="10.00">I2C Slave</text>
</a>
</g>
</g>
<!-- Node8 -->
<g id="node4" class="node"><title>Node8</title>
<g id="a_node4"><a xlink:href="group__port__threads.html" target="_top" xlink:title="Threading model. ">
<polygon fill="white" stroke="black" points="257.5,-798.5 257.5,-817.5 308.5,-817.5 308.5,-798.5 257.5,-798.5"/>
<text text-anchor="middle" x="283" y="-805.5" font-family="Helvetica,sans-Serif" font-size="10.00">Threads</text>
</a>
</g>
</g>
<!-- Node15 -->
<g id="node5" class="node"><title>Node15</title>
<g id="a_node5"><a xlink:href="group__mbox__transport.html" target="_top" xlink:title="Mbox_transport">
<polygon fill="white" stroke="black" points="241,-760.5 241,-779.5 325,-779.5 325,-760.5 241,-760.5"/>
<text text-anchor="middle" x="283" y="-767.5" font-family="Helvetica,sans-Serif" font-size="10.00">Mbox_transport</text>
</a>
</g>
</g>
<!-- Node16 -->
<g id="node6" class="node"><title>Node16</title>
<g id="a_node6"><a xlink:href="group__mu__transport.html" target="_top" xlink:title="Messaging Unit transport. ">
<polygon fill="white" stroke="black" points="241,-722.5 241,-741.5 325,-741.5 325,-722.5 241,-722.5"/>
<text text-anchor="middle" x="283" y="-729.5" font-family="Helvetica,sans-Serif" font-size="10.00">Messaging Unit</text>
</a>
</g>
</g>
<!-- Node0&#45;&gt;Node10 -->
<g id="edge10" class="edge"><title>Node0&#45;&gt;Node10</title>
<path fill="none" stroke="blueviolet" stroke-dasharray="5,2" d="M150.661,-456.527C151.667,-508.632 158.17,-759.275 191,-828 201.024,-848.985 208.319,-852.61 228,-865 234.813,-869.289 242.72,-872.766 250.348,-875.515"/>
<text text-anchor="middle" x="200.5" y="-855" font-family="Helvetica,sans-Serif" font-size="10.00">erpc</text>
</g>
<!-- Node0&#45;&gt;Node11 -->
<g id="edge11" class="edge"><title>Node0&#45;&gt;Node11</title>
<path fill="none" stroke="blueviolet" stroke-dasharray="5,2" d="M150.75,-456.596C152.166,-505.888 160.238,-730.685 191,-792 203.357,-816.63 232.476,-830.936 254.471,-838.561"/>
<text text-anchor="middle" x="200.5" y="-816" font-family="Helvetica,sans-Serif" font-size="10.00">erpc</text>
</g>
<!-- Node0&#45;&gt;Node8 -->
<g id="edge8" class="edge"><title>Node0&#45;&gt;Node8</title>
<path fill="none" stroke="blueviolet" stroke-dasharray="5,2" d="M150.933,-456.696C153.115,-502.704 163.887,-699.004 191,-753 201.296,-773.504 208.5,-776.91 228,-789 236.953,-794.551 247.75,-798.763 257.329,-801.793"/>
<text text-anchor="middle" x="200.5" y="-780" font-family="Helvetica,sans-Serif" font-size="10.00">erpc</text>
</g>
<!-- Node0&#45;&gt;Node15 -->
<g id="edge15" class="edge"><title>Node0&#45;&gt;Node15</title>
<path fill="none" stroke="blueviolet" stroke-dasharray="5,2" d="M151.131,-456.6C154.03,-498.851 166.972,-668.225 191,-715 201.484,-735.409 208.5,-738.91 228,-751 233.997,-754.718 240.821,-757.836 247.553,-760.399"/>
<text text-anchor="middle" x="200.5" y="-741" font-family="Helvetica,sans-Serif" font-size="10.00">erpc</text>
</g>
<!-- Node0&#45;&gt;Node16 -->
<g id="edge16" class="edge"><title>Node0&#45;&gt;Node16</title>
<path fill="none" stroke="blueviolet" stroke-dasharray="5,2" d="M150.146,-456.88C149.374,-490.093 150.229,-599.951 191,-677 201.731,-697.28 208.5,-700.91 228,-713 233.997,-716.718 240.821,-719.836 247.553,-722.399"/>
<text text-anchor="middle" x="200.5" y="-703" font-family="Helvetica,sans-Serif" font-size="10.00">erpc</text>
</g>
<!-- Node2 -->
<g id="node8" class="node"><title>Node2</title>
<g id="a_node8"><a xlink:href="group__infra__client.html" target="_top" xlink:title="Client classes. ">
<polygon fill="white" stroke="black" points="262.5,-684.5 262.5,-703.5 303.5,-703.5 303.5,-684.5 262.5,-684.5"/>
<text text-anchor="middle" x="283" y="-691.5" font-family="Helvetica,sans-Serif" font-size="10.00">Client</text>
</a>
</g>
</g>
<!-- Node0&#45;&gt;Node2 -->
<g id="edge2" class="edge"><title>Node0&#45;&gt;Node2</title>
<path fill="none" stroke="blueviolet" stroke-dasharray="5,2" d="M150.599,-456.876C151.294,-486.433 156.318,-576.039 191,-639 202.07,-659.097 208.5,-662.91 228,-675 238.558,-681.546 251.68,-686.23 262.345,-689.309"/>
<text text-anchor="middle" x="200.5" y="-665" font-family="Helvetica,sans-Serif" font-size="10.00">erpc</text>
</g>
<!-- Node4 -->
<g id="node9" class="node"><title>Node4</title>
<g id="a_node9"><a xlink:href="group__infra__transport.html" target="_top" xlink:title="Superclasses for building transports. ">
<polygon fill="white" stroke="black" points="252,-646.5 252,-665.5 314,-665.5 314,-646.5 252,-646.5"/>
<text text-anchor="middle" x="283" y="-653.5" font-family="Helvetica,sans-Serif" font-size="10.00">Transports</text>
</a>
</g>
</g>
<!-- Node0&#45;&gt;Node4 -->
<g id="edge4" class="edge"><title>Node0&#45;&gt;Node4</title>
<path fill="none" stroke="blueviolet" stroke-dasharray="5,2" d="M151.301,-456.615C153.749,-481.764 162.773,-550.937 191,-600 202.597,-620.158 208.319,-624.61 228,-637 235.233,-641.554 243.7,-645.192 251.757,-648.016"/>
<text text-anchor="middle" x="200.5" y="-627" font-family="Helvetica,sans-Serif" font-size="10.00">erpc</text>
</g>
<!-- Node20 -->
<g id="node10" class="node"><title>Node20</title>
<g id="a_node10"><a xlink:href="group__serial__transport.html" target="_top" xlink:title="POSIX and Win32 serial port transport. ">
<polygon fill="white" stroke="black" points="252.5,-608.5 252.5,-627.5 313.5,-627.5 313.5,-608.5 252.5,-608.5"/>
<text text-anchor="middle" x="283" y="-615.5" font-family="Helvetica,sans-Serif" font-size="10.00">Serial port</text>
</a>
</g>
</g>
<!-- Node0&#45;&gt;Node20 -->
<g id="edge20" class="edge"><title>Node0&#45;&gt;Node20</title>
<path fill="none" stroke="blueviolet" stroke-dasharray="5,2" d="M152.588,-456.56C157.256,-476.637 169.823,-524.204 191,-559 203.59,-579.687 207.761,-585.701 228,-599 235.392,-603.857 244.171,-607.634 252.479,-610.494"/>
<text text-anchor="middle" x="200.5" y="-588" font-family="Helvetica,sans-Serif" font-size="10.00">erpc</text>
</g>
<!-- Node5 -->
<g id="node11" class="node"><title>Node5</title>
<g id="a_node11"><a xlink:href="group__infra__utility.html" target="_top" xlink:title="Utility code used by the infrastructure. ">
<polygon fill="white" stroke="black" points="258.5,-570.5 258.5,-589.5 307.5,-589.5 307.5,-570.5 258.5,-570.5"/>
<text text-anchor="middle" x="283" y="-577.5" font-family="Helvetica,sans-Serif" font-size="10.00">Utilities</text>
</a>
</g>
</g>
<!-- Node0&#45;&gt;Node5 -->
<g id="edge5" class="edge"><title>Node0&#45;&gt;Node5</title>
<path fill="none" stroke="blueviolet" stroke-dasharray="5,2" d="M153.929,-456.639C162.488,-479.156 187.089,-535.245 228,-561 237.252,-566.824 248.523,-571.151 258.37,-574.192"/>
<text text-anchor="middle" x="200.5" y="-547" font-family="Helvetica,sans-Serif" font-size="10.00">erpc</text>
</g>
<!-- Node22 -->
<g id="node12" class="node"><title>Node22</title>
<g id="a_node12"><a xlink:href="group__spi__slave__transport.html" target="_top" xlink:title="MCUXpressoSDK SPI slave driver transport. ">
<polygon fill="white" stroke="black" points="253.5,-532.5 253.5,-551.5 312.5,-551.5 312.5,-532.5 253.5,-532.5"/>
<text text-anchor="middle" x="283" y="-539.5" font-family="Helvetica,sans-Serif" font-size="10.00">SPI Slave</text>
</a>
</g>
</g>
<!-- Node0&#45;&gt;Node22 -->
<g id="edge22" class="edge"><title>Node0&#45;&gt;Node22</title>
<path fill="none" stroke="blueviolet" stroke-dasharray="5,2" d="M157.484,-456.526C169.85,-472.696 197.217,-505.462 228,-523 235.858,-527.477 244.953,-531.172 253.412,-534.075"/>
<text text-anchor="middle" x="200.5" y="-512" font-family="Helvetica,sans-Serif" font-size="10.00">erpc</text>
</g>
<!-- Node24 -->
<g id="node13" class="node"><title>Node24</title>
<g id="a_node13"><a xlink:href="group__uart__transport.html" target="_top" xlink:title="CMSIS UART driver transport. ">
<polygon fill="white" stroke="black" points="245,-494.5 245,-513.5 321,-513.5 321,-494.5 245,-494.5"/>
<text text-anchor="middle" x="283" y="-501.5" font-family="Helvetica,sans-Serif" font-size="10.00">CMSIS UART</text>
</a>
</g>
</g>
<!-- Node0&#45;&gt;Node24 -->
<g id="edge24" class="edge"><title>Node0&#45;&gt;Node24</title>
<path fill="none" stroke="blueviolet" stroke-dasharray="5,2" d="M166.401,-456.672C173.764,-460.983 182.703,-465.984 191,-470 210.886,-479.626 234.249,-488.304 252.323,-494.483"/>
<text text-anchor="middle" x="200.5" y="-480" font-family="Helvetica,sans-Serif" font-size="10.00">erpc</text>
</g>
<!-- Node23 -->
<g id="node14" class="node"><title>Node23</title>
<g id="a_node14"><a xlink:href="group__spidev__master__transport.html" target="_top" xlink:title="SPIdev Linux transport. ">
<polygon fill="white" stroke="black" points="230,-456.5 230,-475.5 336,-475.5 336,-456.5 230,-456.5"/>
<text text-anchor="middle" x="283" y="-463.5" font-family="Helvetica,sans-Serif" font-size="10.00">SPIdev Linux Master</text>
</a>
</g>
</g>
<!-- Node0&#45;&gt;Node23 -->
<g id="edge23" class="edge"><title>Node0&#45;&gt;Node23</title>
<path fill="none" stroke="blueviolet" stroke-dasharray="5,2" d="M173.106,-450.266C188.747,-452.526 210.22,-455.629 229.966,-458.482"/>
<text text-anchor="middle" x="200.5" y="-458" font-family="Helvetica,sans-Serif" font-size="10.00">erpc</text>
</g>
<!-- Node21 -->
<g id="node15" class="node"><title>Node21</title>
<g id="a_node15"><a xlink:href="group__spi__master__transport.html" target="_top" xlink:title="MCUXpressoSDK SPI master driver transport. ">
<polygon fill="white" stroke="black" points="250.5,-418.5 250.5,-437.5 315.5,-437.5 315.5,-418.5 250.5,-418.5"/>
<text text-anchor="middle" x="283" y="-425.5" font-family="Helvetica,sans-Serif" font-size="10.00">SPI Master</text>
</a>
</g>
</g>
<!-- Node0&#45;&gt;Node21 -->
<g id="edge21" class="edge"><title>Node0&#45;&gt;Node21</title>
<path fill="none" stroke="blueviolet" stroke-dasharray="5,2" d="M173.326,-437.873C179.015,-435.944 185.16,-434.147 191,-433 210.408,-429.19 232.559,-427.909 250.147,-427.595"/>
<text text-anchor="middle" x="200.5" y="-436" font-family="Helvetica,sans-Serif" font-size="10.00">erpc</text>
</g>
<!-- Node19 -->
<g id="node16" class="node"><title>Node19</title>
<g id="a_node16"><a xlink:href="group__rpmsg__tty__rtos__transport.html" target="_top" xlink:title="RPMsg TTY RTOS transport. ">
<polygon fill="white" stroke="black" points="234,-380.5 234,-399.5 332,-399.5 332,-380.5 234,-380.5"/>
<text text-anchor="middle" x="283" y="-387.5" font-family="Helvetica,sans-Serif" font-size="10.00">RPMsg TTY RTOS</text>
</a>
</g>
</g>
<!-- Node0&#45;&gt;Node19 -->
<g id="edge19" class="edge"><title>Node0&#45;&gt;Node19</title>
<path fill="none" stroke="blueviolet" stroke-dasharray="5,2" d="M160.361,-437.33C168.111,-430.222 179.486,-420.826 191,-415 204.304,-408.269 219.648,-403.164 233.901,-399.38"/>
<text text-anchor="middle" x="200.5" y="-418" font-family="Helvetica,sans-Serif" font-size="10.00">erpc</text>
</g>
<!-- Node6 -->
<g id="node17" class="node"><title>Node6</title>
<g id="a_node17"><a xlink:href="group__infra__server.html" target="_top" xlink:title="Server classes. ">
<polygon fill="white" stroke="black" points="261,-342.5 261,-361.5 305,-361.5 305,-342.5 261,-342.5"/>
<text text-anchor="middle" x="283" y="-349.5" font-family="Helvetica,sans-Serif" font-size="10.00">Server</text>
</a>
</g>
</g>
<!-- Node0&#45;&gt;Node6 -->
<g id="edge6" class="edge"><title>Node0&#45;&gt;Node6</title>
<path fill="none" stroke="blueviolet" stroke-dasharray="5,2" d="M155.709,-437.265C162.537,-425.21 175.486,-404.609 191,-391 211.286,-373.204 240.916,-362.567 260.8,-357.002"/>
<text text-anchor="middle" x="200.5" y="-394" font-family="Helvetica,sans-Serif" font-size="10.00">erpc</text>
</g>
<!-- Node13 -->
<g id="node18" class="node"><title>Node13</title>
<g id="a_node18"><a xlink:href="group__lpi2c__slave__transport.html" target="_top" xlink:title="Lpi2c_slave_transport">
<polygon fill="white" stroke="black" points="228,-304.5 228,-323.5 338,-323.5 338,-304.5 228,-304.5"/>
<text text-anchor="middle" x="283" y="-311.5" font-family="Helvetica,sans-Serif" font-size="10.00">Lpi2c_slave_transport</text>
</a>
</g>
</g>
<!-- Node0&#45;&gt;Node13 -->
<g id="edge13" class="edge"><title>Node0&#45;&gt;Node13</title>
<path fill="none" stroke="blueviolet" stroke-dasharray="5,2" d="M153.557,-437.421C159.125,-420.982 172.114,-386.869 191,-363 204.136,-346.398 209.521,-343.332 228,-333 234.593,-329.314 242.03,-326.142 249.23,-323.504"/>
<text text-anchor="middle" x="200.5" y="-366" font-family="Helvetica,sans-Serif" font-size="10.00">erpc</text>
</g>
<!-- Node12 -->
<g id="node19" class="node"><title>Node12</title>
<g id="a_node19"><a xlink:href="group__itbp__transport.html" target="_top" xlink:title="Simple inter&#45;thread communications transport. ">
<polygon fill="white" stroke="black" points="250.5,-266.5 250.5,-285.5 315.5,-285.5 315.5,-266.5 250.5,-266.5"/>
<text text-anchor="middle" x="283" y="-273.5" font-family="Helvetica,sans-Serif" font-size="10.00">Inter&#45;thread</text>
</a>
</g>
</g>
<!-- Node0&#45;&gt;Node12 -->
<g id="edge12" class="edge"><title>Node0&#45;&gt;Node12</title>
<path fill="none" stroke="blueviolet" stroke-dasharray="5,2" d="M152.121,-437.42C156.023,-416.367 167.411,-365.074 191,-329 203.223,-310.309 208.853,-306.497 228,-295 234.902,-290.856 242.842,-287.432 250.473,-284.688"/>
<text text-anchor="middle" x="200.5" y="-332" font-family="Helvetica,sans-Serif" font-size="10.00">erpc</text>
</g>
<!-- Node9 -->
<g id="node20" class="node"><title>Node9</title>
<g id="a_node20"><a xlink:href="group__dspi__master__transport.html" target="_top" xlink:title="MCUXpressoSDK DSPI master driver transport. ">
<polygon fill="white" stroke="black" points="247,-228.5 247,-247.5 319,-247.5 319,-228.5 247,-228.5"/>
<text text-anchor="middle" x="283" y="-235.5" font-family="Helvetica,sans-Serif" font-size="10.00">DSPI Master</text>
</a>
</g>
</g>
<!-- Node0&#45;&gt;Node9 -->
<g id="edge9" class="edge"><title>Node0&#45;&gt;Node9</title>
<path fill="none" stroke="blueviolet" stroke-dasharray="5,2" d="M151.192,-437.214C153.377,-411.627 161.82,-341.307 191,-292 202.529,-272.52 208.678,-268.793 228,-257 234.108,-253.272 241.052,-250.138 247.878,-247.559"/>
<text text-anchor="middle" x="200.5" y="-295" font-family="Helvetica,sans-Serif" font-size="10.00">erpc</text>
</g>
<!-- Node25 -->
<g id="node21" class="node"><title>Node25</title>
<g id="a_node21"><a xlink:href="group___u_s_b___c_d_c__transport.html" target="_top" xlink:title="USB CDC transport. ">
<polygon fill="white" stroke="black" points="253,-190.5 253,-209.5 313,-209.5 313,-190.5 253,-190.5"/>
<text text-anchor="middle" x="283" y="-197.5" font-family="Helvetica,sans-Serif" font-size="10.00">USB CDC</text>
</a>
</g>
</g>
<!-- Node0&#45;&gt;Node25 -->
<g id="edge25" class="edge"><title>Node0&#45;&gt;Node25</title>
<path fill="none" stroke="blueviolet" stroke-dasharray="5,2" d="M150.484,-437.398C150.838,-407.844 154.965,-316.419 191,-253 202.033,-233.583 208.853,-230.497 228,-219 235.583,-214.447 244.42,-210.763 252.723,-207.894"/>
<text text-anchor="middle" x="200.5" y="-256" font-family="Helvetica,sans-Serif" font-size="10.00">erpc</text>
</g>
<!-- Node3 -->
<g id="node22" class="node"><title>Node3</title>
<g id="a_node22"><a xlink:href="group__infra__codec.html" target="_top" xlink:title="Classes used for message serialization. ">
<polygon fill="white" stroke="black" points="248,-152.5 248,-171.5 318,-171.5 318,-152.5 248,-152.5"/>
<text text-anchor="middle" x="283" y="-159.5" font-family="Helvetica,sans-Serif" font-size="10.00">Serialization</text>
</a>
</g>
</g>
<!-- Node0&#45;&gt;Node3 -->
<g id="edge3" class="edge"><title>Node0&#45;&gt;Node3</title>
<path fill="none" stroke="blueviolet" stroke-dasharray="5,2" d="M150.055,-437.454C148.93,-404.381 148.642,-292.495 191,-215 201.711,-195.403 208.853,-192.497 228,-181 234.22,-177.265 241.283,-174.116 248.204,-171.521"/>
<text text-anchor="middle" x="200.5" y="-218" font-family="Helvetica,sans-Serif" font-size="10.00">erpc</text>
</g>
<!-- Node17 -->
<g id="node23" class="node"><title>Node17</title>
<g id="a_node23"><a xlink:href="group__rpmsg__lite__rtos__transport.html" target="_top" xlink:title="RPMsg&#45;Lite zero copy transport using RTOS API. ">
<polygon fill="white" stroke="black" points="234.5,-114.5 234.5,-133.5 331.5,-133.5 331.5,-114.5 234.5,-114.5"/>
<text text-anchor="middle" x="283" y="-121.5" font-family="Helvetica,sans-Serif" font-size="10.00">RPMsg&#45;Lite RTOS</text>
</a>
</g>
</g>
<!-- Node0&#45;&gt;Node17 -->
<g id="edge17" class="edge"><title>Node0&#45;&gt;Node17</title>
<path fill="none" stroke="blueviolet" stroke-dasharray="5,2" d="M151.091,-437.312C153.822,-394.675 166.153,-223.779 191,-177 202.664,-155.041 227.617,-141.455 248.449,-133.544"/>
<text text-anchor="middle" x="200.5" y="-180" font-family="Helvetica,sans-Serif" font-size="10.00">erpc</text>
</g>
<!-- Node18 -->
<g id="node24" class="node"><title>Node18</title>
<g id="a_node24"><a xlink:href="group__rpmsg__lite__transport.html" target="_top" xlink:title="RPMsg&#45;Lite zero copy transport. ">
<polygon fill="white" stroke="black" points="249,-76.5 249,-95.5 317,-95.5 317,-76.5 249,-76.5"/>
<text text-anchor="middle" x="283" y="-83.5" font-family="Helvetica,sans-Serif" font-size="10.00">RPMsg&#45;Lite</text>
</a>
</g>
</g>
<!-- Node0&#45;&gt;Node18 -->
<g id="edge18" class="edge"><title>Node0&#45;&gt;Node18</title>
<path fill="none" stroke="blueviolet" stroke-dasharray="5,2" d="M150.914,-437.264C153.006,-391.068 163.431,-193.983 191,-140 201.295,-119.841 208.678,-116.793 228,-105 234.362,-101.117 241.632,-97.8782 248.73,-95.2397"/>
<text text-anchor="middle" x="200.5" y="-143" font-family="Helvetica,sans-Serif" font-size="10.00">erpc</text>
</g>
<!-- Node7 -->
<g id="node25" class="node"><title>Node7</title>
<g id="a_node25"><a xlink:href="group__port__setup__extensions.html" target="_top" xlink:title="Extension setup functions. ">
<polygon fill="white" stroke="black" points="238.5,-38.5 238.5,-57.5 327.5,-57.5 327.5,-38.5 238.5,-38.5"/>
<text text-anchor="middle" x="283" y="-45.5" font-family="Helvetica,sans-Serif" font-size="10.00">Extension Setup</text>
</a>
</g>
</g>
<!-- Node0&#45;&gt;Node7 -->
<g id="edge7" class="edge"><title>Node0&#45;&gt;Node7</title>
<path fill="none" stroke="blueviolet" stroke-dasharray="5,2" d="M150.731,-437.368C152.05,-387.892 159.716,-162.271 191,-101 202.224,-79.0177 226.916,-65.481 247.751,-57.5955"/>
<text text-anchor="middle" x="200.5" y="-104" font-family="Helvetica,sans-Serif" font-size="10.00">erpc</text>
</g>
<!-- Node14 -->
<g id="node26" class="node"><title>Node14</title>
<g id="a_node26"><a xlink:href="group__lpspi__slave__transport.html" target="_top" xlink:title="Lpspi_slave_transport">
<polygon fill="white" stroke="black" points="228,-0.5 228,-19.5 338,-19.5 338,-0.5 228,-0.5"/>
<text text-anchor="middle" x="283" y="-7.5" font-family="Helvetica,sans-Serif" font-size="10.00">Lpspi_slave_transport</text>
</a>
</g>
</g>
<!-- Node0&#45;&gt;Node14 -->
<g id="edge14" class="edge"><title>Node0&#45;&gt;Node14</title>
<path fill="none" stroke="blueviolet" stroke-dasharray="5,2" d="M150.624,-437.408C151.434,-384.947 157.062,-132.626 191,-64 202.157,-41.4399 227.434,-27.561 248.523,-19.5327"/>
<text text-anchor="middle" x="200.5" y="-67" font-family="Helvetica,sans-Serif" font-size="10.00">erpc</text>
</g>
</g>
</svg>
