<?xml version="1.0" encoding="UTF-8" standalone="no"?>
<!DOCTYPE svg PUBLIC "-//W3C//DTD SVG 1.1//EN"
 "http://www.w3.org/Graphics/SVG/1.1/DTD/svg11.dtd">
<!-- Generated by graphviz version 2.38.0 (20140413.2041)
 -->
<!-- Title: Server Pages: 1 -->
<svg width="323pt" height="750pt"
 viewBox="0.00 0.00 323.00 750.00" xmlns="http://www.w3.org/2000/svg" xmlns:xlink="http://www.w3.org/1999/xlink">
<g id="graph0" class="graph" transform="scale(1 1) rotate(0) translate(4 746)">
<title>Server</title>
<polygon fill="white" stroke="none" points="-4,4 -4,-746 319,-746 319,4 -4,4"/>
<!-- Node9 -->
<g id="node1" class="node"><title>Node9</title>
<g id="a_node1"><a xlink:href="group__dspi__slave__transport.html" target="_top" xlink:title="Kinetis SDK DSPI slave driver transport. ">
<polygon fill="white" stroke="black" points="229.5,-722.5 229.5,-741.5 294.5,-741.5 294.5,-722.5 229.5,-722.5"/>
<text text-anchor="middle" x="262" y="-729.5" font-family="Helvetica,sans-Serif" font-size="10.00">DSPI Slave</text>
</a>
</g>
</g>
<!-- Node7 -->
<g id="node2" class="node"><title>Node7</title>
<g id="a_node2"><a xlink:href="group__port__threads.html" target="_top" xlink:title="Threading model. ">
<polygon fill="white" stroke="black" points="236.5,-684.5 236.5,-703.5 287.5,-703.5 287.5,-684.5 236.5,-684.5"/>
<text text-anchor="middle" x="262" y="-691.5" font-family="Helvetica,sans-Serif" font-size="10.00">Threads</text>
</a>
</g>
</g>
<!-- Node11 -->
<g id="node3" class="node"><title>Node11</title>
<g id="a_node3"><a xlink:href="group__mu__transport.html" target="_top" xlink:title="Messaging Unit transport. ">
<polygon fill="white" stroke="black" points="220,-646.5 220,-665.5 304,-665.5 304,-646.5 220,-646.5"/>
<text text-anchor="middle" x="262" y="-653.5" font-family="Helvetica,sans-Serif" font-size="10.00">Messaging Unit</text>
</a>
</g>
</g>
<!-- Node19 -->
<g id="node4" class="node"><title>Node19</title>
<g id="a_node4"><a xlink:href="group__tcp__transport.html" target="_top" xlink:title="Simple TCP/IP transport. ">
<polygon fill="white" stroke="black" points="238.5,-608.5 238.5,-627.5 285.5,-627.5 285.5,-608.5 238.5,-608.5"/>
<text text-anchor="middle" x="262" y="-615.5" font-family="Helvetica,sans-Serif" font-size="10.00">TCP/IP</text>
</a>
</g>
</g>
<!-- Node1 -->
<g id="node5" class="node"><title>Node1</title>
<g id="a_node5"><a xlink:href="group__infra.html" target="_top" xlink:title="C++ core. ">
<polygon fill="white" stroke="black" points="0,-361.5 0,-380.5 73,-380.5 73,-361.5 0,-361.5"/>
<text text-anchor="middle" x="36.5" y="-368.5" font-family="Helvetica,sans-Serif" font-size="10.00">Infrastructure</text>
</a>
</g>
</g>
<!-- Node0 -->
<g id="node15" class="node"><title>Node0</title>
<polygon fill="#bfbfbf" stroke="black" points="110,-361.5 110,-380.5 154,-380.5 154,-361.5 110,-361.5"/>
<text text-anchor="middle" x="132" y="-368.5" font-family="Helvetica,sans-Serif" font-size="10.00">Server</text>
</g>
<!-- Node1&#45;&gt;Node0 -->
<g id="edge1" class="edge"><title>Node1&#45;&gt;Node0</title>
<path fill="none" stroke="black" d="M83.1489,-371C92.4819,-371 101.873,-371 109.835,-371"/>
<polygon fill="black" stroke="black" points="83.1151,-367.5 73.1151,-371 83.115,-374.5 83.1151,-367.5"/>
</g>
<!-- Node2 -->
<g id="node6" class="node"><title>Node2</title>
<g id="a_node6"><a xlink:href="group__infra__client.html" target="_top" xlink:title="Client classes. ">
<polygon fill="white" stroke="black" points="241.5,-570.5 241.5,-589.5 282.5,-589.5 282.5,-570.5 241.5,-570.5"/>
<text text-anchor="middle" x="262" y="-577.5" font-family="Helvetica,sans-Serif" font-size="10.00">Client</text>
</a>
</g>
</g>
<!-- Node4 -->
<g id="node7" class="node"><title>Node4</title>
<g id="a_node7"><a xlink:href="group__infra__transport.html" target="_top" xlink:title="Superclasses for building transports. ">
<polygon fill="white" stroke="black" points="231,-532.5 231,-551.5 293,-551.5 293,-532.5 231,-532.5"/>
<text text-anchor="middle" x="262" y="-539.5" font-family="Helvetica,sans-Serif" font-size="10.00">Transports</text>
</a>
</g>
</g>
<!-- Node15 -->
<g id="node8" class="node"><title>Node15</title>
<g id="a_node8"><a xlink:href="group__serial__transport.html" target="_top" xlink:title="POSIX and Win32 serial port transport. ">
<polygon fill="white" stroke="black" points="231.5,-494.5 231.5,-513.5 292.5,-513.5 292.5,-494.5 231.5,-494.5"/>
<text text-anchor="middle" x="262" y="-501.5" font-family="Helvetica,sans-Serif" font-size="10.00">Serial port</text>
</a>
</g>
</g>
<!-- Node5 -->
<g id="node9" class="node"><title>Node5</title>
<g id="a_node9"><a xlink:href="group__infra__utility.html" target="_top" xlink:title="Utility code used by the infrastructure. ">
<polygon fill="white" stroke="black" points="237.5,-456.5 237.5,-475.5 286.5,-475.5 286.5,-456.5 237.5,-456.5"/>
<text text-anchor="middle" x="262" y="-463.5" font-family="Helvetica,sans-Serif" font-size="10.00">Utilities</text>
</a>
</g>
</g>
<!-- Node17 -->
<g id="node10" class="node"><title>Node17</title>
<g id="a_node10"><a xlink:href="group__spi__slave__transport.html" target="_top" xlink:title="Kinetis SDK SPI slave driver transport. ">
<polygon fill="white" stroke="black" points="232.5,-418.5 232.5,-437.5 291.5,-437.5 291.5,-418.5 232.5,-418.5"/>
<text text-anchor="middle" x="262" y="-425.5" font-family="Helvetica,sans-Serif" font-size="10.00">SPI Slave</text>
</a>
</g>
</g>
<!-- Node20 -->
<g id="node11" class="node"><title>Node20</title>
<g id="a_node11"><a xlink:href="group__uart__transport.html" target="_top" xlink:title="CMSIS UART driver transport. ">
<polygon fill="white" stroke="black" points="224,-380.5 224,-399.5 300,-399.5 300,-380.5 224,-380.5"/>
<text text-anchor="middle" x="262" y="-387.5" font-family="Helvetica,sans-Serif" font-size="10.00">CMSIS UART</text>
</a>
</g>
</g>
<!-- Node18 -->
<g id="node12" class="node"><title>Node18</title>
<g id="a_node12"><a xlink:href="group__spidev__master__transport.html" target="_top" xlink:title="SPIdev Linux transport. ">
<polygon fill="white" stroke="black" points="209,-342.5 209,-361.5 315,-361.5 315,-342.5 209,-342.5"/>
<text text-anchor="middle" x="262" y="-349.5" font-family="Helvetica,sans-Serif" font-size="10.00">SPIdev Linux Master</text>
</a>
</g>
</g>
<!-- Node16 -->
<g id="node13" class="node"><title>Node16</title>
<g id="a_node13"><a xlink:href="group__spi__master__transport.html" target="_top" xlink:title="Kinetis SDK SPI master driver transport. ">
<polygon fill="white" stroke="black" points="229.5,-304.5 229.5,-323.5 294.5,-323.5 294.5,-304.5 229.5,-304.5"/>
<text text-anchor="middle" x="262" y="-311.5" font-family="Helvetica,sans-Serif" font-size="10.00">SPI Master</text>
</a>
</g>
</g>
<!-- Node14 -->
<g id="node14" class="node"><title>Node14</title>
<g id="a_node14"><a xlink:href="group__rpmsg__tty__rtos__transport.html" target="_top" xlink:title="RPMsg TTY RTOS transport. ">
<polygon fill="white" stroke="black" points="213,-266.5 213,-285.5 311,-285.5 311,-266.5 213,-266.5"/>
<text text-anchor="middle" x="262" y="-273.5" font-family="Helvetica,sans-Serif" font-size="10.00">RPMsg TTY RTOS</text>
</a>
</g>
</g>
<!-- Node0&#45;&gt;Node9 -->
<g id="edge9" class="edge"><title>Node0&#45;&gt;Node9</title>
<path fill="none" stroke="blueviolet" stroke-dasharray="5,2" d="M133.381,-380.695C135.314,-426.697 145.035,-622.973 172,-677 182.246,-697.529 189.573,-700.793 209,-713 215.266,-716.938 222.468,-720.225 229.474,-722.898"/>
<text text-anchor="middle" x="181.5" y="-703" font-family="Helvetica,sans-Serif" font-size="10.00">erpc</text>
</g>
<!-- Node0&#45;&gt;Node7 -->
<g id="edge7" class="edge"><title>Node0&#45;&gt;Node7</title>
<path fill="none" stroke="blueviolet" stroke-dasharray="5,2" d="M133.571,-380.598C136.21,-422.844 148.12,-592.198 172,-639 182.428,-659.437 189.573,-662.793 209,-675 217.382,-680.267 227.437,-684.372 236.462,-687.396"/>
<text text-anchor="middle" x="181.5" y="-665" font-family="Helvetica,sans-Serif" font-size="10.00">erpc</text>
</g>
<!-- Node0&#45;&gt;Node11 -->
<g id="edge11" class="edge"><title>Node0&#45;&gt;Node11</title>
<path fill="none" stroke="blueviolet" stroke-dasharray="5,2" d="M132.565,-380.876C131.525,-414.078 131.518,-523.906 172,-601 182.667,-621.314 189.573,-624.793 209,-637 214.941,-640.733 221.722,-643.882 228.381,-646.477"/>
<text text-anchor="middle" x="181.5" y="-627" font-family="Helvetica,sans-Serif" font-size="10.00">erpc</text>
</g>
<!-- Node0&#45;&gt;Node19 -->
<g id="edge19" class="edge"><title>Node0&#45;&gt;Node19</title>
<path fill="none" stroke="blueviolet" stroke-dasharray="5,2" d="M133.003,-380.873C133.415,-410.422 137.608,-500.008 172,-563 182.995,-583.138 189.573,-586.793 209,-599 217.952,-604.625 228.812,-608.924 238.287,-611.998"/>
<text text-anchor="middle" x="181.5" y="-589" font-family="Helvetica,sans-Serif" font-size="10.00">erpc</text>
</g>
<!-- Node0&#45;&gt;Node2 -->
<g id="edge2" class="edge"><title>Node0&#45;&gt;Node2</title>
<path fill="none" stroke="blueviolet" stroke-dasharray="5,2" d="M133.685,-380.613C135.834,-405.759 144.065,-474.925 172,-524 183.505,-544.211 189.394,-548.492 209,-561 218.886,-567.307 231.159,-571.917 241.299,-575.016"/>
<text text-anchor="middle" x="181.5" y="-551" font-family="Helvetica,sans-Serif" font-size="10.00">erpc</text>
</g>
<!-- Node0&#45;&gt;Node4 -->
<g id="edge4" class="edge"><title>Node0&#45;&gt;Node4</title>
<path fill="none" stroke="blueviolet" stroke-dasharray="5,2" d="M134.932,-380.564C139.28,-400.647 151.119,-448.226 172,-483 184.467,-503.762 188.841,-509.58 209,-523 215.641,-527.421 223.441,-530.972 230.952,-533.753"/>
<text text-anchor="middle" x="181.5" y="-512" font-family="Helvetica,sans-Serif" font-size="10.00">erpc</text>
</g>
<!-- Node0&#45;&gt;Node15 -->
<g id="edge15" class="edge"><title>Node0&#45;&gt;Node15</title>
<path fill="none" stroke="blueviolet" stroke-dasharray="5,2" d="M136.311,-380.628C144.592,-403.119 168.492,-459.158 209,-485 215.807,-489.342 223.745,-492.881 231.34,-495.675"/>
<text text-anchor="middle" x="181.5" y="-471" font-family="Helvetica,sans-Serif" font-size="10.00">erpc</text>
</g>
<!-- Node0&#45;&gt;Node5 -->
<g id="edge5" class="edge"><title>Node0&#45;&gt;Node5</title>
<path fill="none" stroke="blueviolet" stroke-dasharray="5,2" d="M139.779,-380.576C151.801,-396.821 178.484,-429.697 209,-447 217.863,-452.025 228.301,-456.146 237.491,-459.251"/>
<text text-anchor="middle" x="181.5" y="-436" font-family="Helvetica,sans-Serif" font-size="10.00">erpc</text>
</g>
<!-- Node0&#45;&gt;Node17 -->
<g id="edge17" class="edge"><title>Node0&#45;&gt;Node17</title>
<path fill="none" stroke="blueviolet" stroke-dasharray="5,2" d="M148.271,-380.715C155.354,-385.035 163.966,-390.03 172,-394 191.574,-403.673 214.624,-412.411 232.362,-418.605"/>
<text text-anchor="middle" x="181.5" y="-405" font-family="Helvetica,sans-Serif" font-size="10.00">erpc</text>
</g>
<!-- Node0&#45;&gt;Node20 -->
<g id="edge20" class="edge"><title>Node0&#45;&gt;Node20</title>
<path fill="none" stroke="blueviolet" stroke-dasharray="5,2" d="M154.137,-374.137C173.024,-376.941 201.13,-381.113 223.778,-384.475"/>
<text text-anchor="middle" x="181.5" y="-382" font-family="Helvetica,sans-Serif" font-size="10.00">erpc</text>
</g>
<!-- Node0&#45;&gt;Node18 -->
<g id="edge18" class="edge"><title>Node0&#45;&gt;Node18</title>
<path fill="none" stroke="blueviolet" stroke-dasharray="5,2" d="M154.139,-362.162C159.843,-360.124 166.078,-358.203 172,-357 183.83,-354.597 196.713,-353.195 208.909,-352.406"/>
<text text-anchor="middle" x="181.5" y="-360" font-family="Helvetica,sans-Serif" font-size="10.00">erpc</text>
</g>
<!-- Node0&#45;&gt;Node16 -->
<g id="edge16" class="edge"><title>Node0&#45;&gt;Node16</title>
<path fill="none" stroke="blueviolet" stroke-dasharray="5,2" d="M142.826,-361.393C150.288,-354.569 161.094,-345.649 172,-340 190.01,-330.671 211.851,-324.227 229.39,-320.088"/>
<text text-anchor="middle" x="181.5" y="-343" font-family="Helvetica,sans-Serif" font-size="10.00">erpc</text>
</g>
<!-- Node0&#45;&gt;Node14 -->
<g id="edge14" class="edge"><title>Node0&#45;&gt;Node14</title>
<path fill="none" stroke="blueviolet" stroke-dasharray="5,2" d="M138.336,-361.304C145.055,-349.728 157.494,-330.269 172,-317 187.942,-302.418 209.97,-292.213 228.123,-285.632"/>
<text text-anchor="middle" x="181.5" y="-320" font-family="Helvetica,sans-Serif" font-size="10.00">erpc</text>
</g>
<!-- Node10 -->
<g id="node16" class="node"><title>Node10</title>
<g id="a_node16"><a xlink:href="group__itbp__transport.html" target="_top" xlink:title="Simple inter&#45;thread communications transport. ">
<polygon fill="white" stroke="black" points="229.5,-228.5 229.5,-247.5 294.5,-247.5 294.5,-228.5 229.5,-228.5"/>
<text text-anchor="middle" x="262" y="-235.5" font-family="Helvetica,sans-Serif" font-size="10.00">Inter&#45;thread</text>
</a>
</g>
</g>
<!-- Node0&#45;&gt;Node10 -->
<g id="edge10" class="edge"><title>Node0&#45;&gt;Node10</title>
<path fill="none" stroke="blueviolet" stroke-dasharray="5,2" d="M136.235,-361.344C141.86,-345.44 154.533,-313.188 172,-290 185.258,-272.4 190.093,-268.316 209,-257 215.268,-253.249 222.397,-250.05 229.324,-247.407"/>
<text text-anchor="middle" x="181.5" y="-293" font-family="Helvetica,sans-Serif" font-size="10.00">erpc</text>
</g>
<!-- Node8 -->
<g id="node17" class="node"><title>Node8</title>
<g id="a_node17"><a xlink:href="group__dspi__master__transport.html" target="_top" xlink:title="Kinetis SDK DSPI master driver transport. ">
<polygon fill="white" stroke="black" points="226,-190.5 226,-209.5 298,-209.5 298,-190.5 226,-190.5"/>
<text text-anchor="middle" x="262" y="-197.5" font-family="Helvetica,sans-Serif" font-size="10.00">DSPI Master</text>
</a>
</g>
</g>
<!-- Node0&#45;&gt;Node8 -->
<g id="edge8" class="edge"><title>Node0&#45;&gt;Node8</title>
<path fill="none" stroke="blueviolet" stroke-dasharray="5,2" d="M134.59,-361.209C138.345,-340.189 149.213,-289.75 172,-254 184.167,-234.912 189.749,-230.908 209,-219 214.967,-215.309 221.759,-212.178 228.421,-209.588"/>
<text text-anchor="middle" x="181.5" y="-257" font-family="Helvetica,sans-Serif" font-size="10.00">erpc</text>
</g>
<!-- Node21 -->
<g id="node18" class="node"><title>Node21</title>
<g id="a_node18"><a xlink:href="group___u_s_b___c_d_c__transport.html" target="_top" xlink:title="USB CDC transport. ">
<polygon fill="white" stroke="black" points="232,-152.5 232,-171.5 292,-171.5 292,-152.5 232,-152.5"/>
<text text-anchor="middle" x="262" y="-159.5" font-family="Helvetica,sans-Serif" font-size="10.00">USB CDC</text>
</a>
</g>
</g>
<!-- Node0&#45;&gt;Node21 -->
<g id="edge21" class="edge"><title>Node0&#45;&gt;Node21</title>
<path fill="none" stroke="blueviolet" stroke-dasharray="5,2" d="M133.631,-361.302C135.651,-335.939 143.594,-266.204 172,-217 183.471,-197.13 189.573,-193.207 209,-181 215.999,-176.602 224.164,-173.015 231.922,-170.19"/>
<text text-anchor="middle" x="181.5" y="-220" font-family="Helvetica,sans-Serif" font-size="10.00">erpc</text>
</g>
<!-- Node3 -->
<g id="node19" class="node"><title>Node3</title>
<g id="a_node19"><a xlink:href="group__infra__codec.html" target="_top" xlink:title="Classes used for message serialization. ">
<polygon fill="white" stroke="black" points="227,-114.5 227,-133.5 297,-133.5 297,-114.5 227,-114.5"/>
<text text-anchor="middle" x="262" y="-121.5" font-family="Helvetica,sans-Serif" font-size="10.00">Serialization</text>
</a>
</g>
</g>
<!-- Node0&#45;&gt;Node3 -->
<g id="edge3" class="edge"><title>Node0&#45;&gt;Node3</title>
<path fill="none" stroke="blueviolet" stroke-dasharray="5,2" d="M133.003,-361.127C133.415,-331.578 137.608,-241.992 172,-179 182.995,-158.862 189.573,-155.207 209,-143 214.941,-139.267 221.722,-136.118 228.381,-133.523"/>
<text text-anchor="middle" x="181.5" y="-182" font-family="Helvetica,sans-Serif" font-size="10.00">erpc</text>
</g>
<!-- Node12 -->
<g id="node20" class="node"><title>Node12</title>
<g id="a_node20"><a xlink:href="group__rpmsg__lite__rtos__transport.html" target="_top" xlink:title="RPMsg&#45;Lite zero copy transport using RTOS API. ">
<polygon fill="white" stroke="black" points="213.5,-76.5 213.5,-95.5 310.5,-95.5 310.5,-76.5 213.5,-76.5"/>
<text text-anchor="middle" x="262" y="-83.5" font-family="Helvetica,sans-Serif" font-size="10.00">RPMsg&#45;Lite RTOS</text>
</a>
</g>
</g>
<!-- Node0&#45;&gt;Node12 -->
<g id="edge12" class="edge"><title>Node0&#45;&gt;Node12</title>
<path fill="none" stroke="blueviolet" stroke-dasharray="5,2" d="M132.565,-361.124C131.525,-327.922 131.518,-218.094 172,-141 182.667,-120.686 189.573,-117.207 209,-105 214.941,-101.267 221.722,-98.118 228.381,-95.5235"/>
<text text-anchor="middle" x="181.5" y="-144" font-family="Helvetica,sans-Serif" font-size="10.00">erpc</text>
</g>
<!-- Node13 -->
<g id="node21" class="node"><title>Node13</title>
<g id="a_node21"><a xlink:href="group__rpmsg__lite__transport.html" target="_top" xlink:title="RPMsg&#45;Lite zero copy transport. ">
<polygon fill="white" stroke="black" points="228,-38.5 228,-57.5 296,-57.5 296,-38.5 228,-38.5"/>
<text text-anchor="middle" x="262" y="-45.5" font-family="Helvetica,sans-Serif" font-size="10.00">RPMsg&#45;Lite</text>
</a>
</g>
</g>
<!-- Node0&#45;&gt;Node13 -->
<g id="edge13" class="edge"><title>Node0&#45;&gt;Node13</title>
<path fill="none" stroke="blueviolet" stroke-dasharray="5,2" d="M133.571,-361.402C136.21,-319.156 148.12,-149.802 172,-103 182.428,-82.5628 189.573,-79.207 209,-67 214.941,-63.267 221.722,-60.118 228.381,-57.5235"/>
<text text-anchor="middle" x="181.5" y="-106" font-family="Helvetica,sans-Serif" font-size="10.00">erpc</text>
</g>
<!-- Node6 -->
<g id="node22" class="node"><title>Node6</title>
<g id="a_node22"><a xlink:href="group__port__setup__extensions.html" target="_top" xlink:title="Extension setup functions. ">
<polygon fill="white" stroke="black" points="217.5,-0.5 217.5,-19.5 306.5,-19.5 306.5,-0.5 217.5,-0.5"/>
<text text-anchor="middle" x="262" y="-7.5" font-family="Helvetica,sans-Serif" font-size="10.00">Extension Setup</text>
</a>
</g>
</g>
<!-- Node0&#45;&gt;Node6 -->
<g id="edge6" class="edge"><title>Node0&#45;&gt;Node6</title>
<path fill="none" stroke="blueviolet" stroke-dasharray="5,2" d="M133.381,-361.305C135.314,-315.303 145.035,-119.027 172,-65 182.246,-44.4711 189.573,-41.207 209,-29 214.941,-25.267 221.722,-22.118 228.381,-19.5235"/>
<text text-anchor="middle" x="181.5" y="-68" font-family="Helvetica,sans-Serif" font-size="10.00">erpc</text>
</g>
</g>
</svg>
