<?xml version="1.0" encoding="UTF-8" standalone="no"?>
<!DOCTYPE svg PUBLIC "-//W3C//DTD SVG 1.1//EN"
 "http://www.w3.org/Graphics/SVG/1.1/DTD/svg11.dtd">
<!-- Generated by graphviz version 2.38.0 (20140413.2041)
 -->
<!-- Title: RPMsg&#45;Lite Pages: 1 -->
<svg width="465pt" height="825pt"
 viewBox="0.00 0.00 465.00 824.97" xmlns="http://www.w3.org/2000/svg" xmlns:xlink="http://www.w3.org/1999/xlink">
<g id="graph0" class="graph" transform="scale(1 1) rotate(0) translate(4 820.974)">
<title>RPMsg&#45;Lite</title>
<polygon fill="white" stroke="none" points="-4,4 -4,-820.974 461,-820.974 461,4 -4,4"/>
<!-- Node1 -->
<g id="node1" class="node"><title>Node1</title>
<g id="a_node1"><a xlink:href="group__transports.html" target="_top" xlink:title="Transport layer classes. ">
<polygon fill="white" stroke="black" points="0,-387.474 0,-406.474 89,-406.474 89,-387.474 0,-387.474"/>
<text text-anchor="middle" x="44.5" y="-394.474" font-family="Helvetica,sans-Serif" font-size="10.00">Transport Layers</text>
</a>
</g>
</g>
<!-- Node0 -->
<g id="node22" class="node"><title>Node0</title>
<polygon fill="#bfbfbf" stroke="black" points="126,-387.474 126,-406.474 194,-406.474 194,-387.474 126,-387.474"/>
<text text-anchor="middle" x="160" y="-394.474" font-family="Helvetica,sans-Serif" font-size="10.00">RPMsg&#45;Lite</text>
</g>
<!-- Node1&#45;&gt;Node0 -->
<g id="edge1" class="edge"><title>Node1&#45;&gt;Node0</title>
<path fill="none" stroke="black" d="M99.2532,-396.974C108.367,-396.974 117.585,-396.974 125.961,-396.974"/>
<polygon fill="black" stroke="black" points="99.0575,-393.474 89.0575,-396.974 99.0574,-400.474 99.0575,-393.474"/>
</g>
<!-- Node11 -->
<g id="node2" class="node"><title>Node11</title>
<g id="a_node2"><a xlink:href="group__dspi__slave__transport.html" target="_top" xlink:title="MCUXpressoSDK DSPI slave driver transport. ">
<polygon fill="white" stroke="black" points="371.5,-786.474 371.5,-805.474 436.5,-805.474 436.5,-786.474 371.5,-786.474"/>
<text text-anchor="middle" x="404" y="-793.474" font-family="Helvetica,sans-Serif" font-size="10.00">DSPI Slave</text>
</a>
</g>
</g>
<!-- Node12 -->
<g id="node3" class="node"><title>Node12</title>
<g id="a_node3"><a xlink:href="group__i2c__slave__transport.html" target="_top" xlink:title="MCUXpressoSDK I2C slave driver transport. ">
<polygon fill="white" stroke="black" points="375.5,-748.474 375.5,-767.474 432.5,-767.474 432.5,-748.474 375.5,-748.474"/>
<text text-anchor="middle" x="404" y="-755.474" font-family="Helvetica,sans-Serif" font-size="10.00">I2C Slave</text>
</a>
</g>
</g>
<!-- Node9 -->
<g id="node4" class="node"><title>Node9</title>
<g id="a_node4"><a xlink:href="group__port__threads.html" target="_top" xlink:title="Threading model. ">
<polygon fill="white" stroke="black" points="378.5,-710.474 378.5,-729.474 429.5,-729.474 429.5,-710.474 378.5,-710.474"/>
<text text-anchor="middle" x="404" y="-717.474" font-family="Helvetica,sans-Serif" font-size="10.00">Threads</text>
</a>
</g>
</g>
<!-- Node14 -->
<g id="node5" class="node"><title>Node14</title>
<g id="a_node5"><a xlink:href="group__mu__transport.html" target="_top" xlink:title="Messaging Unit transport. ">
<polygon fill="white" stroke="black" points="362,-672.474 362,-691.474 446,-691.474 446,-672.474 362,-672.474"/>
<text text-anchor="middle" x="404" y="-679.474" font-family="Helvetica,sans-Serif" font-size="10.00">Messaging Unit</text>
</a>
</g>
</g>
<!-- Node20 -->
<g id="node6" class="node"><title>Node20</title>
<g id="a_node6"><a xlink:href="group__tcp__transport.html" target="_top" xlink:title="Simple TCP/IP transport. ">
<polygon fill="white" stroke="black" points="380.5,-634.474 380.5,-653.474 427.5,-653.474 427.5,-634.474 380.5,-634.474"/>
<text text-anchor="middle" x="404" y="-641.474" font-family="Helvetica,sans-Serif" font-size="10.00">TCP/IP</text>
</a>
</g>
</g>
<!-- Node3 -->
<g id="node7" class="node"><title>Node3</title>
<g id="a_node7"><a xlink:href="group__infra__client.html" target="_top" xlink:title="Client classes. ">
<polygon fill="white" stroke="black" points="383.5,-596.474 383.5,-615.474 424.5,-615.474 424.5,-596.474 383.5,-596.474"/>
<text text-anchor="middle" x="404" y="-603.474" font-family="Helvetica,sans-Serif" font-size="10.00">Client</text>
</a>
</g>
</g>
<!-- Node5 -->
<g id="node8" class="node"><title>Node5</title>
<g id="a_node8"><a xlink:href="group__infra__transport.html" target="_top" xlink:title="Superclasses for building transports. ">
<polygon fill="white" stroke="black" points="373,-558.474 373,-577.474 435,-577.474 435,-558.474 373,-558.474"/>
<text text-anchor="middle" x="404" y="-565.474" font-family="Helvetica,sans-Serif" font-size="10.00">Transports</text>
</a>
</g>
</g>
<!-- Node16 -->
<g id="node9" class="node"><title>Node16</title>
<g id="a_node9"><a xlink:href="group__serial__transport.html" target="_top" xlink:title="POSIX and Win32 serial port transport. ">
<polygon fill="white" stroke="black" points="373.5,-520.474 373.5,-539.474 434.5,-539.474 434.5,-520.474 373.5,-520.474"/>
<text text-anchor="middle" x="404" y="-527.474" font-family="Helvetica,sans-Serif" font-size="10.00">Serial port</text>
</a>
</g>
</g>
<!-- Node6 -->
<g id="node10" class="node"><title>Node6</title>
<g id="a_node10"><a xlink:href="group__infra__utility.html" target="_top" xlink:title="Utility code used by the infrastructure. ">
<polygon fill="white" stroke="black" points="379.5,-482.474 379.5,-501.474 428.5,-501.474 428.5,-482.474 379.5,-482.474"/>
<text text-anchor="middle" x="404" y="-489.474" font-family="Helvetica,sans-Serif" font-size="10.00">Utilities</text>
</a>
</g>
</g>
<!-- Node18 -->
<g id="node11" class="node"><title>Node18</title>
<g id="a_node11"><a xlink:href="group__spi__slave__transport.html" target="_top" xlink:title="MCUXpressoSDK SPI slave driver transport. ">
<polygon fill="white" stroke="black" points="374.5,-444.474 374.5,-463.474 433.5,-463.474 433.5,-444.474 374.5,-444.474"/>
<text text-anchor="middle" x="404" y="-451.474" font-family="Helvetica,sans-Serif" font-size="10.00">SPI Slave</text>
</a>
</g>
</g>
<!-- Node21 -->
<g id="node12" class="node"><title>Node21</title>
<g id="a_node12"><a xlink:href="group__uart__transport.html" target="_top" xlink:title="CMSIS UART driver transport. ">
<polygon fill="white" stroke="black" points="366,-406.474 366,-425.474 442,-425.474 442,-406.474 366,-406.474"/>
<text text-anchor="middle" x="404" y="-413.474" font-family="Helvetica,sans-Serif" font-size="10.00">CMSIS UART</text>
</a>
</g>
</g>
<!-- Node19 -->
<g id="node13" class="node"><title>Node19</title>
<g id="a_node13"><a xlink:href="group__spidev__master__transport.html" target="_top" xlink:title="SPIdev Linux transport. ">
<polygon fill="white" stroke="black" points="351,-368.474 351,-387.474 457,-387.474 457,-368.474 351,-368.474"/>
<text text-anchor="middle" x="404" y="-375.474" font-family="Helvetica,sans-Serif" font-size="10.00">SPIdev Linux Master</text>
</a>
</g>
</g>
<!-- Node17 -->
<g id="node14" class="node"><title>Node17</title>
<g id="a_node14"><a xlink:href="group__spi__master__transport.html" target="_top" xlink:title="MCUXpressoSDK SPI master driver transport. ">
<polygon fill="white" stroke="black" points="371.5,-330.474 371.5,-349.474 436.5,-349.474 436.5,-330.474 371.5,-330.474"/>
<text text-anchor="middle" x="404" y="-337.474" font-family="Helvetica,sans-Serif" font-size="10.00">SPI Master</text>
</a>
</g>
</g>
<!-- Node15 -->
<g id="node15" class="node"><title>Node15</title>
<g id="a_node15"><a xlink:href="group__rpmsg__tty__rtos__transport.html" target="_top" xlink:title="RPMsg TTY RTOS transport. ">
<polygon fill="white" stroke="black" points="355,-292.474 355,-311.474 453,-311.474 453,-292.474 355,-292.474"/>
<text text-anchor="middle" x="404" y="-299.474" font-family="Helvetica,sans-Serif" font-size="10.00">RPMsg TTY RTOS</text>
</a>
</g>
</g>
<!-- Node7 -->
<g id="node16" class="node"><title>Node7</title>
<g id="a_node16"><a xlink:href="group__infra__server.html" target="_top" xlink:title="Server classes. ">
<polygon fill="white" stroke="black" points="382,-254.474 382,-273.474 426,-273.474 426,-254.474 382,-254.474"/>
<text text-anchor="middle" x="404" y="-261.474" font-family="Helvetica,sans-Serif" font-size="10.00">Server</text>
</a>
</g>
</g>
<!-- Node13 -->
<g id="node17" class="node"><title>Node13</title>
<g id="a_node17"><a xlink:href="group__itbp__transport.html" target="_top" xlink:title="Simple inter&#45;thread communications transport. ">
<polygon fill="white" stroke="black" points="371.5,-216.474 371.5,-235.474 436.5,-235.474 436.5,-216.474 371.5,-216.474"/>
<text text-anchor="middle" x="404" y="-223.474" font-family="Helvetica,sans-Serif" font-size="10.00">Inter&#45;thread</text>
</a>
</g>
</g>
<!-- Node10 -->
<g id="node18" class="node"><title>Node10</title>
<g id="a_node18"><a xlink:href="group__dspi__master__transport.html" target="_top" xlink:title="MCUXpressoSDK DSPI master driver transport. ">
<polygon fill="white" stroke="black" points="368,-178.474 368,-197.474 440,-197.474 440,-178.474 368,-178.474"/>
<text text-anchor="middle" x="404" y="-185.474" font-family="Helvetica,sans-Serif" font-size="10.00">DSPI Master</text>
</a>
</g>
</g>
<!-- Node22 -->
<g id="node19" class="node"><title>Node22</title>
<g id="a_node19"><a xlink:href="group___u_s_b___c_d_c__transport.html" target="_top" xlink:title="USB CDC transport. ">
<polygon fill="white" stroke="black" points="374,-140.474 374,-159.474 434,-159.474 434,-140.474 374,-140.474"/>
<text text-anchor="middle" x="404" y="-147.474" font-family="Helvetica,sans-Serif" font-size="10.00">USB CDC</text>
</a>
</g>
</g>
<!-- Node4 -->
<g id="node20" class="node"><title>Node4</title>
<g id="a_node20"><a xlink:href="group__infra__codec.html" target="_top" xlink:title="Classes used for message serialization. ">
<polygon fill="white" stroke="black" points="369,-102.474 369,-121.474 439,-121.474 439,-102.474 369,-102.474"/>
<text text-anchor="middle" x="404" y="-109.474" font-family="Helvetica,sans-Serif" font-size="10.00">Serialization</text>
</a>
</g>
</g>
<!-- Node2 -->
<g id="node21" class="node"><title>Node2</title>
<g id="a_node21"><a xlink:href="group__rpmsg__lite__rtos__transport.html" target="_top" xlink:title="RPMsg&#45;Lite zero copy transport using RTOS API. ">
<polygon fill="white" stroke="black" points="355.5,-56.4737 355.5,-75.4737 452.5,-75.4737 452.5,-56.4737 355.5,-56.4737"/>
<text text-anchor="middle" x="404" y="-63.4737" font-family="Helvetica,sans-Serif" font-size="10.00">RPMsg&#45;Lite RTOS</text>
</a>
</g>
</g>
<!-- Node0&#45;&gt;Node11 -->
<g id="edge11" class="edge"><title>Node0&#45;&gt;Node11</title>
<path fill="none" stroke="blueviolet" stroke-dasharray="5,2" d="M160.804,-406.492C159.919,-459.611 158.417,-718.933 212,-771.974 253.922,-813.471 328.828,-809.156 371.309,-802.474"/>
<text text-anchor="middle" x="272.5" y="-808.974" font-family="Helvetica,sans-Serif" font-size="10.00">erpc</text>
</g>
<!-- Node0&#45;&gt;Node12 -->
<g id="edge12" class="edge"><title>Node0&#45;&gt;Node12</title>
<path fill="none" stroke="blueviolet" stroke-dasharray="5,2" d="M160.964,-406.496C160.981,-456.359 163.703,-686.879 212,-733.974 234.612,-756.023 327.942,-758.596 375.246,-758.433"/>
<text text-anchor="middle" x="272.5" y="-759.974" font-family="Helvetica,sans-Serif" font-size="10.00">erpc</text>
</g>
<!-- Node0&#45;&gt;Node9 -->
<g id="edge9" class="edge"><title>Node0&#45;&gt;Node9</title>
<path fill="none" stroke="blueviolet" stroke-dasharray="5,2" d="M161.166,-406.635C162.177,-453.303 169.009,-654.832 212,-695.974 235.3,-718.272 332.028,-720.59 378.225,-720.38"/>
<text text-anchor="middle" x="272.5" y="-721.974" font-family="Helvetica,sans-Serif" font-size="10.00">erpc</text>
</g>
<!-- Node0&#45;&gt;Node14 -->
<g id="edge14" class="edge"><title>Node0&#45;&gt;Node14</title>
<path fill="none" stroke="blueviolet" stroke-dasharray="5,2" d="M161.43,-406.493C163.561,-449.098 174.432,-621.72 212,-656.974 232.973,-676.654 311.984,-681.174 361.577,-682.022"/>
<text text-anchor="middle" x="272.5" y="-683.974" font-family="Helvetica,sans-Serif" font-size="10.00">erpc</text>
</g>
<!-- Node0&#45;&gt;Node20 -->
<g id="edge21" class="edge"><title>Node0&#45;&gt;Node20</title>
<path fill="none" stroke="blueviolet" stroke-dasharray="5,2" d="M161.786,-406.64C165.149,-445.492 179.659,-589.587 212,-618.974 236.256,-641.014 335.331,-643.959 380.44,-644.13"/>
<text text-anchor="middle" x="272.5" y="-644.974" font-family="Helvetica,sans-Serif" font-size="10.00">erpc</text>
</g>
<!-- Node0&#45;&gt;Node3 -->
<g id="edge3" class="edge"><title>Node0&#45;&gt;Node3</title>
<path fill="none" stroke="blueviolet" stroke-dasharray="5,2" d="M162.3,-406.841C167.083,-441.579 184.849,-557.386 212,-580.974 237.246,-602.906 339.622,-605.828 383.204,-606.057"/>
<text text-anchor="middle" x="272.5" y="-606.974" font-family="Helvetica,sans-Serif" font-size="10.00">erpc</text>
</g>
<!-- Node0&#45;&gt;Node5 -->
<g id="edge5" class="edge"><title>Node0&#45;&gt;Node5</title>
<path fill="none" stroke="blueviolet" stroke-dasharray="5,2" d="M161.136,-406.733C162.08,-433.383 168.661,-507.752 212,-542.974 236.071,-562.536 325.544,-566.875 372.999,-567.781"/>
<text text-anchor="middle" x="272.5" y="-568.974" font-family="Helvetica,sans-Serif" font-size="10.00">erpc</text>
</g>
<!-- Node0&#45;&gt;Node16 -->
<g id="edge17" class="edge"><title>Node0&#45;&gt;Node16</title>
<path fill="none" stroke="blueviolet" stroke-dasharray="5,2" d="M162.272,-406.678C165.732,-428.793 177.491,-482.95 212,-507.974 237.063,-526.148 326.091,-529.535 373.224,-530.022"/>
<text text-anchor="middle" x="272.5" y="-530.974" font-family="Helvetica,sans-Serif" font-size="10.00">erpc</text>
</g>
<!-- Node0&#45;&gt;Node6 -->
<g id="edge6" class="edge"><title>Node0&#45;&gt;Node6</title>
<path fill="none" stroke="blueviolet" stroke-dasharray="5,2" d="M165.384,-406.493C172.736,-421.278 189.035,-449.463 212,-462.974 265.48,-494.437 341.411,-495.571 379.415,-493.78"/>
<text text-anchor="middle" x="272.5" y="-495.974" font-family="Helvetica,sans-Serif" font-size="10.00">erpc</text>
</g>
<!-- Node0&#45;&gt;Node18 -->
<g id="edge19" class="edge"><title>Node0&#45;&gt;Node18</title>
<path fill="none" stroke="blueviolet" stroke-dasharray="5,2" d="M175.102,-406.488C185.008,-412.717 198.797,-420.505 212,-424.974 267.596,-443.792 336.436,-450.434 374.433,-452.753"/>
<text text-anchor="middle" x="272.5" y="-450.974" font-family="Helvetica,sans-Serif" font-size="10.00">erpc</text>
</g>
<!-- Node0&#45;&gt;Node21 -->
<g id="edge22" class="edge"><title>Node0&#45;&gt;Node21</title>
<path fill="none" stroke="blueviolet" stroke-dasharray="5,2" d="M194.142,-399.576C239.06,-403.102 319.027,-409.381 365.903,-413.061"/>
<text text-anchor="middle" x="272.5" y="-412.974" font-family="Helvetica,sans-Serif" font-size="10.00">erpc</text>
</g>
<!-- Node0&#45;&gt;Node19 -->
<g id="edge20" class="edge"><title>Node0&#45;&gt;Node19</title>
<path fill="none" stroke="blueviolet" stroke-dasharray="5,2" d="M190.946,-387.459C197.798,-385.645 205.097,-383.996 212,-382.974 258.595,-376.073 312.265,-375.289 350.825,-375.96"/>
<text text-anchor="middle" x="272.5" y="-385.974" font-family="Helvetica,sans-Serif" font-size="10.00">erpc</text>
</g>
<!-- Node0&#45;&gt;Node17 -->
<g id="edge18" class="edge"><title>Node0&#45;&gt;Node17</title>
<path fill="none" stroke="blueviolet" stroke-dasharray="5,2" d="M170.972,-387.243C180.613,-378.484 196.065,-366.081 212,-359.974 265.237,-339.571 332.574,-337.501 371.42,-338.376"/>
<text text-anchor="middle" x="272.5" y="-362.974" font-family="Helvetica,sans-Serif" font-size="10.00">erpc</text>
</g>
<!-- Node0&#45;&gt;Node15 -->
<g id="edge16" class="edge"><title>Node0&#45;&gt;Node15</title>
<path fill="none" stroke="blueviolet" stroke-dasharray="5,2" d="M164.553,-387.268C171.117,-370.873 186.817,-338.016 212,-322.974 255.246,-297.143 313.927,-294.478 354.789,-296.638"/>
<text text-anchor="middle" x="272.5" y="-325.974" font-family="Helvetica,sans-Serif" font-size="10.00">erpc</text>
</g>
<!-- Node0&#45;&gt;Node7 -->
<g id="edge7" class="edge"><title>Node0&#45;&gt;Node7</title>
<path fill="none" stroke="blueviolet" stroke-dasharray="5,2" d="M161.988,-387.466C164.91,-364.699 175.723,-307.019 212,-280.974 263.381,-244.084 343.704,-252.588 381.706,-259.425"/>
<text text-anchor="middle" x="272.5" y="-283.974" font-family="Helvetica,sans-Serif" font-size="10.00">erpc</text>
</g>
<!-- Node0&#45;&gt;Node13 -->
<g id="edge13" class="edge"><title>Node0&#45;&gt;Node13</title>
<path fill="none" stroke="blueviolet" stroke-dasharray="5,2" d="M160.7,-387.446C160.386,-359.2 163.737,-275.553 212,-237.974 257.746,-202.354 329.872,-209.719 371.16,-218.018"/>
<text text-anchor="middle" x="272.5" y="-240.974" font-family="Helvetica,sans-Serif" font-size="10.00">erpc</text>
</g>
<!-- Node0&#45;&gt;Node10 -->
<g id="edge10" class="edge"><title>Node0&#45;&gt;Node10</title>
<path fill="none" stroke="blueviolet" stroke-dasharray="5,2" d="M161.944,-387.4C165.76,-350.846 181.329,-220.882 212,-195.974 256.441,-159.882 327.714,-168.797 369.479,-178.453"/>
<text text-anchor="middle" x="272.5" y="-198.974" font-family="Helvetica,sans-Serif" font-size="10.00">erpc</text>
</g>
<!-- Node0&#45;&gt;Node22 -->
<g id="edge23" class="edge"><title>Node0&#45;&gt;Node22</title>
<path fill="none" stroke="blueviolet" stroke-dasharray="5,2" d="M161.506,-387.197C163.87,-345.784 175.301,-185.55 212,-154.974 235.765,-135.174 326.274,-141.569 373.666,-146.501"/>
<text text-anchor="middle" x="272.5" y="-157.974" font-family="Helvetica,sans-Serif" font-size="10.00">erpc</text>
</g>
<!-- Node0&#45;&gt;Node4 -->
<g id="edge4" class="edge"><title>Node0&#45;&gt;Node4</title>
<path fill="none" stroke="blueviolet" stroke-dasharray="5,2" d="M161.306,-387.3C162.915,-343.195 171.918,-161.77 212,-125.974 234.381,-105.986 320.154,-107.224 368.8,-109.693"/>
<text text-anchor="middle" x="272.5" y="-128.974" font-family="Helvetica,sans-Serif" font-size="10.00">erpc</text>
</g>
<!-- Node0&#45;&gt;Node2 -->
<g id="edge2" class="edge"><title>Node0&#45;&gt;Node2</title>
<path fill="none" stroke="orange" stroke-dasharray="5,2" d="M161.153,-387.167C162.102,-339.79 168.692,-135.179 212,-92.9737 231.787,-73.6907 305.412,-68.0483 355.256,-66.4735"/>
<text text-anchor="middle" x="272.5" y="-95.9737" font-family="Helvetica,sans-Serif" font-size="10.00">erpc::RPMsgBaseTransport</text>
</g>
<!-- Node0&#45;&gt;Node2 -->
<g id="edge15" class="edge"><title>Node0&#45;&gt;Node2</title>
<path fill="none" stroke="blueviolet" stroke-dasharray="5,2" d="M160.827,-387.142C160.146,-335.674 159.885,-97.932 212,-52.9737 233.454,-34.4658 311.054,-46.3775 360.495,-56.3986"/>
<text text-anchor="middle" x="272.5" y="-55.9737" font-family="Helvetica,sans-Serif" font-size="10.00">erpc</text>
</g>
<!-- Node8 -->
<g id="node23" class="node"><title>Node8</title>
<g id="a_node23"><a xlink:href="group__port__setup__extensions.html" target="_top" xlink:title="Extension setup functions. ">
<polygon fill="white" stroke="black" points="359.5,-10.4737 359.5,-29.4737 448.5,-29.4737 448.5,-10.4737 359.5,-10.4737"/>
<text text-anchor="middle" x="404" y="-17.4737" font-family="Helvetica,sans-Serif" font-size="10.00">Extension Setup</text>
</a>
</g>
</g>
<!-- Node0&#45;&gt;Node8 -->
<g id="edge8" class="edge"><title>Node0&#45;&gt;Node8</title>
<path fill="none" stroke="blueviolet" stroke-dasharray="5,2" d="M160.754,-387.188C159.631,-333.748 157.2,-77.7757 212,-27.9737 255.351,11.4235 329.716,0.298388 371.723,-10.4108"/>
<text text-anchor="middle" x="272.5" y="-30.9737" font-family="Helvetica,sans-Serif" font-size="10.00">erpc</text>
</g>
</g>
</svg>
