<?xml version="1.0" encoding="UTF-8" standalone="no"?>
<!DOCTYPE svg PUBLIC "-//W3C//DTD SVG 1.1//EN"
 "http://www.w3.org/Graphics/SVG/1.1/DTD/svg11.dtd">
<!-- Generated by graphviz version 2.38.0 (20140413.2041)
 -->
<!-- Title: DSPI Master Pages: 1 -->
<svg width="367pt" height="750pt"
 viewBox="0.00 0.00 367.00 750.00" xmlns="http://www.w3.org/2000/svg" xmlns:xlink="http://www.w3.org/1999/xlink">
<g id="graph0" class="graph" transform="scale(1 1) rotate(0) translate(4 746)">
<title>DSPI Master</title>
<polygon fill="white" stroke="none" points="-4,4 -4,-746 363,-746 363,4 -4,4"/>
<!-- Node1 -->
<g id="node1" class="node"><title>Node1</title>
<g id="a_node1"><a xlink:href="group__transports.html" target="_top" xlink:title="Transport layer classes. ">
<polygon fill="white" stroke="black" points="0,-361.5 0,-380.5 89,-380.5 89,-361.5 0,-361.5"/>
<text text-anchor="middle" x="44.5" y="-368.5" font-family="Helvetica,sans-Serif" font-size="10.00">Transport Layers</text>
</a>
</g>
</g>
<!-- Node0 -->
<g id="node17" class="node"><title>Node0</title>
<polygon fill="#bfbfbf" stroke="black" points="126,-361.5 126,-380.5 198,-380.5 198,-361.5 126,-361.5"/>
<text text-anchor="middle" x="162" y="-368.5" font-family="Helvetica,sans-Serif" font-size="10.00">DSPI Master</text>
</g>
<!-- Node1&#45;&gt;Node0 -->
<g id="edge1" class="edge"><title>Node1&#45;&gt;Node0</title>
<path fill="none" stroke="black" d="M99.2729,-371C108.316,-371 117.491,-371 125.903,-371"/>
<polygon fill="black" stroke="black" points="99.1656,-367.5 89.1656,-371 99.1656,-374.5 99.1656,-367.5"/>
</g>
<!-- Node9 -->
<g id="node2" class="node"><title>Node9</title>
<g id="a_node2"><a xlink:href="group__dspi__slave__transport.html" target="_top" xlink:title="Kinetis SDK DSPI slave driver transport. ">
<polygon fill="white" stroke="black" points="273.5,-722.5 273.5,-741.5 338.5,-741.5 338.5,-722.5 273.5,-722.5"/>
<text text-anchor="middle" x="306" y="-729.5" font-family="Helvetica,sans-Serif" font-size="10.00">DSPI Slave</text>
</a>
</g>
</g>
<!-- Node8 -->
<g id="node3" class="node"><title>Node8</title>
<g id="a_node3"><a xlink:href="group__port__threads.html" target="_top" xlink:title="Threading model. ">
<polygon fill="white" stroke="black" points="280.5,-684.5 280.5,-703.5 331.5,-703.5 331.5,-684.5 280.5,-684.5"/>
<text text-anchor="middle" x="306" y="-691.5" font-family="Helvetica,sans-Serif" font-size="10.00">Threads</text>
</a>
</g>
</g>
<!-- Node11 -->
<g id="node4" class="node"><title>Node11</title>
<g id="a_node4"><a xlink:href="group__mu__transport.html" target="_top" xlink:title="Messaging Unit transport. ">
<polygon fill="white" stroke="black" points="264,-646.5 264,-665.5 348,-665.5 348,-646.5 264,-646.5"/>
<text text-anchor="middle" x="306" y="-653.5" font-family="Helvetica,sans-Serif" font-size="10.00">Messaging Unit</text>
</a>
</g>
</g>
<!-- Node19 -->
<g id="node5" class="node"><title>Node19</title>
<g id="a_node5"><a xlink:href="group__tcp__transport.html" target="_top" xlink:title="Simple TCP/IP transport. ">
<polygon fill="white" stroke="black" points="282.5,-608.5 282.5,-627.5 329.5,-627.5 329.5,-608.5 282.5,-608.5"/>
<text text-anchor="middle" x="306" y="-615.5" font-family="Helvetica,sans-Serif" font-size="10.00">TCP/IP</text>
</a>
</g>
</g>
<!-- Node2 -->
<g id="node6" class="node"><title>Node2</title>
<g id="a_node6"><a xlink:href="group__infra__client.html" target="_top" xlink:title="Client classes. ">
<polygon fill="white" stroke="black" points="285.5,-570.5 285.5,-589.5 326.5,-589.5 326.5,-570.5 285.5,-570.5"/>
<text text-anchor="middle" x="306" y="-577.5" font-family="Helvetica,sans-Serif" font-size="10.00">Client</text>
</a>
</g>
</g>
<!-- Node4 -->
<g id="node7" class="node"><title>Node4</title>
<g id="a_node7"><a xlink:href="group__infra__transport.html" target="_top" xlink:title="Superclasses for building transports. ">
<polygon fill="white" stroke="black" points="275,-532.5 275,-551.5 337,-551.5 337,-532.5 275,-532.5"/>
<text text-anchor="middle" x="306" y="-539.5" font-family="Helvetica,sans-Serif" font-size="10.00">Transports</text>
</a>
</g>
</g>
<!-- Node15 -->
<g id="node8" class="node"><title>Node15</title>
<g id="a_node8"><a xlink:href="group__serial__transport.html" target="_top" xlink:title="POSIX and Win32 serial port transport. ">
<polygon fill="white" stroke="black" points="275.5,-494.5 275.5,-513.5 336.5,-513.5 336.5,-494.5 275.5,-494.5"/>
<text text-anchor="middle" x="306" y="-501.5" font-family="Helvetica,sans-Serif" font-size="10.00">Serial port</text>
</a>
</g>
</g>
<!-- Node5 -->
<g id="node9" class="node"><title>Node5</title>
<g id="a_node9"><a xlink:href="group__infra__utility.html" target="_top" xlink:title="Utility code used by the infrastructure. ">
<polygon fill="white" stroke="black" points="281.5,-456.5 281.5,-475.5 330.5,-475.5 330.5,-456.5 281.5,-456.5"/>
<text text-anchor="middle" x="306" y="-463.5" font-family="Helvetica,sans-Serif" font-size="10.00">Utilities</text>
</a>
</g>
</g>
<!-- Node17 -->
<g id="node10" class="node"><title>Node17</title>
<g id="a_node10"><a xlink:href="group__spi__slave__transport.html" target="_top" xlink:title="Kinetis SDK SPI slave driver transport. ">
<polygon fill="white" stroke="black" points="276.5,-418.5 276.5,-437.5 335.5,-437.5 335.5,-418.5 276.5,-418.5"/>
<text text-anchor="middle" x="306" y="-425.5" font-family="Helvetica,sans-Serif" font-size="10.00">SPI Slave</text>
</a>
</g>
</g>
<!-- Node20 -->
<g id="node11" class="node"><title>Node20</title>
<g id="a_node11"><a xlink:href="group__uart__transport.html" target="_top" xlink:title="CMSIS UART driver transport. ">
<polygon fill="white" stroke="black" points="268,-380.5 268,-399.5 344,-399.5 344,-380.5 268,-380.5"/>
<text text-anchor="middle" x="306" y="-387.5" font-family="Helvetica,sans-Serif" font-size="10.00">CMSIS UART</text>
</a>
</g>
</g>
<!-- Node18 -->
<g id="node12" class="node"><title>Node18</title>
<g id="a_node12"><a xlink:href="group__spidev__master__transport.html" target="_top" xlink:title="SPIdev Linux transport. ">
<polygon fill="white" stroke="black" points="253,-342.5 253,-361.5 359,-361.5 359,-342.5 253,-342.5"/>
<text text-anchor="middle" x="306" y="-349.5" font-family="Helvetica,sans-Serif" font-size="10.00">SPIdev Linux Master</text>
</a>
</g>
</g>
<!-- Node16 -->
<g id="node13" class="node"><title>Node16</title>
<g id="a_node13"><a xlink:href="group__spi__master__transport.html" target="_top" xlink:title="Kinetis SDK SPI master driver transport. ">
<polygon fill="white" stroke="black" points="273.5,-304.5 273.5,-323.5 338.5,-323.5 338.5,-304.5 273.5,-304.5"/>
<text text-anchor="middle" x="306" y="-311.5" font-family="Helvetica,sans-Serif" font-size="10.00">SPI Master</text>
</a>
</g>
</g>
<!-- Node14 -->
<g id="node14" class="node"><title>Node14</title>
<g id="a_node14"><a xlink:href="group__rpmsg__tty__rtos__transport.html" target="_top" xlink:title="RPMsg TTY RTOS transport. ">
<polygon fill="white" stroke="black" points="257,-266.5 257,-285.5 355,-285.5 355,-266.5 257,-266.5"/>
<text text-anchor="middle" x="306" y="-273.5" font-family="Helvetica,sans-Serif" font-size="10.00">RPMsg TTY RTOS</text>
</a>
</g>
</g>
<!-- Node6 -->
<g id="node15" class="node"><title>Node6</title>
<g id="a_node15"><a xlink:href="group__infra__server.html" target="_top" xlink:title="Server classes. ">
<polygon fill="white" stroke="black" points="284,-228.5 284,-247.5 328,-247.5 328,-228.5 284,-228.5"/>
<text text-anchor="middle" x="306" y="-235.5" font-family="Helvetica,sans-Serif" font-size="10.00">Server</text>
</a>
</g>
</g>
<!-- Node10 -->
<g id="node16" class="node"><title>Node10</title>
<g id="a_node16"><a xlink:href="group__itbp__transport.html" target="_top" xlink:title="Simple inter&#45;thread communications transport. ">
<polygon fill="white" stroke="black" points="273.5,-190.5 273.5,-209.5 338.5,-209.5 338.5,-190.5 273.5,-190.5"/>
<text text-anchor="middle" x="306" y="-197.5" font-family="Helvetica,sans-Serif" font-size="10.00">Inter&#45;thread</text>
</a>
</g>
</g>
<!-- Node0&#45;&gt;Node9 -->
<g id="edge9" class="edge"><title>Node0&#45;&gt;Node9</title>
<path fill="none" stroke="blueviolet" stroke-dasharray="5,2" d="M162.584,-380.685C161.303,-420.133 160.418,-571.604 216,-677 226.703,-697.295 233.573,-700.793 253,-713 259.266,-716.938 266.468,-720.225 273.474,-722.898"/>
<text text-anchor="middle" x="225.5" y="-703" font-family="Helvetica,sans-Serif" font-size="10.00">erpc</text>
</g>
<!-- Node0&#45;&gt;Node8 -->
<g id="edge8" class="edge"><title>Node0&#45;&gt;Node8</title>
<path fill="none" stroke="blueviolet" stroke-dasharray="5,2" d="M162.897,-380.955C162.927,-417.678 166.687,-548.122 216,-639 226.943,-659.166 233.573,-662.793 253,-675 261.382,-680.267 271.437,-684.372 280.462,-687.396"/>
<text text-anchor="middle" x="225.5" y="-665" font-family="Helvetica,sans-Serif" font-size="10.00">erpc</text>
</g>
<!-- Node0&#45;&gt;Node11 -->
<g id="edge11" class="edge"><title>Node0&#45;&gt;Node11</title>
<path fill="none" stroke="blueviolet" stroke-dasharray="5,2" d="M163.317,-380.901C164.772,-414.182 172.777,-524.231 216,-601 227.256,-620.993 233.573,-624.793 253,-637 258.941,-640.733 265.722,-643.882 272.381,-646.477"/>
<text text-anchor="middle" x="225.5" y="-627" font-family="Helvetica,sans-Serif" font-size="10.00">erpc</text>
</g>
<!-- Node0&#45;&gt;Node19 -->
<g id="edge19" class="edge"><title>Node0&#45;&gt;Node19</title>
<path fill="none" stroke="blueviolet" stroke-dasharray="5,2" d="M163.946,-380.816C167.134,-410.196 179.416,-499.279 216,-562 227.717,-582.088 233.394,-586.492 253,-599 261.913,-604.686 272.768,-608.994 282.249,-612.058"/>
<text text-anchor="middle" x="225.5" y="-589" font-family="Helvetica,sans-Serif" font-size="10.00">erpc</text>
</g>
<!-- Node0&#45;&gt;Node2 -->
<g id="edge2" class="edge"><title>Node0&#45;&gt;Node2</title>
<path fill="none" stroke="blueviolet" stroke-dasharray="5,2" d="M164.811,-380.526C169.854,-405.449 185.723,-474.034 216,-523 228.397,-543.049 233.212,-548.19 253,-561 262.843,-567.372 275.115,-571.986 285.264,-575.07"/>
<text text-anchor="middle" x="225.5" y="-550" font-family="Helvetica,sans-Serif" font-size="10.00">erpc</text>
</g>
<!-- Node0&#45;&gt;Node4 -->
<g id="edge4" class="edge"><title>Node0&#45;&gt;Node4</title>
<path fill="none" stroke="blueviolet" stroke-dasharray="5,2" d="M165.437,-380.569C173.009,-408.14 198.937,-488.002 253,-523 259.616,-527.283 267.329,-530.772 274.757,-533.535"/>
<text text-anchor="middle" x="225.5" y="-511" font-family="Helvetica,sans-Serif" font-size="10.00">erpc</text>
</g>
<!-- Node0&#45;&gt;Node15 -->
<g id="edge15" class="edge"><title>Node0&#45;&gt;Node15</title>
<path fill="none" stroke="blueviolet" stroke-dasharray="5,2" d="M167.735,-380.791C179.077,-403.135 210.085,-458.034 253,-485 259.836,-489.296 267.785,-492.818 275.38,-495.612"/>
<text text-anchor="middle" x="225.5" y="-473" font-family="Helvetica,sans-Serif" font-size="10.00">erpc</text>
</g>
<!-- Node0&#45;&gt;Node5 -->
<g id="edge5" class="edge"><title>Node0&#45;&gt;Node5</title>
<path fill="none" stroke="blueviolet" stroke-dasharray="5,2" d="M172.085,-380.731C187.394,-396.62 219.911,-428.238 253,-447 261.863,-452.025 272.301,-456.146 281.491,-459.251"/>
<text text-anchor="middle" x="225.5" y="-437" font-family="Helvetica,sans-Serif" font-size="10.00">erpc</text>
</g>
<!-- Node0&#45;&gt;Node17 -->
<g id="edge17" class="edge"><title>Node0&#45;&gt;Node17</title>
<path fill="none" stroke="blueviolet" stroke-dasharray="5,2" d="M183.254,-380.536C193.077,-385.067 205.085,-390.469 216,-395 232.239,-401.741 236.52,-402.872 253,-409 261.378,-412.116 270.532,-415.475 278.792,-418.49"/>
<text text-anchor="middle" x="225.5" y="-405" font-family="Helvetica,sans-Serif" font-size="10.00">erpc</text>
</g>
<!-- Node0&#45;&gt;Node20 -->
<g id="edge20" class="edge"><title>Node0&#45;&gt;Node20</title>
<path fill="none" stroke="blueviolet" stroke-dasharray="5,2" d="M198.101,-375.697C219.291,-378.532 246.269,-382.142 267.822,-385.025"/>
<text text-anchor="middle" x="225.5" y="-383" font-family="Helvetica,sans-Serif" font-size="10.00">erpc</text>
</g>
<!-- Node0&#45;&gt;Node18 -->
<g id="edge18" class="edge"><title>Node0&#45;&gt;Node18</title>
<path fill="none" stroke="blueviolet" stroke-dasharray="5,2" d="M195.01,-361.433C201.88,-359.693 209.138,-358.088 216,-357 227.769,-355.135 240.511,-353.939 252.574,-353.179"/>
<text text-anchor="middle" x="225.5" y="-360" font-family="Helvetica,sans-Serif" font-size="10.00">erpc</text>
</g>
<!-- Node0&#45;&gt;Node16 -->
<g id="edge16" class="edge"><title>Node0&#45;&gt;Node16</title>
<path fill="none" stroke="blueviolet" stroke-dasharray="5,2" d="M176.837,-361.222C187.218,-354.246 201.993,-345.063 216,-339 234.411,-331.031 256.062,-324.883 273.399,-320.679"/>
<text text-anchor="middle" x="225.5" y="-342" font-family="Helvetica,sans-Serif" font-size="10.00">erpc</text>
</g>
<!-- Node0&#45;&gt;Node14 -->
<g id="edge14" class="edge"><title>Node0&#45;&gt;Node14</title>
<path fill="none" stroke="blueviolet" stroke-dasharray="5,2" d="M170.896,-361.229C180.664,-349.541 198.192,-329.823 216,-316 230.937,-304.406 235.839,-302.939 253,-295 260.415,-291.57 268.639,-288.323 276.316,-285.516"/>
<text text-anchor="middle" x="225.5" y="-319" font-family="Helvetica,sans-Serif" font-size="10.00">erpc</text>
</g>
<!-- Node0&#45;&gt;Node6 -->
<g id="edge6" class="edge"><title>Node0&#45;&gt;Node6</title>
<path fill="none" stroke="blueviolet" stroke-dasharray="5,2" d="M167.437,-361.324C178.357,-338.728 208.894,-282.479 253,-257 262.571,-251.471 274.037,-247.075 283.763,-243.91"/>
<text text-anchor="middle" x="225.5" y="-289" font-family="Helvetica,sans-Serif" font-size="10.00">erpc</text>
</g>
<!-- Node0&#45;&gt;Node10 -->
<g id="edge10" class="edge"><title>Node0&#45;&gt;Node10</title>
<path fill="none" stroke="blueviolet" stroke-dasharray="5,2" d="M166.04,-361.354C172.853,-340.63 190.748,-290.837 216,-255 229.216,-236.245 233.573,-231.207 253,-219 259.266,-215.062 266.468,-211.775 273.474,-209.102"/>
<text text-anchor="middle" x="225.5" y="-258" font-family="Helvetica,sans-Serif" font-size="10.00">erpc</text>
</g>
<!-- Node21 -->
<g id="node18" class="node"><title>Node21</title>
<g id="a_node18"><a xlink:href="group___u_s_b___c_d_c__transport.html" target="_top" xlink:title="USB CDC transport. ">
<polygon fill="white" stroke="black" points="276,-152.5 276,-171.5 336,-171.5 336,-152.5 276,-152.5"/>
<text text-anchor="middle" x="306" y="-159.5" font-family="Helvetica,sans-Serif" font-size="10.00">USB CDC</text>
</a>
</g>
</g>
<!-- Node0&#45;&gt;Node21 -->
<g id="edge21" class="edge"><title>Node0&#45;&gt;Node21</title>
<path fill="none" stroke="blueviolet" stroke-dasharray="5,2" d="M164.705,-361.3C169.494,-335.932 184.8,-266.186 216,-217 228.29,-197.625 233.573,-193.207 253,-181 259.999,-176.602 268.164,-173.015 275.922,-170.19"/>
<text text-anchor="middle" x="225.5" y="-220" font-family="Helvetica,sans-Serif" font-size="10.00">erpc</text>
</g>
<!-- Node3 -->
<g id="node19" class="node"><title>Node3</title>
<g id="a_node19"><a xlink:href="group__infra__codec.html" target="_top" xlink:title="Classes used for message serialization. ">
<polygon fill="white" stroke="black" points="271,-114.5 271,-133.5 341,-133.5 341,-114.5 271,-114.5"/>
<text text-anchor="middle" x="306" y="-121.5" font-family="Helvetica,sans-Serif" font-size="10.00">Serialization</text>
</a>
</g>
</g>
<!-- Node0&#45;&gt;Node3 -->
<g id="edge3" class="edge"><title>Node0&#45;&gt;Node3</title>
<path fill="none" stroke="blueviolet" stroke-dasharray="5,2" d="M163.799,-361.453C166.621,-332.069 178.089,-241.16 216,-178 227.649,-158.592 233.749,-154.908 253,-143 258.967,-139.309 265.759,-136.178 272.421,-133.588"/>
<text text-anchor="middle" x="225.5" y="-181" font-family="Helvetica,sans-Serif" font-size="10.00">erpc</text>
</g>
<!-- Node12 -->
<g id="node20" class="node"><title>Node12</title>
<g id="a_node20"><a xlink:href="group__rpmsg__lite__rtos__transport.html" target="_top" xlink:title="RPMsg&#45;Lite zero copy transport using RTOS API. ">
<polygon fill="white" stroke="black" points="257.5,-76.5 257.5,-95.5 354.5,-95.5 354.5,-76.5 257.5,-76.5"/>
<text text-anchor="middle" x="306" y="-83.5" font-family="Helvetica,sans-Serif" font-size="10.00">RPMsg&#45;Lite RTOS</text>
</a>
</g>
</g>
<!-- Node0&#45;&gt;Node12 -->
<g id="edge12" class="edge"><title>Node0&#45;&gt;Node12</title>
<path fill="none" stroke="blueviolet" stroke-dasharray="5,2" d="M163.247,-361.495C164.484,-328.564 171.889,-217.157 216,-140 227.235,-120.349 233.749,-116.908 253,-105 258.967,-101.309 265.759,-98.1779 272.421,-95.5877"/>
<text text-anchor="middle" x="225.5" y="-143" font-family="Helvetica,sans-Serif" font-size="10.00">erpc</text>
</g>
<!-- Node13 -->
<g id="node21" class="node"><title>Node13</title>
<g id="a_node21"><a xlink:href="group__rpmsg__lite__transport.html" target="_top" xlink:title="RPMsg&#45;Lite zero copy transport. ">
<polygon fill="white" stroke="black" points="272,-38.5 272,-57.5 340,-57.5 340,-38.5 272,-38.5"/>
<text text-anchor="middle" x="306" y="-45.5" font-family="Helvetica,sans-Serif" font-size="10.00">RPMsg&#45;Lite</text>
</a>
</g>
</g>
<!-- Node0&#45;&gt;Node13 -->
<g id="edge13" class="edge"><title>Node0&#45;&gt;Node13</title>
<path fill="none" stroke="blueviolet" stroke-dasharray="5,2" d="M162.797,-361.429C162.431,-324.975 164.863,-192.265 216,-101 226.917,-81.5169 233.923,-78.6111 253,-67 259.076,-63.3021 265.984,-60.1545 272.736,-57.548"/>
<text text-anchor="middle" x="225.5" y="-104" font-family="Helvetica,sans-Serif" font-size="10.00">erpc</text>
</g>
<!-- Node7 -->
<g id="node22" class="node"><title>Node7</title>
<g id="a_node22"><a xlink:href="group__port__setup__extensions.html" target="_top" xlink:title="Extension setup functions. ">
<polygon fill="white" stroke="black" points="261.5,-0.5 261.5,-19.5 350.5,-19.5 350.5,-0.5 261.5,-0.5"/>
<text text-anchor="middle" x="306" y="-7.5" font-family="Helvetica,sans-Serif" font-size="10.00">Extension Setup</text>
</a>
</g>
</g>
<!-- Node0&#45;&gt;Node7 -->
<g id="edge7" class="edge"><title>Node0&#45;&gt;Node7</title>
<path fill="none" stroke="blueviolet" stroke-dasharray="5,2" d="M163.831,-361.213C167.901,-314.781 186.723,-116.716 216,-63 227.877,-41.209 252.811,-27.5102 273.274,-19.5115"/>
<text text-anchor="middle" x="225.5" y="-66" font-family="Helvetica,sans-Serif" font-size="10.00">erpc</text>
</g>
</g>
</svg>
