<?xml version="1.0" encoding="UTF-8" standalone="no"?>
<!DOCTYPE svg PUBLIC "-//W3C//DTD SVG 1.1//EN"
 "http://www.w3.org/Graphics/SVG/1.1/DTD/svg11.dtd">
<!-- Generated by graphviz version 2.38.0 (20140413.2041)
 -->
<!-- Title: CMSIS UART Pages: 1 -->
<svg width="371pt" height="750pt"
 viewBox="0.00 0.00 371.00 750.00" xmlns="http://www.w3.org/2000/svg" xmlns:xlink="http://www.w3.org/1999/xlink">
<g id="graph0" class="graph" transform="scale(1 1) rotate(0) translate(4 746)">
<title>CMSIS UART</title>
<polygon fill="white" stroke="none" points="-4,4 -4,-746 367,-746 367,4 -4,4"/>
<!-- Node1 -->
<g id="node1" class="node"><title>Node1</title>
<g id="a_node1"><a xlink:href="group__transports.html" target="_top" xlink:title="Transport layer classes. ">
<polygon fill="white" stroke="black" points="0,-361.5 0,-380.5 89,-380.5 89,-361.5 0,-361.5"/>
<text text-anchor="middle" x="44.5" y="-368.5" font-family="Helvetica,sans-Serif" font-size="10.00">Transport Layers</text>
</a>
</g>
</g>
<!-- Node0 -->
<g id="node11" class="node"><title>Node0</title>
<polygon fill="#bfbfbf" stroke="black" points="126,-361.5 126,-380.5 202,-380.5 202,-361.5 126,-361.5"/>
<text text-anchor="middle" x="164" y="-368.5" font-family="Helvetica,sans-Serif" font-size="10.00">CMSIS UART</text>
</g>
<!-- Node1&#45;&gt;Node0 -->
<g id="edge1" class="edge"><title>Node1&#45;&gt;Node0</title>
<path fill="none" stroke="black" d="M99.257,-371C108.216,-371 117.332,-371 125.762,-371"/>
<polygon fill="black" stroke="black" points="99.2527,-367.5 89.2527,-371 99.2526,-374.5 99.2527,-367.5"/>
</g>
<!-- Node10 -->
<g id="node2" class="node"><title>Node10</title>
<g id="a_node2"><a xlink:href="group__dspi__slave__transport.html" target="_top" xlink:title="Kinetis SDK DSPI slave driver transport. ">
<polygon fill="white" stroke="black" points="277.5,-722.5 277.5,-741.5 342.5,-741.5 342.5,-722.5 277.5,-722.5"/>
<text text-anchor="middle" x="310" y="-729.5" font-family="Helvetica,sans-Serif" font-size="10.00">DSPI Slave</text>
</a>
</g>
</g>
<!-- Node8 -->
<g id="node3" class="node"><title>Node8</title>
<g id="a_node3"><a xlink:href="group__port__threads.html" target="_top" xlink:title="Threading model. ">
<polygon fill="white" stroke="black" points="284.5,-684.5 284.5,-703.5 335.5,-703.5 335.5,-684.5 284.5,-684.5"/>
<text text-anchor="middle" x="310" y="-691.5" font-family="Helvetica,sans-Serif" font-size="10.00">Threads</text>
</a>
</g>
</g>
<!-- Node12 -->
<g id="node4" class="node"><title>Node12</title>
<g id="a_node4"><a xlink:href="group__mu__transport.html" target="_top" xlink:title="Messaging Unit transport. ">
<polygon fill="white" stroke="black" points="268,-646.5 268,-665.5 352,-665.5 352,-646.5 268,-646.5"/>
<text text-anchor="middle" x="310" y="-653.5" font-family="Helvetica,sans-Serif" font-size="10.00">Messaging Unit</text>
</a>
</g>
</g>
<!-- Node20 -->
<g id="node5" class="node"><title>Node20</title>
<g id="a_node5"><a xlink:href="group__tcp__transport.html" target="_top" xlink:title="Simple TCP/IP transport. ">
<polygon fill="white" stroke="black" points="286.5,-608.5 286.5,-627.5 333.5,-627.5 333.5,-608.5 286.5,-608.5"/>
<text text-anchor="middle" x="310" y="-615.5" font-family="Helvetica,sans-Serif" font-size="10.00">TCP/IP</text>
</a>
</g>
</g>
<!-- Node2 -->
<g id="node6" class="node"><title>Node2</title>
<g id="a_node6"><a xlink:href="group__infra__client.html" target="_top" xlink:title="Client classes. ">
<polygon fill="white" stroke="black" points="289.5,-570.5 289.5,-589.5 330.5,-589.5 330.5,-570.5 289.5,-570.5"/>
<text text-anchor="middle" x="310" y="-577.5" font-family="Helvetica,sans-Serif" font-size="10.00">Client</text>
</a>
</g>
</g>
<!-- Node4 -->
<g id="node7" class="node"><title>Node4</title>
<g id="a_node7"><a xlink:href="group__infra__transport.html" target="_top" xlink:title="Superclasses for building transports. ">
<polygon fill="white" stroke="black" points="279,-532.5 279,-551.5 341,-551.5 341,-532.5 279,-532.5"/>
<text text-anchor="middle" x="310" y="-539.5" font-family="Helvetica,sans-Serif" font-size="10.00">Transports</text>
</a>
</g>
</g>
<!-- Node16 -->
<g id="node8" class="node"><title>Node16</title>
<g id="a_node8"><a xlink:href="group__serial__transport.html" target="_top" xlink:title="POSIX and Win32 serial port transport. ">
<polygon fill="white" stroke="black" points="279.5,-494.5 279.5,-513.5 340.5,-513.5 340.5,-494.5 279.5,-494.5"/>
<text text-anchor="middle" x="310" y="-501.5" font-family="Helvetica,sans-Serif" font-size="10.00">Serial port</text>
</a>
</g>
</g>
<!-- Node5 -->
<g id="node9" class="node"><title>Node5</title>
<g id="a_node9"><a xlink:href="group__infra__utility.html" target="_top" xlink:title="Utility code used by the infrastructure. ">
<polygon fill="white" stroke="black" points="285.5,-456.5 285.5,-475.5 334.5,-475.5 334.5,-456.5 285.5,-456.5"/>
<text text-anchor="middle" x="310" y="-463.5" font-family="Helvetica,sans-Serif" font-size="10.00">Utilities</text>
</a>
</g>
</g>
<!-- Node18 -->
<g id="node10" class="node"><title>Node18</title>
<g id="a_node10"><a xlink:href="group__spi__slave__transport.html" target="_top" xlink:title="Kinetis SDK SPI slave driver transport. ">
<polygon fill="white" stroke="black" points="280.5,-418.5 280.5,-437.5 339.5,-437.5 339.5,-418.5 280.5,-418.5"/>
<text text-anchor="middle" x="310" y="-425.5" font-family="Helvetica,sans-Serif" font-size="10.00">SPI Slave</text>
</a>
</g>
</g>
<!-- Node0&#45;&gt;Node10 -->
<g id="edge10" class="edge"><title>Node0&#45;&gt;Node10</title>
<path fill="none" stroke="blueviolet" stroke-dasharray="5,2" d="M164.664,-380.688C163.704,-420.149 164.021,-571.663 220,-677 230.767,-697.261 237.573,-700.793 257,-713 263.266,-716.938 270.468,-720.225 277.474,-722.898"/>
<text text-anchor="middle" x="229.5" y="-703" font-family="Helvetica,sans-Serif" font-size="10.00">erpc</text>
</g>
<!-- Node0&#45;&gt;Node8 -->
<g id="edge8" class="edge"><title>Node0&#45;&gt;Node8</title>
<path fill="none" stroke="blueviolet" stroke-dasharray="5,2" d="M164.99,-380.958C165.358,-417.692 170.29,-548.169 220,-639 231.015,-659.127 237.573,-662.793 257,-675 265.382,-680.267 275.437,-684.372 284.462,-687.396"/>
<text text-anchor="middle" x="229.5" y="-665" font-family="Helvetica,sans-Serif" font-size="10.00">erpc</text>
</g>
<!-- Node0&#45;&gt;Node12 -->
<g id="edge12" class="edge"><title>Node0&#45;&gt;Node12</title>
<path fill="none" stroke="blueviolet" stroke-dasharray="5,2" d="M165.424,-380.904C167.233,-414.192 176.377,-524.261 220,-601 231.339,-620.946 237.573,-624.793 257,-637 262.941,-640.733 269.722,-643.882 276.381,-646.477"/>
<text text-anchor="middle" x="229.5" y="-627" font-family="Helvetica,sans-Serif" font-size="10.00">erpc</text>
</g>
<!-- Node0&#45;&gt;Node20 -->
<g id="edge20" class="edge"><title>Node0&#45;&gt;Node20</title>
<path fill="none" stroke="blueviolet" stroke-dasharray="5,2" d="M166.072,-380.817C169.633,-410.199 183.011,-499.285 220,-562 231.815,-582.031 237.394,-586.492 257,-599 265.913,-604.686 276.768,-608.994 286.249,-612.058"/>
<text text-anchor="middle" x="229.5" y="-589" font-family="Helvetica,sans-Serif" font-size="10.00">erpc</text>
</g>
<!-- Node0&#45;&gt;Node2 -->
<g id="edge2" class="edge"><title>Node0&#45;&gt;Node2</title>
<path fill="none" stroke="blueviolet" stroke-dasharray="5,2" d="M166.963,-380.523C172.398,-405.439 189.31,-474.008 220,-523 232.514,-542.976 237.212,-548.19 257,-561 266.843,-567.372 279.115,-571.986 289.264,-575.07"/>
<text text-anchor="middle" x="229.5" y="-550" font-family="Helvetica,sans-Serif" font-size="10.00">erpc</text>
</g>
<!-- Node0&#45;&gt;Node4 -->
<g id="edge4" class="edge"><title>Node0&#45;&gt;Node4</title>
<path fill="none" stroke="blueviolet" stroke-dasharray="5,2" d="M167.577,-380.55C175.55,-408.067 202.623,-487.798 257,-523 263.616,-527.283 271.329,-530.772 278.757,-533.535"/>
<text text-anchor="middle" x="229.5" y="-511" font-family="Helvetica,sans-Serif" font-size="10.00">erpc</text>
</g>
<!-- Node0&#45;&gt;Node16 -->
<g id="edge16" class="edge"><title>Node0&#45;&gt;Node16</title>
<path fill="none" stroke="blueviolet" stroke-dasharray="5,2" d="M169.921,-380.759C181.686,-403.036 213.716,-457.802 257,-485 263.836,-489.296 271.785,-492.818 279.38,-495.612"/>
<text text-anchor="middle" x="229.5" y="-473" font-family="Helvetica,sans-Serif" font-size="10.00">erpc</text>
</g>
<!-- Node0&#45;&gt;Node5 -->
<g id="edge5" class="edge"><title>Node0&#45;&gt;Node5</title>
<path fill="none" stroke="blueviolet" stroke-dasharray="5,2" d="M174.355,-380.676C190.102,-396.486 223.479,-427.994 257,-447 265.863,-452.025 276.301,-456.146 285.491,-459.251"/>
<text text-anchor="middle" x="229.5" y="-437" font-family="Helvetica,sans-Serif" font-size="10.00">erpc</text>
</g>
<!-- Node0&#45;&gt;Node18 -->
<g id="edge18" class="edge"><title>Node0&#45;&gt;Node18</title>
<path fill="none" stroke="blueviolet" stroke-dasharray="5,2" d="M186.313,-380.594C196.465,-385.089 208.807,-390.444 220,-395 236.285,-401.629 240.52,-402.872 257,-409 265.378,-412.116 274.532,-415.475 282.792,-418.49"/>
<text text-anchor="middle" x="229.5" y="-405" font-family="Helvetica,sans-Serif" font-size="10.00">erpc</text>
</g>
<!-- Node19 -->
<g id="node12" class="node"><title>Node19</title>
<g id="a_node12"><a xlink:href="group__spidev__master__transport.html" target="_top" xlink:title="SPIdev Linux transport. ">
<polygon fill="white" stroke="black" points="257,-380.5 257,-399.5 363,-399.5 363,-380.5 257,-380.5"/>
<text text-anchor="middle" x="310" y="-387.5" font-family="Helvetica,sans-Serif" font-size="10.00">SPIdev Linux Master</text>
</a>
</g>
</g>
<!-- Node0&#45;&gt;Node19 -->
<g id="edge19" class="edge"><title>Node0&#45;&gt;Node19</title>
<path fill="none" stroke="blueviolet" stroke-dasharray="5,2" d="M202.084,-375.893C218.75,-378.092 238.71,-380.726 256.847,-383.119"/>
<text text-anchor="middle" x="229.5" y="-383" font-family="Helvetica,sans-Serif" font-size="10.00">erpc</text>
</g>
<!-- Node17 -->
<g id="node13" class="node"><title>Node17</title>
<g id="a_node13"><a xlink:href="group__spi__master__transport.html" target="_top" xlink:title="Kinetis SDK SPI master driver transport. ">
<polygon fill="white" stroke="black" points="277.5,-342.5 277.5,-361.5 342.5,-361.5 342.5,-342.5 277.5,-342.5"/>
<text text-anchor="middle" x="310" y="-349.5" font-family="Helvetica,sans-Serif" font-size="10.00">SPI Master</text>
</a>
</g>
</g>
<!-- Node0&#45;&gt;Node17 -->
<g id="edge17" class="edge"><title>Node0&#45;&gt;Node17</title>
<path fill="none" stroke="blueviolet" stroke-dasharray="5,2" d="M198.236,-361.443C205.364,-359.702 212.891,-358.094 220,-357 238.814,-354.105 260.094,-352.838 277.128,-352.302"/>
<text text-anchor="middle" x="229.5" y="-360" font-family="Helvetica,sans-Serif" font-size="10.00">erpc</text>
</g>
<!-- Node15 -->
<g id="node14" class="node"><title>Node15</title>
<g id="a_node14"><a xlink:href="group__rpmsg__tty__rtos__transport.html" target="_top" xlink:title="RPMsg TTY RTOS transport. ">
<polygon fill="white" stroke="black" points="261,-304.5 261,-323.5 359,-323.5 359,-304.5 261,-304.5"/>
<text text-anchor="middle" x="310" y="-311.5" font-family="Helvetica,sans-Serif" font-size="10.00">RPMsg TTY RTOS</text>
</a>
</g>
</g>
<!-- Node0&#45;&gt;Node15 -->
<g id="edge15" class="edge"><title>Node0&#45;&gt;Node15</title>
<path fill="none" stroke="blueviolet" stroke-dasharray="5,2" d="M179.412,-361.252C190.211,-354.291 205.554,-345.114 220,-339 234.78,-332.744 251.593,-327.561 266.596,-323.567"/>
<text text-anchor="middle" x="229.5" y="-342" font-family="Helvetica,sans-Serif" font-size="10.00">erpc</text>
</g>
<!-- Node6 -->
<g id="node15" class="node"><title>Node6</title>
<g id="a_node15"><a xlink:href="group__infra__server.html" target="_top" xlink:title="Server classes. ">
<polygon fill="white" stroke="black" points="288,-266.5 288,-285.5 332,-285.5 332,-266.5 288,-266.5"/>
<text text-anchor="middle" x="310" y="-273.5" font-family="Helvetica,sans-Serif" font-size="10.00">Server</text>
</a>
</g>
</g>
<!-- Node0&#45;&gt;Node6 -->
<g id="edge6" class="edge"><title>Node0&#45;&gt;Node6</title>
<path fill="none" stroke="blueviolet" stroke-dasharray="5,2" d="M173.267,-361.258C183.475,-349.598 201.736,-329.908 220,-316 235.043,-304.545 239.839,-302.939 257,-295 266.945,-290.4 278.344,-286.129 287.931,-282.806"/>
<text text-anchor="middle" x="229.5" y="-319" font-family="Helvetica,sans-Serif" font-size="10.00">erpc</text>
</g>
<!-- Node11 -->
<g id="node16" class="node"><title>Node11</title>
<g id="a_node16"><a xlink:href="group__itbp__transport.html" target="_top" xlink:title="Simple inter&#45;thread communications transport. ">
<polygon fill="white" stroke="black" points="277.5,-228.5 277.5,-247.5 342.5,-247.5 342.5,-228.5 277.5,-228.5"/>
<text text-anchor="middle" x="310" y="-235.5" font-family="Helvetica,sans-Serif" font-size="10.00">Inter&#45;thread</text>
</a>
</g>
</g>
<!-- Node0&#45;&gt;Node11 -->
<g id="edge11" class="edge"><title>Node0&#45;&gt;Node11</title>
<path fill="none" stroke="blueviolet" stroke-dasharray="5,2" d="M169.616,-361.353C180.952,-338.82 212.515,-282.698 257,-257 263.325,-253.346 270.478,-250.187 277.409,-247.551"/>
<text text-anchor="middle" x="229.5" y="-290" font-family="Helvetica,sans-Serif" font-size="10.00">erpc</text>
</g>
<!-- Node9 -->
<g id="node17" class="node"><title>Node9</title>
<g id="a_node17"><a xlink:href="group__dspi__master__transport.html" target="_top" xlink:title="Kinetis SDK DSPI master driver transport. ">
<polygon fill="white" stroke="black" points="274,-190.5 274,-209.5 346,-209.5 346,-190.5 274,-190.5"/>
<text text-anchor="middle" x="310" y="-197.5" font-family="Helvetica,sans-Serif" font-size="10.00">DSPI Master</text>
</a>
</g>
</g>
<!-- Node0&#45;&gt;Node9 -->
<g id="edge9" class="edge"><title>Node0&#45;&gt;Node9</title>
<path fill="none" stroke="blueviolet" stroke-dasharray="5,2" d="M168.237,-361.362C175.465,-340.656 194.326,-290.893 220,-255 233.348,-236.339 237.573,-231.207 257,-219 262.941,-215.267 269.722,-212.118 276.381,-209.523"/>
<text text-anchor="middle" x="229.5" y="-258" font-family="Helvetica,sans-Serif" font-size="10.00">erpc</text>
</g>
<!-- Node21 -->
<g id="node18" class="node"><title>Node21</title>
<g id="a_node18"><a xlink:href="group___u_s_b___c_d_c__transport.html" target="_top" xlink:title="USB CDC transport. ">
<polygon fill="white" stroke="black" points="280,-152.5 280,-171.5 340,-171.5 340,-152.5 280,-152.5"/>
<text text-anchor="middle" x="310" y="-159.5" font-family="Helvetica,sans-Serif" font-size="10.00">USB CDC</text>
</a>
</g>
</g>
<!-- Node0&#45;&gt;Node21 -->
<g id="edge21" class="edge"><title>Node0&#45;&gt;Node21</title>
<path fill="none" stroke="blueviolet" stroke-dasharray="5,2" d="M166.857,-361.302C172.038,-335.939 188.388,-266.204 220,-217 232.402,-197.697 237.573,-193.207 257,-181 263.999,-176.602 272.164,-173.015 279.922,-170.19"/>
<text text-anchor="middle" x="229.5" y="-220" font-family="Helvetica,sans-Serif" font-size="10.00">erpc</text>
</g>
<!-- Node3 -->
<g id="node19" class="node"><title>Node3</title>
<g id="a_node19"><a xlink:href="group__infra__codec.html" target="_top" xlink:title="Classes used for message serialization. ">
<polygon fill="white" stroke="black" points="275,-114.5 275,-133.5 345,-133.5 345,-114.5 275,-114.5"/>
<text text-anchor="middle" x="310" y="-121.5" font-family="Helvetica,sans-Serif" font-size="10.00">Serialization</text>
</a>
</g>
</g>
<!-- Node0&#45;&gt;Node3 -->
<g id="edge3" class="edge"><title>Node0&#45;&gt;Node3</title>
<path fill="none" stroke="blueviolet" stroke-dasharray="5,2" d="M165.92,-361.452C169.11,-332.064 181.683,-241.147 220,-178 231.743,-158.648 237.749,-154.908 257,-143 262.967,-139.309 269.759,-136.178 276.421,-133.588"/>
<text text-anchor="middle" x="229.5" y="-181" font-family="Helvetica,sans-Serif" font-size="10.00">erpc</text>
</g>
<!-- Node13 -->
<g id="node20" class="node"><title>Node13</title>
<g id="a_node20"><a xlink:href="group__rpmsg__lite__rtos__transport.html" target="_top" xlink:title="RPMsg&#45;Lite zero copy transport using RTOS API. ">
<polygon fill="white" stroke="black" points="261.5,-76.5 261.5,-95.5 358.5,-95.5 358.5,-76.5 261.5,-76.5"/>
<text text-anchor="middle" x="310" y="-83.5" font-family="Helvetica,sans-Serif" font-size="10.00">RPMsg&#45;Lite RTOS</text>
</a>
</g>
</g>
<!-- Node0&#45;&gt;Node13 -->
<g id="edge13" class="edge"><title>Node0&#45;&gt;Node13</title>
<path fill="none" stroke="blueviolet" stroke-dasharray="5,2" d="M165.349,-361.492C166.935,-328.553 175.488,-217.123 220,-140 231.315,-120.395 237.749,-116.908 257,-105 262.967,-101.309 269.759,-98.1779 276.421,-95.5877"/>
<text text-anchor="middle" x="229.5" y="-143" font-family="Helvetica,sans-Serif" font-size="10.00">erpc</text>
</g>
<!-- Node14 -->
<g id="node21" class="node"><title>Node14</title>
<g id="a_node21"><a xlink:href="group__rpmsg__lite__transport.html" target="_top" xlink:title="RPMsg&#45;Lite zero copy transport. ">
<polygon fill="white" stroke="black" points="276,-38.5 276,-57.5 344,-57.5 344,-38.5 276,-38.5"/>
<text text-anchor="middle" x="310" y="-45.5" font-family="Helvetica,sans-Serif" font-size="10.00">RPMsg&#45;Lite</text>
</a>
</g>
</g>
<!-- Node0&#45;&gt;Node14 -->
<g id="edge14" class="edge"><title>Node0&#45;&gt;Node14</title>
<path fill="none" stroke="blueviolet" stroke-dasharray="5,2" d="M164.885,-361.426C164.853,-324.959 168.465,-192.212 220,-101 230.986,-81.5559 237.923,-78.6111 257,-67 263.076,-63.3021 269.984,-60.1545 276.736,-57.548"/>
<text text-anchor="middle" x="229.5" y="-104" font-family="Helvetica,sans-Serif" font-size="10.00">erpc</text>
</g>
<!-- Node7 -->
<g id="node22" class="node"><title>Node7</title>
<g id="a_node22"><a xlink:href="group__port__setup__extensions.html" target="_top" xlink:title="Extension setup functions. ">
<polygon fill="white" stroke="black" points="265.5,-0.5 265.5,-19.5 354.5,-19.5 354.5,-0.5 265.5,-0.5"/>
<text text-anchor="middle" x="310" y="-7.5" font-family="Helvetica,sans-Serif" font-size="10.00">Extension Setup</text>
</a>
</g>
</g>
<!-- Node0&#45;&gt;Node7 -->
<g id="edge7" class="edge"><title>Node0&#45;&gt;Node7</title>
<path fill="none" stroke="blueviolet" stroke-dasharray="5,2" d="M164.572,-361.472C163.217,-322.003 162.089,-168.461 220,-63 231.945,-41.2465 256.874,-27.5448 277.318,-19.5354"/>
<text text-anchor="middle" x="229.5" y="-66" font-family="Helvetica,sans-Serif" font-size="10.00">erpc</text>
</g>
</g>
</svg>
