<?xml version="1.0" encoding="UTF-8" standalone="no"?>
<!DOCTYPE svg PUBLIC "-//W3C//DTD SVG 1.1//EN"
 "http://www.w3.org/Graphics/SVG/1.1/DTD/svg11.dtd">
<!-- Generated by graphviz version 2.38.0 (20140413.2041)
 -->
<!-- Title: Utilities Pages: 1 -->
<svg width="332pt" height="902pt"
 viewBox="0.00 0.00 332.00 902.00" xmlns="http://www.w3.org/2000/svg" xmlns:xlink="http://www.w3.org/1999/xlink">
<g id="graph0" class="graph" transform="scale(1 1) rotate(0) translate(4 898)">
<title>Utilities</title>
<polygon fill="white" stroke="none" points="-4,4 -4,-898 328,-898 328,4 -4,4"/>
<!-- Node9 -->
<g id="node1" class="node"><title>Node9</title>
<g id="a_node1"><a xlink:href="group__dspi__slave__transport.html" target="_top" xlink:title="MCUXpressoSDK DSPI slave driver transport. ">
<polygon fill="white" stroke="black" points="236.5,-874.5 236.5,-893.5 301.5,-893.5 301.5,-874.5 236.5,-874.5"/>
<text text-anchor="middle" x="269" y="-881.5" font-family="Helvetica,sans-Serif" font-size="10.00">DSPI Slave</text>
</a>
</g>
</g>
<!-- Node10 -->
<g id="node2" class="node"><title>Node10</title>
<g id="a_node2"><a xlink:href="group__i2c__slave__transport.html" target="_top" xlink:title="MCUXpressoSDK I2C slave driver transport. ">
<polygon fill="white" stroke="black" points="240.5,-836.5 240.5,-855.5 297.5,-855.5 297.5,-836.5 240.5,-836.5"/>
<text text-anchor="middle" x="269" y="-843.5" font-family="Helvetica,sans-Serif" font-size="10.00">I2C Slave</text>
</a>
</g>
</g>
<!-- Node7 -->
<g id="node3" class="node"><title>Node7</title>
<g id="a_node3"><a xlink:href="group__port__threads.html" target="_top" xlink:title="Threading model. ">
<polygon fill="white" stroke="black" points="243.5,-798.5 243.5,-817.5 294.5,-817.5 294.5,-798.5 243.5,-798.5"/>
<text text-anchor="middle" x="269" y="-805.5" font-family="Helvetica,sans-Serif" font-size="10.00">Threads</text>
</a>
</g>
</g>
<!-- Node14 -->
<g id="node4" class="node"><title>Node14</title>
<g id="a_node4"><a xlink:href="group__mbox__transport.html" target="_top" xlink:title="Mbox_transport">
<polygon fill="white" stroke="black" points="227,-760.5 227,-779.5 311,-779.5 311,-760.5 227,-760.5"/>
<text text-anchor="middle" x="269" y="-767.5" font-family="Helvetica,sans-Serif" font-size="10.00">Mbox_transport</text>
</a>
</g>
</g>
<!-- Node15 -->
<g id="node5" class="node"><title>Node15</title>
<g id="a_node5"><a xlink:href="group__mu__transport.html" target="_top" xlink:title="Messaging Unit transport. ">
<polygon fill="white" stroke="black" points="227,-722.5 227,-741.5 311,-741.5 311,-722.5 227,-722.5"/>
<text text-anchor="middle" x="269" y="-729.5" font-family="Helvetica,sans-Serif" font-size="10.00">Messaging Unit</text>
</a>
</g>
</g>
<!-- Node23 -->
<g id="node6" class="node"><title>Node23</title>
<g id="a_node6"><a xlink:href="group__tcp__transport.html" target="_top" xlink:title="Simple TCP/IP transport. ">
<polygon fill="white" stroke="black" points="245.5,-684.5 245.5,-703.5 292.5,-703.5 292.5,-684.5 245.5,-684.5"/>
<text text-anchor="middle" x="269" y="-691.5" font-family="Helvetica,sans-Serif" font-size="10.00">TCP/IP</text>
</a>
</g>
</g>
<!-- Node1 -->
<g id="node7" class="node"><title>Node1</title>
<g id="a_node7"><a xlink:href="group__infra.html" target="_top" xlink:title="C++ core. ">
<polygon fill="white" stroke="black" points="0,-437.5 0,-456.5 73,-456.5 73,-437.5 0,-437.5"/>
<text text-anchor="middle" x="36.5" y="-444.5" font-family="Helvetica,sans-Serif" font-size="10.00">Infrastructure</text>
</a>
</g>
</g>
<!-- Node0 -->
<g id="node11" class="node"><title>Node0</title>
<polygon fill="#bfbfbf" stroke="black" points="110,-437.5 110,-456.5 159,-456.5 159,-437.5 110,-437.5"/>
<text text-anchor="middle" x="134.5" y="-444.5" font-family="Helvetica,sans-Serif" font-size="10.00">Utilities</text>
</g>
<!-- Node1&#45;&gt;Node0 -->
<g id="edge1" class="edge"><title>Node1&#45;&gt;Node0</title>
<path fill="none" stroke="black" d="M83.4896,-447C92.662,-447 101.933,-447 109.958,-447"/>
<polygon fill="black" stroke="black" points="83.2469,-443.5 73.2469,-447 83.2468,-450.5 83.2469,-443.5"/>
</g>
<!-- Node2 -->
<g id="node8" class="node"><title>Node2</title>
<g id="a_node8"><a xlink:href="group__infra__client.html" target="_top" xlink:title="Client classes. ">
<polygon fill="white" stroke="black" points="248.5,-646.5 248.5,-665.5 289.5,-665.5 289.5,-646.5 248.5,-646.5"/>
<text text-anchor="middle" x="269" y="-653.5" font-family="Helvetica,sans-Serif" font-size="10.00">Client</text>
</a>
</g>
</g>
<!-- Node4 -->
<g id="node9" class="node"><title>Node4</title>
<g id="a_node9"><a xlink:href="group__infra__transport.html" target="_top" xlink:title="Superclasses for building transports. ">
<polygon fill="white" stroke="black" points="238,-608.5 238,-627.5 300,-627.5 300,-608.5 238,-608.5"/>
<text text-anchor="middle" x="269" y="-615.5" font-family="Helvetica,sans-Serif" font-size="10.00">Transports</text>
</a>
</g>
</g>
<!-- Node19 -->
<g id="node10" class="node"><title>Node19</title>
<g id="a_node10"><a xlink:href="group__serial__transport.html" target="_top" xlink:title="POSIX and Win32 serial port transport. ">
<polygon fill="white" stroke="black" points="238.5,-570.5 238.5,-589.5 299.5,-589.5 299.5,-570.5 238.5,-570.5"/>
<text text-anchor="middle" x="269" y="-577.5" font-family="Helvetica,sans-Serif" font-size="10.00">Serial port</text>
</a>
</g>
</g>
<!-- Node0&#45;&gt;Node9 -->
<g id="edge9" class="edge"><title>Node0&#45;&gt;Node9</title>
<path fill="none" stroke="blueviolet" stroke-dasharray="5,2" d="M135.652,-456.593C136.613,-509.058 142.965,-761.399 177,-830 188.512,-853.204 214.949,-867.229 236.377,-875.147"/>
<text text-anchor="middle" x="186.5" y="-854" font-family="Helvetica,sans-Serif" font-size="10.00">erpc</text>
</g>
<!-- Node0&#45;&gt;Node10 -->
<g id="edge10" class="edge"><title>Node0&#45;&gt;Node10</title>
<path fill="none" stroke="blueviolet" stroke-dasharray="5,2" d="M135.781,-456.597C137.355,-505.893 146.14,-730.708 177,-792 187.18,-812.218 194.678,-815.207 214,-827 222.059,-831.919 231.573,-835.803 240.353,-838.744"/>
<text text-anchor="middle" x="186.5" y="-818" font-family="Helvetica,sans-Serif" font-size="10.00">erpc</text>
</g>
<!-- Node0&#45;&gt;Node7 -->
<g id="edge7" class="edge"><title>Node0&#45;&gt;Node7</title>
<path fill="none" stroke="blueviolet" stroke-dasharray="5,2" d="M135.968,-456.697C138.316,-502.709 149.789,-699.024 177,-753 187.328,-773.488 194.5,-776.91 214,-789 222.953,-794.551 233.75,-798.763 243.329,-801.793"/>
<text text-anchor="middle" x="186.5" y="-780" font-family="Helvetica,sans-Serif" font-size="10.00">erpc</text>
</g>
<!-- Node0&#45;&gt;Node14 -->
<g id="edge14" class="edge"><title>Node0&#45;&gt;Node14</title>
<path fill="none" stroke="blueviolet" stroke-dasharray="5,2" d="M136.17,-456.601C139.242,-498.856 152.874,-668.243 177,-715 187.521,-735.389 194.5,-738.91 214,-751 219.997,-754.718 226.821,-757.836 233.553,-760.399"/>
<text text-anchor="middle" x="186.5" y="-741" font-family="Helvetica,sans-Serif" font-size="10.00">erpc</text>
</g>
<!-- Node0&#45;&gt;Node15 -->
<g id="edge15" class="edge"><title>Node0&#45;&gt;Node15</title>
<path fill="none" stroke="blueviolet" stroke-dasharray="5,2" d="M135.2,-456.882C134.607,-490.102 136.036,-599.979 177,-677 187.774,-697.257 194.5,-700.91 214,-713 219.997,-716.718 226.821,-719.836 233.553,-722.399"/>
<text text-anchor="middle" x="186.5" y="-703" font-family="Helvetica,sans-Serif" font-size="10.00">erpc</text>
</g>
<!-- Node0&#45;&gt;Node23 -->
<g id="edge23" class="edge"><title>Node0&#45;&gt;Node23</title>
<path fill="none" stroke="blueviolet" stroke-dasharray="5,2" d="M135.663,-456.878C136.547,-486.44 142.124,-576.059 177,-639 188.12,-659.069 194.5,-662.91 214,-675 223.629,-680.97 235.391,-685.391 245.476,-688.458"/>
<text text-anchor="middle" x="186.5" y="-665" font-family="Helvetica,sans-Serif" font-size="10.00">erpc</text>
</g>
<!-- Node0&#45;&gt;Node2 -->
<g id="edge2" class="edge"><title>Node0&#45;&gt;Node2</title>
<path fill="none" stroke="blueviolet" stroke-dasharray="5,2" d="M136.378,-456.616C139.025,-481.766 148.577,-550.943 177,-600 188.659,-620.122 194.319,-624.61 214,-637 224.513,-643.618 237.634,-648.304 248.31,-651.365"/>
<text text-anchor="middle" x="186.5" y="-627" font-family="Helvetica,sans-Serif" font-size="10.00">erpc</text>
</g>
<!-- Node0&#45;&gt;Node4 -->
<g id="edge4" class="edge"><title>Node0&#45;&gt;Node4</title>
<path fill="none" stroke="blueviolet" stroke-dasharray="5,2" d="M137.691,-456.558C142.572,-476.63 155.625,-524.188 177,-559 189.671,-579.637 193.761,-585.701 214,-599 221.226,-603.748 229.777,-607.463 237.919,-610.299"/>
<text text-anchor="middle" x="186.5" y="-588" font-family="Helvetica,sans-Serif" font-size="10.00">erpc</text>
</g>
<!-- Node0&#45;&gt;Node19 -->
<g id="edge19" class="edge"><title>Node0&#45;&gt;Node19</title>
<path fill="none" stroke="blueviolet" stroke-dasharray="5,2" d="M139.022,-456.625C147.794,-479.111 172.922,-535.139 214,-561 221.401,-565.659 230.095,-569.361 238.318,-572.212"/>
<text text-anchor="middle" x="186.5" y="-547" font-family="Helvetica,sans-Serif" font-size="10.00">erpc</text>
</g>
<!-- Node21 -->
<g id="node12" class="node"><title>Node21</title>
<g id="a_node12"><a xlink:href="group__spi__slave__transport.html" target="_top" xlink:title="MCUXpressoSDK SPI slave driver transport. ">
<polygon fill="white" stroke="black" points="239.5,-532.5 239.5,-551.5 298.5,-551.5 298.5,-532.5 239.5,-532.5"/>
<text text-anchor="middle" x="269" y="-539.5" font-family="Helvetica,sans-Serif" font-size="10.00">SPI Slave</text>
</a>
</g>
</g>
<!-- Node0&#45;&gt;Node21 -->
<g id="edge21" class="edge"><title>Node0&#45;&gt;Node21</title>
<path fill="none" stroke="blueviolet" stroke-dasharray="5,2" d="M142.615,-456.501C155.203,-472.634 183.014,-505.347 214,-523 221.858,-527.477 230.953,-531.172 239.412,-534.075"/>
<text text-anchor="middle" x="186.5" y="-512" font-family="Helvetica,sans-Serif" font-size="10.00">erpc</text>
</g>
<!-- Node24 -->
<g id="node13" class="node"><title>Node24</title>
<g id="a_node13"><a xlink:href="group__uart__transport.html" target="_top" xlink:title="CMSIS UART driver transport. ">
<polygon fill="white" stroke="black" points="231,-494.5 231,-513.5 307,-513.5 307,-494.5 231,-494.5"/>
<text text-anchor="middle" x="269" y="-501.5" font-family="Helvetica,sans-Serif" font-size="10.00">CMSIS UART</text>
</a>
</g>
</g>
<!-- Node0&#45;&gt;Node24 -->
<g id="edge24" class="edge"><title>Node0&#45;&gt;Node24</title>
<path fill="none" stroke="blueviolet" stroke-dasharray="5,2" d="M151.819,-456.643C159.37,-460.949 168.526,-465.953 177,-470 196.936,-479.523 220.298,-488.203 238.359,-494.409"/>
<text text-anchor="middle" x="186.5" y="-480" font-family="Helvetica,sans-Serif" font-size="10.00">erpc</text>
</g>
<!-- Node22 -->
<g id="node14" class="node"><title>Node22</title>
<g id="a_node14"><a xlink:href="group__spidev__master__transport.html" target="_top" xlink:title="SPIdev Linux transport. ">
<polygon fill="white" stroke="black" points="216,-456.5 216,-475.5 322,-475.5 322,-456.5 216,-456.5"/>
<text text-anchor="middle" x="269" y="-463.5" font-family="Helvetica,sans-Serif" font-size="10.00">SPIdev Linux Master</text>
</a>
</g>
</g>
<!-- Node0&#45;&gt;Node22 -->
<g id="edge22" class="edge"><title>Node0&#45;&gt;Node22</title>
<path fill="none" stroke="blueviolet" stroke-dasharray="5,2" d="M159.188,-450.397C174.969,-452.66 196.337,-455.724 215.959,-458.538"/>
<text text-anchor="middle" x="186.5" y="-458" font-family="Helvetica,sans-Serif" font-size="10.00">erpc</text>
</g>
<!-- Node20 -->
<g id="node15" class="node"><title>Node20</title>
<g id="a_node15"><a xlink:href="group__spi__master__transport.html" target="_top" xlink:title="MCUXpressoSDK SPI master driver transport. ">
<polygon fill="white" stroke="black" points="236.5,-418.5 236.5,-437.5 301.5,-437.5 301.5,-418.5 236.5,-418.5"/>
<text text-anchor="middle" x="269" y="-425.5" font-family="Helvetica,sans-Serif" font-size="10.00">SPI Master</text>
</a>
</g>
</g>
<!-- Node0&#45;&gt;Node20 -->
<g id="edge20" class="edge"><title>Node0&#45;&gt;Node20</title>
<path fill="none" stroke="blueviolet" stroke-dasharray="5,2" d="M159.343,-437.733C165.048,-435.858 171.176,-434.121 177,-433 196.422,-429.262 218.573,-427.983 236.158,-427.652"/>
<text text-anchor="middle" x="186.5" y="-436" font-family="Helvetica,sans-Serif" font-size="10.00">erpc</text>
</g>
<!-- Node18 -->
<g id="node16" class="node"><title>Node18</title>
<g id="a_node16"><a xlink:href="group__rpmsg__tty__rtos__transport.html" target="_top" xlink:title="RPMsg TTY RTOS transport. ">
<polygon fill="white" stroke="black" points="220,-380.5 220,-399.5 318,-399.5 318,-380.5 220,-380.5"/>
<text text-anchor="middle" x="269" y="-387.5" font-family="Helvetica,sans-Serif" font-size="10.00">RPMsg TTY RTOS</text>
</a>
</g>
</g>
<!-- Node0&#45;&gt;Node18 -->
<g id="edge18" class="edge"><title>Node0&#45;&gt;Node18</title>
<path fill="none" stroke="blueviolet" stroke-dasharray="5,2" d="M146.052,-437.405C154.04,-430.587 165.557,-421.669 177,-416 191.134,-408.998 207.465,-403.592 222.357,-399.568"/>
<text text-anchor="middle" x="186.5" y="-419" font-family="Helvetica,sans-Serif" font-size="10.00">erpc</text>
</g>
<!-- Node5 -->
<g id="node17" class="node"><title>Node5</title>
<g id="a_node17"><a xlink:href="group__infra__server.html" target="_top" xlink:title="Server classes. ">
<polygon fill="white" stroke="black" points="247,-342.5 247,-361.5 291,-361.5 291,-342.5 247,-342.5"/>
<text text-anchor="middle" x="269" y="-349.5" font-family="Helvetica,sans-Serif" font-size="10.00">Server</text>
</a>
</g>
</g>
<!-- Node0&#45;&gt;Node5 -->
<g id="edge5" class="edge"><title>Node0&#45;&gt;Node5</title>
<path fill="none" stroke="blueviolet" stroke-dasharray="5,2" d="M141.66,-437.166C149.081,-425.84 162.387,-407.112 177,-394 197.333,-375.755 226.952,-364.092 246.821,-357.8"/>
<text text-anchor="middle" x="186.5" y="-397" font-family="Helvetica,sans-Serif" font-size="10.00">erpc</text>
</g>
<!-- Node12 -->
<g id="node18" class="node"><title>Node12</title>
<g id="a_node18"><a xlink:href="group__lpi2c__slave__transport.html" target="_top" xlink:title="Lpi2c_slave_transport">
<polygon fill="white" stroke="black" points="214,-304.5 214,-323.5 324,-323.5 324,-304.5 214,-304.5"/>
<text text-anchor="middle" x="269" y="-311.5" font-family="Helvetica,sans-Serif" font-size="10.00">Lpi2c_slave_transport</text>
</a>
</g>
</g>
<!-- Node0&#45;&gt;Node12 -->
<g id="edge12" class="edge"><title>Node0&#45;&gt;Node12</title>
<path fill="none" stroke="blueviolet" stroke-dasharray="5,2" d="M139.35,-437.001C145.721,-421.19 159.506,-389.865 177,-367 190.57,-349.263 194.853,-344.497 214,-333 220.22,-329.265 227.283,-326.116 234.204,-323.521"/>
<text text-anchor="middle" x="186.5" y="-370" font-family="Helvetica,sans-Serif" font-size="10.00">erpc</text>
</g>
<!-- Node11 -->
<g id="node19" class="node"><title>Node11</title>
<g id="a_node19"><a xlink:href="group__itbp__transport.html" target="_top" xlink:title="Simple inter&#45;thread communications transport. ">
<polygon fill="white" stroke="black" points="236.5,-266.5 236.5,-285.5 301.5,-285.5 301.5,-266.5 236.5,-266.5"/>
<text text-anchor="middle" x="269" y="-273.5" font-family="Helvetica,sans-Serif" font-size="10.00">Inter&#45;thread</text>
</a>
</g>
</g>
<!-- Node0&#45;&gt;Node11 -->
<g id="edge11" class="edge"><title>Node0&#45;&gt;Node11</title>
<path fill="none" stroke="blueviolet" stroke-dasharray="5,2" d="M137.399,-437.321C141.797,-416.534 154.099,-366.624 177,-331 189.407,-311.7 194.5,-307.09 214,-295 220.842,-290.758 228.76,-287.298 236.389,-284.55"/>
<text text-anchor="middle" x="186.5" y="-334" font-family="Helvetica,sans-Serif" font-size="10.00">erpc</text>
</g>
<!-- Node8 -->
<g id="node20" class="node"><title>Node8</title>
<g id="a_node20"><a xlink:href="group__dspi__master__transport.html" target="_top" xlink:title="MCUXpressoSDK DSPI master driver transport. ">
<polygon fill="white" stroke="black" points="233,-228.5 233,-247.5 305,-247.5 305,-228.5 233,-228.5"/>
<text text-anchor="middle" x="269" y="-235.5" font-family="Helvetica,sans-Serif" font-size="10.00">DSPI Master</text>
</a>
</g>
</g>
<!-- Node0&#45;&gt;Node8 -->
<g id="edge8" class="edge"><title>Node0&#45;&gt;Node8</title>
<path fill="none" stroke="blueviolet" stroke-dasharray="5,2" d="M136.324,-437.299C138.841,-411.93 148.107,-342.182 177,-293 188.622,-273.217 194.5,-269.09 214,-257 219.997,-253.282 226.821,-250.164 233.553,-247.601"/>
<text text-anchor="middle" x="186.5" y="-296" font-family="Helvetica,sans-Serif" font-size="10.00">erpc</text>
</g>
<!-- Node25 -->
<g id="node21" class="node"><title>Node25</title>
<g id="a_node21"><a xlink:href="group___u_s_b___c_d_c__transport.html" target="_top" xlink:title="USB CDC transport. ">
<polygon fill="white" stroke="black" points="239,-190.5 239,-209.5 299,-209.5 299,-190.5 239,-190.5"/>
<text text-anchor="middle" x="269" y="-197.5" font-family="Helvetica,sans-Serif" font-size="10.00">USB CDC</text>
</a>
</g>
</g>
<!-- Node0&#45;&gt;Node25 -->
<g id="edge25" class="edge"><title>Node0&#45;&gt;Node25</title>
<path fill="none" stroke="blueviolet" stroke-dasharray="5,2" d="M135.663,-437.122C136.547,-407.56 142.124,-317.941 177,-255 188.12,-234.931 194.5,-231.09 214,-219 221.602,-214.287 230.533,-210.539 238.919,-207.661"/>
<text text-anchor="middle" x="186.5" y="-258" font-family="Helvetica,sans-Serif" font-size="10.00">erpc</text>
</g>
<!-- Node3 -->
<g id="node22" class="node"><title>Node3</title>
<g id="a_node22"><a xlink:href="group__infra__codec.html" target="_top" xlink:title="Classes used for message serialization. ">
<polygon fill="white" stroke="black" points="234,-152.5 234,-171.5 304,-171.5 304,-152.5 234,-152.5"/>
<text text-anchor="middle" x="269" y="-159.5" font-family="Helvetica,sans-Serif" font-size="10.00">Serialization</text>
</a>
</g>
</g>
<!-- Node0&#45;&gt;Node3 -->
<g id="edge3" class="edge"><title>Node0&#45;&gt;Node3</title>
<path fill="none" stroke="blueviolet" stroke-dasharray="5,2" d="M135.2,-437.118C134.607,-403.898 136.036,-294.021 177,-217 187.774,-196.743 194.5,-193.09 214,-181 220.082,-177.229 227.014,-174.077 233.837,-171.493"/>
<text text-anchor="middle" x="186.5" y="-220" font-family="Helvetica,sans-Serif" font-size="10.00">erpc</text>
</g>
<!-- Node16 -->
<g id="node23" class="node"><title>Node16</title>
<g id="a_node23"><a xlink:href="group__rpmsg__lite__rtos__transport.html" target="_top" xlink:title="RPMsg&#45;Lite zero copy transport using RTOS API. ">
<polygon fill="white" stroke="black" points="220.5,-114.5 220.5,-133.5 317.5,-133.5 317.5,-114.5 220.5,-114.5"/>
<text text-anchor="middle" x="269" y="-121.5" font-family="Helvetica,sans-Serif" font-size="10.00">RPMsg&#45;Lite RTOS</text>
</a>
</g>
</g>
<!-- Node0&#45;&gt;Node16 -->
<g id="edge16" class="edge"><title>Node0&#45;&gt;Node16</title>
<path fill="none" stroke="blueviolet" stroke-dasharray="5,2" d="M136.17,-437.399C139.242,-395.144 152.874,-225.757 177,-179 187.521,-158.611 194.5,-155.09 214,-143 219.997,-139.282 226.821,-136.164 233.553,-133.601"/>
<text text-anchor="middle" x="186.5" y="-182" font-family="Helvetica,sans-Serif" font-size="10.00">erpc</text>
</g>
<!-- Node17 -->
<g id="node24" class="node"><title>Node17</title>
<g id="a_node24"><a xlink:href="group__rpmsg__lite__transport.html" target="_top" xlink:title="RPMsg&#45;Lite zero copy transport. ">
<polygon fill="white" stroke="black" points="235,-76.5 235,-95.5 303,-95.5 303,-76.5 235,-76.5"/>
<text text-anchor="middle" x="269" y="-83.5" font-family="Helvetica,sans-Serif" font-size="10.00">RPMsg&#45;Lite</text>
</a>
</g>
</g>
<!-- Node0&#45;&gt;Node17 -->
<g id="edge17" class="edge"><title>Node0&#45;&gt;Node17</title>
<path fill="none" stroke="blueviolet" stroke-dasharray="5,2" d="M135.968,-437.303C138.316,-391.291 149.789,-194.976 177,-141 187.328,-120.512 194.5,-117.09 214,-105 220.419,-101.02 227.787,-97.7283 234.973,-95.0674"/>
<text text-anchor="middle" x="186.5" y="-144" font-family="Helvetica,sans-Serif" font-size="10.00">erpc</text>
</g>
<!-- Node6 -->
<g id="node25" class="node"><title>Node6</title>
<g id="a_node25"><a xlink:href="group__port__setup__extensions.html" target="_top" xlink:title="Extension setup functions. ">
<polygon fill="white" stroke="black" points="224.5,-38.5 224.5,-57.5 313.5,-57.5 313.5,-38.5 224.5,-38.5"/>
<text text-anchor="middle" x="269" y="-45.5" font-family="Helvetica,sans-Serif" font-size="10.00">Extension Setup</text>
</a>
</g>
</g>
<!-- Node0&#45;&gt;Node6 -->
<g id="edge6" class="edge"><title>Node0&#45;&gt;Node6</title>
<path fill="none" stroke="blueviolet" stroke-dasharray="5,2" d="M135.781,-437.403C137.355,-388.107 146.14,-163.292 177,-102 187.18,-81.782 194.678,-78.7925 214,-67 220.108,-63.2722 227.052,-60.1384 233.878,-57.5592"/>
<text text-anchor="middle" x="186.5" y="-105" font-family="Helvetica,sans-Serif" font-size="10.00">erpc</text>
</g>
<!-- Node13 -->
<g id="node26" class="node"><title>Node13</title>
<g id="a_node26"><a xlink:href="group__lpspi__slave__transport.html" target="_top" xlink:title="Lpspi_slave_transport">
<polygon fill="white" stroke="black" points="214,-0.5 214,-19.5 324,-19.5 324,-0.5 214,-0.5"/>
<text text-anchor="middle" x="269" y="-7.5" font-family="Helvetica,sans-Serif" font-size="10.00">Lpspi_slave_transport</text>
</a>
</g>
</g>
<!-- Node0&#45;&gt;Node13 -->
<g id="edge13" class="edge"><title>Node0&#45;&gt;Node13</title>
<path fill="none" stroke="blueviolet" stroke-dasharray="5,2" d="M135.652,-437.407C136.613,-384.942 142.965,-132.601 177,-64 188.186,-41.4543 213.461,-27.5744 234.542,-19.542"/>
<text text-anchor="middle" x="186.5" y="-67" font-family="Helvetica,sans-Serif" font-size="10.00">erpc</text>
</g>
</g>
</svg>
