<?xml version="1.0" encoding="UTF-8" standalone="no"?>
<!DOCTYPE svg PUBLIC "-//W3C//DTD SVG 1.1//EN"
 "http://www.w3.org/Graphics/SVG/1.1/DTD/svg11.dtd">
<!-- Generated by graphviz version 2.38.0 (20140413.2041)
 -->
<!-- Title: SPIdev Linux Master Pages: 1 -->
<svg width="405pt" height="902pt"
 viewBox="0.00 0.00 405.00 902.00" xmlns="http://www.w3.org/2000/svg" xmlns:xlink="http://www.w3.org/1999/xlink">
<g id="graph0" class="graph" transform="scale(1 1) rotate(0) translate(4 898)">
<title>SPIdev Linux Master</title>
<polygon fill="white" stroke="none" points="-4,4 -4,-898 401,-898 401,4 -4,4"/>
<!-- Node1 -->
<g id="node1" class="node"><title>Node1</title>
<g id="a_node1"><a xlink:href="group__transports.html" target="_top" xlink:title="Transport layer classes. ">
<polygon fill="white" stroke="black" points="0,-437.5 0,-456.5 89,-456.5 89,-437.5 0,-437.5"/>
<text text-anchor="middle" x="44.5" y="-444.5" font-family="Helvetica,sans-Serif" font-size="10.00">Transport Layers</text>
</a>
</g>
</g>
<!-- Node0 -->
<g id="node14" class="node"><title>Node0</title>
<polygon fill="#bfbfbf" stroke="black" points="126,-437.5 126,-456.5 232,-456.5 232,-437.5 126,-437.5"/>
<text text-anchor="middle" x="179" y="-444.5" font-family="Helvetica,sans-Serif" font-size="10.00">SPIdev Linux Master</text>
</g>
<!-- Node1&#45;&gt;Node0 -->
<g id="edge1" class="edge"><title>Node1&#45;&gt;Node0</title>
<path fill="none" stroke="black" d="M99.2581,-447C107.929,-447 116.896,-447 125.536,-447"/>
<polygon fill="black" stroke="black" points="99.2527,-443.5 89.2527,-447 99.2526,-450.5 99.2527,-443.5"/>
</g>
<!-- Node10 -->
<g id="node2" class="node"><title>Node10</title>
<g id="a_node2"><a xlink:href="group__dspi__slave__transport.html" target="_top" xlink:title="MCUXpressoSDK DSPI slave driver transport. ">
<polygon fill="white" stroke="black" points="309.5,-874.5 309.5,-893.5 374.5,-893.5 374.5,-874.5 309.5,-874.5"/>
<text text-anchor="middle" x="342" y="-881.5" font-family="Helvetica,sans-Serif" font-size="10.00">DSPI Slave</text>
</a>
</g>
</g>
<!-- Node11 -->
<g id="node3" class="node"><title>Node11</title>
<g id="a_node3"><a xlink:href="group__i2c__slave__transport.html" target="_top" xlink:title="MCUXpressoSDK I2C slave driver transport. ">
<polygon fill="white" stroke="black" points="313.5,-836.5 313.5,-855.5 370.5,-855.5 370.5,-836.5 313.5,-836.5"/>
<text text-anchor="middle" x="342" y="-843.5" font-family="Helvetica,sans-Serif" font-size="10.00">I2C Slave</text>
</a>
</g>
</g>
<!-- Node8 -->
<g id="node4" class="node"><title>Node8</title>
<g id="a_node4"><a xlink:href="group__port__threads.html" target="_top" xlink:title="Threading model. ">
<polygon fill="white" stroke="black" points="316.5,-798.5 316.5,-817.5 367.5,-817.5 367.5,-798.5 316.5,-798.5"/>
<text text-anchor="middle" x="342" y="-805.5" font-family="Helvetica,sans-Serif" font-size="10.00">Threads</text>
</a>
</g>
</g>
<!-- Node15 -->
<g id="node5" class="node"><title>Node15</title>
<g id="a_node5"><a xlink:href="group__mbox__transport.html" target="_top" xlink:title="Mbox_transport">
<polygon fill="white" stroke="black" points="300,-760.5 300,-779.5 384,-779.5 384,-760.5 300,-760.5"/>
<text text-anchor="middle" x="342" y="-767.5" font-family="Helvetica,sans-Serif" font-size="10.00">Mbox_transport</text>
</a>
</g>
</g>
<!-- Node16 -->
<g id="node6" class="node"><title>Node16</title>
<g id="a_node6"><a xlink:href="group__mu__transport.html" target="_top" xlink:title="Messaging Unit transport. ">
<polygon fill="white" stroke="black" points="300,-722.5 300,-741.5 384,-741.5 384,-722.5 300,-722.5"/>
<text text-anchor="middle" x="342" y="-729.5" font-family="Helvetica,sans-Serif" font-size="10.00">Messaging Unit</text>
</a>
</g>
</g>
<!-- Node23 -->
<g id="node7" class="node"><title>Node23</title>
<g id="a_node7"><a xlink:href="group__tcp__transport.html" target="_top" xlink:title="Simple TCP/IP transport. ">
<polygon fill="white" stroke="black" points="318.5,-684.5 318.5,-703.5 365.5,-703.5 365.5,-684.5 318.5,-684.5"/>
<text text-anchor="middle" x="342" y="-691.5" font-family="Helvetica,sans-Serif" font-size="10.00">TCP/IP</text>
</a>
</g>
</g>
<!-- Node2 -->
<g id="node8" class="node"><title>Node2</title>
<g id="a_node8"><a xlink:href="group__infra__client.html" target="_top" xlink:title="Client classes. ">
<polygon fill="white" stroke="black" points="321.5,-646.5 321.5,-665.5 362.5,-665.5 362.5,-646.5 321.5,-646.5"/>
<text text-anchor="middle" x="342" y="-653.5" font-family="Helvetica,sans-Serif" font-size="10.00">Client</text>
</a>
</g>
</g>
<!-- Node4 -->
<g id="node9" class="node"><title>Node4</title>
<g id="a_node9"><a xlink:href="group__infra__transport.html" target="_top" xlink:title="Superclasses for building transports. ">
<polygon fill="white" stroke="black" points="311,-608.5 311,-627.5 373,-627.5 373,-608.5 311,-608.5"/>
<text text-anchor="middle" x="342" y="-615.5" font-family="Helvetica,sans-Serif" font-size="10.00">Transports</text>
</a>
</g>
</g>
<!-- Node20 -->
<g id="node10" class="node"><title>Node20</title>
<g id="a_node10"><a xlink:href="group__serial__transport.html" target="_top" xlink:title="POSIX and Win32 serial port transport. ">
<polygon fill="white" stroke="black" points="311.5,-570.5 311.5,-589.5 372.5,-589.5 372.5,-570.5 311.5,-570.5"/>
<text text-anchor="middle" x="342" y="-577.5" font-family="Helvetica,sans-Serif" font-size="10.00">Serial port</text>
</a>
</g>
</g>
<!-- Node5 -->
<g id="node11" class="node"><title>Node5</title>
<g id="a_node11"><a xlink:href="group__infra__utility.html" target="_top" xlink:title="Utility code used by the infrastructure. ">
<polygon fill="white" stroke="black" points="317.5,-532.5 317.5,-551.5 366.5,-551.5 366.5,-532.5 317.5,-532.5"/>
<text text-anchor="middle" x="342" y="-539.5" font-family="Helvetica,sans-Serif" font-size="10.00">Utilities</text>
</a>
</g>
</g>
<!-- Node22 -->
<g id="node12" class="node"><title>Node22</title>
<g id="a_node12"><a xlink:href="group__spi__slave__transport.html" target="_top" xlink:title="MCUXpressoSDK SPI slave driver transport. ">
<polygon fill="white" stroke="black" points="312.5,-494.5 312.5,-513.5 371.5,-513.5 371.5,-494.5 312.5,-494.5"/>
<text text-anchor="middle" x="342" y="-501.5" font-family="Helvetica,sans-Serif" font-size="10.00">SPI Slave</text>
</a>
</g>
</g>
<!-- Node24 -->
<g id="node13" class="node"><title>Node24</title>
<g id="a_node13"><a xlink:href="group__uart__transport.html" target="_top" xlink:title="CMSIS UART driver transport. ">
<polygon fill="white" stroke="black" points="304,-456.5 304,-475.5 380,-475.5 380,-456.5 304,-456.5"/>
<text text-anchor="middle" x="342" y="-463.5" font-family="Helvetica,sans-Serif" font-size="10.00">CMSIS UART</text>
</a>
</g>
</g>
<!-- Node0&#45;&gt;Node10 -->
<g id="edge10" class="edge"><title>Node0&#45;&gt;Node10</title>
<path fill="none" stroke="blueviolet" stroke-dasharray="5,2" d="M179.689,-456.56C178.63,-501.499 178.582,-695.159 250,-829 260.801,-849.242 267.5,-852.91 287,-865 293.842,-869.242 301.76,-872.702 309.389,-875.45"/>
<text text-anchor="middle" x="259.5" y="-855" font-family="Helvetica,sans-Serif" font-size="10.00">erpc</text>
</g>
<!-- Node0&#45;&gt;Node11 -->
<g id="edge11" class="edge"><title>Node0&#45;&gt;Node11</title>
<path fill="none" stroke="blueviolet" stroke-dasharray="5,2" d="M179.942,-456.729C180.087,-499.22 184.851,-671.723 250,-791 260.998,-811.136 267.5,-814.91 287,-827 295.024,-831.975 304.529,-835.874 313.311,-838.811"/>
<text text-anchor="middle" x="259.5" y="-817" font-family="Helvetica,sans-Serif" font-size="10.00">erpc</text>
</g>
<!-- Node0&#45;&gt;Node8 -->
<g id="edge8" class="edge"><title>Node0&#45;&gt;Node8</title>
<path fill="none" stroke="blueviolet" stroke-dasharray="5,2" d="M180.259,-456.708C181.698,-496.243 190.995,-648.005 250,-753 261.241,-773.002 267.5,-776.91 287,-789 295.953,-794.551 306.75,-798.763 316.329,-801.793"/>
<text text-anchor="middle" x="259.5" y="-779" font-family="Helvetica,sans-Serif" font-size="10.00">erpc</text>
</g>
<!-- Node0&#45;&gt;Node15 -->
<g id="edge15" class="edge"><title>Node0&#45;&gt;Node15</title>
<path fill="none" stroke="blueviolet" stroke-dasharray="5,2" d="M180.662,-456.722C183.516,-493.163 197.127,-624.198 250,-715 261.545,-734.827 267.5,-738.91 287,-751 292.997,-754.718 299.821,-757.836 306.553,-760.399"/>
<text text-anchor="middle" x="259.5" y="-741" font-family="Helvetica,sans-Serif" font-size="10.00">erpc</text>
</g>
<!-- Node0&#45;&gt;Node16 -->
<g id="edge16" class="edge"><title>Node0&#45;&gt;Node16</title>
<path fill="none" stroke="blueviolet" stroke-dasharray="5,2" d="M181.269,-456.844C185.881,-489.937 203.967,-599.384 250,-676 261.977,-695.935 267.319,-700.61 287,-713 292.971,-716.759 299.784,-719.895 306.512,-722.463"/>
<text text-anchor="middle" x="259.5" y="-703" font-family="Helvetica,sans-Serif" font-size="10.00">erpc</text>
</g>
<!-- Node0&#45;&gt;Node23 -->
<g id="edge23" class="edge"><title>Node0&#45;&gt;Node23</title>
<path fill="none" stroke="blueviolet" stroke-dasharray="5,2" d="M182.061,-456.732C188.539,-485.867 210.441,-574.255 250,-637 262.572,-656.94 267.136,-662.309 287,-675 296.548,-681.1 308.3,-685.535 318.401,-688.578"/>
<text text-anchor="middle" x="259.5" y="-664" font-family="Helvetica,sans-Serif" font-size="10.00">erpc</text>
</g>
<!-- Node0&#45;&gt;Node2 -->
<g id="edge2" class="edge"><title>Node0&#45;&gt;Node2</title>
<path fill="none" stroke="blueviolet" stroke-dasharray="5,2" d="M183.265,-456.756C191.853,-481.647 216.72,-548.997 250,-598 263.423,-617.765 266.95,-624.006 287,-637 297.509,-643.81 310.754,-648.519 321.497,-651.546"/>
<text text-anchor="middle" x="259.5" y="-625" font-family="Helvetica,sans-Serif" font-size="10.00">erpc</text>
</g>
<!-- Node0&#45;&gt;Node4 -->
<g id="edge4" class="edge"><title>Node0&#45;&gt;Node4</title>
<path fill="none" stroke="blueviolet" stroke-dasharray="5,2" d="M183.748,-456.817C194.812,-484.355 230.162,-562.687 287,-599 294.286,-603.655 302.857,-607.341 310.997,-610.178"/>
<text text-anchor="middle" x="259.5" y="-586" font-family="Helvetica,sans-Serif" font-size="10.00">erpc</text>
</g>
<!-- Node0&#45;&gt;Node20 -->
<g id="edge20" class="edge"><title>Node0&#45;&gt;Node20</title>
<path fill="none" stroke="blueviolet" stroke-dasharray="5,2" d="M186.217,-456.636C200.939,-478.654 240.225,-532.914 287,-561 294.498,-565.502 303.222,-569.154 311.443,-572.009"/>
<text text-anchor="middle" x="259.5" y="-549" font-family="Helvetica,sans-Serif" font-size="10.00">erpc</text>
</g>
<!-- Node0&#45;&gt;Node5 -->
<g id="edge5" class="edge"><title>Node0&#45;&gt;Node5</title>
<path fill="none" stroke="blueviolet" stroke-dasharray="5,2" d="M191.185,-456.567C209.936,-472.219 249.368,-503.506 287,-523 296.531,-527.937 307.631,-532.09 317.28,-535.242"/>
<text text-anchor="middle" x="259.5" y="-515" font-family="Helvetica,sans-Serif" font-size="10.00">erpc</text>
</g>
<!-- Node0&#45;&gt;Node22 -->
<g id="edge22" class="edge"><title>Node0&#45;&gt;Node22</title>
<path fill="none" stroke="blueviolet" stroke-dasharray="5,2" d="M206.581,-456.528C219.654,-461.205 235.647,-466.913 250,-472 271.31,-479.552 295.451,-488.038 313.511,-494.373"/>
<text text-anchor="middle" x="259.5" y="-481" font-family="Helvetica,sans-Serif" font-size="10.00">erpc</text>
</g>
<!-- Node0&#45;&gt;Node24 -->
<g id="edge24" class="edge"><title>Node0&#45;&gt;Node24</title>
<path fill="none" stroke="blueviolet" stroke-dasharray="5,2" d="M232.272,-453.169C255.594,-455.921 282.535,-459.1 303.765,-461.606"/>
<text text-anchor="middle" x="259.5" y="-460" font-family="Helvetica,sans-Serif" font-size="10.00">erpc</text>
</g>
<!-- Node21 -->
<g id="node15" class="node"><title>Node21</title>
<g id="a_node15"><a xlink:href="group__spi__master__transport.html" target="_top" xlink:title="MCUXpressoSDK SPI master driver transport. ">
<polygon fill="white" stroke="black" points="309.5,-418.5 309.5,-437.5 374.5,-437.5 374.5,-418.5 309.5,-418.5"/>
<text text-anchor="middle" x="342" y="-425.5" font-family="Helvetica,sans-Serif" font-size="10.00">SPI Master</text>
</a>
</g>
</g>
<!-- Node0&#45;&gt;Node21 -->
<g id="edge21" class="edge"><title>Node0&#45;&gt;Node21</title>
<path fill="none" stroke="blueviolet" stroke-dasharray="5,2" d="M222.784,-437.439C231.738,-435.721 241.148,-434.123 250,-433 269.621,-430.512 291.777,-429.261 309.314,-428.633"/>
<text text-anchor="middle" x="259.5" y="-436" font-family="Helvetica,sans-Serif" font-size="10.00">erpc</text>
</g>
<!-- Node19 -->
<g id="node16" class="node"><title>Node19</title>
<g id="a_node16"><a xlink:href="group__rpmsg__tty__rtos__transport.html" target="_top" xlink:title="RPMsg TTY RTOS transport. ">
<polygon fill="white" stroke="black" points="293,-380.5 293,-399.5 391,-399.5 391,-380.5 293,-380.5"/>
<text text-anchor="middle" x="342" y="-387.5" font-family="Helvetica,sans-Serif" font-size="10.00">RPMsg TTY RTOS</text>
</a>
</g>
</g>
<!-- Node0&#45;&gt;Node19 -->
<g id="edge19" class="edge"><title>Node0&#45;&gt;Node19</title>
<path fill="none" stroke="blueviolet" stroke-dasharray="5,2" d="M199.615,-437.437C213.486,-430.892 232.63,-422.293 250,-416 267.147,-409.787 286.533,-404.074 302.992,-399.595"/>
<text text-anchor="middle" x="259.5" y="-419" font-family="Helvetica,sans-Serif" font-size="10.00">erpc</text>
</g>
<!-- Node6 -->
<g id="node17" class="node"><title>Node6</title>
<g id="a_node17"><a xlink:href="group__infra__server.html" target="_top" xlink:title="Server classes. ">
<polygon fill="white" stroke="black" points="320,-342.5 320,-361.5 364,-361.5 364,-342.5 320,-342.5"/>
<text text-anchor="middle" x="342" y="-349.5" font-family="Helvetica,sans-Serif" font-size="10.00">Server</text>
</a>
</g>
</g>
<!-- Node0&#45;&gt;Node6 -->
<g id="edge6" class="edge"><title>Node0&#45;&gt;Node6</title>
<path fill="none" stroke="blueviolet" stroke-dasharray="5,2" d="M191.094,-437.254C209.716,-421.344 248.966,-389.696 287,-371 297.435,-365.87 309.611,-361.461 319.758,-358.185"/>
<text text-anchor="middle" x="259.5" y="-393" font-family="Helvetica,sans-Serif" font-size="10.00">erpc</text>
</g>
<!-- Node13 -->
<g id="node18" class="node"><title>Node13</title>
<g id="a_node18"><a xlink:href="group__lpi2c__slave__transport.html" target="_top" xlink:title="Lpi2c_slave_transport">
<polygon fill="white" stroke="black" points="287,-304.5 287,-323.5 397,-323.5 397,-304.5 287,-304.5"/>
<text text-anchor="middle" x="342" y="-311.5" font-family="Helvetica,sans-Serif" font-size="10.00">Lpi2c_slave_transport</text>
</a>
</g>
</g>
<!-- Node0&#45;&gt;Node13 -->
<g id="edge13" class="edge"><title>Node0&#45;&gt;Node13</title>
<path fill="none" stroke="blueviolet" stroke-dasharray="5,2" d="M186.189,-437.316C200.85,-415.196 240.018,-360.738 287,-333 293.247,-329.312 300.323,-326.182 307.246,-323.592"/>
<text text-anchor="middle" x="259.5" y="-361" font-family="Helvetica,sans-Serif" font-size="10.00">erpc</text>
</g>
<!-- Node12 -->
<g id="node19" class="node"><title>Node12</title>
<g id="a_node19"><a xlink:href="group__itbp__transport.html" target="_top" xlink:title="Simple inter&#45;thread communications transport. ">
<polygon fill="white" stroke="black" points="309.5,-266.5 309.5,-285.5 374.5,-285.5 374.5,-266.5 309.5,-266.5"/>
<text text-anchor="middle" x="342" y="-273.5" font-family="Helvetica,sans-Serif" font-size="10.00">Inter&#45;thread</text>
</a>
</g>
</g>
<!-- Node0&#45;&gt;Node12 -->
<g id="edge12" class="edge"><title>Node0&#45;&gt;Node12</title>
<path fill="none" stroke="blueviolet" stroke-dasharray="5,2" d="M183.724,-437.145C194.724,-409.505 229.921,-330.934 287,-295 293.813,-290.711 301.72,-287.234 309.348,-284.485"/>
<text text-anchor="middle" x="259.5" y="-326" font-family="Helvetica,sans-Serif" font-size="10.00">erpc</text>
</g>
<!-- Node9 -->
<g id="node20" class="node"><title>Node9</title>
<g id="a_node20"><a xlink:href="group__dspi__master__transport.html" target="_top" xlink:title="MCUXpressoSDK DSPI master driver transport. ">
<polygon fill="white" stroke="black" points="306,-228.5 306,-247.5 378,-247.5 378,-228.5 306,-228.5"/>
<text text-anchor="middle" x="342" y="-235.5" font-family="Helvetica,sans-Serif" font-size="10.00">DSPI Master</text>
</a>
</g>
</g>
<!-- Node0&#45;&gt;Node9 -->
<g id="edge9" class="edge"><title>Node0&#45;&gt;Node9</title>
<path fill="none" stroke="blueviolet" stroke-dasharray="5,2" d="M183.038,-437.426C191.261,-412.374 215.665,-343.416 250,-294 263.27,-274.902 267.319,-269.39 287,-257 292.971,-253.241 299.784,-250.105 306.512,-247.537"/>
<text text-anchor="middle" x="259.5" y="-297" font-family="Helvetica,sans-Serif" font-size="10.00">erpc</text>
</g>
<!-- Node25 -->
<g id="node21" class="node"><title>Node25</title>
<g id="a_node21"><a xlink:href="group___u_s_b___c_d_c__transport.html" target="_top" xlink:title="USB CDC transport. ">
<polygon fill="white" stroke="black" points="312,-190.5 312,-209.5 372,-209.5 372,-190.5 312,-190.5"/>
<text text-anchor="middle" x="342" y="-197.5" font-family="Helvetica,sans-Serif" font-size="10.00">USB CDC</text>
</a>
</g>
</g>
<!-- Node0&#45;&gt;Node25 -->
<g id="edge25" class="edge"><title>Node0&#45;&gt;Node25</title>
<path fill="none" stroke="blueviolet" stroke-dasharray="5,2" d="M181.958,-437.114C188.148,-407.528 209.328,-317.85 250,-255 262.465,-235.738 267.5,-231.09 287,-219 294.602,-214.287 303.533,-210.539 311.919,-207.661"/>
<text text-anchor="middle" x="259.5" y="-258" font-family="Helvetica,sans-Serif" font-size="10.00">erpc</text>
</g>
<!-- Node3 -->
<g id="node22" class="node"><title>Node3</title>
<g id="a_node22"><a xlink:href="group__infra__codec.html" target="_top" xlink:title="Classes used for message serialization. ">
<polygon fill="white" stroke="black" points="307,-152.5 307,-171.5 377,-171.5 377,-152.5 307,-152.5"/>
<text text-anchor="middle" x="342" y="-159.5" font-family="Helvetica,sans-Serif" font-size="10.00">Serialization</text>
</a>
</g>
</g>
<!-- Node0&#45;&gt;Node3 -->
<g id="edge3" class="edge"><title>Node0&#45;&gt;Node3</title>
<path fill="none" stroke="blueviolet" stroke-dasharray="5,2" d="M181.107,-437.482C185.292,-404.512 202.404,-292.991 250,-216 261.903,-196.746 267.678,-192.793 287,-181 293.108,-177.272 300.052,-174.138 306.878,-171.559"/>
<text text-anchor="middle" x="259.5" y="-219" font-family="Helvetica,sans-Serif" font-size="10.00">erpc</text>
</g>
<!-- Node17 -->
<g id="node23" class="node"><title>Node17</title>
<g id="a_node23"><a xlink:href="group__rpmsg__lite__rtos__transport.html" target="_top" xlink:title="RPMsg&#45;Lite zero copy transport using RTOS API. ">
<polygon fill="white" stroke="black" points="293.5,-114.5 293.5,-133.5 390.5,-133.5 390.5,-114.5 293.5,-114.5"/>
<text text-anchor="middle" x="342" y="-121.5" font-family="Helvetica,sans-Serif" font-size="10.00">RPMsg&#45;Lite RTOS</text>
</a>
</g>
</g>
<!-- Node0&#45;&gt;Node17 -->
<g id="edge17" class="edge"><title>Node0&#45;&gt;Node17</title>
<path fill="none" stroke="blueviolet" stroke-dasharray="5,2" d="M180.594,-437.468C183.227,-401.159 196.221,-268.976 250,-178 261.519,-158.514 267.678,-154.793 287,-143 293.108,-139.272 300.052,-136.138 306.878,-133.559"/>
<text text-anchor="middle" x="259.5" y="-181" font-family="Helvetica,sans-Serif" font-size="10.00">erpc</text>
</g>
<!-- Node18 -->
<g id="node24" class="node"><title>Node18</title>
<g id="a_node24"><a xlink:href="group__rpmsg__lite__transport.html" target="_top" xlink:title="RPMsg&#45;Lite zero copy transport. ">
<polygon fill="white" stroke="black" points="308,-76.5 308,-95.5 376,-95.5 376,-76.5 308,-76.5"/>
<text text-anchor="middle" x="342" y="-83.5" font-family="Helvetica,sans-Serif" font-size="10.00">RPMsg&#45;Lite</text>
</a>
</g>
</g>
<!-- Node0&#45;&gt;Node18 -->
<g id="edge18" class="edge"><title>Node0&#45;&gt;Node18</title>
<path fill="none" stroke="blueviolet" stroke-dasharray="5,2" d="M180.151,-437.451C181.172,-397.898 189.064,-244.07 250,-139 261.204,-119.681 267.853,-116.497 287,-105 293.39,-101.163 300.671,-97.9434 307.772,-95.3089"/>
<text text-anchor="middle" x="259.5" y="-142" font-family="Helvetica,sans-Serif" font-size="10.00">erpc</text>
</g>
<!-- Node7 -->
<g id="node25" class="node"><title>Node7</title>
<g id="a_node25"><a xlink:href="group__port__setup__extensions.html" target="_top" xlink:title="Extension setup functions. ">
<polygon fill="white" stroke="black" points="297.5,-38.5 297.5,-57.5 386.5,-57.5 386.5,-38.5 297.5,-38.5"/>
<text text-anchor="middle" x="342" y="-45.5" font-family="Helvetica,sans-Serif" font-size="10.00">Extension Setup</text>
</a>
</g>
</g>
<!-- Node0&#45;&gt;Node7 -->
<g id="edge7" class="edge"><title>Node0&#45;&gt;Node7</title>
<path fill="none" stroke="blueviolet" stroke-dasharray="5,2" d="M179.844,-437.455C179.557,-395.016 182.699,-220.301 250,-101 260.973,-81.5486 267.853,-78.4965 287,-67 293.22,-63.2653 300.283,-60.1156 307.204,-57.5209"/>
<text text-anchor="middle" x="259.5" y="-104" font-family="Helvetica,sans-Serif" font-size="10.00">erpc</text>
</g>
<!-- Node14 -->
<g id="node26" class="node"><title>Node14</title>
<g id="a_node26"><a xlink:href="group__lpspi__slave__transport.html" target="_top" xlink:title="Lpspi_slave_transport">
<polygon fill="white" stroke="black" points="287,-0.5 287,-19.5 397,-19.5 397,-0.5 287,-0.5"/>
<text text-anchor="middle" x="342" y="-7.5" font-family="Helvetica,sans-Serif" font-size="10.00">Lpspi_slave_transport</text>
</a>
</g>
</g>
<!-- Node0&#45;&gt;Node14 -->
<g id="edge14" class="edge"><title>Node0&#45;&gt;Node14</title>
<path fill="none" stroke="blueviolet" stroke-dasharray="5,2" d="M179.592,-437.345C178.095,-391.967 176.371,-196.515 250,-63 260.785,-43.4436 267.853,-40.4965 287,-29 293.22,-25.2653 300.283,-22.1156 307.204,-19.5209"/>
<text text-anchor="middle" x="259.5" y="-66" font-family="Helvetica,sans-Serif" font-size="10.00">erpc</text>
</g>
</g>
</svg>
