<?xml version="1.0" encoding="UTF-8" standalone="no"?>
<!DOCTYPE svg PUBLIC "-//W3C//DTD SVG 1.1//EN"
 "http://www.w3.org/Graphics/SVG/1.1/DTD/svg11.dtd">
<!-- Generated by graphviz version 2.38.0 (20140413.2041)
 -->
<!-- Title: SPI Master Pages: 1 -->
<svg width="364pt" height="902pt"
 viewBox="0.00 0.00 364.00 902.00" xmlns="http://www.w3.org/2000/svg" xmlns:xlink="http://www.w3.org/1999/xlink">
<g id="graph0" class="graph" transform="scale(1 1) rotate(0) translate(4 898)">
<title>SPI Master</title>
<polygon fill="white" stroke="none" points="-4,4 -4,-898 360,-898 360,4 -4,4"/>
<!-- Node1 -->
<g id="node1" class="node"><title>Node1</title>
<g id="a_node1"><a xlink:href="group__transports.html" target="_top" xlink:title="Transport layer classes. ">
<polygon fill="white" stroke="black" points="0,-437.5 0,-456.5 89,-456.5 89,-437.5 0,-437.5"/>
<text text-anchor="middle" x="44.5" y="-444.5" font-family="Helvetica,sans-Serif" font-size="10.00">Transport Layers</text>
</a>
</g>
</g>
<!-- Node0 -->
<g id="node15" class="node"><title>Node0</title>
<polygon fill="#bfbfbf" stroke="black" points="126,-437.5 126,-456.5 191,-456.5 191,-437.5 126,-437.5"/>
<text text-anchor="middle" x="158.5" y="-444.5" font-family="Helvetica,sans-Serif" font-size="10.00">SPI Master</text>
</g>
<!-- Node1&#45;&gt;Node0 -->
<g id="edge1" class="edge"><title>Node1&#45;&gt;Node0</title>
<path fill="none" stroke="black" d="M99.3357,-447C108.456,-447 117.653,-447 125.957,-447"/>
<polygon fill="black" stroke="black" points="99.1229,-443.5 89.1228,-447 99.1228,-450.5 99.1229,-443.5"/>
</g>
<!-- Node10 -->
<g id="node2" class="node"><title>Node10</title>
<g id="a_node2"><a xlink:href="group__dspi__slave__transport.html" target="_top" xlink:title="MCUXpressoSDK DSPI slave driver transport. ">
<polygon fill="white" stroke="black" points="268.5,-874.5 268.5,-893.5 333.5,-893.5 333.5,-874.5 268.5,-874.5"/>
<text text-anchor="middle" x="301" y="-881.5" font-family="Helvetica,sans-Serif" font-size="10.00">DSPI Slave</text>
</a>
</g>
</g>
<!-- Node11 -->
<g id="node3" class="node"><title>Node11</title>
<g id="a_node3"><a xlink:href="group__i2c__slave__transport.html" target="_top" xlink:title="MCUXpressoSDK I2C slave driver transport. ">
<polygon fill="white" stroke="black" points="272.5,-836.5 272.5,-855.5 329.5,-855.5 329.5,-836.5 272.5,-836.5"/>
<text text-anchor="middle" x="301" y="-843.5" font-family="Helvetica,sans-Serif" font-size="10.00">I2C Slave</text>
</a>
</g>
</g>
<!-- Node8 -->
<g id="node4" class="node"><title>Node8</title>
<g id="a_node4"><a xlink:href="group__port__threads.html" target="_top" xlink:title="Threading model. ">
<polygon fill="white" stroke="black" points="275.5,-798.5 275.5,-817.5 326.5,-817.5 326.5,-798.5 275.5,-798.5"/>
<text text-anchor="middle" x="301" y="-805.5" font-family="Helvetica,sans-Serif" font-size="10.00">Threads</text>
</a>
</g>
</g>
<!-- Node15 -->
<g id="node5" class="node"><title>Node15</title>
<g id="a_node5"><a xlink:href="group__mbox__transport.html" target="_top" xlink:title="Mbox_transport">
<polygon fill="white" stroke="black" points="259,-760.5 259,-779.5 343,-779.5 343,-760.5 259,-760.5"/>
<text text-anchor="middle" x="301" y="-767.5" font-family="Helvetica,sans-Serif" font-size="10.00">Mbox_transport</text>
</a>
</g>
</g>
<!-- Node16 -->
<g id="node6" class="node"><title>Node16</title>
<g id="a_node6"><a xlink:href="group__mu__transport.html" target="_top" xlink:title="Messaging Unit transport. ">
<polygon fill="white" stroke="black" points="259,-722.5 259,-741.5 343,-741.5 343,-722.5 259,-722.5"/>
<text text-anchor="middle" x="301" y="-729.5" font-family="Helvetica,sans-Serif" font-size="10.00">Messaging Unit</text>
</a>
</g>
</g>
<!-- Node23 -->
<g id="node7" class="node"><title>Node23</title>
<g id="a_node7"><a xlink:href="group__tcp__transport.html" target="_top" xlink:title="Simple TCP/IP transport. ">
<polygon fill="white" stroke="black" points="277.5,-684.5 277.5,-703.5 324.5,-703.5 324.5,-684.5 277.5,-684.5"/>
<text text-anchor="middle" x="301" y="-691.5" font-family="Helvetica,sans-Serif" font-size="10.00">TCP/IP</text>
</a>
</g>
</g>
<!-- Node2 -->
<g id="node8" class="node"><title>Node2</title>
<g id="a_node8"><a xlink:href="group__infra__client.html" target="_top" xlink:title="Client classes. ">
<polygon fill="white" stroke="black" points="280.5,-646.5 280.5,-665.5 321.5,-665.5 321.5,-646.5 280.5,-646.5"/>
<text text-anchor="middle" x="301" y="-653.5" font-family="Helvetica,sans-Serif" font-size="10.00">Client</text>
</a>
</g>
</g>
<!-- Node4 -->
<g id="node9" class="node"><title>Node4</title>
<g id="a_node9"><a xlink:href="group__infra__transport.html" target="_top" xlink:title="Superclasses for building transports. ">
<polygon fill="white" stroke="black" points="270,-608.5 270,-627.5 332,-627.5 332,-608.5 270,-608.5"/>
<text text-anchor="middle" x="301" y="-615.5" font-family="Helvetica,sans-Serif" font-size="10.00">Transports</text>
</a>
</g>
</g>
<!-- Node20 -->
<g id="node10" class="node"><title>Node20</title>
<g id="a_node10"><a xlink:href="group__serial__transport.html" target="_top" xlink:title="POSIX and Win32 serial port transport. ">
<polygon fill="white" stroke="black" points="270.5,-570.5 270.5,-589.5 331.5,-589.5 331.5,-570.5 270.5,-570.5"/>
<text text-anchor="middle" x="301" y="-577.5" font-family="Helvetica,sans-Serif" font-size="10.00">Serial port</text>
</a>
</g>
</g>
<!-- Node5 -->
<g id="node11" class="node"><title>Node5</title>
<g id="a_node11"><a xlink:href="group__infra__utility.html" target="_top" xlink:title="Utility code used by the infrastructure. ">
<polygon fill="white" stroke="black" points="276.5,-532.5 276.5,-551.5 325.5,-551.5 325.5,-532.5 276.5,-532.5"/>
<text text-anchor="middle" x="301" y="-539.5" font-family="Helvetica,sans-Serif" font-size="10.00">Utilities</text>
</a>
</g>
</g>
<!-- Node21 -->
<g id="node12" class="node"><title>Node21</title>
<g id="a_node12"><a xlink:href="group__spi__slave__transport.html" target="_top" xlink:title="MCUXpressoSDK SPI slave driver transport. ">
<polygon fill="white" stroke="black" points="271.5,-494.5 271.5,-513.5 330.5,-513.5 330.5,-494.5 271.5,-494.5"/>
<text text-anchor="middle" x="301" y="-501.5" font-family="Helvetica,sans-Serif" font-size="10.00">SPI Slave</text>
</a>
</g>
</g>
<!-- Node24 -->
<g id="node13" class="node"><title>Node24</title>
<g id="a_node13"><a xlink:href="group__uart__transport.html" target="_top" xlink:title="CMSIS UART driver transport. ">
<polygon fill="white" stroke="black" points="263,-456.5 263,-475.5 339,-475.5 339,-456.5 263,-456.5"/>
<text text-anchor="middle" x="301" y="-463.5" font-family="Helvetica,sans-Serif" font-size="10.00">CMSIS UART</text>
</a>
</g>
</g>
<!-- Node22 -->
<g id="node14" class="node"><title>Node22</title>
<g id="a_node14"><a xlink:href="group__spidev__master__transport.html" target="_top" xlink:title="SPIdev Linux transport. ">
<polygon fill="white" stroke="black" points="248,-418.5 248,-437.5 354,-437.5 354,-418.5 248,-418.5"/>
<text text-anchor="middle" x="301" y="-425.5" font-family="Helvetica,sans-Serif" font-size="10.00">SPIdev Linux Master</text>
</a>
</g>
</g>
<!-- Node0&#45;&gt;Node10 -->
<g id="edge10" class="edge"><title>Node0&#45;&gt;Node10</title>
<path fill="none" stroke="blueviolet" stroke-dasharray="5,2" d="M159.892,-456.566C162.163,-508.885 174.734,-760.525 209,-829 219.268,-849.518 226.5,-852.91 246,-865 252.842,-869.242 260.76,-872.702 268.389,-875.45"/>
<text text-anchor="middle" x="218.5" y="-856" font-family="Helvetica,sans-Serif" font-size="10.00">erpc</text>
</g>
<!-- Node0&#45;&gt;Node11 -->
<g id="edge11" class="edge"><title>Node0&#45;&gt;Node11</title>
<path fill="none" stroke="blueviolet" stroke-dasharray="5,2" d="M160.046,-456.567C162.973,-505.712 177.855,-729.84 209,-791 219.412,-811.446 226.5,-814.91 246,-827 254.024,-831.975 263.529,-835.874 272.311,-838.811"/>
<text text-anchor="middle" x="218.5" y="-817" font-family="Helvetica,sans-Serif" font-size="10.00">erpc</text>
</g>
<!-- Node0&#45;&gt;Node8 -->
<g id="edge8" class="edge"><title>Node0&#45;&gt;Node8</title>
<path fill="none" stroke="blueviolet" stroke-dasharray="5,2" d="M160.248,-456.703C163.919,-502.744 180.995,-699.172 209,-753 219.59,-773.354 226.5,-776.91 246,-789 254.953,-794.551 265.75,-798.763 275.329,-801.793"/>
<text text-anchor="middle" x="218.5" y="-779" font-family="Helvetica,sans-Serif" font-size="10.00">erpc</text>
</g>
<!-- Node0&#45;&gt;Node15 -->
<g id="edge15" class="edge"><title>Node0&#45;&gt;Node15</title>
<path fill="none" stroke="blueviolet" stroke-dasharray="5,2" d="M159.234,-456.949C158.67,-493.652 160.378,-624.033 209,-715 219.816,-735.235 226.5,-738.91 246,-751 251.997,-754.718 258.821,-757.836 265.553,-760.399"/>
<text text-anchor="middle" x="218.5" y="-741" font-family="Helvetica,sans-Serif" font-size="10.00">erpc</text>
</g>
<!-- Node0&#45;&gt;Node16 -->
<g id="edge16" class="edge"><title>Node0&#45;&gt;Node16</title>
<path fill="none" stroke="blueviolet" stroke-dasharray="5,2" d="M159.63,-456.897C160.464,-490.162 166.472,-600.168 209,-677 220.111,-697.074 226.5,-700.91 246,-713 251.997,-716.718 258.821,-719.836 265.553,-722.399"/>
<text text-anchor="middle" x="218.5" y="-703" font-family="Helvetica,sans-Serif" font-size="10.00">erpc</text>
</g>
<!-- Node0&#45;&gt;Node23 -->
<g id="edge23" class="edge"><title>Node0&#45;&gt;Node23</title>
<path fill="none" stroke="blueviolet" stroke-dasharray="5,2" d="M160.172,-456.888C162.559,-486.48 172.551,-576.175 209,-639 220.514,-658.846 226.5,-662.91 246,-675 255.629,-680.97 267.391,-685.391 277.476,-688.458"/>
<text text-anchor="middle" x="218.5" y="-665" font-family="Helvetica,sans-Serif" font-size="10.00">erpc</text>
</g>
<!-- Node0&#45;&gt;Node2 -->
<g id="edge2" class="edge"><title>Node0&#45;&gt;Node2</title>
<path fill="none" stroke="blueviolet" stroke-dasharray="5,2" d="M160.992,-456.616C165.222,-481.767 178.981,-550.945 209,-600 221.139,-619.837 226.319,-624.61 246,-637 256.513,-643.618 269.634,-648.304 280.31,-651.365"/>
<text text-anchor="middle" x="218.5" y="-627" font-family="Helvetica,sans-Serif" font-size="10.00">erpc</text>
</g>
<!-- Node0&#45;&gt;Node4 -->
<g id="edge4" class="edge"><title>Node0&#45;&gt;Node4</title>
<path fill="none" stroke="blueviolet" stroke-dasharray="5,2" d="M162.251,-456.549C168.443,-477.066 184.844,-526.381 209,-562 222.053,-581.247 226.319,-586.61 246,-599 253.233,-603.554 261.7,-607.192 269.757,-610.016"/>
<text text-anchor="middle" x="218.5" y="-588" font-family="Helvetica,sans-Serif" font-size="10.00">erpc</text>
</g>
<!-- Node0&#45;&gt;Node20 -->
<g id="edge20" class="edge"><title>Node0&#45;&gt;Node20</title>
<path fill="none" stroke="blueviolet" stroke-dasharray="5,2" d="M163.705,-456.587C174.072,-478.992 203.163,-534.856 246,-561 253.465,-565.556 262.179,-569.225 270.401,-572.078"/>
<text text-anchor="middle" x="218.5" y="-550" font-family="Helvetica,sans-Serif" font-size="10.00">erpc</text>
</g>
<!-- Node0&#45;&gt;Node5 -->
<g id="edge5" class="edge"><title>Node0&#45;&gt;Node5</title>
<path fill="none" stroke="blueviolet" stroke-dasharray="5,2" d="M167.853,-456.611C182.256,-472.614 213.372,-504.757 246,-523 255.455,-528.287 266.648,-532.516 276.385,-535.63"/>
<text text-anchor="middle" x="218.5" y="-514" font-family="Helvetica,sans-Serif" font-size="10.00">erpc</text>
</g>
<!-- Node0&#45;&gt;Node21 -->
<g id="edge21" class="edge"><title>Node0&#45;&gt;Node21</title>
<path fill="none" stroke="blueviolet" stroke-dasharray="5,2" d="M179.627,-456.629C188.575,-460.838 199.267,-465.769 209,-470 225.273,-477.074 229.404,-478.72 246,-485 254.459,-488.201 263.727,-491.527 272.161,-494.484"/>
<text text-anchor="middle" x="218.5" y="-481" font-family="Helvetica,sans-Serif" font-size="10.00">erpc</text>
</g>
<!-- Node0&#45;&gt;Node24 -->
<g id="edge24" class="edge"><title>Node0&#45;&gt;Node24</title>
<path fill="none" stroke="blueviolet" stroke-dasharray="5,2" d="M191.031,-451.264C212.309,-454.141 240.48,-457.951 262.848,-460.976"/>
<text text-anchor="middle" x="218.5" y="-458" font-family="Helvetica,sans-Serif" font-size="10.00">erpc</text>
</g>
<!-- Node0&#45;&gt;Node22 -->
<g id="edge22" class="edge"><title>Node0&#45;&gt;Node22</title>
<path fill="none" stroke="blueviolet" stroke-dasharray="5,2" d="M189.099,-437.482C195.595,-435.716 202.481,-434.087 209,-433 221.485,-430.918 235.054,-429.649 247.81,-428.888"/>
<text text-anchor="middle" x="218.5" y="-436" font-family="Helvetica,sans-Serif" font-size="10.00">erpc</text>
</g>
<!-- Node19 -->
<g id="node16" class="node"><title>Node19</title>
<g id="a_node16"><a xlink:href="group__rpmsg__tty__rtos__transport.html" target="_top" xlink:title="RPMsg TTY RTOS transport. ">
<polygon fill="white" stroke="black" points="252,-380.5 252,-399.5 350,-399.5 350,-380.5 252,-380.5"/>
<text text-anchor="middle" x="301" y="-387.5" font-family="Helvetica,sans-Serif" font-size="10.00">RPMsg TTY RTOS</text>
</a>
</g>
</g>
<!-- Node0&#45;&gt;Node19 -->
<g id="edge19" class="edge"><title>Node0&#45;&gt;Node19</title>
<path fill="none" stroke="blueviolet" stroke-dasharray="5,2" d="M171.911,-437.442C181.57,-430.394 195.551,-421.022 209,-415 223.355,-408.572 239.741,-403.45 254.615,-399.557"/>
<text text-anchor="middle" x="218.5" y="-418" font-family="Helvetica,sans-Serif" font-size="10.00">erpc</text>
</g>
<!-- Node6 -->
<g id="node17" class="node"><title>Node6</title>
<g id="a_node17"><a xlink:href="group__infra__server.html" target="_top" xlink:title="Server classes. ">
<polygon fill="white" stroke="black" points="279,-342.5 279,-361.5 323,-361.5 323,-342.5 279,-342.5"/>
<text text-anchor="middle" x="301" y="-349.5" font-family="Helvetica,sans-Serif" font-size="10.00">Server</text>
</a>
</g>
</g>
<!-- Node0&#45;&gt;Node6 -->
<g id="edge6" class="edge"><title>Node0&#45;&gt;Node6</title>
<path fill="none" stroke="blueviolet" stroke-dasharray="5,2" d="M166.826,-437.43C175.901,-425.977 192.225,-406.639 209,-393 223.845,-380.931 228.669,-379.104 246,-371 256.533,-366.075 268.718,-361.683 278.844,-358.366"/>
<text text-anchor="middle" x="218.5" y="-396" font-family="Helvetica,sans-Serif" font-size="10.00">erpc</text>
</g>
<!-- Node13 -->
<g id="node18" class="node"><title>Node13</title>
<g id="a_node18"><a xlink:href="group__lpi2c__slave__transport.html" target="_top" xlink:title="Lpi2c_slave_transport">
<polygon fill="white" stroke="black" points="246,-304.5 246,-323.5 356,-323.5 356,-304.5 246,-304.5"/>
<text text-anchor="middle" x="301" y="-311.5" font-family="Helvetica,sans-Serif" font-size="10.00">Lpi2c_slave_transport</text>
</a>
</g>
</g>
<!-- Node0&#45;&gt;Node13 -->
<g id="edge13" class="edge"><title>Node0&#45;&gt;Node13</title>
<path fill="none" stroke="blueviolet" stroke-dasharray="5,2" d="M163.915,-437.366C171.62,-421.162 188.654,-387.883 209,-364 222.912,-347.669 227.36,-343.62 246,-333 252.476,-329.31 259.793,-326.152 266.901,-323.53"/>
<text text-anchor="middle" x="218.5" y="-367" font-family="Helvetica,sans-Serif" font-size="10.00">erpc</text>
</g>
<!-- Node12 -->
<g id="node19" class="node"><title>Node12</title>
<g id="a_node19"><a xlink:href="group__itbp__transport.html" target="_top" xlink:title="Simple inter&#45;thread communications transport. ">
<polygon fill="white" stroke="black" points="268.5,-266.5 268.5,-285.5 333.5,-285.5 333.5,-266.5 268.5,-266.5"/>
<text text-anchor="middle" x="301" y="-273.5" font-family="Helvetica,sans-Serif" font-size="10.00">Inter&#45;thread</text>
</a>
</g>
</g>
<!-- Node0&#45;&gt;Node12 -->
<g id="edge12" class="edge"><title>Node0&#45;&gt;Node12</title>
<path fill="none" stroke="blueviolet" stroke-dasharray="5,2" d="M161.99,-437.435C167.772,-416.412 183.587,-365.175 209,-329 221.838,-310.726 226.853,-306.497 246,-295 252.902,-290.856 260.842,-287.432 268.473,-284.688"/>
<text text-anchor="middle" x="218.5" y="-332" font-family="Helvetica,sans-Serif" font-size="10.00">erpc</text>
</g>
<!-- Node9 -->
<g id="node20" class="node"><title>Node9</title>
<g id="a_node20"><a xlink:href="group__dspi__master__transport.html" target="_top" xlink:title="MCUXpressoSDK DSPI master driver transport. ">
<polygon fill="white" stroke="black" points="265,-228.5 265,-247.5 337,-247.5 337,-228.5 265,-228.5"/>
<text text-anchor="middle" x="301" y="-235.5" font-family="Helvetica,sans-Serif" font-size="10.00">DSPI Master</text>
</a>
</g>
</g>
<!-- Node0&#45;&gt;Node9 -->
<g id="edge9" class="edge"><title>Node0&#45;&gt;Node9</title>
<path fill="none" stroke="blueviolet" stroke-dasharray="5,2" d="M160.883,-437.21C164.851,-411.611 178.033,-341.268 209,-292 221.046,-272.835 226.678,-268.793 246,-257 252.108,-253.272 259.052,-250.138 265.878,-247.559"/>
<text text-anchor="middle" x="218.5" y="-295" font-family="Helvetica,sans-Serif" font-size="10.00">erpc</text>
</g>
<!-- Node25 -->
<g id="node21" class="node"><title>Node25</title>
<g id="a_node21"><a xlink:href="group___u_s_b___c_d_c__transport.html" target="_top" xlink:title="USB CDC transport. ">
<polygon fill="white" stroke="black" points="271,-190.5 271,-209.5 331,-209.5 331,-190.5 271,-190.5"/>
<text text-anchor="middle" x="301" y="-197.5" font-family="Helvetica,sans-Serif" font-size="10.00">USB CDC</text>
</a>
</g>
</g>
<!-- Node0&#45;&gt;Node25 -->
<g id="edge25" class="edge"><title>Node0&#45;&gt;Node25</title>
<path fill="none" stroke="blueviolet" stroke-dasharray="5,2" d="M160.087,-437.456C162.264,-408.081 171.793,-317.194 209,-254 220.485,-234.494 226.678,-230.793 246,-219 253.635,-214.34 262.576,-210.609 270.961,-207.728"/>
<text text-anchor="middle" x="218.5" y="-257" font-family="Helvetica,sans-Serif" font-size="10.00">erpc</text>
</g>
<!-- Node3 -->
<g id="node22" class="node"><title>Node3</title>
<g id="a_node22"><a xlink:href="group__infra__codec.html" target="_top" xlink:title="Classes used for message serialization. ">
<polygon fill="white" stroke="black" points="266,-152.5 266,-171.5 336,-171.5 336,-152.5 266,-152.5"/>
<text text-anchor="middle" x="301" y="-159.5" font-family="Helvetica,sans-Serif" font-size="10.00">Serialization</text>
</a>
</g>
</g>
<!-- Node0&#45;&gt;Node3 -->
<g id="edge3" class="edge"><title>Node0&#45;&gt;Node3</title>
<path fill="none" stroke="blueviolet" stroke-dasharray="5,2" d="M159.517,-437.436C159.973,-404.304 164.882,-292.247 209,-215 220.076,-195.607 226.853,-192.497 246,-181 252.22,-177.265 259.283,-174.116 266.204,-171.521"/>
<text text-anchor="middle" x="218.5" y="-218" font-family="Helvetica,sans-Serif" font-size="10.00">erpc</text>
</g>
<!-- Node17 -->
<g id="node23" class="node"><title>Node17</title>
<g id="a_node23"><a xlink:href="group__rpmsg__lite__rtos__transport.html" target="_top" xlink:title="RPMsg&#45;Lite zero copy transport using RTOS API. ">
<polygon fill="white" stroke="black" points="252.5,-114.5 252.5,-133.5 349.5,-133.5 349.5,-114.5 252.5,-114.5"/>
<text text-anchor="middle" x="301" y="-121.5" font-family="Helvetica,sans-Serif" font-size="10.00">RPMsg&#45;Lite RTOS</text>
</a>
</g>
</g>
<!-- Node0&#45;&gt;Node17 -->
<g id="edge17" class="edge"><title>Node0&#45;&gt;Node17</title>
<path fill="none" stroke="blueviolet" stroke-dasharray="5,2" d="M159.142,-437.436C158.193,-401.004 158.555,-268.366 209,-177 219.795,-157.449 226.853,-154.497 246,-143 252.22,-139.265 259.283,-136.116 266.204,-133.521"/>
<text text-anchor="middle" x="218.5" y="-180" font-family="Helvetica,sans-Serif" font-size="10.00">erpc</text>
</g>
<!-- Node18 -->
<g id="node24" class="node"><title>Node18</title>
<g id="a_node24"><a xlink:href="group__rpmsg__lite__transport.html" target="_top" xlink:title="RPMsg&#45;Lite zero copy transport. ">
<polygon fill="white" stroke="black" points="267,-76.5 267,-95.5 335,-95.5 335,-76.5 267,-76.5"/>
<text text-anchor="middle" x="301" y="-83.5" font-family="Helvetica,sans-Serif" font-size="10.00">RPMsg&#45;Lite</text>
</a>
</g>
</g>
<!-- Node0&#45;&gt;Node18 -->
<g id="edge18" class="edge"><title>Node0&#45;&gt;Node18</title>
<path fill="none" stroke="blueviolet" stroke-dasharray="5,2" d="M160.209,-437.216C163.7,-390.796 180.074,-192.778 209,-139 220.865,-116.941 246.092,-103.313 266.982,-95.4102"/>
<text text-anchor="middle" x="218.5" y="-142" font-family="Helvetica,sans-Serif" font-size="10.00">erpc</text>
</g>
<!-- Node7 -->
<g id="node25" class="node"><title>Node7</title>
<g id="a_node25"><a xlink:href="group__port__setup__extensions.html" target="_top" xlink:title="Extension setup functions. ">
<polygon fill="white" stroke="black" points="256.5,-38.5 256.5,-57.5 345.5,-57.5 345.5,-38.5 256.5,-38.5"/>
<text text-anchor="middle" x="301" y="-45.5" font-family="Helvetica,sans-Serif" font-size="10.00">Extension Setup</text>
</a>
</g>
</g>
<!-- Node0&#45;&gt;Node7 -->
<g id="edge7" class="edge"><title>Node0&#45;&gt;Node7</title>
<path fill="none" stroke="blueviolet" stroke-dasharray="5,2" d="M160.027,-437.397C162.861,-388.068 177.348,-163.12 209,-102 219.409,-81.8993 226.678,-78.7925 246,-67 252.108,-63.2722 259.052,-60.1384 265.878,-57.5592"/>
<text text-anchor="middle" x="218.5" y="-105" font-family="Helvetica,sans-Serif" font-size="10.00">erpc</text>
</g>
<!-- Node14 -->
<g id="node26" class="node"><title>Node14</title>
<g id="a_node26"><a xlink:href="group__lpspi__slave__transport.html" target="_top" xlink:title="Lpspi_slave_transport">
<polygon fill="white" stroke="black" points="246,-0.5 246,-19.5 356,-19.5 356,-0.5 246,-0.5"/>
<text text-anchor="middle" x="301" y="-7.5" font-family="Helvetica,sans-Serif" font-size="10.00">Lpspi_slave_transport</text>
</a>
</g>
</g>
<!-- Node0&#45;&gt;Node14 -->
<g id="edge14" class="edge"><title>Node0&#45;&gt;Node14</title>
<path fill="none" stroke="blueviolet" stroke-dasharray="5,2" d="M159.854,-437.367C161.924,-384.687 173.602,-131.342 209,-63 220.352,-41.0836 245.037,-27.5433 265.837,-19.6397"/>
<text text-anchor="middle" x="218.5" y="-66" font-family="Helvetica,sans-Serif" font-size="10.00">erpc</text>
</g>
</g>
</svg>
