<?xml version="1.0" encoding="UTF-8" standalone="no"?>
<!DOCTYPE svg PUBLIC "-//W3C//DTD SVG 1.1//EN"
 "http://www.w3.org/Graphics/SVG/1.1/DTD/svg11.dtd">
<!-- Generated by graphviz version 2.38.0 (20140413.2041)
 -->
<!-- Title: Transports Pages: 1 -->
<svg width="345pt" height="902pt"
 viewBox="0.00 0.00 345.00 902.00" xmlns="http://www.w3.org/2000/svg" xmlns:xlink="http://www.w3.org/1999/xlink">
<g id="graph0" class="graph" transform="scale(1 1) rotate(0) translate(4 898)">
<title>Transports</title>
<polygon fill="white" stroke="none" points="-4,4 -4,-898 341,-898 341,4 -4,4"/>
<!-- Node9 -->
<g id="node1" class="node"><title>Node9</title>
<g id="a_node1"><a xlink:href="group__dspi__slave__transport.html" target="_top" xlink:title="MCUXpressoSDK DSPI slave driver transport. ">
<polygon fill="white" stroke="black" points="249.5,-874.5 249.5,-893.5 314.5,-893.5 314.5,-874.5 249.5,-874.5"/>
<text text-anchor="middle" x="282" y="-881.5" font-family="Helvetica,sans-Serif" font-size="10.00">DSPI Slave</text>
</a>
</g>
</g>
<!-- Node10 -->
<g id="node2" class="node"><title>Node10</title>
<g id="a_node2"><a xlink:href="group__i2c__slave__transport.html" target="_top" xlink:title="MCUXpressoSDK I2C slave driver transport. ">
<polygon fill="white" stroke="black" points="253.5,-836.5 253.5,-855.5 310.5,-855.5 310.5,-836.5 253.5,-836.5"/>
<text text-anchor="middle" x="282" y="-843.5" font-family="Helvetica,sans-Serif" font-size="10.00">I2C Slave</text>
</a>
</g>
</g>
<!-- Node7 -->
<g id="node3" class="node"><title>Node7</title>
<g id="a_node3"><a xlink:href="group__port__threads.html" target="_top" xlink:title="Threading model. ">
<polygon fill="white" stroke="black" points="256.5,-798.5 256.5,-817.5 307.5,-817.5 307.5,-798.5 256.5,-798.5"/>
<text text-anchor="middle" x="282" y="-805.5" font-family="Helvetica,sans-Serif" font-size="10.00">Threads</text>
</a>
</g>
</g>
<!-- Node14 -->
<g id="node4" class="node"><title>Node14</title>
<g id="a_node4"><a xlink:href="group__mbox__transport.html" target="_top" xlink:title="Mbox_transport">
<polygon fill="white" stroke="black" points="240,-760.5 240,-779.5 324,-779.5 324,-760.5 240,-760.5"/>
<text text-anchor="middle" x="282" y="-767.5" font-family="Helvetica,sans-Serif" font-size="10.00">Mbox_transport</text>
</a>
</g>
</g>
<!-- Node15 -->
<g id="node5" class="node"><title>Node15</title>
<g id="a_node5"><a xlink:href="group__mu__transport.html" target="_top" xlink:title="Messaging Unit transport. ">
<polygon fill="white" stroke="black" points="240,-722.5 240,-741.5 324,-741.5 324,-722.5 240,-722.5"/>
<text text-anchor="middle" x="282" y="-729.5" font-family="Helvetica,sans-Serif" font-size="10.00">Messaging Unit</text>
</a>
</g>
</g>
<!-- Node23 -->
<g id="node6" class="node"><title>Node23</title>
<g id="a_node6"><a xlink:href="group__tcp__transport.html" target="_top" xlink:title="Simple TCP/IP transport. ">
<polygon fill="white" stroke="black" points="258.5,-684.5 258.5,-703.5 305.5,-703.5 305.5,-684.5 258.5,-684.5"/>
<text text-anchor="middle" x="282" y="-691.5" font-family="Helvetica,sans-Serif" font-size="10.00">TCP/IP</text>
</a>
</g>
</g>
<!-- Node1 -->
<g id="node7" class="node"><title>Node1</title>
<g id="a_node7"><a xlink:href="group__infra.html" target="_top" xlink:title="C++ core. ">
<polygon fill="white" stroke="black" points="0,-437.5 0,-456.5 73,-456.5 73,-437.5 0,-437.5"/>
<text text-anchor="middle" x="36.5" y="-444.5" font-family="Helvetica,sans-Serif" font-size="10.00">Infrastructure</text>
</a>
</g>
</g>
<!-- Node0 -->
<g id="node9" class="node"><title>Node0</title>
<polygon fill="#bfbfbf" stroke="black" points="110,-437.5 110,-456.5 172,-456.5 172,-437.5 110,-437.5"/>
<text text-anchor="middle" x="141" y="-444.5" font-family="Helvetica,sans-Serif" font-size="10.00">Transports</text>
</g>
<!-- Node1&#45;&gt;Node0 -->
<g id="edge1" class="edge"><title>Node1&#45;&gt;Node0</title>
<path fill="none" stroke="black" d="M83.152,-447C92.2329,-447 101.551,-447 109.948,-447"/>
<polygon fill="black" stroke="black" points="83.0619,-443.5 73.0619,-447 83.0618,-450.5 83.0619,-443.5"/>
</g>
<!-- Node2 -->
<g id="node8" class="node"><title>Node2</title>
<g id="a_node8"><a xlink:href="group__infra__client.html" target="_top" xlink:title="Client classes. ">
<polygon fill="white" stroke="black" points="261.5,-646.5 261.5,-665.5 302.5,-665.5 302.5,-646.5 261.5,-646.5"/>
<text text-anchor="middle" x="282" y="-653.5" font-family="Helvetica,sans-Serif" font-size="10.00">Client</text>
</a>
</g>
</g>
<!-- Node0&#45;&gt;Node9 -->
<g id="edge9" class="edge"><title>Node0&#45;&gt;Node9</title>
<path fill="none" stroke="blueviolet" stroke-dasharray="5,2" d="M142.351,-456.565C144.395,-508.878 155.883,-760.492 190,-829 200.228,-849.538 207.5,-852.91 227,-865 233.842,-869.242 241.76,-872.702 249.389,-875.45"/>
<text text-anchor="middle" x="199.5" y="-856" font-family="Helvetica,sans-Serif" font-size="10.00">erpc</text>
</g>
<!-- Node0&#45;&gt;Node10 -->
<g id="edge10" class="edge"><title>Node0&#45;&gt;Node10</title>
<path fill="none" stroke="blueviolet" stroke-dasharray="5,2" d="M142.5,-456.566C145.191,-505.706 159.005,-729.81 190,-791 200.368,-811.468 207.5,-814.91 227,-827 235.024,-831.975 244.529,-835.874 253.311,-838.811"/>
<text text-anchor="middle" x="199.5" y="-817" font-family="Helvetica,sans-Serif" font-size="10.00">erpc</text>
</g>
<!-- Node0&#45;&gt;Node7 -->
<g id="edge7" class="edge"><title>Node0&#45;&gt;Node7</title>
<path fill="none" stroke="blueviolet" stroke-dasharray="5,2" d="M142.695,-456.702C146.119,-502.738 162.145,-699.147 190,-753 200.541,-773.379 207.5,-776.91 227,-789 235.953,-794.551 246.75,-798.763 256.329,-801.793"/>
<text text-anchor="middle" x="199.5" y="-779" font-family="Helvetica,sans-Serif" font-size="10.00">erpc</text>
</g>
<!-- Node0&#45;&gt;Node14 -->
<g id="edge14" class="edge"><title>Node0&#45;&gt;Node14</title>
<path fill="none" stroke="blueviolet" stroke-dasharray="5,2" d="M141.664,-456.946C140.845,-493.639 141.672,-623.991 190,-715 200.761,-735.264 207.5,-738.91 227,-751 232.997,-754.718 239.821,-757.836 246.553,-760.399"/>
<text text-anchor="middle" x="199.5" y="-741" font-family="Helvetica,sans-Serif" font-size="10.00">erpc</text>
</g>
<!-- Node0&#45;&gt;Node15 -->
<g id="edge15" class="edge"><title>Node0&#45;&gt;Node15</title>
<path fill="none" stroke="blueviolet" stroke-dasharray="5,2" d="M142.049,-456.894C142.616,-490.152 147.768,-600.138 190,-677 201.049,-697.108 207.5,-700.91 227,-713 232.997,-716.718 239.821,-719.836 246.553,-722.399"/>
<text text-anchor="middle" x="199.5" y="-703" font-family="Helvetica,sans-Serif" font-size="10.00">erpc</text>
</g>
<!-- Node0&#45;&gt;Node23 -->
<g id="edge23" class="edge"><title>Node0&#45;&gt;Node23</title>
<path fill="none" stroke="blueviolet" stroke-dasharray="5,2" d="M142.577,-456.887C144.683,-486.475 153.849,-576.158 190,-639 201.441,-658.888 207.5,-662.91 227,-675 236.629,-680.97 248.391,-685.391 258.476,-688.458"/>
<text text-anchor="middle" x="199.5" y="-665" font-family="Helvetica,sans-Serif" font-size="10.00">erpc</text>
</g>
<!-- Node0&#45;&gt;Node2 -->
<g id="edge2" class="edge"><title>Node0&#45;&gt;Node2</title>
<path fill="none" stroke="blueviolet" stroke-dasharray="5,2" d="M143.377,-456.616C147.311,-481.769 160.284,-550.951 190,-600 202.05,-619.89 207.319,-624.61 227,-637 237.513,-643.618 250.634,-648.304 261.31,-651.365"/>
<text text-anchor="middle" x="199.5" y="-627" font-family="Helvetica,sans-Serif" font-size="10.00">erpc</text>
</g>
<!-- Node19 -->
<g id="node10" class="node"><title>Node19</title>
<g id="a_node10"><a xlink:href="group__serial__transport.html" target="_top" xlink:title="POSIX and Win32 serial port transport. ">
<polygon fill="white" stroke="black" points="251.5,-608.5 251.5,-627.5 312.5,-627.5 312.5,-608.5 251.5,-608.5"/>
<text text-anchor="middle" x="282" y="-615.5" font-family="Helvetica,sans-Serif" font-size="10.00">Serial port</text>
</a>
</g>
</g>
<!-- Node0&#45;&gt;Node19 -->
<g id="edge19" class="edge"><title>Node0&#45;&gt;Node19</title>
<path fill="none" stroke="blueviolet" stroke-dasharray="5,2" d="M144.603,-456.554C150.48,-477.082 166.153,-526.415 190,-562 202.946,-581.319 207.319,-586.61 227,-599 234.401,-603.659 243.095,-607.361 251.318,-610.212"/>
<text text-anchor="middle" x="199.5" y="-588" font-family="Helvetica,sans-Serif" font-size="10.00">erpc</text>
</g>
<!-- Node4 -->
<g id="node11" class="node"><title>Node4</title>
<g id="a_node11"><a xlink:href="group__infra__utility.html" target="_top" xlink:title="Utility code used by the infrastructure. ">
<polygon fill="white" stroke="black" points="257.5,-570.5 257.5,-589.5 306.5,-589.5 306.5,-570.5 257.5,-570.5"/>
<text text-anchor="middle" x="282" y="-577.5" font-family="Helvetica,sans-Serif" font-size="10.00">Utilities</text>
</a>
</g>
</g>
<!-- Node0&#45;&gt;Node4 -->
<g id="edge4" class="edge"><title>Node0&#45;&gt;Node4</title>
<path fill="none" stroke="blueviolet" stroke-dasharray="5,2" d="M146.069,-456.609C156.119,-479.061 184.433,-535.02 227,-561 236.332,-566.695 247.614,-571.004 257.448,-574.067"/>
<text text-anchor="middle" x="199.5" y="-550" font-family="Helvetica,sans-Serif" font-size="10.00">erpc</text>
</g>
<!-- Node21 -->
<g id="node12" class="node"><title>Node21</title>
<g id="a_node12"><a xlink:href="group__spi__slave__transport.html" target="_top" xlink:title="MCUXpressoSDK SPI slave driver transport. ">
<polygon fill="white" stroke="black" points="252.5,-532.5 252.5,-551.5 311.5,-551.5 311.5,-532.5 252.5,-532.5"/>
<text text-anchor="middle" x="282" y="-539.5" font-family="Helvetica,sans-Serif" font-size="10.00">SPI Slave</text>
</a>
</g>
</g>
<!-- Node0&#45;&gt;Node21 -->
<g id="edge21" class="edge"><title>Node0&#45;&gt;Node21</title>
<path fill="none" stroke="blueviolet" stroke-dasharray="5,2" d="M150.186,-456.594C164.307,-472.57 194.836,-504.676 227,-523 234.858,-527.477 243.953,-531.172 252.412,-534.075"/>
<text text-anchor="middle" x="199.5" y="-514" font-family="Helvetica,sans-Serif" font-size="10.00">erpc</text>
</g>
<!-- Node24 -->
<g id="node13" class="node"><title>Node24</title>
<g id="a_node13"><a xlink:href="group__uart__transport.html" target="_top" xlink:title="CMSIS UART driver transport. ">
<polygon fill="white" stroke="black" points="244,-494.5 244,-513.5 320,-513.5 320,-494.5 244,-494.5"/>
<text text-anchor="middle" x="282" y="-501.5" font-family="Helvetica,sans-Serif" font-size="10.00">CMSIS UART</text>
</a>
</g>
</g>
<!-- Node0&#45;&gt;Node24 -->
<g id="edge24" class="edge"><title>Node0&#45;&gt;Node24</title>
<path fill="none" stroke="blueviolet" stroke-dasharray="5,2" d="M161.49,-456.675C170.162,-460.893 180.533,-465.818 190,-470 210.672,-479.133 234.636,-488.02 252.781,-494.417"/>
<text text-anchor="middle" x="199.5" y="-480" font-family="Helvetica,sans-Serif" font-size="10.00">erpc</text>
</g>
<!-- Node22 -->
<g id="node14" class="node"><title>Node22</title>
<g id="a_node14"><a xlink:href="group__spidev__master__transport.html" target="_top" xlink:title="SPIdev Linux transport. ">
<polygon fill="white" stroke="black" points="229,-456.5 229,-475.5 335,-475.5 335,-456.5 229,-456.5"/>
<text text-anchor="middle" x="282" y="-463.5" font-family="Helvetica,sans-Serif" font-size="10.00">SPIdev Linux Master</text>
</a>
</g>
</g>
<!-- Node0&#45;&gt;Node22 -->
<g id="edge22" class="edge"><title>Node0&#45;&gt;Node22</title>
<path fill="none" stroke="blueviolet" stroke-dasharray="5,2" d="M172.161,-451.123C188.689,-453.382 209.643,-456.246 228.742,-458.857"/>
<text text-anchor="middle" x="199.5" y="-458" font-family="Helvetica,sans-Serif" font-size="10.00">erpc</text>
</g>
<!-- Node20 -->
<g id="node15" class="node"><title>Node20</title>
<g id="a_node15"><a xlink:href="group__spi__master__transport.html" target="_top" xlink:title="MCUXpressoSDK SPI master driver transport. ">
<polygon fill="white" stroke="black" points="249.5,-418.5 249.5,-437.5 314.5,-437.5 314.5,-418.5 249.5,-418.5"/>
<text text-anchor="middle" x="282" y="-425.5" font-family="Helvetica,sans-Serif" font-size="10.00">SPI Master</text>
</a>
</g>
</g>
<!-- Node0&#45;&gt;Node20 -->
<g id="edge20" class="edge"><title>Node0&#45;&gt;Node20</title>
<path fill="none" stroke="blueviolet" stroke-dasharray="5,2" d="M170.686,-437.475C176.986,-435.709 183.668,-434.083 190,-433 209.495,-429.667 231.648,-428.397 249.215,-427.969"/>
<text text-anchor="middle" x="199.5" y="-436" font-family="Helvetica,sans-Serif" font-size="10.00">erpc</text>
</g>
<!-- Node18 -->
<g id="node16" class="node"><title>Node18</title>
<g id="a_node16"><a xlink:href="group__rpmsg__tty__rtos__transport.html" target="_top" xlink:title="RPMsg TTY RTOS transport. ">
<polygon fill="white" stroke="black" points="233,-380.5 233,-399.5 331,-399.5 331,-380.5 233,-380.5"/>
<text text-anchor="middle" x="282" y="-387.5" font-family="Helvetica,sans-Serif" font-size="10.00">RPMsg TTY RTOS</text>
</a>
</g>
</g>
<!-- Node0&#45;&gt;Node18 -->
<g id="edge18" class="edge"><title>Node0&#45;&gt;Node18</title>
<path fill="none" stroke="blueviolet" stroke-dasharray="5,2" d="M154.446,-437.495C163.806,-430.721 177.172,-421.819 190,-416 205.113,-409.144 222.465,-403.651 237.938,-399.513"/>
<text text-anchor="middle" x="199.5" y="-419" font-family="Helvetica,sans-Serif" font-size="10.00">erpc</text>
</g>
<!-- Node5 -->
<g id="node17" class="node"><title>Node5</title>
<g id="a_node17"><a xlink:href="group__infra__server.html" target="_top" xlink:title="Server classes. ">
<polygon fill="white" stroke="black" points="260,-342.5 260,-361.5 304,-361.5 304,-342.5 260,-342.5"/>
<text text-anchor="middle" x="282" y="-349.5" font-family="Helvetica,sans-Serif" font-size="10.00">Server</text>
</a>
</g>
</g>
<!-- Node0&#45;&gt;Node5 -->
<g id="edge5" class="edge"><title>Node0&#45;&gt;Node5</title>
<path fill="none" stroke="blueviolet" stroke-dasharray="5,2" d="M149.845,-437.112C158.853,-426.107 174.407,-408.145 190,-395 204.987,-382.367 209.409,-379.647 227,-371 237.435,-365.87 249.611,-361.461 259.758,-358.185"/>
<text text-anchor="middle" x="199.5" y="-398" font-family="Helvetica,sans-Serif" font-size="10.00">erpc</text>
</g>
<!-- Node12 -->
<g id="node18" class="node"><title>Node12</title>
<g id="a_node18"><a xlink:href="group__lpi2c__slave__transport.html" target="_top" xlink:title="Lpi2c_slave_transport">
<polygon fill="white" stroke="black" points="227,-304.5 227,-323.5 337,-323.5 337,-304.5 227,-304.5"/>
<text text-anchor="middle" x="282" y="-311.5" font-family="Helvetica,sans-Serif" font-size="10.00">Lpi2c_slave_transport</text>
</a>
</g>
</g>
<!-- Node0&#45;&gt;Node12 -->
<g id="edge12" class="edge"><title>Node0&#45;&gt;Node12</title>
<path fill="none" stroke="blueviolet" stroke-dasharray="5,2" d="M146.018,-437.307C155.961,-414.674 184.057,-358.353 227,-333 233.247,-329.312 240.323,-326.182 247.246,-323.592"/>
<text text-anchor="middle" x="199.5" y="-366" font-family="Helvetica,sans-Serif" font-size="10.00">erpc</text>
</g>
<!-- Node11 -->
<g id="node19" class="node"><title>Node11</title>
<g id="a_node19"><a xlink:href="group__itbp__transport.html" target="_top" xlink:title="Simple inter&#45;thread communications transport. ">
<polygon fill="white" stroke="black" points="249.5,-266.5 249.5,-285.5 314.5,-285.5 314.5,-266.5 249.5,-266.5"/>
<text text-anchor="middle" x="282" y="-273.5" font-family="Helvetica,sans-Serif" font-size="10.00">Inter&#45;thread</text>
</a>
</g>
</g>
<!-- Node0&#45;&gt;Node11 -->
<g id="edge11" class="edge"><title>Node0&#45;&gt;Node11</title>
<path fill="none" stroke="blueviolet" stroke-dasharray="5,2" d="M144.603,-437.446C150.48,-416.918 166.153,-367.585 190,-332 202.946,-312.681 207.319,-307.39 227,-295 233.813,-290.711 241.72,-287.234 249.348,-284.485"/>
<text text-anchor="middle" x="199.5" y="-335" font-family="Helvetica,sans-Serif" font-size="10.00">erpc</text>
</g>
<!-- Node8 -->
<g id="node20" class="node"><title>Node8</title>
<g id="a_node20"><a xlink:href="group__dspi__master__transport.html" target="_top" xlink:title="MCUXpressoSDK DSPI master driver transport. ">
<polygon fill="white" stroke="black" points="246,-228.5 246,-247.5 318,-247.5 318,-228.5 246,-228.5"/>
<text text-anchor="middle" x="282" y="-235.5" font-family="Helvetica,sans-Serif" font-size="10.00">DSPI Master</text>
</a>
</g>
</g>
<!-- Node0&#45;&gt;Node8 -->
<g id="edge8" class="edge"><title>Node0&#45;&gt;Node8</title>
<path fill="none" stroke="blueviolet" stroke-dasharray="5,2" d="M143.377,-437.384C147.311,-412.231 160.284,-343.049 190,-294 202.05,-274.11 207.319,-269.39 227,-257 232.971,-253.241 239.784,-250.105 246.512,-247.537"/>
<text text-anchor="middle" x="199.5" y="-297" font-family="Helvetica,sans-Serif" font-size="10.00">erpc</text>
</g>
<!-- Node25 -->
<g id="node21" class="node"><title>Node25</title>
<g id="a_node21"><a xlink:href="group___u_s_b___c_d_c__transport.html" target="_top" xlink:title="USB CDC transport. ">
<polygon fill="white" stroke="black" points="252,-190.5 252,-209.5 312,-209.5 312,-190.5 252,-190.5"/>
<text text-anchor="middle" x="282" y="-197.5" font-family="Helvetica,sans-Serif" font-size="10.00">USB CDC</text>
</a>
</g>
</g>
<!-- Node0&#45;&gt;Node25 -->
<g id="edge25" class="edge"><title>Node0&#45;&gt;Node25</title>
<path fill="none" stroke="blueviolet" stroke-dasharray="5,2" d="M142.577,-437.113C144.683,-407.525 153.849,-317.842 190,-255 201.441,-235.112 207.5,-231.09 227,-219 234.602,-214.287 243.533,-210.539 251.919,-207.661"/>
<text text-anchor="middle" x="199.5" y="-258" font-family="Helvetica,sans-Serif" font-size="10.00">erpc</text>
</g>
<!-- Node3 -->
<g id="node22" class="node"><title>Node3</title>
<g id="a_node22"><a xlink:href="group__infra__codec.html" target="_top" xlink:title="Classes used for message serialization. ">
<polygon fill="white" stroke="black" points="247,-152.5 247,-171.5 317,-171.5 317,-152.5 247,-152.5"/>
<text text-anchor="middle" x="282" y="-159.5" font-family="Helvetica,sans-Serif" font-size="10.00">Serialization</text>
</a>
</g>
</g>
<!-- Node0&#45;&gt;Node3 -->
<g id="edge3" class="edge"><title>Node0&#45;&gt;Node3</title>
<path fill="none" stroke="blueviolet" stroke-dasharray="5,2" d="M142.049,-437.106C142.616,-403.848 147.768,-293.862 190,-217 201.049,-196.892 207.5,-193.09 227,-181 233.082,-177.229 240.014,-174.077 246.837,-171.493"/>
<text text-anchor="middle" x="199.5" y="-220" font-family="Helvetica,sans-Serif" font-size="10.00">erpc</text>
</g>
<!-- Node16 -->
<g id="node23" class="node"><title>Node16</title>
<g id="a_node23"><a xlink:href="group__rpmsg__lite__rtos__transport.html" target="_top" xlink:title="RPMsg&#45;Lite zero copy transport using RTOS API. ">
<polygon fill="white" stroke="black" points="233.5,-114.5 233.5,-133.5 330.5,-133.5 330.5,-114.5 233.5,-114.5"/>
<text text-anchor="middle" x="282" y="-121.5" font-family="Helvetica,sans-Serif" font-size="10.00">RPMsg&#45;Lite RTOS</text>
</a>
</g>
</g>
<!-- Node0&#45;&gt;Node16 -->
<g id="edge16" class="edge"><title>Node0&#45;&gt;Node16</title>
<path fill="none" stroke="blueviolet" stroke-dasharray="5,2" d="M141.664,-437.054C140.845,-400.361 141.672,-270.009 190,-179 200.761,-158.736 207.5,-155.09 227,-143 232.997,-139.282 239.821,-136.164 246.553,-133.601"/>
<text text-anchor="middle" x="199.5" y="-182" font-family="Helvetica,sans-Serif" font-size="10.00">erpc</text>
</g>
<!-- Node17 -->
<g id="node24" class="node"><title>Node17</title>
<g id="a_node24"><a xlink:href="group__rpmsg__lite__transport.html" target="_top" xlink:title="RPMsg&#45;Lite zero copy transport. ">
<polygon fill="white" stroke="black" points="248,-76.5 248,-95.5 316,-95.5 316,-76.5 248,-76.5"/>
<text text-anchor="middle" x="282" y="-83.5" font-family="Helvetica,sans-Serif" font-size="10.00">RPMsg&#45;Lite</text>
</a>
</g>
</g>
<!-- Node0&#45;&gt;Node17 -->
<g id="edge17" class="edge"><title>Node0&#45;&gt;Node17</title>
<path fill="none" stroke="blueviolet" stroke-dasharray="5,2" d="M142.695,-437.298C146.119,-391.262 162.145,-194.853 190,-141 200.541,-120.621 207.5,-117.09 227,-105 233.419,-101.02 240.787,-97.7283 247.973,-95.0674"/>
<text text-anchor="middle" x="199.5" y="-144" font-family="Helvetica,sans-Serif" font-size="10.00">erpc</text>
</g>
<!-- Node6 -->
<g id="node25" class="node"><title>Node6</title>
<g id="a_node25"><a xlink:href="group__port__setup__extensions.html" target="_top" xlink:title="Extension setup functions. ">
<polygon fill="white" stroke="black" points="237.5,-38.5 237.5,-57.5 326.5,-57.5 326.5,-38.5 237.5,-38.5"/>
<text text-anchor="middle" x="282" y="-45.5" font-family="Helvetica,sans-Serif" font-size="10.00">Extension Setup</text>
</a>
</g>
</g>
<!-- Node0&#45;&gt;Node6 -->
<g id="edge6" class="edge"><title>Node0&#45;&gt;Node6</title>
<path fill="none" stroke="blueviolet" stroke-dasharray="5,2" d="M142.5,-437.434C145.191,-388.294 159.005,-164.19 190,-103 200.368,-82.5322 207.5,-79.0903 227,-67 232.997,-63.2817 239.821,-60.1644 246.553,-57.6008"/>
<text text-anchor="middle" x="199.5" y="-106" font-family="Helvetica,sans-Serif" font-size="10.00">erpc</text>
</g>
<!-- Node13 -->
<g id="node26" class="node"><title>Node13</title>
<g id="a_node26"><a xlink:href="group__lpspi__slave__transport.html" target="_top" xlink:title="Lpspi_slave_transport">
<polygon fill="white" stroke="black" points="227,-0.5 227,-19.5 337,-19.5 337,-0.5 227,-0.5"/>
<text text-anchor="middle" x="282" y="-7.5" font-family="Helvetica,sans-Serif" font-size="10.00">Lpspi_slave_transport</text>
</a>
</g>
</g>
<!-- Node0&#45;&gt;Node13 -->
<g id="edge13" class="edge"><title>Node0&#45;&gt;Node13</title>
<path fill="none" stroke="blueviolet" stroke-dasharray="5,2" d="M142.351,-437.435C144.395,-385.122 155.883,-133.508 190,-65 200.228,-44.462 207.5,-41.0903 227,-29 232.997,-25.2817 239.821,-22.1644 246.553,-19.6008"/>
<text text-anchor="middle" x="199.5" y="-68" font-family="Helvetica,sans-Serif" font-size="10.00">erpc</text>
</g>
</g>
</svg>
