<?xml version="1.0" encoding="UTF-8" standalone="no"?>
<!DOCTYPE svg PUBLIC "-//W3C//DTD SVG 1.1//EN"
 "http://www.w3.org/Graphics/SVG/1.1/DTD/svg11.dtd">
<!-- Generated by graphviz version 2.38.0 (20140413.2041)
 -->
<!-- Title: Server Pages: 1 -->
<svg width="327pt" height="902pt"
 viewBox="0.00 0.00 327.00 902.00" xmlns="http://www.w3.org/2000/svg" xmlns:xlink="http://www.w3.org/1999/xlink">
<g id="graph0" class="graph" transform="scale(1 1) rotate(0) translate(4 898)">
<title>Server</title>
<polygon fill="white" stroke="none" points="-4,4 -4,-898 323,-898 323,4 -4,4"/>
<!-- Node9 -->
<g id="node1" class="node"><title>Node9</title>
<g id="a_node1"><a xlink:href="group__dspi__slave__transport.html" target="_top" xlink:title="MCUXpressoSDK DSPI slave driver transport. ">
<polygon fill="white" stroke="black" points="231.5,-874.5 231.5,-893.5 296.5,-893.5 296.5,-874.5 231.5,-874.5"/>
<text text-anchor="middle" x="264" y="-881.5" font-family="Helvetica,sans-Serif" font-size="10.00">DSPI Slave</text>
</a>
</g>
</g>
<!-- Node10 -->
<g id="node2" class="node"><title>Node10</title>
<g id="a_node2"><a xlink:href="group__i2c__slave__transport.html" target="_top" xlink:title="MCUXpressoSDK I2C slave driver transport. ">
<polygon fill="white" stroke="black" points="235.5,-836.5 235.5,-855.5 292.5,-855.5 292.5,-836.5 235.5,-836.5"/>
<text text-anchor="middle" x="264" y="-843.5" font-family="Helvetica,sans-Serif" font-size="10.00">I2C Slave</text>
</a>
</g>
</g>
<!-- Node7 -->
<g id="node3" class="node"><title>Node7</title>
<g id="a_node3"><a xlink:href="group__port__threads.html" target="_top" xlink:title="Threading model. ">
<polygon fill="white" stroke="black" points="238.5,-798.5 238.5,-817.5 289.5,-817.5 289.5,-798.5 238.5,-798.5"/>
<text text-anchor="middle" x="264" y="-805.5" font-family="Helvetica,sans-Serif" font-size="10.00">Threads</text>
</a>
</g>
</g>
<!-- Node14 -->
<g id="node4" class="node"><title>Node14</title>
<g id="a_node4"><a xlink:href="group__mbox__transport.html" target="_top" xlink:title="Mbox_transport">
<polygon fill="white" stroke="black" points="222,-760.5 222,-779.5 306,-779.5 306,-760.5 222,-760.5"/>
<text text-anchor="middle" x="264" y="-767.5" font-family="Helvetica,sans-Serif" font-size="10.00">Mbox_transport</text>
</a>
</g>
</g>
<!-- Node15 -->
<g id="node5" class="node"><title>Node15</title>
<g id="a_node5"><a xlink:href="group__mu__transport.html" target="_top" xlink:title="Messaging Unit transport. ">
<polygon fill="white" stroke="black" points="222,-722.5 222,-741.5 306,-741.5 306,-722.5 222,-722.5"/>
<text text-anchor="middle" x="264" y="-729.5" font-family="Helvetica,sans-Serif" font-size="10.00">Messaging Unit</text>
</a>
</g>
</g>
<!-- Node23 -->
<g id="node6" class="node"><title>Node23</title>
<g id="a_node6"><a xlink:href="group__tcp__transport.html" target="_top" xlink:title="Simple TCP/IP transport. ">
<polygon fill="white" stroke="black" points="240.5,-684.5 240.5,-703.5 287.5,-703.5 287.5,-684.5 240.5,-684.5"/>
<text text-anchor="middle" x="264" y="-691.5" font-family="Helvetica,sans-Serif" font-size="10.00">TCP/IP</text>
</a>
</g>
</g>
<!-- Node1 -->
<g id="node7" class="node"><title>Node1</title>
<g id="a_node7"><a xlink:href="group__infra.html" target="_top" xlink:title="C++ core. ">
<polygon fill="white" stroke="black" points="0,-437.5 0,-456.5 73,-456.5 73,-437.5 0,-437.5"/>
<text text-anchor="middle" x="36.5" y="-444.5" font-family="Helvetica,sans-Serif" font-size="10.00">Infrastructure</text>
</a>
</g>
</g>
<!-- Node0 -->
<g id="node17" class="node"><title>Node0</title>
<polygon fill="#bfbfbf" stroke="black" points="110,-437.5 110,-456.5 154,-456.5 154,-437.5 110,-437.5"/>
<text text-anchor="middle" x="132" y="-444.5" font-family="Helvetica,sans-Serif" font-size="10.00">Server</text>
</g>
<!-- Node1&#45;&gt;Node0 -->
<g id="edge1" class="edge"><title>Node1&#45;&gt;Node0</title>
<path fill="none" stroke="black" d="M83.1489,-447C92.4819,-447 101.873,-447 109.835,-447"/>
<polygon fill="black" stroke="black" points="83.1151,-443.5 73.1151,-447 83.115,-450.5 83.1151,-443.5"/>
</g>
<!-- Node2 -->
<g id="node8" class="node"><title>Node2</title>
<g id="a_node8"><a xlink:href="group__infra__client.html" target="_top" xlink:title="Client classes. ">
<polygon fill="white" stroke="black" points="243.5,-646.5 243.5,-665.5 284.5,-665.5 284.5,-646.5 243.5,-646.5"/>
<text text-anchor="middle" x="264" y="-653.5" font-family="Helvetica,sans-Serif" font-size="10.00">Client</text>
</a>
</g>
</g>
<!-- Node4 -->
<g id="node9" class="node"><title>Node4</title>
<g id="a_node9"><a xlink:href="group__infra__transport.html" target="_top" xlink:title="Superclasses for building transports. ">
<polygon fill="white" stroke="black" points="233,-608.5 233,-627.5 295,-627.5 295,-608.5 233,-608.5"/>
<text text-anchor="middle" x="264" y="-615.5" font-family="Helvetica,sans-Serif" font-size="10.00">Transports</text>
</a>
</g>
</g>
<!-- Node19 -->
<g id="node10" class="node"><title>Node19</title>
<g id="a_node10"><a xlink:href="group__serial__transport.html" target="_top" xlink:title="POSIX and Win32 serial port transport. ">
<polygon fill="white" stroke="black" points="233.5,-570.5 233.5,-589.5 294.5,-589.5 294.5,-570.5 233.5,-570.5"/>
<text text-anchor="middle" x="264" y="-577.5" font-family="Helvetica,sans-Serif" font-size="10.00">Serial port</text>
</a>
</g>
</g>
<!-- Node5 -->
<g id="node11" class="node"><title>Node5</title>
<g id="a_node11"><a xlink:href="group__infra__utility.html" target="_top" xlink:title="Utility code used by the infrastructure. ">
<polygon fill="white" stroke="black" points="239.5,-532.5 239.5,-551.5 288.5,-551.5 288.5,-532.5 239.5,-532.5"/>
<text text-anchor="middle" x="264" y="-539.5" font-family="Helvetica,sans-Serif" font-size="10.00">Utilities</text>
</a>
</g>
</g>
<!-- Node21 -->
<g id="node12" class="node"><title>Node21</title>
<g id="a_node12"><a xlink:href="group__spi__slave__transport.html" target="_top" xlink:title="MCUXpressoSDK SPI slave driver transport. ">
<polygon fill="white" stroke="black" points="234.5,-494.5 234.5,-513.5 293.5,-513.5 293.5,-494.5 234.5,-494.5"/>
<text text-anchor="middle" x="264" y="-501.5" font-family="Helvetica,sans-Serif" font-size="10.00">SPI Slave</text>
</a>
</g>
</g>
<!-- Node24 -->
<g id="node13" class="node"><title>Node24</title>
<g id="a_node13"><a xlink:href="group__uart__transport.html" target="_top" xlink:title="CMSIS UART driver transport. ">
<polygon fill="white" stroke="black" points="226,-456.5 226,-475.5 302,-475.5 302,-456.5 226,-456.5"/>
<text text-anchor="middle" x="264" y="-463.5" font-family="Helvetica,sans-Serif" font-size="10.00">CMSIS UART</text>
</a>
</g>
</g>
<!-- Node22 -->
<g id="node14" class="node"><title>Node22</title>
<g id="a_node14"><a xlink:href="group__spidev__master__transport.html" target="_top" xlink:title="SPIdev Linux transport. ">
<polygon fill="white" stroke="black" points="211,-418.5 211,-437.5 317,-437.5 317,-418.5 211,-418.5"/>
<text text-anchor="middle" x="264" y="-425.5" font-family="Helvetica,sans-Serif" font-size="10.00">SPIdev Linux Master</text>
</a>
</g>
</g>
<!-- Node20 -->
<g id="node15" class="node"><title>Node20</title>
<g id="a_node15"><a xlink:href="group__spi__master__transport.html" target="_top" xlink:title="MCUXpressoSDK SPI master driver transport. ">
<polygon fill="white" stroke="black" points="231.5,-380.5 231.5,-399.5 296.5,-399.5 296.5,-380.5 231.5,-380.5"/>
<text text-anchor="middle" x="264" y="-387.5" font-family="Helvetica,sans-Serif" font-size="10.00">SPI Master</text>
</a>
</g>
</g>
<!-- Node18 -->
<g id="node16" class="node"><title>Node18</title>
<g id="a_node16"><a xlink:href="group__rpmsg__tty__rtos__transport.html" target="_top" xlink:title="RPMsg TTY RTOS transport. ">
<polygon fill="white" stroke="black" points="215,-342.5 215,-361.5 313,-361.5 313,-342.5 215,-342.5"/>
<text text-anchor="middle" x="264" y="-349.5" font-family="Helvetica,sans-Serif" font-size="10.00">RPMsg TTY RTOS</text>
</a>
</g>
</g>
<!-- Node0&#45;&gt;Node9 -->
<g id="edge9" class="edge"><title>Node0&#45;&gt;Node9</title>
<path fill="none" stroke="blueviolet" stroke-dasharray="5,2" d="M133.119,-456.526C133.899,-508.625 139.317,-759.239 172,-828 181.983,-849.004 189.319,-852.61 209,-865 215.813,-869.289 223.72,-872.766 231.348,-875.515"/>
<text text-anchor="middle" x="181.5" y="-855" font-family="Helvetica,sans-Serif" font-size="10.00">erpc</text>
</g>
<!-- Node0&#45;&gt;Node10 -->
<g id="edge10" class="edge"><title>Node0&#45;&gt;Node10</title>
<path fill="none" stroke="blueviolet" stroke-dasharray="5,2" d="M133.204,-456.595C134.383,-505.88 141.384,-730.649 172,-792 184.304,-816.657 213.432,-830.958 235.444,-838.574"/>
<text text-anchor="middle" x="181.5" y="-816" font-family="Helvetica,sans-Serif" font-size="10.00">erpc</text>
</g>
<!-- Node0&#45;&gt;Node7 -->
<g id="edge7" class="edge"><title>Node0&#45;&gt;Node7</title>
<path fill="none" stroke="blueviolet" stroke-dasharray="5,2" d="M133.381,-456.695C135.314,-502.697 145.035,-698.973 172,-753 182.246,-773.529 189.5,-776.91 209,-789 217.953,-794.551 228.75,-798.763 238.329,-801.793"/>
<text text-anchor="middle" x="181.5" y="-780" font-family="Helvetica,sans-Serif" font-size="10.00">erpc</text>
</g>
<!-- Node0&#45;&gt;Node14 -->
<g id="edge14" class="edge"><title>Node0&#45;&gt;Node14</title>
<path fill="none" stroke="blueviolet" stroke-dasharray="5,2" d="M133.571,-456.598C136.21,-498.844 148.12,-668.198 172,-715 182.428,-735.437 189.5,-738.91 209,-751 214.997,-754.718 221.821,-757.836 228.553,-760.399"/>
<text text-anchor="middle" x="181.5" y="-741" font-family="Helvetica,sans-Serif" font-size="10.00">erpc</text>
</g>
<!-- Node0&#45;&gt;Node15 -->
<g id="edge15" class="edge"><title>Node0&#45;&gt;Node15</title>
<path fill="none" stroke="blueviolet" stroke-dasharray="5,2" d="M132.565,-456.876C131.525,-490.078 131.518,-599.906 172,-677 182.667,-697.314 189.5,-700.91 209,-713 214.997,-716.718 221.821,-719.836 228.553,-722.399"/>
<text text-anchor="middle" x="181.5" y="-703" font-family="Helvetica,sans-Serif" font-size="10.00">erpc</text>
</g>
<!-- Node0&#45;&gt;Node23 -->
<g id="edge23" class="edge"><title>Node0&#45;&gt;Node23</title>
<path fill="none" stroke="blueviolet" stroke-dasharray="5,2" d="M133.003,-456.873C133.415,-486.422 137.608,-576.008 172,-639 182.995,-659.138 189.5,-662.91 209,-675 218.629,-680.97 230.391,-685.391 240.476,-688.458"/>
<text text-anchor="middle" x="181.5" y="-665" font-family="Helvetica,sans-Serif" font-size="10.00">erpc</text>
</g>
<!-- Node0&#45;&gt;Node2 -->
<g id="edge2" class="edge"><title>Node0&#45;&gt;Node2</title>
<path fill="none" stroke="blueviolet" stroke-dasharray="5,2" d="M133.685,-456.613C135.834,-481.759 144.065,-550.925 172,-600 183.505,-620.211 189.319,-624.61 209,-637 219.513,-643.618 232.634,-648.304 243.31,-651.365"/>
<text text-anchor="middle" x="181.5" y="-627" font-family="Helvetica,sans-Serif" font-size="10.00">erpc</text>
</g>
<!-- Node0&#45;&gt;Node4 -->
<g id="edge4" class="edge"><title>Node0&#45;&gt;Node4</title>
<path fill="none" stroke="blueviolet" stroke-dasharray="5,2" d="M134.932,-456.564C139.28,-476.647 151.119,-524.226 172,-559 184.467,-579.762 188.761,-585.701 209,-599 216.226,-603.748 224.777,-607.463 232.919,-610.299"/>
<text text-anchor="middle" x="181.5" y="-588" font-family="Helvetica,sans-Serif" font-size="10.00">erpc</text>
</g>
<!-- Node0&#45;&gt;Node19 -->
<g id="edge19" class="edge"><title>Node0&#45;&gt;Node19</title>
<path fill="none" stroke="blueviolet" stroke-dasharray="5,2" d="M136.29,-456.66C144.527,-479.222 168.338,-535.401 209,-561 216.401,-565.659 225.095,-569.361 233.318,-572.212"/>
<text text-anchor="middle" x="181.5" y="-547" font-family="Helvetica,sans-Serif" font-size="10.00">erpc</text>
</g>
<!-- Node0&#45;&gt;Node5 -->
<g id="edge5" class="edge"><title>Node0&#45;&gt;Node5</title>
<path fill="none" stroke="blueviolet" stroke-dasharray="5,2" d="M139.786,-456.562C151.82,-472.787 178.519,-505.635 209,-523 218.412,-528.362 229.599,-532.603 239.343,-535.705"/>
<text text-anchor="middle" x="181.5" y="-512" font-family="Helvetica,sans-Serif" font-size="10.00">erpc</text>
</g>
<!-- Node0&#45;&gt;Node21 -->
<g id="edge21" class="edge"><title>Node0&#45;&gt;Node21</title>
<path fill="none" stroke="blueviolet" stroke-dasharray="5,2" d="M148.271,-456.715C155.354,-461.035 163.966,-466.03 172,-470 192.109,-479.938 215.886,-488.727 234.091,-494.878"/>
<text text-anchor="middle" x="181.5" y="-480" font-family="Helvetica,sans-Serif" font-size="10.00">erpc</text>
</g>
<!-- Node0&#45;&gt;Node24 -->
<g id="edge24" class="edge"><title>Node0&#45;&gt;Node24</title>
<path fill="none" stroke="blueviolet" stroke-dasharray="5,2" d="M154.176,-450.095C173.53,-452.924 202.586,-457.17 225.808,-460.564"/>
<text text-anchor="middle" x="181.5" y="-458" font-family="Helvetica,sans-Serif" font-size="10.00">erpc</text>
</g>
<!-- Node0&#45;&gt;Node22 -->
<g id="edge22" class="edge"><title>Node0&#45;&gt;Node22</title>
<path fill="none" stroke="blueviolet" stroke-dasharray="5,2" d="M154.138,-438.157C159.842,-436.119 166.077,-434.199 172,-433 184.406,-430.488 197.945,-429.058 210.698,-428.279"/>
<text text-anchor="middle" x="181.5" y="-436" font-family="Helvetica,sans-Serif" font-size="10.00">erpc</text>
</g>
<!-- Node0&#45;&gt;Node20 -->
<g id="edge20" class="edge"><title>Node0&#45;&gt;Node20</title>
<path fill="none" stroke="blueviolet" stroke-dasharray="5,2" d="M142.816,-437.374C150.273,-430.54 161.078,-421.616 172,-416 190.557,-406.458 213.098,-399.984 231.103,-395.883"/>
<text text-anchor="middle" x="181.5" y="-419" font-family="Helvetica,sans-Serif" font-size="10.00">erpc</text>
</g>
<!-- Node0&#45;&gt;Node18 -->
<g id="edge18" class="edge"><title>Node0&#45;&gt;Node18</title>
<path fill="none" stroke="blueviolet" stroke-dasharray="5,2" d="M138.336,-437.304C145.055,-425.728 157.494,-406.269 172,-393 188.11,-378.264 210.407,-368.101 228.897,-361.58"/>
<text text-anchor="middle" x="181.5" y="-396" font-family="Helvetica,sans-Serif" font-size="10.00">erpc</text>
</g>
<!-- Node12 -->
<g id="node18" class="node"><title>Node12</title>
<g id="a_node18"><a xlink:href="group__lpi2c__slave__transport.html" target="_top" xlink:title="Lpi2c_slave_transport">
<polygon fill="white" stroke="black" points="209,-304.5 209,-323.5 319,-323.5 319,-304.5 209,-304.5"/>
<text text-anchor="middle" x="264" y="-311.5" font-family="Helvetica,sans-Serif" font-size="10.00">Lpi2c_slave_transport</text>
</a>
</g>
</g>
<!-- Node0&#45;&gt;Node12 -->
<g id="edge12" class="edge"><title>Node0&#45;&gt;Node12</title>
<path fill="none" stroke="blueviolet" stroke-dasharray="5,2" d="M136.235,-437.344C141.86,-421.44 154.533,-389.188 172,-366 185.258,-348.4 190.025,-344.202 209,-333 215.247,-329.312 222.323,-326.182 229.246,-323.592"/>
<text text-anchor="middle" x="181.5" y="-369" font-family="Helvetica,sans-Serif" font-size="10.00">erpc</text>
</g>
<!-- Node11 -->
<g id="node19" class="node"><title>Node11</title>
<g id="a_node19"><a xlink:href="group__itbp__transport.html" target="_top" xlink:title="Simple inter&#45;thread communications transport. ">
<polygon fill="white" stroke="black" points="231.5,-266.5 231.5,-285.5 296.5,-285.5 296.5,-266.5 231.5,-266.5"/>
<text text-anchor="middle" x="264" y="-273.5" font-family="Helvetica,sans-Serif" font-size="10.00">Inter&#45;thread</text>
</a>
</g>
</g>
<!-- Node0&#45;&gt;Node11 -->
<g id="edge11" class="edge"><title>Node0&#45;&gt;Node11</title>
<path fill="none" stroke="blueviolet" stroke-dasharray="5,2" d="M134.59,-437.209C138.345,-416.189 149.213,-365.75 172,-330 184.167,-310.912 189.678,-306.793 209,-295 215.871,-290.806 223.801,-287.364 231.43,-284.618"/>
<text text-anchor="middle" x="181.5" y="-333" font-family="Helvetica,sans-Serif" font-size="10.00">erpc</text>
</g>
<!-- Node8 -->
<g id="node20" class="node"><title>Node8</title>
<g id="a_node20"><a xlink:href="group__dspi__master__transport.html" target="_top" xlink:title="MCUXpressoSDK DSPI master driver transport. ">
<polygon fill="white" stroke="black" points="228,-228.5 228,-247.5 300,-247.5 300,-228.5 228,-228.5"/>
<text text-anchor="middle" x="264" y="-235.5" font-family="Helvetica,sans-Serif" font-size="10.00">DSPI Master</text>
</a>
</g>
</g>
<!-- Node0&#45;&gt;Node8 -->
<g id="edge8" class="edge"><title>Node0&#45;&gt;Node8</title>
<path fill="none" stroke="blueviolet" stroke-dasharray="5,2" d="M133.631,-437.302C135.651,-411.939 143.594,-342.204 172,-293 183.471,-273.13 189.5,-269.09 209,-257 214.997,-253.282 221.821,-250.164 228.553,-247.601"/>
<text text-anchor="middle" x="181.5" y="-296" font-family="Helvetica,sans-Serif" font-size="10.00">erpc</text>
</g>
<!-- Node25 -->
<g id="node21" class="node"><title>Node25</title>
<g id="a_node21"><a xlink:href="group___u_s_b___c_d_c__transport.html" target="_top" xlink:title="USB CDC transport. ">
<polygon fill="white" stroke="black" points="234,-190.5 234,-209.5 294,-209.5 294,-190.5 234,-190.5"/>
<text text-anchor="middle" x="264" y="-197.5" font-family="Helvetica,sans-Serif" font-size="10.00">USB CDC</text>
</a>
</g>
</g>
<!-- Node0&#45;&gt;Node25 -->
<g id="edge25" class="edge"><title>Node0&#45;&gt;Node25</title>
<path fill="none" stroke="blueviolet" stroke-dasharray="5,2" d="M133.003,-437.127C133.415,-407.578 137.608,-317.992 172,-255 182.995,-234.862 189.5,-231.09 209,-219 216.602,-214.287 225.533,-210.539 233.919,-207.661"/>
<text text-anchor="middle" x="181.5" y="-258" font-family="Helvetica,sans-Serif" font-size="10.00">erpc</text>
</g>
<!-- Node3 -->
<g id="node22" class="node"><title>Node3</title>
<g id="a_node22"><a xlink:href="group__infra__codec.html" target="_top" xlink:title="Classes used for message serialization. ">
<polygon fill="white" stroke="black" points="229,-152.5 229,-171.5 299,-171.5 299,-152.5 229,-152.5"/>
<text text-anchor="middle" x="264" y="-159.5" font-family="Helvetica,sans-Serif" font-size="10.00">Serialization</text>
</a>
</g>
</g>
<!-- Node0&#45;&gt;Node3 -->
<g id="edge3" class="edge"><title>Node0&#45;&gt;Node3</title>
<path fill="none" stroke="blueviolet" stroke-dasharray="5,2" d="M132.565,-437.124C131.525,-403.922 131.518,-294.094 172,-217 182.667,-196.686 189.5,-193.09 209,-181 215.082,-177.229 222.014,-174.077 228.837,-171.493"/>
<text text-anchor="middle" x="181.5" y="-220" font-family="Helvetica,sans-Serif" font-size="10.00">erpc</text>
</g>
<!-- Node16 -->
<g id="node23" class="node"><title>Node16</title>
<g id="a_node23"><a xlink:href="group__rpmsg__lite__rtos__transport.html" target="_top" xlink:title="RPMsg&#45;Lite zero copy transport using RTOS API. ">
<polygon fill="white" stroke="black" points="215.5,-114.5 215.5,-133.5 312.5,-133.5 312.5,-114.5 215.5,-114.5"/>
<text text-anchor="middle" x="264" y="-121.5" font-family="Helvetica,sans-Serif" font-size="10.00">RPMsg&#45;Lite RTOS</text>
</a>
</g>
</g>
<!-- Node0&#45;&gt;Node16 -->
<g id="edge16" class="edge"><title>Node0&#45;&gt;Node16</title>
<path fill="none" stroke="blueviolet" stroke-dasharray="5,2" d="M133.571,-437.402C136.21,-395.156 148.12,-225.802 172,-179 182.428,-158.563 189.5,-155.09 209,-143 214.997,-139.282 221.821,-136.164 228.553,-133.601"/>
<text text-anchor="middle" x="181.5" y="-182" font-family="Helvetica,sans-Serif" font-size="10.00">erpc</text>
</g>
<!-- Node17 -->
<g id="node24" class="node"><title>Node17</title>
<g id="a_node24"><a xlink:href="group__rpmsg__lite__transport.html" target="_top" xlink:title="RPMsg&#45;Lite zero copy transport. ">
<polygon fill="white" stroke="black" points="230,-76.5 230,-95.5 298,-95.5 298,-76.5 230,-76.5"/>
<text text-anchor="middle" x="264" y="-83.5" font-family="Helvetica,sans-Serif" font-size="10.00">RPMsg&#45;Lite</text>
</a>
</g>
</g>
<!-- Node0&#45;&gt;Node17 -->
<g id="edge17" class="edge"><title>Node0&#45;&gt;Node17</title>
<path fill="none" stroke="blueviolet" stroke-dasharray="5,2" d="M133.381,-437.305C135.314,-391.303 145.035,-195.027 172,-141 182.246,-120.471 189.5,-117.09 209,-105 215.419,-101.02 222.787,-97.7283 229.973,-95.0674"/>
<text text-anchor="middle" x="181.5" y="-144" font-family="Helvetica,sans-Serif" font-size="10.00">erpc</text>
</g>
<!-- Node6 -->
<g id="node25" class="node"><title>Node6</title>
<g id="a_node25"><a xlink:href="group__port__setup__extensions.html" target="_top" xlink:title="Extension setup functions. ">
<polygon fill="white" stroke="black" points="219.5,-38.5 219.5,-57.5 308.5,-57.5 308.5,-38.5 219.5,-38.5"/>
<text text-anchor="middle" x="264" y="-45.5" font-family="Helvetica,sans-Serif" font-size="10.00">Extension Setup</text>
</a>
</g>
</g>
<!-- Node0&#45;&gt;Node6 -->
<g id="edge6" class="edge"><title>Node0&#45;&gt;Node6</title>
<path fill="none" stroke="blueviolet" stroke-dasharray="5,2" d="M133.204,-437.405C134.383,-388.12 141.384,-163.351 172,-102 183.238,-79.4803 208.509,-65.5985 229.576,-57.5589"/>
<text text-anchor="middle" x="181.5" y="-105" font-family="Helvetica,sans-Serif" font-size="10.00">erpc</text>
</g>
<!-- Node13 -->
<g id="node26" class="node"><title>Node13</title>
<g id="a_node26"><a xlink:href="group__lpspi__slave__transport.html" target="_top" xlink:title="Lpspi_slave_transport">
<polygon fill="white" stroke="black" points="209,-0.5 209,-19.5 319,-19.5 319,-0.5 209,-0.5"/>
<text text-anchor="middle" x="264" y="-7.5" font-family="Helvetica,sans-Serif" font-size="10.00">Lpspi_slave_transport</text>
</a>
</g>
</g>
<!-- Node0&#45;&gt;Node13 -->
<g id="edge13" class="edge"><title>Node0&#45;&gt;Node13</title>
<path fill="none" stroke="blueviolet" stroke-dasharray="5,2" d="M133.119,-437.474C133.899,-385.375 139.317,-134.761 172,-66 181.983,-44.996 189.319,-41.3899 209,-29 214.971,-25.2407 221.784,-22.1052 228.512,-19.5366"/>
<text text-anchor="middle" x="181.5" y="-69" font-family="Helvetica,sans-Serif" font-size="10.00">erpc</text>
</g>
</g>
</svg>
