<?xml version="1.0" encoding="UTF-8" standalone="no"?>
<!DOCTYPE svg PUBLIC "-//W3C//DTD SVG 1.1//EN"
 "http://www.w3.org/Graphics/SVG/1.1/DTD/svg11.dtd">
<!-- Generated by graphviz version 2.38.0 (20140413.2041)
 -->
<!-- Title: RPMsg&#45;Lite RTOS Pages: 1 -->
<svg width="517pt" height="685pt"
 viewBox="0.00 0.00 517.00 685.33" xmlns="http://www.w3.org/2000/svg" xmlns:xlink="http://www.w3.org/1999/xlink">
<g id="graph0" class="graph" transform="scale(1 1) rotate(0) translate(4 681.334)">
<title>RPMsg&#45;Lite RTOS</title>
<polygon fill="white" stroke="none" points="-4,4 -4,-681.334 513,-681.334 513,4 -4,4"/>
<!-- Node1 -->
<g id="node1" class="node"><title>Node1</title>
<g id="a_node1"><a xlink:href="group__transports.html" target="_top" xlink:title="Transport layer classes. ">
<polygon fill="white" stroke="black" points="0,-322.834 0,-341.834 89,-341.834 89,-322.834 0,-322.834"/>
<text text-anchor="middle" x="44.5" y="-329.834" font-family="Helvetica,sans-Serif" font-size="10.00">Transport Layers</text>
</a>
</g>
</g>
<!-- Node0 -->
<g id="node18" class="node"><title>Node0</title>
<polygon fill="#bfbfbf" stroke="black" points="126,-322.834 126,-341.834 223,-341.834 223,-322.834 126,-322.834"/>
<text text-anchor="middle" x="174.5" y="-329.834" font-family="Helvetica,sans-Serif" font-size="10.00">RPMsg&#45;Lite RTOS</text>
</g>
<!-- Node1&#45;&gt;Node0 -->
<g id="edge1" class="edge"><title>Node1&#45;&gt;Node0</title>
<path fill="none" stroke="black" d="M99.2923,-332.334C108.032,-332.334 117.033,-332.334 125.62,-332.334"/>
<polygon fill="black" stroke="black" points="99.1924,-328.834 89.1923,-332.334 99.1923,-335.834 99.1924,-328.834"/>
</g>
<!-- Node10 -->
<g id="node2" class="node"><title>Node10</title>
<g id="a_node2"><a xlink:href="group__dspi__slave__transport.html" target="_top" xlink:title="Kinetis SDK DSPI slave driver transport. ">
<polygon fill="white" stroke="black" points="412,-645.834 412,-664.834 477,-664.834 477,-645.834 412,-645.834"/>
<text text-anchor="middle" x="444.5" y="-652.834" font-family="Helvetica,sans-Serif" font-size="10.00">DSPI Slave</text>
</a>
</g>
</g>
<!-- Node8 -->
<g id="node3" class="node"><title>Node8</title>
<g id="a_node3"><a xlink:href="group__port__threads.html" target="_top" xlink:title="Threading model. ">
<polygon fill="white" stroke="black" points="419,-607.834 419,-626.834 470,-626.834 470,-607.834 419,-607.834"/>
<text text-anchor="middle" x="444.5" y="-614.834" font-family="Helvetica,sans-Serif" font-size="10.00">Threads</text>
</a>
</g>
</g>
<!-- Node12 -->
<g id="node4" class="node"><title>Node12</title>
<g id="a_node4"><a xlink:href="group__mu__transport.html" target="_top" xlink:title="Messaging Unit transport. ">
<polygon fill="white" stroke="black" points="402.5,-569.834 402.5,-588.834 486.5,-588.834 486.5,-569.834 402.5,-569.834"/>
<text text-anchor="middle" x="444.5" y="-576.834" font-family="Helvetica,sans-Serif" font-size="10.00">Messaging Unit</text>
</a>
</g>
</g>
<!-- Node17 -->
<g id="node5" class="node"><title>Node17</title>
<g id="a_node5"><a xlink:href="group__tcp__transport.html" target="_top" xlink:title="Simple TCP/IP transport. ">
<polygon fill="white" stroke="black" points="421,-531.834 421,-550.834 468,-550.834 468,-531.834 421,-531.834"/>
<text text-anchor="middle" x="444.5" y="-538.834" font-family="Helvetica,sans-Serif" font-size="10.00">TCP/IP</text>
</a>
</g>
</g>
<!-- Node3 -->
<g id="node6" class="node"><title>Node3</title>
<g id="a_node6"><a xlink:href="group__infra__client.html" target="_top" xlink:title="Client classes. ">
<polygon fill="white" stroke="black" points="424,-493.834 424,-512.834 465,-512.834 465,-493.834 424,-493.834"/>
<text text-anchor="middle" x="444.5" y="-500.834" font-family="Helvetica,sans-Serif" font-size="10.00">Client</text>
</a>
</g>
</g>
<!-- Node5 -->
<g id="node7" class="node"><title>Node5</title>
<g id="a_node7"><a xlink:href="group__infra__transport.html" target="_top" xlink:title="Superclasses for building transports. ">
<polygon fill="white" stroke="black" points="413.5,-455.834 413.5,-474.834 475.5,-474.834 475.5,-455.834 413.5,-455.834"/>
<text text-anchor="middle" x="444.5" y="-462.834" font-family="Helvetica,sans-Serif" font-size="10.00">Transports</text>
</a>
</g>
</g>
<!-- Node14 -->
<g id="node8" class="node"><title>Node14</title>
<g id="a_node8"><a xlink:href="group__serial__transport.html" target="_top" xlink:title="POSIX and Win32 serial port transport. ">
<polygon fill="white" stroke="black" points="414,-417.834 414,-436.834 475,-436.834 475,-417.834 414,-417.834"/>
<text text-anchor="middle" x="444.5" y="-424.834" font-family="Helvetica,sans-Serif" font-size="10.00">Serial port</text>
</a>
</g>
</g>
<!-- Node6 -->
<g id="node9" class="node"><title>Node6</title>
<g id="a_node9"><a xlink:href="group__infra__utility.html" target="_top" xlink:title="Utility code used by the infrastructure. ">
<polygon fill="white" stroke="black" points="420,-379.834 420,-398.834 469,-398.834 469,-379.834 420,-379.834"/>
<text text-anchor="middle" x="444.5" y="-386.834" font-family="Helvetica,sans-Serif" font-size="10.00">Utilities</text>
</a>
</g>
</g>
<!-- Node16 -->
<g id="node10" class="node"><title>Node16</title>
<g id="a_node10"><a xlink:href="group__spi__slave__transport.html" target="_top" xlink:title="Kinetis SDK SPI slave driver transport. ">
<polygon fill="white" stroke="black" points="415,-341.834 415,-360.834 474,-360.834 474,-341.834 415,-341.834"/>
<text text-anchor="middle" x="444.5" y="-348.834" font-family="Helvetica,sans-Serif" font-size="10.00">SPI Slave</text>
</a>
</g>
</g>
<!-- Node18 -->
<g id="node11" class="node"><title>Node18</title>
<g id="a_node11"><a xlink:href="group__uart__transport.html" target="_top" xlink:title="CMSIS UART driver transport. ">
<polygon fill="white" stroke="black" points="406.5,-303.834 406.5,-322.834 482.5,-322.834 482.5,-303.834 406.5,-303.834"/>
<text text-anchor="middle" x="444.5" y="-310.834" font-family="Helvetica,sans-Serif" font-size="10.00">CMSIS UART</text>
</a>
</g>
</g>
<!-- Node15 -->
<g id="node12" class="node"><title>Node15</title>
<g id="a_node12"><a xlink:href="group__spi__master__transport.html" target="_top" xlink:title="Kinetis SDK SPI master driver transport. ">
<polygon fill="white" stroke="black" points="412,-265.834 412,-284.834 477,-284.834 477,-265.834 412,-265.834"/>
<text text-anchor="middle" x="444.5" y="-272.834" font-family="Helvetica,sans-Serif" font-size="10.00">SPI Master</text>
</a>
</g>
</g>
<!-- Node7 -->
<g id="node13" class="node"><title>Node7</title>
<g id="a_node13"><a xlink:href="group__infra__server.html" target="_top" xlink:title="Server classes. ">
<polygon fill="white" stroke="black" points="422.5,-227.834 422.5,-246.834 466.5,-246.834 466.5,-227.834 422.5,-227.834"/>
<text text-anchor="middle" x="444.5" y="-234.834" font-family="Helvetica,sans-Serif" font-size="10.00">Server</text>
</a>
</g>
</g>
<!-- Node11 -->
<g id="node14" class="node"><title>Node11</title>
<g id="a_node14"><a xlink:href="group__itbp__transport.html" target="_top" xlink:title="Simple inter&#45;thread communications transport. ">
<polygon fill="white" stroke="black" points="412,-189.834 412,-208.834 477,-208.834 477,-189.834 412,-189.834"/>
<text text-anchor="middle" x="444.5" y="-196.834" font-family="Helvetica,sans-Serif" font-size="10.00">Inter&#45;thread</text>
</a>
</g>
</g>
<!-- Node9 -->
<g id="node15" class="node"><title>Node9</title>
<g id="a_node15"><a xlink:href="group__dspi__master__transport.html" target="_top" xlink:title="Kinetis SDK DSPI master driver transport. ">
<polygon fill="white" stroke="black" points="408.5,-151.834 408.5,-170.834 480.5,-170.834 480.5,-151.834 408.5,-151.834"/>
<text text-anchor="middle" x="444.5" y="-158.834" font-family="Helvetica,sans-Serif" font-size="10.00">DSPI Master</text>
</a>
</g>
</g>
<!-- Node13 -->
<g id="node16" class="node"><title>Node13</title>
<g id="a_node16"><a xlink:href="group__rpmsg__tty__rtos__transport.html" target="_top" xlink:title="Rpmsg_tty_rtos_transport">
<polygon fill="white" stroke="black" points="380,-113.834 380,-132.834 509,-132.834 509,-113.834 380,-113.834"/>
<text text-anchor="middle" x="444.5" y="-120.834" font-family="Helvetica,sans-Serif" font-size="10.00">Rpmsg_tty_rtos_transport</text>
</a>
</g>
</g>
<!-- Node4 -->
<g id="node17" class="node"><title>Node4</title>
<g id="a_node17"><a xlink:href="group__infra__codec.html" target="_top" xlink:title="Classes used for message serialization. ">
<polygon fill="white" stroke="black" points="409.5,-75.8336 409.5,-94.8336 479.5,-94.8336 479.5,-75.8336 409.5,-75.8336"/>
<text text-anchor="middle" x="444.5" y="-82.8336" font-family="Helvetica,sans-Serif" font-size="10.00">Serialization</text>
</a>
</g>
</g>
<!-- Node0&#45;&gt;Node10 -->
<g id="edge10" class="edge"><title>Node0&#45;&gt;Node10</title>
<path fill="none" stroke="blueviolet" stroke-dasharray="5,2" d="M176.155,-342.028C179.526,-388.852 196.516,-590.996 241,-631.334 287.813,-673.783 367.795,-668.704 411.931,-661.738"/>
<text text-anchor="middle" x="301.5" y="-669.334" font-family="Helvetica,sans-Serif" font-size="10.00">erpc</text>
</g>
<!-- Node0&#45;&gt;Node8 -->
<g id="edge8" class="edge"><title>Node0&#45;&gt;Node8</title>
<path fill="none" stroke="blueviolet" stroke-dasharray="5,2" d="M176.483,-341.888C181.082,-384.643 201.922,-557.823 241,-592.334 266.887,-615.196 370.831,-617.734 418.896,-617.646"/>
<text text-anchor="middle" x="301.5" y="-619.334" font-family="Helvetica,sans-Serif" font-size="10.00">erpc</text>
</g>
<!-- Node0&#45;&gt;Node12 -->
<g id="edge12" class="edge"><title>Node0&#45;&gt;Node12</title>
<path fill="none" stroke="blueviolet" stroke-dasharray="5,2" d="M174.967,-342.294C173.674,-377.638 174.495,-497.934 241,-554.334 264.572,-574.324 350.097,-578.677 402.163,-579.424"/>
<text text-anchor="middle" x="301.5" y="-580.334" font-family="Helvetica,sans-Serif" font-size="10.00">erpc</text>
</g>
<!-- Node0&#45;&gt;Node17 -->
<g id="edge18" class="edge"><title>Node0&#45;&gt;Node17</title>
<path fill="none" stroke="blueviolet" stroke-dasharray="5,2" d="M175.667,-341.84C176.766,-372.604 184.73,-470.073 241,-515.334 268.274,-537.271 373.991,-540.835 420.882,-541.318"/>
<text text-anchor="middle" x="301.5" y="-542.334" font-family="Helvetica,sans-Serif" font-size="10.00">erpc</text>
</g>
<!-- Node0&#45;&gt;Node3 -->
<g id="edge3" class="edge"><title>Node0&#45;&gt;Node3</title>
<path fill="none" stroke="blueviolet" stroke-dasharray="5,2" d="M176.706,-342.033C180.554,-368.508 195.119,-442.299 241,-476.334 269.699,-497.623 378.677,-502.126 423.777,-503.078"/>
<text text-anchor="middle" x="301.5" y="-503.334" font-family="Helvetica,sans-Serif" font-size="10.00">erpc</text>
</g>
<!-- Node0&#45;&gt;Node5 -->
<g id="edge5" class="edge"><title>Node0&#45;&gt;Node5</title>
<path fill="none" stroke="blueviolet" stroke-dasharray="5,2" d="M178.245,-342.157C184.912,-363.993 204.177,-416.511 241,-440.334 268.808,-458.324 364.041,-463.371 413.358,-464.785"/>
<text text-anchor="middle" x="301.5" y="-464.334" font-family="Helvetica,sans-Serif" font-size="10.00">erpc</text>
</g>
<!-- Node0&#45;&gt;Node14 -->
<g id="edge15" class="edge"><title>Node0&#45;&gt;Node14</title>
<path fill="none" stroke="blueviolet" stroke-dasharray="5,2" d="M182.265,-342.046C192.926,-356.517 215.109,-383.414 241,-396.334 297.487,-424.521 372.994,-428.524 413.989,-428.328"/>
<text text-anchor="middle" x="301.5" y="-428.334" font-family="Helvetica,sans-Serif" font-size="10.00">erpc</text>
</g>
<!-- Node0&#45;&gt;Node6 -->
<g id="edge6" class="edge"><title>Node0&#45;&gt;Node6</title>
<path fill="none" stroke="blueviolet" stroke-dasharray="5,2" d="M195.123,-341.9C207.91,-347.76 225.111,-354.953 241,-359.334 304.212,-376.762 381.491,-384.652 419.728,-387.699"/>
<text text-anchor="middle" x="301.5" y="-384.334" font-family="Helvetica,sans-Serif" font-size="10.00">erpc</text>
</g>
<!-- Node0&#45;&gt;Node16 -->
<g id="edge17" class="edge"><title>Node0&#45;&gt;Node16</title>
<path fill="none" stroke="blueviolet" stroke-dasharray="5,2" d="M223.104,-335.709C278.758,-339.654 369.072,-346.057 414.888,-349.305"/>
<text text-anchor="middle" x="301.5" y="-347.334" font-family="Helvetica,sans-Serif" font-size="10.00">erpc</text>
</g>
<!-- Node0&#45;&gt;Node18 -->
<g id="edge19" class="edge"><title>Node0&#45;&gt;Node18</title>
<path fill="none" stroke="blueviolet" stroke-dasharray="5,2" d="M223.005,-324.47C229.05,-323.649 235.161,-322.907 241,-322.334 298.612,-316.672 365.797,-314.57 406.464,-313.791"/>
<text text-anchor="middle" x="301.5" y="-325.334" font-family="Helvetica,sans-Serif" font-size="10.00">erpc</text>
</g>
<!-- Node0&#45;&gt;Node15 -->
<g id="edge16" class="edge"><title>Node0&#45;&gt;Node15</title>
<path fill="none" stroke="blueviolet" stroke-dasharray="5,2" d="M190.741,-322.723C203.624,-315.083 222.832,-304.801 241,-299.334 299.648,-281.683 371.507,-276.928 411.939,-275.7"/>
<text text-anchor="middle" x="301.5" y="-302.334" font-family="Helvetica,sans-Serif" font-size="10.00">erpc</text>
</g>
<!-- Node0&#45;&gt;Node7 -->
<g id="edge7" class="edge"><title>Node0&#45;&gt;Node7</title>
<path fill="none" stroke="blueviolet" stroke-dasharray="5,2" d="M181.369,-322.796C191.44,-307.36 213.603,-277.235 241,-263.334 301.214,-232.78 383.946,-233.302 422.34,-235.568"/>
<text text-anchor="middle" x="301.5" y="-266.334" font-family="Helvetica,sans-Serif" font-size="10.00">erpc</text>
</g>
<!-- Node0&#45;&gt;Node11 -->
<g id="edge11" class="edge"><title>Node0&#45;&gt;Node11</title>
<path fill="none" stroke="blueviolet" stroke-dasharray="5,2" d="M177.908,-322.776C184.083,-300.466 202.753,-244.982 241,-220.334 293.289,-186.635 369.393,-189.346 411.852,-194.332"/>
<text text-anchor="middle" x="301.5" y="-223.334" font-family="Helvetica,sans-Serif" font-size="10.00">erpc</text>
</g>
<!-- Node0&#45;&gt;Node9 -->
<g id="edge9" class="edge"><title>Node0&#45;&gt;Node9</title>
<path fill="none" stroke="blueviolet" stroke-dasharray="5,2" d="M176.234,-322.522C178.929,-294.253 190.926,-212.356 241,-176.334 290.222,-140.925 364.713,-146.325 408.299,-153.682"/>
<text text-anchor="middle" x="301.5" y="-179.334" font-family="Helvetica,sans-Serif" font-size="10.00">erpc</text>
</g>
<!-- Node0&#45;&gt;Node13 -->
<g id="edge14" class="edge"><title>Node0&#45;&gt;Node13</title>
<path fill="none" stroke="blueviolet" stroke-dasharray="5,2" d="M175.194,-322.706C174.727,-289.629 178.143,-180.054 241,-132.334 289.209,-95.7334 364.049,-104.252 407.972,-113.783"/>
<text text-anchor="middle" x="301.5" y="-135.334" font-family="Helvetica,sans-Serif" font-size="10.00">erpc</text>
</g>
<!-- Node0&#45;&gt;Node4 -->
<g id="edge4" class="edge"><title>Node0&#45;&gt;Node4</title>
<path fill="none" stroke="blueviolet" stroke-dasharray="5,2" d="M176.582,-322.8C181.457,-281.691 202.827,-120.302 241,-90.3336 266.241,-70.5177 358.407,-76.4139 409.25,-81.433"/>
<text text-anchor="middle" x="301.5" y="-93.3336" font-family="Helvetica,sans-Serif" font-size="10.00">erpc</text>
</g>
<!-- Node2 -->
<g id="node19" class="node"><title>Node2</title>
<g id="a_node19"><a xlink:href="group__rpmsg__lite__transport.html" target="_top" xlink:title="RPMsg&#45;Lite zero copy transport. ">
<polygon fill="white" stroke="black" points="410.5,-25.8336 410.5,-44.8336 478.5,-44.8336 478.5,-25.8336 410.5,-25.8336"/>
<text text-anchor="middle" x="444.5" y="-32.8336" font-family="Helvetica,sans-Serif" font-size="10.00">RPMsg&#45;Lite</text>
</a>
</g>
</g>
<!-- Node0&#45;&gt;Node2 -->
<g id="edge2" class="edge"><title>Node0&#45;&gt;Node2</title>
<path fill="none" stroke="orange" stroke-dasharray="5,2" d="M176.393,-322.681C180.67,-278.669 200.537,-97.5936 241,-61.3336 265.285,-39.5712 359.272,-35.6606 410.219,-35.1823"/>
<text text-anchor="middle" x="301.5" y="-64.3336" font-family="Helvetica,sans-Serif" font-size="10.00">erpc::RPMsgBaseTransport</text>
</g>
<!-- Node0&#45;&gt;Node2 -->
<g id="edge13" class="edge"><title>Node0&#45;&gt;Node2</title>
<path fill="none" stroke="blueviolet" stroke-dasharray="5,2" d="M175.964,-322.814C178.512,-274.986 192.504,-61.6538 241,-22.3336 293.95,20.5976 382.547,-8.79829 422.652,-25.7107"/>
<text text-anchor="middle" x="301.5" y="-25.3336" font-family="Helvetica,sans-Serif" font-size="10.00">erpc</text>
</g>
</g>
</svg>
