<?xml version="1.0" encoding="UTF-8" standalone="no"?>
<!DOCTYPE svg PUBLIC "-//W3C//DTD SVG 1.1//EN"
 "http://www.w3.org/Graphics/SVG/1.1/DTD/svg11.dtd">
<!-- Generated by graphviz version 2.38.0 (20140413.2041)
 -->
<!-- Title: Threads Pages: 1 -->
<svg width="327pt" height="636pt"
 viewBox="0.00 0.00 327.00 636.00" xmlns="http://www.w3.org/2000/svg" xmlns:xlink="http://www.w3.org/1999/xlink">
<g id="graph0" class="graph" transform="scale(1 1) rotate(0) translate(4 632)">
<title>Threads</title>
<polygon fill="white" stroke="none" points="-4,4 -4,-632 323,-632 323,4 -4,4"/>
<!-- Node8 -->
<g id="node1" class="node"><title>Node8</title>
<g id="a_node1"><a xlink:href="group__dspi__slave__transport.html" target="_top" xlink:title="Kinetis SDK DSPI slave driver transport. ">
<polygon fill="white" stroke="black" points="222,-608.5 222,-627.5 287,-627.5 287,-608.5 222,-608.5"/>
<text text-anchor="middle" x="254.5" y="-615.5" font-family="Helvetica,sans-Serif" font-size="10.00">DSPI Slave</text>
</a>
</g>
</g>
<!-- Node0 -->
<g id="node2" class="node"><title>Node0</title>
<polygon fill="#bfbfbf" stroke="black" points="84,-304.5 84,-323.5 135,-323.5 135,-304.5 84,-304.5"/>
<text text-anchor="middle" x="109.5" y="-311.5" font-family="Helvetica,sans-Serif" font-size="10.00">Threads</text>
</g>
<!-- Node0&#45;&gt;Node8 -->
<g id="edge8" class="edge"><title>Node0&#45;&gt;Node8</title>
<path fill="none" stroke="blueviolet" stroke-dasharray="5,2" d="M110.024,-323.772C108.744,-358.697 107.973,-479.741 153,-564 163.669,-583.964 170.403,-587.671 190,-599 199.763,-604.644 211.357,-608.751 221.949,-611.671"/>
<text text-anchor="middle" x="162.5" y="-590" font-family="Helvetica,sans-Serif" font-size="10.00">erpc</text>
</g>
<!-- Node10 -->
<g id="node3" class="node"><title>Node10</title>
<g id="a_node3"><a xlink:href="group__mu__transport.html" target="_top" xlink:title="Messaging Unit transport. ">
<polygon fill="white" stroke="black" points="212.5,-570.5 212.5,-589.5 296.5,-589.5 296.5,-570.5 212.5,-570.5"/>
<text text-anchor="middle" x="254.5" y="-577.5" font-family="Helvetica,sans-Serif" font-size="10.00">Messaging Unit</text>
</a>
</g>
</g>
<!-- Node0&#45;&gt;Node10 -->
<g id="edge10" class="edge"><title>Node0&#45;&gt;Node10</title>
<path fill="none" stroke="blueviolet" stroke-dasharray="5,2" d="M110.467,-323.504C110.746,-354.515 114.737,-454.782 153,-525 163.978,-545.147 170.218,-549.377 190,-561 196.846,-565.022 204.614,-568.257 212.311,-570.835"/>
<text text-anchor="middle" x="162.5" y="-552" font-family="Helvetica,sans-Serif" font-size="10.00">erpc</text>
</g>
<!-- Node17 -->
<g id="node4" class="node"><title>Node17</title>
<g id="a_node4"><a xlink:href="group__tcp__transport.html" target="_top" xlink:title="Simple TCP/IP transport. ">
<polygon fill="white" stroke="black" points="231,-532.5 231,-551.5 278,-551.5 278,-532.5 231,-532.5"/>
<text text-anchor="middle" x="254.5" y="-539.5" font-family="Helvetica,sans-Serif" font-size="10.00">TCP/IP</text>
</a>
</g>
</g>
<!-- Node0&#45;&gt;Node17 -->
<g id="edge17" class="edge"><title>Node0&#45;&gt;Node17</title>
<path fill="none" stroke="blueviolet" stroke-dasharray="5,2" d="M111.076,-323.603C113.071,-350.801 121.403,-430.014 153,-486 164.43,-506.253 170.03,-511.082 190,-523 202.549,-530.489 218.275,-535.224 230.937,-538.094"/>
<text text-anchor="middle" x="162.5" y="-513" font-family="Helvetica,sans-Serif" font-size="10.00">erpc</text>
</g>
<!-- Node2 -->
<g id="node5" class="node"><title>Node2</title>
<g id="a_node5"><a xlink:href="group__infra__client.html" target="_top" xlink:title="Client classes. ">
<polygon fill="white" stroke="black" points="234,-494.5 234,-513.5 275,-513.5 275,-494.5 234,-494.5"/>
<text text-anchor="middle" x="254.5" y="-501.5" font-family="Helvetica,sans-Serif" font-size="10.00">Client</text>
</a>
</g>
</g>
<!-- Node0&#45;&gt;Node2 -->
<g id="edge2" class="edge"><title>Node0&#45;&gt;Node2</title>
<path fill="none" stroke="blueviolet" stroke-dasharray="5,2" d="M112.064,-323.559C116.073,-346.167 128.193,-404.171 153,-446 165.187,-466.551 169.646,-472.487 190,-485 203.43,-493.257 220.672,-498.117 233.799,-500.852"/>
<text text-anchor="middle" x="162.5" y="-474" font-family="Helvetica,sans-Serif" font-size="10.00">erpc</text>
</g>
<!-- Node4 -->
<g id="node6" class="node"><title>Node4</title>
<g id="a_node6"><a xlink:href="group__infra__transport.html" target="_top" xlink:title="Superclasses for building transports. ">
<polygon fill="white" stroke="black" points="223.5,-456.5 223.5,-475.5 285.5,-475.5 285.5,-456.5 223.5,-456.5"/>
<text text-anchor="middle" x="254.5" y="-463.5" font-family="Helvetica,sans-Serif" font-size="10.00">Transports</text>
</a>
</g>
</g>
<!-- Node0&#45;&gt;Node4 -->
<g id="edge4" class="edge"><title>Node0&#45;&gt;Node4</title>
<path fill="none" stroke="blueviolet" stroke-dasharray="5,2" d="M112.867,-323.616C119.716,-349.117 142.183,-418.463 190,-447 200.178,-453.074 212.445,-457.336 223.473,-460.261"/>
<text text-anchor="middle" x="162.5" y="-434" font-family="Helvetica,sans-Serif" font-size="10.00">erpc</text>
</g>
<!-- Node14 -->
<g id="node7" class="node"><title>Node14</title>
<g id="a_node7"><a xlink:href="group__serial__transport.html" target="_top" xlink:title="POSIX and Win32 serial port transport. ">
<polygon fill="white" stroke="black" points="224,-418.5 224,-437.5 285,-437.5 285,-418.5 224,-418.5"/>
<text text-anchor="middle" x="254.5" y="-425.5" font-family="Helvetica,sans-Serif" font-size="10.00">Serial port</text>
</a>
</g>
</g>
<!-- Node0&#45;&gt;Node14 -->
<g id="edge14" class="edge"><title>Node0&#45;&gt;Node14</title>
<path fill="none" stroke="blueviolet" stroke-dasharray="5,2" d="M115.328,-323.519C125.874,-343.218 153.014,-388.335 190,-409 200.447,-414.837 212.886,-419.068 223.974,-422.033"/>
<text text-anchor="middle" x="162.5" y="-398" font-family="Helvetica,sans-Serif" font-size="10.00">erpc</text>
</g>
<!-- Node5 -->
<g id="node8" class="node"><title>Node5</title>
<g id="a_node8"><a xlink:href="group__infra__utility.html" target="_top" xlink:title="Utility code used by the infrastructure. ">
<polygon fill="white" stroke="black" points="230,-380.5 230,-399.5 279,-399.5 279,-380.5 230,-380.5"/>
<text text-anchor="middle" x="254.5" y="-387.5" font-family="Helvetica,sans-Serif" font-size="10.00">Utilities</text>
</a>
</g>
</g>
<!-- Node0&#45;&gt;Node5 -->
<g id="edge5" class="edge"><title>Node0&#45;&gt;Node5</title>
<path fill="none" stroke="blueviolet" stroke-dasharray="5,2" d="M121.76,-323.614C130.166,-330.64 142.044,-340.254 153,-348 168.81,-359.179 172.347,-363.044 190,-371 202.694,-376.721 217.574,-381.279 229.738,-384.495"/>
<text text-anchor="middle" x="162.5" y="-364" font-family="Helvetica,sans-Serif" font-size="10.00">erpc</text>
</g>
<!-- Node16 -->
<g id="node9" class="node"><title>Node16</title>
<g id="a_node9"><a xlink:href="group__spi__slave__transport.html" target="_top" xlink:title="Kinetis SDK SPI slave driver transport. ">
<polygon fill="white" stroke="black" points="225,-342.5 225,-361.5 284,-361.5 284,-342.5 225,-342.5"/>
<text text-anchor="middle" x="254.5" y="-349.5" font-family="Helvetica,sans-Serif" font-size="10.00">SPI Slave</text>
</a>
</g>
</g>
<!-- Node0&#45;&gt;Node16 -->
<g id="edge16" class="edge"><title>Node0&#45;&gt;Node16</title>
<path fill="none" stroke="blueviolet" stroke-dasharray="5,2" d="M135.066,-323.207C140.903,-325.245 147.138,-327.301 153,-329 176.896,-335.927 204.471,-342.112 224.686,-346.319"/>
<text text-anchor="middle" x="162.5" y="-336" font-family="Helvetica,sans-Serif" font-size="10.00">erpc</text>
</g>
<!-- Node18 -->
<g id="node10" class="node"><title>Node18</title>
<g id="a_node10"><a xlink:href="group__uart__transport.html" target="_top" xlink:title="CMSIS UART driver transport. ">
<polygon fill="white" stroke="black" points="216.5,-304.5 216.5,-323.5 292.5,-323.5 292.5,-304.5 216.5,-304.5"/>
<text text-anchor="middle" x="254.5" y="-311.5" font-family="Helvetica,sans-Serif" font-size="10.00">CMSIS UART</text>
</a>
</g>
</g>
<!-- Node0&#45;&gt;Node18 -->
<g id="edge18" class="edge"><title>Node0&#45;&gt;Node18</title>
<path fill="none" stroke="blueviolet" stroke-dasharray="5,2" d="M135.083,-314C157.442,-314 190.761,-314 216.366,-314"/>
<text text-anchor="middle" x="162.5" y="-317" font-family="Helvetica,sans-Serif" font-size="10.00">erpc</text>
</g>
<!-- Node15 -->
<g id="node11" class="node"><title>Node15</title>
<g id="a_node11"><a xlink:href="group__spi__master__transport.html" target="_top" xlink:title="Kinetis SDK SPI master driver transport. ">
<polygon fill="white" stroke="black" points="222,-266.5 222,-285.5 287,-285.5 287,-266.5 222,-266.5"/>
<text text-anchor="middle" x="254.5" y="-273.5" font-family="Helvetica,sans-Serif" font-size="10.00">SPI Master</text>
</a>
</g>
</g>
<!-- Node0&#45;&gt;Node15 -->
<g id="edge15" class="edge"><title>Node0&#45;&gt;Node15</title>
<path fill="none" stroke="blueviolet" stroke-dasharray="5,2" d="M135.066,-304.793C140.903,-302.755 147.138,-300.699 153,-299 175.693,-292.422 201.703,-286.513 221.577,-282.331"/>
<text text-anchor="middle" x="162.5" y="-302" font-family="Helvetica,sans-Serif" font-size="10.00">erpc</text>
</g>
<!-- Node6 -->
<g id="node12" class="node"><title>Node6</title>
<g id="a_node12"><a xlink:href="group__infra__server.html" target="_top" xlink:title="Server classes. ">
<polygon fill="white" stroke="black" points="232.5,-228.5 232.5,-247.5 276.5,-247.5 276.5,-228.5 232.5,-228.5"/>
<text text-anchor="middle" x="254.5" y="-235.5" font-family="Helvetica,sans-Serif" font-size="10.00">Server</text>
</a>
</g>
</g>
<!-- Node0&#45;&gt;Node6 -->
<g id="edge6" class="edge"><title>Node0&#45;&gt;Node6</title>
<path fill="none" stroke="blueviolet" stroke-dasharray="5,2" d="M121.76,-304.386C130.166,-297.36 142.044,-287.746 153,-280 168.81,-268.821 172.347,-264.956 190,-257 203.638,-250.853 219.8,-246.05 232.406,-242.81"/>
<text text-anchor="middle" x="162.5" y="-283" font-family="Helvetica,sans-Serif" font-size="10.00">erpc</text>
</g>
<!-- Node9 -->
<g id="node13" class="node"><title>Node9</title>
<g id="a_node13"><a xlink:href="group__itbp__transport.html" target="_top" xlink:title="Simple inter&#45;thread communications transport. ">
<polygon fill="white" stroke="black" points="222,-190.5 222,-209.5 287,-209.5 287,-190.5 222,-190.5"/>
<text text-anchor="middle" x="254.5" y="-197.5" font-family="Helvetica,sans-Serif" font-size="10.00">Inter&#45;thread</text>
</a>
</g>
</g>
<!-- Node0&#45;&gt;Node9 -->
<g id="edge9" class="edge"><title>Node0&#45;&gt;Node9</title>
<path fill="none" stroke="blueviolet" stroke-dasharray="5,2" d="M115.328,-304.481C125.874,-284.782 153.014,-239.665 190,-219 199.744,-213.556 211.221,-209.509 221.718,-206.583"/>
<text text-anchor="middle" x="162.5" y="-252" font-family="Helvetica,sans-Serif" font-size="10.00">erpc</text>
</g>
<!-- Node7 -->
<g id="node14" class="node"><title>Node7</title>
<g id="a_node14"><a xlink:href="group__dspi__master__transport.html" target="_top" xlink:title="Kinetis SDK DSPI master driver transport. ">
<polygon fill="white" stroke="black" points="218.5,-152.5 218.5,-171.5 290.5,-171.5 290.5,-152.5 218.5,-152.5"/>
<text text-anchor="middle" x="254.5" y="-159.5" font-family="Helvetica,sans-Serif" font-size="10.00">DSPI Master</text>
</a>
</g>
</g>
<!-- Node0&#45;&gt;Node7 -->
<g id="edge7" class="edge"><title>Node0&#45;&gt;Node7</title>
<path fill="none" stroke="blueviolet" stroke-dasharray="5,2" d="M112.867,-304.384C119.716,-278.883 142.183,-209.537 190,-181 198.597,-175.869 208.684,-172.032 218.256,-169.201"/>
<text text-anchor="middle" x="162.5" y="-218" font-family="Helvetica,sans-Serif" font-size="10.00">erpc</text>
</g>
<!-- Node13 -->
<g id="node16" class="node"><title>Node13</title>
<g id="a_node16"><a xlink:href="group__rpmsg__tty__rtos__transport.html" target="_top" xlink:title="Rpmsg_tty_rtos_transport">
<polygon fill="white" stroke="black" points="190,-114.5 190,-133.5 319,-133.5 319,-114.5 190,-114.5"/>
<text text-anchor="middle" x="254.5" y="-121.5" font-family="Helvetica,sans-Serif" font-size="10.00">Rpmsg_tty_rtos_transport</text>
</a>
</g>
</g>
<!-- Node0&#45;&gt;Node13 -->
<g id="edge13" class="edge"><title>Node0&#45;&gt;Node13</title>
<path fill="none" stroke="blueviolet" stroke-dasharray="5,2" d="M112.064,-304.441C116.073,-281.833 128.193,-223.829 153,-182 165.187,-161.449 169.646,-155.513 190,-143 196.274,-139.143 203.379,-136.027 210.509,-133.522"/>
<text text-anchor="middle" x="162.5" y="-185" font-family="Helvetica,sans-Serif" font-size="10.00">erpc</text>
</g>
<!-- Node3 -->
<g id="node17" class="node"><title>Node3</title>
<g id="a_node17"><a xlink:href="group__infra__codec.html" target="_top" xlink:title="Classes used for message serialization. ">
<polygon fill="white" stroke="black" points="219.5,-76.5 219.5,-95.5 289.5,-95.5 289.5,-76.5 219.5,-76.5"/>
<text text-anchor="middle" x="254.5" y="-83.5" font-family="Helvetica,sans-Serif" font-size="10.00">Serialization</text>
</a>
</g>
</g>
<!-- Node0&#45;&gt;Node3 -->
<g id="edge3" class="edge"><title>Node0&#45;&gt;Node3</title>
<path fill="none" stroke="blueviolet" stroke-dasharray="5,2" d="M111.076,-304.397C113.071,-277.199 121.403,-197.986 153,-142 164.43,-121.747 170.03,-116.918 190,-105 198.893,-99.6925 209.382,-95.7686 219.245,-92.9113"/>
<text text-anchor="middle" x="162.5" y="-145" font-family="Helvetica,sans-Serif" font-size="10.00">erpc</text>
</g>
<!-- Node11 -->
<g id="node18" class="node"><title>Node11</title>
<g id="a_node18"><a xlink:href="group__rpmsg__lite__rtos__transport.html" target="_top" xlink:title="RPMsg&#45;Lite zero copy transport using RTOS API. ">
<polygon fill="white" stroke="black" points="206,-38.5 206,-57.5 303,-57.5 303,-38.5 206,-38.5"/>
<text text-anchor="middle" x="254.5" y="-45.5" font-family="Helvetica,sans-Serif" font-size="10.00">RPMsg&#45;Lite RTOS</text>
</a>
</g>
</g>
<!-- Node0&#45;&gt;Node11 -->
<g id="edge11" class="edge"><title>Node0&#45;&gt;Node11</title>
<path fill="none" stroke="blueviolet" stroke-dasharray="5,2" d="M110.467,-304.496C110.746,-273.485 114.737,-173.218 153,-103 163.978,-82.8531 170.218,-78.623 190,-67 196.548,-63.1526 203.941,-60.0262 211.307,-57.5046"/>
<text text-anchor="middle" x="162.5" y="-106" font-family="Helvetica,sans-Serif" font-size="10.00">erpc</text>
</g>
<!-- Node12 -->
<g id="node19" class="node"><title>Node12</title>
<g id="a_node19"><a xlink:href="group__rpmsg__lite__transport.html" target="_top" xlink:title="RPMsg&#45;Lite zero copy transport. ">
<polygon fill="white" stroke="black" points="220.5,-0.5 220.5,-19.5 288.5,-19.5 288.5,-0.5 220.5,-0.5"/>
<text text-anchor="middle" x="254.5" y="-7.5" font-family="Helvetica,sans-Serif" font-size="10.00">RPMsg&#45;Lite</text>
</a>
</g>
</g>
<!-- Node0&#45;&gt;Node12 -->
<g id="edge12" class="edge"><title>Node0&#45;&gt;Node12</title>
<path fill="none" stroke="blueviolet" stroke-dasharray="5,2" d="M110.024,-304.228C108.744,-269.303 107.973,-148.259 153,-64 163.669,-44.0357 170.403,-40.3295 190,-29 199.265,-23.6437 210.178,-19.6717 220.32,-16.7849"/>
<text text-anchor="middle" x="162.5" y="-67" font-family="Helvetica,sans-Serif" font-size="10.00">erpc</text>
</g>
<!-- Node1 -->
<g id="node15" class="node"><title>Node1</title>
<g id="a_node15"><a xlink:href="group__port.html" target="_top" xlink:title="Porting layer. ">
<polygon fill="white" stroke="black" points="0,-304.5 0,-323.5 47,-323.5 47,-304.5 0,-304.5"/>
<text text-anchor="middle" x="23.5" y="-311.5" font-family="Helvetica,sans-Serif" font-size="10.00">Porting</text>
</a>
</g>
</g>
<!-- Node1&#45;&gt;Node0 -->
<g id="edge1" class="edge"><title>Node1&#45;&gt;Node0</title>
<path fill="none" stroke="black" d="M57.084,-314C65.9853,-314 75.4816,-314 83.8595,-314"/>
<polygon fill="black" stroke="black" points="57.0105,-310.5 47.0105,-314 57.0104,-317.5 57.0105,-310.5"/>
</g>
</g>
</svg>
