<?xml version="1.0" encoding="UTF-8" standalone="no"?>
<!DOCTYPE svg PUBLIC "-//W3C//DTD SVG 1.1//EN"
 "http://www.w3.org/Graphics/SVG/1.1/DTD/svg11.dtd">
<!-- Generated by graphviz version 2.38.0 (20140413.2041)
 -->
<!-- Title: Lpspi_slave_transport Pages: 1 -->
<svg width="283pt" height="902pt"
 viewBox="0.00 0.00 283.00 902.00" xmlns="http://www.w3.org/2000/svg" xmlns:xlink="http://www.w3.org/1999/xlink">
<g id="graph0" class="graph" transform="scale(1 1) rotate(0) translate(4 898)">
<title>Lpspi_slave_transport</title>
<polygon fill="white" stroke="none" points="-4,4 -4,-898 279,-898 279,4 -4,4"/>
<!-- Node9 -->
<g id="node1" class="node"><title>Node9</title>
<g id="a_node1"><a xlink:href="group__dspi__slave__transport.html" target="_top" xlink:title="MCUXpressoSDK DSPI slave driver transport. ">
<polygon fill="white" stroke="black" points="187.5,-874.5 187.5,-893.5 252.5,-893.5 252.5,-874.5 187.5,-874.5"/>
<text text-anchor="middle" x="220" y="-881.5" font-family="Helvetica,sans-Serif" font-size="10.00">DSPI Slave</text>
</a>
</g>
</g>
<!-- Node10 -->
<g id="node2" class="node"><title>Node10</title>
<g id="a_node2"><a xlink:href="group__i2c__slave__transport.html" target="_top" xlink:title="MCUXpressoSDK I2C slave driver transport. ">
<polygon fill="white" stroke="black" points="191.5,-836.5 191.5,-855.5 248.5,-855.5 248.5,-836.5 191.5,-836.5"/>
<text text-anchor="middle" x="220" y="-843.5" font-family="Helvetica,sans-Serif" font-size="10.00">I2C Slave</text>
</a>
</g>
</g>
<!-- Node7 -->
<g id="node3" class="node"><title>Node7</title>
<g id="a_node3"><a xlink:href="group__port__threads.html" target="_top" xlink:title="Threading model. ">
<polygon fill="white" stroke="black" points="194.5,-798.5 194.5,-817.5 245.5,-817.5 245.5,-798.5 194.5,-798.5"/>
<text text-anchor="middle" x="220" y="-805.5" font-family="Helvetica,sans-Serif" font-size="10.00">Threads</text>
</a>
</g>
</g>
<!-- Node13 -->
<g id="node4" class="node"><title>Node13</title>
<g id="a_node4"><a xlink:href="group__mbox__transport.html" target="_top" xlink:title="Mbox_transport">
<polygon fill="white" stroke="black" points="178,-760.5 178,-779.5 262,-779.5 262,-760.5 178,-760.5"/>
<text text-anchor="middle" x="220" y="-767.5" font-family="Helvetica,sans-Serif" font-size="10.00">Mbox_transport</text>
</a>
</g>
</g>
<!-- Node14 -->
<g id="node5" class="node"><title>Node14</title>
<g id="a_node5"><a xlink:href="group__mu__transport.html" target="_top" xlink:title="Messaging Unit transport. ">
<polygon fill="white" stroke="black" points="178,-722.5 178,-741.5 262,-741.5 262,-722.5 178,-722.5"/>
<text text-anchor="middle" x="220" y="-729.5" font-family="Helvetica,sans-Serif" font-size="10.00">Messaging Unit</text>
</a>
</g>
</g>
<!-- Node22 -->
<g id="node6" class="node"><title>Node22</title>
<g id="a_node6"><a xlink:href="group__tcp__transport.html" target="_top" xlink:title="Simple TCP/IP transport. ">
<polygon fill="white" stroke="black" points="196.5,-684.5 196.5,-703.5 243.5,-703.5 243.5,-684.5 196.5,-684.5"/>
<text text-anchor="middle" x="220" y="-691.5" font-family="Helvetica,sans-Serif" font-size="10.00">TCP/IP</text>
</a>
</g>
</g>
<!-- Node1 -->
<g id="node7" class="node"><title>Node1</title>
<g id="a_node7"><a xlink:href="group__infra__client.html" target="_top" xlink:title="Client classes. ">
<polygon fill="white" stroke="black" points="199.5,-646.5 199.5,-665.5 240.5,-665.5 240.5,-646.5 199.5,-646.5"/>
<text text-anchor="middle" x="220" y="-653.5" font-family="Helvetica,sans-Serif" font-size="10.00">Client</text>
</a>
</g>
</g>
<!-- Node3 -->
<g id="node8" class="node"><title>Node3</title>
<g id="a_node8"><a xlink:href="group__infra__transport.html" target="_top" xlink:title="Superclasses for building transports. ">
<polygon fill="white" stroke="black" points="189,-608.5 189,-627.5 251,-627.5 251,-608.5 189,-608.5"/>
<text text-anchor="middle" x="220" y="-615.5" font-family="Helvetica,sans-Serif" font-size="10.00">Transports</text>
</a>
</g>
</g>
<!-- Node18 -->
<g id="node9" class="node"><title>Node18</title>
<g id="a_node9"><a xlink:href="group__serial__transport.html" target="_top" xlink:title="POSIX and Win32 serial port transport. ">
<polygon fill="white" stroke="black" points="189.5,-570.5 189.5,-589.5 250.5,-589.5 250.5,-570.5 189.5,-570.5"/>
<text text-anchor="middle" x="220" y="-577.5" font-family="Helvetica,sans-Serif" font-size="10.00">Serial port</text>
</a>
</g>
</g>
<!-- Node4 -->
<g id="node10" class="node"><title>Node4</title>
<g id="a_node10"><a xlink:href="group__infra__utility.html" target="_top" xlink:title="Utility code used by the infrastructure. ">
<polygon fill="white" stroke="black" points="195.5,-532.5 195.5,-551.5 244.5,-551.5 244.5,-532.5 195.5,-532.5"/>
<text text-anchor="middle" x="220" y="-539.5" font-family="Helvetica,sans-Serif" font-size="10.00">Utilities</text>
</a>
</g>
</g>
<!-- Node20 -->
<g id="node11" class="node"><title>Node20</title>
<g id="a_node11"><a xlink:href="group__spi__slave__transport.html" target="_top" xlink:title="MCUXpressoSDK SPI slave driver transport. ">
<polygon fill="white" stroke="black" points="190.5,-494.5 190.5,-513.5 249.5,-513.5 249.5,-494.5 190.5,-494.5"/>
<text text-anchor="middle" x="220" y="-501.5" font-family="Helvetica,sans-Serif" font-size="10.00">SPI Slave</text>
</a>
</g>
</g>
<!-- Node23 -->
<g id="node12" class="node"><title>Node23</title>
<g id="a_node12"><a xlink:href="group__uart__transport.html" target="_top" xlink:title="CMSIS UART driver transport. ">
<polygon fill="white" stroke="black" points="182,-456.5 182,-475.5 258,-475.5 258,-456.5 182,-456.5"/>
<text text-anchor="middle" x="220" y="-463.5" font-family="Helvetica,sans-Serif" font-size="10.00">CMSIS UART</text>
</a>
</g>
</g>
<!-- Node21 -->
<g id="node13" class="node"><title>Node21</title>
<g id="a_node13"><a xlink:href="group__spidev__master__transport.html" target="_top" xlink:title="SPIdev Linux transport. ">
<polygon fill="white" stroke="black" points="167,-418.5 167,-437.5 273,-437.5 273,-418.5 167,-418.5"/>
<text text-anchor="middle" x="220" y="-425.5" font-family="Helvetica,sans-Serif" font-size="10.00">SPIdev Linux Master</text>
</a>
</g>
</g>
<!-- Node19 -->
<g id="node14" class="node"><title>Node19</title>
<g id="a_node14"><a xlink:href="group__spi__master__transport.html" target="_top" xlink:title="MCUXpressoSDK SPI master driver transport. ">
<polygon fill="white" stroke="black" points="187.5,-380.5 187.5,-399.5 252.5,-399.5 252.5,-380.5 187.5,-380.5"/>
<text text-anchor="middle" x="220" y="-387.5" font-family="Helvetica,sans-Serif" font-size="10.00">SPI Master</text>
</a>
</g>
</g>
<!-- Node17 -->
<g id="node15" class="node"><title>Node17</title>
<g id="a_node15"><a xlink:href="group__rpmsg__tty__rtos__transport.html" target="_top" xlink:title="RPMsg TTY RTOS transport. ">
<polygon fill="white" stroke="black" points="171,-342.5 171,-361.5 269,-361.5 269,-342.5 171,-342.5"/>
<text text-anchor="middle" x="220" y="-349.5" font-family="Helvetica,sans-Serif" font-size="10.00">RPMsg TTY RTOS</text>
</a>
</g>
</g>
<!-- Node5 -->
<g id="node16" class="node"><title>Node5</title>
<g id="a_node16"><a xlink:href="group__infra__server.html" target="_top" xlink:title="Server classes. ">
<polygon fill="white" stroke="black" points="198,-304.5 198,-323.5 242,-323.5 242,-304.5 198,-304.5"/>
<text text-anchor="middle" x="220" y="-311.5" font-family="Helvetica,sans-Serif" font-size="10.00">Server</text>
</a>
</g>
</g>
<!-- Node12 -->
<g id="node17" class="node"><title>Node12</title>
<g id="a_node17"><a xlink:href="group__lpi2c__slave__transport.html" target="_top" xlink:title="Lpi2c_slave_transport">
<polygon fill="white" stroke="black" points="165,-266.5 165,-285.5 275,-285.5 275,-266.5 165,-266.5"/>
<text text-anchor="middle" x="220" y="-273.5" font-family="Helvetica,sans-Serif" font-size="10.00">Lpi2c_slave_transport</text>
</a>
</g>
</g>
<!-- Node11 -->
<g id="node18" class="node"><title>Node11</title>
<g id="a_node18"><a xlink:href="group__itbp__transport.html" target="_top" xlink:title="Simple inter&#45;thread communications transport. ">
<polygon fill="white" stroke="black" points="187.5,-228.5 187.5,-247.5 252.5,-247.5 252.5,-228.5 187.5,-228.5"/>
<text text-anchor="middle" x="220" y="-235.5" font-family="Helvetica,sans-Serif" font-size="10.00">Inter&#45;thread</text>
</a>
</g>
</g>
<!-- Node8 -->
<g id="node19" class="node"><title>Node8</title>
<g id="a_node19"><a xlink:href="group__dspi__master__transport.html" target="_top" xlink:title="MCUXpressoSDK DSPI master driver transport. ">
<polygon fill="white" stroke="black" points="184,-190.5 184,-209.5 256,-209.5 256,-190.5 184,-190.5"/>
<text text-anchor="middle" x="220" y="-197.5" font-family="Helvetica,sans-Serif" font-size="10.00">DSPI Master</text>
</a>
</g>
</g>
<!-- Node24 -->
<g id="node20" class="node"><title>Node24</title>
<g id="a_node20"><a xlink:href="group___u_s_b___c_d_c__transport.html" target="_top" xlink:title="USB CDC transport. ">
<polygon fill="white" stroke="black" points="190,-152.5 190,-171.5 250,-171.5 250,-152.5 190,-152.5"/>
<text text-anchor="middle" x="220" y="-159.5" font-family="Helvetica,sans-Serif" font-size="10.00">USB CDC</text>
</a>
</g>
</g>
<!-- Node2 -->
<g id="node21" class="node"><title>Node2</title>
<g id="a_node21"><a xlink:href="group__infra__codec.html" target="_top" xlink:title="Classes used for message serialization. ">
<polygon fill="white" stroke="black" points="185,-114.5 185,-133.5 255,-133.5 255,-114.5 185,-114.5"/>
<text text-anchor="middle" x="220" y="-121.5" font-family="Helvetica,sans-Serif" font-size="10.00">Serialization</text>
</a>
</g>
</g>
<!-- Node15 -->
<g id="node22" class="node"><title>Node15</title>
<g id="a_node22"><a xlink:href="group__rpmsg__lite__rtos__transport.html" target="_top" xlink:title="RPMsg&#45;Lite zero copy transport using RTOS API. ">
<polygon fill="white" stroke="black" points="171.5,-76.5 171.5,-95.5 268.5,-95.5 268.5,-76.5 171.5,-76.5"/>
<text text-anchor="middle" x="220" y="-83.5" font-family="Helvetica,sans-Serif" font-size="10.00">RPMsg&#45;Lite RTOS</text>
</a>
</g>
</g>
<!-- Node16 -->
<g id="node23" class="node"><title>Node16</title>
<g id="a_node23"><a xlink:href="group__rpmsg__lite__transport.html" target="_top" xlink:title="RPMsg&#45;Lite zero copy transport. ">
<polygon fill="white" stroke="black" points="186,-38.5 186,-57.5 254,-57.5 254,-38.5 186,-38.5"/>
<text text-anchor="middle" x="220" y="-45.5" font-family="Helvetica,sans-Serif" font-size="10.00">RPMsg&#45;Lite</text>
</a>
</g>
</g>
<!-- Node6 -->
<g id="node24" class="node"><title>Node6</title>
<g id="a_node24"><a xlink:href="group__port__setup__extensions.html" target="_top" xlink:title="Extension setup functions. ">
<polygon fill="white" stroke="black" points="175.5,-0.5 175.5,-19.5 264.5,-19.5 264.5,-0.5 175.5,-0.5"/>
<text text-anchor="middle" x="220" y="-7.5" font-family="Helvetica,sans-Serif" font-size="10.00">Extension Setup</text>
</a>
</g>
</g>
<!-- Node0 -->
<g id="node25" class="node"><title>Node0</title>
<polygon fill="#bfbfbf" stroke="black" points="0,-437.5 0,-456.5 110,-456.5 110,-437.5 0,-437.5"/>
<text text-anchor="middle" x="55" y="-444.5" font-family="Helvetica,sans-Serif" font-size="10.00">Lpspi_slave_transport</text>
</g>
<!-- Node0&#45;&gt;Node9 -->
<g id="edge9" class="edge"><title>Node0&#45;&gt;Node9</title>
<path fill="none" stroke="blueviolet" stroke-dasharray="5,2" d="M55.7521,-456.563C54.9869,-501.513 56.1763,-695.214 128,-829 138.853,-849.215 145.5,-852.91 165,-865 171.842,-869.242 179.76,-872.702 187.389,-875.45"/>
<text text-anchor="middle" x="137.5" y="-855" font-family="Helvetica,sans-Serif" font-size="10.00">erpc</text>
</g>
<!-- Node0&#45;&gt;Node10 -->
<g id="edge10" class="edge"><title>Node0&#45;&gt;Node10</title>
<path fill="none" stroke="blueviolet" stroke-dasharray="5,2" d="M56.0127,-456.731C56.4647,-499.232 62.4429,-671.768 128,-791 139.054,-811.105 145.5,-814.91 165,-827 173.024,-831.975 182.529,-835.874 191.311,-838.811"/>
<text text-anchor="middle" x="137.5" y="-817" font-family="Helvetica,sans-Serif" font-size="10.00">erpc</text>
</g>
<!-- Node0&#45;&gt;Node7 -->
<g id="edge7" class="edge"><title>Node0&#45;&gt;Node7</title>
<path fill="none" stroke="blueviolet" stroke-dasharray="5,2" d="M56.3377,-456.709C58.0952,-496.251 68.5844,-648.037 128,-753 139.303,-772.967 145.5,-776.91 165,-789 173.953,-794.551 184.75,-798.763 194.329,-801.793"/>
<text text-anchor="middle" x="137.5" y="-779" font-family="Helvetica,sans-Serif" font-size="10.00">erpc</text>
</g>
<!-- Node0&#45;&gt;Node13 -->
<g id="edge13" class="edge"><title>Node0&#45;&gt;Node13</title>
<path fill="none" stroke="blueviolet" stroke-dasharray="5,2" d="M56.752,-456.723C59.9373,-493.168 74.7128,-624.215 128,-715 139.614,-734.787 145.5,-738.91 165,-751 170.997,-754.718 177.821,-757.836 184.553,-760.399"/>
<text text-anchor="middle" x="137.5" y="-741" font-family="Helvetica,sans-Serif" font-size="10.00">erpc</text>
</g>
<!-- Node0&#45;&gt;Node14 -->
<g id="edge14" class="edge"><title>Node0&#45;&gt;Node14</title>
<path fill="none" stroke="blueviolet" stroke-dasharray="5,2" d="M57.3743,-456.844C62.3364,-489.935 81.5474,-599.379 128,-676 140.057,-695.887 145.319,-700.61 165,-713 170.971,-716.759 177.784,-719.895 184.512,-722.463"/>
<text text-anchor="middle" x="137.5" y="-703" font-family="Helvetica,sans-Serif" font-size="10.00">erpc</text>
</g>
<!-- Node0&#45;&gt;Node22 -->
<g id="edge22" class="edge"><title>Node0&#45;&gt;Node22</title>
<path fill="none" stroke="blueviolet" stroke-dasharray="5,2" d="M58.1855,-456.729C65.0302,-485.856 88.0139,-574.223 128,-637 140.664,-656.882 145.136,-662.309 165,-675 174.548,-681.1 186.3,-685.535 196.401,-688.578"/>
<text text-anchor="middle" x="137.5" y="-664" font-family="Helvetica,sans-Serif" font-size="10.00">erpc</text>
</g>
<!-- Node0&#45;&gt;Node1 -->
<g id="edge1" class="edge"><title>Node0&#45;&gt;Node1</title>
<path fill="none" stroke="blueviolet" stroke-dasharray="5,2" d="M59.4197,-456.748C68.3961,-481.619 94.2836,-548.929 128,-598 141.53,-617.692 144.95,-624.006 165,-637 175.509,-643.81 188.754,-648.519 199.497,-651.546"/>
<text text-anchor="middle" x="137.5" y="-625" font-family="Helvetica,sans-Serif" font-size="10.00">erpc</text>
</g>
<!-- Node0&#45;&gt;Node3 -->
<g id="edge3" class="edge"><title>Node0&#45;&gt;Node3</title>
<path fill="none" stroke="blueviolet" stroke-dasharray="5,2" d="M59.8898,-456.794C71.3492,-484.272 107.808,-562.46 165,-599 172.286,-603.655 180.857,-607.341 188.997,-610.178"/>
<text text-anchor="middle" x="137.5" y="-586" font-family="Helvetica,sans-Serif" font-size="10.00">erpc</text>
</g>
<!-- Node0&#45;&gt;Node18 -->
<g id="edge18" class="edge"><title>Node0&#45;&gt;Node18</title>
<path fill="none" stroke="blueviolet" stroke-dasharray="5,2" d="M62.3977,-456.602C77.5293,-478.548 117.813,-532.667 165,-561 172.498,-565.502 181.222,-569.154 189.443,-572.009"/>
<text text-anchor="middle" x="137.5" y="-549" font-family="Helvetica,sans-Serif" font-size="10.00">erpc</text>
</g>
<!-- Node0&#45;&gt;Node4 -->
<g id="edge4" class="edge"><title>Node0&#45;&gt;Node4</title>
<path fill="none" stroke="blueviolet" stroke-dasharray="5,2" d="M67.427,-456.55C86.5766,-472.177 126.814,-503.429 165,-523 174.552,-527.895 185.655,-532.042 195.301,-535.2"/>
<text text-anchor="middle" x="137.5" y="-515" font-family="Helvetica,sans-Serif" font-size="10.00">erpc</text>
</g>
<!-- Node0&#45;&gt;Node20 -->
<g id="edge20" class="edge"><title>Node0&#45;&gt;Node20</title>
<path fill="none" stroke="blueviolet" stroke-dasharray="5,2" d="M83.2825,-456.541C113.371,-467.062 161.504,-483.894 191.628,-494.428"/>
<text text-anchor="middle" x="137.5" y="-480" font-family="Helvetica,sans-Serif" font-size="10.00">erpc</text>
</g>
<!-- Node0&#45;&gt;Node23 -->
<g id="edge23" class="edge"><title>Node0&#45;&gt;Node23</title>
<path fill="none" stroke="blueviolet" stroke-dasharray="5,2" d="M110.277,-453.327C133.8,-456.069 160.741,-459.209 181.92,-461.678"/>
<text text-anchor="middle" x="137.5" y="-460" font-family="Helvetica,sans-Serif" font-size="10.00">erpc</text>
</g>
<!-- Node0&#45;&gt;Node21 -->
<g id="edge21" class="edge"><title>Node0&#45;&gt;Node21</title>
<path fill="none" stroke="blueviolet" stroke-dasharray="5,2" d="M100.016,-437.449C109.225,-435.731 118.901,-434.129 128,-433 140.562,-431.441 154.159,-430.368 166.918,-429.63"/>
<text text-anchor="middle" x="137.5" y="-436" font-family="Helvetica,sans-Serif" font-size="10.00">erpc</text>
</g>
<!-- Node0&#45;&gt;Node19 -->
<g id="edge19" class="edge"><title>Node0&#45;&gt;Node19</title>
<path fill="none" stroke="blueviolet" stroke-dasharray="5,2" d="M76.205,-437.473C90.4859,-430.945 110.181,-422.352 128,-416 147.346,-409.104 169.496,-402.743 187.098,-398.039"/>
<text text-anchor="middle" x="137.5" y="-419" font-family="Helvetica,sans-Serif" font-size="10.00">erpc</text>
</g>
<!-- Node0&#45;&gt;Node17 -->
<g id="edge17" class="edge"><title>Node0&#45;&gt;Node17</title>
<path fill="none" stroke="blueviolet" stroke-dasharray="5,2" d="M67.3547,-437.306C86.4005,-421.472 126.492,-389.929 165,-371 172.224,-367.449 180.283,-364.243 187.925,-361.519"/>
<text text-anchor="middle" x="137.5" y="-393" font-family="Helvetica,sans-Serif" font-size="10.00">erpc</text>
</g>
<!-- Node0&#45;&gt;Node5 -->
<g id="edge5" class="edge"><title>Node0&#45;&gt;Node5</title>
<path fill="none" stroke="blueviolet" stroke-dasharray="5,2" d="M62.3687,-437.35C77.4394,-415.301 117.604,-360.982 165,-333 175.184,-326.987 187.569,-322.459 197.907,-319.334"/>
<text text-anchor="middle" x="137.5" y="-361" font-family="Helvetica,sans-Serif" font-size="10.00">erpc</text>
</g>
<!-- Node0&#45;&gt;Node12 -->
<g id="edge12" class="edge"><title>Node0&#45;&gt;Node12</title>
<path fill="none" stroke="blueviolet" stroke-dasharray="5,2" d="M59.8653,-437.167C71.2603,-409.587 107.566,-331.157 165,-295 170.971,-291.241 177.784,-288.105 184.512,-285.537"/>
<text text-anchor="middle" x="137.5" y="-327" font-family="Helvetica,sans-Serif" font-size="10.00">erpc</text>
</g>
<!-- Node0&#45;&gt;Node11 -->
<g id="edge11" class="edge"><title>Node0&#45;&gt;Node11</title>
<path fill="none" stroke="blueviolet" stroke-dasharray="5,2" d="M59.3674,-437.159C68.2213,-412.057 93.845,-344.159 128,-295 141.45,-275.642 145.136,-269.691 165,-257 171.784,-252.666 179.681,-249.172 187.307,-246.421"/>
<text text-anchor="middle" x="137.5" y="-298" font-family="Helvetica,sans-Serif" font-size="10.00">erpc</text>
</g>
<!-- Node0&#45;&gt;Node8 -->
<g id="edge8" class="edge"><title>Node0&#45;&gt;Node8</title>
<path fill="none" stroke="blueviolet" stroke-dasharray="5,2" d="M58.0824,-437.116C64.6391,-407.537 86.9017,-317.876 128,-255 140.553,-235.795 145.5,-231.09 165,-219 170.997,-215.282 177.821,-212.164 184.553,-209.601"/>
<text text-anchor="middle" x="137.5" y="-258" font-family="Helvetica,sans-Serif" font-size="10.00">erpc</text>
</g>
<!-- Node0&#45;&gt;Node24 -->
<g id="edge24" class="edge"><title>Node0&#45;&gt;Node24</title>
<path fill="none" stroke="blueviolet" stroke-dasharray="5,2" d="M57.2072,-437.482C61.7369,-404.511 79.9829,-292.989 128,-216 139.979,-196.793 145.678,-192.793 165,-181 172.635,-176.34 181.576,-172.609 189.961,-169.728"/>
<text text-anchor="middle" x="137.5" y="-219" font-family="Helvetica,sans-Serif" font-size="10.00">erpc</text>
</g>
<!-- Node0&#45;&gt;Node2 -->
<g id="edge2" class="edge"><title>Node0&#45;&gt;Node2</title>
<path fill="none" stroke="blueviolet" stroke-dasharray="5,2" d="M56.6811,-437.467C59.6431,-401.153 73.8062,-268.955 128,-178 139.587,-158.554 145.678,-154.793 165,-143 171.108,-139.272 178.052,-136.138 184.878,-133.559"/>
<text text-anchor="middle" x="137.5" y="-181" font-family="Helvetica,sans-Serif" font-size="10.00">erpc</text>
</g>
<!-- Node0&#45;&gt;Node15 -->
<g id="edge15" class="edge"><title>Node0&#45;&gt;Node15</title>
<path fill="none" stroke="blueviolet" stroke-dasharray="5,2" d="M56.228,-437.449C57.5637,-397.887 66.6533,-244.031 128,-139 139.264,-119.715 145.853,-116.497 165,-105 171.22,-101.265 178.283,-98.1156 185.204,-95.5209"/>
<text text-anchor="middle" x="137.5" y="-142" font-family="Helvetica,sans-Serif" font-size="10.00">erpc</text>
</g>
<!-- Node0&#45;&gt;Node16 -->
<g id="edge16" class="edge"><title>Node0&#45;&gt;Node16</title>
<path fill="none" stroke="blueviolet" stroke-dasharray="5,2" d="M55.9129,-437.452C55.9292,-395.003 60.2916,-220.25 128,-101 139.027,-81.5791 145.853,-78.4965 165,-67 171.39,-63.163 178.671,-59.9434 185.772,-57.3089"/>
<text text-anchor="middle" x="137.5" y="-104" font-family="Helvetica,sans-Serif" font-size="10.00">erpc</text>
</g>
<!-- Node0&#45;&gt;Node6 -->
<g id="edge6" class="edge"><title>Node0&#45;&gt;Node6</title>
<path fill="none" stroke="blueviolet" stroke-dasharray="5,2" d="M55.6548,-437.342C54.4515,-391.952 53.9657,-196.454 128,-63 138.834,-43.4708 145.853,-40.4965 165,-29 171.22,-25.2653 178.283,-22.1156 185.204,-19.5209"/>
<text text-anchor="middle" x="137.5" y="-66" font-family="Helvetica,sans-Serif" font-size="10.00">erpc</text>
</g>
</g>
</svg>
