<?xml version="1.0" encoding="UTF-8" standalone="no"?>
<!DOCTYPE svg PUBLIC "-//W3C//DTD SVG 1.1//EN"
 "http://www.w3.org/Graphics/SVG/1.1/DTD/svg11.dtd">
<!-- Generated by graphviz version 2.38.0 (20140413.2041)
 -->
<!-- Title: USB CDC Pages: 1 -->
<svg width="355pt" height="750pt"
 viewBox="0.00 0.00 355.00 750.00" xmlns="http://www.w3.org/2000/svg" xmlns:xlink="http://www.w3.org/1999/xlink">
<g id="graph0" class="graph" transform="scale(1 1) rotate(0) translate(4 746)">
<title>USB CDC</title>
<polygon fill="white" stroke="none" points="-4,4 -4,-746 351,-746 351,4 -4,4"/>
<!-- Node1 -->
<g id="node1" class="node"><title>Node1</title>
<g id="a_node1"><a xlink:href="group__transports.html" target="_top" xlink:title="Transport layer classes. ">
<polygon fill="white" stroke="black" points="0,-361.5 0,-380.5 89,-380.5 89,-361.5 0,-361.5"/>
<text text-anchor="middle" x="44.5" y="-368.5" font-family="Helvetica,sans-Serif" font-size="10.00">Transport Layers</text>
</a>
</g>
</g>
<!-- Node0 -->
<g id="node18" class="node"><title>Node0</title>
<polygon fill="#bfbfbf" stroke="black" points="126,-361.5 126,-380.5 186,-380.5 186,-361.5 126,-361.5"/>
<text text-anchor="middle" x="156" y="-368.5" font-family="Helvetica,sans-Serif" font-size="10.00">USB CDC</text>
</g>
<!-- Node1&#45;&gt;Node0 -->
<g id="edge1" class="edge"><title>Node1&#45;&gt;Node0</title>
<path fill="none" stroke="black" d="M99.2923,-371C108.388,-371 117.518,-371 125.68,-371"/>
<polygon fill="black" stroke="black" points="99.092,-367.5 89.0919,-371 99.0919,-374.5 99.092,-367.5"/>
</g>
<!-- Node10 -->
<g id="node2" class="node"><title>Node10</title>
<g id="a_node2"><a xlink:href="group__dspi__slave__transport.html" target="_top" xlink:title="Kinetis SDK DSPI slave driver transport. ">
<polygon fill="white" stroke="black" points="261.5,-722.5 261.5,-741.5 326.5,-741.5 326.5,-722.5 261.5,-722.5"/>
<text text-anchor="middle" x="294" y="-729.5" font-family="Helvetica,sans-Serif" font-size="10.00">DSPI Slave</text>
</a>
</g>
</g>
<!-- Node8 -->
<g id="node3" class="node"><title>Node8</title>
<g id="a_node3"><a xlink:href="group__port__threads.html" target="_top" xlink:title="Threading model. ">
<polygon fill="white" stroke="black" points="268.5,-684.5 268.5,-703.5 319.5,-703.5 319.5,-684.5 268.5,-684.5"/>
<text text-anchor="middle" x="294" y="-691.5" font-family="Helvetica,sans-Serif" font-size="10.00">Threads</text>
</a>
</g>
</g>
<!-- Node12 -->
<g id="node4" class="node"><title>Node12</title>
<g id="a_node4"><a xlink:href="group__mu__transport.html" target="_top" xlink:title="Messaging Unit transport. ">
<polygon fill="white" stroke="black" points="252,-646.5 252,-665.5 336,-665.5 336,-646.5 252,-646.5"/>
<text text-anchor="middle" x="294" y="-653.5" font-family="Helvetica,sans-Serif" font-size="10.00">Messaging Unit</text>
</a>
</g>
</g>
<!-- Node20 -->
<g id="node5" class="node"><title>Node20</title>
<g id="a_node5"><a xlink:href="group__tcp__transport.html" target="_top" xlink:title="Simple TCP/IP transport. ">
<polygon fill="white" stroke="black" points="270.5,-608.5 270.5,-627.5 317.5,-627.5 317.5,-608.5 270.5,-608.5"/>
<text text-anchor="middle" x="294" y="-615.5" font-family="Helvetica,sans-Serif" font-size="10.00">TCP/IP</text>
</a>
</g>
</g>
<!-- Node2 -->
<g id="node6" class="node"><title>Node2</title>
<g id="a_node6"><a xlink:href="group__infra__client.html" target="_top" xlink:title="Client classes. ">
<polygon fill="white" stroke="black" points="273.5,-570.5 273.5,-589.5 314.5,-589.5 314.5,-570.5 273.5,-570.5"/>
<text text-anchor="middle" x="294" y="-577.5" font-family="Helvetica,sans-Serif" font-size="10.00">Client</text>
</a>
</g>
</g>
<!-- Node4 -->
<g id="node7" class="node"><title>Node4</title>
<g id="a_node7"><a xlink:href="group__infra__transport.html" target="_top" xlink:title="Superclasses for building transports. ">
<polygon fill="white" stroke="black" points="263,-532.5 263,-551.5 325,-551.5 325,-532.5 263,-532.5"/>
<text text-anchor="middle" x="294" y="-539.5" font-family="Helvetica,sans-Serif" font-size="10.00">Transports</text>
</a>
</g>
</g>
<!-- Node16 -->
<g id="node8" class="node"><title>Node16</title>
<g id="a_node8"><a xlink:href="group__serial__transport.html" target="_top" xlink:title="POSIX and Win32 serial port transport. ">
<polygon fill="white" stroke="black" points="263.5,-494.5 263.5,-513.5 324.5,-513.5 324.5,-494.5 263.5,-494.5"/>
<text text-anchor="middle" x="294" y="-501.5" font-family="Helvetica,sans-Serif" font-size="10.00">Serial port</text>
</a>
</g>
</g>
<!-- Node5 -->
<g id="node9" class="node"><title>Node5</title>
<g id="a_node9"><a xlink:href="group__infra__utility.html" target="_top" xlink:title="Utility code used by the infrastructure. ">
<polygon fill="white" stroke="black" points="269.5,-456.5 269.5,-475.5 318.5,-475.5 318.5,-456.5 269.5,-456.5"/>
<text text-anchor="middle" x="294" y="-463.5" font-family="Helvetica,sans-Serif" font-size="10.00">Utilities</text>
</a>
</g>
</g>
<!-- Node18 -->
<g id="node10" class="node"><title>Node18</title>
<g id="a_node10"><a xlink:href="group__spi__slave__transport.html" target="_top" xlink:title="Kinetis SDK SPI slave driver transport. ">
<polygon fill="white" stroke="black" points="264.5,-418.5 264.5,-437.5 323.5,-437.5 323.5,-418.5 264.5,-418.5"/>
<text text-anchor="middle" x="294" y="-425.5" font-family="Helvetica,sans-Serif" font-size="10.00">SPI Slave</text>
</a>
</g>
</g>
<!-- Node21 -->
<g id="node11" class="node"><title>Node21</title>
<g id="a_node11"><a xlink:href="group__uart__transport.html" target="_top" xlink:title="CMSIS UART driver transport. ">
<polygon fill="white" stroke="black" points="256,-380.5 256,-399.5 332,-399.5 332,-380.5 256,-380.5"/>
<text text-anchor="middle" x="294" y="-387.5" font-family="Helvetica,sans-Serif" font-size="10.00">CMSIS UART</text>
</a>
</g>
</g>
<!-- Node19 -->
<g id="node12" class="node"><title>Node19</title>
<g id="a_node12"><a xlink:href="group__spidev__master__transport.html" target="_top" xlink:title="SPIdev Linux transport. ">
<polygon fill="white" stroke="black" points="241,-342.5 241,-361.5 347,-361.5 347,-342.5 241,-342.5"/>
<text text-anchor="middle" x="294" y="-349.5" font-family="Helvetica,sans-Serif" font-size="10.00">SPIdev Linux Master</text>
</a>
</g>
</g>
<!-- Node17 -->
<g id="node13" class="node"><title>Node17</title>
<g id="a_node13"><a xlink:href="group__spi__master__transport.html" target="_top" xlink:title="Kinetis SDK SPI master driver transport. ">
<polygon fill="white" stroke="black" points="261.5,-304.5 261.5,-323.5 326.5,-323.5 326.5,-304.5 261.5,-304.5"/>
<text text-anchor="middle" x="294" y="-311.5" font-family="Helvetica,sans-Serif" font-size="10.00">SPI Master</text>
</a>
</g>
</g>
<!-- Node15 -->
<g id="node14" class="node"><title>Node15</title>
<g id="a_node14"><a xlink:href="group__rpmsg__tty__rtos__transport.html" target="_top" xlink:title="RPMsg TTY RTOS transport. ">
<polygon fill="white" stroke="black" points="245,-266.5 245,-285.5 343,-285.5 343,-266.5 245,-266.5"/>
<text text-anchor="middle" x="294" y="-273.5" font-family="Helvetica,sans-Serif" font-size="10.00">RPMsg TTY RTOS</text>
</a>
</g>
</g>
<!-- Node6 -->
<g id="node15" class="node"><title>Node6</title>
<g id="a_node15"><a xlink:href="group__infra__server.html" target="_top" xlink:title="Server classes. ">
<polygon fill="white" stroke="black" points="272,-228.5 272,-247.5 316,-247.5 316,-228.5 272,-228.5"/>
<text text-anchor="middle" x="294" y="-235.5" font-family="Helvetica,sans-Serif" font-size="10.00">Server</text>
</a>
</g>
</g>
<!-- Node11 -->
<g id="node16" class="node"><title>Node11</title>
<g id="a_node16"><a xlink:href="group__itbp__transport.html" target="_top" xlink:title="Simple inter&#45;thread communications transport. ">
<polygon fill="white" stroke="black" points="261.5,-190.5 261.5,-209.5 326.5,-209.5 326.5,-190.5 261.5,-190.5"/>
<text text-anchor="middle" x="294" y="-197.5" font-family="Helvetica,sans-Serif" font-size="10.00">Inter&#45;thread</text>
</a>
</g>
</g>
<!-- Node9 -->
<g id="node17" class="node"><title>Node9</title>
<g id="a_node17"><a xlink:href="group__dspi__master__transport.html" target="_top" xlink:title="Kinetis SDK DSPI master driver transport. ">
<polygon fill="white" stroke="black" points="258,-152.5 258,-171.5 330,-171.5 330,-152.5 258,-152.5"/>
<text text-anchor="middle" x="294" y="-159.5" font-family="Helvetica,sans-Serif" font-size="10.00">DSPI Master</text>
</a>
</g>
</g>
<!-- Node0&#45;&gt;Node10 -->
<g id="edge10" class="edge"><title>Node0&#45;&gt;Node10</title>
<path fill="none" stroke="blueviolet" stroke-dasharray="5,2" d="M157.661,-380.702C160.918,-426.734 176.244,-623.129 204,-677 214.508,-697.396 221.573,-700.793 241,-713 247.266,-716.938 254.468,-720.225 261.474,-722.898"/>
<text text-anchor="middle" x="213.5" y="-703" font-family="Helvetica,sans-Serif" font-size="10.00">erpc</text>
</g>
<!-- Node0&#45;&gt;Node8 -->
<g id="edge8" class="edge"><title>Node0&#45;&gt;Node8</title>
<path fill="none" stroke="blueviolet" stroke-dasharray="5,2" d="M156.618,-380.944C155.628,-417.631 155.867,-547.962 204,-639 214.724,-659.283 221.573,-662.793 241,-675 249.382,-680.267 259.437,-684.372 268.462,-687.396"/>
<text text-anchor="middle" x="213.5" y="-665" font-family="Helvetica,sans-Serif" font-size="10.00">erpc</text>
</g>
<!-- Node0&#45;&gt;Node12 -->
<g id="edge12" class="edge"><title>Node0&#45;&gt;Node12</title>
<path fill="none" stroke="blueviolet" stroke-dasharray="5,2" d="M156.996,-380.893C157.385,-414.145 161.965,-524.116 204,-601 215.007,-621.131 221.573,-624.793 241,-637 246.941,-640.733 253.722,-643.882 260.381,-646.477"/>
<text text-anchor="middle" x="213.5" y="-627" font-family="Helvetica,sans-Serif" font-size="10.00">erpc</text>
</g>
<!-- Node0&#45;&gt;Node20 -->
<g id="edge20" class="edge"><title>Node0&#45;&gt;Node20</title>
<path fill="none" stroke="blueviolet" stroke-dasharray="5,2" d="M157.513,-380.886C159.431,-410.47 168.047,-500.146 204,-563 215.392,-582.916 221.573,-586.793 241,-599 249.952,-604.625 260.812,-608.924 270.287,-611.998"/>
<text text-anchor="middle" x="213.5" y="-589" font-family="Helvetica,sans-Serif" font-size="10.00">erpc</text>
</g>
<!-- Node0&#45;&gt;Node2 -->
<g id="edge2" class="edge"><title>Node0&#45;&gt;Node2</title>
<path fill="none" stroke="blueviolet" stroke-dasharray="5,2" d="M158.301,-380.617C162.037,-405.77 174.485,-474.953 204,-524 215.991,-543.926 221.394,-548.492 241,-561 250.886,-567.307 263.159,-571.917 273.299,-575.016"/>
<text text-anchor="middle" x="213.5" y="-551" font-family="Helvetica,sans-Serif" font-size="10.00">erpc</text>
</g>
<!-- Node0&#45;&gt;Node4 -->
<g id="edge4" class="edge"><title>Node0&#45;&gt;Node4</title>
<path fill="none" stroke="blueviolet" stroke-dasharray="5,2" d="M159.504,-380.558C165.172,-401.091 180.358,-450.436 204,-486 216.875,-505.367 221.394,-510.492 241,-523 247.645,-527.239 255.368,-530.712 262.797,-533.474"/>
<text text-anchor="middle" x="213.5" y="-512" font-family="Helvetica,sans-Serif" font-size="10.00">erpc</text>
</g>
<!-- Node0&#45;&gt;Node16 -->
<g id="edge16" class="edge"><title>Node0&#45;&gt;Node16</title>
<path fill="none" stroke="blueviolet" stroke-dasharray="5,2" d="M160.998,-380.59C170.883,-403 198.767,-458.875 241,-485 247.866,-489.247 255.825,-492.753 263.42,-495.546"/>
<text text-anchor="middle" x="213.5" y="-474" font-family="Helvetica,sans-Serif" font-size="10.00">erpc</text>
</g>
<!-- Node0&#45;&gt;Node5 -->
<g id="edge5" class="edge"><title>Node0&#45;&gt;Node5</title>
<path fill="none" stroke="blueviolet" stroke-dasharray="5,2" d="M165.077,-380.578C179.013,-396.531 209.156,-428.604 241,-447 249.822,-452.096 260.254,-456.23 269.449,-459.324"/>
<text text-anchor="middle" x="213.5" y="-438" font-family="Helvetica,sans-Serif" font-size="10.00">erpc</text>
</g>
<!-- Node0&#45;&gt;Node18 -->
<g id="edge18" class="edge"><title>Node0&#45;&gt;Node18</title>
<path fill="none" stroke="blueviolet" stroke-dasharray="5,2" d="M176.065,-380.706C184.553,-384.929 194.71,-389.85 204,-394 224.388,-403.108 248.023,-412.065 265.811,-418.497"/>
<text text-anchor="middle" x="213.5" y="-404" font-family="Helvetica,sans-Serif" font-size="10.00">erpc</text>
</g>
<!-- Node0&#45;&gt;Node21 -->
<g id="edge21" class="edge"><title>Node0&#45;&gt;Node21</title>
<path fill="none" stroke="blueviolet" stroke-dasharray="5,2" d="M186.175,-375.076C206.546,-377.922 233.908,-381.744 255.84,-384.808"/>
<text text-anchor="middle" x="213.5" y="-382" font-family="Helvetica,sans-Serif" font-size="10.00">erpc</text>
</g>
<!-- Node0&#45;&gt;Node19 -->
<g id="edge19" class="edge"><title>Node0&#45;&gt;Node19</title>
<path fill="none" stroke="blueviolet" stroke-dasharray="5,2" d="M185.078,-361.476C191.248,-359.71 197.793,-358.083 204,-357 215.891,-354.924 228.799,-353.649 240.999,-352.88"/>
<text text-anchor="middle" x="213.5" y="-360" font-family="Helvetica,sans-Serif" font-size="10.00">erpc</text>
</g>
<!-- Node0&#45;&gt;Node17 -->
<g id="edge17" class="edge"><title>Node0&#45;&gt;Node17</title>
<path fill="none" stroke="blueviolet" stroke-dasharray="5,2" d="M168.717,-361.43C177.853,-354.376 191.114,-345.001 204,-339 222.187,-330.531 243.832,-324.372 261.223,-320.287"/>
<text text-anchor="middle" x="213.5" y="-342" font-family="Helvetica,sans-Serif" font-size="10.00">erpc</text>
</g>
<!-- Node0&#45;&gt;Node15 -->
<g id="edge15" class="edge"><title>Node0&#45;&gt;Node15</title>
<path fill="none" stroke="blueviolet" stroke-dasharray="5,2" d="M163.773,-361.151C172.209,-349.385 187.531,-329.591 204,-316 220.724,-302.199 242.974,-292.199 261.043,-285.649"/>
<text text-anchor="middle" x="213.5" y="-319" font-family="Helvetica,sans-Serif" font-size="10.00">erpc</text>
</g>
<!-- Node0&#45;&gt;Node6 -->
<g id="edge6" class="edge"><title>Node0&#45;&gt;Node6</title>
<path fill="none" stroke="blueviolet" stroke-dasharray="5,2" d="M161.084,-361.348C168.24,-345.116 184.186,-311.797 204,-288 217.727,-271.513 222.424,-267.731 241,-257 250.571,-251.471 262.037,-247.075 271.763,-243.91"/>
<text text-anchor="middle" x="213.5" y="-291" font-family="Helvetica,sans-Serif" font-size="10.00">erpc</text>
</g>
<!-- Node0&#45;&gt;Node11 -->
<g id="edge11" class="edge"><title>Node0&#45;&gt;Node11</title>
<path fill="none" stroke="blueviolet" stroke-dasharray="5,2" d="M159.25,-361.429C164.512,-340.394 179.102,-289.135 204,-253 216.672,-234.61 221.923,-230.611 241,-219 247.24,-215.202 254.358,-211.985 261.283,-209.338"/>
<text text-anchor="middle" x="213.5" y="-256" font-family="Helvetica,sans-Serif" font-size="10.00">erpc</text>
</g>
<!-- Node0&#45;&gt;Node9 -->
<g id="edge9" class="edge"><title>Node0&#45;&gt;Node9</title>
<path fill="none" stroke="blueviolet" stroke-dasharray="5,2" d="M158.192,-361.21C161.666,-335.611 173.536,-265.269 204,-216 215.905,-196.747 221.749,-192.908 241,-181 246.967,-177.309 253.759,-174.178 260.421,-171.588"/>
<text text-anchor="middle" x="213.5" y="-219" font-family="Helvetica,sans-Serif" font-size="10.00">erpc</text>
</g>
<!-- Node3 -->
<g id="node19" class="node"><title>Node3</title>
<g id="a_node19"><a xlink:href="group__infra__codec.html" target="_top" xlink:title="Classes used for message serialization. ">
<polygon fill="white" stroke="black" points="259,-114.5 259,-133.5 329,-133.5 329,-114.5 259,-114.5"/>
<text text-anchor="middle" x="294" y="-121.5" font-family="Helvetica,sans-Serif" font-size="10.00">Serialization</text>
</a>
</g>
</g>
<!-- Node0&#45;&gt;Node3 -->
<g id="edge3" class="edge"><title>Node0&#45;&gt;Node3</title>
<path fill="none" stroke="blueviolet" stroke-dasharray="5,2" d="M157.435,-361.459C159.149,-332.092 167.291,-241.227 204,-178 215.366,-158.424 221.749,-154.908 241,-143 246.967,-139.309 253.759,-136.178 260.421,-133.588"/>
<text text-anchor="middle" x="213.5" y="-181" font-family="Helvetica,sans-Serif" font-size="10.00">erpc</text>
</g>
<!-- Node13 -->
<g id="node20" class="node"><title>Node13</title>
<g id="a_node20"><a xlink:href="group__rpmsg__lite__rtos__transport.html" target="_top" xlink:title="RPMsg&#45;Lite zero copy transport using RTOS API. ">
<polygon fill="white" stroke="black" points="245.5,-76.5 245.5,-95.5 342.5,-95.5 342.5,-76.5 245.5,-76.5"/>
<text text-anchor="middle" x="294" y="-83.5" font-family="Helvetica,sans-Serif" font-size="10.00">RPMsg&#45;Lite RTOS</text>
</a>
</g>
</g>
<!-- Node0&#45;&gt;Node13 -->
<g id="edge13" class="edge"><title>Node0&#45;&gt;Node13</title>
<path fill="none" stroke="blueviolet" stroke-dasharray="5,2" d="M156.889,-361.44C156.907,-328.323 160.375,-216.308 204,-139 214.976,-119.55 221.923,-116.611 241,-105 247.076,-101.302 253.984,-98.1545 260.736,-95.548"/>
<text text-anchor="middle" x="213.5" y="-142" font-family="Helvetica,sans-Serif" font-size="10.00">erpc</text>
</g>
<!-- Node14 -->
<g id="node21" class="node"><title>Node14</title>
<g id="a_node21"><a xlink:href="group__rpmsg__lite__transport.html" target="_top" xlink:title="RPMsg&#45;Lite zero copy transport. ">
<polygon fill="white" stroke="black" points="260,-38.5 260,-57.5 328,-57.5 328,-38.5 260,-38.5"/>
<text text-anchor="middle" x="294" y="-45.5" font-family="Helvetica,sans-Serif" font-size="10.00">RPMsg&#45;Lite</text>
</a>
</g>
</g>
<!-- Node0&#45;&gt;Node14 -->
<g id="edge14" class="edge"><title>Node0&#45;&gt;Node14</title>
<path fill="none" stroke="blueviolet" stroke-dasharray="5,2" d="M156.531,-361.441C155.164,-325.026 154.045,-192.445 204,-101 215.898,-79.2205 240.831,-65.5209 261.288,-57.5188"/>
<text text-anchor="middle" x="213.5" y="-104" font-family="Helvetica,sans-Serif" font-size="10.00">erpc</text>
</g>
<!-- Node7 -->
<g id="node22" class="node"><title>Node7</title>
<g id="a_node22"><a xlink:href="group__port__setup__extensions.html" target="_top" xlink:title="Extension setup functions. ">
<polygon fill="white" stroke="black" points="249.5,-0.5 249.5,-19.5 338.5,-19.5 338.5,-0.5 249.5,-0.5"/>
<text text-anchor="middle" x="294" y="-7.5" font-family="Helvetica,sans-Serif" font-size="10.00">Extension Setup</text>
</a>
</g>
</g>
<!-- Node0&#45;&gt;Node7 -->
<g id="edge7" class="edge"><title>Node0&#45;&gt;Node7</title>
<path fill="none" stroke="blueviolet" stroke-dasharray="5,2" d="M157.641,-361.258C160.81,-315.037 175.789,-117.853 204,-64 214.504,-43.9485 221.749,-40.9082 241,-29 246.967,-25.3089 253.759,-22.1779 260.421,-19.5877"/>
<text text-anchor="middle" x="213.5" y="-67" font-family="Helvetica,sans-Serif" font-size="10.00">erpc</text>
</g>
</g>
</svg>
