<?xml version="1.0" encoding="UTF-8" standalone="no"?>
<!DOCTYPE svg PUBLIC "-//W3C//DTD SVG 1.1//EN"
 "http://www.w3.org/Graphics/SVG/1.1/DTD/svg11.dtd">
<!-- Generated by graphviz version 2.38.0 (20140413.2041)
 -->
<!-- Title: USB CDC Pages: 1 -->
<svg width="359pt" height="902pt"
 viewBox="0.00 0.00 359.00 902.00" xmlns="http://www.w3.org/2000/svg" xmlns:xlink="http://www.w3.org/1999/xlink">
<g id="graph0" class="graph" transform="scale(1 1) rotate(0) translate(4 898)">
<title>USB CDC</title>
<polygon fill="white" stroke="none" points="-4,4 -4,-898 355,-898 355,4 -4,4"/>
<!-- Node1 -->
<g id="node1" class="node"><title>Node1</title>
<g id="a_node1"><a xlink:href="group__transports.html" target="_top" xlink:title="Transport layer classes. ">
<polygon fill="white" stroke="black" points="0,-437.5 0,-456.5 89,-456.5 89,-437.5 0,-437.5"/>
<text text-anchor="middle" x="44.5" y="-444.5" font-family="Helvetica,sans-Serif" font-size="10.00">Transport Layers</text>
</a>
</g>
</g>
<!-- Node0 -->
<g id="node21" class="node"><title>Node0</title>
<polygon fill="#bfbfbf" stroke="black" points="126,-437.5 126,-456.5 186,-456.5 186,-437.5 126,-437.5"/>
<text text-anchor="middle" x="156" y="-444.5" font-family="Helvetica,sans-Serif" font-size="10.00">USB CDC</text>
</g>
<!-- Node1&#45;&gt;Node0 -->
<g id="edge1" class="edge"><title>Node1&#45;&gt;Node0</title>
<path fill="none" stroke="black" d="M99.2923,-447C108.388,-447 117.518,-447 125.68,-447"/>
<polygon fill="black" stroke="black" points="99.092,-443.5 89.0919,-447 99.0919,-450.5 99.092,-443.5"/>
</g>
<!-- Node10 -->
<g id="node2" class="node"><title>Node10</title>
<g id="a_node2"><a xlink:href="group__dspi__slave__transport.html" target="_top" xlink:title="MCUXpressoSDK DSPI slave driver transport. ">
<polygon fill="white" stroke="black" points="263.5,-874.5 263.5,-893.5 328.5,-893.5 328.5,-874.5 263.5,-874.5"/>
<text text-anchor="middle" x="296" y="-881.5" font-family="Helvetica,sans-Serif" font-size="10.00">DSPI Slave</text>
</a>
</g>
</g>
<!-- Node11 -->
<g id="node3" class="node"><title>Node11</title>
<g id="a_node3"><a xlink:href="group__i2c__slave__transport.html" target="_top" xlink:title="MCUXpressoSDK I2C slave driver transport. ">
<polygon fill="white" stroke="black" points="267.5,-836.5 267.5,-855.5 324.5,-855.5 324.5,-836.5 267.5,-836.5"/>
<text text-anchor="middle" x="296" y="-843.5" font-family="Helvetica,sans-Serif" font-size="10.00">I2C Slave</text>
</a>
</g>
</g>
<!-- Node8 -->
<g id="node4" class="node"><title>Node8</title>
<g id="a_node4"><a xlink:href="group__port__threads.html" target="_top" xlink:title="Threading model. ">
<polygon fill="white" stroke="black" points="270.5,-798.5 270.5,-817.5 321.5,-817.5 321.5,-798.5 270.5,-798.5"/>
<text text-anchor="middle" x="296" y="-805.5" font-family="Helvetica,sans-Serif" font-size="10.00">Threads</text>
</a>
</g>
</g>
<!-- Node15 -->
<g id="node5" class="node"><title>Node15</title>
<g id="a_node5"><a xlink:href="group__mbox__transport.html" target="_top" xlink:title="Mbox_transport">
<polygon fill="white" stroke="black" points="254,-760.5 254,-779.5 338,-779.5 338,-760.5 254,-760.5"/>
<text text-anchor="middle" x="296" y="-767.5" font-family="Helvetica,sans-Serif" font-size="10.00">Mbox_transport</text>
</a>
</g>
</g>
<!-- Node16 -->
<g id="node6" class="node"><title>Node16</title>
<g id="a_node6"><a xlink:href="group__mu__transport.html" target="_top" xlink:title="Messaging Unit transport. ">
<polygon fill="white" stroke="black" points="254,-722.5 254,-741.5 338,-741.5 338,-722.5 254,-722.5"/>
<text text-anchor="middle" x="296" y="-729.5" font-family="Helvetica,sans-Serif" font-size="10.00">Messaging Unit</text>
</a>
</g>
</g>
<!-- Node24 -->
<g id="node7" class="node"><title>Node24</title>
<g id="a_node7"><a xlink:href="group__tcp__transport.html" target="_top" xlink:title="Simple TCP/IP transport. ">
<polygon fill="white" stroke="black" points="272.5,-684.5 272.5,-703.5 319.5,-703.5 319.5,-684.5 272.5,-684.5"/>
<text text-anchor="middle" x="296" y="-691.5" font-family="Helvetica,sans-Serif" font-size="10.00">TCP/IP</text>
</a>
</g>
</g>
<!-- Node2 -->
<g id="node8" class="node"><title>Node2</title>
<g id="a_node8"><a xlink:href="group__infra__client.html" target="_top" xlink:title="Client classes. ">
<polygon fill="white" stroke="black" points="275.5,-646.5 275.5,-665.5 316.5,-665.5 316.5,-646.5 275.5,-646.5"/>
<text text-anchor="middle" x="296" y="-653.5" font-family="Helvetica,sans-Serif" font-size="10.00">Client</text>
</a>
</g>
</g>
<!-- Node4 -->
<g id="node9" class="node"><title>Node4</title>
<g id="a_node9"><a xlink:href="group__infra__transport.html" target="_top" xlink:title="Superclasses for building transports. ">
<polygon fill="white" stroke="black" points="265,-608.5 265,-627.5 327,-627.5 327,-608.5 265,-608.5"/>
<text text-anchor="middle" x="296" y="-615.5" font-family="Helvetica,sans-Serif" font-size="10.00">Transports</text>
</a>
</g>
</g>
<!-- Node20 -->
<g id="node10" class="node"><title>Node20</title>
<g id="a_node10"><a xlink:href="group__serial__transport.html" target="_top" xlink:title="POSIX and Win32 serial port transport. ">
<polygon fill="white" stroke="black" points="265.5,-570.5 265.5,-589.5 326.5,-589.5 326.5,-570.5 265.5,-570.5"/>
<text text-anchor="middle" x="296" y="-577.5" font-family="Helvetica,sans-Serif" font-size="10.00">Serial port</text>
</a>
</g>
</g>
<!-- Node5 -->
<g id="node11" class="node"><title>Node5</title>
<g id="a_node11"><a xlink:href="group__infra__utility.html" target="_top" xlink:title="Utility code used by the infrastructure. ">
<polygon fill="white" stroke="black" points="271.5,-532.5 271.5,-551.5 320.5,-551.5 320.5,-532.5 271.5,-532.5"/>
<text text-anchor="middle" x="296" y="-539.5" font-family="Helvetica,sans-Serif" font-size="10.00">Utilities</text>
</a>
</g>
</g>
<!-- Node22 -->
<g id="node12" class="node"><title>Node22</title>
<g id="a_node12"><a xlink:href="group__spi__slave__transport.html" target="_top" xlink:title="MCUXpressoSDK SPI slave driver transport. ">
<polygon fill="white" stroke="black" points="266.5,-494.5 266.5,-513.5 325.5,-513.5 325.5,-494.5 266.5,-494.5"/>
<text text-anchor="middle" x="296" y="-501.5" font-family="Helvetica,sans-Serif" font-size="10.00">SPI Slave</text>
</a>
</g>
</g>
<!-- Node25 -->
<g id="node13" class="node"><title>Node25</title>
<g id="a_node13"><a xlink:href="group__uart__transport.html" target="_top" xlink:title="CMSIS UART driver transport. ">
<polygon fill="white" stroke="black" points="258,-456.5 258,-475.5 334,-475.5 334,-456.5 258,-456.5"/>
<text text-anchor="middle" x="296" y="-463.5" font-family="Helvetica,sans-Serif" font-size="10.00">CMSIS UART</text>
</a>
</g>
</g>
<!-- Node23 -->
<g id="node14" class="node"><title>Node23</title>
<g id="a_node14"><a xlink:href="group__spidev__master__transport.html" target="_top" xlink:title="SPIdev Linux transport. ">
<polygon fill="white" stroke="black" points="243,-418.5 243,-437.5 349,-437.5 349,-418.5 243,-418.5"/>
<text text-anchor="middle" x="296" y="-425.5" font-family="Helvetica,sans-Serif" font-size="10.00">SPIdev Linux Master</text>
</a>
</g>
</g>
<!-- Node21 -->
<g id="node15" class="node"><title>Node21</title>
<g id="a_node15"><a xlink:href="group__spi__master__transport.html" target="_top" xlink:title="MCUXpressoSDK SPI master driver transport. ">
<polygon fill="white" stroke="black" points="263.5,-380.5 263.5,-399.5 328.5,-399.5 328.5,-380.5 263.5,-380.5"/>
<text text-anchor="middle" x="296" y="-387.5" font-family="Helvetica,sans-Serif" font-size="10.00">SPI Master</text>
</a>
</g>
</g>
<!-- Node19 -->
<g id="node16" class="node"><title>Node19</title>
<g id="a_node16"><a xlink:href="group__rpmsg__tty__rtos__transport.html" target="_top" xlink:title="RPMsg TTY RTOS transport. ">
<polygon fill="white" stroke="black" points="247,-342.5 247,-361.5 345,-361.5 345,-342.5 247,-342.5"/>
<text text-anchor="middle" x="296" y="-349.5" font-family="Helvetica,sans-Serif" font-size="10.00">RPMsg TTY RTOS</text>
</a>
</g>
</g>
<!-- Node6 -->
<g id="node17" class="node"><title>Node6</title>
<g id="a_node17"><a xlink:href="group__infra__server.html" target="_top" xlink:title="Server classes. ">
<polygon fill="white" stroke="black" points="274,-304.5 274,-323.5 318,-323.5 318,-304.5 274,-304.5"/>
<text text-anchor="middle" x="296" y="-311.5" font-family="Helvetica,sans-Serif" font-size="10.00">Server</text>
</a>
</g>
</g>
<!-- Node13 -->
<g id="node18" class="node"><title>Node13</title>
<g id="a_node18"><a xlink:href="group__lpi2c__slave__transport.html" target="_top" xlink:title="Lpi2c_slave_transport">
<polygon fill="white" stroke="black" points="241,-266.5 241,-285.5 351,-285.5 351,-266.5 241,-266.5"/>
<text text-anchor="middle" x="296" y="-273.5" font-family="Helvetica,sans-Serif" font-size="10.00">Lpi2c_slave_transport</text>
</a>
</g>
</g>
<!-- Node12 -->
<g id="node19" class="node"><title>Node12</title>
<g id="a_node19"><a xlink:href="group__itbp__transport.html" target="_top" xlink:title="Simple inter&#45;thread communications transport. ">
<polygon fill="white" stroke="black" points="263.5,-228.5 263.5,-247.5 328.5,-247.5 328.5,-228.5 263.5,-228.5"/>
<text text-anchor="middle" x="296" y="-235.5" font-family="Helvetica,sans-Serif" font-size="10.00">Inter&#45;thread</text>
</a>
</g>
</g>
<!-- Node9 -->
<g id="node20" class="node"><title>Node9</title>
<g id="a_node20"><a xlink:href="group__dspi__master__transport.html" target="_top" xlink:title="MCUXpressoSDK DSPI master driver transport. ">
<polygon fill="white" stroke="black" points="260,-190.5 260,-209.5 332,-209.5 332,-190.5 260,-190.5"/>
<text text-anchor="middle" x="296" y="-197.5" font-family="Helvetica,sans-Serif" font-size="10.00">DSPI Master</text>
</a>
</g>
</g>
<!-- Node0&#45;&gt;Node10 -->
<g id="edge10" class="edge"><title>Node0&#45;&gt;Node10</title>
<path fill="none" stroke="blueviolet" stroke-dasharray="5,2" d="M157.304,-456.597C159.098,-509.086 169.423,-761.53 204,-830 214.204,-850.206 221.678,-853.207 241,-865 247.871,-869.194 255.801,-872.636 263.43,-875.382"/>
<text text-anchor="middle" x="213.5" y="-856" font-family="Helvetica,sans-Serif" font-size="10.00">erpc</text>
</g>
<!-- Node0&#45;&gt;Node11 -->
<g id="edge11" class="edge"><title>Node0&#45;&gt;Node11</title>
<path fill="none" stroke="blueviolet" stroke-dasharray="5,2" d="M157.469,-456.565C160.003,-505.701 173.104,-729.79 204,-791 214.339,-811.483 221.5,-814.91 241,-827 249.024,-831.975 258.529,-835.874 267.311,-838.811"/>
<text text-anchor="middle" x="213.5" y="-818" font-family="Helvetica,sans-Serif" font-size="10.00">erpc</text>
</g>
<!-- Node0&#45;&gt;Node8 -->
<g id="edge8" class="edge"><title>Node0&#45;&gt;Node8</title>
<path fill="none" stroke="blueviolet" stroke-dasharray="5,2" d="M157.661,-456.702C160.918,-502.734 176.244,-699.129 204,-753 214.508,-773.396 221.5,-776.91 241,-789 249.953,-794.551 260.75,-798.763 270.329,-801.793"/>
<text text-anchor="middle" x="213.5" y="-779" font-family="Helvetica,sans-Serif" font-size="10.00">erpc</text>
</g>
<!-- Node0&#45;&gt;Node15 -->
<g id="edge15" class="edge"><title>Node0&#45;&gt;Node15</title>
<path fill="none" stroke="blueviolet" stroke-dasharray="5,2" d="M156.618,-456.944C155.628,-493.631 155.867,-623.962 204,-715 214.724,-735.283 221.5,-738.91 241,-751 246.997,-754.718 253.821,-757.836 260.553,-760.399"/>
<text text-anchor="middle" x="213.5" y="-741" font-family="Helvetica,sans-Serif" font-size="10.00">erpc</text>
</g>
<!-- Node0&#45;&gt;Node16 -->
<g id="edge16" class="edge"><title>Node0&#45;&gt;Node16</title>
<path fill="none" stroke="blueviolet" stroke-dasharray="5,2" d="M156.996,-456.893C157.385,-490.145 161.965,-600.116 204,-677 215.007,-697.131 221.5,-700.91 241,-713 246.997,-716.718 253.821,-719.836 260.553,-722.399"/>
<text text-anchor="middle" x="213.5" y="-703" font-family="Helvetica,sans-Serif" font-size="10.00">erpc</text>
</g>
<!-- Node0&#45;&gt;Node24 -->
<g id="edge24" class="edge"><title>Node0&#45;&gt;Node24</title>
<path fill="none" stroke="blueviolet" stroke-dasharray="5,2" d="M157.513,-456.886C159.431,-486.47 168.047,-576.146 204,-639 215.392,-658.916 221.5,-662.91 241,-675 250.629,-680.97 262.391,-685.391 272.476,-688.458"/>
<text text-anchor="middle" x="213.5" y="-665" font-family="Helvetica,sans-Serif" font-size="10.00">erpc</text>
</g>
<!-- Node0&#45;&gt;Node2 -->
<g id="edge2" class="edge"><title>Node0&#45;&gt;Node2</title>
<path fill="none" stroke="blueviolet" stroke-dasharray="5,2" d="M158.301,-456.617C162.037,-481.77 174.485,-550.953 204,-600 215.991,-619.926 221.319,-624.61 241,-637 251.513,-643.618 264.634,-648.304 275.31,-651.365"/>
<text text-anchor="middle" x="213.5" y="-627" font-family="Helvetica,sans-Serif" font-size="10.00">erpc</text>
</g>
<!-- Node0&#45;&gt;Node4 -->
<g id="edge4" class="edge"><title>Node0&#45;&gt;Node4</title>
<path fill="none" stroke="blueviolet" stroke-dasharray="5,2" d="M159.504,-456.558C165.172,-477.091 180.358,-526.436 204,-562 216.875,-581.367 221.319,-586.61 241,-599 248.233,-603.554 256.7,-607.192 264.757,-610.016"/>
<text text-anchor="middle" x="213.5" y="-588" font-family="Helvetica,sans-Serif" font-size="10.00">erpc</text>
</g>
<!-- Node0&#45;&gt;Node20 -->
<g id="edge20" class="edge"><title>Node0&#45;&gt;Node20</title>
<path fill="none" stroke="blueviolet" stroke-dasharray="5,2" d="M160.978,-456.624C170.817,-479.107 198.611,-535.129 241,-561 248.465,-565.556 257.179,-569.225 265.401,-572.078"/>
<text text-anchor="middle" x="213.5" y="-550" font-family="Helvetica,sans-Serif" font-size="10.00">erpc</text>
</g>
<!-- Node0&#45;&gt;Node5 -->
<g id="edge5" class="edge"><title>Node0&#45;&gt;Node5</title>
<path fill="none" stroke="blueviolet" stroke-dasharray="5,2" d="M165.053,-456.62C178.954,-472.634 209.046,-504.795 241,-523 250.412,-528.362 261.599,-532.603 271.343,-535.705"/>
<text text-anchor="middle" x="213.5" y="-514" font-family="Helvetica,sans-Serif" font-size="10.00">erpc</text>
</g>
<!-- Node0&#45;&gt;Node22 -->
<g id="edge22" class="edge"><title>Node0&#45;&gt;Node22</title>
<path fill="none" stroke="blueviolet" stroke-dasharray="5,2" d="M176.065,-456.706C184.553,-460.929 194.71,-465.85 204,-470 224.634,-479.218 248.6,-488.101 266.756,-494.475"/>
<text text-anchor="middle" x="213.5" y="-480" font-family="Helvetica,sans-Serif" font-size="10.00">erpc</text>
</g>
<!-- Node0&#45;&gt;Node25 -->
<g id="edge25" class="edge"><title>Node0&#45;&gt;Node25</title>
<path fill="none" stroke="blueviolet" stroke-dasharray="5,2" d="M186.266,-451.029C207.154,-453.905 235.41,-457.796 257.882,-460.89"/>
<text text-anchor="middle" x="213.5" y="-458" font-family="Helvetica,sans-Serif" font-size="10.00">erpc</text>
</g>
<!-- Node0&#45;&gt;Node23 -->
<g id="edge23" class="edge"><title>Node0&#45;&gt;Node23</title>
<path fill="none" stroke="blueviolet" stroke-dasharray="5,2" d="M185.077,-437.47C191.247,-435.705 197.793,-434.08 204,-433 216.471,-430.831 230.034,-429.529 242.789,-428.765"/>
<text text-anchor="middle" x="213.5" y="-436" font-family="Helvetica,sans-Serif" font-size="10.00">erpc</text>
</g>
<!-- Node0&#45;&gt;Node21 -->
<g id="edge21" class="edge"><title>Node0&#45;&gt;Node21</title>
<path fill="none" stroke="blueviolet" stroke-dasharray="5,2" d="M168.707,-437.409C177.838,-430.343 191.097,-420.964 204,-415 222.888,-406.27 245.431,-400.05 263.355,-395.997"/>
<text text-anchor="middle" x="213.5" y="-418" font-family="Helvetica,sans-Serif" font-size="10.00">erpc</text>
</g>
<!-- Node0&#45;&gt;Node19 -->
<g id="edge19" class="edge"><title>Node0&#45;&gt;Node19</title>
<path fill="none" stroke="blueviolet" stroke-dasharray="5,2" d="M163.857,-437.396C172.375,-425.909 187.779,-406.539 204,-393 218.688,-380.741 223.669,-379.104 241,-371 248.472,-367.506 256.776,-364.28 264.586,-361.517"/>
<text text-anchor="middle" x="213.5" y="-396" font-family="Helvetica,sans-Serif" font-size="10.00">erpc</text>
</g>
<!-- Node0&#45;&gt;Node6 -->
<g id="edge6" class="edge"><title>Node0&#45;&gt;Node6</title>
<path fill="none" stroke="blueviolet" stroke-dasharray="5,2" d="M161.084,-437.348C168.24,-421.116 184.186,-387.797 204,-364 217.727,-347.513 222.36,-343.62 241,-333 251.276,-327.146 263.667,-322.628 273.986,-319.47"/>
<text text-anchor="middle" x="213.5" y="-367" font-family="Helvetica,sans-Serif" font-size="10.00">erpc</text>
</g>
<!-- Node0&#45;&gt;Node13 -->
<g id="edge13" class="edge"><title>Node0&#45;&gt;Node13</title>
<path fill="none" stroke="blueviolet" stroke-dasharray="5,2" d="M159.25,-437.429C164.512,-416.394 179.102,-365.135 204,-329 216.672,-310.61 221.853,-306.497 241,-295 247.22,-291.265 254.283,-288.116 261.204,-285.521"/>
<text text-anchor="middle" x="213.5" y="-332" font-family="Helvetica,sans-Serif" font-size="10.00">erpc</text>
</g>
<!-- Node0&#45;&gt;Node12 -->
<g id="edge12" class="edge"><title>Node0&#45;&gt;Node12</title>
<path fill="none" stroke="blueviolet" stroke-dasharray="5,2" d="M158.192,-437.21C161.666,-411.611 173.536,-341.269 204,-292 215.905,-272.747 221.678,-268.793 241,-257 247.871,-252.806 255.801,-249.364 263.43,-246.618"/>
<text text-anchor="middle" x="213.5" y="-295" font-family="Helvetica,sans-Serif" font-size="10.00">erpc</text>
</g>
<!-- Node0&#45;&gt;Node9 -->
<g id="edge9" class="edge"><title>Node0&#45;&gt;Node9</title>
<path fill="none" stroke="blueviolet" stroke-dasharray="5,2" d="M157.435,-437.459C159.149,-408.092 167.291,-317.227 204,-254 215.366,-234.424 221.678,-230.793 241,-219 247.108,-215.272 254.052,-212.138 260.878,-209.559"/>
<text text-anchor="middle" x="213.5" y="-257" font-family="Helvetica,sans-Serif" font-size="10.00">erpc</text>
</g>
<!-- Node3 -->
<g id="node22" class="node"><title>Node3</title>
<g id="a_node22"><a xlink:href="group__infra__codec.html" target="_top" xlink:title="Classes used for message serialization. ">
<polygon fill="white" stroke="black" points="261,-152.5 261,-171.5 331,-171.5 331,-152.5 261,-152.5"/>
<text text-anchor="middle" x="296" y="-159.5" font-family="Helvetica,sans-Serif" font-size="10.00">Serialization</text>
</a>
</g>
</g>
<!-- Node0&#45;&gt;Node3 -->
<g id="edge3" class="edge"><title>Node0&#45;&gt;Node3</title>
<path fill="none" stroke="blueviolet" stroke-dasharray="5,2" d="M156.889,-437.44C156.907,-404.323 160.375,-292.308 204,-215 214.976,-195.55 221.853,-192.497 241,-181 247.22,-177.265 254.283,-174.116 261.204,-171.521"/>
<text text-anchor="middle" x="213.5" y="-218" font-family="Helvetica,sans-Serif" font-size="10.00">erpc</text>
</g>
<!-- Node17 -->
<g id="node23" class="node"><title>Node17</title>
<g id="a_node23"><a xlink:href="group__rpmsg__lite__rtos__transport.html" target="_top" xlink:title="RPMsg&#45;Lite zero copy transport using RTOS API. ">
<polygon fill="white" stroke="black" points="247.5,-114.5 247.5,-133.5 344.5,-133.5 344.5,-114.5 247.5,-114.5"/>
<text text-anchor="middle" x="296" y="-121.5" font-family="Helvetica,sans-Serif" font-size="10.00">RPMsg&#45;Lite RTOS</text>
</a>
</g>
</g>
<!-- Node0&#45;&gt;Node17 -->
<g id="edge17" class="edge"><title>Node0&#45;&gt;Node17</title>
<path fill="none" stroke="blueviolet" stroke-dasharray="5,2" d="M156.531,-437.441C155.164,-401.026 154.045,-268.445 204,-177 214.707,-157.401 221.853,-154.497 241,-143 247.22,-139.265 254.283,-136.116 261.204,-133.521"/>
<text text-anchor="middle" x="213.5" y="-180" font-family="Helvetica,sans-Serif" font-size="10.00">erpc</text>
</g>
<!-- Node18 -->
<g id="node24" class="node"><title>Node18</title>
<g id="a_node24"><a xlink:href="group__rpmsg__lite__transport.html" target="_top" xlink:title="RPMsg&#45;Lite zero copy transport. ">
<polygon fill="white" stroke="black" points="262,-76.5 262,-95.5 330,-95.5 330,-76.5 262,-76.5"/>
<text text-anchor="middle" x="296" y="-83.5" font-family="Helvetica,sans-Serif" font-size="10.00">RPMsg&#45;Lite</text>
</a>
</g>
</g>
<!-- Node0&#45;&gt;Node18 -->
<g id="edge18" class="edge"><title>Node0&#45;&gt;Node18</title>
<path fill="none" stroke="blueviolet" stroke-dasharray="5,2" d="M157.621,-437.218C160.699,-390.807 175.323,-192.825 204,-139 215.778,-116.894 241.011,-103.27 261.926,-95.3799"/>
<text text-anchor="middle" x="213.5" y="-142" font-family="Helvetica,sans-Serif" font-size="10.00">erpc</text>
</g>
<!-- Node7 -->
<g id="node25" class="node"><title>Node7</title>
<g id="a_node25"><a xlink:href="group__port__setup__extensions.html" target="_top" xlink:title="Extension setup functions. ">
<polygon fill="white" stroke="black" points="251.5,-38.5 251.5,-57.5 340.5,-57.5 340.5,-38.5 251.5,-38.5"/>
<text text-anchor="middle" x="296" y="-45.5" font-family="Helvetica,sans-Serif" font-size="10.00">Extension Setup</text>
</a>
</g>
</g>
<!-- Node0&#45;&gt;Node7 -->
<g id="edge7" class="edge"><title>Node0&#45;&gt;Node7</title>
<path fill="none" stroke="blueviolet" stroke-dasharray="5,2" d="M157.45,-437.399C159.89,-388.08 172.597,-163.171 204,-102 214.338,-81.8624 221.678,-78.7925 241,-67 247.108,-63.2722 254.052,-60.1384 260.878,-57.5592"/>
<text text-anchor="middle" x="213.5" y="-105" font-family="Helvetica,sans-Serif" font-size="10.00">erpc</text>
</g>
<!-- Node14 -->
<g id="node26" class="node"><title>Node14</title>
<g id="a_node26"><a xlink:href="group__lpspi__slave__transport.html" target="_top" xlink:title="Lpspi_slave_transport">
<polygon fill="white" stroke="black" points="241,-0.5 241,-19.5 351,-19.5 351,-0.5 241,-0.5"/>
<text text-anchor="middle" x="296" y="-7.5" font-family="Helvetica,sans-Serif" font-size="10.00">Lpspi_slave_transport</text>
</a>
</g>
</g>
<!-- Node0&#45;&gt;Node14 -->
<g id="edge14" class="edge"><title>Node0&#45;&gt;Node14</title>
<path fill="none" stroke="blueviolet" stroke-dasharray="5,2" d="M157.285,-437.369C158.977,-384.7 168.849,-131.4 204,-63 215.282,-41.0474 239.971,-27.509 260.79,-19.6154"/>
<text text-anchor="middle" x="213.5" y="-66" font-family="Helvetica,sans-Serif" font-size="10.00">erpc</text>
</g>
</g>
</svg>
