<?xml version="1.0" encoding="UTF-8" standalone="no"?>
<!DOCTYPE svg PUBLIC "-//W3C//DTD SVG 1.1//EN"
 "http://www.w3.org/Graphics/SVG/1.1/DTD/svg11.dtd">
<!-- Generated by graphviz version 2.38.0 (20140413.2041)
 -->
<!-- Title: Messaging Unit Pages: 1 -->
<svg width="379pt" height="788pt"
 viewBox="0.00 0.00 379.00 788.00" xmlns="http://www.w3.org/2000/svg" xmlns:xlink="http://www.w3.org/1999/xlink">
<g id="graph0" class="graph" transform="scale(1 1) rotate(0) translate(4 784)">
<title>Messaging Unit</title>
<polygon fill="white" stroke="none" points="-4,4 -4,-784 375,-784 375,4 -4,4"/>
<!-- Node1 -->
<g id="node1" class="node"><title>Node1</title>
<g id="a_node1"><a xlink:href="group__transports.html" target="_top" xlink:title="Transport layer classes. ">
<polygon fill="white" stroke="black" points="0,-380.5 0,-399.5 89,-399.5 89,-380.5 0,-380.5"/>
<text text-anchor="middle" x="44.5" y="-387.5" font-family="Helvetica,sans-Serif" font-size="10.00">Transport Layers</text>
</a>
</g>
</g>
<!-- Node0 -->
<g id="node5" class="node"><title>Node0</title>
<polygon fill="#bfbfbf" stroke="black" points="126,-380.5 126,-399.5 210,-399.5 210,-380.5 126,-380.5"/>
<text text-anchor="middle" x="168" y="-387.5" font-family="Helvetica,sans-Serif" font-size="10.00">Messaging Unit</text>
</g>
<!-- Node1&#45;&gt;Node0 -->
<g id="edge1" class="edge"><title>Node1&#45;&gt;Node0</title>
<path fill="none" stroke="black" d="M99.028,-390C108.009,-390 117.204,-390 125.813,-390"/>
<polygon fill="black" stroke="black" points="99.0211,-386.5 89.0211,-390 99.0211,-393.5 99.0211,-386.5"/>
</g>
<!-- Node10 -->
<g id="node2" class="node"><title>Node10</title>
<g id="a_node2"><a xlink:href="group__dspi__slave__transport.html" target="_top" xlink:title="MCUXpressoSDK DSPI slave driver transport. ">
<polygon fill="white" stroke="black" points="285.5,-760.5 285.5,-779.5 350.5,-779.5 350.5,-760.5 285.5,-760.5"/>
<text text-anchor="middle" x="318" y="-767.5" font-family="Helvetica,sans-Serif" font-size="10.00">DSPI Slave</text>
</a>
</g>
</g>
<!-- Node11 -->
<g id="node3" class="node"><title>Node11</title>
<g id="a_node3"><a xlink:href="group__i2c__slave__transport.html" target="_top" xlink:title="MCUXpressoSDK I2C slave driver transport. ">
<polygon fill="white" stroke="black" points="289.5,-722.5 289.5,-741.5 346.5,-741.5 346.5,-722.5 289.5,-722.5"/>
<text text-anchor="middle" x="318" y="-729.5" font-family="Helvetica,sans-Serif" font-size="10.00">I2C Slave</text>
</a>
</g>
</g>
<!-- Node8 -->
<g id="node4" class="node"><title>Node8</title>
<g id="a_node4"><a xlink:href="group__port__threads.html" target="_top" xlink:title="Threading model. ">
<polygon fill="white" stroke="black" points="292.5,-684.5 292.5,-703.5 343.5,-703.5 343.5,-684.5 292.5,-684.5"/>
<text text-anchor="middle" x="318" y="-691.5" font-family="Helvetica,sans-Serif" font-size="10.00">Threads</text>
</a>
</g>
</g>
<!-- Node0&#45;&gt;Node10 -->
<g id="edge10" class="edge"><title>Node0&#45;&gt;Node10</title>
<path fill="none" stroke="blueviolet" stroke-dasharray="5,2" d="M168.679,-399.729C167.736,-440.748 168.16,-602.633 228,-715 238.785,-735.251 245.573,-738.793 265,-751 271.266,-754.938 278.468,-758.225 285.474,-760.898"/>
<text text-anchor="middle" x="237.5" y="-741" font-family="Helvetica,sans-Serif" font-size="10.00">erpc</text>
</g>
<!-- Node0&#45;&gt;Node11 -->
<g id="edge11" class="edge"><title>Node0&#45;&gt;Node11</title>
<path fill="none" stroke="blueviolet" stroke-dasharray="5,2" d="M168.984,-399.607C169.312,-437.435 174.257,-578.839 228,-677 239.018,-697.125 245.573,-700.793 265,-713 272.406,-717.653 281.117,-721.399 289.27,-724.295"/>
<text text-anchor="middle" x="237.5" y="-703" font-family="Helvetica,sans-Serif" font-size="10.00">erpc</text>
</g>
<!-- Node0&#45;&gt;Node8 -->
<g id="edge8" class="edge"><title>Node0&#45;&gt;Node8</title>
<path fill="none" stroke="blueviolet" stroke-dasharray="5,2" d="M169.38,-399.737C171.117,-434.538 180.444,-555.141 228,-639 239.318,-658.958 245.573,-662.793 265,-675 273.382,-680.267 283.437,-684.372 292.462,-687.396"/>
<text text-anchor="middle" x="237.5" y="-665" font-family="Helvetica,sans-Serif" font-size="10.00">erpc</text>
</g>
<!-- Node20 -->
<g id="node6" class="node"><title>Node20</title>
<g id="a_node6"><a xlink:href="group__tcp__transport.html" target="_top" xlink:title="Simple TCP/IP transport. ">
<polygon fill="white" stroke="black" points="294.5,-646.5 294.5,-665.5 341.5,-665.5 341.5,-646.5 294.5,-646.5"/>
<text text-anchor="middle" x="318" y="-653.5" font-family="Helvetica,sans-Serif" font-size="10.00">TCP/IP</text>
</a>
</g>
</g>
<!-- Node0&#45;&gt;Node20 -->
<g id="edge20" class="edge"><title>Node0&#45;&gt;Node20</title>
<path fill="none" stroke="blueviolet" stroke-dasharray="5,2" d="M169.985,-399.892C173.465,-431.237 187.247,-530.389 228,-600 239.75,-620.07 245.394,-624.492 265,-637 273.913,-642.686 284.768,-646.994 294.249,-650.058"/>
<text text-anchor="middle" x="237.5" y="-627" font-family="Helvetica,sans-Serif" font-size="10.00">erpc</text>
</g>
<!-- Node2 -->
<g id="node7" class="node"><title>Node2</title>
<g id="a_node7"><a xlink:href="group__infra__client.html" target="_top" xlink:title="Client classes. ">
<polygon fill="white" stroke="black" points="297.5,-608.5 297.5,-627.5 338.5,-627.5 338.5,-608.5 297.5,-608.5"/>
<text text-anchor="middle" x="318" y="-615.5" font-family="Helvetica,sans-Serif" font-size="10.00">Client</text>
</a>
</g>
</g>
<!-- Node0&#45;&gt;Node2 -->
<g id="edge2" class="edge"><title>Node0&#45;&gt;Node2</title>
<path fill="none" stroke="blueviolet" stroke-dasharray="5,2" d="M170.755,-399.524C176.034,-426.506 193.572,-505.117 228,-561 240.364,-581.069 245.212,-586.19 265,-599 274.843,-605.372 287.115,-609.986 297.264,-613.07"/>
<text text-anchor="middle" x="237.5" y="-588" font-family="Helvetica,sans-Serif" font-size="10.00">erpc</text>
</g>
<!-- Node4 -->
<g id="node8" class="node"><title>Node4</title>
<g id="a_node8"><a xlink:href="group__infra__transport.html" target="_top" xlink:title="Superclasses for building transports. ">
<polygon fill="white" stroke="black" points="287,-570.5 287,-589.5 349,-589.5 349,-570.5 287,-570.5"/>
<text text-anchor="middle" x="318" y="-577.5" font-family="Helvetica,sans-Serif" font-size="10.00">Transports</text>
</a>
</g>
</g>
<!-- Node0&#45;&gt;Node4 -->
<g id="edge4" class="edge"><title>Node0&#45;&gt;Node4</title>
<path fill="none" stroke="blueviolet" stroke-dasharray="5,2" d="M172.167,-399.753C179.736,-422.28 200.323,-479.196 228,-521 241.369,-541.193 244.841,-547.58 265,-561 271.641,-565.421 279.441,-568.972 286.952,-571.753"/>
<text text-anchor="middle" x="237.5" y="-549" font-family="Helvetica,sans-Serif" font-size="10.00">erpc</text>
</g>
<!-- Node16 -->
<g id="node9" class="node"><title>Node16</title>
<g id="a_node9"><a xlink:href="group__serial__transport.html" target="_top" xlink:title="POSIX and Win32 serial port transport. ">
<polygon fill="white" stroke="black" points="287.5,-532.5 287.5,-551.5 348.5,-551.5 348.5,-532.5 287.5,-532.5"/>
<text text-anchor="middle" x="318" y="-539.5" font-family="Helvetica,sans-Serif" font-size="10.00">Serial port</text>
</a>
</g>
</g>
<!-- Node0&#45;&gt;Node16 -->
<g id="edge16" class="edge"><title>Node0&#45;&gt;Node16</title>
<path fill="none" stroke="blueviolet" stroke-dasharray="5,2" d="M172.871,-399.667C183.435,-424.688 215.329,-491.789 265,-523 271.836,-527.296 279.785,-530.818 287.38,-533.612"/>
<text text-anchor="middle" x="237.5" y="-509" font-family="Helvetica,sans-Serif" font-size="10.00">erpc</text>
</g>
<!-- Node5 -->
<g id="node10" class="node"><title>Node5</title>
<g id="a_node10"><a xlink:href="group__infra__utility.html" target="_top" xlink:title="Utility code used by the infrastructure. ">
<polygon fill="white" stroke="black" points="293.5,-494.5 293.5,-513.5 342.5,-513.5 342.5,-494.5 293.5,-494.5"/>
<text text-anchor="middle" x="318" y="-501.5" font-family="Helvetica,sans-Serif" font-size="10.00">Utilities</text>
</a>
</g>
</g>
<!-- Node0&#45;&gt;Node5 -->
<g id="edge5" class="edge"><title>Node0&#45;&gt;Node5</title>
<path fill="none" stroke="blueviolet" stroke-dasharray="5,2" d="M176.072,-399.612C190.602,-418.689 225.767,-461.519 265,-485 273.742,-490.232 284.16,-494.389 293.367,-497.464"/>
<text text-anchor="middle" x="237.5" y="-475" font-family="Helvetica,sans-Serif" font-size="10.00">erpc</text>
</g>
<!-- Node18 -->
<g id="node11" class="node"><title>Node18</title>
<g id="a_node11"><a xlink:href="group__spi__slave__transport.html" target="_top" xlink:title="MCUXpressoSDK SPI slave driver transport. ">
<polygon fill="white" stroke="black" points="288.5,-456.5 288.5,-475.5 347.5,-475.5 347.5,-456.5 288.5,-456.5"/>
<text text-anchor="middle" x="318" y="-463.5" font-family="Helvetica,sans-Serif" font-size="10.00">SPI Slave</text>
</a>
</g>
</g>
<!-- Node0&#45;&gt;Node18 -->
<g id="edge18" class="edge"><title>Node0&#45;&gt;Node18</title>
<path fill="none" stroke="blueviolet" stroke-dasharray="5,2" d="M183.177,-399.556C201.514,-411.647 234.705,-432.624 265,-447 272.381,-450.502 280.593,-453.774 288.271,-456.581"/>
<text text-anchor="middle" x="237.5" y="-440" font-family="Helvetica,sans-Serif" font-size="10.00">erpc</text>
</g>
<!-- Node21 -->
<g id="node12" class="node"><title>Node21</title>
<g id="a_node12"><a xlink:href="group__uart__transport.html" target="_top" xlink:title="CMSIS UART driver transport. ">
<polygon fill="white" stroke="black" points="280,-418.5 280,-437.5 356,-437.5 356,-418.5 280,-418.5"/>
<text text-anchor="middle" x="318" y="-425.5" font-family="Helvetica,sans-Serif" font-size="10.00">CMSIS UART</text>
</a>
</g>
</g>
<!-- Node0&#45;&gt;Node21 -->
<g id="edge21" class="edge"><title>Node0&#45;&gt;Node21</title>
<path fill="none" stroke="blueviolet" stroke-dasharray="5,2" d="M206.347,-399.589C228.868,-405.372 257.449,-412.71 279.922,-418.48"/>
<text text-anchor="middle" x="237.5" y="-412" font-family="Helvetica,sans-Serif" font-size="10.00">erpc</text>
</g>
<!-- Node19 -->
<g id="node13" class="node"><title>Node19</title>
<g id="a_node13"><a xlink:href="group__spidev__master__transport.html" target="_top" xlink:title="SPIdev Linux transport. ">
<polygon fill="white" stroke="black" points="265,-380.5 265,-399.5 371,-399.5 371,-380.5 265,-380.5"/>
<text text-anchor="middle" x="318" y="-387.5" font-family="Helvetica,sans-Serif" font-size="10.00">SPIdev Linux Master</text>
</a>
</g>
</g>
<!-- Node0&#45;&gt;Node19 -->
<g id="edge19" class="edge"><title>Node0&#45;&gt;Node19</title>
<path fill="none" stroke="blueviolet" stroke-dasharray="5,2" d="M210.226,-390C227.161,-390 246.966,-390 264.889,-390"/>
<text text-anchor="middle" x="237.5" y="-393" font-family="Helvetica,sans-Serif" font-size="10.00">erpc</text>
</g>
<!-- Node17 -->
<g id="node14" class="node"><title>Node17</title>
<g id="a_node14"><a xlink:href="group__spi__master__transport.html" target="_top" xlink:title="MCUXpressoSDK SPI master driver transport. ">
<polygon fill="white" stroke="black" points="285.5,-342.5 285.5,-361.5 350.5,-361.5 350.5,-342.5 285.5,-342.5"/>
<text text-anchor="middle" x="318" y="-349.5" font-family="Helvetica,sans-Serif" font-size="10.00">SPI Master</text>
</a>
</g>
</g>
<!-- Node0&#45;&gt;Node17 -->
<g id="edge17" class="edge"><title>Node0&#45;&gt;Node17</title>
<path fill="none" stroke="blueviolet" stroke-dasharray="5,2" d="M206.347,-380.411C230.666,-374.167 262.052,-366.108 285.182,-360.169"/>
<text text-anchor="middle" x="237.5" y="-377" font-family="Helvetica,sans-Serif" font-size="10.00">erpc</text>
</g>
<!-- Node15 -->
<g id="node15" class="node"><title>Node15</title>
<g id="a_node15"><a xlink:href="group__rpmsg__tty__rtos__transport.html" target="_top" xlink:title="RPMsg TTY RTOS transport. ">
<polygon fill="white" stroke="black" points="269,-304.5 269,-323.5 367,-323.5 367,-304.5 269,-304.5"/>
<text text-anchor="middle" x="318" y="-311.5" font-family="Helvetica,sans-Serif" font-size="10.00">RPMsg TTY RTOS</text>
</a>
</g>
</g>
<!-- Node0&#45;&gt;Node15 -->
<g id="edge15" class="edge"><title>Node0&#45;&gt;Node15</title>
<path fill="none" stroke="blueviolet" stroke-dasharray="5,2" d="M183.177,-380.444C201.514,-368.353 234.705,-347.376 265,-333 272.294,-329.539 280.4,-326.303 288,-323.518"/>
<text text-anchor="middle" x="237.5" y="-354" font-family="Helvetica,sans-Serif" font-size="10.00">erpc</text>
</g>
<!-- Node6 -->
<g id="node16" class="node"><title>Node6</title>
<g id="a_node16"><a xlink:href="group__infra__server.html" target="_top" xlink:title="Server classes. ">
<polygon fill="white" stroke="black" points="296,-266.5 296,-285.5 340,-285.5 340,-266.5 296,-266.5"/>
<text text-anchor="middle" x="318" y="-273.5" font-family="Helvetica,sans-Serif" font-size="10.00">Server</text>
</a>
</g>
</g>
<!-- Node0&#45;&gt;Node6 -->
<g id="edge6" class="edge"><title>Node0&#45;&gt;Node6</title>
<path fill="none" stroke="blueviolet" stroke-dasharray="5,2" d="M176.041,-380.337C190.517,-361.168 225.589,-318.181 265,-295 274.61,-289.347 286.188,-284.916 295.977,-281.76"/>
<text text-anchor="middle" x="237.5" y="-324" font-family="Helvetica,sans-Serif" font-size="10.00">erpc</text>
</g>
<!-- Node12 -->
<g id="node17" class="node"><title>Node12</title>
<g id="a_node17"><a xlink:href="group__itbp__transport.html" target="_top" xlink:title="Simple inter&#45;thread communications transport. ">
<polygon fill="white" stroke="black" points="285.5,-228.5 285.5,-247.5 350.5,-247.5 350.5,-228.5 285.5,-228.5"/>
<text text-anchor="middle" x="318" y="-235.5" font-family="Helvetica,sans-Serif" font-size="10.00">Inter&#45;thread</text>
</a>
</g>
</g>
<!-- Node0&#45;&gt;Node12 -->
<g id="edge12" class="edge"><title>Node0&#45;&gt;Node12</title>
<path fill="none" stroke="blueviolet" stroke-dasharray="5,2" d="M172.846,-380.293C183.35,-355.175 215.111,-287.861 265,-257 271.212,-253.157 278.319,-249.921 285.242,-247.271"/>
<text text-anchor="middle" x="237.5" y="-291" font-family="Helvetica,sans-Serif" font-size="10.00">erpc</text>
</g>
<!-- Node9 -->
<g id="node18" class="node"><title>Node9</title>
<g id="a_node18"><a xlink:href="group__dspi__master__transport.html" target="_top" xlink:title="MCUXpressoSDK DSPI master driver transport. ">
<polygon fill="white" stroke="black" points="282,-190.5 282,-209.5 354,-209.5 354,-190.5 282,-190.5"/>
<text text-anchor="middle" x="318" y="-197.5" font-family="Helvetica,sans-Serif" font-size="10.00">DSPI Master</text>
</a>
</g>
</g>
<!-- Node0&#45;&gt;Node9 -->
<g id="edge9" class="edge"><title>Node0&#45;&gt;Node9</title>
<path fill="none" stroke="blueviolet" stroke-dasharray="5,2" d="M171.952,-380.385C179.203,-357.638 199.408,-299.263 228,-257 241.209,-237.476 245.212,-231.81 265,-219 270.809,-215.239 277.464,-212.091 284.029,-209.508"/>
<text text-anchor="middle" x="237.5" y="-260" font-family="Helvetica,sans-Serif" font-size="10.00">erpc</text>
</g>
<!-- Node22 -->
<g id="node19" class="node"><title>Node22</title>
<g id="a_node19"><a xlink:href="group___u_s_b___c_d_c__transport.html" target="_top" xlink:title="USB CDC transport. ">
<polygon fill="white" stroke="black" points="288,-152.5 288,-171.5 348,-171.5 348,-152.5 288,-152.5"/>
<text text-anchor="middle" x="318" y="-159.5" font-family="Helvetica,sans-Serif" font-size="10.00">USB CDC</text>
</a>
</g>
</g>
<!-- Node0&#45;&gt;Node22 -->
<g id="edge22" class="edge"><title>Node0&#45;&gt;Node22</title>
<path fill="none" stroke="blueviolet" stroke-dasharray="5,2" d="M170.651,-380.316C175.659,-352.891 192.552,-273.055 228,-217 240.263,-197.608 245.573,-193.207 265,-181 271.999,-176.602 280.164,-173.015 287.922,-170.19"/>
<text text-anchor="middle" x="237.5" y="-220" font-family="Helvetica,sans-Serif" font-size="10.00">erpc</text>
</g>
<!-- Node3 -->
<g id="node20" class="node"><title>Node3</title>
<g id="a_node20"><a xlink:href="group__infra__codec.html" target="_top" xlink:title="Classes used for message serialization. ">
<polygon fill="white" stroke="black" points="283,-114.5 283,-133.5 353,-133.5 353,-114.5 283,-114.5"/>
<text text-anchor="middle" x="318" y="-121.5" font-family="Helvetica,sans-Serif" font-size="10.00">Serialization</text>
</a>
</g>
</g>
<!-- Node0&#45;&gt;Node3 -->
<g id="edge3" class="edge"><title>Node0&#45;&gt;Node3</title>
<path fill="none" stroke="blueviolet" stroke-dasharray="5,2" d="M169.836,-380.408C172.926,-349.121 185.804,-248.027 228,-178 239.683,-158.612 245.749,-154.908 265,-143 270.967,-139.309 277.759,-136.178 284.421,-133.588"/>
<text text-anchor="middle" x="237.5" y="-181" font-family="Helvetica,sans-Serif" font-size="10.00">erpc</text>
</g>
<!-- Node13 -->
<g id="node21" class="node"><title>Node13</title>
<g id="a_node21"><a xlink:href="group__rpmsg__lite__rtos__transport.html" target="_top" xlink:title="RPMsg&#45;Lite zero copy transport using RTOS API. ">
<polygon fill="white" stroke="black" points="269.5,-76.5 269.5,-95.5 366.5,-95.5 366.5,-76.5 269.5,-76.5"/>
<text text-anchor="middle" x="318" y="-83.5" font-family="Helvetica,sans-Serif" font-size="10.00">RPMsg&#45;Lite RTOS</text>
</a>
</g>
</g>
<!-- Node0&#45;&gt;Node13 -->
<g id="edge13" class="edge"><title>Node0&#45;&gt;Node13</title>
<path fill="none" stroke="blueviolet" stroke-dasharray="5,2" d="M169.328,-380.2C170.894,-345.182 179.709,-223.861 228,-140 239.296,-120.384 245.749,-116.908 265,-105 270.967,-101.309 277.759,-98.1779 284.421,-95.5877"/>
<text text-anchor="middle" x="237.5" y="-143" font-family="Helvetica,sans-Serif" font-size="10.00">erpc</text>
</g>
<!-- Node14 -->
<g id="node22" class="node"><title>Node14</title>
<g id="a_node22"><a xlink:href="group__rpmsg__lite__transport.html" target="_top" xlink:title="RPMsg&#45;Lite zero copy transport. ">
<polygon fill="white" stroke="black" points="284,-38.5 284,-57.5 352,-57.5 352,-38.5 284,-38.5"/>
<text text-anchor="middle" x="318" y="-45.5" font-family="Helvetica,sans-Serif" font-size="10.00">RPMsg&#45;Lite</text>
</a>
</g>
</g>
<!-- Node0&#45;&gt;Node14 -->
<g id="edge14" class="edge"><title>Node0&#45;&gt;Node14</title>
<path fill="none" stroke="blueviolet" stroke-dasharray="5,2" d="M168.883,-380.28C168.835,-342.017 172.56,-199.073 228,-101 238.99,-81.5583 245.923,-78.6111 265,-67 271.076,-63.3021 277.984,-60.1545 284.736,-57.548"/>
<text text-anchor="middle" x="237.5" y="-104" font-family="Helvetica,sans-Serif" font-size="10.00">erpc</text>
</g>
<!-- Node7 -->
<g id="node23" class="node"><title>Node7</title>
<g id="a_node23"><a xlink:href="group__port__setup__extensions.html" target="_top" xlink:title="Extension setup functions. ">
<polygon fill="white" stroke="black" points="273.5,-0.5 273.5,-19.5 362.5,-19.5 362.5,-0.5 273.5,-0.5"/>
<text text-anchor="middle" x="318" y="-7.5" font-family="Helvetica,sans-Serif" font-size="10.00">Extension Setup</text>
</a>
</g>
</g>
<!-- Node0&#45;&gt;Node7 -->
<g id="edge7" class="edge"><title>Node0&#45;&gt;Node7</title>
<path fill="none" stroke="blueviolet" stroke-dasharray="5,2" d="M168.588,-380.444C167.235,-339.449 166.118,-175.453 228,-63 239.965,-41.2573 264.892,-27.5547 285.331,-19.5422"/>
<text text-anchor="middle" x="237.5" y="-66" font-family="Helvetica,sans-Serif" font-size="10.00">erpc</text>
</g>
</g>
</svg>
