<?xml version="1.0" encoding="UTF-8" standalone="no"?>
<!DOCTYPE svg PUBLIC "-//W3C//DTD SVG 1.1//EN"
 "http://www.w3.org/Graphics/SVG/1.1/DTD/svg11.dtd">
<!-- Generated by graphviz version 2.38.0 (20140413.2041)
 -->
<!-- Title: SPI Slave Pages: 1 -->
<svg width="354pt" height="750pt"
 viewBox="0.00 0.00 354.00 750.00" xmlns="http://www.w3.org/2000/svg" xmlns:xlink="http://www.w3.org/1999/xlink">
<g id="graph0" class="graph" transform="scale(1 1) rotate(0) translate(4 746)">
<title>SPI Slave</title>
<polygon fill="white" stroke="none" points="-4,4 -4,-746 350,-746 350,4 -4,4"/>
<!-- Node1 -->
<g id="node1" class="node"><title>Node1</title>
<g id="a_node1"><a xlink:href="group__transports.html" target="_top" xlink:title="Transport layer classes. ">
<polygon fill="white" stroke="black" points="0,-361.5 0,-380.5 89,-380.5 89,-361.5 0,-361.5"/>
<text text-anchor="middle" x="44.5" y="-368.5" font-family="Helvetica,sans-Serif" font-size="10.00">Transport Layers</text>
</a>
</g>
</g>
<!-- Node0 -->
<g id="node10" class="node"><title>Node0</title>
<polygon fill="#bfbfbf" stroke="black" points="126,-361.5 126,-380.5 185,-380.5 185,-361.5 126,-361.5"/>
<text text-anchor="middle" x="155.5" y="-368.5" font-family="Helvetica,sans-Serif" font-size="10.00">SPI Slave</text>
</g>
<!-- Node1&#45;&gt;Node0 -->
<g id="edge1" class="edge"><title>Node1&#45;&gt;Node0</title>
<path fill="none" stroke="black" d="M99.4298,-371C108.541,-371 117.673,-371 125.808,-371"/>
<polygon fill="black" stroke="black" points="99.2065,-367.5 89.2064,-371 99.2064,-374.5 99.2065,-367.5"/>
</g>
<!-- Node10 -->
<g id="node2" class="node"><title>Node10</title>
<g id="a_node2"><a xlink:href="group__dspi__slave__transport.html" target="_top" xlink:title="Kinetis SDK DSPI slave driver transport. ">
<polygon fill="white" stroke="black" points="260.5,-722.5 260.5,-741.5 325.5,-741.5 325.5,-722.5 260.5,-722.5"/>
<text text-anchor="middle" x="293" y="-729.5" font-family="Helvetica,sans-Serif" font-size="10.00">DSPI Slave</text>
</a>
</g>
</g>
<!-- Node8 -->
<g id="node3" class="node"><title>Node8</title>
<g id="a_node3"><a xlink:href="group__port__threads.html" target="_top" xlink:title="Threading model. ">
<polygon fill="white" stroke="black" points="267.5,-684.5 267.5,-703.5 318.5,-703.5 318.5,-684.5 267.5,-684.5"/>
<text text-anchor="middle" x="293" y="-691.5" font-family="Helvetica,sans-Serif" font-size="10.00">Threads</text>
</a>
</g>
</g>
<!-- Node12 -->
<g id="node4" class="node"><title>Node12</title>
<g id="a_node4"><a xlink:href="group__mu__transport.html" target="_top" xlink:title="Messaging Unit transport. ">
<polygon fill="white" stroke="black" points="251,-646.5 251,-665.5 335,-665.5 335,-646.5 251,-646.5"/>
<text text-anchor="middle" x="293" y="-653.5" font-family="Helvetica,sans-Serif" font-size="10.00">Messaging Unit</text>
</a>
</g>
</g>
<!-- Node19 -->
<g id="node5" class="node"><title>Node19</title>
<g id="a_node5"><a xlink:href="group__tcp__transport.html" target="_top" xlink:title="Simple TCP/IP transport. ">
<polygon fill="white" stroke="black" points="269.5,-608.5 269.5,-627.5 316.5,-627.5 316.5,-608.5 269.5,-608.5"/>
<text text-anchor="middle" x="293" y="-615.5" font-family="Helvetica,sans-Serif" font-size="10.00">TCP/IP</text>
</a>
</g>
</g>
<!-- Node2 -->
<g id="node6" class="node"><title>Node2</title>
<g id="a_node6"><a xlink:href="group__infra__client.html" target="_top" xlink:title="Client classes. ">
<polygon fill="white" stroke="black" points="272.5,-570.5 272.5,-589.5 313.5,-589.5 313.5,-570.5 272.5,-570.5"/>
<text text-anchor="middle" x="293" y="-577.5" font-family="Helvetica,sans-Serif" font-size="10.00">Client</text>
</a>
</g>
</g>
<!-- Node4 -->
<g id="node7" class="node"><title>Node4</title>
<g id="a_node7"><a xlink:href="group__infra__transport.html" target="_top" xlink:title="Superclasses for building transports. ">
<polygon fill="white" stroke="black" points="262,-532.5 262,-551.5 324,-551.5 324,-532.5 262,-532.5"/>
<text text-anchor="middle" x="293" y="-539.5" font-family="Helvetica,sans-Serif" font-size="10.00">Transports</text>
</a>
</g>
</g>
<!-- Node16 -->
<g id="node8" class="node"><title>Node16</title>
<g id="a_node8"><a xlink:href="group__serial__transport.html" target="_top" xlink:title="POSIX and Win32 serial port transport. ">
<polygon fill="white" stroke="black" points="262.5,-494.5 262.5,-513.5 323.5,-513.5 323.5,-494.5 262.5,-494.5"/>
<text text-anchor="middle" x="293" y="-501.5" font-family="Helvetica,sans-Serif" font-size="10.00">Serial port</text>
</a>
</g>
</g>
<!-- Node5 -->
<g id="node9" class="node"><title>Node5</title>
<g id="a_node9"><a xlink:href="group__infra__utility.html" target="_top" xlink:title="Utility code used by the infrastructure. ">
<polygon fill="white" stroke="black" points="268.5,-456.5 268.5,-475.5 317.5,-475.5 317.5,-456.5 268.5,-456.5"/>
<text text-anchor="middle" x="293" y="-463.5" font-family="Helvetica,sans-Serif" font-size="10.00">Utilities</text>
</a>
</g>
</g>
<!-- Node0&#45;&gt;Node10 -->
<g id="edge10" class="edge"><title>Node0&#45;&gt;Node10</title>
<path fill="none" stroke="blueviolet" stroke-dasharray="5,2" d="M157.143,-380.701C160.318,-426.732 175.294,-623.12 203,-677 213.492,-697.404 220.573,-700.793 240,-713 246.266,-716.938 253.468,-720.225 260.474,-722.898"/>
<text text-anchor="middle" x="212.5" y="-703" font-family="Helvetica,sans-Serif" font-size="10.00">erpc</text>
</g>
<!-- Node0&#45;&gt;Node8 -->
<g id="edge8" class="edge"><title>Node0&#45;&gt;Node8</title>
<path fill="none" stroke="blueviolet" stroke-dasharray="5,2" d="M156.094,-380.943C155.02,-417.626 154.965,-547.948 203,-639 213.706,-659.293 220.573,-662.793 240,-675 248.382,-680.267 258.437,-684.372 267.462,-687.396"/>
<text text-anchor="middle" x="212.5" y="-665" font-family="Helvetica,sans-Serif" font-size="10.00">erpc</text>
</g>
<!-- Node0&#45;&gt;Node12 -->
<g id="edge12" class="edge"><title>Node0&#45;&gt;Node12</title>
<path fill="none" stroke="blueviolet" stroke-dasharray="5,2" d="M156.469,-380.892C156.769,-414.142 161.063,-524.105 203,-601 213.986,-621.143 220.573,-624.793 240,-637 245.941,-640.733 252.722,-643.882 259.381,-646.477"/>
<text text-anchor="middle" x="212.5" y="-627" font-family="Helvetica,sans-Serif" font-size="10.00">erpc</text>
</g>
<!-- Node0&#45;&gt;Node19 -->
<g id="edge19" class="edge"><title>Node0&#45;&gt;Node19</title>
<path fill="none" stroke="blueviolet" stroke-dasharray="5,2" d="M156.982,-380.885C158.806,-410.468 167.146,-500.14 203,-563 214.368,-582.93 220.573,-586.793 240,-599 248.952,-604.625 259.812,-608.924 269.287,-611.998"/>
<text text-anchor="middle" x="212.5" y="-589" font-family="Helvetica,sans-Serif" font-size="10.00">erpc</text>
</g>
<!-- Node0&#45;&gt;Node2 -->
<g id="edge2" class="edge"><title>Node0&#45;&gt;Node2</title>
<path fill="none" stroke="blueviolet" stroke-dasharray="5,2" d="M157.762,-380.617C161.4,-405.771 173.586,-474.954 203,-524 214.961,-543.944 220.394,-548.492 240,-561 249.886,-567.307 262.159,-571.917 272.299,-575.016"/>
<text text-anchor="middle" x="212.5" y="-551" font-family="Helvetica,sans-Serif" font-size="10.00">erpc</text>
</g>
<!-- Node0&#45;&gt;Node4 -->
<g id="edge4" class="edge"><title>Node0&#45;&gt;Node4</title>
<path fill="none" stroke="blueviolet" stroke-dasharray="5,2" d="M158.954,-380.559C164.517,-401.096 179.46,-450.446 203,-486 215.839,-505.391 220.394,-510.492 240,-523 246.645,-527.239 254.368,-530.712 261.797,-533.474"/>
<text text-anchor="middle" x="212.5" y="-512" font-family="Helvetica,sans-Serif" font-size="10.00">erpc</text>
</g>
<!-- Node0&#45;&gt;Node16 -->
<g id="edge16" class="edge"><title>Node0&#45;&gt;Node16</title>
<path fill="none" stroke="blueviolet" stroke-dasharray="5,2" d="M160.502,-380.52C170.386,-402.777 198.221,-458.347 240,-485 246.807,-489.342 254.745,-492.881 262.34,-495.675"/>
<text text-anchor="middle" x="212.5" y="-474" font-family="Helvetica,sans-Serif" font-size="10.00">erpc</text>
</g>
<!-- Node0&#45;&gt;Node5 -->
<g id="edge5" class="edge"><title>Node0&#45;&gt;Node5</title>
<path fill="none" stroke="blueviolet" stroke-dasharray="5,2" d="M164.511,-380.591C178.336,-396.563 208.26,-428.664 240,-447 248.822,-452.096 259.254,-456.23 268.449,-459.324"/>
<text text-anchor="middle" x="212.5" y="-436" font-family="Helvetica,sans-Serif" font-size="10.00">erpc</text>
</g>
<!-- Node20 -->
<g id="node11" class="node"><title>Node20</title>
<g id="a_node11"><a xlink:href="group__uart__transport.html" target="_top" xlink:title="CMSIS UART driver transport. ">
<polygon fill="white" stroke="black" points="255,-418.5 255,-437.5 331,-437.5 331,-418.5 255,-418.5"/>
<text text-anchor="middle" x="293" y="-425.5" font-family="Helvetica,sans-Serif" font-size="10.00">CMSIS UART</text>
</a>
</g>
</g>
<!-- Node0&#45;&gt;Node20 -->
<g id="edge20" class="edge"><title>Node0&#45;&gt;Node20</title>
<path fill="none" stroke="blueviolet" stroke-dasharray="5,2" d="M175.353,-380.721C183.748,-384.947 193.799,-389.866 203,-394 223.218,-403.083 246.655,-411.973 264.402,-418.383"/>
<text text-anchor="middle" x="212.5" y="-404" font-family="Helvetica,sans-Serif" font-size="10.00">erpc</text>
</g>
<!-- Node18 -->
<g id="node12" class="node"><title>Node18</title>
<g id="a_node12"><a xlink:href="group__spidev__master__transport.html" target="_top" xlink:title="SPIdev Linux transport. ">
<polygon fill="white" stroke="black" points="240,-380.5 240,-399.5 346,-399.5 346,-380.5 240,-380.5"/>
<text text-anchor="middle" x="293" y="-387.5" font-family="Helvetica,sans-Serif" font-size="10.00">SPIdev Linux Master</text>
</a>
</g>
</g>
<!-- Node0&#45;&gt;Node18 -->
<g id="edge18" class="edge"><title>Node0&#45;&gt;Node18</title>
<path fill="none" stroke="blueviolet" stroke-dasharray="5,2" d="M185.236,-375.029C201.084,-377.252 221.252,-380.08 239.782,-382.678"/>
<text text-anchor="middle" x="212.5" y="-382" font-family="Helvetica,sans-Serif" font-size="10.00">erpc</text>
</g>
<!-- Node17 -->
<g id="node13" class="node"><title>Node17</title>
<g id="a_node13"><a xlink:href="group__spi__master__transport.html" target="_top" xlink:title="Kinetis SDK SPI master driver transport. ">
<polygon fill="white" stroke="black" points="260.5,-342.5 260.5,-361.5 325.5,-361.5 325.5,-342.5 260.5,-342.5"/>
<text text-anchor="middle" x="293" y="-349.5" font-family="Helvetica,sans-Serif" font-size="10.00">SPI Master</text>
</a>
</g>
</g>
<!-- Node0&#45;&gt;Node17 -->
<g id="edge17" class="edge"><title>Node0&#45;&gt;Node17</title>
<path fill="none" stroke="blueviolet" stroke-dasharray="5,2" d="M184.273,-361.473C190.378,-359.708 196.856,-358.082 203,-357 221.899,-353.672 243.371,-352.395 260.489,-351.963"/>
<text text-anchor="middle" x="212.5" y="-360" font-family="Helvetica,sans-Serif" font-size="10.00">erpc</text>
</g>
<!-- Node15 -->
<g id="node14" class="node"><title>Node15</title>
<g id="a_node14"><a xlink:href="group__rpmsg__tty__rtos__transport.html" target="_top" xlink:title="RPMsg TTY RTOS transport. ">
<polygon fill="white" stroke="black" points="244,-304.5 244,-323.5 342,-323.5 342,-304.5 244,-304.5"/>
<text text-anchor="middle" x="293" y="-311.5" font-family="Helvetica,sans-Serif" font-size="10.00">RPMsg TTY RTOS</text>
</a>
</g>
</g>
<!-- Node0&#45;&gt;Node15 -->
<g id="edge15" class="edge"><title>Node0&#45;&gt;Node15</title>
<path fill="none" stroke="blueviolet" stroke-dasharray="5,2" d="M168.076,-361.423C177.106,-354.365 190.222,-344.989 203,-339 216.806,-332.529 232.621,-327.418 247.054,-323.549"/>
<text text-anchor="middle" x="212.5" y="-342" font-family="Helvetica,sans-Serif" font-size="10.00">erpc</text>
</g>
<!-- Node6 -->
<g id="node15" class="node"><title>Node6</title>
<g id="a_node15"><a xlink:href="group__infra__server.html" target="_top" xlink:title="Server classes. ">
<polygon fill="white" stroke="black" points="271,-266.5 271,-285.5 315,-285.5 315,-266.5 271,-266.5"/>
<text text-anchor="middle" x="293" y="-273.5" font-family="Helvetica,sans-Serif" font-size="10.00">Server</text>
</a>
</g>
</g>
<!-- Node0&#45;&gt;Node6 -->
<g id="edge6" class="edge"><title>Node0&#45;&gt;Node6</title>
<path fill="none" stroke="blueviolet" stroke-dasharray="5,2" d="M163.179,-361.145C171.503,-349.373 186.641,-329.573 203,-316 223.208,-299.234 251.572,-288.107 270.807,-281.937"/>
<text text-anchor="middle" x="212.5" y="-319" font-family="Helvetica,sans-Serif" font-size="10.00">erpc</text>
</g>
<!-- Node11 -->
<g id="node16" class="node"><title>Node11</title>
<g id="a_node16"><a xlink:href="group__itbp__transport.html" target="_top" xlink:title="Simple inter&#45;thread communications transport. ">
<polygon fill="white" stroke="black" points="260.5,-228.5 260.5,-247.5 325.5,-247.5 325.5,-228.5 260.5,-228.5"/>
<text text-anchor="middle" x="293" y="-235.5" font-family="Helvetica,sans-Serif" font-size="10.00">Inter&#45;thread</text>
</a>
</g>
</g>
<!-- Node0&#45;&gt;Node11 -->
<g id="edge11" class="edge"><title>Node0&#45;&gt;Node11</title>
<path fill="none" stroke="blueviolet" stroke-dasharray="5,2" d="M160.518,-361.344C167.564,-345.107 183.291,-311.781 203,-288 216.69,-271.482 221.424,-267.731 240,-257 246.325,-253.346 253.478,-250.187 260.409,-247.551"/>
<text text-anchor="middle" x="212.5" y="-291" font-family="Helvetica,sans-Serif" font-size="10.00">erpc</text>
</g>
<!-- Node9 -->
<g id="node17" class="node"><title>Node9</title>
<g id="a_node17"><a xlink:href="group__dspi__master__transport.html" target="_top" xlink:title="Kinetis SDK DSPI master driver transport. ">
<polygon fill="white" stroke="black" points="257,-190.5 257,-209.5 329,-209.5 329,-190.5 257,-190.5"/>
<text text-anchor="middle" x="293" y="-197.5" font-family="Helvetica,sans-Serif" font-size="10.00">DSPI Master</text>
</a>
</g>
</g>
<!-- Node0&#45;&gt;Node9 -->
<g id="edge9" class="edge"><title>Node0&#45;&gt;Node9</title>
<path fill="none" stroke="blueviolet" stroke-dasharray="5,2" d="M158.701,-361.428C163.86,-340.391 178.204,-289.128 203,-253 215.638,-234.587 220.923,-230.611 240,-219 246.076,-215.302 252.984,-212.155 259.736,-209.548"/>
<text text-anchor="middle" x="212.5" y="-256" font-family="Helvetica,sans-Serif" font-size="10.00">erpc</text>
</g>
<!-- Node21 -->
<g id="node18" class="node"><title>Node21</title>
<g id="a_node18"><a xlink:href="group___u_s_b___c_d_c__transport.html" target="_top" xlink:title="USB CDC transport. ">
<polygon fill="white" stroke="black" points="263,-152.5 263,-171.5 323,-171.5 323,-152.5 263,-152.5"/>
<text text-anchor="middle" x="293" y="-159.5" font-family="Helvetica,sans-Serif" font-size="10.00">USB CDC</text>
</a>
</g>
</g>
<!-- Node0&#45;&gt;Node21 -->
<g id="edge21" class="edge"><title>Node0&#45;&gt;Node21</title>
<path fill="none" stroke="blueviolet" stroke-dasharray="5,2" d="M157.654,-361.21C161.029,-335.612 172.636,-265.27 203,-216 214.876,-196.73 220.749,-192.908 240,-181 247.03,-176.652 255.205,-173.081 262.962,-170.255"/>
<text text-anchor="middle" x="212.5" y="-219" font-family="Helvetica,sans-Serif" font-size="10.00">erpc</text>
</g>
<!-- Node3 -->
<g id="node19" class="node"><title>Node3</title>
<g id="a_node19"><a xlink:href="group__infra__codec.html" target="_top" xlink:title="Classes used for message serialization. ">
<polygon fill="white" stroke="black" points="258,-114.5 258,-133.5 328,-133.5 328,-114.5 258,-114.5"/>
<text text-anchor="middle" x="293" y="-121.5" font-family="Helvetica,sans-Serif" font-size="10.00">Serialization</text>
</a>
</g>
</g>
<!-- Node0&#45;&gt;Node3 -->
<g id="edge3" class="edge"><title>Node0&#45;&gt;Node3</title>
<path fill="none" stroke="blueviolet" stroke-dasharray="5,2" d="M156.904,-361.46C158.526,-332.094 166.39,-241.234 203,-178 214.342,-158.41 220.749,-154.908 240,-143 245.967,-139.309 252.759,-136.178 259.421,-133.588"/>
<text text-anchor="middle" x="212.5" y="-181" font-family="Helvetica,sans-Serif" font-size="10.00">erpc</text>
</g>
<!-- Node13 -->
<g id="node20" class="node"><title>Node13</title>
<g id="a_node20"><a xlink:href="group__rpmsg__lite__rtos__transport.html" target="_top" xlink:title="RPMsg&#45;Lite zero copy transport using RTOS API. ">
<polygon fill="white" stroke="black" points="244.5,-76.5 244.5,-95.5 341.5,-95.5 341.5,-76.5 244.5,-76.5"/>
<text text-anchor="middle" x="293" y="-83.5" font-family="Helvetica,sans-Serif" font-size="10.00">RPMsg&#45;Lite RTOS</text>
</a>
</g>
</g>
<!-- Node0&#45;&gt;Node13 -->
<g id="edge13" class="edge"><title>Node0&#45;&gt;Node13</title>
<path fill="none" stroke="blueviolet" stroke-dasharray="5,2" d="M156.363,-361.441C156.294,-328.327 159.474,-216.321 203,-139 213.955,-119.539 220.923,-116.611 240,-105 246.076,-101.302 252.984,-98.1545 259.736,-95.548"/>
<text text-anchor="middle" x="212.5" y="-142" font-family="Helvetica,sans-Serif" font-size="10.00">erpc</text>
</g>
<!-- Node14 -->
<g id="node21" class="node"><title>Node14</title>
<g id="a_node21"><a xlink:href="group__rpmsg__lite__transport.html" target="_top" xlink:title="RPMsg&#45;Lite zero copy transport. ">
<polygon fill="white" stroke="black" points="259,-38.5 259,-57.5 327,-57.5 327,-38.5 259,-38.5"/>
<text text-anchor="middle" x="293" y="-45.5" font-family="Helvetica,sans-Serif" font-size="10.00">RPMsg&#45;Lite</text>
</a>
</g>
</g>
<!-- Node0&#45;&gt;Node14 -->
<g id="edge14" class="edge"><title>Node0&#45;&gt;Node14</title>
<path fill="none" stroke="blueviolet" stroke-dasharray="5,2" d="M156.009,-361.442C154.558,-325.031 153.143,-192.461 203,-101 214.878,-79.2098 239.813,-65.511 260.275,-57.512"/>
<text text-anchor="middle" x="212.5" y="-104" font-family="Helvetica,sans-Serif" font-size="10.00">erpc</text>
</g>
<!-- Node7 -->
<g id="node22" class="node"><title>Node7</title>
<g id="a_node22"><a xlink:href="group__port__setup__extensions.html" target="_top" xlink:title="Extension setup functions. ">
<polygon fill="white" stroke="black" points="248.5,-0.5 248.5,-19.5 337.5,-19.5 337.5,-0.5 248.5,-0.5"/>
<text text-anchor="middle" x="293" y="-7.5" font-family="Helvetica,sans-Serif" font-size="10.00">Extension Setup</text>
</a>
</g>
</g>
<!-- Node0&#45;&gt;Node7 -->
<g id="edge7" class="edge"><title>Node0&#45;&gt;Node7</title>
<path fill="none" stroke="blueviolet" stroke-dasharray="5,2" d="M157.124,-361.259C160.21,-315.04 174.839,-117.862 203,-64 213.488,-43.9401 220.749,-40.9082 240,-29 245.967,-25.3089 252.759,-22.1779 259.421,-19.5877"/>
<text text-anchor="middle" x="212.5" y="-67" font-family="Helvetica,sans-Serif" font-size="10.00">erpc</text>
</g>
</g>
</svg>
