<?xml version="1.0" encoding="UTF-8" standalone="no"?>
<!DOCTYPE svg PUBLIC "-//W3C//DTD SVG 1.1//EN"
 "http://www.w3.org/Graphics/SVG/1.1/DTD/svg11.dtd">
<!-- Generated by graphviz version 2.38.0 (20140413.2041)
 -->
<!-- Title: SPIdev Linux Master Pages: 1 -->
<svg width="393pt" height="788pt"
 viewBox="0.00 0.00 393.00 788.00" xmlns="http://www.w3.org/2000/svg" xmlns:xlink="http://www.w3.org/1999/xlink">
<g id="graph0" class="graph" transform="scale(1 1) rotate(0) translate(4 784)">
<title>SPIdev Linux Master</title>
<polygon fill="white" stroke="none" points="-4,4 -4,-784 389,-784 389,4 -4,4"/>
<!-- Node1 -->
<g id="node1" class="node"><title>Node1</title>
<g id="a_node1"><a xlink:href="group__transports.html" target="_top" xlink:title="Transport layer classes. ">
<polygon fill="white" stroke="black" points="0,-380.5 0,-399.5 89,-399.5 89,-380.5 0,-380.5"/>
<text text-anchor="middle" x="44.5" y="-387.5" font-family="Helvetica,sans-Serif" font-size="10.00">Transport Layers</text>
</a>
</g>
</g>
<!-- Node0 -->
<g id="node13" class="node"><title>Node0</title>
<polygon fill="#bfbfbf" stroke="black" points="126,-380.5 126,-399.5 232,-399.5 232,-380.5 126,-380.5"/>
<text text-anchor="middle" x="179" y="-387.5" font-family="Helvetica,sans-Serif" font-size="10.00">SPIdev Linux Master</text>
</g>
<!-- Node1&#45;&gt;Node0 -->
<g id="edge1" class="edge"><title>Node1&#45;&gt;Node0</title>
<path fill="none" stroke="black" d="M99.2581,-390C107.929,-390 116.896,-390 125.536,-390"/>
<polygon fill="black" stroke="black" points="99.2527,-386.5 89.2527,-390 99.2526,-393.5 99.2527,-386.5"/>
</g>
<!-- Node10 -->
<g id="node2" class="node"><title>Node10</title>
<g id="a_node2"><a xlink:href="group__dspi__slave__transport.html" target="_top" xlink:title="MCUXpressoSDK DSPI slave driver transport. ">
<polygon fill="white" stroke="black" points="303.5,-760.5 303.5,-779.5 368.5,-779.5 368.5,-760.5 303.5,-760.5"/>
<text text-anchor="middle" x="336" y="-767.5" font-family="Helvetica,sans-Serif" font-size="10.00">DSPI Slave</text>
</a>
</g>
</g>
<!-- Node11 -->
<g id="node3" class="node"><title>Node11</title>
<g id="a_node3"><a xlink:href="group__i2c__slave__transport.html" target="_top" xlink:title="MCUXpressoSDK I2C slave driver transport. ">
<polygon fill="white" stroke="black" points="307.5,-722.5 307.5,-741.5 364.5,-741.5 364.5,-722.5 307.5,-722.5"/>
<text text-anchor="middle" x="336" y="-729.5" font-family="Helvetica,sans-Serif" font-size="10.00">I2C Slave</text>
</a>
</g>
</g>
<!-- Node8 -->
<g id="node4" class="node"><title>Node8</title>
<g id="a_node4"><a xlink:href="group__port__threads.html" target="_top" xlink:title="Threading model. ">
<polygon fill="white" stroke="black" points="310.5,-684.5 310.5,-703.5 361.5,-703.5 361.5,-684.5 310.5,-684.5"/>
<text text-anchor="middle" x="336" y="-691.5" font-family="Helvetica,sans-Serif" font-size="10.00">Threads</text>
</a>
</g>
</g>
<!-- Node13 -->
<g id="node5" class="node"><title>Node13</title>
<g id="a_node5"><a xlink:href="group__mu__transport.html" target="_top" xlink:title="Messaging Unit transport. ">
<polygon fill="white" stroke="black" points="294,-646.5 294,-665.5 378,-665.5 378,-646.5 294,-646.5"/>
<text text-anchor="middle" x="336" y="-653.5" font-family="Helvetica,sans-Serif" font-size="10.00">Messaging Unit</text>
</a>
</g>
</g>
<!-- Node20 -->
<g id="node6" class="node"><title>Node20</title>
<g id="a_node6"><a xlink:href="group__tcp__transport.html" target="_top" xlink:title="Simple TCP/IP transport. ">
<polygon fill="white" stroke="black" points="312.5,-608.5 312.5,-627.5 359.5,-627.5 359.5,-608.5 312.5,-608.5"/>
<text text-anchor="middle" x="336" y="-615.5" font-family="Helvetica,sans-Serif" font-size="10.00">TCP/IP</text>
</a>
</g>
</g>
<!-- Node2 -->
<g id="node7" class="node"><title>Node2</title>
<g id="a_node7"><a xlink:href="group__infra__client.html" target="_top" xlink:title="Client classes. ">
<polygon fill="white" stroke="black" points="315.5,-570.5 315.5,-589.5 356.5,-589.5 356.5,-570.5 315.5,-570.5"/>
<text text-anchor="middle" x="336" y="-577.5" font-family="Helvetica,sans-Serif" font-size="10.00">Client</text>
</a>
</g>
</g>
<!-- Node4 -->
<g id="node8" class="node"><title>Node4</title>
<g id="a_node8"><a xlink:href="group__infra__transport.html" target="_top" xlink:title="Superclasses for building transports. ">
<polygon fill="white" stroke="black" points="305,-532.5 305,-551.5 367,-551.5 367,-532.5 305,-532.5"/>
<text text-anchor="middle" x="336" y="-539.5" font-family="Helvetica,sans-Serif" font-size="10.00">Transports</text>
</a>
</g>
</g>
<!-- Node17 -->
<g id="node9" class="node"><title>Node17</title>
<g id="a_node9"><a xlink:href="group__serial__transport.html" target="_top" xlink:title="POSIX and Win32 serial port transport. ">
<polygon fill="white" stroke="black" points="305.5,-494.5 305.5,-513.5 366.5,-513.5 366.5,-494.5 305.5,-494.5"/>
<text text-anchor="middle" x="336" y="-501.5" font-family="Helvetica,sans-Serif" font-size="10.00">Serial port</text>
</a>
</g>
</g>
<!-- Node5 -->
<g id="node10" class="node"><title>Node5</title>
<g id="a_node10"><a xlink:href="group__infra__utility.html" target="_top" xlink:title="Utility code used by the infrastructure. ">
<polygon fill="white" stroke="black" points="311.5,-456.5 311.5,-475.5 360.5,-475.5 360.5,-456.5 311.5,-456.5"/>
<text text-anchor="middle" x="336" y="-463.5" font-family="Helvetica,sans-Serif" font-size="10.00">Utilities</text>
</a>
</g>
</g>
<!-- Node19 -->
<g id="node11" class="node"><title>Node19</title>
<g id="a_node11"><a xlink:href="group__spi__slave__transport.html" target="_top" xlink:title="MCUXpressoSDK SPI slave driver transport. ">
<polygon fill="white" stroke="black" points="306.5,-418.5 306.5,-437.5 365.5,-437.5 365.5,-418.5 306.5,-418.5"/>
<text text-anchor="middle" x="336" y="-425.5" font-family="Helvetica,sans-Serif" font-size="10.00">SPI Slave</text>
</a>
</g>
</g>
<!-- Node21 -->
<g id="node12" class="node"><title>Node21</title>
<g id="a_node12"><a xlink:href="group__uart__transport.html" target="_top" xlink:title="CMSIS UART driver transport. ">
<polygon fill="white" stroke="black" points="298,-380.5 298,-399.5 374,-399.5 374,-380.5 298,-380.5"/>
<text text-anchor="middle" x="336" y="-387.5" font-family="Helvetica,sans-Serif" font-size="10.00">CMSIS UART</text>
</a>
</g>
</g>
<!-- Node0&#45;&gt;Node10 -->
<g id="edge10" class="edge"><title>Node0&#45;&gt;Node10</title>
<path fill="none" stroke="blueviolet" stroke-dasharray="5,2" d="M180.092,-399.743C180.874,-440.819 187.939,-602.9 250,-715 261.113,-735.073 267.737,-738.536 287,-751 292.643,-754.652 299.1,-757.794 305.409,-760.413"/>
<text text-anchor="middle" x="259.5" y="-741" font-family="Helvetica,sans-Serif" font-size="10.00">erpc</text>
</g>
<!-- Node0&#45;&gt;Node11 -->
<g id="edge11" class="edge"><title>Node0&#45;&gt;Node11</title>
<path fill="none" stroke="blueviolet" stroke-dasharray="5,2" d="M180.442,-399.619C182.558,-437.491 194.018,-579.036 250,-677 261.384,-696.921 267.737,-700.536 287,-713 293.245,-717.041 300.487,-720.459 307.422,-723.233"/>
<text text-anchor="middle" x="259.5" y="-703" font-family="Helvetica,sans-Serif" font-size="10.00">erpc</text>
</g>
<!-- Node0&#45;&gt;Node8 -->
<g id="edge8" class="edge"><title>Node0&#45;&gt;Node8</title>
<path fill="none" stroke="blueviolet" stroke-dasharray="5,2" d="M180.96,-399.682C184.744,-434.289 200.901,-554.25 250,-638 261.762,-658.062 267.562,-662.233 287,-675 294.042,-679.625 302.384,-683.415 310.122,-686.36"/>
<text text-anchor="middle" x="259.5" y="-665" font-family="Helvetica,sans-Serif" font-size="10.00">erpc</text>
</g>
<!-- Node0&#45;&gt;Node13 -->
<g id="edge13" class="edge"><title>Node0&#45;&gt;Node13</title>
<path fill="none" stroke="blueviolet" stroke-dasharray="5,2" d="M181.669,-399.819C187.284,-430.937 207.563,-529.413 250,-599 262.273,-619.125 267.384,-623.928 287,-637 292.519,-640.678 298.858,-643.817 305.082,-646.422"/>
<text text-anchor="middle" x="259.5" y="-626" font-family="Helvetica,sans-Serif" font-size="10.00">erpc</text>
</g>
<!-- Node0&#45;&gt;Node20 -->
<g id="edge20" class="edge"><title>Node0&#45;&gt;Node20</title>
<path fill="none" stroke="blueviolet" stroke-dasharray="5,2" d="M182.703,-399.729C190.431,-426.573 214.378,-503.372 250,-559 263.06,-579.394 267.021,-585.314 287,-599 294.69,-604.268 304.053,-608.391 312.462,-611.431"/>
<text text-anchor="middle" x="259.5" y="-587" font-family="Helvetica,sans-Serif" font-size="10.00">erpc</text>
</g>
<!-- Node0&#45;&gt;Node2 -->
<g id="edge2" class="edge"><title>Node0&#45;&gt;Node2</title>
<path fill="none" stroke="blueviolet" stroke-dasharray="5,2" d="M182.897,-399.806C192.289,-429.719 224.945,-520.241 287,-561 295.69,-566.708 306.36,-571.144 315.431,-574.289"/>
<text text-anchor="middle" x="259.5" y="-547" font-family="Helvetica,sans-Serif" font-size="10.00">erpc</text>
</g>
<!-- Node0&#45;&gt;Node4 -->
<g id="edge4" class="edge"><title>Node0&#45;&gt;Node4</title>
<path fill="none" stroke="blueviolet" stroke-dasharray="5,2" d="M185.002,-399.761C198.154,-424.425 236.222,-489.648 287,-523 292.618,-526.69 299.065,-529.849 305.371,-532.471"/>
<text text-anchor="middle" x="259.5" y="-512" font-family="Helvetica,sans-Serif" font-size="10.00">erpc</text>
</g>
<!-- Node0&#45;&gt;Node17 -->
<g id="edge17" class="edge"><title>Node0&#45;&gt;Node17</title>
<path fill="none" stroke="blueviolet" stroke-dasharray="5,2" d="M188.565,-399.574C205.669,-418.213 245.952,-459.749 287,-485 292.878,-488.616 299.563,-491.775 306.037,-494.426"/>
<text text-anchor="middle" x="259.5" y="-474" font-family="Helvetica,sans-Serif" font-size="10.00">erpc</text>
</g>
<!-- Node0&#45;&gt;Node5 -->
<g id="edge5" class="edge"><title>Node0&#45;&gt;Node5</title>
<path fill="none" stroke="blueviolet" stroke-dasharray="5,2" d="M196.751,-399.682C217.565,-411.535 254.333,-431.892 287,-447 294.809,-450.612 303.512,-454.186 311.339,-457.244"/>
<text text-anchor="middle" x="259.5" y="-439" font-family="Helvetica,sans-Serif" font-size="10.00">erpc</text>
</g>
<!-- Node0&#45;&gt;Node19 -->
<g id="edge19" class="edge"><title>Node0&#45;&gt;Node19</title>
<path fill="none" stroke="blueviolet" stroke-dasharray="5,2" d="M219.113,-399.589C246.197,-406.229 281.649,-414.92 306.175,-420.933"/>
<text text-anchor="middle" x="259.5" y="-414" font-family="Helvetica,sans-Serif" font-size="10.00">erpc</text>
</g>
<!-- Node0&#45;&gt;Node21 -->
<g id="edge21" class="edge"><title>Node0&#45;&gt;Node21</title>
<path fill="none" stroke="blueviolet" stroke-dasharray="5,2" d="M232.044,-390C253.503,-390 277.892,-390 297.544,-390"/>
<text text-anchor="middle" x="259.5" y="-393" font-family="Helvetica,sans-Serif" font-size="10.00">erpc</text>
</g>
<!-- Node18 -->
<g id="node14" class="node"><title>Node18</title>
<g id="a_node14"><a xlink:href="group__spi__master__transport.html" target="_top" xlink:title="MCUXpressoSDK SPI master driver transport. ">
<polygon fill="white" stroke="black" points="303.5,-342.5 303.5,-361.5 368.5,-361.5 368.5,-342.5 303.5,-342.5"/>
<text text-anchor="middle" x="336" y="-349.5" font-family="Helvetica,sans-Serif" font-size="10.00">SPI Master</text>
</a>
</g>
</g>
<!-- Node0&#45;&gt;Node18 -->
<g id="edge18" class="edge"><title>Node0&#45;&gt;Node18</title>
<path fill="none" stroke="blueviolet" stroke-dasharray="5,2" d="M219.113,-380.411C245.211,-374.013 279.078,-365.71 303.452,-359.734"/>
<text text-anchor="middle" x="259.5" y="-375" font-family="Helvetica,sans-Serif" font-size="10.00">erpc</text>
</g>
<!-- Node16 -->
<g id="node15" class="node"><title>Node16</title>
<g id="a_node15"><a xlink:href="group__rpmsg__tty__rtos__transport.html" target="_top" xlink:title="RPMsg TTY RTOS transport. ">
<polygon fill="white" stroke="black" points="287,-304.5 287,-323.5 385,-323.5 385,-304.5 287,-304.5"/>
<text text-anchor="middle" x="336" y="-311.5" font-family="Helvetica,sans-Serif" font-size="10.00">RPMsg TTY RTOS</text>
</a>
</g>
</g>
<!-- Node0&#45;&gt;Node16 -->
<g id="edge16" class="edge"><title>Node0&#45;&gt;Node16</title>
<path fill="none" stroke="blueviolet" stroke-dasharray="5,2" d="M196.751,-380.318C217.565,-368.465 254.333,-348.108 287,-333 294.158,-329.689 302.067,-326.41 309.365,-323.531"/>
<text text-anchor="middle" x="259.5" y="-353" font-family="Helvetica,sans-Serif" font-size="10.00">erpc</text>
</g>
<!-- Node6 -->
<g id="node16" class="node"><title>Node6</title>
<g id="a_node16"><a xlink:href="group__infra__server.html" target="_top" xlink:title="Server classes. ">
<polygon fill="white" stroke="black" points="314,-266.5 314,-285.5 358,-285.5 358,-266.5 314,-266.5"/>
<text text-anchor="middle" x="336" y="-273.5" font-family="Helvetica,sans-Serif" font-size="10.00">Server</text>
</a>
</g>
</g>
<!-- Node0&#45;&gt;Node6 -->
<g id="edge6" class="edge"><title>Node0&#45;&gt;Node6</title>
<path fill="none" stroke="blueviolet" stroke-dasharray="5,2" d="M188.565,-380.426C205.669,-361.787 245.952,-320.251 287,-295 295.244,-289.928 305.076,-285.754 313.687,-282.623"/>
<text text-anchor="middle" x="259.5" y="-323" font-family="Helvetica,sans-Serif" font-size="10.00">erpc</text>
</g>
<!-- Node12 -->
<g id="node17" class="node"><title>Node12</title>
<g id="a_node17"><a xlink:href="group__itbp__transport.html" target="_top" xlink:title="Simple inter&#45;thread communications transport. ">
<polygon fill="white" stroke="black" points="303.5,-228.5 303.5,-247.5 368.5,-247.5 368.5,-228.5 303.5,-228.5"/>
<text text-anchor="middle" x="336" y="-235.5" font-family="Helvetica,sans-Serif" font-size="10.00">Inter&#45;thread</text>
</a>
</g>
</g>
<!-- Node0&#45;&gt;Node12 -->
<g id="edge12" class="edge"><title>Node0&#45;&gt;Node12</title>
<path fill="none" stroke="blueviolet" stroke-dasharray="5,2" d="M184.975,-380.197C198.064,-355.436 235.994,-290.004 287,-257 292.643,-253.348 299.1,-250.206 305.409,-247.587"/>
<text text-anchor="middle" x="259.5" y="-289" font-family="Helvetica,sans-Serif" font-size="10.00">erpc</text>
</g>
<!-- Node9 -->
<g id="node18" class="node"><title>Node9</title>
<g id="a_node18"><a xlink:href="group__dspi__master__transport.html" target="_top" xlink:title="MCUXpressoSDK DSPI master driver transport. ">
<polygon fill="white" stroke="black" points="300,-190.5 300,-209.5 372,-209.5 372,-190.5 300,-190.5"/>
<text text-anchor="middle" x="336" y="-197.5" font-family="Helvetica,sans-Serif" font-size="10.00">DSPI Master</text>
</a>
</g>
</g>
<!-- Node0&#45;&gt;Node9 -->
<g id="edge9" class="edge"><title>Node0&#45;&gt;Node9</title>
<path fill="none" stroke="blueviolet" stroke-dasharray="5,2" d="M183.786,-380.229C193.004,-357.117 218.206,-297.816 250,-255 263.678,-236.579 267.737,-231.464 287,-219 292.643,-215.348 299.1,-212.206 305.409,-209.587"/>
<text text-anchor="middle" x="259.5" y="-258" font-family="Helvetica,sans-Serif" font-size="10.00">erpc</text>
</g>
<!-- Node22 -->
<g id="node19" class="node"><title>Node22</title>
<g id="a_node19"><a xlink:href="group___u_s_b___c_d_c__transport.html" target="_top" xlink:title="USB CDC transport. ">
<polygon fill="white" stroke="black" points="306,-152.5 306,-171.5 366,-171.5 366,-152.5 306,-152.5"/>
<text text-anchor="middle" x="336" y="-159.5" font-family="Helvetica,sans-Serif" font-size="10.00">USB CDC</text>
</a>
</g>
</g>
<!-- Node0&#45;&gt;Node22 -->
<g id="edge22" class="edge"><title>Node0&#45;&gt;Node22</title>
<path fill="none" stroke="blueviolet" stroke-dasharray="5,2" d="M182.392,-380.33C189.473,-352.944 212.224,-273.201 250,-217 262.799,-197.958 267.737,-193.464 287,-181 292.794,-177.251 299.445,-174.038 305.913,-171.379"/>
<text text-anchor="middle" x="259.5" y="-220" font-family="Helvetica,sans-Serif" font-size="10.00">erpc</text>
</g>
<!-- Node3 -->
<g id="node20" class="node"><title>Node3</title>
<g id="a_node20"><a xlink:href="group__infra__codec.html" target="_top" xlink:title="Classes used for message serialization. ">
<polygon fill="white" stroke="black" points="301,-114.5 301,-133.5 371,-133.5 371,-114.5 301,-114.5"/>
<text text-anchor="middle" x="336" y="-121.5" font-family="Helvetica,sans-Serif" font-size="10.00">Serialization</text>
</a>
</g>
</g>
<!-- Node0&#45;&gt;Node3 -->
<g id="edge3" class="edge"><title>Node0&#45;&gt;Node3</title>
<path fill="none" stroke="blueviolet" stroke-dasharray="5,2" d="M181.493,-380.477C186.695,-349.411 206.148,-248.991 250,-179 262.182,-159.557 267.737,-155.464 287,-143 292.643,-139.348 299.1,-136.206 305.409,-133.587"/>
<text text-anchor="middle" x="259.5" y="-182" font-family="Helvetica,sans-Serif" font-size="10.00">erpc</text>
</g>
<!-- Node14 -->
<g id="node21" class="node"><title>Node14</title>
<g id="a_node21"><a xlink:href="group__rpmsg__lite__rtos__transport.html" target="_top" xlink:title="RPMsg&#45;Lite zero copy transport using RTOS API. ">
<polygon fill="white" stroke="black" points="287.5,-76.5 287.5,-95.5 384.5,-95.5 384.5,-76.5 287.5,-76.5"/>
<text text-anchor="middle" x="336" y="-83.5" font-family="Helvetica,sans-Serif" font-size="10.00">RPMsg&#45;Lite RTOS</text>
</a>
</g>
</g>
<!-- Node0&#45;&gt;Node14 -->
<g id="edge14" class="edge"><title>Node0&#45;&gt;Node14</title>
<path fill="none" stroke="blueviolet" stroke-dasharray="5,2" d="M180.911,-380.255C184.526,-345.429 200.187,-224.749 250,-141 261.729,-121.281 267.737,-117.464 287,-105 292.643,-101.348 299.1,-98.2056 305.409,-95.5869"/>
<text text-anchor="middle" x="259.5" y="-144" font-family="Helvetica,sans-Serif" font-size="10.00">erpc</text>
</g>
<!-- Node15 -->
<g id="node22" class="node"><title>Node15</title>
<g id="a_node22"><a xlink:href="group__rpmsg__lite__transport.html" target="_top" xlink:title="RPMsg&#45;Lite zero copy transport. ">
<polygon fill="white" stroke="black" points="302,-38.5 302,-57.5 370,-57.5 370,-38.5 302,-38.5"/>
<text text-anchor="middle" x="336" y="-45.5" font-family="Helvetica,sans-Serif" font-size="10.00">RPMsg&#45;Lite</text>
</a>
</g>
</g>
<!-- Node0&#45;&gt;Node15 -->
<g id="edge15" class="edge"><title>Node0&#45;&gt;Node15</title>
<path fill="none" stroke="blueviolet" stroke-dasharray="5,2" d="M180.393,-380.325C182.323,-342.233 193.183,-199.911 250,-102 261.361,-82.4215 267.909,-79.1631 287,-67 292.745,-63.34 299.309,-60.1786 305.7,-57.5422"/>
<text text-anchor="middle" x="259.5" y="-105" font-family="Helvetica,sans-Serif" font-size="10.00">erpc</text>
</g>
<!-- Node7 -->
<g id="node23" class="node"><title>Node7</title>
<g id="a_node23"><a xlink:href="group__port__setup__extensions.html" target="_top" xlink:title="Extension setup functions. ">
<polygon fill="white" stroke="black" points="291.5,-0.5 291.5,-19.5 380.5,-19.5 380.5,-0.5 291.5,-0.5"/>
<text text-anchor="middle" x="336" y="-7.5" font-family="Helvetica,sans-Serif" font-size="10.00">Extension Setup</text>
</a>
</g>
</g>
<!-- Node0&#45;&gt;Node7 -->
<g id="edge7" class="edge"><title>Node0&#45;&gt;Node7</title>
<path fill="none" stroke="blueviolet" stroke-dasharray="5,2" d="M180.039,-380.481C180.597,-339.643 186.86,-176.261 250,-64 261.097,-44.2703 267.909,-41.1631 287,-29 292.745,-25.34 299.309,-22.1786 305.7,-19.5422"/>
<text text-anchor="middle" x="259.5" y="-67" font-family="Helvetica,sans-Serif" font-size="10.00">erpc</text>
</g>
</g>
</svg>
