<?xml version="1.0" encoding="UTF-8" standalone="no"?>
<!DOCTYPE svg PUBLIC "-//W3C//DTD SVG 1.1//EN"
 "http://www.w3.org/Graphics/SVG/1.1/DTD/svg11.dtd">
<!-- Generated by graphviz version 2.38.0 (20140413.2041)
 -->
<!-- Title: RPMsg TTY RTOS Pages: 1 -->
<svg width="393pt" height="750pt"
 viewBox="0.00 0.00 393.00 750.00" xmlns="http://www.w3.org/2000/svg" xmlns:xlink="http://www.w3.org/1999/xlink">
<g id="graph0" class="graph" transform="scale(1 1) rotate(0) translate(4 746)">
<title>RPMsg TTY RTOS</title>
<polygon fill="white" stroke="none" points="-4,4 -4,-746 389,-746 389,4 -4,4"/>
<!-- Node1 -->
<g id="node1" class="node"><title>Node1</title>
<g id="a_node1"><a xlink:href="group__transports.html" target="_top" xlink:title="Transport layer classes. ">
<polygon fill="white" stroke="black" points="0,-361.5 0,-380.5 89,-380.5 89,-361.5 0,-361.5"/>
<text text-anchor="middle" x="44.5" y="-368.5" font-family="Helvetica,sans-Serif" font-size="10.00">Transport Layers</text>
</a>
</g>
</g>
<!-- Node0 -->
<g id="node14" class="node"><title>Node0</title>
<polygon fill="#bfbfbf" stroke="black" points="126,-361.5 126,-380.5 224,-380.5 224,-361.5 126,-361.5"/>
<text text-anchor="middle" x="175" y="-368.5" font-family="Helvetica,sans-Serif" font-size="10.00">RPMsg TTY RTOS</text>
</g>
<!-- Node1&#45;&gt;Node0 -->
<g id="edge1" class="edge"><title>Node1&#45;&gt;Node0</title>
<path fill="none" stroke="black" d="M99.1635,-371C107.959,-371 117.027,-371 125.683,-371"/>
<polygon fill="black" stroke="black" points="99.0043,-367.5 89.0042,-371 99.0042,-374.5 99.0043,-367.5"/>
</g>
<!-- Node10 -->
<g id="node2" class="node"><title>Node10</title>
<g id="a_node2"><a xlink:href="group__dspi__slave__transport.html" target="_top" xlink:title="Kinetis SDK DSPI slave driver transport. ">
<polygon fill="white" stroke="black" points="299.5,-722.5 299.5,-741.5 364.5,-741.5 364.5,-722.5 299.5,-722.5"/>
<text text-anchor="middle" x="332" y="-729.5" font-family="Helvetica,sans-Serif" font-size="10.00">DSPI Slave</text>
</a>
</g>
</g>
<!-- Node8 -->
<g id="node3" class="node"><title>Node8</title>
<g id="a_node3"><a xlink:href="group__port__threads.html" target="_top" xlink:title="Threading model. ">
<polygon fill="white" stroke="black" points="306.5,-684.5 306.5,-703.5 357.5,-703.5 357.5,-684.5 306.5,-684.5"/>
<text text-anchor="middle" x="332" y="-691.5" font-family="Helvetica,sans-Serif" font-size="10.00">Threads</text>
</a>
</g>
</g>
<!-- Node12 -->
<g id="node4" class="node"><title>Node12</title>
<g id="a_node4"><a xlink:href="group__mu__transport.html" target="_top" xlink:title="Messaging Unit transport. ">
<polygon fill="white" stroke="black" points="290,-646.5 290,-665.5 374,-665.5 374,-646.5 290,-646.5"/>
<text text-anchor="middle" x="332" y="-653.5" font-family="Helvetica,sans-Serif" font-size="10.00">Messaging Unit</text>
</a>
</g>
</g>
<!-- Node19 -->
<g id="node5" class="node"><title>Node19</title>
<g id="a_node5"><a xlink:href="group__tcp__transport.html" target="_top" xlink:title="Simple TCP/IP transport. ">
<polygon fill="white" stroke="black" points="308.5,-608.5 308.5,-627.5 355.5,-627.5 355.5,-608.5 308.5,-608.5"/>
<text text-anchor="middle" x="332" y="-615.5" font-family="Helvetica,sans-Serif" font-size="10.00">TCP/IP</text>
</a>
</g>
</g>
<!-- Node2 -->
<g id="node6" class="node"><title>Node2</title>
<g id="a_node6"><a xlink:href="group__infra__client.html" target="_top" xlink:title="Client classes. ">
<polygon fill="white" stroke="black" points="311.5,-570.5 311.5,-589.5 352.5,-589.5 352.5,-570.5 311.5,-570.5"/>
<text text-anchor="middle" x="332" y="-577.5" font-family="Helvetica,sans-Serif" font-size="10.00">Client</text>
</a>
</g>
</g>
<!-- Node4 -->
<g id="node7" class="node"><title>Node4</title>
<g id="a_node7"><a xlink:href="group__infra__transport.html" target="_top" xlink:title="Superclasses for building transports. ">
<polygon fill="white" stroke="black" points="301,-532.5 301,-551.5 363,-551.5 363,-532.5 301,-532.5"/>
<text text-anchor="middle" x="332" y="-539.5" font-family="Helvetica,sans-Serif" font-size="10.00">Transports</text>
</a>
</g>
</g>
<!-- Node15 -->
<g id="node8" class="node"><title>Node15</title>
<g id="a_node8"><a xlink:href="group__serial__transport.html" target="_top" xlink:title="POSIX and Win32 serial port transport. ">
<polygon fill="white" stroke="black" points="301.5,-494.5 301.5,-513.5 362.5,-513.5 362.5,-494.5 301.5,-494.5"/>
<text text-anchor="middle" x="332" y="-501.5" font-family="Helvetica,sans-Serif" font-size="10.00">Serial port</text>
</a>
</g>
</g>
<!-- Node5 -->
<g id="node9" class="node"><title>Node5</title>
<g id="a_node9"><a xlink:href="group__infra__utility.html" target="_top" xlink:title="Utility code used by the infrastructure. ">
<polygon fill="white" stroke="black" points="307.5,-456.5 307.5,-475.5 356.5,-475.5 356.5,-456.5 307.5,-456.5"/>
<text text-anchor="middle" x="332" y="-463.5" font-family="Helvetica,sans-Serif" font-size="10.00">Utilities</text>
</a>
</g>
</g>
<!-- Node17 -->
<g id="node10" class="node"><title>Node17</title>
<g id="a_node10"><a xlink:href="group__spi__slave__transport.html" target="_top" xlink:title="Kinetis SDK SPI slave driver transport. ">
<polygon fill="white" stroke="black" points="302.5,-418.5 302.5,-437.5 361.5,-437.5 361.5,-418.5 302.5,-418.5"/>
<text text-anchor="middle" x="332" y="-425.5" font-family="Helvetica,sans-Serif" font-size="10.00">SPI Slave</text>
</a>
</g>
</g>
<!-- Node20 -->
<g id="node11" class="node"><title>Node20</title>
<g id="a_node11"><a xlink:href="group__uart__transport.html" target="_top" xlink:title="CMSIS UART driver transport. ">
<polygon fill="white" stroke="black" points="294,-380.5 294,-399.5 370,-399.5 370,-380.5 294,-380.5"/>
<text text-anchor="middle" x="332" y="-387.5" font-family="Helvetica,sans-Serif" font-size="10.00">CMSIS UART</text>
</a>
</g>
</g>
<!-- Node18 -->
<g id="node12" class="node"><title>Node18</title>
<g id="a_node12"><a xlink:href="group__spidev__master__transport.html" target="_top" xlink:title="SPIdev Linux transport. ">
<polygon fill="white" stroke="black" points="279,-342.5 279,-361.5 385,-361.5 385,-342.5 279,-342.5"/>
<text text-anchor="middle" x="332" y="-349.5" font-family="Helvetica,sans-Serif" font-size="10.00">SPIdev Linux Master</text>
</a>
</g>
</g>
<!-- Node16 -->
<g id="node13" class="node"><title>Node16</title>
<g id="a_node13"><a xlink:href="group__spi__master__transport.html" target="_top" xlink:title="Kinetis SDK SPI master driver transport. ">
<polygon fill="white" stroke="black" points="299.5,-304.5 299.5,-323.5 364.5,-323.5 364.5,-304.5 299.5,-304.5"/>
<text text-anchor="middle" x="332" y="-311.5" font-family="Helvetica,sans-Serif" font-size="10.00">SPI Master</text>
</a>
</g>
</g>
<!-- Node0&#45;&gt;Node10 -->
<g id="edge10" class="edge"><title>Node0&#45;&gt;Node10</title>
<path fill="none" stroke="blueviolet" stroke-dasharray="5,2" d="M176.101,-380.703C176.902,-420.222 183.811,-571.931 242,-677 253.116,-697.071 259.573,-700.793 279,-713 285.266,-716.938 292.468,-720.225 299.474,-722.898"/>
<text text-anchor="middle" x="251.5" y="-703" font-family="Helvetica,sans-Serif" font-size="10.00">erpc</text>
</g>
<!-- Node0&#45;&gt;Node8 -->
<g id="edge8" class="edge"><title>Node0&#45;&gt;Node8</title>
<path fill="none" stroke="blueviolet" stroke-dasharray="5,2" d="M176.483,-380.719C178.671,-417.15 189.951,-548.153 242,-639 253.406,-658.908 259.573,-662.793 279,-675 287.382,-680.267 297.437,-684.372 306.462,-687.396"/>
<text text-anchor="middle" x="251.5" y="-665" font-family="Helvetica,sans-Serif" font-size="10.00">erpc</text>
</g>
<!-- Node0&#45;&gt;Node12 -->
<g id="edge12" class="edge"><title>Node0&#45;&gt;Node12</title>
<path fill="none" stroke="blueviolet" stroke-dasharray="5,2" d="M177.058,-380.844C180.969,-413.936 196.799,-523.383 242,-600 253.817,-620.03 259.394,-624.492 279,-637 284.834,-640.722 291.5,-643.853 298.068,-646.432"/>
<text text-anchor="middle" x="251.5" y="-627" font-family="Helvetica,sans-Serif" font-size="10.00">erpc</text>
</g>
<!-- Node0&#45;&gt;Node19 -->
<g id="edge19" class="edge"><title>Node0&#45;&gt;Node19</title>
<path fill="none" stroke="blueviolet" stroke-dasharray="5,2" d="M177.813,-380.737C183.554,-409.886 203.288,-498.309 242,-561 254.385,-581.056 259.212,-586.19 279,-599 287.956,-604.798 298.922,-609.14 308.47,-612.199"/>
<text text-anchor="middle" x="251.5" y="-588" font-family="Helvetica,sans-Serif" font-size="10.00">erpc</text>
</g>
<!-- Node0&#45;&gt;Node2 -->
<g id="edge2" class="edge"><title>Node0&#45;&gt;Node2</title>
<path fill="none" stroke="blueviolet" stroke-dasharray="5,2" d="M178.955,-380.771C186.762,-405.696 209.585,-473.121 242,-522 255.205,-541.912 259.028,-547.886 279,-561 288.802,-567.436 301.071,-572.053 311.23,-575.123"/>
<text text-anchor="middle" x="251.5" y="-549" font-family="Helvetica,sans-Serif" font-size="10.00">erpc</text>
</g>
<!-- Node0&#45;&gt;Node4 -->
<g id="edge4" class="edge"><title>Node0&#45;&gt;Node4</title>
<path fill="none" stroke="blueviolet" stroke-dasharray="5,2" d="M179.485,-380.828C189.813,-408.395 223.073,-486.795 279,-523 285.616,-527.283 293.329,-530.772 300.757,-533.535"/>
<text text-anchor="middle" x="251.5" y="-510" font-family="Helvetica,sans-Serif" font-size="10.00">erpc</text>
</g>
<!-- Node0&#45;&gt;Node15 -->
<g id="edge15" class="edge"><title>Node0&#45;&gt;Node15</title>
<path fill="none" stroke="blueviolet" stroke-dasharray="5,2" d="M181.878,-380.665C195.825,-402.745 233.202,-457.126 279,-485 285.897,-489.198 293.866,-492.686 301.462,-495.479"/>
<text text-anchor="middle" x="251.5" y="-473" font-family="Helvetica,sans-Serif" font-size="10.00">erpc</text>
</g>
<!-- Node0&#45;&gt;Node5 -->
<g id="edge5" class="edge"><title>Node0&#45;&gt;Node5</title>
<path fill="none" stroke="blueviolet" stroke-dasharray="5,2" d="M186.724,-380.552C204.714,-396.182 242.588,-427.437 279,-447 287.89,-451.776 298.236,-455.831 307.347,-458.952"/>
<text text-anchor="middle" x="251.5" y="-439" font-family="Helvetica,sans-Serif" font-size="10.00">erpc</text>
</g>
<!-- Node0&#45;&gt;Node17 -->
<g id="edge17" class="edge"><title>Node0&#45;&gt;Node17</title>
<path fill="none" stroke="blueviolet" stroke-dasharray="5,2" d="M201.035,-380.597C213.354,-385.29 228.436,-390.993 242,-396 262.795,-403.676 286.408,-412.155 304.084,-418.456"/>
<text text-anchor="middle" x="251.5" y="-405" font-family="Helvetica,sans-Serif" font-size="10.00">erpc</text>
</g>
<!-- Node0&#45;&gt;Node20 -->
<g id="edge20" class="edge"><title>Node0&#45;&gt;Node20</title>
<path fill="none" stroke="blueviolet" stroke-dasharray="5,2" d="M224.193,-376.908C246.588,-379.653 272.812,-382.867 293.67,-385.424"/>
<text text-anchor="middle" x="251.5" y="-384" font-family="Helvetica,sans-Serif" font-size="10.00">erpc</text>
</g>
<!-- Node0&#45;&gt;Node18 -->
<g id="edge18" class="edge"><title>Node0&#45;&gt;Node18</title>
<path fill="none" stroke="blueviolet" stroke-dasharray="5,2" d="M215.967,-361.499C224.516,-359.754 233.524,-358.13 242,-357 253.812,-355.425 266.57,-354.345 278.636,-353.605"/>
<text text-anchor="middle" x="251.5" y="-360" font-family="Helvetica,sans-Serif" font-size="10.00">erpc</text>
</g>
<!-- Node0&#45;&gt;Node16 -->
<g id="edge16" class="edge"><title>Node0&#45;&gt;Node16</title>
<path fill="none" stroke="blueviolet" stroke-dasharray="5,2" d="M194.443,-361.395C207.498,-354.83 225.542,-346.226 242,-340 260.669,-332.937 282.134,-326.616 299.305,-321.976"/>
<text text-anchor="middle" x="251.5" y="-343" font-family="Helvetica,sans-Serif" font-size="10.00">erpc</text>
</g>
<!-- Node6 -->
<g id="node15" class="node"><title>Node6</title>
<g id="a_node15"><a xlink:href="group__infra__server.html" target="_top" xlink:title="Server classes. ">
<polygon fill="white" stroke="black" points="310,-266.5 310,-285.5 354,-285.5 354,-266.5 310,-266.5"/>
<text text-anchor="middle" x="332" y="-273.5" font-family="Helvetica,sans-Serif" font-size="10.00">Server</text>
</a>
</g>
</g>
<!-- Node0&#45;&gt;Node6 -->
<g id="edge6" class="edge"><title>Node0&#45;&gt;Node6</title>
<path fill="none" stroke="blueviolet" stroke-dasharray="5,2" d="M186.31,-361.457C203.996,-345.555 241.816,-313.556 279,-295 288.804,-290.107 300.188,-285.805 309.801,-282.536"/>
<text text-anchor="middle" x="251.5" y="-319" font-family="Helvetica,sans-Serif" font-size="10.00">erpc</text>
</g>
<!-- Node11 -->
<g id="node16" class="node"><title>Node11</title>
<g id="a_node16"><a xlink:href="group__itbp__transport.html" target="_top" xlink:title="Simple inter&#45;thread communications transport. ">
<polygon fill="white" stroke="black" points="299.5,-228.5 299.5,-247.5 364.5,-247.5 364.5,-228.5 299.5,-228.5"/>
<text text-anchor="middle" x="332" y="-235.5" font-family="Helvetica,sans-Serif" font-size="10.00">Inter&#45;thread</text>
</a>
</g>
</g>
<!-- Node0&#45;&gt;Node11 -->
<g id="edge11" class="edge"><title>Node0&#45;&gt;Node11</title>
<path fill="none" stroke="blueviolet" stroke-dasharray="5,2" d="M181.85,-361.288C195.736,-339.108 232.996,-284.533 279,-257 285.268,-253.249 292.397,-250.05 299.324,-247.407"/>
<text text-anchor="middle" x="251.5" y="-288" font-family="Helvetica,sans-Serif" font-size="10.00">erpc</text>
</g>
<!-- Node9 -->
<g id="node17" class="node"><title>Node9</title>
<g id="a_node17"><a xlink:href="group__dspi__master__transport.html" target="_top" xlink:title="Kinetis SDK DSPI master driver transport. ">
<polygon fill="white" stroke="black" points="296,-190.5 296,-209.5 368,-209.5 368,-190.5 296,-190.5"/>
<text text-anchor="middle" x="332" y="-197.5" font-family="Helvetica,sans-Serif" font-size="10.00">DSPI Master</text>
</a>
</g>
</g>
<!-- Node0&#45;&gt;Node9 -->
<g id="edge9" class="edge"><title>Node0&#45;&gt;Node9</title>
<path fill="none" stroke="blueviolet" stroke-dasharray="5,2" d="M179.461,-361.134C189.725,-333.468 222.833,-254.831 279,-219 284.834,-215.278 291.5,-212.147 298.068,-209.568"/>
<text text-anchor="middle" x="251.5" y="-250" font-family="Helvetica,sans-Serif" font-size="10.00">erpc</text>
</g>
<!-- Node21 -->
<g id="node18" class="node"><title>Node21</title>
<g id="a_node18"><a xlink:href="group___u_s_b___c_d_c__transport.html" target="_top" xlink:title="USB CDC transport. ">
<polygon fill="white" stroke="black" points="302,-152.5 302,-171.5 362,-171.5 362,-152.5 302,-152.5"/>
<text text-anchor="middle" x="332" y="-159.5" font-family="Helvetica,sans-Serif" font-size="10.00">USB CDC</text>
</a>
</g>
</g>
<!-- Node0&#45;&gt;Node21 -->
<g id="edge21" class="edge"><title>Node0&#45;&gt;Node21</title>
<path fill="none" stroke="blueviolet" stroke-dasharray="5,2" d="M178.74,-361.413C186.19,-336.332 208.532,-267.307 242,-218 255.061,-198.758 259.394,-193.508 279,-181 285.969,-176.554 294.124,-172.951 301.881,-170.127"/>
<text text-anchor="middle" x="251.5" y="-221" font-family="Helvetica,sans-Serif" font-size="10.00">erpc</text>
</g>
<!-- Node3 -->
<g id="node19" class="node"><title>Node3</title>
<g id="a_node19"><a xlink:href="group__infra__codec.html" target="_top" xlink:title="Classes used for message serialization. ">
<polygon fill="white" stroke="black" points="297,-114.5 297,-133.5 367,-133.5 367,-114.5 297,-114.5"/>
<text text-anchor="middle" x="332" y="-121.5" font-family="Helvetica,sans-Serif" font-size="10.00">Serialization</text>
</a>
</g>
</g>
<!-- Node0&#45;&gt;Node3 -->
<g id="edge3" class="edge"><title>Node0&#45;&gt;Node3</title>
<path fill="none" stroke="blueviolet" stroke-dasharray="5,2" d="M177.709,-361.11C183.162,-331.514 202.174,-241.811 242,-179 254.286,-159.623 259.573,-155.207 279,-143 284.941,-139.267 291.722,-136.118 298.381,-133.523"/>
<text text-anchor="middle" x="251.5" y="-182" font-family="Helvetica,sans-Serif" font-size="10.00">erpc</text>
</g>
<!-- Node13 -->
<g id="node20" class="node"><title>Node13</title>
<g id="a_node20"><a xlink:href="group__rpmsg__lite__rtos__transport.html" target="_top" xlink:title="RPMsg&#45;Lite zero copy transport using RTOS API. ">
<polygon fill="white" stroke="black" points="283.5,-76.5 283.5,-95.5 380.5,-95.5 380.5,-76.5 283.5,-76.5"/>
<text text-anchor="middle" x="332" y="-83.5" font-family="Helvetica,sans-Serif" font-size="10.00">RPMsg&#45;Lite RTOS</text>
</a>
</g>
</g>
<!-- Node0&#45;&gt;Node13 -->
<g id="edge13" class="edge"><title>Node0&#45;&gt;Node13</title>
<path fill="none" stroke="blueviolet" stroke-dasharray="5,2" d="M176.906,-361.483C180.401,-328.516 195.238,-217.005 242,-140 253.749,-120.652 259.749,-116.908 279,-105 284.967,-101.309 291.759,-98.1779 298.421,-95.5877"/>
<text text-anchor="middle" x="251.5" y="-143" font-family="Helvetica,sans-Serif" font-size="10.00">erpc</text>
</g>
<!-- Node14 -->
<g id="node21" class="node"><title>Node14</title>
<g id="a_node21"><a xlink:href="group__rpmsg__lite__transport.html" target="_top" xlink:title="RPMsg&#45;Lite zero copy transport. ">
<polygon fill="white" stroke="black" points="298,-38.5 298,-57.5 366,-57.5 366,-38.5 298,-38.5"/>
<text text-anchor="middle" x="332" y="-45.5" font-family="Helvetica,sans-Serif" font-size="10.00">RPMsg&#45;Lite</text>
</a>
</g>
</g>
<!-- Node0&#45;&gt;Node14 -->
<g id="edge14" class="edge"><title>Node0&#45;&gt;Node14</title>
<path fill="none" stroke="blueviolet" stroke-dasharray="5,2" d="M176.419,-361.471C178.392,-325.174 189.046,-193.027 242,-102 253.382,-82.4338 259.749,-78.9082 279,-67 284.967,-63.3089 291.759,-60.1779 298.421,-57.5877"/>
<text text-anchor="middle" x="251.5" y="-105" font-family="Helvetica,sans-Serif" font-size="10.00">erpc</text>
</g>
<!-- Node7 -->
<g id="node22" class="node"><title>Node7</title>
<g id="a_node22"><a xlink:href="group__port__setup__extensions.html" target="_top" xlink:title="Extension setup functions. ">
<polygon fill="white" stroke="black" points="287.5,-0.5 287.5,-19.5 376.5,-19.5 376.5,-0.5 287.5,-0.5"/>
<text text-anchor="middle" x="332" y="-7.5" font-family="Helvetica,sans-Serif" font-size="10.00">Extension Setup</text>
</a>
</g>
</g>
<!-- Node0&#45;&gt;Node7 -->
<g id="edge7" class="edge"><title>Node0&#45;&gt;Node7</title>
<path fill="none" stroke="blueviolet" stroke-dasharray="5,2" d="M175.997,-361.456C176.386,-321.921 181.88,-168.157 242,-63 253.084,-43.6118 259.923,-40.6111 279,-29 285.076,-25.3021 291.984,-22.1545 298.736,-19.548"/>
<text text-anchor="middle" x="251.5" y="-66" font-family="Helvetica,sans-Serif" font-size="10.00">erpc</text>
</g>
</g>
</svg>
