<?xml version="1.0" encoding="UTF-8" standalone="no"?>
<!DOCTYPE svg PUBLIC "-//W3C//DTD SVG 1.1//EN"
 "http://www.w3.org/Graphics/SVG/1.1/DTD/svg11.dtd">
<!-- Generated by graphviz version 2.38.0 (20140413.2041)
 -->
<!-- Title: Transport Layers Pages: 1 -->
<svg width="239pt" height="560pt"
 viewBox="0.00 0.00 239.00 560.00" xmlns="http://www.w3.org/2000/svg" xmlns:xlink="http://www.w3.org/1999/xlink">
<g id="graph0" class="graph" transform="scale(1 1) rotate(0) translate(4 556)">
<title>Transport Layers</title>
<polygon fill="white" stroke="none" points="-4,4 -4,-556 235,-556 235,4 -4,4"/>
<!-- Node0 -->
<g id="node1" class="node"><title>Node0</title>
<polygon fill="#bfbfbf" stroke="black" points="0,-266.5 0,-285.5 89,-285.5 89,-266.5 0,-266.5"/>
<text text-anchor="middle" x="44.5" y="-273.5" font-family="Helvetica,sans-Serif" font-size="10.00">Transport Layers</text>
</g>
<!-- Node2 -->
<g id="node2" class="node"><title>Node2</title>
<g id="a_node2"><a xlink:href="group__dspi__slave__transport.html" target="_top" xlink:title="Kinetis SDK DSPI slave driver transport. ">
<polygon fill="white" stroke="black" points="145.5,-532.5 145.5,-551.5 210.5,-551.5 210.5,-532.5 145.5,-532.5"/>
<text text-anchor="middle" x="178" y="-539.5" font-family="Helvetica,sans-Serif" font-size="10.00">DSPI Slave</text>
</a>
</g>
</g>
<!-- Node0&#45;&gt;Node2 -->
<g id="edge2" class="edge"><title>Node0&#45;&gt;Node2</title>
<path fill="none" stroke="black" d="M46.2038,-295.654C48.9037,-341.67 61.9534,-457.45 125,-523 130.53,-528.75 137.94,-532.768 145.43,-535.574"/>
<polygon fill="black" stroke="black" points="49.6933,-295.352 45.7162,-285.532 42.7015,-295.688 49.6933,-295.352"/>
</g>
<!-- Node13 -->
<g id="node3" class="node"><title>Node13</title>
<g id="a_node3"><a xlink:href="group__mu__transport.html" target="_top" xlink:title="Messaging Unit transport. ">
<polygon fill="white" stroke="black" points="136,-494.5 136,-513.5 220,-513.5 220,-494.5 136,-494.5"/>
<text text-anchor="middle" x="178" y="-501.5" font-family="Helvetica,sans-Serif" font-size="10.00">Messaging Unit</text>
</a>
</g>
</g>
<!-- Node0&#45;&gt;Node13 -->
<g id="edge13" class="edge"><title>Node0&#45;&gt;Node13</title>
<path fill="none" stroke="black" d="M47.5866,-295.924C52.9178,-336.931 70.699,-431.409 125,-485 128.899,-488.848 133.64,-491.925 138.655,-494.383"/>
<polygon fill="black" stroke="black" points="51.0458,-295.372 46.393,-285.854 44.0945,-296.196 51.0458,-295.372"/>
</g>
<!-- Node12 -->
<g id="node4" class="node"><title>Node12</title>
<g id="a_node4"><a xlink:href="group__tcp__transport.html" target="_top" xlink:title="Simple TCP/IP transport. ">
<polygon fill="white" stroke="black" points="154.5,-456.5 154.5,-475.5 201.5,-475.5 201.5,-456.5 154.5,-456.5"/>
<text text-anchor="middle" x="178" y="-463.5" font-family="Helvetica,sans-Serif" font-size="10.00">TCP/IP</text>
</a>
</g>
</g>
<!-- Node0&#45;&gt;Node12 -->
<g id="edge12" class="edge"><title>Node0&#45;&gt;Node12</title>
<path fill="none" stroke="black" d="M49.4427,-295.627C57.4969,-330.802 79.0935,-404.833 125,-447 133.14,-454.477 144.461,-459.071 154.461,-461.863"/>
<polygon fill="black" stroke="black" points="52.8226,-294.697 47.2899,-285.662 45.9804,-296.175 52.8226,-294.697"/>
</g>
<!-- Node14 -->
<g id="node5" class="node"><title>Node14</title>
<g id="a_node5"><a xlink:href="group__rpmsg__linux__transport.html" target="_top" xlink:title="RPMsg endpoints linux transport. ">
<polygon fill="white" stroke="black" points="130.5,-418.5 130.5,-437.5 225.5,-437.5 225.5,-418.5 130.5,-418.5"/>
<text text-anchor="middle" x="178" y="-425.5" font-family="Helvetica,sans-Serif" font-size="10.00">RPMsg Endpoints</text>
</a>
</g>
</g>
<!-- Node0&#45;&gt;Node14 -->
<g id="edge14" class="edge"><title>Node0&#45;&gt;Node14</title>
<path fill="none" stroke="black" d="M52.1719,-295.197C63.0688,-323.867 87.3229,-377.829 125,-409 129.666,-412.86 135.184,-415.971 140.853,-418.467"/>
<polygon fill="black" stroke="black" points="55.3663,-293.74 48.6494,-285.547 48.7907,-296.141 55.3663,-293.74"/>
</g>
<!-- Node8 -->
<g id="node6" class="node"><title>Node8</title>
<g id="a_node6"><a xlink:href="group__serial__transport.html" target="_top" xlink:title="POSIX and Win32 serial port transport. ">
<polygon fill="white" stroke="black" points="147.5,-380.5 147.5,-399.5 208.5,-399.5 208.5,-380.5 147.5,-380.5"/>
<text text-anchor="middle" x="178" y="-387.5" font-family="Helvetica,sans-Serif" font-size="10.00">Serial port</text>
</a>
</g>
</g>
<!-- Node0&#45;&gt;Node8 -->
<g id="edge8" class="edge"><title>Node0&#45;&gt;Node8</title>
<path fill="none" stroke="black" d="M56.4736,-294.184C70.1055,-315.361 95.2365,-350.102 125,-371 131.686,-375.695 139.665,-379.366 147.341,-382.177"/>
<polygon fill="black" stroke="black" points="59.3156,-292.127 51.0442,-285.506 53.3815,-295.84 59.3156,-292.127"/>
</g>
<!-- Node4 -->
<g id="node7" class="node"><title>Node4</title>
<g id="a_node7"><a xlink:href="group__spi__slave__transport.html" target="_top" xlink:title="Kinetis SDK SPI slave driver transport. ">
<polygon fill="white" stroke="black" points="148.5,-342.5 148.5,-361.5 207.5,-361.5 207.5,-342.5 148.5,-342.5"/>
<text text-anchor="middle" x="178" y="-349.5" font-family="Helvetica,sans-Serif" font-size="10.00">SPI Slave</text>
</a>
</g>
</g>
<!-- Node0&#45;&gt;Node4 -->
<g id="edge4" class="edge"><title>Node0&#45;&gt;Node4</title>
<path fill="none" stroke="black" d="M64.5194,-291.904C80.0492,-304.316 102.956,-321.35 125,-333 132.308,-336.862 140.575,-340.274 148.331,-343.101"/>
<polygon fill="black" stroke="black" points="66.6698,-289.142 56.703,-285.548 62.2534,-294.573 66.6698,-289.142"/>
</g>
<!-- Node7 -->
<g id="node8" class="node"><title>Node7</title>
<g id="a_node8"><a xlink:href="group__uart__transport.html" target="_top" xlink:title="CMSIS UART driver transport. ">
<polygon fill="white" stroke="black" points="140,-304.5 140,-323.5 216,-323.5 216,-304.5 140,-304.5"/>
<text text-anchor="middle" x="178" y="-311.5" font-family="Helvetica,sans-Serif" font-size="10.00">CMSIS UART</text>
</a>
</g>
</g>
<!-- Node0&#45;&gt;Node7 -->
<g id="edge7" class="edge"><title>Node0&#45;&gt;Node7</title>
<path fill="none" stroke="black" d="M88.3778,-288.391C106.386,-293.594 127.01,-299.554 143.828,-304.414"/>
<polygon fill="black" stroke="black" points="89.2616,-285.003 78.683,-285.589 87.3183,-291.728 89.2616,-285.003"/>
</g>
<!-- Node5 -->
<g id="node9" class="node"><title>Node5</title>
<g id="a_node9"><a xlink:href="group__spidev__master__transport.html" target="_top" xlink:title="SPIdev Linux transport. ">
<polygon fill="white" stroke="black" points="125,-266.5 125,-285.5 231,-285.5 231,-266.5 125,-266.5"/>
<text text-anchor="middle" x="178" y="-273.5" font-family="Helvetica,sans-Serif" font-size="10.00">SPIdev Linux Master</text>
</a>
</g>
</g>
<!-- Node0&#45;&gt;Node5 -->
<g id="edge5" class="edge"><title>Node0&#45;&gt;Node5</title>
<path fill="none" stroke="black" d="M99.345,-276C107.73,-276 116.383,-276 124.733,-276"/>
<polygon fill="black" stroke="black" points="99.2876,-272.5 89.2876,-276 99.2876,-279.5 99.2876,-272.5"/>
</g>
<!-- Node3 -->
<g id="node10" class="node"><title>Node3</title>
<g id="a_node10"><a xlink:href="group__spi__master__transport.html" target="_top" xlink:title="Kinetis SDK SPI master driver transport. ">
<polygon fill="white" stroke="black" points="145.5,-228.5 145.5,-247.5 210.5,-247.5 210.5,-228.5 145.5,-228.5"/>
<text text-anchor="middle" x="178" y="-235.5" font-family="Helvetica,sans-Serif" font-size="10.00">SPI Master</text>
</a>
</g>
</g>
<!-- Node0&#45;&gt;Node3 -->
<g id="edge3" class="edge"><title>Node0&#45;&gt;Node3</title>
<path fill="none" stroke="black" d="M88.3511,-263.617C106.854,-258.27 128.123,-252.124 145.188,-247.193"/>
<polygon fill="black" stroke="black" points="87.3183,-260.272 78.683,-266.411 89.2616,-266.997 87.3183,-260.272"/>
</g>
<!-- Node11 -->
<g id="node11" class="node"><title>Node11</title>
<g id="a_node11"><a xlink:href="group__rpmsg__tty__rtos__transport.html" target="_top" xlink:title="RPMsg TTY RTOS transport. ">
<polygon fill="white" stroke="black" points="129,-190.5 129,-209.5 227,-209.5 227,-190.5 129,-190.5"/>
<text text-anchor="middle" x="178" y="-197.5" font-family="Helvetica,sans-Serif" font-size="10.00">RPMsg TTY RTOS</text>
</a>
</g>
</g>
<!-- Node0&#45;&gt;Node11 -->
<g id="edge11" class="edge"><title>Node0&#45;&gt;Node11</title>
<path fill="none" stroke="black" d="M64.5194,-260.096C80.0492,-247.684 102.956,-230.65 125,-219 131.713,-215.452 139.235,-212.285 146.427,-209.601"/>
<polygon fill="black" stroke="black" points="62.2534,-257.427 56.703,-266.452 66.6698,-262.858 62.2534,-257.427"/>
</g>
<!-- Node6 -->
<g id="node12" class="node"><title>Node6</title>
<g id="a_node12"><a xlink:href="group__itbp__transport.html" target="_top" xlink:title="Simple inter&#45;thread communications transport. ">
<polygon fill="white" stroke="black" points="145.5,-152.5 145.5,-171.5 210.5,-171.5 210.5,-152.5 145.5,-152.5"/>
<text text-anchor="middle" x="178" y="-159.5" font-family="Helvetica,sans-Serif" font-size="10.00">Inter&#45;thread</text>
</a>
</g>
</g>
<!-- Node0&#45;&gt;Node6 -->
<g id="edge6" class="edge"><title>Node0&#45;&gt;Node6</title>
<path fill="none" stroke="black" d="M56.4736,-257.816C70.1055,-236.639 95.2365,-201.898 125,-181 131.136,-176.692 138.36,-173.245 145.439,-170.535"/>
<polygon fill="black" stroke="black" points="53.3815,-256.16 51.0442,-266.494 59.3156,-259.873 53.3815,-256.16"/>
</g>
<!-- Node1 -->
<g id="node13" class="node"><title>Node1</title>
<g id="a_node13"><a xlink:href="group__dspi__master__transport.html" target="_top" xlink:title="Kinetis SDK DSPI master driver transport. ">
<polygon fill="white" stroke="black" points="142,-114.5 142,-133.5 214,-133.5 214,-114.5 142,-114.5"/>
<text text-anchor="middle" x="178" y="-121.5" font-family="Helvetica,sans-Serif" font-size="10.00">DSPI Master</text>
</a>
</g>
</g>
<!-- Node0&#45;&gt;Node1 -->
<g id="edge1" class="edge"><title>Node0&#45;&gt;Node1</title>
<path fill="none" stroke="black" d="M52.1719,-256.803C63.0688,-228.133 87.3229,-174.171 125,-143 129.962,-138.895 135.888,-135.637 141.935,-133.065"/>
<polygon fill="black" stroke="black" points="48.7907,-255.859 48.6494,-266.453 55.3663,-258.26 48.7907,-255.859"/>
</g>
<!-- Node15 -->
<g id="node14" class="node"><title>Node15</title>
<g id="a_node14"><a xlink:href="group___u_s_b___c_d_c__transport.html" target="_top" xlink:title="USB CDC transport. ">
<polygon fill="white" stroke="black" points="148,-76.5 148,-95.5 208,-95.5 208,-76.5 148,-76.5"/>
<text text-anchor="middle" x="178" y="-83.5" font-family="Helvetica,sans-Serif" font-size="10.00">USB CDC</text>
</a>
</g>
</g>
<!-- Node0&#45;&gt;Node15 -->
<g id="edge15" class="edge"><title>Node0&#45;&gt;Node15</title>
<path fill="none" stroke="black" d="M49.4427,-256.373C57.4969,-221.198 79.0935,-147.167 125,-105 131.371,-99.1483 139.689,-95.0627 147.798,-92.2247"/>
<polygon fill="black" stroke="black" points="45.9804,-255.825 47.2899,-266.338 52.8226,-257.303 45.9804,-255.825"/>
</g>
<!-- Node9 -->
<g id="node15" class="node"><title>Node9</title>
<g id="a_node15"><a xlink:href="group__rpmsg__lite__rtos__transport.html" target="_top" xlink:title="RPMsg&#45;Lite zero copy transport using RTOS API. ">
<polygon fill="white" stroke="black" points="129.5,-38.5 129.5,-57.5 226.5,-57.5 226.5,-38.5 129.5,-38.5"/>
<text text-anchor="middle" x="178" y="-45.5" font-family="Helvetica,sans-Serif" font-size="10.00">RPMsg&#45;Lite RTOS</text>
</a>
</g>
</g>
<!-- Node0&#45;&gt;Node9 -->
<g id="edge9" class="edge"><title>Node0&#45;&gt;Node9</title>
<path fill="none" stroke="black" d="M47.5866,-256.076C52.9178,-215.069 70.699,-120.591 125,-67 128.899,-63.1517 133.64,-60.0751 138.655,-57.6174"/>
<polygon fill="black" stroke="black" points="44.0945,-255.804 46.393,-266.146 51.0458,-256.628 44.0945,-255.804"/>
</g>
<!-- Node10 -->
<g id="node16" class="node"><title>Node10</title>
<g id="a_node16"><a xlink:href="group__rpmsg__lite__transport.html" target="_top" xlink:title="RPMsg&#45;Lite zero copy transport. ">
<polygon fill="white" stroke="black" points="144,-0.5 144,-19.5 212,-19.5 212,-0.5 144,-0.5"/>
<text text-anchor="middle" x="178" y="-7.5" font-family="Helvetica,sans-Serif" font-size="10.00">RPMsg&#45;Lite</text>
</a>
</g>
</g>
<!-- Node0&#45;&gt;Node10 -->
<g id="edge10" class="edge"><title>Node0&#45;&gt;Node10</title>
<path fill="none" stroke="black" d="M46.2038,-256.346C48.9037,-210.33 61.9534,-94.5496 125,-29 130.13,-23.6659 136.879,-19.8217 143.808,-17.0537"/>
<polygon fill="black" stroke="black" points="42.7015,-256.312 45.7162,-266.468 49.6933,-256.648 42.7015,-256.312"/>
</g>
</g>
</svg>
