<?xml version="1.0" encoding="UTF-8" standalone="no"?>
<!DOCTYPE svg PUBLIC "-//W3C//DTD SVG 1.1//EN"
 "http://www.w3.org/Graphics/SVG/1.1/DTD/svg11.dtd">
<!-- Generated by graphviz version 2.38.0 (20140413.2041)
 -->
<!-- Title: Graphical Class Hierarchy Pages: 1 -->
<svg width="475pt" height="503pt"
 viewBox="0.00 0.00 475.00 503.00" xmlns="http://www.w3.org/2000/svg" xmlns:xlink="http://www.w3.org/1999/xlink">
<g id="graph0" class="graph" transform="scale(1 1) rotate(0) translate(4 499)">
<title>Graphical Class Hierarchy</title>
<polygon fill="white" stroke="none" points="-4,4 -4,-499 471,-499 471,4 -4,4"/>
<!-- Node1 -->
<g id="node1" class="node"><title>Node1</title>
<g id="a_node1"><a xlink:href="classerpc_1_1_transport.html" target="_top" xlink:title="Abstract interface for transport layer. ">
<polygon fill="white" stroke="black" points="0,-95.5 0,-114.5 82,-114.5 82,-95.5 0,-95.5"/>
<text text-anchor="middle" x="41" y="-102.5" font-family="Helvetica,sans-Serif" font-size="10.00">erpc::Transport</text>
</a>
</g>
</g>
<!-- Node2 -->
<g id="node2" class="node"><title>Node2</title>
<g id="a_node2"><a xlink:href="classerpc_1_1_framed_transport.html" target="_top" xlink:title="Base class for framed transport layers. ">
<polygon fill="white" stroke="black" points="138,-285.5 138,-304.5 253,-304.5 253,-285.5 138,-285.5"/>
<text text-anchor="middle" x="195.5" y="-292.5" font-family="Helvetica,sans-Serif" font-size="10.00">erpc::FramedTransport</text>
</a>
</g>
</g>
<!-- Node1&#45;&gt;Node2 -->
<g id="edge1" class="edge"><title>Node1&#45;&gt;Node2</title>
<path fill="none" stroke="midnightblue" d="M56.1009,-122.568C87.4455,-161.621 162.067,-254.591 186.561,-285.108"/>
<polygon fill="midnightblue" stroke="midnightblue" points="58.7612,-120.291 49.7722,-114.683 53.3021,-124.673 58.7612,-120.291"/>
</g>
<!-- Node13 -->
<g id="node13" class="node"><title>Node13</title>
<g id="a_node13"><a xlink:href="classerpc_1_1_inter_thread_buffer_transport.html" target="_top" xlink:title="Very basic transport to send/receive messages between threads. ">
<polygon fill="white" stroke="black" points="118,-152.5 118,-171.5 273,-171.5 273,-152.5 118,-152.5"/>
<text text-anchor="middle" x="195.5" y="-159.5" font-family="Helvetica,sans-Serif" font-size="10.00">erpc::InterThreadBufferTransport</text>
</a>
</g>
</g>
<!-- Node1&#45;&gt;Node13 -->
<g id="edge12" class="edge"><title>Node1&#45;&gt;Node13</title>
<path fill="none" stroke="midnightblue" d="M67.2873,-119.406C81.7816,-127.21 100.517,-136.548 118,-143 127.886,-146.648 138.745,-149.821 149.099,-152.474"/>
<polygon fill="midnightblue" stroke="midnightblue" points="68.8811,-116.288 58.4307,-114.545 65.5129,-122.425 68.8811,-116.288"/>
</g>
<!-- Node14 -->
<g id="node14" class="node"><title>Node14</title>
<g id="a_node14"><a xlink:href="classerpc_1_1_m_u_transport.html" target="_top" xlink:title="Transport that uses Messaging Unit (MU) for interprocessor messaging. ">
<polygon fill="white" stroke="black" points="147,-114.5 147,-133.5 244,-133.5 244,-114.5 147,-114.5"/>
<text text-anchor="middle" x="195.5" y="-121.5" font-family="Helvetica,sans-Serif" font-size="10.00">erpc::MUTransport</text>
</a>
</g>
</g>
<!-- Node1&#45;&gt;Node14 -->
<g id="edge13" class="edge"><title>Node1&#45;&gt;Node14</title>
<path fill="none" stroke="midnightblue" d="M92.151,-111.248C109.748,-113.441 129.453,-115.896 146.839,-118.062"/>
<polygon fill="midnightblue" stroke="midnightblue" points="92.4236,-107.755 82.0676,-109.992 91.5581,-114.702 92.4236,-107.755"/>
</g>
<!-- Node15 -->
<g id="node15" class="node"><title>Node15</title>
<g id="a_node15"><a xlink:href="classerpc_1_1_r_p_msg_base_transport.html" target="_top" xlink:title="Transport that other RPMsg transports inherits. ">
<polygon fill="white" stroke="black" points="127,-76.5 127,-95.5 264,-95.5 264,-76.5 127,-76.5"/>
<text text-anchor="middle" x="195.5" y="-83.5" font-family="Helvetica,sans-Serif" font-size="10.00">erpc::RPMsgBaseTransport</text>
</a>
</g>
</g>
<!-- Node1&#45;&gt;Node15 -->
<g id="edge14" class="edge"><title>Node1&#45;&gt;Node15</title>
<path fill="none" stroke="midnightblue" d="M92.0524,-98.764C103.221,-97.3724 115.244,-95.8745 126.987,-94.4115"/>
<polygon fill="midnightblue" stroke="midnightblue" points="91.5581,-95.2984 82.0676,-100.008 92.4236,-102.245 91.5581,-95.2984"/>
</g>
<!-- Node19 -->
<g id="node19" class="node"><title>Node19</title>
<g id="a_node19"><a xlink:href="classerpc_1_1_r_p_msg_linux_transport.html" target="_top" xlink:title="RPMSG Linux transport to send/receive messages through RPMSG endpoints based on github.com/NXPmicro/rpmsg&#45;sysfs/tree/0aa1817545a765c200b1b2f9b6680a420dcf9171 implementation. ">
<polygon fill="white" stroke="black" points="127,-38.5 127,-57.5 264,-57.5 264,-38.5 127,-38.5"/>
<text text-anchor="middle" x="195.5" y="-45.5" font-family="Helvetica,sans-Serif" font-size="10.00">erpc::RPMsgLinuxTransport</text>
</a>
</g>
</g>
<!-- Node1&#45;&gt;Node19 -->
<g id="edge18" class="edge"><title>Node1&#45;&gt;Node19</title>
<path fill="none" stroke="midnightblue" d="M67.2873,-90.5941C81.7816,-82.7899 100.517,-73.4521 118,-67 127.886,-63.3517 138.745,-60.1792 149.099,-57.5263"/>
<polygon fill="midnightblue" stroke="midnightblue" points="65.5129,-87.5755 58.4307,-95.4554 68.8811,-93.7118 65.5129,-87.5755"/>
</g>
<!-- Node20 -->
<g id="node20" class="node"><title>Node20</title>
<g id="a_node20"><a xlink:href="classerpc_1_1_transport_arbitrator.html" target="_top" xlink:title="Interposer to share transport between client and server. ">
<polygon fill="white" stroke="black" points="134.5,-0.5 134.5,-19.5 256.5,-19.5 256.5,-0.5 134.5,-0.5"/>
<text text-anchor="middle" x="195.5" y="-7.5" font-family="Helvetica,sans-Serif" font-size="10.00">erpc::TransportArbitrator</text>
</a>
</g>
</g>
<!-- Node1&#45;&gt;Node20 -->
<g id="edge19" class="edge"><title>Node1&#45;&gt;Node20</title>
<path fill="none" stroke="midnightblue" d="M55.0575,-87.1811C68.7916,-69.7354 91.9931,-43.6984 118,-29 124.91,-25.0947 132.616,-21.9837 140.402,-19.5075"/>
<polygon fill="midnightblue" stroke="midnightblue" points="52.0579,-85.3424 48.7737,-95.4154 57.6227,-89.589 52.0579,-85.3424"/>
</g>
<!-- Node3 -->
<g id="node3" class="node"><title>Node3</title>
<g id="a_node3"><a xlink:href="classerpc_1_1_dspi_master_transport.html" target="_top" xlink:title="Very basic transport to send/receive messages via DSPI. ">
<polygon fill="white" stroke="black" points="322.5,-475.5 322.5,-494.5 453.5,-494.5 453.5,-475.5 322.5,-475.5"/>
<text text-anchor="middle" x="388" y="-482.5" font-family="Helvetica,sans-Serif" font-size="10.00">erpc::DspiMasterTransport</text>
</a>
</g>
</g>
<!-- Node2&#45;&gt;Node3 -->
<g id="edge2" class="edge"><title>Node2&#45;&gt;Node3</title>
<path fill="none" stroke="midnightblue" d="M203.593,-314.279C217.787,-350.06 253.193,-426.669 309,-466 314.468,-469.854 320.628,-472.931 327.028,-475.386"/>
<polygon fill="midnightblue" stroke="midnightblue" points="206.719,-312.655 199.87,-304.572 200.183,-315.162 206.719,-312.655"/>
</g>
<!-- Node4 -->
<g id="node4" class="node"><title>Node4</title>
<g id="a_node4"><a xlink:href="classerpc_1_1_dspi_slave_transport.html" target="_top" xlink:title="Very basic transport to send/receive messages via DSPI. ">
<polygon fill="white" stroke="black" points="325.5,-437.5 325.5,-456.5 450.5,-456.5 450.5,-437.5 325.5,-437.5"/>
<text text-anchor="middle" x="388" y="-444.5" font-family="Helvetica,sans-Serif" font-size="10.00">erpc::DspiSlaveTransport</text>
</a>
</g>
</g>
<!-- Node2&#45;&gt;Node4 -->
<g id="edge3" class="edge"><title>Node2&#45;&gt;Node4</title>
<path fill="none" stroke="midnightblue" d="M206.909,-313.613C224.187,-342.72 261.625,-398.704 309,-428 315.283,-431.885 322.307,-434.976 329.497,-437.435"/>
<polygon fill="midnightblue" stroke="midnightblue" points="209.876,-311.752 201.837,-304.85 203.817,-315.258 209.876,-311.752"/>
</g>
<!-- Node5 -->
<g id="node5" class="node"><title>Node5</title>
<g id="a_node5"><a xlink:href="classerpc_1_1_i2c_slave_transport.html" target="_top" xlink:title="Very basic transport to send/receive messages via I2C. ">
<polygon fill="white" stroke="black" points="329,-399.5 329,-418.5 447,-418.5 447,-399.5 329,-399.5"/>
<text text-anchor="middle" x="388" y="-406.5" font-family="Helvetica,sans-Serif" font-size="10.00">erpc::I2cSlaveTransport</text>
</a>
</g>
</g>
<!-- Node2&#45;&gt;Node5 -->
<g id="edge4" class="edge"><title>Node2&#45;&gt;Node5</title>
<path fill="none" stroke="midnightblue" d="M211.907,-312.199C232.096,-333.663 269.593,-369.978 309,-390 316.58,-393.851 324.976,-396.946 333.369,-399.426"/>
<polygon fill="midnightblue" stroke="midnightblue" points="214.402,-309.742 205.049,-304.765 209.257,-314.488 214.402,-309.742"/>
</g>
<!-- Node6 -->
<g id="node6" class="node"><title>Node6</title>
<g id="a_node6"><a xlink:href="classerpc_1_1_serial_transport.html" target="_top" xlink:title="Serial transport layer for host PC. ">
<polygon fill="white" stroke="black" points="334.5,-361.5 334.5,-380.5 441.5,-380.5 441.5,-361.5 334.5,-361.5"/>
<text text-anchor="middle" x="388" y="-368.5" font-family="Helvetica,sans-Serif" font-size="10.00">erpc::SerialTransport</text>
</a>
</g>
</g>
<!-- Node2&#45;&gt;Node6 -->
<g id="edge5" class="edge"><title>Node2&#45;&gt;Node6</title>
<path fill="none" stroke="midnightblue" d="M221.165,-309.587C243.475,-322.267 277.551,-340.379 309,-352 318.936,-355.671 329.847,-358.838 340.278,-361.475"/>
<polygon fill="midnightblue" stroke="midnightblue" points="222.779,-306.477 212.366,-304.519 219.285,-312.543 222.779,-306.477"/>
</g>
<!-- Node7 -->
<g id="node7" class="node"><title>Node7</title>
<g id="a_node7"><a xlink:href="classerpc_1_1_spidev_master_transport.html" target="_top" xlink:title="Very basic transport to send/receive messages via SPIdev. ">
<polygon fill="white" stroke="black" points="318,-323.5 318,-342.5 458,-342.5 458,-323.5 318,-323.5"/>
<text text-anchor="middle" x="388" y="-330.5" font-family="Helvetica,sans-Serif" font-size="10.00">erpc::SpidevMasterTransport</text>
</a>
</g>
</g>
<!-- Node2&#45;&gt;Node7 -->
<g id="edge6" class="edge"><title>Node2&#45;&gt;Node7</title>
<path fill="none" stroke="midnightblue" d="M254.7,-306.61C281.794,-312.014 313.625,-318.364 339.274,-323.48"/>
<polygon fill="midnightblue" stroke="midnightblue" points="255.063,-303.113 244.571,-304.589 253.693,-309.978 255.063,-303.113"/>
</g>
<!-- Node8 -->
<g id="node8" class="node"><title>Node8</title>
<g id="a_node8"><a xlink:href="classerpc_1_1_spi_master_transport.html" target="_top" xlink:title="Very basic transport to send/receive messages via SPI. ">
<polygon fill="white" stroke="black" points="325,-285.5 325,-304.5 451,-304.5 451,-285.5 325,-285.5"/>
<text text-anchor="middle" x="388" y="-292.5" font-family="Helvetica,sans-Serif" font-size="10.00">erpc::SpiMasterTransport</text>
</a>
</g>
</g>
<!-- Node2&#45;&gt;Node8 -->
<g id="edge7" class="edge"><title>Node2&#45;&gt;Node8</title>
<path fill="none" stroke="midnightblue" d="M263.411,-295C283.411,-295 305.246,-295 324.922,-295"/>
<polygon fill="midnightblue" stroke="midnightblue" points="263.141,-291.5 253.141,-295 263.14,-298.5 263.141,-291.5"/>
</g>
<!-- Node9 -->
<g id="node9" class="node"><title>Node9</title>
<g id="a_node9"><a xlink:href="classerpc_1_1_spi_slave_transport.html" target="_top" xlink:title="Very basic transport to send/receive messages via SPI. ">
<polygon fill="white" stroke="black" points="328.5,-247.5 328.5,-266.5 447.5,-266.5 447.5,-247.5 328.5,-247.5"/>
<text text-anchor="middle" x="388" y="-254.5" font-family="Helvetica,sans-Serif" font-size="10.00">erpc::SpiSlaveTransport</text>
</a>
</g>
</g>
<!-- Node2&#45;&gt;Node9 -->
<g id="edge8" class="edge"><title>Node2&#45;&gt;Node9</title>
<path fill="none" stroke="midnightblue" d="M254.7,-283.39C281.794,-277.986 313.625,-271.636 339.274,-266.52"/>
<polygon fill="midnightblue" stroke="midnightblue" points="253.693,-280.022 244.571,-285.411 255.063,-286.887 253.693,-280.022"/>
</g>
<!-- Node10 -->
<g id="node10" class="node"><title>Node10</title>
<g id="a_node10"><a xlink:href="classerpc_1_1_t_c_p_transport.html" target="_top" xlink:title="Client side of TCP/IP transport. ">
<polygon fill="white" stroke="black" points="337.5,-209.5 337.5,-228.5 438.5,-228.5 438.5,-209.5 337.5,-209.5"/>
<text text-anchor="middle" x="388" y="-216.5" font-family="Helvetica,sans-Serif" font-size="10.00">erpc::TCPTransport</text>
</a>
</g>
</g>
<!-- Node2&#45;&gt;Node10 -->
<g id="edge9" class="edge"><title>Node2&#45;&gt;Node10</title>
<path fill="none" stroke="midnightblue" d="M221.165,-280.413C243.475,-267.733 277.551,-249.621 309,-238 318.936,-234.329 329.847,-231.162 340.278,-228.525"/>
<polygon fill="midnightblue" stroke="midnightblue" points="219.285,-277.457 212.366,-285.481 222.779,-283.523 219.285,-277.457"/>
</g>
<!-- Node11 -->
<g id="node11" class="node"><title>Node11</title>
<g id="a_node11"><a xlink:href="classerpc_1_1_uart_transport.html" target="_top" xlink:title="Very basic transport to send/receive messages via UART. ">
<polygon fill="white" stroke="black" points="338,-171.5 338,-190.5 438,-190.5 438,-171.5 338,-171.5"/>
<text text-anchor="middle" x="388" y="-178.5" font-family="Helvetica,sans-Serif" font-size="10.00">erpc::UartTransport</text>
</a>
</g>
</g>
<!-- Node2&#45;&gt;Node11 -->
<g id="edge10" class="edge"><title>Node2&#45;&gt;Node11</title>
<path fill="none" stroke="midnightblue" d="M211.907,-277.801C232.096,-256.337 269.593,-220.022 309,-200 317.947,-195.454 328.031,-191.963 337.905,-189.292"/>
<polygon fill="midnightblue" stroke="midnightblue" points="209.257,-275.512 205.049,-285.235 214.402,-280.258 209.257,-275.512"/>
</g>
<!-- Node12 -->
<g id="node12" class="node"><title>Node12</title>
<g id="a_node12"><a xlink:href="classerpc_1_1_usb_cdc_transport.html" target="_top" xlink:title="Very basic transport to send/receive messages via virtual USB CDC port. ">
<polygon fill="white" stroke="black" points="330,-133.5 330,-152.5 446,-152.5 446,-133.5 330,-133.5"/>
<text text-anchor="middle" x="388" y="-140.5" font-family="Helvetica,sans-Serif" font-size="10.00">erpc::UsbCdcTransport</text>
</a>
</g>
</g>
<!-- Node2&#45;&gt;Node12 -->
<g id="edge11" class="edge"><title>Node2&#45;&gt;Node12</title>
<path fill="none" stroke="midnightblue" d="M206.909,-276.387C224.187,-247.28 261.625,-191.296 309,-162 315.401,-158.042 322.573,-154.908 329.904,-152.427"/>
<polygon fill="midnightblue" stroke="midnightblue" points="203.817,-274.742 201.837,-285.15 209.876,-278.248 203.817,-274.742"/>
</g>
<!-- Node16 -->
<g id="node16" class="node"><title>Node16</title>
<g id="a_node16"><a xlink:href="classerpc_1_1_r_p_msg_r_t_o_s_transport.html" target="_top" xlink:title="Transport that uses RPMsg zero copy RTOS API for interprocessor messaging. ">
<polygon fill="white" stroke="black" points="318,-95.5 318,-114.5 458,-114.5 458,-95.5 318,-95.5"/>
<text text-anchor="middle" x="388" y="-102.5" font-family="Helvetica,sans-Serif" font-size="10.00">erpc::RPMsgRTOSTransport</text>
</a>
</g>
</g>
<!-- Node15&#45;&gt;Node16 -->
<g id="edge15" class="edge"><title>Node15&#45;&gt;Node16</title>
<path fill="none" stroke="midnightblue" d="M274.548,-93.7843C288.918,-95.2176 303.828,-96.7047 317.912,-98.1093"/>
<polygon fill="midnightblue" stroke="midnightblue" points="274.498,-90.262 264.2,-92.7522 273.803,-97.2274 274.498,-90.262"/>
</g>
<!-- Node17 -->
<g id="node17" class="node"><title>Node17</title>
<g id="a_node17"><a xlink:href="classerpc_1_1_r_p_msg_transport.html" target="_top" xlink:title="Transport that uses RPMsg zero copy API for interprocessor messaging. ">
<polygon fill="white" stroke="black" points="331,-57.5 331,-76.5 445,-76.5 445,-57.5 331,-57.5"/>
<text text-anchor="middle" x="388" y="-64.5" font-family="Helvetica,sans-Serif" font-size="10.00">erpc::RPMsgTransport</text>
</a>
</g>
</g>
<!-- Node15&#45;&gt;Node17 -->
<g id="edge16" class="edge"><title>Node15&#45;&gt;Node17</title>
<path fill="none" stroke="midnightblue" d="M274.299,-78.2405C293.236,-76.3518 313.125,-74.3681 330.834,-72.6019"/>
<polygon fill="midnightblue" stroke="midnightblue" points="273.803,-74.7726 264.2,-79.2478 274.498,-81.738 273.803,-74.7726"/>
</g>
<!-- Node18 -->
<g id="node18" class="node"><title>Node18</title>
<g id="a_node18"><a xlink:href="classerpc_1_1_r_p_msg_t_t_y_r_t_o_s_transport.html" target="_top" xlink:title="Transport that uses RPMsg zero copy RTOS API for interprocessor messaging. ">
<polygon fill="white" stroke="black" points="309,-19.5 309,-38.5 467,-38.5 467,-19.5 309,-19.5"/>
<text text-anchor="middle" x="388" y="-26.5" font-family="Helvetica,sans-Serif" font-size="10.00">erpc::RPMsgTTYRTOSTransport</text>
</a>
</g>
</g>
<!-- Node15&#45;&gt;Node18 -->
<g id="edge17" class="edge"><title>Node15&#45;&gt;Node18</title>
<path fill="none" stroke="midnightblue" d="M252.807,-73.6763C259.687,-71.6852 266.557,-69.4584 273,-67 289.903,-60.5501 292.083,-54.4118 309,-48 318.775,-44.2953 329.517,-41.1306 339.821,-38.5073"/>
<polygon fill="midnightblue" stroke="midnightblue" points="251.489,-70.408 242.768,-76.4243 253.338,-77.1596 251.489,-70.408"/>
</g>
</g>
</svg>
