<?xml version="1.0" encoding="UTF-8" standalone="no"?>
<!DOCTYPE svg PUBLIC "-//W3C//DTD SVG 1.1//EN"
 "http://www.w3.org/Graphics/SVG/1.1/DTD/svg11.dtd">
<!-- Generated by graphviz version 2.38.0 (20140413.2041)
 -->
<!-- Title: Graphical Class Hierarchy Pages: 1 -->
<svg width="489pt" height="484pt"
 viewBox="0.00 0.00 489.00 484.00" xmlns="http://www.w3.org/2000/svg" xmlns:xlink="http://www.w3.org/1999/xlink">
<g id="graph0" class="graph" transform="scale(1 1) rotate(0) translate(4 480)">
<title>Graphical Class Hierarchy</title>
<polygon fill="white" stroke="none" points="-4,4 -4,-480 485,-480 485,4 -4,4"/>
<!-- Node1 -->
<g id="node1" class="node"><title>Node1</title>
<g id="a_node1"><a xlink:href="classerpc_1_1_r_p_msg_base.html" target="_top" xlink:title="Transport that other RPMsg transports inherits. ">
<polygon fill="white" stroke="black" points="0,-418.5 0,-437.5 96,-437.5 96,-418.5 0,-418.5"/>
<text text-anchor="middle" x="48" y="-425.5" font-family="Helvetica,sans-Serif" font-size="10.00">erpc::RPMsgBase</text>
</a>
</g>
</g>
<!-- Node2 -->
<g id="node2" class="node"><title>Node2</title>
<g id="a_node2"><a xlink:href="classerpc_1_1_r_p_msg_r_t_o_s_transport.html" target="_top" xlink:title="Transport that uses RPMsg zero copy RTOS API for interprocessor messaging. ">
<polygon fill="white" stroke="black" points="139.5,-380.5 139.5,-399.5 279.5,-399.5 279.5,-380.5 139.5,-380.5"/>
<text text-anchor="middle" x="209.5" y="-387.5" font-family="Helvetica,sans-Serif" font-size="10.00">erpc::RPMsgRTOSTransport</text>
</a>
</g>
</g>
<!-- Node1&#45;&gt;Node2 -->
<g id="edge1" class="edge"><title>Node1&#45;&gt;Node2</title>
<path fill="none" stroke="midnightblue" d="M99.234,-416.032C121.586,-410.707 147.538,-404.524 168.541,-399.52"/>
<polygon fill="midnightblue" stroke="midnightblue" points="98.1651,-412.689 89.2486,-418.411 99.7875,-419.498 98.1651,-412.689"/>
</g>
<!-- Node3 -->
<g id="node3" class="node"><title>Node3</title>
<g id="a_node3"><a xlink:href="classerpc_1_1_r_p_msg_transport.html" target="_top" xlink:title="Transport that uses RPMsg zero copy API for interprocessor messaging. ">
<polygon fill="white" stroke="black" points="152.5,-418.5 152.5,-437.5 266.5,-437.5 266.5,-418.5 152.5,-418.5"/>
<text text-anchor="middle" x="209.5" y="-425.5" font-family="Helvetica,sans-Serif" font-size="10.00">erpc::RPMsgTransport</text>
</a>
</g>
</g>
<!-- Node1&#45;&gt;Node3 -->
<g id="edge2" class="edge"><title>Node1&#45;&gt;Node3</title>
<path fill="none" stroke="midnightblue" d="M106.526,-428C121.418,-428 137.434,-428 152.26,-428"/>
<polygon fill="midnightblue" stroke="midnightblue" points="106.423,-424.5 96.4234,-428 106.423,-431.5 106.423,-424.5"/>
</g>
<!-- Node4 -->
<g id="node4" class="node"><title>Node4</title>
<g id="a_node4"><a xlink:href="classerpc_1_1_r_p_msg_t_t_y_r_t_o_s_transport.html" target="_top" xlink:title="Transport that uses RPMsg zero copy RTOS API for interprocessor messaging. ">
<polygon fill="white" stroke="black" points="323,-456.5 323,-475.5 481,-475.5 481,-456.5 323,-456.5"/>
<text text-anchor="middle" x="402" y="-463.5" font-family="Helvetica,sans-Serif" font-size="10.00">erpc::RPMsgTTYRTOSTransport</text>
</a>
</g>
</g>
<!-- Node1&#45;&gt;Node4 -->
<g id="edge3" class="edge"><title>Node1&#45;&gt;Node4</title>
<path fill="none" stroke="midnightblue" d="M94.9382,-439.847C106.932,-442.573 119.892,-445.198 132,-447 195.904,-456.513 269.08,-461.291 322.962,-463.674"/>
<polygon fill="midnightblue" stroke="midnightblue" points="95.6656,-436.423 85.1308,-437.549 94.0686,-443.238 95.6656,-436.423"/>
</g>
<!-- Node5 -->
<g id="node5" class="node"><title>Node5</title>
<g id="a_node5"><a xlink:href="classerpc_1_1_transport.html" target="_top" xlink:title="Abstract interface for transport layer. ">
<polygon fill="white" stroke="black" points="7,-285.5 7,-304.5 89,-304.5 89,-285.5 7,-285.5"/>
<text text-anchor="middle" x="48" y="-292.5" font-family="Helvetica,sans-Serif" font-size="10.00">erpc::Transport</text>
</a>
</g>
</g>
<!-- Node5&#45;&gt;Node2 -->
<g id="edge22" class="edge"><title>Node5&#45;&gt;Node2</title>
<path fill="none" stroke="midnightblue" d="M63.1958,-312.304C78.4195,-329.72 104.184,-356.077 132,-371 139.235,-374.882 147.281,-377.988 155.361,-380.468"/>
<polygon fill="midnightblue" stroke="midnightblue" points="65.7532,-309.909 56.6063,-304.563 60.4227,-314.446 65.7532,-309.909"/>
</g>
<!-- Node5&#45;&gt;Node3 -->
<g id="edge23" class="edge"><title>Node5&#45;&gt;Node3</title>
<path fill="none" stroke="midnightblue" d="M57.4695,-313.763C70.0059,-339.341 95.9622,-384.742 132,-409 138.13,-413.126 145.078,-416.357 152.226,-418.887"/>
<polygon fill="midnightblue" stroke="midnightblue" points="60.6328,-312.265 53.1944,-304.72 54.3045,-315.257 60.6328,-312.265"/>
</g>
<!-- Node6 -->
<g id="node6" class="node"><title>Node6</title>
<g id="a_node6"><a xlink:href="classerpc_1_1_framed_transport.html" target="_top" xlink:title="Base class for framed transport layers. ">
<polygon fill="white" stroke="black" points="152,-228.5 152,-247.5 267,-247.5 267,-228.5 152,-228.5"/>
<text text-anchor="middle" x="209.5" y="-235.5" font-family="Helvetica,sans-Serif" font-size="10.00">erpc::FramedTransport</text>
</a>
</g>
</g>
<!-- Node5&#45;&gt;Node6 -->
<g id="edge4" class="edge"><title>Node5&#45;&gt;Node6</title>
<path fill="none" stroke="midnightblue" d="M76.6252,-280.784C92.5217,-273.004 113.045,-263.628 132,-257 142.205,-253.431 153.397,-250.256 163.994,-247.571"/>
<polygon fill="midnightblue" stroke="midnightblue" points="74.775,-277.795 67.3807,-285.383 77.893,-284.062 74.775,-277.795"/>
</g>
<!-- Node19 -->
<g id="node19" class="node"><title>Node19</title>
<g id="a_node19"><a xlink:href="classerpc_1_1_inter_thread_buffer_transport.html" target="_top" xlink:title="Very basic transport to send/receive messages between threads. ">
<polygon fill="white" stroke="black" points="132,-190.5 132,-209.5 287,-209.5 287,-190.5 132,-190.5"/>
<text text-anchor="middle" x="209.5" y="-197.5" font-family="Helvetica,sans-Serif" font-size="10.00">erpc::InterThreadBufferTransport</text>
</a>
</g>
</g>
<!-- Node5&#45;&gt;Node19 -->
<g id="edge18" class="edge"><title>Node5&#45;&gt;Node19</title>
<path fill="none" stroke="midnightblue" d="M63.1958,-277.696C78.4195,-260.28 104.184,-233.923 132,-219 139.235,-215.118 147.281,-212.012 155.361,-209.532"/>
<polygon fill="midnightblue" stroke="midnightblue" points="60.4227,-275.554 56.6063,-285.437 65.7532,-280.091 60.4227,-275.554"/>
</g>
<!-- Node20 -->
<g id="node20" class="node"><title>Node20</title>
<g id="a_node20"><a xlink:href="classerpc_1_1_m_b_o_x_transport.html" target="_top" xlink:title="Transport to send/receive messages via MBOX. ">
<polygon fill="white" stroke="black" points="154.5,-152.5 154.5,-171.5 264.5,-171.5 264.5,-152.5 154.5,-152.5"/>
<text text-anchor="middle" x="209.5" y="-159.5" font-family="Helvetica,sans-Serif" font-size="10.00">erpc::MBOXTransport</text>
</a>
</g>
</g>
<!-- Node5&#45;&gt;Node20 -->
<g id="edge19" class="edge"><title>Node5&#45;&gt;Node20</title>
<path fill="none" stroke="midnightblue" d="M57.4695,-276.237C70.0059,-250.659 95.9622,-205.258 132,-181 138.698,-176.491 146.372,-173.052 154.216,-170.428"/>
<polygon fill="midnightblue" stroke="midnightblue" points="54.3045,-274.743 53.1944,-285.28 60.6328,-277.735 54.3045,-274.743"/>
</g>
<!-- Node21 -->
<g id="node21" class="node"><title>Node21</title>
<g id="a_node21"><a xlink:href="classerpc_1_1_m_u_transport.html" target="_top" xlink:title="Transport that uses Messaging Unit (MU) for interprocessor messaging. ">
<polygon fill="white" stroke="black" points="161,-342.5 161,-361.5 258,-361.5 258,-342.5 161,-342.5"/>
<text text-anchor="middle" x="209.5" y="-349.5" font-family="Helvetica,sans-Serif" font-size="10.00">erpc::MUTransport</text>
</a>
</g>
</g>
<!-- Node5&#45;&gt;Node21 -->
<g id="edge20" class="edge"><title>Node5&#45;&gt;Node21</title>
<path fill="none" stroke="midnightblue" d="M76.6252,-309.216C92.5217,-316.996 113.045,-326.372 132,-333 142.205,-336.569 153.397,-339.744 163.994,-342.429"/>
<polygon fill="midnightblue" stroke="midnightblue" points="77.893,-305.938 67.3807,-304.617 74.775,-312.205 77.893,-305.938"/>
</g>
<!-- Node22 -->
<g id="node22" class="node"><title>Node22</title>
<g id="a_node22"><a xlink:href="classerpc_1_1_r_p_msg_linux_transport.html" target="_top" xlink:title="RPMSG Linux transport to send/receive messages through RPMSG endpoints based on github.com/nxp&#45;mcuxpresso/rpmsg&#45;sysfs/tree/0aa1817545a765c200b1b2f9b6680a420dcf9171 implementation. ">
<polygon fill="white" stroke="black" points="141,-304.5 141,-323.5 278,-323.5 278,-304.5 141,-304.5"/>
<text text-anchor="middle" x="209.5" y="-311.5" font-family="Helvetica,sans-Serif" font-size="10.00">erpc::RPMsgLinuxTransport</text>
</a>
</g>
</g>
<!-- Node5&#45;&gt;Node22 -->
<g id="edge21" class="edge"><title>Node5&#45;&gt;Node22</title>
<path fill="none" stroke="midnightblue" d="M99.5075,-301.017C112.671,-302.585 127.068,-304.3 140.959,-305.954"/>
<polygon fill="midnightblue" stroke="midnightblue" points="99.5924,-297.502 89.2486,-299.795 98.7644,-304.453 99.5924,-297.502"/>
</g>
<!-- Node23 -->
<g id="node23" class="node"><title>Node23</title>
<g id="a_node23"><a xlink:href="classerpc_1_1_transport_arbitrator.html" target="_top" xlink:title="Interposer to share transport between client and server. ">
<polygon fill="white" stroke="black" points="148.5,-266.5 148.5,-285.5 270.5,-285.5 270.5,-266.5 148.5,-266.5"/>
<text text-anchor="middle" x="209.5" y="-273.5" font-family="Helvetica,sans-Serif" font-size="10.00">erpc::TransportArbitrator</text>
</a>
</g>
</g>
<!-- Node5&#45;&gt;Node23 -->
<g id="edge24" class="edge"><title>Node5&#45;&gt;Node23</title>
<path fill="none" stroke="midnightblue" d="M99.2134,-289.018C114.808,-287.161 132.157,-285.094 148.356,-283.164"/>
<polygon fill="midnightblue" stroke="midnightblue" points="98.7643,-285.547 89.2486,-290.205 99.5924,-292.498 98.7643,-285.547"/>
</g>
<!-- Node6&#45;&gt;Node4 -->
<g id="edge10" class="edge"><title>Node6&#45;&gt;Node4</title>
<path fill="none" stroke="midnightblue" d="M276.265,-248.553C280.209,-250.878 283.848,-253.665 287,-257 346.043,-319.457 263.817,-384.676 323,-447 326.647,-450.841 330.93,-453.96 335.58,-456.487"/>
<polygon fill="midnightblue" stroke="midnightblue" points="277.739,-245.378 267.214,-244.165 274.685,-251.677 277.739,-245.378"/>
</g>
<!-- Node7 -->
<g id="node7" class="node"><title>Node7</title>
<g id="a_node7"><a xlink:href="classerpc_1_1_dspi_master_transport.html" target="_top" xlink:title="Very basic transport to send/receive messages via DSPI. ">
<polygon fill="white" stroke="black" points="336.5,-304.5 336.5,-323.5 467.5,-323.5 467.5,-304.5 336.5,-304.5"/>
<text text-anchor="middle" x="402" y="-311.5" font-family="Helvetica,sans-Serif" font-size="10.00">erpc::DspiMasterTransport</text>
</a>
</g>
</g>
<!-- Node6&#45;&gt;Node7 -->
<g id="edge5" class="edge"><title>Node6&#45;&gt;Node7</title>
<path fill="none" stroke="midnightblue" d="M275.219,-251.198C279.311,-252.904 283.276,-254.829 287,-257 307.097,-268.719 302.877,-283.326 323,-295 329.631,-298.847 337.013,-301.917 344.517,-304.368"/>
<polygon fill="midnightblue" stroke="midnightblue" points="276.091,-247.789 265.498,-247.602 273.662,-254.354 276.091,-247.789"/>
</g>
<!-- Node8 -->
<g id="node8" class="node"><title>Node8</title>
<g id="a_node8"><a xlink:href="classerpc_1_1_dspi_slave_transport.html" target="_top" xlink:title="Very basic transport to send/receive messages via DSPI. ">
<polygon fill="white" stroke="black" points="339.5,-266.5 339.5,-285.5 464.5,-285.5 464.5,-266.5 339.5,-266.5"/>
<text text-anchor="middle" x="402" y="-273.5" font-family="Helvetica,sans-Serif" font-size="10.00">erpc::DspiSlaveTransport</text>
</a>
</g>
</g>
<!-- Node6&#45;&gt;Node8 -->
<g id="edge6" class="edge"><title>Node6&#45;&gt;Node8</title>
<path fill="none" stroke="midnightblue" d="M268.7,-249.61C295.794,-255.014 327.625,-261.364 353.274,-266.48"/>
<polygon fill="midnightblue" stroke="midnightblue" points="269.063,-246.113 258.571,-247.589 267.693,-252.978 269.063,-246.113"/>
</g>
<!-- Node9 -->
<g id="node9" class="node"><title>Node9</title>
<g id="a_node9"><a xlink:href="classerpc_1_1_i2c_slave_transport.html" target="_top" xlink:title="Very basic transport to send/receive messages via I2C. ">
<polygon fill="white" stroke="black" points="343,-228.5 343,-247.5 461,-247.5 461,-228.5 343,-228.5"/>
<text text-anchor="middle" x="402" y="-235.5" font-family="Helvetica,sans-Serif" font-size="10.00">erpc::I2cSlaveTransport</text>
</a>
</g>
</g>
<!-- Node6&#45;&gt;Node9 -->
<g id="edge7" class="edge"><title>Node6&#45;&gt;Node9</title>
<path fill="none" stroke="midnightblue" d="M277.147,-238C298.586,-238 322.156,-238 342.928,-238"/>
<polygon fill="midnightblue" stroke="midnightblue" points="277.141,-234.5 267.141,-238 277.14,-241.5 277.141,-234.5"/>
</g>
<!-- Node10 -->
<g id="node10" class="node"><title>Node10</title>
<g id="a_node10"><a xlink:href="classerpc_1_1_l_p_i2c_slave_transport.html" target="_top" xlink:title="Very basic transport to send/receive messages via LPI2C. ">
<polygon fill="white" stroke="black" points="337,-190.5 337,-209.5 467,-209.5 467,-190.5 337,-190.5"/>
<text text-anchor="middle" x="402" y="-197.5" font-family="Helvetica,sans-Serif" font-size="10.00">erpc::LPI2cSlaveTransport</text>
</a>
</g>
</g>
<!-- Node6&#45;&gt;Node10 -->
<g id="edge8" class="edge"><title>Node6&#45;&gt;Node10</title>
<path fill="none" stroke="midnightblue" d="M268.7,-226.39C295.794,-220.986 327.625,-214.636 353.274,-209.52"/>
<polygon fill="midnightblue" stroke="midnightblue" points="267.693,-223.022 258.571,-228.411 269.063,-229.887 267.693,-223.022"/>
</g>
<!-- Node11 -->
<g id="node11" class="node"><title>Node11</title>
<g id="a_node11"><a xlink:href="classerpc_1_1_l_p_spi_slave_transport.html" target="_top" xlink:title="Very basic transport to send/receive messages via LPSPI. ">
<polygon fill="white" stroke="black" points="336.5,-152.5 336.5,-171.5 467.5,-171.5 467.5,-152.5 336.5,-152.5"/>
<text text-anchor="middle" x="402" y="-159.5" font-family="Helvetica,sans-Serif" font-size="10.00">erpc::LPSpiSlaveTransport</text>
</a>
</g>
</g>
<!-- Node6&#45;&gt;Node11 -->
<g id="edge9" class="edge"><title>Node6&#45;&gt;Node11</title>
<path fill="none" stroke="midnightblue" d="M275.219,-224.802C279.311,-223.096 283.276,-221.171 287,-219 307.097,-207.281 302.877,-192.674 323,-181 329.631,-177.153 337.013,-174.083 344.517,-171.632"/>
<polygon fill="midnightblue" stroke="midnightblue" points="273.662,-221.646 265.498,-228.398 276.091,-228.211 273.662,-221.646"/>
</g>
<!-- Node12 -->
<g id="node12" class="node"><title>Node12</title>
<g id="a_node12"><a xlink:href="classerpc_1_1_serial_transport.html" target="_top" xlink:title="Serial transport layer for host PC. ">
<polygon fill="white" stroke="black" points="348.5,-114.5 348.5,-133.5 455.5,-133.5 455.5,-114.5 348.5,-114.5"/>
<text text-anchor="middle" x="402" y="-121.5" font-family="Helvetica,sans-Serif" font-size="10.00">erpc::SerialTransport</text>
</a>
</g>
</g>
<!-- Node6&#45;&gt;Node12 -->
<g id="edge11" class="edge"><title>Node6&#45;&gt;Node12</title>
<path fill="none" stroke="midnightblue" d="M276.322,-225.983C280.122,-223.993 283.724,-221.682 287,-219 315.922,-195.327 294.024,-166.608 323,-143 330.348,-137.013 339.295,-132.867 348.474,-130.005"/>
<polygon fill="midnightblue" stroke="midnightblue" points="274.861,-222.802 267.152,-230.071 277.711,-229.196 274.861,-222.802"/>
</g>
<!-- Node13 -->
<g id="node13" class="node"><title>Node13</title>
<g id="a_node13"><a xlink:href="classerpc_1_1_spidev_master_transport.html" target="_top" xlink:title="Very basic transport to send/receive messages via SPIdev. ">
<polygon fill="white" stroke="black" points="332,-76.5 332,-95.5 472,-95.5 472,-76.5 332,-76.5"/>
<text text-anchor="middle" x="402" y="-83.5" font-family="Helvetica,sans-Serif" font-size="10.00">erpc::SpidevMasterTransport</text>
</a>
</g>
</g>
<!-- Node6&#45;&gt;Node13 -->
<g id="edge12" class="edge"><title>Node6&#45;&gt;Node13</title>
<path fill="none" stroke="midnightblue" d="M276.36,-226.716C280.205,-224.554 283.802,-222.004 287,-219 325.725,-182.62 284.193,-141.292 323,-105 327.072,-101.192 331.776,-98.1101 336.814,-95.6204"/>
<polygon fill="midnightblue" stroke="midnightblue" points="274.583,-223.683 267.005,-231.088 277.547,-230.024 274.583,-223.683"/>
</g>
<!-- Node14 -->
<g id="node14" class="node"><title>Node14</title>
<g id="a_node14"><a xlink:href="classerpc_1_1_spi_master_transport.html" target="_top" xlink:title="Very basic transport to send/receive messages via SPI. ">
<polygon fill="white" stroke="black" points="339,-38.5 339,-57.5 465,-57.5 465,-38.5 339,-38.5"/>
<text text-anchor="middle" x="402" y="-45.5" font-family="Helvetica,sans-Serif" font-size="10.00">erpc::SpiMasterTransport</text>
</a>
</g>
</g>
<!-- Node6&#45;&gt;Node14 -->
<g id="edge13" class="edge"><title>Node6&#45;&gt;Node14</title>
<path fill="none" stroke="midnightblue" d="M276.617,-226.98C280.402,-224.755 283.914,-222.119 287,-219 335.823,-169.643 274.066,-116.247 323,-67 327.519,-62.4521 332.932,-58.9251 338.773,-56.199"/>
<polygon fill="midnightblue" stroke="midnightblue" points="274.842,-223.951 267.367,-231.459 277.893,-230.251 274.842,-223.951"/>
</g>
<!-- Node15 -->
<g id="node15" class="node"><title>Node15</title>
<g id="a_node15"><a xlink:href="classerpc_1_1_spi_slave_transport.html" target="_top" xlink:title="Very basic transport to send/receive messages via SPI. ">
<polygon fill="white" stroke="black" points="342.5,-0.5 342.5,-19.5 461.5,-19.5 461.5,-0.5 342.5,-0.5"/>
<text text-anchor="middle" x="402" y="-7.5" font-family="Helvetica,sans-Serif" font-size="10.00">erpc::SpiSlaveTransport</text>
</a>
</g>
</g>
<!-- Node6&#45;&gt;Node15 -->
<g id="edge14" class="edge"><title>Node6&#45;&gt;Node15</title>
<path fill="none" stroke="midnightblue" d="M276.265,-227.447C280.209,-225.122 283.848,-222.335 287,-219 346.043,-156.543 263.817,-91.3236 323,-29 328.375,-23.3402 335.13,-19.2474 342.405,-16.3069"/>
<polygon fill="midnightblue" stroke="midnightblue" points="274.685,-224.323 267.214,-231.835 277.739,-230.622 274.685,-224.323"/>
</g>
<!-- Node16 -->
<g id="node16" class="node"><title>Node16</title>
<g id="a_node16"><a xlink:href="classerpc_1_1_t_c_p_transport.html" target="_top" xlink:title="Client side of TCP/IP transport. ">
<polygon fill="white" stroke="black" points="351.5,-418.5 351.5,-437.5 452.5,-437.5 452.5,-418.5 351.5,-418.5"/>
<text text-anchor="middle" x="402" y="-425.5" font-family="Helvetica,sans-Serif" font-size="10.00">erpc::TCPTransport</text>
</a>
</g>
</g>
<!-- Node6&#45;&gt;Node16 -->
<g id="edge15" class="edge"><title>Node6&#45;&gt;Node16</title>
<path fill="none" stroke="midnightblue" d="M276.617,-249.02C280.402,-251.245 283.914,-253.881 287,-257 335.823,-306.357 274.066,-359.753 323,-409 330.663,-416.712 340.897,-421.488 351.424,-424.402"/>
<polygon fill="midnightblue" stroke="midnightblue" points="277.893,-245.749 267.367,-244.541 274.842,-252.049 277.893,-245.749"/>
</g>
<!-- Node17 -->
<g id="node17" class="node"><title>Node17</title>
<g id="a_node17"><a xlink:href="classerpc_1_1_uart_transport.html" target="_top" xlink:title="Very basic transport to send/receive messages via UART. ">
<polygon fill="white" stroke="black" points="352,-380.5 352,-399.5 452,-399.5 452,-380.5 352,-380.5"/>
<text text-anchor="middle" x="402" y="-387.5" font-family="Helvetica,sans-Serif" font-size="10.00">erpc::UartTransport</text>
</a>
</g>
</g>
<!-- Node6&#45;&gt;Node17 -->
<g id="edge16" class="edge"><title>Node6&#45;&gt;Node17</title>
<path fill="none" stroke="midnightblue" d="M276.36,-249.284C280.205,-251.446 283.802,-253.996 287,-257 325.725,-293.38 284.193,-334.708 323,-371 330.94,-378.426 341.283,-383.09 351.827,-385.987"/>
<polygon fill="midnightblue" stroke="midnightblue" points="277.547,-245.976 267.005,-244.912 274.583,-252.317 277.547,-245.976"/>
</g>
<!-- Node18 -->
<g id="node18" class="node"><title>Node18</title>
<g id="a_node18"><a xlink:href="classerpc_1_1_usb_cdc_transport.html" target="_top" xlink:title="Very basic transport to send/receive messages via virtual USB CDC port. ">
<polygon fill="white" stroke="black" points="344,-342.5 344,-361.5 460,-361.5 460,-342.5 344,-342.5"/>
<text text-anchor="middle" x="402" y="-349.5" font-family="Helvetica,sans-Serif" font-size="10.00">erpc::UsbCdcTransport</text>
</a>
</g>
</g>
<!-- Node6&#45;&gt;Node18 -->
<g id="edge17" class="edge"><title>Node6&#45;&gt;Node18</title>
<path fill="none" stroke="midnightblue" d="M276.322,-250.017C280.122,-252.007 283.724,-254.318 287,-257 315.922,-280.673 294.024,-309.392 323,-333 329.051,-337.93 336.187,-341.612 343.644,-344.357"/>
<polygon fill="midnightblue" stroke="midnightblue" points="277.711,-246.804 267.152,-245.929 274.861,-253.198 277.711,-246.804"/>
</g>
</g>
</svg>
