<?xml version="1.0" encoding="UTF-8" standalone="no"?>
<!DOCTYPE svg PUBLIC "-//W3C//DTD SVG 1.1//EN"
 "http://www.w3.org/Graphics/SVG/1.1/DTD/svg11.dtd">
<!-- Generated by graphviz version 2.38.0 (20140413.2041)
 -->
<!-- Title: inter_thread_buffer_transport.h Pages: 1 -->
<svg width="433pt" height="263pt"
 viewBox="0.00 0.00 433.00 263.00" xmlns="http://www.w3.org/2000/svg" xmlns:xlink="http://www.w3.org/1999/xlink">
<g id="graph0" class="graph" transform="scale(1 1) rotate(0) translate(4 259)">
<title>inter_thread_buffer_transport.h</title>
<polygon fill="white" stroke="none" points="-4,4 -4,-259 429,-259 429,4 -4,4"/>
<!-- Node1 -->
<g id="node1" class="node"><title>Node1</title>
<polygon fill="#bfbfbf" stroke="black" points="183.5,-224.5 183.5,-254.5 279.5,-254.5 279.5,-224.5 183.5,-224.5"/>
<text text-anchor="start" x="191.5" y="-242.5" font-family="Helvetica,sans-Serif" font-size="10.00">inter_thread_buffer</text>
<text text-anchor="middle" x="231.5" y="-231.5" font-family="Helvetica,sans-Serif" font-size="10.00">_transport.h</text>
</g>
<!-- Node2 -->
<g id="node2" class="node"><title>Node2</title>
<g id="a_node2"><a xlink:href="erpc__threading_8h.html" target="_top" xlink:title="erpc_threading.h">
<polygon fill="white" stroke="black" points="95,-168.5 95,-187.5 184,-187.5 184,-168.5 95,-168.5"/>
<text text-anchor="middle" x="139.5" y="-175.5" font-family="Helvetica,sans-Serif" font-size="10.00">erpc_threading.h</text>
</a>
</g>
</g>
<!-- Node1&#45;&gt;Node2 -->
<g id="edge1" class="edge"><title>Node1&#45;&gt;Node2</title>
<path fill="none" stroke="midnightblue" d="M209.697,-224.399C195.088,-214.951 175.927,-202.559 161.315,-193.109"/>
<polygon fill="midnightblue" stroke="midnightblue" points="163.184,-190.15 152.887,-187.658 159.383,-196.027 163.184,-190.15"/>
</g>
<!-- Node6 -->
<g id="node6" class="node"><title>Node6</title>
<g id="a_node6"><a xlink:href="message__buffer_8h.html" target="_top" xlink:title="message_buffer.h">
<polygon fill="white" stroke="black" points="185,-112.5 185,-131.5 278,-131.5 278,-112.5 185,-112.5"/>
<text text-anchor="middle" x="231.5" y="-119.5" font-family="Helvetica,sans-Serif" font-size="10.00">message_buffer.h</text>
</a>
</g>
</g>
<!-- Node1&#45;&gt;Node6 -->
<g id="edge5" class="edge"><title>Node1&#45;&gt;Node6</title>
<path fill="none" stroke="midnightblue" d="M231.5,-224.337C231.5,-203.622 231.5,-165.016 231.5,-141.899"/>
<polygon fill="midnightblue" stroke="midnightblue" points="235,-141.669 231.5,-131.669 228,-141.669 235,-141.669"/>
</g>
<!-- Node9 -->
<g id="node9" class="node"><title>Node9</title>
<g id="a_node9"><a xlink:href="transport_8h.html" target="_top" xlink:title="transport.h">
<polygon fill="white" stroke="black" points="280,-168.5 280,-187.5 343,-187.5 343,-168.5 280,-168.5"/>
<text text-anchor="middle" x="311.5" y="-175.5" font-family="Helvetica,sans-Serif" font-size="10.00">transport.h</text>
</a>
</g>
</g>
<!-- Node1&#45;&gt;Node9 -->
<g id="edge10" class="edge"><title>Node1&#45;&gt;Node9</title>
<path fill="none" stroke="midnightblue" d="M250.459,-224.399C262.923,-215.129 279.197,-203.025 291.807,-193.647"/>
<polygon fill="midnightblue" stroke="midnightblue" points="293.924,-196.434 299.859,-187.658 289.747,-190.817 293.924,-196.434"/>
</g>
<!-- Node3 -->
<g id="node3" class="node"><title>Node3</title>
<g id="a_node3"><a xlink:href="erpc__config__internal_8h_source.html" target="_top" xlink:title="erpc_config_internal.h">
<polygon fill="white" stroke="black" points="0,-112.5 0,-131.5 111,-131.5 111,-112.5 0,-112.5"/>
<text text-anchor="middle" x="55.5" y="-119.5" font-family="Helvetica,sans-Serif" font-size="10.00">erpc_config_internal.h</text>
</a>
</g>
</g>
<!-- Node2&#45;&gt;Node3 -->
<g id="edge2" class="edge"><title>Node2&#45;&gt;Node3</title>
<path fill="none" stroke="midnightblue" d="M126.004,-168.324C112.9,-159.9 92.7881,-146.971 77.3931,-137.074"/>
<polygon fill="midnightblue" stroke="midnightblue" points="79.267,-134.118 68.9626,-131.655 75.4817,-140.006 79.267,-134.118"/>
</g>
<!-- Node5 -->
<g id="node5" class="node"><title>Node5</title>
<polygon fill="white" stroke="#bfbfbf" points="221,-0.5 221,-19.5 270,-19.5 270,-0.5 221,-0.5"/>
<text text-anchor="middle" x="245.5" y="-7.5" font-family="Helvetica,sans-Serif" font-size="10.00">stdint.h</text>
</g>
<!-- Node2&#45;&gt;Node5 -->
<g id="edge4" class="edge"><title>Node2&#45;&gt;Node5</title>
<path fill="none" stroke="midnightblue" d="M141.59,-168.354C146.958,-147.432 162.79,-93.064 190.5,-56 199.36,-44.1488 211.991,-33.5249 222.914,-25.5796"/>
<polygon fill="midnightblue" stroke="midnightblue" points="224.995,-28.3952 231.203,-19.8097 220.996,-22.65 224.995,-28.3952"/>
</g>
<!-- Node4 -->
<g id="node4" class="node"><title>Node4</title>
<g id="a_node4"><a xlink:href="erpc__config_8h.html" target="_top" xlink:title="erpc_config.h">
<polygon fill="white" stroke="black" points="18.5,-56.5 18.5,-75.5 92.5,-75.5 92.5,-56.5 18.5,-56.5"/>
<text text-anchor="middle" x="55.5" y="-63.5" font-family="Helvetica,sans-Serif" font-size="10.00">erpc_config.h</text>
</a>
</g>
</g>
<!-- Node3&#45;&gt;Node4 -->
<g id="edge3" class="edge"><title>Node3&#45;&gt;Node4</title>
<path fill="none" stroke="midnightblue" d="M55.5,-112.083C55.5,-105.006 55.5,-94.8611 55.5,-85.9865"/>
<polygon fill="midnightblue" stroke="midnightblue" points="59.0001,-85.751 55.5,-75.7511 52.0001,-85.7511 59.0001,-85.751"/>
</g>
<!-- Node6&#45;&gt;Node5 -->
<g id="edge9" class="edge"><title>Node6&#45;&gt;Node5</title>
<path fill="none" stroke="midnightblue" d="M221.177,-112.391C207.829,-100.153 187.323,-76.8867 196.5,-56 201.89,-43.732 212.458,-33.3414 222.404,-25.6461"/>
<polygon fill="midnightblue" stroke="midnightblue" points="224.752,-28.2697 230.839,-19.598 220.672,-22.5811 224.752,-28.2697"/>
</g>
<!-- Node7 -->
<g id="node7" class="node"><title>Node7</title>
<g id="a_node7"><a xlink:href="erpc__common_8h_source.html" target="_top" xlink:title="erpc_common.h">
<polygon fill="white" stroke="black" points="271.5,-56.5 271.5,-75.5 357.5,-75.5 357.5,-56.5 271.5,-56.5"/>
<text text-anchor="middle" x="314.5" y="-63.5" font-family="Helvetica,sans-Serif" font-size="10.00">erpc_common.h</text>
</a>
</g>
</g>
<!-- Node6&#45;&gt;Node7 -->
<g id="edge6" class="edge"><title>Node6&#45;&gt;Node7</title>
<path fill="none" stroke="midnightblue" d="M244.835,-112.324C257.662,-103.979 277.285,-91.2122 292.44,-81.3524"/>
<polygon fill="midnightblue" stroke="midnightblue" points="294.724,-84.0417 301.198,-75.6545 290.907,-78.1742 294.724,-84.0417"/>
</g>
<!-- Node8 -->
<g id="node8" class="node"><title>Node8</title>
<polygon fill="white" stroke="#bfbfbf" points="205.5,-56.5 205.5,-75.5 253.5,-75.5 253.5,-56.5 205.5,-56.5"/>
<text text-anchor="middle" x="229.5" y="-63.5" font-family="Helvetica,sans-Serif" font-size="10.00">cstddef</text>
</g>
<!-- Node6&#45;&gt;Node8 -->
<g id="edge8" class="edge"><title>Node6&#45;&gt;Node8</title>
<path fill="none" stroke="midnightblue" d="M231.17,-112.083C230.908,-105.006 230.532,-94.8611 230.203,-85.9865"/>
<polygon fill="midnightblue" stroke="midnightblue" points="233.692,-85.6147 229.824,-75.7511 226.697,-85.8738 233.692,-85.6147"/>
</g>
<!-- Node7&#45;&gt;Node5 -->
<g id="edge7" class="edge"><title>Node7&#45;&gt;Node5</title>
<path fill="none" stroke="midnightblue" d="M303.414,-56.324C293.014,-48.1849 277.239,-35.8395 264.778,-26.0874"/>
<polygon fill="midnightblue" stroke="midnightblue" points="266.82,-23.2407 256.788,-19.8339 262.506,-28.7533 266.82,-23.2407"/>
</g>
<!-- Node9&#45;&gt;Node6 -->
<g id="edge14" class="edge"><title>Node9&#45;&gt;Node6</title>
<path fill="none" stroke="midnightblue" d="M298.647,-168.324C286.284,-159.979 267.37,-147.212 252.763,-137.352"/>
<polygon fill="midnightblue" stroke="midnightblue" points="254.568,-134.348 244.321,-131.655 250.652,-140.15 254.568,-134.348"/>
</g>
<!-- Node9&#45;&gt;Node7 -->
<g id="edge11" class="edge"><title>Node9&#45;&gt;Node7</title>
<path fill="none" stroke="midnightblue" d="M311.735,-168.368C312.22,-150.617 313.336,-109.666 313.993,-85.5974"/>
<polygon fill="midnightblue" stroke="midnightblue" points="317.492,-85.6832 314.266,-75.5914 310.494,-85.4922 317.492,-85.6832"/>
</g>
<!-- Node10 -->
<g id="node10" class="node"><title>Node10</title>
<g id="a_node10"><a xlink:href="crc16_8h.html" target="_top" xlink:title="crc16.h">
<polygon fill="white" stroke="black" points="376,-56.5 376,-75.5 425,-75.5 425,-56.5 376,-56.5"/>
<text text-anchor="middle" x="400.5" y="-63.5" font-family="Helvetica,sans-Serif" font-size="10.00">crc16.h</text>
</a>
</g>
</g>
<!-- Node9&#45;&gt;Node10 -->
<g id="edge12" class="edge"><title>Node9&#45;&gt;Node10</title>
<path fill="none" stroke="midnightblue" d="M318.484,-168.368C333.236,-150.135 367.792,-107.426 387.008,-83.6752"/>
<polygon fill="midnightblue" stroke="midnightblue" points="389.98,-85.567 393.549,-75.5914 384.538,-81.164 389.98,-85.567"/>
</g>
<!-- Node11 -->
<g id="node11" class="node"><title>Node11</title>
<polygon fill="white" stroke="#bfbfbf" points="377.5,-112.5 377.5,-131.5 423.5,-131.5 423.5,-112.5 377.5,-112.5"/>
<text text-anchor="middle" x="400.5" y="-119.5" font-family="Helvetica,sans-Serif" font-size="10.00">cstring</text>
</g>
<!-- Node9&#45;&gt;Node11 -->
<g id="edge15" class="edge"><title>Node9&#45;&gt;Node11</title>
<path fill="none" stroke="midnightblue" d="M325.799,-168.324C339.683,-159.9 360.992,-146.971 377.304,-137.074"/>
<polygon fill="midnightblue" stroke="midnightblue" points="379.502,-139.834 386.236,-131.655 375.871,-133.85 379.502,-139.834"/>
</g>
<!-- Node10&#45;&gt;Node5 -->
<g id="edge13" class="edge"><title>Node10&#45;&gt;Node5</title>
<path fill="none" stroke="midnightblue" d="M375.94,-56.4435C349.977,-47.3986 308.832,-33.064 279.703,-22.9158"/>
<polygon fill="midnightblue" stroke="midnightblue" points="280.54,-19.5013 269.945,-19.5164 278.237,-26.1116 280.54,-19.5013"/>
</g>
</g>
</svg>
