<?xml version="1.0" encoding="UTF-8" standalone="no"?>
<!DOCTYPE svg PUBLIC "-//W3C//DTD SVG 1.1//EN"
 "http://www.w3.org/Graphics/SVG/1.1/DTD/svg11.dtd">
<!-- Generated by graphviz version 2.38.0 (20140413.2041)
 -->
<!-- Title: message_buffer.h Pages: 1 -->
<svg width="1801pt" height="263pt"
 viewBox="0.00 0.00 1801.00 263.00" xmlns="http://www.w3.org/2000/svg" xmlns:xlink="http://www.w3.org/1999/xlink">
<g id="graph0" class="graph" transform="scale(1 1) rotate(0) translate(4 259)">
<title>message_buffer.h</title>
<polygon fill="white" stroke="none" points="-4,4 -4,-259 1797,-259 1797,4 -4,4"/>
<!-- Node1 -->
<g id="node1" class="node"><title>Node1</title>
<polygon fill="#bfbfbf" stroke="black" points="1516.5,-235.5 1516.5,-254.5 1609.5,-254.5 1609.5,-235.5 1516.5,-235.5"/>
<text text-anchor="middle" x="1563" y="-242.5" font-family="Helvetica,sans-Serif" font-size="10.00">message_buffer.h</text>
</g>
<!-- Node2 -->
<g id="node2" class="node"><title>Node2</title>
<g id="a_node2"><a xlink:href="codec_8h.html" target="_top" xlink:title="codec.h">
<polygon fill="white" stroke="black" points="250.5,-118 250.5,-137 301.5,-137 301.5,-118 250.5,-118"/>
<text text-anchor="middle" x="276" y="-125" font-family="Helvetica,sans-Serif" font-size="10.00">codec.h</text>
</a>
</g>
</g>
<!-- Node1&#45;&gt;Node2 -->
<g id="edge1" class="edge"><title>Node1&#45;&gt;Node2</title>
<path fill="none" stroke="midnightblue" d="M1506.18,-238.901C1281.25,-218.715 457.823,-144.817 301.66,-130.803"/>
<polygon fill="midnightblue" stroke="midnightblue" points="1506.16,-242.413 1516.43,-239.821 1506.79,-235.441 1506.16,-242.413"/>
</g>
<!-- Node10 -->
<g id="node10" class="node"><title>Node10</title>
<g id="a_node10"><a xlink:href="transport_8h.html" target="_top" xlink:title="transport.h">
<polygon fill="white" stroke="black" points="1230.5,-179.5 1230.5,-198.5 1293.5,-198.5 1293.5,-179.5 1230.5,-179.5"/>
<text text-anchor="middle" x="1262" y="-186.5" font-family="Helvetica,sans-Serif" font-size="10.00">transport.h</text>
</a>
</g>
</g>
<!-- Node1&#45;&gt;Node10 -->
<g id="edge10" class="edge"><title>Node1&#45;&gt;Node10</title>
<path fill="none" stroke="midnightblue" d="M1506.14,-233.798C1443.18,-222.503 1343.94,-204.7 1293.58,-195.665"/>
<polygon fill="midnightblue" stroke="midnightblue" points="1505.84,-237.301 1516.3,-235.622 1507.07,-230.411 1505.84,-237.301"/>
</g>
<!-- Node11 -->
<g id="node11" class="node"><title>Node11</title>
<g id="a_node11"><a xlink:href="framed__transport_8h.html" target="_top" xlink:title="framed_transport.h">
<polygon fill="white" stroke="black" points="835,-118 835,-137 933,-137 933,-118 835,-118"/>
<text text-anchor="middle" x="884" y="-125" font-family="Helvetica,sans-Serif" font-size="10.00">framed_transport.h</text>
</a>
</g>
</g>
<!-- Node1&#45;&gt;Node11 -->
<g id="edge29" class="edge"><title>Node1&#45;&gt;Node11</title>
<path fill="none" stroke="midnightblue" d="M1506.17,-237.812C1438.33,-230.121 1321.53,-215.923 1222,-199 1111.49,-180.21 982.078,-151.253 920.343,-137.009"/>
<polygon fill="midnightblue" stroke="midnightblue" points="1505.9,-241.303 1516.23,-238.944 1506.68,-234.347 1505.9,-241.303"/>
</g>
<!-- Node20 -->
<g id="node20" class="node"><title>Node20</title>
<g id="a_node20"><a xlink:href="inter__thread__buffer__transport_8h.html" target="_top" xlink:title="inter_thread_buffer\l_transport.h">
<polygon fill="white" stroke="black" points="1470,-112.5 1470,-142.5 1566,-142.5 1566,-112.5 1470,-112.5"/>
<text text-anchor="start" x="1478" y="-130.5" font-family="Helvetica,sans-Serif" font-size="10.00">inter_thread_buffer</text>
<text text-anchor="middle" x="1518" y="-119.5" font-family="Helvetica,sans-Serif" font-size="10.00">_transport.h</text>
</a>
</g>
</g>
<!-- Node1&#45;&gt;Node20 -->
<g id="edge30" class="edge"><title>Node1&#45;&gt;Node20</title>
<path fill="none" stroke="midnightblue" d="M1555.87,-225.699C1546.87,-202.612 1531.6,-163.411 1523.47,-142.545"/>
<polygon fill="midnightblue" stroke="midnightblue" points="1552.73,-227.272 1559.62,-235.319 1559.25,-224.73 1552.73,-227.272"/>
</g>
<!-- Node21 -->
<g id="node21" class="node"><title>Node21</title>
<g id="a_node21"><a xlink:href="mu__transport_8h.html" target="_top" xlink:title="mu_transport.h">
<polygon fill="white" stroke="black" points="1584,-118 1584,-137 1666,-137 1666,-118 1584,-118"/>
<text text-anchor="middle" x="1625" y="-125" font-family="Helvetica,sans-Serif" font-size="10.00">mu_transport.h</text>
</a>
</g>
</g>
<!-- Node1&#45;&gt;Node21 -->
<g id="edge31" class="edge"><title>Node1&#45;&gt;Node21</title>
<path fill="none" stroke="midnightblue" d="M1572.57,-226.179C1586.05,-201.057 1610.14,-156.187 1620.29,-137.282"/>
<polygon fill="midnightblue" stroke="midnightblue" points="1569.31,-224.853 1567.66,-235.319 1575.47,-228.163 1569.31,-224.853"/>
</g>
<!-- Node24 -->
<g id="node24" class="node"><title>Node24</title>
<g id="a_node24"><a xlink:href="rpmsg__lite__rtos__transport_8h.html" target="_top" xlink:title="rpmsg_lite_rtos_transport.h">
<polygon fill="white" stroke="black" points="1299.5,-56.5 1299.5,-75.5 1434.5,-75.5 1434.5,-56.5 1299.5,-56.5"/>
<text text-anchor="middle" x="1367" y="-63.5" font-family="Helvetica,sans-Serif" font-size="10.00">rpmsg_lite_rtos_transport.h</text>
</a>
</g>
</g>
<!-- Node1&#45;&gt;Node24 -->
<g id="edge32" class="edge"><title>Node1&#45;&gt;Node24</title>
<path fill="none" stroke="midnightblue" d="M1589.22,-230.662C1632.91,-206.761 1712.26,-155.105 1675,-112 1659.49,-94.0635 1520.5,-79.5708 1434.61,-72.2298"/>
<polygon fill="midnightblue" stroke="midnightblue" points="1587.42,-227.66 1580.25,-235.46 1590.72,-233.834 1587.42,-227.66"/>
</g>
<!-- Node25 -->
<g id="node25" class="node"><title>Node25</title>
<g id="a_node25"><a xlink:href="rpmsg__lite__transport_8h.html" target="_top" xlink:title="rpmsg_lite_transport.h">
<polygon fill="white" stroke="black" points="1502.5,-56.5 1502.5,-75.5 1615.5,-75.5 1615.5,-56.5 1502.5,-56.5"/>
<text text-anchor="middle" x="1559" y="-63.5" font-family="Helvetica,sans-Serif" font-size="10.00">rpmsg_lite_transport.h</text>
</a>
</g>
</g>
<!-- Node1&#45;&gt;Node25 -->
<g id="edge33" class="edge"><title>Node1&#45;&gt;Node25</title>
<path fill="none" stroke="midnightblue" d="M1619.73,-241.979C1651.15,-237.594 1687.83,-226.383 1708,-199 1730.93,-167.869 1731.05,-143.043 1708,-112 1696,-95.8376 1647.49,-83.245 1609.04,-75.542"/>
<polygon fill="midnightblue" stroke="midnightblue" points="1619.26,-238.511 1609.75,-243.175 1620.09,-245.461 1619.26,-238.511"/>
</g>
<!-- Node26 -->
<g id="node26" class="node"><title>Node26</title>
<g id="a_node26"><a xlink:href="rpmsg__tty__rtos__transport_8h.html" target="_top" xlink:title="rpmsg_tty_rtos_transport.h">
<polygon fill="white" stroke="black" points="1659,-56.5 1659,-75.5 1793,-75.5 1793,-56.5 1659,-56.5"/>
<text text-anchor="middle" x="1726" y="-63.5" font-family="Helvetica,sans-Serif" font-size="10.00">rpmsg_tty_rtos_transport.h</text>
</a>
</g>
</g>
<!-- Node1&#45;&gt;Node26 -->
<g id="edge34" class="edge"><title>Node1&#45;&gt;Node26</title>
<path fill="none" stroke="midnightblue" d="M1619.38,-235.759C1661.32,-228.363 1713.52,-216.041 1727,-199 1756.43,-161.797 1737.61,-98.4536 1729.33,-75.5678"/>
<polygon fill="midnightblue" stroke="midnightblue" points="1618.79,-232.309 1609.52,-237.442 1619.97,-239.21 1618.79,-232.309"/>
</g>
<!-- Node3 -->
<g id="node3" class="node"><title>Node3</title>
<g id="a_node3"><a xlink:href="client__manager_8h.html" target="_top" xlink:title="client_manager.h">
<polygon fill="white" stroke="black" points="193.5,-56.5 193.5,-75.5 284.5,-75.5 284.5,-56.5 193.5,-56.5"/>
<text text-anchor="middle" x="239" y="-63.5" font-family="Helvetica,sans-Serif" font-size="10.00">client_manager.h</text>
</a>
</g>
</g>
<!-- Node2&#45;&gt;Node3 -->
<g id="edge2" class="edge"><title>Node2&#45;&gt;Node3</title>
<path fill="none" stroke="midnightblue" d="M265.224,-109.171C258.344,-98.1075 249.728,-84.2512 244.291,-75.5091"/>
<polygon fill="midnightblue" stroke="midnightblue" points="262.446,-111.331 270.699,-117.975 268.39,-107.635 262.446,-111.331"/>
</g>
<!-- Node5 -->
<g id="node5" class="node"><title>Node5</title>
<g id="a_node5"><a xlink:href="transport__arbitrator_8h.html" target="_top" xlink:title="transport_arbitrator.h">
<polygon fill="white" stroke="black" points="376.5,-0.5 376.5,-19.5 483.5,-19.5 483.5,-0.5 376.5,-0.5"/>
<text text-anchor="middle" x="430" y="-7.5" font-family="Helvetica,sans-Serif" font-size="10.00">transport_arbitrator.h</text>
</a>
</g>
</g>
<!-- Node2&#45;&gt;Node5 -->
<g id="edge6" class="edge"><title>Node2&#45;&gt;Node5</title>
<path fill="none" stroke="midnightblue" d="M286.558,-108.926C296.633,-93.358 313.054,-70.8566 332,-56 353.362,-39.249 381.965,-27.037 402.753,-19.5962"/>
<polygon fill="midnightblue" stroke="midnightblue" points="283.473,-107.259 281.139,-117.593 289.409,-110.97 283.473,-107.259"/>
</g>
<!-- Node7 -->
<g id="node7" class="node"><title>Node7</title>
<g id="a_node7"><a xlink:href="basic__codec_8h.html" target="_top" xlink:title="basic_codec.h">
<polygon fill="white" stroke="black" points="27,-56.5 27,-75.5 107,-75.5 107,-56.5 27,-56.5"/>
<text text-anchor="middle" x="67" y="-63.5" font-family="Helvetica,sans-Serif" font-size="10.00">basic_codec.h</text>
</a>
</g>
</g>
<!-- Node2&#45;&gt;Node7 -->
<g id="edge7" class="edge"><title>Node2&#45;&gt;Node7</title>
<path fill="none" stroke="midnightblue" d="M240.674,-116.443C200.281,-104.944 134.855,-86.3176 96.8891,-75.5091"/>
<polygon fill="midnightblue" stroke="midnightblue" points="239.796,-119.832 250.372,-119.204 241.713,-113.1 239.796,-119.832"/>
</g>
<!-- Node8 -->
<g id="node8" class="node"><title>Node8</title>
<g id="a_node8"><a xlink:href="server_8h.html" target="_top" xlink:title="server.h">
<polygon fill="white" stroke="black" points="125,-56.5 125,-75.5 175,-75.5 175,-56.5 125,-56.5"/>
<text text-anchor="middle" x="150" y="-63.5" font-family="Helvetica,sans-Serif" font-size="10.00">server.h</text>
</a>
</g>
</g>
<!-- Node2&#45;&gt;Node8 -->
<g id="edge8" class="edge"><title>Node2&#45;&gt;Node8</title>
<path fill="none" stroke="midnightblue" d="M248.84,-113.674C224.39,-102.129 189.15,-85.4875 168.019,-75.5091"/>
<polygon fill="midnightblue" stroke="midnightblue" points="247.41,-116.87 257.947,-117.975 250.399,-110.54 247.41,-116.87"/>
</g>
<!-- Node4 -->
<g id="node4" class="node"><title>Node4</title>
<g id="a_node4"><a xlink:href="arbitrated__client__manager_8h.html" target="_top" xlink:title="arbitrated_client_manager.h">
<polygon fill="white" stroke="black" points="102.5,-0.5 102.5,-19.5 239.5,-19.5 239.5,-0.5 102.5,-0.5"/>
<text text-anchor="middle" x="171" y="-7.5" font-family="Helvetica,sans-Serif" font-size="10.00">arbitrated_client_manager.h</text>
</a>
</g>
</g>
<!-- Node3&#45;&gt;Node4 -->
<g id="edge3" class="edge"><title>Node3&#45;&gt;Node4</title>
<path fill="none" stroke="midnightblue" d="M220.238,-50.1008C208,-40.3824 192.441,-28.0269 182.124,-19.8339"/>
<polygon fill="midnightblue" stroke="midnightblue" points="218.067,-52.846 228.075,-56.324 222.42,-47.3642 218.067,-52.846"/>
</g>
<!-- Node3&#45;&gt;Node5 -->
<g id="edge4" class="edge"><title>Node3&#45;&gt;Node5</title>
<path fill="none" stroke="midnightblue" d="M278.973,-53.6986C315.021,-43.507 367.243,-28.7429 399.877,-19.5164"/>
<polygon fill="midnightblue" stroke="midnightblue" points="277.935,-50.3549 269.265,-56.4435 279.84,-57.0909 277.935,-50.3549"/>
</g>
<!-- Node6 -->
<g id="node6" class="node"><title>Node6</title>
<g id="a_node6"><a xlink:href="erpc__client__setup_8h.html" target="_top" xlink:title="erpc_client_setup.h">
<polygon fill="white" stroke="black" points="257.5,-0.5 257.5,-19.5 358.5,-19.5 358.5,-0.5 257.5,-0.5"/>
<text text-anchor="middle" x="308" y="-7.5" font-family="Helvetica,sans-Serif" font-size="10.00">erpc_client_setup.h</text>
</a>
</g>
</g>
<!-- Node3&#45;&gt;Node6 -->
<g id="edge5" class="edge"><title>Node3&#45;&gt;Node6</title>
<path fill="none" stroke="midnightblue" d="M258.038,-50.1008C270.456,-40.3824 286.243,-28.0269 296.712,-19.8339"/>
<polygon fill="midnightblue" stroke="midnightblue" points="255.804,-47.4046 250.086,-56.324 260.118,-52.9171 255.804,-47.4046"/>
</g>
<!-- Node9 -->
<g id="node9" class="node"><title>Node9</title>
<g id="a_node9"><a xlink:href="simple__server_8h.html" target="_top" xlink:title="simple_server.h">
<polygon fill="white" stroke="black" points="0,-0.5 0,-19.5 84,-19.5 84,-0.5 0,-0.5"/>
<text text-anchor="middle" x="42" y="-7.5" font-family="Helvetica,sans-Serif" font-size="10.00">simple_server.h</text>
</a>
</g>
</g>
<!-- Node8&#45;&gt;Node9 -->
<g id="edge9" class="edge"><title>Node8&#45;&gt;Node9</title>
<path fill="none" stroke="midnightblue" d="M123.452,-51.7261C103.454,-41.7271 76.613,-28.3065 59.309,-19.6545"/>
<polygon fill="midnightblue" stroke="midnightblue" points="122.138,-54.9823 132.648,-56.324 125.269,-48.7213 122.138,-54.9823"/>
</g>
<!-- Node10&#45;&gt;Node2 -->
<g id="edge11" class="edge"><title>Node10&#45;&gt;Node2</title>
<path fill="none" stroke="midnightblue" d="M1219.94,-185.462C1052.54,-175.36 436.109,-138.162 301.905,-130.063"/>
<polygon fill="midnightblue" stroke="midnightblue" points="1220.12,-188.979 1230.31,-186.088 1220.54,-181.992 1220.12,-188.979"/>
</g>
<!-- Node10&#45;&gt;Node5 -->
<g id="edge12" class="edge"><title>Node10&#45;&gt;Node5</title>
<path fill="none" stroke="midnightblue" d="M1222.79,-175.46C1207.58,-168.457 1191.74,-158.03 1183,-143 1176.08,-131.088 1178.88,-125.148 1183,-112 1191.15,-85.9892 1226.71,-75.8219 1208,-56 1183.14,-29.6649 655.573,-15.9021 483.644,-12.1043"/>
<polygon fill="midnightblue" stroke="midnightblue" points="1221.54,-178.731 1232.12,-179.387 1224.26,-172.28 1221.54,-178.731"/>
</g>
<!-- Node10&#45;&gt;Node11 -->
<g id="edge13" class="edge"><title>Node10&#45;&gt;Node11</title>
<path fill="none" stroke="midnightblue" d="M1220.16,-181.415C1149.77,-170.335 1008.01,-148.021 933.051,-136.221"/>
<polygon fill="midnightblue" stroke="midnightblue" points="1220,-184.932 1230.42,-183.029 1221.09,-178.017 1220,-184.932"/>
</g>
<!-- Node19 -->
<g id="node19" class="node"><title>Node19</title>
<g id="a_node19"><a xlink:href="message__loggers_8h.html" target="_top" xlink:title="message_loggers.h">
<polygon fill="white" stroke="black" points="1350.5,-118 1350.5,-137 1451.5,-137 1451.5,-118 1350.5,-118"/>
<text text-anchor="middle" x="1401" y="-125" font-family="Helvetica,sans-Serif" font-size="10.00">message_loggers.h</text>
</a>
</g>
</g>
<!-- Node10&#45;&gt;Node19 -->
<g id="edge21" class="edge"><title>Node10&#45;&gt;Node19</title>
<path fill="none" stroke="midnightblue" d="M1291.25,-175.48C1318.25,-163.924 1357.6,-147.076 1381.12,-137.009"/>
<polygon fill="midnightblue" stroke="midnightblue" points="1289.73,-172.322 1281.92,-179.475 1292.49,-178.757 1289.73,-172.322"/>
</g>
<!-- Node10&#45;&gt;Node20 -->
<g id="edge22" class="edge"><title>Node10&#45;&gt;Node20</title>
<path fill="none" stroke="midnightblue" d="M1303.77,-178.895C1344.09,-170.026 1406.82,-156.014 1461,-143 1463.88,-142.308 1466.84,-141.587 1469.82,-140.852"/>
<polygon fill="midnightblue" stroke="midnightblue" points="1302.79,-175.527 1293.77,-181.09 1304.29,-182.365 1302.79,-175.527"/>
</g>
<!-- Node10&#45;&gt;Node21 -->
<g id="edge23" class="edge"><title>Node10&#45;&gt;Node21</title>
<path fill="none" stroke="midnightblue" d="M1304.08,-183.836C1364.49,-177.434 1479.07,-163.701 1575,-143 1582.6,-141.36 1590.73,-139.186 1598.19,-137.021"/>
<polygon fill="midnightblue" stroke="midnightblue" points="1303.39,-180.39 1293.8,-184.91 1304.11,-187.352 1303.39,-180.39"/>
</g>
<!-- Node22 -->
<g id="node22" class="node"><title>Node22</title>
<g id="a_node22"><a xlink:href="rpmsg__linux__transport_8h_source.html" target="_top" xlink:title="rpmsg_linux_transport.h">
<polygon fill="white" stroke="black" points="1014.5,-118 1014.5,-137 1135.5,-137 1135.5,-118 1014.5,-118"/>
<text text-anchor="middle" x="1075" y="-125" font-family="Helvetica,sans-Serif" font-size="10.00">rpmsg_linux_transport.h</text>
</a>
</g>
</g>
<!-- Node10&#45;&gt;Node22 -->
<g id="edge24" class="edge"><title>Node10&#45;&gt;Node22</title>
<path fill="none" stroke="midnightblue" d="M1225.48,-176.381C1189.13,-164.815 1134.21,-147.341 1101.74,-137.009"/>
<polygon fill="midnightblue" stroke="midnightblue" points="1224.62,-179.778 1235.21,-179.475 1226.74,-173.108 1224.62,-179.778"/>
</g>
<!-- Node23 -->
<g id="node23" class="node"><title>Node23</title>
<g id="a_node23"><a xlink:href="rpmsg__lite__base__transport_8h.html" target="_top" xlink:title="rpmsg_lite_base_transport.h">
<polygon fill="white" stroke="black" points="1192,-118 1192,-137 1332,-137 1332,-118 1192,-118"/>
<text text-anchor="middle" x="1262" y="-125" font-family="Helvetica,sans-Serif" font-size="10.00">rpmsg_lite_base_transport.h</text>
</a>
</g>
</g>
<!-- Node10&#45;&gt;Node23 -->
<g id="edge25" class="edge"><title>Node10&#45;&gt;Node23</title>
<path fill="none" stroke="midnightblue" d="M1262,-169.317C1262,-158.496 1262,-145.398 1262,-137.009"/>
<polygon fill="midnightblue" stroke="midnightblue" points="1258.5,-169.475 1262,-179.475 1265.5,-169.475 1258.5,-169.475"/>
</g>
<!-- Node12 -->
<g id="node12" class="node"><title>Node12</title>
<g id="a_node12"><a xlink:href="dspi__master__transport_8h.html" target="_top" xlink:title="dspi_master_transport.h">
<polygon fill="white" stroke="black" points="1077,-56.5 1077,-75.5 1199,-75.5 1199,-56.5 1077,-56.5"/>
<text text-anchor="middle" x="1138" y="-63.5" font-family="Helvetica,sans-Serif" font-size="10.00">dspi_master_transport.h</text>
</a>
</g>
</g>
<!-- Node11&#45;&gt;Node12 -->
<g id="edge14" class="edge"><title>Node11&#45;&gt;Node12</title>
<path fill="none" stroke="midnightblue" d="M930.163,-115.686C979.45,-104.141 1056.53,-86.0835 1101.68,-75.5091"/>
<polygon fill="midnightblue" stroke="midnightblue" points="929.33,-112.286 920.392,-117.975 930.927,-119.102 929.33,-112.286"/>
</g>
<!-- Node13 -->
<g id="node13" class="node"><title>Node13</title>
<g id="a_node13"><a xlink:href="dspi__slave__transport_8h.html" target="_top" xlink:title="dspi_slave_transport.h">
<polygon fill="white" stroke="black" points="341.5,-56.5 341.5,-75.5 454.5,-75.5 454.5,-56.5 341.5,-56.5"/>
<text text-anchor="middle" x="398" y="-63.5" font-family="Helvetica,sans-Serif" font-size="10.00">dspi_slave_transport.h</text>
</a>
</g>
</g>
<!-- Node11&#45;&gt;Node13 -->
<g id="edge15" class="edge"><title>Node11&#45;&gt;Node13</title>
<path fill="none" stroke="midnightblue" d="M824.777,-119.679C743.42,-110.24 592.537,-92.4904 464,-76 460.903,-75.6027 457.725,-75.1891 454.518,-74.767"/>
<polygon fill="midnightblue" stroke="midnightblue" points="824.49,-123.169 834.827,-120.844 825.296,-116.216 824.49,-123.169"/>
</g>
<!-- Node14 -->
<g id="node14" class="node"><title>Node14</title>
<g id="a_node14"><a xlink:href="serial__transport_8h.html" target="_top" xlink:title="serial_transport.h">
<polygon fill="white" stroke="black" points="473,-56.5 473,-75.5 565,-75.5 565,-56.5 473,-56.5"/>
<text text-anchor="middle" x="519" y="-63.5" font-family="Helvetica,sans-Serif" font-size="10.00">serial_transport.h</text>
</a>
</g>
</g>
<!-- Node11&#45;&gt;Node14 -->
<g id="edge16" class="edge"><title>Node11&#45;&gt;Node14</title>
<path fill="none" stroke="midnightblue" d="M824.822,-116.873C762.438,-106.721 661.3,-90.2535 574,-76 571.135,-75.5323 568.187,-75.0506 565.213,-74.5646"/>
<polygon fill="midnightblue" stroke="midnightblue" points="824.439,-120.356 834.871,-118.508 825.563,-113.447 824.439,-120.356"/>
</g>
<!-- Node15 -->
<g id="node15" class="node"><title>Node15</title>
<g id="a_node15"><a xlink:href="spi__master__transport_8h.html" target="_top" xlink:title="spi_master_transport.h">
<polygon fill="white" stroke="black" points="583,-56.5 583,-75.5 699,-75.5 699,-56.5 583,-56.5"/>
<text text-anchor="middle" x="641" y="-63.5" font-family="Helvetica,sans-Serif" font-size="10.00">spi_master_transport.h</text>
</a>
</g>
</g>
<!-- Node11&#45;&gt;Node15 -->
<g id="edge17" class="edge"><title>Node11&#45;&gt;Node15</title>
<path fill="none" stroke="midnightblue" d="M839.244,-115.541C792.068,-103.99 718.758,-86.0394 675.751,-75.5091"/>
<polygon fill="midnightblue" stroke="midnightblue" points="838.639,-118.996 849.184,-117.975 840.303,-112.197 838.639,-118.996"/>
</g>
<!-- Node16 -->
<g id="node16" class="node"><title>Node16</title>
<g id="a_node16"><a xlink:href="spi__slave__transport_8h.html" target="_top" xlink:title="spi_slave_transport.h">
<polygon fill="white" stroke="black" points="717,-56.5 717,-75.5 825,-75.5 825,-56.5 717,-56.5"/>
<text text-anchor="middle" x="771" y="-63.5" font-family="Helvetica,sans-Serif" font-size="10.00">spi_slave_transport.h</text>
</a>
</g>
</g>
<!-- Node11&#45;&gt;Node16 -->
<g id="edge18" class="edge"><title>Node11&#45;&gt;Node16</title>
<path fill="none" stroke="midnightblue" d="M858.764,-113.212C836.878,-101.688 805.859,-85.355 787.16,-75.5091"/>
<polygon fill="midnightblue" stroke="midnightblue" points="857.331,-116.413 867.81,-117.975 860.592,-110.219 857.331,-116.413"/>
</g>
<!-- Node17 -->
<g id="node17" class="node"><title>Node17</title>
<g id="a_node17"><a xlink:href="tcp__transport_8h.html" target="_top" xlink:title="tcp_transport.h">
<polygon fill="white" stroke="black" points="843,-56.5 843,-75.5 925,-75.5 925,-56.5 843,-56.5"/>
<text text-anchor="middle" x="884" y="-63.5" font-family="Helvetica,sans-Serif" font-size="10.00">tcp_transport.h</text>
</a>
</g>
</g>
<!-- Node11&#45;&gt;Node17 -->
<g id="edge19" class="edge"><title>Node11&#45;&gt;Node17</title>
<path fill="none" stroke="midnightblue" d="M884,-107.817C884,-96.9962 884,-83.898 884,-75.5091"/>
<polygon fill="midnightblue" stroke="midnightblue" points="880.5,-107.975 884,-117.975 887.5,-107.975 880.5,-107.975"/>
</g>
<!-- Node18 -->
<g id="node18" class="node"><title>Node18</title>
<g id="a_node18"><a xlink:href="uart__cmsis__transport_8h.html" target="_top" xlink:title="uart_cmsis_transport.h">
<polygon fill="white" stroke="black" points="943,-56.5 943,-75.5 1059,-75.5 1059,-56.5 943,-56.5"/>
<text text-anchor="middle" x="1001" y="-63.5" font-family="Helvetica,sans-Serif" font-size="10.00">uart_cmsis_transport.h</text>
</a>
</g>
</g>
<!-- Node11&#45;&gt;Node18 -->
<g id="edge20" class="edge"><title>Node11&#45;&gt;Node18</title>
<path fill="none" stroke="midnightblue" d="M909.826,-113.367C932.501,-101.835 964.82,-85.3992 984.268,-75.5091"/>
<polygon fill="midnightblue" stroke="midnightblue" points="908.09,-110.322 900.763,-117.975 911.263,-116.562 908.09,-110.322"/>
</g>
<!-- Node23&#45;&gt;Node24 -->
<g id="edge26" class="edge"><title>Node23&#45;&gt;Node24</title>
<path fill="none" stroke="midnightblue" d="M1286,-112.901C1306.3,-101.396 1334.76,-85.2667 1351.98,-75.5091"/>
<polygon fill="midnightblue" stroke="midnightblue" points="1284.02,-110 1277.04,-117.975 1287.47,-116.09 1284.02,-110"/>
</g>
<!-- Node23&#45;&gt;Node25 -->
<g id="edge27" class="edge"><title>Node23&#45;&gt;Node25</title>
<path fill="none" stroke="midnightblue" d="M1314.54,-115.974C1372.1,-104.443 1463.3,-86.1719 1516.53,-75.5091"/>
<polygon fill="midnightblue" stroke="midnightblue" points="1313.67,-112.579 1304.55,-117.975 1315.05,-119.442 1313.67,-112.579"/>
</g>
<!-- Node23&#45;&gt;Node26 -->
<g id="edge28" class="edge"><title>Node23&#45;&gt;Node26</title>
<path fill="none" stroke="midnightblue" d="M1316.29,-116.186C1324.88,-114.692 1333.67,-113.242 1342,-112 1452.7,-95.4974 1582.11,-81.4008 1658.89,-73.5774"/>
<polygon fill="midnightblue" stroke="midnightblue" points="1315.58,-112.757 1306.35,-117.951 1316.81,-119.65 1315.58,-112.757"/>
</g>
</g>
</svg>
