<?xml version="1.0" encoding="UTF-8" standalone="no"?>
<!DOCTYPE svg PUBLIC "-//W3C//DTD SVG 1.1//EN"
 "http://www.w3.org/Graphics/SVG/1.1/DTD/svg11.dtd">
<!-- Generated by graphviz version 2.38.0 (20140413.2041)
 -->
<!-- Title: message_loggers.h Pages: 1 -->
<svg width="301pt" height="252pt"
 viewBox="0.00 0.00 300.50 252.00" xmlns="http://www.w3.org/2000/svg" xmlns:xlink="http://www.w3.org/1999/xlink">
<g id="graph0" class="graph" transform="scale(1 1) rotate(0) translate(4 248)">
<title>message_loggers.h</title>
<polygon fill="white" stroke="none" points="-4,4 -4,-248 296.5,-248 296.5,4 -4,4"/>
<!-- Node1 -->
<g id="node1" class="node"><title>Node1</title>
<polygon fill="#bfbfbf" stroke="black" points="93,-224.5 93,-243.5 194,-243.5 194,-224.5 93,-224.5"/>
<text text-anchor="middle" x="143.5" y="-231.5" font-family="Helvetica,sans-Serif" font-size="10.00">message_loggers.h</text>
</g>
<!-- Node2 -->
<g id="node2" class="node"><title>Node2</title>
<g id="a_node2"><a xlink:href="transport_8h.html" target="_top" xlink:title="transport.h">
<polygon fill="white" stroke="black" points="112,-168.5 112,-187.5 175,-187.5 175,-168.5 112,-168.5"/>
<text text-anchor="middle" x="143.5" y="-175.5" font-family="Helvetica,sans-Serif" font-size="10.00">transport.h</text>
</a>
</g>
</g>
<!-- Node1&#45;&gt;Node2 -->
<g id="edge1" class="edge"><title>Node1&#45;&gt;Node2</title>
<path fill="none" stroke="midnightblue" d="M143.5,-224.083C143.5,-217.006 143.5,-206.861 143.5,-197.986"/>
<polygon fill="midnightblue" stroke="midnightblue" points="147,-197.751 143.5,-187.751 140,-197.751 147,-197.751"/>
</g>
<!-- Node3 -->
<g id="node3" class="node"><title>Node3</title>
<g id="a_node3"><a xlink:href="erpc__common_8h_source.html" target="_top" xlink:title="erpc_common.h">
<polygon fill="white" stroke="black" points="67.5,-56.5 67.5,-75.5 153.5,-75.5 153.5,-56.5 67.5,-56.5"/>
<text text-anchor="middle" x="110.5" y="-63.5" font-family="Helvetica,sans-Serif" font-size="10.00">erpc_common.h</text>
</a>
</g>
</g>
<!-- Node2&#45;&gt;Node3 -->
<g id="edge2" class="edge"><title>Node2&#45;&gt;Node3</title>
<path fill="none" stroke="midnightblue" d="M139.503,-168.182C135.55,-159.213 129.526,-144.847 125.5,-132 120.679,-116.614 116.665,-98.7394 114.007,-85.633"/>
<polygon fill="midnightblue" stroke="midnightblue" points="117.385,-84.669 112.033,-75.5251 110.514,-86.0106 117.385,-84.669"/>
</g>
<!-- Node5 -->
<g id="node5" class="node"><title>Node5</title>
<g id="a_node5"><a xlink:href="crc16_8h.html" target="_top" xlink:title="crc16.h">
<polygon fill="white" stroke="black" points="0,-56.5 0,-75.5 49,-75.5 49,-56.5 0,-56.5"/>
<text text-anchor="middle" x="24.5" y="-63.5" font-family="Helvetica,sans-Serif" font-size="10.00">crc16.h</text>
</a>
</g>
</g>
<!-- Node2&#45;&gt;Node5 -->
<g id="edge4" class="edge"><title>Node2&#45;&gt;Node5</title>
<path fill="none" stroke="midnightblue" d="M134.162,-168.368C114.089,-149.814 66.5967,-105.913 41.2006,-82.4376"/>
<polygon fill="midnightblue" stroke="midnightblue" points="43.5135,-79.8092 33.7944,-75.5914 38.7619,-84.9495 43.5135,-79.8092"/>
</g>
<!-- Node6 -->
<g id="node6" class="node"><title>Node6</title>
<g id="a_node6"><a xlink:href="message__buffer_8h.html" target="_top" xlink:title="message_buffer.h">
<polygon fill="white" stroke="black" points="135,-112.5 135,-131.5 228,-131.5 228,-112.5 135,-112.5"/>
<text text-anchor="middle" x="181.5" y="-119.5" font-family="Helvetica,sans-Serif" font-size="10.00">message_buffer.h</text>
</a>
</g>
</g>
<!-- Node2&#45;&gt;Node6 -->
<g id="edge6" class="edge"><title>Node2&#45;&gt;Node6</title>
<path fill="none" stroke="midnightblue" d="M149.775,-168.083C155.142,-160.455 163.018,-149.264 169.579,-139.941"/>
<polygon fill="midnightblue" stroke="midnightblue" points="172.449,-141.943 175.342,-131.751 166.725,-137.915 172.449,-141.943"/>
</g>
<!-- Node8 -->
<g id="node8" class="node"><title>Node8</title>
<polygon fill="white" stroke="#bfbfbf" points="246.5,-112.5 246.5,-131.5 292.5,-131.5 292.5,-112.5 246.5,-112.5"/>
<text text-anchor="middle" x="269.5" y="-119.5" font-family="Helvetica,sans-Serif" font-size="10.00">cstring</text>
</g>
<!-- Node2&#45;&gt;Node8 -->
<g id="edge10" class="edge"><title>Node2&#45;&gt;Node8</title>
<path fill="none" stroke="midnightblue" d="M163.465,-168.444C184.109,-159.596 216.563,-145.687 240.132,-135.586"/>
<polygon fill="midnightblue" stroke="midnightblue" points="241.816,-138.673 249.628,-131.516 239.058,-132.239 241.816,-138.673"/>
</g>
<!-- Node4 -->
<g id="node4" class="node"><title>Node4</title>
<polygon fill="white" stroke="#bfbfbf" points="86,-0.5 86,-19.5 135,-19.5 135,-0.5 86,-0.5"/>
<text text-anchor="middle" x="110.5" y="-7.5" font-family="Helvetica,sans-Serif" font-size="10.00">stdint.h</text>
</g>
<!-- Node3&#45;&gt;Node4 -->
<g id="edge3" class="edge"><title>Node3&#45;&gt;Node4</title>
<path fill="none" stroke="midnightblue" d="M110.5,-56.083C110.5,-49.0059 110.5,-38.8611 110.5,-29.9865"/>
<polygon fill="midnightblue" stroke="midnightblue" points="114,-29.751 110.5,-19.7511 107,-29.7511 114,-29.751"/>
</g>
<!-- Node5&#45;&gt;Node4 -->
<g id="edge5" class="edge"><title>Node5&#45;&gt;Node4</title>
<path fill="none" stroke="midnightblue" d="M38.3174,-56.324C51.733,-47.9002 72.3241,-34.9709 88.0856,-25.0741"/>
<polygon fill="midnightblue" stroke="midnightblue" points="90.1092,-27.9364 96.7169,-19.6545 86.3868,-22.0081 90.1092,-27.9364"/>
</g>
<!-- Node6&#45;&gt;Node3 -->
<g id="edge7" class="edge"><title>Node6&#45;&gt;Node3</title>
<path fill="none" stroke="midnightblue" d="M170.093,-112.324C159.391,-104.185 143.159,-91.8395 130.337,-82.0874"/>
<polygon fill="midnightblue" stroke="midnightblue" points="132.193,-79.1018 122.115,-75.8339 127.956,-84.6734 132.193,-79.1018"/>
</g>
<!-- Node6&#45;&gt;Node4 -->
<g id="edge9" class="edge"><title>Node6&#45;&gt;Node4</title>
<path fill="none" stroke="midnightblue" d="M180.554,-112.359C178.788,-99.2617 174.063,-74.0042 162.5,-56 154.839,-44.071 143.096,-33.5262 132.707,-25.6482"/>
<polygon fill="midnightblue" stroke="midnightblue" points="134.58,-22.6839 124.418,-19.6861 130.492,-28.3666 134.58,-22.6839"/>
</g>
<!-- Node7 -->
<g id="node7" class="node"><title>Node7</title>
<polygon fill="white" stroke="#bfbfbf" points="209.5,-56.5 209.5,-75.5 257.5,-75.5 257.5,-56.5 209.5,-56.5"/>
<text text-anchor="middle" x="233.5" y="-63.5" font-family="Helvetica,sans-Serif" font-size="10.00">cstddef</text>
</g>
<!-- Node6&#45;&gt;Node7 -->
<g id="edge8" class="edge"><title>Node6&#45;&gt;Node7</title>
<path fill="none" stroke="midnightblue" d="M190.087,-112.083C197.659,-104.22 208.878,-92.5688 218.014,-83.0813"/>
<polygon fill="midnightblue" stroke="midnightblue" points="220.658,-85.3821 225.073,-75.7511 215.615,-80.5266 220.658,-85.3821"/>
</g>
</g>
</svg>
