<?xml version="1.0" encoding="UTF-8" standalone="no"?>
<!DOCTYPE svg PUBLIC "-//W3C//DTD SVG 1.1//EN"
 "http://www.w3.org/Graphics/SVG/1.1/DTD/svg11.dtd">
<!-- Generated by graphviz version 2.38.0 (20140413.2041)
 -->
<!-- Title: mu_transport.h Pages: 1 -->
<svg width="527pt" height="252pt"
 viewBox="0.00 0.00 526.50 252.00" xmlns="http://www.w3.org/2000/svg" xmlns:xlink="http://www.w3.org/1999/xlink">
<g id="graph0" class="graph" transform="scale(1 1) rotate(0) translate(4 248)">
<title>mu_transport.h</title>
<polygon fill="white" stroke="none" points="-4,4 -4,-248 522.5,-248 522.5,4 -4,4"/>
<!-- Node1 -->
<g id="node1" class="node"><title>Node1</title>
<polygon fill="#bfbfbf" stroke="black" points="219.5,-224.5 219.5,-243.5 301.5,-243.5 301.5,-224.5 219.5,-224.5"/>
<text text-anchor="middle" x="260.5" y="-231.5" font-family="Helvetica,sans-Serif" font-size="10.00">mu_transport.h</text>
</g>
<!-- Node2 -->
<g id="node2" class="node"><title>Node2</title>
<g id="a_node2"><a xlink:href="erpc__config__internal_8h_source.html" target="_top" xlink:title="erpc_config_internal.h">
<polygon fill="white" stroke="black" points="0,-112.5 0,-131.5 111,-131.5 111,-112.5 0,-112.5"/>
<text text-anchor="middle" x="55.5" y="-119.5" font-family="Helvetica,sans-Serif" font-size="10.00">erpc_config_internal.h</text>
</a>
</g>
</g>
<!-- Node1&#45;&gt;Node2 -->
<g id="edge1" class="edge"><title>Node1&#45;&gt;Node2</title>
<path fill="none" stroke="midnightblue" d="M219.343,-230.701C161.555,-226.516 60.9032,-215.4 38.5,-188 27.462,-174.5 35.1136,-154.6 43.3904,-140.379"/>
<polygon fill="midnightblue" stroke="midnightblue" points="46.5702,-141.903 48.9984,-131.59 40.669,-138.137 46.5702,-141.903"/>
</g>
<!-- Node4 -->
<g id="node4" class="node"><title>Node4</title>
<g id="a_node4"><a xlink:href="erpc__threading_8h.html" target="_top" xlink:title="erpc_threading.h">
<polygon fill="white" stroke="black" points="48,-168.5 48,-187.5 137,-187.5 137,-168.5 48,-168.5"/>
<text text-anchor="middle" x="92.5" y="-175.5" font-family="Helvetica,sans-Serif" font-size="10.00">erpc_threading.h</text>
</a>
</g>
</g>
<!-- Node1&#45;&gt;Node4 -->
<g id="edge3" class="edge"><title>Node1&#45;&gt;Node4</title>
<path fill="none" stroke="midnightblue" d="M233.88,-224.444C205.494,-215.32 160.363,-200.813 128.747,-190.651"/>
<polygon fill="midnightblue" stroke="midnightblue" points="129.587,-187.244 118.996,-187.516 127.445,-193.909 129.587,-187.244"/>
</g>
<!-- Node6 -->
<g id="node6" class="node"><title>Node6</title>
<polygon fill="white" stroke="#bfbfbf" points="155.5,-168.5 155.5,-187.5 265.5,-187.5 265.5,-168.5 155.5,-168.5"/>
<text text-anchor="middle" x="210.5" y="-175.5" font-family="Helvetica,sans-Serif" font-size="10.00">fsl_device_registers.h</text>
</g>
<!-- Node1&#45;&gt;Node6 -->
<g id="edge6" class="edge"><title>Node1&#45;&gt;Node6</title>
<path fill="none" stroke="midnightblue" d="M252.244,-224.083C245.035,-216.298 234.39,-204.801 225.654,-195.367"/>
<polygon fill="midnightblue" stroke="midnightblue" points="227.965,-192.711 218.603,-187.751 222.829,-197.467 227.965,-192.711"/>
</g>
<!-- Node7 -->
<g id="node7" class="node"><title>Node7</title>
<polygon fill="white" stroke="#bfbfbf" points="284,-168.5 284,-187.5 337,-187.5 337,-168.5 284,-168.5"/>
<text text-anchor="middle" x="310.5" y="-175.5" font-family="Helvetica,sans-Serif" font-size="10.00">fsl_mu.h</text>
</g>
<!-- Node1&#45;&gt;Node7 -->
<g id="edge7" class="edge"><title>Node1&#45;&gt;Node7</title>
<path fill="none" stroke="midnightblue" d="M268.756,-224.083C275.965,-216.298 286.61,-204.801 295.346,-195.367"/>
<polygon fill="midnightblue" stroke="midnightblue" points="298.171,-197.467 302.397,-187.751 293.035,-192.711 298.171,-197.467"/>
</g>
<!-- Node8 -->
<g id="node8" class="node"><title>Node8</title>
<g id="a_node8"><a xlink:href="message__buffer_8h.html" target="_top" xlink:title="message_buffer.h">
<polygon fill="white" stroke="black" points="285,-112.5 285,-131.5 378,-131.5 378,-112.5 285,-112.5"/>
<text text-anchor="middle" x="331.5" y="-119.5" font-family="Helvetica,sans-Serif" font-size="10.00">message_buffer.h</text>
</a>
</g>
</g>
<!-- Node1&#45;&gt;Node8 -->
<g id="edge8" class="edge"><title>Node1&#45;&gt;Node8</title>
<path fill="none" stroke="midnightblue" d="M294.299,-224.388C312.893,-217.735 334.39,-206.453 345.5,-188 354.22,-173.517 348.381,-154.332 341.787,-140.564"/>
<polygon fill="midnightblue" stroke="midnightblue" points="344.83,-138.833 337.05,-131.642 338.648,-142.116 344.83,-138.833"/>
</g>
<!-- Node11 -->
<g id="node11" class="node"><title>Node11</title>
<g id="a_node11"><a xlink:href="transport_8h.html" target="_top" xlink:title="transport.h">
<polygon fill="white" stroke="black" points="394,-168.5 394,-187.5 457,-187.5 457,-168.5 394,-168.5"/>
<text text-anchor="middle" x="425.5" y="-175.5" font-family="Helvetica,sans-Serif" font-size="10.00">transport.h</text>
</a>
</g>
</g>
<!-- Node1&#45;&gt;Node11 -->
<g id="edge13" class="edge"><title>Node1&#45;&gt;Node11</title>
<path fill="none" stroke="midnightblue" d="M286.645,-224.444C314.523,-215.32 358.848,-200.813 389.9,-190.651"/>
<polygon fill="midnightblue" stroke="midnightblue" points="391.062,-193.953 399.478,-187.516 388.885,-187.3 391.062,-193.953"/>
</g>
<!-- Node3 -->
<g id="node3" class="node"><title>Node3</title>
<g id="a_node3"><a xlink:href="erpc__config_8h.html" target="_top" xlink:title="erpc_config.h">
<polygon fill="white" stroke="black" points="18.5,-56.5 18.5,-75.5 92.5,-75.5 92.5,-56.5 18.5,-56.5"/>
<text text-anchor="middle" x="55.5" y="-63.5" font-family="Helvetica,sans-Serif" font-size="10.00">erpc_config.h</text>
</a>
</g>
</g>
<!-- Node2&#45;&gt;Node3 -->
<g id="edge2" class="edge"><title>Node2&#45;&gt;Node3</title>
<path fill="none" stroke="midnightblue" d="M55.5,-112.083C55.5,-105.006 55.5,-94.8611 55.5,-85.9865"/>
<polygon fill="midnightblue" stroke="midnightblue" points="59.0001,-85.751 55.5,-75.7511 52.0001,-85.7511 59.0001,-85.751"/>
</g>
<!-- Node4&#45;&gt;Node2 -->
<g id="edge4" class="edge"><title>Node4&#45;&gt;Node2</title>
<path fill="none" stroke="midnightblue" d="M86.3902,-168.083C81.2178,-160.534 73.6539,-149.495 67.3056,-140.23"/>
<polygon fill="midnightblue" stroke="midnightblue" points="70.0357,-138.022 61.4961,-131.751 64.2612,-141.979 70.0357,-138.022"/>
</g>
<!-- Node5 -->
<g id="node5" class="node"><title>Node5</title>
<polygon fill="white" stroke="#bfbfbf" points="289,-0.5 289,-19.5 338,-19.5 338,-0.5 289,-0.5"/>
<text text-anchor="middle" x="313.5" y="-7.5" font-family="Helvetica,sans-Serif" font-size="10.00">stdint.h</text>
</g>
<!-- Node4&#45;&gt;Node5 -->
<g id="edge5" class="edge"><title>Node4&#45;&gt;Node5</title>
<path fill="none" stroke="midnightblue" d="M104.071,-168.309C139.874,-141.416 249.128,-59.3518 293.974,-25.6665"/>
<polygon fill="midnightblue" stroke="midnightblue" points="296.15,-28.4094 302.044,-19.6051 291.946,-22.8125 296.15,-28.4094"/>
</g>
<!-- Node8&#45;&gt;Node5 -->
<g id="edge12" class="edge"><title>Node8&#45;&gt;Node5</title>
<path fill="none" stroke="midnightblue" d="M308.712,-112.471C293.174,-105.316 273.793,-93.4352 264.5,-76 254.538,-57.3087 273.035,-38.2242 290.083,-25.6134"/>
<polygon fill="midnightblue" stroke="midnightblue" points="292.476,-28.2137 298.708,-19.6452 288.493,-22.4575 292.476,-28.2137"/>
</g>
<!-- Node9 -->
<g id="node9" class="node"><title>Node9</title>
<g id="a_node9"><a xlink:href="erpc__common_8h_source.html" target="_top" xlink:title="erpc_common.h">
<polygon fill="white" stroke="black" points="339.5,-56.5 339.5,-75.5 425.5,-75.5 425.5,-56.5 339.5,-56.5"/>
<text text-anchor="middle" x="382.5" y="-63.5" font-family="Helvetica,sans-Serif" font-size="10.00">erpc_common.h</text>
</a>
</g>
</g>
<!-- Node8&#45;&gt;Node9 -->
<g id="edge9" class="edge"><title>Node8&#45;&gt;Node9</title>
<path fill="none" stroke="midnightblue" d="M339.922,-112.083C347.348,-104.22 358.352,-92.5688 367.312,-83.0813"/>
<polygon fill="midnightblue" stroke="midnightblue" points="369.913,-85.4244 374.235,-75.7511 364.824,-80.618 369.913,-85.4244"/>
</g>
<!-- Node10 -->
<g id="node10" class="node"><title>Node10</title>
<polygon fill="white" stroke="#bfbfbf" points="273.5,-56.5 273.5,-75.5 321.5,-75.5 321.5,-56.5 273.5,-56.5"/>
<text text-anchor="middle" x="297.5" y="-63.5" font-family="Helvetica,sans-Serif" font-size="10.00">cstddef</text>
</g>
<!-- Node8&#45;&gt;Node10 -->
<g id="edge11" class="edge"><title>Node8&#45;&gt;Node10</title>
<path fill="none" stroke="midnightblue" d="M325.886,-112.083C321.133,-104.534 314.182,-93.4948 308.348,-84.2298"/>
<polygon fill="midnightblue" stroke="midnightblue" points="311.3,-82.3486 303.01,-75.7511 305.376,-86.0783 311.3,-82.3486"/>
</g>
<!-- Node9&#45;&gt;Node5 -->
<g id="edge10" class="edge"><title>Node9&#45;&gt;Node5</title>
<path fill="none" stroke="midnightblue" d="M371.414,-56.324C361.014,-48.1849 345.239,-35.8395 332.778,-26.0874"/>
<polygon fill="midnightblue" stroke="midnightblue" points="334.82,-23.2407 324.788,-19.8339 330.506,-28.7533 334.82,-23.2407"/>
</g>
<!-- Node11&#45;&gt;Node8 -->
<g id="edge17" class="edge"><title>Node11&#45;&gt;Node8</title>
<path fill="none" stroke="midnightblue" d="M410.397,-168.324C395.597,-159.822 372.806,-146.729 355.518,-136.797"/>
<polygon fill="midnightblue" stroke="midnightblue" points="356.98,-133.601 346.565,-131.655 353.493,-139.671 356.98,-133.601"/>
</g>
<!-- Node11&#45;&gt;Node9 -->
<g id="edge14" class="edge"><title>Node11&#45;&gt;Node9</title>
<path fill="none" stroke="midnightblue" d="M422.126,-168.368C415.124,-150.456 398.888,-108.923 389.516,-84.9482"/>
<polygon fill="midnightblue" stroke="midnightblue" points="392.759,-83.6308 385.858,-75.5914 386.24,-86.1794 392.759,-83.6308"/>
</g>
<!-- Node12 -->
<g id="node12" class="node"><title>Node12</title>
<g id="a_node12"><a xlink:href="crc16_8h.html" target="_top" xlink:title="crc16.h">
<polygon fill="white" stroke="black" points="444,-56.5 444,-75.5 493,-75.5 493,-56.5 444,-56.5"/>
<text text-anchor="middle" x="468.5" y="-63.5" font-family="Helvetica,sans-Serif" font-size="10.00">crc16.h</text>
</a>
</g>
</g>
<!-- Node11&#45;&gt;Node12 -->
<g id="edge15" class="edge"><title>Node11&#45;&gt;Node12</title>
<path fill="none" stroke="midnightblue" d="M428.874,-168.368C435.876,-150.456 452.112,-108.923 461.484,-84.9482"/>
<polygon fill="midnightblue" stroke="midnightblue" points="464.76,-86.1794 465.142,-75.5914 458.241,-83.6308 464.76,-86.1794"/>
</g>
<!-- Node13 -->
<g id="node13" class="node"><title>Node13</title>
<polygon fill="white" stroke="#bfbfbf" points="472.5,-112.5 472.5,-131.5 518.5,-131.5 518.5,-112.5 472.5,-112.5"/>
<text text-anchor="middle" x="495.5" y="-119.5" font-family="Helvetica,sans-Serif" font-size="10.00">cstring</text>
</g>
<!-- Node11&#45;&gt;Node13 -->
<g id="edge18" class="edge"><title>Node11&#45;&gt;Node13</title>
<path fill="none" stroke="midnightblue" d="M436.747,-168.324C447.297,-160.185 463.301,-147.839 475.942,-138.087"/>
<polygon fill="midnightblue" stroke="midnightblue" points="478.269,-140.713 484.049,-131.834 473.993,-135.171 478.269,-140.713"/>
</g>
<!-- Node12&#45;&gt;Node5 -->
<g id="edge16" class="edge"><title>Node12&#45;&gt;Node5</title>
<path fill="none" stroke="midnightblue" d="M443.94,-56.4435C417.977,-47.3986 376.832,-33.064 347.703,-22.9158"/>
<polygon fill="midnightblue" stroke="midnightblue" points="348.54,-19.5013 337.945,-19.5164 346.237,-26.1116 348.54,-19.5013"/>
</g>
</g>
</svg>
