<?xml version="1.0" encoding="UTF-8" standalone="no"?>
<!DOCTYPE svg PUBLIC "-//W3C//DTD SVG 1.1//EN"
 "http://www.w3.org/Graphics/SVG/1.1/DTD/svg11.dtd">
<!-- Generated by graphviz version 2.38.0 (20140413.2041)
 -->
<!-- Title: rpmsg_lite_base_transport.h Pages: 1 -->
<svg width="427pt" height="84pt"
 viewBox="0.00 0.00 426.50 84.00" xmlns="http://www.w3.org/2000/svg" xmlns:xlink="http://www.w3.org/1999/xlink">
<g id="graph0" class="graph" transform="scale(1 1) rotate(0) translate(4 80)">
<title>rpmsg_lite_base_transport.h</title>
<polygon fill="white" stroke="none" points="-4,4 -4,-80 422.5,-80 422.5,4 -4,4"/>
<!-- Node1 -->
<g id="node1" class="node"><title>Node1</title>
<polygon fill="#bfbfbf" stroke="black" points="139.5,-56.5 139.5,-75.5 279.5,-75.5 279.5,-56.5 139.5,-56.5"/>
<text text-anchor="middle" x="209.5" y="-63.5" font-family="Helvetica,sans-Serif" font-size="10.00">rpmsg_lite_base_transport.h</text>
</g>
<!-- Node2 -->
<g id="node2" class="node"><title>Node2</title>
<g id="a_node2"><a xlink:href="rpmsg__lite__rtos__transport_8h.html" target="_top" xlink:title="rpmsg_lite_rtos_transport.h">
<polygon fill="white" stroke="black" points="0,-0.5 0,-19.5 135,-19.5 135,-0.5 0,-0.5"/>
<text text-anchor="middle" x="67.5" y="-7.5" font-family="Helvetica,sans-Serif" font-size="10.00">rpmsg_lite_rtos_transport.h</text>
</a>
</g>
</g>
<!-- Node1&#45;&gt;Node2 -->
<g id="edge1" class="edge"><title>Node1&#45;&gt;Node2</title>
<path fill="none" stroke="midnightblue" d="M177.345,-52.772C150.672,-42.6287 113.431,-28.4669 89.8951,-19.5164"/>
<polygon fill="midnightblue" stroke="midnightblue" points="176.409,-56.1604 187,-56.4435 178.897,-49.6176 176.409,-56.1604"/>
</g>
<!-- Node3 -->
<g id="node3" class="node"><title>Node3</title>
<g id="a_node3"><a xlink:href="rpmsg__lite__transport_8h.html" target="_top" xlink:title="rpmsg_lite_transport.h">
<polygon fill="white" stroke="black" points="153,-0.5 153,-19.5 266,-19.5 266,-0.5 153,-0.5"/>
<text text-anchor="middle" x="209.5" y="-7.5" font-family="Helvetica,sans-Serif" font-size="10.00">rpmsg_lite_transport.h</text>
</a>
</g>
</g>
<!-- Node1&#45;&gt;Node3 -->
<g id="edge2" class="edge"><title>Node1&#45;&gt;Node3</title>
<path fill="none" stroke="midnightblue" d="M209.5,-45.8045C209.5,-36.9102 209.5,-26.7798 209.5,-19.7511"/>
<polygon fill="midnightblue" stroke="midnightblue" points="206,-46.083 209.5,-56.083 213,-46.083 206,-46.083"/>
</g>
<!-- Node4 -->
<g id="node4" class="node"><title>Node4</title>
<g id="a_node4"><a xlink:href="rpmsg__tty__rtos__transport_8h.html" target="_top" xlink:title="rpmsg_tty_rtos_transport.h">
<polygon fill="white" stroke="black" points="284.5,-0.5 284.5,-19.5 418.5,-19.5 418.5,-0.5 284.5,-0.5"/>
<text text-anchor="middle" x="351.5" y="-7.5" font-family="Helvetica,sans-Serif" font-size="10.00">rpmsg_tty_rtos_transport.h</text>
</a>
</g>
</g>
<!-- Node1&#45;&gt;Node4 -->
<g id="edge3" class="edge"><title>Node1&#45;&gt;Node4</title>
<path fill="none" stroke="midnightblue" d="M241.655,-52.772C268.328,-42.6287 305.569,-28.4669 329.105,-19.5164"/>
<polygon fill="midnightblue" stroke="midnightblue" points="240.103,-49.6176 232,-56.4435 242.591,-56.1604 240.103,-49.6176"/>
</g>
</g>
</svg>
