<?xml version="1.0" encoding="UTF-8" standalone="no"?>
<!DOCTYPE svg PUBLIC "-//W3C//DTD SVG 1.1//EN"
 "http://www.w3.org/Graphics/SVG/1.1/DTD/svg11.dtd">
<!-- Generated by graphviz version 2.38.0 (20140413.2041)
 -->
<!-- Title: rpmsg_tty_rtos_transport.h Pages: 1 -->
<svg width="483pt" height="308pt"
 viewBox="0.00 0.00 483.00 308.00" xmlns="http://www.w3.org/2000/svg" xmlns:xlink="http://www.w3.org/1999/xlink">
<g id="graph0" class="graph" transform="scale(1 1) rotate(0) translate(4 304)">
<title>rpmsg_tty_rtos_transport.h</title>
<polygon fill="white" stroke="none" points="-4,4 -4,-304 479,-304 479,4 -4,4"/>
<!-- Node1 -->
<g id="node1" class="node"><title>Node1</title>
<polygon fill="#bfbfbf" stroke="black" points="191.5,-280.5 191.5,-299.5 325.5,-299.5 325.5,-280.5 191.5,-280.5"/>
<text text-anchor="middle" x="258.5" y="-287.5" font-family="Helvetica,sans-Serif" font-size="10.00">rpmsg_tty_rtos_transport.h</text>
</g>
<!-- Node2 -->
<g id="node2" class="node"><title>Node2</title>
<g id="a_node2"><a xlink:href="crc16_8h.html" target="_top" xlink:title="crc16.h">
<polygon fill="white" stroke="black" points="219,-112.5 219,-131.5 268,-131.5 268,-112.5 219,-112.5"/>
<text text-anchor="middle" x="243.5" y="-119.5" font-family="Helvetica,sans-Serif" font-size="10.00">crc16.h</text>
</a>
</g>
</g>
<!-- Node1&#45;&gt;Node2 -->
<g id="edge1" class="edge"><title>Node1&#45;&gt;Node2</title>
<path fill="none" stroke="midnightblue" d="M259.437,-280.416C261.406,-260.502 265.264,-209.679 258.5,-168 257.032,-158.957 254.008,-149.275 251.056,-141.218"/>
<polygon fill="midnightblue" stroke="midnightblue" points="254.256,-139.791 247.356,-131.751 247.737,-142.339 254.256,-139.791"/>
</g>
<!-- Node4 -->
<g id="node4" class="node"><title>Node4</title>
<g id="a_node4"><a xlink:href="message__buffer_8h.html" target="_top" xlink:title="message_buffer.h">
<polygon fill="white" stroke="black" points="0,-112.5 0,-131.5 93,-131.5 93,-112.5 0,-112.5"/>
<text text-anchor="middle" x="46.5" y="-119.5" font-family="Helvetica,sans-Serif" font-size="10.00">message_buffer.h</text>
</a>
</g>
</g>
<!-- Node1&#45;&gt;Node4 -->
<g id="edge3" class="edge"><title>Node1&#45;&gt;Node4</title>
<path fill="none" stroke="midnightblue" d="M191.299,-281.761C141.623,-274.959 79.7412,-262.947 62.5,-244 37.033,-216.013 39.31,-168.194 43.0168,-141.829"/>
<polygon fill="midnightblue" stroke="midnightblue" points="46.5187,-142.101 44.6711,-131.668 39.6096,-140.976 46.5187,-142.101"/>
</g>
<!-- Node7 -->
<g id="node7" class="node"><title>Node7</title>
<polygon fill="white" stroke="#bfbfbf" points="179.5,-168.5 179.5,-187.5 249.5,-187.5 249.5,-168.5 179.5,-168.5"/>
<text text-anchor="middle" x="214.5" y="-175.5" font-family="Helvetica,sans-Serif" font-size="10.00">rpmsg_lite.h</text>
</g>
<!-- Node1&#45;&gt;Node7 -->
<g id="edge8" class="edge"><title>Node1&#45;&gt;Node7</title>
<path fill="none" stroke="midnightblue" d="M255.047,-280.368C247.883,-262.456 231.269,-220.923 221.679,-196.948"/>
<polygon fill="midnightblue" stroke="midnightblue" points="224.9,-195.576 217.937,-187.591 218.401,-198.176 224.9,-195.576"/>
</g>
<!-- Node8 -->
<g id="node8" class="node"><title>Node8</title>
<g id="a_node8"><a xlink:href="rpmsg__lite__base__transport_8h.html" target="_top" xlink:title="rpmsg_lite_base_transport.h">
<polygon fill="white" stroke="black" points="71.5,-224.5 71.5,-243.5 211.5,-243.5 211.5,-224.5 71.5,-224.5"/>
<text text-anchor="middle" x="141.5" y="-231.5" font-family="Helvetica,sans-Serif" font-size="10.00">rpmsg_lite_base_transport.h</text>
</a>
</g>
</g>
<!-- Node1&#45;&gt;Node8 -->
<g id="edge9" class="edge"><title>Node1&#45;&gt;Node8</title>
<path fill="none" stroke="midnightblue" d="M239.961,-280.444C220.877,-271.636 190.925,-257.812 169.064,-247.722"/>
<polygon fill="midnightblue" stroke="midnightblue" points="170.499,-244.529 159.952,-243.516 167.565,-250.885 170.499,-244.529"/>
</g>
<!-- Node11 -->
<g id="node11" class="node"><title>Node11</title>
<polygon fill="white" stroke="#bfbfbf" points="305.5,-224.5 305.5,-243.5 373.5,-243.5 373.5,-224.5 305.5,-224.5"/>
<text text-anchor="middle" x="339.5" y="-231.5" font-family="Helvetica,sans-Serif" font-size="10.00">rpmsg_ns.h</text>
</g>
<!-- Node1&#45;&gt;Node11 -->
<g id="edge16" class="edge"><title>Node1&#45;&gt;Node11</title>
<path fill="none" stroke="midnightblue" d="M271.514,-280.324C284.032,-271.979 303.182,-259.212 317.971,-249.352"/>
<polygon fill="midnightblue" stroke="midnightblue" points="320.139,-252.114 326.518,-243.655 316.256,-246.289 320.139,-252.114"/>
</g>
<!-- Node12 -->
<g id="node12" class="node"><title>Node12</title>
<polygon fill="white" stroke="#bfbfbf" points="392,-224.5 392,-243.5 475,-243.5 475,-224.5 392,-224.5"/>
<text text-anchor="middle" x="433.5" y="-231.5" font-family="Helvetica,sans-Serif" font-size="10.00">rpmsg_queue.h</text>
</g>
<!-- Node1&#45;&gt;Node12 -->
<g id="edge17" class="edge"><title>Node1&#45;&gt;Node12</title>
<path fill="none" stroke="midnightblue" d="M286.229,-280.444C315.926,-271.28 363.216,-256.688 396.169,-246.519"/>
<polygon fill="midnightblue" stroke="midnightblue" points="397.377,-249.809 405.9,-243.516 395.313,-243.121 397.377,-249.809"/>
</g>
<!-- Node3 -->
<g id="node3" class="node"><title>Node3</title>
<polygon fill="white" stroke="#bfbfbf" points="107,-0.5 107,-19.5 156,-19.5 156,-0.5 107,-0.5"/>
<text text-anchor="middle" x="131.5" y="-7.5" font-family="Helvetica,sans-Serif" font-size="10.00">stdint.h</text>
</g>
<!-- Node2&#45;&gt;Node3 -->
<g id="edge2" class="edge"><title>Node2&#45;&gt;Node3</title>
<path fill="none" stroke="midnightblue" d="M236.026,-112.3C224.954,-99.5534 203.358,-75.231 183.5,-56 172.78,-45.618 160.131,-34.6458 149.992,-26.1351"/>
<polygon fill="midnightblue" stroke="midnightblue" points="152.093,-23.3298 142.164,-19.632 147.62,-28.7143 152.093,-23.3298"/>
</g>
<!-- Node4&#45;&gt;Node3 -->
<g id="edge7" class="edge"><title>Node4&#45;&gt;Node3</title>
<path fill="none" stroke="midnightblue" d="M36.0845,-112.175C22.1414,-99.2736 0.576526,-74.7598 13.5,-56 32.0293,-29.1029 68.9508,-18.2713 96.585,-13.9157"/>
<polygon fill="midnightblue" stroke="midnightblue" points="97.2272,-17.3607 106.664,-12.5435 96.2828,-10.4247 97.2272,-17.3607"/>
</g>
<!-- Node5 -->
<g id="node5" class="node"><title>Node5</title>
<g id="a_node5"><a xlink:href="erpc__common_8h_source.html" target="_top" xlink:title="erpc_common.h">
<polygon fill="white" stroke="black" points="88.5,-56.5 88.5,-75.5 174.5,-75.5 174.5,-56.5 88.5,-56.5"/>
<text text-anchor="middle" x="131.5" y="-63.5" font-family="Helvetica,sans-Serif" font-size="10.00">erpc_common.h</text>
</a>
</g>
</g>
<!-- Node4&#45;&gt;Node5 -->
<g id="edge4" class="edge"><title>Node4&#45;&gt;Node5</title>
<path fill="none" stroke="midnightblue" d="M60.1567,-112.324C73.4163,-103.9 93.768,-90.9709 109.346,-81.0741"/>
<polygon fill="midnightblue" stroke="midnightblue" points="111.313,-83.9711 117.877,-75.6545 107.56,-78.0626 111.313,-83.9711"/>
</g>
<!-- Node6 -->
<g id="node6" class="node"><title>Node6</title>
<polygon fill="white" stroke="#bfbfbf" points="22.5,-56.5 22.5,-75.5 70.5,-75.5 70.5,-56.5 22.5,-56.5"/>
<text text-anchor="middle" x="46.5" y="-63.5" font-family="Helvetica,sans-Serif" font-size="10.00">cstddef</text>
</g>
<!-- Node4&#45;&gt;Node6 -->
<g id="edge6" class="edge"><title>Node4&#45;&gt;Node6</title>
<path fill="none" stroke="midnightblue" d="M46.5,-112.083C46.5,-105.006 46.5,-94.8611 46.5,-85.9865"/>
<polygon fill="midnightblue" stroke="midnightblue" points="50.0001,-85.751 46.5,-75.7511 43.0001,-85.7511 50.0001,-85.751"/>
</g>
<!-- Node5&#45;&gt;Node3 -->
<g id="edge5" class="edge"><title>Node5&#45;&gt;Node3</title>
<path fill="none" stroke="midnightblue" d="M131.5,-56.083C131.5,-49.0059 131.5,-38.8611 131.5,-29.9865"/>
<polygon fill="midnightblue" stroke="midnightblue" points="135,-29.751 131.5,-19.7511 128,-29.7511 135,-29.751"/>
</g>
<!-- Node8&#45;&gt;Node7 -->
<g id="edge10" class="edge"><title>Node8&#45;&gt;Node7</title>
<path fill="none" stroke="midnightblue" d="M153.229,-224.324C164.337,-216.107 181.242,-203.602 194.483,-193.807"/>
<polygon fill="midnightblue" stroke="midnightblue" points="196.6,-196.595 202.558,-187.834 192.437,-190.967 196.6,-196.595"/>
</g>
<!-- Node9 -->
<g id="node9" class="node"><title>Node9</title>
<g id="a_node9"><a xlink:href="transport_8h.html" target="_top" xlink:title="transport.h">
<polygon fill="white" stroke="black" points="98,-168.5 98,-187.5 161,-187.5 161,-168.5 98,-168.5"/>
<text text-anchor="middle" x="129.5" y="-175.5" font-family="Helvetica,sans-Serif" font-size="10.00">transport.h</text>
</a>
</g>
</g>
<!-- Node8&#45;&gt;Node9 -->
<g id="edge11" class="edge"><title>Node8&#45;&gt;Node9</title>
<path fill="none" stroke="midnightblue" d="M139.518,-224.083C137.928,-216.927 135.641,-206.635 133.654,-197.691"/>
<polygon fill="midnightblue" stroke="midnightblue" points="137.031,-196.754 131.445,-187.751 130.197,-198.272 137.031,-196.754"/>
</g>
<!-- Node9&#45;&gt;Node2 -->
<g id="edge13" class="edge"><title>Node9&#45;&gt;Node2</title>
<path fill="none" stroke="midnightblue" d="M147.564,-168.444C166.075,-159.675 195.081,-145.935 216.355,-135.858"/>
<polygon fill="midnightblue" stroke="midnightblue" points="217.982,-138.96 225.521,-131.516 214.985,-132.634 217.982,-138.96"/>
</g>
<!-- Node9&#45;&gt;Node4 -->
<g id="edge14" class="edge"><title>Node9&#45;&gt;Node4</title>
<path fill="none" stroke="midnightblue" d="M116.165,-168.324C103.338,-159.979 83.715,-147.212 68.5602,-137.352"/>
<polygon fill="midnightblue" stroke="midnightblue" points="70.0932,-134.174 59.8023,-131.655 66.2757,-140.042 70.0932,-134.174"/>
</g>
<!-- Node9&#45;&gt;Node5 -->
<g id="edge12" class="edge"><title>Node9&#45;&gt;Node5</title>
<path fill="none" stroke="midnightblue" d="M129.657,-168.368C129.98,-150.617 130.724,-109.666 131.162,-85.5974"/>
<polygon fill="midnightblue" stroke="midnightblue" points="134.661,-85.6534 131.344,-75.5914 127.662,-85.5261 134.661,-85.6534"/>
</g>
<!-- Node10 -->
<g id="node10" class="node"><title>Node10</title>
<polygon fill="white" stroke="#bfbfbf" points="154.5,-112.5 154.5,-131.5 200.5,-131.5 200.5,-112.5 154.5,-112.5"/>
<text text-anchor="middle" x="177.5" y="-119.5" font-family="Helvetica,sans-Serif" font-size="10.00">cstring</text>
</g>
<!-- Node9&#45;&gt;Node10 -->
<g id="edge15" class="edge"><title>Node9&#45;&gt;Node10</title>
<path fill="none" stroke="midnightblue" d="M137.426,-168.083C144.346,-160.298 154.565,-148.801 162.952,-139.367"/>
<polygon fill="midnightblue" stroke="midnightblue" points="165.694,-141.55 169.721,-131.751 160.462,-136.9 165.694,-141.55"/>
</g>
</g>
</svg>
