<?xml version="1.0" encoding="UTF-8" standalone="no"?>
<!DOCTYPE svg PUBLIC "-//W3C//DTD SVG 1.1//EN"
 "http://www.w3.org/Graphics/SVG/1.1/DTD/svg11.dtd">
<!-- Generated by graphviz version 2.38.0 (20140413.2041)
 -->
<!-- Title: rpmsg_lite_transport.h Pages: 1 -->
<svg width="452pt" height="308pt"
 viewBox="0.00 0.00 451.50 308.00" xmlns="http://www.w3.org/2000/svg" xmlns:xlink="http://www.w3.org/1999/xlink">
<g id="graph0" class="graph" transform="scale(1 1) rotate(0) translate(4 304)">
<title>rpmsg_lite_transport.h</title>
<polygon fill="white" stroke="none" points="-4,4 -4,-304 447.5,-304 447.5,4 -4,4"/>
<!-- Node1 -->
<g id="node1" class="node"><title>Node1</title>
<polygon fill="#bfbfbf" stroke="black" points="121,-280.5 121,-299.5 234,-299.5 234,-280.5 121,-280.5"/>
<text text-anchor="middle" x="177.5" y="-287.5" font-family="Helvetica,sans-Serif" font-size="10.00">rpmsg_lite_transport.h</text>
</g>
<!-- Node2 -->
<g id="node2" class="node"><title>Node2</title>
<g id="a_node2"><a xlink:href="erpc__config__internal_8h_source.html" target="_top" xlink:title="erpc_config_internal.h">
<polygon fill="white" stroke="black" points="0,-224.5 0,-243.5 111,-243.5 111,-224.5 0,-224.5"/>
<text text-anchor="middle" x="55.5" y="-231.5" font-family="Helvetica,sans-Serif" font-size="10.00">erpc_config_internal.h</text>
</a>
</g>
</g>
<!-- Node1&#45;&gt;Node2 -->
<g id="edge1" class="edge"><title>Node1&#45;&gt;Node2</title>
<path fill="none" stroke="midnightblue" d="M158.169,-280.444C138.18,-271.596 106.757,-257.687 83.9361,-247.586"/>
<polygon fill="midnightblue" stroke="midnightblue" points="85.3018,-244.363 74.7408,-243.516 82.4685,-250.764 85.3018,-244.363"/>
</g>
<!-- Node4 -->
<g id="node4" class="node"><title>Node4</title>
<g id="a_node4"><a xlink:href="message__buffer_8h.html" target="_top" xlink:title="message_buffer.h">
<polygon fill="white" stroke="black" points="102,-112.5 102,-131.5 195,-131.5 195,-112.5 102,-112.5"/>
<text text-anchor="middle" x="148.5" y="-119.5" font-family="Helvetica,sans-Serif" font-size="10.00">message_buffer.h</text>
</a>
</g>
</g>
<!-- Node1&#45;&gt;Node4 -->
<g id="edge3" class="edge"><title>Node1&#45;&gt;Node4</title>
<path fill="none" stroke="midnightblue" d="M175.776,-280.371C172.318,-262.945 164.362,-222.295 158.5,-188 155.852,-172.506 153.16,-154.878 151.237,-141.893"/>
<polygon fill="midnightblue" stroke="midnightblue" points="154.678,-141.234 149.766,-131.846 147.752,-142.248 154.678,-141.234"/>
</g>
<!-- Node8 -->
<g id="node8" class="node"><title>Node8</title>
<polygon fill="white" stroke="#bfbfbf" points="167.5,-168.5 167.5,-187.5 237.5,-187.5 237.5,-168.5 167.5,-168.5"/>
<text text-anchor="middle" x="202.5" y="-175.5" font-family="Helvetica,sans-Serif" font-size="10.00">rpmsg_lite.h</text>
</g>
<!-- Node1&#45;&gt;Node8 -->
<g id="edge8" class="edge"><title>Node1&#45;&gt;Node8</title>
<path fill="none" stroke="midnightblue" d="M179.462,-280.368C183.496,-262.617 192.803,-221.666 198.273,-197.597"/>
<polygon fill="midnightblue" stroke="midnightblue" points="201.744,-198.118 200.547,-187.591 194.918,-196.567 201.744,-198.118"/>
</g>
<!-- Node9 -->
<g id="node9" class="node"><title>Node9</title>
<g id="a_node9"><a xlink:href="rpmsg__lite__base__transport_8h.html" target="_top" xlink:title="rpmsg_lite_base_transport.h">
<polygon fill="white" stroke="black" points="205.5,-224.5 205.5,-243.5 345.5,-243.5 345.5,-224.5 205.5,-224.5"/>
<text text-anchor="middle" x="275.5" y="-231.5" font-family="Helvetica,sans-Serif" font-size="10.00">rpmsg_lite_base_transport.h</text>
</a>
</g>
</g>
<!-- Node1&#45;&gt;Node9 -->
<g id="edge9" class="edge"><title>Node1&#45;&gt;Node9</title>
<path fill="none" stroke="midnightblue" d="M193.245,-280.324C208.819,-271.743 232.877,-258.486 250.959,-248.522"/>
<polygon fill="midnightblue" stroke="midnightblue" points="252.724,-251.546 259.794,-243.655 249.346,-245.415 252.724,-251.546"/>
</g>
<!-- Node13 -->
<g id="node13" class="node"><title>Node13</title>
<g id="a_node13"><a xlink:href="static__queue_8h.html" target="_top" xlink:title="static_queue.h">
<polygon fill="white" stroke="black" points="363.5,-224.5 363.5,-243.5 443.5,-243.5 443.5,-224.5 363.5,-224.5"/>
<text text-anchor="middle" x="403.5" y="-231.5" font-family="Helvetica,sans-Serif" font-size="10.00">static_queue.h</text>
</a>
</g>
</g>
<!-- Node1&#45;&gt;Node13 -->
<g id="edge17" class="edge"><title>Node1&#45;&gt;Node13</title>
<path fill="none" stroke="midnightblue" d="M213.31,-280.444C252.488,-271.083 315.377,-256.056 358.015,-245.868"/>
<polygon fill="midnightblue" stroke="midnightblue" points="358.944,-249.245 367.857,-243.516 357.318,-242.436 358.944,-249.245"/>
</g>
<!-- Node3 -->
<g id="node3" class="node"><title>Node3</title>
<g id="a_node3"><a xlink:href="erpc__config_8h.html" target="_top" xlink:title="erpc_config.h">
<polygon fill="white" stroke="black" points="18.5,-168.5 18.5,-187.5 92.5,-187.5 92.5,-168.5 18.5,-168.5"/>
<text text-anchor="middle" x="55.5" y="-175.5" font-family="Helvetica,sans-Serif" font-size="10.00">erpc_config.h</text>
</a>
</g>
</g>
<!-- Node2&#45;&gt;Node3 -->
<g id="edge2" class="edge"><title>Node2&#45;&gt;Node3</title>
<path fill="none" stroke="midnightblue" d="M55.5,-224.083C55.5,-217.006 55.5,-206.861 55.5,-197.986"/>
<polygon fill="midnightblue" stroke="midnightblue" points="59.0001,-197.751 55.5,-187.751 52.0001,-197.751 59.0001,-197.751"/>
</g>
<!-- Node5 -->
<g id="node5" class="node"><title>Node5</title>
<g id="a_node5"><a xlink:href="erpc__common_8h_source.html" target="_top" xlink:title="erpc_common.h">
<polygon fill="white" stroke="black" points="176.5,-56.5 176.5,-75.5 262.5,-75.5 262.5,-56.5 176.5,-56.5"/>
<text text-anchor="middle" x="219.5" y="-63.5" font-family="Helvetica,sans-Serif" font-size="10.00">erpc_common.h</text>
</a>
</g>
</g>
<!-- Node4&#45;&gt;Node5 -->
<g id="edge4" class="edge"><title>Node4&#45;&gt;Node5</title>
<path fill="none" stroke="midnightblue" d="M159.907,-112.324C170.609,-104.185 186.841,-91.8395 199.663,-82.0874"/>
<polygon fill="midnightblue" stroke="midnightblue" points="202.044,-84.6734 207.885,-75.8339 197.807,-79.1018 202.044,-84.6734"/>
</g>
<!-- Node6 -->
<g id="node6" class="node"><title>Node6</title>
<polygon fill="white" stroke="#bfbfbf" points="195,-0.5 195,-19.5 244,-19.5 244,-0.5 195,-0.5"/>
<text text-anchor="middle" x="219.5" y="-7.5" font-family="Helvetica,sans-Serif" font-size="10.00">stdint.h</text>
</g>
<!-- Node4&#45;&gt;Node6 -->
<g id="edge7" class="edge"><title>Node4&#45;&gt;Node6</title>
<path fill="none" stroke="midnightblue" d="M149.446,-112.359C151.212,-99.2617 155.937,-74.0042 167.5,-56 175.161,-44.071 186.904,-33.5262 197.293,-25.6482"/>
<polygon fill="midnightblue" stroke="midnightblue" points="199.508,-28.3666 205.582,-19.6861 195.42,-22.6839 199.508,-28.3666"/>
</g>
<!-- Node7 -->
<g id="node7" class="node"><title>Node7</title>
<polygon fill="white" stroke="#bfbfbf" points="72.5,-56.5 72.5,-75.5 120.5,-75.5 120.5,-56.5 72.5,-56.5"/>
<text text-anchor="middle" x="96.5" y="-63.5" font-family="Helvetica,sans-Serif" font-size="10.00">cstddef</text>
</g>
<!-- Node4&#45;&gt;Node7 -->
<g id="edge6" class="edge"><title>Node4&#45;&gt;Node7</title>
<path fill="none" stroke="midnightblue" d="M139.913,-112.083C132.341,-104.22 121.122,-92.5688 111.986,-83.0813"/>
<polygon fill="midnightblue" stroke="midnightblue" points="114.385,-80.5266 104.927,-75.7511 109.342,-85.3821 114.385,-80.5266"/>
</g>
<!-- Node5&#45;&gt;Node6 -->
<g id="edge5" class="edge"><title>Node5&#45;&gt;Node6</title>
<path fill="none" stroke="midnightblue" d="M219.5,-56.083C219.5,-49.0059 219.5,-38.8611 219.5,-29.9865"/>
<polygon fill="midnightblue" stroke="midnightblue" points="223,-29.751 219.5,-19.7511 216,-29.7511 223,-29.751"/>
</g>
<!-- Node9&#45;&gt;Node8 -->
<g id="edge10" class="edge"><title>Node9&#45;&gt;Node8</title>
<path fill="none" stroke="midnightblue" d="M263.771,-224.324C252.663,-216.107 235.758,-203.602 222.517,-193.807"/>
<polygon fill="midnightblue" stroke="midnightblue" points="224.563,-190.967 214.442,-187.834 220.4,-196.595 224.563,-190.967"/>
</g>
<!-- Node10 -->
<g id="node10" class="node"><title>Node10</title>
<g id="a_node10"><a xlink:href="transport_8h.html" target="_top" xlink:title="transport.h">
<polygon fill="white" stroke="black" points="256,-168.5 256,-187.5 319,-187.5 319,-168.5 256,-168.5"/>
<text text-anchor="middle" x="287.5" y="-175.5" font-family="Helvetica,sans-Serif" font-size="10.00">transport.h</text>
</a>
</g>
</g>
<!-- Node9&#45;&gt;Node10 -->
<g id="edge11" class="edge"><title>Node9&#45;&gt;Node10</title>
<path fill="none" stroke="midnightblue" d="M277.482,-224.083C279.072,-216.927 281.359,-206.635 283.346,-197.691"/>
<polygon fill="midnightblue" stroke="midnightblue" points="286.803,-198.272 285.555,-187.751 279.969,-196.754 286.803,-198.272"/>
</g>
<!-- Node10&#45;&gt;Node4 -->
<g id="edge15" class="edge"><title>Node10&#45;&gt;Node4</title>
<path fill="none" stroke="midnightblue" d="M265.475,-168.444C242.396,-159.478 205.938,-145.314 179.859,-135.183"/>
<polygon fill="midnightblue" stroke="midnightblue" points="181.011,-131.875 170.422,-131.516 178.476,-138.4 181.011,-131.875"/>
</g>
<!-- Node10&#45;&gt;Node5 -->
<g id="edge12" class="edge"><title>Node10&#45;&gt;Node5</title>
<path fill="none" stroke="midnightblue" d="M282.164,-168.368C270.992,-150.296 244.955,-108.176 230.199,-84.3074"/>
<polygon fill="midnightblue" stroke="midnightblue" points="233.046,-82.257 224.811,-75.5914 227.092,-85.9378 233.046,-82.257"/>
</g>
<!-- Node11 -->
<g id="node11" class="node"><title>Node11</title>
<g id="a_node11"><a xlink:href="crc16_8h.html" target="_top" xlink:title="crc16.h">
<polygon fill="white" stroke="black" points="281,-56.5 281,-75.5 330,-75.5 330,-56.5 281,-56.5"/>
<text text-anchor="middle" x="305.5" y="-63.5" font-family="Helvetica,sans-Serif" font-size="10.00">crc16.h</text>
</a>
</g>
</g>
<!-- Node10&#45;&gt;Node11 -->
<g id="edge13" class="edge"><title>Node10&#45;&gt;Node11</title>
<path fill="none" stroke="midnightblue" d="M288.912,-168.368C291.817,-150.617 298.518,-109.666 302.457,-85.5974"/>
<polygon fill="midnightblue" stroke="midnightblue" points="305.933,-86.0254 304.094,-75.5914 299.025,-84.8949 305.933,-86.0254"/>
</g>
<!-- Node12 -->
<g id="node12" class="node"><title>Node12</title>
<polygon fill="white" stroke="#bfbfbf" points="342.5,-112.5 342.5,-131.5 388.5,-131.5 388.5,-112.5 342.5,-112.5"/>
<text text-anchor="middle" x="365.5" y="-119.5" font-family="Helvetica,sans-Serif" font-size="10.00">cstring</text>
</g>
<!-- Node10&#45;&gt;Node12 -->
<g id="edge16" class="edge"><title>Node10&#45;&gt;Node12</title>
<path fill="none" stroke="midnightblue" d="M300.032,-168.324C312.086,-159.979 330.527,-147.212 344.769,-137.352"/>
<polygon fill="midnightblue" stroke="midnightblue" points="346.769,-140.224 352.999,-131.655 342.785,-134.469 346.769,-140.224"/>
</g>
<!-- Node11&#45;&gt;Node6 -->
<g id="edge14" class="edge"><title>Node11&#45;&gt;Node6</title>
<path fill="none" stroke="midnightblue" d="M291.683,-56.324C278.267,-47.9002 257.676,-34.9709 241.914,-25.0741"/>
<polygon fill="midnightblue" stroke="midnightblue" points="243.613,-22.0081 233.283,-19.6545 239.891,-27.9364 243.613,-22.0081"/>
</g>
<!-- Node13&#45;&gt;Node12 -->
<g id="edge18" class="edge"><title>Node13&#45;&gt;Node12</title>
<path fill="none" stroke="midnightblue" d="M400.518,-224.368C394.358,-206.537 380.111,-165.295 371.812,-141.272"/>
<polygon fill="midnightblue" stroke="midnightblue" points="375.041,-139.9 368.468,-131.591 368.425,-142.186 375.041,-139.9"/>
</g>
</g>
</svg>
