<?xml version="1.0" encoding="UTF-8" standalone="no"?>
<!DOCTYPE svg PUBLIC "-//W3C//DTD SVG 1.1//EN"
 "http://www.w3.org/Graphics/SVG/1.1/DTD/svg11.dtd">
<!-- Generated by graphviz version 2.38.0 (20140413.2041)
 -->
<!-- Title: rpmsg_lite_rtos_transport.h Pages: 1 -->
<svg width="372pt" height="308pt"
 viewBox="0.00 0.00 371.50 308.00" xmlns="http://www.w3.org/2000/svg" xmlns:xlink="http://www.w3.org/1999/xlink">
<g id="graph0" class="graph" transform="scale(1 1) rotate(0) translate(4 304)">
<title>rpmsg_lite_rtos_transport.h</title>
<polygon fill="white" stroke="none" points="-4,4 -4,-304 367.5,-304 367.5,4 -4,4"/>
<!-- Node1 -->
<g id="node1" class="node"><title>Node1</title>
<polygon fill="#bfbfbf" stroke="black" points="75.5,-280.5 75.5,-299.5 210.5,-299.5 210.5,-280.5 75.5,-280.5"/>
<text text-anchor="middle" x="143" y="-287.5" font-family="Helvetica,sans-Serif" font-size="10.00">rpmsg_lite_rtos_transport.h</text>
</g>
<!-- Node2 -->
<g id="node2" class="node"><title>Node2</title>
<g id="a_node2"><a xlink:href="message__buffer_8h.html" target="_top" xlink:title="message_buffer.h">
<polygon fill="white" stroke="black" points="25.5,-112.5 25.5,-131.5 118.5,-131.5 118.5,-112.5 25.5,-112.5"/>
<text text-anchor="middle" x="72" y="-119.5" font-family="Helvetica,sans-Serif" font-size="10.00">message_buffer.h</text>
</a>
</g>
</g>
<!-- Node1&#45;&gt;Node2 -->
<g id="edge1" class="edge"><title>Node1&#45;&gt;Node2</title>
<path fill="none" stroke="midnightblue" d="M133.422,-280.463C116.261,-264.414 80.9493,-227.762 69,-188 64.4736,-172.938 65.7576,-155.035 67.8709,-141.835"/>
<polygon fill="midnightblue" stroke="midnightblue" points="71.3807,-142.115 69.8164,-131.636 64.5046,-140.803 71.3807,-142.115"/>
</g>
<!-- Node6 -->
<g id="node6" class="node"><title>Node6</title>
<polygon fill="white" stroke="#bfbfbf" points="78,-168.5 78,-187.5 148,-187.5 148,-168.5 78,-168.5"/>
<text text-anchor="middle" x="113" y="-175.5" font-family="Helvetica,sans-Serif" font-size="10.00">rpmsg_lite.h</text>
</g>
<!-- Node1&#45;&gt;Node6 -->
<g id="edge6" class="edge"><title>Node1&#45;&gt;Node6</title>
<path fill="none" stroke="midnightblue" d="M134.786,-280.182C127.456,-271.663 117.245,-258.019 113,-244 108.447,-228.964 108.846,-211.058 110.158,-197.851"/>
<polygon fill="midnightblue" stroke="midnightblue" points="113.666,-198.004 111.444,-187.645 106.721,-197.129 113.666,-198.004"/>
</g>
<!-- Node7 -->
<g id="node7" class="node"><title>Node7</title>
<g id="a_node7"><a xlink:href="rpmsg__lite__base__transport_8h.html" target="_top" xlink:title="rpmsg_lite_base_transport.h">
<polygon fill="white" stroke="black" points="122,-224.5 122,-243.5 262,-243.5 262,-224.5 122,-224.5"/>
<text text-anchor="middle" x="192" y="-231.5" font-family="Helvetica,sans-Serif" font-size="10.00">rpmsg_lite_base_transport.h</text>
</a>
</g>
</g>
<!-- Node1&#45;&gt;Node7 -->
<g id="edge7" class="edge"><title>Node1&#45;&gt;Node7</title>
<path fill="none" stroke="midnightblue" d="M151.091,-280.083C158.155,-272.298 168.588,-260.801 177.149,-251.367"/>
<polygon fill="midnightblue" stroke="midnightblue" points="179.931,-253.509 184.059,-243.751 174.747,-248.805 179.931,-253.509"/>
</g>
<!-- Node11 -->
<g id="node11" class="node"><title>Node11</title>
<polygon fill="white" stroke="#bfbfbf" points="280.5,-224.5 280.5,-243.5 363.5,-243.5 363.5,-224.5 280.5,-224.5"/>
<text text-anchor="middle" x="322" y="-231.5" font-family="Helvetica,sans-Serif" font-size="10.00">rpmsg_queue.h</text>
</g>
<!-- Node1&#45;&gt;Node11 -->
<g id="edge15" class="edge"><title>Node1&#45;&gt;Node11</title>
<path fill="none" stroke="midnightblue" d="M171.363,-280.444C201.738,-271.28 250.11,-256.688 283.816,-246.519"/>
<polygon fill="midnightblue" stroke="midnightblue" points="285.207,-249.756 293.77,-243.516 283.185,-243.054 285.207,-249.756"/>
</g>
<!-- Node3 -->
<g id="node3" class="node"><title>Node3</title>
<g id="a_node3"><a xlink:href="erpc__common_8h_source.html" target="_top" xlink:title="erpc_common.h">
<polygon fill="white" stroke="black" points="104,-56.5 104,-75.5 190,-75.5 190,-56.5 104,-56.5"/>
<text text-anchor="middle" x="147" y="-63.5" font-family="Helvetica,sans-Serif" font-size="10.00">erpc_common.h</text>
</a>
</g>
</g>
<!-- Node2&#45;&gt;Node3 -->
<g id="edge2" class="edge"><title>Node2&#45;&gt;Node3</title>
<path fill="none" stroke="midnightblue" d="M84.05,-112.324C95.4631,-104.107 112.831,-91.6017 126.435,-81.8069"/>
<polygon fill="midnightblue" stroke="midnightblue" points="128.66,-84.5174 134.731,-75.8339 124.57,-78.8366 128.66,-84.5174"/>
</g>
<!-- Node4 -->
<g id="node4" class="node"><title>Node4</title>
<polygon fill="white" stroke="#bfbfbf" points="122.5,-0.5 122.5,-19.5 171.5,-19.5 171.5,-0.5 122.5,-0.5"/>
<text text-anchor="middle" x="147" y="-7.5" font-family="Helvetica,sans-Serif" font-size="10.00">stdint.h</text>
</g>
<!-- Node2&#45;&gt;Node4 -->
<g id="edge5" class="edge"><title>Node2&#45;&gt;Node4</title>
<path fill="none" stroke="midnightblue" d="M73.5764,-112.357C76.2762,-99.257 82.7208,-73.9959 95,-56 103.096,-44.135 115.067,-33.4831 125.484,-25.5248"/>
<polygon fill="midnightblue" stroke="midnightblue" points="127.725,-28.2221 133.748,-19.5058 123.604,-22.5637 127.725,-28.2221"/>
</g>
<!-- Node5 -->
<g id="node5" class="node"><title>Node5</title>
<polygon fill="white" stroke="#bfbfbf" points="0,-56.5 0,-75.5 48,-75.5 48,-56.5 0,-56.5"/>
<text text-anchor="middle" x="24" y="-63.5" font-family="Helvetica,sans-Serif" font-size="10.00">cstddef</text>
</g>
<!-- Node2&#45;&gt;Node5 -->
<g id="edge4" class="edge"><title>Node2&#45;&gt;Node5</title>
<path fill="none" stroke="midnightblue" d="M64.0738,-112.083C57.1539,-104.298 46.9346,-92.8015 38.548,-83.3665"/>
<polygon fill="midnightblue" stroke="midnightblue" points="41.0383,-80.8999 31.7787,-75.7511 35.8065,-85.5505 41.0383,-80.8999"/>
</g>
<!-- Node3&#45;&gt;Node4 -->
<g id="edge3" class="edge"><title>Node3&#45;&gt;Node4</title>
<path fill="none" stroke="midnightblue" d="M147,-56.083C147,-49.0059 147,-38.8611 147,-29.9865"/>
<polygon fill="midnightblue" stroke="midnightblue" points="150.5,-29.751 147,-19.7511 143.5,-29.7511 150.5,-29.751"/>
</g>
<!-- Node7&#45;&gt;Node6 -->
<g id="edge8" class="edge"><title>Node7&#45;&gt;Node6</title>
<path fill="none" stroke="midnightblue" d="M179.307,-224.324C167.099,-215.979 148.422,-203.212 133.997,-193.352"/>
<polygon fill="midnightblue" stroke="midnightblue" points="135.892,-190.408 125.661,-187.655 131.942,-196.187 135.892,-190.408"/>
</g>
<!-- Node8 -->
<g id="node8" class="node"><title>Node8</title>
<g id="a_node8"><a xlink:href="transport_8h.html" target="_top" xlink:title="transport.h">
<polygon fill="white" stroke="black" points="166.5,-168.5 166.5,-187.5 229.5,-187.5 229.5,-168.5 166.5,-168.5"/>
<text text-anchor="middle" x="198" y="-175.5" font-family="Helvetica,sans-Serif" font-size="10.00">transport.h</text>
</a>
</g>
</g>
<!-- Node7&#45;&gt;Node8 -->
<g id="edge9" class="edge"><title>Node7&#45;&gt;Node8</title>
<path fill="none" stroke="midnightblue" d="M192.991,-224.083C193.786,-216.927 194.929,-206.635 195.923,-197.691"/>
<polygon fill="midnightblue" stroke="midnightblue" points="199.402,-198.076 197.028,-187.751 192.445,-197.303 199.402,-198.076"/>
</g>
<!-- Node8&#45;&gt;Node2 -->
<g id="edge13" class="edge"><title>Node8&#45;&gt;Node2</title>
<path fill="none" stroke="midnightblue" d="M178.035,-168.444C157.391,-159.596 124.937,-145.687 101.368,-135.586"/>
<polygon fill="midnightblue" stroke="midnightblue" points="102.442,-132.239 91.8717,-131.516 99.6844,-138.673 102.442,-132.239"/>
</g>
<!-- Node8&#45;&gt;Node3 -->
<g id="edge10" class="edge"><title>Node8&#45;&gt;Node3</title>
<path fill="none" stroke="midnightblue" d="M190.426,-168.258C183.247,-159.577 172.605,-145.63 166,-132 158.79,-117.122 153.768,-98.9757 150.706,-85.6413"/>
<polygon fill="midnightblue" stroke="midnightblue" points="154.104,-84.7959 148.589,-75.7495 147.259,-86.2605 154.104,-84.7959"/>
</g>
<!-- Node9 -->
<g id="node9" class="node"><title>Node9</title>
<g id="a_node9"><a xlink:href="crc16_8h.html" target="_top" xlink:title="crc16.h">
<polygon fill="white" stroke="black" points="216.5,-56.5 216.5,-75.5 265.5,-75.5 265.5,-56.5 216.5,-56.5"/>
<text text-anchor="middle" x="241" y="-63.5" font-family="Helvetica,sans-Serif" font-size="10.00">crc16.h</text>
</a>
</g>
</g>
<!-- Node8&#45;&gt;Node9 -->
<g id="edge11" class="edge"><title>Node8&#45;&gt;Node9</title>
<path fill="none" stroke="midnightblue" d="M205.929,-168.417C213.371,-159.854 224.201,-145.992 230,-132 236.1,-117.28 238.819,-99.347 240.03,-86.0488"/>
<polygon fill="midnightblue" stroke="midnightblue" points="243.544,-85.9734 240.753,-75.7528 236.561,-85.483 243.544,-85.9734"/>
</g>
<!-- Node10 -->
<g id="node10" class="node"><title>Node10</title>
<polygon fill="white" stroke="#bfbfbf" points="175,-112.5 175,-131.5 221,-131.5 221,-112.5 175,-112.5"/>
<text text-anchor="middle" x="198" y="-119.5" font-family="Helvetica,sans-Serif" font-size="10.00">cstring</text>
</g>
<!-- Node8&#45;&gt;Node10 -->
<g id="edge14" class="edge"><title>Node8&#45;&gt;Node10</title>
<path fill="none" stroke="midnightblue" d="M198,-168.083C198,-161.006 198,-150.861 198,-141.986"/>
<polygon fill="midnightblue" stroke="midnightblue" points="201.5,-141.751 198,-131.751 194.5,-141.751 201.5,-141.751"/>
</g>
<!-- Node9&#45;&gt;Node4 -->
<g id="edge12" class="edge"><title>Node9&#45;&gt;Node4</title>
<path fill="none" stroke="midnightblue" d="M225.897,-56.324C211.097,-47.8215 188.306,-34.7288 171.018,-24.7975"/>
<polygon fill="midnightblue" stroke="midnightblue" points="172.48,-21.6009 162.065,-19.6545 168.993,-27.6707 172.48,-21.6009"/>
</g>
</g>
</svg>
