<?xml version="1.0" encoding="UTF-8" standalone="no"?>
<!DOCTYPE svg PUBLIC "-//W3C//DTD SVG 1.1//EN"
 "http://www.w3.org/Graphics/SVG/1.1/DTD/svg11.dtd">
<!-- Generated by graphviz version 2.38.0 (20140413.2041)
 -->
<!-- Title: simple_server.h Pages: 1 -->
<svg width="399pt" height="364pt"
 viewBox="0.00 0.00 399.49 364.00" xmlns="http://www.w3.org/2000/svg" xmlns:xlink="http://www.w3.org/1999/xlink">
<g id="graph0" class="graph" transform="scale(1 1) rotate(0) translate(4 360)">
<title>simple_server.h</title>
<polygon fill="white" stroke="none" points="-4,4 -4,-360 395.485,-360 395.485,4 -4,4"/>
<!-- Node1 -->
<g id="node1" class="node"><title>Node1</title>
<polygon fill="#bfbfbf" stroke="black" points="87,-336.5 87,-355.5 171,-355.5 171,-336.5 87,-336.5"/>
<text text-anchor="middle" x="129" y="-343.5" font-family="Helvetica,sans-Serif" font-size="10.00">simple_server.h</text>
</g>
<!-- Node2 -->
<g id="node2" class="node"><title>Node2</title>
<g id="a_node2"><a xlink:href="server_8h.html" target="_top" xlink:title="server.h">
<polygon fill="white" stroke="black" points="104,-280.5 104,-299.5 154,-299.5 154,-280.5 104,-280.5"/>
<text text-anchor="middle" x="129" y="-287.5" font-family="Helvetica,sans-Serif" font-size="10.00">server.h</text>
</a>
</g>
</g>
<!-- Node1&#45;&gt;Node2 -->
<g id="edge1" class="edge"><title>Node1&#45;&gt;Node2</title>
<path fill="none" stroke="midnightblue" d="M129,-336.083C129,-329.006 129,-318.861 129,-309.986"/>
<polygon fill="midnightblue" stroke="midnightblue" points="132.5,-309.751 129,-299.751 125.5,-309.751 132.5,-309.751"/>
</g>
<!-- Node3 -->
<g id="node3" class="node"><title>Node3</title>
<g id="a_node3"><a xlink:href="erpc__config__internal_8h_source.html" target="_top" xlink:title="erpc_config_internal.h">
<polygon fill="white" stroke="black" points="20.5,-224.5 20.5,-243.5 131.5,-243.5 131.5,-224.5 20.5,-224.5"/>
<text text-anchor="middle" x="76" y="-231.5" font-family="Helvetica,sans-Serif" font-size="10.00">erpc_config_internal.h</text>
</a>
</g>
</g>
<!-- Node2&#45;&gt;Node3 -->
<g id="edge2" class="edge"><title>Node2&#45;&gt;Node3</title>
<path fill="none" stroke="midnightblue" d="M120.248,-280.083C112.53,-272.22 101.095,-260.569 91.7835,-251.081"/>
<polygon fill="midnightblue" stroke="midnightblue" points="94.0916,-248.436 84.589,-243.751 89.0958,-253.34 94.0916,-248.436"/>
</g>
<!-- Node5 -->
<g id="node5" class="node"><title>Node5</title>
<g id="a_node5"><a xlink:href="codec_8h.html" target="_top" xlink:title="codec.h">
<polygon fill="white" stroke="black" points="157.5,-224.5 157.5,-243.5 208.5,-243.5 208.5,-224.5 157.5,-224.5"/>
<text text-anchor="middle" x="183" y="-231.5" font-family="Helvetica,sans-Serif" font-size="10.00">codec.h</text>
</a>
</g>
</g>
<!-- Node2&#45;&gt;Node5 -->
<g id="edge4" class="edge"><title>Node2&#45;&gt;Node5</title>
<path fill="none" stroke="midnightblue" d="M137.917,-280.083C145.78,-272.22 157.431,-260.569 166.919,-251.081"/>
<polygon fill="midnightblue" stroke="midnightblue" points="169.653,-253.297 174.249,-243.751 164.703,-248.347 169.653,-253.297"/>
</g>
<!-- Node4 -->
<g id="node4" class="node"><title>Node4</title>
<g id="a_node4"><a xlink:href="erpc__config_8h.html" target="_top" xlink:title="erpc_config.h">
<polygon fill="white" stroke="black" points="0,-168.5 0,-187.5 74,-187.5 74,-168.5 0,-168.5"/>
<text text-anchor="middle" x="37" y="-175.5" font-family="Helvetica,sans-Serif" font-size="10.00">erpc_config.h</text>
</a>
</g>
</g>
<!-- Node3&#45;&gt;Node4 -->
<g id="edge3" class="edge"><title>Node3&#45;&gt;Node4</title>
<path fill="none" stroke="midnightblue" d="M69.5599,-224.083C64.0511,-216.455 55.9688,-205.264 49.235,-195.941"/>
<polygon fill="midnightblue" stroke="midnightblue" points="52.0126,-193.809 43.3202,-187.751 46.3378,-197.907 52.0126,-193.809"/>
</g>
<!-- Node6 -->
<g id="node6" class="node"><title>Node6</title>
<g id="a_node6"><a xlink:href="erpc__common_8h_source.html" target="_top" xlink:title="erpc_common.h">
<polygon fill="white" stroke="black" points="113,-56.5 113,-75.5 199,-75.5 199,-56.5 113,-56.5"/>
<text text-anchor="middle" x="156" y="-63.5" font-family="Helvetica,sans-Serif" font-size="10.00">erpc_common.h</text>
</a>
</g>
</g>
<!-- Node5&#45;&gt;Node6 -->
<g id="edge5" class="edge"><title>Node5&#45;&gt;Node6</title>
<path fill="none" stroke="midnightblue" d="M175.326,-224.347C161.244,-207.821 131.738,-170.017 121,-132 118.584,-123.446 118.115,-120.408 121,-112 124.719,-101.161 132.233,-90.9216 139.349,-82.9566"/>
<polygon fill="midnightblue" stroke="midnightblue" points="142.054,-85.1922 146.444,-75.5497 136.999,-80.3498 142.054,-85.1922"/>
</g>
<!-- Node7 -->
<g id="node7" class="node"><title>Node7</title>
<polygon fill="white" stroke="#bfbfbf" points="243.5,-0.5 243.5,-19.5 292.5,-19.5 292.5,-0.5 243.5,-0.5"/>
<text text-anchor="middle" x="268" y="-7.5" font-family="Helvetica,sans-Serif" font-size="10.00">stdint.h</text>
</g>
<!-- Node5&#45;&gt;Node7 -->
<g id="edge18" class="edge"><title>Node5&#45;&gt;Node7</title>
<path fill="none" stroke="midnightblue" d="M208.638,-227.687C251.015,-217.413 334.779,-190.474 373,-132 391.559,-103.607 398.995,-84.1033 380,-56 362.803,-30.5575 328.593,-19.4976 302.483,-14.6912"/>
<polygon fill="midnightblue" stroke="midnightblue" points="303.003,-11.2299 292.572,-13.0887 301.885,-18.1401 303.003,-11.2299"/>
</g>
<!-- Node8 -->
<g id="node8" class="node"><title>Node8</title>
<g id="a_node8"><a xlink:href="message__buffer_8h.html" target="_top" xlink:title="message_buffer.h">
<polygon fill="white" stroke="black" points="270.5,-112.5 270.5,-131.5 363.5,-131.5 363.5,-112.5 270.5,-112.5"/>
<text text-anchor="middle" x="317" y="-119.5" font-family="Helvetica,sans-Serif" font-size="10.00">message_buffer.h</text>
</a>
</g>
</g>
<!-- Node5&#45;&gt;Node8 -->
<g id="edge7" class="edge"><title>Node5&#45;&gt;Node8</title>
<path fill="none" stroke="midnightblue" d="M198.953,-224.342C213.838,-215.935 236.34,-202.368 254,-188 272.373,-173.052 290.949,-153.175 303.121,-139.354"/>
<polygon fill="midnightblue" stroke="midnightblue" points="305.91,-141.479 309.813,-131.629 300.62,-136.896 305.91,-141.479"/>
</g>
<!-- Node10 -->
<g id="node10" class="node"><title>Node10</title>
<g id="a_node10"><a xlink:href="transport_8h.html" target="_top" xlink:title="transport.h">
<polygon fill="white" stroke="black" points="181.5,-168.5 181.5,-187.5 244.5,-187.5 244.5,-168.5 181.5,-168.5"/>
<text text-anchor="middle" x="213" y="-175.5" font-family="Helvetica,sans-Serif" font-size="10.00">transport.h</text>
</a>
</g>
</g>
<!-- Node5&#45;&gt;Node10 -->
<g id="edge11" class="edge"><title>Node5&#45;&gt;Node10</title>
<path fill="none" stroke="midnightblue" d="M187.954,-224.083C192.104,-216.613 198.153,-205.724 203.267,-196.52"/>
<polygon fill="midnightblue" stroke="midnightblue" points="206.341,-198.192 208.138,-187.751 200.222,-194.793 206.341,-198.192"/>
</g>
<!-- Node12 -->
<g id="node12" class="node"><title>Node12</title>
<polygon fill="white" stroke="#bfbfbf" points="130,-112.5 130,-131.5 176,-131.5 176,-112.5 130,-112.5"/>
<text text-anchor="middle" x="153" y="-119.5" font-family="Helvetica,sans-Serif" font-size="10.00">cstring</text>
</g>
<!-- Node5&#45;&gt;Node12 -->
<g id="edge17" class="edge"><title>Node5&#45;&gt;Node12</title>
<path fill="none" stroke="midnightblue" d="M180.646,-224.368C175.783,-206.537 164.535,-165.295 157.983,-141.272"/>
<polygon fill="midnightblue" stroke="midnightblue" points="161.351,-140.318 155.343,-131.591 154.598,-142.16 161.351,-140.318"/>
</g>
<!-- Node6&#45;&gt;Node7 -->
<g id="edge6" class="edge"><title>Node6&#45;&gt;Node7</title>
<path fill="none" stroke="midnightblue" d="M173.995,-56.324C192.038,-47.6247 220.047,-34.1202 240.803,-24.113"/>
<polygon fill="midnightblue" stroke="midnightblue" points="242.562,-27.1502 250.05,-19.6545 239.522,-20.8449 242.562,-27.1502"/>
</g>
<!-- Node8&#45;&gt;Node6 -->
<g id="edge8" class="edge"><title>Node8&#45;&gt;Node6</title>
<path fill="none" stroke="midnightblue" d="M291.489,-112.444C264.404,-103.359 221.41,-88.9388 191.131,-78.7831"/>
<polygon fill="midnightblue" stroke="midnightblue" points="191.986,-75.3781 181.392,-75.5164 189.76,-82.0148 191.986,-75.3781"/>
</g>
<!-- Node8&#45;&gt;Node7 -->
<g id="edge10" class="edge"><title>Node8&#45;&gt;Node7</title>
<path fill="none" stroke="midnightblue" d="M313.155,-112.368C305.176,-94.4563 286.675,-52.9233 275.995,-28.9482"/>
<polygon fill="midnightblue" stroke="midnightblue" points="279.093,-27.3019 271.827,-19.5914 272.699,-30.1503 279.093,-27.3019"/>
</g>
<!-- Node9 -->
<g id="node9" class="node"><title>Node9</title>
<polygon fill="white" stroke="#bfbfbf" points="323,-56.5 323,-75.5 371,-75.5 371,-56.5 323,-56.5"/>
<text text-anchor="middle" x="347" y="-63.5" font-family="Helvetica,sans-Serif" font-size="10.00">cstddef</text>
</g>
<!-- Node8&#45;&gt;Node9 -->
<g id="edge9" class="edge"><title>Node8&#45;&gt;Node9</title>
<path fill="none" stroke="midnightblue" d="M321.954,-112.083C326.104,-104.613 332.153,-93.7244 337.267,-84.5199"/>
<polygon fill="midnightblue" stroke="midnightblue" points="340.341,-86.1924 342.138,-75.7511 334.222,-82.7929 340.341,-86.1924"/>
</g>
<!-- Node10&#45;&gt;Node6 -->
<g id="edge12" class="edge"><title>Node10&#45;&gt;Node6</title>
<path fill="none" stroke="midnightblue" d="M209.812,-168.376C205.018,-155.724 195.401,-131.519 185,-112 179.919,-102.465 173.472,-92.3101 167.948,-84.0648"/>
<polygon fill="midnightblue" stroke="midnightblue" points="170.761,-81.9778 162.225,-75.7017 164.984,-85.931 170.761,-81.9778"/>
</g>
<!-- Node10&#45;&gt;Node8 -->
<g id="edge15" class="edge"><title>Node10&#45;&gt;Node8</title>
<path fill="none" stroke="midnightblue" d="M229.709,-168.324C246.312,-159.703 272.002,-146.364 291.22,-136.386"/>
<polygon fill="midnightblue" stroke="midnightblue" points="293.07,-139.369 300.332,-131.655 289.844,-133.156 293.07,-139.369"/>
</g>
<!-- Node11 -->
<g id="node11" class="node"><title>Node11</title>
<g id="a_node11"><a xlink:href="crc16_8h.html" target="_top" xlink:title="crc16.h">
<polygon fill="white" stroke="black" points="217.5,-56.5 217.5,-75.5 266.5,-75.5 266.5,-56.5 217.5,-56.5"/>
<text text-anchor="middle" x="242" y="-63.5" font-family="Helvetica,sans-Serif" font-size="10.00">crc16.h</text>
</a>
</g>
</g>
<!-- Node10&#45;&gt;Node11 -->
<g id="edge13" class="edge"><title>Node10&#45;&gt;Node11</title>
<path fill="none" stroke="midnightblue" d="M215.276,-168.368C219.977,-150.537 230.849,-109.295 237.183,-85.2717"/>
<polygon fill="midnightblue" stroke="midnightblue" points="240.57,-86.1533 239.735,-75.5914 233.801,-84.3688 240.57,-86.1533"/>
</g>
<!-- Node10&#45;&gt;Node12 -->
<g id="edge16" class="edge"><title>Node10&#45;&gt;Node12</title>
<path fill="none" stroke="midnightblue" d="M203.36,-168.324C194.49,-160.341 181.125,-148.313 170.392,-138.653"/>
<polygon fill="midnightblue" stroke="midnightblue" points="172.59,-135.922 162.815,-131.834 167.907,-141.125 172.59,-135.922"/>
</g>
<!-- Node11&#45;&gt;Node7 -->
<g id="edge14" class="edge"><title>Node11&#45;&gt;Node7</title>
<path fill="none" stroke="midnightblue" d="M246.293,-56.083C249.852,-48.6913 255.022,-37.9533 259.424,-28.8111"/>
<polygon fill="midnightblue" stroke="midnightblue" points="262.602,-30.2795 263.787,-19.7511 256.295,-27.2427 262.602,-30.2795"/>
</g>
</g>
</svg>
