<?xml version="1.0" encoding="UTF-8" standalone="no"?>
<!DOCTYPE svg PUBLIC "-//W3C//DTD SVG 1.1//EN"
 "http://www.w3.org/Graphics/SVG/1.1/DTD/svg11.dtd">
<!-- Generated by graphviz version 2.38.0 (20140413.2041)
 -->
<!-- Title: tcp_transport.h Pages: 1 -->
<svg width="385pt" height="308pt"
 viewBox="0.00 0.00 385.23 308.00" xmlns="http://www.w3.org/2000/svg" xmlns:xlink="http://www.w3.org/1999/xlink">
<g id="graph0" class="graph" transform="scale(1 1) rotate(0) translate(4 304)">
<title>tcp_transport.h</title>
<polygon fill="white" stroke="none" points="-4,4 -4,-304 381.235,-304 381.235,4 -4,4"/>
<!-- Node1 -->
<g id="node1" class="node"><title>Node1</title>
<polygon fill="#bfbfbf" stroke="black" points="93.2346,-280.5 93.2346,-299.5 175.235,-299.5 175.235,-280.5 93.2346,-280.5"/>
<text text-anchor="middle" x="134.235" y="-287.5" font-family="Helvetica,sans-Serif" font-size="10.00">tcp_transport.h</text>
</g>
<!-- Node2 -->
<g id="node2" class="node"><title>Node2</title>
<g id="a_node2"><a xlink:href="erpc__threading_8h.html" target="_top" xlink:title="erpc_threading.h">
<polygon fill="white" stroke="black" points="26.7346,-168.5 26.7346,-187.5 115.735,-187.5 115.735,-168.5 26.7346,-168.5"/>
<text text-anchor="middle" x="71.2346" y="-175.5" font-family="Helvetica,sans-Serif" font-size="10.00">erpc_threading.h</text>
</a>
</g>
</g>
<!-- Node1&#45;&gt;Node2 -->
<g id="edge1" class="edge"><title>Node1&#45;&gt;Node2</title>
<path fill="none" stroke="midnightblue" d="M129.291,-280.368C118.94,-262.296 94.8175,-220.176 81.147,-196.307"/>
<polygon fill="midnightblue" stroke="midnightblue" points="84.1623,-194.53 76.1552,-187.591 78.0879,-198.008 84.1623,-194.53"/>
</g>
<!-- Node6 -->
<g id="node6" class="node"><title>Node6</title>
<g id="a_node6"><a xlink:href="framed__transport_8h.html" target="_top" xlink:title="framed_transport.h">
<polygon fill="white" stroke="black" points="129.235,-224.5 129.235,-243.5 227.235,-243.5 227.235,-224.5 129.235,-224.5"/>
<text text-anchor="middle" x="178.235" y="-231.5" font-family="Helvetica,sans-Serif" font-size="10.00">framed_transport.h</text>
</a>
</g>
</g>
<!-- Node1&#45;&gt;Node6 -->
<g id="edge5" class="edge"><title>Node1&#45;&gt;Node6</title>
<path fill="none" stroke="midnightblue" d="M141.5,-280.083C147.779,-272.377 157.022,-261.033 164.665,-251.653"/>
<polygon fill="midnightblue" stroke="midnightblue" points="167.501,-253.714 171.104,-243.751 162.074,-249.293 167.501,-253.714"/>
</g>
<!-- Node3 -->
<g id="node3" class="node"><title>Node3</title>
<g id="a_node3"><a xlink:href="erpc__config__internal_8h_source.html" target="_top" xlink:title="erpc_config_internal.h">
<polygon fill="white" stroke="black" points="14.7346,-112.5 14.7346,-131.5 125.735,-131.5 125.735,-112.5 14.7346,-112.5"/>
<text text-anchor="middle" x="70.2346" y="-119.5" font-family="Helvetica,sans-Serif" font-size="10.00">erpc_config_internal.h</text>
</a>
</g>
</g>
<!-- Node2&#45;&gt;Node3 -->
<g id="edge2" class="edge"><title>Node2&#45;&gt;Node3</title>
<path fill="none" stroke="midnightblue" d="M71.0695,-168.083C70.9384,-161.006 70.7506,-150.861 70.5862,-141.986"/>
<polygon fill="midnightblue" stroke="midnightblue" points="74.0813,-141.685 70.3967,-131.751 67.0825,-141.814 74.0813,-141.685"/>
</g>
<!-- Node5 -->
<g id="node5" class="node"><title>Node5</title>
<polygon fill="white" stroke="#bfbfbf" points="200.735,-0.5 200.735,-19.5 249.735,-19.5 249.735,-0.5 200.735,-0.5"/>
<text text-anchor="middle" x="225.235" y="-7.5" font-family="Helvetica,sans-Serif" font-size="10.00">stdint.h</text>
</g>
<!-- Node2&#45;&gt;Node5 -->
<g id="edge4" class="edge"><title>Node2&#45;&gt;Node5</title>
<path fill="none" stroke="midnightblue" d="M48.7761,-168.382C33.4653,-161.184 14.3715,-149.288 5.23462,-132 -3.81662,-114.874 -0.442416,-70.6294 13.2346,-56 36.963,-30.6195 136.794,-18.4386 190.571,-13.6219"/>
<polygon fill="midnightblue" stroke="midnightblue" points="191.012,-17.097 200.676,-12.755 190.414,-10.1226 191.012,-17.097"/>
</g>
<!-- Node4 -->
<g id="node4" class="node"><title>Node4</title>
<g id="a_node4"><a xlink:href="erpc__config_8h.html" target="_top" xlink:title="erpc_config.h">
<polygon fill="white" stroke="black" points="22.2346,-56.5 22.2346,-75.5 96.2346,-75.5 96.2346,-56.5 22.2346,-56.5"/>
<text text-anchor="middle" x="59.2346" y="-63.5" font-family="Helvetica,sans-Serif" font-size="10.00">erpc_config.h</text>
</a>
</g>
</g>
<!-- Node3&#45;&gt;Node4 -->
<g id="edge3" class="edge"><title>Node3&#45;&gt;Node4</title>
<path fill="none" stroke="midnightblue" d="M68.4182,-112.083C66.9605,-104.927 64.864,-94.6353 63.0421,-85.6911"/>
<polygon fill="midnightblue" stroke="midnightblue" points="66.4429,-84.8512 61.0172,-75.7511 59.5838,-86.2485 66.4429,-84.8512"/>
</g>
<!-- Node6&#45;&gt;Node2 -->
<g id="edge19" class="edge"><title>Node6&#45;&gt;Node2</title>
<path fill="none" stroke="midnightblue" d="M161.043,-224.324C143.884,-215.664 117.289,-202.242 97.4873,-192.249"/>
<polygon fill="midnightblue" stroke="midnightblue" points="98.8878,-189.035 88.3834,-187.655 95.734,-195.285 98.8878,-189.035"/>
</g>
<!-- Node6&#45;&gt;Node3 -->
<g id="edge6" class="edge"><title>Node6&#45;&gt;Node3</title>
<path fill="none" stroke="midnightblue" d="M171.716,-224.156C162.01,-211.231 142.893,-186.687 124.235,-168 113.591,-157.34 100.657,-146.498 90.1157,-138.128"/>
<polygon fill="midnightblue" stroke="midnightblue" points="91.9633,-135.13 81.9267,-131.736 87.6564,-140.648 91.9633,-135.13"/>
</g>
<!-- Node7 -->
<g id="node7" class="node"><title>Node7</title>
<g id="a_node7"><a xlink:href="message__buffer_8h.html" target="_top" xlink:title="message_buffer.h">
<polygon fill="white" stroke="black" points="143.735,-112.5 143.735,-131.5 236.735,-131.5 236.735,-112.5 143.735,-112.5"/>
<text text-anchor="middle" x="190.235" y="-119.5" font-family="Helvetica,sans-Serif" font-size="10.00">message_buffer.h</text>
</a>
</g>
</g>
<!-- Node6&#45;&gt;Node7 -->
<g id="edge7" class="edge"><title>Node6&#45;&gt;Node7</title>
<path fill="none" stroke="midnightblue" d="M179.176,-224.368C181.113,-206.617 185.58,-165.666 188.206,-141.597"/>
<polygon fill="midnightblue" stroke="midnightblue" points="191.692,-141.912 189.297,-131.591 184.733,-141.153 191.692,-141.912"/>
</g>
<!-- Node10 -->
<g id="node10" class="node"><title>Node10</title>
<g id="a_node10"><a xlink:href="transport_8h.html" target="_top" xlink:title="transport.h">
<polygon fill="white" stroke="black" points="233.735,-168.5 233.735,-187.5 296.735,-187.5 296.735,-168.5 233.735,-168.5"/>
<text text-anchor="middle" x="265.235" y="-175.5" font-family="Helvetica,sans-Serif" font-size="10.00">transport.h</text>
</a>
</g>
</g>
<!-- Node6&#45;&gt;Node10 -->
<g id="edge12" class="edge"><title>Node6&#45;&gt;Node10</title>
<path fill="none" stroke="midnightblue" d="M192.213,-224.324C205.784,-215.9 226.615,-202.971 242.56,-193.074"/>
<polygon fill="midnightblue" stroke="midnightblue" points="244.641,-195.902 251.291,-187.655 240.949,-189.954 244.641,-195.902"/>
</g>
<!-- Node12 -->
<g id="node12" class="node"><title>Node12</title>
<polygon fill="white" stroke="#bfbfbf" points="331.235,-112.5 331.235,-131.5 377.235,-131.5 377.235,-112.5 331.235,-112.5"/>
<text text-anchor="middle" x="354.235" y="-119.5" font-family="Helvetica,sans-Serif" font-size="10.00">cstring</text>
</g>
<!-- Node6&#45;&gt;Node12 -->
<g id="edge18" class="edge"><title>Node6&#45;&gt;Node12</title>
<path fill="none" stroke="midnightblue" d="M220.936,-224.482C247.097,-217.738 280.24,-206.327 305.235,-188 322.273,-175.507 336.122,-155.438 344.696,-140.902"/>
<polygon fill="midnightblue" stroke="midnightblue" points="347.916,-142.316 349.763,-131.884 341.813,-138.887 347.916,-142.316"/>
</g>
<!-- Node7&#45;&gt;Node5 -->
<g id="edge11" class="edge"><title>Node7&#45;&gt;Node5</title>
<path fill="none" stroke="midnightblue" d="M192.657,-112.12C196.122,-99.5579 202.791,-75.9106 209.235,-56 212.11,-47.114 215.553,-37.3357 218.507,-29.1706"/>
<polygon fill="midnightblue" stroke="midnightblue" points="221.868,-30.1706 222.02,-19.5768 215.295,-27.7636 221.868,-30.1706"/>
</g>
<!-- Node8 -->
<g id="node8" class="node"><title>Node8</title>
<g id="a_node8"><a xlink:href="erpc__common_8h_source.html" target="_top" xlink:title="erpc_common.h">
<polygon fill="white" stroke="black" points="218.235,-56.5 218.235,-75.5 304.235,-75.5 304.235,-56.5 218.235,-56.5"/>
<text text-anchor="middle" x="261.235" y="-63.5" font-family="Helvetica,sans-Serif" font-size="10.00">erpc_common.h</text>
</a>
</g>
</g>
<!-- Node7&#45;&gt;Node8 -->
<g id="edge8" class="edge"><title>Node7&#45;&gt;Node8</title>
<path fill="none" stroke="midnightblue" d="M201.642,-112.324C212.343,-104.185 228.575,-91.8395 241.397,-82.0874"/>
<polygon fill="midnightblue" stroke="midnightblue" points="243.779,-84.6734 249.62,-75.8339 239.541,-79.1018 243.779,-84.6734"/>
</g>
<!-- Node9 -->
<g id="node9" class="node"><title>Node9</title>
<polygon fill="white" stroke="#bfbfbf" points="114.235,-56.5 114.235,-75.5 162.235,-75.5 162.235,-56.5 114.235,-56.5"/>
<text text-anchor="middle" x="138.235" y="-63.5" font-family="Helvetica,sans-Serif" font-size="10.00">cstddef</text>
</g>
<!-- Node7&#45;&gt;Node9 -->
<g id="edge10" class="edge"><title>Node7&#45;&gt;Node9</title>
<path fill="none" stroke="midnightblue" d="M181.648,-112.083C174.076,-104.22 162.856,-92.5688 153.72,-83.0813"/>
<polygon fill="midnightblue" stroke="midnightblue" points="156.119,-80.5266 146.662,-75.7511 151.077,-85.3821 156.119,-80.5266"/>
</g>
<!-- Node8&#45;&gt;Node5 -->
<g id="edge9" class="edge"><title>Node8&#45;&gt;Node5</title>
<path fill="none" stroke="midnightblue" d="M255.29,-56.083C250.257,-48.5341 242.898,-37.4948 236.721,-28.2298"/>
<polygon fill="midnightblue" stroke="midnightblue" points="239.528,-26.1301 231.069,-19.7511 233.704,-30.0131 239.528,-26.1301"/>
</g>
<!-- Node10&#45;&gt;Node7 -->
<g id="edge16" class="edge"><title>Node10&#45;&gt;Node7</title>
<path fill="none" stroke="midnightblue" d="M253.185,-168.324C241.772,-160.107 224.404,-147.602 210.8,-137.807"/>
<polygon fill="midnightblue" stroke="midnightblue" points="212.664,-134.837 202.504,-131.834 208.574,-140.517 212.664,-134.837"/>
</g>
<!-- Node10&#45;&gt;Node8 -->
<g id="edge13" class="edge"><title>Node10&#45;&gt;Node8</title>
<path fill="none" stroke="midnightblue" d="M264.921,-168.368C264.275,-150.617 262.786,-109.666 261.911,-85.5974"/>
<polygon fill="midnightblue" stroke="midnightblue" points="265.408,-85.4576 261.547,-75.5914 258.413,-85.712 265.408,-85.4576"/>
</g>
<!-- Node11 -->
<g id="node11" class="node"><title>Node11</title>
<g id="a_node11"><a xlink:href="crc16_8h.html" target="_top" xlink:title="crc16.h">
<polygon fill="white" stroke="black" points="322.735,-56.5 322.735,-75.5 371.735,-75.5 371.735,-56.5 322.735,-56.5"/>
<text text-anchor="middle" x="347.235" y="-63.5" font-family="Helvetica,sans-Serif" font-size="10.00">crc16.h</text>
</a>
</g>
</g>
<!-- Node10&#45;&gt;Node11 -->
<g id="edge14" class="edge"><title>Node10&#45;&gt;Node11</title>
<path fill="none" stroke="midnightblue" d="M271.669,-168.368C285.261,-150.135 317.099,-107.426 334.804,-83.6752"/>
<polygon fill="midnightblue" stroke="midnightblue" points="337.66,-85.7007 340.83,-75.5914 332.047,-81.5171 337.66,-85.7007"/>
</g>
<!-- Node10&#45;&gt;Node12 -->
<g id="edge17" class="edge"><title>Node10&#45;&gt;Node12</title>
<path fill="none" stroke="midnightblue" d="M279.534,-168.324C293.418,-159.9 314.727,-146.971 331.038,-137.074"/>
<polygon fill="midnightblue" stroke="midnightblue" points="333.237,-139.834 339.971,-131.655 329.606,-133.85 333.237,-139.834"/>
</g>
<!-- Node11&#45;&gt;Node5 -->
<g id="edge15" class="edge"><title>Node11&#45;&gt;Node5</title>
<path fill="none" stroke="midnightblue" d="M327.903,-56.4435C307.915,-47.5961 276.492,-33.6875 253.671,-23.5865"/>
<polygon fill="midnightblue" stroke="midnightblue" points="255.036,-20.3635 244.475,-19.5164 252.203,-26.7645 255.036,-20.3635"/>
</g>
</g>
</svg>
