<?xml version="1.0" encoding="UTF-8" standalone="no"?>
<!DOCTYPE svg PUBLIC "-//W3C//DTD SVG 1.1//EN"
 "http://www.w3.org/Graphics/SVG/1.1/DTD/svg11.dtd">
<!-- Generated by graphviz version 2.38.0 (20140413.2041)
 -->
<!-- Title: transport.h Pages: 1 -->
<svg width="1805pt" height="207pt"
 viewBox="0.00 0.00 1805.00 207.00" xmlns="http://www.w3.org/2000/svg" xmlns:xlink="http://www.w3.org/1999/xlink">
<g id="graph0" class="graph" transform="scale(1 1) rotate(0) translate(4 203)">
<title>transport.h</title>
<polygon fill="white" stroke="none" points="-4,4 -4,-203 1801,-203 1801,4 -4,4"/>
<!-- Node1 -->
<g id="node1" class="node"><title>Node1</title>
<polygon fill="#bfbfbf" stroke="black" points="962.5,-179.5 962.5,-198.5 1025.5,-198.5 1025.5,-179.5 962.5,-179.5"/>
<text text-anchor="middle" x="994" y="-186.5" font-family="Helvetica,sans-Serif" font-size="10.00">transport.h</text>
</g>
<!-- Node2 -->
<g id="node2" class="node"><title>Node2</title>
<g id="a_node2"><a xlink:href="codec_8h.html" target="_top" xlink:title="codec.h">
<polygon fill="white" stroke="black" points="312.5,-118 312.5,-137 363.5,-137 363.5,-118 312.5,-118"/>
<text text-anchor="middle" x="338" y="-125" font-family="Helvetica,sans-Serif" font-size="10.00">codec.h</text>
</a>
</g>
</g>
<!-- Node1&#45;&gt;Node2 -->
<g id="edge1" class="edge"><title>Node1&#45;&gt;Node2</title>
<path fill="none" stroke="midnightblue" d="M952.294,-184.974C862.296,-178.336 643.191,-161.6 460,-143 426.684,-139.617 388.346,-134.93 363.677,-131.811"/>
<polygon fill="midnightblue" stroke="midnightblue" points="952.137,-188.472 962.366,-185.714 952.65,-181.49 952.137,-188.472"/>
</g>
<!-- Node5 -->
<g id="node5" class="node"><title>Node5</title>
<g id="a_node5"><a xlink:href="transport__arbitrator_8h.html" target="_top" xlink:title="transport_arbitrator.h">
<polygon fill="white" stroke="black" points="376.5,-0.5 376.5,-19.5 483.5,-19.5 483.5,-0.5 376.5,-0.5"/>
<text text-anchor="middle" x="430" y="-7.5" font-family="Helvetica,sans-Serif" font-size="10.00">transport_arbitrator.h</text>
</a>
</g>
</g>
<!-- Node1&#45;&gt;Node5 -->
<g id="edge10" class="edge"><title>Node1&#45;&gt;Node5</title>
<path fill="none" stroke="midnightblue" d="M952.25,-186.951C862.294,-182.999 645.96,-164.279 493,-76 467.683,-61.3887 445.898,-33.6964 435.877,-19.6446"/>
<polygon fill="midnightblue" stroke="midnightblue" points="952.197,-190.452 962.329,-187.354 952.477,-183.457 952.197,-190.452"/>
</g>
<!-- Node10 -->
<g id="node10" class="node"><title>Node10</title>
<g id="a_node10"><a xlink:href="framed__transport_8h.html" target="_top" xlink:title="framed_transport.h">
<polygon fill="white" stroke="black" points="769,-118 769,-137 867,-137 867,-118 769,-118"/>
<text text-anchor="middle" x="818" y="-125" font-family="Helvetica,sans-Serif" font-size="10.00">framed_transport.h</text>
</a>
</g>
</g>
<!-- Node1&#45;&gt;Node10 -->
<g id="edge11" class="edge"><title>Node1&#45;&gt;Node10</title>
<path fill="none" stroke="midnightblue" d="M959.19,-176.232C924.978,-164.666 873.6,-147.297 843.17,-137.009"/>
<polygon fill="midnightblue" stroke="midnightblue" points="958.189,-179.588 968.783,-179.475 960.431,-172.957 958.189,-179.588"/>
</g>
<!-- Node18 -->
<g id="node18" class="node"><title>Node18</title>
<g id="a_node18"><a xlink:href="message__loggers_8h.html" target="_top" xlink:title="message_loggers.h">
<polygon fill="white" stroke="black" points="885.5,-118 885.5,-137 986.5,-137 986.5,-118 885.5,-118"/>
<text text-anchor="middle" x="936" y="-125" font-family="Helvetica,sans-Serif" font-size="10.00">message_loggers.h</text>
</a>
</g>
</g>
<!-- Node1&#45;&gt;Node18 -->
<g id="edge19" class="edge"><title>Node1&#45;&gt;Node18</title>
<path fill="none" stroke="midnightblue" d="M978.401,-171.997C967.423,-160.736 953.161,-146.104 944.295,-137.009"/>
<polygon fill="midnightblue" stroke="midnightblue" points="976.203,-174.757 985.69,-179.475 981.216,-169.871 976.203,-174.757"/>
</g>
<!-- Node19 -->
<g id="node19" class="node"><title>Node19</title>
<g id="a_node19"><a xlink:href="inter__thread__buffer__transport_8h.html" target="_top" xlink:title="inter_thread_buffer\l_transport.h">
<polygon fill="white" stroke="black" points="1005,-112.5 1005,-142.5 1101,-142.5 1101,-112.5 1005,-112.5"/>
<text text-anchor="start" x="1013" y="-130.5" font-family="Helvetica,sans-Serif" font-size="10.00">inter_thread_buffer</text>
<text text-anchor="middle" x="1053" y="-119.5" font-family="Helvetica,sans-Serif" font-size="10.00">_transport.h</text>
</a>
</g>
</g>
<!-- Node1&#45;&gt;Node19 -->
<g id="edge20" class="edge"><title>Node1&#45;&gt;Node19</title>
<path fill="none" stroke="midnightblue" d="M1009.5,-172.369C1018.68,-163.113 1030.21,-151.482 1039.09,-142.523"/>
<polygon fill="midnightblue" stroke="midnightblue" points="1007.01,-169.91 1002.45,-179.475 1011.98,-174.839 1007.01,-169.91"/>
</g>
<!-- Node20 -->
<g id="node20" class="node"><title>Node20</title>
<g id="a_node20"><a xlink:href="mu__transport_8h.html" target="_top" xlink:title="mu_transport.h">
<polygon fill="white" stroke="black" points="1119,-118 1119,-137 1201,-137 1201,-118 1119,-118"/>
<text text-anchor="middle" x="1160" y="-125" font-family="Helvetica,sans-Serif" font-size="10.00">mu_transport.h</text>
</a>
</g>
</g>
<!-- Node1&#45;&gt;Node20 -->
<g id="edge21" class="edge"><title>Node1&#45;&gt;Node20</title>
<path fill="none" stroke="midnightblue" d="M1027.25,-176.083C1059.52,-164.517 1107.68,-147.252 1136.26,-137.009"/>
<polygon fill="midnightblue" stroke="midnightblue" points="1026.02,-172.806 1017.78,-179.475 1028.38,-179.396 1026.02,-172.806"/>
</g>
<!-- Node21 -->
<g id="node21" class="node"><title>Node21</title>
<g id="a_node21"><a xlink:href="rpmsg__linux__transport_8h_source.html" target="_top" xlink:title="rpmsg_linux_transport.h">
<polygon fill="white" stroke="black" points="1219.5,-118 1219.5,-137 1340.5,-137 1340.5,-118 1219.5,-118"/>
<text text-anchor="middle" x="1280" y="-125" font-family="Helvetica,sans-Serif" font-size="10.00">rpmsg_linux_transport.h</text>
</a>
</g>
</g>
<!-- Node1&#45;&gt;Node21 -->
<g id="edge22" class="edge"><title>Node1&#45;&gt;Node21</title>
<path fill="none" stroke="midnightblue" d="M1035.7,-179.324C1090.14,-167.999 1184.84,-148.298 1238.95,-137.04"/>
<polygon fill="midnightblue" stroke="midnightblue" points="1034.78,-175.942 1025.7,-181.405 1036.2,-182.795 1034.78,-175.942"/>
</g>
<!-- Node22 -->
<g id="node22" class="node"><title>Node22</title>
<g id="a_node22"><a xlink:href="rpmsg__lite__base__transport_8h.html" target="_top" xlink:title="rpmsg_lite_base_transport.h">
<polygon fill="white" stroke="black" points="1447,-118 1447,-137 1587,-137 1587,-118 1447,-118"/>
<text text-anchor="middle" x="1517" y="-125" font-family="Helvetica,sans-Serif" font-size="10.00">rpmsg_lite_base_transport.h</text>
</a>
</g>
</g>
<!-- Node1&#45;&gt;Node22 -->
<g id="edge23" class="edge"><title>Node1&#45;&gt;Node22</title>
<path fill="none" stroke="midnightblue" d="M1035.56,-183.271C1124.9,-173.107 1336.08,-149.083 1446.68,-136.5"/>
<polygon fill="midnightblue" stroke="midnightblue" points="1035.08,-179.804 1025.54,-184.412 1035.87,-186.759 1035.08,-179.804"/>
</g>
<!-- Node3 -->
<g id="node3" class="node"><title>Node3</title>
<g id="a_node3"><a xlink:href="client__manager_8h.html" target="_top" xlink:title="client_manager.h">
<polygon fill="white" stroke="black" points="218.5,-56.5 218.5,-75.5 309.5,-75.5 309.5,-56.5 218.5,-56.5"/>
<text text-anchor="middle" x="264" y="-63.5" font-family="Helvetica,sans-Serif" font-size="10.00">client_manager.h</text>
</a>
</g>
</g>
<!-- Node2&#45;&gt;Node3 -->
<g id="edge2" class="edge"><title>Node2&#45;&gt;Node3</title>
<path fill="none" stroke="midnightblue" d="M319.311,-111.473C305.157,-100.093 286.224,-84.8694 274.583,-75.5091"/>
<polygon fill="midnightblue" stroke="midnightblue" points="317.411,-114.437 327.398,-117.975 321.798,-108.981 317.411,-114.437"/>
</g>
<!-- Node2&#45;&gt;Node5 -->
<g id="edge6" class="edge"><title>Node2&#45;&gt;Node5</title>
<path fill="none" stroke="midnightblue" d="M339.295,-107.542C341.172,-92.3149 345.767,-71.0612 357,-56 369.728,-38.9337 391.015,-26.8925 407.326,-19.5875"/>
<polygon fill="midnightblue" stroke="midnightblue" points="335.781,-107.523 338.323,-117.809 342.75,-108.183 335.781,-107.523"/>
</g>
<!-- Node7 -->
<g id="node7" class="node"><title>Node7</title>
<g id="a_node7"><a xlink:href="basic__codec_8h.html" target="_top" xlink:title="basic_codec.h">
<polygon fill="white" stroke="black" points="366,-56.5 366,-75.5 446,-75.5 446,-56.5 366,-56.5"/>
<text text-anchor="middle" x="406" y="-63.5" font-family="Helvetica,sans-Serif" font-size="10.00">basic_codec.h</text>
</a>
</g>
</g>
<!-- Node2&#45;&gt;Node7 -->
<g id="edge7" class="edge"><title>Node2&#45;&gt;Node7</title>
<path fill="none" stroke="midnightblue" d="M355.543,-111.15C368.508,-99.8058 385.679,-84.7811 396.275,-75.5091"/>
<polygon fill="midnightblue" stroke="midnightblue" points="352.964,-108.756 347.743,-117.975 357.573,-114.024 352.964,-108.756"/>
</g>
<!-- Node8 -->
<g id="node8" class="node"><title>Node8</title>
<g id="a_node8"><a xlink:href="server_8h.html" target="_top" xlink:title="server.h">
<polygon fill="white" stroke="black" points="83,-56.5 83,-75.5 133,-75.5 133,-56.5 83,-56.5"/>
<text text-anchor="middle" x="108" y="-63.5" font-family="Helvetica,sans-Serif" font-size="10.00">server.h</text>
</a>
</g>
</g>
<!-- Node2&#45;&gt;Node8 -->
<g id="edge8" class="edge"><title>Node2&#45;&gt;Node8</title>
<path fill="none" stroke="midnightblue" d="M302.318,-117.269C255.392,-105.13 174.109,-84.1021 133.142,-73.5041"/>
<polygon fill="midnightblue" stroke="midnightblue" points="301.505,-120.674 312.063,-119.79 303.258,-113.897 301.505,-120.674"/>
</g>
<!-- Node4 -->
<g id="node4" class="node"><title>Node4</title>
<g id="a_node4"><a xlink:href="arbitrated__client__manager_8h.html" target="_top" xlink:title="arbitrated_client_manager.h">
<polygon fill="white" stroke="black" points="102.5,-0.5 102.5,-19.5 239.5,-19.5 239.5,-0.5 102.5,-0.5"/>
<text text-anchor="middle" x="171" y="-7.5" font-family="Helvetica,sans-Serif" font-size="10.00">arbitrated_client_manager.h</text>
</a>
</g>
</g>
<!-- Node3&#45;&gt;Node4 -->
<g id="edge3" class="edge"><title>Node3&#45;&gt;Node4</title>
<path fill="none" stroke="midnightblue" d="M240.194,-51.1774C223.081,-41.2407 200.535,-28.1492 185.905,-19.6545"/>
<polygon fill="midnightblue" stroke="midnightblue" points="238.653,-54.3293 249.058,-56.324 242.168,-48.2758 238.653,-54.3293"/>
</g>
<!-- Node3&#45;&gt;Node5 -->
<g id="edge4" class="edge"><title>Node3&#45;&gt;Node5</title>
<path fill="none" stroke="midnightblue" d="M299.953,-53.3044C331.232,-43.1294 375.821,-28.6246 403.82,-19.5164"/>
<polygon fill="midnightblue" stroke="midnightblue" points="298.73,-50.0217 290.303,-56.4435 300.895,-56.6783 298.73,-50.0217"/>
</g>
<!-- Node6 -->
<g id="node6" class="node"><title>Node6</title>
<g id="a_node6"><a xlink:href="erpc__client__setup_8h.html" target="_top" xlink:title="erpc_client_setup.h">
<polygon fill="white" stroke="black" points="257.5,-0.5 257.5,-19.5 358.5,-19.5 358.5,-0.5 257.5,-0.5"/>
<text text-anchor="middle" x="308" y="-7.5" font-family="Helvetica,sans-Serif" font-size="10.00">erpc_client_setup.h</text>
</a>
</g>
</g>
<!-- Node3&#45;&gt;Node6 -->
<g id="edge5" class="edge"><title>Node3&#45;&gt;Node6</title>
<path fill="none" stroke="midnightblue" d="M277.735,-48.144C285.401,-38.7357 294.633,-27.4046 300.869,-19.7511"/>
<polygon fill="midnightblue" stroke="midnightblue" points="274.869,-46.1198 271.266,-56.083 280.296,-50.5415 274.869,-46.1198"/>
</g>
<!-- Node9 -->
<g id="node9" class="node"><title>Node9</title>
<g id="a_node9"><a xlink:href="simple__server_8h.html" target="_top" xlink:title="simple_server.h">
<polygon fill="white" stroke="black" points="0,-0.5 0,-19.5 84,-19.5 84,-0.5 0,-0.5"/>
<text text-anchor="middle" x="42" y="-7.5" font-family="Helvetica,sans-Serif" font-size="10.00">simple_server.h</text>
</a>
</g>
</g>
<!-- Node8&#45;&gt;Node9 -->
<g id="edge9" class="edge"><title>Node8&#45;&gt;Node9</title>
<path fill="none" stroke="midnightblue" d="M89.4463,-49.8197C77.6219,-40.1452 62.7144,-27.9481 52.797,-19.8339"/>
<polygon fill="midnightblue" stroke="midnightblue" points="87.44,-52.7004 97.396,-56.324 91.8727,-47.2827 87.44,-52.7004"/>
</g>
<!-- Node11 -->
<g id="node11" class="node"><title>Node11</title>
<g id="a_node11"><a xlink:href="dspi__master__transport_8h.html" target="_top" xlink:title="dspi_master_transport.h">
<polygon fill="white" stroke="black" points="1238,-56.5 1238,-75.5 1360,-75.5 1360,-56.5 1238,-56.5"/>
<text text-anchor="middle" x="1299" y="-63.5" font-family="Helvetica,sans-Serif" font-size="10.00">dspi_master_transport.h</text>
</a>
</g>
</g>
<!-- Node10&#45;&gt;Node11 -->
<g id="edge12" class="edge"><title>Node10&#45;&gt;Node11</title>
<path fill="none" stroke="midnightblue" d="M858.287,-115.64C864.198,-114.277 870.236,-113.009 876,-112 1031.34,-84.8059 1072.33,-94.0568 1229,-76 1231.92,-75.6633 1234.91,-75.3106 1237.93,-74.9479"/>
<polygon fill="midnightblue" stroke="midnightblue" points="857.426,-112.248 848.527,-117.997 859.069,-119.052 857.426,-112.248"/>
</g>
<!-- Node12 -->
<g id="node12" class="node"><title>Node12</title>
<g id="a_node12"><a xlink:href="dspi__slave__transport_8h.html" target="_top" xlink:title="dspi_slave_transport.h">
<polygon fill="white" stroke="black" points="502.5,-56.5 502.5,-75.5 615.5,-75.5 615.5,-56.5 502.5,-56.5"/>
<text text-anchor="middle" x="559" y="-63.5" font-family="Helvetica,sans-Serif" font-size="10.00">dspi_slave_transport.h</text>
</a>
</g>
</g>
<!-- Node10&#45;&gt;Node12 -->
<g id="edge13" class="edge"><title>Node10&#45;&gt;Node12</title>
<path fill="none" stroke="midnightblue" d="M770.928,-115.686C720.671,-104.141 642.07,-86.0835 596.04,-75.5091"/>
<polygon fill="midnightblue" stroke="midnightblue" points="770.362,-119.147 780.892,-117.975 771.929,-112.325 770.362,-119.147"/>
</g>
<!-- Node13 -->
<g id="node13" class="node"><title>Node13</title>
<g id="a_node13"><a xlink:href="serial__transport_8h.html" target="_top" xlink:title="serial_transport.h">
<polygon fill="white" stroke="black" points="634,-56.5 634,-75.5 726,-75.5 726,-56.5 634,-56.5"/>
<text text-anchor="middle" x="680" y="-63.5" font-family="Helvetica,sans-Serif" font-size="10.00">serial_transport.h</text>
</a>
</g>
</g>
<!-- Node10&#45;&gt;Node13 -->
<g id="edge14" class="edge"><title>Node10&#45;&gt;Node13</title>
<path fill="none" stroke="midnightblue" d="M788.961,-113.98C762.159,-102.424 723.083,-85.5758 699.735,-75.5091"/>
<polygon fill="midnightblue" stroke="midnightblue" points="787.659,-117.23 798.228,-117.975 790.431,-110.802 787.659,-117.23"/>
</g>
<!-- Node14 -->
<g id="node14" class="node"><title>Node14</title>
<g id="a_node14"><a xlink:href="spi__master__transport_8h.html" target="_top" xlink:title="spi_master_transport.h">
<polygon fill="white" stroke="black" points="744,-56.5 744,-75.5 860,-75.5 860,-56.5 744,-56.5"/>
<text text-anchor="middle" x="802" y="-63.5" font-family="Helvetica,sans-Serif" font-size="10.00">spi_master_transport.h</text>
</a>
</g>
</g>
<!-- Node10&#45;&gt;Node14 -->
<g id="edge15" class="edge"><title>Node10&#45;&gt;Node14</title>
<path fill="none" stroke="midnightblue" d="M813.068,-108.157C810.14,-97.2724 806.568,-83.9863 804.288,-75.5091"/>
<polygon fill="midnightblue" stroke="midnightblue" points="809.731,-109.227 815.708,-117.975 816.491,-107.409 809.731,-109.227"/>
</g>
<!-- Node15 -->
<g id="node15" class="node"><title>Node15</title>
<g id="a_node15"><a xlink:href="spi__slave__transport_8h.html" target="_top" xlink:title="spi_slave_transport.h">
<polygon fill="white" stroke="black" points="878,-56.5 878,-75.5 986,-75.5 986,-56.5 878,-56.5"/>
<text text-anchor="middle" x="932" y="-63.5" font-family="Helvetica,sans-Serif" font-size="10.00">spi_slave_transport.h</text>
</a>
</g>
</g>
<!-- Node10&#45;&gt;Node15 -->
<g id="edge16" class="edge"><title>Node10&#45;&gt;Node15</title>
<path fill="none" stroke="midnightblue" d="M843.46,-113.212C865.539,-101.688 896.832,-85.355 915.697,-75.5091"/>
<polygon fill="midnightblue" stroke="midnightblue" points="841.579,-110.245 834.333,-117.975 844.818,-116.451 841.579,-110.245"/>
</g>
<!-- Node16 -->
<g id="node16" class="node"><title>Node16</title>
<g id="a_node16"><a xlink:href="tcp__transport_8h.html" target="_top" xlink:title="tcp_transport.h">
<polygon fill="white" stroke="black" points="1004,-56.5 1004,-75.5 1086,-75.5 1086,-56.5 1004,-56.5"/>
<text text-anchor="middle" x="1045" y="-63.5" font-family="Helvetica,sans-Serif" font-size="10.00">tcp_transport.h</text>
</a>
</g>
</g>
<!-- Node10&#45;&gt;Node16 -->
<g id="edge17" class="edge"><title>Node10&#45;&gt;Node16</title>
<path fill="none" stroke="midnightblue" d="M860.365,-115.396C904.452,-103.84 972.531,-85.9952 1012.54,-75.5091"/>
<polygon fill="midnightblue" stroke="midnightblue" points="859.309,-112.054 850.524,-117.975 861.084,-118.825 859.309,-112.054"/>
</g>
<!-- Node17 -->
<g id="node17" class="node"><title>Node17</title>
<g id="a_node17"><a xlink:href="uart__cmsis__transport_8h.html" target="_top" xlink:title="uart_cmsis_transport.h">
<polygon fill="white" stroke="black" points="1104,-56.5 1104,-75.5 1220,-75.5 1220,-56.5 1104,-56.5"/>
<text text-anchor="middle" x="1162" y="-63.5" font-family="Helvetica,sans-Serif" font-size="10.00">uart_cmsis_transport.h</text>
</a>
</g>
</g>
<!-- Node10&#45;&gt;Node17 -->
<g id="edge18" class="edge"><title>Node10&#45;&gt;Node17</title>
<path fill="none" stroke="midnightblue" d="M860.165,-115.494C865.48,-114.244 870.856,-113.046 876,-112 918.422,-103.378 1033.24,-85.9856 1103.82,-75.5288"/>
<polygon fill="midnightblue" stroke="midnightblue" points="858.991,-112.177 850.097,-117.935 860.64,-118.98 858.991,-112.177"/>
</g>
<!-- Node23 -->
<g id="node23" class="node"><title>Node23</title>
<g id="a_node23"><a xlink:href="rpmsg__lite__rtos__transport_8h.html" target="_top" xlink:title="rpmsg_lite_rtos_transport.h">
<polygon fill="white" stroke="black" points="1378.5,-56.5 1378.5,-75.5 1513.5,-75.5 1513.5,-56.5 1378.5,-56.5"/>
<text text-anchor="middle" x="1446" y="-63.5" font-family="Helvetica,sans-Serif" font-size="10.00">rpmsg_lite_rtos_transport.h</text>
</a>
</g>
</g>
<!-- Node22&#45;&gt;Node23 -->
<g id="edge24" class="edge"><title>Node22&#45;&gt;Node23</title>
<path fill="none" stroke="midnightblue" d="M1499.07,-111.473C1485.49,-100.093 1467.32,-84.8694 1456.15,-75.5091"/>
<polygon fill="midnightblue" stroke="midnightblue" points="1496.91,-114.235 1506.83,-117.975 1501.41,-108.869 1496.91,-114.235"/>
</g>
<!-- Node24 -->
<g id="node24" class="node"><title>Node24</title>
<g id="a_node24"><a xlink:href="rpmsg__lite__transport_8h.html" target="_top" xlink:title="rpmsg_lite_transport.h">
<polygon fill="white" stroke="black" points="1531.5,-56.5 1531.5,-75.5 1644.5,-75.5 1644.5,-56.5 1531.5,-56.5"/>
<text text-anchor="middle" x="1588" y="-63.5" font-family="Helvetica,sans-Serif" font-size="10.00">rpmsg_lite_transport.h</text>
</a>
</g>
</g>
<!-- Node22&#45;&gt;Node24 -->
<g id="edge25" class="edge"><title>Node22&#45;&gt;Node24</title>
<path fill="none" stroke="midnightblue" d="M1534.93,-111.473C1548.51,-100.093 1566.68,-84.8694 1577.85,-75.5091"/>
<polygon fill="midnightblue" stroke="midnightblue" points="1532.59,-108.869 1527.17,-117.975 1537.09,-114.235 1532.59,-108.869"/>
</g>
<!-- Node25 -->
<g id="node25" class="node"><title>Node25</title>
<g id="a_node25"><a xlink:href="rpmsg__tty__rtos__transport_8h.html" target="_top" xlink:title="rpmsg_tty_rtos_transport.h">
<polygon fill="white" stroke="black" points="1663,-56.5 1663,-75.5 1797,-75.5 1797,-56.5 1663,-56.5"/>
<text text-anchor="middle" x="1730" y="-63.5" font-family="Helvetica,sans-Serif" font-size="10.00">rpmsg_tty_rtos_transport.h</text>
</a>
</g>
</g>
<!-- Node22&#45;&gt;Node25 -->
<g id="edge26" class="edge"><title>Node22&#45;&gt;Node25</title>
<path fill="none" stroke="midnightblue" d="M1557.28,-115.249C1598.66,-103.689 1662.16,-85.9511 1699.54,-75.5091"/>
<polygon fill="midnightblue" stroke="midnightblue" points="1556.21,-111.914 1547.52,-117.975 1558.09,-118.656 1556.21,-111.914"/>
</g>
</g>
</svg>
