<?xml version="1.0" encoding="UTF-8" standalone="no"?>
<!DOCTYPE svg PUBLIC "-//W3C//DTD SVG 1.1//EN"
 "http://www.w3.org/Graphics/SVG/1.1/DTD/svg11.dtd">
<!-- Generated by graphviz version 2.38.0 (20140413.2041)
 -->
<!-- Title: transport_arbitrator.h Pages: 1 -->
<svg width="436pt" height="364pt"
 viewBox="0.00 0.00 435.50 364.00" xmlns="http://www.w3.org/2000/svg" xmlns:xlink="http://www.w3.org/1999/xlink">
<g id="graph0" class="graph" transform="scale(1 1) rotate(0) translate(4 360)">
<title>transport_arbitrator.h</title>
<polygon fill="white" stroke="none" points="-4,4 -4,-360 431.5,-360 431.5,4 -4,4"/>
<!-- Node1 -->
<g id="node1" class="node"><title>Node1</title>
<polygon fill="#bfbfbf" stroke="black" points="185.5,-336.5 185.5,-355.5 292.5,-355.5 292.5,-336.5 185.5,-336.5"/>
<text text-anchor="middle" x="239" y="-343.5" font-family="Helvetica,sans-Serif" font-size="10.00">transport_arbitrator.h</text>
</g>
<!-- Node2 -->
<g id="node2" class="node"><title>Node2</title>
<g id="a_node2"><a xlink:href="erpc__threading_8h.html" target="_top" xlink:title="erpc_threading.h">
<polygon fill="white" stroke="black" points="42.5,-280.5 42.5,-299.5 131.5,-299.5 131.5,-280.5 42.5,-280.5"/>
<text text-anchor="middle" x="87" y="-287.5" font-family="Helvetica,sans-Serif" font-size="10.00">erpc_threading.h</text>
</a>
</g>
</g>
<!-- Node1&#45;&gt;Node2 -->
<g id="edge1" class="edge"><title>Node1&#45;&gt;Node2</title>
<path fill="none" stroke="midnightblue" d="M214.915,-336.444C189.455,-327.399 149.106,-313.064 120.541,-302.916"/>
<polygon fill="midnightblue" stroke="midnightblue" points="121.567,-299.566 110.972,-299.516 119.223,-306.162 121.567,-299.566"/>
</g>
<!-- Node6 -->
<g id="node6" class="node"><title>Node6</title>
<g id="a_node6"><a xlink:href="client__manager_8h.html" target="_top" xlink:title="client_manager.h">
<polygon fill="white" stroke="black" points="156.5,-280.5 156.5,-299.5 247.5,-299.5 247.5,-280.5 156.5,-280.5"/>
<text text-anchor="middle" x="202" y="-287.5" font-family="Helvetica,sans-Serif" font-size="10.00">client_manager.h</text>
</a>
</g>
</g>
<!-- Node1&#45;&gt;Node6 -->
<g id="edge5" class="edge"><title>Node1&#45;&gt;Node6</title>
<path fill="none" stroke="midnightblue" d="M232.89,-336.083C227.718,-328.534 220.154,-317.495 213.806,-308.23"/>
<polygon fill="midnightblue" stroke="midnightblue" points="216.536,-306.022 207.996,-299.751 210.761,-309.979 216.536,-306.022"/>
</g>
<!-- Node7 -->
<g id="node7" class="node"><title>Node7</title>
<g id="a_node7"><a xlink:href="codec_8h.html" target="_top" xlink:title="codec.h">
<polygon fill="white" stroke="black" points="250.5,-224.5 250.5,-243.5 301.5,-243.5 301.5,-224.5 250.5,-224.5"/>
<text text-anchor="middle" x="276" y="-231.5" font-family="Helvetica,sans-Serif" font-size="10.00">codec.h</text>
</a>
</g>
</g>
<!-- Node1&#45;&gt;Node7 -->
<g id="edge22" class="edge"><title>Node1&#45;&gt;Node7</title>
<path fill="none" stroke="midnightblue" d="M242.42,-336.431C245.974,-327.42 251.618,-312.8 256,-300 261.318,-284.466 266.76,-266.629 270.622,-253.574"/>
<polygon fill="midnightblue" stroke="midnightblue" points="274.007,-254.469 273.457,-243.888 267.289,-252.502 274.007,-254.469"/>
</g>
<!-- Node11 -->
<g id="node11" class="node"><title>Node11</title>
<g id="a_node11"><a xlink:href="transport_8h.html" target="_top" xlink:title="transport.h">
<polygon fill="white" stroke="black" points="344.5,-168.5 344.5,-187.5 407.5,-187.5 407.5,-168.5 344.5,-168.5"/>
<text text-anchor="middle" x="376" y="-175.5" font-family="Helvetica,sans-Serif" font-size="10.00">transport.h</text>
</a>
</g>
</g>
<!-- Node1&#45;&gt;Node11 -->
<g id="edge23" class="edge"><title>Node1&#45;&gt;Node11</title>
<path fill="none" stroke="midnightblue" d="M246.366,-336.075C268.397,-309.38 334.021,-229.865 362.53,-195.322"/>
<polygon fill="midnightblue" stroke="midnightblue" points="365.263,-197.509 368.929,-187.568 359.864,-193.053 365.263,-197.509"/>
</g>
<!-- Node3 -->
<g id="node3" class="node"><title>Node3</title>
<g id="a_node3"><a xlink:href="erpc__config__internal_8h_source.html" target="_top" xlink:title="erpc_config_internal.h">
<polygon fill="white" stroke="black" points="31.5,-224.5 31.5,-243.5 142.5,-243.5 142.5,-224.5 31.5,-224.5"/>
<text text-anchor="middle" x="87" y="-231.5" font-family="Helvetica,sans-Serif" font-size="10.00">erpc_config_internal.h</text>
</a>
</g>
</g>
<!-- Node2&#45;&gt;Node3 -->
<g id="edge2" class="edge"><title>Node2&#45;&gt;Node3</title>
<path fill="none" stroke="midnightblue" d="M87,-280.083C87,-273.006 87,-262.861 87,-253.986"/>
<polygon fill="midnightblue" stroke="midnightblue" points="90.5001,-253.751 87,-243.751 83.5001,-253.751 90.5001,-253.751"/>
</g>
<!-- Node5 -->
<g id="node5" class="node"><title>Node5</title>
<polygon fill="white" stroke="#bfbfbf" points="207.5,-0.5 207.5,-19.5 256.5,-19.5 256.5,-0.5 207.5,-0.5"/>
<text text-anchor="middle" x="232" y="-7.5" font-family="Helvetica,sans-Serif" font-size="10.00">stdint.h</text>
</g>
<!-- Node2&#45;&gt;Node5 -->
<g id="edge4" class="edge"><title>Node2&#45;&gt;Node5</title>
<path fill="none" stroke="midnightblue" d="M68.5828,-280.392C54.04,-272.728 34.2254,-260.222 22,-244 3.64459,-219.643 0,-209.499 0,-179 0,-179 0,-179 0,-121 0,-34.8607 132.194,-16.0881 197.008,-12.0607"/>
<polygon fill="midnightblue" stroke="midnightblue" points="197.374,-15.5462 207.172,-11.5161 196.999,-8.55626 197.374,-15.5462"/>
</g>
<!-- Node4 -->
<g id="node4" class="node"><title>Node4</title>
<g id="a_node4"><a xlink:href="erpc__config_8h.html" target="_top" xlink:title="erpc_config.h">
<polygon fill="white" stroke="black" points="28,-168.5 28,-187.5 102,-187.5 102,-168.5 28,-168.5"/>
<text text-anchor="middle" x="65" y="-175.5" font-family="Helvetica,sans-Serif" font-size="10.00">erpc_config.h</text>
</a>
</g>
</g>
<!-- Node3&#45;&gt;Node4 -->
<g id="edge3" class="edge"><title>Node3&#45;&gt;Node4</title>
<path fill="none" stroke="midnightblue" d="M83.3671,-224.083C80.3878,-216.77 76.0739,-206.181 72.3755,-197.103"/>
<polygon fill="midnightblue" stroke="midnightblue" points="75.5796,-195.691 68.5653,-187.751 69.097,-198.333 75.5796,-195.691"/>
</g>
<!-- Node6&#45;&gt;Node3 -->
<g id="edge6" class="edge"><title>Node6&#45;&gt;Node3</title>
<path fill="none" stroke="midnightblue" d="M183.778,-280.444C165.104,-271.675 135.844,-257.935 114.383,-247.858"/>
<polygon fill="midnightblue" stroke="midnightblue" points="115.676,-244.599 105.137,-243.516 112.701,-250.935 115.676,-244.599"/>
</g>
<!-- Node6&#45;&gt;Node7 -->
<g id="edge7" class="edge"><title>Node6&#45;&gt;Node7</title>
<path fill="none" stroke="midnightblue" d="M213.889,-280.324C225.15,-272.107 242.287,-259.602 255.709,-249.807"/>
<polygon fill="midnightblue" stroke="midnightblue" points="257.88,-252.556 263.894,-243.834 253.753,-246.901 257.88,-252.556"/>
</g>
<!-- Node7&#45;&gt;Node5 -->
<g id="edge21" class="edge"><title>Node7&#45;&gt;Node5</title>
<path fill="none" stroke="midnightblue" d="M256.074,-224.461C225.919,-210.299 169.794,-178.796 147,-132 132.208,-101.633 129.577,-84.9376 147,-56 158.024,-37.6905 179.273,-26.4406 197.766,-19.7681"/>
<polygon fill="midnightblue" stroke="midnightblue" points="198.99,-23.05 207.395,-16.5996 196.802,-16.4008 198.99,-23.05"/>
</g>
<!-- Node8 -->
<g id="node8" class="node"><title>Node8</title>
<g id="a_node8"><a xlink:href="erpc__common_8h_source.html" target="_top" xlink:title="erpc_common.h">
<polygon fill="white" stroke="black" points="260,-56.5 260,-75.5 346,-75.5 346,-56.5 260,-56.5"/>
<text text-anchor="middle" x="303" y="-63.5" font-family="Helvetica,sans-Serif" font-size="10.00">erpc_common.h</text>
</a>
</g>
</g>
<!-- Node7&#45;&gt;Node8 -->
<g id="edge8" class="edge"><title>Node7&#45;&gt;Node8</title>
<path fill="none" stroke="midnightblue" d="M277.452,-224.075C281.702,-197.945 294.183,-121.211 299.978,-85.577"/>
<polygon fill="midnightblue" stroke="midnightblue" points="303.456,-86.0003 301.606,-75.5681 296.546,-84.8765 303.456,-86.0003"/>
</g>
<!-- Node9 -->
<g id="node9" class="node"><title>Node9</title>
<g id="a_node9"><a xlink:href="message__buffer_8h.html" target="_top" xlink:title="message_buffer.h">
<polygon fill="white" stroke="black" points="156.5,-112.5 156.5,-131.5 249.5,-131.5 249.5,-112.5 156.5,-112.5"/>
<text text-anchor="middle" x="203" y="-119.5" font-family="Helvetica,sans-Serif" font-size="10.00">message_buffer.h</text>
</a>
</g>
</g>
<!-- Node7&#45;&gt;Node9 -->
<g id="edge10" class="edge"><title>Node7&#45;&gt;Node9</title>
<path fill="none" stroke="midnightblue" d="M270.272,-224.368C258.225,-206.215 230.077,-163.802 214.275,-139.99"/>
<polygon fill="midnightblue" stroke="midnightblue" points="217.147,-137.988 208.702,-131.591 211.315,-141.859 217.147,-137.988"/>
</g>
<!-- Node7&#45;&gt;Node11 -->
<g id="edge14" class="edge"><title>Node7&#45;&gt;Node11</title>
<path fill="none" stroke="midnightblue" d="M292.067,-224.324C307.958,-215.743 332.507,-202.486 350.958,-192.522"/>
<polygon fill="midnightblue" stroke="midnightblue" points="352.837,-195.486 359.973,-187.655 349.511,-189.326 352.837,-195.486"/>
</g>
<!-- Node13 -->
<g id="node13" class="node"><title>Node13</title>
<polygon fill="white" stroke="#bfbfbf" points="306,-112.5 306,-131.5 352,-131.5 352,-112.5 306,-112.5"/>
<text text-anchor="middle" x="329" y="-119.5" font-family="Helvetica,sans-Serif" font-size="10.00">cstring</text>
</g>
<!-- Node7&#45;&gt;Node13 -->
<g id="edge20" class="edge"><title>Node7&#45;&gt;Node13</title>
<path fill="none" stroke="midnightblue" d="M280.159,-224.368C288.828,-206.376 308.98,-164.55 320.507,-140.627"/>
<polygon fill="midnightblue" stroke="midnightblue" points="323.673,-142.119 324.86,-131.591 317.367,-139.081 323.673,-142.119"/>
</g>
<!-- Node8&#45;&gt;Node5 -->
<g id="edge9" class="edge"><title>Node8&#45;&gt;Node5</title>
<path fill="none" stroke="midnightblue" d="M291.593,-56.324C280.891,-48.1849 264.659,-35.8395 251.837,-26.0874"/>
<polygon fill="midnightblue" stroke="midnightblue" points="253.693,-23.1018 243.615,-19.8339 249.456,-28.6734 253.693,-23.1018"/>
</g>
<!-- Node9&#45;&gt;Node5 -->
<g id="edge13" class="edge"><title>Node9&#45;&gt;Node5</title>
<path fill="none" stroke="midnightblue" d="M205.276,-112.368C209.977,-94.5366 220.849,-53.2953 227.183,-29.2717"/>
<polygon fill="midnightblue" stroke="midnightblue" points="230.57,-30.1533 229.735,-19.5914 223.801,-28.3688 230.57,-30.1533"/>
</g>
<!-- Node9&#45;&gt;Node8 -->
<g id="edge11" class="edge"><title>Node9&#45;&gt;Node8</title>
<path fill="none" stroke="midnightblue" d="M219.067,-112.324C234.958,-103.743 259.507,-90.486 277.958,-80.5224"/>
<polygon fill="midnightblue" stroke="midnightblue" points="279.837,-83.4857 286.973,-75.6545 276.511,-77.3264 279.837,-83.4857"/>
</g>
<!-- Node10 -->
<g id="node10" class="node"><title>Node10</title>
<polygon fill="white" stroke="#bfbfbf" points="156,-56.5 156,-75.5 204,-75.5 204,-56.5 156,-56.5"/>
<text text-anchor="middle" x="180" y="-63.5" font-family="Helvetica,sans-Serif" font-size="10.00">cstddef</text>
</g>
<!-- Node9&#45;&gt;Node10 -->
<g id="edge12" class="edge"><title>Node9&#45;&gt;Node10</title>
<path fill="none" stroke="midnightblue" d="M199.202,-112.083C196.087,-104.77 191.577,-94.1814 187.711,-85.1034"/>
<polygon fill="midnightblue" stroke="midnightblue" points="190.866,-83.5798 183.727,-75.7511 184.426,-86.3229 190.866,-83.5798"/>
</g>
<!-- Node11&#45;&gt;Node8 -->
<g id="edge15" class="edge"><title>Node11&#45;&gt;Node8</title>
<path fill="none" stroke="midnightblue" d="M375.811,-168.298C375.146,-155.12 372.354,-129.758 361,-112 352.848,-99.2508 339.782,-88.6477 328.113,-80.9425"/>
<polygon fill="midnightblue" stroke="midnightblue" points="329.906,-77.9365 319.566,-75.6276 326.21,-83.8808 329.906,-77.9365"/>
</g>
<!-- Node11&#45;&gt;Node9 -->
<g id="edge18" class="edge"><title>Node11&#45;&gt;Node9</title>
<path fill="none" stroke="midnightblue" d="M348.588,-168.444C319.231,-159.28 272.481,-144.688 239.904,-134.519"/>
<polygon fill="midnightblue" stroke="midnightblue" points="240.873,-131.155 230.284,-131.516 238.787,-137.837 240.873,-131.155"/>
</g>
<!-- Node12 -->
<g id="node12" class="node"><title>Node12</title>
<g id="a_node12"><a xlink:href="crc16_8h.html" target="_top" xlink:title="crc16.h">
<polygon fill="white" stroke="black" points="378.5,-56.5 378.5,-75.5 427.5,-75.5 427.5,-56.5 378.5,-56.5"/>
<text text-anchor="middle" x="403" y="-63.5" font-family="Helvetica,sans-Serif" font-size="10.00">crc16.h</text>
</a>
</g>
</g>
<!-- Node11&#45;&gt;Node12 -->
<g id="edge16" class="edge"><title>Node11&#45;&gt;Node12</title>
<path fill="none" stroke="midnightblue" d="M380.24,-168.252C384.382,-159.338 390.551,-145.014 394,-132 398.063,-116.669 400.368,-98.7892 401.626,-85.6671"/>
<polygon fill="midnightblue" stroke="midnightblue" points="405.127,-85.8026 402.48,-75.5438 398.152,-85.2142 405.127,-85.8026"/>
</g>
<!-- Node11&#45;&gt;Node13 -->
<g id="edge19" class="edge"><title>Node11&#45;&gt;Node13</title>
<path fill="none" stroke="midnightblue" d="M368.239,-168.083C361.463,-160.298 351.457,-148.801 343.245,-139.367"/>
<polygon fill="midnightblue" stroke="midnightblue" points="345.822,-136.996 336.617,-131.751 340.542,-141.592 345.822,-136.996"/>
</g>
<!-- Node12&#45;&gt;Node5 -->
<g id="edge17" class="edge"><title>Node12&#45;&gt;Node5</title>
<path fill="none" stroke="midnightblue" d="M378.5,-57.2631C349.124,-47.9865 299.702,-32.3797 266.482,-21.889"/>
<polygon fill="midnightblue" stroke="midnightblue" points="267.322,-18.484 256.732,-18.8101 265.214,-25.1591 267.322,-18.484"/>
</g>
</g>
</svg>
