<?xml version="1.0" encoding="UTF-8" standalone="no"?>
<!DOCTYPE svg PUBLIC "-//W3C//DTD SVG 1.1//EN"
 "http://www.w3.org/Graphics/SVG/1.1/DTD/svg11.dtd">
<!-- Generated by graphviz version 2.38.0 (20140413.2041)
 -->
<!-- Title: uart_cmsis_transport.h Pages: 1 -->
<svg width="459pt" height="308pt"
 viewBox="0.00 0.00 458.50 308.00" xmlns="http://www.w3.org/2000/svg" xmlns:xlink="http://www.w3.org/1999/xlink">
<g id="graph0" class="graph" transform="scale(1 1) rotate(0) translate(4 304)">
<title>uart_cmsis_transport.h</title>
<polygon fill="white" stroke="none" points="-4,4 -4,-304 454.5,-304 454.5,4 -4,4"/>
<!-- Node1 -->
<g id="node1" class="node"><title>Node1</title>
<polygon fill="#bfbfbf" stroke="black" points="234.5,-280.5 234.5,-299.5 350.5,-299.5 350.5,-280.5 234.5,-280.5"/>
<text text-anchor="middle" x="292.5" y="-287.5" font-family="Helvetica,sans-Serif" font-size="10.00">uart_cmsis_transport.h</text>
</g>
<!-- Node2 -->
<g id="node2" class="node"><title>Node2</title>
<polygon fill="white" stroke="#bfbfbf" points="86.5,-224.5 86.5,-243.5 172.5,-243.5 172.5,-224.5 86.5,-224.5"/>
<text text-anchor="middle" x="129.5" y="-231.5" font-family="Helvetica,sans-Serif" font-size="10.00">Driver_USART.h</text>
</g>
<!-- Node1&#45;&gt;Node2 -->
<g id="edge1" class="edge"><title>Node1&#45;&gt;Node2</title>
<path fill="none" stroke="midnightblue" d="M266.672,-280.444C239.251,-271.359 195.723,-256.939 165.068,-246.783"/>
<polygon fill="midnightblue" stroke="midnightblue" points="165.8,-243.339 155.207,-243.516 163.599,-249.984 165.8,-243.339"/>
</g>
<!-- Node3 -->
<g id="node3" class="node"><title>Node3</title>
<g id="a_node3"><a xlink:href="framed__transport_8h.html" target="_top" xlink:title="framed_transport.h">
<polygon fill="white" stroke="black" points="190.5,-224.5 190.5,-243.5 288.5,-243.5 288.5,-224.5 190.5,-224.5"/>
<text text-anchor="middle" x="239.5" y="-231.5" font-family="Helvetica,sans-Serif" font-size="10.00">framed_transport.h</text>
</a>
</g>
</g>
<!-- Node1&#45;&gt;Node3 -->
<g id="edge2" class="edge"><title>Node1&#45;&gt;Node3</title>
<path fill="none" stroke="midnightblue" d="M283.748,-280.083C276.03,-272.22 264.595,-260.569 255.283,-251.081"/>
<polygon fill="midnightblue" stroke="midnightblue" points="257.592,-248.436 248.089,-243.751 252.596,-253.34 257.592,-248.436"/>
</g>
<!-- Node14 -->
<g id="node14" class="node"><title>Node14</title>
<polygon fill="white" stroke="#bfbfbf" points="307,-224.5 307,-243.5 384,-243.5 384,-224.5 307,-224.5"/>
<text text-anchor="middle" x="345.5" y="-231.5" font-family="Helvetica,sans-Serif" font-size="10.00">fsl_common.h</text>
</g>
<!-- Node1&#45;&gt;Node14 -->
<g id="edge20" class="edge"><title>Node1&#45;&gt;Node14</title>
<path fill="none" stroke="midnightblue" d="M301.252,-280.083C308.97,-272.22 320.405,-260.569 329.717,-251.081"/>
<polygon fill="midnightblue" stroke="midnightblue" points="332.404,-253.34 336.911,-243.751 327.408,-248.436 332.404,-253.34"/>
</g>
<!-- Node15 -->
<g id="node15" class="node"><title>Node15</title>
<polygon fill="white" stroke="#bfbfbf" points="402.5,-224.5 402.5,-243.5 450.5,-243.5 450.5,-224.5 402.5,-224.5"/>
<text text-anchor="middle" x="426.5" y="-231.5" font-family="Helvetica,sans-Serif" font-size="10.00">stdlib.h</text>
</g>
<!-- Node1&#45;&gt;Node15 -->
<g id="edge21" class="edge"><title>Node1&#45;&gt;Node15</title>
<path fill="none" stroke="midnightblue" d="M313.733,-280.444C335.884,-271.517 370.819,-257.439 395.936,-247.317"/>
<polygon fill="midnightblue" stroke="midnightblue" points="397.4,-250.501 405.367,-243.516 394.783,-244.008 397.4,-250.501"/>
</g>
<!-- Node4 -->
<g id="node4" class="node"><title>Node4</title>
<g id="a_node4"><a xlink:href="erpc__config__internal_8h_source.html" target="_top" xlink:title="erpc_config_internal.h">
<polygon fill="white" stroke="black" points="0,-112.5 0,-131.5 111,-131.5 111,-112.5 0,-112.5"/>
<text text-anchor="middle" x="55.5" y="-119.5" font-family="Helvetica,sans-Serif" font-size="10.00">erpc_config_internal.h</text>
</a>
</g>
</g>
<!-- Node3&#45;&gt;Node4 -->
<g id="edge3" class="edge"><title>Node3&#45;&gt;Node4</title>
<path fill="none" stroke="midnightblue" d="M195.651,-224.42C156.232,-215.966 102.063,-202.275 85.5,-188 71.5459,-175.973 63.6935,-156.084 59.555,-141.468"/>
<polygon fill="midnightblue" stroke="midnightblue" points="62.8935,-140.391 57.0747,-131.537 56.1021,-142.087 62.8935,-140.391"/>
</g>
<!-- Node6 -->
<g id="node6" class="node"><title>Node6</title>
<g id="a_node6"><a xlink:href="message__buffer_8h.html" target="_top" xlink:title="message_buffer.h">
<polygon fill="white" stroke="black" points="193,-112.5 193,-131.5 286,-131.5 286,-112.5 193,-112.5"/>
<text text-anchor="middle" x="239.5" y="-119.5" font-family="Helvetica,sans-Serif" font-size="10.00">message_buffer.h</text>
</a>
</g>
</g>
<!-- Node3&#45;&gt;Node6 -->
<g id="edge5" class="edge"><title>Node3&#45;&gt;Node6</title>
<path fill="none" stroke="midnightblue" d="M239.5,-224.368C239.5,-206.617 239.5,-165.666 239.5,-141.597"/>
<polygon fill="midnightblue" stroke="midnightblue" points="243,-141.591 239.5,-131.591 236,-141.591 243,-141.591"/>
</g>
<!-- Node10 -->
<g id="node10" class="node"><title>Node10</title>
<g id="a_node10"><a xlink:href="transport_8h.html" target="_top" xlink:title="transport.h">
<polygon fill="white" stroke="black" points="283,-168.5 283,-187.5 346,-187.5 346,-168.5 283,-168.5"/>
<text text-anchor="middle" x="314.5" y="-175.5" font-family="Helvetica,sans-Serif" font-size="10.00">transport.h</text>
</a>
</g>
</g>
<!-- Node3&#45;&gt;Node10 -->
<g id="edge10" class="edge"><title>Node3&#45;&gt;Node10</title>
<path fill="none" stroke="midnightblue" d="M251.55,-224.324C262.963,-216.107 280.331,-203.602 293.935,-193.807"/>
<polygon fill="midnightblue" stroke="midnightblue" points="296.16,-196.517 302.231,-187.834 292.07,-190.837 296.16,-196.517"/>
</g>
<!-- Node12 -->
<g id="node12" class="node"><title>Node12</title>
<polygon fill="white" stroke="#bfbfbf" points="380.5,-112.5 380.5,-131.5 426.5,-131.5 426.5,-112.5 380.5,-112.5"/>
<text text-anchor="middle" x="403.5" y="-119.5" font-family="Helvetica,sans-Serif" font-size="10.00">cstring</text>
</g>
<!-- Node3&#45;&gt;Node12 -->
<g id="edge16" class="edge"><title>Node3&#45;&gt;Node12</title>
<path fill="none" stroke="midnightblue" d="M276.415,-224.439C300.646,-217.505 332.07,-205.9 355.5,-188 372.165,-175.268 385.736,-155.239 394.143,-140.778"/>
<polygon fill="midnightblue" stroke="midnightblue" points="397.325,-142.257 399.112,-131.814 391.203,-138.863 397.325,-142.257"/>
</g>
<!-- Node13 -->
<g id="node13" class="node"><title>Node13</title>
<g id="a_node13"><a xlink:href="erpc__threading_8h.html" target="_top" xlink:title="erpc_threading.h">
<polygon fill="white" stroke="black" points="95,-168.5 95,-187.5 184,-187.5 184,-168.5 95,-168.5"/>
<text text-anchor="middle" x="139.5" y="-175.5" font-family="Helvetica,sans-Serif" font-size="10.00">erpc_threading.h</text>
</a>
</g>
</g>
<!-- Node3&#45;&gt;Node13 -->
<g id="edge17" class="edge"><title>Node3&#45;&gt;Node13</title>
<path fill="none" stroke="midnightblue" d="M223.433,-224.324C207.542,-215.743 182.993,-202.486 164.542,-192.522"/>
<polygon fill="midnightblue" stroke="midnightblue" points="165.989,-189.326 155.527,-187.655 162.663,-195.486 165.989,-189.326"/>
</g>
<!-- Node5 -->
<g id="node5" class="node"><title>Node5</title>
<g id="a_node5"><a xlink:href="erpc__config_8h.html" target="_top" xlink:title="erpc_config.h">
<polygon fill="white" stroke="black" points="18.5,-56.5 18.5,-75.5 92.5,-75.5 92.5,-56.5 18.5,-56.5"/>
<text text-anchor="middle" x="55.5" y="-63.5" font-family="Helvetica,sans-Serif" font-size="10.00">erpc_config.h</text>
</a>
</g>
</g>
<!-- Node4&#45;&gt;Node5 -->
<g id="edge4" class="edge"><title>Node4&#45;&gt;Node5</title>
<path fill="none" stroke="midnightblue" d="M55.5,-112.083C55.5,-105.006 55.5,-94.8611 55.5,-85.9865"/>
<polygon fill="midnightblue" stroke="midnightblue" points="59.0001,-85.751 55.5,-75.7511 52.0001,-85.7511 59.0001,-85.751"/>
</g>
<!-- Node7 -->
<g id="node7" class="node"><title>Node7</title>
<g id="a_node7"><a xlink:href="erpc__common_8h_source.html" target="_top" xlink:title="erpc_common.h">
<polygon fill="white" stroke="black" points="271.5,-56.5 271.5,-75.5 357.5,-75.5 357.5,-56.5 271.5,-56.5"/>
<text text-anchor="middle" x="314.5" y="-63.5" font-family="Helvetica,sans-Serif" font-size="10.00">erpc_common.h</text>
</a>
</g>
</g>
<!-- Node6&#45;&gt;Node7 -->
<g id="edge6" class="edge"><title>Node6&#45;&gt;Node7</title>
<path fill="none" stroke="midnightblue" d="M251.55,-112.324C262.963,-104.107 280.331,-91.6017 293.935,-81.8069"/>
<polygon fill="midnightblue" stroke="midnightblue" points="296.16,-84.5174 302.231,-75.8339 292.07,-78.8366 296.16,-84.5174"/>
</g>
<!-- Node8 -->
<g id="node8" class="node"><title>Node8</title>
<polygon fill="white" stroke="#bfbfbf" points="254,-0.5 254,-19.5 303,-19.5 303,-0.5 254,-0.5"/>
<text text-anchor="middle" x="278.5" y="-7.5" font-family="Helvetica,sans-Serif" font-size="10.00">stdint.h</text>
</g>
<!-- Node6&#45;&gt;Node8 -->
<g id="edge9" class="edge"><title>Node6&#45;&gt;Node8</title>
<path fill="none" stroke="midnightblue" d="M242.621,-112.167C247.04,-99.662 255.377,-76.0814 262.5,-56 265.622,-47.1976 269.095,-37.4292 272.004,-29.2492"/>
<polygon fill="midnightblue" stroke="midnightblue" points="275.374,-30.2201 275.429,-19.6254 268.779,-27.8734 275.374,-30.2201"/>
</g>
<!-- Node9 -->
<g id="node9" class="node"><title>Node9</title>
<polygon fill="white" stroke="#bfbfbf" points="167.5,-56.5 167.5,-75.5 215.5,-75.5 215.5,-56.5 167.5,-56.5"/>
<text text-anchor="middle" x="191.5" y="-63.5" font-family="Helvetica,sans-Serif" font-size="10.00">cstddef</text>
</g>
<!-- Node6&#45;&gt;Node9 -->
<g id="edge8" class="edge"><title>Node6&#45;&gt;Node9</title>
<path fill="none" stroke="midnightblue" d="M231.574,-112.083C224.654,-104.298 214.435,-92.8015 206.048,-83.3665"/>
<polygon fill="midnightblue" stroke="midnightblue" points="208.538,-80.8999 199.279,-75.7511 203.306,-85.5505 208.538,-80.8999"/>
</g>
<!-- Node7&#45;&gt;Node8 -->
<g id="edge7" class="edge"><title>Node7&#45;&gt;Node8</title>
<path fill="none" stroke="midnightblue" d="M308.555,-56.083C303.523,-48.5341 296.163,-37.4948 289.987,-28.2298"/>
<polygon fill="midnightblue" stroke="midnightblue" points="292.793,-26.1301 284.334,-19.7511 286.969,-30.0131 292.793,-26.1301"/>
</g>
<!-- Node10&#45;&gt;Node6 -->
<g id="edge14" class="edge"><title>Node10&#45;&gt;Node6</title>
<path fill="none" stroke="midnightblue" d="M302.45,-168.324C291.037,-160.107 273.669,-147.602 260.065,-137.807"/>
<polygon fill="midnightblue" stroke="midnightblue" points="261.93,-134.837 251.769,-131.834 257.84,-140.517 261.93,-134.837"/>
</g>
<!-- Node10&#45;&gt;Node7 -->
<g id="edge11" class="edge"><title>Node10&#45;&gt;Node7</title>
<path fill="none" stroke="midnightblue" d="M314.5,-168.368C314.5,-150.617 314.5,-109.666 314.5,-85.5974"/>
<polygon fill="midnightblue" stroke="midnightblue" points="318,-85.5914 314.5,-75.5914 311,-85.5915 318,-85.5914"/>
</g>
<!-- Node11 -->
<g id="node11" class="node"><title>Node11</title>
<g id="a_node11"><a xlink:href="crc16_8h.html" target="_top" xlink:title="crc16.h">
<polygon fill="white" stroke="black" points="376,-56.5 376,-75.5 425,-75.5 425,-56.5 376,-56.5"/>
<text text-anchor="middle" x="400.5" y="-63.5" font-family="Helvetica,sans-Serif" font-size="10.00">crc16.h</text>
</a>
</g>
</g>
<!-- Node10&#45;&gt;Node11 -->
<g id="edge12" class="edge"><title>Node10&#45;&gt;Node11</title>
<path fill="none" stroke="midnightblue" d="M321.248,-168.368C335.504,-150.135 368.894,-107.426 387.463,-83.6752"/>
<polygon fill="midnightblue" stroke="midnightblue" points="390.381,-85.6253 393.783,-75.5914 384.866,-81.3138 390.381,-85.6253"/>
</g>
<!-- Node10&#45;&gt;Node12 -->
<g id="edge15" class="edge"><title>Node10&#45;&gt;Node12</title>
<path fill="none" stroke="midnightblue" d="M328.799,-168.324C342.683,-159.9 363.992,-146.971 380.304,-137.074"/>
<polygon fill="midnightblue" stroke="midnightblue" points="382.502,-139.834 389.236,-131.655 378.871,-133.85 382.502,-139.834"/>
</g>
<!-- Node11&#45;&gt;Node8 -->
<g id="edge13" class="edge"><title>Node11&#45;&gt;Node8</title>
<path fill="none" stroke="midnightblue" d="M381.169,-56.4435C361.18,-47.5961 329.757,-33.6875 306.936,-23.5865"/>
<polygon fill="midnightblue" stroke="midnightblue" points="308.302,-20.3635 297.741,-19.5164 305.468,-26.7645 308.302,-20.3635"/>
</g>
<!-- Node13&#45;&gt;Node4 -->
<g id="edge18" class="edge"><title>Node13&#45;&gt;Node4</title>
<path fill="none" stroke="midnightblue" d="M126.004,-168.324C112.9,-159.9 92.7881,-146.971 77.3931,-137.074"/>
<polygon fill="midnightblue" stroke="midnightblue" points="79.267,-134.118 68.9626,-131.655 75.4817,-140.006 79.267,-134.118"/>
</g>
<!-- Node13&#45;&gt;Node8 -->
<g id="edge19" class="edge"><title>Node13&#45;&gt;Node8</title>
<path fill="none" stroke="midnightblue" d="M138.141,-168.213C135.3,-146.496 131.092,-89.6242 158.5,-56 179.317,-30.4611 216.203,-19.411 243.602,-14.633"/>
<polygon fill="midnightblue" stroke="midnightblue" points="244.237,-18.0766 253.586,-13.0917 243.169,-11.1585 244.237,-18.0766"/>
</g>
</g>
</svg>
