<?xml version="1.0" encoding="UTF-8" standalone="no"?>
<svg
   xmlns:dc="http://purl.org/dc/elements/1.1/"
   xmlns:cc="http://creativecommons.org/ns#"
   xmlns:rdf="http://www.w3.org/1999/02/22-rdf-syntax-ns#"
   xmlns:svg="http://www.w3.org/2000/svg"
   xmlns="http://www.w3.org/2000/svg"
   xmlns:sodipodi="http://sodipodi.sourceforge.net/DTD/sodipodi-0.dtd"
   xmlns:inkscape="http://www.inkscape.org/namespaces/inkscape"
   height="400"
   width="400"
   xml:space="preserve"
   viewBox="0 0 400.00001 400"
   y="0px"
   x="0px"
   id="svg8"
   version="1.1"
   sodipodi:docname="MinuteNeedle.svg"
   inkscape:version="1.0.1 (3bc2e813f5, 2020-09-07)"><sodipodi:namedview
     pagecolor="#ffffff"
     bordercolor="#666666"
     borderopacity="1"
     objecttolerance="10"
     gridtolerance="10"
     guidetolerance="10"
     inkscape:pageopacity="0"
     inkscape:pageshadow="2"
     inkscape:window-width="1920"
     inkscape:window-height="1017"
     id="namedview849"
     showgrid="false"
     inkscape:zoom="4.8295393"
     inkscape:cx="63.472751"
     inkscape:cy="64.251293"
     inkscape:window-x="-8"
     inkscape:window-y="-8"
     inkscape:window-maximized="1"
     inkscape:current-layer="svg8"
     inkscape:document-rotation="0" /><metadata
     id="metadata960"><rdf:RDF><cc:Work
         rdf:about=""><dc:format>image/svg+xml</dc:format><dc:type
           rdf:resource="http://purl.org/dc/dcmitype/StillImage" /><dc:title /></cc:Work></rdf:RDF></metadata><defs
     id="defs958" />
<path
     style="fill:#0b0d31;stroke:none"
     id="path951"
     d="m -0.01907689,12.303451 c 6.29999999,0 11.39999989,-5.1000001 11.39999989,-11.40000006 0,-6.30000004 -5.0999999,-11.39999994 -11.39999989,-11.39999994 -6.30000001,0 -11.40000011,4.9999999 -11.40000011,11.29999994 0,6.29999996 5.1000001,11.50000006 11.40000011,11.50000006 z"
     />
<path
     style="fill:#e2d945;stroke:none"
     d="m -0.01907689,150.40345 c -2.00000001,0 -4.10000001,-2 -5.20000001,-6.1 V 11.403451 c 1.6,0.8 3.4,1.3 5.20000001,1.3 1.79999999,0 3.59999999,-0.4 5.19999999,-1.3 V 144.30345 c -1,4.1 -3.1,6.1 -5.19999999,6.1 z"
     id="path826-3-3" />
<path
     style="fill:#41e8df;stroke:none"
     id="path953"
     d="m 0.18798311,5.2752149 c 2.59999999,0 4.69999999,-2.1 4.69999999,-4.69999996 0,-2.60000004 -2.1,-4.70000004 -4.69999999,-4.70000004 -2.60000001,0 -4.70000001,2.1 -4.70000001,4.70000004 0,2.49999996 2.1,4.69999996 4.70000001,4.69999996 z"
     />
</svg>
