<?xml version="1.0" encoding="UTF-8" standalone="no"?>
<svg version="1.2" baseProfile="tiny" id="svg-root"
   viewBox="0 0 400 400" xmlns="http://www.w3.org/2000/svg"
   xmlns:xlink="http://www.w3.org/1999/xlink" xmlns:xe="http://www.w3.org/2001/xml-events">
<path
     fill="#8a3523" stroke="none"
     d="m -0.25676,115.57432 c -2.1,0 -4.1,-2 -5.2,-6.1 V 10.874324 c 1.6,0.8 3.5,1.3 5.2,1.3 1.9,0 3.6,-0.4 5.2,-1.3 v 98.599996 c -1.1,4.1 -3.2,6.1 -5.2,6.1 z"
     id="path826-3" />
<path
     fill="#0b0d31" stroke="none"
     id="path848"
     d="m -0.25676,11.774324 c 6.2,0 11.4,-5.1 11.4,-11.50000001 0,-6.29999999 -5,-11.49999999 -11.4,-11.49999999 -6.4,0 -11.4,5.2 -11.4,11.49999999 0,6.30000001 5,11.50000001 11.4,11.50000001 z"
     />
<path
     fill="#41e8df" stroke="none"
     id="path851"
     d="m -0.25676,4.774324 c 2.7,0 4.8,-2.1 4.8,-4.80000001 0,-2.69999999 -2.3,-4.69999999 -4.8,-4.69999999 -2.5,0 -4.8,2 -4.8,4.69999999 0,2.70000001 2.1,4.80000001 4.8,4.80000001 z"
     />
</svg>
