<?xml version="1.0" encoding="UTF-8" standalone="no"?>
<svg version="1.2" baseProfile="tiny" xml:id="svg-root"
   viewBox="0 0 400 400" xmlns="http://www.w3.org/2000/svg"
   xmlns:xlink="http://www.w3.org/1999/xlink" xmlns:xe="http://www.w3.org/2001/xml-events">
<path
     fill="#0b0d31" stroke="none"
     id="path951"
     d="m -0.01907689,12.303451 c 6.29999999,0 11.39999989,-5.1000001 11.39999989,-11.40000006 0,-6.30000004 -5.0999999,-11.39999994 -11.39999989,-11.39999994 -6.30000001,0 -11.40000011,4.9999999 -11.40000011,11.29999994 0,6.29999996 5.1000001,11.50000006 11.40000011,11.50000006 z"
     />
<path
     fill="#e2d945" stroke="none"
     d="m -0.01907689,150.40345 c -2.00000001,0 -4.10000001,-2 -5.20000001,-6.1 V 11.403451 c 1.6,0.8 3.4,1.3 5.20000001,1.3 1.79999999,0 3.59999999,-0.4 5.19999999,-1.3 V 144.30345 c -1,4.1 -3.1,6.1 -5.19999999,6.1 z"
     id="path826-3-3" />
<path
     fill="#41e8df" stroke="none"
     id="path953"
     d="m 0.18798311,5.2752149 c 2.59999999,0 4.69999999,-2.1 4.69999999,-4.69999996 0,-2.60000004 -2.1,-4.70000004 -4.69999999,-4.70000004 -2.60000001,0 -4.70000001,2.1 -4.70000001,4.70000004 0,2.49999996 2.1,4.69999996 4.70000001,4.69999996 z"
     />
</svg>
